<svg xmlns="http://www.w3.org/2000/svg" 
xmlns:xlink="http://www.w3.org/1999/xlink" 
version="1.1" id="Layer_1" x="0px" y="0px" 
style="enable-background:new 200 200 195.28 441.89;" 
xml:space="preserve" viewBox="292.09 415.65 10.69 9.56">
<style type="text/css">	.st0{fill:#F9E3D9;}	.st1{fill:#CF5D3D;}	.st2{fill:#EA9277;}	.st3{fill:#C47C61;}	.st4{fill:#F9A97E;}	.st5{fill:#FFFFFF;}	.st6{fill:#C96E3E;}	.st7{fill:#E78571;}	.st8{fill:#7D885B;}	.st9{fill:#313D23;}	.st10{fill:#DE553F;}	.st11{fill:#534030;}	.st12{fill:#785D48;}	.st13{fill:#F26B42;}	.st14{fill:#F26640;}	.st15{fill:#D65E3C;}	.st16{fill:#E7403C;}	.st17{fill:#F1ECC9;}	.st18{fill:#E3C1A4;}</style><path class="st0" d="M300.87,420.04c0,2.42-1.96,4.39-4.39,4.39c-2.42,0-4.39-1.96-4.39-4.39c0-2.42,1.96-4.39,4.39-4.39  C298.9,415.65,300.87,417.61,300.87,420.04z"></path><path class="st1" d="M293.4,425.19c0.14-0.31,0.31-0.57,0.49-0.72c0.68-0.53,1.37-2.22,1.37-2.22s-2.27,1.55-2.44,2.21  c-0.05,0.18-0.15,0.44-0.28,0.73H293.4z"></path><path class="st2" d="M297.93,419.8c0,0,0.25,2.02-0.69,2.81c-0.46,0.39-0.96,0.67-1.35,0.85c-0.05-0.03-0.1-0.07-0.13-0.12  c-0.68-0.87,0.28-2.32,0.28-2.32s1.11-3.33,0.66-4.2c0,0,1.35,0.39,1.6,2.62L297.93,419.8z"></path><path class="st3" d="M295.89,423.46c0.39-0.18,0.89-0.46,1.35-0.85c0.93-0.79,0.69-2.81,0.69-2.81l0.36-0.36  c0.03,0.25,0.04,0.52,0.04,0.81c0,0,0.01,1.02,0.65,1.47C299.59,422.15,296.77,423.99,295.89,423.46z"></path><path class="st3" d="M295.46,416.65c0,0,1.57-0.73,2.61,0.92c1.04,1.66-0.22,2.3-0.27,2.56s-0.17,0.73-0.3,0.79  c-0.13,0.06-0.52-0.98-0.52-0.98l0.24-0.79c0,0,0.1-0.47-0.28-0.83C296.55,417.97,295.72,416.78,295.46,416.65z"></path><path class="st3" d="M297.38,418.54c0,0,0.26,2.16,0.12,2.38s-0.87,0.73-1.32,0.83c-0.45,0.1-0.09-2.06,0.24-2.55  C296.75,418.72,297.38,418.54,297.38,418.54z"></path><path class="st4" d="M296.99,418.37c0,0,0.3,0.38,0.15,0.72c-0.15,0.33-0.54,0.63-0.51,0.86c0,0,0.07,1.53-0.36,1.76  c-0.43,0.24-1.09,0.33-1.34,0.2c-0.26-0.13-0.92-0.82-0.7-1.6c0.22-0.78,0.14-0.54,0.01-0.77c-0.13-0.23-0.4-0.65-0.03-1.08  c0.37-0.43,0.45-1.83,1.52-1.83S297.12,416.89,296.99,418.37z"></path><path class="st5" d="M295.58,418.74c0.05,0.06,0.09,0.27,0.45,0.27c0.36,0.01,0.39-0.33,0.39-0.33L295.58,418.74z"></path><path class="st5" d="M294.77,418.74c0,0-0.2,0.36-0.41-0.11c-0.01-0.02,0.04-0.01,0.1,0.01c0.02,0.01,0.04,0.01,0.06,0.02  c0.05,0.02,0.11,0.04,0.15,0.05c0.03,0.01,0.05,0.02,0.06,0.02C294.76,418.74,294.77,418.74,294.77,418.74z"></path><path class="st6" d="M296.09,420.23c0,0-0.19-0.62-0.32-0.74l0.03-0.03C295.79,419.46,296.05,419.86,296.09,420.23z"></path><path class="st6" d="M294.49,419.34c0,0-0.14,0.5-0.09,0.83c0,0,0.05-0.65,0.14-0.79L294.49,419.34z"></path><path class="st6" d="M295.92,420.56c-0.54-0.19-1.27-0.04-1.32-0.03C294.6,420.52,296.12,420.62,295.92,420.56z"></path><path class="st7" d="M297.73,418.41c0,0,0.57-0.68,0.83-0.08c0.26,0.61-0.09,0.94-0.25,1.05c-0.15,0.11-0.5,0.52-0.7,0.38  C297.41,419.63,297.73,418.41,297.73,418.41z"></path><path class="st3" d="M297.8,418.71l0.44-0.23c0,0,0.21,0.21,0.11,0.38c-0.1,0.17-0.42,0.46-0.42,0.46S297.86,418.82,297.8,418.71z"></path><path class="st8" d="M296.27,418.77c0,0.11-0.09,0.21-0.21,0.21c-0.11,0-0.21-0.09-0.21-0.21c0-0.11,0.09-0.21,0.21-0.21  C296.17,418.56,296.27,418.66,296.27,418.77z"></path><path class="st9" d="M296.18,418.77c0,0.07-0.05,0.12-0.12,0.12c-0.07,0-0.12-0.05-0.12-0.12c0-0.07,0.05-0.12,0.12-0.12  C296.12,418.65,296.18,418.7,296.18,418.77z"></path><path class="st8" d="M294.74,418.73c-0.01,0.07-0.07,0.12-0.14,0.12c-0.08,0-0.15-0.07-0.15-0.15c0-0.02,0-0.04,0.01-0.06  c0.02,0.01,0.04,0.01,0.06,0.02c0.05,0.02,0.11,0.04,0.15,0.05C294.71,418.72,294.73,418.73,294.74,418.73z"></path><path class="st9" d="M294.68,418.71c-0.01,0.04-0.04,0.07-0.08,0.07c-0.05,0-0.08-0.04-0.08-0.08c0-0.02,0-0.03,0.01-0.04  C294.58,418.67,294.64,418.69,294.68,418.71z"></path><path class="st10" d="M294.71,419.29c0,0-0.23-0.06-0.22,0.14c0.01,0.2,0.22,0.4,0.22,0.4V419.29z"></path><path class="st11" d="M296.81,418.61c-0.05,0.04-1.24,0.23-1.38,0.22c-0.14-0.01-0.15-0.27-0.09-0.29c0.01-0.01,0.03-0.01,0.04-0.02  c-0.01,0.08,0.03,0.2,0.12,0.21c0.11,0.01,0.92-0.11,1.25-0.18C296.8,418.58,296.82,418.61,296.81,418.61z"></path><path class="st12" d="M296.75,418.55c-0.32,0.07-1.14,0.19-1.25,0.18c-0.1-0.01-0.13-0.13-0.12-0.21  C296.05,418.21,296.58,418.43,296.75,418.55z"></path><path class="st11" d="M294.88,418.78c-0.04,0.04-0.1,0.04-0.15,0c-0.25-0.21-0.46-0.18-0.58-0.22c-0.13-0.04-0.07-0.14-0.07-0.14  c0.07-0.04,0.14-0.05,0.21-0.06c-0.03,0.01-0.07,0.02-0.1,0.04c0,0-0.06,0.1,0.07,0.14c0.12,0.04,0.33,0.02,0.58,0.22  C294.86,418.77,294.87,418.78,294.88,418.78z"></path><path class="st12" d="M294.89,418.76c0,0.01-0.01,0.02-0.02,0.03c-0.01,0-0.02-0.01-0.03-0.02c-0.25-0.21-0.46-0.18-0.58-0.22  c-0.13-0.04-0.07-0.14-0.07-0.14c0.03-0.02,0.06-0.03,0.1-0.04c0.29-0.02,0.56,0.16,0.6,0.26  C294.91,418.66,294.91,418.73,294.89,418.76z"></path><path class="st13" d="M294.97,418.56c0,0-0.39,0.48-0.35,1.24c0,0,0.17,0.29,0.42,0.12c0.24-0.17,0.29-0.17,0.49-0.16  c0.2,0.01,0.35-0.33,0.19-0.33c-0.16-0.01-0.31,0.03-0.46,0.03C295.1,419.47,294.94,418.74,294.97,418.56z"></path><path class="st12" d="M296.79,421.57c-0.2,0.26-0.74,0.43-1,0.47c-0.05,0.01-0.08,0.01-0.11,0.01c-0.01,0-0.07,0-0.07,0  s-0.32-0.02-0.6-0.05c-0.19-0.01-0.37-0.03-0.42-0.03c-0.11-0.01-0.39-0.51-0.37-0.69c0.02-0.17,0.02-0.36,0.02-0.36  s0.3,0.66,0.41,0.78c0.11,0.13,0.3-0.1,0.21-0.33c-0.09-0.22,0.18-0.15,0.18-0.15s0.05,0.55,0.58,0.58c0,0,0,0,0,0  c0.02,0,0.05,0,0.07,0c0,0,0.01,0,0.01,0c0.6-0.02,1.16-0.99,1.11-1.44C296.81,420.39,297.03,421.26,296.79,421.57z"></path><path class="st12" d="M296.81,420.39l0.1-0.03c0,0,0.13,0.67-0.05,1.05c-0.18,0.38-0.33,0.14-0.33,0.14s0.34-0.54,0.31-0.71  C296.82,420.66,296.81,420.39,296.81,420.39z"></path><path class="st3" d="M298.41,421.34c-0.08,0.48-0.43,1.27-1.61,2.36c0-0.01,0-0.01,0-0.01l-0.64,0.03c0-0.08-0.01-0.15-0.02-0.22  c0.5-0.04,1.51-0.93,1.99-1.7c0.11-0.17,0.19-0.34,0.23-0.49C298.38,421.32,298.39,421.33,298.41,421.34z"></path><path class="st3" d="M296.16,423.72l-0.11,0.01c0.01-0.08,0.01-0.15,0.01-0.23c0.03,0,0.05,0,0.08,0  C296.15,423.57,296.15,423.65,296.16,423.72z"></path><path class="st14" d="M300.47,425.19c0.02-0.12,0.04-0.24,0.07-0.36c0.13-0.7-0.14-1.51-0.52-2.21c-0.32-0.25-0.62-0.49-0.9-0.71  c-0.16-0.12-0.31-0.24-0.44-0.35c-0.09-0.07-0.18-0.14-0.26-0.21c-0.08,0.48-0.43,1.27-1.61,2.36c0-0.01,0-0.01,0-0.01l-0.64,0.03  l-0.11,0.01c0.01-0.08,0.01-0.15,0.01-0.23c-0.06-0.01-0.1-0.03-0.14-0.07c-0.33-0.36-0.41-0.66-0.41-0.93c0,0,0,0,0,0  c0-0.14,0.03-0.28,0.07-0.4c0.02-0.06-0.31,0.13-0.32,0.16c-0.1,0.22-0.23,0.43-0.38,0.63c-0.55,0.75-1.36,1.38-1.59,1.85  c-0.05,0.1-0.12,0.26-0.2,0.46H300.47z"></path><path class="st15" d="M302.78,423.67c-0.75-0.57-2.53-1.18-3.14-1.65c-0.64-0.92-1.36-1.49-1.25-1.05c0.02,0.1,0.01,0.21-0.02,0.34  c0.09,0.07,0.2,0.16,0.31,0.24c0.38,0.3,0.85,0.68,1.34,1.07c0.33,0.26,0.68,0.54,1.02,0.81c0.65,0.51,1.66,1.18,1.54,1.76"></path><path class="st14" d="M302.57,425.19c0.12-0.59-0.89-1.25-1.54-1.76c-0.34-0.27-0.69-0.54-1.02-0.81c-0.5-0.39-0.96-0.76-1.34-1.07  l1.18,2.97l0.16,0.34c-0.15,0.08-0.28,0.2-0.41,0.32H302.57"></path><path class="st16" d="M299.32,423.03c-0.37-0.48-2.34,0.58-2.52,0.67c-0.01,0-0.01,0.01-0.01,0.01c0,0,0.01-0.01,0.01-0.01  c1.18-1.08,1.53-1.88,1.61-2.36c0.06-0.35-0.02-0.53-0.02-0.53c0.19,0.08,0.5,0.59,0.72,1.09c0.14,0.3,0.24,0.6,0.28,0.8  C299.49,423.24,299.32,423.03,299.32,423.03z"></path><path class="st17" d="M296.27,425.19c0.35-1.23-0.23-1.46-0.23-1.46h0c0,0,0,0,0,0.01c0,0.01,0,0.01,0,0.02c0,0.01,0,0.01,0,0.02  c-0.02,0.15-0.09,0.72-0.22,1.42H296.27z"></path><path class="st16" d="M296.06,423.49c0,0.08-0.01,0.16-0.01,0.23c0,0,0,0,0,0.01c0,0.01,0,0.01,0,0.02c0,0.01,0,0.01,0,0.02  c0,0.02-0.01,0.05-0.01,0.07c0,0-0.34-0.84-1.14-0.96c-0.02,0-0.03-0.01-0.05-0.01c-0.38-0.04-0.64-0.01-0.64-0.01  s0.28-0.55,0.81-0.85c0.28,0.02,0.6,0.05,0.6,0.05s0.06,0,0.07,0c0.03,0,0.06,0,0.11-0.01  C295.91,422.36,296.07,422.96,296.06,423.49z"></path><path class="st18" d="M296.27,425.19h0.07c0.24-0.56,0.43-1.1,0.46-1.48c0,0,0,0,0-0.01c0-0.01,0-0.01,0-0.01l-0.64,0.03l-0.11,0.01  C296.04,423.73,296.62,423.96,296.27,425.19z"></path></svg>