<?xml version="1.0" encoding="utf-8"?>
<!-- Generator: Adobe Illustrator 25.2.3, SVG Export Plug-In . SVG Version: 6.00 Build 0)  -->
<svg version="1.1" id="Layer_1" xmlns="http://www.w3.org/2000/svg" xmlns:xlink="http://www.w3.org/1999/xlink" x="0px" y="0px"
	 viewBox="0 0 576 576" enable-background="new 0 0 576 576" xml:space="preserve">
<g>
	<g>
		<defs>
			<path id="SVGID_1_" d="M576,288.6c0,158.87-128.79,287.67-287.67,287.67S0.66,447.47,0.66,288.6
				C0.66,129.72,129.45,0.92,288.33,0.92S576,129.72,576,288.6z"/>
		</defs>
		<use xlink:href="#SVGID_1_"  overflow="visible" fill="#F9E3D9"/>
		<clipPath id="SVGID_2_">
			<use xlink:href="#SVGID_1_"  overflow="visible"/>
		</clipPath>
		<g clip-path="url(#SVGID_2_)">
			<g>
				<path fill="#E6E6E5" d="M340.98,448.62l59.4,102.65l70.97,44.64l45.78-52.65C517.13,543.26,417.98,472.27,340.98,448.62z"/>
			</g>
			<g>
				<path fill="#FAAF85" d="M287.57,537.59c2.65-10.44,59.83-74.94,60.8-88.12c-4.26-1.34-8.69-2.46-13.19-3.41l-7.64-42.02
					c-3.37-18.51-21.1-30.79-39.62-27.43c-18.51,3.37-30.8,21.11-27.43,39.62l4.64,25.52c-5.98,0.31-9.58,0.66-9.58,0.66
					L287.57,537.59z"/>
			</g>
			<g>
				<path fill="#51B982" d="M406.94,792.62l10.72-211.73c0,0-41.89-117.1-47.75-121.04c-8.17-5.48-21.69-9.59-21.69-9.59
					l-5.93,10.49c-21.47,30.71-55.61,42.04-97.32-17.88c0,0-19.41,9.55-24.26,12.25c-2.58,1.43-49.37,96.39-49.37,96.39
					s-12.39,83.46-13.46,241.12H406.94z"/>
			</g>
			<g>
				<path fill="#E6E6E5" d="M232.03,448.62l-59.39,102.65l-70.97,44.64l-45.79-52.65C55.88,543.26,155.03,472.27,232.03,448.62z"/>
			</g>
			<g>
				<path fill="#E6E6E5" d="M297.92,494.75c43.48,2.74,62.72-40.14,62.72-40.14c-4.76-2.31-9.77-4.41-12.27-5.14
					c0.3,0.44-1.73,6.3-12.33,17.62c-22.73,24.28-64.37,24.46-78.82-24.67c-3.89-0.1-8.14-0.05-12,0.25
					C247.59,458.61,261.41,492.45,297.92,494.75z"/>
			</g>
			<g>
				<path fill="#E18B5D" d="M328.23,407.83l-67.95,6.81c0.07,0.53,0.11,1.06,0.21,1.58l3.16,17.37c16.64,3.25,47.64,7.2,70.63,7.47
					L328.23,407.83z"/>
			</g>
			<g>
				<path fill="#37A368" d="M406.94,792.62l-11.01-86.19c-30.85,15.8-72.37,23.73-111.93-11.26
					c-66.64-58.95-53.91-209.57-49.57-247.07c-5.4,2.69-11.32,5.68-13.72,7.01c-2.58,1.43-49.37,96.39-49.37,96.39
					s-12.39,83.46-13.46,241.12H406.94z"/>
			</g>
			<g>
				<g>
					<path fill="#E9996E" d="M441.86,256.89c3.2,16.32-7.18,30.57-22.45,35.09c-37.92,11.23-30.85-7.69-34.05-24.01
						c-3.2-16.32-12.57-27.47,22.45-35.09C423.35,229.49,438.66,240.57,441.86,256.89z"/>
				</g>
				<g>
					<path fill="#D27A54" d="M431.48,263.1c0.46-9.89-6.82-18.48-16.28-18.72c-3.4-0.09-6.15,0.03-8.39,0.34
						c0.81-0.01,1.64,0,2.54,0.03c9.47,0.25,16.75,8.83,16.28,18.72c-0.42,9.01-7.13,15.41-15.48,16.83c1.05,0,2.15-0.02,3.36-0.08
						C422.98,279.77,431.01,273,431.48,263.1z"/>
				</g>
				<g>
					<path fill="#E9996E" d="M139.72,280.11c0.58-16.62,13.92-28.16,29.81-29.1c39.47-2.35,28.31,14.47,27.73,31.1
						c-0.57,16.62,6.03,29.6-29.81,29.1C151.55,310.99,139.15,296.74,139.72,280.11z"/>
				</g>
				<g>
					<path fill="#D27A54" d="M149.34,285.49c1.81,9.75,10.85,16.43,20.13,14.52c3.32-0.69,5.98-1.43,8.09-2.25
						c-0.79,0.19-1.6,0.38-2.48,0.56c-9.28,1.92-18.33-4.77-20.12-14.52c-1.64-8.87,3.42-16.64,11.23-19.92
						c-1.02,0.24-2.09,0.52-3.25,0.84C153.82,267.33,147.54,275.75,149.34,285.49z"/>
				</g>
				<g>
					<path fill="#6D3434" d="M184.27,309.25c0,0-39.72-71.42-23.6-96.35c16.13-24.94,43.08,2.43,43.08,2.43L184.27,309.25z"/>
				</g>
				<g>
					<path fill="#FAAF85" d="M405.85,320.22c-11.36,74.42-36.81,98.7-117.5,104.18c-67.33,4.58-118.28-44.26-109.66-115.93
						c6.38-53.05-18.8-184.87,106.54-190.35c53.65-2.35,99.2,38.38,115.93,114.37C405.51,252.29,409.3,297.63,405.85,320.22z"/>
				</g>
				<g>
					<path fill="#010101" d="M343.58,275.76c0,12.01-5.53,21.74-12.34,21.74s-12.33-9.73-12.33-21.74c0-12,5.52-21.73,12.33-21.73
						S343.58,263.76,343.58,275.76z"/>
				</g>
				<g>
					<path fill="#D27A54" d="M269.45,279.09c1.37-9.41,3.42-16.96,11.4-21.19c6.83-3.61,16.76,3.12,18.21,9.39
						c7.14,31.02,8.31,69.24-16.04,71.69c-35.5,3.58-18.33-41.1-18.33-41.1L269.45,279.09z"/>
				</g>
				<g>
					<path fill="#010101" d="M242.91,277.86c0.63,12-4.37,22-11.18,22.36c-6.81,0.35-12.83-9.07-13.46-21.06
						c-0.63-11.99,4.37-22,11.18-22.35C236.24,256.44,242.27,265.87,242.91,277.86z"/>
				</g>
				<g>
					<path fill="#E18B5D" d="M266.52,278.74c0.59-8.81,1.93-16.11,9.54-20.61c8.29-4.89,16.77,1.35,18.7,7.03
						c9.53,28.01,13.74,63.2-10.07,67.69c-34.69,6.53-21.36-36.3-21.36-36.3L266.52,278.74z"/>
				</g>
				<g>
					<path fill="#734241" d="M350.1,120.29c-0.08-0.72-0.14-1.43-0.25-2.17C332.61,5.32,223.34,57.8,189.66,98.53
						c-33.68,40.73-72.85,136.3-72.85,136.3s113.59-13.12,127.32-16.72c2.49-0.65,4.97-1.34,7.45-2.05
						c-5.24,6.43-9.47,12.3-12.18,17.2C361.74,190.67,352.07,128.78,350.1,120.29z"/>
				</g>
				<g>
					<path fill="#FFFFFF" d="M335.14,281.06c0.3,4.2-1.81,7.79-4.73,8c-2.91,0.21-5.52-3.03-5.82-7.24c-0.31-4.21,1.81-7.79,4.73-8
						C332.23,273.62,334.84,276.86,335.14,281.06z"/>
				</g>
				<g>
					<path fill="#E9996E" d="M288.75,428.32c80.68-5.48,108.09-39.17,117.89-108.88c3.18-22.63-1.12-67.14-5.48-86.95
						c-8.25-37.49-23.53-66.38-43.33-85.77l-17.96,1.36c0,0,35.87,42.09,52.28,103.39c26.83,100.17-33.82,161.22-97.52,165.09
						c-30.16,1.83-65.84-6.61-85.78-39.36c-22.17-36.44-26.92-100.09-26.47-152.93c-3.43,31.94-1.24,63.85-3.69,84.19
						C170.07,380.14,221.41,432.89,288.75,428.32z"/>
				</g>
				<g>
					<path fill="#FFFFFF" d="M234.67,284.39c0.46,4.19-1.53,7.85-4.43,8.17c-2.9,0.32-5.63-2.82-6.09-7.02
						c-0.46-4.19,1.53-7.85,4.43-8.16C231.48,277.06,234.2,280.2,234.67,284.39z"/>
				</g>
				<g>
					<path fill="#F3A46A" d="M288.35,320.12c0,2.76-4.34,4.99-9.69,4.99c-5.36,0-9.7-2.24-9.7-4.99c0-2.76,4.34-4.99,9.7-4.99
						C284.01,315.13,288.35,317.36,288.35,320.12z"/>
				</g>
				<g>
					<path fill="#F3A46A" d="M240.8,321.82c0.32,6-7.4,11.28-17.25,11.81c-9.84,0.53-18.08-3.91-18.4-9.91
						c-0.32-6,7.4-11.28,17.25-11.81C232.24,311.39,240.48,315.82,240.8,321.82z"/>
				</g>
				<g>
					<path fill="#F3A46A" d="M373.18,319.87c0.32,6-7.4,11.28-17.25,11.81c-9.84,0.52-18.08-3.91-18.4-9.91
						c-0.33-6,7.4-11.28,17.24-11.81C364.62,309.43,372.86,313.87,373.18,319.87z"/>
				</g>
				<g>
					<path fill="#FFFFFF" d="M246.73,354.84c0,0,4.99,29.24,34.55,28.14s34.62-29.39,34.62-29.39S281.67,373.69,246.73,354.84z"/>
				</g>
				<g>
					<path fill="#E9996E" d="M265.18,389.15c0,0,2.54,7.8,18.42,7.36c15.88-0.44,18.74-8.03,18.74-8.03S283.86,394.02,265.18,389.15
						z"/>
				</g>
				<g>
					<path fill="#734241" d="M347.02,241.38c-19.16-4.47-28.25-17.21-28.64-17.75l7.69-5.41c0.07,0.1,7.58,10.38,23.08,14
						L347.02,241.38z"/>
				</g>
				<g>
					<path fill="#734241" d="M204.75,248.43l-0.83-9.37l0.41,4.68l-0.44-4.67c0.13-0.01,12.78-1.39,23.65-13.02l6.86,6.42
						C220.98,246.84,205.41,248.37,204.75,248.43z"/>
				</g>
				<g>
					<path fill="#734241" d="M419.17,132.22c9.84,80.92-16.45,108.88-16.45,108.88s-7.05-51.31-71.29-91.65
						C273.74,113.22,408.6,45.27,419.17,132.22z"/>
				</g>
				<g>
					<path fill="#6D3434" d="M350.1,120.29c-0.08-0.72-0.14-1.43-0.25-2.17c-1.4-9.16-3.42-17.22-5.94-24.29
						c-31.29,42.1-126.29,111.56-226.72,140.08c-0.25,0.6-0.38,0.93-0.38,0.93s113.59-13.12,127.32-16.72
						c2.49-0.65,4.97-1.34,7.45-2.05c-5.24,6.43-9.47,12.3-12.18,17.2C361.74,190.67,352.07,128.78,350.1,120.29z"/>
				</g>
				<g>
					<path fill="#6D3434" d="M394.89,175.3c-41.31-26.55-49.26-73.23-50.06-78.59c-0.3,0.14-0.6,0.29-0.9,0.43l-26.76,30.93
						c-0.17,7.43,3.97,14.91,14.27,21.38c64.23,40.34,71.29,91.65,71.29,91.65s13.21-14.09,17.39-51.15
						C413.53,186.67,405.27,181.98,394.89,175.3z"/>
				</g>
			</g>
		</g>
	</g>
</g>
</svg>
