<?xml version="1.0" encoding="utf-8"?>
<!-- Generator: Adobe Illustrator 25.2.3, SVG Export Plug-In . SVG Version: 6.00 Build 0)  -->
<svg version="1.1" id="Layer_1" xmlns="http://www.w3.org/2000/svg" xmlns:xlink="http://www.w3.org/1999/xlink" x="0px" y="0px"
	 viewBox="0 0 576 576" enable-background="new 0 0 576 576" xml:space="preserve">
<g>
	<g>
		<defs>
			<circle id="SVGID_1_" cx="288" cy="288" r="288"/>
		</defs>
		<use xlink:href="#SVGID_1_"  overflow="visible" fill="#F9E3D9"/>
		<clipPath id="SVGID_2_">
			<use xlink:href="#SVGID_1_"  overflow="visible"/>
		</clipPath>
		<g clip-path="url(#SVGID_2_)">
			<path fill="#367C85" d="M379.66,422.25c0,0-70.13-12.03-99.47,17.9l4.69,22.59l101.53-7.04
				C386.41,455.69,389.35,432.81,379.66,422.25z"/>
			<path fill="#E6AA7B" d="M282.82,450.26c1.97,6.66,4.41,14.74,6.1,17.47c2.25,3.66,15.21,24.51,18.41,29.67
				c0,0.19,0.19,0.38,0.37,0.57c3.1-18.5,10.05-22.54,10.05-22.54s0,0,0.09,0c0.09-0.09,0.19-0.09,0.38-0.18
				c5.25-3.38,9.95-6.57,14.46-9.58c20.47-13.9,32.31-23.38,38.97-29.86c-0.94-0.38-1.69-0.75-2.25-0.94
				c-11.74-4.69-7.04-70.42-7.04-70.42l-64.61,1.22c0,0-1.12,29.29-5.82,69.2C291.36,439.84,288.07,445,282.82,450.26z"/>
			<path fill="#DCEAEB" d="M449.9,711.65c-2.18-7.23-4.14-14.25-5.85-20.9c-0.14,6.72-0.09,13.71,0.14,20.9H149.34
				c-12.72-72.58-27.35-141.93-31.13-157.06c-5.54-22.16,102.44-58.97,150.9-93.06c5.45-3.75,10.05-7.51,13.71-11.26
				c1.97,6.66,4.41,14.74,6.1,17.47c2.25,3.66,15.21,24.51,18.41,29.67c0,0.19,0.19,0.38,0.37,0.57
				c3.1-18.5,10.05-22.54,10.05-22.54s0,0,0.09,0c0.09-0.09,0.19-0.09,0.38-0.18c5.25-3.38,9.95-6.57,14.46-9.58
				c20.47-13.9,32.31-23.38,38.97-29.86c4.79,2.07,14.55,6.57,27.05,12.58c1.69,0.85,3.56,1.69,5.35,2.63
				c-2.63,1.22-4.04,1.97-4.04,1.97s67.05,37.84,98.13,79.81c3.29,4.51,6.29,9.02,8.64,13.52c4.22,7.98,9.95,19.72,16.71,33.99
				c-2.21,35.62-7.7,83.14-14.23,131.34H449.9z"/>
			<path fill="#DCEAEB" d="M167.98,711.65H-9.97C31.26,637.3,122.9,545.19,122.9,545.19s91.56,65.06,46.95,162.66
				C169.27,709.12,168.63,710.38,167.98,711.65z"/>
			<path fill="#97D7DE" d="M-25.45,711.65c2.43-2.08,5.05-3.86,7.36-5.26c3.72-2.26,8.39-1.61,11.35,1.69
				c0.94,1.05,2.01,2.25,3.17,3.57H-25.45z"/>
			<path fill="#F0A67E" d="M395.21,128.9c0,0,17.22,201.89,0,220.67c-17.21,18.78-68.86,75.12-95.46,75.12
				c-26.6,0-53.21,4.69-57.9-9.39c-4.7-14.08-8.02-85.49-19.76-98.99c-11.74-13.5-15.26-38.15-7.04-53.41
				c8.21-15.26,5.28-103.88,5.87-106.22C221.5,154.33,298.38,77.65,395.21,128.9z"/>
			<path fill="#B76D3A" d="M399.83,239.86c0,0,35.85-116.51,32.86-128.46c-2.98-11.95-91.12-95.6-89.62-76.18
				c1.49,19.42,19.68,32.25,19.68,32.25S278.84-5.12,259.41,27.74C240,60.61,328.13,83.01,328.13,83.01l-37.34-29.87
				c0,0-183.33-32.22-166.32,20.99c15.29,47.8,104.43,35.67,95.46,70.03c-8.96,34.36,52.62-19.17,102.51-13.3
				c57.08,6.72,51.99,10.42,44.52,53.73C359.5,227.91,399.83,239.86,399.83,239.86z"/>
			<path fill="#B76D3A" d="M248.1,101.12c0,0-99.38,14.08-82.95,32.86c16.43,18.78,97.81-11.73,102.51-11.73
				C272.36,122.25,248.1,101.12,248.1,101.12z"/>
			<g>
				<path fill="#F0A67E" d="M387.96,252.08c-0.91-18.74,7.1-36.93,21.03-49.5c8.6-7.77,19.06-12.36,27.59-1.47
					c14.91,19.06,9.68,69.17-18.35,80.88c-10.77,4.5-23.04-1.47-26.91-12.48C389.65,264.78,388.29,258.94,387.96,252.08z"/>
				<path fill="#D25E54" d="M422.88,216.31c-14.87-0.25-16.35,34.44-16.35,34.44c1.37-8.35,3.22-14.47,5.12-18.95
					c0.07,7.44,1.47,23.6,12.33,27.05c0,0-10.34-6.05-8.97-31.39c0.08-1.57,0.67-3.13,1.67-4.34c0.13-0.15,0.25-0.3,0.38-0.44
					c1.51-1.72,3.75-2.71,6.02-2.53c11.66,0.91,10.4,13.89,10.4,13.89S437.99,216.57,422.88,216.31z"/>
			</g>
			<path fill="#965524" d="M353.74,481.81c0,0-16.83,34.04-44.99,36.39c-28.17,2.35-33.25-42.64-33.25-42.64h14.08
				c0,0-0.16,25.18,17.84,24c18-1.17,34.19-27.53,34.19-27.53L353.74,481.81z"/>
			<path fill="#90A39A" d="M307.42,499.56l32.77-22.63l44.7-30.99c0,0-32.02,9.86-52.21,19.72c-4.5,3.01-9.2,6.2-14.46,9.58
				c-0.19,0.09-0.29,0.09-0.38,0.18c-0.09,0-0.09,0-0.09,0s-6.95,4.04-10.05,22.54C307.61,498.43,307.51,499,307.42,499.56z"/>
			<path fill="#97D7DE" d="M318.22,475.24c2.34-1.03,12.39-4.7,21.97,1.69c6.29,4.13,12.39,12.49,15.96,28.64
				c0,0,46.01-39.72,43.85-52.58c-0.28-1.5-0.75-3.01-1.31-4.6c-4.51-11.08-16.81-23.85-18.78-25.83c0.57,0.94,1.13,4.13-8.26,13.24
				c-6.66,6.48-18.5,15.96-38.97,29.86C328.17,468.67,323.47,471.86,318.22,475.24z"/>
			<path fill="#97D7DE" d="M270.42,516.65c-0.65-3.19-4.88-27.7,12.49-34.83c5.54-2.25,11.08-0.66,15.3,3.47
				c2.63,2.63,5.26,6.85,9.11,12.11c-3.19-5.16-16.15-26.01-18.41-29.67c-1.69-2.72-4.13-10.8-6.1-17.47
				c-1.51-5.45-2.63-10.14-2.63-10.14s-6.57,7.79-11.08,21.41C264.69,474.95,262.34,493.93,270.42,516.65z"/>
			<polygon fill="#97D7DE" points="155.88,711.65 152.8,639.88 245.2,642.06 245.2,711.65 			"/>
			<path fill="#965524" d="M261.04,711.65c12.57-89.15,26.17-174.91,33.23-185.23h17.61c0,0-4.5,88.52-5.23,185.23H261.04z"/>
			<path fill="#81461E" d="M305.85,498.25c0,0,22.07,9.22,14.24,22.19c-7.83,12.96-18.39,13.41-18.39,13.41s-14.48-7.15-12.91-21.01
				C290.36,498.98,305.85,498.25,305.85,498.25z"/>
			<path fill="#367C85" d="M245.2,642.06c-11.38,4.08-70.72,13.86-92.4-2.18L245.2,642.06z"/>
			<path fill="#EDEEEE" d="M305.94,227.97l54.4-0.93c0,0,3.65,29.89-26.27,31.48C304.15,260.12,305.94,227.97,305.94,227.97z"/>
			<path fill="#EDEEEE" d="M220.06,228.15h42.85c0,0,2.89,24.76-21.79,26.08C216.42,255.56,220.06,228.15,220.06,228.15z"/>
			<g>
				<path fill="#894634" d="M249.68,241.01c0,7.35-5.96,13.31-13.31,13.31c-7.34,0-13.3-5.96-13.3-13.31s5.96-13.31,13.3-13.31
					C243.72,227.71,249.68,233.67,249.68,241.01z"/>
				<path fill="#704338" d="M241.4,242.14c0,3.09-2.51,5.59-5.59,5.59c-3.09,0-5.59-2.5-5.59-5.59c0-3.09,2.51-5.59,5.59-5.59
					C238.89,236.54,241.4,239.05,241.4,242.14z"/>
			</g>
			<g>
				<path fill="#894634" d="M339.19,242.82c0,7.79-6.32,14.1-14.1,14.1s-14.1-6.31-14.1-14.1c0-7.79,6.31-14.1,14.1-14.1
					S339.19,235.03,339.19,242.82z"/>
				<circle fill="#704338" cx="324.5" cy="244" r="5.93"/>
			</g>
			<path opacity="0.7" fill="#EDEEEE" d="M251.86,246.7c0,2.71-2.2,4.91-4.91,4.91c-2.72,0-4.91-2.2-4.91-4.91
				c0-2.72,2.19-4.91,4.91-4.91C249.66,241.79,251.86,243.98,251.86,246.7z"/>
			<path opacity="0.7" fill="#EDEEEE" d="M341.64,246.7c0,2.71-2.2,4.91-4.91,4.91c-2.71,0-4.91-2.2-4.91-4.91
				c0-2.72,2.2-4.91,4.91-4.91C339.44,241.79,341.64,243.98,341.64,246.7z"/>
			<path fill="#E88B6A" d="M220.06,228.15h42.85c0,0-2.61-17.33-20.77-17.6C223.13,210.27,220.06,228.15,220.06,228.15z"/>
			<path fill="#E88B6A" d="M360.71,228.15h-54.86c0,0,3.29-19.57,26.54-19.84C356.73,208.03,360.71,228.15,360.71,228.15z"/>
			<path fill="#B65E27" d="M354.21,205.13c0,0,12.55,10.1,15.21,4.92c2.66-5.18,1.03-17.98-17.91-20.65
				c-18.94-2.67-47.47,0.08-48.26,6.37c-0.8,6.29-0.52,10.79,6.15,10.33C316.07,205.64,333.13,195.5,354.21,205.13z"/>
			<path fill="#B65E27" d="M221.45,205.03c0,0-12.14,10.1-14.7,4.92c-2.58-5.17-1.01-17.98,17.31-20.64
				c18.31-2.67,45.9,0.07,46.67,6.36c0.76,6.29,0.5,10.79-5.95,10.33C258.33,205.54,241.84,195.41,221.45,205.03z"/>
			<g>
				<path fill="#813823" d="M321.3,334.52c1.31,9.27-12.69,36.43-43.54,32.55c-30.63-4.05-32.82-33.74-32.82-33.74h4.59l67.61,1.18
					H321.3z"/>
				<path fill="#FFFFFF" d="M317.14,334.52c0,4.89-1.75,9.44-5.91,11.47c-10.94,5.06-50.98,1.52-56.67-1.52
					c-3.5-1.85-4.59-7.25-5.03-11.13L317.14,334.52z"/>
			</g>
			<path fill="#D25E54" d="M262.02,226.36c0,0,10.12,27.35-2.03,48.76c0,0,16.39-24.26,3.28-49.57L262.02,226.36z"/>
			<path fill="#D25E54" d="M259.99,275.12c0,0-7.78,11.26-6.21,18.69c1.57,7.43,14.08,14.28,32.67,7.24c0,0,6.06-2.55,11.15,2.15
				c5.08,4.69,16.43-11.15,7.43-13.7c0,0,4.7-3.13,5.09,5.09s-7.63,11.73-10.37,10.95c-2.73-0.78-7.43-4.69-9.39-3.52
				c-1.96,1.17-19.76,6.45-28.76,2.34c-9-4.11-11.93-10.95-8.22-17.8C257.1,279.73,259.99,275.12,259.99,275.12z"/>
			<path fill="#C3E7EA" d="M444.18,711.65c-0.23-7.2-0.27-14.18-0.14-20.9c1.71,6.66,3.67,13.67,5.85,20.9H444.18z"/>
			<path fill="#C3E7EA" d="M399.98,452.97c0,0,67.05,37.87,98.14,79.85c5.63-3.81,14.15-5.59,24.23-6.02
				c-0.34-1.65-0.93-2.96-1.48-3.94c-0.13-0.08-0.22-0.3-0.3-0.39c-0.08-0.08-0.08-0.21-0.08-0.21
				c-12.58-18.22-75.7-51.34-116.44-71.24C401.43,452.25,399.98,452.97,399.98,452.97z"/>
			<g>
				<g>
					<path fill="#DCEAEB" d="M426.21,711.65c-2.06-14.74-3.47-28.98-4.26-41.84c-0.69-11.8-0.95-22.37-0.69-31.21
						c2.21-74.06,52.61-102.9,83.66-113.66c2.38,5.05,4.48,10.04,5.93,14.91c2.64,8.63,6.04,21.24,9.99,36.54
						c9.18,36.19,20.51,87.18,27.56,135.25H426.21z"/>
					<path fill="#C3E7EA" d="M548.4,711.65c-7.04-48.07-18.38-99.04-27.55-135.23c-3.96-15.3-7.35-27.94-10-36.56
						c-1.44-4.85-3.54-9.87-5.93-14.9c6.25-2.68,14.95-2.82,24.93-1.32c0.03,0.27,0.03,0.52,0.02,0.78
						c-0.01,0.08,0.09,0.19,0.09,0.19c4.22,22.65,19.99,108.13,31.44,187.05H548.4z"/>
				</g>
			</g>
		</g>
	</g>
</g>
</svg>
