<?xml version="1.0" encoding="utf-8"?>
<!-- Generator: Adobe Illustrator 25.2.3, SVG Export Plug-In . SVG Version: 6.00 Build 0)  -->
<svg version="1.1" id="Layer_1" xmlns="http://www.w3.org/2000/svg" xmlns:xlink="http://www.w3.org/1999/xlink" x="0px" y="0px"
	 viewBox="0 0 576 576" enable-background="new 0 0 576 576" xml:space="preserve">
<g>
	<g>
		<defs>
			<path id="SVGID_1_" d="M576.42,287.56c0,158.82-128.75,287.56-287.56,287.56S1.3,446.37,1.3,287.56S130.04,0,288.86,0
				S576.42,128.74,576.42,287.56z"/>
		</defs>
		<use xlink:href="#SVGID_1_"  overflow="visible" fill="#F9E3D9"/>
		<clipPath id="SVGID_2_">
			<use xlink:href="#SVGID_1_"  overflow="visible"/>
		</clipPath>
		<g clip-path="url(#SVGID_2_)">
			<path fill="#F79E81" d="M178.79,737.43c1.43-7.91,2.8-15.25,4.11-21.67c3.7-18.15,6.8-37.25,8.9-56.95c0,0,0,0,0-0.05
				c2.7-25.09,3.75-51.15,2.25-77.14c-0.1-2.5-0.3-5.05-0.5-7.55c-0.2-2.65-0.4-5.3-0.66-7.9c-0.25-2.5-0.5-5-0.8-7.5
				c-2.2-18.5-5.75-36.84-11.1-54.75c-0.15-0.5-0.3-1.05-0.5-1.55c-1.2-3.6-2.85-6.8-5-8.05c-0.25-0.16-0.5-0.3-0.75-0.4
				c-1.7-0.65-3.8-1.15-6.15-1.2c-1.7,0-3.5,0.15-5.4,0.65c-0.05,0-0.1,0.05-0.1,0.05c-0.66,0.15-1.3,0.4-2.01,0.65
				c-0.4,0.15-0.75,0.3-1.15,0.5c-4.7,2-9.9,6.05-15.1,13.25c-0.3,0.3-0.6,0.65-0.8,1c-4.45,6.35-8.95,15-13.25,26.7
				c-0.2,0.5-0.4,1.04-0.6,1.6c-7.99,22.25-15.35,60.55-21.65,102.64c-0.2,1.4-0.4,2.8-0.65,4.26c-0.45,3.24-0.95,6.55-1.4,9.9
				c-3.54,24.94-6.72,54.26-9.45,83.52H178.79z"/>
			<path fill="#F79E81" d="M265.27,522.13L265.27,522.13c15.88,0,28.75-12.87,28.75-28.75V401.3h-57.5v92.08
				C236.52,509.26,249.39,522.13,265.27,522.13z"/>
			<path fill="#F79E81" d="M104.35,633.12v0.05c-0.4,2.25,3.2,0.95,3.05,2.6c-0.05,0.8,0.35,2.2,1.15,4c0.65,1.51,1.55,3.3,2.7,5.3
				c8.55,15.25,28.7,42.55,33.8,45.7c2.05,1.25,4.95,14.15,7.15,33c9.75-4.55,20.15-7.25,30.7-8c7.95-0.65,16-0.2,23.9,1.3
				c70.09,13.4,147.84,7.35,147.84,7.35s0-0.05,0.05-0.1c2.55-8.3,4.7-20.95,3.8-39.3v-0.16c-0.75-14.3-3.35-31.89-9.1-53.64
				c1-0.4,2.1-0.85,3.15-1.35c0.15-0.05,0.25-0.1,0.4-0.15c0.16-0.05,0.25-0.1,0.4-0.15c1.05-0.45,2.15-0.95,3.25-1.5
				c1.5-0.75,3.05-1.55,4.6-2.4l1.95-1.05c1-0.55,2-1.15,3.05-1.75c7.8-4.55,16.2-10.15,24.55-16.14c3-13.5,4.45-22.3,4.45-24.55
				c0,0,8.85-32.65-8.4-61.5c-0.1-0.1-0.2-0.25-0.25-0.4c-1.6-2.65-3.45-5.25-5.5-7.85c-0.1-0.1-0.19-0.25-0.3-0.35
				c-1.25-1.5-2.6-3-4.05-4.4c-0.05-0.05-0.1-0.1-0.15-0.15c-0.55-0.65-8.7-6.1-14.65-9.65c-0.9-0.55-1.75-1.1-2.6-1.55
				c-2-1.25-3.75-2.3-4.95-3c-6.1-3.65-12.65-6.7-19.65-9.05c-1.6-0.6-3.25-1.1-4.9-1.6c-0.9-0.25-1.8-0.55-2.7-0.75
				c-2.25-0.65-4.55-1.25-6.9-1.75c-2.7-0.65-5.44-1.2-8.2-1.65c-5.85-1.05-11.85-1.75-17.95-2.15c-8-0.6-31.1-2.6-57.5-1
				c-15.75,0.95-32.7,3.2-48.3,7.75c-3.2,0.9-6.35,1.9-9.4,3.05c-3.15,1.15-6.25,2.45-9.19,3.9c-1.35,0.6-2.65,1.25-3.95,1.95
				c-0.85,0.45-1.7,0.9-2.5,1.35c-0.05,0-0.1,0.05-0.1,0.05c-0.8,0.45-1.56,0.9-2.3,1.35c-0.4,0.25-0.8,0.5-1.2,0.8
				c-5.55,3.45-10.55,7.5-14.75,12.25c-0.3,0.3-0.6,0.65-0.8,1c-1.25,1.35-2.35,2.8-3.4,4.3l-0.05,0.05
				c-0.85,1.25-1.7,2.56-2.45,3.85c-3.45,6-6.75,13.3-9.75,21.35C115.84,571.77,107.34,617.72,104.35,633.12z"/>
			<path fill="#F79E81" d="M454.54,737.43c-9.07-77.25-29.58-164.63-74.28-226.02c-2.85-3.91-7.12-6.74-11.93-7.25
				c-9.4-1-22.61,6.24-22.89,54.59c-0.18,33.58,12.03,107.32,25.61,178.67H454.54z"/>
			<path fill="#EE4491" d="M94.65,639.62c3.65,1.3,7.3,2.54,10.9,3.65c0.8,0.25,1.55,0.5,2.35,0.75c1.1,0.34,2.25,0.69,3.35,1.04
				c0.3,0.05,0.55,0.15,0.85,0.25c4.35,1.35,8.65,2.5,12.9,3.59c3.3,0.86,6.55,1.65,9.8,2.36c1.8,0.45,3.55,0.8,5.3,1.15
				c1.25,0.25,2.45,0.5,3.7,0.75c2.05,0.4,4.1,0.8,6.1,1.15c2.05,0.35,4.05,0.7,6.05,1c2.75,0.45,5.41,0.85,8.05,1.15
				c2.1,0.3,4.2,0.55,6.25,0.75c2.45,0.3,4.9,0.5,7.25,0.7c2.1,0.19,4.2,0.34,6.25,0.45c2.15,0.15,4.3,0.3,6.4,0.35
				c0.55,0.05,1.1,0.05,1.65,0.05c0.45,0,0.95,0.05,1.4,0.05c2.85,0.1,5.7,0.15,8.55,0.15c2.2,0,4.4-0.05,6.55-0.1
				c1.15,0,2.3-0.05,3.4-0.1c1.2-0.05,2.4-0.1,3.55-0.15c1.25-0.05,2.5-0.1,3.7-0.19c1.9-0.1,3.75-0.25,5.6-0.4
				c1.8-0.15,3.65-0.3,5.45-0.5c2.15-0.2,4.25-0.45,6.35-0.75c2.5-0.3,4.9-0.65,7.3-1c2.4-0.35,4.8-0.75,7.15-1.2
				c1.35-0.19,2.65-0.45,3.95-0.75c2-0.4,4-0.8,5.95-1.25c5.9-1.25,11.55-2.7,16.99-4.3c2.05-0.6,4.05-1.19,6.05-1.85
				c1.45-0.45,2.9-0.9,4.3-1.4c18.8-6.3,34.65-14,47.2-21.25c1.3-0.75,2.6-1.5,3.85-2.25c0.95-0.55,1.85-1.1,2.75-1.7
				c2.7-1.65,5.25-3.3,7.55-4.85c-0.7-2.7-1.4-5.4-2.25-8.2c-16.8-58.39-0.6-93.49,12.15-110.44c-2-1.25-3.75-2.3-4.95-3
				c-6.1-3.65-12.65-6.7-19.65-9.05c-1.6-0.6-3.25-1.1-4.9-1.6c-0.9-0.25-1.8-0.55-2.7-0.75c-20.1,27.35-74.65,93.04-133.54,92.14
				c-1.1,0-2.2-0.05-3.3-0.1c-42.55-2.45-35.75-44.75-21.65-81.25c0.35-0.9,0.7-1.75,1.05-2.65c-1.35,0.6-2.65,1.25-3.95,1.95
				c-0.85,0.45-1.7,0.9-2.5,1.35c-0.05,0-0.1,0.05-0.1,0.05c-0.66,0.15-1.3,0.4-2.01,0.65c-0.1,0.25-0.2,0.45-0.3,0.7
				c-0.75,1.65-1.7,3.4-2.75,5.25v0.05c-4.65,7.8-11.75,16.85-19.8,26.55c-2.4,2.9-4.9,5.9-7.45,8.9c-0.8,0.95-1.6,1.89-2.4,2.85
				c-10.9,12.74-22.25,26.1-30.95,38.6C81.7,599.62,83.95,622.27,94.65,639.62z"/>
			<path fill="#E7247B" d="M94.64,639.63c4.1,6.8,9.5,12.7,15.65,17.5c2.25,1.8,4.55,3.4,6.95,4.85c12.9,7.8,21.3,23.4,26.45,37.1
				c5.2,13.6,7.1,25.35,7.1,25.35c0.45-0.19,0.9-0.45,1.4-0.65c17.05-8,36.15-10.2,54.6-6.7c70.1,13.4,147.84,7.35,147.84,7.35
				s0-0.05,0.05-0.1c0.85-1.8,11.5-25.95-2.15-94.45c-0.9-4.75-1.95-9.69-3.15-14.9c-2.3,1.55-4.85,3.2-7.55,4.85
				c-0.9,0.6-1.8,1.14-2.75,1.69c-1.25,0.75-2.5,1.51-3.85,2.25c-12.55,7.25-28.4,14.95-47.19,21.25c-1.45,0.5-2.85,0.95-4.3,1.4
				c-2,0.65-4,1.25-6.05,1.84c-1.8,0.51-3.65,1.05-5.5,1.51c-1.45,0.4-2.95,0.8-4.44,1.15c-2.35,0.6-4.7,1.15-7.05,1.65
				c-1.95,0.45-3.96,0.9-5.95,1.25c-1.3,0.3-2.6,0.55-3.95,0.75c-2.35,0.45-4.7,0.84-7.15,1.19c-2.4,0.4-4.8,0.75-7.3,1.01
				c-2.1,0.3-4.2,0.55-6.35,0.75c-1.8,0.2-3.59,0.35-5.44,0.5c-1.86,0.15-3.7,0.3-5.6,0.4c-1.2,0.1-2.45,0.15-3.71,0.2
				c-0.95,0.05-1.95,0.1-3,0.15c-3.4,0.15-6.95,0.19-10.5,0.19c-2.8,0-5.65-0.05-8.55-0.15c-1.01,0-2.01-0.05-3.05-0.1
				c-2.1-0.05-4.25-0.2-6.4-0.35c-2.05-0.1-4.15-0.25-6.25-0.45c-0.35,0-0.7-0.05-1.1-0.1c-2.01-0.15-4.05-0.35-6.15-0.6
				c-0.05,0-0.1,0-0.19-0.05c-2.01-0.15-4-0.4-6.05-0.7c-0.75-0.05-1.5-0.15-2.3-0.3c-1.9-0.25-3.8-0.55-5.76-0.85
				c-7.99-1.25-16.2-2.85-24.59-4.85c-2.15-0.5-4.26-1.01-6.35-1.55c-4.25-1.1-8.55-2.3-12.9-3.6c-0.3-0.1-0.55-0.2-0.85-0.25
				l-5.7-1.8C101.94,642.18,98.29,640.92,94.64,639.63z"/>
			<path fill="#FFFFFF" d="M156.64,564.62c6.55,10.3,17.7,15.95,33.15,16.85c1.45,0.1,2.8,0.15,4.25,0.15h0.65
				c61.55,0,117.04-66.2,138.44-95.24l1.55-2.1c-1.6-0.6-3.25-1.1-4.9-1.6c-0.9-0.25-1.8-0.55-2.7-0.75
				c-2.25-0.65-4.55-1.25-6.9-1.75c-2.7-0.65-5.44-1.2-8.2-1.65c-5.1,6.8-11.55,14.7-19.1,22.8c-6.15,6.65-13.05,13.4-20.64,19.9
				c-19.25,16.5-42.85,31.09-69.45,36.3c-3.8,0.7-7.15,1.1-10,1.15h-0.7c-0.55,0.05-0.95,0.05-1.35,0.05h-0.95
				c-7.15-0.3-11.7-2.35-14.3-6.25c-5.55-8.35-3.75-26.1,5-50.1c0.2-0.7,0.5-1.4,0.75-2.1l0.35-0.9l0.9-2.4
				c0.8-2.15,1.65-4.15,2.45-6.05l3.3-7.8c-3.2,0.9-6.35,1.9-9.4,3.05c-3.15,1.15-6.25,2.45-9.19,3.9c-1.35,0.6-2.65,1.25-3.95,1.95
				c-0.85,0.45-1.7,0.9-2.5,1.35c-0.05,0-0.1,0.05-0.1,0.05c-0.66,0.15-1.3,0.4-2.01,0.65c-0.4,0.15-0.75,0.3-1.15,0.5
				c-0.15,0.3-0.25,0.66-0.35,1c-0.6,1.5-1.1,3-1.55,4.45v0.05C148.24,528.97,147.74,550.67,156.64,564.62z"/>
			<path fill="#EE4491" d="M349.46,737.43c0.42-0.86,0.84-1.73,1.22-2.62c0.6-1.6,1.25-3.15,1.85-4.7c0.4-0.9,0.75-1.84,1.15-2.89
				c0.3-0.85,0.65-1.8,0.95-2.8c0,0-77.74,6.05-147.84-7.35c-18.45-3.5-37.54-1.3-54.6,6.7c0.42,3.57,0.8,8.23,1.16,13.67H349.46z"
				/>
			<g>
				<path fill="#4D1820" d="M266.19,73.75c0,0,14.98-75.19,56.42-72.26C364.05,4.41,440.7,89.6,455.16,213.96
					c14.87,127.94-50.07,210.38-50.07,228.61c0,0-78.79-127.55-62.4-197.13C359.08,175.86,266.19,73.75,266.19,73.75z"/>
				<path fill="#F37B4E" d="M148.87,255.52c-1.76-0.44-20.6-17.53-37.25,2.63c-16.65,20.15,1.32,70.98,14.46,76.24
					c13.15,5.26,24.1,1.32,25.41-2.19C152.81,328.69,148.87,255.52,148.87,255.52z"/>
				<path fill="#F79E81" d="M181.85,108c48.35-44.38,120.34-44.38,168.69,0c46.53,42.71,55.9,108.93,54.4,161.87
					c1.49,48.44-12.94,107.31-59.46,146.4c-48.35,40.61-115.28,42.32-163.63,1.71c-46.53-39.08-55.9-99.67-54.4-148.11
					C125.95,216.92,135.32,150.71,181.85,108z"/>
				<path fill="#F37B4E" d="M214.42,304.66h-29.38C185.04,304.66,196.85,331.07,214.42,304.66z"/>
				<path fill="#4D1820" d="M168.82,218.42l-1.14,14.29c0,0-14.39-3.82-34.87,2.75l-0.71-9.06
					C132.1,226.4,153.93,215.04,168.82,218.42z"/>
				<path fill="#4D1820" d="M270.39,218.42l1.15,14.29c0,0,14.39-3.82,34.86,2.75l0.72-9.06
					C307.11,226.4,285.27,215.04,270.39,218.42z"/>
				<path fill="#F37B4E" d="M379.26,273.07c-0.09-9.35,5.51-17.84,14.2-21.29c8.26-3.27,18.68-4.09,27.32,6.37
					c16.65,20.15-1.32,70.98-14.46,76.24c-13.14,5.26-19.8-0.09-22.61-2.57C379.06,327.7,379.46,293.1,379.26,273.07z"/>
				<g>
					<path fill="#68423E" d="M215.52,394.5c29.01,0.23,49.37-27.45,47.28-33.96c-0.94-3.59-6.55-2.09-15.06,0.27
						c-8.46,2.32-19.8,5.46-32.22,5.24c-14.25,0.27-27.03-3.91-35.74-6.19c-6.51-1.73-10.73-2.41-11.54,0.68
						C166.16,367.05,186.52,394.73,215.52,394.5z"/>
					<path fill="#FFF8F8" d="M179.78,359.86l2.94,17.66c29.12,15.2,63.7-0.65,63.7-0.65l1.33-16.06c-8.46,2.32-19.8,5.46-32.22,5.24
						C201.27,366.33,188.49,362.14,179.78,359.86z"/>
				</g>
				<path fill="#68423E" d="M289.34,252.38c7.64,0,13.83,6.19,13.83,13.82v18.32c0,7.64-6.2,13.83-13.83,13.83l0,0
					c-7.64,0-13.83-6.19-13.83-13.83v-18.31C275.51,258.57,281.7,252.38,289.34,252.38z"/>
				<path fill="#68423E" d="M146.44,252.38c7.64,0,13.83,6.19,13.83,13.82v18.32c0,7.64-6.19,13.83-13.83,13.83
					c-7.63,0-13.83-6.19-13.83-13.83v-18.31C132.61,258.57,138.81,252.38,146.44,252.38z"/>
				<path fill="#EE235F" d="M339.27,94.75l5.35-19.79c0,0-30.91-25.51-80.81-21.84l-5.52,20.4L339.27,94.75z"/>
				<path fill="#4D1820" d="M288.35,156.38c0,0,111.83,3.34,110.86,154.91c0,0,68.18-214.1-124.72-240.38L288.35,156.38z"/>
				<path fill="#4D1820" d="M319.12,115.4c0,0-12.85,66.44-125.63,62.77c-96.56-3.13-60.88,153.66-60.88,153.66
					S55.95,75.25,272.33,70.68c0,0,62.44,2.91,120.25,100.64L319.12,115.4z"/>
				<path fill="#641C27" d="M228.12,113.8c0,0,8.88,41.6-38.15,46.58c-47.04,4.97-64.46,49.59-66.08,49.04
					c-1.62-0.55,9.43-62.69,52.36-67.39C226.59,136.51,228.12,113.8,228.12,113.8z"/>
				<path fill="#641C27" d="M213.04,102.62c0,0-20,26.68-56.69,25.75C156.35,128.38,185.52,100.14,213.04,102.62z"/>
				<g>
					<path fill="#4D1820" d="M308.81,145.03c0,0,1.4,49.27,23.96,62.16c0,0-45.31-13.79-59.96-58
						C258.16,104.97,308.81,145.03,308.81,145.03z"/>
					<path fill="#4D1820" d="M262.8,132.07c0,0-1.36,33.9-23.96,62.16c0,0,45.31-13.79,59.96-58.01
						C313.45,92.01,262.8,132.07,262.8,132.07z"/>
				</g>
			</g>
			<g>
				<path fill="#C1E4F5" d="M120.02,183.85c17.05,1.63,35.65,2.8,55.05,3.6c19-7.12,32.95-13.6,81.65-16.29
					c0.95-0.07,6.7,0.3,7.64,0.27c1,0.04,1.75,2.28,2.75,2.35c48.15,2.65,48.95,9.51,67.4,16.56l-2.9,0.19
					c0,0,57.65,12.16,92.99-6.67l-0.65-5.98l-6.75-61.63c-112.85-24.17-242.49-10.73-289.29-4.74l-7.25,66.37L120.02,183.85z"/>
				<path fill="#9AD4F0" d="M120.96,164.66c0,0-52.87,39.04-49.95,55.62c0,0,31.82-19.63,86.06-13.5
					c50.56,5.71,53.82,13.57,82.84,24.06c29.01,10.49,68.35,28.08,129.46-40.83c0,0-90.3-42.5-177.52-42.5
					C145.95,147.53,120.96,164.66,120.96,164.66z"/>
			</g>
		</g>
	</g>
</g>
</svg>
