<?xml version="1.0" encoding="utf-8"?>
<!-- Generator: Adobe Illustrator 25.2.3, SVG Export Plug-In . SVG Version: 6.00 Build 0)  -->
<svg version="1.1" id="Layer_1" xmlns="http://www.w3.org/2000/svg" xmlns:xlink="http://www.w3.org/1999/xlink" x="0px" y="0px"
	 viewBox="0 0 576 576" enable-background="new 0 0 576 576" xml:space="preserve">
<g>
	<g>
		<defs>
			<path id="SVGID_1_" d="M575.53,288c0,159.06-128.94,288-288,288c-159.06,0-288-128.94-288-288S128.48,0,287.54,0
				C446.59,0,575.53,128.94,575.53,288z"/>
		</defs>
		<use xlink:href="#SVGID_1_"  overflow="visible" fill="#F9E3D9"/>
		<clipPath id="SVGID_2_">
			<use xlink:href="#SVGID_1_"  overflow="visible"/>
		</clipPath>
		<g clip-path="url(#SVGID_2_)">
			<g>
				<path fill="#F8A083" d="M106.7,636.17c-0.05,0.8,0.39,2.2,1.27,4c0.71,1.5,1.7,3.29,2.96,5.29c9.4,15.23,31.54,42.5,37.14,45.64
					c2.25,1.25,5.44,14.14,7.86,32.96c1.79,13.97,3.14,44.42,3.36,74.68h202.27c0.93-17.73,3.48-35.78,8.23-54.51
					c0.83-3.24,2.81-6.09,4.23-9.14c0.66-1.6,1.38-3.15,2.03-4.69c0.44-0.9,0.83-1.85,1.27-2.9c0.32-0.84,0.71-1.79,1.04-2.79
					c0,0,0-0.05,0.06-0.1c2.8-8.29,5.16-20.92,4.17-39.25v-0.16c-0.83-14.28-3.68-31.85-10-53.58c1.1-0.4,2.25-0.8,3.41-1.3
					l0.05-0.05c0.17-0.05,0.27-0.1,0.44-0.15c0.16-0.05,0.27-0.1,0.44-0.16c1.16-0.45,2.37-0.95,3.57-1.49
					c1.64-0.75,3.35-1.55,5.06-2.4l2.14-1.05c1.1-0.55,2.2-1.15,3.35-1.75c8.57-4.54,17.8-10.14,26.98-16.13
					c3.29-13.48,4.89-22.27,4.89-24.51c0,0,9.5-31.96-8.68-60.52c-0.16-0.3-0.33-0.6-0.55-0.9c-0.11-0.1-0.22-0.25-0.28-0.4
					c-1.75-2.65-3.79-5.24-6.04-7.84c-0.11-0.1-0.22-0.25-0.33-0.35c-1.38-1.49-2.86-3-4.45-4.39c-0.16-0.1-0.27-0.2-0.38-0.3
					c-2.58-1.7-5.6-2.9-8.79-3.2c-10.33-0.99-24.83,6.19-25.16,54.53c-0.11,15.82,2.85,40.55,7.58,69.8
					c-0.99-4.39-2.03-8.94-3.24-13.68c-0.77-2.7-1.54-5.39-2.48-8.19c-18.46-58.32-0.66-93.38,13.35-110.31
					c-2.2-1.25-4.12-2.3-5.44-3c-8.24-4.5-17.3-8.04-26.97-10.64c-3.46-0.95-6.98-1.79-10.55-2.5
					c-21.15,25.97-67.41,73.95-127.4,84.59c-4.56,0.8-8.74,1.25-12.47,1.3c-0.83,0.05-1.59,0.05-2.37,0.05c-0.6,0-1.21,0-1.81-0.05
					c-38.02-1.45-27.41-41.79-16.15-68.91c0.05-0.16,0.11-0.31,0.22-0.45c0.32-0.8,0.66-1.59,0.99-2.39
					c1.21-2.95,2.53-5.65,3.68-8.14c-5,1.7-9.88,3.59-14.45,5.84c-0.94,0.45-1.87,0.9-2.75,1.35c-0.05,0-0.11,0.05-0.11,0.05
					c-0.88,0.45-1.7,0.9-2.52,1.35c-6.65,3.65-28.64,37.04-31.94,45.08c-13.78,33.35-26.79,77.71-30.08,93.09v0.05
					C102.91,635.82,106.87,634.52,106.7,636.17z"/>
				<path fill="#F8A083" d="M173.33,798.74c4.54-22.92,9-47.19,13.03-66.94c-51.09-4.99-76.97-18.57-87.57-26.01
					c-3.62,31.03-6.71,63.88-9.16,92.96H173.33z"/>
				<path fill="#019D75" d="M98.79,705.78c10.61,7.44,36.48,21.02,87.57,26.01c1.1-5.64,2.25-10.93,3.3-15.73
					c4.06-18.13,7.47-37.2,9.78-56.88c0,0,0,0,0-0.05c3.57-30.06,4.5-61.42,1.21-92.48c-2.26-21.02-6.43-41.9-13.08-62.17
					c-1.38-4.2-3.35-8.14-6.04-9.59c-0.27-0.15-0.55-0.3-0.83-0.4c-3.18-1.1-7.58-1.75-12.69-0.55c-0.05,0-0.11,0.05-0.11,0.05
					c-0.71,0.15-1.42,0.4-2.2,0.65c-5.49,1.85-11.65,5.95-17.85,13.73c-0.33,0.3-0.66,0.65-0.88,1
					c-4.89,6.34-9.83,14.98-14.56,26.66c-0.22,0.5-0.44,1.05-0.66,1.6c-8.79,22.22-16.86,60.47-23.79,102.51
					c-0.22,1.4-0.44,2.79-0.71,4.24c-0.49,3.25-1.05,6.54-1.54,9.88C103.24,670.07,100.94,687.6,98.79,705.78z"/>
				<path fill="#F8A083" d="M493.77,798.74c-2.06-34.92-6.32-74.94-14.7-115.53c-13.46,10.44-42.03,27.37-87.79,29.62
					c5.91,29.19,12.3,58.78,18.35,85.91H493.77z"/>
				<path fill="#36B87F" d="M311.78,477.13v-0.15c-8.79-0.6-34.17-2.59-63.18-0.99v1.14c0,15.88,14.12,28.71,31.59,28.71
					C297.61,505.84,311.78,493.01,311.78,477.13z"/>
				<path fill="#36B87F" d="M92.7,640.01c4.01,1.3,8.02,2.55,11.98,3.65l6.26,1.79c0.33,0.05,0.6,0.16,0.94,0.25
					c4.78,1.35,9.5,2.5,14.17,3.59c2.31,0.55,4.61,1.05,6.98,1.55c9.23,2,18.24,3.6,27.03,4.85c2.14,0.3,4.22,0.6,6.32,0.84
					c0.88,0.15,1.7,0.25,2.53,0.3c2.25,0.3,4.45,0.55,6.64,0.7c0.11,0.05,0.17,0.05,0.22,0.05c2.31,0.25,4.56,0.45,6.76,0.6
					c0.44,0.05,0.83,0.1,1.21,0.1c2.31,0.2,4.61,0.35,6.87,0.45c2.36,0.15,4.72,0.3,7.03,0.35c0.6,0.05,1.21,0.05,1.81,0.05
					c0.49,0,1.04,0.05,1.53,0.05c3.13,0.1,6.26,0.16,9.4,0.16c3.9,0,7.8-0.05,11.54-0.2c1.1-0.05,2.26-0.1,3.29-0.15
					c1.38-0.05,2.75-0.1,4.07-0.2c2.09-0.1,4.12-0.25,6.15-0.4c1.98-0.16,4.01-0.31,5.99-0.5c2.36-0.2,4.67-0.45,6.98-0.75
					c2.74-0.3,5.38-0.64,8.02-0.99c2.63-0.35,5.27-0.75,7.86-1.2c1.48-0.19,2.91-0.45,4.33-0.75c2.2-0.4,4.4-0.8,6.54-1.25
					c2.59-0.5,5.17-1.05,7.75-1.65c1.65-0.34,3.29-0.75,4.89-1.14c2.03-0.45,4.06-1,6.04-1.5c2.26-0.6,4.45-1.2,6.65-1.85
					c1.59-0.45,3.19-0.9,4.72-1.4c20.66-6.29,38.07-13.99,51.86-21.23c1.43-0.75,2.86-1.49,4.23-2.24c1.05-0.55,2.03-1.1,3.02-1.7
					c2.97-1.64,5.77-3.29,8.3-4.84c1.21,4.74,2.25,9.29,3.24,13.68c-4.72-29.26-7.69-53.98-7.58-69.8
					c0.32-48.34,14.83-55.53,25.16-54.53c3.02,0.3,5.93,1.4,8.41,2.95c-2.14-1.5-9.73-6.1-15.49-9.24c-0.99-0.55-1.92-1.1-2.86-1.55
					c-2.2-1.25-4.12-2.29-5.44-3c-8.24-4.5-17.3-8.04-26.97-10.64c-3.46-0.95-6.98-1.79-10.55-2.5c-4.78-1-9.72-1.85-14.73-2.44
					c0.06,0.8,0.06,1.64,0.06,2.44c0,22.92-20.44,41.55-45.65,41.55c-25.22,0-45.71-18.63-45.71-41.55c0-1.25,0.05-2.5,0.16-3.74
					c-16.7,1.6-33.95,4.54-49.44,9.74c-5,1.7-9.88,3.59-14.45,5.84c-0.94,0.45-1.87,0.9-2.75,1.35c-0.05,0-0.11,0.05-0.11,0.05
					c-0.71,0.15-1.42,0.4-2.2,0.65c-0.11,0.25-0.22,0.45-0.32,0.7c-4.56,8.88-13.9,19.87-24.78,31.81c-2.64,2.9-5.38,5.89-8.18,8.89
					c-0.88,0.95-1.76,1.9-2.64,2.85c-11.98,12.73-24.45,26.07-34.01,38.55C78.46,600.07,80.94,622.69,92.7,640.01z"/>
				<path fill="#008C66" d="M155.61,723.43v0.15c0.99,7.51,1.82,19.82,2.42,34.28c112.04,11.66,181.41,0.1,210.2-6.81
					c0.5-2.4,1.1-4.85,1.71-7.25c0.83-3.25,2.81-6.1,4.24-9.16c0.66-1.61,1.38-3.15,2.04-4.71c0.44-0.9,0.83-1.85,1.27-2.9
					c0.32-0.85,0.71-1.8,1.05-2.8l-161.48-33.08L155.61,723.43z"/>
				<path fill="#00AC7A" d="M92.7,640.01c4.5,6.79,10.44,12.69,17.2,17.48c2.47,1.8,5,3.4,7.64,4.85
					c14.17,7.79,23.4,23.36,29.06,37.05c5.71,13.58,7.8,25.31,7.8,25.31c0.49-0.2,0.99-0.45,1.54-0.65
					c18.73-7.99,39.71-10.18,59.99-6.69c77.02,13.38,162.45,7.34,162.45,7.34s0-0.05,0.06-0.1c0.77-1.45,8.51-17.48,3.57-59.72
					c-1.15-9.98-3.02-21.47-5.93-34.6c-0.05-0.35-0.11-0.7-0.22-1.05v-0.15c-0.99-4.39-2.03-8.94-3.24-13.68
					c-2.53,1.55-5.33,3.2-8.3,4.84c-0.99,0.6-1.98,1.15-3.02,1.7c-1.37,0.75-2.75,1.49-4.23,2.24
					c-13.79,7.24-31.2,14.93-51.86,21.23c-1.59,0.5-3.13,0.95-4.72,1.4c-2.2,0.65-4.39,1.25-6.65,1.85c-1.98,0.5-4.01,1.05-6.04,1.5
					c-1.6,0.4-3.24,0.8-4.89,1.14c-2.58,0.6-5.16,1.15-7.75,1.65c-2.14,0.45-4.33,0.9-6.54,1.25c-1.42,0.3-2.85,0.55-4.33,0.75
					c-2.59,0.45-5.17,0.85-7.86,1.2c-2.64,0.4-5.28,0.75-8.02,0.99c-2.31,0.31-4.62,0.55-6.98,0.75c-1.98,0.19-3.96,0.34-5.99,0.5
					c-2.03,0.15-4.07,0.3-6.15,0.4c-1.32,0.1-2.69,0.15-4.07,0.2c-1.04,0.05-2.14,0.1-3.29,0.15c-3.74,0.15-7.64,0.2-11.54,0.2
					c-3.08,0-6.21-0.05-9.4-0.16c-1.1,0-2.2-0.05-3.35-0.1c-2.31-0.05-4.67-0.2-7.03-0.35c-2.26-0.1-4.56-0.25-6.87-0.45
					c-0.38,0-0.77-0.05-1.21-0.1c-2.2-0.15-4.45-0.35-6.76-0.6c-0.05,0-0.11,0-0.22-0.05c-2.2-0.15-4.39-0.4-6.64-0.7
					c-0.83-0.05-1.65-0.15-2.53-0.3c-2.09-0.25-4.18-0.55-6.32-0.84c-8.79-1.25-17.8-2.85-27.03-4.85c-2.37-0.5-4.67-0.99-6.98-1.55
					c-4.67-1.1-9.4-2.29-14.17-3.59c-0.33-0.1-0.6-0.2-0.94-0.25l-6.26-1.79C100.71,642.56,96.7,641.31,92.7,640.01z"/>
				<path fill="#36B87F" d="M368.26,559.27c-0.11,15.82,2.85,40.55,7.58,69.8v0.15c0.06,0.35,0.11,0.7,0.17,1.1
					c1.75,10.94,3.79,22.57,5.99,34.55c2.86,15.48,5.99,31.66,9.29,47.94c45.76-2.25,74.33-19.18,87.79-29.62v-0.05
					c-11.81-57.18-31.69-115.25-64.83-161.04c-2.31-3.24-4.72-6.39-7.19-9.49c-0.17-0.25-0.33-0.45-0.49-0.65
					c-1.16-1.4-2.48-2.7-3.96-3.74c-0.16-0.1-0.27-0.2-0.38-0.3c-2.58-1.7-5.6-2.9-8.79-3.2
					C383.09,503.75,368.58,510.93,368.26,559.27z"/>
				<path fill="#F8A083" d="M248.6,419.55v57.58c0,15.88,14.12,28.71,31.59,28.71c17.42,0,31.59-12.83,31.59-28.71v-57.58H248.6z"/>
				<path fill="#FFFFFF" d="M234.49,480.77c0,22.92,20.49,41.55,45.71,41.55c25.22,0,45.65-18.63,45.65-41.55
					c0-0.8,0-1.64-0.06-2.44c-4.61-0.65-9.28-1.05-14.01-1.35v0.15c0,15.88-14.17,28.71-31.59,28.71
					c-17.47,0-31.59-12.83-31.59-28.71v-1.14c-4.56,0.25-9.23,0.6-13.95,1.05C234.54,478.28,234.49,479.52,234.49,480.77z"/>
			</g>
			<g>
				<path fill="#F47A4C" d="M164.27,250.53c-1.85-0.46-21.71-18.48-39.27,2.77c-17.56,21.26,1.38,74.85,15.25,80.39
					c13.86,5.54,25.4,1.38,26.79-2.31C168.43,327.69,164.27,250.53,164.27,250.53z"/>
				<path fill="#F8A083" d="M199.05,94.98c50.98-46.79,126.89-46.79,177.87,0c49.06,45.04,58.94,114.85,57.36,170.68
					c1.58,51.07-13.64,113.15-62.69,154.36c-50.98,42.81-121.55,44.62-172.53,1.81c-49.06-41.21-58.94-105.09-57.36-156.17
					C140.11,209.84,149.99,140.02,199.05,94.98z"/>
				<path fill="#FFFFFF" d="M290.16,334.98c-4.57,33.06-25.78,58.07-51.31,58.07c-25.51,0-46.73-25.01-51.3-58.07H290.16z"/>
				<path fill="#F47A4C" d="M233.39,302.35h-30.98C202.41,302.35,214.86,330.18,233.39,302.35z"/>
				<path fill="#92484B" d="M185.32,211.41l-1.21,15.06c0,0-15.17-4.02-36.76,2.9l-0.75-9.55
					C146.59,219.82,169.62,207.85,185.32,211.41z"/>
				<path fill="#92484B" d="M292.4,211.41l1.21,15.06c0,0,15.17-4.02,36.76,2.9l0.75-9.55C331.12,219.82,308.09,207.85,292.4,211.41
					z"/>
				<path fill="#74403B" d="M312.39,247.22c8.05,0,14.58,6.53,14.58,14.58v19.31c0,8.05-6.52,14.58-14.58,14.58
					c-8.06,0-14.58-6.52-14.58-14.58V261.8C297.81,253.75,304.33,247.22,312.39,247.22z"/>
				<path fill="#74403B" d="M161.72,247.22c8.05,0,14.58,6.53,14.58,14.58v19.31c0,8.05-6.52,14.58-14.58,14.58
					c-8.05,0-14.58-6.52-14.58-14.58V261.8C147.14,253.75,153.67,247.22,161.72,247.22z"/>
				<path fill="#92484B" d="M185.61,211.39l-1.2,15.06c0,0-15.17-4.03-36.76,2.9l-0.75-9.55
					C146.89,219.8,169.91,207.82,185.61,211.39z"/>
				<path fill="#F47A4C" d="M407.19,269.04c-0.1-9.86,5.8-18.81,14.97-22.45c8.71-3.45,19.69-4.32,28.8,6.71
					c17.55,21.26-1.38,74.85-15.25,80.39c-13.86,5.54-20.88-0.1-23.84-2.72C406.98,326.64,407.4,290.16,407.19,269.04z"/>
				<path fill="#F47A4C" d="M164.27,250.53c-1.85-0.46-21.71-18.48-39.27,2.77c-17.56,21.26,1.38,74.85,15.25,80.39
					c13.86,5.54,25.4,1.38,26.79-2.31C168.43,327.69,164.27,250.53,164.27,250.53z"/>
				<path fill="#F8A083" d="M199.05,94.98c50.98-46.79,126.89-46.79,177.87,0c49.06,45.04,58.94,114.85,57.36,170.68
					c1.58,51.07-13.64,113.15-62.69,154.36c-50.98,42.81-121.55,44.62-172.53,1.81c-49.06-41.21-58.94-105.09-57.36-156.17
					C140.11,209.84,149.99,140.02,199.05,94.98z"/>
				<path fill="#FFFFFF" d="M290.16,334.98c-4.57,33.06-25.78,58.07-51.31,58.07c-25.51,0-46.73-25.01-51.3-58.07H290.16z"/>
				<path fill="#F47A4C" d="M233.39,302.35h-30.98C202.41,302.35,214.86,330.18,233.39,302.35z"/>
				<path fill="#92484B" d="M185.32,211.41l-1.21,15.06c0,0-15.17-4.02-36.76,2.9l-0.75-9.55
					C146.59,219.82,169.62,207.85,185.32,211.41z"/>
				<path fill="#9E3421" d="M292.4,211.41l1.21,15.06c0,0,15.17-4.02,36.76,2.9l0.75-9.55C331.12,219.82,308.09,207.85,292.4,211.41
					z"/>
				<path fill="#74403B" d="M312.39,247.22c8.05,0,14.58,6.53,14.58,14.58v19.31c0,8.05-6.52,14.58-14.58,14.58
					c-8.06,0-14.58-6.52-14.58-14.58V261.8C297.81,253.75,304.33,247.22,312.39,247.22z"/>
				<path fill="#74403B" d="M161.72,247.22c8.05,0,14.58,6.53,14.58,14.58v19.31c0,8.05-6.52,14.58-14.58,14.58
					c-8.05,0-14.58-6.52-14.58-14.58V261.8C147.14,253.75,153.67,247.22,161.72,247.22z"/>
				<path fill="#9E3421" d="M185.61,211.39l-1.2,15.06c0,0-15.17-4.03-36.76,2.9l-0.75-9.55
					C146.89,219.8,169.91,207.82,185.61,211.39z"/>
				<g>
					<path fill="#15B471" d="M209.99,81.83c-31.92,18.33-49.96,45.34-60.19,70.93c-5.04-0.86-9.85-2.46-14.31-4.66
						c11.32-28.79,31.43-59.48,67.18-80.05C205.78,72.23,208.23,76.86,209.99,81.83z"/>
					<path fill="#8C2D1C" d="M135.49,148.1c-18.61-9.16-31.01-28.78-29.98-50.82c1.39-29.67,26.6-52.62,56.27-51.23
						c16.9,0.79,31.62,9.3,40.88,22.01C166.92,88.62,146.81,119.31,135.49,148.1z"/>
				</g>
				<path fill="#9E3421" d="M387.39,210.74c0,0,14.41,28.74,5.24,46.14c-9.17,17.4-3.72,30.83,3.05,42.45
					c6.77,11.63-4.15,45.32-4.15,45.32s31.22-19.65,18.78-52.21c-12.45-32.57,7.74-38.19,4.85-53.39
					C412.28,223.85,387.39,210.74,387.39,210.74z"/>
				<path fill="#9E3421" d="M125.83,272.38c0,0,11.63-19.96,2.58-53.47l-0.01-0.03c-6.17-20.61,11.65-97.96,41.57-122.28
					c0.06-0.05,0.16-0.09,0.21-0.14c22.82-25.12,57.9-44,111.99-44.87l0,0l0,0l0,0l0,0c167.18,17.87,152.57,204.9,152.57,204.9
					c-34.39-10.63-61-24.74-83.2-65.39c-15.78,12.59-41.54,23.37-83.36,27.8c0,0,48.07-41.32,31.03-78.84
					c0,0-15.69,56.14-62.03,63.14c-46.33,6.99-56.22,34.71-56.22,34.71s-9.27-17.85-4.66-34.76c-7.03,2.36-24.16,5.3-31.92,7.6
					c5.73,26.03,7.53,55.58-4.79,74.28c-13.04,19.79,9.15,60.3,9.15,60.3S102.79,303.2,125.83,272.38z"/>
				<path fill="#F47A4C" d="M407.19,269.04c-0.1-9.86,5.8-18.81,14.97-22.45c8.71-3.45,19.69-4.32,28.8,6.71
					c17.55,21.26-1.38,74.85-15.25,80.39c-13.86,5.54-20.88-0.1-23.84-2.72C406.98,326.64,407.4,290.16,407.19,269.04z"/>
				<g>
					<path fill="#15B471" d="M355.72,81.07c31.02,19.81,47.79,47.63,56.8,73.67c5.09-0.63,9.96-1.99,14.52-3.98
						c-9.96-29.29-28.61-60.88-63.35-83.1C360.38,71.7,357.71,76.2,355.72,81.07z"/>
					<path fill="#9E3421" d="M427.03,150.76c19.02-8.27,32.33-27.3,32.33-49.36c0-29.71-24.1-53.81-53.82-53.81
						c-16.92,0-32.01,7.81-41.87,20.07C398.42,89.88,417.08,121.47,427.03,150.76z"/>
				</g>
			</g>
		</g>
	</g>
</g>
</svg>
