<?xml version="1.0" encoding="utf-8"?>
<!-- Generator: Adobe Illustrator 25.2.3, SVG Export Plug-In . SVG Version: 6.00 Build 0)  -->
<svg version="1.1" id="Layer_1" xmlns="http://www.w3.org/2000/svg" xmlns:xlink="http://www.w3.org/1999/xlink" x="0px" y="0px"
	 viewBox="0 0 576 576" enable-background="new 0 0 576 576" xml:space="preserve">
<g>
	<g>
		<defs>
			<path id="SVGID_1_" d="M576,288.05c0,159.09-128.97,288.06-288.05,288.06c-159.09,0-288.06-128.97-288.06-288.06
				C-0.11,128.97,128.86,0,287.95,0C447.03,0,576,128.97,576,288.05z"/>
		</defs>
		<use xlink:href="#SVGID_1_"  overflow="visible" fill="#F9E3D9"/>
		<clipPath id="SVGID_2_">
			<use xlink:href="#SVGID_1_"  overflow="visible"/>
		</clipPath>
		<g clip-path="url(#SVGID_2_)">
			<g>
				<path fill="#F79877" d="M381.41,236.37c3.23-4.44,29.19-33.84,41.15-4.74c11.96,29.11-3.13,74.52-20.4,68.92
					C384.9,294.95,367.47,255.51,381.41,236.37z"/>
				<path fill="#F58159" d="M392.14,242.33c0,0,17.58-20.94,20.02,8.05c2.45,28.99-5.92,41.58-6.13,39.93
					C405.83,288.65,392.14,242.33,392.14,242.33z"/>
			</g>
			<g>
				<path fill="#F79877" d="M172.66,275.33c-4.76-2.75-40.41-19.11-39.54,12.35c0.86,31.45,33.05,66.85,46.56,54.74
					C193.2,330.31,193.16,287.19,172.66,275.33z"/>
				<path fill="#F58159" d="M169.37,290.3c0,0-14.14-20.24-14.25,5.86c-0.1,26.09,24.69,33.27,24.69,33.27L169.37,290.3z"/>
			</g>
			<path fill="#F5B29A" d="M610.44,613.16c-35.49-30.66-66.29-58.08-69.63-57.89c-7.79,0.47-44.03,54.7-44.03,54.7l36.2,59.76
				c0,0,0,0,0.04,0.04l7.79-34.44c0,0,31.73,23.2,69.63,49.27V613.16z"/>
			<path fill="#F3BA1E" d="M470.93,943.18c-0.75-20.05-1.05-41.28-0.23-64.58c0.88-24.82,4.22-84.99,5.22-109.56
				c5.27-129.51,30.74-246,30.74-246l-372.83,6.2c-19.19,80.8-3.87,273.84,11.24,413.94H470.93z"/>
			<path fill="#F3BA1E" d="M389.68,468.55c0,0-109.68-19.07-200.61,3.7c-90.93,22.76,34.05,142.91,34.05,142.91h236.45
				C459.56,615.16,457.69,477.19,389.68,468.55z"/>
			<path fill="#F68F68" d="M347.39,399.51l3.44,76.67c0,0-44.93,57.2-113.75,10.56l1.99-85.38L347.39,399.51z"/>
			<path fill="#F68F68" d="M227.53,434.14c54.93,32.21,105.66,25.08,162.72-33.99c55.78-57.79-31.81-299.05-31.81-299.05l-5.57,0.47
				c11.35,39.22,67.34,244.25,14.4,293.74C316.47,442.74,272.17,453.28,227.53,434.14z"/>
			<path fill="#F5B29A" d="M216.66,427.33c3.63,2.44,7.28,4.74,10.87,6.81c44.63,19.14,88.94,8.6,139.74-38.82
				c52.94-49.49-3.05-254.52-14.4-293.74l-197.76,47.56C155.12,149.14,157.47,387.62,216.66,427.33z"/>
			<path fill="#7F3430" d="M340.13,61.83c21.41-12.19,48.16,0.47,52.01,24.8c3.79,23.89,2.4,50.48-15.8,66.75
				c-39.4,35.22-143.76-22.18-171.15,9.13c-27.39,31.3-47.84,63.26-50.01,56.41c-1.15-3.63,15.37-53.18,9.85-80.44
				c-4.87-24.07,11.79-47.15,36.17-50.11C245.38,83.01,290.25,90.24,340.13,61.83z"/>
			<path fill="#7F3430" d="M392.14,86.63c-7.59-4.99,2.51-51.95-73.96-47.06c0,0,40.93,9.78,24.3,38.16l15.66-9.3
				c0,0-25.93-24.45-57.24-13.69c0,0,37.98,11.74,17.28,28.37c-20.7,16.64,37.51,43.05,37.51,43.05L392.14,86.63z"/>
			<path fill="#7F3430" d="M181.71,157.29c0,0-39.54-45.5-48.61-4.24c-11.39,51.85,27.99,138.6,27.99,138.6h21.61l6.37-72.73
				C189.06,218.93,181.39,177.84,181.71,157.29z"/>
			<polygon fill="#7F3430" points="379.23,134.36 400.02,246.9 395.04,257.34 362.54,150.12 			"/>
			<path fill="#F79877" d="M363.51,261.94l11.31-24.57l-11.85-10.52l-56.09-14.65l7.63,53.46
				C314.5,265.65,339.31,226.51,363.51,261.94z"/>
			<path fill="#92232F" d="M363.51,261.94c0,0-20.63-27.98-49,3.72c0,0,3.45-15.01,22.62-18.35
				C356.3,243.98,363.51,261.94,363.51,261.94z"/>
			<path fill="#F79877" d="M220.08,273.08l-13.74-12.85l9.61-22l55.83-13.9l-2.65,45.93C269.14,270.26,239.36,234.76,220.08,273.08z
				"/>
			<path fill="#92232F" d="M220.08,273.08c0,0,16.73-30.47,49.05-2.82c0,0-5.4-14.42-24.85-15.18
				C224.84,254.32,220.08,273.08,220.08,273.08z"/>
			<path fill="#F79877" d="M297.04,251.17c2.52,3.63,7.29,47.29,25.66,55.89c18.37,8.59-3.89,28.27-18.7,20.66
				c-14.8-7.61-11.62,0.38-16.59,0.25c-10.87-0.28-11.31-19.11-3.99-21.59C290.74,303.89,297.04,251.17,297.04,251.17z"/>
			<g>
				<path fill="#8B491F" d="M257.9,378.26c0.92,2.15,2.16,4.17,3.76,6.22c7.35,10.43,20.81,19.29,37.61,17.07
					c11.38-1.49,22.42-4.83,30.13-12.6c0.05,0.18,0.05,0.18,0.16-0.06c5.59-5.86,9.38-14.38,9.83-26.09c0,0,2.12-9.43-6.55-9.8
					c-1.45-0.16-3.31,0.07-5.59,0.68c-15.05,3.89-37.28,7.76-53.21,3.11c-9.46-2.72-15.38,0.69-17.44,6.71
					C255.04,367.52,255.45,373.03,257.9,378.26z"/>
				<path fill="#FFFFFF" d="M256.59,363.5c16.47,14.47,42.99,16.6,60.73,7.03c9.76-5.31,13.84-12.15,15.51-17.53
					c-1.45-0.16-3.31,0.07-5.59,0.68c-15.05,3.89-37.28,7.76-53.21,3.11C264.57,354.07,258.66,357.48,256.59,363.5z"/>
				<path fill="#F16162" d="M261.66,384.48c7.35,10.43,20.81,19.29,37.61,17.07c11.38-1.49,22.42-4.83,30.13-12.6
					C315.39,384,285.08,375.09,261.66,384.48z"/>
			</g>
			<path fill="#8DA191" d="M610.44,599.77c-36.36-49.57-114.58-125.29-259.62-137.64l34.09,481.05h99.48
				c-8.86-127.43,14.36-273.95,14.36-273.95s64.57,55.69,97.17,56.43c0.74,0,1.52,0,2.23-0.12c4.62-0.45,8.66-2.75,12.3-6.11V599.77
				z"/>
			<path fill="#8DA191" d="M128.75,943.18h108.23V464.25c0,0-108.95-2.52-193.01,35.03v132.16c39.9,8.39,75.14,13.89,75.14,13.89
				S120.87,799.13,128.75,943.18z"/>
			<path fill="#809283" d="M484.39,943.18c-8.86-127.43,14.36-273.95,14.36-273.95s64.57,55.69,97.17,56.43c0.74,0,1.52,0,2.23-0.12
				c-6.85-24.89-10.96-40.11-10.96-40.11s-112.04-79.64-127.62-44.97c-9.37,20.81-22.61,162.36-22.61,302.71H484.39z"/>
			<path fill="#7F3430" d="M200.67,246.16c-0.93,1.61-0.98,3.59-0.28,5.31c1.56,3.81,4.61,9.97,7.48,8.5
				c3.98-2.03-5-21.4,59.05-31.43c3.37-0.53,5.68-3.73,5.11-7.09c-0.94-5.48-1.67-11.48-5.42-11.37
				C261.97,210.21,217.47,216.94,200.67,246.16z"/>
			<path fill="#7F3430" d="M305.77,212.66l1.27,4.98c0.75,2.95,3.51,4.89,6.54,4.61c9.35-0.88,30.26-0.44,53.06,15.92
				c4.1,2.94,9.8,0.09,9.8-4.95l0,0c0-1.53-0.55-3.01-1.59-4.13c-5.94-6.45-28.37-27.62-63.76-24.11
				C307.36,205.34,304.84,209.02,305.77,212.66z"/>
		</g>
	</g>
</g>
</svg>
