<?xml version="1.0" encoding="utf-8"?>
<!-- Generator: Adobe Illustrator 25.2.3, SVG Export Plug-In . SVG Version: 6.00 Build 0)  -->
<svg version="1.1" id="Layer_1" xmlns="http://www.w3.org/2000/svg" xmlns:xlink="http://www.w3.org/1999/xlink" x="0px" y="0px"
	 viewBox="0 0 576 576" enable-background="new 0 0 576 576" xml:space="preserve">
<g>
	<g>
		<defs>
			<path id="SVGID_1_" d="M576,288.17c0,159.06-128.94,288-288,288c-159.06,0-288-128.94-288-288c0-159.05,128.94-288,288-288
				C447.06,0.18,576,129.12,576,288.17z"/>
		</defs>
		<clipPath id="SVGID_2_">
			<use xlink:href="#SVGID_1_"  overflow="visible"/>
		</clipPath>
		<g clip-path="url(#SVGID_2_)">
			<path fill="#F9E3D9" d="M576,288.17c0,159.06-128.94,288-288,288c-159.06,0-288-128.94-288-288c0-159.05,128.94-288,288-288
				C447.06,0.18,576,129.12,576,288.17z"/>
			<g>
				<path fill="#FDFAD5" d="M418.64,632.83c7.93-54.87,32.58-105.3,44.26-126.83c3.83-7.07,6.28-11.01,6.28-11.01s0.9,4.01,5.1,9.63
					c16.31,21.81,33.92,70.92,50.36,128.21H418.64z"/>
				<path fill="#EBD6B4" d="M452.41,632.83c2.26-24.91,7.66-44.99,18.09-54.08c0,0,0.31,22.35,2.19,54.08H452.41z"/>
				<path fill="#E9844D" d="M301.48,284.22c-20.78,44.47,4.44,176.07,14.64,224.01c24.54,1.5,43.86,2.71,43.86,2.71
					s-70.13-178.78-52.6-236.66c8.43-27.78-16.73-53.53-45.14-72.79C289.68,225.15,314.53,256.26,301.48,284.22z"/>
				<path fill="#EA9E74" d="M196.96,167.36c0,0,1.02,28.45,2.66,68.79c3.86,97.96,11.1,266.03,14.83,266.03
					c3.33,0,60.05,3.46,101.68,6.04c-10.2-47.94-35.42-179.54-14.64-224.01c13.05-27.96-11.81-59.07-39.23-82.73
					c-20.86-14.2-43.49-24.85-55.88-30.22C200.51,168.73,196.96,167.36,196.96,167.36z"/>
				<path fill="#FDFAD5" d="M116.28,632.83c0.36-93.96,4.98-169.26,12.31-176.82c7.5-7.72,120.52-5,165.14-3.83
					c108.97,2.92,26.54-4.37,26.54-4.42c0,0,110.2-6.91,142.64,58.24c0.85,1.6,1.6,3.24,2.29,4.95c0.85,2.02,1.65,4.14,2.39,6.38
					c9.56,27.76,11.12,70.17,9.4,115.5H116.28z"/>
				<path fill="#872C1B" d="M177.21,281.87c0,0-1.11,50.49,17.75,62.69c18.86,12.21,47.16-6.1,47.16-6.1L177.21,281.87z"/>
				<path fill="#FDFAD5" d="M113.98,632.83c-28.01-64.87-53.82-141.86-28.12-159.74c30.89-21.5,119.09-33.38,119.09-33.38
					s94.36,16.72,148.01,3.74c49.76-12.04,116.22,51.54,116.22,51.54s-24.11,72.16-47.63,137.84H113.98z"/>
				<path fill="#872C1B" d="M393.58,102.68c0,0,29,40.92,18.16,120.39s-125.79-71.39-125.79-71.39L393.58,102.68z"/>
				<path fill="#F9AE73" d="M396.29,180.81c0.71,58.76-1.73,200.88-41.81,232.7c1.46-0.58,2.89-1.24,4.26-1.95
					c44.52-23.39,47.18-169.24,46.42-228.22c-0.26-17.62-4.44-34.97-12.6-50.55c-16.24-30.93-34.62-51.08-53.71-62.62
					c15.89,12.43,31.11,31.51,44.83,58.45C391.85,144.68,396.02,162.61,396.29,180.81z"/>
				<path fill="#F9BF8F" d="M169.71,222.71c1.77,126.76,126.71,213.98,184.76,190.8c40.08-31.82,42.52-173.94,41.81-232.7
					c-0.27-18.2-4.44-36.13-12.61-52.2c-13.72-26.94-28.94-46.02-44.83-58.45C259.58,22.1,168.33,122.89,169.71,222.71z"/>
				<path fill="#D5D1A0" d="M203.36,397c7.01,5.84,53.76,46.75,105.18,58.43l-66.07,49.54c0,0-51.87-43.01-60.05-64.05
					C174.24,419.89,203.36,397,203.36,397z"/>
				<path fill="#D5D1A0" d="M308.54,455.43l42.08,38.56c0,0,29.21-59.6-23.38-79.47C327.24,414.53,324.91,441.4,308.54,455.43z"/>
				<g>
					<path fill="#535252" d="M233.96,509.21c-0.07-0.21-0.13-0.41-0.2-0.61c-8.26-25.35-9.68-52.89-4.08-78.96
						c0.05-0.21,0.09-0.42,0.14-0.64c0,0,21.94,1.64,69.69,21.33l0.78,15.21l0.79,15.21C255.62,505.31,233.96,509.21,233.96,509.21z
						"/>
					<path fill="#535252" d="M370.78,502.08c0.05-0.21,0.09-0.42,0.14-0.63c5.6-26.07,4.18-53.61-4.08-78.95
						c-0.07-0.21-0.13-0.41-0.2-0.62c0,0-21.66,3.9-67.13,28.46l0.78,15.21l0.79,15.21C348.85,500.45,370.78,502.08,370.78,502.08z"
						/>
					<path fill="#2A2928" d="M261.34,486.9c8.86-6.3,19.44-9.32,29.93-8.54c0.3-2.63,0.6-5.25,0.89-7.88
						c0.23,0.12-7.12-1.75-14.93,0.74C269.49,473.28,261.29,479.71,261.34,486.9z"/>
					<path fill="#2A2928" d="M341.26,482.74c-9.46-5.35-20.3-7.26-30.65-5.39c-0.56-2.58-1.13-5.16-1.69-7.75
						c-0.22,0.15,6.9-2.48,14.93-0.81C331.75,470.04,340.57,475.58,341.26,482.74z"/>
					<path fill="#2A2928" d="M259.58,452.53c9.46,5.34,20.3,7.25,30.64,5.39c0.56,2.58,1.13,5.16,1.69,7.74
						c0.22-0.14-6.9,2.48-14.93,0.82C269.07,465.23,260.25,459.69,259.58,452.53z"/>
					<path fill="#2A2928" d="M339.48,448.36c-8.85,6.3-19.44,9.33-29.92,8.55c-0.3,2.63-0.6,5.25-0.89,7.88
						c-0.23-0.12,7.12,1.75,14.93-0.74C331.33,461.99,339.54,455.55,339.48,448.36z"/>
					<path fill="#5E5F5F" d="M302.31,440.25c-1.08-0.25-2.2-0.34-3.32-0.29c-9.7,0.51-16.97,12.37-16.24,26.5
						s9.18,25.17,18.88,24.66c1.12-0.06,2.23-0.27,3.28-0.63c-8.23-1.81-14.91-11.89-15.56-24.38
						C288.71,453.63,294.32,442.91,302.31,440.25z"/>
					<path fill="#383938" d="M317.86,464.63c-0.64-12.49-7.3-22.56-15.55-24.38c-7.99,2.66-13.61,13.38-12.96,25.86
						c0.64,12.49,7.33,22.57,15.56,24.38C312.92,487.82,318.5,477.12,317.86,464.63z"/>
				</g>
				<path fill="#422F28" d="M326.78,576.93c1,6.3,5.47,10.83,9.97,10.11c4.5-0.72,7.33-6.41,6.33-12.71
					c-1.01-6.3-5.48-10.83-9.97-10.11C328.6,564.94,325.77,570.63,326.78,576.93z"/>
				<path fill="#F29269" d="M359.96,376.07c0,0-13.34,14.66-51.72,6.51C308.23,382.58,339.38,403.07,359.96,376.07z"/>
				<path fill="#F2F3F3" d="M307.77,218.44l-53.99-0.93c0,0-3.62,29.66,26.07,31.26C309.54,250.36,307.77,218.44,307.77,218.44z"/>
				<path fill="#F2F3F3" d="M393.02,218.62h-42.54c0,0-2.87,24.58,21.64,25.89C396.64,245.83,393.02,218.62,393.02,218.62z"/>
				<path fill="#ED906C" d="M329.83,233.57c0.37-3.49,8.55-4.94,9.7-2.16c14.47,35.02,26.18,58.35,21.57,65.13
					c-10.26,15.1-19.57,0.32-41.54,3.11c-9.68,1.23-13.51-7.25-10.32-17.37c3.18-10.12,10.77-6.48,17.14-10.52
					C330.62,269.09,328.09,249.47,329.83,233.57z"/>
				<g>
					<path fill="#8E4634" d="M355.65,229.28c0,7.73,6.27,14,14,14s13.99-6.27,13.99-14c0-7.73-6.26-13.99-13.99-13.99
						S355.65,221.55,355.65,229.28z"/>
					<circle fill="#704338" cx="370.24" cy="230.46" r="5.88"/>
				</g>
				<g>
					<path fill="#8E4634" d="M266.79,230.02c0,7.73,6.26,14,13.99,14c7.73,0,14-6.27,14-14c0-7.73-6.27-14-14-14
						C273.06,216.02,266.79,222.29,266.79,230.02z"/>
					<path fill="#704338" d="M275.5,231.2c0,3.25,2.63,5.88,5.88,5.88c3.24,0,5.88-2.63,5.88-5.88s-2.63-5.88-5.88-5.88
						C278.13,225.32,275.5,227.95,275.5,231.2z"/>
				</g>
				<path opacity="0.7" fill="#F2F3F3" d="M377.53,234c0,2.69,2.18,4.87,4.87,4.87s4.88-2.18,4.88-4.87c0-2.69-2.19-4.87-4.88-4.87
					S377.53,231.32,377.53,234z"/>
				<circle opacity="0.7" fill="#F2F3F3" cx="292.75" cy="235.3" r="4.87"/>
				<path fill="#ED906C" d="M393.02,218.62h-42.54c0,0,2.59-17.21,20.62-17.47C389.97,200.87,393.02,218.62,393.02,218.62z"/>
				<path fill="#ED906C" d="M253.4,218.62h54.46c0,0-3.26-19.43-26.35-19.69C257.36,198.65,253.4,218.62,253.4,218.62z"/>
				<path fill="#872C1B" d="M259.85,195.77c0,0-12.46,10.02-15.1,4.89c-2.64-5.13-1.03-17.85,17.77-20.5
					c18.81-2.65,47.13,0.08,47.91,6.32c0.79,6.24,0.51,10.71-6.11,10.26C297.72,196.28,280.79,186.21,259.85,195.77z"/>
				<path fill="#872C1B" d="M391.64,195.68c0,0,12.05,10.02,14.6,4.89c2.55-5.13,1-17.85-17.18-20.5
					c-18.18-2.65-45.57,0.07-46.33,6.32c-0.76,6.24-0.49,10.71,5.9,10.25C355.03,196.18,371.39,186.12,391.64,195.68z"/>
				<g>
					<path fill="#813823" d="M287.87,331.2c-1.3,9.21,12.59,36.17,43.22,32.32c30.41-4.02,32.58-33.49,32.58-33.49h-4.56L292,331.2
						H287.87z"/>
					<path fill="#FFFFFF" d="M292,331.2c0,4.86,1.73,9.38,5.86,11.39c10.86,5.02,50.61,1.5,56.25-1.51c3.47-1.84,4.56-7.2,5-11.05
						L292,331.2z"/>
				</g>
				<path fill="#872C1B" d="M224.11,103.23c34.57,15.05,95.73,5.32,95.73,5.32s-63.18,23.19-16.32,42.92
					c57.49-3.99,113.76-22.17,116.47-73.08c0,0-30.9,9.79-90.41-22.55c-21.01-11.38-45.9-13.35-68.18-4.73L231.4,63.07
					C216.94,76.79,204.38,94.61,224.11,103.23z"/>
				<path fill="#64220D" d="M164.71,220.23c10.95,8.14,17.39,11.49,21.17,12.71c4.31,24.57,8.46,44.68,9.09,45.95
					c1.54,3.09,16.27-0.18,16.27-0.18s-0.77-17.95-2-47.09l0.67-15.96c0,0,17.76-30.54,10.42-66.92c23.24,3.03,53.4,4.79,83.18,2.71
					c-46.86-19.73,16.32-42.92,16.32-42.92s-61.16,9.73-95.73-5.32c-19.73-8.62-7.18-26.44,7.29-40.16l-54.09,21.6
					c0.37-7.87-1.01-18.72-8.83-29.36c0,0,2.87,15.37-0.95,29.04c-2.55-5.69-7.03-12.07-14.84-16.91c0,0,9.41,14.83,8.56,28.61
					c-5.8,0.27-10.69,3.46-12.5,12.02C142.95,135.51,138.97,201.09,164.71,220.23z"/>
				<g>
					<g>
						<path fill="#F9BF8F" d="M189.87,217.55c0,0-11.25-28.94-35.34-11.77c-27.26,19.43-1.06,79.49,21.73,84.8
							c22.79,5.31,13.53-19.99,13.53-19.99L189.87,217.55z"/>
					</g>
					<path fill="#EC7260" d="M172.12,267.44c0,0-25.84-21.31-15.86-39.88c9.99-18.58,27.72,3.46,28.12,10.18
						C184.38,237.74,164.47,232.54,172.12,267.44z"/>
				</g>
				<g>
					<g>
						<path fill="#EBD6B4" d="M106.15,632.83c5.51-24.63,8.23-45,6.43-57.41c-6.87-47.31-18.73-61.03-34.22-88.24
							c7.45-11.23,15.98,10.7,15.98,10.7c19.4,40.83,31.11,26.53,39.46,69.59c0.71,3.68,1.42,7.81,2.09,12.43
							c1.69,11.65-0.6,30.3-5.44,52.92H106.15z"/>
						<path fill="#FDFAD5" d="M118.44,632.83H6.74c5.12-13.45,10.12-26.46,14.81-38.94c37.33-99.37,61.16-117.93,61.34-118.19
							c15.49,27.2,44.16,28.09,51.04,75.45c0.62,4.35,0.58,9.85-0.13,16.33C132.09,584.02,126.41,606.84,118.44,632.83z"/>
					</g>
				</g>
				<polygon fill="#EBD6B4" points="125.76,632.83 135.78,581.08 135.43,632.83 				"/>
			</g>
		</g>
	</g>
</g>
</svg>
