<?xml version="1.0" encoding="utf-8"?>
<!-- Generator: Adobe Illustrator 25.2.3, SVG Export Plug-In . SVG Version: 6.00 Build 0)  -->
<svg version="1.1" id="Layer_1" xmlns="http://www.w3.org/2000/svg" xmlns:xlink="http://www.w3.org/1999/xlink" x="0px" y="0px"
	 viewBox="0 0 576 576" enable-background="new 0 0 576 576" xml:space="preserve">
<g>
	<g>
		<defs>
			<circle id="SVGID_1_" cx="288.11" cy="288" r="288"/>
		</defs>
		<use xlink:href="#SVGID_1_"  overflow="visible" fill="#F9E3D9"/>
		<clipPath id="SVGID_2_">
			<use xlink:href="#SVGID_1_"  overflow="visible"/>
		</clipPath>
		<g clip-path="url(#SVGID_2_)">
			<path fill="#D4E1E7" d="M376.65,782.22c6.44-9.21,12.34-17.32,17.25-23.9c32.91-43.94,49.28-139.69,49.28-139.69
				c25.08,5.89,42.71,35.48,55.03,76.02c23.66-30.93,41.37-48.03,41.37-48.03c-21.55-61-67.88-189.45-67.88-189.45
				c-96.57-117.04-248-104.34-248-104.34c63.81,81.62,8.54,117.38-34.83,131.39c-13.65,7.68-19.91,13.44-25.9,23.3
				c-8.21,13.52-13.98,28.59-20.42,43c-15.46,34.56-24.41,71.27-30.31,108.55c-0.87,5.5-3.26,9.37-6.47,11.87
				c-2.6,26.35-11.19,51.78-12.79,78.38c-0.66,10.98-0.97,21.96-1.32,32.91H376.65z"/>
			<path fill="#E39C7A" d="M355.72,291.13c0.59,6.23,28.85,158.66,28.85,158.66s-53.41,20.83-104.3,14.69l14.82-62.71L355.72,291.13
				z"/>
			<path fill="#E83F25" d="M274.2,465.47c0,0-11.74,25.09-5.38,31.3c6.36,6.2,26.15,13.82,33.06,9.5
				c6.92-4.33,25.03-34.7,25.03-34.7l-32.63-4.35L274.2,465.47z"/>
			<path fill="#AFD3E3" d="M440.56,782.22c19.21-35.18,40.04-64.57,57.65-87.59c-12.34-40.53-29.96-70.1-55.05-75.98
				c0,0-16.36,95.72-49.25,139.68c-4.91,6.58-10.83,14.68-17.26,23.89H440.56z"/>
			<path fill="#D4E1E7" d="M451.62,782.22h59.22c27.8-65.63,53.81-175.21,53.81-175.21s-39.81-120.36-134.62-191.44l13.14,203.06
				C443.16,618.63,432.06,704.03,451.62,782.22z"/>
			<path fill="#AFD3E3" d="M482.22,782.22c12.66-78,67.22-191.05,72.6-202.06c-6.64-3.81-13.09-8.92-19.07-15.69
				c0,0-67.38,136.35-74.95,217.75H482.22z"/>
			<path fill="#D4E1E7" d="M557.41,581.58c-0.87-0.41-1.76-0.88-2.58-1.42c-5.38,11-59.95,124.06-72.6,202.06h112.71v1.62
				c6.21-0.5,12.92,1.39,17.94,5.61c6.15-30.45,9.43-62.58,10.76-78.84c1.81-22.86,9.73-77.34,14.43-108.43
				c1.98-13.59,3.39-22.68,3.39-22.68S596.64,602.24,557.41,581.58z"/>
			<path fill="#AFD3E3" d="M280.91,781.95l0.55,0.27h127.05l18.04-42.84c0,0-132.91,43.59-162.71-57.13
				c-29.8-100.73,33.94-161.04,33.94-161.04s14.76-5.58,23.94-11.33c9.18-5.74,15.5-34.15,15.5-34.15l-13.13-1.34l-44.99,34.7
				l-53.92,71.69l-8.32,88.83c-0.2,2.08-0.33,4.15-0.42,6.23C214.6,720.61,240.82,761.9,280.91,781.95z"/>
			<path fill="#F3FAFE" d="M304.48,466.87l33.25,14.89l19.34,63.9l50.4-135.8l-26.82-25.73
				C380.65,384.14,404.04,434.29,304.48,466.87z"/>
			<path fill="#F3FAFE" d="M239.67,495.87l29.51-25.62l35.3-3.37c0,0-12.2-4.33-18.07-16.35c-5.87-12.01,7.73-25.88,7.73-25.88
				l-30.81,14.74L239.67,495.87z"/>
			<path fill="#E83F25" d="M287,504.48c-1.87,9.33-77.44,61.87,3.44,86.88c80.87,25,273.74-119.34,454.07,101.83l1.56,80.76
				l-85.37,1.78c0,0-67.73-136.48-166.38-122.53c-98.64,13.96-318.16,37.03-268.19-90.51C272.83,443.45,287,504.48,287,504.48z"/>
			<g>
				<g>
					<path fill="#F4A976" d="M387.06,294.97c-20.36,73.28-130.5,130.71-161.01,130.26c-2.84-0.03-4.52,0.5-5.21,1.58
						c-21.04-13.01-32.31-46.71-31.88-70.16c0.58-31.26-28.63-178.23-24.15-194.37l170.4-19.2
						C351.67,162.95,404.31,232.88,387.06,294.97z"/>
					<path fill="#ED7E67" d="M408.1,333.58c-37.08,95.97-134.7,103.21-167.94,99.87c-7.13-0.74-13.59-3.09-19.33-6.64
						c0.69-1.08,2.38-1.61,5.21-1.58c30.51,0.44,140.65-56.98,161.01-130.26c17.25-62.09-35.39-132.02-51.85-151.89l37.74-7.36
						C372.95,135.72,445.25,237.58,408.1,333.58z"/>
					<path fill="#642F2F" d="M375.87,75.7c-10.19,4.71-15.68,9.39-18.44,13.58l-4.57-3.84c-4.86-4.07-10.06-7.7-15.61-10.74
						C308.94,59.18,223.28,20.7,174.52,91.83c-59.02,86.1-60.15,131.15-60.15,131.15l141.37-68.31l-18.3,24.89l127.94-31.94
						c0,0,25.21,59.53,27.16,83.23l29.55-32.91C422.08,197.94,407.97,60.87,375.87,75.7z"/>
				</g>
				<path fill="#FFFFFF" d="M320.55,231.17c0,0,3.09,21.04-9.61,27.98c-12.71,6.94-36.41,15.19-46.37-20.06L320.55,231.17z"/>
				<path fill="#FFFFFF" d="M210.03,254.51c-0.34,4.89-4.26,12.1-8.47,14.62c-1.91,1.14-4.19,1.91-6.81,1.73
					c-8.37-0.56-17.54-15.78-21.69-27.26l35.67-10.62C208.74,232.98,210.93,241.79,210.03,254.51z"/>
				<g>
					<g>
						<path fill="#2A9695" d="M182.66,258.1c0.95,6.48,6.97,10.96,13.44,10.01c6.48-0.95,10.96-6.98,10.01-13.45
							c-0.95-6.47-6.98-10.96-13.45-10.01C186.19,245.6,181.71,251.63,182.66,258.1z"/>
						<path fill="#19281F" d="M189.28,257.6c0.4,2.72,2.93,4.6,5.65,4.2c2.72-0.4,4.6-2.93,4.2-5.66c-0.4-2.72-2.93-4.6-5.65-4.2
							C190.76,252.35,188.88,254.87,189.28,257.6z"/>
					</g>
					<path opacity="0.85" fill="#EDEEEE" d="M180.47,255.72c0.33,2.25,2.42,3.81,4.68,3.49c2.25-0.34,3.81-2.43,3.48-4.69
						c-0.33-2.25-2.43-3.81-4.68-3.48C181.7,251.37,180.14,253.47,180.47,255.72z"/>
				</g>
				<path fill="#ED6B62" d="M381.85,286.08c-4.39-22.56,2.17-45.86,18.09-62.68c10.48-10.02,24.04-16.35,35.3-5.1
					c18.03,18.74,9.69,74.21-18.31,95.18c-10.11,8.43-22.87,4.99-28.51-7.17C385.88,301.05,383.42,294.32,381.85,286.08z"/>
				<path fill="#E83F25" d="M416.11,233.26c0,0,17.47,1.25,13.65,14.56c-3.83,13.31,3.71-9.39-9.96-8.28
					c-13.68,1.11-12.91-0.94-14.42,6.74c-1.51,7.68,1.68,11.36,9.54,17.44c7.86,6.08-8.41,28.63-11.58,23.93
					c-3.44-5.09,14.78-14.75,8.88-20.33c-5.9-5.59-14.21-15.37-11.53-22.54C403.37,237.6,412.46,233.12,416.11,233.26z"/>
				<path fill="#FFFFFF" d="M320.55,231.16l-55.97,7.94C290.06,213.07,320.55,231.16,320.55,231.16z"/>
				<g>
					<g>
						<path fill="#2A9695" d="M272.72,249.39c1.31,8.9,9.58,15.05,18.48,13.74c8.9-1.31,15.04-9.57,13.74-18.47
							c-1.31-8.9-9.58-15.05-18.48-13.75C277.57,232.22,271.42,240.49,272.72,249.39z"/>
						<path fill="#19281F" d="M281.81,248.69c0.55,3.74,4.03,6.32,7.77,5.78c3.74-0.55,6.32-4.03,5.78-7.77s-4.03-6.32-7.77-5.78
							C283.85,241.48,281.27,244.95,281.81,248.69z"/>
					</g>
					<path opacity="0.85" fill="#EDEEEE" d="M270.48,247.38c0.46,3.1,3.34,5.24,6.44,4.79c3.09-0.46,5.23-3.34,4.78-6.44
						c-0.45-3.1-3.34-5.24-6.43-4.78C272.16,241.41,270.03,244.28,270.48,247.38z"/>
				</g>
				<path fill="#F49252" d="M320.55,231.16c0,0-30.49-18.09-55.97,7.94c0,0-2.62-31.41,25.07-35.47
					C315.48,199.82,320.55,231.16,320.55,231.16z"/>
				<path fill="#F26B6A" d="M225.65,236.78c0,0,5.61,38.45-17.5,57.28s9.33,33.46,17.48,34.37s-1.59-10.33,5.95-7.68
					c7.54,2.64,22.56,11.83,27.19,2.38c4.62-9.46-3.11-24.55-11.27-25.46C239.34,296.76,242.2,242.81,225.65,236.78z"/>
				<path fill="#642F2F" d="M328.29,179.99l-7.86-15.71c0,0-33.42,28.53-70.17,25.97l9.09,33.04
					C259.35,223.3,323.11,196.74,328.29,179.99z"/>
				<path fill="#FFFFFF" d="M173.06,243.6l35.67-10.62C208.74,232.98,178.34,227.81,173.06,243.6z"/>
				<path fill="#F49252" d="M210.96,243.59c-1.16-0.27,0.46-29.35-27.06-21.3c-13.9,4.07-11.37,22.28-11.37,22.28
					C192.89,228.14,210.96,243.59,210.96,243.59z"/>
				<path fill="#642F2F" d="M213.32,233.18l0.54-31.3c0,0-36.39,6.92-51.03-0.63l-2.04,17.52
					C160.79,218.77,185.6,228.8,213.32,233.18z"/>
				<g>
					<g>
						<g>
							<path fill="#FFFFFF" d="M219.89,365.18c-0.27,0.35-0.69,2.08-1.02,3.5c0.7,1.03,1.52,2.17,2.79,2.88
								c21.22,11.96,42.49,7.17,50.99,4.16c2.56-0.91,5.65-3.34,7.62-5.7c0.6-3.41,1.48-8.89,1.26-10.83
								c-0.34-2.91-6.2,2.55-7.42,3.53c-1.22,0.97-6.25-1.87-6.34-2.21c-0.08-0.33,5.33,1.74,6.49-0.31c1.17-2.04,7.9-4.44,7.9-4.44
								c1.3-4.37,1-10.93,0.73-14.22c-1.47-0.78-2.8-0.95-2.8-0.95s0.85,1.21-1.69,4.78c-2.41,3.37-49.19,8.37-58.24,12
								c-0.25,1.63-0.76,5.43-0.37,5.99c0.52,0.72,6.8,1.36,6.8,1.36S220.36,364.58,219.89,365.18z"/>
							<path fill="#AD7666" d="M267.77,360.51c0.09,0.35,5.12,3.18,6.34,2.21c1.22-0.98,7.08-6.44,7.42-3.53
								c0.22,1.94-0.66,7.42-1.26,10.83c2.71-3.23,4.43-7.57,4.27-9.79c-0.27-3.84,0.54-1.65,2.05-10.14
								c0.89-5.04-1.55-7.44-3.7-8.56c0.27,3.29,0.57,9.86-0.73,14.22c0,0-6.72,2.4-7.9,4.44
								C273.1,362.25,267.69,360.18,267.77,360.51z"/>
							<path fill="#AD7666" d="M218.87,368.68c0.33-1.42,0.75-3.15,1.02-3.5c0.47-0.61,6.71-0.44,6.71-0.44s-6.29-0.65-6.8-1.36
								c-0.4-0.56,0.12-4.37,0.37-5.99c-0.44,0.35-0.76,0.72-0.93,1.08C216.98,363.37,217.24,366.3,218.87,368.68z"/>
							<path fill="#AD7666" d="M262.08,361.92c0,0-23.18,3.66-29.24,3.3C232.84,365.22,250.23,366.05,262.08,361.92z"/>
						</g>
						<path fill="#F36F52" d="M280.19,333.9c0,0,8.99,5.45,10.45,8.92c1.46,3.47,0.83-2.37-1.63-4.79
							C286.67,335.73,283.51,332.22,280.19,333.9z"/>
						<path fill="#F36F52" d="M284.22,328.79c0,0,3.98,1.81,5.1,4.18C289.33,332.97,288.56,327.64,284.22,328.79z"/>
					</g>
				</g>
			</g>
		</g>
	</g>
</g>
</svg>
