<?xml version="1.0" encoding="utf-8"?>
<!-- Generator: Adobe Illustrator 25.2.3, SVG Export Plug-In . SVG Version: 6.00 Build 0)  -->
<svg version="1.1" id="Layer_1" xmlns="http://www.w3.org/2000/svg" xmlns:xlink="http://www.w3.org/1999/xlink" x="0px" y="0px"
	 viewBox="0 0 576 576" enable-background="new 0 0 576 576" xml:space="preserve">
<g>
	<g>
		<defs>
			<path id="SVGID_1_" d="M576,288c0,159.05-128.94,288-288,288C128.94,576,0,447.06,0,288C0,128.94,128.94,0,288,0
				C447.06,0,576,128.94,576,288z"/>
		</defs>
		<use xlink:href="#SVGID_1_"  overflow="visible" fill="#F9E3D9"/>
		<clipPath id="SVGID_2_">
			<use xlink:href="#SVGID_1_"  overflow="visible"/>
		</clipPath>
		<g clip-path="url(#SVGID_2_)">
			<path fill="#A05725" d="M299.19,425.03c2.42,51.5-94.02,98.05-104.86,103.11c1.71-1.45,4.88-7.26,2.35-30.76
				c-3.39-31.28-34.11-78.23-19.33-108.28c14.78-30.01-19.59-87.95-27.52-117.11c-13.59-49.82-15.78-165.89,36.57-209.34
				c14.11-11.69,26.7-16.57,37.61-17.39c-3.09,13.37-8.87,32.25-18.28,43.31c16.68,1.19,20.71,17.61,21.18,30.98
				c0.19,5.47-0.22,10.46-0.59,13.63c0.34-0.97,0.9-2.42,1.64-4.32c0.23-0.56,0.49-1.16,0.75-1.79c0.15-0.41,0.34-0.86,0.52-1.31
				c0.45-1.04,0.94-2.16,1.45-3.35c0.56-1.27,1.16-2.6,1.83-3.98c0.22-0.49,0.45-0.93,0.67-1.42c0.67-1.45,1.42-2.94,2.2-4.47
				c0.27-0.49,0.52-1.01,0.79-1.53c0.26-0.53,0.52-1.05,0.82-1.57c0.26-0.52,0.56-1.05,0.85-1.6c0.34-0.6,0.68-1.23,1.01-1.86
				c1.12-2.01,2.35-4.1,3.58-6.14c4.43-7.15,9.64-14.34,15.6-20.41c0.45-0.49,0.9-0.93,1.38-1.38c3.35-3.28,6.89-6.14,10.68-8.49
				c0.23,0.33,0.34,0.52,0.34,0.52l-24.73,47.82l-2.31,4.46l-0.23,0.45c0,0,11.28,34.18,0,93.12
				C231.91,274.9,296.66,370.48,299.19,425.03z"/>
			<path fill="#875321" d="M206.4,490.31c0,0,2.79-86.35-2.38-111.48c-5.18-25.17-25.92-75.07-43.87-104.08
				c-14.63-23.6-8.86-125.67,15.64-167.63l5.44,27.37c12.44-33.07,44.61,0,44.61,0l0.45-0.82c-0.22,1.98-0.45,3.13-0.45,3.13
				l73.37,252.33l-5.63,59.34L206.4,490.31z"/>
			<polygon fill="#362415" points="141.34,254.95 200.69,243.16 196.43,238.19 145.11,248.85 			"/>
			<path fill="#A05725" d="M429.56,507.1c-18.92-20.97-60.88-73.46-47.11-114.91c17.54-52.73,29.05-128.35,25.99-128.43
				c-67.59-1.71-87.73,104.22-93.72,168.23c-7.04-8.18-10.69-15.78-8.64-21.82c8.2-23.91,36.23-168.27,89.59-180.75
				c-1.11-1.49-2.31-2.98-3.61-4.43c-0.71-0.79-1.38-1.57-2.01-2.34c7.67-9.39,23.31-25.02,39.84-20.56
				c1.86,13.85,3.84,27.37,6.74,39.88c7.22,31.17,7.37,51.84,3.27,66.81c-0.97,13.89-3.94,29.34-10.09,45.98
				c-21.86,59.28,6.92,111.08,18.5,140.34C454.51,510.75,441.77,510.42,429.56,507.1z"/>
			<path fill="#875321" d="M429.56,507.1c-9.42-2.49-18.55-6.74-18.55-6.74s-70.56-38.35-96.29-68.37
				c5.99-64.01,26.14-169.95,93.72-168.23c3.05,0.08-8.46,75.7-25.99,128.43C368.68,433.64,410.64,486.14,429.56,507.1z"/>
			<path fill="#A05725" d="M193.33,528.63c0,0,0.3-0.15,0.86-0.37C193.7,528.63,193.33,528.63,193.33,528.63z"/>
			<path fill="#F89B60" d="M197.3,746.32c9.77-19.77,16.18-37.61,16.18-37.61l-19.23-12.12l-30.27-19.08
				c-13.98,16.16-19.58,44.07-21.63,68.81H197.3z"/>
			<path fill="#E72E25" d="M263.52,524.48c-12.85,91.41-50.04,184.23-50.04,184.23c-8.96,1.27-17.96,1.03-26.38,0
				c0.68-0.05,1.41-0.19,2.09-0.29c0,0,34.61-93.85,44.88-185.55c1.8-16.02-13.63-33-30.91-40.21c1.32-0.68,2.73-1.21,4.33-1.8
				C230.61,472.63,266.97,500.24,263.52,524.48z"/>
			<path fill="#EF4727" d="M234.07,522.87c-10.27,91.69-44.88,185.55-44.88,185.55c-0.68,0.1-1.41,0.24-2.09,0.29
				c-23.9-2.87-42.98-12.26-42.98-12.26s11.01-112.29,36.8-179.32c8.61-22.34,11.73-29.59,22.2-34.46h0.05
				C220.44,489.87,235.87,506.86,234.07,522.87z"/>
			<path fill="#EF4727" d="M369.01,746.32c0.76-30.33-4.1-56.15-22.56-58.69c-23.95-3.31-67.95-1.99-106.41-5.16
				c-0.72,15.68-1.94,39.57-3.71,63.84H369.01z"/>
			<path fill="#EF4727" d="M446.92,559.43c-4.14,5.64-13.39,24.87-23.17,51.01l-26.97-46.93c0,0-33.05,69.76-50.09,82.74
				c-17.03,12.95-59.43,1.61-109.76,0c-28.13-0.92-39.28-17.18-43.61-31.58v-0.05c0.25-5.7,1.42-12.02,3.65-19.08
				c19.37-60.7,2.63-104.36,2.63-104.36s243.91-32.96,253.01,11.34C461.72,546.77,446.92,559.43,446.92,559.43z"/>
			<path fill="#F58138" d="M359.12,449.81c-7.7,9.59-21.13,22.78-42.25,32.36c-26.62,12.02-35.1-14.65-37.72-30.71
				c29.2-31.64,1.21-98.09,1.21-98.09l66.92-42.98C347.28,310.4,319.88,417.34,359.12,449.81z"/>
			<path fill="#F9AB79" d="M359.41,221.39c-0.25,23.75-12.91,127.91-53.11,156.73c-24.73,9.44-48.87,12.27-62.31,10.61
				c-29.88-3.65-60.89-91.27-71.94-115.6c-11.1-24.34,8.86-135.07,8.86-135.07c4.86-36.41,48.63-45.52,95.55-42.69l-13,11.05
				c0,0,17.13,74.87,47.9,89.76C342.13,211.07,359.65,197.64,359.41,221.39z"/>
			<path fill="#EF4727" d="M448.33,495.13c0,0-255.39,7.69-250.51-5.25c4.87-13,9.14-5.07,64.29-26.97
				c7.15-2.83,12.7-6.77,17.04-11.44c2.62,16.06,11.1,42.73,37.72,30.71c21.12-9.59,34.55-22.78,42.25-32.36
				c3.99,3.31,8.6,6.06,14.11,7.4C441.04,473.67,448.33,495.13,448.33,495.13z"/>
			<path fill="#3A160F" d="M169.17,225c-1.05,0.48,8.31-14.81,17.2-16.35s25.03-4.33,30.23-1.16c2.53,1.55,4.94,10.92,4.03,15.15
				c0,0-9.22-4.77-13.68-4.32C202.47,218.77,182.33,218.99,169.17,225z"/>
			<g>
				<path fill="#F68E5A" d="M221.13,257.7l-46.33-2.78c1.25-4.27,5.2-12.28,17.33-15.94C210.34,233.6,221.13,257.7,221.13,257.7z"/>
				<path fill="#4B2524" d="M221.13,257.7h-46.89l-4.86-3.11l5.42,0.33c1.25-4.27,5.2-12.28,17.33-15.94
					C210.34,233.6,221.13,257.7,221.13,257.7z"/>
				<path fill="#FFFFFF" d="M221.13,257.7c-3.98,3.21-7.87,5.49-11.53,7.05c-2.55,1.06-5.01,1.72-7.32,2.11
					c-5.42,0.94-10.24,0.33-14.28-0.89c-2.83-0.89-5.33-2.05-7.31-3.27c-4.13-2.5-6.44-4.99-6.44-4.99s0.05-1.12,0.55-2.78
					c1.25-4.27,5.2-12.28,17.33-15.94C210.34,233.6,221.13,257.7,221.13,257.7z"/>
				<g>
					<path fill="#2BAAE2" d="M209.3,250.72c0,9.28-6.28,16.81-14.03,16.81s-14.03-7.53-14.03-16.81c0-9.29,6.28-16.82,14.03-16.82
						S209.3,241.43,209.3,250.72z"/>
					<path fill="#3A160F" d="M204.14,250.72c0,5.87-3.97,10.63-8.87,10.63s-8.87-4.76-8.87-10.63c0-5.88,3.97-10.64,8.87-10.64
						S204.14,244.84,204.14,250.72z"/>
					<ellipse fill="#FFFFFF" cx="186.79" cy="249.82" rx="3.25" ry="3.89"/>
				</g>
				<path fill="#F68E5A" d="M221.09,257.2c-0.28-3.34-2.78-20.99-21.87-23.88c-21.13-3.22-29.84,21.27-29.84,21.27
					c2.13-14.17,11.4-36.71,33.96-31.71C219.24,226.38,220.95,253.09,221.09,257.2z"/>
				<path fill="#4B2524" d="M221.13,257.7c0,0-10.79-24.1-29-18.72c-12.14,3.66-16.08,11.66-17.33,15.94l-5.42-0.33
					c0,0,8.71-24.49,29.84-21.27c19.09,2.89,21.59,20.54,21.87,23.88C221.13,257.53,221.13,257.7,221.13,257.7z"/>
			</g>
			<g>
				<path fill="#4B2524" d="M333.84,242.92l-6.47,4.84L259,254.86c0,0,8.54-21.6,29.14-26.49c15.83-3.77,30.38,9.61,36.38,16.05
					L333.84,242.92z"/>
				<g>
					<path fill="#F68E5A" d="M328.89,243.62c-1.3-1.66-18.37-23.15-44.1-22.26c-26.8,0.94-30.74,34.32-30.74,34.32
						s-7.25-43.87,26.91-45.65C314.14,208.36,328.06,241.62,328.89,243.62z"/>
					<path fill="#FFFFFF" d="M322.47,248.56c-6.79,7.66-13.82,12.33-20.71,15c-3.83,1.44-7.66,2.33-11.33,2.66
						c-5.18,0.5-10.09,0.05-14.54-0.89c-4.04-0.88-7.72-2.16-10.82-3.49c-6.78-2.95-10.97-6.16-10.97-6.16s8.54-21.6,29.14-26.49
						c15.84-3.77,30.38,9.61,36.38,16.05C321.43,247.23,322.47,248.56,322.47,248.56z"/>
					<g>
						<path fill="#2BAAE2" d="M299.2,244.84c0,10.46-7.9,18.93-17.63,18.93c-9.74,0-17.63-8.47-17.63-18.93
							c0-10.44,7.9-18.91,17.63-18.91C291.3,225.93,299.2,234.4,299.2,244.84z"/>
						<path fill="#3A160F" d="M292.73,244.84c0,6.61-5,11.97-11.16,11.97s-11.15-5.36-11.15-11.97c0-6.61,4.99-11.96,11.15-11.96
							S292.73,238.24,292.73,244.84z"/>
						<path fill="#FFFFFF" d="M275,243.84c0,2.42-1.83,4.38-4.09,4.38c-2.25,0-4.08-1.96-4.08-4.38c0-2.42,1.83-4.38,4.08-4.38
							C273.17,239.46,275,241.42,275,243.84z"/>
					</g>
					<path fill="#4B2524" d="M328.94,243.73l-9.32,1.5c-6-6.44-20.54-19.82-36.38-16.05c-20.6,4.89-29.14,26.49-29.14,26.49h-0.05
						c0,0,3.94-33.38,30.74-34.32c25.73-0.89,42.8,20.6,44.1,22.26C328.94,243.68,328.94,243.73,328.94,243.73z"/>
				</g>
			</g>
			<path fill="#AB2623" d="M247.29,300.47c-1.6,5.2-15.02-0.19-22.47,0.57c-7.44,0.84-8.6,5.85-17.08-2.57
				c-3.27-3.34-4.23-6.35-3.72-9.18c0.9-4.36,5.39-8.22,10.53-12.13c8.47-6.42,2.44-36.46,2.44-36.46
				c6.23,4.36,4.81,29.85,3.4,34.92c-0.96,3.33-6.55,7.83-10.4,11.68c-1.93,1.86-3.4,3.59-3.66,4.94
				c-0.77,3.98,7.38,10.59,12.64,7.38c5.33-3.21,11.04,0,18.04,0.84c7.06,0.83,7.83-2.19,8.86-6.42c0.58-2.5-2.12-4.62-4.5-5.97
				l-1.4-0.71c-0.07-0.06-0.14-0.06-0.14-0.06c-0.96-0.45-1.6-0.71-1.6-0.71c3.59-0.51,6.1,1.09,7.57,3.53
				C247.81,293.21,248.19,297.58,247.29,300.47z"/>
			<path fill="#F68E5A" d="M245.88,294.04c-1.03,4.23-1.8,7.25-8.86,6.42c-7-0.84-12.71-4.05-18.04-0.84
				c-5.26,3.21-13.41-3.4-12.64-7.38c0.25-1.34,1.73-3.08,3.66-4.94c4.88,1.92,17.78,6.54,24.2,3.78c6.48-2.76,6.16-3.53,5.78-3.72
				l1.4,0.71C243.76,289.42,246.46,291.54,245.88,294.04z"/>
			<path opacity="0.33" fill="#FFFFFF" d="M223.35,294.26c-0.18,1.27-3.67,1.84-7.8,1.26c-4.13-0.57-7.34-2.07-7.16-3.34
				c0.18-1.27,3.66-1.83,7.8-1.25C220.33,291.5,223.53,293,223.35,294.26z"/>
			<path fill="#3A160F" d="M323.22,207.92c1.49,0.24-13.93-12.13-26.05-11.79c-12.13,0.34-34.1,0.95-40.4,4.93
				c-3.07,1.94-4.44,11.15-2.4,14.89c0,0,11.31-6.27,17.34-6.74C277.74,208.75,304.55,204.95,323.22,207.92z"/>
			<path fill="#F89B60" d="M380.33,309.58c-13.14,35.48-44.15,56.95-74.33,68.48c40.21-28.81,52.86-132.98,53.11-156.73
				c0.24-23.75-17.28-10.32-48.04-25.21c-30.76-14.9-47.89-89.76-47.89-89.76l12.99-11.05c56.56,3.36,117.75,24.1,121.4,35.39
				C404.18,151.38,404.18,245.08,380.33,309.58z"/>
			<path fill="#E72E25" d="M309.95,652.05l1.07,33.29c-21.86-0.68-47.46-0.92-70.97-2.87c0.49-11.19,0.73-18.15,0.73-18.15
				s-49.26-6.33-47.46-49.65c4.33,14.41,15.48,30.66,43.61,31.58C264.63,647.13,290,650.98,309.95,652.05z"/>
			<path fill="#E72E25" d="M346.46,687.63c18.45,2.53,23.3,28.35,22.54,58.69h22.58c2.04-31.97,9.64-66.32,18.94-96.89
				c0.05-0.05,0.05-0.1,0.05-0.15c0.05-0.24,0.1-0.39,0.15-0.49c4.18-13.77,8.66-26.77,13.04-38.35l-26.97-46.93
				c0,0-33.05,69.76-50.09,82.74c-7.64,5.79-20.44,6.72-36.75,5.79l1.07,33.29C324.84,685.78,337.16,686.37,346.46,687.63z"/>
			<path fill="#A05725" d="M226.28,133.59c1.42-11.84,3.76-51.91-30.83-44.16c-7.52,1.68-14.07,8.12-19.66,17.69l-1.57-7.82
				c0,0,58.35-41.07,79.87-18.62L226.28,133.59z"/>
			<path fill="#A05725" d="M226.91,119.55c0.19,5.47-0.22,10.46-0.59,13.63c-0.04,0.11-0.08,0.23-0.11,0.34
				c-0.04,0.07-0.08,0.14-0.08,0.14c-0.03,0.19-0.07,0.27-0.11,0.38c-0.03,0.11-0.07,0.18-0.11,0.26l-0.04,0.15l-0.04,0.04
				c0.04-0.53,0.04-1.08,0.08-1.6C226.1,128.22,226.44,123.79,226.91,119.55z"/>
			<path fill="#A05725" d="M393.51,86.37c-1.57,25.43-1.08,79.54-27.59,58.84c-0.15-0.79-0.34-1.6-0.56-2.42
				c-0.26-1.08-0.57-2.16-0.9-3.27c-0.22-0.6-0.41-1.23-0.64-1.86c-0.29-0.93-0.63-1.83-1-2.75c-0.3-0.82-0.64-1.64-1.01-2.46
				c-0.34-0.82-0.71-1.68-1.12-2.54c-0.34-0.74-0.71-1.49-1.05-2.27c-0.67-1.38-1.41-2.79-2.2-4.25c-1.68-3.05-3.57-6.25-5.81-9.68
				c-0.53-0.86-1.12-1.75-1.75-2.64c-0.89-1.31-1.83-2.68-2.83-4.06c-0.97-1.42-2.01-2.83-3.09-4.29
				c-2.87-3.91-6.11-8.04-9.76-12.43c-1.86-2.27-3.73-4.4-5.59-6.37c-3.84-4.06-7.6-7.44-11.25-10.2c-0.52-0.41-1.08-0.82-1.6-1.16
				c-2.12-1.57-4.21-2.86-6.25-3.91c-0.67-0.4-1.38-0.74-2.05-1.08c-0.85-0.41-1.68-0.78-2.49-1.12c-0.67-0.3-1.38-0.56-2.05-0.78
				c-0.6-0.23-1.2-0.45-1.79-0.6c-1.08-0.37-2.16-0.63-3.24-0.86c-1.68-0.37-3.32-0.63-4.96-0.74c-2.16-7.52-3.24-16.32,0.53-22.75
				c27.55-1.23,59.02,11.73,85.38,31.8C384.39,76.72,389.23,81.34,393.51,86.37z"/>
			<path fill="#875321" d="M362.75,342.59c16.5-41.07,34.56-81.21,7.3-104.11c-57.01-47.85-19.1-72.02-47.85-115.65
				c-19.48-29.53-56.78-13.71-78.83-0.45c-9.98,6.03-16.83,11.55-17.5,12.07l0.04-0.15c0.04-0.08,0.08-0.15,0.11-0.26
				c0.04-0.08,0.08-0.19,0.11-0.34c0,0,0.04-0.11,0.08-0.18c0.03-0.11,0.07-0.23,0.11-0.34c0.34-0.97,0.9-2.42,1.64-4.32
				c0.23-0.56,0.49-1.16,0.75-1.79c0.15-0.41,0.34-0.86,0.52-1.31c0.45-1.04,0.94-2.16,1.45-3.35c0.56-1.27,1.16-2.6,1.83-3.98
				c0.22-0.49,0.45-0.93,0.67-1.42c0.67-1.45,1.42-2.94,2.2-4.47c0.27-0.49,0.52-1.01,0.79-1.53c0.26-0.53,0.52-1.05,0.82-1.57
				c0.26-0.52,0.56-1.05,0.85-1.6c0.34-0.6,0.68-1.23,1.01-1.86c1.12-2.01,2.35-4.1,3.58-6.14c4.43-7.15,9.64-14.34,15.6-20.41
				c0.45-0.49,0.9-0.93,1.38-1.38c3.35-3.28,6.89-6.14,10.68-8.49c0.53-0.34,1.05-0.64,1.6-0.97c0.41-0.23,0.86-0.45,1.31-0.68
				c1.15-0.59,2.27-1.15,3.46-1.6c0.48-0.26,1-0.45,1.53-0.63c1.27-0.49,2.57-0.9,3.87-1.2c0.41-0.15,0.82-0.22,1.27-0.33
				c0.86-0.19,1.71-0.34,2.57-0.45c0.67-0.12,1.38-0.19,2.09-0.23c0.89-0.07,1.79-0.11,2.68-0.11c0.82,0,1.68,0.04,2.53,0.08
				c1.64,0.14,3.28,0.37,4.96,0.74c1.08,0.23,2.16,0.49,3.24,0.86c0.59,0.15,1.19,0.37,1.79,0.6c0.67,0.22,1.38,0.48,2.05,0.78
				c0.82,0.34,1.64,0.71,2.49,1.12c0.68,0.34,1.38,0.68,2.05,1.08c2.05,1.05,4.13,2.34,6.25,3.91c0.52,0.34,1.08,0.75,1.6,1.16
				c3.65,2.76,7.41,6.14,11.25,10.2c1.83,1.97,3.68,4.1,5.59,6.37c3.64,4.39,6.88,8.52,9.76,12.43c1.08,1.45,2.12,2.87,3.09,4.29
				c1,1.38,1.94,2.75,2.83,4.06c0.6,0.89,1.2,1.79,1.75,2.64c2.23,3.42,4.13,6.62,5.81,9.68c0.79,1.45,1.53,2.87,2.2,4.25
				c0.34,0.78,0.71,1.53,1.05,2.27c0.41,0.86,0.78,1.71,1.12,2.54c0.37,0.81,0.71,1.64,1.01,2.46c0.37,0.93,0.71,1.83,1,2.75
				c0.23,0.63,0.42,1.27,0.64,1.86c0.33,1.11,0.64,2.2,0.9,3.27c0.22,0.82,0.41,1.64,0.56,2.42c5.66,26.88-11.66,36.64,26.14,79.8
				C431.98,270.54,389.82,318.83,362.75,342.59z"/>
			<path fill="#875321" d="M226.32,133.18c0,0.15-0.04,0.3-0.04,0.41c0,0,0,0.04,0,0.07l-0.37,0.64l-0.04,0.15l-0.04,0.04
				c0,0-32.17-33.07-44.61,0l-5.44-27.37c5.59-9.57,12.14-16.01,19.66-17.69c3.88-0.86,7.26-1.12,10.28-0.86
				c16.68,1.19,20.71,17.61,21.18,30.98C227.1,125.02,226.69,130.01,226.32,133.18z"/>
			<path fill="#BD6628" d="M429.89,202.1c-16.53-4.47-28.71,18.52-36.38,27.9c-40.22-47.56-22.04-58.4-27.59-84.8
				c26.51,20.71,26.03-33.4,27.59-58.84C419.43,116.83,424.27,161.03,429.89,202.1z"/>
			<path fill="#875321" d="M390.05,222.66c-3.09,3.79-4.88,6.59-4.88,6.59l-28.75-19.29l9.5-64.75
				C371.47,171.6,354.9,181.47,390.05,222.66z"/>
			<path fill="#BD6628" d="M255.55,54.72c-14.67,12.26-25.24,33.07-28.64,64.83c-0.47-13.37-4.5-29.79-21.18-30.98
				c9.42-11.06,15.19-29.94,18.28-43.31C237.15,44.22,247.81,49.06,255.55,54.72z"/>
			<path fill="#BD6628" d="M270.07,69.58c-3.79,2.34-7.33,5.21-10.68,8.49c-0.48,0.45-0.93,0.89-1.38,1.38
				c-5.96,6.07-11.17,13.26-15.6,20.41c-1.23,2.05-2.46,4.13-3.58,6.14c-0.33,0.63-0.67,1.27-1.01,1.86
				c-0.29,0.55-0.59,1.08-0.85,1.6c-0.3,0.52-0.56,1.04-0.82,1.57c-0.27,0.52-0.52,1.04-0.79,1.53c-0.78,1.53-1.53,3.02-2.2,4.47
				c-0.22,0.49-0.45,0.93-0.67,1.42c-0.67,1.38-1.27,2.71-1.83,3.98c-0.52,1.2-1.01,2.31-1.45,3.35c-0.18,0.45-0.37,0.9-0.52,1.31
				c-0.26,0.63-0.52,1.23-0.75,1.79c-0.74,1.9-1.3,3.35-1.64,4.32c0.37-3.16,0.78-8.16,0.59-13.63
				c3.4-31.77,13.97-52.58,28.64-64.83h0.04C263.78,60.71,268.77,67.64,270.07,69.58z"/>
			<path fill="#BD6628" d="M292.97,63.47c-0.85-0.04-1.71-0.08-2.53-0.08c-0.89,0-1.79,0.04-2.68,0.11
				c-0.71,0.04-1.42,0.11-2.09,0.23c-0.86,0.11-1.71,0.26-2.57,0.45c-0.45,0.11-0.86,0.18-1.27,0.33c-1.31,0.3-2.6,0.71-3.87,1.2
				c-0.53,0.18-1.05,0.37-1.53,0.63c-1.19,0.45-2.31,1.01-3.46,1.6c-0.45,0.23-0.9,0.45-1.31,0.68c-0.56,0.33-1.08,0.63-1.6,0.97
				c-1.3-1.94-6.29-8.87-14.48-14.86c10.8-9.01,23.84-13.37,37.91-14C289.73,47.16,290.82,55.95,292.97,63.47z"/>
			<g>
				<g enable-background="new    ">
					<defs>
						<polygon id="SVGID_3_" enable-background="new    " points="140.87,293.11 140.35,238.57 312.78,242.38 313.3,296.93 						
							"/>
					</defs>
					<clipPath id="SVGID_4_">
						<use xlink:href="#SVGID_3_"  overflow="visible"/>
					</clipPath>
					<g clip-path="url(#SVGID_4_)">
						<path fill="#362415" d="M190.11,247.28c2.94,0.02,5.7,0.05,8.18,0.11c2.48,0.05,4.69,0.13,6.51,0.22c0,0,0.25-0.01,0.58-0.01
							c1.87,0.05,7.67,0.63,8.37,5.94c-0.01,0.6-0.04,1.23-0.06,1.86c0,0.09-0.01,0.18-0.01,0.26c0,0.07,0,0.14-0.01,0.2
							c-0.09,1.96-0.23,4.07-0.44,6.24l-0.01,0.01l0.01-0.01c-0.64,6.92-1.88,14.32-3.8,19.03c-0.02,0.05-0.04,0.09-0.05,0.13
							c-0.03,0.07-0.06,0.14-0.09,0.21c-0.03,0.08-0.07,0.17-0.1,0.25c-0.02,0.03-0.03,0.06-0.05,0.09
							c-0.79,1.76-1.68,3.07-2.68,3.73l-0.04,0.02c-0.06,0.04-0.1,0.07-0.15,0.09c0,0-0.06,0.04-0.09,0.05
							c-0.03,0.02-0.07,0.04-0.1,0.06c-0.07,0.03-0.14,0.06-0.21,0.09c-4.77,1.9-19.73,4.67-33.9,4.36
							c-1.17-0.03-2.33-0.07-3.49-0.14c-0.1-0.01-0.19-0.01-0.29-0.02c-0.19-0.01-0.38-0.03-0.57-0.04
							c-0.34-0.03-0.68-0.05-1.01-0.08h-0.03c-4.35-0.36-8.49-1.08-12.05-2.27c-0.77-0.29-1.49-0.57-2.23-0.89
							c-0.12-0.05-0.24-0.1-0.36-0.16c-0.03-0.01-0.05-0.03-0.05-0.03c-0.11-0.05-0.19-0.09-0.27-0.14
							c-0.79-0.41-1.51-0.92-2.16-1.54h0.01h-0.01c-1.51-1.4-2.64-3.29-3.13-5.4c-0.05-0.21-0.1-0.44-0.16-0.65
							c-0.9-3.75-1.6-7.7-2.01-11.4c-0.58-5.2-0.6-9.85,0.2-12.62l0,0c0.03-0.08,0.05-0.16,0.08-0.25c0.01-0.02,0.01-0.05,0.01-0.05
							c0.03-0.08,0.05-0.15,0.07-0.21c0.01-0.03,0.03-0.06,0.04-0.09c0,0,0.03-0.08,0.05-0.12c0,0,0.04-0.09,0.06-0.14l0.03-0.09
							c0.03-0.05,0.05-0.1,0.05-0.1c0.03-0.06,0.05-0.08,0.05-0.08c0.03-0.07,0.06-0.12,0.09-0.18l0.02-0.05
							c0.03-0.06,0.06-0.11,0.09-0.16l0.01-0.03c0.03-0.05,0.07-0.11,0.1-0.16l0.01-0.01c0.04-0.06,0.08-0.11,0.12-0.16l0.01-0.01
							c0.08-0.1,0.17-0.19,0.26-0.28c2.58-2.46,10.68-3.85,20.33-4.61c0.4-0.03,0.8-0.06,1.2-0.08c0.06-0.01,0.11-0.01,0.17-0.01
							c0.2-0.01,0.41-0.03,0.62-0.05h0.04c2.95-0.2,6.01-0.34,9.08-0.44c0.06-0.01,0.12-0.01,0.19-0.01
							c0.19-0.01,0.38-0.01,0.57-0.01h0.03c0.21-0.01,0.41-0.01,0.61-0.02c0.14-0.01,0.29-0.01,0.43-0.01c0.1,0,0.19-0.01,0.3-0.01
							c0.5-0.01,1-0.03,1.49-0.04c0.38-0.01,0.76-0.02,1.14-0.02c2.47-0.05,4.92-0.08,7.27-0.08
							C189.35,247.29,189.73,247.29,190.11,247.28z M198.32,243.81c-14.68-0.32-48.24-0.32-55.13,6.17
							c-6.01,5.64-0.78,27.84-0.16,30.32c1.08,4.43,4.08,8.07,8.06,9.79c5.79,2.49,13.26,3.55,20.9,3.72
							c1.64,0.04,3.29,0.03,4.94-0.01c13.08-0.28,25.69-2.77,30.24-4.57c8.92-3.51,9.91-32.34,10.01-35.61v-0.14v-0.06l-0.01-0.02
							c-0.77,0.28-1.53,0.58-2.27,0.94c-0.58-1.31-1.16-2.62-1.75-3.94c0.88-0.42,1.77-0.79,2.68-1.11
							c-2.32-3.96-7.08-5.22-10.24-5.29c-0.31-0.01-0.61-0.01-0.89,0.01C203.74,243.96,201.47,243.88,198.32,243.81z"/>
						<path opacity="0.251" fill="#75CBCC" d="M156.86,249.09c-5.45,0.81-9.63,1.99-11.36,3.62c-0.09,0.08-0.18,0.18-0.26,0.28
							l-0.01,0.01c-0.04,0.05-0.08,0.1-0.12,0.16l-0.01,0.01c-0.03,0.05-0.07,0.1-0.1,0.16l-0.01,0.03
							c-0.03,0.05-0.06,0.1-0.09,0.16l-0.02,0.05c-0.03,0.05-0.06,0.1-0.08,0.16c0,0-0.02,0.04-0.03,0.06c0,0-0.05,0.1-0.07,0.14
							l-0.03,0.09c-0.02,0.05-0.04,0.08-0.04,0.08c-0.03,0.09-0.05,0.13-0.05,0.13c-0.03,0.08-0.04,0.1-0.05,0.14
							c-0.02,0.06-0.04,0.12-0.06,0.18c0,0-0.02,0.05-0.03,0.07c-0.03,0.08-0.05,0.16-0.08,0.25l0,0c-0.6,2.1-0.73,5.31-0.51,9
							L156.86,249.09z"/>
						<path fill="#445143" d="M144.36,254.84L144.36,254.84L144.36,254.84z M144.47,254.52c0,0-0.02,0.05-0.03,0.07
							C144.45,254.57,144.45,254.55,144.47,254.52z M144.56,254.25c-0.01,0.03-0.03,0.06-0.04,0.09
							C144.54,254.31,144.55,254.28,144.56,254.25z M144.67,253.99c-0.02,0.05-0.04,0.08-0.04,0.08S144.65,254.03,144.67,253.99z
							 M144.77,253.76c0,0-0.05,0.1-0.07,0.14C144.73,253.85,144.75,253.8,144.77,253.76z M144.88,253.54
							c-0.03,0.05-0.06,0.1-0.08,0.16C144.82,253.65,144.85,253.59,144.88,253.54z M144.99,253.34c-0.03,0.05-0.06,0.1-0.09,0.16
							C144.93,253.44,144.97,253.39,144.99,253.34z M145.11,253.16c-0.03,0.05-0.07,0.1-0.1,0.16
							C145.04,253.26,145.08,253.2,145.11,253.16z M145.23,252.99c-0.04,0.05-0.08,0.1-0.12,0.16
							C145.15,253.09,145.19,253.04,145.23,252.99z M145.5,252.7c-0.09,0.08-0.18,0.18-0.26,0.28
							C145.32,252.88,145.41,252.79,145.5,252.7z"/>
						<path opacity="0.251" fill="#75CBCC" d="M190.09,247.31c-0.38,0-0.75,0-1.13,0c-2.07,0.03-4.22,0.04-6.41,0.08l-33.09,37.53
							c0.65,0.6,1.38,1.13,2.16,1.54c0.08,0.05,0.16,0.08,0.24,0.12c0,0,0.06,0.03,0.08,0.04c0.12,0.06,0.23,0.12,0.36,0.16
							c0.72,0.31,1.47,0.6,2.25,0.86L190.09,247.31z"/>
						<path fill="#445143" d="M152.3,286.78c0.73,0.32,1.46,0.6,2.23,0.89l0.02-0.03C153.77,287.37,153.02,287.09,152.3,286.78z
							 M151.86,286.57c0,0,0.06,0.03,0.08,0.04C151.92,286.6,151.89,286.59,151.86,286.57z M149.46,284.91L149.46,284.91
							c0.64,0.62,1.37,1.13,2.16,1.54C150.84,286.04,150.11,285.52,149.46,284.91z M190.11,247.28c-0.38,0.01-0.76,0.01-1.14,0.03
							c0.38,0,0.75,0,1.13,0L190.11,247.28z"/>
						<path opacity="0.251" fill="#75CBCC" d="M213.22,262.11l-23.95,27.15c7.54-0.9,13.81-2.3,16.6-3.4
							c0.07-0.03,0.14-0.06,0.21-0.09c0.03-0.02,0.07-0.04,0.1-0.06c0.03-0.01,0.06-0.03,0.06-0.03c0.07-0.04,0.12-0.07,0.12-0.07
							l0.1-0.06c1-0.67,1.89-1.97,2.68-3.73c0.01-0.03,0.03-0.06,0.05-0.09c0.03-0.08,0.07-0.17,0.1-0.25
							c0.03-0.07,0.06-0.14,0.09-0.21c0.01-0.04,0.03-0.08,0.05-0.13C211.34,276.42,212.57,269.02,213.22,262.11z"/>
						<path fill="#445143" d="M206.08,285.77c-0.07,0.03-0.14,0.06-0.21,0.09C205.94,285.83,206.01,285.8,206.08,285.77z
							 M206.27,285.66c0,0-0.06,0.04-0.09,0.05C206.21,285.7,206.25,285.68,206.27,285.66z M206.46,285.55l-0.04,0.02L206.46,285.55
							z M209.18,281.72c-0.02,0.03-0.03,0.06-0.05,0.09C209.15,281.78,209.16,281.76,209.18,281.72z M209.38,281.26
							c-0.03,0.07-0.06,0.14-0.09,0.21C209.32,281.4,209.34,281.33,209.38,281.26z M213.23,262.1l-0.01,0.01
							c-0.65,6.9-1.88,14.31-3.79,19.02C211.34,276.42,212.58,269.02,213.23,262.1z"/>
						<path fill="#362415" d="M285.31,245.35c2.21,0.07,4.35,0.18,6.37,0.32c7.13,0.5,12.83,1.53,15.09,3.39
							c2.14,1.77,2.95,8.34,2.75,15.85c0,0.09,0,0.18-0.01,0.28c0,0.08-0.01,0.17-0.01,0.26c-0.1,3.23-0.39,6.61-0.84,9.83
							c-0.03,0.19-0.05,0.38-0.08,0.57c-0.44,3.33-2.42,6.12-5.23,7.52c-5.12,2.56-12.02,3.81-19.19,4.31l0.01-0.01l-0.01,0.01
							c-3.41,0.23-6.88,0.29-10.27,0.21c-6.12-0.13-11.94-0.69-16.48-1.39c-3.34-0.51-5.99-1.08-7.59-1.62
							c-0.84-0.28-1.65-0.97-2.42-1.97l-0.01-0.02c-0.06-0.08-0.11-0.15-0.16-0.22c-0.04-0.05-0.08-0.11-0.12-0.16l-0.03-0.04
							c-1.06-1.51-2.05-3.59-2.96-6.01l0,0c-0.06-0.18-0.13-0.35-0.19-0.53c-0.05-0.14-0.1-0.28-0.15-0.42
							c-0.02-0.04-0.03-0.08-0.03-0.08c-0.78-2.21-1.49-4.63-2.12-7.12c-0.01-0.03-0.02-0.06-0.03-0.09
							c-0.05-0.18-0.09-0.36-0.14-0.55c-0.01-0.04-0.02-0.08-0.03-0.12c-0.03-0.16-0.07-0.31-0.11-0.47
							c-0.03-0.14-0.06-0.28-0.1-0.42c-0.01-0.07-0.03-0.14-0.05-0.21c-0.05-0.21-0.1-0.42-0.15-0.62c0-0.02-0.01-0.03-0.01-0.03
							c-0.16-0.73-0.32-1.44-0.47-2.14l-0.01-0.03c-0.05-0.19-0.08-0.4-0.13-0.6c-0.03-0.12-0.05-0.24-0.07-0.36
							c-0.01-0.06-0.03-0.13-0.04-0.19c-0.04-0.19-0.08-0.38-0.12-0.57v-0.01c-0.08-0.36-0.15-0.73-0.21-1.08
							c-0.53-2.78-0.97-5.46-1.25-7.83c0.19-6.27,8.03-6.36,8.32-6.36c5.55-0.47,14.68-1.08,24.17-1.27
							c1.89-0.05,3.75-0.08,5.64-0.08c1.44-0.01,2.88-0.01,4.31,0C282.57,245.3,283.96,245.32,285.31,245.35z M283.11,241.72
							c-15.8-0.35-33.18,1.07-36.32,1.34c-3.1-0.03-8.58,1.31-10.66,5.92c0.77,0.25,1.53,0.53,2.29,0.83
							c-0.46,1.32-0.93,2.68-1.36,4.04c-0.58-0.23-1.16-0.45-1.75-0.64l0,0c0.45,3.34,4.33,31.99,13.57,35.06
							c4.03,1.37,13.96,2.97,24.93,3.21c1.86,0.04,3.76,0.04,5.66,0c9.3-0.19,18.72-1.53,25.41-4.85c3.79-1.92,6.46-5.7,7.07-10.15
							c0.39-2.49,3.38-24.88-3.14-30.23C304.97,243.13,294.45,241.97,283.11,241.72z"/>
						<path opacity="0.251" fill="#75CBCC" d="M252.88,246.2c-2.22,0.15-4.18,0.31-5.83,0.44c-0.29-0.01-8.13,0.09-8.32,6.36
							c0.3,2.37,0.72,5.05,1.25,7.83L252.88,246.2z"/>
						<path fill="#445143" d="M238.73,253c0.27,2.38,0.71,5.05,1.25,7.83l0,0C239.45,258.05,239.03,255.37,238.73,253z
							 M247.05,246.64c-0.29-0.01-8.13,0.09-8.32,6.36C238.91,246.73,246.76,246.63,247.05,246.64z"/>
						<path opacity="0.251" fill="#75CBCC" d="M283.98,245.33c-0.94-0.02-1.88-0.03-2.82-0.05c-1.1,0-2.2-0.01-3.31,0l-31.59,35.86
							c0.27,0.48,0.55,0.92,0.82,1.32l0.03,0.04c0.04,0.06,0.08,0.11,0.12,0.16c0.05,0.07,0.1,0.14,0.16,0.21l0.02,0.03
							c0.77,1,1.59,1.7,2.42,1.97l0.51,0.15l34.97-39.67C284.86,245.36,284.42,245.34,283.98,245.33z"/>
						<path fill="#445143" d="M247.4,282.92c0.77,1,1.57,1.7,2.42,1.97C248.99,284.61,248.18,283.92,247.4,282.92z M247.23,282.68
							c0.05,0.07,0.1,0.14,0.16,0.21C247.33,282.82,247.28,282.75,247.23,282.68z M247.09,282.48l0.03,0.04L247.09,282.48z
							 M285.31,245.35c-1.36-0.03-2.75-0.05-4.15-0.06c0.94,0.01,1.88,0.03,2.82,0.05c0.44,0.01,0.88,0.03,1.31,0.04L285.31,245.35z
							"/>
						<path opacity="0.251" fill="#75CBCC" d="M309.44,258.96l-25.27,28.72c7.19-0.49,14.09-1.77,19.19-4.31
							c2.81-1.4,4.79-4.2,5.23-7.52c0.03-0.19,0.05-0.37,0.08-0.57c0.45-3.23,0.73-6.61,0.84-9.83c0-0.09,0.01-0.18,0.01-0.26
							c0.01-0.1,0.01-0.19,0.01-0.28C309.57,262.83,309.55,260.82,309.44,258.96z"/>
						<path fill="#445143" d="M303.35,283.37c-5.1,2.53-12,3.81-19.19,4.31l-0.01,0.01C291.33,287.18,298.23,285.93,303.35,283.37z
							 M309.51,265.45c-0.11,3.23-0.4,6.61-0.84,9.83C309.12,272.06,309.4,268.69,309.51,265.45z M309.52,264.91
							c0,0.09,0,0.18-0.01,0.28C309.52,265.1,309.52,265,309.52,264.91z"/>
						<path fill="#362415" d="M227.05,247.45c-3.81-0.08-7.61,0.53-11.22,1.83c-0.91,0.32-1.81,0.69-2.68,1.11
							c0.58,1.32,1.17,2.63,1.75,3.94c0.75-0.35,1.51-0.66,2.27-0.94c3.18-1.15,6.52-1.69,9.88-1.62c2.77,0.06,5.55,0.54,8.25,1.44
							c0.59,0.19,1.18,0.41,1.75,0.64c0.43-1.36,0.9-2.71,1.36-4.04c-0.75-0.31-1.52-0.58-2.29-0.83
							C233.15,248.03,230.09,247.52,227.05,247.45z"/>
						<path opacity="0.251" fill="#FFFFFF" d="M182.55,247.38c-0.29-0.01-0.58-0.01-0.86,0c-0.38,0.01-0.75,0.01-1.14,0.02
							c-0.49,0.01-0.99,0.03-1.49,0.04c-0.1,0-0.2,0.01-0.3,0.01c-0.14,0.01-0.29,0.01-0.43,0.01c-0.2,0.01-0.4,0.01-0.6,0.01
							l-0.05,0.01c-0.19,0.01-0.38,0.01-0.57,0.01c-0.06,0.01-0.13,0.01-0.19,0.01c-3.07,0.1-6.13,0.24-9.08,0.44h-0.03
							c-0.22,0.02-0.43,0.03-0.63,0.05c-0.06,0-0.11,0.01-0.17,0.01c-0.4,0.03-0.8,0.06-1.2,0.08c-3.2,0.25-6.25,0.58-8.97,0.99
							l-13,14.76c0.06,1.17,0.17,2.38,0.31,3.62c0.42,3.69,1.11,7.65,2.01,11.4c0.05,0.21,0.1,0.44,0.16,0.65
							c0.51,2.12,1.62,3.99,3.14,5.4L182.55,247.38z"/>
						<path fill="#695B4E" d="M146.32,279.51c0.49,2.11,1.62,4.01,3.13,5.4h0.01C147.95,283.5,146.84,281.63,146.32,279.51z
							 M144.16,267.46c0.4,3.7,1.1,7.64,2.01,11.4C145.27,275.11,144.58,271.15,144.16,267.46z M167.02,248.01
							c-0.4,0.03-0.8,0.06-1.2,0.08C166.22,248.07,166.63,248.03,167.02,248.01z M167.81,247.95c-0.21,0.02-0.42,0.03-0.62,0.05
							C167.39,247.98,167.6,247.97,167.81,247.95z M176.93,247.51c-3.07,0.1-6.13,0.24-9.08,0.44
							C170.8,247.75,173.86,247.6,176.93,247.51z M177.69,247.48c-0.19,0.01-0.38,0.01-0.57,0.01
							C177.3,247.49,177.49,247.49,177.69,247.48z M178.33,247.46c-0.2,0.01-0.4,0.01-0.6,0.01
							C177.93,247.48,178.13,247.47,178.33,247.46z M179.06,247.44c-0.1,0-0.2,0.01-0.3,0.01
							C178.86,247.45,178.95,247.44,179.06,247.44z M181.69,247.38c-0.38,0-0.75,0.01-1.14,0.02
							C180.93,247.4,181.31,247.39,181.69,247.38z"/>
						<path opacity="0.251" fill="#FFFFFF" d="M198.33,247.4c-2.51-0.06-5.29-0.09-8.24-0.09l-35.55,40.33
							c3.57,1.2,7.7,1.93,12.04,2.3h0.03c0.34,0.03,0.68,0.05,1.01,0.08c0.19,0.01,0.38,0.03,0.57,0.04
							c0.1,0.01,0.19,0.01,0.29,0.02c1.13,0.07,2.26,0.12,3.41,0.14c5.91,0.13,11.97-0.28,17.37-0.95l23.95-27.15
							c0.2-2.16,0.35-4.29,0.44-6.25c0.01-0.06,0.01-0.13,0.01-0.2c0.01-0.08,0.01-0.17,0.01-0.26c0.03-0.63,0.05-1.25,0.06-1.86
							c-0.69-5.31-6.49-5.9-8.37-5.94c-0.32,0-0.53,0.01-0.53,0.01C203,247.53,200.8,247.45,198.33,247.4z"/>
						<path fill="#695B4E" d="M168.19,290.06c0.1,0.01,0.19,0.01,0.29,0.02C168.39,290.07,168.29,290.06,168.19,290.06z
							 M166.61,289.94c0.34,0.03,0.68,0.05,1.01,0.08C167.28,289.99,166.94,289.97,166.61,289.94z M154.55,287.64l-0.02,0.03
							c3.57,1.19,7.7,1.91,12.05,2.27C162.24,289.57,158.11,288.84,154.55,287.64z M213.66,255.86c-0.09,1.97-0.24,4.09-0.44,6.25
							l0.01-0.01C213.44,259.93,213.57,257.82,213.66,255.86z M213.68,255.4c0,0.09-0.01,0.18-0.01,0.26
							C213.68,255.57,213.68,255.49,213.68,255.4z M198.29,247.39c-2.49-0.06-5.25-0.09-8.18-0.11l-0.01,0.03
							c2.95,0,5.73,0.03,8.24,0.09c2.47,0.05,4.66,0.13,6.47,0.21c0,0,0.25-0.01,0.58-0.01c1.87,0.05,7.67,0.63,8.37,5.94
							c-0.69-5.31-6.49-5.9-8.37-5.94c-0.32,0-0.53,0.01-0.53,0.01C202.98,247.52,200.77,247.44,198.29,247.39z"/>
						<path opacity="0.251" fill="#FFFFFF" d="M277.85,245.29c-0.33,0-0.66,0-0.99,0c-1.88,0.01-3.77,0.04-5.64,0.08
							c-6.66,0.16-13.14,0.48-18.34,0.83l-12.91,14.63c0.07,0.36,0.14,0.72,0.21,1.08v0.01c0.04,0.19,0.08,0.38,0.12,0.57
							c0.01,0.06,0.03,0.13,0.04,0.19c0.02,0.12,0.05,0.25,0.07,0.36c0.05,0.2,0.08,0.4,0.13,0.6l0.01,0.03
							c0.14,0.71,0.31,1.42,0.47,2.12c0,0,0.01,0.03,0.01,0.05c0.05,0.21,0.1,0.41,0.15,0.62c0.02,0.07,0.03,0.14,0.05,0.21
							c0.04,0.14,0.07,0.28,0.1,0.42c0.04,0.16,0.08,0.31,0.11,0.47c0.01,0.04,0.02,0.08,0.03,0.12c0.05,0.18,0.09,0.36,0.14,0.55
							c0.01,0.03,0.01,0.06,0.03,0.09c0.63,2.49,1.34,4.9,2.1,7.09c0,0,0.03,0.07,0.05,0.11c0.05,0.14,0.1,0.29,0.15,0.42
							c0.06,0.18,0.13,0.36,0.19,0.53l0,0c0.67,1.77,1.38,3.36,2.14,4.69L277.85,245.29z"/>
						<path fill="#695B4E" d="M244.12,276.46L244.12,276.46L244.12,276.46z M243.78,275.51c0.05,0.14,0.1,0.29,0.15,0.42
							C243.88,275.79,243.82,275.65,243.78,275.51z M241.63,268.31c0.63,2.49,1.34,4.9,2.1,7.09
							C242.97,273.21,242.26,270.8,241.63,268.31z M241.47,267.67c0.05,0.18,0.09,0.36,0.14,0.55
							C241.56,268.04,241.51,267.86,241.47,267.67z M241.32,267.09c0.04,0.16,0.08,0.31,0.11,0.47
							C241.4,267.4,241.36,267.25,241.32,267.09z M241.18,266.47c0.02,0.07,0.03,0.14,0.05,0.21
							C241.21,266.6,241.19,266.54,241.18,266.47z M241.02,265.79c0,0,0.01,0.03,0.01,0.05
							C241.03,265.82,241.02,265.81,241.02,265.79z M240.55,263.64l0.01,0.03L240.55,263.64z M240.34,262.68
							c0.02,0.12,0.05,0.25,0.07,0.36C240.39,262.93,240.36,262.8,240.34,262.68z M240.19,261.92c0.04,0.19,0.08,0.38,0.12,0.57
							C240.27,262.3,240.23,262.11,240.19,261.92z M239.97,260.83L239.97,260.83c0.06,0.36,0.14,0.72,0.21,1.08
							C240.11,261.55,240.04,261.19,239.97,260.83z M276.86,245.29c-1.88,0-3.75,0.04-5.64,0.08
							C273.09,245.33,274.98,245.3,276.86,245.29z"/>
						<path opacity="0.251" fill="#FFFFFF" d="M285.3,245.37l-34.97,39.67c1.62,0.49,4.08,1.01,7.08,1.47
							c4.55,0.69,10.35,1.25,16.46,1.38c3.39,0.07,6.88,0.02,10.29-0.21l25.27-28.72c-0.27-4.81-1.13-8.63-2.66-9.9
							c-2.27-1.84-7.96-2.87-15.09-3.39C289.65,245.53,287.51,245.43,285.3,245.37z"/>
						<path fill="#695B4E" d="M257.41,286.51c4.55,0.69,10.36,1.26,16.48,1.39c3.38,0.08,6.86,0.02,10.27-0.21l0.01-0.01
							c-3.42,0.23-6.9,0.29-10.29,0.21C267.75,287.76,261.95,287.2,257.41,286.51z M285.31,245.35l-0.02,0.02
							c2.21,0.06,4.36,0.16,6.39,0.3C289.66,245.53,287.52,245.42,285.31,245.35z"/>
					</g>
				</g>
			</g>
			<polygon fill="#362415" points="312.07,252.76 371.42,240.97 367.16,236 308.81,246.27 			"/>
			<g>
				<path fill="#F57F42" d="M356.88,274.51c-6.55-16.05-4.06-34.48,7.07-49.65c7.47-9.2,17.97-16.18,28.81-9.69
					c17.45,10.93,17.59,53.6-3.1,73.88c-7.36,7.95-18.45,7.53-24.71-0.57C362.16,284.98,359.25,280.38,356.88,274.51z"/>
				<path fill="#E96B42" d="M394.01,237.01c0,0,2.8,8.08-1.66,5.85c-4.46-2.23-18.17-8.33-15.1,1.27c3.08,9.6,14.05,14.8,7.85,22.89
					c-6.21,8.1-6.94,6.88-9.61,4.55c0,0,7.47-4.29,6.07-8.99c-1.41-4.7-0.05-8.74-0.49-8.65c-0.43,0.09-7.25-3.2-7.25-3.2
					l-3.77-8.93l1.99-6.9l13.13-5.66C385.17,229.24,392.25,231.6,394.01,237.01z"/>
				<path fill="#C84830" d="M378.72,229.5c0,0,14.74-1.99,13.25,8.55c-1.49,10.54,1.9-7.61-9.37-4.49
					c-11.28,3.1-10.89,1.45-11.18,7.42c-0.28,5.96,2.86,8.17,10.2,11.39c7.34,3.21-3.36,22.71-6.61,19.74
					c-3.52-3.21,10.44-13.44,4.81-16.61c-5.64-3.16-13.83-9.06-12.5-14.84C368.63,234.85,375.65,230,378.72,229.5z"/>
			</g>
			<g>
				<path fill="#F89B60" d="M448.11,746.32h12.13c5.37-74.42,9.61-171.45,4.39-224.62c-1.27-12.92-10.79-26.43-22.52-34.33
					c0,0-0.67-0.08-1.86,0c7,7.48,11.95,16.87,12.85,25.95C458.51,568.49,453.75,670.97,448.11,746.32z"/>
				<path fill="#F9AB79" d="M448.11,746.32c5.64-75.35,10.4-177.83,4.98-232.99c-0.9-9.09-5.85-18.47-12.85-25.95
					c-8.27,0.33-41.48,5.77-52.65,70.3c-8.01,46.26-0.78,131.37,5.75,188.64H448.11z"/>
			</g>
			<g>
				<path fill="#E72E25" d="M463.08,507.97c15.87,103.92,8.24,192.74,8.24,192.74c-9.03,3.81-30.03,5.49-39.12,6.94
					c0.71-0.24,1.43-0.6,2.12-0.88c0,0,11.21-100.47-2.48-191.82c-2.38-15.96-23.06-27.87-43.05-29.81
					c1.19-1.04,2.75-1.69,4.05-2.99C413.95,460.99,459.37,483.73,463.08,507.97z"/>
				<path fill="#EF4727" d="M431.83,514.95c13.69,91.35,2.48,191.82,2.48,191.82c-0.69,0.29-1.41,0.64-2.12,0.88
					c-25.77,4.14-48.24,0.61-48.24,0.61s-18.41-111.41-9.27-183.47c3.06-24.03,4.39-31.92,14.04-39.64c0,0,0,0,0.05-0.01
					C408.78,487.08,429.45,498.99,431.83,514.95z"/>
			</g>
			<path fill="#9D4645" d="M222.01,329.99l1.87,6.44c0,0,13.99,15.77,14.76,15.77c0.77,0,32.89-16.13,32.89-16.13l13.01-13.38
				l-2.79,0.53l-30.08,2.92L222.01,329.99z"/>
			<path fill="#EF435C" d="M284.54,322.69c-0.6,0.18-3.78,0.66-4.57,0.88c-10.72,3.61-38.16,11.5-57.97,6.44
				c0,0-1.79-18.76,6.07-12.43c7.86,6.33,9.84-1.61,18.66,0.26C270.95,322.97,276.61,324.32,284.54,322.69z"/>
			<path fill="#EF435C" d="M238,343.72c-1.57,0.01-12.34-2.08-15.99-13.73c0,0,3.11,15.77,7.46,19.73c0.02,0.02-0.18-0.16,0,0
				c4.35,5.72,12.11,5.41,12.11,5.41c25.15,0.64,40.14-28.9,42.97-32.44C260.5,339.33,247.62,344.11,238,343.72z"/>
			<path fill="#FFFFFF" d="M280.13,323.52c-8.31,6.85-37.16,12.29-47.07,11.48c-9.87-0.82-11.06-4.99-11.06-4.99
				c19.81,5.07,47.26-2.83,57.97-6.44L280.13,323.52z"/>
		</g>
	</g>
</g>
</svg>
