<?xml version="1.0" encoding="utf-8"?>
<!-- Generator: Adobe Illustrator 25.2.3, SVG Export Plug-In . SVG Version: 6.00 Build 0)  -->
<svg version="1.1" id="Layer_1" xmlns="http://www.w3.org/2000/svg" xmlns:xlink="http://www.w3.org/1999/xlink" x="0px" y="0px"
	 viewBox="0 0 576 576" enable-background="new 0 0 576 576" xml:space="preserve">
<g>
	<g>
		<defs>
			<path id="SVGID_1_" d="M576,287.75c0,159.06-128.94,288-288,288S0,446.81,0,287.75s128.94-288,288-288S576,128.69,576,287.75z"/>
		</defs>
		<use xlink:href="#SVGID_1_"  overflow="visible" fill="#F9E3D9"/>
		<clipPath id="SVGID_2_">
			<use xlink:href="#SVGID_1_"  overflow="visible"/>
		</clipPath>
		<g clip-path="url(#SVGID_2_)">
			
				<rect x="244.73" y="412.09" transform="matrix(-1 -1.224647e-16 1.224647e-16 -1 575.3632 942.8044)" fill="#333333" width="85.9" height="118.62"/>
			<path d="M244.73,530.71c14-57.01,85.04-77.63,85.04-77.63l-85.04-40.98C244.73,412.09,244.73,486.88,244.73,530.71z"/>
			<path fill="#333333" d="M140.98,903.52h291.35c2.27-61.63,9.29-122.1,26.53-151.27c42.54-71.99,14.48-214.88,14.48-214.88
				c-61.35-39.26-186.47-41.16-186.47-41.16s-128.44-0.06-189.79,39.2c0,0-24.74,144.85,17.8,216.84
				C132.16,781.49,138.97,841.98,140.98,903.52z"/>
			<path fill="#F8A184" d="M451.49,616.43c-1.14,140.19,77.85,236.58,77.85,236.58l54.38-2.99
				C570.95,647.24,479.4,544.24,473.34,537.37c-0.25-0.22,0,0,0,0l0,0c-6.75,17.33-21.64,59.95-21.84,78.55
				C451.49,616.09,451.49,616.26,451.49,616.43z"/>
			<path fill="#F8A184" d="M-71.41,903.52c0.06-14.8,0.66-27.45,2.51-33.8c17.28-59.03,17.67-110.19,17.67-110.19l-57.25-21.06
				c-18.64,70.92-25.68,125.07-27.28,165.04H-71.41z"/>
			<g>
				<g>
					<path fill="#333333" d="M152.75,269.57c-1.73-0.43-20.34-17.3-36.79,2.6c-16.45,19.9,1.3,70.1,14.28,75.3
						c12.99,5.2,23.8,1.3,25.1-2.17C156.64,341.85,152.75,269.57,152.75,269.57z"/>
					<path d="M423.77,269.57c1.73-0.43,20.34-17.3,36.78,2.6c16.45,19.9-1.29,70.1-14.28,75.3s-23.8,1.3-25.1-2.17
						C419.88,341.85,423.77,269.57,423.77,269.57z"/>
					<path fill="#333333" d="M204.95,123.88c47.76-43.83,118.86-43.83,166.61,0c45.95,42.18,55.2,107.58,53.73,159.87
						c1.47,47.84-7.77,107.68-53.73,146.28c-47.76,40.11-118.86,40.11-166.61,0c-45.94-38.6-55.2-98.44-53.72-146.28
						C149.75,231.46,159.01,166.06,204.95,123.88z"/>
				</g>
			</g>
			<g>
				<path d="M385.08,154.29c3.59,0.82,36.14,59.56,39.14,94.09c2.95,33.93,0,58.04,0,58.04h9.92
					c-0.91,12.43,15.78-135.63-27.29-173.63L385.08,154.29z"/>
				<path d="M202.02,154.29c-3.59,0.82-36.14,59.56-39.14,94.09c-2.94,33.93,0,58.04,0,58.04h-9.92c0,0-24.76-141.38,13.27-183.52
					L202.02,154.29z"/>
				<path fill="#333333" d="M355.15,128.62c-34.34,18.69-95.09,6.61-95.09,6.61s62.76,28.79,16.22,53.29
					c-57.1-4.96-112.99-27.54-115.68-90.73c0,0,30.69,12.15,89.8-28c20.86-14.14,45.59-16.58,67.72-5.88l29.79,14.86
					C362.28,95.8,374.74,117.93,355.15,128.62z"/>
				<path d="M429.72,133.39c-1.96-9.65-6.62-13.37-12.14-13.68c-0.85-17.1,8.5-35.53,8.5-35.53c-7.77,6.01-12.2,13.93-14.74,21
					c-3.8-16.97-0.95-36.05-0.95-36.05c-7.77,13.2-9.14,26.67-8.77,36.45l-53.73-26.81c14.37,17.04,26.84,39.16,7.24,49.86
					c-34.34,18.69-95.09,6.61-95.09,6.61s62.76,28.79,16.22,53.29c29.58,2.57,59.53,0.4,82.62-3.36
					C391.8,175.67,415.49,151.54,429.72,133.39z"/>
			</g>
		</g>
	</g>
</g>
</svg>
