<?xml version="1.0" encoding="utf-8"?>
<!-- Generator: Adobe Illustrator 25.2.3, SVG Export Plug-In . SVG Version: 6.00 Build 0)  -->
<svg version="1.1" id="Layer_1" xmlns="http://www.w3.org/2000/svg" xmlns:xlink="http://www.w3.org/1999/xlink" x="0px" y="0px"
	 viewBox="0 0 576 576" enable-background="new 0 0 576 576" xml:space="preserve">
<g>
	<g>
		<defs>
			<path id="SVGID_1_" d="M575.38,287.79c0,158.94-128.85,287.79-287.78,287.79c-158.94,0-287.79-128.85-287.79-287.79
				C-0.19,128.85,128.66,0,287.6,0C446.54,0,575.38,128.85,575.38,287.79z"/>
		</defs>
		<use xlink:href="#SVGID_1_"  overflow="visible" fill="#F9E3D9"/>
		<clipPath id="SVGID_2_">
			<use xlink:href="#SVGID_1_"  overflow="visible"/>
		</clipPath>
		<g clip-path="url(#SVGID_2_)">
			<path fill="#612E1B" d="M204.21,154.34c0,0-69.07-35.39-54.2,18.1c14.86,53.49,85.7,48.78,85.7,48.78L204.21,154.34z"/>
			<path fill="#CD7355" d="M341.21,456.81c-3.52,3.43-6.61,8.59-11.78,14.79c-0.78-0.29-1.4-0.62-1.9-0.74
				c-11.81-4.75-7.1-71.1-7.1-71.1l-54.66,1.03c0.62-9.33,0.83-14.74,0.83-14.74l65.19-1.24c0,0-4.71,66.34,7.11,71.05
				C339.47,456.07,340.26,456.44,341.21,456.81z"/>
			<path fill="#E57E5F" d="M329.43,471.6c-4.63,5.62-10.94,12.02-20.78,18.71c-4.54,3.02-16.07,2.89-21.4,6.32
				c-0.16,0.09-0.25,0.09-0.37,0.16c-0.08,0-0.08,0-0.08,0s-4.55,2.64-7.98,13.43c-0.83,2.6-1.57,5.7-2.18,9.34
				c-0.16-0.21-0.37-0.41-0.37-0.58c-0.66-1.07-1.78-2.89-3.14-5.04c-5.09-8.21-13.63-21.97-15.41-24.91
				c-1.73-2.73-4.17-10.91-6.15-17.64c5.29-5.28,8.6-10.49,9.17-15.53c2.72-23.05,4.25-42.55,5.04-55.07l54.66-1.03
				c0,0-4.71,66.35,7.1,71.1C328.03,470.98,328.65,471.31,329.43,471.6z"/>
			<path fill="#E64A43" d="M517.49,647.26c3.48-9.76,6.03-19.36,6.63-28.93c-6.82-14.41-12.6-26.24-16.86-34.31
				c-0.36-0.7,0.37-1.4,1.88-2.11c8.12-3.74,38.34-7.34,35.56-11.17c-4.8-6.46-5.6-20.35-13.6-27.2
				c-92.12-32.52-189.91-86.73-189.91-86.73c-6.73,6.53-17.13,18.7-39.34,30.12c-34.38,17.7-41.88,5.78-44.15,2.09
				c-1.72-2.74-4.17-10.88-6.16-17.61c-3.69,3.79-8.34,7.57-13.84,11.36c-11.95,8.41-127.89,37.84-125.65,46.8
				c2.97,11.87,7.58,60.14,11.94,117.69H517.49z"/>
			<path fill="#E68C63" d="M364.96,369.81c-17.35,18.96-69.49,75.8-96.34,75.8c-14,0-28,1.28-38.87,0.49
				c6.19-0.2,12.72-0.49,19.25-0.49c26.85,0,78.99-56.85,96.33-75.8c17.39-18.97,0-222.71,0-222.71
				c-25.24-13.35-49.28-19.21-71.09-20.53c26.65-1.61,57.67,3.05,90.72,20.53C364.96,147.11,382.35,350.84,364.96,369.81z"/>
			<path fill="#F0A67E" d="M345.33,369.81c-17.35,18.96-69.49,75.8-96.33,75.8c-6.53,0-13.06,0.29-19.25,0.49
				c-9.96-0.74-17.27-3.18-19.54-9.99c-4.75-14.21-14.75-54.08-18.63-76.34c-3.14-17.77-13.63-50.73-9.09-73.17
				c3.47-17.14,3.39-125.91,3.96-128.31c0.37-1.57,35.65-28.59,87.79-31.72c21.81,1.32,45.85,7.18,71.09,20.53
				C345.33,147.11,362.73,350.84,345.33,369.81z"/>
			<path fill="#EDEEEE" d="M274.89,247.09l54.89-0.94c0,0,3.68,30.15-26.51,31.77C273.08,279.54,274.89,247.09,274.89,247.09z"/>
			<path fill="#EDEEEE" d="M188.22,247.27h43.24c0,0,2.92,24.99-21.99,26.32C184.55,274.93,188.22,247.27,188.22,247.27z"/>
			<g>
				<path fill="#2A9695" d="M229.13,258.16c0,7.85-6.37,14.23-14.23,14.23c-7.86,0-14.23-6.37-14.23-14.23
					c0-7.86,6.37-14.23,14.23-14.23C222.76,243.93,229.13,250.3,229.13,258.16z"/>
				<path fill="#19281F" d="M220.28,259.35c0,3.3-2.68,5.98-5.98,5.98c-3.3,0-5.98-2.68-5.98-5.98s2.68-5.98,5.98-5.98
					C217.6,253.37,220.28,256.05,220.28,259.35z"/>
			</g>
			<g>
				<path fill="#2A9695" d="M319.46,258.91c0,7.86-6.36,14.23-14.23,14.23c-7.86,0-14.23-6.37-14.23-14.23
					c0-7.85,6.37-14.23,14.23-14.23C313.1,244.67,319.46,251.05,319.46,258.91z"/>
				<path fill="#19281F" d="M310.61,260.11c0,3.3-2.68,5.98-5.98,5.98s-5.98-2.68-5.98-5.98c0-3.31,2.68-5.98,5.98-5.98
					S310.61,256.8,310.61,260.11z"/>
			</g>
			<path opacity="0.7" fill="#EDEEEE" d="M231.33,262.82c0,2.74-2.22,4.95-4.95,4.95s-4.95-2.21-4.95-4.95
				c0-2.74,2.22-4.95,4.95-4.95S231.33,260.09,231.33,262.82z"/>
			<path opacity="0.7" fill="#EDEEEE" d="M321.93,262.82c0,2.74-2.22,4.95-4.95,4.95c-2.74,0-4.95-2.21-4.95-4.95
				c0-2.74,2.22-4.95,4.95-4.95C319.71,257.87,321.93,260.09,321.93,262.82z"/>
			<path fill="#E88B6A" d="M188.22,247.27h43.24c0,0-2.64-17.49-20.96-17.76C191.32,229.23,188.22,247.27,188.22,247.27z"/>
			<path fill="#E88B6A" d="M330.15,247.27h-55.37c0,0,3.33-19.75,26.79-20.02C326.13,226.97,330.15,247.27,330.15,247.27z"/>
			<g>
				<path fill="#813823" d="M290.38,354.61c1.33,9.36-12.8,36.77-43.94,32.85c-30.91-4.08-33.12-34.04-33.12-34.04h4.63l68.23,1.19
					H290.38z"/>
				<path fill="#FFFFFF" d="M286.18,354.61c0,4.94-1.77,9.53-5.96,11.58c-11.04,5.1-51.44,1.53-57.18-1.54
					c-3.53-1.87-4.63-7.32-5.08-11.23L286.18,354.61z"/>
			</g>
			<path fill="#E64A43" d="M206.73,647.26c-5.99-49.22-19.72-90.66-41.47-107.18c-65.07-49.41-82.48,32.72-82.48,32.72
				s-10.53,31.76-21.8,74.46H206.73z"/>
			<path fill="#DF1E2E" d="M399.33,508.7c22.97,11.36,47.47,22.68,71.68,32.43c0.04,0.04,0.08,0.04,0.16,0.09
				c40.84,16.45,105.02,61.51,161.81,106.05h46.14c-48.45-43.72-105.07-88.58-147.89-103.66c0,0-0.08-0.04-0.12-0.04
				c-92.13-32.51-189.91-86.75-189.91-86.75C343.06,465.45,365.49,484.41,399.33,508.7z"/>
			<path fill="#E64A43" d="M404.04,515.88c-11.12,28.12-48.53,83.57-13.12,131.38h242.06c-56.8-44.54-120.97-89.6-161.81-106.05
				c-0.09-0.05-0.12-0.05-0.16-0.09c-24.21-9.75-48.71-21.07-71.68-32.43c3.14,2.23,6.36,4.5,9.71,6.86
				C406.27,515.1,404.49,515.14,404.04,515.88z"/>
			<path fill="#5E2F12" d="M185.89,229.33c0,0-4.28-9.97,0.72-12.96c5-2.99,23.48-19.28,41.74-10.64l-0.96,14.85
				C227.39,220.58,213.73,216.7,185.89,229.33z"/>
			<path fill="#5E2F12" d="M275.43,205.25c-0.96,0.41,2.13,15.62,2.13,15.62s49.92,1.99,58.06,9.31l7.08-13.29
				C342.7,216.88,294.9,196.94,275.43,205.25z"/>
			<path fill="#E68C63" d="M237.05,249.76c0,0,1.33,38.7-11.61,45.65c-12.03,6.47-15.1,9.56-15.78,17.18
				c-0.69,7.62,6.19,23.09,21.59,16.39c15.39-6.71,16.42,7.31,25.31-3.05c8.9-10.35,7.19-16.15-3.08-19.5
				C243.23,303.08,248.33,275.05,237.05,249.76z"/>
			<path fill="#863E24" d="M135.38,107.83c5.31,66.32,76.26,49.83,76.26,49.83c17.7-7.06,82.46-8.46,117.38-2.1
				c9.13,1.65,16.17,3.85,19.89,6.61c17.89,13.33-1.46,102.39-1.46,102.39l9.25-12.13l8.94,4.38c0,0,50.68-94.06,28.16-97.08
				c0,0,13.88-82.42-13.39-57.7c-3.88,3.52-6.75,6.64-8.77,9.32c-0.9-2.74-1.87-5.73-2.95-8.81
				c-12.78-36.53-36.95-91.08-52.66-36.08c-0.16,0.51-0.28,1.06-0.44,1.56c-24.55-32.93-59.31-68.7-59.86-8.21
				c-0.02,0.87-0.01,1.75-0.03,2.58c-27.71-21.01-66.11-41.98-67.3,1.97c-0.24,9.27,0.49,16.93,1.99,23.25
				C162.11,76.33,132.57,72.54,135.38,107.83z"/>
			<g>
				<path fill="#F0A67E" d="M349.83,284.71c-0.91-18.92,7.17-37.27,21.23-49.96c8.68-7.83,19.24-12.47,27.84-1.48
					c15.05,19.24,9.76,69.8-18.52,81.62c-10.87,4.54-23.26-1.48-27.16-12.59C351.54,297.52,350.16,291.63,349.83,284.71z"/>
				<path fill="#CD7355" d="M385.08,248.6c-15-0.26-16.5,34.76-16.5,34.76c1.38-8.43,3.25-14.6,5.16-19.13
					c0.06,7.51,1.48,23.82,12.44,27.3c0,0-10.45-6.11-9.06-31.67c0.09-1.59,0.68-3.16,1.69-4.38c0.12-0.15,0.25-0.3,0.37-0.44
					c1.53-1.74,3.78-2.73,6.08-2.55c11.76,0.93,10.49,14.02,10.49,14.02S400.33,248.87,385.08,248.6z"/>
			</g>
		</g>
	</g>
</g>
</svg>
