<?xml version="1.0" encoding="utf-8"?>
<!-- Generator: Adobe Illustrator 25.2.3, SVG Export Plug-In . SVG Version: 6.00 Build 0)  -->
<svg version="1.1" id="Layer_1" xmlns="http://www.w3.org/2000/svg" xmlns:xlink="http://www.w3.org/1999/xlink" x="0px" y="0px"
	 viewBox="0 0 576 576" enable-background="new 0 0 576 576" xml:space="preserve">
<g>
	<g>
		<defs>
			<path id="SVGID_1_" d="M576,287.31c0,159-128.9,287.91-287.91,287.91S0.17,446.31,0.17,287.31C0.17,128.3,129.07-0.6,288.09-0.6
				S576,128.3,576,287.31z"/>
		</defs>
		<use xlink:href="#SVGID_1_"  overflow="visible" fill="#F9E3D9"/>
		<clipPath id="SVGID_2_">
			<use xlink:href="#SVGID_1_"  overflow="visible"/>
		</clipPath>
		<g clip-path="url(#SVGID_2_)">
			<path fill="#7D1E18" d="M276.76,445.88c-1.89,0.95-57.59-1.99-66.77,14.6c-9.18,16.6,12.88,31.72,12.88,31.72L276.76,445.88z"/>
			<path fill="#7D1E18" d="M328.77,423.35c1.66-0.34,39.8-6.85,66.8,5.9l-3.93,46.57L328.77,423.35z"/>
			<path fill="#F4A976" d="M214.72,526.43c3.55,6.69,8.96,13.6,17.05,20.34c4.75,3.88,10.45,7.77,17.22,11.47
				c0.21,0.1,0.41,0.24,0.62,0.33c0.5,0.29,0.95,0.53,1.45,0.71c0.49,0.23,0.99,0.42,1.44,0.62c0.87,0.38,1.78,0.62,2.64,0.85
				c0.87,0.23,1.73,0.38,2.56,0.47c0.17,0.1,0.38,0.1,0.54,0.1c9.95,1.04,19.28-5.07,32-10.19c1.57-0.62,3.22-1.18,4.92-1.71
				c0.04,0,0.08,0,0.12-0.05c11.93-3.69,26.88-5.69,37.49-13.84c0.7-2.56,1.28-5.07,1.65-7.58c0.33-1.71,0.58-3.42,0.75-5.07
				c2.56-23.98-6.44-43.94-12.22-53.89c-0.38-0.62-0.71-1.14-1.03-1.66c-2.07-3.41-3.51-5.26-3.51-5.26l0.16-6.02l1.66-65.55
				l-56.32,10.99l-1.36,0.29l-39.35,7.68c0,0,17.34,27.34,0.21,63.51c-0.66,1.38-1.32,2.7-2.1,4.08c-3.06,5.73-7.02,11.7-12.1,17.77
				C208.03,502.69,208.24,514.15,214.72,526.43z"/>
			<path fill="#ED7E67" d="M322.33,506.24c23.74-15.82,45.1-36.24,56.73-48.2c-5.27-22.32-5.27-78.28-5.27-78.28l-62.97,10.73
				l-1.64,57.12C309.18,447.61,332.63,473.71,322.33,506.24z"/>
			<path fill="#F4A976" d="M212.57,446.79c7.43,13.95-2.84,5.02,13.57,11.22c2.94,0.19,6.56,0.64,10.86,1.39
				c65.42,11.3,103.95-19.04,124.94-58.62c21-39.57-21.8-62.99-3.23-94.5c18.58-31.5,0.81-129.22,0.81-129.22s14.08-0.71,31.91-1.03
				c-5.17-29.72-21.54-56.73-46.52-74.01c-83.26-57.57-169.8,33.31-169.8,79.64c0,29.24,29.08,115.2,20.45,150.74
				C186.95,367.93,179.17,384.34,212.57,446.79z"/>
			<path fill="#FFFFFF" d="M329.64,250.01c0,0,0,19.39-12.38,23.97c-12.39,4.57-35.81,4.44-40.11-28.67L329.64,250.01z"/>
			<path fill="#FFFFFF" d="M226.86,256.41c-0.95,4.38-5.44,10.36-9.58,12.06c-1.88,0.77-6.95,0.64-8.8-0.36
				c-8.92-4.83-11.3-15.53-13.52-26.44l33.59-4.84C228.55,236.83,229.36,245.07,226.86,256.41z"/>
			<g>
				<g>
					<circle fill="#2A9695" cx="306.84" cy="253.27" r="14.84"/>
					<path fill="#19281F" d="M300.29,253.85c0,3.44,2.79,6.23,6.24,6.23c3.44,0,6.24-2.79,6.24-6.23c0-3.45-2.8-6.24-6.24-6.24
						C303.08,247.61,300.29,250.4,300.29,253.85z"/>
				</g>
				<circle opacity="0.85" fill="#EDEEEE" cx="295.4" cy="251.16" r="5.17"/>
			</g>
			<g>
				<g>
					<circle fill="#2A9695" cx="215.04" cy="250.85" r="10.8"/>
					<path fill="#19281F" d="M210.27,251.26c0,2.51,2.03,4.55,4.54,4.55c2.51,0,4.54-2.03,4.54-4.55c0-2.51-2.03-4.54-4.54-4.54
						C212.31,246.72,210.27,248.75,210.27,251.26z"/>
				</g>
				<path opacity="0.85" fill="#EDEEEE" d="M202.58,248.4c0,2.08,1.68,3.76,3.76,3.76c2.08,0,3.76-1.68,3.76-3.76
					s-1.68-3.77-3.76-3.77C204.26,244.64,202.58,246.33,202.58,248.4z"/>
			</g>
			<path fill="#F49252" d="M329.64,250.01l-52.49-4.71c0,0,2.77-24.23,28.27-24.23C329.24,221.08,329.64,250.01,329.64,250.01z"/>
			<path fill="#F26B6A" d="M249.41,220.16c0,0-15.62,13.73-19.12,39.84c-3.5,26.11-17.23,55.19-9.96,62.19
				c7.27,7,33.65,0.27,36.61-7.27c2.97-7.54,15.89,9.15,18.58-2.16c2.69-11.31-5.65-18.58-10.5-16.69
				C260.18,297.96,249.41,220.16,249.41,220.16z"/>
			<g>
				<path fill="#813823" d="M301.57,336.19c1.63,11.51-15.74,45.18-53.99,40.37c-37.98-5.02-40.7-41.84-40.7-41.84h5.69l83.84,1.47
					H301.57z"/>
				<path fill="#FFFFFF" d="M296.42,336.19c0,6.06-2.18,11.71-7.32,14.23c-13.57,6.27-63.22,1.88-70.28-1.88
					c-4.34-2.3-5.69-9-6.24-13.81L296.42,336.19z"/>
			</g>
			<path fill="#D8745F" d="M245.38,461.53c51.63,0.81,109.1-16.54,131.1-39.77c29.11-30.72,21.77-168.34,16.35-234.96
				c-0.29-3.62-0.75-7.23-1.39-10.79c-1.94,0.03-3.81,0.06-5.62,0.1c0.61,3.52,1.07,7.11,1.36,10.69
				c5.43,66.62,12.76,204.24-16.35,234.96C349.63,444.16,295.48,461.08,245.38,461.53z"/>
			<path fill="#ED7E67" d="M226.13,457.99c0.87,0.32,1.74,0.65,2.65,0.97c14.7,5.14-1.56,2.27,16.27,2.56c0.1,0.03,0.19,0.03,0.32,0
				c50.11-0.45,104.25-17.37,125.44-39.77c29.11-30.72,21.78-168.34,16.35-234.96c-0.29-3.58-0.75-7.17-1.36-10.69
				c-15.09,0.36-26.3,0.93-26.3,0.93s17.76,97.72-0.81,129.22c-18.58,31.5,24.23,54.92,3.23,94.5
				c-17.93,33.8-72.98,56.99-129.38,55.99c-0.19,0.03-0.39,0.03-0.58,0c-9.47-0.19,14.39,4.25,5.02,2.63
				C232.69,458.64,229.07,458.19,226.13,457.99z"/>
			<path fill="#954120" d="M359.78,197.71l8.62,8.69l1.21,87.37l28.41-0.14c0,0,11.83-92.07,5.92-116.3
				c-1.84-7.56-2.32-14.15-2.42-19.71C386.04,162.98,368.95,184.65,359.78,197.71z"/>
			<path fill="#954120" d="M187.49,182.72c0,0,43.62-25.85,61.38-36.09c17.77-10.21,56.54,16.15,65.16,24.23
				c8.37,7.85-0.65-19.55-2.16-22.06l18.02,18.8c34.15-8.1,47.52-29.24,52.63-46.68c-3.23-3.87-6.85-8.23-10.92-12.66
				c0.03,0.1,0.03,0.16,0.03,0.16S308.64,52.68,252.1,96.3c-55.05,42.48-85.09,88.78-86.58,91.17c2.14-1.74,36.15-30.11,46.13-36.44
				C210.43,152.09,190.63,169.66,187.49,182.72z"/>
			<path fill="#723316" d="M329.9,167.59l29.88,30.11c9.17-13.06,26.26-34.73,41.74-40.09c-0.23-12.31,1.39-19.84-5.66-22.81
				c-2.94-1.23-7.43-6.75-13.34-13.89C377.42,138.36,364.05,159.49,329.9,167.59z"/>
			<path fill="#6B3013" d="M165.43,187.56c0,0,0.03-0.03,0.1-0.1c1.49-2.39,31.53-48.68,86.58-91.17
				c56.54-43.61,119.53,12.12,119.53,12.12s0-0.06-0.03-0.16c-14.47-15.83-34.11-32.56-58.12-31.07
				c-43.06,2.71-70.01-9.69-87.77,11.3C207.94,109.48,164.88,166.56,165.43,187.56z"/>
			<path fill="#ED7E67" d="M260.19,400.78c0,0-16.96-32.31-70.27-14.54C189.92,386.24,235.95,385.44,260.19,400.78z"/>
			<path fill="#F49252" d="M229.9,241.27c-1.01-0.4-2.22-23.22-21.61-19.18c-14.67,3.05-13.93,20.39-13.93,20.39L229.9,241.27z"/>
			<path fill="#74A3D6" d="M480.95,525.7c0,0,5.56,2.26,13.64,7.17c-3.53-3.53-7.11-6.66-10.64-9.47c-0.35-0.25-0.71-0.55-1.06-0.84
				C482.18,523.46,481.53,524.53,480.95,525.7z"/>
			<path fill="#F4A976" d="M229.83,515.19l6.88,20.69l0.38,1.14l0.19,0.56c0,0-0.04,0.31-0.04,0.72c0.12-0.15,0.23-0.31,0.31-0.49
				c-0.08-0.04,0-0.04,0-0.04c2.5-5.41,5.26-9.83,8.06-13.42C239.4,521.39,234.18,518.29,229.83,515.19z"/>
			<path fill="#E52225" d="M539.14,608.01c-8.4-19.93-14.43-33.39-15.6-33.86c-4.69-1.88-42.75-65.87-60.97-65.05l0.05-0.12
				l-18.8-8.27l-71.07-34.35c0,0-0.47-0.59-3.21,4.88c-0.08-1.1-0.15-2.01-0.18-2.6c0-0.57,0-0.91,0-0.91
				c-0.75,0.71-1.55,1.47-2.34,2.19c-9.11,8.32-21.06,17.02-34.11,24.96c-2.95,1.82-5.97,3.59-9.04,5.29
				c-11.8,6.69-24.17,12.67-35.85,17.1c0,0-0.08,0.04-0.11,0.04c-0.34,0.15-0.68,0.31-1.02,0.42c-12.49,4.69-22.58,10.17-32.8,9.08
				c-0.15,0-0.34,0-0.49-0.08c-0.79-0.07-1.55-0.18-2.34-0.38c-0.8-0.19-1.63-0.38-2.42-0.68c-0.42-0.15-0.87-0.3-1.32-0.49
				c-0.45-0.15-0.87-0.33-1.32-0.56c-0.19-0.07-0.38-0.19-0.56-0.27c-2.8,3.6-5.56,8.02-8.06,13.43c0,0-0.08,0,0,0.04
				c-0.08,0.19-0.19,0.34-0.31,0.49c0-0.42,0.04-0.72,0.04-0.72l-0.19-0.56l-0.38-1.14l-6.88-20.69
				c-7.41-5.37-12.37-10.9-15.62-16.23c-5.93-9.8-6.13-18.95-5.06-25.22c-2.42,2.61-5.15,5.18-8.17,7.79
				c-32.76,28.24-78.92,42.28-107.05,70.8c-7.9,7.75-21.64,28.82-35.13,55.68H539.14z"/>
			<path fill="#B22024" d="M369.34,468.64c0.04,0.72,0.12,1.81,0.23,3.25c12.63,6.25,24.69,12.22,31.35,15.17
				c1.21,0.53,2.72,1.25,4.54,2.08c0.27-0.12,0.42-0.16,0.42-0.16c9.23,2.19,17.78,4.96,25.61,8.1c0.3,0.15,0.56,0.27,0.87,0.38
				c0.19,0.08,0.34,0.15,0.49,0.23c0.16,0.04,0.27,0.08,0.38,0.12c14.3,5.93,26.33,13.23,36.57,21.44c1.47,1.18,2.88,2.34,4.27,3.56
				c30.29,26.21,43.41,59.9,52.34,85.22h42.04c-12.01-31.35-32.96-67.07-78.95-88.86c-0.53-0.26-1.14-0.53-1.71-0.79
				c-7.67-3.52-16.07-6.69-25.19-9.38c0,0-0.11,0.03-0.42,0.11c-1.77-0.91-3.25-1.7-4.42-2.27c-16.15-8.1-64.6-36.61-74.28-39.83
				c-1.78-0.6-3.25-3.93-4.42-8.96c-2.77,2.8-6.02,6.09-9.76,9.68v0.49c0.03,0.34,0.11,0.64,0.19,0.99
				C369.46,469.01,369.38,468.83,369.34,468.64z"/>
			<g>
				<defs>
					<path id="SVGID_3_" d="M29.77,671.17c25.11,9.12,44.8,112.87,69.31,170.02c46.2-9.43,37.41-112.39,36.47-127.07
						c-0.32-4.8-0.9-13.54-1.83-24.79l198.64,17.26c2.99,10.67,8.78,19.74,16,27.5c0.19,0.19,0.38,0.42,0.56,0.6
						c18.42,19.37,45.68,30.41,59.87,37.1c-0.37-0.18-0.77-0.4-1.15-0.59c0.84,0.43,1.68,0.86,2.45,1.24
						c0.19,0.1,0.42,0.19,0.62,0.29c-1.2-1.64-2.38-3.37-3.56-5.16c1.18,1.79,2.37,3.53,3.57,5.16c0.15,0.08,0.3,0.15,0.49,0.23
						c0.31,0.15,0.64,0.3,0.91,0.45c2.51,1.18,4.49,2.04,5.94,2.65c1.08,1,2.21,2,3.35,3.01c0.23,0.6,0.51,1.28,0.84,2.14
						c0.25-0.25,0.49-0.5,0.73-0.75c9.54,8.31,27.39,15.02,40.94,24.3c2.52,1.73,116.2,18.84,126.31-20.89
						c6.22,18.14,9.44,6.58,18.7,31.38c5.67,15.13-3.41,30.22-17.89,43.98c19.62,7.19,19.97-7.67,33.77-6.2
						c6.5-9.04,6.6-3.91,3.47-13.82c-11.31-35.56-1.89-27.25-11.15-47.9c-3.33-7.49,0.24-49.25-3.28-58.66
						c-8.7-23-17.89-49.81-27.65-71.03c-12.44-27.08-18.04-105.22-96.71-142.47c-0.53-0.26-1.14-0.53-1.7-0.79
						c-5.77-2.64-11.94-5.09-18.51-7.28c-2.23-1.21-4.31-1.91-6.19-1.95c-0.17-0.05-0.32-0.1-0.49-0.15l-4.43-1.95
						c-0.12-0.06-0.29-0.14-0.4-0.2c-16.15-8.1-64.6-36.61-74.28-39.83c-1.78-0.6-3.25-3.93-4.42-8.96
						c-2.77,2.8-6.02,6.09-9.76,9.68v0.03c-0.75,0.71-1.53,1.45-2.31,2.16c-9.11,8.32-21.06,17.02-34.11,24.96
						c-2.95,1.82-5.97,3.59-9.04,5.29c-11.8,6.69-24.17,12.67-35.85,17.1c0,0-0.08,0.04-0.11,0.04c-0.34,0.15-0.68,0.31-1.03,0.42
						c-12.48,4.69-22.58,10.17-32.79,9.08c-0.15,0-0.34,0-0.49-0.08c-0.79-0.07-1.55-0.18-2.34-0.38c-0.8-0.19-1.63-0.38-2.42-0.68
						c-0.42-0.15-0.87-0.3-1.32-0.49c-0.45-0.16-0.87-0.34-1.32-0.57c-0.19-0.07-0.38-0.19-0.56-0.26
						c-2.8,3.59-5.56,8.01-8.06,13.42c0,0-0.08,0,0,0.04c-0.08,0.19-0.19,0.34-0.31,0.49c0-0.42,0.04-0.72,0.04-0.72l-0.19-0.56
						l-0.38-1.14l-6.88-20.69c-7.41-5.37-12.37-10.9-15.62-16.23c-5.93-9.79-6.13-18.95-5.06-25.22c-2.42,2.61-5.15,5.18-8.17,7.79
						c-32.76,28.24-78.92,42.28-107.05,70.8C78.2,566.43,50.38,618.9,29.77,671.17z M372.82,747.86c-0.75-0.66-1.48-1.34-2.21-2.02
						C371.34,746.52,372.07,747.2,372.82,747.86z M376.84,751.27c-0.84-0.69-1.68-1.4-2.52-2.12
						C375.16,749.86,376,750.58,376.84,751.27z M380.89,754.45c-0.91-0.69-1.82-1.42-2.73-2.14
						C379.07,753.04,379.98,753.76,380.89,754.45z M384.92,757.43c-0.95-0.68-1.91-1.39-2.86-2.1
						C383.01,756.04,383.97,756.75,384.92,757.43z M388.89,760.19c-0.97-0.66-1.94-1.33-2.92-2.02
						C386.95,758.86,387.93,759.53,388.89,760.19z M392.78,762.72c-0.95-0.6-1.92-1.23-2.9-1.88
						C390.86,761.49,391.83,762.12,392.78,762.72z M396.54,765.04c-0.92-0.55-1.86-1.13-2.8-1.72
						C394.69,763.91,395.62,764.49,396.54,765.04z M400.15,767.15c-0.88-0.49-1.77-1.02-2.67-1.55
						C398.39,766.13,399.28,766.66,400.15,767.15z M403.57,769.06c-0.81-0.44-1.64-0.91-2.49-1.38
						C401.93,768.15,402.76,768.62,403.57,769.06z M369.53,471.24l-0.01-0.04l0.01,0.03V471.24z M369.5,469.2
						c-0.04-0.19-0.12-0.38-0.16-0.56c0.02,0.31,0.05,0.71,0.07,1.14c-0.03-0.45-0.05-0.84-0.07-1.14c0-0.1,0-0.14,0-0.22
						C369.39,468.68,369.44,468.93,369.5,469.2z M406.13,766.02c-1.03-1.6-2.05-3.25-3.06-4.97
						C404.07,762.76,405.1,764.41,406.13,766.02z M406.78,770.76c-0.74-0.38-1.5-0.79-2.29-1.21
						C405.28,769.97,406.04,770.38,406.78,770.76z M367.05,742.45c0.6,0.6,1.19,1.2,1.81,1.78
						C368.24,743.65,367.65,743.05,367.05,742.45z M363.73,739.04c0.42,0.45,0.82,0.91,1.25,1.34
						C364.56,739.95,364.15,739.49,363.73,739.04z M360.17,701.35c0.08-0.18,0.16-0.36,0.25-0.54
						C360.33,700.99,360.25,701.17,360.17,701.35z M355.24,713.03c0.25-0.64,0.51-1.28,0.77-1.92
						C355.74,711.75,355.49,712.39,355.24,713.03z M361.25,736.33c-0.17-0.19-0.32-0.39-0.49-0.58
						C360.92,735.94,361.08,736.14,361.25,736.33z"/>
				</defs>
				<clipPath id="SVGID_4_">
					<use xlink:href="#SVGID_3_"  overflow="visible"/>
				</clipPath>
				<g clip-path="url(#SVGID_4_)">
					
						<rect x="-402.16" y="478.34" transform="matrix(-1 -1.224647e-16 1.224647e-16 -1 256.6492 997.0277)" opacity="0.45" fill="#981E22" width="1060.97" height="40.34"/>
					<rect x="-402.16" y="569.11" opacity="0.45" fill="#981E22" width="1060.97" height="38.91"/>
					<rect x="-28" y="104.18" opacity="0.45" fill="#981E22" width="40.34" height="503.84"/>
					<rect x="62.77" y="104.18" opacity="0.45" fill="#981E22" width="40.34" height="503.84"/>
					<rect x="153.53" y="104.18" opacity="0.45" fill="#981E22" width="40.34" height="503.84"/>
					<rect x="244.3" y="104.18" opacity="0.45" fill="#981E22" width="40.34" height="503.84"/>
					<rect x="338.85" y="104.18" opacity="0.45" fill="#981E22" width="40.34" height="503.84"/>
					<rect x="429.62" y="104.18" opacity="0.45" fill="#981E22" width="40.34" height="503.84"/>
					<rect x="520.39" y="104.18" opacity="0.45" fill="#981E22" width="40.34" height="503.84"/>
					<polygon opacity="0.45" fill="#981E22" points="630.61,608.01 630.61,98.41 611.15,104.18 611.15,608.01 					"/>
				</g>
			</g>
			<path fill="#3A7391" d="M154.68,608.01c2.4-42.72,6.27-85.29,12.49-103.87c-5.3,1.9-30.82,16.7-30.82,16.7
				s-6.58,39.89-11.19,87.17H154.68z"/>
			<path fill="#7F2322" d="M235.92,541.36l1.14-0.42l62.36-23.71l3.56-1.36l65.92-25.08l2.38-0.91c0,0-0.88,0.08-2.38,0.31
				c-2.69,0.3-7.53,0.83-13.77,1.62l-0.07,0.04c-4.62,0.6-10.03,1.32-15.85,2.16c-2.05,0.27-4.16,0.56-6.32,0.87
				c-2.72,0.38-5.52,0.8-8.36,1.25c-7.03,1.06-14.3,2.23-21.33,3.52c-13.84,2.49-26.59,5.26-35.02,8.13
				c-0.19,0.04-0.34,0.08-0.45,0.16c-1.32,0.42-2.53,0.87-3.55,1.36c-0.42,0.16-0.79,0.31-1.14,0.49c0,0-8.74,3.21-17.43,14.56
				c-2.8,3.59-5.56,8.01-8.06,13.42c0,0-0.08,0,0,0.04c-0.08,0.19-0.19,0.34-0.31,0.49c0,0,0,0.04,0,0.08
				c-0.07,0.15-0.15,0.3-0.15,0.42c-0.15,0.34-0.3,0.64-0.45,0.98C236.37,540.31,236.15,540.83,235.92,541.36z"/>
			<path fill="#7F2322" d="M175.75,536.97c5.71-5.94,10.9-10.32,15.66-13.5c0-0.08,0.07-0.08,0.15-0.12
				c2.76-1.89,5.41-3.36,7.9-4.42c0.08-0.08,0.08-0.08,0.16,0c6.46-2.92,11.99-3.33,16.67-2.31h0.08c4.12,0.87,7.56,2.88,10.36,5.38
				c5.37,4.65,8.47,13.8,9.91,17.77c0.16,0.45,0.31,0.87,0.42,1.17c0,0,0.12-1.58,0.19-2.56c0-0.04,0-0.04,0-0.04
				c0-0.45,0.04-0.76,0.04-0.76l-0.19-0.56l-0.38-1.14l-6.88-20.69l-5.86-17.74c-3.06-0.53-6.35,0.08-9.76,1.51
				c-8.32,3.44-17.13,11.8-24.24,19.82c-0.07,0.08-0.15,0.12-0.15,0.19c-0.71,0.75-1.44,1.58-2.12,2.38
				C181.12,529.15,176.43,536.03,175.75,536.97z"/>
			<g>
				<path fill="#336381" d="M159.33,608.01c0.3-45.41,2.37-89.56,8.77-103.87c0.13-0.26-0.22-0.26-0.9,0h-0.03
					c-6.21,18.58-10.08,61.15-12.49,103.87H159.33z"/>
			</g>
			<g>
				<path fill="#336381" d="M356.22,608.01c7.56-20.8,17.25-42.58,30.04-64.42c-13.76,21.82-24.31,43.64-32.6,64.42H356.22z"/>
				<g>
					<path fill="#3A7391" d="M353.66,608.01c8.29-20.78,18.84-42.61,32.6-64.42c0.03-0.1,0.1-0.19,0.16-0.29
						c11.15-19.02,24.56-38.02,40.68-56.37l-31.82-19.51l-1.55-0.97c0,0-17.77,18.67-38.96,51.73v0.03
						c-14.91,23.28-31.5,53.74-44.78,89.82H353.66z"/>
				</g>
			</g>
			<path fill="#AC2E33" d="M418.24,474.92c-0.01,1.06-0.42,2.34-1.23,3.79c0,0,0,0,0,0.06c-1.48,2.67-4.14,5.88-7.8,9.53
				c-9.3,9.45-24.81,21.5-40.7,33.05c-10.86,7.86-21.91,15.5-31.44,21.98c-15.75,10.65-27.46,18.12-27.46,18.12
				c0.55-6.99,0.49-13.14-0.03-18.46c-0.93-9.3-3.34-16.21-6.69-21.35c-1.09-1.63-2.26-3.1-3.49-4.4c-1.23-1.31-2.53-2.44-3.82-3.36
				c-11.25-8.19-25.84-5.86-31.44-4.59c-0.72,0.16-1.25,0.32-1.64,0.43c1.78-0.59,3.49-1.19,5.21-1.78
				c0.13-0.05,0.26-0.11,0.45-0.16c12.99-4.43,24.65-8.8,35.07-13.04c6.33-2.55,12.2-5.1,17.67-7.55
				c21.91-9.91,37.44-19,48.37-26.86c26.02-18.86,26.31-31.05,26.31-31.05S418.46,457.42,418.24,474.92z"/>
			<path fill="#CCCCCC" d="M235.86,254.96c-0.53,0.1-4.17,0.54-10.07,1.31C228.84,254.86,232.23,254.48,235.86,254.96z"/>
			<polygon fill="#E52225" points="329.9,323.01 391.44,272.64 392.18,288.6 349.18,334.1 			"/>
			<g>
				<path fill="#ED6B62" d="M377.64,307.68c-0.97-20.93,8.04-41.07,24.63-54.13c10.78-7.65,23.85-11.56,32.51,0.08
					c13.78,19.3-1.1,68.23-29.14,83.43c-10.23,6.25-21.28,1.47-24.76-10.25C379.3,321.71,377.97,315.31,377.64,307.68z"/>
				<path fill="#E9575C" d="M428.35,279.12c0,0-0.01,10.34-3.73,6.06c-3.71-4.29-15.42-16.59-15.69-4.4
					c-0.27,12.19,8.99,22.41-0.14,29.28c-9.12,6.87-9.43,5.19-11.31,1.48c0,0,9.06-2.02,9.29-7.94c0.23-5.93,3.03-10.03,2.56-10.1
					c-0.47-0.06-6.2-6.48-6.2-6.48l-0.66-11.69l4.44-7.13l15.26-1.39C422.16,266.81,428.48,272.24,428.35,279.12z"/>
				<path fill="#CD394B" d="M415.55,264.58c0,0,15.59,3.45,10.38,14.94c-5.21,11.5,4.6-7.97-7.88-8.79
					c-12.48-0.81-11.52-2.56-13.9,4.16c-2.38,6.72,0.01,10.47,6.29,17c6.28,6.53-11.39,24.71-13.63,20.04
					c-2.42-5.04,15.28-11.34,10.7-17.16c-4.58-5.82-10.78-15.75-7.41-21.86C403.48,266.81,412.28,263.97,415.55,264.58z"/>
			</g>
			<polygon fill="#E52225" points="371.64,377.04 394.16,377.04 392.34,392.6 368.53,395.74 			"/>
			<polygon fill="#E52225" points="194.96,292.28 192.59,319.09 197.74,324.82 204.24,303.37 			"/>
			<g>
				<path fill="#B1AEA1" d="M356.39,430.28c-22.42,22.39-63,36.78-109.1,38.13c-36.03,1.1-50.55-32.5-56.27-64.51
					c-6.34-35.29-1.45-71.88,13.6-104.47c0.73-1.64,1.51-3.18,2.23-4.67c10.17-19.69,20-37.11,20-37.11
					c0.44-0.19,0.82-0.34,1.26-0.49c-2.32,6.75-4.99,14.3-7.56,21.43c-0.58,1.59-1.5,3.13-2.23,4.77
					c-15.06,33.75-19.95,71.54-13.6,108.03c5.71,33.07,20.24,67.84,56.26,66.68C298.81,456.9,332.95,446.7,356.39,430.28z"/>
				<path fill="#CEC9BA" d="M374.79,393.35c-1.02,13.77-7.6,26.29-18.4,36.93c-23.44,16.42-57.58,26.62-95.4,27.78
					c-36.02,1.16-50.55-33.61-56.26-66.68c-6.34-36.49-1.45-74.28,13.6-108.03c0.73-1.64,1.65-3.18,2.23-4.77
					c2.57-7.13,5.23-14.68,7.56-21.43c12.73-4.43,21.89,9.49,32.69,25.32c1.26,9.05,1.35,21.28-3.44,33.17
					c-9.39,23.25,19.66,26.52,59.95,12.42c14.91-5.25,31.33,4.29,46.1,18.34c0,0,0.05,0,0.05,0.05
					C372.32,358.69,376.24,374.57,374.79,393.35z"/>
				<path fill="#B1AEA1" d="M363.41,346.41c-14.77-14.06-31.19-23.59-46.1-18.34c-40.29,14.1-69.34,10.83-59.95-12.42
					c4.79-11.89,4.7-24.12,3.44-33.17c11.38,16.8,24.55,35.77,45.71,37.22C333,321.57,352.18,331.01,363.41,346.41z"/>
				<path fill="#D9D5C5" d="M352.27,363.2c1.13,13.39-13.77,25.57-33.28,27.2c-19.5,1.63-36.24-7.91-37.37-21.3
					c-1.13-13.39,13.76-25.57,33.28-27.2C334.41,340.27,351.14,349.8,352.27,363.2z"/>
			</g>
			<g>
				<path fill="#1B2B2A" d="M407.09,608.01c13.86-56.14,47.6-103.72,47.6-103.72l-1.89-10.69l-77.37,68.29l0.89,46.12H407.09z"/>
				<path fill="#3B3B3C" d="M394.24,608.01c15.23-70.45,58.55-114.41,58.55-114.41l-30.11-9.38
					c-46.27,35.17-67.08,79.88-73.9,123.79H394.24z"/>
			</g>
			<g>
				<path fill="#1B2B2A" d="M129.91,608.01c17.78-57.11,53.28-107.43,53.45-106.54c0.51-1.85-4.36-2.37-3.82-4.21
					c-26.73,9.67-35.74,32.42-61.31,48.79c-7.82,20.91-15.56,41.22-21.71,61.96H129.91z"/>
				<path fill="#3B3B3C" d="M119.62,608.01c2.59-7.32,5.36-14.37,8.36-20.86c24.82-58.14,53.66-89.83,51.55-89.89
					c-12.38-0.4-28.09,9.73-38.8,15.5c-26.4,32.26-42.16,64.74-51.15,95.25H119.62z"/>
			</g>
			<path fill="#AC2E33" d="M223.96,497.47c0,0-1.59,0.99-4.23,2.8c-3.25,2.14-8.08,5.54-13.31,9.78c-1.86,1.49-3.79,3.09-5.71,4.8
				c0,0-0.06,0-0.06,0.05c-1.86,1.49-3.65,3.14-5.38,4.8l-0.06-0.01c-1.19,1.22-2.46,2.43-3.65,3.65c-0.07,0.05-0.14,0.05-0.14,0.11
				c-5.39,5.53-10.32,11.62-13.68,17.84c-2.35,4.4-3.98,8.79-4.36,13.21c0,0-0.79-4.88-0.68-13.27c0.05-3.92,0.37-8.67,1.03-13.97
				c0.08-0.73,0.15-1.45,0.29-2.24c0.14-0.78,0.21-1.56,0.36-2.34c1.35-8.26,3.57-17.69,7.38-27.87c1.22-3.23,2.7-6.34,4.45-9.34
				c5.56-9.72,13.81-18.23,23.8-24.98l0.06-0.05c0.89,2.42-2.18,6.85,7.36,25.43C219.14,489.24,221.25,493.07,223.96,497.47z"/>
			<path fill="#03445E" d="M340.19,64.27c2.88,2.03,5.23,4.12,6.97,6.18c19.6,23.21,1.02,89.48-3.4,104.06
				c30.81,14.04,64.38,29.73,64.38,29.73s14.67-84.97-7.41-111.12C391.98,82.76,368.11,72.21,340.19,64.27z"/>
			<path fill="#045473" d="M183.63,124.42c27.82,0.06,67.69,12.28,105.41,26.88c0.03,0.03,0.06,0.03,0.06,0.03
				c19.43,7.54,38.31,15.71,54.66,23.17c4.42-14.58,22.99-80.85,3.4-104.06c-1.74-2.06-4.09-4.16-6.97-6.18
				c-42.5-12.14-88.48-15.25-110.94-5.47c-25.43,11.1-40.59,36.1-43.87,52.72C183.88,119.2,183.63,124.42,183.63,124.42z"/>
			<path fill="#954120" d="M178.27,190.55c0.92,1.55,5.36-25.22,25.04-33.53c0,0-16.15-0.47-20.67,5.24
				C178.12,167.97,171.62,179.25,178.27,190.55z"/>
			<path fill="#954120" d="M236.8,209.86l-12.24,24.08c0,0-32.45-14.53-45.63-6.56l4.69-18.45
				C183.62,208.92,221.75,195.51,236.8,209.86z"/>
			<path fill="#954120" d="M356.9,200.46l1.37,16.14c0,0-50.51-7.75-83.32,15.28l-9.82-29.67
				C265.13,202.21,339.2,185.19,356.9,200.46z"/>
			<g>
				<g enable-background="new    ">
					<g>
						<path fill="#FFFFFF" d="M267.98,81.19c-4.3,5.05-8.71,10.08-13.14,15.07c2.12-0.73,4.25-1.47,6.38-2.21
							c1.96-2.5,3.92-5.01,5.85-7.53c-1.59,2.86-3.2,5.71-4.81,8.56c-2.42,0.86-4.83,1.73-7.26,2.59c0.44,1.23,0.78,2.57,0.98,3.99
							c1.97,0.32,3.94,0.64,5.91,0.97c2.78-1.3,5.56-2.61,8.33-3.92c-2.59,1.79-5.19,3.56-7.79,5.34c-2.1-0.32-4.21-0.64-6.3-0.96
							c0.03,0.31,0.05,0.61,0.05,0.92c0.05,1.68-0.08,3.28-0.38,4.77c2.02,2.01,4.06,4.03,6.11,6.07c0.41,3.29,0.84,6.57,1.29,9.86
							c-0.89-3.15-1.77-6.29-2.63-9.43c-1.72-1.66-3.43-3.31-5.14-4.96c-1.3,4.47-4.16,7.51-7.68,7.54c-2.99,0.03-5.8-2.05-7.6-5.31
							c-1.43,1.57-2.86,3.14-4.27,4.71c-0.06,2.8-0.06,5.59-0.03,8.37c-0.4-2.38-0.75-4.75-1.08-7.14
							c-1.68,1.84-3.32,3.67-4.95,5.49c5.34,4.2,12.05,6.79,18.96,6.86c15.33,0.29,27.09-13.19,26.46-30.15
							C274.92,93.11,272.1,86.32,267.98,81.19L267.98,81.19z M247.95,71.8c-13.8,0.93-28,15.02-28.86,30.85
							c-0.23,6.56,2.19,12.47,6.29,17.12c4.16-4.56,8.46-9.22,12.8-13.93c-0.03-0.42-0.05-0.84-0.06-1.27
							c-0.01-0.3-0.01-0.6,0.01-0.89c-2.06,0.44-4.13,0.88-6.19,1.32c-2.66-1.52-5.27-3.03-7.82-4.54c2.73,1.05,5.5,2.09,8.3,3.15
							c1.93-0.45,3.88-0.89,5.81-1.33c0.15-1.4,0.45-2.74,0.88-3.98c-2.42-0.64-4.81-1.29-7.18-1.93c-1.55-2.58-3.02-5.17-4.37-7.78
							c1.72,2.23,3.53,4.47,5.43,6.7c2.19,0.56,4.41,1.13,6.64,1.7c0.81-1.82,1.9-3.36,3.15-4.47c-0.49-0.82-0.75-1.8-0.71-2.88
							c0.08-2.06,1.21-3.92,2.8-4.94c-2.47-5.77-6.4-5.6-6.4-5.6c0.27-0.06,0.56-0.1,0.85-0.12c3.86-0.24,5.71,3.57,6.4,5.28
							c0.49-0.2,1.02-0.33,1.56-0.36c0.55-0.03,1.08,0.04,1.57,0.19c0.8-1.8,3.06-5.9,7.02-6.14c0.29-0.02,0.58-0.01,0.89,0.01
							c0,0-4.15,0.32-7.11,6.47c1.53,0.85,2.56,2.61,2.55,4.7c-0.01,0.52-0.08,1.02-0.21,1.5c4.01-4.5,8-9.03,11.88-13.58
							C259.29,73.41,253.89,71.4,247.95,71.8L247.95,71.8z"/>
						<path fill="#803827" d="M240.66,103.15c-0.84,0.18-1.68,0.36-2.53,0.54c-0.01,0.29-0.01,0.59-0.01,0.89
							c0.01,0.43,0.03,0.85,0.06,1.27C239.01,104.95,239.83,104.05,240.66,103.15L240.66,103.15z M255,97.67
							c-0.69,0.25-1.39,0.49-2.09,0.74c-4.27,4.76-8.55,9.47-12.76,14.13c1.81,3.26,4.62,5.34,7.6,5.31
							c3.53-0.03,6.38-3.08,7.68-7.54c-0.51-0.49-1.01-0.97-1.52-1.45c0.21-0.44,0.42-0.88,0.64-1.32c0.42,0.42,0.84,0.83,1.25,1.25
							c0.3-1.49,0.43-3.1,0.38-4.77c-0.01-0.31-0.03-0.61-0.05-0.92c-1.18-0.18-2.35-0.35-3.53-0.52c0.19-0.45,0.38-0.9,0.57-1.36
							c0.93,0.15,1.87,0.3,2.81,0.45C255.78,100.24,255.44,98.9,255,97.67L255,97.67z M242.78,92.54c-1.25,1.11-2.34,2.64-3.15,4.47
							c0.53,0.14,1.07,0.27,1.61,0.41c-0.01,0.49-0.01,0.98-0.01,1.47c-0.71-0.19-1.42-0.38-2.12-0.57
							c-0.43,1.24-0.73,2.58-0.88,3.98c0.92-0.21,1.85-0.42,2.77-0.64c0.12,0.24,0.24,0.48,0.36,0.73c2.36-2.59,4.73-5.19,7.1-7.81
							c-0.45,0.16-0.93,0.25-1.43,0.28C245.22,94.93,243.64,94,242.78,92.54L242.78,92.54z"/>
						<path fill="#803827" d="M247.27,83.91c-0.54,0.03-1.06,0.16-1.56,0.36c0.19,0.49,0.28,0.81,0.28,0.81
							c-0.31,0.05-0.61,0.1-0.92,0.16c-0.07-0.18-0.14-0.36-0.21-0.53c-1.58,1.02-2.72,2.88-2.8,4.94
							c-0.03,1.08,0.23,2.06,0.71,2.88c0.86,1.47,2.44,2.39,4.26,2.31c0.49-0.03,0.97-0.12,1.43-0.28c1.18-1.31,2.35-2.61,3.52-3.92
							c0.13-0.48,0.2-0.98,0.21-1.5c0.01-2.09-1.02-3.85-2.55-4.7c-0.08,0.18-0.17,0.36-0.25,0.55c-0.3-0.02-0.59-0.04-0.89-0.05
							c0,0,0.11-0.33,0.34-0.85C248.35,83.95,247.82,83.87,247.27,83.91L247.27,83.91z"/>
						<path fill="#803827" d="M239.31,78.99c-0.29,0.02-0.58,0.06-0.88,0.12c0,0,3.97-0.18,6.43,5.6c0.07,0.17,0.14,0.34,0.21,0.53
							c0.31-0.05,0.61-0.1,0.92-0.16c0,0-0.09-0.32-0.28-0.81C245.02,82.56,243.17,78.75,239.31,78.99L239.31,78.99z"/>
						<path fill="#803827" d="M255.86,77.96c-3.97,0.23-6.22,4.34-7.02,6.14c-0.23,0.52-0.34,0.84-0.34,0.84
							c0.3,0.02,0.59,0.04,0.89,0.06c0.08-0.19,0.17-0.38,0.25-0.55c2.96-6.16,7.1-6.47,7.1-6.47
							C256.45,77.95,256.15,77.94,255.86,77.96L255.86,77.96z"/>
						<path fill="#803827" d="M227.56,88.6c1.35,2.6,2.82,5.19,4.37,7.78c2.37,0.64,4.77,1.29,7.18,1.93
							c0.71,0.19,1.42,0.38,2.12,0.57c0-0.49,0-0.97,0.01-1.47c-0.54-0.14-1.08-0.27-1.61-0.41c-2.23-0.57-4.45-1.14-6.64-1.7
							C231.09,93.07,229.28,90.83,227.56,88.6L227.56,88.6z"/>
						<path fill="#803827" d="M224.11,100.47c2.56,1.51,5.17,3.02,7.82,4.54c2.06-0.44,4.13-0.88,6.19-1.32
							c0.84-0.18,1.68-0.36,2.53-0.54c0.23-0.25,0.47-0.51,0.71-0.77c-0.12-0.25-0.25-0.49-0.36-0.73
							c-0.92,0.21-1.85,0.42-2.77,0.64c-1.93,0.44-3.88,0.88-5.81,1.33C229.61,102.56,226.84,101.52,224.11,100.47L224.11,100.47z"
							/>
						<path fill="#803827" d="M235.88,117.25c-0.37,0.41-0.74,0.82-1.11,1.23c0.32,2.39,0.68,4.77,1.08,7.14
							C235.81,122.84,235.82,120.05,235.88,117.25L235.88,117.25z"/>
						<path fill="#803827" d="M267.07,86.52c-1.93,2.52-3.89,5.03-5.85,7.53c-2.12,0.74-4.25,1.47-6.38,2.21
							c-0.65,0.72-1.29,1.44-1.93,2.16c0.7-0.25,1.4-0.49,2.09-0.74c2.43-0.86,4.84-1.73,7.26-2.59
							C263.87,92.24,265.48,89.39,267.07,86.52L267.07,86.52z"/>
						<path fill="#803827" d="M270.22,98.72c-2.77,1.31-5.55,2.62-8.33,3.92c-1.97-0.33-3.95-0.65-5.91-0.97
							c-0.94-0.15-1.87-0.3-2.81-0.45c-0.19,0.45-0.38,0.9-0.57,1.36c1.17,0.17,2.35,0.34,3.53,0.52c2.1,0.32,4.2,0.64,6.3,0.96
							C265.04,102.29,267.63,100.5,270.22,98.72L270.22,98.72z"/>
						<path fill="#803827" d="M254.55,107.53c-0.21,0.44-0.43,0.88-0.64,1.32c0.51,0.49,1.01,0.97,1.52,1.45
							c1.7,1.65,3.42,3.3,5.14,4.96c0.86,3.14,1.74,6.29,2.63,9.43c-0.45-3.29-0.88-6.57-1.29-9.86c-2.05-2.04-4.09-4.06-6.11-6.07
							C255.39,108.36,254.97,107.94,254.55,107.53L254.55,107.53z"/>
						<path fill="#E52225" d="M225.38,119.78c-4.1-4.65-6.52-10.56-6.29-17.12c0.86-15.84,15.06-29.92,28.86-30.85
							c5.93-0.4,11.34,1.6,15.91,5.26c0.58-0.69,1.17-1.38,1.75-2.06c1.31,1.4,2.65,2.82,4.01,4.23c-0.55,0.65-1.1,1.3-1.65,1.95
							c4.12,5.14,6.95,11.93,7.25,19.49c0.64,16.96-11.13,30.44-26.46,30.15c-6.91-0.08-13.62-2.66-18.96-6.86
							c-0.25,0.27-0.49,0.55-0.73,0.82c-1.53-1.36-3.04-2.73-4.54-4.08C224.82,120.39,225.1,120.09,225.38,119.78L225.38,119.78z
							 M248.41,66.71c-15.56,1.12-32.7,17.72-34.04,36.17c-0.95,18.34,17.11,32.57,34.92,32.91c17.68,0.56,31.48-15.23,30.75-35.22
							C278.79,80.8,264.05,65.7,248.41,66.71L248.41,66.71z"/>
						<path fill="#E52225" d="M265.61,75c-0.58,0.68-1.16,1.37-1.75,2.06c-3.88,4.55-7.87,9.08-11.88,13.58
							c-1.17,1.31-2.34,2.62-3.52,3.92c-2.37,2.62-4.74,5.22-7.1,7.81c-0.24,0.26-0.47,0.52-0.71,0.77c-0.82,0.9-1.65,1.8-2.47,2.69
							c-4.34,4.71-8.64,9.37-12.8,13.93c-0.29,0.31-0.56,0.61-0.84,0.92c1.5,1.36,3.01,2.72,4.54,4.08
							c0.25-0.27,0.49-0.55,0.73-0.82c1.63-1.82,3.28-3.64,4.95-5.49c0.37-0.41,0.74-0.82,1.11-1.23c1.42-1.56,2.84-3.14,4.27-4.71
							c4.21-4.66,8.49-9.37,12.76-14.13c0.64-0.71,1.29-1.43,1.93-2.16c4.42-4.99,8.83-10.02,13.14-15.07
							c0.55-0.65,1.1-1.3,1.65-1.95C268.26,77.82,266.93,76.41,265.61,75L265.61,75z"/>
					</g>
				</g>
			</g>
			<path fill="#045473" d="M408.15,204.23c0,0-115.74-77.72-226.63-90.48c-121.9-14.03-67.66,45.73-67.66,45.73l93.02-25.23
				l85.52,24.48L408.15,204.23z"/>
			<path fill="#02354A" d="M397.71,199.38c-1.53-0.65-20.16-7.66-46.77-16.25c-33.6-10.9-74.71-23.64-125.1-26.09
				c-23-1.11-36.68,0.6-43.2,5.21c-10.78,7.62-6.48,32.43-5.25,39.05c-0.42-0.11-6.09-1.78-6.55-1.88c0,0,0,0-0.04-0.04
				c-2.81-1.44-124.46-65.12-32.72-78.75c79.23-11.76,216.36,55.77,254.68,75.73c0.08,0.07,0.19,0.1,0.27,0.18
				C395.71,198.12,397.33,199.1,397.71,199.38z"/>
			<g>
				<path fill="#515D4F" d="M393.29,367.91l2.89-3.56l-8.68-6.51c-1.99-2.66-4.19-5.17-6.76-7.42
					c-23.92-20.97-64.1-14.23-89.74,15.03s-27.04,69.98-3.12,90.94l19.63,17.2l4.75-5.85c21.8,3.69,47.21-5.67,65.36-26.38
					C397.29,418.9,402.63,389.75,393.29,367.91z"/>
				<path fill="#667163" d="M400.37,367.6c23.92,20.97,22.52,61.68-3.12,90.95c-25.65,29.26-65.82,35.99-89.74,15.03
					c-23.92-20.96-22.52-61.68,3.12-90.94C336.26,353.37,376.45,346.64,400.37,367.6z"/>
				<path fill="#464F44" d="M379.85,391.01c13.35,11.7,12.57,34.43-1.75,50.76c-14.31,16.34-36.74,20.1-50.09,8.4
					c-13.35-11.71-12.57-34.43,1.75-50.76S366.5,379.31,379.85,391.01z"/>
			</g>
			<g>
				<path fill="#515D4F" d="M200.85,384.09c-5.21-28.3-12.01-47.92-16.82-50.17l-0.03-0.18l-0.51,0.04
					c-0.33-0.06-0.66-0.05-0.96,0.07l-38.54,3l19.14,130.01l40.44-2.75l-0.08-0.56c0.29-0.28,0.58-0.64,0.85-1.12
					C208.87,454.26,207.31,419.18,200.85,384.09z"/>
				<g>
					<g>
						<path fill="#667163" d="M141,338.51c4.52-8.18,13.43,13.61,19.89,48.7c6.46,35.09,8.02,70.16,3.5,78.34
							c-4.53,8.19-13.43-13.6-19.89-48.69C138.03,381.77,136.48,346.69,141,338.51L141,338.51z"/>
					</g>
				</g>
				<g>
					<g>
						<path fill="#464F44" d="M145.85,364.86c2.65-4.78,7.86,7.97,11.64,28.5c3.78,20.52,4.69,41.04,2.05,45.83
							c-2.64,4.79-7.86-7.96-11.64-28.48S143.21,369.65,145.85,364.86L145.85,364.86z"/>
					</g>
				</g>
			</g>
		</g>
	</g>
</g>
</svg>
