<?xml version="1.0" encoding="utf-8"?>
<!-- Generator: Adobe Illustrator 25.2.3, SVG Export Plug-In . SVG Version: 6.00 Build 0)  -->
<svg version="1.1" id="Layer_1" xmlns="http://www.w3.org/2000/svg" xmlns:xlink="http://www.w3.org/1999/xlink" x="0px" y="0px"
	 viewBox="0 0 576 576" enable-background="new 0 0 576 576" xml:space="preserve">
<g>
	<g>
		<defs>
			<circle id="SVGID_1_" cx="288.09" cy="287.8" r="287.91"/>
		</defs>
		<use xlink:href="#SVGID_1_"  overflow="visible" fill="#F9E3D9"/>
		<clipPath id="SVGID_2_">
			<use xlink:href="#SVGID_1_"  overflow="visible"/>
		</clipPath>
		<g clip-path="url(#SVGID_2_)">
			<path fill="#D15E2C" d="M454.97,334.81c0,0,57.26,40.31,26.36,125.21c-30.9,84.89-42.25,61.16-48.35,91.6
				c0,0-39.44-41.27-42.73-99.69c-3.28-58.42,15.89-73.02,20.92-95.34C416.2,334.26,454.97,334.81,454.97,334.81z"/>
			<path fill="#FAB27E" d="M244.14,520.87c0,14.28,1.18,26.32,3.48,36.32c20.35,91.32,121.09,20.07,173.6-38.4
				c-0.66-0.52-16.89-2.62-17.87-3.39c-1.31-1.08-9.21-4.4-10.98-5.81c-8.53-6.85,40.44,15.01,26.9,13.54
				c-33.63-3.67-50.11-52.22-55.03-130.28c-20.94-1.92-54.19,48.03-83.73,55.53c1.83,8.78,2.82,19.47,1.44,31.38
				c-0.66,5.32-2.84,11.61-6.32,15.77c-6.43,7.82-13.77,13.56-21.97,19.39C250.64,517.1,247.48,519.08,244.14,520.87z"/>
			<path fill="#248FC6" d="M450.6,315.05c1.53,0.8,30.12,10.47,3.51,49.02c-26.61,38.55-67.47,8.62-68.64-4.95
				C385.03,354.12,424.98,301.58,450.6,315.05z"/>
			<path fill="#FAB27E" d="M367.26,365.01c0,0-9.65,68.07-8.34,88.36c1.98,30.63-46.77,32.79-68.27,31.62
				c-6.32-0.35-7.94-1.66-7.37-7.95l2.17-61.94L367.26,365.01z"/>
			<path fill="#E39874" d="M364.75,369.35c-44.09,60.46-83.06,87.04-108.77,98.73c5.89,0.4,11.53,0.07,15.45-1.17
				c23.89-7.55,69.87-31.02,123.35-104.39c78.59-107.71,71.55-204.12,7.03-250.85c-50.79-36.75-105.34-44.84-152.48-28.74
				c39.48-4.7,82.16,6.42,122.45,35.57C436.3,165.24,443.34,261.65,364.75,369.35z"/>
			<path fill="#F6B185" d="M144.8,277.6c0,0,11.76,14.12,12.03,53.07c0.21,30.09,6.27,79.75,75.29,131.41c5,3.74,14.93,5.4,23.86,6
				c25.71-11.69,64.68-38.27,108.77-98.73c78.59-107.71,71.55-204.11,7.03-250.85c-40.29-29.14-82.97-40.26-122.45-35.57
				c-12.78,4.39-25,10.52-36.45,18.35C212.87,101.29,120.3,157.65,144.8,277.6z"/>
			<path fill="#FFFFFF" d="M260.23,278.4c-8.91-0.11-16.7,4.85-19.12,11.93c-3.34,9.8-6.44,26.33,5.66,36.33
				c18.03,14.9,40.7-4.7,44.43-10.79c3.73-6.08,6.39-27.71-7.74-32.65C275.61,280.46,267.56,278.49,260.23,278.4z"/>
			<path fill="#FFFFFF" d="M156.85,303.59c0,0-6.32-32.69,21.87-22.99c28.19,9.7,27.07,41.56,16.87,48.09
				C185.39,335.24,168.31,332.83,156.85,303.59z"/>
			<g>
				<g>
					<path fill="#611B13" d="M264.36,300.98c3.34,7.93,0.19,16.83-7.05,19.88c-7.23,3.05-15.8-0.91-19.14-8.85
						c-3.34-7.93-0.19-16.83,7.05-19.88C252.44,289.09,261.02,293.05,264.36,300.98z"/>
					<path fill="#1D1D1B" d="M248.05,314.89c-1.73-1.03-3.67-3.44-3.89-7.14c-0.15-2.43,0.54-4.78,1.89-6.47
						c0.72-0.89,1.93-1.97,3.61-2.07c0.91-0.06,1.76,0.16,2.62,0.67c1.73,1.02,3.66,3.44,3.88,7.13c0.15,2.44-0.53,4.8-1.89,6.48
						c-0.71,0.89-1.92,1.98-3.61,2.07C249.77,315.63,248.91,315.4,248.05,314.89z"/>
				</g>
				<path fill="#FFFFFF" d="M269.23,301.08c-0.59,2.92-3.44,4.82-6.36,4.23c-2.93-0.59-4.83-3.44-4.24-6.36
					c0.59-2.93,3.44-4.83,6.37-4.24C267.92,295.3,269.82,298.15,269.23,301.08z"/>
			</g>
			<g>
				<g>
					<path fill="#611B13" d="M186.58,300.51c3.16,7.52,0.18,15.96-6.68,18.85c-6.85,2.88-14.98-0.87-18.14-8.39
						c-3.17-7.52-0.18-15.96,6.67-18.85C175.28,289.23,183.41,292.99,186.58,300.51z"/>
					<path fill="#1D1D1B" d="M171.12,313.69c-1.64-0.97-3.47-3.26-3.69-6.77c-0.14-2.3,0.52-4.53,1.79-6.13
						c0.68-0.84,1.83-1.87,3.43-1.96c0.86-0.05,1.67,0.16,2.49,0.64c1.64,0.97,3.47,3.26,3.68,6.76c0.15,2.32-0.51,4.54-1.79,6.14
						c-0.69,0.84-1.83,1.87-3.43,1.97C172.75,314.39,171.94,314.18,171.12,313.69z"/>
				</g>
				<path fill="#FFFFFF" d="M190.88,303.58c-0.56,2.77-3.26,4.57-6.04,4.02c-2.77-0.56-4.57-3.26-4.02-6.04
					c0.55-2.78,3.26-4.57,6.04-4.02C189.64,298.1,191.44,300.8,190.88,303.58z"/>
			</g>
			<path fill="#FFFCFD" d="M209.68,405.74c2.43,6.89,5.83,16.17,9.23,23.34c0.74-0.57,1.68-1.02,2.52-1.43
				c1.47-0.66,2.75-1.12,2.75-1.12c54.23-12.15,51.02-41.51,51.02-41.51c-1.62,6.46-38.42,24.91-60.93,21.52
				C212.55,406.31,211.05,406.02,209.68,405.74z"/>
			<path fill="#EF804E" d="M197.92,399.26c-0.02,1.05,0.91,4.18,11.76,6.47c1.36,0.29,2.87,0.57,4.58,0.82
				c22.51,3.39,59.31-15.07,60.93-21.52c0,0,3.22,29.36-51.02,41.51c0,0-1.28,0.46-2.75,1.12c-0.84,0.4-1.77,0.86-2.52,1.43
				c-1.29,0.87-1.99,1.97-1.03,2.99c0.24,0.27,1.17,0.29,2.59,0.1c1.23-0.24,2.84-0.58,4.76-1.14c1.23-0.35,2.56-0.8,4.03-1.3
				c20.19-6.77,45.66-16.93,48.18-47.35c0,0-1.04,1.3-3.28,3.26c-7.44,6.41-27.94,19.81-65.56,14.85c-0.2,0-0.44-0.01-0.68-0.07
				c-0.1,0-0.25-0.05-0.39-0.06c-0.93-0.12-1.91-0.24-2.88-0.42c-3.85-0.59-4.83-0.55-4.83-0.4c-0.44-0.16-1.02-0.38-1.85-0.67
				C197.98,398.89,197.92,399,197.92,399.26z"/>
			<path fill="#EF804E" d="M202.97,294.83c0,0,4.14,34.28-4.93,49.08c-9.08,14.8-7.84,26.39,5.6,28.61
				c13.44,2.22,20.5-3.33,20.5-3.33s-25.65,3.95-26.99-8.26C195.81,348.72,210.03,333.67,202.97,294.83z"/>
			<path fill="#EF804E" d="M229.63,352.79c0,0,13.89,4.93,10.53,12.82c-3.36,7.89-10.97,0.74-16.02,3.58c0,0,5.94-4.07,9.3-2.84
				C236.8,367.59,241.95,360.93,229.63,352.79z"/>
			<g>
				<path fill="#D15E2C" d="M197.06,271.59c-13.58-7.63-33.01-11.12-46.08,4.72c-4.04,4.89-8.91-4.36-4.83-9.31
					c15.56-18.85,37.11-16.88,53.61-7.6C204.28,261.94,201.6,274.14,197.06,271.59L197.06,271.59z"/>
			</g>
			<g>
				<path fill="#D15E2C" d="M303.73,274.83c-21.47-17.45-45.03-19.61-66.65-6.22c-4.92,3.05-8.03-8.52-3.15-11.54
					c23.44-14.52,50-11.95,73.26,6.97C312.04,267.98,308.63,278.82,303.73,274.83L303.73,274.83z"/>
			</g>
			<path fill="#D15E2C" d="M315.43,178.35c0,0-0.1,32.81,17.02,63.61c52.33,94.13,79.83,20.19,78.33,66.11
				c-1.5,45.92,48.82,5,50.1-65.45c1.51-83.1-66.4-175.39-169.64-170.01c-131.86,6.87-150.1,51.51-166.82,105.74
				c-14.71,47.71,16.47,119.54,16.47,119.54s0.62-107.8,91.68-121.39c0,0-29.28,40.68-27.36,61.87
				C205.2,238.37,267.76,175.66,315.43,178.35z"/>
			<g>
				<path fill="#F6B185" d="M394.64,346.64c1.19,1.8,2.64,3.33,4.25,4.57c2.47-3.18,6.09-5.45,10.11-6.4
					c-2.9-1.7-6.05-3.84-6.16-4.04c-0.02-0.08,0.16-0.25,0.47-0.44C399.97,341.79,397.01,343.9,394.64,346.64z"/>
				<g>
					<path fill="#F6B185" d="M395.17,347.12c1.99-2.29,4.47-4.06,7.27-5.3c-0.25,0.16-0.42,0.31-0.39,0.37
						c0.08,0.17,2.73,1.96,5.16,3.39c-3.37,0.79-6.41,2.7-8.48,5.36c3.74,2.84,8.95,3.78,15.94,2.09c2.66-0.66,5.13-1.68,7.37-3.03
						c1.51-0.88,2.92-1.94,4.23-3.09c18-15.69,19.74-53.87,7.27-68.31c-14.8-17.08-38.53,13.56-38.53,13.56
						C389.98,312.72,387.75,335.92,395.17,347.12z"/>
					<path fill="#D57D56" d="M425.02,299.32c-17.3-2.19-25.21,17.92-19.3,31.32c5.92,13.39,17.09,1.3,17.09,1.3
						s-15.38,7.26-15.3-11.64c0.01-3.11,0.53-5.74,1.33-8c0.03,0.27,0.03,0.48,0.07,0.78c0.97,6.55,15.74,0.31,15.74,0.31
						c-10.32,1.12-12.81-3.69-13.41-5.78C416.38,300.38,425.02,299.32,425.02,299.32z"/>
				</g>
			</g>
			<path fill="#248FC6" d="M484.66,659.6c1.99-115.66-63.43-140.84-63.43-140.84c0.42-0.17,0.85-0.42,1.27-0.59
				c-40.67-17.81-38.98-48.27-45.4-40.77c-11.39,13.08-25.4,57.05-73.93,75.19c-48.52,18.06-37.72-47.26-37.72-47.26
				s-41.27,25.15-57.14,47.85c-18.29,26.19,1.84,46.18-32.78,106.41H484.66z"/>
			<path fill="#D57D56" d="M200.52,300.8c-22.98-20-44.95-0.73-44.95-0.73s-0.62-24.16,16.85-28.25
				C195.67,266.3,200.52,300.8,200.52,300.8z"/>
			<path fill="#D57D56" d="M294.67,296.29c-27.87-19.17-55.11-1.5-55.11-1.5s1.43-22,22.46-25.81
				C290.04,263.84,294.67,296.29,294.67,296.29z"/>
			<path fill="#267FB0" d="M484.7,659.6h22.4c0.46-9.49,0.48-18.05-0.08-25.26c-4.5-57.24-5.57-63.41-62.88-103.63
				c-6.2-4.35-16-10.02-21.65-12.55c-0.42,0.17-0.84,0.42-1.27,0.59C421.23,518.77,486.67,543.92,484.7,659.6z"/>
		</g>
	</g>
</g>
</svg>
