<?xml version="1.0" encoding="utf-8"?>
<!-- Generator: Adobe Illustrator 25.2.3, SVG Export Plug-In . SVG Version: 6.00 Build 0)  -->
<svg version="1.1" id="Layer_1" xmlns="http://www.w3.org/2000/svg" xmlns:xlink="http://www.w3.org/1999/xlink" x="0px" y="0px"
	 viewBox="0 0 576 576" enable-background="new 0 0 576 576" xml:space="preserve">
<g>
	<g>
		<defs>
			<path id="SVGID_1_" d="M576,287.55c0,158.81-128.74,287.56-287.55,287.56c-158.81,0-287.56-128.74-287.56-287.56
				C0.89,128.74,129.64,0,288.45,0C447.26,0,576,128.74,576,287.55z"/>
		</defs>
		<use xlink:href="#SVGID_1_"  overflow="visible" fill="#F9E3D9"/>
		<clipPath id="SVGID_2_">
			<use xlink:href="#SVGID_1_"  overflow="visible"/>
		</clipPath>
		<g clip-path="url(#SVGID_2_)">
			<path fill="#F9E3D9" d="M576,287.55c0,158.81-128.74,287.56-287.55,287.56c-158.81,0-287.56-128.74-287.56-287.56
				C0.89,128.74,129.64,0,288.45,0C447.26,0,576,128.74,576,287.55z"/>
			<g>
				<path fill="#CF5D3D" d="M86.53,625.19c9.32-20.11,20.02-37.48,32.12-46.99c44.4-34.89,89.98-145.64,89.98-145.64
					S59.58,534.34,48.45,577.36c-3.11,12.04-9.78,29.09-18.15,47.83H86.53z"/>
				<path fill="#EA9277" d="M383.38,271.91c0,0,16.11,132.37-44.98,184.14c-30.01,25.43-62.93,43.68-88.61,55.67
					c-3.36-2.03-6.31-4.6-8.75-7.74c-44.47-57.07,18.18-151.89,18.18-151.89S331.67,133.87,302.3,76.8
					c0,0,88.33,25.81,104.83,171.62L383.38,271.91z"/>
				<path fill="#C47C61" d="M249.78,511.72c25.69-11.98,58.6-30.24,88.61-55.67c61.09-51.77,44.98-184.14,44.98-184.14l23.75-23.49
					c1.83,16.24,2.77,33.95,2.6,53.3c0,0,0.84,67.15,42.82,96.53C492.17,426.01,307.74,546.69,249.78,511.72z"/>
				<path fill="#C47C61" d="M221.45,65.33c0,0,102.95-48.12,171.21,60.43c68.26,108.54-14.55,151.07-17.9,167.85
					c-3.36,16.78-11.19,47.56-19.58,51.75s-34.13-64.06-34.13-64.06l15.67-51.47c0,0,6.71-30.77-18.47-54.28
					C293.07,152.06,238.79,73.73,221.45,65.33z"/>
				<path fill="#C47C61" d="M347.62,189.26c0,0,16.78,141.83,7.55,156.1c-9.23,14.27-57.07,47.84-86.44,54.55
					c-29.38,6.71-5.87-135.12,15.94-167.01C306.49,201.01,347.62,189.26,347.62,189.26z"/>
				<path fill="#F9A97E" d="M322.16,178.35c0,0,19.58,25.18,10.07,47c-9.51,21.82-35.25,41.4-33.57,56.51
					c0,0,4.48,100.01-23.63,115.54c-28.12,15.52-71.34,21.82-88.12,13.01c-16.78-8.81-60.43-53.71-46.16-104.9
					c14.27-51.2,9.23-35.67,0.84-50.78c-8.39-15.11-26.01-42.39-1.68-70.5c24.34-28.11,29.79-120.01,99.45-120.01
					S330.27,81,322.16,178.35z"/>
				<path fill="#FFFFFF" d="M229.24,202.54c3.57,4.14,5.89,17.38,29.28,17.82c23.39,0.44,25.73-21.52,25.73-21.52L229.24,202.54z"/>
				<path fill="#FFFFFF" d="M176.12,202.42c0,0-13.13,23.5-26.57-7c-0.54-1.25,2.54-0.76,6.8,0.38c1.32,0.36,2.77,0.79,4.25,1.25
					c3.44,1.07,7.07,2.32,9.95,3.36c1.7,0.58,3.15,1.12,4.15,1.48C175.61,202.22,176.12,202.42,176.12,202.42z"/>
				<path fill="#C96E3E" d="M262.86,300.05c0,0-12.59-40.56-20.98-48.4l1.67-2.24C243.55,249.41,260.61,275.7,262.86,300.05z"/>
				<path fill="#C96E3E" d="M158.23,241.85c0,0-9.23,32.73-5.6,54.55c0,0,3.36-42.8,8.96-52.04L158.23,241.85z"/>
				<path fill="#C96E3E" d="M251.66,321.58c-35.67-12.14-83.37-2.79-86.44-2.24C165.22,319.35,264.81,326.06,251.66,321.58z"/>
				<path fill="#E78571" d="M370.28,180.59c0,0,37.49-44.76,54.27-5.04s-6.16,61.55-16.23,68.82
					c-10.07,7.28-33.01,34.13-45.88,25.18C349.57,260.6,370.28,180.59,370.28,180.59z"/>
				<path fill="#C47C61" d="M375.09,200.39l29.03-15.32c0,0,13.7,13.71,7.26,25c-6.45,11.29-27.42,29.84-27.42,29.84
					S379.12,207.64,375.09,200.39z"/>
				<path fill="#7D885B" d="M274.47,204.56c0,7.53-6.11,13.64-13.64,13.64c-7.53,0-13.64-6.11-13.64-13.64s6.11-13.64,13.64-13.64
					C268.36,190.93,274.47,197.03,274.47,204.56z"/>
				<path fill="#313D23" d="M268.74,204.56c0,4.37-3.54,7.91-7.91,7.91c-4.37,0-7.91-3.54-7.91-7.91c0-4.37,3.54-7.91,7.91-7.91
					C265.2,196.66,268.74,200.2,268.74,204.56z"/>
				<path fill="#7D885B" d="M174.7,201.88c-0.97,4.35-4.84,7.59-9.47,7.59c-5.38,0-9.73-4.35-9.73-9.72c0-1.4,0.31-2.75,0.85-3.95
					c1.32,0.36,2.77,0.79,4.25,1.25c3.44,1.07,7.07,2.32,9.95,3.36C172.25,200.99,173.7,201.53,174.7,201.88z"/>
				<path fill="#313D23" d="M170.55,200.41c-0.33,2.67-2.6,4.71-5.32,4.71c-2.98,0-5.38-2.39-5.38-5.37c0-0.99,0.28-1.91,0.74-2.7
					C164.03,198.11,167.67,199.36,170.55,200.41z"/>
				<path fill="#DE553F" d="M172.21,238.78c0,0-15.39-3.92-14.54,8.95c0.84,12.87,14.54,26.02,14.54,26.02V238.78z"/>
				<path fill="#534030" d="M309.86,194.3c-3.36,2.52-81.4,15.1-90.64,14.25c-9.24-0.81-9.72-17.41-5.87-19.29
					c0.96-0.49,1.93-0.92,2.9-1.35c-0.46,5.55,1.78,13.41,8.07,13.97c7.51,0.69,60.63-7.53,81.94-11.96
					C309.25,192.05,310.54,193.77,309.86,194.3z"/>
				<path fill="#785D48" d="M306.24,189.92c-21.31,4.43-74.43,12.65-81.94,11.96c-6.29-0.56-8.53-8.42-8.07-13.97
					C260.07,167.93,295.05,181.91,306.24,189.92z"/>
				<path fill="#534030" d="M183.43,205.32c-2.35,2.73-6.49,2.77-9.6,0.18c-16.17-13.52-29.99-12.09-37.9-14.74
					c-8.58-2.88-4.46-9.22-4.46-9.22c4.58-2.37,9.34-3.59,14.02-4c-2.16,0.66-4.3,1.5-6.39,2.58c0,0-4.12,6.33,4.45,9.21
					c7.92,2.65,21.74,1.22,37.91,14.74C182.08,204.58,182.74,204.99,183.43,205.32z"/>
				<path fill="#785D48" d="M184.52,203.56c-0.28,0.66-0.66,1.25-1.09,1.76c-0.69-0.33-1.35-0.73-1.96-1.25
					c-16.17-13.52-29.99-12.09-37.91-14.74c-8.58-2.88-4.45-9.21-4.45-9.21c2.08-1.08,4.23-1.91,6.39-2.58
					c18.89-1.63,36.68,10.29,39.1,17.06C185.51,197.12,185.28,201.86,184.52,203.56z"/>
				<path fill="#F26B42" d="M189.84,190.94c0,0-25.59,31.47-23.08,80.99c0,0,11.34,18.89,27.28,7.97
					c15.94-10.91,18.88-11.33,31.89-10.49c13.01,0.84,22.66-21.4,12.17-21.82c-10.49-0.42-20.56,1.68-30.21,2.1
					C198.23,250.11,187.74,202.69,189.84,190.94z"/>
				<path fill="#785D48" d="M309.11,388.14c-12.92,17.27-48.39,28.36-65.54,31.05c-3.07,0.49-5.57,0.72-7.23,0.64
					c-0.64-0.04-4.84,0.15-4.84,0.15s-21.01-1.59-39.61-2.99c-12.72-0.98-24.3-1.86-27.22-2.12c-7.23-0.61-25.48-33.7-24.19-45.17
					c1.29-11.43,1.29-23.55,1.29-23.55s19.92,43.09,26.92,51.34c7.01,8.29,19.54-6.78,13.78-21.43
					c-5.72-14.61,12.12-9.54,12.12-9.54s3.49,35.86,37.98,38.08c0.03,0,0.03,0,0.07,0c1.44,0.08,2.96,0.12,4.54,0.08
					c0.23,0.04,0.45,0,0.68,0c39.45-1.25,76.37-64.89,72.54-94.16C310.4,310.53,324.41,367.81,309.11,388.14z"/>
				<path fill="#785D48" d="M310.39,310.52l6.79-2.12c0,0,8.48,44.12-3.19,68.73c-11.67,24.61-21.64,9.33-21.64,9.33
					s22.27-35.42,20.36-46.88C310.82,328.13,310.39,310.52,310.39,310.52z"/>
				<path fill="#C47C61" d="M414.97,373.26c-5.34,31.38-28.05,83.49-105.36,154.55c0.03-0.34,0.07-0.64,0.07-0.94l-42.25,2.16
					c-0.22-4.92-0.56-9.85-1.09-14.73c32.9-2.76,98.81-60.91,130.32-111.5c7.04-11.28,12.38-22.19,15.26-32.03
					C412.89,371.56,413.91,372.39,414.97,373.26z"/>
				<path fill="#C47C61" d="M267.42,529.02l-7.53,0.38c0.57-4.92,0.91-10.04,0.94-15.22c1.67,0.23,3.52,0.26,5.49,0.11
					C266.86,519.18,267.2,524.1,267.42,529.02z"/>
				<path fill="#F26640" d="M549.82,625.19c1.39-7.84,2.81-15.76,4.29-23.85c8.48-46.19-8.94-98.78-34.15-144.67
					c-20.78-16.43-40.81-32.3-59.02-46.84c-10.3-8.18-20.03-15.94-29-23.09c-6.02-4.77-11.7-9.32-16.96-13.48
					c-5.34,31.38-28.05,83.49-105.36,154.55c0.03-0.34,0.07-0.64,0.07-0.94l-42.25,2.16l-7.53,0.38c0.57-4.92,0.91-10.04,0.94-15.22
					c-3.63-0.49-6.66-1.97-8.97-4.47c-21.54-23.39-27.07-43.42-26.66-60.8c0.04-0.07,0.04-0.15,0.04-0.23
					c0.19-9.5,2.2-18.17,4.31-26.16c1.02-3.86-20.25,8.48-20.97,10.18c-6.36,14.35-14.88,28.13-24.61,41.31
					c-36.35,49.37-89.01,90.15-103.97,121.01c-3.19,6.6-7.68,17.2-13.01,30.17H549.82z"/>
				<path fill="#D65E3C" d="M431.93,386.74c24.91,19.88,55.54,44.25,88.03,69.93c21.92,17.34,44.68,35.28,67.06,52.86
					c42.81,33.57,108.81,77.08,101.06,115.66h51.45c4.83-34.08,0.24-70.62-37.73-99.57c-49.33-37.59-166.08-77.09-206.18-108.17
					c-41.84-60.39-88.86-97.49-82.12-68.75c1.48,6.32,0.79,13.82-1.59,22.07C418.04,375.68,424.74,381.03,431.93,386.74z"/>
				<path fill="#F26640" d="M520.07,603.91c-9.79,5.39-18.53,12.92-26.76,21.27h194.76c7.75-38.58-58.25-82.09-101.06-115.66
					c-22.38-17.57-45.13-35.51-67.06-52.86c-32.49-25.67-63.12-50.05-88.03-69.93l77.51,194.91L520.07,603.91z"/>
				<path fill="#E7403C" d="M475.02,483.97c-24.08-31.31-153.45,37.71-165.45,44.18c-0.45,0.27-0.72,0.42-0.83,0.49
					c0.3-0.3,0.6-0.56,0.87-0.83c77.31-71.06,100.03-123.16,105.36-154.55c3.98-23.14-1.48-35.06-1.48-35.06
					c12.73,5.34,32.64,38.73,47.44,71.63c8.86,19.69,15.86,39.23,18.32,52.36C485.93,497.22,475.02,483.97,475.02,483.97z"/>
				<path fill="#F1ECC9" d="M274.9,625.19c22.89-80.56-15.01-95.78-15.01-95.78h-0.04c0,0,0,0.15-0.03,0.45
					c-0.04,0.34-0.08,0.68-0.12,1.02c-0.04,0.41-0.11,0.83-0.15,1.25c-1.13,10.1-5.61,47.36-14.44,93.06H274.9z"/>
				<path fill="#E7403C" d="M260.84,514.18c-0.03,5.19-0.37,10.3-0.94,15.22c0,0.15-0.04,0.3-0.07,0.45
					c-0.04,0.34-0.08,0.68-0.12,1.02c-0.04,0.41-0.11,0.83-0.15,1.25c-0.22,1.63-0.49,3.26-0.79,4.85c0,0-22.42-55.05-74.78-62.96
					c-1.02-0.19-2.04-0.34-3.1-0.45c-25.06-2.85-42.18-0.95-42.18-0.95s18.51-35.93,53.19-55.62c18.59,1.4,39.61,2.99,39.61,2.99
					s4.2-0.19,4.84-0.15c1.67,0.08,4.16-0.15,7.23-0.64C250.96,439.82,261.37,478.9,260.84,514.18z"/>
				<path fill="#E3C1A4" d="M274.9,625.19h4.83c15.79-36.45,28.16-71.97,29.84-97.04c0.04-0.11,0.04-0.23,0.04-0.34
					c0.03-0.34,0.07-0.64,0.07-0.94l-42.25,2.16l-7.53,0.38C259.89,529.4,297.79,544.63,274.9,625.19z"/>
			</g>
		</g>
	</g>
</g>
</svg>
