<?xml version="1.0" encoding="utf-8"?>
<!-- Generator: Adobe Illustrator 25.2.3, SVG Export Plug-In . SVG Version: 6.00 Build 0)  -->
<svg version="1.1" id="Layer_1" xmlns="http://www.w3.org/2000/svg" xmlns:xlink="http://www.w3.org/1999/xlink" x="0px" y="0px"
	 viewBox="0 0 576 576" enable-background="new 0 0 576 576" xml:space="preserve">
<g>
	<g>
		<defs>
			<path id="SVGID_1_" d="M576,288.07c0,159.06-128.94,288-288,288S0,447.13,0,288.07C0,129.01,128.94,0.07,288,0.07
				S576,129.01,576,288.07z"/>
		</defs>
		<clipPath id="SVGID_2_">
			<use xlink:href="#SVGID_1_"  overflow="visible"/>
		</clipPath>
		<g clip-path="url(#SVGID_2_)">
			<path fill="#F9E3D9" d="M576,288.07c0,159.06-128.94,288-288,288S0,447.13,0,288.07C0,129.01,128.94,0.07,288,0.07
				S576,129.01,576,288.07z"/>
			<g>
				<g>
					<path fill="#DF1E2E" d="M256.25,468.43c-13.93-17.6-17.06-11-33.73-9.7c-17.81,1.39-15.92,39.76-10.66,77.38
						c11.62,83.11,38.39,113.98,38.39,113.98l61.62-56.99C311.86,593.1,290.69,511.92,256.25,468.43z"/>
				</g>
				<g>
					<path fill="#FCDABE" d="M327.42,669.66c-9.07-30.53-20.1-60.76-22.11-67.49c0,0-2.67,16.46-15.84,20.26
						c-5.37,4.84-10.34,14.02-13.9,30.02c-1.26,5.71-1.84,11.46-1.89,17.21H327.42z"/>
				</g>
				<g>
					<polygon fill="#7E797D" points="495.93,410.57 503.5,416.11 498.53,417.95 					"/>
				</g>
				<g>
					<polygon fill="#7E797D" points="366.33,598 359.91,593.23 368.03,593.66 					"/>
				</g>
				<path fill="#7E797D" d="M487.56,408.65l-58.54,3.13c-11,0.58-22.98,10.53-26.75,22.23l-45.78,141.88
					c-3.77,11.69,2.09,20.7,13.09,20.11l58.54-3.13c11-0.58,22.98-10.53,26.75-22.23l45.78-141.88
					C504.42,417.07,498.56,408.06,487.56,408.65z"/>
				<g>
					<g>
						<path fill="#A39DA2" d="M368.69,562.4l98-4.13l40.29-124.84c3.77-11.68-2.07-20.7-13.1-20.11l-58.55,3.13
							c-10.97,0.58-22.98,10.54-26.76,22.23L368.69,562.4z"/>
					</g>
				</g>
				<g>
					<path fill="#90888D" d="M375.87,600.66l58.56-3.08c11.02-0.59,22.98-10.54,26.75-22.23l5.51-17.09l-98,4.13l-5.86,18.15
						C359.07,592.29,364.91,601.25,375.87,600.66z"/>
				</g>
				<path fill="#C8C7C6" d="M444.75,475.57c-8.76,0.17-17.22,7.33-18.88,15.92c-1.66,8.63,4.1,15.48,12.86,15.31
					c8.76-0.16,17.19-7.29,18.85-15.92C459.24,482.28,453.51,475.39,444.75,475.57z"/>
				<g>
					<g>
						<path fill="#C8C7C6" d="M488.84,444.68c3.75-0.03,7.36-3.12,8.08-6.77c0.71-3.71-1.75-6.64-5.49-6.55
							c-3.74,0.09-7.35,3.12-8.06,6.83C482.65,441.84,485.1,444.78,488.84,444.68z"/>
					</g>
				</g>
				<g>
					<g>
						<path fill="#7E797D" d="M488.63,445.96c4.43-0.05,8.72-3.72,9.59-8.06c0.81-4.4-2.09-7.86-6.53-7.81
							c-4.48,0.11-8.77,3.72-9.58,8.12C481.24,442.55,484.15,446.06,488.63,445.96z M483.36,438.19c0.71-3.71,4.33-6.74,8.06-6.83
							c3.74-0.09,6.2,2.84,5.49,6.55c-0.72,3.65-4.33,6.74-8.08,6.77C485.1,444.78,482.65,441.84,483.36,438.19z"/>
					</g>
				</g>
				<path fill="#7E797D" d="M490.96,433.82c-2.36,0.05-4.65,1.98-5.1,4.3c-0.45,2.33,1.11,4.18,3.47,4.13
					c2.36-0.05,4.64-1.97,5.09-4.29C494.87,435.63,493.33,433.78,490.96,433.82z"/>
				<g>
					<g>
						<g>
							<path fill="#F39D61" d="M386.99,553.7c2.57-0.14,8.65-0.18,13.23,1.84c2.65-0.46,5.75-1.42,8-3.24L386.99,553.7z"/>
						</g>
						<g>
							<path fill="#FDC99D" d="M299.75,597.14c1.79,3.84,4.29,6.32,7.77,5.33c10.99-3.13,15.09,5.38,26.82,9.61
								c11.73,4.22,18.14,1.5,31.92-1.96c13.78-3.44,10.63-9.95,11.52-14.27c0.89-4.31,7.71-2.45,9.63-7.46
								c1.94-5-1.46-12.46-1.46-12.46s18.73,5.22,21.07-8.25c0.53-3.1-0.22-5.36-1.69-7.01c0.39,1.23,0.49,2.69,0.19,4.38
								c-2.34,13.47-21.07,8.25-21.07,8.25s3.41,7.46,1.46,12.46c-1.92,5.01-8.74,3.14-9.63,7.46c-0.89,4.31,2.26,10.83-11.52,14.27
								c-13.78,3.46-20.18,6.18-31.92,1.95s-15.83-12.73-26.82-9.6C303.41,600.57,301.38,599.38,299.75,597.14z"/>
						</g>
						<g>
							<path fill="#FCDABE" d="M407.77,548.22c-0.57,0.61-1.22,1.19-1.94,1.73c-0.11,0.11-0.22,0.22-0.32,0.29
								c-0.25,0.18-0.51,0.35-0.83,0.54c-0.14,0.1-0.32,0.2-0.47,0.3c-0.07,0.04-0.13,0.09-0.2,0.12c-0.18,0.11-0.33,0.22-0.51,0.33
								c-0.43,0.21-0.83,0.47-1.19,0.68c-0.03-0.03-0.03-0.03-0.03-0.03c-0.29,0.22-0.61,0.39-0.9,0.58h-0.04l-0.03,0.03
								c-0.54,0.22-1.04,0.43-1.51,0.64c-0.43,0.18-0.86,0.36-1.25,0.54c-0.39,0.18-0.79,0.36-1.15,0.51
								c-0.07,0.04-0.11,0.04-0.11,0.07l-0.07,0.03c-2.23,0.83-3.99,1.33-4.42,1.44c-0.03,0.03-0.07,0.03-0.07,0.03s0.25,0,0.64,0
								c0.43,0.04,1.04,0.08,1.76,0.08c-1.11,0.07-2.04,0.14-2.94,0.18c4.27,0.14,10.2,1.04,13.18,4.34l0.03,0.11l0.11,0.57
								c0,0.07,0.03,0.14,0.03,0.22c0.04,0.18,0.07,0.36,0.07,0.54c0.04,0.04,0.04,0.07,0.04,0.14c0.11,0.83,0.07,1.79-0.11,2.84
								c-0.14,0.97-0.43,1.83-0.76,2.59c-0.14,0.35-0.28,0.68-0.47,1c0,0-0.03,0.03-0.07,0.07c-0.14,0.35-0.35,0.68-0.6,0.97
								c-0.14,0.26-0.33,0.47-0.51,0.65c-0.18,0.22-0.39,0.47-0.61,0.64c-0.07,0-0.03,0.07-0.11,0.07c0,0.04-0.04,0.07-0.04,0.07
								c-0.07,0-0.11,0-0.11,0.04c-0.22,0.14-0.36,0.28-0.54,0.47c-0.07,0.03-0.11,0.07-0.14,0.14c0,0-0.07,0-0.11,0.04
								c0,0-0.03,0.04-0.07,0.04c-0.14,0.14-0.29,0.21-0.43,0.32c-0.14,0.11-0.29,0.18-0.43,0.22c-0.11,0.07-0.29,0.18-0.35,0.25
								l-0.18,0.03c-0.35,0.22-0.79,0.39-1.22,0.58c-0.18,0.03-0.32,0.11-0.54,0.18c-0.14,0.07-0.35,0.11-0.5,0.14
								c-0.11,0.07-0.14,0.11-0.25,0.11h-0.04l-1.26,0.29l-0.64,0.14c-0.18,0.04-0.39,0.04-0.61,0.04h-0.14c-0.03,0-0.03,0-0.11,0
								l-0.07,0.03c-0.07,0.03-0.18,0.03-0.25,0.03c-0.25,0.04-0.51,0.04-0.76,0.07h-1.22c-0.61,0-1.15-0.03-1.65-0.03h-0.32
								c-0.03,0-0.11-0.04-0.11-0.04c-0.72-0.03-1.33-0.07-1.9-0.18l-0.47-0.07l-0.32-0.07h-0.29c-0.04,0-0.04,0-0.04,0
								c-0.43-0.03-0.82-0.11-1.14-0.22c-0.04,0.04-0.07,0-0.14-0.03c-0.04,0-0.07,0-0.11-0.04h-0.14c-0.25,0-0.47-0.03-0.64-0.11
								l-0.07-0.03c-0.22-0.04-0.39-0.04-0.54-0.07c0.03,0.11,0.07,0.21,0.14,0.32c0,0.07,0.03,0.14,0.07,0.21
								c0.03,0.08,0.03,0.14,0.07,0.22c0.03,0.07,0.03,0.18,0.11,0.28c0.04,0.11,0.07,0.22,0.14,0.32c0.07,0.04,0.07,0.11,0.11,0.22
								c0.07,0.14,0.11,0.29,0.14,0.51l0.04,0.03l0.07,0.32c0.07,0.14,0.07,0.29,0.11,0.43c0.04,0.14,0.07,0.25,0.11,0.39
								c0.11,0.22,0.14,0.47,0.21,0.68c0,0,0,0.04,0.04,0.07c0.07,0.36,0.18,0.79,0.29,1.22c0,0.07,0,0.18,0.03,0.29
								c0.07,0.39,0.14,0.86,0.18,1.29c0.07,0.35,0.11,0.72,0.11,1.08c0,0.03,0,0.03,0,0.03c0.03,0.25,0.03,0.39,0.03,0.57
								c0,0.08,0,0.14-0.03,0.22c0,0.07,0.03,0.14,0.03,0.22c0,0.11,0,0.22-0.03,0.32v0.11c0.03,0.11,0.07,0.21,0.03,0.29
								c-0.03,0.35-0.07,0.57-0.14,0.93v0.11c-0.03,0.36-0.14,0.72-0.28,1.12c-0.04,0.18-0.11,0.35-0.18,0.54
								c-0.11,0.32-0.25,0.6-0.39,0.86c-0.14,0.25-0.32,0.47-0.5,0.72c-0.54,0.54-1.15,1-1.8,1.4c-0.29,0.14-0.61,0.33-0.93,0.43
								c-0.25,0.11-0.5,0.22-0.76,0.32c-0.28,0.07-0.54,0.18-0.79,0.26c-0.61,0.21-1.22,0.43-1.76,0.68
								c-0.29,0.11-0.54,0.22-0.79,0.36c-0.11,0.04-0.18,0.11-0.29,0.14c-0.11,0.07-0.22,0.14-0.32,0.25
								c-0.07,0.04-0.14,0.11-0.22,0.18c-0.07,0.11-0.18,0.18-0.29,0.28c-0.08,0.09-0.12,0.19-0.19,0.28
								c-0.28,0.35-0.46,0.77-0.6,1.3v0.03c-0.04,0.26-0.11,0.58-0.11,0.86c-0.11,0.83-0.11,1.73-0.14,2.66l0.04,0.07
								c-0.04,0.29-0.07,0.58-0.07,0.9c-0.03,0.32-0.07,0.68-0.11,1c-0.04,0.32-0.11,0.64-0.22,0.97c-0.07,0.32-0.18,0.64-0.32,0.97
								c-0.04,0.18-0.11,0.32-0.22,0.51c-0.07,0.14-0.14,0.32-0.22,0.47c-0.07,0.11-0.14,0.18-0.22,0.29
								c-0.14,0.22-0.32,0.43-0.47,0.68c-0.25,0.33-0.54,0.62-0.86,0.9c-0.18,0.18-0.36,0.32-0.54,0.47
								c-0.18,0.14-0.36,0.29-0.58,0.43c-0.28,0.22-0.57,0.43-0.93,0.57c-0.14,0.11-0.29,0.18-0.47,0.26
								c-0.25,0.14-0.5,0.28-0.79,0.43c-0.54,0.26-1.19,0.54-1.87,0.79c-0.35,0.11-0.68,0.21-1.04,0.32
								c-0.72,0.22-1.51,0.47-2.37,0.68c-0.5,0.14-0.97,0.25-1.4,0.39c-0.76,0.18-1.47,0.36-2.15,0.54l-0.36,0.07
								c-0.5,0.14-0.97,0.29-1.47,0.39c-0.47,0.14-0.93,0.25-1.4,0.36c-1.08,0.28-2.02,0.54-3.02,0.75
								c-1.9,0.47-3.66,0.87-5.35,1.12c-0.14,0.04-0.28,0.07-0.43,0.11c-0.86,0.11-1.69,0.22-2.55,0.29
								c-0.83,0.07-1.69,0.11-2.55,0.11c-3.45,0-7.01-0.6-11.27-2.15c-0.61-0.21-1.22-0.47-1.8-0.72c-0.43-0.14-0.83-0.32-1.18-0.5
								c-0.97-0.47-1.83-0.9-2.69-1.37c-0.43-0.26-0.87-0.47-1.26-0.72c-0.39-0.21-0.79-0.47-1.18-0.72
								c-0.22-0.14-0.39-0.25-0.58-0.36c-0.43-0.28-0.82-0.54-1.25-0.79c-0.14-0.11-0.29-0.18-0.43-0.29
								c-0.11-0.07-0.18-0.14-0.28-0.21c-0.36-0.26-0.76-0.51-1.15-0.72c-0.47-0.29-0.9-0.57-1.37-0.86
								c-0.47-0.25-0.9-0.54-1.37-0.79c-0.07-0.04-0.07-0.04-0.07-0.04c-0.35-0.22-0.68-0.39-1.04-0.54
								c-0.4-0.25-0.79-0.43-1.22-0.54c-0.14-0.11-0.33-0.14-0.47-0.22c-0.07,0-0.07,0-0.07,0v-0.03c-0.26-0.07-0.51-0.22-0.76-0.22
								c-0.36-0.11-0.72-0.22-1.08-0.29c-0.43-0.11-0.89-0.13-1.35-0.2c-0.57-0.09-1.17-0.11-1.76-0.1
								c-0.57,0.01-1.14-0.01-1.75,0.09c-0.82,0.14-1.72,0.32-2.69,0.57c-0.54,0.14-1.04,0.22-1.5,0.18c-0.18,0-0.36,0-0.51-0.03
								c-0.07,0-0.18-0.04-0.25-0.07c-0.11,0-0.25-0.04-0.32-0.04c-0.14-0.03-0.22-0.07-0.36-0.11c0,0-0.11-0.04-0.18-0.04
								c-0.07-0.03-0.18-0.07-0.26-0.07c-0.07,0-0.11-0.04-0.14-0.07c-0.07-0.04-0.11-0.07-0.18-0.14
								c-0.11-0.04-0.22-0.11-0.32-0.18c-0.07-0.04-0.14-0.07-0.18-0.11c-0.07,0-0.11-0.03-0.18-0.07
								c-0.07-0.07-0.18-0.14-0.25-0.22c-0.14-0.11-0.29-0.25-0.47-0.39c-0.22-0.22-0.43-0.39-0.61-0.64
								c-0.22-0.26-0.43-0.51-0.61-0.76c-3.8-8.26-7.75-15.51-7.75-15.51s9.12-8.62,19.67-21.08c8.58-10.09,8.44-18.78,14.18-22.83
								c6.11-1.58,43.67-11.71,48.37-19l-4.92,15.65c-0.18,0.07-0.39,0.14-0.6,0.22c-0.65,0.25-1.29,0.47-1.98,0.68
								c-0.58,0.18-1.12,0.35-1.69,0.54c-0.39,0.14-0.79,0.25-1.15,0.35c-1.22,0.36-2.37,0.68-3.41,0.93l-0.03,0.04
								c-0.43,0-0.76,0.03-1.15,0.11c-0.76,0.04-1.44,0.14-2.08,0.26c-1.69,0.25-3.01,0.64-3.55,1.11c0,0,0.72-0.14,1.97-0.29
								c0.18-0.03,0.39-0.07,0.65-0.07c0.68-0.11,1.47-0.22,2.4-0.29c1.33-0.11,2.88-0.18,4.52-0.25c0.58-0.08,1.08-0.08,1.69-0.08
								c0,0,0.11,0,0.18,0.04c1.04,0,2.15,0,3.23,0.07c0,0,0.04,0,0.11-0.03c0.03,0,0.03,0,0.11,0l0.07-0.04
								c1,0.07,2.01,0.18,3.05,0.29c0,0,22.01-3.3,33.24-0.47c1.04,0.28,2.02,0.61,2.84,1l-0.11,0.07l-0.07,0.03
								c0,0,0.07,0.11,0.22,0.29c0,0.03,0.03,0.07,0.07,0.11c0.25,0.22,0.5,0.61,0.79,1.08c0.07,0.14,0.14,0.29,0.25,0.43
								c0.07,0.14,0.14,0.29,0.22,0.47C409.93,542.8,410.36,545.49,407.77,548.22z"/>
						</g>
						<g>
							<path fill="#FDC99D" d="M360.46,537.11c1.5-0.14,3.01-0.23,4.51-0.32c0.87-0.01,1.75-0.02,2.57-0.02l1.04-0.05l0.7-2.37
								c-0.7,0.26-1.88,0.63-2.59,0.9C364.45,536.03,362.3,536.66,360.46,537.11z"/>
						</g>
						<g>
							<path fill="#FDC99D" d="M392.73,556.03c0,0,0.96,0.05,2.42,0.09c1.58-0.09,3.33-0.31,5.08-0.58c2.65-0.46,5.75-1.42,8-3.24
								c2.64-2.16,4.2-5.44,2.78-10.48c-0.4-1.41-1.58-2.51-3.3-3.3l-0.23,0.1c0,0,4.9,4.75,0.3,9.63
								C403.2,553.11,392.73,556.03,392.73,556.03z"/>
						</g>
					</g>
					<g>
						<path fill="#FDC99D" d="M353.63,538.61c0,0,0.73-0.15,1.99-0.3c0.16-0.03,0.39-0.09,0.62-0.08c0.69-0.09,1.48-0.19,2.41-0.28
							c1.32-0.1,2.88-0.2,4.52-0.25c0.57-0.07,1.1-0.06,1.68-0.07c0.06-0.01,0.12-0.03,0.18,0.02c1.06,0.01,2.17,0.01,3.24,0.07
							c0,0,0.05-0.01,0.11-0.02c0.06-0.01,0.06-0.01,0.12-0.03l0.05-0.01l0.03-0.95l-1.04,0.05c-0.82,0-1.7,0.01-2.57,0.02
							c-1.5,0.09-3.01,0.17-4.51,0.32l-0.05,0.01c-0.41,0.03-0.76,0.05-1.15,0.13c-0.75,0.04-1.44,0.12-2.06,0.26
							C355.49,537.75,354.17,538.15,353.63,538.61z"/>
					</g>
				</g>
				<path fill="#F05041" d="M108.18,669.66H283.5c-4.04-10.41-6.49-22.03-6.23-35.44c0.37-16.64,18.75-41.81,24.26-65.52
					c4.2-18.06-22.69-32.87-32.33-63.74c-4.48-14.37-17.36-52.35-38.89-73.91c-24.96-24.96-54.82-44.74-74.59-33.91
					c-6.28,1.4-11.63,10.02-11.63,10.02C117.04,433.78,48.96,517.3,98.64,645.9C101.82,654.11,105,661.93,108.18,669.66z"/>
				<g>
					<path fill="#DF1E2E" d="M158,537.77c0.48-3.82,9.72,97.29,93.63,91.21v17.03C251.63,646.01,142.18,663.03,158,537.77z"/>
				</g>
				<g>
					<path fill="#FCDABE" d="M192.58,669.66c-9.7-25.99-19.51-48.4-23.01-56.1c0,0-48.72-41.01-54.99,37.24
						c-0.51,6.34-0.2,12.63,0.44,18.86H192.58z"/>
				</g>
				<g>
					<path fill="#FCDABE" d="M281.91,669.66c32.36-56.78,60.08-114.93,44.83-117.61c-18.97-3.34-70.46,66.23-105.6,117.61H281.91z"
						/>
				</g>
				<g>
					<path fill="#9AD5C2" d="M188.29,601.94c-0.18,13.72-0.77,22.4-0.77,22.4c-43.74,43.09-82.04,43.38-82.04,43.38
						s-4.96-7.22-9.74-22.84C103.06,644.47,143.08,640.49,188.29,601.94z"/>
				</g>
				<g>
					<path fill="#DF1E2E" d="M188.29,601.94c-45.2,38.56-85.22,42.54-92.56,42.94c-6.28-20.61-12.22-55.85-5.84-108.32
						c5.07-41.7,11.46-65.16,25.54-79.06c17.26-17,48.34-6.64,56.84,16.05C187.19,513.47,188.76,570.71,188.29,601.94z"/>
				</g>
				<g>
					<g>
						<path fill="#29100E" d="M259.51,116.03c-3.22-0.49,34.81-39.59,112.72,11.36c77.91,50.95,61.22,233.51-22.26,292.94
							C349.97,420.34,415.88,139.68,259.51,116.03z"/>
					</g>
					<g>
						<g>
							<path fill="#9AD5C2" d="M210.68,442.45c-50.17-5.67-60.37-28.96-62.13-40.95c4.43-5,7.69-6.94,8.9-8.09
								c15.38,2.72,48.52,15.51,59.13,26.66c4.08,4.29,5.31,8.19,5.88,11.12C223.54,436.8,216.37,443.08,210.68,442.45z"/>
						</g>
						<g>
							<path fill="#FAC5A7" d="M159.53,315.72c0,0,0.53,60.96-4.03,77.97c-6.89,25.67,30.21,34.28,48.67,36.95
								c5.42,0.78,10.39-3.11,10.98-8.56l5.33-49.9L159.53,315.72z"/>
						</g>
						<g>
							<path fill="#F9CAB7" d="M187.46,340.06c27.15,58.85,55.72,88.05,75.56,102.35c-5.07-0.67-9.8-1.91-12.92-3.62
								c-19-10.47-54.05-38.23-86.98-109.63c-48.41-104.83-26.02-185.5,36.72-214.2c49.38-22.56,97.07-20.14,134.37,1.54
								c-32.73-10.71-70.86-8.53-110.04,9.36C161.45,154.56,139.06,235.23,187.46,340.06z"/>
						</g>
						<g>
							<path fill="#FCDABE" d="M389.84,299.58c0,0-10.14,16.31-17.15,49.31c-5.54,26.02,13.29,57.07-88.39,92.48
								c-5.1,1.78-13.59,2.05-21.28,1.04c-19.84-14.29-48.41-43.5-75.56-102.35c-48.41-104.83-26.02-185.5,36.72-214.2
								c39.17-17.89,77.31-20.07,110.04-9.36c10.11,5.91,19.44,13.19,27.83,21.79C362.05,138.29,431.06,201.89,389.84,299.58z"/>
						</g>
						<g>
							<path fill="#5F1E0E" d="M401.55,283.84c0,0-22.52-47.87-51.55-47.87c0,0-4.65-0.15-3.69,5.08
								c0.95,5.23,24.43,0.23,52.78,46.15L401.55,283.84z"/>
						</g>
						<g>
							<path fill="#CB8E63" d="M208.4,240.21c0,0,50.38-33.9,81.66-16.64c0,0,5.1,2.62,1.21,7.22c-3.88,4.6-26.46-14.31-82.04,14.21
								L208.4,240.21z"/>
						</g>
						<g>
							<path fill="#F49A54" d="M302.47,335.88c0,0-7.43,12.49,0.79,18.26c6.38,4.48,19.93-0.68,23.3,3.14c0,0,5.27,4.81-0.78,13.32
								c-6.05,8.52-21.73,19.05-21.73,19.05s21.96-17.7,20.39-24.64c-1.57-6.95-16.69-3.47-21.62-6.17
								C297.88,356.16,292.16,344.17,302.47,335.88z"/>
						</g>
						<g>
							<path fill="#FFFFFF" d="M279.06,266.84c10.02,1.85,17.42,10.34,18.2,20.5c1.08,14.06,0.05,37.22-16.24,48.08
								c-24.28,16.18-44.37-15.54-46.9-24.64c-2.53-9.1,0.38-39.08,17.57-42.62C261.24,266.19,270.8,265.32,279.06,266.84z"/>
						</g>
						<g>
							<path fill="#FFFFFF" d="M374.24,316.81c0,0,16.07-43.4-18.21-36.43s-41.79,50.89-32.14,62.14
								C333.52,353.77,353.35,354.31,374.24,316.81z"/>
						</g>
						<g>
							<path fill="#F58A72" d="M326.02,303.15c31.27-22.25,50.63,9.1,50.63,9.1s7.33-32.98-11.13-42.52
								C340.94,256.95,326.02,303.15,326.02,303.15z"/>
						</g>
						<g>
							<path fill="#F58A72" d="M235.55,283.39c36.48-19.77,62.23,10.35,62.23,10.35s4.39-30.2-18.17-40.11
								C249.57,240.36,235.55,283.39,235.55,283.39z"/>
						</g>
						<g>
							<g>
								<g>
									<path fill="#611B13" d="M257.93,315.23c-4.19,6.17-3.03,14.27,2.59,18.08c5.62,3.81,13.57,1.91,17.76-4.26
										c4.19-6.17,3.03-14.26-2.59-18.08C270.06,307.16,262.11,309.06,257.93,315.23z"/>
								</g>
								<g>
									<path fill="#1D1D1B" d="M269.4,329.81c1.65-0.58,3.7-2.3,4.52-5.4c0.55-2.04,0.35-4.16-0.51-5.81
										c-0.45-0.88-1.3-2-2.72-2.38c-0.76-0.2-1.52-0.16-2.34,0.12c-1.64,0.58-3.7,2.3-4.51,5.4c-0.54,2.05-0.36,4.16,0.51,5.82
										c0.45,0.88,1.29,2.01,2.71,2.38C267.82,330.14,268.58,330.1,269.4,329.81z"/>
								</g>
							</g>
							<g>
								<path fill="#FFFFFF" d="M272.51,313.14c0,2.59,2.09,4.69,4.68,4.69c2.59,0,4.68-2.09,4.68-4.69c0-2.58-2.09-4.68-4.68-4.68
									C274.6,308.46,272.51,310.56,272.51,313.14z"/>
							</g>
						</g>
						<g>
							<g>
								<g>
									<path fill="#611B13" d="M334.55,326.32c-3.97,5.84-2.86,13.52,2.46,17.14c5.33,3.62,12.87,1.81,16.84-4.04
										c3.97-5.85,2.86-13.52-2.46-17.14C346.06,318.66,338.52,320.46,334.55,326.32z"/>
								</g>
								<g>
									<path fill="#1D1D1B" d="M345.43,340.14c1.56-0.55,3.51-2.19,4.29-5.13c0.51-1.93,0.33-3.93-0.49-5.51
										c-0.43-0.83-1.23-1.9-2.57-2.25c-0.72-0.2-1.44-0.16-2.22,0.12c-1.56,0.54-3.5,2.18-4.27,5.12
										c-0.52,1.94-0.34,3.95,0.48,5.52c0.43,0.83,1.23,1.9,2.57,2.25C343.93,340.45,344.66,340.41,345.43,340.14z"/>
								</g>
							</g>
							<g>
								<circle fill="#FFFFFF" cx="352.81" cy="324.34" r="4.44"/>
							</g>
						</g>
						<g>
							<g>
								<path fill="#FCD1AC" d="M177.88,256.7c0,0-17.5-37.36-36.1-22.21c-18.6,15.14-24.07,69.66,3.28,82.79
									C172.41,330.41,178.97,291.03,177.88,256.7z"/>
							</g>
							<g>
								<path fill="#F49A54" d="M146.01,258.19c17.98,1.18,21.71,24.13,12.88,37.14c-8.84,13.01-17.58-2.07-17.58-2.07
									s14.03,10.81,17.97-9.25c0.65-3.32,0.68-6.2,0.35-8.77c-0.09,0.28-0.12,0.51-0.24,0.81c-2.37,6.76-16-2.87-16-2.87
									c10.2,3.28,13.74-1.31,14.79-3.41C154.52,261.07,146.01,258.19,146.01,258.19z"/>
							</g>
						</g>
						<g>
							<ellipse fill="#FBC3AE" cx="233.68" cy="356.27" rx="20.83" ry="12.32"/>
						</g>
						<g>
							<path fill="#FBC3AE" d="M331.72,368c-3.27,5.97,2.06,15.19,11.91,20.59c9.85,5.4,20.49,4.94,23.76-1.03
								c3.27-5.97-2.06-15.18-11.91-20.59C345.62,361.58,334.99,362.04,331.72,368z"/>
						</g>
						<g>
							<path fill="#FFFCFD" d="M313.34,396.21c-2.2,5.93-5.29,13.91-8.33,20.08c-0.63-0.5-1.44-0.91-2.15-1.28
								c-1.27-0.59-2.37-1-2.37-1c-46.78-11.31-43.57-36.69-43.57-36.69c1.31,5.61,32.91,22.13,52.45,19.53
								C310.84,396.66,312.16,396.43,313.34,396.21z"/>
						</g>
						<g>
							<path fill="#F49A54" d="M323.62,390.78c0,0.91-0.85,3.6-10.28,5.43c-1.18,0.22-2.5,0.45-3.97,0.64
								c-19.54,2.6-51.14-13.92-52.45-19.53c0,0-3.21,25.38,43.57,36.69c0,0,1.1,0.41,2.37,1c0.72,0.37,1.52,0.78,2.15,1.28
								c1.1,0.77,1.69,1.73,0.85,2.6c-0.21,0.23-1.01,0.23-2.24,0.05c-1.06-0.23-2.46-0.54-4.1-1.05c-1.06-0.32-2.2-0.73-3.47-1.19
								c-17.39-6.16-39.3-15.33-41.03-41.71c0,0,0.89,1.14,2.79,2.88c6.35,5.65,23.9,17.57,56.55,13.83c0.16,0,0.38,0,0.59-0.05
								c0.09,0,0.21-0.05,0.34-0.05c0.8-0.09,1.65-0.18,2.5-0.32c3.34-0.45,4.18-0.41,4.18-0.28c0.38-0.14,0.89-0.32,1.61-0.55
								C323.58,390.45,323.62,390.55,323.62,390.78z"/>
						</g>
					</g>
					<g>
						<path fill="#29100E" d="M316.2,108.17c0,0-114.25-54.81-178.73,89.71c-19.16,42.95-21.16,91.89-7.13,136.78
							c10.51,33.61,31.83,70.06,73.93,96.97C204.26,431.63,172.61,209.3,316.2,108.17z"/>
					</g>
					<g>
						<path fill="#5F1E0E" d="M334.18,159.61c0,0,77.34,56,80,134.67c0,0,44.01-205.34-88.01-189.34L334.18,159.61z"/>
					</g>
					<g>
						<path fill="#29100E" d="M248.72,213.3c0,0-61.76,89.55-23.16,171.38c0,0-77.2-43.23-6.18-169.83L248.72,213.3z"/>
					</g>
					<g>
						<path fill="#5F1E0E" d="M171.77,172.43l-18.92,87.94c0,0,206.03-98.48,182.98-141.78c-7.2-13.53-22.31-22.31-40.53-26.46
							C239.27,79.34,183.85,116.24,171.77,172.43z"/>
					</g>
					<g>
						<path fill="#5F1E0E" d="M352.59,145.83c0,0-25.14,152.26-199.74,148.06c0,0,67.05-89.4,54.47-139.68
							C194.75,103.92,345.61,99.74,352.59,145.83z"/>
					</g>
					<g>
						<g>
							<path fill="#4D978D" d="M453.64,315.76c-0.7-0.07-1.32,0-1.85,0.25c-2.51,1.18-3.16,7.75-5.95,8.39
								c-2.68,0.59-6.13-5.01-8.98-5.01c-2.85,0-6.3,5.6-8.98,5.01c-2.78-0.63-3.48-7.2-5.95-8.39c-2.54-1.22-8.07,2.29-10.27,0.55
								c-2.19-1.74,0.04-7.93-1.7-10.13c-1.74-2.19-8.28-1.39-9.5-3.93c-1.21-2.47,3.48-7.1,2.86-9.84
								c-0.63-2.69-6.86-4.81-6.86-7.66c0-2.89,6.22-5.02,6.86-7.7c0.62-2.74-4.07-7.37-2.86-9.84c1.22-2.54,7.76-1.78,9.5-3.93
								c1.74-2.19-0.49-8.39,1.7-10.13c2.2-1.75,7.73,1.77,10.27,0.55c0.7-0.35,1.25-1.08,1.74-2.02c0.03,2.23,0.32,4.69-0.66,5.92
								c-1.74,2.19-8.28,1.39-9.5,3.93c-1.21,2.5,3.49,7.1,2.86,9.88c-0.62,2.68-6.86,4.8-6.86,7.66c0,2.85,6.23,4.98,6.86,7.66
								c0.63,2.78-4.07,7.37-2.86,9.88c1.22,2.54,7.76,1.74,9.5,3.93c1.74,2.15-0.49,8.35,1.71,10.13
								c2.19,1.74,7.72-1.81,10.27-0.59c2.47,1.21,3.16,7.76,5.94,8.39c2.69,0.62,6.13-4.98,8.98-4.98
								C451.1,313.75,452.35,314.69,453.64,315.76z"/>
						</g>
						<g>
							<path fill="#58AEA2" d="M470.41,292.66c-0.62,2.74,4.07,7.37,2.86,9.84c-1.22,2.54-7.76,1.78-9.5,3.93
								c-0.97,1.22-0.7,3.69-0.66,5.92c0.04,1.81-0.07,3.45-1.04,4.21c-0.34,0.25-0.73,0.39-1.21,0.45h-0.03
								c-1.95,0.24-4.94-1.08-7.17-1.25c-1.29-1.08-2.54-2.02-3.72-2.02c-2.86,0-6.3,5.6-8.98,4.98c-2.78-0.62-3.47-7.17-5.94-8.39
								c-2.55-1.22-8.08,2.33-10.27,0.59c-2.19-1.77,0.03-7.97-1.71-10.13c-1.74-2.19-8.28-1.39-9.5-3.93
								c-1.21-2.51,3.49-7.1,2.86-9.88c-0.62-2.68-6.86-4.81-6.86-7.66c0-2.86,6.23-4.98,6.86-7.66c0.63-2.78-4.07-7.38-2.86-9.88
								c1.22-2.54,7.76-1.74,9.5-3.93c0.98-1.22,0.7-3.69,0.66-5.92c0.8-1.46,1.42-3.34,2.26-4.66c0.56-0.87,1.15-1.53,1.95-1.71
								c1.57-0.35,3.41,1.42,5.26,2.96c1.29,1.08,2.53,2.02,3.72,2.02c2.86,0,6.3-5.57,8.98-4.98c2.78,0.63,3.48,7.2,5.95,8.39
								c2.54,1.22,8.08-2.3,10.26-0.55c2.19,1.74-0.03,7.93,1.71,10.13s8.28,1.39,9.5,3.93c1.21,2.47-3.48,7.1-2.86,9.84
								c0.63,2.68,6.86,4.81,6.86,7.7C477.26,287.86,471.04,289.98,470.41,292.66z"/>
						</g>
						<g>
							<path fill="#68C2BA" d="M449.34,256.42c-2.34,2.33-11.6-10.43-33.63-41.75c-15.2-21.61-123.01-58.08-193.82-72.17
								C193.94,8.39,330.24,59.45,359.3,71.66c45.96,43.25,16.36,27.32,70.32,60.65C493.41,171.73,451.63,254.09,449.34,256.42z"/>
						</g>
						<g>
							<path fill="#58AEA2" d="M359.3,71.66c-29.06-12.21-165.36-63.27-137.42,70.85c-31.91-6.37-56.34-8.21-61.39-2.09
								c0,0,12.77-147.3,149.63-90.48C331.28,58.71,347.23,65.81,359.3,71.66z"/>
						</g>
						<g>
							<g>
								<path fill="#91CCB9" d="M418.7,288.9c-1.12-2.78-1.39-5.42-1.42-8.11v-0.03c-0.14-4.42,0.38-8.84-0.94-13.78
									c-2.16-7.94-9.19-17.19-31.49-29.82c-3.69-2.09-7.8-4.28-12.36-6.51c-9.67-4.87-21.4-10.16-35.67-15.98
									c-5.01-2.06-9.99-3.83-14.92-5.39c-4.6-1.46-9.15-2.72-13.64-3.8c-20.46-4.87-40.12-6.05-58.49-5.22
									c-4.73,0.21-9.36,0.56-13.89,1.01c-18.69,1.81-35.84,5.39-50.95,8.7c-4.77,1.04-9.36,2.09-13.71,3.03
									c-18.69,4-33.26,6.43-42.42,2.29c-3.76-1.7-6.61-4.48-8.42-8.77c-2.67-6.3-3.76-12.56-3.68-18.69
									c0.07-5.15,0.91-10.16,2.33-14.96c1.15-3.86,2.65-7.55,4.45-10.99c7.24-13.82,19.46-24.26,33.93-30.8
									c4.7-2.2,9.65-3.93,14.72-5.26c6.99-1.81,13.85-3.44,20.53-4.87c6.99-1.46,13.82-2.71,20.43-3.79
									c12.91-2.09,25.19-3.38,36.85-4.04c5.39-0.32,10.62-0.49,15.73-0.53c18.27-0.14,34.93,1.43,50.11,4.28
									c4.69,0.83,9.26,1.85,13.68,2.96c21.22,5.29,39.18,13.15,54.28,22.2c5.95,3.55,11.45,7.31,16.49,11.17
									c13.68,10.41,24.22,21.61,32.08,31.98c4.46,5.92,8.08,11.59,10.86,16.7c2.36,4.35,3.93,9.22,4.8,14.37v0.11
									C454.2,253.55,425.14,305.19,418.7,288.9z"/>
							</g>
						</g>
						<g>
							<g>
								<path fill="#4D978D" d="M184.92,209.98c-4.77,1.04-9.36,2.09-13.71,3.03c-4.17-43.88,10.37-75.16,21.44-92.04
									c6.99-1.46,13.82-2.71,20.43-3.79C208.17,122.53,180.41,155.49,184.92,209.98z"/>
							</g>
						</g>
						<g>
							<g>
								<path fill="#4D978D" d="M157.4,131.1c-4.63,5.08-29.75,34.87-28.6,84.2c-3.76-1.7-6.61-4.48-8.42-8.77
									c-2.67-6.3-3.76-12.56-3.68-18.69c1.53-9.64,3.97-18.31,6.78-25.96C130.71,148.08,142.93,137.64,157.4,131.1z"/>
							</g>
						</g>
						<g>
							<g>
								<path fill="#4D978D" d="M249.76,200.27c-4.73,0.21-9.36,0.56-13.89,1.01c-4.56-39.84,7.31-73.08,14.06-88.14
									c5.39-0.32,10.62-0.49,15.73-0.53C262,119.61,244.6,155.94,249.76,200.27z"/>
							</g>
							<g>
								<path fill="#4D978D" d="M266.32,111.4c0,0,0,0.03-0.03,0.03l-6.02-3.48L266.32,111.4z"/>
							</g>
						</g>
						<g>
							<g>
								<path fill="#4D978D" d="M329.45,119.85l-7.55,89.43c-4.6-1.46-9.15-2.72-13.64-3.8l7.52-88.6
									C320.46,117.73,325.03,118.74,329.45,119.85z"/>
							</g>
						</g>
						<g>
							<g>
								<path fill="#4D978D" d="M384.84,237.16c-3.69-2.09-7.8-4.28-12.36-6.51c21.89-41.38,14.58-77.15,11.24-88.6
									c5.95,3.55,11.45,7.31,16.49,11.17C402.97,172.32,402.8,203.19,384.84,237.16z"/>
							</g>
						</g>
						<g>
							<g>
								<path fill="#4D978D" d="M447.97,216.28v0.11c-1.18,21.43-9.71,49.1-30.38,68.31l-0.31-3.91v-0.03
									c-0.14-4.42,0.38-8.84-0.94-13.78c23-28.22,17.78-70.75,15.97-81.78c4.46,5.92,8.08,11.59,10.86,16.7
									C445.53,206.26,447.1,211.12,447.97,216.28z"/>
							</g>
						</g>
					</g>
				</g>
			</g>
		</g>
	</g>
</g>
</svg>
