<?xml version="1.0" encoding="utf-8"?>
<!-- Generator: Adobe Illustrator 25.2.3, SVG Export Plug-In . SVG Version: 6.00 Build 0)  -->
<svg version="1.1" id="Layer_1" xmlns="http://www.w3.org/2000/svg" xmlns:xlink="http://www.w3.org/1999/xlink" x="0px" y="0px"
	 viewBox="0 0 576 576" enable-background="new 0 0 576 576" xml:space="preserve">
<g>
	<g>
		<defs>
			<path id="SVGID_1_" d="M576.16,288c0,159.05-128.94,288-288,288c-159.05,0-288-128.94-288-288c0-159.06,128.94-288,288-288
				C447.21,0,576.16,128.94,576.16,288z"/>
		</defs>
		<use xlink:href="#SVGID_1_"  overflow="visible" fill="#F9E3D9"/>
		<clipPath id="SVGID_2_">
			<use xlink:href="#SVGID_1_"  overflow="visible"/>
		</clipPath>
		<g clip-path="url(#SVGID_2_)">
			<path fill="#DE9279" d="M189.26,691.88C240.83,638.33,249,519.83,249,519.83s-73.83-5.01-113.64,62.72
				c-8.5,14.46-13.53,28.1-16.2,40.62c-10.7,6.62-33.13,29.16-50.9,68.72H189.26z"/>
			<path fill="#D0D5CF" d="M415.21,686.65c0.31,1.77,0.71,3.48,1.05,5.23h14.86c3.86-58.5,3.63-111.86,1.23-147.72
				c-1.97-29.63-30.45-49.17-59.69-61.95c-0.05,0-0.05,0-0.05,0c-15.27-4.9-26.17-5.42-26.17-5.42s-3.89,143.2,53.54,199.05
				C405.94,681.65,410.99,685.01,415.21,686.65z"/>
			<path fill="#D0D5CF" d="M261.42,691.88c47.39-45.53,69.71-204.77,71.91-221.19c-1.49,7.73-10.76,45.62-53.06,44.56
				c0,0-26.75-1.44-30.79-43.17c-2.35,0.53-4.66,1.1-6.96,1.73l-0.05,0.05c-16.04,25.34-46.15,174.43-22.81,218.02H261.42z"/>
			<path fill="#F8A184" d="M261.42,691.88c47.39-45.53,69.71-204.77,71.91-221.19c0.14-0.91,0.19-1.39,0.19-1.39
				c1.87-13.21-71.41-26.37-91.01,4.51l-0.05,0.05c-16.04,25.34-46.15,174.43-22.81,218.02H261.42z"/>
			<path fill="#F8A184" d="M138.18,691.88c33.72-62.03,65-175.47,71.69-207.12c-27.71,11.38-49.61,26.32-59.21,39.76
				c-38.72,54.21-41.29,113.74-32.33,167.36H138.18z"/>
			<path fill="#F8A184" d="M415.21,686.65c0.31,1.77,0.71,3.48,1.05,5.23h105.71c-15.37-53.76-44.35-82.08-56.1-91.68
				c-1.49-13.4-5.14-28.24-12.25-44.33c-20.41-46.53-56.38-65.74-80.97-73.67c-0.05,0-0.05,0-0.05,0
				c-15.27-4.9-26.17-5.42-26.17-5.42s-3.89,143.2,53.54,199.05C405.94,681.65,410.99,685.01,415.21,686.65z"/>
			<path fill="#D0D5CF" d="M219.67,691.88c-23.34-43.59,6.77-192.68,22.81-218.02c-11.48,2.97-22.43,6.68-32.6,10.9
				c0,0-0.05,0.1-0.1,0.34c-0.05,0.1-0.05,0.24-0.1,0.38c-2.35,9.41-28.43,111.46-47.97,133.59c-14.64,16.6-36.03,37.61-39.2,72.81
				H219.67z"/>
			<path fill="#D0D5CF" d="M416.26,691.88c-0.34-1.75-0.75-3.46-1.05-5.23c-4.22-1.64-9.27-4.99-15.22-10.81
				c-57.43-55.85-53.54-199.05-53.54-199.05s10.9,0.53,26.17,5.42c-7.11-3.07-14.26-5.81-21.08-8.11c-5.9-2.02-11.91-3.6-18-4.8
				c0,0-0.05,0.48-0.19,1.39c-2.2,16.42-24.52,175.66-71.91,221.19H416.26z"/>
			<g>
				<path fill="#E85136" d="M149.77,691.88c1.71-5.2,3.15-11.02,4.1-17.69c6.71-47.58,12.21-116.3,17.09-89.87
					c2.67,14.37-1.81,61.94-2.79,107.56h64.81c-2.18-20.21-4.06-42.24-5-64.32c-3.26-76.44,4.73-153.2,50.82-155.42
					c23.51-1.12,35.86,18.4,41.32,48.14c0,0,40.13,32.63,5.86,171.6h45.92c7.01-40.85,10.28-84.82,3.18-104.64
					c-13.45-37.57,15.29-5.6,15.29,20.41c0,16.87-5.14,56.14-2.26,84.23h39.29c1.29-75.39-5.78-221.09-78.94-252.34
					c-98.99-42.29-207.15,0-212.66,119.82c-2.83,61.72-7.7,105-11.75,132.52H149.77z"/>
				<path fill="#AB2625" d="M168.16,691.88c0.99-45.62,5.46-93.19,2.79-107.56c-4.88-26.43-10.38,42.29-17.09,89.87
					c-0.95,6.67-2.38,12.49-4.1,17.69H168.16z"/>
				<path fill="#AB2625" d="M232.97,691.88c-2.18-20.21-4.06-42.24-5-64.32c-7.43,8.45-6.79,36.28-5.29,64.32H232.97z"/>
				<path fill="#AB2625" d="M371.88,691.88h16.21c-2.88-28.1,2.26-67.36,2.26-84.23c0-26.01-28.74-57.97-15.29-20.41
					C382.16,607.07,378.89,651.03,371.88,691.88z"/>
				<path fill="#AB2625" d="M408.67,612.51c0,0,6.01-145.29-99.35-161.64v0.05c-10.4-3.5-22.58-5.49-37-5.23
					c-98.92,1.76-88.84,109.54-88.84,109.54s12.53-114.83,95.64-98.98c83.11,15.86,88.6,89.29,88.6,89.29s1.34-39.24-21.37-68.53
					C370.13,495.83,398.41,534.25,408.67,612.51z"/>
				<path fill="#AB2625" d="M311.98,691.88h13.98c34.27-138.97-5.86-171.6-5.86-171.6C328.53,566.04,320.63,635.98,311.98,691.88z"
					/>
			</g>
			
				<rect x="242.51" y="403.07" transform="matrix(-1 -1.224647e-16 1.224647e-16 -1 565.26 922.1975)" fill="#F8A184" width="80.24" height="116.05"/>
			<path fill="#F47A4E" d="M179.79,260.43c-1.69-0.42-19.9-16.93-35.99,2.55c-16.09,19.47,1.27,68.59,13.98,73.67
				c12.7,5.08,23.28,1.27,24.56-2.12C183.61,331.14,179.79,260.43,179.79,260.43z"/>
			<path fill="#5D290D" d="M156.36,112.68c0,0-40.85,85.04,1.62,150.94l60.56-102.92L156.36,112.68z"/>
			<path fill="#F8A184" d="M211.67,117.88c46.72-42.89,116.29-42.89,163.01,0c44.96,41.27,54.01,105.26,52.57,156.42
				c1.44,46.82-12.5,103.7-57.46,141.47c-46.72,39.24-111.4,40.9-158.12,1.66c-44.96-37.76-54.01-96.31-52.57-143.12
				C157.66,223.15,166.71,159.15,211.67,117.88z"/>
			<path fill="#68423E" d="M315.54,301.82L315.54,301.82c7.38,0,13.36-5.98,13.36-13.36v-17.7c0-7.38-5.98-13.36-13.36-13.36l0,0
				c-7.38,0-13.37,5.98-13.37,13.36v17.7C302.18,295.84,308.17,301.82,315.54,301.82z"/>
			<path fill="#68423E" d="M177.45,301.82L177.45,301.82c7.38,0,13.37-5.98,13.37-13.36v-17.7c0-7.38-5.98-13.36-13.37-13.36l0,0
				c-7.38,0-13.36,5.98-13.36,13.36v17.7C164.09,295.84,170.08,301.82,177.45,301.82z"/>
			<path fill="#5D290D" d="M199.08,224.58l-1.1,13.81c0,0-13.9-3.7-33.69,2.66l-0.69-8.76C163.59,232.3,184.7,221.31,199.08,224.58z
				"/>
			<path fill="#5D290D" d="M297.23,224.58l1.1,13.81c0,0,13.9-3.7,33.69,2.66l0.7-8.76C332.72,232.3,311.61,221.31,297.23,224.58z"
				/>
			<g>
				<path fill="#68423E" d="M244.21,394.74c28.03,0.22,47.7-26.53,45.69-32.81c-0.91-3.47-6.33-2.03-14.55,0.26
					c-8.18,2.24-19.13,5.28-31.14,5.06c-13.77,0.27-26.12-3.79-34.54-5.98c-6.29-1.68-10.37-2.33-11.15,0.66
					C196.52,368.22,216.18,394.96,244.21,394.74z"/>
				<path fill="#FFFCFD" d="M209.67,361.27l2.84,17.07c28.14,14.68,61.55-0.63,61.55-0.63l1.29-15.52
					c-8.18,2.24-19.13,5.28-31.14,5.06C230.44,367.51,218.09,363.46,209.67,361.27z"/>
			</g>
			<path fill="#5D290D" d="M281.92,188.72c9.56,1.57,52.69,16.81,113.39,3.6l25.92,87.3c0,0,32.37-110.11,10.16-140.12
				s-36.09-27.61-36.09-27.61s11.48-22.81-7.73-33.62c-19.21-10.81-129.4-37.22-178.75,0S139.49,88.9,139.49,88.9
				S132.61,164.26,281.92,188.72z"/>
			<polygon fill="#5D290D" points="395.31,192.31 395.31,289.65 423.03,291.04 427.39,188.15 			"/>
			<path fill="#F47A4E" d="M402.43,277.4c-0.09-9.03,5.32-17.24,13.72-20.57c7.98-3.16,18.04-3.96,26.4,6.15
				c16.09,19.47-1.27,68.59-13.97,73.67c-12.7,5.08-19.13-0.1-21.85-2.49C402.24,330.19,402.62,296.75,402.43,277.4z"/>
			<path fill="#F47A4E" d="M243.14,307.92h-28.4C214.75,307.92,226.16,333.44,243.14,307.92z"/>
			<g>
				<path fill="#713317" d="M381.63,136.76c0,0-165,38.42-225.22-28.82c0,0,62.62,14.41,95.55-9.6
					C284.88,74.33,355.84,52.17,381.63,136.76z"/>
				<path fill="#713317" d="M419.03,181.55c3.42,0.85,10.32-70.84-47.31-55.63C371.72,125.92,352.94,165.15,419.03,181.55z"/>
			</g>
		</g>
	</g>
</g>
</svg>
