<?xml version="1.0" encoding="utf-8"?>
<!-- Generator: Adobe Illustrator 25.2.3, SVG Export Plug-In . SVG Version: 6.00 Build 0)  -->
<svg version="1.1" id="Layer_1" xmlns="http://www.w3.org/2000/svg" xmlns:xlink="http://www.w3.org/1999/xlink" x="0px" y="0px"
	 viewBox="0 0 576 576" enable-background="new 0 0 576 576" xml:space="preserve">
<g>
	<g>
		<defs>
			<circle id="SVGID_1_" cx="288.21" cy="288.76" r="287.79"/>
		</defs>
		<use xlink:href="#SVGID_1_"  overflow="visible" fill="#F9E3D9"/>
		<clipPath id="SVGID_2_">
			<use xlink:href="#SVGID_1_"  overflow="visible"/>
		</clipPath>
		<g clip-path="url(#SVGID_2_)">
			<path fill="#FEC449" d="M399.54,348.11c0,92.92-75.32,168.24-168.24,168.24c-92.91,0-168.23-75.32-168.23-168.24
				s75.32-168.24,168.23-168.24C324.22,179.88,399.54,255.2,399.54,348.11z"/>
			<path fill="#FEC449" d="M475.6,358.25c0,95.49-77.4,172.88-172.88,172.88s-172.88-77.4-172.88-172.88
				c0-95.47,77.4-172.88,172.88-172.88S475.6,262.78,475.6,358.25z"/>
			<path fill="#F0906B" d="M377.43,643.09c-7.67,0-15.18-3.03-20.77-8.68l-143.85-145.8c-11.32-11.47-11.19-29.93,0.27-41.24
				c11.47-11.32,29.93-11.19,41.24,0.27l130.65,132.41l182.59-67.36c15.11-5.57,31.87,2.16,37.45,17.27
				c5.58,15.1-2.15,31.87-17.26,37.45l-200.23,73.87C384.23,642.5,380.82,643.09,377.43,643.09z"/>
			<path fill="#FBAE53" d="M208.3,352.8c0,74.43,55.68,134.77,124.36,134.77c68.68,0,124.35-60.33,124.35-134.77
				s-55.68-134.77-124.35-134.77C263.97,218.02,208.3,278.36,208.3,352.8z"/>
			<circle fill="#FBAE53" cx="240.86" cy="371.41" r="120.04"/>
			<path fill="#CB3D27" d="M313.21,583.84c-9.03,0-18.06-3.48-24.9-10.42l-79.65-80.72c-13.57-13.76-13.42-35.92,0.33-49.49
				c13.75-13.57,35.91-13.43,49.49,0.33l79.65,80.72c13.57,13.76,13.43,35.92-0.33,49.49C330.97,580.48,322.1,583.84,313.21,583.84z
				"/>
			<path fill="#F8A17B" d="M628.61,535.94c-2.28,19.7-20.08,33.82-39.78,31.55c-19.7-2.27-33.82-20.07-31.55-39.77
				c2.27-19.7,20.07-33.82,39.77-31.55S630.88,516.25,628.61,535.94z"/>
			<path fill="#F8A17B" d="M572.84,529.38c-1.29,0-2.6-0.21-3.89-0.65c-6.25-2.15-9.58-8.95-7.43-15.2
				c15.67-45.63,42.65-62.29,43.78-62.98c5.66-3.41,13.02-1.58,16.42,4.08c3.4,5.63,1.6,12.94-3.99,16.37
				c-0.55,0.35-21.05,13.8-33.58,50.29C582.45,526.26,577.81,529.38,572.84,529.38z"/>
			<path fill="#F8A17B" d="M595.74,519.69c-1.88,0-3.8-0.52-5.5-1.61c-4.78-3.05-6.18-9.38-3.13-14.17
				c20.4-31.97,81.34-48.83,83.92-49.53c5.47-1.48,11.11,1.74,12.59,7.21c1.48,5.47-1.74,11.1-7.21,12.58l0,0
				c-15.49,4.23-58.63,19.79-72.02,40.78C602.44,518.02,599.13,519.69,595.74,519.69z"/>
			<path fill="#F8A17B" d="M615.71,527.67c-2.18,0-4.38-0.7-6.25-2.13c-4.49-3.46-5.33-9.9-1.87-14.38
				c19.97-25.94,72.02-31.69,77.89-32.26c5.67-0.52,10.66,3.59,11.2,9.22c0.55,5.64-3.58,10.65-9.22,11.2
				c-13.51,1.33-51.26,8.3-63.61,24.35C621.83,526.29,618.79,527.67,615.71,527.67z"/>
			<path fill="#F8A17B" d="M619.88,548.18c-2.14,0-4.3-0.67-6.14-2.05c-4.54-3.4-5.46-9.83-2.06-14.36
				c22.25-29.71,68.88-24.78,70.86-24.55c5.63,0.64,9.68,5.72,9.04,11.35c-0.65,5.62-5.71,9.68-11.34,9.03
				c-0.62-0.07-37.03-3.72-52.15,16.47C626.08,546.76,623,548.18,619.88,548.18z"/>
			<path fill="#F0906B" d="M676.42,474.17c5.47-1.48,8.69-7.12,7.21-12.58c-0.13-0.47-0.33-0.89-0.51-1.33
				c-1.61,4.12-6.12,11.04-18.47,13.4c-17.85,3.4-39.13,19.04-43.04,24.92C639.98,486.07,665.3,477.2,676.42,474.17z"/>
			<path fill="#F0906B" d="M680.34,495.93c-15.99,1.43-41.17,13.96-46.57,18.54c-1.4,1.19-1.06,1.09,0.73,0.27
				c16.46-9.8,42.27-14.37,52.95-15.43c5.64-0.55,9.77-5.56,9.22-11.2c-0.03-0.26-0.1-0.5-0.15-0.75
				C694.56,490.65,690.14,495.06,680.34,495.93z"/>
			<path fill="#F0906B" d="M628.1,544.07c0.33-0.44,0.68-0.85,1.02-1.27c-9.6,0.37-21.46-1.69-29.38-7.39
				c-11.83-8.51-14.75-45.29,0-63.18c10.02-12.16,17.35-17.01,21.03-18.87c-3.69-4.62-10.27-5.94-15.47-2.81
				c-1.13,0.68-28.12,17.34-43.78,62.98c-0.21,0.61-0.33,1.22-0.43,1.83c-1.94,3.76-3.29,7.9-3.8,12.37
				c-2.28,19.7,11.81,37.91,31.55,39.77C618.54,570.3,627.44,544.94,628.1,544.07z"/>
			<path fill="#D74626" d="M267.16,706.11c22.76-55.04,50.28-88.92,57.78-105.3c7.77-16.95,3.65-44.47-11.67-66.34
				c-15.31-21.87-50.34-89.29-67.06-96.96c-33.67-15.43-61.79,12.63-82.63,43.26c-24.78,36.45-43.27,93.05-52.23,176.67
				c-1.71,15.97-3.2,32.28-4.54,48.67H267.16z"/>
			<path fill="#D74626" d="M327.84,583.98c0,46.27-35.24,83.77-78.73,83.77c-43.47,0-78.72-37.51-78.72-83.77
				c0-46.27,35.24-83.78,78.72-83.78C292.59,500.2,327.84,537.71,327.84,583.98z"/>
			<path fill="#F8A17B" d="M218.86,686.72c2.15,8.97,8.41,15.74,16.24,19.38h33.5l174.59-27.4c15.91-2.5,26.78-17.42,24.28-33.33
				s-17.42-26.81-33.33-24.29l-164.82,25.87l-34.61-144.78c-3.74-15.67-19.48-25.32-35.14-21.59
				c-15.66,3.74-25.32,19.47-21.58,35.14L218.86,686.72z"/>
			<path fill="#C93327" d="M149.15,706.11c1.19-24,2.72-50.76,4.72-80.52c9.72-144.82,67.07-181.76,67.07-181.76l-1.28-10
				c-22.07,3.94-40.98,24.76-56.08,46.94c-24.78,36.45-43.27,93.05-52.23,176.67c-1.71,15.98-3.22,32.28-4.56,48.67H149.15z"/>
			<path fill="#F0906B" d="M238,467.24c-2.77,0-5.58-0.46-8.35-1.43c-13.05-4.61-19.9-18.93-15.29-31.98l33.42-94.7
				c4.61-13.06,18.93-19.9,31.99-15.3c13.05,4.61,19.9,18.93,15.29,31.99l-33.42,94.7C258.01,460.81,248.33,467.24,238,467.24z"/>
			<path fill="#FEC449" d="M417.41,201.07c0,80.16-69.91,49.82-150.07,49.82c-39.61,0-70.59,79.46-96.78,53.73
				c-26.81-26.33-43.44-62.99-43.44-103.55c0-80.16,64.98-145.14,145.14-145.14S417.41,120.91,417.41,201.07z"/>
			<circle fill="#FEC449" cx="348.71" cy="216.24" r="111.56"/>
			<path fill="#FBAE53" d="M242.31,245.46c0,54.71,44.36,99.07,99.07,99.07s99.06-44.36,99.06-99.07s-44.35-99.07-99.06-99.07
				S242.31,190.75,242.31,245.46z"/>
			<path fill="#F8A17B" d="M286.34,127.1c49.87-2.37,101.57,1.17,111.47,28.24c9.91,27.06,2.48,63.54,7.43,88.24
				c4.96,24.71,30.97,49.42,19.82,76.49c-11.15,27.06-48.31,74.12-79.27,90.6c-30.97,16.47-78.03-8.24-107.76-25.89
				c-29.73-17.65-54.5-78.84-55.74-142.37C181.05,178.87,212.02,130.63,286.34,127.1z"/>
			<path fill="#F0906B" d="M403.39,200.32c0-15.58-0.62-31.46-5.58-44.98c-9.91-27.07-61.61-30.61-111.47-28.24
				c-10.4,0.5-19.92,1.89-28.66,4.06c0,1.27,0.01,2.52,0.07,3.75c-2.51-0.7-5.13-1.21-7.82-1.57
				c-48.12,15.42-68.65,57.13-67.64,109.07c0.17,8.81,0.81,17.58,1.84,26.19c19.73,0.63,42.83-6.79,63.46-22.11
				c23.43-17.39,38.11-40.76,41.19-62.01c13.8,8.53,31.28,14.25,50.59,17.71C363.07,206.43,385.37,206.52,403.39,200.32z"/>
			<path fill="#E17A5A" d="M240.66,359.33l-20.53,58.17c18.82-8.81,41.6-7.53,55.14-5.58l7.52-21.31l-3.77-20.9L240.66,359.33z"/>
			<path fill="#FEC449" d="M444.36,136.16c-9.16,51.18-53.81,61.34-104.99,52.18c-51.18-9.17-89.51-34.19-80.35-85.38
				c9.17-51.18,58.09-85.24,109.27-76.07C419.47,36.06,453.53,84.98,444.36,136.16z"/>
			<path fill="#F0906B" d="M368.54,392.81c-32.07,14.22-77.25-13.79-105.64-33.52c-28.39-19.73-48.72-82.53-45.42-145.99
				c1.68-32.3,11.43-60.04,30.37-79.27c-46.62,15.95-66.55,57.19-65.55,108.37c1.24,63.54,26.01,124.72,55.74,142.37
				c29.73,17.65,76.8,42.36,107.76,25.89c8.56-4.55,17.59-11.45,26.41-19.6C370.97,391.68,369.75,392.27,368.54,392.81z"/>
			<path fill="#FEC449" d="M281.33,136.57c18.78,25.3,3.67,68.32-33.73,96.07c-37.4,27.76-82.95,29.75-101.72,4.44
				s-3.67-68.32,33.72-96.07C217,113.26,262.55,111.27,281.33,136.57z"/>
			<path fill="#F0906B" d="M218.65,290.51c-1.56,16.03-23.2,22.56-39.24,21.01c-16.03-1.56-27.77-15.82-26.22-31.85
				c1.56-16.04,15.82-27.78,31.85-26.22C201.08,255,220.2,274.47,218.65,290.51z"/>
			<path fill="#010101" d="M310.33,268.12c0.67,9.91-3.78,18.28-9.95,18.69c-6.16,0.41-11.69-7.28-12.36-17.19
				c-0.67-9.91,3.79-18.28,9.95-18.69C304.14,250.51,309.67,258.21,310.33,268.12z"/>
			<path fill="#010101" d="M394.31,261.4c0.67,9.94-3.33,18.3-8.92,18.67c-5.6,0.38-10.67-7.38-11.34-17.31
				c-0.67-9.93,3.33-18.29,8.92-18.67C388.56,243.72,393.64,251.47,394.31,261.4z"/>
			<path fill="#FFFFFF" d="M304.32,264.26c0.27,4.04-1.36,7.43-3.64,7.58c-2.28,0.16-4.35-2.99-4.62-7.03
				c-0.27-4.04,1.36-7.43,3.64-7.59C301.98,257.08,304.05,260.23,304.32,264.26z"/>
			<path fill="#FFFFFF" d="M388.59,256.28c0.27,4.05-1.19,7.45-3.25,7.58c-2.08,0.14-3.98-3.03-4.25-7.08
				c-0.27-4.05,1.19-7.45,3.25-7.58C386.42,249.06,388.32,252.24,388.59,256.28z"/>
			<path fill="#E07E60" d="M348.75,264.97c9.68-2.07,11.24,22.27,19.89,31.37c8.64,9.1,10.72,27.29-10.64,28.51
				C336.65,326.08,328.25,269.39,348.75,264.97z"/>
			<path fill="#E88660" d="M349.38,263.3c8.63-2.65,12.8,16.06,21.03,24.88c8.23,8.83,10.98,27.29-8.23,29.69
				C342.98,320.28,331.09,268.92,349.38,263.3z"/>
			<path fill="#EF9173" d="M370.63,305.32c0,2.15-2.72,3.89-6.08,3.89c-3.35,0-6.07-1.74-6.07-3.89s2.72-3.89,6.07-3.89
				C367.91,301.43,370.63,303.17,370.63,305.32z"/>
			<path fill="#C17836" d="M285.67,235.5l-1.64-8.6c0.14-0.03,14.52-2.84,23.8-9.47l5.08,7.12
				C302.04,232.31,286.32,235.37,285.67,235.5z"/>
			<path fill="#C17836" d="M393.76,235.55c-8.32-0.83-18.61-8.76-19.76-9.66l5.4-6.89c3.57,2.8,10.87,7.4,15.24,7.84L393.76,235.55z
				"/>
			<path fill="#73251E" d="M359.94,339.83c-3.77-4.52-18.96-6.56-29.17,4.37c-10.21,10.94-10.21,27.7,2.18,30.62
				c12.4,2.92,21.87-4.38,24.79-11.66C360.66,355.86,363.58,344.19,359.94,339.83z"/>
			<path fill="#F0906B" d="M309.45,284.79c0,0-7.29,6.55-15.49,9.11c-7.79,2.42-21.69,3.28-21.69,3.28S298.51,310.3,309.45,284.79z"
				/>
			<path fill="#F0906B" d="M377.79,279.32c0,0,0.37,5.83,4.73,9.11c4.38,3.28,11.3,1.1,11.3,1.1S381.07,286.97,377.79,279.32z"/>
			<path fill="#F9AC8C" d="M296.74,313.48c0.17,4.02-6.01,7.55-13.78,7.87c-7.78,0.32-14.22-2.68-14.39-6.7
				c-0.16-4.02,6.01-7.55,13.79-7.87C290.13,306.46,296.57,309.46,296.74,313.48z"/>
			<path fill="#F9AC8C" d="M414.71,300.58c0.16,4.02-4.78,7.5-11.04,7.75c-6.27,0.26-11.48-2.79-11.65-6.82
				c-0.16-4.02,4.78-7.49,11.05-7.75C409.33,293.51,414.54,296.57,414.71,300.58z"/>
			<path fill="#E07E60" d="M191.78,270.81c0,0-15.55-5.35-22.36,6.8c-6.81,12.15,9.72,22.36,9.72,22.36s-10.2-9.23-2.92-18.47
				C183.51,272.27,191.78,270.81,191.78,270.81z"/>
			<path fill="#FFFFFF" d="M201.01,310.91c0,4.7-3.81,8.5-8.5,8.5c-4.7,0-8.51-3.81-8.51-8.5c0-4.7,3.82-8.5,8.51-8.5
				C197.2,302.4,201.01,306.21,201.01,310.91z"/>
			<path fill="#FFFFFF" d="M361.34,343c-0.26-1.27-0.72-2.35-1.4-3.18c-3.77-4.52-18.96-6.56-29.17,4.37
				c-0.11,0.12-0.21,0.25-0.32,0.38c1.92,1.17,5.94,2.73,13.93,3.03C351.61,347.87,357.49,345.34,361.34,343z"/>
			<path fill="#F8A17B" d="M459.13,680.92c-4.25,0-8.22-2.66-9.69-6.91c-1.85-5.35,0.98-11.2,6.34-13.04
				c43.49-15.03,67.92-38.45,68.16-38.69c4.06-3.95,10.55-3.85,14.5,0.21c3.95,4.06,3.85,10.55-0.21,14.5
				c-1.12,1.09-27.99,26.85-75.75,43.36C461.38,680.74,460.24,680.92,459.13,680.92z"/>
			<path fill="#F0906B" d="M489.69,650.05c24.13-7.88,42.96-21.79,49.32-26.85c-0.19-0.24-0.35-0.5-0.56-0.71
				c-3.95-4.06-10.44-4.16-14.5-0.21c-0.22,0.21-18.98,18.2-52.86,32.76C475.72,654.18,481.77,652.64,489.69,650.05z"/>
			<path fill="#F8A17B" d="M480.11,654.37c-3.69,0-7.26-1.99-9.08-5.48c-2.63-5.02-0.7-11.22,4.31-13.85
				c42.03-22.06,50.74-36.58,50.82-36.72c-0.12,0.2-0.16,0.31-0.16,0.31l18.41,9.05c-1.58,3.21-11.86,20.5-59.54,45.54
				C483.34,654,481.71,654.37,480.11,654.37z"/>
			<path fill="#F8A17B" d="M489.9,646.16c0,19.82-16.07,35.9-35.9,35.9c-19.82,0-35.9-16.08-35.9-35.9c0-19.83,16.08-35.9,35.9-35.9
				C473.83,610.26,489.9,626.33,489.9,646.16z"/>
			<path fill="#F8A17B" d="M434.34,645.02c-1.67,0-3.37-0.35-4.98-1.09c-6.01-2.77-8.64-9.87-5.88-15.87
				c11.27-24.52,51.66-42.72,56.23-44.71c6.06-2.65,13.11,0.12,15.75,6.18c2.65,6.05-0.12,13.1-6.17,15.75l0,0
				c-14.04,6.15-38.42,20.49-44.06,32.77C443.21,642.44,438.87,645.02,434.34,645.02z"/>
			<path fill="#F0906B" d="M480.86,632.06c1.75,0.01,3.76-0.04,6.08-0.2c25.03-1.7,43.95-11.61,51.88-16.48
				c1.62-1.83,2.82-3.38,3.7-4.62l-0.86-4.45l-2.35-1.15l-25.47,5.5C506.94,616.24,496.47,623.53,480.86,632.06z"/>
			<path fill="#F8A17B" d="M459.14,641.04c-3.97,0-7.74-2.32-9.42-6.18c-2.25-5.2,0.14-11.24,5.33-13.49
				c38.21-16.53,88.85-32.73,90.99-33.41c5.41-1.72,11.17,1.27,12.89,6.66c1.72,5.4-1.26,11.17-6.66,12.89
				c-0.52,0.16-51.82,16.57-89.07,32.69C461.88,640.77,460.5,641.04,459.14,641.04z"/>
			<path fill="#F0906B" d="M496.22,592.08c-3.27,3.17-9.8,8.75-19,13.07c-13.63,6.4-20.27,13.84-20.27,13.84s7.01-2.09,15.74-5.09
				c5.96-3.54,11.86-6.55,16.59-8.62C494.5,603,497.25,597.45,496.22,592.08z"/>
			<path fill="#010101" d="M291.16,265.46c0,0-7.29,0.49-10.94-2.92c-3.65-3.4-3.65-5.59-3.65-5.59s4.62,1.94,8.99,0.97
				c4.37-0.97,8.99-5.59,8.99-5.59L291.16,265.46z"/>
			<path fill="#F0906B" d="M235.1,706.11h33.5l171.36-26.9c4.32,1.84,9.07,2.85,14.04,2.85c7.33,0,14.14-2.2,19.81-5.97
				c40.64-16.34,63.39-38.09,64.42-39.09c1.7-1.66,2.67-3.77,2.97-5.95c-11.99,10.02-40.24,25.53-57.83,30.03
				c-20.9,5.35-37.42,2.43-50.06,1.95c-12.64-0.49-62.69,8.26-112.76,16.52c-50.06,8.26-75.33,6.32-80.19-4.86
				c-4.87-11.18-16.53-72.9-16.53-72.9l-28.45-13.23l23.47,98.17C221.01,695.7,227.28,702.47,235.1,706.11z"/>
			<path fill="#010101" d="M386.42,245.3c0,0,3.4,1.45,6.07,1.45s4.62-1.7,4.62-1.7s-2.43,5.59-5.11,6.81
				C389.34,253.07,386.42,245.3,386.42,245.3z"/>
			<path fill="#FFCE78" d="M332.01,78.23c-13.32,23.08-3.85,53.51,21.18,67.95c25.02,14.45,56.11,7.45,69.43-15.64
				c13.33-23.08,3.85-53.51-21.17-67.95C376.42,48.14,345.34,55.14,332.01,78.23z"/>
			<path fill="#E14B26" d="M222.33,610.92c-15.82,0-30.16-10.8-34.01-26.86l-16-66.97c-4.49-18.8,7.11-37.67,25.9-42.16
				c18.8-4.51,37.68,7.1,42.17,25.9l16,66.97c4.49,18.8-7.11,37.68-25.9,42.17C227.76,610.61,225.02,610.92,222.33,610.92z"/>
		</g>
	</g>
</g>
</svg>
