<?xml version="1.0" encoding="utf-8"?>
<!-- Generator: Adobe Illustrator 25.2.3, SVG Export Plug-In . SVG Version: 6.00 Build 0)  -->
<svg version="1.1" id="Layer_1" xmlns="http://www.w3.org/2000/svg" xmlns:xlink="http://www.w3.org/1999/xlink" x="0px" y="0px"
	 viewBox="0 0 576 576" enable-background="new 0 0 576 576" xml:space="preserve">
<g>
	<g>
		<defs>
			<path id="SVGID_1_" d="M577.18,287.85c0,158.97-128.88,287.85-287.85,287.85c-158.97,0-287.85-128.88-287.85-287.85
				C1.47,128.88,130.35,0,289.32,0C448.3,0,577.18,128.88,577.18,287.85z"/>
		</defs>
		<clipPath id="SVGID_2_">
			<use xlink:href="#SVGID_1_"  overflow="visible"/>
		</clipPath>
		<g clip-path="url(#SVGID_2_)">
			<path fill="#F9E3D9" d="M577.18,287.85c0,158.97-128.88,287.85-287.85,287.85c-158.97,0-287.85-128.88-287.85-287.85
				C1.47,128.88,130.35,0,289.32,0C448.3,0,577.18,128.88,577.18,287.85z"/>
			<g>
				<path fill="#21A2D7" d="M361.2,467.11c0,0-0.16,6.02-2.26,14.78c-2.06,8.5-6.07,19.58-13.78,30.13
					c-7.23,9.98-17.79,19.42-33.09,25.81c2.48-9.97,5.22-19.94,8.18-29.34c-33.25,32.13-82.01,31.97-106.13,24.8
					c-2.74-0.85-5.16-1.75-7.23-2.69c-11.66-5.49-15.09-15.51-15.09-25.33c0-3.33,0.37-6.6,1-9.71
					c-4.01,12.98-9.44,31.71-13.72,51.13c-4.17-0.79-6.48-1.53-6.48-2c0-2.22,2.26-40.05,3.06-52.3c0-0.37,0-0.74,0.05-1.06
					c0.1-1.74,0.16-2.74,0.16-2.74s5.7-3.27,17.15-7.44l0.27-0.1c1.21-0.37,2.58-0.85,3.96-1.32c0.16-0.06,0.37-0.16,0.58-0.22
					c0.05,0,0.11-0.05,0.11-0.05c0.47-0.16,0.95-0.26,1.37-0.42c3.96-1.32,8.45-2.64,13.46-4.01c0,0,0.05,0,0.1,0
					c0.47-0.11,1.06-0.26,1.53-0.37c0,0,0,0,0.05,0c3.59-0.95,7.33-1.9,11.4-2.75c11.98-2.59,26.07-4.9,42.32-6.33
					c9.4-0.84,19.47-1.42,30.29-1.53h0.05c10.19-0.21,21.05,0,32.56,0.58c2.74,0.16,5.54,0.32,8.39,0.53l12.5,1
					C354.98,466.43,358.09,466.75,361.2,467.11z"/>
				<path fill="#F6B185" d="M152.28,637.43c-4.36-1.9-10.24-1.69-17.03,0H152.28z"/>
				<path fill="#21A2D7" d="M185.55,637.43c3.67-8.58,7.14-17.27,10.27-26.04l-23.21-1.16c-2.06-16.83,1.48-40.68,6.48-63.54
					c4.28-19.42,9.71-38.15,13.72-51.13c-0.64,3.11-1,6.38-1,9.71c0,9.82,3.43,19.84,15.09,25.33c2.06,0.95,4.48,1.84,7.23,2.69
					c0.74-8.6,0.85-16.95,0.32-24.91c-0.69-10.87-2.53-21.06-5.81-30.35c0,0-1.05,0.05-2.95,0.32c-1.58,0.22-3.69,0.47-6.39,1
					c-0.42,0.05-0.9,0.16-1.32,0.21c-0.11,0.05-0.16,0.05-0.21,0.05c-0.21,0.05-0.37,0.05-0.53,0.11c-0.85,0.16-1.75,0.37-2.7,0.58
					h-0.05c-6.54,1.37-14.98,3.59-24.75,7.17c-2.32,0.85-4.64,1.8-7.07,2.8c-0.58,0.22-1.21,0.48-1.79,0.74
					c-16.26,6.86-34.99,17.31-53.51,33.2l-0.05,0.05c-19,16.35-37.73,38.47-53.24,68.23c-8.73,16.76-16.01,31.67-22.15,44.94H185.55
					z"/>
				<path fill="#F3B51B" d="M345.16,512.02c2.16,6.6,4.48,14.09,6.81,22.16c2.85,9.92,5.75,20.75,8.66,31.93
					c6.27,24.11,12.38,49.75,17.26,71.32h32.09c-3.56-26.83-6.85-62.07-10.35-93.27c-4.22-37.04-8.81-68.34-14.62-72.66
					c-1.69-1.27-7.76-2.8-15.3-3.69c-0.69-0.1-1.32-0.16-2.01-0.21c-2.05-0.26-4.17-0.37-6.33-0.48c-0.05-0.05-0.05-0.05-0.05-0.05
					l-0.11,0.05c-5.12,5.23-13.61,21.59-22.37,27.45c1.48,3.43,3.06,7.65,4.7,12.46C344.06,508.59,344.63,510.28,345.16,512.02z"/>
				<path fill="#F3B51B" d="M380.06,637.43c-5.13-42.86-10.17-107.97-15.95-151.79c-0.05-0.37-0.11-0.69-0.16-1.06v-0.05
					c-0.16-1.06-0.26-2.06-0.42-3.06c-0.26-1.96-0.58-3.85-0.85-5.7c-0.42-3.01-0.84-5.91-1.32-8.66v-0.16l-0.05,0.11l-0.11,0.05
					c-5.12,5.23-24.06,20.69-30.29,29.19c-3.33,4.49-6.86,8.55-10.66,12.19c-2.96,9.39-5.7,19.37-8.18,29.34
					c-9.76,39.53-15.46,78.52-15.46,78.52l-100.79-4.96l-23.21-1.16c-2.06-16.83,1.48-40.68,6.48-63.54
					c4.28-19.42,9.71-38.15,13.72-51.13c0.95-5.13,2.48-9.71,3.69-12.94c0.53-1.21,0.95-2.26,1.27-3.01c0-0.05,0.05-0.05,0.05-0.1
					c0.26-0.53,0.42-0.95,0.58-1.21c0.05-0.11,0.1-0.21,0.1-0.26c0.06-0.05,0.06-0.11,0.06-0.11c-7.76,1.32-14.57,2.9-20.06,4.38
					c-0.05,0-0.11,0-0.16,0.06c-3.01,1.42-5.91,3.11-8.6,5.11c-0.63,0.53-1.27,1-1.9,1.54l-0.1,0.05c-2.22,1.64-4.38,3.38-6.49,5.34
					c-2.96,2.64-5.86,5.54-8.66,8.7l-0.05,0.06c-0.95,1.16-1.9,2.26-2.9,3.48c-21.3,26.09-35.52,74.46-45.08,130.79H380.06z"/>
				<path fill="#21A2D7" d="M214.13,533.29c-2.74-0.85-5.16-1.75-7.23-2.69c-11.66-5.49-15.09-15.51-15.09-25.33
					c0-3.33,0.37-6.6,1-9.71c-4.01,12.98-9.44,31.71-13.72,51.13c-5.01,22.85-8.54,46.7-6.48,63.54l23.21,1.16l100.79,4.96
					c0,0,5.7-39,15.46-78.52c2.48-9.97,5.22-19.94,8.18-29.34C287.01,540.62,238.25,540.47,214.13,533.29z"/>
				<path fill="#F6B185" d="M333.7,375.79c-8.97,31.24-1.21,67.34-2.85,100.31c-83.43,74.31-115.88,39.32-126.78,17.63
					c-0.05-0.11-0.1-0.21-0.14-0.32l-4.63-12.25c-0.05-0.11-0.05-0.16-0.05-0.16s1.25-40.58-0.39-47.71
					C198.86,433.31,342.66,344.6,333.7,375.79z"/>
				<path fill="#F3B51B" d="M367.7,467.59l-5.01,8.18l-3.74,6.12l-15.41,25.12l-6.92,11.29c0,0-12.72-8.33-5.7-22.01
					c4.17-8.12,6.96-21.59,8.55-31.13c7.02,0.47,14.29,1.11,21.74,1.95l0.11-0.05l0.05-0.11v0.16
					C363.53,467.23,365.64,467.33,367.7,467.59z"/>
				<path fill="#F3B51B" d="M198.57,477.94l-39.48,23.17l-9.44,5.54l-0.37,0.21l14.52-19.79c0,0,0,0,0.05-0.05
					c0.63-0.21,5.96-2.32,14.51-4.64c0.05-0.06,0.11-0.06,0.16-0.06C184,480.84,190.81,479.26,198.57,477.94z"/>
				<g>
					<path fill="#AFC436" d="M365.16,115.06c-0.25,1.96,1.47,3.78,3.84,4.08c2.36,0.3,4.48-1.04,4.73-2.99
						c0.25-1.96-1.46-3.78-3.83-4.08C367.52,111.77,365.4,113.11,365.16,115.06z"/>
					<path fill="#AB3724" d="M395.25,320.12c0,0-7.26,41.48-39.06,62.22c-31.8,20.74,19.87-40.3,4.77-67.21
						C345.86,288.21,399.4,303.94,395.25,320.12z"/>
					<g>
						<path fill="#AB3724" d="M209.06,148.64c0,0-37.21,10.8-39.88,43.84s4.98,57.87,4.98,57.87L209.06,148.64z"/>
						<path fill="#F6B185" d="M308.6,400.61c-21.62,41.33-62.83,48.15-110.92,36.48c-11.55-6.39-20.82-16.48-22.1-32.19
							c-1.8-21.83-10.45-61.29-15.61-85.75c-4.72-22.31,24.22-158.43,24.22-158.43c76.18-80.06,141.13-52.09,180.6-13.67
							c-25.74,9.92-44.73,17.51-44.73,17.51s-2.57,31.93,14.16,48.34C350.94,229.31,385.78,253.1,308.6,400.61z"/>
						<path fill="#E39874" d="M378.58,340.51c-22.63,47.33-73.9,131.07-166.75,102.51c-4.86-1.48-9.67-3.42-14.15-5.92
							c48.09,11.66,89.3,4.84,110.92-36.48c77.19-147.51,42.34-171.3,25.61-187.71c-16.74-16.41-14.16-48.34-14.16-48.34
							s18.99-7.59,44.73-17.51c23.23,22.6,37.64,48.81,40.3,58.74C412.26,232.53,401.92,291.71,378.58,340.51z"/>
						<path fill="#FFFFFF" d="M168.6,251.67c-0.57,4.57-3.35,17.75,12.73,23.28c16.09,5.54,28.32-5.41,30.12-15.66L168.6,251.67z"/>
						<path fill="#FFFFFF" d="M253.23,266.83c0,0-2.7,16.91,15.04,21.68c17.75,4.76,32.05-3.75,38.12-15.55L253.23,266.83z"/>
						<g>
							<path fill="#66292E" d="M202.09,265.17c-0.98,6.41-6.62,10.86-12.6,9.95c-5.98-0.91-10.03-6.85-9.05-13.26
								c0.98-6.41,6.62-10.87,12.6-9.95C199.02,252.83,203.07,258.76,202.09,265.17z"/>
							<path fill="#29110C" d="M196.74,264.35c-0.49,3.24-3.34,5.49-6.37,5.03c-3.02-0.47-5.07-3.47-4.57-6.7
								c0.5-3.24,3.35-5.5,6.37-5.03C195.19,258.11,197.24,261.12,196.74,264.35z"/>
						</g>
						<g>
							<path fill="#66292E" d="M287.04,278.94c-0.98,6.41-6.62,10.87-12.6,9.95c-5.98-0.91-10.03-6.85-9.05-13.26
								c0.98-6.41,6.62-10.86,12.6-9.95C283.97,266.6,288.02,272.53,287.04,278.94z"/>
							<path fill="#29110C" d="M281.69,278.12c-0.49,3.24-3.35,5.49-6.37,5.03c-3.03-0.46-5.07-3.47-4.57-6.71
								c0.49-3.24,3.35-5.49,6.37-5.03C280.13,271.89,282.19,274.89,281.69,278.12z"/>
						</g>
						<path fill="#D57D56" d="M168.6,251.67c0,0,10.28-17.15,18.21-17.22c12.17-0.1,22.31,0.73,24.64,24.84L168.6,251.67z"/>
						<path fill="#D57D56" d="M253.23,266.83c0,0,3.69-26.58,30.87-18.26c26.1,8,22.3,24.38,22.3,24.38S261.07,267.15,253.23,266.83
							z"/>
						<polygon fill="#1D1D1B" points="248.82,262.65 253.23,266.83 306.39,272.95 306.54,271.26 						"/>
						<polygon fill="#1D1D1B" points="168.6,251.67 165.62,248.64 209.84,257.11 211.45,259.29 						"/>
						<path fill="#D65D54" d="M211.64,292.13c-3.54,3.97-17.94,23.61-15.19,30.51c2.74,6.9,21.75,10.05,33.94,9.35
							c12.19-0.7,11.16,5.95,15.14,1.48c3.98-4.46,6.25-14.01-2.85-16.77c0,0,5.57,7.74,1.59,12.38c-3.97,4.64-2.7-4.08-13.37-2.41
							c-10.67,1.67-30.22,2.26-31.84-4.36C197.46,315.71,211.64,292.13,211.64,292.13z"/>
						<path fill="#D65D54" d="M215.67,239.93c0,0,9.46,30.44-5.04,53.1c0,0,19.29-25.52,6.45-53.91L215.67,239.93z"/>
						<path fill="#AB3724" d="M221.06,227.81c0,0-0.05,0.3-0.17,0.79c-0.6,2.53-2.86,10.32-8.24,11.27
							c-6.43,1.12-30.41-14.29-46.2-8.22c-9.54,3.67-2.24-9.19,2.37-11.54C173.44,217.76,220.33,216.55,221.06,227.81z"/>
						<path fill="#AB3724" d="M259.32,221.35c0,0-2.29,3.56-2.42,4.06c-0.7,2.53-2.42,10.52,2.59,13.76
							c5.99,3.87,43.63-0.93,54.62,12.96c10.98,13.89,6.41-7.99,2.91-12.15S262.14,214.69,259.32,221.35z"/>
						<g>
							<path fill="#D65D54" d="M261.32,359.04c-12.72,4.21-37.03,10.13-59.45,4.55c-1.02-0.32-2.2-0.52-3.2-0.96
								c-2.95-0.79-5.76-1.69-8.59-3.14c0,0,0.3-10.03,2.76-8.79l0.68,6.04c0,0,2.41,0.83,6.64,1.98c0.66,0.11,1.42,0.38,2.33,0.54
								C215.06,362.03,238.76,365.68,261.32,359.04z"/>
							<path fill="#D65D54" d="M268.36,348.08c-1.69,0.97,7.17,1.06,6.52,8.3c-0.65,7.24-1.86,9.34-1.86,9.34s6.98-10.96,5.58-13.73
								C277.2,349.22,269.76,347.28,268.36,348.08z"/>
							<path fill="#894634" d="M262.26,376.56c-3.08,7.53-3.57,8.12-7.19,11.12c-8.34,6.86-55.34,6.18-54.39-0.53
								c0.28-2,0.58-10.21,0.85-14.73C211.26,375.89,232.73,381.56,262.26,376.56z"/>
							<path fill="#FFFFFF" d="M270.09,355.88c0,0-3.35,10.57-7.82,20.68c-29.53,5-51-0.67-60.74-4.14
								c0.25-3.73,0.33-7.21,0.35-8.82c22.42,5.58,46.73-0.35,59.45-4.55c1-0.36,2.14-0.7,3.14-1.06c1.86-0.62,3.17-1.19,4.17-1.55
								C269.65,356.07,270.09,355.88,270.09,355.88z"/>
						</g>
						<path fill="#AB3724" d="M385.99,278.69l-22.4-0.83c0,0,18.97-38.66-16.99-66.42c-35.96-27.76-130.43-52.98-155.09-14.9
							c0,0-3.84-21.5,23.45-32.23c24.8-9.75,171.99-25.08,177.22,76.7C392.7,251.22,388.52,266.08,385.99,278.69z"/>
						<path fill="#AB3724" d="M267.08,162.89c-4.95,2.84-48.11,22.32-50.86,46.13c0,0-7.12-42.06,20.89-46.1
							C265.12,158.88,267.08,162.89,267.08,162.89z"/>
						<path fill="#AB3724" d="M200.8,162.4c-1.28,1.77-14.69,11.83-17.18,28.69c0,0-12.62-17.75,2.06-29.28
							C200.37,150.27,200.8,162.4,200.8,162.4z"/>
						<path fill="#AB3724" d="M192.3,176.35c-7.12,4.94-56.03,14.56-62.37,11.83c-6.34-2.72,42.33-24.16,49.94-20.96
							C187.47,170.43,192.3,176.35,192.3,176.35z"/>
						<path fill="#2184AE" d="M378.26,218.01c1.94,2.42,2.93,3.81,2.93,3.81c-1.75,2.81-3.7,5.32-5.91,7.46
							c-1,3.53-1.67,5.51-1.67,5.51c-1.6,0.79-3.16,1.21-4.71,1.38c21.29,4.57,28.67,14.72,39.78,9.36c0,0,53.7-158.06-64.86-189.04
							c-4.93-1.31-9.76-2.42-14.48-3.37C401.16,86.96,387.42,179.85,378.26,218.01z"/>
						<path fill="#21A2D7" d="M163.44,163.94c0,0,3.02,1.43,8.43,3.77c0.57,0.31,1.14,0.56,1.82,0.87
							c4.73,2.09,10.92,4.8,18.25,7.96c1.51,0.66,3.12,1.32,4.73,2.03c7.93,0.26,16.08,0.97,24.07,2.32
							c19.72,3.07,38.58,9.83,51.63,22.33c3.19,3.09,6.37,5.92,9.6,8.59c4.42,1.52,8.83,3.05,13.3,4.52
							c10.86,3.66,21.77,7.05,32.41,10.08c10.44,2.93,20.57,5.51,30.22,7.56c2.85,0.6,5.6,1.15,8.35,1.65
							c0.89,0.15,1.77,0.35,2.6,0.55c0.05,0,0.05,0,0.05,0c1.56-0.16,3.11-0.59,4.71-1.38c0,0,0.66-1.98,1.67-5.51
							c2.21-2.14,4.17-4.65,5.91-7.46c0,0-1-1.39-2.93-3.81c9.16-38.16,22.9-131.05-48.93-164.89
							c-93.8-19.33-143.4,24.05-160.29,82.64c-1.46,5.09-2.67,10.28-3.67,15.57C164.52,155.49,163.92,159.64,163.44,163.94z"/>
						<path fill="#EF4528" d="M131.65,188.61c0.41-0.41,0.81-0.93,1.21-1.65c1.5-2.87,25.79-8.36,54.78-8.54
							c2.95-0.01,6.03,0.03,9.05,0.14c7.93,0.27,16.07,0.96,24.02,2.36c19.73,3.04,38.59,9.79,51.63,22.32
							c1.27,1.23,2.55,2.4,3.75,3.51c4.46-0.87,9.13-1.45,13.88-1.77c30.8-2.11,25.81-22.74,15.82-40.13
							c-12.04-5.26-25.67-9.85-40.77-13.15c-27.52-5.89-60.1-7.68-98.1-1.49c0,0-0.54,0.41-1.56,1.12
							c-2.46,1.67-7.62,5.16-13.49,9.34c-0.84,0.56-1.74,1.19-2.64,1.81c-2.51,1.8-5.08,3.68-7.53,5.47l-0.06,0.01
							c-1.91,1.52-3.76,2.84-5.49,4.21c-5.84,4.54-10.22,8.49-10.49,10.01C125.04,186.49,128.64,191.33,131.65,188.61z"/>
						<g>
							<path fill="#E39874" d="M374.32,276.19c3.38-18.66,15.41-34.74,31.99-43.94c10.24-5.69,21.59-7.82,27.5,4.84
								c10.34,22.18-6.25,70.31-36.51,75.45c-11.63,1.98-22.35-6.7-23.65-18.42C373.09,289.09,373.08,283.02,374.32,276.19z"/>
							<path fill="#D65D54" d="M416.86,248.94c-14.58-3.64-23.95,30.18-23.95,30.18c3.25-7.91,6.47-13.51,9.36-17.49
								c-1.63,7.34-3.94,23.57,5.97,29.44c0,0-8.8-8.32-1.67-32.95c0.44-1.52,1.37-2.93,2.63-3.89c0.16-0.12,0.32-0.24,0.47-0.35
								c1.88-1.35,4.31-1.81,6.51-1.12c11.27,3.56,7.07,16.05,7.07,16.05S431.69,252.64,416.86,248.94z"/>
						</g>
						<path fill="#C93727" d="M276.1,206.75c1.94,1.75,3.88,3.44,5.87,5.06c0.46,0.34,0.86,0.69,1.33,1.1
							c7.97,6.42,16.18,11.76,24.26,15.97c21.42,11.15,42.35,14.23,57.63,7.22c0.37-0.09,0.73-0.3,1.1-0.45
							c3.34-1.61,6.34-3.7,8.98-6.39c2.24-2.1,4.2-4.62,5.96-7.44c0,0-1.04-1.37-2.97-3.81c-7.81-9.57-31.36-35.26-72.45-53.15
							c9.98,17.39,14.98,38.02-15.82,40.13C285.23,205.3,280.55,205.88,276.1,206.75z"/>
					</g>
				</g>
				<path fill="#F3B51B" d="M333.85,637.43c-3.28-41.33,5.19-82.84,14.79-114.48c5.23-17.37,10.77-31.72,14.88-41.48
					c3.22-7.7,5.59-12.51,6.12-13.62v-0.05h0.05c0-0.1,0.05-0.16,0.05-0.16l-8.39-0.69l-9.39-0.79l-12.5-1
					c-7.13,9.55-13.62,25.39-19.21,43.33c-2.96,9.39-5.7,19.37-8.18,29.34c-9.76,39.53-15.46,78.52-15.46,78.52l-100.79-4.96
					l-23.21-1.16c-2.06-16.83,1.48-40.68,6.48-63.54c4.28-19.42,9.71-38.15,13.72-51.13c1.74-5.6,3.22-10.13,4.27-13.19
					c0.37-1.16,0.69-2.11,0.9-2.8c0-0.05,0.05-0.05,0-0.11c0.21-0.53,0.32-0.89,0.42-1.16c0.05-0.11,0.1-0.21,0.1-0.26
					c0.06-0.05,0.06-0.11,0.06-0.11c-7.76,1.32-14.57,2.9-20.06,4.38c-0.05,0-0.11,0-0.16,0.06c-8.55,2.32-13.88,4.43-14.51,4.64
					c-0.05,0.05-0.05,0.05-0.05,0.05c-0.37,1.06-0.74,2.11-1.11,3.22c-0.53,1.38-1,2.75-1.42,4.12c-0.64,1.84-1.21,3.64-1.8,5.54
					c-0.1,0.37-0.26,0.79-0.37,1.16c-14.92,47.31-25.05,108.48-29.21,136.33H333.85z"/>
				<path fill="#21A2D7" d="M415.76,637.43c-1.06-33.77-3.05-59.76-3.05-59.76l-13.09-33.51L369.7,467.8c0,0-2.27,6.49-5.59,17.84
					c-3.43,11.66-7.97,28.5-12.14,48.55c-6.19,29.49-11.66,65.94-11.95,103.25H415.76z"/>
				<g>
					<path fill="#EA9E74" d="M520.08,637.43c-25.56-63.48-42.74-62.37-54.07-38.97c6.81,7.27,14.64,19.79,23.63,38.97H520.08z"/>
					<path fill="#F6B185" d="M489.64,637.43c-9-19.18-16.82-31.7-23.63-38.97c-4.86,10.01-8.64,24.11-11.56,38.97H489.64z"/>
				</g>
				<path fill="#0A97B9" d="M496.12,637.43h40.22c-5.52-13.05-11.94-27.65-19.46-44.05c-32.74-71.58-74.69-102.4-105.39-115.56
					c21.83,21.72,44.73,54.68,64.41,104.97C482.93,600.77,489.72,619.27,496.12,637.43z"/>
				<path fill="#21A2D7" d="M496.12,637.43c-6.4-18.16-13.19-36.66-20.22-54.64c-19.69-50.29-42.59-83.24-64.41-104.97
					c-24.4-10.7-41.73-10.17-41.73-10.17c-18.2,40.95-11.56,107.26,4.74,169.78H496.12z"/>
			</g>
		</g>
	</g>
</g>
</svg>
