<?xml version="1.0" encoding="utf-8"?>
<!-- Generator: Adobe Illustrator 25.2.3, SVG Export Plug-In . SVG Version: 6.00 Build 0)  -->
<svg version="1.1" id="Layer_1" xmlns="http://www.w3.org/2000/svg" xmlns:xlink="http://www.w3.org/1999/xlink" x="0px" y="0px"
	 viewBox="0 0 576 576" enable-background="new 0 0 576 576" xml:space="preserve">
<g>
	<g>
		<defs>
			<circle id="SVGID_1_" cx="288.15" cy="288.16" r="288.15"/>
		</defs>
		<use xlink:href="#SVGID_1_"  overflow="visible" fill="#F9E3D9"/>
		<clipPath id="SVGID_2_">
			<use xlink:href="#SVGID_1_"  overflow="visible"/>
		</clipPath>
		<g clip-path="url(#SVGID_2_)">
			<path fill="#CD7355" d="M340.96,457.78c-3.45,3.36-6.49,8.44-11.56,14.52c-0.77-0.28-1.38-0.61-1.87-0.72
				c-11.61-4.67-6.98-69.85-6.98-69.85l-53.7,1.02c0.61-9.17,0.82-14.49,0.82-14.49l64.04-1.22c0,0-4.62,65.18,6.98,69.81
				C339.26,457.05,340.03,457.41,340.96,457.78z"/>
			<path fill="#E57E5F" d="M329.4,472.3c-4.54,5.52-10.75,11.81-20.42,18.39c-4.46,2.96-15.78,2.84-21.02,6.21
				c-0.16,0.08-0.24,0.08-0.37,0.16c-0.08,0-0.08,0-0.08,0s-4.46,2.6-7.83,13.19c-0.81,2.55-1.54,5.6-2.15,9.17
				c-0.16-0.2-0.37-0.4-0.37-0.57c-0.65-1.05-1.75-2.84-3.09-4.95c-4.99-8.08-13.39-21.59-15.14-24.47
				c-1.7-2.68-4.1-10.72-6.05-17.34c5.2-5.19,8.44-10.3,9.01-15.26c2.68-22.65,4.18-41.8,4.95-54.09l53.7-1.02
				c0,0-4.63,65.18,6.98,69.85C328.01,471.69,328.63,472.02,329.4,472.3z"/>
			<path fill="#67CEF3" d="M412.83,721.03c-0.01-3.46-0.19-7.19-0.12-10.51c0.85,3.3,2.08,7.05,3.04,10.51h66.59
				c13.2-39.66,36.31-72.23,38.32-104.57c-6.7-14.16-12.37-25.78-16.56-33.7c-0.36-0.69,0.35-1.38,1.85-2.07
				c7.97-3.68,37.66-7.22,34.93-10.98c-1.22-1.65-2.1-4.06-3-6.43c-4.58-3.67-9.87-8.21-17.01-14.45c-3.24-2.83-6.14-5.96-9.02-9.1
				c-3.34-2.06-6.72-4.06-9.96-6.32c-82.1-31.97-160.92-75.62-160.92-75.62c-6.61,6.41-16.83,18.36-38.65,29.59
				c-33.77,17.39-41.15,5.67-43.37,2.05c-1.69-2.7-4.1-10.69-6.06-17.3c-3.63,3.72-8.19,7.43-13.6,11.15
				c-11.74,8.25-125.64,37.17-123.44,45.98c4.18,16.71,11.65,106.41,16.98,191.76H412.83z"/>
			<path fill="#E68C63" d="M364.3,372.3c-17.05,18.63-68.26,74.47-94.64,74.47c-13.76,0-27.52,1.26-38.19,0.49
				c6.09-0.2,12.5-0.49,18.92-0.49c26.38,0,77.6-55.84,94.64-74.47c17.08-18.63,0-218.79,0-218.79
				c-24.8-13.11-48.42-18.87-69.85-20.17c26.18-1.58,56.66,3,89.13,20.17C364.3,153.51,381.38,353.67,364.3,372.3z"/>
			<path fill="#F0A67E" d="M345.02,372.3c-17.05,18.63-68.26,74.47-94.64,74.47c-6.41,0-12.82,0.29-18.92,0.49
				c-9.78-0.73-16.96-3.13-19.19-9.82c-4.67-13.96-14.49-53.13-18.3-75c-3.09-17.45-13.4-49.84-8.93-71.88
				c3.41-16.84,3.33-123.7,3.9-126.06c0.37-1.54,35.03-28.09,86.24-31.17c21.43,1.3,45.05,7.07,69.85,20.17
				C345.02,153.51,362.1,353.67,345.02,372.3z"/>
			<path fill="#5E2F12" d="M386.15,192.39c-2.74,28.95-13.36,86.05-13.36,86.05s-32.28-25.24-29.31-69.02
				c1.21-17.83-2.34-29.89-5.22-37.93C352.77,177.07,368.69,183.97,386.15,192.39z"/>
			<g>
				<path fill="#F0A67E" d="M349.44,288.7c-0.89-18.59,7.04-36.61,20.85-49.09c8.53-7.7,18.9-12.25,27.35-1.45
					c14.79,18.9,9.59,68.57-18.19,80.18c-10.68,4.46-22.85-1.45-26.68-12.37C351.11,301.28,349.76,295.5,349.44,288.7z"/>
				<path fill="#CD7355" d="M384.06,253.23c-14.74-0.25-16.21,34.15-16.21,34.15c1.35-8.28,3.19-14.35,5.07-18.79
					c0.07,7.37,1.46,23.4,12.22,26.81c0,0-10.26-6-8.89-31.12c0.08-1.56,0.66-3.1,1.66-4.3c0.12-0.15,0.25-0.29,0.37-0.43
					c1.5-1.71,3.72-2.69,5.98-2.51c11.55,0.9,10.3,13.77,10.3,13.77S399.05,253.48,384.06,253.23z"/>
			</g>
			<path fill="#EDEEEE" d="M275.8,251.74l53.93-0.92c0,0,3.62,29.62-26.04,31.21C274.04,283.62,275.8,251.74,275.8,251.74z"/>
			<path fill="#EDEEEE" d="M190.66,251.92h42.48c0,0,2.87,24.55-21.61,25.86C187.06,279.09,190.66,251.92,190.66,251.92z"/>
			<g>
				<path fill="#2A9695" d="M230.86,262.61c0,7.72-6.26,13.97-13.98,13.97c-7.72,0-13.97-6.26-13.97-13.97s6.26-13.98,13.97-13.98
					C224.6,248.63,230.86,254.89,230.86,262.61z"/>
				<path fill="#19281F" d="M222.16,263.79c0,3.25-2.63,5.88-5.88,5.88c-3.24,0-5.87-2.63-5.87-5.88c0-3.25,2.63-5.88,5.87-5.88
					C219.53,257.91,222.16,260.54,222.16,263.79z"/>
			</g>
			<g>
				<circle fill="#2A9695" cx="305.63" cy="263.35" r="13.98"/>
				<circle fill="#19281F" cx="305.03" cy="264.52" r="5.88"/>
			</g>
			<circle opacity="0.7" fill="#EDEEEE" cx="228.15" cy="267.19" r="4.86"/>
			<circle opacity="0.7" fill="#EDEEEE" cx="317.16" cy="267.19" r="4.86"/>
			<path fill="#E88B6A" d="M190.66,251.92h42.48c0,0-2.59-17.19-20.59-17.45C193.7,234.19,190.66,251.92,190.66,251.92z"/>
			<path fill="#E88B6A" d="M330.1,251.92h-54.39c0,0,3.26-19.41,26.32-19.67C326.15,231.98,330.1,251.92,330.1,251.92z"/>
			<g>
				<path fill="#813823" d="M291.03,357.37c1.3,9.19-12.58,36.12-43.16,32.28c-30.36-4.02-32.53-33.45-32.53-33.45h4.55l67.02,1.17
					H291.03z"/>
				<path fill="#FFFFFF" d="M286.91,357.37c0,4.85-1.74,9.36-5.86,11.37c-10.84,5.02-50.54,1.51-56.18-1.5
					c-3.47-1.84-4.55-7.19-4.99-11.04L286.91,357.37z"/>
			</g>
			<path fill="#31BDEA" d="M390.59,194.54c-183.28-89.77-201.1-14.82-201.1-14.82c1.54-15.54,4.54-31.65,8.56-47.28
				c29.22-3.6,77.68,4.26,157.51,43.35c0.05,0,0.05,0,0.05,0s10.19-85.14-5.2-103.9c-6.29-7.67-14-14.73-22.61-20.94
				c22.29,8.44,43.51,22.57,57.59,39.73C400.58,109.15,390.88,192.19,390.59,194.54z"/>
			<path fill="#67CEF3" d="M355.61,175.79c0,0,0,0-0.05,0c-79.83-39.08-128.29-46.95-157.51-43.35c4.14-16.11,9.3-31.65,14.98-45.49
				c7.06-17.37,31.7-32.23,42.49-37.82c19.16-9.98,46.43-7.91,72.28,1.82c8.61,6.21,16.32,13.28,22.61,20.94
				C365.8,90.65,355.61,175.79,355.61,175.79z"/>
			<polygon fill="#86253C" points="390.58,194.55 391.69,189.35 375.57,179.27 371.68,182.89 			"/>
			<path fill="#5E2F12" d="M233.09,138.36c-4.82,0.74-53.8,35.25-29.31,28.94c24.49-6.31,52.69-30.8,52.69-30.8L233.09,138.36z"/>
			<path fill="#5E2F12" d="M267.51,135.39l-31.54,5.94c0,0-39.34,23.75-8.53,29.31c30.8,5.56,66.42-30.05,66.42-30.05L267.51,135.39
				z"/>
			<path fill="#5E2F12" d="M320.84,142.44c-4.83,0-66.79,0.18-59.74,18.37c7.69,19.81,62.71-3.9,62.71-3.9L320.84,142.44z"/>
			<path fill="#86253C" d="M391.69,189.35c-183.27-89.76-201.08-14.82-201.08-14.82S52.2,55.8,157.95,61.36
				c17.32,0.91,43.53,9.91,61.22,15.59C308.72,105.69,390.09,187.91,391.69,189.35z"/>
			<path fill="#E54366" d="M390.58,194.55c-1.49-0.74-2.96-1.44-4.43-2.16c-17.45-8.42-33.37-15.32-47.89-20.9
				c-35.26-13.58-62.25-19.48-82.9-20.79h-0.14c-9.04-0.56-16.85-0.25-23.62,0.69c-36.58,5.08-42.11,28.34-42.11,28.34
				s-34.82-29.85-56.16-58.93c-15.03-20.43-23.4-40.47-8.37-49.46c6.21-3.74,16.45-5.56,31.88-4.77c5.01,0.27,10.75,1.2,16.83,2.54
				c14.92,3.3,31.81,9.02,44.4,13.05c78.32,25.13,150.38,91.19,168.29,108.31C388.93,192.92,390.38,194.37,390.58,194.55z"/>
			<path fill="#67CEF3" d="M216.67,721.03c-1.01-75.3-13.79-148.66-36.26-176.56c-50.35-62.51-86.38,11.68-86.38,11.68
				s-30.85,86.24-40.21,164.88H216.67z"/>
			<path fill="#31BDEA" d="M529.85,599.18c8.19,28.47,12.58,73.55,14.5,121.85h31.3c-1.33-28.42-4.74-54.27-11.34-73.89
				c0.01-0.06-0.02-0.09-0.05-0.12c-8.5-25.33-15.54-51.54-21.81-76.77c-1.48-2.21-2.88-4.47-4.24-6.77
				c-4.69-3.72-9.95-8.16-17.36-14.65c-1.63-1.43-3-3.08-4.54-4.58c4.06,18.28,8.34,36.79,13.5,54.75
				C529.81,599.05,529.84,599.09,529.85,599.18z"/>
			<path fill="#67CEF3" d="M544.36,721.03c-1.93-48.3-6.31-93.38-14.5-121.85c-0.01-0.09-0.04-0.12-0.03-0.18
				c-5.17-17.96-9.45-36.47-13.5-54.75c-1.49-1.46-3-2.91-4.4-4.45c-3.28-2-6.58-3.98-9.75-6.18
				c-34.16,8.31-100.86,16.57-106.16,85.11c-0.67,8.71-0.91,19.2-0.77,30.93c0.17,10.85,5.02,37.83,11.98,71.37H544.36z"/>
			<path fill="#5E2F12" d="M188.38,234.29c0,0-4.21-9.79,0.7-12.74c4.91-2.94,23.06-18.94,41.01-10.45l-0.95,14.59
				C229.14,225.7,215.72,221.88,188.38,234.29z"/>
			<path fill="#5E2F12" d="M276.34,210.63c-0.95,0.4,2.09,15.35,2.09,15.35s49.04,1.96,57.04,9.14l6.95-13.06
				C342.42,222.06,295.47,202.47,276.34,210.63z"/>
			<path fill="#E68C63" d="M238.63,254.36c0,0,1.31,38.02-11.4,44.85c-11.81,6.35-14.84,9.39-15.5,16.87
				c-0.67,7.48,6.09,22.68,21.21,16.1c15.13-6.59,16.14,7.18,24.88-3c8.74-10.17,7.06-15.86-3.03-19.16
				C244.7,306.75,249.72,279.21,238.63,254.36z"/>
		</g>
	</g>
</g>
</svg>
