<?xml version="1.0" encoding="utf-8"?>
<!-- Generator: Adobe Illustrator 25.2.3, SVG Export Plug-In . SVG Version: 6.00 Build 0)  -->
<svg version="1.1" id="Layer_1" xmlns="http://www.w3.org/2000/svg" xmlns:xlink="http://www.w3.org/1999/xlink" x="0px" y="0px"
	 viewBox="0 0 576 576" enable-background="new 0 0 576 576" xml:space="preserve">
<g>
	<g>
		<defs>
			<path id="SVGID_1_" d="M576,288c0,159.05-128.94,288-288,288C128.94,576,0,447.06,0,288C0,128.94,128.94,0,288,0
				C447.06,0,576,128.94,576,288z"/>
		</defs>
		<use xlink:href="#SVGID_1_"  overflow="visible" fill="#F9E3D9"/>
		<clipPath id="SVGID_2_">
			<use xlink:href="#SVGID_1_"  overflow="visible"/>
		</clipPath>
		<g clip-path="url(#SVGID_2_)">
			<path fill="#302C2E" d="M139.17,269.39c0.39,1.17,15.15,38.07,15.15,38.07l-1.55-41.95L139.17,269.39z"/>
			<path fill="#8D3628" d="M164.62,647.61c54.07-43.14,110.13-87.94,110.13-87.94s-150.4,65.06-221.96,87.94H164.62z"/>
			<path fill="#8D3628" d="M785.62,647.61c-17.69-21.51-35.14-36.25-44.33-40.65c-21.36-10.23-36.07,16.57-41.62,40.65H785.62z"/>
			<path fill="#78CCCD" d="M536.79,576.8c12.83,7.71,25.04,16.1,36.52,24.89c7.71-29.89,12.66-59.71,7.19-73.77
				c1.5,3.07,13.89,28.59,33.41,57.7c14.36,21.31,32.6,44.41,53.11,62h68.4c11.52-9.72,24.41-17.5,38.33-20.36
				c26.17-5.38-84.97-131.12-130.82-162.59c-1.64-1.12-3.49-1.37-5.05-1.77c-43.59-10.81-174.68-13.86-171.35,18.9
				C467.39,490.26,448.75,523.9,536.79,576.8z"/>
			<path fill="#78CCCD" d="M268.73,647.61c0.4-0.49,0.83-0.91,1.23-1.41c0,0,0.54,0.57,1.31,1.41h13.97
				c21.63-53.3,11.75-126.34-16.97-138.34c-1.3-0.54-4.01,0.64-8,3.18c-17.48,11.29-41.65,54.47-97.8,88.3
				c-33.68,20.3-90.36,33.95-131.88,44.49c0,0,0.51,0.99,1.2,2.38H268.73z"/>
			<path fill="#78CCCD" d="M258.37,647.61h10.36c0.4-0.49,0.83-0.91,1.23-1.41c0,0,0.54,0.57,1.31,1.41h288.54
				c4.47-13.75,9.36-29.83,13.49-45.94c7.72-29.88,12.64-59.69,7.21-73.75c1.49,3.07,13.87,28.6,33.4,57.68
				c-5.21-14.58-10.48-26.72-15.67-35.46c-42.54-70.75,37.58-82.09,44.69-85.47c0.43-0.18,0.66-0.28,0.66-0.28
				s-95.76-53.22-157.73-47.85c-78.59,6.8-197.76,65.01-225.59,95.91c-0.2,0.18-0.35,0.4-0.54,0.58
				C220.8,557.7,202.52,586,202.52,586S227.8,607.54,258.37,647.61z"/>
			<path fill="#8D3628" d="M298.71,412.8c-3.22-5.22-6.66-10.53-10.21-15.71c-14.73-21.68-29.98-40.7-29.98-40.7l20.33-24.71
				l62.42-75.89l25.92-31.51l5.17-6.3c0,0,0.05,0.14,0.09,0.47c0,0.19,0.05,0.37,0.09,0.61c0.05,0.28,0.09,0.6,0.18,0.98
				c0.05,0.28,0.1,0.56,0.14,0.89c0.23,1.35,0.56,3.12,0.93,5.31c0.09,0.47,0.18,0.98,0.28,1.49c0.19,0.84,0.33,1.77,0.51,2.71
				c0.05,0.28,0.1,0.51,0.14,0.79c0.18,1.08,0.41,2.19,0.65,3.41c0.09,0.47,0.18,0.93,0.28,1.44c0.41,2.19,0.88,4.62,1.35,7.13
				c0.42,2.15,0.89,4.43,1.35,6.76c0.19,0.84,0.33,1.64,0.51,2.48v0.05c2.34,11.51,5.27,24.98,8.63,39.11
				c0.28,1.26,0.56,2.47,0.89,3.73c0.33,1.44,0.7,2.94,1.07,4.38v0.05c2.29,9.42,4.8,18.93,7.46,28.25c0,0,0,0.05,0,0.09
				c-0.37,1.96-0.6,3.07-0.6,3.07l-20.47-27.13c-2.29,0.7-4.71,0.98-7.08,0.84c0.42,14.78,0,30.02-4.52,38.41
				c-14.45,26.62-37.47,49.5-61.39,66.61c-0.05,0.24-0.19,0.47-0.28,0.7c-0.28,0.56-0.56,1.16-0.93,1.77
				c2.99,7.83,5.88,15.2,8.63,21.3c-2.71-5.78-6.25-12.16-10.21-18.69C299.64,414.24,299.17,413.54,298.71,412.8z"/>
			<path fill="#8D3628" d="M311.76,437.04c0.23,0.56,0.47,1.12,0.7,1.63c0.19,0.47,0.33,0.89,0.47,1.31
				c-0.14-0.37-0.28-0.79-0.51-1.26C312.23,438.15,311.99,437.6,311.76,437.04z"/>
			<path fill="#8D3628" d="M485.86,416.52c0,0-2.14,5.36-6.06,14.03c-2.09,4.66-4.66,10.26-7.74,16.5
				c-1.77,3.64-3.68,7.51-5.73,11.52c-4.81,9.36-10.35,19.62-16.55,29.97c-1.12,1.91-2.28,3.78-3.45,5.69
				c-1.07,1.77-2.14,3.5-3.31,5.27c-1.35,2.19-2.8,4.33-4.2,6.48c-1.58,2.38-3.22,4.75-4.89,7.13c-0.79,1.12-1.59,2.23-2.42,3.36
				c-1.21,1.72-2.48,3.4-3.68,5.03c-7.93,10.45-16.32,19.95-25.08,27.6c-0.83,0.79-1.72,1.49-2.61,2.24
				c-5.59,4.66-11.33,8.53-17.16,11.28c-0.84,0.42-1.63,0.79-2.47,1.12c-1.68,0.75-3.36,1.35-5.04,1.86
				c-0.47,0.14-0.93,0.28-1.44,0.42c-0.18,0.05-0.37,0.09-0.56,0.14c-0.7,0.18-1.4,0.37-2.1,0.51c-1.67,0.41-3.4,0.65-5.12,0.79
				c-0.47,0.05-0.93,0.09-1.4,0.09c-1.08,0.1-2.19,0.14-3.26,0.1c-2.15-0.05-4.2-0.19-6.2-0.42c-0.75-0.09-1.5-0.19-2.24-0.33
				c-0.93-0.14-1.82-0.28-2.66-0.47c-6.95-1.35-13.05-3.78-18.37-6.95c-0.7-0.42-1.35-0.83-1.96-1.25
				c-0.66-0.37-1.26-0.84-1.91-1.31c-0.61-0.42-1.21-0.89-1.82-1.35c-2.38-1.82-4.57-3.87-6.62-6.01c-0.51-0.56-1.02-1.07-1.49-1.63
				c-0.1-0.05-0.19-0.14-0.19-0.24c-0.98-1.02-1.82-2.09-2.65-3.16c-0.14-0.19-0.28-0.33-0.37-0.47c-1.02-1.35-2-2.75-2.94-4.15
				c-1.35-2.06-2.61-4.15-3.73-6.25c-0.51-0.89-0.93-1.72-1.4-2.61c-0.19-0.37-0.37-0.79-0.56-1.17c-0.6-1.25-1.21-2.51-1.72-3.78
				c-0.84-1.91-1.59-3.82-2.29-5.69c-0.42-1.21-0.84-2.42-1.21-3.59c0,0-0.05-0.1-0.05-0.14c-0.51-1.44-0.93-2.89-1.35-4.33
				c-4.24-14.68-4.8-26.53-4.8-26.53s9.56-4.24,15.71-13.84c1.21-1.96,2.28-4.1,3.16-6.43c0.24-0.65,0.47-1.3,0.66-2
				c0.18-0.6,0.32-1.16,0.47-1.82v-0.05c57.94-25.96,72.86-85.35,84.93-123.25c0.18,0.7,0.41,1.44,0.65,2.19
				c0.79,2.66,1.63,5.23,2.47,7.79c0.84,2.51,1.68,5.04,2.57,7.51c0.41,1.21,0.83,2.42,1.3,3.64c1.68,4.61,3.36,9.04,5.13,13.15
				c0.93,2.14,1.87,4.24,2.8,6.2l0.05,0.05c1.4,2.98,2.8,5.73,4.24,8.25c0.19,0.32,0.37,0.65,0.56,0.93c0.37,0.7,0.79,1.4,1.21,2.05
				c0.18,0.28,0.33,0.56,0.51,0.79c0.24,0.37,0.42,0.7,0.66,1.02c0.18,0.28,0.37,0.56,0.56,0.84c0.65,0.98,1.35,1.86,2,2.7
				c0.09,0.14,0.23,0.28,0.33,0.42c0.98,1.21,1.96,2.29,2.94,3.22c0.28,0.28,0.56,0.56,0.89,0.84c0.42,0.37,0.89,0.74,1.31,1.07
				c0.74,0.56,1.49,1.02,2.24,1.44c2.94,1.59,5.78,2.99,8.53,4.2c1.16,0.56,2.33,1.03,3.45,1.49c0.79,0.37,1.58,0.66,2.38,0.98
				c5.41,2.14,10.39,3.68,14.87,4.8c5.12,1.31,9.6,2,13.24,2.33C481.91,417.08,485.86,416.52,485.86,416.52z"/>
			<path fill="#7B2F22" d="M301.18,411.07c-3.07-8.4-6.15-17.25-9-25.78c-7.83-23.36-13.94-44.05-13.94-44.05l12.68-16.6
				l50.21-65.77l26.11-34.16l5.13-6.72c0,0,0.05,0.14,0.09,0.47c0,0.14,0.05,0.33,0.09,0.61c0.05,0.28,0.09,0.6,0.18,0.98
				c0.05,0.28,0.1,0.56,0.14,0.89c0.23,1.35,0.56,3.12,0.93,5.31c0.09,0.47,0.18,0.98,0.28,1.49c0.19,0.84,0.33,1.77,0.51,2.71
				c0.05,0.28,0.1,0.51,0.14,0.79c0.18,1.08,0.41,2.24,0.65,3.41c0.09,0.47,0.18,0.93,0.28,1.44c0.41,2.19,0.88,4.62,1.35,7.13
				c0.42,2.15,0.89,4.43,1.35,6.76c0.19,0.84,0.33,1.64,0.51,2.48v0.05c2.34,11.51,5.27,24.98,8.63,39.11
				c0.28,1.26,0.56,2.47,0.89,3.73c0.33,1.44,0.7,2.94,1.07,4.38v0.05c2.29,9.42,4.8,18.93,7.46,28.25c0.37,1.4,0.79,2.74,1.21,4.1
				c-0.42-1.3-0.84-2.65-1.21-4.01c-0.37,1.96-0.6,3.07-0.6,3.07l-20.47-27.13c-2.29,0.7-4.71,0.98-7.08,0.84
				c0.42,14.78,0,30.02-4.52,38.41c-14.45,26.62-37.47,49.5-61.39,66.61c-0.05,0.24-0.19,0.47-0.28,0.7
				c-0.28,0.56-0.56,1.16-0.93,1.77C301.5,411.95,301.37,411.49,301.18,411.07z"/>
			<path fill="#7B2F22" d="M466.34,458.58c-4.81,9.36-10.35,19.62-16.55,29.97c-1.12,1.91-2.28,3.78-3.45,5.69
				c-1.07,1.77-2.14,3.5-3.31,5.27c-1.35,2.19-2.8,4.33-4.2,6.48c-1.58,2.38-3.22,4.75-4.89,7.13c-0.79,1.12-1.59,2.23-2.42,3.36
				c-1.21,1.67-2.42,3.36-3.68,5.03c-7.93,10.45-16.32,19.95-25.08,27.6c-0.83,0.79-1.72,1.49-2.61,2.24
				c-5.59,4.66-11.33,8.53-17.16,11.28c-0.84,0.42-1.63,0.79-2.47,1.12c-1.68,0.75-3.36,1.35-5.04,1.86
				c-0.47,0.14-0.93,0.28-1.44,0.42c-0.18,0.05-0.37,0.09-0.56,0.14c-0.7,0.18-1.4,0.37-2.1,0.51c-1.67,0.41-3.4,0.65-5.12,0.79
				c-0.47,0.05-0.93,0.09-1.4,0.09c-1.08,0.1-2.19,0.14-3.26,0.1c-2.15-0.05-4.2-0.19-6.2-0.42c-0.75-0.09-1.5-0.19-2.24-0.33
				c-0.93-0.14-1.82-0.28-2.66-0.47c-6.95-1.35-13.05-3.78-18.37-6.95c-0.7-0.42-1.35-0.83-1.96-1.25
				c-0.66-0.37-1.26-0.84-1.91-1.31c-0.61-0.42-1.21-0.89-1.82-1.35c-2.38-1.82-4.57-3.87-6.62-6.01c-0.51-0.56-1.02-1.07-1.49-1.63
				c-0.1-0.05-0.19-0.14-0.19-0.24c-0.98-1.02-1.82-2.09-2.65-3.16c-0.14-0.19-0.28-0.33-0.37-0.47c-1.02-1.35-2-2.75-2.94-4.15
				c-1.35-2.06-2.61-4.15-3.73-6.25c-0.51-0.89-0.93-1.72-1.4-2.61c-0.19-0.37-0.37-0.79-0.56-1.17c-0.6-1.25-1.21-2.51-1.72-3.78
				c-0.84-1.91-1.59-3.82-2.29-5.69c-0.42-1.21-0.84-2.42-1.21-3.59c0,0-0.05-0.1-0.05-0.14c-0.51-1.44-0.93-2.89-1.35-4.33
				c2.52-16.83,6.72-30.25,10.91-40.37c1.21-1.96,2.28-4.1,3.16-6.43c0.24-0.65,0.47-1.3,0.66-2c0.18-0.6,0.32-1.21,0.47-1.82v-0.05
				c57.94-25.96,72.86-85.35,84.93-123.25c0.18,0.7,0.41,1.44,0.65,2.19c0.79,2.66,1.63,5.23,2.47,7.79
				c0.84,2.51,1.68,5.04,2.57,7.51c0.41,1.21,0.83,2.42,1.3,3.64c1.68,4.61,3.36,9.04,5.13,13.15c0.93,2.14,1.87,4.24,2.8,6.2
				l0.05,0.05c1.4,2.98,2.8,5.73,4.24,8.25c0.19,0.32,0.37,0.65,0.56,0.93c0.37,0.7,0.79,1.4,1.21,2.05
				c0.18,0.28,0.33,0.56,0.51,0.79c0.24,0.37,0.42,0.7,0.66,1.02c0.18,0.28,0.37,0.56,0.56,0.84c0.65,0.98,1.35,1.86,2,2.7
				c0.09,0.14,0.23,0.28,0.33,0.42c0.98,1.21,1.91,2.29,2.94,3.22c0.28,0.28,0.56,0.56,0.89,0.84c0.42,0.37,0.89,0.74,1.31,1.07
				c0.74,0.56,1.49,1.02,2.24,1.44c2.94,1.59,5.78,2.99,8.53,4.2c1.16,0.56,2.33,1.03,3.45,1.49c0.79,0.37,1.58,0.66,2.38,0.98
				c3.91,3.31,6.53,6.15,7.6,7.31C460.6,428.6,464.47,442.86,466.34,458.58z"/>
			<path fill="#8D3628" d="M485.86,416.52c0,0-2.14,5.36-6.06,14.03c-1.39-4.94-3.03-9.65-4.94-14.22
				C481.91,417.08,485.86,416.52,485.86,416.52z"/>
			<path fill="#00AEC4" d="M625.35,647.61c-15-15.08-32.37-30.98-52.05-45.92c-4.13,16.11-9.03,32.18-13.5,45.92H625.35z"/>
			<path fill="#00AEC4" d="M625.35,647.61h6.92c-5.94-23.17-12.11-44.43-18.37-62c-19.52-29.11-31.91-54.62-33.41-57.7
				c5.47,14.06,0.52,43.88-7.19,73.77C592.99,616.63,610.35,632.53,625.35,647.61z"/>
			<path fill="#8D3628" d="M368.77,304.88c0.42,14.78,0,30.02-4.52,38.41c-14.45,26.62-37.47,49.5-61.39,66.61
				c-0.56,0.42-1.12,0.84-1.68,1.17c-0.84,0.6-1.63,1.21-2.47,1.72c-24.29,16.69-48.95,27.22-65.91,29.42
				c-4.85,0.65-9,0.6-12.4-0.14c-13.52-3.03-23.87-15.99-33.61-37.34c-0.1-0.24-0.19-0.33-0.19-0.33
				c-13.15-28.85-25.31-72.86-42.79-127.87c-33.61-105.86-14.26-116.26-14.26-116.26c57.8-110.2,185.2-29.88,207.53-10.54
				c12.87,11.14,22.57,32.91,27.74,59.58c0.98,4.85,1.72,9.84,2.38,14.96c0,0.14,0.05,0.28,0.05,0.42c0.32,2.61,0.6,5.27,0.83,7.97
				c0.14,1.58,0.28,3.16,0.37,4.8c0.42,6.01,0.61,12.12,0.61,18.37c0,2.75-0.05,5.55-0.19,8.3c-0.09,3.31-0.28,6.62-0.51,9.93
				c-0.18,2.8-0.23,6.11-0.14,9.74c0,1.86,0.05,3.87,0.14,5.92c0.05,1.44,0.09,2.98,0.14,4.52
				C368.63,297.7,368.72,301.29,368.77,304.88z"/>
			<path fill="#FFFFFF" d="M210.07,266.48c3.54,3.47,7.93,17.02,28.45,15.4c20.52-1.63,22.38-29.61,22.38-29.61L210.07,266.48z"/>
			<g>
				<path fill="#7D885B" d="M248.45,267.44c0.72,6.87-4.26,13.02-11.12,13.74c-6.87,0.72-13.02-4.26-13.74-11.13
					c-0.72-6.86,4.26-13.01,11.12-13.74C241.58,255.59,247.73,260.58,248.45,267.44z"/>
				<path fill="#313D23" d="M243.23,268c0.42,3.98-2.47,7.55-6.45,7.97c-3.99,0.42-7.55-2.48-7.97-6.45
					c-0.42-3.99,2.47-7.56,6.45-7.97C239.25,261.12,242.81,264.01,243.23,268z"/>
			</g>
			<path fill="#302C2E" d="M302.86,409.91c-0.05,0.24-0.19,0.47-0.28,0.7c-0.28,0.56-0.56,1.16-0.93,1.77
				c-0.42,0.84-0.98,1.73-1.58,2.61c-8.12,12.35-26.11,26.25-35.94,29.92c-1.96,0.75-3.58,1.26-4.71,1.44
				c-0.42,0.05-3.22,0.75-3.22,0.75s-8.2,1.44-17.66,2.84c-2.89,0.42-5.92,0.89-8.86,1.26c-8.58,1.07-16.36-0.42-18.32-0.19
				c-4.9,0.56-18.23-24.84-20.7-32.25c-2.52-7.6-4.06-14.36-4.06-14.36s0.09,0.09,0.19,0.33c2.05,2.98,18.5,27.13,23.91,31.37
				c5.78,4.52,12.02-7.18,6.2-16.13c-3.22-4.89-0.84-6.8,1.91-7.55c1.55-0.41,7.84-1.42,11.73-2.02c2.07-0.32,4.12,0.66,5.15,2.5
				c0.83,1.45,1.62,3.27,1.76,5.04c0.58,7.26,1.49,16.24,16.6,14.12c0,0,0,0,0.05,0c0.93-0.14,1.96-0.33,3.03-0.6
				c0.14,0,0.28-0.05,0.42-0.09c13.8-3.31,24.75-18.23,30.95-34.26c1.54-3.92,2.75-7.88,3.68-11.79c2.47-10.16,2.84-19.86,0.65-26.3
				C293.62,360.72,309.28,394.38,302.86,409.91z"/>
			<path fill="#EF3D23" d="M410.11,254.61c0.18-0.04,0.35-0.12,0.49-0.15c-0.2,0.18-0.27,0.3-0.27,0.3S410.28,254.72,410.11,254.61z
				"/>
			<g>
				<path fill="#511E12" d="M263.21,364.49c-0.51,2.26-1.33,4.48-2.48,6.86c-5.09,11.76-15.89,23.87-31.37,26.87
					c-10.48,2.04-20.95,2.3-29.11-2.36c-0.02,0.18-0.02,0.18-0.15-0.01c-5.96-3.57-10.74-10.05-13-20.36c0,0-3.42-7.76,4.38-10.76
					c1.28-0.59,3.01-0.96,5.17-1.11c14.23-1.16,34.97-4.55,48.72-13.73c8.18-5.44,14.05-4.19,16.82,0.68
					C264.21,353.77,264.65,358.95,263.21,364.49z"/>
				<path fill="#FFFFFF" d="M262.2,350.57c-12.76,18.32-36.42,28.35-53.93,25.12c-9.66-1.79-14.43-6.66-16.79-10.96
					c1.28-0.59,3.01-0.96,5.17-1.11c14.23-1.16,34.97-4.55,48.72-13.73C253.56,344.45,259.43,345.7,262.2,350.57z"/>
				<path fill="#F16162" d="M260.73,371.36c-5.09,11.76-15.89,23.87-31.37,26.87c-10.48,2.04-20.95,2.3-29.11-2.36
					C212.12,387.22,238.14,369.96,260.73,371.36z"/>
			</g>
			<path fill="#302C2E" d="M127.13,211.9c0,0,75.75-33.41,130.91-13.21c0,0,52.25,38.46,55.16,62.93
				c2.91,24.47,1.75,39.04,1.75,39.04l16.9,0.58c0,0,16.32-67.01,18.06-83.33c1.75-16.32-56.52-69.92-56.52-69.92l-167.23,37.29
				L127.13,211.9z"/>
			<path fill="#302C2E" d="M132.57,206.07c0,0,3.4,46.04,8.45,56.14l-4.27,3.11l-10.3-53.8L132.57,206.07z"/>
			<path fill="#302C2E" d="M400.47,308c-1.45,8.9-2.8,16.08-3.55,20c0,0,0,0.05,0,0.09c-0.37,1.96-0.6,3.07-0.6,3.07l-20.47-27.13
				l-7.37-9.78l-0.89-1.17c0,0,0.28-1.21,0.75-3.36c0.33-1.31,0.7-2.98,1.21-4.94c0.93-3.87,2.19-8.86,3.73-14.27
				c0.28-1.02,0.56-2.09,0.88-3.17c1.4-4.85,2.99-9.93,4.71-14.87v-0.05c1.68-4.75,3.45-9.32,5.32-13.38
				c0.37-0.83,0.74-1.63,1.12-2.42c2.57-5.22,5.27-9.32,8.02-11.42c2.29-1.77,4.62-2.1,6.9-0.51
				C410.81,232.16,405.13,279.01,400.47,308z"/>
			<g>
				<path fill="#742B1E" d="M388.4,295.32c-0.65,0.75-1.31,1.44-2,2.09c-1.4,1.4-2.94,2.66-4.62,3.83
					c-1.86,1.25-3.87,2.19-5.92,2.79c-2.29,0.7-4.71,0.98-7.08,0.84c-7.22-0.32-14.17-4.29-18.23-10.95
					c-0.56-0.98-1.16-1.96-1.72-3.03c-2.15-4.1-4.15-9-5.64-14.69c-1.44-5.73-2.15-11.56-2.06-17.34c0.05-1.02,0.05-2.05,0.14-3.07
					c0.83-13.05,5.45-25.83,13.33-36.55c2.98-4.1,6.43-7.69,10.21-9.93c5.59-3.22,11.88-3.4,18.64,2.33
					c3.87,3.31,7.23,7.97,9.88,13.57C403.03,245.68,403.59,277.89,388.4,295.32z"/>
				<path fill="#511E12" d="M372.31,230.73c-15.78,2.99-9.75,40.02-9.75,40.02c-0.39-9.14,0.24-16.02,1.26-21.17
					c1.69,7.85,6.72,24.65,18.96,25.92c0,0-12.27-4.14-16.36-31.25c-0.26-1.68,0.02-3.45,0.82-4.96c0.1-0.19,0.2-0.37,0.3-0.54
					c1.22-2.15,3.38-3.68,5.83-3.99c12.53-1.58,14.04,12.42,14.04,12.42S388.36,227.7,372.31,230.73z"/>
			</g>
			<g>
				<path fill="#EF3D23" d="M331.08,147.23c11.76,12.83,25.18,21.76,37.26,27.99c0.93,3.33,2.87,10.83,3.55,17.78
					c-11.81-0.77-27.31-4.14-48.13-12.6c-63.73-25.97-161.23-30.32-198.82-27.13c31.95-73.95,79.14-88.46,96.79-104.2
					c12.65-11.31,68.25,0.72,105.97,12.82c11.56,15.75,27.5,40.35,24.91,54.78c-11.04-1.41-23.16-4.49-35.93-10.1
					c-3.32-1.49,12.83,7.46,32.05,16.76c0.28,0.15,0.61,0.29,0.9,0.44l2.18,1.04c6.31,7.92,22.43,30,18.06,44.44
					C348.45,157.59,327.26,143.11,331.08,147.23z"/>
				<path fill="#A23B25" d="M405.15,188.22c0,0-42.69-6.86-74.07-40.99c-6.18-6.68,52.83,35.22,72.71,35.25
					C403.94,185.62,404.23,187.74,405.15,188.22z"/>
				<path fill="#A23B25" d="M392.57,140.81c-20.54-3.55-82.07-36.98-75.89-34.24c24.16,10.6,45.99,12.24,62.89,10.81
					C382.7,127.6,386.43,136.62,392.57,140.81z"/>
				<path fill="#CA3A27" d="M340.26,240.25c-57.48-12.76-73.38-45.33-86.83-52.97c-21.62-12.23-105.24,9.24-120.61,14.38
					c-15.42,5.15,10.52,40.72-9.65,24.95c-2.74-2.17-4.5-5.87-5.53-10.49c0.06,1.16,0.3,1.86,0.33,1.95c0,0-20.12-55.5-7.51-62.17
					c2.08-1.09,7.13-2,14.48-2.63c15.98-1.37,56.61-14.18,87.07-11.74c41.18,3.34,75.14,23.93,111.75,38.87
					c8.33,3.41,15.8,5.97,22.54,7.85C351.86,197.84,361.62,221.12,340.26,240.25z"/>
				<path fill="#DB3A26" d="M405.15,188.22c-6.42,1.61-15.81,5.98-33.25,4.78c-0.68-6.95-2.63-14.45-3.55-17.78
					C388.51,185.53,405.15,188.22,405.15,188.22z"/>
				<path fill="#CA3A27" d="M349.36,121.84c0,0,0.3,0.34,0.79,0.97c-0.16,0.35-0.34,0.66-0.52,0.97c-5.28,9.92-2.32,2.89-0.9-0.44
					C349.1,122.47,349.36,121.84,349.36,121.84z"/>
				<path fill="#DB3A26" d="M403.79,182.48c-7.57-0.03-20.77-6.08-33.92-13.23c4.37-14.44-11.75-36.52-18.06-44.44
					c15.38,7.39,31.89,14.45,40.76,16C404.8,149.16,403.29,171.73,403.79,182.48z"/>
				<path fill="#DB3A26" d="M379.57,117.39c-8,0.66-17.07,0.65-26.96-0.72c2.59-14.43-13.34-39.04-24.91-54.78
					c16.46,5.26,29.55,10.57,34.14,13.89C371.1,82.52,374.58,101.36,379.57,117.39z"/>
				<path fill="#AB3424" d="M417.57,194.05c-4.01-6.63-7.27-7.11-12.42-5.82c-9.07,2.25-23.89,10.01-58.84,0.03
					c5.56,9.59,15.32,32.87-6.04,52c30.31,6.78,56.06,9.9,65.99,4.91c0.04-0.01,0.04-0.01,0.04-0.01c0.17-0.06,0.32-0.16,0.45-0.2
					c0,0,0,0,0.03-0.06c1.15-0.64,2.07-1.39,2.71-2.29c2.69-3.75,4.47-7.69,5.57-11.69C420.16,220.21,424.5,205.49,417.57,194.05z"
					/>
			</g>
			<path fill="#6A281A" d="M400,338.45c-12.08,37.9-26.99,97.29-84.93,123.25c0.37-1.54,0.6-3.12,0.7-4.8
				c0.05-0.79,0.09-1.58,0.09-2.42c0-1.86-0.14-3.82-0.47-5.92c-0.37-2.51-1.21-5.4-2.47-8.58c-0.14-0.42-0.28-0.84-0.47-1.31
				c-0.23-0.51-0.47-1.07-0.7-1.63c-0.05-0.14-0.09-0.28-0.14-0.37c-0.28-0.7-0.6-1.4-0.93-2.1c-0.14-0.28-0.28-0.56-0.41-0.89
				c-2.75-6.1-5.64-13.47-8.63-21.3c0.37-0.6,0.66-1.21,0.93-1.77c0.09-0.24,0.24-0.47,0.28-0.7c23.91-17.11,46.94-40,61.39-66.61
				c4.52-8.39,4.94-23.63,4.52-38.41c2.38,0.14,4.8-0.14,7.08-0.84l20.47,27.13c0,0,0.23-1.12,0.6-3.07
				c0.37,1.35,0.79,2.71,1.21,4.01C398.7,334.2,399.35,336.34,400,338.45z"/>
			<g>
				<path fill="#302C2E" d="M199.73,250.73c1.95,5.57,5.02,22.03,5.02,22.03s50.74-23.99,65.52-19.8
					c14.78,4.18-2.51-17.85-2.51-17.85s-13.66,1.95-33.46,11.71C214.51,256.58,199.73,250.73,199.73,250.73z"/>
				<path fill="#6A281A" d="M199.73,246.82l6.97,35.97C206.7,282.79,192.2,260.48,199.73,246.82z"/>
			</g>
			<path fill="#302C2E" d="M203.65,345.92c7.77-4.66,73.47-24.33,89.18,13.08l6.1,18.29l-6.99,9.91c0,0-0.88-34.67-14.86-36.13
				c-13.99-1.46-33.51-13.4-50.99-0.87s-46.61,3.79-48.07,9.03c-1.46,5.25,14.28,53.61,17.19,57.11c2.92,3.49-8.61-11.92-8.61-11.92
				s-20.52-39.06-14.11-48.39C178.89,346.69,203.65,345.92,203.65,345.92z"/>
			<path fill="#6F2C21" d="M182.37,285.33c-3.41,11.02-7.14,16.62-13.5,25.58c-6.21,8.74-10.76,22.06,5.27,34.03
				c22.75,16.99,26.95-8.65,38.37-6.07c11.43,2.59,19.6-18.69,8.39-20.15c-22.67-2.92-35.55-40.71-35.43-42.65
				C185.52,275.32,184.1,279.72,182.37,285.33z"/>
			<path fill="#FFFFFF" d="M169.47,275.02c0,0,2.14,11.46-9.71,14.18c-11.85,2.72-16.12-11.66-16.12-11.66
				S153.55,264.92,169.47,275.02z"/>
			<g>
				<path fill="#7D885B" d="M164.39,278.52c0.51,4.87-2.8,9.21-7.39,9.7c-4.6,0.48-8.73-3.08-9.25-7.95
					c-0.51-4.88,2.8-9.22,7.39-9.7C159.74,270.08,163.87,273.64,164.39,278.52z"/>
				<path fill="#313D23" d="M160.89,278.88c0.3,2.83-1.62,5.34-4.29,5.63c-2.66,0.28-5.06-1.79-5.36-4.61
					c-0.3-2.83,1.62-5.35,4.28-5.63C158.19,273.99,160.6,276.06,160.89,278.88z"/>
			</g>
			<g>
				<path fill="#302C2E" d="M171.16,254.76c-0.39,5.9,1.06,22.57,1.06,22.57s-15.47-7.77-28.59,0.22
					c-13.11,7.98-6.61-17.48-6.61-17.48s7.96-3.11,10.88-3.5C167.98,253.9,171.16,254.76,171.16,254.76z"/>
				<path fill="#6A281A" d="M170.12,251l2.92,36.52C173.03,287.52,181.03,262.15,170.12,251z"/>
			</g>
		</g>
	</g>
</g>
</svg>
