<?xml version="1.0" encoding="utf-8"?>
<!-- Generator: Adobe Illustrator 25.2.3, SVG Export Plug-In . SVG Version: 6.00 Build 0)  -->
<svg version="1.1" id="Layer_1" xmlns="http://www.w3.org/2000/svg" xmlns:xlink="http://www.w3.org/1999/xlink" x="0px" y="0px"
	 viewBox="0 0 576 576" enable-background="new 0 0 576 576" xml:space="preserve">
<g>
	<g>
		<defs>
			<path id="SVGID_1_" d="M575.6,288c0,159.06-128.94,288-288,288s-288-128.94-288-288S128.54,0,287.6,0S575.6,128.94,575.6,288z"/>
		</defs>
		<use xlink:href="#SVGID_1_"  overflow="visible" fill="#F9E3D9"/>
		<clipPath id="SVGID_2_">
			<use xlink:href="#SVGID_1_"  overflow="visible"/>
		</clipPath>
		<g clip-path="url(#SVGID_2_)">
			<path fill="#F47A4E" d="M168.69,249.11c-1.68-0.25-21.01-14.49-34.72,6.03c-13.7,20.52,8.02,66.53,20.87,70.21
				c12.85,3.68,22.76-1.07,23.65-4.49C179.39,317.44,168.69,249.11,168.69,249.11z"/>
			<path fill="#C6413C" d="M99.59,768.12l5.13-23.01c-0.16,1.98-0.19,3.03-0.19,3.03l25.73,17.99l-0.44,1.99h20.52
				c1.36-3.33,2.73-6.64,4.07-10.07l-49.14-17.11c0,0-7.51,10.8-18.31,27.17H99.59z"/>
			<path fill="#744B40" d="M99.59,768.12h30.23l0.44-1.99l-25.73-17.99c0,0,0.04-1.05,0.19-3.03L99.59,768.12z"/>
			<path fill="#C6413C" d="M172.04,477.23l-2.71,2.55l1.42,35.38l7.07-0.29c-2.04-21.61-5.1-34.68-5.67-37.18
				C172.04,477.41,172.04,477.23,172.04,477.23z"/>
			<path fill="#C6413C" d="M179.47,544.34l-7.55,0.31l1.7,42.41l4.88-0.19C179.56,571.23,179.79,557,179.47,544.34z"/>
			<path fill="#C6413C" d="M175.61,616.46l-0.8,0.03l0.19,4.78C175.22,619.67,175.44,618.06,175.61,616.46z"/>
			<path fill="#C6413C" d="M384.66,460.14l1.86,46.35l36.65-1.47C419.7,485.17,403.91,470.69,384.66,460.14z"/>
			<path fill="#C6413C" d="M425.53,534.41l-37.82,1.51l1.7,42.42l36.7-1.47C426.24,561.61,426.09,547.34,425.53,534.41z"/>
			<path fill="#C6413C" d="M425.55,606.38l-34.96,1.4l1.7,42.41l31.49-1.26C424.51,634.3,425.12,620.05,425.55,606.38z"/>
			<path fill="#C6413C" d="M422.02,678.53l-28.55,1.15l1.7,42.41l23.81-0.95C420.1,706.87,421.13,692.6,422.02,678.53z"/>
			<path fill="#C6413C" d="M414.99,768.12c0.52-5.79,1.03-11.58,1.52-17.41l-20.15,0.81l0.67,16.6H414.99z"/>
			<path fill="#C6413C" d="M324.24,438.96c0,0-1.35,15.31-11.29,28.43l1.68,41.99l42.42-1.7l-2.44-60.65
				c-4.29-1.51-8.52-2.9-12.61-4.09C336.16,441.2,330.24,439.89,324.24,438.96z"/>
			
				<rect x="316.64" y="537.95" transform="matrix(0.9992 -0.0401 0.0401 0.9992 -22.1424 13.9925)" fill="#C6413C" width="42.45" height="42.45"/>
			
				<rect x="319.52" y="609.8" transform="matrix(0.9992 -0.0401 0.0401 0.9992 -25.0199 14.1657)" fill="#C6413C" width="42.45" height="42.45"/>
			
				<rect x="322.41" y="681.69" transform="matrix(0.9992 -0.0401 0.0401 0.9992 -27.9039 14.3416)" fill="#C6413C" width="42.45" height="42.45"/>
			<polygon fill="#C6413C" points="367.5,768.12 366.88,752.71 324.46,754.41 325.02,768.12 			"/>
			<path fill="#C6413C" d="M242.33,444.97c-0.75,0.21-1.49,0.44-2.23,0.65l2.68,66.64l42.41-1.7l-1.03-25.68
				c-3.12,0.64-6.49,0.96-10.1,1.01C274.06,485.9,247.9,485.54,242.33,444.97z"/>
			
				<rect x="244.79" y="540.83" transform="matrix(0.9992 -0.0401 0.0401 0.9992 -22.3192 11.1166)" fill="#C6413C" width="42.45" height="42.45"/>
			
				<rect x="247.68" y="612.68" transform="matrix(0.9992 -0.0402 0.0402 0.9992 -25.2887 11.3332)" fill="#C6413C" width="42.45" height="42.45"/>
			
				<rect x="250.57" y="684.58" transform="matrix(0.9992 -0.0401 0.0401 0.9992 -28.0773 11.4636)" fill="#C6413C" width="42.45" height="42.45"/>
			<polygon fill="#C6413C" points="295.54,768.12 295.03,755.59 252.62,757.29 253.05,768.12 			"/>
			<path fill="#C6413C" d="M211.03,455.85c-16.06,6.75-30.29,14.78-41.55,23.03l1.45,36.27l42.41-1.71L211.03,455.85z"/>
			
				<rect x="172.95" y="543.72" transform="matrix(0.9992 -0.0401 0.0401 0.9992 -22.4926 8.2386)" fill="#C6413C" width="42.45" height="42.45"/>
			
				<rect x="175.83" y="615.57" transform="matrix(0.9992 -0.0402 0.0402 0.9992 -25.4668 8.446)" fill="#C6413C" width="42.45" height="42.45"/>
			
				<rect x="178.71" y="687.46" transform="matrix(0.9992 -0.0401 0.0401 0.9992 -28.2463 8.584)" fill="#C6413C" width="42.45" height="42.45"/>
			<polygon fill="#C6413C" points="223.57,768.12 223.18,758.47 180.76,760.18 181.09,768.12 			"/>
			<path fill="#C6413C" d="M138.26,516.47l3.19-0.13l-0.21-5.35C140.18,512.82,139.22,514.64,138.26,516.47z"/>
			<path fill="#C6413C" d="M148.4,689.52l-19.97,0.8c4.16,14.76,9,28.84,13.89,41.92l7.78-0.31L148.4,689.52z"/>
			<path fill="#C6413C" d="M117.06,589.28l27.28-1.1l-1.7-42.42l-16.96,0.68C121.08,560.72,118.32,575.05,117.06,589.28z"/>
			<path fill="#C6413C" d="M116.37,618.79c0.58,14.39,2.41,28.54,5.12,42.28l25.73-1.03l-1.7-42.42L116.37,618.79z"/>
			<path fill="#744B40" d="M145.52,617.62l1.7,42.42l-25.73,1.03c1.9,10.02,4.32,19.78,6.95,29.25l19.97-0.8l1.71,42.41l-7.78,0.31
				c4.47,12.07,9.01,23.3,13.13,33.51c0.3,0.75,0.54,1.6,0.82,2.37h24.81l-0.32-7.94l42.42-1.7l0.38,9.64h29.49l-0.44-10.83
				l42.41-1.7l0.51,12.53h29.48l-0.55-13.71l42.41-1.7l0.62,15.41h29.53l-0.67-16.6l20.15-0.81c0.88-9.8,1.7-19.69,2.47-29.58
				l-23.81,0.95l-1.7-42.41l28.55-1.15c0.63-9.98,1.22-19.86,1.77-29.6l-31.49,1.26l-1.7-42.41l34.96-1.4
				c0.3-10.15,0.51-20.02,0.55-29.51l-36.7,1.47l-1.7-42.42l37.82-1.51c-0.43-9.56-1.07-18.36-1.9-26.26
				c-0.09-1.08-0.27-2.1-0.45-3.13l-36.65,1.47l-1.86-46.35c-9.51-5.3-19.91-9.62-30.05-13.11l2.44,60.65l-42.42,1.7l-1.68-41.99
				c-5.98,7.89-15.03,15.02-28.78,17.49l1.03,25.68l-42.41,1.7l-2.68-66.64c-10.12,2.84-19.88,6.34-29.07,10.23l2.31,57.6
				l-42.41,1.71l-1.45-36.27c-9.67,7.1-17.08,14.39-21.55,21.14c-2.38,3.62-4.63,7.27-6.69,10.97l0.21,5.35l-3.19,0.13
				c-5.23,9.92-9.39,19.95-12.59,29.98l16.96-0.68l1.7,42.42l-27.28,1.1c-0.92,9.89-1.08,19.76-0.69,29.51L145.52,617.62z
				 M365.69,723.27l-42.41,1.7l-1.7-42.41l42.41-1.7L365.69,723.27z M362.81,651.38l-42.42,1.7l-1.7-42.42l42.42-1.7L362.81,651.38z
				 M358.23,537.12l1.7,42.41l-42.42,1.71l-1.7-42.42L358.23,537.12z M293.85,726.16l-42.41,1.71l-1.7-42.42l42.41-1.7
				L293.85,726.16z M290.96,654.26l-42.42,1.7l-1.7-42.41l42.42-1.71L290.96,654.26z M286.37,540l1.71,42.42l-42.42,1.7l-1.7-42.42
				L286.37,540z M222,729.05l-42.42,1.7l-1.7-42.42l42.42-1.7L222,729.05z M219.12,657.15l-42.42,1.7l-1.7-42.41l42.41-1.71
				L219.12,657.15z M214.53,542.88l1.71,42.42l-42.42,1.7l-1.7-42.42L214.53,542.88z"/>
			<path fill="#C6413C" d="M435.22,482.66c0,0-21.1-24.22-50.56-22.52l35.43,50.22L435.22,482.66z"/>
			<path fill="#C6413C" d="M134.51,768.12c0.85-2.05,1.76-4.11,2.58-6.14l-28.35,1.14l0.19,5H134.51z"/>
			<g>
				<path fill="#C6413C" d="M121.74,527.65l9.39-1.62l-1.73-9.61C126.66,520.01,124.05,523.77,121.74,527.65z"/>
				<g>
					<g>
						<path fill="#C6413C" d="M160.98,692.67l-41.81,7.22l7.31,40.76l40.2-6.94c0.31-1.45,0.62-2.94,0.88-4.38L160.98,692.67z"/>
						<path fill="#C6413C" d="M106.96,559.44c-3.22,8.88-5.93,17.67-8.23,26.38l2.97,16.59l41.81-7.22l-7.31-40.8L106.96,559.44z"/>
					</g>
					<g>
						<path fill="#C6413C" d="M94.64,746.13l2.77-0.47l-7.31-40.76l-1.16,0.2C90.25,720.54,92.35,734.4,94.64,746.13z"/>
						<path fill="#744B40" d="M90.11,704.9l7.31,40.76l-2.77,0.48c1.63,8.53,3.36,15.9,4.96,21.99h37.06l22.85-3.94
							c2.72-10.37,5.13-20.55,7.16-30.47l-40.2,6.94l-7.31-40.76l41.81-7.22l6.57,36.65c7.9-39.38,10.85-75.03,10.88-106.22
							l-0.83-4.6l0.79-0.13c-0.06-10.17-0.46-19.87-1.05-29.01l-4.81,0.83l-7.31-40.8l7.44-1.29c-1.68-10.68-3.61-20.15-5.55-28.28
							l-6.98,1.21l-5.29-29.51l-15.46,12.92c-3.55,3.82-6.88,7.79-10,12l1.73,9.61l-9.39,1.62c-4.06,6.56-7.6,13.39-10.46,20.54
							c-0.07,0.15-0.14,0.3-0.2,0.45c-1.45,3.6-2.81,7.18-4.12,10.79l29.25-5.05l7.31,40.8l-41.81,7.22l-2.97-16.59
							C87.14,629.6,86.12,671.2,88.95,705.1L90.11,704.9z M148.59,623.5l7.31,40.8l-41.81,7.22l-7.31-40.8L148.59,623.5z"/>
						<polygon fill="#C6413C" points="148.59,623.5 106.78,630.73 114.09,671.53 155.9,664.31 						"/>
					</g>
				</g>
			</g>
			
				<rect x="241.35" y="376.3" transform="matrix(-0.9992 0.0401 -0.0401 -0.9992 581.9236 854.2876)" fill="#F8A184" width="82.08" height="113.36"/>
			<g>
				<path fill="#C6413C" d="M422.31,504.97l27.84-1.12l-0.2-4.97c-7.79-9.22-13.39-14.35-14.44-15.85c-0.2-0.23-0.3-0.37-0.3-0.37
					l-12.86,22.21C422.36,504.91,422.31,504.91,422.31,504.97z"/>
				<path fill="#C6413C" d="M409.13,540.38l1.49,37.07l42.41-1.7l-1.7-42.41l-40.87,1.64C409.98,536.77,409.53,538.57,409.13,540.38
					z"/>
				
					<rect x="412.64" y="606.01" transform="matrix(0.9992 -0.0401 0.0401 0.9992 -24.7972 17.898)" fill="#C6413C" width="42.45" height="42.45"/>
				<g>
					<g>
						<path fill="#C6413C" d="M457.11,677.07l-42.42,1.7l0.05,1.36c3.6,14.68,7.85,28.27,12.33,40.58l31.73-1.27L457.11,677.07z"/>
						<g>
							<path fill="#C6413C" d="M482.47,574.56l11.39-0.45c-3.93-10.27-8.15-19.53-12.53-27.95L482.47,574.56z"/>
							<path fill="#C6413C" d="M485.36,646.41l26.99-1.08c-2.2-15.22-5.25-29.27-8.83-42.13l-19.87,0.8L485.36,646.41z"/>
							<path fill="#C6413C" d="M488.24,718.26l27.98-1.12c0.48-14.95,0.15-29.06-0.71-42.41l-28.97,1.16L488.24,718.26z"/>
							<path fill="#C6413C" d="M512.04,768.12c0.97-7.28,1.78-14.43,2.41-21.39l-25.03,1.01l0.82,20.38H512.04z"/>
							<path fill="#C6413C" d="M460.76,768.12l-0.77-19.2l-21.05,0.84c3.1,6.85,6.11,12.98,8.89,18.35H460.76z"/>
							<path fill="#744B40" d="M414.69,678.77l42.42-1.7l1.7,42.37l-31.73,1.27c3.9,10.68,7.96,20.43,11.87,29.05l21.05-0.84
								l0.77,19.2h29.48l-0.82-20.38l25.03-1.01c0.9-10.22,1.49-20.06,1.77-29.6l-27.98,1.12l-1.7-42.37l28.96-1.16
								c-0.73-10.25-1.79-20.06-3.15-29.4l-26.99,1.08l-1.7-42.42l19.87-0.8c-2.9-10.44-6.16-20.13-9.66-29.09l-11.39,0.45
								l-1.14-28.4c-11-21.39-22.61-36.93-31.38-47.28l0.2,4.97l-27.84,1.12c-5.06,9.59-9.02,19.61-11.85,30l40.87-1.64l1.7,42.41
								l-42.41,1.7l-1.49-37.07c-1.16,4.92-2.08,9.89-2.68,14.94c-0.05,0.14-0.08,0.33-0.08,0.47c-5.53,45.8-0.54,88.32,8.37,124.34
								L414.69,678.77z M411.81,606.88l42.41-1.7l1.7,42.42l-42.41,1.7L411.81,606.88z"/>
						</g>
					</g>
				</g>
			</g>
			<polygon fill="#A43632" points="241.72,438.08 269.32,483.55 224.68,514.53 218.99,447.94 			"/>
			<path fill="#A43632" d="M269.32,483.55c0,0,52.75-51.99,55.69-51.09c2.94,0.9,25.79,11.14,25.79,11.14l-38.41,78.11
				L269.32,483.55z"/>
			<polygon fill="#CEB7A8" points="402.05,457.1 377.77,452.7 312.38,657.43 342.92,656.2 			"/>
			<polygon fill="#CEB7A8" points="172.95,468.06 197.39,459.94 193.12,662.21 162.59,663.43 			"/>
			<polygon fill="#CEB7A8" points="408.18,768.12 413.83,720.56 338.99,640.57 248.92,646.16 248.92,646.15 158.84,651.75 
				142.82,767.05 142.78,768.12 			"/>
			<g>
				<polygon fill="#B57365" points="286.69,768.12 301.67,677.98 197.36,682.17 210.49,768.12 				"/>
				<path fill="#7E5247" d="M301.67,677.98l-104.31,4.19C197.36,682.17,243.95,706.11,301.67,677.98z"/>
			</g>
			<path fill="#5D290D" d="M175.78,109.2c0,0-30.04-7.84-42.81,37.4c-12.78,45.24,16.48,138.76,16.48,138.76l12.82-11.1
				C162.27,274.27,169.21,124.33,175.78,109.2z"/>
			<path fill="#F8A184" d="M185.56,107.43c41.16-46.3,108.76-53.18,158.4-16.13c47.78,35.66,62.9,96.94,66.56,146.8
				c6.04,45.34-1.88,102.01-41.84,143.15C327.17,424,264.48,432.01,215.2,398.5c-47.43-32.25-62.02-88.25-65.24-133.87
				C143.49,215.05,145.96,151.98,185.56,107.43z"/>
			<path fill="#F47A4E" d="M234.95,288.98l-27.59,2.81C207.36,291.79,220.97,315.45,234.95,288.98z"/>
			<path fill="#5D290D" d="M183.89,212.36l0.29,13.52c0,0-13.87-2.21-32.47,5.92l-1.54-8.44
				C150.17,223.36,169.59,210.6,183.89,212.36z"/>
			<path fill="#5D290D" d="M279.25,202.65l2.44,13.31c0,0,13.15-4.97,33-0.75l-0.19-8.58C314.5,206.63,292.91,198.05,279.25,202.65z
				"/>
			<path fill="#68423E" d="M300.3,232.73c7.17-0.73,13.57,4.49,14.3,11.66l1.75,17.19c0.73,7.17-4.49,13.57-11.66,14.31
				c-7.18,0.73-13.58-4.49-14.31-11.66l-1.75-17.19C287.9,239.86,293.13,233.45,300.3,232.73z"/>
			<path fill="#68423E" d="M166.12,246.38L166.12,246.38c7.17-0.73,13.57,4.49,14.31,11.66l1.75,17.19
				c0.73,7.18-4.49,13.58-11.66,14.31c-7.17,0.73-13.57-4.49-14.31-11.66l-1.75-17.2C153.73,253.52,158.95,247.12,166.12,246.38z"/>
			<path fill="#5D290D" d="M315.33,119.55c0,0,65.87-10.72,64.92,139.24l28.3-15.4c0,0,8.77-152.38-48.09-153L315.33,119.55z"/>
			<path fill="#5D290D" d="M370.22,93.57c0,0-44.48,74.11-155.2,79.45C104.31,178.35,149,130.72,149,130.72
				s-1.75-72.26,106.74-83.31C255.74,47.41,351.33,34.79,370.22,93.57z"/>
			<path fill="#5D290D" d="M160.74,322.42c0,0,16.4,32.02,33.62,27.49c4.85,10.3,14.8,29.39,24.25,39.46c0,0,17.96,18.65,27.21,8.35
				c7.59-8.46-1.5-13.72-1.5-13.72l6.53-1.89h0.02v0.01h0.01l6.77,0.53c0,0-9.93,8.7,2.92,14.02c20.97,8.68,32.45-33.94,35.49-51.24
				c0.02,0,6.92-1.12,21.27-3.34c42.45-6.58,56.75-32.23,60.29-62.07c0.38-3.18,2.19-19.38,2.64-21.23
				c18.48-11.98,27.06-18,27.06-18s11.93,56.92-7.22,99.98c-16.93,38.07-56.53,81.55-144.33,83.39l-0.84,0.09v-0.02l-0.38,0.04
				c-12.72,1.16-51.06,0.29-72.69-35.32C159.29,351.96,160.74,322.42,160.74,322.42z"/>
			<g>
				<path fill="#68423E" d="M248.02,381.21c27.26-2.56,43.72-30.49,41.15-36.4c-1.23-3.29-6.35-1.34-14.11,1.7
					c-7.72,2.99-18.08,7.02-29.76,8c-13.36,1.62-25.77-1.08-34.16-2.39c-6.29-1.01-10.31-1.24-10.77,1.74
					C199.04,360.16,220.8,384.19,248.02,381.21z"/>
				<path fill="#FFFCFD" d="M211.14,352.1l4.45,16.3c28.79,11.49,59.75-6.7,59.75-6.7l-0.28-15.2c-7.72,2.99-18.08,7.02-29.76,8
					C231.94,356.12,219.53,353.41,211.14,352.1z"/>
			</g>
			<g>
				<path fill="#B77029" d="M461.29,225.96c-0.9,1.96-2.9,3.21-5.03,3.14l-7.53-0.18l0.48-3.01l7.11,0.2
					c2.14,0.05,4.1-1.19,5.03-3.17c0.66-1.45,1.09-2.96,1.29-4.53C462.84,221.09,462.38,223.63,461.29,225.96z"/>
				<path fill="#F29220" d="M461.35,222.94c-0.93,1.98-2.9,3.21-5.03,3.17l-7.11-0.2l2.01-12.58l5.49-0.52
					c2.89-0.27,5.44,1.74,5.8,4.6c0.05,0.31,0.07,0.63,0.12,0.93c0.02,0.04,0.01,0.07,0.01,0.07
					C462.44,219.98,462.01,221.5,461.35,222.94z"/>
				<polygon fill="#E1D38D" points="358.25,226.92 350.44,236.82 344.38,237.15 348.25,232.68 333.81,228.86 331.38,231.04 
					332.67,225.28 345.53,217.22 				"/>
				<polygon fill="#F2665E" points="451.77,217.9 448.73,212.57 345.53,217.22 350.94,224.99 				"/>
				<polygon fill="#EF4237" points="348.24,232.69 350.94,224.99 451.77,217.9 450.38,225.42 				"/>
				<polygon fill="#D63C2F" points="343.18,237.21 348.24,232.69 450.38,225.42 446.97,230.22 				"/>
				<path fill="#C4C4CF" d="M448.73,212.57c0,0,4.71,8.94-1.75,17.66l4.41-0.4c0,0,6.61-7.51,2.12-17.48L448.73,212.57z"/>
				<polygon fill="#BFB378" points="348.25,232.68 344.38,237.15 343.18,237.23 330.89,233.19 331.38,231.04 333.81,228.86 				"/>
				<path fill="#231F20" d="M332.68,225.27c0,0,5.32,4.28-1.8,7.92l-4.54-0.08c-2-0.04-3.36-2.06-2.63-3.92l0,0
					c0.32-0.82,0.99-1.45,1.83-1.7L332.68,225.27z"/>
			</g>
			<path fill="#F47A4E" d="M386.71,243.56c-0.98-8.77,3.47-17.28,11.29-21.34c7.44-3.86,17.15-5.64,26.26,3.36
				c17.56,17.33,5.55,66.78-6.29,72.98c-11.84,6.19-18.6,1.81-21.47-0.26C391.75,294.88,388.82,262.35,386.71,243.56z"/>
		</g>
	</g>
</g>
</svg>
