<?xml version="1.0" encoding="utf-8"?>
<!-- Generator: Adobe Illustrator 25.2.3, SVG Export Plug-In . SVG Version: 6.00 Build 0)  -->
<svg version="1.1" id="Layer_1" xmlns="http://www.w3.org/2000/svg" xmlns:xlink="http://www.w3.org/1999/xlink" x="0px" y="0px"
	 viewBox="0 0 576 576" enable-background="new 0 0 576 576" xml:space="preserve">
<g>
	<g>
		<defs>
			<path id="SVGID_1_" d="M576,287.73c0,158.91-128.83,287.74-287.73,287.74c-158.91,0-287.74-128.83-287.74-287.74
				C0.53,128.83,129.35,0,288.27,0C447.17,0,576,128.83,576,287.73z"/>
		</defs>
		<use xlink:href="#SVGID_1_"  overflow="visible" fill="#F9E3D9"/>
		<clipPath id="SVGID_2_">
			<use xlink:href="#SVGID_1_"  overflow="visible"/>
		</clipPath>
		<g clip-path="url(#SVGID_2_)">
			<path fill="#432011" d="M448.83,216.19c0,0,64.71,33.87,29.9,142.05c-34.81,108.19-13.28,187.25-13.28,187.25
				s-103.26-74.04-59.22-175.61C450.28,268.3,448.83,216.19,448.83,216.19z"/>
			<path fill="#5B270D" d="M464.39,596.9c0.23,6.96,0.33,15.71,0.32,25.69h6.08c-2.47-65.13-11.39-121.9-34.42-128.03l0.38,11.86
				C436.76,506.43,462.47,540.49,464.39,596.9z"/>
			<path fill="#04848F" d="M-6.98,402.35c0,0,80.09,65.79,86.45,82.32c6.36,16.52,140.02-79.04,140.02-79.04
				S45.14,307.32-0.31,292.71C-45.75,278.08-6.98,402.35-6.98,402.35z"/>
			<path fill="#27272A" d="M253.28,173.11l-125.09-24.08c-9.61-1.85-19.01,4.87-20.96,14.98L75.34,329.69
				c-1.94,10.11,4.29,19.84,13.9,21.69l125.08,24.08c9.62,1.85,19.01-4.88,20.96-14.99l31.89-165.67
				C269.12,184.69,262.89,174.96,253.28,173.11z"/>
			<polygon fill="#27272A" points="82.23,348.24 93.99,357.63 90.63,317.92 			"/>
			<path fill="#04848F" d="M83.29,622.59h80.95c6.55-73.3,8.58-160.52,8.21-205.24c-44.94,17.16-95.5,47.92-92.98,55.85
				C81.68,480.14,86.06,553.76,83.29,622.59z"/>
			<path fill="#3FA19D" d="M164.25,622.59h304.59c2.02-6.15,3.3-12.43,3.55-18.93c2.52-64.93-47.31-117.09-47.31-117.09
				s-160-70.97-196.23-80.1c-12.22-3.06-33.59,2.15-56.4,10.87C172.82,462.07,170.8,549.29,164.25,622.59z"/>
			<path fill="#CB775E" d="M268.35,364.01c0.41,4.38,0.27,48.54-19.76,63.77c-20.02,15.23-17.71,103.77,64.41,89.04
				c70.26-12.61,76.46-45.84,76.46-45.84s-25.19-26.08-26-43.48c-0.81-17.41,16.65-70.01,16.65-70.01L268.35,364.01z"/>
			<path fill="#512F21" d="M182.84,127.9c0,0-7.96,10.9,10.23,28.8c16.25,15.99,20.55,18.75,18.92,74.1l22.84-90.4
				C234.84,140.41,200.47,121.69,182.84,127.9z"/>
			<path fill="#F28B6F" d="M248.52,425.42c6.07,5.27,14.33,8.64,26.48,9.1c45.31,1.71,116.22-48.85,143.71-64.14
				c27.51-15.26,29.08-78.16,29.08-78.16l-18.78-17.15c0.4,18.76-1.36,56.64-20.86,70.42c-26.32,18.63-92.84,77.75-139.49,81.75
				C260.57,427.92,254.02,427.23,248.52,425.42z"/>
			<path fill="#F8A075" d="M213.24,359.44c18.46,22.91,18.71,51.59,35.28,65.98c5.49,1.81,12.05,2.5,20.14,1.81
				c46.66-3.99,113.18-63.11,139.49-81.75c19.49-13.78,21.25-51.66,20.86-70.42l-46.25-42.2L264.88,125.27l-22.74,11.01l-15.03,7.29
				c0,0,1.2,22.67-15.11,87.24C195.68,295.39,188.02,328.15,213.24,359.44z"/>
			<path fill="#C42126" d="M324.07,381.76c0,0-4.42,7.18-20.89,4.75c-16.47-2.43-58.83-15.46-67.03-28.74c0,0,6.88,24.37,65.4,31.19
				c0,0,17.52,1.23,23.42-4.48L324.07,381.76z"/>
			<path fill="#C42126" d="M320.96,380.36c0,0,4.95,7.44,5.17,11.16c0,0,1.23-8.94-2.55-11.85L320.96,380.36z"/>
			<path fill="#EF435C" d="M310.68,388.12c0,0-12.42,6.52-19.79,9.45c-7.37,2.93-20.78,1.18-25.91,0.28
				c-5.14-0.9-20.25-7.83-24.32-15.25c-2.53-4.61-0.14-17.76-0.14-17.76S269.66,388.61,310.68,388.12z"/>
			<path fill="#E2704B" d="M269.37,314.39c0,0-4.74,17.86-11.51,22.89c0,0,8.62,13.36,14.02,17.5c0,0-23.59-4.23-22-20.3
				C249.88,334.48,269.14,316.76,269.37,314.39z"/>
			<path fill="#49311E" d="M223.21,183.04c-1.1-0.45,10.01-10.4,16.96-4.49c6.95,5.9,16.74,14.41,17.02,21.15
				c0.14,3.29,0.03,15.47-4.46,18.15c0,0-5.57-11.72-8.77-14.94C240.77,199.7,236.95,188.76,223.21,183.04z"/>
			<g>
				<path fill="#F68E5A" d="M249.88,290.8l-31.82-36.29c2.29-5.48,7.68-14.61,17.41-11.58C250,247.67,249.88,290.8,249.88,290.8z"/>
				<path fill="#4B2524" d="M249.88,290.8l-33.12-32.55l-2.42-8l3.71,4.26c2.29-5.48,7.68-14.61,17.41-11.58
					C250,247.67,249.88,290.8,249.88,290.8z"/>
				<path fill="#FFFFFF" d="M249.88,290.8c-3.84,1.99-7.33,2.66-10.41,2.42c-2.15-0.2-4.1-0.92-5.86-1.95
					c-4.15-2.36-7.36-6.6-9.82-11.2c-1.71-3.27-3.1-6.73-4.12-9.93c-2.1-6.57-2.91-11.89-2.91-11.89s0.4-1.62,1.3-3.74
					c2.29-5.48,7.68-14.61,17.41-11.58C250,247.67,249.88,290.8,249.88,290.8z"/>
				<g>
					<path fill="#2BAAE2" d="M247.89,272.01c-2.99,13.73-9.86,20.51-15.35,15.15c-5.49-5.36-7.47-20.88-4.43-34.67
						c3.04-13.78,9.91-20.56,15.34-15.15C248.89,242.76,250.87,258.27,247.89,272.01z"/>
					<path fill="#3A160F" d="M244.26,268.42c-1.9,8.69-6.24,12.98-9.71,9.58c-3.46-3.4-4.72-13.21-2.8-21.92
						c1.92-8.71,6.26-13,9.7-9.58C244.89,249.91,246.15,259.73,244.26,268.42z"/>
					<path fill="#FFFFFF" d="M234.61,257.28c-0.7,3.19-2.29,4.76-3.56,3.51s-1.73-4.84-1.02-8.03c0.7-3.19,2.29-4.76,3.55-3.51
						C234.85,250.5,235.3,254.09,234.61,257.28z"/>
				</g>
				<path fill="#F68E5A" d="M250.01,290.03c0.86-5.11,4.75-32.93-7.72-50.53c-13.77-19.55-27.95,10.76-27.95,10.76
					c6.16-19.56,20.05-46.56,34.2-23.33C258.55,243.22,251.22,283.86,250.01,290.03z"/>
				<path fill="#4B2524" d="M249.88,290.8c0,0,0.12-43.13-14.41-47.87c-9.73-3.03-15.13,6.1-17.41,11.58l-3.71-4.26
					c0,0,14.17-30.31,27.95-10.76c12.47,17.6,8.58,45.42,7.72,50.53C249.93,290.55,249.88,290.8,249.88,290.8z"/>
			</g>
			<g>
				<path fill="#4B2524" d="M403.5,308.15l-14.04,5.43l-75.32-0.17c0,0,12.61-25.08,37.4-28.45c19.06-2.63,34.55,15.34,40.83,23.86
					L403.5,308.15z"/>
				<g>
					<path fill="#F68E5A" d="M397.6,308.39c-1.32-2.18-18.83-30.25-49.16-32.33c-31.61-2.15-40.21,37.72-40.21,37.72
						s-3.29-53.93,37.06-51.89C384.47,263.94,396.86,305.87,397.6,308.39z"/>
					<path fill="#FFFFFF" d="M389.47,313.57c-8.88,8.43-17.71,13.21-26.11,15.59c-4.67,1.28-9.28,1.88-13.64,1.83
						c-6.14-0.03-11.87-1.17-16.99-2.86c-4.64-1.57-8.8-3.56-12.29-5.56c-7.62-4.39-12.16-8.8-12.16-8.8s12.61-25.07,37.4-28.45
						c19.06-2.62,34.55,15.34,40.84,23.87C388.41,311.83,389.47,313.57,389.47,313.57z"/>
					<g>
						<path fill="#2BAAE2" d="M366.73,308.84c-1.25,12.64-11.53,21.91-22.98,20.71c-11.44-1.19-19.71-12.4-18.46-25.04
							c1.24-12.64,11.53-21.91,22.97-20.71C359.7,285,367.97,296.21,366.73,308.84z"/>
						<path fill="#3A160F" d="M359.11,308.05c-0.79,7.99-7.29,13.85-14.53,13.1s-12.47-7.84-11.68-15.84
							c0.79-7.99,7.3-13.86,14.53-13.1C354.67,292.97,359.9,300.06,359.11,308.05z"/>
						<path fill="#FFFFFF" d="M338.41,304.65c-0.29,2.93-2.67,5.07-5.32,4.8c-2.65-0.28-4.56-2.88-4.27-5.8
							c0.29-2.92,2.67-5.07,5.32-4.79C336.78,299.13,338.69,301.73,338.41,304.65z"/>
					</g>
					<path fill="#4B2524" d="M397.65,308.53l-11.12,0.67c-6.29-8.53-21.78-26.49-40.84-23.87c-24.79,3.38-37.4,28.45-37.4,28.45
						l-0.06-0.01c0,0,8.6-39.87,40.21-37.72c30.34,2.08,47.84,30.16,49.16,32.33C397.65,308.47,397.65,308.53,397.65,308.53z"/>
				</g>
			</g>
			<path fill="#49311E" d="M395.33,262.15c1.73,0.47-14.91-16.36-29.21-17.45c-14.28-1.08-40.18-3.03-48.05,1
				c-3.84,1.97-6.54,12.93-4.59,17.71c0,0,14.04-6.19,21.18-6.01C341.8,257.57,373.75,256.28,395.33,262.15z"/>
			<path fill="#67321D" d="M432.87,311.67c0,0-85.12-19.44-150.85-108.42c-57.53-77.9-99.18-75.35-99.18-75.35
				s28.16-4.67,55.96-32.34c27.79-27.67,119.77-86.92,234.24,15.86C554.92,184.94,471.67,325.52,432.87,311.67z"/>
			<path fill="#F28B6F" d="M435.53,298.71c0,0,21.65-35.58,28.42-23.35c6.78,12.22,18.76,34.07,12.08,46.46
				c-6.67,12.39-33.44,49.85-43.25,43.07c-9.8-6.77-14.75-22.56-14.75-22.56L435.53,298.71z"/>
			<path fill="#C04532" d="M465.71,305.03c0,0-20.02-7.99-38.56,24.63l1.36,3.14C428.51,332.79,438.24,309.97,465.71,305.03z"/>
			<path fill="#C04532" d="M436.08,319.34c0,0,15.79,0.84,16.91,10.98c1.12,10.14-16.47,12.25-16.47,12.25s15.19-8.27,13.39-12.1
				c-1.81-3.82-15.85-6.48-15.85-6.48L436.08,319.34z"/>
			<path fill="#67321D" d="M397.04,268.76c0,0,32.58,65.03,16.5,129.26c0,0,34.38-58.03,12.36-109.53
				C403.88,237,397.04,268.76,397.04,268.76z"/>
			<path fill="#67321D" d="M425.07,294.49c0,0,19.3,31.63,14.63,64.1c0,0,15.79-57.58,0.62-75.4
				C425.15,265.37,425.07,294.49,425.07,294.49z"/>
			<path fill="#67321D" d="M248.13,129.09c0,0-25.73-17.76-44.56-0.25c-18.83,17.52-0.49,91.71-0.49,91.71
				S190.08,129.32,248.13,129.09z"/>
			<path fill="#783A24" d="M424.91,79.27c2.61,0.27,48.21,54.77,23.48,69.37c-24.73,14.6-90.32,6.85-100.04-5.92
				c-9.73-12.77-34.33-26.19-34.33-26.19s38.67,31.17,7.95,39.72c-30.72,8.54-70.6-10.35-70.6-10.35s50.06,80.55,109.46,97.6
				c59.4,17.06,82.77,15.43,82.77,15.43s7.04-61.62-21.26-82.25c0,0,79.54,13.28,59.73-35.37
				C462.26,92.67,424.91,79.27,424.91,79.27z"/>
			<path fill="#F28B70" d="M124.87,357.17c0,0,27.87-36.44,65.6-27.03c24.1,6.01,52.36,32.22,51.38,36.65
				c-0.99,4.43-19.26,19.73-27.02,19.88c-7.76,0.15-79.01-10.23-79.01-10.23L124.87,357.17z"/>
			<path fill="#39393D" d="M263.35,183.02L140.9,159.45c-9.41-1.81-18.64,4.94-20.59,15.05L88.42,340.18
				c-1.94,10.1,4.12,19.8,13.53,21.61l122.44,23.57c9.41,1.81,18.64-4.94,20.59-15.05l31.89-165.67
				C278.83,194.53,272.76,184.83,263.35,183.02z"/>
			<path fill="#F8A075" d="M138.9,101.06v54.34C92.17,169.7-0.32,292.71-0.32,292.71s9.54,12.71,14.95,33.37
				c5.4,20.66-21.61,76.26-21.61,76.26s-7.92-3.84-19.43-10.5c7.98-7.27,13.2-12.15,13.2-12.15s-58.73-51.27-62.9-88.17
				c-4.17-36.91,183.92-170.38,183.92-170.38s-0.64-0.4-1.9-1.14C125.94,108.24,138.9,101.06,138.9,101.06z"/>
			<path fill="#F8A075" d="M181.8,179.72l-42.91-24.31v-54.35c0,0,115.85,34.8,122.04,39.33
				C267.14,144.92,181.8,179.72,181.8,179.72z"/>
			<path fill="#F8A075" d="M176.56,217.86c0,0-5.96-2.86-5.25,2.86s12.39,12.63,13.58,12.39c1.19-0.24,8.11-1.19,10.01-2.86
				c1.91-1.67,6.67-19.07,7.39-20.74c0.72-1.67,5.49-39.33,2.15-40.76c-3.34-1.43-22.65,10.97-22.65,10.97s-2.62,20.98-0.95,26.22
				C180.85,205.94,176.56,215,176.56,217.86z"/>
			<path fill="#F8A075" d="M212.79,179.72c0,0-0.24,18.6,4.53,26.94c0,0-8.82,9.77-9.06,12.87c0,0-11.62-3.55-11.44,1.43
				c0.18,4.99,0,13.82,14.54,15.5c14.54,1.67,30.28-21.45,30.75-22.65c0.48-1.19-3.34-34.33-5.72-40.76
				c-2.38-6.43-5.72-19.07-5.72-19.07l-23.12,10.25L212.79,179.72z"/>
			<path fill="#F8A075" d="M233.53,151.83c0,0,7.71,28.13,8.62,36.47c0.91,8.34,2.1,20.26,2.1,20.26s-16.82,18.51-15.32,20.46
				c1.49,1.95,9.6,9.35,21.52,4.1c11.92-5.25,22.17-29.67,21.93-32.24c-0.24-2.56-12.25-51.8-16.62-55.07
				C251.41,142.53,233.53,151.83,233.53,151.83z"/>
			<path fill="#F8A075" d="M255.22,157.55c1.15,1.28,25.27,15.73,27.18,15.26c0,0,1.43,11.91,2.14,12.87c0,0-7.15,12.39-5.25,19.78
				c1.91,7.39,5.25,9.3,8.58,8.58c3.34-0.71,17.16-18.12,17.64-20.74c0.47-2.62,0-37.9-2.62-40.52
				c-2.62-2.62-37.67-13.11-41.96-12.39C256.65,141.1,249.02,150.64,255.22,157.55z"/>
			<path fill="#F8A075" d="M237.48,177.27l3.6,4.9l-6.36-32.96l-34.64,16.48l-1.11,20.71c0,0,9.93-8.86,13.9-2.4
				C216.84,190.44,237.48,177.27,237.48,177.27z"/>
			<path fill="#F8A075" d="M151.43,341.03c-0.1,0.92-0.12,1.44-0.12,1.44l-25.82-10.5c0.19-0.92,0.37-1.84,0.56-2.79
				c5.74-31.78,1.5-72.66,7.58-75.18c2.36-0.98,2.89-3.32,2.4-6.14c0.86,0.1,1.69,0.28,2.52,0.65
				c18.26,7.98,11.97,51.57,13.04,63.92C152.57,323.57,151.73,336.7,151.43,341.03z"/>
			<path fill="#CB775E" d="M285.2,339.45c0,0,8.74-14.65,12.81-6.23c4.06,8.41-23.68,33.57-23.68,33.57L285.2,339.45z"/>
			<path fill="#F28B6F" d="M247.58,382.78c1.27,0.12,9.63,6.4,14.69,3.47c5.05-2.93,35.71-55.33,30.77-60.58
				c-4.95-5.24-9.89-4.69-14.36,1.71C269.67,340.28,247.58,382.78,247.58,382.78z"/>
			<path fill="#F28B6F" d="M232.06,392.09c1.25,0.21,9.12,7.1,14.38,4.55c5.27-2.55,39.74-52.52,35.2-58.11
				c-4.54-5.6-9.51-5.42-14.45,0.64C257.26,351.36,232.06,392.09,232.06,392.09z"/>
			<g>
				<path fill="#39393D" d="M252.81,327.05l16.68-87.04l18.76,7.12c7.37,2.82,11.65,10.49,10.16,18.26l-9.35,48.76
					c-1.48,7.75-8.3,13.32-16.18,13.18L252.81,327.05z"/>
				<path fill="#333333" d="M258.76,306.77l8.35-43.57c0.78-4.07,5.12-6.37,8.93-4.73l6.56,2.84c2.79,1.21,4.36,4.18,3.79,7.16
					L278.61,309c-0.57,2.98-3.14,5.17-6.17,5.25l-7.14,0.21C261.17,314.58,257.98,310.84,258.76,306.77z"/>
			</g>
			<g>
				<path fill="#36454C" d="M190.84,333.7c25.33,0,45.89-20.56,45.89-45.88c0-2.23-0.16-4.4-0.49-6.56
					c-3.15,22.24-22.3,39.32-45.4,39.32c-23.11,0-42.25-17.08-45.4-39.32c-0.32,2.17-0.49,4.34-0.49,6.56
					C144.96,313.14,165.51,333.7,190.84,333.7z"/>
				<ellipse fill="#3677A1" cx="190.84" cy="281.25" rx="45.4" ry="39.32"/>
				<path fill="#4290C2" d="M162.42,282.16c0-1.42,0.11-2.79,0.31-4.17c2.01-14.14,14.18-25,28.87-25s26.87,10.86,28.87,25
					c0.21,1.38,0.31,2.76,0.31,4.17c0,16.11-13.07,29.18-29.18,29.18S162.42,298.26,162.42,282.16z"/>
				<path fill="#3677A1" d="M175.11,282.16c0-0.8,0.06-1.58,0.18-2.36c1.13-7.99,8.01-14.13,16.31-14.13s15.18,6.14,16.31,14.13
					c0.12,0.78,0.18,1.56,0.18,2.36c0,9.1-7.38,16.49-16.49,16.49S175.11,291.26,175.11,282.16z"/>
				<path opacity="0.3" fill="#FFFFFF" d="M159.93,312.37c0-0.71,0.06-1.4,0.16-2.1c1.01-7.1,7.12-12.56,14.51-12.56
					c0.92,0,1.82,0.08,2.71,0.25c-0.01-0.08-0.03-0.17-0.03-0.25c0-0.47,0.03-0.93,0.1-1.4c0.67-4.74,4.75-8.38,9.67-8.38
					c4.92,0,9.01,3.64,9.67,8.38c0.07,0.46,0.1,0.92,0.1,1.4c0,4.96-3.71,9.01-8.49,9.65c0.34,0.93,0.61,1.9,0.75,2.92
					c0.1,0.69,0.16,1.38,0.16,2.1c0,8.09-6.57,14.65-14.66,14.65S159.93,320.46,159.93,312.37z"/>
				<path fill="#2D3B41" d="M190.83,343.4c30.71,0,55.59-24.88,55.59-55.59c0-30.69-24.88-55.59-55.59-55.59
					c-30.69,0-55.6,24.91-55.6,55.59C135.24,318.52,160.15,343.4,190.83,343.4z M190.83,333.7c-25.31,0-45.87-20.56-45.87-45.9
					c0-25.31,20.56-45.87,45.87-45.87c25.34,0,45.89,20.56,45.89,45.87C236.73,313.14,216.17,333.7,190.83,333.7z"/>
			</g>
			<path fill="#2DB34A" d="M237.27,340.88c1.39,4.18-0.88,8.7-5.06,10.08c-4.18,1.39-8.69-0.88-10.08-5.06
				c-1.38-4.18,0.88-8.69,5.06-10.08C231.37,334.44,235.89,336.7,237.27,340.88z"/>
			<polygon fill="#39393D" points="276.88,204.64 279.29,205.46 273.42,236.25 270.94,235.48 			"/>
			<path fill="#39393D" d="M98.54,209.15c0,0,4.08-72.95,17.53-83.88l17.53,4.27C133.61,129.55,100.04,201.4,98.54,209.15z"/>
			<path fill="#39393D" d="M105.6,126.64c0,0,33.65,3.24,39.85,8.61c6.2,5.38,27.98-19.91,60.18-15.61
				c32.2,4.3-17.82-38.11-34.36-33.51C154.71,90.74,109.43,107.28,105.6,126.64z"/>
			<path fill="#39393D" d="M89.24,351.38c0,0,16.36,33.28-21.25,83.18c-37.61,49.9-36.84,105.93,0,120.51
				c36.83,14.58,74.28-0.77,67.07-46.05c-7.21-45.28,21.11-135.2,21.11-135.2l-8.79-7.98c0,0-28.74,57.99-27.98,125.53
				c0.77,67.54-48.25,59.48-59.81,37.22c-11.56-22.26-0.05-43.37,9.93-60.63c9.98-17.27,38.76-91.6,26.48-113.15L89.24,351.38z"/>
			<path fill="#F8A075" d="M94.02,402.34c0,0,7.84,123.62,20.59,220.25h58.97c-16.73-59.14-46.09-162.88-38.57-211.66l-49.33-22.87
				c0,0,0.43,6.72,1.17,18.23L94.02,402.34z"/>
			<path fill="#F8A075" d="M228.85,404.61c-1.41,2.67-15.69,1.23-34.35-3.84c-18.63-5.03-41.04,6.66-54.61,9.7
				c-13.57,3.04-7.77,14.18-7.77,14.18s-29.93-3.47-41.72-18.63c2.18-1.32,3.71-2.27,3.71-2.27l-0.09-1.42
				c0,0,0.21-18.73,21.15-44.85c5.03-6.29,8.23-15.35,10.31-25.51c0.19-0.92,0.37-1.84,0.56-2.79c10.19,1.72,24.04,5.25,25.39,11.85
				c0.15,0.86,0.12,1.78-0.19,2.77c-3.06,10.1-6.51,37.76,4.95,30.02c11.45-7.74,62.53,12.34,65.54,9.76
				c3.01-2.55,15.88-12.95,25.91-22.87c10.04-9.91,14.18-4.88,15.71-3.5C264.89,358.59,230.26,401.94,228.85,404.61z"/>
			<path fill="#F38E70" d="M-13.21,379.69c0,0-5.22,4.88-13.2,12.15c-36.23-20.87-107.94-69.78-79.73-115.33
				C-78.23,231.44,45.73,155.25,105.9,120c1.26,0.73,1.9,1.14,1.9,1.14S-80.29,254.61-76.12,291.52
				C-71.94,328.42-13.21,379.69-13.21,379.69z"/>
			<path fill="#F38E70" d="M115.17,357.49c-20.94,26.13-21.15,44.85-21.15,44.85l0.09,1.42c0,0-1.53,0.95-3.71,2.27
				c-2.92-3.74-4.73-8.16-4.73-13.44c0.03-26.71,29.5-64.81,29.5-64.81l10.31,4.2C123.4,342.14,120.2,351.19,115.17,357.49z"/>
			<path fill="#F38E70" d="M126.04,329.18c-0.19,0.95-0.37,1.87-0.56,2.79l-10.31-4.2C115.17,327.77,119.96,328.14,126.04,329.18z"
				/>
			<path fill="#F38E70" d="M133.62,254c-6.08,2.52-1.84,43.41-7.58,75.18c-6.08-1.05-10.87-1.41-10.87-1.41s11.36-28.46,11.27-36.26
				c-0.09-8.29,1.14-24.53,0.62-32.61c-0.19-2.58,0.31-4.73,1.04-6.41c1.38-3.22,4.61-4.94,7.92-4.64
				C136.51,250.68,135.98,253.02,133.62,254z"/>
			<path fill="#276765" d="M-0.31,292.71c0,0,7.01,87.4-40.04,104.56c0,0,30.87,41.53,60.23,34.5
				c22.95-5.49,56.41-93.46,30.04-121.43L-0.31,292.71z"/>
			<path fill="#5B270D" d="M340.84,622.59c57.48-130.81,96.58-120.76,96.58-120.76l-1.05-7.27l-22.63-7.98l-37.48,31.88
				l-38.94,62.51l-19.04,41.61H340.84z"/>
			<path fill="#A64225" d="M335.04,622.59c31.26-68.37,67.03-124.4,101.34-128.03l-25.04-17.39c0,0-47.6,26.11-104.79,145.42H335.04
				z"/>
			<path fill="#037E88" d="M441.84,622.59c-0.23-25.32-17.09-45.57-44.25-49.66c-20.91-3.14-108.31,27.61-167.3,49.66H441.84z"/>
			<path fill="#F38E70" d="M114.61,622.59c-12.75-96.63-20.59-220.25-20.59-220.25l-7.18,3.96c2.56,40.39,8.82,139.85,13.18,216.29
				H114.61z"/>
		</g>
	</g>
</g>
</svg>
