<?xml version="1.0" encoding="utf-8"?>
<!-- Generator: Adobe Illustrator 25.2.3, SVG Export Plug-In . SVG Version: 6.00 Build 0)  -->
<svg version="1.1" id="Layer_1" xmlns="http://www.w3.org/2000/svg" xmlns:xlink="http://www.w3.org/1999/xlink" x="0px" y="0px"
	 viewBox="0 0 576 576" enable-background="new 0 0 576 576" xml:space="preserve">
<g>
	<g>
		<defs>
			<path id="SVGID_1_" d="M576.2,288c0,159.06-128.94,288-287.99,288c-159.06,0-288-128.94-288-288S129.14,0,288.2,0
				C447.25,0,576.2,128.94,576.2,288z"/>
		</defs>
		<use xlink:href="#SVGID_1_"  overflow="visible" fill="#F9E3D9"/>
		<clipPath id="SVGID_2_">
			<use xlink:href="#SVGID_1_"  overflow="visible"/>
		</clipPath>
		<g clip-path="url(#SVGID_2_)">
			<g>
				<g>
					<path fill="#C67E2A" d="M134.89,340.63c14.98,30.9,27.67,67.38,35.33,82.52c12.89,25.52,33.03,49.84,66.75,101.98
						c33.71,52.13,199.58,14.98,199.58,14.98s25.19-26.38,22.37-82.96c-2.81-56.58-10.87-104.51-8.43-135.72
						c2.43-31.2-153.48-119.42-153.48-119.42L127.4,298.33L134.89,340.63z"/>
				</g>
				<g>
					<path fill="#AA6828" d="M427.08,336.88c0,0,4.68,76.79-14.98,108.64c-19.67,31.84-147.04,47.76-147.04,47.76l-40.27-29.97
						c0,0-34.83-35.23-42.51-70.62c-6.14-28.3-11.21-59.76-9-70.79C176.1,307.85,427.08,336.88,427.08,336.88z"/>
				</g>
			</g>
			<path fill="#F8A184" d="M186.97,589.04c0.5,2.28,1.05,4.6,1.59,6.88c0,0.09,0,0.23,0.05,0.32c5.01,20.76,11.61,40.43,20.35,54.91
				c7.14,11.75,11.79,24.22,14.25,37.51c6.77,36.05-2.77,109.28-24.21,165.85h200.63c-28.87-72.13-35.03-155.37-9.92-203.36
				c27.31-52.22,30.45-163.85,30.45-163.85s-49.63-24.08-120.83-26.54c-28.73,1-54.68,5.51-75.39,10.56
				c-30.64,7.42-49.85,16.03-49.85,16.03s0.05,0.59,0.09,1.77C174.63,498.58,177.32,545.02,186.97,589.04z"/>
			<path fill="#F8A184" d="M191.98,483.19c-53.91,11.7-123.97,94.27-215.21,224.57c18.35,6.44,35.31,16.41,49.17,29.46
				c35.27-41.31,156.17-184.3,157.43-204.74l9.07-49.39C192.27,483.12,192.15,483.15,191.98,483.19z"/>
			<path fill="#F8A184" d="M419.87,486.95c0,0,95.61,121.26,144.45,309.97l-53.31,6.33c0,0-91.41-214.15-100.21-266.9L419.87,486.95
				z"/>
			<path fill="#F8A184" d="M298.07,515.14L298.07,515.14c-14.46,0-26.18-11.72-26.18-26.17v-83.85h52.36v83.85
				C324.26,503.42,312.53,515.14,298.07,515.14z"/>
			<path fill="#E69578" d="M271.89,462.46v-57.35l53.06,42.4C324.95,447.52,282.25,451.79,271.89,462.46z"/>
			<path fill="#27A4DC" d="M421.9,488.45c-5.26,19.81-15.43,61.19-15.33,86.13c0,3.46,0.22,6.61,0.68,9.34
				c-27.8,17.75-66.53,28.73-109.3,28.73s-81.5-10.98-109.29-28.73c0.45-2.73,0.67-5.88,0.67-9.34
				c0.1-24.95-10.07-66.33-15.33-86.13c-0.13-0.5-0.27-0.95-0.4-1.41c0.22-0.23,0.31-0.36,0.31-0.36s18.98-8.61,49.26-16.03
				c-0.05,1.41-0.09,2.87-0.09,4.28c0,57.82,32.61,104.71,72.82,104.71h4.14c40.21,0,72.82-46.89,72.82-104.71
				c0-1.41-0.05-2.87-0.09-4.28c30.27,7.42,49.25,16.03,49.25,16.03s0.09,0.14,0.31,0.36C422.18,487.5,422.04,487.95,421.9,488.45z"
				/>
			<g>
				<path fill="#F47A4E" d="M423.78,273.69c1.6-0.4,18.87-16.05,34.12,2.41c15.26,18.46-1.2,65.03-13.24,69.85
					c-12.04,4.81-22.08,1.2-23.28-2.01C420.16,340.72,423.78,273.69,423.78,273.69z"/>
				<path fill="#F47A4E" d="M172.37,273.69c-1.6-0.4-18.87-16.05-34.12,2.41c-15.26,18.46,1.2,65.03,13.24,69.85
					c12.04,4.81,22.08,1.2,23.28-2.01C175.98,340.72,172.37,273.69,172.37,273.69z"/>
				<path fill="#F8A184" d="M375.35,138.54c-44.3-40.66-110.25-40.66-154.54,0c-42.63,39.13-51.21,99.79-49.84,148.3
					c-1.37,44.38,7.22,99.88,49.84,135.68c44.29,37.2,110.24,37.2,154.54,0c42.62-35.8,51.21-91.3,49.83-135.68
					C426.56,238.33,417.97,177.67,375.35,138.54z"/>
				<path fill="#F47A4E" d="M283.57,318.71h29.02C312.58,318.71,300.92,342.9,283.57,318.71z"/>
				<path fill="#834A4C" d="M348.23,239.7l1.13,13.09c0,0,14.21-3.51,34.44,2.52l0.71-8.3C384.5,247.01,362.93,236.6,348.23,239.7z"
					/>
				<path fill="#834A4C" d="M247.91,239.7l-1.12,13.09c0,0-14.21-3.51-34.44,2.52l-0.71-8.3
					C211.65,247.01,233.22,236.6,247.91,239.7z"/>
				<g>
					<path fill="#68423E" d="M301.04,403.99c-32.14,0.21-54.7-25.14-52.39-31.1c1.05-3.3,7.25-1.92,16.69,0.25
						c9.37,2.12,21.94,5,35.71,4.79c15.8,0.25,29.96-3.59,39.61-5.67c7.22-1.58,11.89-2.21,12.78,0.63
						C355.73,378.85,333.18,404.2,301.04,403.99z"/>
					<path fill="#FFFCFD" d="M340.64,372.26l-3.25,16.18c-32.27,13.93-70.59-0.59-70.59-0.59l-1.47-14.71
						c9.37,2.12,21.94,5,35.71,4.79C316.83,378.18,331,374.34,340.64,372.26z"/>
				</g>
			</g>
			<path fill="#2297C9" d="M407.89,587l-0.06,0.08c-0.06-0.44-0.12-0.88-0.21-1.31c-0.13-0.6-0.25-1.21-0.36-1.86
				c-27.8,17.75-66.53,28.73-109.3,28.73s-81.5-10.98-109.29-28.73c-0.11,0.64-0.23,1.26-0.37,1.86c-0.31,1.37-0.45,2.77-0.49,4.17
				l-0.82-0.91c-9.79,78.87,35.46,98.96,35.46,98.96c11.47,4.23,35.34,7.55,55.45-2.82c12.61-6.51,27.51-6.51,40.13,0
				c20.1,10.37,47.03,6.89,58.5,2.66c0.01-0.05,0.03-0.09,0.03-0.14l0.03,0.04C376.58,687.74,419.65,665.91,407.89,587z"/>
			<path fill="#68423E" d="M229.2,270.81c-7.54,0-13.66,6.11-13.66,13.66v14.8c0,7.54,6.12,13.66,13.66,13.66
				c7.55,0,13.67-6.12,13.67-13.66v-14.8C242.86,276.93,236.74,270.81,229.2,270.81z"/>
			<path fill="#68423E" d="M370.33,270.81c-7.54,0-13.65,6.11-13.65,13.66v14.8c0,7.54,6.11,13.66,13.65,13.66l0,0
				c7.55,0,13.66-6.12,13.66-13.66v-14.8C383.99,276.93,377.88,270.81,370.33,270.81z"/>
			<g>
				<g>
					<path fill="#D68764" d="M432.47,289.44c0.24-5.88,0.34-12.02,0.23-18.5c-0.34-20.25,0.58-43.85-2.55-66.14l-7.09-28.58
						c-4.24-10.98-10.37-20.97-19.28-29.22l-187.21,18.53c-12.18,13.6-18.33,28.37-18,40.79c0.61,23.37-0.05,47.87-0.99,71.08
						c12.09,0.3,61.65,0,102.45-22.3c46.82-25.6,71.17-66.18,71.17-66.18s-8.11,36.2,8.74,66.18
						C390.2,273.33,414.79,283.93,432.47,289.44z"/>
				</g>
				<g>
					<path fill="#C67E2A" d="M393.7,148.64c0,0-5.01-83.35-99.6-85.23c-94.59-1.87-186.37,90.84-186.37,163.89
						s27.16,113.32,27.16,113.32s5.61-44.02,54.32-58.07C237.91,268.52,339.38,242.29,393.7,148.64z"/>
				</g>
				<g>
					<path fill="#C67E2A" d="M450.54,303.83c0,0-54.36-35.7-68.41-83.46c-14.05-47.76,8.43-81.1,8.43-81.1s44-17.55,73.5,43.2
						C493.58,243.22,450.54,303.83,450.54,303.83z"/>
				</g>
				<g>
					<path fill="#DC8B30" d="M279.11,214.19c37.53-12.88,88.62-53.47,112.94-76c-1.92-8.66-5.99-21.57-14.51-34.25
						c-48.26-28.12-105.21-33.29-160.23-3.07c-66.49,36.53-77.74,134.86-77.74,134.86S216.36,235.74,279.11,214.19z"/>
				</g>
				<g>
					<path fill="#DC8B30" d="M399.93,157.06c0,0-8.44,59.01,17.79,91.78c26.23,32.78,33.71,34.66,33.71,34.66
						S489.83,172.99,399.93,157.06z"/>
				</g>
			</g>
		</g>
	</g>
</g>
</svg>
