<?xml version="1.0" encoding="utf-8"?>
<!-- Generator: Adobe Illustrator 25.2.3, SVG Export Plug-In . SVG Version: 6.00 Build 0)  -->
<svg version="1.1" id="Layer_1" xmlns="http://www.w3.org/2000/svg" xmlns:xlink="http://www.w3.org/1999/xlink" x="0px" y="0px"
	 viewBox="0 0 576 576" enable-background="new 0 0 576 576" xml:space="preserve">
<g>
	<g>
		<defs>
			<path id="SVGID_1_" d="M575.75,288c0,159.06-128.94,288-288,288s-288-128.94-288-288c0-159.05,128.94-288,288-288
				S575.75,128.94,575.75,288z"/>
		</defs>
		<use xlink:href="#SVGID_1_"  overflow="visible" fill="#F9E3D9"/>
		<clipPath id="SVGID_2_">
			<use xlink:href="#SVGID_1_"  overflow="visible"/>
		</clipPath>
		<g clip-path="url(#SVGID_2_)">
			<g>
				<path fill="#F8A17B" d="M500.68,678.75l37.79,21.24h74.23c-6.16-11.82-13.63-23.69-22.44-33.41
					c-28.9-31.88-72.89-88.25-72.89-88.25s-74.01,3.73-56.94,28.3C477.5,631.21,500.68,678.75,500.68,678.75z"/>
			</g>
			<g>
				<path fill="#F0906B" d="M538.47,699.99h74.23c-6.16-11.82-13.63-23.69-22.44-33.41c-13.43-14.81-30.1-34.9-44.11-52.17
					c1.9,11.34-8.97,14.85-17.39,22.35c-10.82,9.63-33.85,7.03-50.42-0.72c11.98,21.45,22.35,42.72,22.35,42.72L538.47,699.99z"/>
			</g>
			<g>
				<path fill="#F8A17B" d="M119.23,550.51c0,0-60.29,27.03-79.86,33.04c-0.97,0.29-1.88,0.52-2.83,0.8v71.88
					c35.69-11.06,82.44-26.17,97.73-32.36C159.7,613.56,119.23,550.51,119.23,550.51z"/>
			</g>
			<defs>
				<filter id="Adobe_OpacityMaskFilter" filterUnits="userSpaceOnUse" x="96.93" y="453.01" width="423.13" height="246.98">
					<feColorMatrix  type="matrix" values="1 0 0 0 0  0 1 0 0 0  0 0 1 0 0  0 0 0 1 0"/>
				</filter>
			</defs>
			<mask maskUnits="userSpaceOnUse" x="96.93" y="453.01" width="423.13" height="246.98" id="SVGID_3_">
				<g filter="url(#Adobe_OpacityMaskFilter)">
					<path fill="#FFFFFF" d="M62.35,453.27c-36.63,2.3,78.41,414.77,75.57,446.47c-2.83,31.7,91.1,31.59,166.6,37.51
						c75.51,5.91,160.16-11.64,171.37-40.71C718.78,266.8,250.7,441.43,62.35,453.27z"/>
				</g>
			</mask>
			<g mask="url(#SVGID_3_)">
				<path fill="#7D5F49" d="M477.67,699.99c-0.37-63.93-2.28-143.09-9.01-172.69c-11.17-49.16-29.96-57.2-47.83-66.17
					c-17.86-8.98-51.4-8.35-74.68-7.91c-23.29,0.44-86.56,4.43-106.08,6.66c-19.52,2.23-35.46,23.81-39.32,38.94
					c-4.99,19.5-22.83,117.5-27.83,201.17H477.67z"/>
				<path fill="#6E503C" d="M461.68,699.99c-0.46-62.69-2.47-137.52-8.97-166.1c-11.17-49.16-29.96-57.19-47.83-66.17
					s-51.4-8.34-74.68-7.9c-23.29,0.44-86.56,4.43-106.08,6.66c-0.21,0.03-0.41,0.07-0.62,0.09c-11.53,8.08-20.07,21.73-22.76,32.26
					c-4.99,19.5-22.83,117.5-27.83,201.17H461.68z"/>
				<g>
					<path fill="#46465A" d="M124.58,630.37l54.25-20.46c0,0,12.28,30.88,17.54,90.08h235.01c-0.05-55.65,0.29-104.54,0.29-104.54
						l31.95,24.06l56.43-45.37c0,0-10.82-12.95-32.66-34.32c-21.83-21.36-51.61-43.06-83.23-47.78c-22.3-3.33-42.14,0.68-61.21-0.39
						c-7.97-0.45-22.83,10.57-30.57,11.58c-21.11,2.77-35.94-6.04-57.3-4.17c-5.23,0.46-10.56-6.17-15.71-5.93
						c-26.18,1.18-34.55,11.06-68.1,25.56c-33.55,14.51-74.34,38.94-74.34,38.94s5.2,11.58,12.29,32.33
						C116.3,610.71,124.58,630.37,124.58,630.37z"/>
				</g>
				<path fill="#FCB017" d="M363.63,478.51c-20.99-1.7-58-0.3-82.42,1.55c-24.42,1.86-39.64,9.84-39.64,9.84s-4.55,18.25,2.45,18.82
					c7,0.56,117.82-14.1,117.82-14.1L363.63,478.51z"/>
				<g>
					<path fill="#F8A17B" d="M353.92,489.8c-11.85-1.32-23.25-1.74-34.52-0.25c-23.76,3.12-48.47,7.1-72.35,8.71
						c5.27,14.38,16.83,31.38,42.15,34.34C323.09,536.57,345.04,505.59,353.92,489.8z"/>
				</g>
				<g>
					<path fill="#FAC2C3" d="M293.92,524.08c-20.73,0.08-32.5-15.81-38.08-26.51c-2.94,0.26-5.87,0.5-8.79,0.69
						c5.27,14.38,16.83,31.38,42.15,34.34c33.89,3.97,55.84-27.02,64.72-42.8c-4.12-0.46-8.18-0.8-12.21-1
						C334.25,500.88,316.97,523.99,293.92,524.08z"/>
				</g>
				<g>
					<path fill="#333344" d="M409.59,699.99h21.8c-0.05-55.65,0.29-104.54,0.29-104.54l31.95,24.06l56.43-45.37
						c0,0-10.82-12.95-32.66-34.32c-21.83-21.36-51.61-43.06-83.23-47.78c-4.62-0.69-9.12-1.42-13.56-2.17
						C401.42,529.53,423.17,624.39,409.59,699.99z"/>
				</g>
				<path fill="#FCD806" d="M306.51,699.99c1.61-48.23,2.12-86.77,0.12-94.63c-6.04-23.65-46.47-92.76-46.87-113.71
					c-0.39-20.95-28.01-3.66-57.24,2.48s-34.06,46.76-34.96,73.33c-0.82,24.28-6.38,82.78-8.01,132.53H306.51z"/>
				<path fill="#FEC411" d="M285.65,699.99h20.86c1.61-48.23,2.12-86.77,0.12-94.63c-6.04-23.65-46.47-92.76-46.87-113.71
					c-0.26-14.11-12.9-10.87-30.04-5.37c18.48,16.98,44.42,57.43,51.37,93.01C284.13,594.82,285.76,644.55,285.65,699.99z"/>
				<path fill="#FCD806" d="M442.66,699.99c-0.01-0.42-0.01-0.94-0.01-1.35c-1.19-62.86-16.57-100.29-17.16-131.73
					c-0.59-31.43,11.9-67.43,4.76-75.68c-7.15-8.25-62.94-13.91-73.51-13.15c0,0-32.81,38.35-46.61,84.72
					c-5.2,17.45-9.66,73.15-13.19,137.19H442.66z"/>
				<path fill="#FEC411" d="M442.66,699.99c-0.01-0.42-0.01-0.94-0.01-1.35c-1.19-62.86-16.57-100.29-17.16-131.73
					c-0.59-31.43,11.9-67.43,4.76-75.68c-2.34-2.7-9.88-5.11-19.33-7.12c4.99,13.87,1.12,47.53-2.07,79.49
					c-1.74,17.36,0.89,75.67,3.77,136.39H442.66z"/>
				<path fill="#2C1B15" d="M306.72,699.99c0.21-4.02,0.42-7.64,0.62-10.66c3.51-52.94,4-94.41,4.01-94.82
					c0.06-5.4-4.27-9.83-9.67-9.89c-5.39-0.08-9.82,4.27-9.89,9.67c-0.01,0.4-0.49,41.37-3.96,93.75c-0.22,3.36-0.46,7.39-0.7,11.96
					H306.72z"/>
				<path fill="#FEC411" d="M189.15,699.99c8.49-36.77,20-82.76,33.21-129.6c15.44-54.78,28.35-76.22,36.15-84.63
					c-4.42-8.6-20.11-2.11-38.94,3.77c-9.65,10.43-20.68,29.58-30.43,61.22c-10.55,34.26-20.22,100.33-25.62,149.24H189.15z"/>
				<path fill="#FBAA19" d="M407.56,699.99h35.1c-0.01-0.39-0.01-0.91-0.01-1.29c-12.48-30.84-25.06-79.3-27.22-103.79
					c-2.37-26.97-3.45-84.24,5.67-94.67c3.1-3.54,6.54-6.21,9.72-8.22c-0.18-0.29-0.37-0.56-0.57-0.8
					c-3.9-4.5-22.27-8.23-39.88-10.57c-10.53,18.68-18.5,65.46-12.11,119.15C381.65,628.27,394.12,665.63,407.56,699.99z"/>
				<g>
					<path fill="#7D5F49" d="M397.71,699.99h35.71c-12.65-30.76-25.57-80.04-27.76-104.88c-2.38-26.97-3.45-84.25,5.67-94.67
						c9.12-10.42,21.17-13.44,21.17-13.44s-26.53-23.72-44.98-14.06c-13.44,7.04-26.78,62-19.03,127.07
						C371.86,628.4,384.29,665.68,397.71,699.99z"/>
					<path fill="#7D5F49" d="M182.2,699.99c8.52-37.05,20.19-83.75,33.6-131.35c25.54-90.62,43.81-85.37,43.81-85.37
						s-19.7-7.31-30.85-5.7c-11.15,1.61-30.37,20.13-46.17,71.44c-10.67,34.66-20.44,101.92-25.81,150.99H182.2z"/>
					<path fill="#71523E" d="M425.99,699.99h7.43c-12.65-30.76-25.57-80.04-27.76-104.88c-2.38-26.97-3.45-84.25,5.67-94.67
						c9.12-10.42,21.17-13.44,21.17-13.44l-8.92-3.56c0,0-12.05,3.02-21.17,13.44c-9.12,10.42-8.04,67.69-5.67,94.67
						C399.01,617.37,412.88,669.62,425.99,699.99z"/>
					<path fill="#71523E" d="M182.2,699.99c8.52-37.05,20.19-83.75,33.6-131.35c25.54-90.62,43.81-85.37,43.81-85.37
						s-5.23-1.94-11.83-3.6c-7.02,4.27-21.27,20.89-39.05,83.98c-14.02,49.75-26.14,98.55-34.75,136.34H182.2z"/>
					<path fill="#96725A" d="M405.79,479.11c-8.24,1.53-22.76,3.69-26.6,21.94c-3.85,18.24-7.21,62.55-4.71,96.04
						c2.5,33.49,12.51,70.56,19.1,74.17c6.59,3.6,8.9,2.63,4.76-19.19c-4.14-21.81-14.68-86.83-8.26-116.76
						c6.42-29.94,11.26-45.4,16.8-47.83C412.43,485.05,411.37,478.08,405.79,479.11z"/>
					<path fill="#96725A" d="M233.46,480.04c-6.98,0.13-19.81,11.55-32.76,41.61c-12.94,30.06-25.94,81.54-25.58,100.63
						c0.36,19.1,11.34,8.64,13.8-9.57c2.45-18.21,18.91-84.21,30.68-102.13S239.51,479.93,233.46,480.04z"/>
				</g>
			</g>
			<polygon fill="#F8A17B" points="255.93,431.23 276.44,511.62 317.31,506.94 333.43,493.73 324.79,414.78 			"/>
			<path fill="#E07E60" d="M328.09,444.94l-3.01-27.45c-4.22,0.12-9.22,0.37-14.71,0.74l-54.44,13l8.63,33.82
				C295.18,463.68,316.96,452.35,328.09,444.94z"/>
			<g>
				<path fill="#F0906B" d="M149.26,264.31c0,0-30.63-1.28-31.67,23.68c-1.04,24.95,27.03,32.94,27.03,32.94L149.26,264.31z"/>
				<path fill="#9A733B" d="M148.98,162.03c0,0-28.87,93.1,0.57,122.73c29.44,29.64,51.38-114.89,51.38-114.89L148.98,162.03z"/>
				<path fill="#F8A17B" d="M162.31,169.4c0,0-1.66,66.97-15.84,107.28c-14.18,40.31-16.3,64.08,10.59,100.43
					c26.89,36.34,74.62,63.33,128.03,63.28s101.75-42.34,118.29-57.56c16.54-15.21,22.12-94.52,22.97-114.93
					c0.85-20.42-29.11-146.65-56.14-152.32C343.17,109.91,162.31,169.4,162.31,169.4z"/>
				<path fill="#F0906B" d="M154.5,245.24c14.46,1.63,48.36,5.26,68.61,7.21c24.27,2.34,69.76-5.98,94.69-17.63
					c24.93-11.65,70-42.31,70-42.31l-227.63,10.48C159.01,215.75,157.22,230.72,154.5,245.24z"/>
				<path fill="#F0906B" d="M375.54,118.19c-20.59,19.09-39.35,40.19-32.05,46.28c14.2,11.85,42.25,115.66,39.91,139.92
					c-2.34,24.27-18.91,84.21-107.12,99.84c-76.73,13.61-125.94-45.91-137.44-61.64c3.05,10.81,8.88,21.9,18.22,34.52
					c26.89,36.34,74.62,63.33,128.03,63.28s101.75-42.34,118.29-57.56c16.54-15.21,22.12-94.52,22.97-114.93
					C427.14,248.82,401.03,137.34,375.54,118.19z"/>
				<path fill="#B29059" d="M387.12,117.56c0,0,40.96-1.62,53.71,50.57c21.94,89.77-22.85,118.06-22.85,118.06
					S349.67,184.86,387.12,117.56z"/>
				<path fill="#F0906B" d="M397,290.54c3.41,0.14,40.27-11.96,51.57-10.35c11.29,1.61,17.48,16.64,14.32,38.1
					c-3.17,21.45-20.85,36.63-59.97,21.36C363.78,324.38,397,290.54,397,290.54z"/>
				<path fill="#FFFFFF" d="M215.79,340.18c0,0,12.54,8.09,43.64,7.12c31.1-0.98,41.37-11.15,41.37-11.15s-5.99,34.59-42.41,36.1
					C221.96,373.76,215.79,340.18,215.79,340.18z"/>
				<path fill="#E88660" d="M252.71,235.67c-7.49,2.15-4.85,25.55-14.65,42.57c-9.8,17.01-13.22,46.41,3.97,50.91
					c17.2,4.5,40.48-8.92,33.83-49.34C269.23,239.39,261.91,233.02,252.71,235.67z"/>
				<path fill="#9A733B" d="M315.91,208.63l-2.74,11.25c0,0,15.19,3.48,24.62,8.98c9.42,5.51,14.08,2.87,13.14-1.72
					C349.99,222.56,335.17,210,315.91,208.63z"/>
				<path fill="#9A733B" d="M203.8,227.93l-0.94,8.48c0,0-15.19-2.14-24.92,0.72c-9.74,2.87-9.31-9.16-3.43-9.84
					C180.39,226.61,192.62,225.92,203.8,227.93z"/>
				<path fill="#9A733B" d="M440.84,168.13c-12.75-52.19-53.71-50.57-53.71-50.57c-0.5,0.89-0.97,1.79-1.42,2.7l0.63,8.01
					c0,0,43.77,40.16,32.87,84.15c-5.98,24.17-14.61,33.76-21.17,37.49c10.14,21.73,19.95,36.28,19.95,36.28
					S462.77,257.9,440.84,168.13z"/>
				<path fill="#C9705B" d="M429.53,305.38c0.33-6.99,13.32-10.03,17.1-7.31c3.78,2.73,3.24,23.7-3.67,27.56
					c-6.91,3.86-20.02,0.38-20.02,0.38s2.72-4.25,8.3-4.35c5.59-0.1,10.2-3.03,11-9.52c0.81-6.54-2.51-9.73-4.38-9.7
					C436,302.47,429.53,305.38,429.53,305.38z"/>
				<path fill="#F59D82" d="M245.12,300.02c-2.73,0.22-10.87,5.14-8.67,9.8c2.21,4.66,22.58,4.03,19.66-4.03
					C253.2,297.73,248.15,299.78,245.12,300.02z"/>
				<path fill="#E2DFD7" d="M232.4,356.27c0,0,8.81,4.02,23.82,3.39c15.01-0.63,23.69-3.6,23.69-3.6s-13.14,7.58-25.71,7.83
					C241.64,364.13,232.4,356.27,232.4,356.27z"/>
				<path fill="#E2DFD7" d="M300.8,336.14c0,0-10.27,10.17-41.37,11.15c-31.1,0.97-43.64-7.12-43.64-7.12s0.46,2.43,1.81,5.95
					c5.82,3.09,17.2,7.04,36.74,6.24c24.2-0.99,39.17-7.41,44.77-10.31C300.37,338.53,300.8,336.14,300.8,336.14z"/>
				<path fill="#E07E60" d="M235.96,378.21c0,0,6.38,4.42,20.7,4.5c14.33,0.08,23.62-7.08,23.62-7.08s-4.33,11.26-21.78,12.29
					C241.06,388.95,235.96,378.21,235.96,378.21z"/>
				<path fill="#D97657" d="M275.87,279.81c-2.61-15.89-5.33-26.5-8.22-33.38c3.95,15.45,8.56,45.01,1.16,57.81
					c-9.81,16.95-26.39,19.65-36.58,16.28c1.9,4.26,5.07,7.4,9.82,8.64C259.23,333.65,282.52,320.23,275.87,279.81z"/>
				<path opacity="0.49" fill="#FAB79C" d="M192.95,293.78c-0.95-6.19-37.33-0.69-39.48,9.13S196.94,319.56,192.95,293.78z"/>
				<path opacity="0.49" fill="#FAB79C" d="M367.49,297.47c0.24-6.25-34.81-7.26-38.62,2.01
					C325.06,308.76,366.49,323.52,367.49,297.47z"/>
				<path fill="#403535" d="M332.21,257.62c0.24,12.73-5.82,23.16-13.54,23.31c-7.71,0.15-14.16-10.05-14.4-22.78
					c-0.24-12.73,5.82-23.17,13.54-23.31C325.52,234.68,331.97,244.88,332.21,257.62z"/>
				<path fill="#FFFFFF" d="M323.74,252.88c0.07,3.86-1.96,7.03-4.53,7.07c-2.57,0.05-4.71-3.03-4.78-6.9
					c-0.08-3.86,1.95-7.02,4.52-7.07C321.52,245.93,323.66,249.03,323.74,252.88z"/>
				<path fill="#403535" d="M212.07,259.88c0.24,12.73-5.82,23.17-13.53,23.31c-7.72,0.14-14.16-10.06-14.41-22.79
					c-0.23-12.73,5.82-23.16,13.54-23.31C205.38,236.95,211.83,247.15,212.07,259.88z"/>
				<path fill="#FFFFFF" d="M203.6,255.15c0.07,3.86-1.95,7.02-4.52,7.07c-2.57,0.05-4.72-3.04-4.79-6.9s1.95-7.03,4.52-7.07
					S203.52,251.29,203.6,255.15z"/>
				<path fill="#666767" d="M125.56,160.94c3.97-30.99,20.37-75.23,64.83-100.72c45.36-26.01,64.27-28.8,99.91-26.62
					c35.63,2.17,80.42,14.89,110.23,53.89c29.81,38.99,36.69,57.19,40.78,75.57c4.1,18.39-72.66,28.44-114.51,31.38
					c-55.75,3.92-160.6,0.07-187.94-3.61C129.23,189.53,123.16,179.79,125.56,160.94z"/>
				<path fill="#595A5A" d="M441.33,163.06c-4.09-18.39-10.97-36.58-40.78-75.57c-29.62-38.75-74.02-51.56-109.55-53.84
					c27.74,16.54,63.69,56.67,74.3,101.53c5.12,21.66-4.43,41.65-3.6,55.97C397.44,185.97,444.13,175.62,441.33,163.06z"/>
				<path fill="#46465A" d="M127.18,176.31c-9.96,4.43-43.82,14.28-54.97,15.06s-11.64,20.42-1.09,24.36
					c10.55,3.92,99.45,20.1,159.05,17.78c59.59-2.32,94.73-20.66,117.5-28.79c22.78-8.14,35.39-14.63,41.63-18.8
					c6.25-4.18-0.84-12.08-30.38-7.21c-29.54,4.88-83.62,5.87-126.56,6.08C189.43,185.01,127.18,176.31,127.18,176.31z"/>
				<path fill="#535367" d="M385.59,178.29c-6.91,4.15-19.06,10.01-39.02,17.14c-22.78,8.14-57.9,26.48-117.5,28.8
					c-59.59,2.32-148.5-13.86-159.05-17.78c-2.94-1.1-5.03-3.42-6.26-6.21c-1.04,6.02,1.39,13.29,7.37,15.51
					c10.55,3.92,99.45,20.1,159.05,17.78c59.59-2.32,94.73-20.66,117.5-28.79c22.78-8.14,35.39-14.63,41.63-18.8
					C392.82,183.58,392.12,180.05,385.59,178.29z"/>
				<path fill="#737374" d="M234.26,53.8c-23.43,7.51-77.31,49.9-71.41,66.56c5.9,16.66,77.01,33.02,115.11,27.64
					c38.1-5.38,44.83-43.7,33.32-61.19C299.78,69.33,271.31,41.92,234.26,53.8z"/>
				<path fill="#D97657" d="M246.1,252.19c7.2-0.61,14.88-1.66,22.61-3.04c-4.75-13.08-9.97-15.22-16-13.48
					C248.85,236.78,247.68,243.56,246.1,252.19z"/>
				<path fill="#898989" d="M250.48,130.03c0.23,12.42-11.19,22.71-25.52,22.99c-14.33,0.27-26.14-9.58-26.37-22.01
					s11.19-22.71,25.52-22.99C238.44,107.76,250.25,117.61,250.48,130.03z"/>
			</g>
		</g>
	</g>
</g>
</svg>
