<?xml version="1.0" encoding="utf-8"?>
<!-- Generator: Adobe Illustrator 25.2.3, SVG Export Plug-In . SVG Version: 6.00 Build 0)  -->
<svg version="1.1" id="Layer_1" xmlns="http://www.w3.org/2000/svg" xmlns:xlink="http://www.w3.org/1999/xlink" x="0px" y="0px"
	 viewBox="0 0 576 576" enable-background="new 0 0 576 576" xml:space="preserve">
<g>
	<g>
		<defs>
			<path id="SVGID_1_" d="M576,288c0,159.05-128.94,288-288,288C128.94,576,0,447.06,0,288C0,128.94,128.94,0,288,0
				C447.06,0,576,128.94,576,288z"/>
		</defs>
		<use xlink:href="#SVGID_1_"  overflow="visible" fill="#F9E3D9"/>
		<clipPath id="SVGID_2_">
			<use xlink:href="#SVGID_1_"  overflow="visible"/>
		</clipPath>
		<g clip-path="url(#SVGID_2_)">
			<path fill="#F9E3D9" d="M576,288c0,159.05-128.94,288-288,288C128.94,576,0,447.06,0,288C0,128.94,128.94,0,288,0
				C447.06,0,576,128.94,576,288z"/>
			<g>
				<path fill="#14A7E0" d="M280.59,489.83c-2.56,3.4-4.77,6.72-6.5,10.05l-3.95-6.45C273.79,492.33,277.3,491.13,280.59,489.83z"/>
				<path fill="#7DC5EE" d="M206.53,512.43c6.57,0.31,13.17,0.3,19.59-0.07c6.45-0.35,12.73-1.04,18.59-2.06
					c3.48-0.6,6.82-1.31,9.98-2.15c1.76-0.46,3.47-0.96,5.1-1.5c-0.27,1.1-0.53,2.22-0.77,3.34c-2.86,12.73-4.87,27.05-6.02,42.6
					c-0.01,0.04-0.01,0.09-0.01,0.12c-2.02,27.07-1.37,57.76,1.85,89.75h300.24c3.68-25.55,5.71-51.89,5.37-78.65
					c-0.46-36.29-4.24-68.09-10.05-95.76c-5.14-12.31-10.53-23.72-16.07-34.32c-4.31-8.25-8.71-16-13.17-23.26
					c-16.7-27.35-34.1-48.04-49.89-63.46c-0.08-0.07-0.14-0.15-0.23-0.22c-0.51-0.51-1.02-1-1.54-1.5
					c-6.86-6.58-13.39-12.19-19.4-16.88c-20.9-16.4-43.21-31.62-43.21-31.62s-2.5,0.97-6.96,2.79c-0.76,0.31-1.58,0.66-2.46,1.02
					c-0.87,0.35-1.68,0.85-2.48,1.44c-6.58,4.97-11.73,17.44-25.04,23.67l-0.01,0.01c-0.79,0.36-1.58,0.74-2.38,1.11
					c-6.47,3.06-13.38,6.4-20.57,10.01c-22.35,11.24-47.42,25.08-70.62,40.68c-6.04,4.06-11.96,8.24-17.66,12.51
					c-1.14,0.85-2.25,1.71-3.36,2.55c-2.32,1.78-4.59,3.58-6.83,5.38c-3.75,3.03-7.36,6.12-10.83,9.23
					c-2.44,2.21-4.81,4.43-7.1,6.66c-1.01,0.97-2.02,1.98-2.97,2.97c-0.83,0.83-1.64,1.65-2.44,2.5c-0.57,0.61-1.14,1.2-1.69,1.81
					c-1.25,1.34-2.45,2.8-3.6,4.37c-5.01,6.76-9.27,15.52-12.76,25.93c0,0-0.01,0.04-0.03,0.07c-2.41,7.14-4.46,15.03-6.15,23.6
					c-0.97,4.86-1.82,9.93-2.53,15.2l-0.01,0.02c-0.41,2.88-0.77,5.82-1.1,8.81c-0.08,0.68-0.15,1.35-0.22,2.03
					c-0.09,0.83-0.18,1.67-0.26,2.51c-0.24,2.61-0.47,5.27-0.68,7.96c0.41,0.04,0.79,0.08,1.2,0.12
					C200.38,512.06,203.44,512.28,206.53,512.43z M280.59,489.83c-2.56,3.4-4.77,6.72-6.5,10.05l-3.95-6.45
					C273.79,492.33,277.3,491.13,280.59,489.83z"/>
				<path fill="#72C2EC" d="M199.27,614.18c1.13,9.36,2.48,18.81,4.06,28.29h51.51c-3.22-32.04-3.87-62.78-1.85-89.88
					c1.26-16.91,3.52-32.41,6.8-45.94c-9.49,3.11-21.26,5.04-33.67,5.73c-9.45,0.53-19.27,0.33-28.77-0.6
					c1.04,21.52,4.75,33.47,4.75,33.47C199.11,568.82,198.38,591.94,199.27,614.18z"/>
				<path fill="#02597E" d="M251.85,591.43c0.01,0.22,0.01,0.43,0.01,0.66c0.01,0.82,0.03,1.65,0.05,2.5
					c0.01,1.4,0.05,2.81,0.09,4.22c0,0.34,0,0.68,0.02,1.02c0,0.11,0,0.22,0.01,0.32c0,0.28,0.01,0.56,0.03,0.84
					c0,0.26,0.01,0.53,0.01,0.81c0.03,1.33,0.08,2.68,0.14,4.03c0,0.34,0.02,0.67,0.03,1.01c0,0.12,0.01,0.25,0.01,0.39
					c0.02,0.2,0.02,0.4,0.03,0.6c0.05,1.15,0.09,2.3,0.16,3.44c0.05,0.92,0.09,1.83,0.14,2.76c0,0.2,0.01,0.39,0.03,0.59
					c0.03,0.54,0.06,1.08,0.09,1.64c0.01,0.55,0.05,1.09,0.09,1.63c0.05,0.75,0.09,1.51,0.14,2.27c0.03,0.59,0.08,1.2,0.11,1.79
					c0.14,1.96,0.28,3.93,0.43,5.91c0,0.08,0.01,0.16,0.01,0.24c0.11,1.38,0.22,2.76,0.34,4.16c0.03,0.47,0.07,0.91,0.11,1.38
					c0,0.16,0.01,0.31,0.05,0.47c0.01,0.39,0.06,0.77,0.09,1.16c0.02,0.16,0.03,0.33,0.05,0.5c0.02,0.16,0.03,0.3,0.05,0.45v0.02
					c0.02,0.25,0.05,0.49,0.07,0.74c0.01,0.09,0.01,0.17,0.03,0.26c0,0.03,0.01,0.08,0.01,0.11c0,0.11,0.01,0.23,0.03,0.34
					c0.03,0.39,0.07,0.76,0.11,1.15c0.02,0.14,0.02,0.3,0.03,0.43c0.09,1.06,0.2,2.13,0.32,3.2H553.6
					c1.42-8.7,2.67-17.32,3.68-25.79c0.39-3.18,0.73-6.35,1.06-9.48c0.01-0.2,0.05-0.42,0.06-0.62c0.12-1.1,0.22-2.21,0.33-3.31
					c0.34-3.8,0.65-7.55,0.9-11.26c0.12-1.83,0.23-3.63,0.32-5.43c0.1-1.8,0.19-3.6,0.25-5.37c0.16-3.82,0.24-7.58,0.26-11.27
					c0.02-0.25,0.02-0.51,0.02-0.76v-1.48c0-0.31,0-0.6-0.02-0.91c0-0.05,0.02-0.08,0-0.12c0.02-0.12,0.02-0.25,0-0.37
					c0-0.83,0-1.64-0.01-2.46c-0.47-36.29-4.25-68.1-10.05-95.78c-5.13-12.31-10.53-23.72-16.07-34.32
					c-4.29-8.24-8.7-16-13.16-23.26c-16.7-27.36-34.1-48.03-49.89-63.46c-0.08-0.08-0.14-0.16-0.24-0.22
					c-0.53-0.53-1.07-1.02-1.62-1.49c-12.67-10.94-31.35-11.73-45.12-1.89c-45.31,32.4-67.89,84.34-79.1,129.7
					c-12.25,49.5-10.97,91.19-10.97,91.19l-81.25-11.6c-0.09,1.27-0.18,2.54-0.26,3.83c-0.09,1.34-0.17,2.67-0.24,4.02
					c-0.01,0.03-0.01,0.07-0.01,0.1c-0.01,0.2-0.01,0.41-0.03,0.64c-0.05,0.74-0.07,1.48-0.11,2.23c-0.01,0.32-0.03,0.65-0.05,0.98
					c-0.05,0.77-0.08,1.55-0.09,2.34c-0.03,0.45-0.05,0.92-0.07,1.37c0,0.19-0.01,0.37-0.01,0.56c-0.09,2.73-0.17,5.5-0.22,8.29
					c-0.05,2.96-0.08,5.96-0.08,9c0,1.48,0.01,2.99,0.03,4.5V591.43z M376.31,483.48v-0.03c8.95-35.48,23.22-61.36,38.91-80.23
					c21.83-26.28,60.01-28.62,84.76-7.79c3.6,3.03,6.9,6.53,9.84,10.52c18.21,24.85,33.76,59.31,34.18,102.93
					c0.17,16.49-1.83,34.32-6.68,53.4c-8.17,32.22-22.03,50.09-38.45,58.6c-3.96,2.06-8.06,3.57-12.27,4.59
					c-0.33,0.08-0.67,0.16-0.99,0.24c-39.61,8.98-87.97-23.21-108.67-38.99c-6.44-4.89-10.2-8.21-10.2-8.21
					C366,540.95,369.71,509.61,376.31,483.48z"/>
				<path fill="#054866" d="M560.46,566.28c0.02,0.12,0.02,0.25,0,0.37v0.12c0.02,0.3,0.02,0.6,0.02,0.91v1.48
					c0,0.25,0,0.49-0.02,0.76c-0.03,3.69-0.11,7.46-0.26,11.27c-0.06,1.79-0.15,3.57-0.25,5.37c-0.09,1.8-0.2,3.61-0.32,5.43
					c-0.25,3.71-0.56,7.46-0.9,11.26c-0.11,1.1-0.2,2.21-0.33,3.31c-0.01,0.2-0.05,0.41-0.06,0.62c-0.32,3.15-0.67,6.3-1.06,9.48
					c-1.02,8.47-2.26,17.09-3.68,25.79h35.94c-2-36.99-7.47-75.34-18.06-113.23c-6.28-22.5-13.4-42.82-21.08-61.19
					c5.8,27.68,9.59,59.48,10.05,95.78C560.46,564.64,560.46,565.45,560.46,566.28z"/>
				<path fill="#02597E" d="M201.74,642.46h142.48l-9.99-78.15l-81.24-11.73l-25.33-3.66c-2.03-10.11-2.3-22.96-1.54-36.55v-0.02
					c2.3-41.07,13.89-88.97,13.89-88.97l-14.83-4.05l-14.96-4.06c-10.18,34.3-12.89,78.94-13.74,92.37
					c-0.02,0.09-0.02,0.16-0.02,0.2c-0.15,2.45-0.24,3.8-0.31,3.8c-2.31,30.64-1.3,65.92,3.12,102.53
					C199.63,623.41,200.55,632.89,201.74,642.46z"/>
				<path fill="#14A7E0" d="M274.09,499.88c-2.41-1.86-4.64-3.75-6.74-5.65c-2.07-1.86-3.99-3.75-5.78-5.61
					c-6.5-6.83-11.2-13.6-14.57-19.8c-8.53-15.61-8.79-27.6-8.79-27.6l16.42,26.85l11.88,19.43l3.62,5.93L274.09,499.88z"/>
				<path fill="#1A96C8" d="M493.17,642.46c1.95-7.26,3.85-14.47,5.69-21.58c12.99-50.42,21.87-84.9,23.61-114.92
					c0.67-11.39-0.14-24.85-2.49-38.5c-0.01,2.53-0.08,5-0.22,7.37c-1.75,30.03-10.63,64.5-23.61,114.92
					c-4.45,17.28-9.3,35.14-14.33,52.73H493.17z"/>
				<path fill="#14A7E0" d="M481.81,642.46c5.04-17.59,9.88-35.45,14.33-52.73c12.98-50.42,21.87-84.89,23.61-114.92
					c0.14-2.37,0.2-4.83,0.22-7.37c-8.3-48.66-35.8-99.95-84.09-69.56c-32.3,20.31-54.74,109.1-58.96,188.83
					c-1.05,19.71-1.61,38.66-1.88,55.75H481.81z"/>
				<path fill="#0388B8" d="M322.23,413.51c-3.06-13.89,17.51-72.45,44.3-99.51c26.78-27.06,38.84-27.49,34.91,13.12
					c-3.93,40.61-45.33,116.21-45.33,116.21L322.23,413.51z"/>
				<path fill="#14A7E0" d="M383.1,373.92c-0.07,4.32-0.24,9.29-0.53,14.45c-0.08,2.02-0.2,4.13-0.35,6.17
					c-1.11,16.55-2.82,32.89-2.82,32.89l-9.41-0.66c0,0-96.02,73.34-95.9,73.11c1.73-3.33,3.94-6.65,6.5-10.05
					c2.23-3.01,4.73-6.08,7.37-9.28c10.76-13.12,23.86-28.54,31.47-51.01c0.7-1.98,1.39-4.03,2.09-6.01
					c-0.03-0.07-0.03-0.07-0.03-0.07c1.56-4.47,3.07-8.86,4.6-13.17c2.59-7.16,5.16-14.09,7.66-20.53c0.07-0.25,0.18-0.44,0.24-0.7
					c7.58-19.51,14.57-34.45,19.07-37.6c0,0,0.07-0.01,0.26-0.14c0.19-0.11,0.5-0.29,0.85-0.46c10.53-6.6,19.6-4.08,24.58,2.87
					c2,2.76,3.34,6.22,3.87,10.1C382.98,366.27,383.14,369.75,383.1,373.92z"/>
				<path fill="#84C7EE" d="M408.14,481.25c1.29,0.43,2.02,0.64,2.02,0.64l8.24-49.22l18.77-97.34l2.89-9.89
					c0,0-2.39-3.14-6.06-8.25c-10.51-14.91-25.52-11.79-27.87-27.76c-2.97-20.28-36.9,20.88-40.61,25.51
					c3.66-3.7,33.23-33.02,24.3,8.04c-2.25,10.39-6.36,20.73-11.33,30.64c-15.81,32.18-40.18,60.88-38.43,76.84
					c0,0,0.05-0.09,0.15-0.39c0.2-0.47,0.36-0.73,0.51-1.23c2.51-5.36,11.97-21.45,27.86,10.11c0.01,0.12,0.14,0.2,0.14,0.33
					c3.09,6.06,6.22,11.2,9.43,15.67c2.42,3.51,4.79,6.51,7.14,9.15c3.07,3.43,6.09,6.24,8.88,8.43
					C400.35,477.78,405.49,480.22,408.14,481.25z"/>
				
					<rect x="126.05" y="234.5" transform="matrix(-0.8352 0.55 -0.55 -0.8352 460.0891 337.053)" fill="#713825" width="106.97" height="5.93"/>
				<path fill="#F19379" d="M422.68,147.49c-3.85,1.46-7.85,3.18-11.9,4.94c-8.52-53.65-59.14-100.53-115.71-109.38
					C354.49,46,410.47,92.44,422.68,147.49z"/>
				<path fill="#F6A980" d="M424.66,179.17c-11.35,114.63-45.66,115.24-99.12,215.63c-36.04,67.68-66.6,78.57-89.91,72.61
					c-11.26-2.89-20.83-9.7-28.5-15.94c-13.17-10.72-24.45-51.12-32.55-90.63c-0.01-0.04-0.03-0.09-0.04-0.13
					c-2.55-12.48-4.79-24.86-6.69-36.19c0,0-0.01,0,0-0.01c-2.8-16.83-4.82-31.33-5.93-40.36c-0.28-2.23-0.45-4.4-0.53-6.51
					c-0.41-10.92,1.57-20.38,3.87-28.77c4.11-15.08,9.25-26.76,3.41-37.53c-13.7-25.3-4.63-68.13-4.63-68.13
					c1.33-3.22,2.68-6.35,4.08-9.4c31.34-68.49,80.21-93.07,126.94-90.75c56.57,8.85,107.19,55.73,115.71,109.38
					c4.04-1.76,8.05-3.48,11.9-4.94c0.69,3.16,1.25,6.32,1.65,9.53v0.01C425.26,164.33,425.39,171.74,424.66,179.17z"/>
				<g>
					<path fill="#FFFFFF" d="M262.15,221.89c0,0,10.93-25.39,36.12-17.89c28.1,8.36,28.29,22.19,23.78,38.15
						c-3.07,10.9-19.68,21.92-36.04,23.67C269.66,267.57,253.01,248.22,262.15,221.89z"/>
					<path fill="#3E8170" d="M296.93,247.96c-0.24,9.3-6.85,16.88-14.76,16.93c-7.91,0.05-14.13-7.44-13.89-16.74
						c0.24-9.3,6.85-16.88,14.76-16.93C290.95,231.17,297.17,238.66,296.93,247.96z"/>
					<path fill="#0A1F15" d="M285.58,250.71c-0.12,4.75-3.49,8.62-7.54,8.65c-4.04,0.03-7.22-3.8-7.09-8.55
						c0.12-4.75,3.5-8.61,7.54-8.64C282.53,242.13,285.71,245.96,285.58,250.71z"/>
					<path fill="#FFFFFF" d="M302.01,247.93c-0.07,2.57-2.36,4.67-5.12,4.68c-2.76,0.02-4.94-2.05-4.87-4.62
						c0.07-2.57,2.36-4.67,5.12-4.69S302.07,245.36,302.01,247.93z"/>
				</g>
				<path fill="#E18662" d="M259.74,226.22l64.72-1.8c0.85-3.91,8.98-45.76-30.11-49.99C260.98,181.98,259.74,226.22,259.74,226.22z
					"/>
				<g>
					<path fill="#FFFFFF" d="M230.12,230.36c0,0,0.69-27.46-25.06-29.11c-36.09-2.31-34.56,19.68-33.7,30.79
						c0.85,11.02,8.29,26.66,22.83,32.31C208.73,270.01,229.64,257.71,230.12,230.36z"/>
					<path fill="#3E8170" d="M210.4,246.03c0.51,9.27-5.27,17.19-12.9,17.7c-7.63,0.51-14.23-6.59-14.74-15.85
						c-0.51-9.27,5.27-17.19,12.9-17.7C203.29,229.67,209.89,236.77,210.4,246.03z"/>
					<path fill="#0A1F15" d="M199.66,249.42c0.26,4.73-2.69,8.78-6.59,9.04c-3.9,0.26-7.27-3.36-7.52-8.1
						c-0.26-4.73,2.69-8.78,6.59-9.04C196.04,241.07,199.4,244.69,199.66,249.42z"/>
					<path fill="#FFFFFF" d="M215.29,245.7c0.14,2.56-1.9,4.78-4.56,4.96c-2.66,0.18-4.92-1.75-5.07-4.31
						c-0.14-2.56,1.9-4.78,4.56-4.96S215.16,243.14,215.29,245.7z"/>
				</g>
				<path fill="#E18662" d="M231.47,224.71l-61.94-6.72c-0.26-3.96-2.03-46.13,36.15-47.34
					C236.66,180.7,231.47,224.71,231.47,224.71z"/>
				<path fill="#F38B6F" d="M239.18,232.31c0,0-47.87,76.94-47.86,91.03c0.02,14.08,60.28,12.8,72.78,7.43
					c12.51-5.37,3.06-19.19-8.27-17.06C244.51,315.84,257.19,220.36,239.18,232.31z"/>
				<path fill="#E27548" d="M264.12,395.56c0,0-34.95,16.23-50.45,2.64C213.67,398.2,232.56,430.99,264.12,395.56z"/>
				<path fill="#FFFFFF" d="M264.52,375.28l-62.62,2.38c0,0,8.93,40.76,58.34,15.71C302.3,372.04,264.52,375.28,264.52,375.28z"/>
				<path fill="#818E99" d="M345.22,426.64c-13.03,24.14-26.39,42.88-53.67,58.09c-0.88,0.49-1.79,0.97-2.72,1.43
					c-2.56,1.3-5.31,2.52-8.23,3.67c-3.29,1.3-6.8,2.5-10.45,3.59c-0.92,0.28-1.85,0.54-2.79,0.81
					c-12.55,3.51-26.69,5.78-40.34,6.42c-0.12,0.01-0.23,0.03-0.35,0.03c-10.36,0.49-20.44,0.03-29.35-1.53
					c-0.07-0.01-0.14-0.01-0.2-0.04c-18.51-3.28-31.9-11.35-32.06-25.71c-0.43-37.11,6.61-37.69,7.79-62.51
					c0.09-1.68,0.04-3.6-0.09-5.7c-0.12-1.64-0.3-3.38-0.53-5.23c-0.76-6.16-2.12-13.44-3.78-21.29
					c-6.58-31.4-17.76-71.8-13.45-85.43c5.54-17.6,5.01-42.56,8.72-53.67c1.35-4.18-59.5-61.39-34.49-91.57
					c-10.67,31.28,40.28,79.62,39.02,83.44c-0.11,0.35-0.23,0.7-0.33,1.08c-0.11,0.38-0.21,0.76-0.31,1.16
					c-0.05,0.22-0.11,0.43-0.16,0.67c-0.05,0.26-0.12,0.51-0.17,0.78c-0.2,0.93-0.39,1.91-0.56,2.94c-0.08,0.46-0.16,0.95-0.23,1.43
					c-0.08,0.51-0.16,1.04-0.24,1.58c-0.14,1.07-0.28,2.17-0.42,3.29c-0.08,0.6-0.15,1.21-0.22,1.83c-0.07,0.58-0.14,1.19-0.2,1.79
					c-0.03,0.28-0.05,0.57-0.09,0.85c0,0,0,0.01,0,0.03c-0.06,0.5-0.11,1.02-0.16,1.54c-0.19,1.77-0.38,3.59-0.57,5.43
					c-0.05,0.54-0.12,1.08-0.18,1.64c-0.05,0.53-0.11,1.07-0.17,1.6c-0.15,1.41-0.32,2.83-0.49,4.25c-0.17,1.4-0.35,2.8-0.55,4.2
					c-0.11,0.84-0.23,1.68-0.37,2.51c-0.13,0.84-0.26,1.66-0.41,2.49c-0.28,1.65-0.59,3.29-0.93,4.89
					c-0.01,0.07-0.03,0.12-0.04,0.18c-0.11,0.55-0.23,1.08-0.35,1.63c-0.46,2.03-0.98,4.01-1.58,5.89c-1,3.15-1.16,7.74-0.74,13.31
					c0.03,0.37,0.05,0.77,0.09,1.16c0.01,0.19,0.03,0.38,0.04,0.57c0.04,0.37,0.09,0.76,0.12,1.14c0.01,0.16,0.03,0.32,0.05,0.49
					c0.08,0.83,0.18,1.68,0.28,2.55c0.29,2.23,0.64,4.59,1.03,7.03c0.12,0.73,0.24,1.46,0.37,2.21c0.09,0.47,0.18,0.96,0.26,1.45
					c0.3,1.67,0.62,3.39,0.96,5.14c0.34,1.75,0.71,3.52,1.07,5.31c0.6,2.94,1.25,5.94,1.91,8.98c0.51,2.32,1.03,4.65,1.56,6.99
					c0.11,0.46,0.2,0.91,0.31,1.37c0.54,2.39,1.1,4.79,1.63,7.17c0.6,2.6,1.18,5.17,1.76,7.74c0.15,0.64,0.28,1.29,0.43,1.92
					c0.56,2.54,1.12,5.05,1.65,7.51c0.26,1.18,0.52,2.36,0.75,3.51c0.01,0.05,0.03,0.11,0.03,0.11c0.31,1.46,0.6,2.84,0.87,4.22
					c0.23,1.15,0.46,2.27,0.66,3.38c0.11,0.56,0.22,1.11,0.31,1.65c0.19,0.98,0.37,1.96,0.53,2.92c0.61,3.45,1.11,6.7,1.46,9.67
					c0.09,0.77,0.16,1.52,0.24,2.25c0.05,0.59,0.09,1.16,0.13,1.72c0.05,0.69,0.1,1.35,0.12,2c0.01,0.42,0.04,0.83,0.05,1.21
					c0.03,1.07,0.01,2.06-0.03,2.99c-0.01,0.38-0.04,0.74-0.05,1.11c-0.03,0.34-0.06,0.68-0.09,1c-0.23,3.57-0.59,6.63-1.02,9.38
					c-0.1,0.56-0.19,1.08-0.28,1.6c-0.08,0.41-0.14,0.78-0.22,1.16c-0.01,0.14-0.04,0.26-0.07,0.38c-0.41,2.02-0.84,3.9-1.27,5.74
					c-0.07,0.27-0.13,0.54-0.2,0.83c-0.27,1.11-0.54,2.21-0.81,3.32c-0.07,0.27-0.14,0.55-0.2,0.83c-0.11,0.42-0.2,0.84-0.32,1.26
					c0.01,0.01,0.01,0.03,0.01,0.03c-0.18,0.69-0.33,1.39-0.49,2.09l-0.01,0.1c-0.11,0.46-0.2,0.92-0.3,1.38
					c-0.06,0.3-0.12,0.61-0.19,0.92c-0.1,0.46-0.18,0.93-0.27,1.4c-0.62,3.43-1.18,7.36-1.54,12.19c-0.05,0.55-0.09,1.12-0.12,1.69
					c-0.11,1.69-0.19,3.49-0.26,5.4c-0.03,0.81-0.06,1.65-0.07,2.5c-0.05,2.52-0.07,5.24-0.03,8.19c0,0.5,0.03,0.98,0.07,1.48
					c0.01,0.3,0.04,0.59,0.09,0.89c0.04,0.5,0.12,0.98,0.23,1.47c0.04,0.25,0.09,0.49,0.15,0.72c0.05,0.28,0.12,0.55,0.2,0.82
					c0.03,0.09,0.05,0.18,0.08,0.28c0.28,0.97,0.64,1.92,1.08,2.84c0.11,0.24,0.23,0.47,0.35,0.7c0.09,0.19,0.19,0.37,0.28,0.54
					c0.07,0.11,0.12,0.22,0.2,0.34c0.15,0.24,0.3,0.49,0.46,0.73c0.22,0.35,0.45,0.7,0.7,1.03c0.07,0.11,0.15,0.2,0.23,0.3
					c0.38,0.52,0.8,1.02,1.26,1.5c0.16,0.16,0.33,0.34,0.49,0.51c0.04,0.05,0.09,0.09,0.14,0.14c0.49,0.52,1.02,1,1.56,1.45
					c0.15,0.12,0.28,0.24,0.45,0.37c0.65,0.56,1.34,1.08,2.07,1.57c0,0,0.04,0.03,0.07,0.05c0.37,0.24,0.74,0.49,1.11,0.72
					c0.28,0.19,0.58,0.37,0.87,0.53c0.12,0.07,0.23,0.12,0.35,0.19c0.57,0.32,1.16,0.65,1.75,0.95c0.57,0.3,1.16,0.58,1.77,0.85
					c0.39,0.19,0.78,0.36,1.2,0.53c0.66,0.29,1.35,0.56,2.07,0.83c0.03,0.01,0.07,0.01,0.11,0.03c0.39,0.15,0.79,0.28,1.18,0.43
					c0.83,0.28,1.68,0.56,2.55,0.81c0.32,0.11,0.66,0.2,1.02,0.3c1.15,0.33,2.35,0.64,3.57,0.92c0.37,0.09,0.73,0.16,1.1,0.25
					c0.04,0.01,0.07,0.01,0.11,0.03c0.7,0.14,1.42,0.28,2.13,0.43c0.68,0.13,1.37,0.24,2.06,0.36c1.71,0.29,3.45,0.53,5.23,0.72
					c0.13,0.03,0.28,0.04,0.43,0.05c0.58,0.07,1.15,0.12,1.73,0.18c0.47,0.04,0.95,0.09,1.42,0.12c0.03,0.01,0.07,0.01,0.11,0.01
					c0.76,0.09,1.54,0.14,2.31,0.18c0.6,0.04,1.2,0.08,1.79,0.11c0.98,0.07,1.95,0.11,2.93,0.13c1.6,0.05,3.2,0.07,4.82,0.07
					c0.81,0,1.62,0,2.44-0.01h0.22c0.57-0.01,1.12-0.03,1.69-0.05c0.92-0.01,1.85-0.04,2.78-0.08c0.91-0.04,1.81-0.1,2.71-0.15
					c0.64-0.03,1.25-0.07,1.86-0.11c0.37-0.03,0.75-0.06,1.11-0.09c0.65-0.05,1.3-0.11,1.96-0.16c0.62-0.05,1.23-0.1,1.86-0.16
					c0.68-0.07,1.37-0.14,2.04-0.22c0.38-0.03,0.76-0.07,1.14-0.11c0.62-0.05,1.23-0.13,1.85-0.22c1.53-0.19,3.06-0.39,4.58-0.62
					c0.96-0.14,1.92-0.3,2.87-0.45c1.42-0.22,2.84-0.47,4.24-0.73c0.6-0.12,1.2-0.23,1.79-0.35c1-0.17,2-0.37,2.97-0.6
					c1.67-0.34,3.32-0.72,4.94-1.12c0.89-0.2,1.77-0.42,2.65-0.67c0.03,0,0.07-0.01,0.09-0.01c0.64-0.16,1.26-0.33,1.88-0.51
					c3.55-0.96,6.97-2.03,10.22-3.18c2.29-0.82,4.49-1.67,6.59-2.57c2.92-1.25,5.65-2.56,8.15-3.95
					C320.23,463.16,333.49,446.91,345.22,426.64z"/>
				<path fill="#818E99" d="M451.87,150.87c-6.85-1.77-16.82,1.69-27.53,6.16v0.01c-0.42,0.16-0.84,0.33-1.25,0.51
					c-3.71,1.56-7.47,3.22-11.22,4.82c-4.5,1.91-8.94,3.71-13.19,5.12c-0.37,0.12-0.73,0.26-1.07,0.39
					c-0.69,0.28-1.34,0.57-1.95,0.9c-0.6,0.32-1.19,0.68-1.73,1.05c-0.81,0.57-1.56,1.21-2.23,1.9c-0.53,0.53-1.02,1.1-1.47,1.71
					c-0.47,0.6-0.87,1.22-1.23,1.86v0.02c-0.37,0.64-0.7,1.33-0.99,2.03c-0.43,1.07-0.79,2.19-1.1,3.37
					c-1.15,4.69-1.16,10.16-0.56,15.94c0.01,0.1,0.03,0.19,0.03,0.3c0.09,0.87,0.2,1.76,0.32,2.64c0.01,0.11,0.03,0.23,0.05,0.35
					c0.26,1.94,0.56,3.89,0.92,5.85c0.45,2.51,0.95,5.06,1.46,7.57v0.01c-0.68,0.51-1.35,1.04-2.02,1.6
					c-1.11,0.89-2.19,1.85-3.26,2.82c-3.6-18.44-10.52-42.46,0.19-53.17c1.8-1.86,4.06-3.25,6.99-4.24
					c6.32-2.08,13.11-5.06,19.78-7.95c4.04-1.76,8.05-3.48,11.9-4.94C436.22,142.35,447.75,140.3,451.87,150.87z"/>
				<path fill="#91B3B4" d="M443.38,203.48c-3.91,7.88-8.65,14.85-13.61,19.76c-1.77,1.77-3.52,3.22-5.32,4.44
					c-1.27,0.84-2.51,2.17-3.81,3.99c-4.85,6.87-9.94,20.32-15.35,36.94c-3.96,12.16-8.07,26.02-12.36,40.26
					c-9.17,30.64-19.21,63.02-30.24,84.02c-6.43,12.18-11.82,23.27-17.28,33.42c-0.08,0.12-0.12,0.22-0.2,0.33
					c-11.73,20.28-24.98,36.52-49.11,49.96c-14.68,8.17-37.23,13.9-59.24,15.61c-3.61,0.28-7.2,0.45-10.74,0.51
					c-8.02,0.12-15.79-0.34-22.85-1.47c-8.83-1.41-16.57-3.86-22.4-7.52c-6.96-4.33-11.2-10.44-11.29-18.45
					c-0.45-37.12,6.56-37.69,7.78-62.52c1.2-24.81-24.02-98.27-17.91-117.65c5.56-17.59,5.08-42.56,8.75-53.67
					c1.25-3.82-49.69-52.18-39.02-83.44c-0.01-0.06,0.03-0.07,0.03-0.07c4.31-5.21,11.23-9.63,21.46-12.78
					c15.52-4.85,19.81-2.38,19.94,4.6c0.21,10.81-9.53,32.52-3.16,55.21c3.97,14.02,5.34,26.9,5.6,38.75
					c0.26,11.42-0.54,21.85-1.08,31.36c0,0,0,0,0.01,0.04c-0.39,6.85-4.62,13.99-5.69,19.9c-2.42,13.38-0.26,22.96,2.65,48.9
					c1.48,13.36,8.89,39.98,13.97,55.46c0.7,2.28,1.49,4.54,2.33,6.84c8.31,22.67,14.46,33.09,20.21,34.7
					c5.96,1.73,11.46-6.1,18.47-19.37c0.66-1.23,1.29-2.52,1.98-3.86l0.25,0.01l13.89-0.57c0,0,0.39,3.16,1.18,7.35
					c1.7,8.56,5.23,21.36,11.19,19.81l0.05-0.01c8.9-2.49,32.07-39.43,71.91-71.87c13.09-10.72,24.2-26.34,33.22-43.28
					c4.98-9.29,9.27-18.95,12.87-28.38l0.01-0.01c9.97-25.66,15.1-49.59,15.04-59.49c-0.03-3.82-0.79-8.41-1.69-13.43
					c1.69-1.54,3.45-3.06,5.27-4.43c-3.28-15.95-6.01-33.04,2.59-41.65c1.8-1.85,4.06-3.23,6.99-4.22
					c18.5-6.15,40.9-19.81,53.19-16.63c0.39,0.98,0.72,2.13,0.96,3.34C455.75,168.52,451.16,187.82,443.38,203.48z"/>
				<g>
					<path fill="#818E99" d="M236.53,360.4c0.97,0.13,1.92,0.37,2.96,0.74c1.49,0.49,3.03,1.25,4.71,2.34
						c5.17,3.22,11.42,9.4,19.67,20.22c0.64,0.83,1.33,1.65,2.13,2.42c0.08,0.1,0.16,0.19,0.28,0.28c0.68,0.68,1.41,1.33,2.17,1.97
						c9.48,7.85,25.63,13.11,39.32,13.38l0.03-0.01c10,0.18,18.68-2.27,22.55-8.31c3.72-5.82,4.71-11.75,4.43-16.99
						c-0.45-9.05-4.6-15.88-4.6-15.88s1.6,11.48-0.85,21.49l-0.03,0.04c-1.9,7.76-6.21,14.66-15.59,14.62
						c-1.37,0.02-2.82-0.12-4.41-0.43c-26.59-5.21-31.91-7.65-37.97-16.45c-5.08-7.42-17.1-24.95-28.4-22.97
						c-1.23,0.21-2.42,0.66-3.6,1.35C238.39,358.77,237.44,359.5,236.53,360.4z"/>
					<path fill="#91B3B4" d="M236.53,360.4c12.78-12.67,28.75,10.57,34.8,19.44c6.06,8.8,11.39,11.23,37.97,16.45
						c1.59,0.3,3.05,0.45,4.41,0.43c9.38,0.04,13.68-6.86,15.59-14.62l0.03-0.04c2.45-10.01,0.85-21.49,0.85-21.49
						c-2.86,15.9-14.43,27.33-42.86-2.91C245.43,313.1,236.53,360.4,236.53,360.4z"/>
				</g>
				<g>
					<path fill="#818E99" d="M237.87,359.03c-0.93,0.2-1.83,0.5-2.78,0.93c-1.37,0.59-2.73,1.45-4.18,2.65
						c-4.43,3.55-9.3,10.12-15.17,21.43c-0.45,0.87-0.97,1.73-1.58,2.55c-0.07,0.1-0.12,0.2-0.22,0.3
						c-0.53,0.73-1.12,1.42-1.74,2.11c-7.72,8.44-22.61,14.78-36.14,16h-0.03c-9.89,0.87-19.03-0.96-24.17-6.7
						c-4.94-5.52-7.2-11.34-8.05-16.55c-1.5-9.02,1.14-16.08,1.14-16.08s0.89,11.51,5.48,21.27l0.03,0.03
						c3.56,7.58,9.31,14.12,18.62,13.43c1.36-0.08,2.77-0.32,4.28-0.74c25.27-7.01,30.03-9.8,34.16-18.94
						c3.43-7.72,11.59-25.94,23.24-24.76c1.27,0.12,2.55,0.49,3.86,1.09C235.68,357.54,236.77,358.2,237.87,359.03z"/>
					<path fill="#91B3B4" d="M237.87,359.03c-15.41-11.69-26.26,12.48-30.35,21.69c-4.13,9.15-8.88,11.94-34.16,18.94
						c-1.51,0.41-2.92,0.66-4.28,0.74c-9.31,0.69-15.06-5.86-18.62-13.43l-0.03-0.03c-4.58-9.76-5.48-21.27-5.48-21.27
						c6.26,15.59,20.2,26.13,41.91-5.84C218.85,312.7,237.87,359.03,237.87,359.03z"/>
				</g>
				<g>
					<path fill="#818E99" d="M352.04,179.48c-0.3,1.66-1.29,2.3-2.5,1.68c-8.6-9.64-64.87-7.81-79.24,4.12
						c-17.43,7.54-16.03-9.22-15.73-9.86c1.59-2.09,3.28-4.08,5.08-5.9c-0.29,5.19,0.97,12.85,16.43,8.6
						C291.17,171.96,331.26,167.89,352.04,179.48z"/>
					<path fill="#91B3B4" d="M352.04,179.48c-20.78-11.6-60.87-7.52-75.95-1.36c-15.46,4.25-16.72-3.41-16.43-8.6
						c25.56-24.74,57.35-20.74,73.29-13.11C350.39,164.57,351.99,176.37,352.04,179.48z"/>
				</g>
				<g>
					<path fill="#818E99" d="M145.15,163.87c-0.09,1.68,0.74,2.47,2.07,2.06c10.64-8.04,65.44,2.95,76.79,17.01
						c15.37,10.25,17.84-6.42,17.69-7.11c-1.08-2.31-2.29-4.54-3.63-6.61c-0.91,5.13-3.89,12.45-18.09,5.75
						C206.59,166.46,168.19,155.89,145.15,163.87z"/>
					<path fill="#91B3B4" d="M145.15,163.87c23.04-7.98,61.44,2.59,74.83,11.1c14.2,6.7,17.18-0.62,18.09-5.75
						c-19.42-28.45-51.52-29.74-68.9-24.85C150.18,149.51,145.92,160.83,145.15,163.87z"/>
				</g>
				<path opacity="0.42" fill="#FFFFFF" d="M232.43,64.94c11.52-6.34,24.04-5.71,27.96,1.42c3.92,7.12-2.25,18.04-13.76,24.38
					c-11.52,6.34-24.05,5.71-27.97-1.42C214.74,82.2,220.91,71.28,232.43,64.94z"/>
				
					<rect x="316.91" y="234.46" transform="matrix(-0.8445 0.5356 -0.5356 -0.8445 798.8435 242.8827)" fill="#713825" width="94.49" height="5.93"/>
				<g>
					<g>
						<path fill="#713825" d="M242.03,259.71V275c0,9.16,6.25,16.48,14.01,16.48h56.98c3.56,0,6.79-1.51,9.27-4.2
							c3.01-2.91,4.85-7.32,4.85-12.28v-15.29c0-3.77-2.05-6.89-4.85-8.29c-0.86-0.32-1.83-0.54-2.8-0.54h-69.9
							C245.37,250.88,242.03,254.86,242.03,259.71z M247.74,259.71c0-1.18,0.86-2.15,1.83-2.15h69.9c1.07,0,1.94,0.97,1.94,2.15V275
							c0,5.39-3.77,9.8-8.4,9.8h-56.98c-4.52,0-8.29-4.41-8.29-9.8V259.71z"/>
					</g>
					<g>
						<path fill="#713825" d="M132.38,259.71V275c0,3.99,1.18,7.54,3.23,10.34c2.48,3.77,6.46,6.14,10.88,6.14h56.98
							c7.75,0,14.01-7.32,14.01-16.48v-15.29c0-4.85-3.34-8.83-7.54-8.83h-69.9c-1.62,0-3.13,0.65-4.42,1.62
							C133.68,254.11,132.38,256.7,132.38,259.71z M138.09,259.71c0-1.18,0.86-2.15,1.94-2.15h69.9c0.97,0,1.83,0.97,1.83,2.15V275
							c0,5.39-3.66,9.8-8.29,9.8h-56.98c-4.64,0-8.4-4.41-8.4-9.8V259.71z"/>
					</g>
					<path fill="#713825" d="M216.36,277c8.48-3.99,18.29-3.99,26.76,0c1.1-2.34,2.2-4.69,3.3-7.03c-10.57-4.98-22.8-4.98-33.37,0
						C214.16,272.31,215.26,274.65,216.36,277z"/>
					<path opacity="0.2" fill="#FFFFFF" d="M319.48,257.56h-25.75l13.68,27.25h5.6c4.64,0,8.4-4.41,8.4-9.8v-15.29
						C321.41,258.53,320.55,257.56,319.48,257.56z"/>
					<polygon opacity="0.2" fill="#FFFFFF" points="267.34,257.56 281.02,284.81 291.79,284.81 278.11,257.56 					"/>
					<path opacity="0.2" fill="#FFFFFF" d="M247.74,259.71V275c0,5.39,3.77,9.8,8.29,9.8h12.5l-13.68-27.25h-5.28
						C248.6,257.56,247.74,258.53,247.74,259.71z"/>
					<path opacity="0.2" fill="#FFFFFF" d="M209.93,257.56h-26.39l13.68,27.25h6.24c4.64,0,8.29-4.41,8.29-9.8v-15.29
						C211.76,258.53,210.9,257.56,209.93,257.56z"/>
					<polygon opacity="0.2" fill="#FFFFFF" points="157.16,257.56 170.83,284.81 181.6,284.81 167.93,257.56 					"/>
					<path opacity="0.2" fill="#FFFFFF" d="M138.09,259.71V275c0,5.39,3.77,9.8,8.4,9.8h11.85l-13.68-27.25h-4.63
						C138.95,257.56,138.09,258.53,138.09,259.71z"/>
					<g opacity="0.29">
						<polygon fill="#FFFFFF" points="278.11,257.56 291.79,284.81 307.41,284.81 293.73,257.56 						"/>
						<polygon fill="#FFFFFF" points="254.85,257.56 268.53,284.81 281.02,284.81 267.34,257.56 						"/>
					</g>
					<g opacity="0.29">
						<polygon fill="#FFFFFF" points="167.93,257.56 181.6,284.81 197.22,284.81 183.54,257.56 						"/>
						<polygon fill="#FFFFFF" points="144.66,257.56 158.34,284.81 170.83,284.81 157.16,257.56 						"/>
					</g>
				</g>
				<path fill="#F19379" d="M404.36,303.51c-3.9,2.38-7.79,4.17-11.43,5.36c-8.84,2.89-16.17,2.27-18.45-2
					c-0.11-0.08-0.19-0.22-0.26-0.35c-1.57-3.54-2.82-9.18-3.74-15.79c-0.24-1.79-0.47-3.64-0.68-5.55c0.87,5.65,2,10.43,3.4,13.55
					c0.07,0.14,0.14,0.27,0.26,0.35c2.29,4.26,9.61,4.89,18.45,2c3.63-1.2,7.53-2.98,11.43-5.36c16.21-9.83,32.38-29.75,30.13-58.73
					C439.57,270.22,421.98,292.82,404.36,303.51z"/>
				<path fill="#F6A980" d="M403.35,295.72c-3.9,2.38-7.8,4.17-11.43,5.36c-8.84,2.88-16.17,2.26-18.45-2
					c-0.11-0.09-0.19-0.22-0.26-0.35c-1.4-3.13-2.53-7.91-3.4-13.55c-1.07-9.69-1.61-20.6-1.91-29.72
					c-0.46-14.15,5.19-27.86,15.64-37.41c0.09-0.08,0.19-0.16,0.28-0.26c1.71-1.54,3.45-3.05,5.28-4.41
					c13.84-10.74,30.99-16.22,40.67,9.87c0.85,2.4,1.71,5.05,2.46,8c0.26,1,0.5,2.01,0.7,2.97c0.2,0.93,0.39,1.85,0.55,2.78
					C435.74,265.97,419.56,285.89,403.35,295.72z"/>
				<path fill="#EC7260" d="M387.79,240.53c0,0,16.35-32.04,25.2-0.29c8.85,31.75-28.01,37.57-28.01,37.57
					S407.06,252.03,387.79,240.53z"/>
				<path fill="#84C7EE" d="M440.05,325.44c0,0,10.73,54.97-29.9,156.45l-12.19-77.24l28.89-75.82L440.05,325.44z"/>
			</g>
		</g>
	</g>
</g>
</svg>
