<?xml version="1.0" encoding="utf-8"?>
<!-- Generator: Adobe Illustrator 25.2.3, SVG Export Plug-In . SVG Version: 6.00 Build 0)  -->
<svg version="1.1" id="Layer_1" xmlns="http://www.w3.org/2000/svg" xmlns:xlink="http://www.w3.org/1999/xlink" x="0px" y="0px"
	 viewBox="0 0 576 576" enable-background="new 0 0 576 576" xml:space="preserve">
<g>
	<g>
		<defs>
			<path id="SVGID_1_" d="M576.3,288.2c0,159.16-129.04,288.2-288.2,288.2C128.93,576.4-0.11,447.36-0.11,288.2
				C-0.11,129.03,128.93,0,288.1,0C447.26,0,576.3,129.03,576.3,288.2z"/>
		</defs>
		<use xlink:href="#SVGID_1_"  overflow="visible" fill="#F9E3D9"/>
		<clipPath id="SVGID_2_">
			<use xlink:href="#SVGID_1_"  overflow="visible"/>
		</clipPath>
		<g clip-path="url(#SVGID_2_)">
			<g>
				<path fill="#DFDCBD" d="M124.22,708.55l-9.63-22.17c0,0-0.25,8.03-0.69,22.17H124.22z"/>
			</g>
			<path fill="#FDFAD5" d="M446.57,708.55c21.78-54.86,30.25-109.19,12.89-153.29c0,0-87.41-11.25-171.79,89.22
				c-16.34,19.46-31.69,41.45-45.76,64.06H446.57z"/>
			<path fill="#E3E0C0" d="M272.08,708.55c7.16-94.04-6.05-187.09-65.47-226.8c0,0-78.22,40.6-90.25,171.24
				c-1.63,17.66-3.02,36.41-4.23,55.56H272.08z"/>
			<path fill="#232126" d="M388.6,673.34c-1.69,15.9-0.66,28.51,0.2,35.21h123.59c-4.74-85.71-9.94-145.19-10.35-148.28
				c-0.05-0.05-0.05-0.1-0.05-0.1C433.55,599.23,392.43,636.39,388.6,673.34z"/>
			<path fill="#232126" d="M141.85,708.55h90.6c43.58-39.1,87.71-78.98,87.71-78.98l-9.5-45.4l52.33,6.61l64.66-92.12
				c-18.21-11.08-36.95-20.48-50.18-26.25c-1.63-0.73-3.25-1.42-4.62-2.1c-0.84-0.37-1.89-0.69-2.78-1.05
				c-3.04-1.26-6.14-2.41-9.29-3.46c-2.88-0.95-5.67-1.63-8.66-2.31h-0.26c-2.41-0.74-4.62-1.16-7.03-1.52
				c-2.47-0.47-4.89-0.95-7.3-1.16c-31.75-3.93-64.4,4.3-94.9,22.83c0,0.1-0.11,0.21-0.11,0.21c-0.1-0.1-0.1,0-0.1,0
				c-0.11,0-0.37,0-0.48,0.1c-8.56,5.25-16.9,11.5-24.88,18.32c-2.78,2.31-5.36,4.62-7.98,7.19h2.99c1.74,0,3.73,0.11,5.67,0.32
				c-0.57,1.52-1.26,3.36-2.1,5.35v0.1c-1.95-0.21-3.78-0.37-5.67-0.37h-1.84c-1.63,0-3.36,0-4.78,0.16
				c-1.26,1.26-2.63,2.63-3.78,4.04c-8.92,9.24-17.16,19.48-24.93,30.55c-12.76,18.21-24.09,38.95-33.22,62.09
				c-2.1,26.51-1.42,60.58,0.1,91.28C141.64,704.87,141.74,706.71,141.85,708.55z M307.03,550.93c0.37,0.42,0.84,0.89,1.31,1.36v0.1
				c2.31,2.47,4.51,5.25,6.71,8.24c1.74,2.31,3.47,4.89,5.2,7.51c0.1,0,0.1,0.15,0.1,0.15s1.84-1.52,4.78-4.41
				c2.62-2.57,6.24-6.24,10.18-10.91c0.47-0.42,0.89-0.89,1.26-1.36c0.05-0.1,0.05-0.16,0.1-0.26c0.1-0.1,0.26-0.22,0.37-0.31
				c1.26-1.63,2.68-3.26,4.04-4.99c0.37-0.37,0.68-0.79,1.04-1.26c2.42-3.15,4.99-6.61,7.41-10.34c1.42-2.04,2.78-4.15,4.2-6.46
				c1.36-2.1,2.62-4.41,3.94-6.71c3.57-6.62,6.82-13.81,9.34-21.42c0.47-1.31,0.94-2.68,1.42-4.1c0.57-2.05,1.16-4.25,1.73-6.46
				c-0.21,2.05-0.47,4.15-0.78,6.24c-0.26,1.16-0.37,2.42-0.74,3.57c-0.21,1.63-0.57,3.26-1.05,4.78c-0.1,0.68-0.31,1.47-0.57,2.2
				c-0.21,1.37-0.57,2.63-1,3.94c-1.42,4.51-2.94,8.76-4.67,12.96c-0.79,1.73-1.63,3.57-2.42,5.2c-0.47,1.04-1.04,2.1-1.52,3.04
				c-1.63,3.1-3.25,6.09-4.98,9.03c-14.44,24.51-32.65,40.52-34.39,42.04c-0.1,0-0.1,0-0.1,0c-0.48-0.73-0.95-1.31-1.42-1.99
				c-1.73-2.78-3.57-5.3-5.4-7.66c-2.36-2.99-4.68-5.67-6.88-8.09c-1.16-1.26-2.31-2.42-3.46-3.47v-0.1
				c-1.16-1.05-2.31-2.1-3.47-3.05c-1.16-1.04-2.31-1.94-3.46-2.78c-3.62-2.89-7.19-5.09-10.66-6.92c-0.95-0.58-1.84-1.05-2.78-1.42
				c-1.04-0.58-2.2-1-3.25-1.47c-1.16-0.48-2.31-0.95-3.36-1.42c-0.1,0-0.1,0-0.1,0c-0.27,0-0.37-0.1-0.58-0.1
				c-1.05-0.48-1.99-0.79-3.04-1.05c-1.84-0.58-3.47-1.05-5.2-1.52c-0.68-0.22-1.26-0.32-1.94-0.58c-0.58-0.1-1.31-0.21-1.89-0.42
				c-1.63-0.37-3.1-0.58-4.62-0.95l10.45-11.81l0.47-0.48c1.47,0.37,2.99,0.84,4.62,1.42c1.36,0.42,2.89,0.89,4.25,1.47
				c0.48,0.1,0.95,0.26,1.42,0.47c1.36,0.57,2.78,1.16,4.15,1.84C289.92,535.98,298.47,541.75,307.03,550.93z M242.63,484.43
				c0.16,0.1,0.26,0.1,0.26,0.37c0.1,0,0.37,0.1,0.47,0.31v0.1c0,0,0.11,0,0.21,0.16c0.11,0,0.27,0.11,0.37,0.21v0.11
				c0.21,0.16,0.47,0.37,0.78,0.57c0.58,0.37,1.42,0.84,2.31,1.42c2.78,1.36,7.09,3.1,13.81,4.99c1.52,0.47,3.15,0.78,4.88,1.26
				c0.79,0.1,1.73,0.37,2.78,0.57c1.57,0.37,3.46,0.78,5.41,1.16c2.31,0.47,4.88,0.94,7.66,1.42l-38.47,21.3l-1.89,1.1
				L242.63,484.43z"/>
			<path fill="#232126" d="M335.32,552.98c0.47-0.42,0.89-0.89,1.26-1.36c0.05-0.1,0.05-0.16,0.1-0.26
				c-0.05,0.1-0.16,0.21-0.22,0.26C336.11,552.09,335.64,552.57,335.32,552.98z"/>
			<path fill="#232126" d="M335.32,552.98c0.47-0.42,0.89-0.89,1.26-1.36h-0.11C336.11,552.09,335.64,552.57,335.32,552.98z"/>
			<path fill="#EA9E74" d="M338.24,470.03c-3.37-57.38-16.43-59.86-16.73-59.91l3.81-22.85l-82.85,32.85l-0.01,46.27l-0.05,17.39
				c0,0,0.01,0.06,0.05,0.15l-1.27,35.57l41.92-23.18h-0.03L338.24,470.03z"/>
			<path fill="#010101" d="M250.97,521.7l12.76,3.46c-1.69-1.15-3.47-2.1-5.57-2.83C255.96,521.49,253.54,521.33,250.97,521.7z"/>
			<g>
				<path fill="#B5C1B2" d="M353.56,444.23c0,0,16.45-4.34,17.63,2.99l-16.54,9.18L353.56,444.23z"/>
			</g>
			<g>
				<path fill="#4F414C" d="M217.78,509.82c-0.6,1.46-1.31,3.32-2.1,5.34c-2.65-0.22-5.18-0.33-7.52-0.27
					c-1.7-0.01-3.36,0.07-4.81,0.14c1.89-1.93,3.81-3.76,5.72-5.58C211.77,509.4,214.75,509.54,217.78,509.82z"/>
			</g>
			<g>
				<path fill="#E9844D" d="M365.51,461.06l-13.38,2.35l-13.89,6.62c-3.37-57.38-16.43-59.86-16.73-59.91l3.81-22.85l41.36-21.2
					l0.2,88.56L365.51,461.06z"/>
			</g>
			<g>
				<path fill="#010101" d="M317.95,582.37c-18.14-28.4-37.55-37.1-53.03-41.15c-1.33-0.31-2.66-0.62-3.91-0.97
					c-1.55-0.35-3.12-0.61-4.55-0.89l10.86-12.29c15.49,4.06,34.84,12.79,52.99,41.15c0,0,38.91-32.86,49.85-78.93
					C364.99,542.59,317.95,582.37,317.95,582.37z"/>
			</g>
			<path fill="#232126" d="M222.96,652.61c0,0.12-0.12,0.12,0,0.24c-0.93,1.16-1.85,2.43-2.89,3.82
				c-5.79,8.57-12.86,20.27-20.5,33.13c0,0,0,0,0,0.12c-3.54,6.02-7.16,12.3-10.77,18.64h199.98c-0.86-6.69-1.88-19.29-0.19-35.2
				c3.82-36.95,44.94-74.15,113.39-113.18c-38.51-67.68-132.48-111.4-132.82-111.4c-3.02,3.13,3.55,17.74-1.31,23.19
				c-1.62,1.97,6.15,4.37,4.18,6.45c-15.64,17.72-38.22,43.9-63.7,73.9v0.11c-2.66,2.78-4.98,5.68-7.52,8.57v0.12
				c-23.17,26.99-48.19,56.29-72.85,85.02C226.55,647.86,224.93,650.06,222.96,652.61z"/>
			<path fill="#232126" d="M149.95,708.55c2.38-21.5,6.11-42.02,10.58-61.15c13.9-60.46,34.86-106.79,43.67-124.63
				c2.44-5.09,3.94-7.88,3.94-7.88l3.82-5.33l0.12-0.11l4.98-7.18l25.37-35.91l0.05-1.73c-19.69,2.96-37.67,14.81-50.3,30.22
				c-0.15,0.18-0.31,0.37-0.46,0.56c-19.69,24.14-34.62,51.76-44.44,81.32c-9.92,29.85-22.01,71.11-26.49,106.44
				c-1.57,8.27-2.91,16.73-4.04,25.37H149.95z"/>
			<path fill="#872C1B" d="M416.82,304.87c0,0,1.24,56.42-19.84,70.06s-52.7-6.83-52.7-6.83L416.82,304.87z"/>
			<path fill="#872C1B" d="M175.02,104.6c0,0-32.41,45.74-20.3,134.55c12.12,88.82,140.58-79.78,140.58-79.78L175.02,104.6z"/>
			<path fill="#F9AE73" d="M171.99,191.92c-0.8,65.67,1.93,224.49,46.72,260.06c-1.64-0.65-3.23-1.39-4.76-2.18
				c-49.75-26.14-52.73-189.13-51.88-255.05c0.29-19.69,4.96-39.08,14.08-56.5c18.16-34.57,38.69-57.08,60.02-69.98
				c-17.76,13.89-34.77,35.22-50.09,65.32C176.95,151.55,172.29,171.59,171.99,191.92z"/>
			<path fill="#F9BF8F" d="M425.21,238.75c-1.99,141.66-141.61,239.12-206.49,213.24c-44.79-35.57-47.52-194.39-46.72-260.06
				c0.29-20.34,4.96-40.38,14.09-58.33c15.32-30.11,32.34-51.44,50.09-65.32C324.76,14.55,426.74,127.19,425.21,238.75z"/>
			<path fill="#F2F3F3" d="M270.91,233.98l60.35-1.04c0,0,4.04,33.15-29.14,34.93C268.93,269.64,270.91,233.98,270.91,233.98z"/>
			<path fill="#F2F3F3" d="M175.64,234.19h47.53c0,0,3.21,27.46-24.18,28.93C171.6,264.58,175.64,234.19,175.64,234.19z"/>
			<path fill="#ED906C" d="M246.26,250.89c-0.42-3.89-9.56-5.53-10.84-2.41c-16.18,39.13-29.25,65.2-24.11,72.78
				c11.46,16.87,21.87,0.36,46.42,3.47c10.82,1.37,15.09-8.1,11.53-19.41c-3.55-11.31-12.04-7.24-19.16-11.75
				C245.38,290.58,248.2,268.65,246.26,250.89z"/>
			<g>
				<path fill="#8E4634" d="M206.56,246.09c0,8.64-7,15.64-15.64,15.64s-15.64-7-15.64-15.64s7-15.64,15.64-15.64
					S206.56,237.45,206.56,246.09z"/>
				<path fill="#704338" d="M196.83,247.41c0,3.64-2.95,6.58-6.58,6.58c-3.63,0-6.58-2.94-6.58-6.58c0-3.62,2.95-6.57,6.58-6.57
					C193.89,240.84,196.83,243.78,196.83,247.41z"/>
			</g>
			<g>
				<path fill="#8E4634" d="M305.87,246.92c0,8.63-7.01,15.64-15.64,15.64c-8.64,0-15.64-7.01-15.64-15.64
					c0-8.64,7-15.64,15.64-15.64C298.86,231.28,305.87,238.28,305.87,246.92z"/>
				<path fill="#704338" d="M296.14,248.24c0,3.63-2.95,6.58-6.58,6.58s-6.57-2.95-6.57-6.58s2.94-6.58,6.57-6.58
					S296.14,244.6,296.14,248.24z"/>
			</g>
			<path opacity="0.7" fill="#F2F3F3" d="M208.97,251.22c0,3.01-2.44,5.45-5.44,5.45c-3.01,0-5.45-2.44-5.45-5.45
				c0-3,2.44-5.44,5.45-5.44C206.54,245.78,208.97,248.22,208.97,251.22z"/>
			<path opacity="0.7" fill="#F2F3F3" d="M308.57,251.22c0,3.01-2.44,5.45-5.44,5.45c-3.01,0-5.45-2.44-5.45-5.45
				c0-3,2.44-5.44,5.45-5.44C306.14,245.78,308.57,248.22,308.57,251.22z"/>
			<path fill="#ED906C" d="M175.64,234.19h47.53c0,0-2.89-19.23-23.04-19.53C179.05,214.35,175.64,234.19,175.64,234.19z"/>
			<path fill="#ED906C" d="M331.67,234.19h-60.86c0,0,3.65-21.72,29.45-22.01C327.25,211.86,331.67,234.19,331.67,234.19z"/>
			<path fill="#872C1B" d="M324.46,208.64c0,0,13.92,11.2,16.88,5.46s1.16-19.95-19.86-22.9c-21.02-2.96-52.67,0.08-53.55,7.07
				c-0.88,6.98-0.57,11.97,6.83,11.46C282.15,209.21,301.06,197.97,324.46,208.64z"/>
			<path fill="#872C1B" d="M177.19,208.54c0,0-13.46,11.2-16.31,5.46c-2.85-5.73-1.12-19.95,19.2-22.9
				c20.32-2.97,50.92,0.08,51.77,7.06c0.85,6.98,0.56,11.97-6.6,11.46C218.1,209.1,199.8,197.85,177.19,208.54z"/>
			<g>
				<path fill="#813823" d="M293.15,359.99c1.46,10.29-14.07,40.42-48.3,36.12c-33.97-4.49-36.4-37.42-36.4-37.42h5.09l75,1.31
					H293.15z"/>
				<path fill="#FFFFFF" d="M288.54,359.99c0,5.43-1.94,10.48-6.55,12.73c-12.13,5.61-56.55,1.69-62.87-1.69
					c-3.88-2.06-5.09-8.05-5.58-12.35L288.54,359.99z"/>
			</g>
			<path fill="#872C1B" d="M364.4,105.22c-38.64,16.82-106.99,5.94-106.99,5.94s70.61,25.92,18.25,47.96
				c-64.25-4.46-127.14-24.79-130.17-81.67c0,0,34.53,10.93,101.04-25.2c23.48-12.72,51.29-14.92,76.19-5.28l33.52,13.37
				C372.42,75.68,386.45,95.59,364.4,105.22z"/>
			<path fill="#64220D" d="M430.79,235.98c-12.25,9.09-19.44,12.84-23.66,14.21c-4.81,27.46-9.45,49.92-10.16,51.35
				c-1.72,3.45-18.19-0.2-18.19-0.2s0.86-20.06,2.23-52.63l-0.74-17.83c0,0-19.85-34.13-11.65-74.78
				c-25.97,3.38-59.68,5.34-92.96,3.03c52.36-22.05-18.25-47.96-18.25-47.96s68.35,10.87,106.99-5.94
				c22.05-9.63,8.02-29.54-8.14-44.88l60.45,24.13c-0.42-8.79,1.13-20.92,9.87-32.81c0,0-3.21,17.18,1.07,32.45
				c2.85-6.36,7.84-13.49,16.58-18.9c0,0-10.52,16.58-9.57,31.98c6.48,0.3,11.95,3.87,13.97,13.43
				C455.1,141.29,459.55,214.58,430.79,235.98z"/>
			<g>
				<g>
					<path fill="#F9BF8F" d="M402.67,232.98c0,0,12.57-32.34,39.49-13.15c30.47,21.71,1.18,88.84-24.29,94.77
						c-25.47,5.94-15.12-22.34-15.12-22.34L402.67,232.98z"/>
				</g>
				<path fill="#EC7260" d="M422.51,288.74c0,0,28.89-23.81,17.73-44.58s-30.98,3.87-31.43,11.38
					C408.8,255.54,431.06,249.74,422.51,288.74z"/>
			</g>
			<path fill="#232126" d="M512.39,708.55c-4.74-85.71-9.94-145.19-10.35-148.28c-0.05-0.05-0.05-0.1-0.05-0.1l-35.11,148.38H512.39
				z"/>
			<path fill="#FDFAD5" d="M191.08,628.1c3.57,1.26,7.93,1.73,13.18,1.31c4.36-0.37,8.66-1,12.81-1.89c4.83-1,9.55-2.36,14.07-4.04
				c3.89-12.75,8.24-25.19,13.12-37.32c3.36-0.57,5.62-1.47,5.62-1.47l13.7-16.16c4.57-5.41,8.18-11.66,9.5-18.64
				c0.47-1.99,0.69-4.09,0.69-5.88c0.1-6.66-2.21-12.33-6.83-16.53c-0.32-0.31-0.58-0.47-0.89-0.69c-0.57-0.47-1.05-0.94-1.68-1.2
				c-0.21-0.16-0.42-0.31-0.63-0.42l-12.76-3.46c-0.99,0.1-2.04,0.37-3.09,0.63c-0.27,0-0.48,0.1-0.63,0.22
				c-5.36,1.52-11.23,5.04-17.43,9.65c0,0-5.24,11.23-8.29,23.2c-0.37,1.53-0.73,3-1,4.42c-1.52,7.97-1.84,15.69,1.31,20.16
				c0,0-1.16,1.16-3.15,3.72C213.75,589.73,203.57,603.63,191.08,628.1z"/>
			<path fill="#FDFAD5" d="M244.25,586.16c-4.89,12.13-9.24,24.57-13.12,37.32c50.13-18.11,81.72-70.54,87.71-83.3l-55.11-15.02
				c0.21,0.11,0.42,0.26,0.63,0.42c0.63,0.26,1.1,0.73,1.68,1.2c0.31,0.22,0.57,0.37,0.89,0.69c4.62,4.2,6.92,9.87,6.83,16.53
				c0,1.79-0.22,3.89-0.69,5.88c-1.31,6.98-4.93,13.23-9.5,18.64l-13.7,16.16C249.87,584.69,247.61,585.58,244.25,586.16z"/>
			<path fill="#FDFAD5" d="M178.69,614.97c2.04,6.24,5.93,10.92,12.38,13.13c12.49-24.47,22.68-38.37,27.61-44.41
				c1.99-2.57,3.15-3.72,3.15-3.72c-3.15-4.47-2.83-12.18-1.31-20.16c0.27-1.42,0.63-2.89,1-4.42c3.04-11.97,8.29-23.2,8.29-23.2
				c6.2-4.62,12.08-8.14,17.43-9.65c0.16-0.11,0.37-0.22,0.63-0.22c1.04-0.26,2.1-0.52,3.09-0.63l-8.03-2.21l-31.7-20.42
				C211.24,499.08,167.41,580.91,178.69,614.97z"/>
			<g>
				<path fill="#D5D1A0" d="M370.16,489.29c-10.94,46.07-49.85,78.93-49.85,78.93c-18.14-28.36-37.5-37.09-52.99-41.15l-0.04-0.01
					c-1.34-0.31-2.67-0.62-3.91-0.97c-1.73-0.38-3.47-0.67-5.04-0.97c-0.69-0.16-1.34-0.27-2.03-0.42
					c-0.35-0.06-0.65-0.11-0.99-0.21l-0.05-0.01c-0.26-0.05-0.48-0.08-0.69-0.16l-0.52-0.08c-5.32-1.11-9.65-2.24-12.49-4.55
					c-0.17-0.03-0.2-0.12-0.37-0.2l1.88-1.07l38.51-21.38l63.19-35.13l9.87-5.51l16.53-9.2c1.63,7.92,2.08,15.7,1.69,23.15
					C372.54,476.88,371.58,483.21,370.16,489.29z"/>
			</g>
			<path fill="#D5D1A0" d="M242.47,464.63l-0.72,54.67c0,0-35.46-7.47-44.81,11.59C196.94,530.9,199.48,476.97,242.47,464.63z"/>
			<path fill="#FDFAD5" d="M349.38,708.55H488.6c10.01-44.68,12.81-87.93,4.1-125.33c0,0-48.4-29.74-146.5,57.36
				C360.03,628.32,358.86,660.61,349.38,708.55z"/>
			<path fill="#FDFAD5" d="M404.39,708.55c42.77-57.89,88.31-125.33,88.31-125.33s-95-63.42-146.5,57.36c0,0-1.58,31.12-5.11,67.96
				H404.39z"/>
		</g>
	</g>
</g>
</svg>
