<?xml version="1.0" encoding="utf-8"?>
<!-- Generator: Adobe Illustrator 25.2.3, SVG Export Plug-In . SVG Version: 6.00 Build 0)  -->
<svg version="1.1" id="Layer_1" xmlns="http://www.w3.org/2000/svg" xmlns:xlink="http://www.w3.org/1999/xlink" x="0px" y="0px"
	 viewBox="0 0 576 576" enable-background="new 0 0 576 576" xml:space="preserve">
<g>
	<g>
		<defs>
			<path id="SVGID_1_" d="M576,287.71c0,159.08-128.96,288.04-288.04,288.04S-0.09,446.79-0.09,287.71
				c0-159.09,128.96-288.05,288.05-288.05S576,128.62,576,287.71z"/>
		</defs>
		<use xlink:href="#SVGID_1_"  overflow="visible" fill="#F9E3D9"/>
		<clipPath id="SVGID_2_">
			<use xlink:href="#SVGID_1_"  overflow="visible"/>
		</clipPath>
		<g clip-path="url(#SVGID_2_)">
			<g>
				<g>
					<path fill="#F47E67" d="M-138.92,107.47c0.16-1.46,0.59-2.57,1.03-3.46c7.44-13.65,77.91-39.97,89.66-31.8
						c0,0,10.58,10.57,13.1,20.28c4.99-10.44-12.77-28.38-12.77-28.38c-11.75-8.17-82.3,18.11-89.66,31.8
						C-138.83,98.26-139.24,102.25-138.92,107.47z"/>
					<path fill="#F9A875" d="M-137.89,104.01c-0.44,0.88-0.86,2-1.03,3.46c0.57,13.93,5.9,36.58,11.88,57.89
						c5.8,10.65,17.24,29.35,29.02,35.22c8.4,4.22,11.75,13.34,13.02,21.56c15.04-0.13,32.24,6.04,31.96-5.54
						c-0.87-28.4,30.44-52.03,35.3-67.82c0.6-1.91,0.98-3.82,1.27-5.77c1.91-14.7-4.61-31.54-10.46-42.33
						c-2.61-4.8-5.32-6.24-7.66-6.17c-0.88,0.01-1.72,0.15-2.34,0.51c0.7-0.75,1.36-1.64,1.79-2.53
						c-2.52-9.71-13.1-20.28-13.1-20.28C-59.98,64.03-130.45,90.36-137.89,104.01z"/>
					<path fill="#EF374B" d="M-111.5,131c6.87-0.38,12.97-3.1,16.38-4.93c8.22-11.98,18.56-14.01,18.56-14.01
						c-0.79,0.46-20.3,13.14-15.98,19.62c4.32,6.48,22.54,12.53,29.83,6.49c8.1-6.71,11.29-5.14,11.29-5.14s-12.3,9.15-21.14,16.33
						c0,0-8.66,8.96-13.1,17.1c0,0,3.42-12,8.64-18.43c-7.29-2.41-20.96-8.01-20.6-16.13c-3.44,1.4-10.64,3.67-18.76,2.05
						c-11.29-2.25-11.84-10.26-11.84-10.26S-121.93,131.57-111.5,131z"/>
					<path fill="#F47E67" d="M-127.04,165.36c7.96,28.77,15.27,61.22,15.27,61.22s13.77-4.19,26.77-4.43
						c-1.27-8.22-4.62-17.34-13.02-21.56C-109.8,194.71-121.24,176.01-127.04,165.36z"/>
				</g>
				<path fill="#1BC2E8" d="M149.87,652.81c-1.48-1.69-10.9-13.46-12.38-15.1c-22.1-24.36-49.3-48.37-82.61-71.9
					c-167.82-118.26-168.17-306.72-166.73-341.8l79.22-19.67c0,0-10.65,261.46,233.24,311.01
					C200.62,515.35,233.12,624.05,149.87,652.81z"/>
				<path fill="#3C7BBF" d="M137.5,637.72c1.48,1.64,16.06,13.33,17.54,15.01c-5.26,1.8,6.28,25.16,0,26.49
					c-79.3-46.18-286.28-208.38-283.38-451.13l16.5-4.08c-1.44,35.08-1.09,223.55,166.73,341.8
					C88.2,589.35,115.4,613.36,137.5,637.72z"/>
			</g>
			<path fill="#0E83BC" d="M388.09,479.79c0,0-62-46.84-164.99,10c-1.23,0.68-2.05,1.98-2.12,3.39l-2.11,42.48l116.63-8.4
				L388.09,479.79z"/>
			<path fill="#C32026" d="M180.6,866.8l-2.92-105.63l-8.39-110.17l52.58-111.41c0,0,23.7,25.74,78.53,7.73
				s102.08,74.52,102.08,74.52s9.54,130.93,5.77,244.96H180.6z"/>
			<path fill="#1BC2E8" d="M224.15,495.36l-3.53,59.83l-68.92,86.18C151.7,641.36,155.05,537.17,224.15,495.36z"/>
			<path fill="#DCD7C4" d="M204.35,752.33c-1.74,7.4,2.85,14.83,10.26,16.57c7.41,1.75,14.83-2.85,16.57-10.26
				c1.75-7.41-2.85-14.83-10.26-16.57C213.51,740.32,206.09,744.92,204.35,752.33z"/>
			<path fill="#802018" d="M167.49,165.54c-8.01-55.44,36.96-66.86,36.96-66.86c16.84-8.66-0.16-18.98-0.16-18.98
				s-0.2-0.02-0.58-0.09c-1.01-0.08-1.96-0.18-2.98-0.23c-4.33-0.19-8.84,0.34-12.68,1.45c-7.83,2.18-13.19,5.86-17.07,9.11
				c-3.84,3.28-6.6,6.68-8.54,9.36c-8.29,11.74-11.04,23.93-11.77,33.75c-0.39,5-0.23,9.7,0.14,13.88
				c0.36,4.19,0.99,7.86,1.64,11.15c1.38,6.18,2.71,12.18,4.04,18.01c4.37,14.61-7.7,12.67-7.7,12.67
				c-1.36-0.19-2.73-0.55-4.01-1.06c-2.92-1.29-5.56-3.22-7.83-5.39c-4.63-4.4-7.67-9.42-9.62-12.82c-1.96-3.47-2.96-5.5-2.96-5.5
				s-0.38,2.2-0.75,6.37c-0.26,4.18-0.65,10.39,1.27,18.55c1,4.1,2.65,8.7,5.66,13.33c1.28,1.89,2.85,3.74,4.58,5.53
				C147.51,217.69,175.5,220.99,167.49,165.54z"/>
			<path fill="#F89F74" d="M325.64,384.24c-0.31,6.09-49.89,86.24,7.74,160.53c57.63,74.28-93.18,93.79-115.02,44.39
				s53-116.89,36.56-150.3C231.08,390.41,325.64,384.24,325.64,384.24z"/>
			<path fill="#802018" d="M278.91,173.28c0,0-22.63,36.57,28.87,51.02c0,0-19.04-21.06-16.81-51.35
				C291.91,160.13,278.91,173.28,278.91,173.28z"/>
			<path fill="#3E61AD" d="M379.62,535.14c30.52,52.36,63.52,144.7,85.04,128.78c29.19-21.59-5.51-116.97-53.36-165.6
				c-11.95-12.15-22.87-19.27-32.55-23.1C394.07,495.93,408.97,525.29,379.62,535.14z"/>
			<path fill="#1BC2E8" d="M326.61,496.73l-74.96,58.6l-7.68,66.46l203.97,10.77C447.95,632.55,439.36,510.95,326.61,496.73z"/>
			<path fill="#F47E67" d="M883.62,282.33c0.57-1.35,0.74-2.53,0.79-3.52c0.19-15.54-48.36-72.99-62.61-71.62
				c0,0-14.4,4.04-21.35,11.26c0.75-11.54,25.02-18.49,25.02-18.49c14.25-1.37,62.9,56.08,62.61,71.62
				C888.04,274.25,886.45,277.93,883.62,282.33z"/>
			<path fill="#F9A875" d="M884.41,278.8c-0.05,0.99-0.22,2.17-0.79,3.52c-7.31,11.87-23.05,29.01-38.7,44.66
				c-10.28,6.45-29.41,17.15-42.55,16.51c-9.39-0.44-22.65,12.92-27.78,19.47c-13.05-7.47-31.91-6.2-24.73-15.3
				c22.42-28.43,4.39-72.49,7.88-88.65c0.41-1.96,1.01-3.8,1.71-5.65c5.54-13.75,19.47-25.25,29.85-31.79
				c4.62-2.91,7.69-2.83,9.7-1.62c0.77,0.44,1.44,0.97,1.79,1.59c-0.24-1.01-0.38-2.11-0.32-3.09c6.95-7.23,21.35-11.26,21.35-11.26
				C836.06,205.81,884.61,263.26,884.41,278.8z"/>
			<path fill="#F47E67" d="M844.92,326.99c-21.02,21.2-48.77,48.7-48.77,48.7s-10.35-6.14-21.57-12.73
				c5.13-6.55,18.39-19.9,27.78-19.47C815.51,344.14,834.64,333.44,844.92,326.99z"/>
			<path fill="#3C7BBF" d="M396.84,636.77c-2.04,0.84-12.71,4.52-14.77,5.4c3.95,3.9,5.58,7.92,11.99,13.49
				c91.47-7.23,317.31-52.73,419.94-272.72l-13.1-10.84c-13.92,32.23-95.95,201.91-298.44,235.71
				C462.23,614.57,427.32,624.41,396.84,636.77z"/>
			<path fill="#2EA3DC" d="M350.33,503.6c9.77-0.42,23.17,10.41,38.01,26.11c26.3-16.31,5.07-41.48-14.57-58.13
				c-30.92-4.58-44.02,17.07-44.02,17.07S313.24,505.22,350.33,503.6z"/>
			<path fill="#1BC2E8" d="M262.33,866.8c-18.28-100.76-24.53-209.86-15.48-269.14c0.71-4.65,4.86-30.39,10.63-39.58
				c-0.29-0.97,61.72-39.62,61.72-39.62s125.46,24.51,130.71,135.26c2.07,43.69,18.17,128.05,19.26,213.08H262.33z"/>
			<path fill="#1BC2E8" d="M382.08,642.17c2.05-0.88,12.73-4.56,14.77-5.4c30.48-12.36,65.39-22.2,105.62-28.96
				c202.5-33.8,284.53-203.47,298.44-235.71l-69.37-37.04c0,0-72.24,209.1-377.42,165.94C354.13,501.01,319.52,580.16,382.08,642.17
				z"/>
			<path fill="#2EA3DC" d="M348.64,501.02c0,0-71.25,32.77-86.74,66.24c-15.5,33.47-34.02,1.19-9.26-16.14
				c24.76-17.34,70.49-79.61,86.4-68.3C354.96,494.13,348.64,501.02,348.64,501.02z"/>
			<path fill="#1BC2E8" d="M200.02,741.96c6.53,28.85,9.11,78.1,9.94,124.84h-59.24c7.77-48.26,15.85-98.38,7.9-124.28
				c-17.07-55.59-7.1-130.84,12.09-154.27c19.18-23.43,23.4-30.2,23.4-30.2l28.68-3.86l0.49,18.5
				C223.28,572.7,184.85,674.91,200.02,741.96z"/>
			<path fill="#2EA3DC" d="M226.68,490.51c0,0-6.89,62.1-3.52,77.48s-18.62,18.19-14.87,0.37c3.76-17.83,5.36-67.09,5.36-67.09
				S220.96,480.06,226.68,490.51z"/>
			<path fill="#DCD7C4" d="M162.83,743.52c-1.74,7.41,2.85,14.83,10.26,16.57c7.41,1.75,14.83-2.85,16.57-10.26
				c1.74-7.41-2.85-14.83-10.26-16.57C172,731.52,164.57,736.11,162.83,743.52z"/>
			<path fill="#DCD7C4" d="M218.04,574.37l-39.3,172.9l-5.1-1.2l36.54-173.55C210.19,572.51,212.34,563.89,218.04,574.37z"/>
			<path fill="#DCD7C4" d="M250.08,574.84l-29.15,178.88l-6.14-1.44l27.95-179.17C242.74,573.11,246.72,570.22,250.08,574.84z"/>
			<path fill="#F9A875" d="M826.99,255.79c0,0,15.07,19.03,5,26.76c-10.07,7.73-25.02,1.04-25.02,1.04s3.41,16.4,1.32,24.09
				c-2.09,7.69-13.57,11.22-13.57,11.22l-30.97-73.61c0,0,29.31-35.26,37.02-23.75C808.5,233.04,826.99,255.79,826.99,255.79z"/>
			<path fill="#EF374B" d="M848.19,289.42c-5.81-3.7-9.8-9.06-11.87-12.32c-1.31-14.48-9.33-21.31-9.33-21.31
				c0.46,0.79,11.26,21.39,4.33,24.93c-6.94,3.54-25.79-0.12-29.18-8.95c-3.78-9.81-7.33-10.01-7.33-10.01s6.25,14.01,10.44,24.59
				c0,0,3.17,12.04,3.05,21.33c0,0,2.9-12.13,1.49-20.31c7.54,1.47,22.2,3.28,25.86-3.97c2.31,2.91,7.48,8.4,15.36,10.97
				c10.94,3.56,15.35-3.16,15.35-3.16S857,295.02,848.19,289.42z"/>
			<path fill="#5862AD" d="M111.99,299.02c-9.52,29.86-3.11,58.57,14.31,64.13c17.42,5.56,39.27-14.14,48.79-44
				c9.52-29.86,3.11-58.57-14.31-64.12C143.35,249.47,121.51,269.17,111.99,299.02z"/>
			<path fill="#F9AF8A" d="M278.64,411.2c-26.97,38.22-51.51,66.59-85.49,68.28c-0.02,0.04-0.07,0.01-0.07,0.01
				c-0.06,0.01-0.16,0.01-0.19-0.02c-25.06-1.77-46.7-11.8-58.79-33.8C75.36,339,195.7,180.78,199.6,172.78l20.36,9.94
				c-1.62,7.73-2.47,13.05-2.47,13.05s14.3,39.27,45.49,42.34c31.16,3.05,58.15,17.5,57.49,46.83
				C319.88,314.3,305.69,372.93,278.64,411.2z"/>
			<path fill="#751E14" d="M210.66,267.92l-2.72,17.95c0,0,33.23-21.62,74.66-2.43l13.01-22.03
				C295.62,261.42,255.85,250.61,210.66,267.92z"/>
			<g>
				<path fill="#ED1C24" d="M220.86,423.79c-11.34,15.28-27.1,29.73-43.47,24c-4.37-1.51-8.79-4.45-13.16-9.2
					c0,0-25.15-27.46-23.12-50.75c0,0,2.3,1.77,6.66,4.08c0.67,5.43,2.33,13.39,8.11,22.36c7.85,12.16,48.61,1.2,67.55-14.84
					c4.75-1.22,9.7-2.76,14.77-4.69C238.19,394.74,231.43,409.63,220.86,423.79z"/>
				<path fill="#FFFFFF" d="M223.43,399.44c-18.95,16.04-59.71,27-67.55,14.84c-5.78-8.97-7.44-16.93-8.11-22.36
					C159.59,398.25,186.6,408.8,223.43,399.44z"/>
				<path fill="#F26C58" d="M220.86,423.79c-11.34,15.28-27.1,29.73-43.47,24c-1.81-6.24-0.94-13.62,6.32-21.32
					C198.26,411.08,213.79,418.78,220.86,423.79z"/>
			</g>
			<path fill="#F5855B" d="M215.18,247.55c0,0-14.75,2.81-19.64,26.43C195.54,273.97,203.3,252.63,215.18,247.55z"/>
			<path fill="#F5855B" d="M184.76,239.69c0,0,16.35,10.76,0.92,27.36C185.67,267.05,195.33,249.97,184.76,239.69z"/>
			<path fill="#751E14" d="M148.07,227.84c4.13,2.7,28.68,24.97,32.04,43.41l-5.67,12.04c0,0-21.81-33.12-35.79-35.52L148.07,227.84
				z"/>
			<path fill="#F89F74" d="M333.51,424.52c-30.14,30.89-91.69,58.38-140.36,54.96c33.99-1.69,58.52-30.06,85.49-68.28
				c27.05-38.27,41.24-96.9,41.83-126.27c0.67-29.33-26.32-43.77-57.49-46.83c-31.19-3.07-45.49-42.34-45.49-42.34
				s0.84-5.31,2.47-13.05l174.57,85.14C394.54,267.85,379.29,377.63,333.51,424.52z"/>
			<polygon fill="#824C1F" points="267.9,315.61 267.2,327.17 340.73,371.83 345.43,364.09 			"/>
			<path fill="#9B2820" d="M371.4,307.44c-39.36,28.57-60.15,62.72-60.15,62.72s36.71-77.33,49-83.56
				c-1.34-0.23-28.78-4.89-54.61-59.83c0,0-37.74,26.86-83.01-26.14c-8.35-9.78-12.02-5.82-18.47-11.23
				c-2.35,2.91-4.88,6.03-7.61,9.4c-0.68,1.12-1.4,2.22-2.18,3.33c-2.43,3.39-5.45,6.63-8.97,9.36
				c-6.15,6.47-13.11,12.62-20.23,17.55c-4.15,2.92-8.41,5.58-12.66,7.86c-4.28,2.27-8.33,4.31-13.49,6.36
				c-5.73,2.39-11.96,3.58-17.45,2.94c-5.57-0.58-10.41-2.89-14.29-5.56c-3.82-2.69-5.91-5.08-8.22-7.38
				c-2.28-2.33-4.59-4.9-6.23-7.7c-1.62-2.72-2.48-5.84-2.48-8.38c-0.02-2.5,0.64-4.53,1.43-6.01c1.64-2.97,3.43-3.37,3.35-3.42
				c0,0-1.12,1.49-0.9,4c0.1,2.61,1.75,5.82,5.32,7.52c1.77,0.92,3.96,1.66,6.69,2.48c2.77,0.84,6.06,1.88,8.4,2.03
				c2.24,0.14,4.45-0.1,6.36-1.06c1.99-1.01,3.35-2.46,4.64-4.17c1.89-1.98,4.61-4.97,7.15-7.93c0.8-0.89,1.53-1.92,2.33-2.87
				c12.39,9.91,40.38,13.21,32.38-42.24c-8.01-55.44,36.96-66.86,36.96-66.86c16.84-8.66-0.16-18.98-0.16-18.98
				c-1.75-8.27-1.27-16.12,1.29-23.82c2.59-7.58,7.29-13.83,13-17.92c6.34-4.51,13.67-6.3,20.13-6.4
				c6.29,0.01,11.86,1.38,16.69,3.37c9.7,4.15,15.66,10.36,20.21,15.34c4.41,5.12,7.32,9.37,9.35,12.3c1.93,2.92,3,4.47,3,4.47
				s-1.42-1.23-4.08-3.48c-2.72-2.24-6.6-5.6-11.88-9.18c-5.19-3.47-12.09-7.45-19.91-8.6c-3.93-0.58-8.15-0.51-12.13,0.46
				c-3.76,1.05-7.16,2.9-9.67,5.82c-4.62,5.34-4.93,13.08-1.81,19.96c2.87,6.08,10.19,10.84,18.9,12.01
				c8.58,1.3,18.16-0.98,28.39-5.88c2.57-1.19,5.17-2.58,7.76-4.08l4.06-2.4l2.39-1.41l1.74-0.95l2.14-1.09
				c5.68-2.9,11.72-5.26,17.85-6.3c6.14-1.04,12.38-0.79,18.33,0.92c7.2,2.09,13.69,6.46,18.72,12.21
				c4.98,5.83,8.58,13.05,10.56,21.02c0.84,3.15,1.27,6.43,1.59,9.75c0,0,37.53,39.51,23.22,61.67c0,0,56.47,24.62,32.07,66.2
				C416.19,233.7,410.8,278.89,371.4,307.44z"/>
			<path fill="#802018" d="M220.84,98.75c0,0,6.97,61.11,53.07,57.81c46.1-3.31,9.57,23.45,8.98,24.41
				C282.31,181.94,209.74,215.02,220.84,98.75z"/>
			<path fill="#802018" d="M420.94,373.08c-0.86,8.48-4.45,18.04-11.93,28.79c-39.08,55.89-64.49,26.81-69.28,42.46
				c-12.99,42.48-54.6,40.06-39.04,3.74c15.61-36.33,48.24-79.43,48.24-79.43l-37.68,1.51c0,0,20.79-34.14,60.15-62.72
				c39.41-28.55,44.8-73.74,44.8-73.74c24.4-41.58-32.07-66.2-32.07-66.2c14.31-22.16-23.22-61.67-23.22-61.67
				c0.56,0.39,1.18,0.77,1.71,1.2c10.44,7.46,18.61,16.91,24.63,27.03c3.62-0.82,7.47-1.49,11.67-1.8c2.96-0.16,5.93-0.26,9.12,0.14
				l4.68,0.57l4.5,1.04c5.98,1.57,11.53,4.09,16.28,7.25c9.69,6.25,16.44,14.74,21.25,23.64c4.61,9.05,7.28,18.77,7.52,28.65
				c0.16,9.83-1.64,18.47-4.66,26.32c-3,7.81-6.96,14.5-11.35,20.25c-0.38,0.46-0.79,0.96-1.17,1.41c0.58,0.35,1.1,0.62,1.73,0.89
				c0.96,0.42,2.01,0.53,3.13,0.68c3.83,0.75,10.9-4.01,15.88-8.98c5.12-4.87,8.9-10.15,11.2-15.05c2.27-4.87,3.04-9.37,2.98-12.58
				c-0.03-1.61-0.15-2.89-0.32-3.74c-0.09-0.64-0.16-1.05-0.21-1.23c0.12,0.07,0.44,0.42,0.86,0.94c0.6,0.68,1.34,1.71,2.27,3.23
				c1.81,2.94,3.74,8.03,4.07,14.9c0.29,6.84-1,15.16-4.4,23.88c-1.75,4.45-3.72,8.74-6.96,13.55c-1.59,2.37-3.52,4.74-5.9,7.1
				c-2.47,2.41-5.43,4.69-8.71,6.51c-0.68,0.32-1.43,0.61-2.11,0.94c15.19,6.69,25.54,16.73,12.24,30.19
				c-2.23,2.19-4.52,3.97-6.86,5.46c6.07,7.08,8.79,17.14,4.83,31.51C459.96,372.08,437.87,375.7,420.94,373.08z"/>
			<g>
				<path fill="#F89F74" d="M332.51,369.98c0,0,61.54-44.54,74.66-2.64c13.13,41.9-42.63,83.19-75.62,62.57
					c-32.99-20.61-19.41-33.35-19.41-33.35L332.51,369.98z"/>
				<path fill="#F47644" d="M337.95,391.52c0,0-3.87,13.83,7.44,15.78c11.32,1.95,15.52-9.56,9.37-16.41
					c-6.14-6.84-6.73-4.21-6.73-4.21s33.89-24.56,40.47-15.86c6.57,8.7,12.68,31.42-2.76,36.07c-15.45,4.65-12.4,0.91-6.16-3.14
					c6.24-4.05,12.75-4.58,10.89-12.62c-1.86-8.05-7.72-16.48-7.72-16.48l-26.5,11.88c0,0,9.33,13.6,2.11,19.51
					c-7.22,5.9-24.85,10.08-27.01-3.98C331.36,402.07,329.97,394.12,337.95,391.52z"/>
			</g>
			<path fill="#F5855B" d="M180.02,277.69c0,0-13.1,53.49-37.76,58.77c-24.67,5.29-14.28,30.26,7.63,36.11
				c8.11,2.16,15.14,2.14,20.78,1.26c10.33-1.62,17.11-12.32,13.16-22.01c-1.8-4.4-5.13-6.68-11.24-1.57
				C172.58,350.25,190.57,311.37,180.02,277.69z"/>
			<g>
				<path fill="#824C1F" d="M173.44,284.07l-0.96-6.71c19.82-2.83,32.23,14.4,32.75,15.14l-5.54,3.92
					C199.6,296.27,189.11,281.86,173.44,284.07z"/>
			</g>
			<path fill="#35404A" d="M353.92,82.53l6.96,23.32c0,0,90.52,59.9,10.35,236.51l29.33,12.73c0,0,104.82-188.61-41.74-269.92
				C357.25,84.29,355.6,83.42,353.92,82.53z"/>
			<path fill="#1A2127" d="M360.89,105.85l-0.58,0.96c0,0,76.67,49.98-3.5,226.59l14.44,8.95
				C451.41,165.74,360.89,105.85,360.89,105.85z"/>
			<path fill="#1A2127" d="M314.14,360.92c-19.78,32.56-15.12,71.53,10.4,87.03c25.53,15.5,62.24,1.67,82.02-30.89
				c19.78-32.56,15.12-71.53-10.4-87.03C370.64,314.53,333.92,328.36,314.14,360.92z"/>
			<path fill="#1A2127" d="M320.18,364.6c-19.77,32.56-15.12,71.53,10.4,87.03c25.53,15.5,62.25,1.67,82.03-30.89
				c19.77-32.56,15.12-71.53-10.41-87.03C376.69,318.21,339.96,332.04,320.18,364.6z"/>
			<path fill="#848AC3" d="M354.98,455.89l0.01,0.05c19.48,0.58,46.58-5.1,65.7-35.55c33.14-52.67-18.47-86.68-18.47-86.68
				s-0.03-0.02-0.08-0.01C398.95,333.63,315.43,332.32,354.98,455.89z"/>
			<path fill="#5E68B0" d="M326.01,369.57c-21.98,42.76,4.59,82.05,4.59,82.05s10.17,3.82,24.39,4.32l-0.01-0.05
				c-39.55-123.56,43.97-122.26,47.16-122.18C352.19,318.96,326.01,369.57,326.01,369.57z"/>
			<g>
				<path fill="#454EA0" d="M393.39,399.05c-4.62,7.6-4.42,16.17,0.44,19.12c4.87,2.96,12.56-0.81,17.18-8.42
					c4.62-7.6,4.42-16.17-0.45-19.12C405.7,387.68,398.01,391.45,393.39,399.05z"/>
				<polygon fill="#454EA0" points="410.56,390.63 416.05,393.97 399.33,421.51 393.83,418.17 393.1,405.97 398.99,396.27 				"/>
				<path fill="#5862AD" d="M398.88,402.39c-4.62,7.6-4.42,16.17,0.45,19.12c4.87,2.96,12.55-0.81,17.17-8.42
					c4.62-7.6,4.42-16.17-0.45-19.12C411.19,391.01,403.49,394.78,398.88,402.39z"/>
			</g>
			<path fill="#A22F22" d="M228.83,300.32c0,0,17.47,12.96,17.05,23.37c-0.35,8.86-13.96-17.67-25.19-16.53
				c-6.1,0.62-4.51,6.32-7.44,5.87C210.32,312.58,211.84,292.8,228.83,300.32z"/>
			<path fill="#A22F22" d="M147.92,278.82c4.17-1.62,8.92-0.62,12.47,2.11c4.5,3.46,10.71,9.13,7.75,12.12
				c-4.47,4.48-5.28-10-17.66-6.97c-7.38,1.81-8.61,6.84-9.9,6.38C139.56,292.09,139.65,282.04,147.92,278.82z"/>
			<polygon opacity="0.39" fill="#0E89B1" points="167.33,306.06 157.28,322.6 152.63,324.43 112.97,306.27 108.51,292.97 
				117.93,262.14 128.91,259.39 142.43,265.7 133.62,286.91 168.46,301.51 172.37,293.14 			"/>
			<polygon opacity="0.68" fill="#FFFFFF" points="168.46,301.51 133.62,286.91 142.43,265.7 142.9,265.87 172.84,279.83 
				175.42,285.26 172.37,293.14 			"/>
			<polygon opacity="0.33" fill="#0E89B1" points="264.82,335.7 246.69,357.54 236.15,357.48 203.42,345.34 190.2,337.3 
				189.08,328.26 202.42,294.46 222.04,296.91 267.92,315.63 268.67,317.35 235.88,303.31 227.07,324.52 261.9,339.11 
				268.96,323.93 			"/>
			<polygon opacity="0.68" fill="#FFFFFF" points="261.9,339.11 227.07,324.52 235.88,303.31 268.67,317.35 270.09,320.75 
				268.96,323.93 			"/>
			<g>
				<path fill="#824C1F" d="M192.04,343.69c-5.1-3.1-7.59-9.13-5.74-14.65l10.43-31.1c1.03-3.08,3.26-5.58,6.26-7.06
					c3.22-1.58,7.07-1.78,10.56-0.56c3.02,1.06,6.58,2.25,10.39,3.53c34.54,11.56,49.9,18.07,49.58,26.05l0,0
					c-0.45,11.6-12.14,30.95-23.17,38.34c-6.38,4.28-11.21,3.89-14.14,2.82c-8.48-3.11-27.55-10.59-42.05-16.31
					C193.41,344.45,192.7,344.09,192.04,343.69z M263.05,316.5c-8.81-5.35-30.75-12.69-41.25-16.21c-3.86-1.29-7.44-2.49-10.49-3.56
					c-1.79-0.63-3.73-0.54-5.34,0.25c-1.35,0.67-2.35,1.77-2.8,3.12l-10.43,31.11c-0.94,2.81,0.74,5.99,3.92,7.24
					c11.84,4.67,33.04,13.01,41.89,16.25c2.63,0.96,5.82-0.6,8.03-2.09c9.93-6.66,19.73-24.06,20.16-32.83
					C266.38,318.83,265.06,317.72,263.05,316.5z M266.76,319.84L266.76,319.84L266.76,319.84z M266.75,319.64L266.75,319.64
					L266.75,319.64L266.75,319.64z"/>
			</g>
			<g>
				<path fill="#824C1F" d="M111.95,309.92c-2.2-1.33-4.67-4-5.83-9.32c-2.83-12.98,3.48-34.59,10.44-42.51l0,0
					c5.11-5.82,18.93-0.54,47.97,13.51c3.18,1.53,6.12,2.96,8.67,4.14c2.96,1.36,5.2,3.83,6.29,6.92c1.09,3.09,0.89,6.42-0.57,9.37
					l-13.87,28.09c-2.8,5.68-9.59,8.24-15.44,5.81c-10.34-4.28-28.83-11.98-36.56-15.42C112.69,310.35,112.32,310.16,111.95,309.92z
					 M121.57,262.66c-5.75,6.68-11.15,25.83-8.83,36.49c0.42,1.91,1.31,4.39,3.07,5.15c7.65,3.41,26.08,11.08,36.39,15.35
					c2.56,1.07,5.54-0.06,6.77-2.55l13.86-28.09c0.64-1.29,0.73-2.76,0.25-4.11c-0.47-1.34-1.46-2.43-2.75-3.02
					c-2.57-1.2-5.55-2.64-8.76-4.19C150.92,272.56,126.06,260.53,121.57,262.66z"/>
			</g>
			<polygon fill="#5862AD" points="396.54,417.47 330.21,483.78 207.31,466.4 204.89,475.98 332.1,493.57 401.69,422.38 			"/>
			<g>
				<path fill="#424D9D" d="M163.24,463.89c-0.4,8.84,11.04,16.56,25.62,17.23c10.07,0.49,18.97-2.56,23.62-7.4
					c-3.79,1.06-8.05,1.57-12.54,1.35c-14.56-0.7-26.05-8.4-25.6-17.26c0.14-2.72,1.36-5.21,3.44-7.38
					C169.37,452.75,163.5,457.78,163.24,463.89z"/>
				<path fill="#5862AD" d="M174.32,457.81c-0.44,8.86,11.04,16.56,25.6,17.26c4.5,0.21,8.76-0.29,12.54-1.35
					c2.1-2.13,3.33-4.64,3.48-7.37c0.4-8.83-11.04-16.56-25.62-17.22c-4.53-0.23-8.79,0.28-12.56,1.31
					C175.69,452.6,174.47,455.09,174.32,457.81z"/>
			</g>
		</g>
	</g>
</g>
</svg>
