<?xml version="1.0" encoding="utf-8"?>
<!-- Generator: Adobe Illustrator 25.2.3, SVG Export Plug-In . SVG Version: 6.00 Build 0)  -->
<svg version="1.1" id="Layer_1" xmlns="http://www.w3.org/2000/svg" xmlns:xlink="http://www.w3.org/1999/xlink" x="0px" y="0px"
	 viewBox="0 0 576 576" enable-background="new 0 0 576 576" xml:space="preserve">
<g>
	<g>
		<defs>
			<path id="SVGID_1_" d="M576,289.32c0,159.06-128.94,288-288,288c-159.06,0-288-128.94-288-288c0-159.05,128.94-288,288-288
				C447.06,1.33,576,130.27,576,289.32z"/>
		</defs>
		<use xlink:href="#SVGID_1_"  overflow="visible" fill="#F9E3D9"/>
		<clipPath id="SVGID_2_">
			<use xlink:href="#SVGID_1_"  overflow="visible"/>
		</clipPath>
		<g clip-path="url(#SVGID_2_)">
			<path fill="#F9E3D9" d="M576,289.32c0,159.06-128.94,288-288,288c-159.06,0-288-128.94-288-288c0-159.05,128.94-288,288-288
				C447.06,1.33,576,130.27,576,289.32z"/>
			<g>
				<path fill="#FCC697" d="M348.45,718.56h42.09c3.36-34.87-32.06-120.6-38.99-136.6c0,0-43.16-37.68-50.07,32.6
					C297.35,656.57,323.49,697.38,348.45,718.56z"/>
				<path fill="#CB8E63" d="M188.94,54.28c-22.48,13.43-58.58,64.08-62.24,110.46c-4.24,53.65-3.67,71.01-25.39,116.33
					C79.6,326.4,53.03,430.94,97.4,466.81c44.38,35.88,214.87,54.96,270.01,28.07c36.08-17.6,15.6-0.82,15.6-59.19
					c0-63.66,21.71-66.22,59.88-206.2c9.04-33.12,36.32-101.46-11.51-152.72c-36.5-39.1-60.76-14.73-83.42-26.07
					C325.31,39.38,287.95-4.83,188.94,54.28z"/>
				<path fill="#B78662" d="M369.5,311.04c0,0-4.39,33.07,3.43,54.22c7.82,21.14,17.59,61.81-29.33,90.01
					c-46.92,28.2-110.46,38.5-110.46,38.5L163.72,365.8L369.5,311.04z"/>
				<path fill="#B78662" d="M128.88,261.89c0,0-4.47,57.31-23.09,95.68c-18.63,38.37,5.69,76.41,5.69,76.41s16.91-44.21,68.16-51.18
					C230.9,375.84,128.88,261.89,128.88,261.89z"/>
				<path fill="#F8A62E" d="M277.66,461.59c-15.84-19.99-19.38-12.51-38.32-11.02c-20.24,1.58-18.09,45.18-12.11,87.92
					c13.2,94.42,43.61,129.5,43.61,129.5l70.01-64.75C340.85,603.24,316.8,511,277.66,461.59z"/>
				<path fill="#FCD1AC" d="M405.51,718.56c32.93-44.59,97.85-198.73,69.77-207.57c-31.43-9.9-100.92,141.75-103.64,147.47
					c-12.5,26.32-13.89,47.02-9.25,60.11H405.51z"/>
				<g>
					<polygon fill="#7E797D" points="549.98,395.85 558.58,402.15 552.94,404.23 					"/>
					<polygon fill="#7E797D" points="402.74,608.81 395.44,603.39 404.67,603.88 					"/>
					<path fill="#7E797D" d="M540.48,393.67l-66.52,3.55c-12.5,0.67-26.1,11.98-30.39,25.26l-52.01,161.21
						c-4.29,13.28,2.36,23.51,14.87,22.84l66.52-3.55c12.5-0.66,26.1-11.97,30.39-25.26l52.01-161.2
						C559.63,403.23,552.97,393,540.48,393.67z"/>
					<g>
						<path fill="#A39DA2" d="M405.41,568.36l111.35-4.69l45.77-141.84c4.29-13.28-2.36-23.53-14.88-22.85l-66.52,3.56
							c-12.46,0.67-26.11,11.98-30.4,25.25L405.41,568.36z"/>
					</g>
					<path fill="#90888D" d="M413.58,611.84l66.54-3.5c12.52-0.68,26.11-11.98,30.4-25.25l6.26-19.41l-111.35,4.69l-6.65,20.62
						C394.48,602.32,401.12,612.5,413.58,611.84z"/>
					<path fill="#C8C7C6" d="M491.83,469.7c-9.95,0.19-19.57,8.32-21.46,18.09c-1.88,9.8,4.66,17.58,14.62,17.39
						s19.53-8.29,21.43-18.09C508.3,477.32,501.79,469.51,491.83,469.7z"/>
					<g>
						<path fill="#C8C7C6" d="M541.93,434.61c4.25-0.04,8.36-3.55,9.17-7.7c0.8-4.22-1.98-7.55-6.24-7.45
							c-4.25,0.1-8.36,3.55-9.16,7.76C534.9,431.38,537.68,434.71,541.93,434.61z"/>
					</g>
					<g>
						<path fill="#7E797D" d="M541.69,436.06c5.03-0.05,9.91-4.22,10.89-9.16c0.93-5-2.38-8.93-7.41-8.88
							c-5.09,0.12-9.97,4.22-10.89,9.23C533.3,432.18,536.6,436.18,541.69,436.06z M535.71,427.23c0.8-4.22,4.91-7.66,9.16-7.76
							c4.25-0.11,7.04,3.23,6.24,7.45c-0.81,4.15-4.92,7.66-9.17,7.7C537.68,434.71,534.9,431.38,535.71,427.23z"/>
					</g>
					<path fill="#7E797D" d="M544.34,422.27c-2.69,0.05-5.29,2.25-5.79,4.88c-0.51,2.65,1.25,4.75,3.94,4.69
						c2.69-0.05,5.27-2.23,5.78-4.88C548.78,424.32,547.03,422.22,544.34,422.27z"/>
				</g>
				<g>
					<g>
						<path fill="#F39D61" d="M426.21,558.47c2.92-0.17,9.83-0.22,15.03,2.09c3.01-0.53,6.53-1.62,9.09-3.69L426.21,558.47z"/>
						<path fill="#FDC99D" d="M327.09,607.83c2.03,4.37,4.87,7.18,8.83,6.05c12.49-3.56,17.14,6.11,30.47,10.91
							c13.34,4.81,20.62,1.71,36.27-2.21c15.65-3.91,12.07-11.31,13.09-16.22c1.02-4.9,8.76-2.78,10.95-8.47
							c2.21-5.69-1.67-14.16-1.67-14.16s21.28,5.94,23.94-9.37c0.6-3.52-0.25-6.09-1.92-7.96c0.45,1.4,0.56,3.05,0.22,4.98
							c-2.66,15.31-23.94,9.37-23.94,9.37s3.87,8.47,1.67,14.16c-2.19,5.69-9.93,3.57-10.95,8.47c-1.01,4.91,2.57,12.31-13.09,16.21
							c-15.65,3.93-22.94,7.03-36.27,2.22c-13.34-4.8-17.99-14.47-30.48-10.91C331.25,611.73,328.94,610.37,327.09,607.83z"/>
						<path fill="#FCDABE" d="M449.83,552.25c-0.66,0.7-1.39,1.35-2.21,1.96c-0.12,0.12-0.24,0.25-0.37,0.33
							c-0.28,0.2-0.57,0.41-0.94,0.61c-0.16,0.12-0.36,0.23-0.53,0.34c-0.08,0.05-0.15,0.1-0.23,0.14c-0.2,0.12-0.37,0.25-0.58,0.37
							c-0.49,0.24-0.94,0.53-1.35,0.77c-0.04-0.04-0.04-0.04-0.04,0c-0.33,0.2-0.7,0.41-1.02,0.61h-0.04l-0.05,0.04
							c-0.61,0.24-1.18,0.49-1.71,0.74c-0.49,0.2-0.98,0.41-1.42,0.61s-0.9,0.41-1.31,0.57c-0.08,0.05-0.12,0.05-0.12,0.09
							l-0.09,0.04c-2.53,0.94-4.52,1.51-5.02,1.63c-0.04,0.05-0.08,0.05-0.08,0.05s0.28,0,0.73,0c0.49,0.04,1.18,0.08,2,0.08
							c-1.27,0.08-2.32,0.16-3.35,0.2c4.86,0.16,11.59,1.18,14.97,4.94l0.05,0.12l0.12,0.65c0,0.08,0.04,0.16,0.04,0.24
							c0.05,0.2,0.09,0.41,0.09,0.61c0.04,0.04,0.04,0.09,0.04,0.16c0.12,0.94,0.09,2.04-0.12,3.22c-0.16,1.1-0.49,2.08-0.85,2.94
							c-0.16,0.41-0.33,0.77-0.53,1.14c0,0.04-0.04,0.04-0.04,0.04c-0.2,0.45-0.45,0.82-0.74,1.14c-0.16,0.29-0.37,0.53-0.57,0.74
							c-0.2,0.25-0.45,0.53-0.69,0.74c-0.09,0-0.05,0.08-0.12,0.08l-0.08,0.09c-0.05,0-0.09,0-0.09,0.04
							c-0.24,0.16-0.41,0.33-0.61,0.53c-0.09,0.04-0.12,0.08-0.16,0.16c-0.04,0-0.08,0-0.12,0.04l-0.08,0.04
							c-0.16,0.16-0.33,0.24-0.49,0.37c-0.16,0.12-0.33,0.2-0.49,0.24c-0.12,0.09-0.33,0.2-0.41,0.29l-0.2,0.04
							c-0.41,0.24-0.9,0.45-1.39,0.65c-0.2,0.05-0.36,0.12-0.61,0.21c-0.16,0.08-0.41,0.12-0.57,0.16
							c-0.12,0.09-0.16,0.12-0.28,0.12h-0.04l-1.43,0.32l-0.74,0.17c-0.2,0.04-0.45,0.04-0.69,0.04h-0.16c0,0-0.04,0-0.12,0
							l-0.08,0.04c-0.08,0.04-0.2,0.04-0.29,0.04c-0.28,0.04-0.57,0.04-0.85,0.09h-1.39c-0.7,0-1.31-0.05-1.88-0.05h-0.37
							l-0.12-0.04c-0.81-0.04-1.51-0.08-2.16-0.2l-0.53-0.09l-0.37-0.08h-0.32c-0.04,0-0.04,0-0.04,0
							c-0.49-0.04-0.94-0.12-1.31-0.24c-0.05,0.04-0.09,0-0.16-0.04c-0.04,0-0.08,0-0.12-0.05h-0.16c-0.28,0-0.53-0.04-0.73-0.12
							l-0.09-0.04c-0.24-0.04-0.45-0.04-0.61-0.09c0.04,0.12,0.08,0.24,0.16,0.37c0,0.08,0.04,0.16,0.08,0.24
							c0.05,0.09,0.05,0.16,0.09,0.25c0.04,0.08,0.04,0.2,0.12,0.32c0.04,0.12,0.09,0.25,0.16,0.37c0.09,0.04,0.09,0.12,0.12,0.25
							c0.08,0.16,0.12,0.32,0.16,0.57l0.05,0.04l0.08,0.37c0.09,0.16,0.09,0.32,0.12,0.49c0.04,0.16,0.08,0.29,0.12,0.45
							c0.12,0.24,0.16,0.53,0.25,0.77c0,0.04,0,0.04,0.04,0.08c0.09,0.41,0.2,0.9,0.33,1.39c0,0.09,0,0.2,0.04,0.33
							c0.08,0.45,0.16,0.98,0.2,1.46c0.08,0.41,0.12,0.82,0.12,1.23c0,0,0,0.04,0,0.08c0.04,0.25,0.04,0.41,0.04,0.62
							c0,0.08,0,0.16-0.04,0.24c0,0.08,0.04,0.16,0.04,0.24c0,0.12,0,0.24-0.04,0.37c0,0.04,0.04,0.08,0,0.12
							c0.04,0.12,0.08,0.24,0.04,0.33c-0.04,0.41-0.09,0.65-0.16,1.06v0.12c-0.04,0.41-0.16,0.81-0.33,1.26
							c-0.04,0.2-0.12,0.41-0.2,0.61c-0.12,0.37-0.28,0.7-0.45,0.98c-0.16,0.28-0.37,0.53-0.57,0.81c-0.62,0.61-1.31,1.14-2.04,1.59
							c-0.33,0.16-0.69,0.37-1.06,0.49c-0.29,0.12-0.57,0.24-0.86,0.37c-0.32,0.08-0.61,0.2-0.9,0.28c-0.69,0.24-1.39,0.49-2,0.77
							c-0.32,0.12-0.61,0.24-0.9,0.41c-0.12,0.04-0.2,0.12-0.32,0.16c-0.12,0.08-0.24,0.16-0.37,0.28c-0.08,0.05-0.16,0.12-0.24,0.2
							c-0.09,0.12-0.2,0.21-0.33,0.33c-0.09,0.1-0.14,0.22-0.22,0.32c-0.32,0.41-0.53,0.88-0.68,1.48v0.04
							c-0.04,0.28-0.12,0.65-0.12,0.98c-0.12,0.94-0.12,1.96-0.16,3.02l0.04,0.08c-0.04,0.33-0.08,0.65-0.08,1.02
							c-0.05,0.37-0.09,0.77-0.12,1.14c-0.04,0.37-0.12,0.74-0.24,1.1c-0.09,0.37-0.21,0.74-0.37,1.1c-0.05,0.2-0.12,0.37-0.25,0.57
							c-0.08,0.16-0.16,0.37-0.24,0.53c-0.08,0.12-0.16,0.2-0.24,0.32c-0.16,0.24-0.37,0.49-0.53,0.77
							c-0.28,0.37-0.61,0.7-0.98,1.02c-0.2,0.21-0.41,0.37-0.61,0.53c-0.2,0.16-0.41,0.33-0.65,0.49c-0.33,0.24-0.66,0.49-1.06,0.65
							c-0.16,0.12-0.33,0.2-0.53,0.29c-0.28,0.16-0.57,0.33-0.9,0.49c-0.61,0.29-1.35,0.61-2.12,0.9c-0.41,0.12-0.77,0.24-1.18,0.37
							c-0.81,0.24-1.71,0.53-2.69,0.77c-0.57,0.16-1.1,0.29-1.59,0.45c-0.86,0.2-1.67,0.41-2.45,0.61l-0.41,0.09
							c-0.57,0.16-1.1,0.33-1.67,0.45c-0.53,0.16-1.06,0.29-1.59,0.41c-1.22,0.33-2.29,0.61-3.43,0.86
							c-2.16,0.53-4.16,0.98-6.08,1.26c-0.16,0.05-0.32,0.09-0.49,0.12c-0.98,0.12-1.92,0.24-2.9,0.33
							c-0.94,0.08-1.92,0.12-2.9,0.12c-3.92,0-7.96-0.69-12.81-2.44c-0.7-0.25-1.39-0.53-2.04-0.82c-0.49-0.16-0.93-0.37-1.35-0.57
							c-1.1-0.53-2.07-1.02-3.06-1.55c-0.49-0.28-0.98-0.53-1.42-0.81c-0.45-0.24-0.9-0.53-1.35-0.81
							c-0.24-0.16-0.45-0.29-0.65-0.41c-0.49-0.33-0.94-0.61-1.43-0.9c-0.16-0.12-0.33-0.2-0.49-0.33c-0.12-0.08-0.2-0.16-0.32-0.24
							c-0.41-0.29-0.86-0.57-1.31-0.81c-0.53-0.33-1.02-0.66-1.55-0.98c-0.53-0.29-1.02-0.61-1.55-0.9
							c-0.08-0.04-0.08-0.04-0.08-0.04c-0.41-0.25-0.78-0.45-1.19-0.61c-0.45-0.29-0.9-0.49-1.39-0.61
							c-0.16-0.12-0.37-0.16-0.53-0.25c-0.08,0-0.08,0-0.08,0v-0.04c-0.29-0.09-0.57-0.24-0.86-0.24c-0.41-0.12-0.81-0.25-1.22-0.33
							c-0.49-0.12-1.01-0.15-1.52-0.22c-0.66-0.1-1.33-0.12-2-0.12c-0.65,0.01-1.29,0-1.98,0.1c-0.93,0.16-1.96,0.37-3.06,0.65
							c-0.61,0.16-1.18,0.24-1.71,0.2c-0.2,0-0.41,0-0.57-0.04c-0.08,0-0.2-0.04-0.28-0.09c-0.12,0-0.29-0.04-0.37-0.04
							c-0.16-0.04-0.24-0.08-0.41-0.12c0,0-0.12-0.05-0.2-0.05c-0.08-0.04-0.2-0.08-0.29-0.08c-0.08,0-0.12-0.04-0.16-0.08
							c-0.08-0.05-0.12-0.09-0.2-0.16c-0.12-0.04-0.24-0.12-0.36-0.2c-0.09-0.04-0.16-0.09-0.16-0.09
							c-0.12-0.04-0.16-0.08-0.24-0.12c-0.09-0.09-0.21-0.16-0.29-0.25c-0.16-0.12-0.33-0.28-0.53-0.45
							c-0.24-0.24-0.49-0.45-0.69-0.74c-0.25-0.28-0.49-0.57-0.7-0.85c-4.32-9.38-8.81-17.62-8.81-17.62s10.36-9.79,22.36-23.95
							c9.75-11.46,9.58-21.33,16.11-25.94c6.94-1.79,49.61-13.3,54.95-21.58l-5.59,17.78c-0.2,0.09-0.45,0.16-0.7,0.25
							c-0.74,0.28-1.46,0.53-2.25,0.77c-0.65,0.2-1.26,0.41-1.91,0.62c-0.45,0.16-0.9,0.28-1.31,0.41
							c-1.39,0.41-2.69,0.77-3.88,1.06l-0.04,0.05c-0.49,0-0.85,0.04-1.31,0.12c-0.85,0.04-1.63,0.16-2.36,0.29
							c-1.92,0.28-3.43,0.73-4.04,1.26c0,0,0.81-0.16,2.25-0.32c0.2-0.05,0.45-0.09,0.74-0.09c0.77-0.12,1.67-0.24,2.73-0.33
							c1.51-0.12,3.26-0.2,5.14-0.28c0.65-0.09,1.22-0.09,1.92-0.09c0.04,0,0.12,0,0.2,0.05c1.18,0,2.45,0,3.67,0.08
							c0.04,0,0.04,0,0.12-0.04c0.05,0,0.05,0,0.12,0l0.09-0.04c1.14,0.08,2.28,0.2,3.47,0.32c0,0,25-3.75,37.77-0.53
							c1.19,0.32,2.29,0.69,3.22,1.14l-0.12,0.08l-0.09,0.04c0,0,0.09,0.12,0.24,0.33c0,0.04,0.05,0.08,0.09,0.12
							c0.28,0.24,0.57,0.69,0.9,1.22c0.08,0.16,0.16,0.33,0.28,0.49c0.08,0.16,0.16,0.33,0.24,0.53
							C452.27,546.09,452.76,549.15,449.83,552.25z"/>
						<path fill="#FDC99D" d="M396.07,539.62c1.69-0.16,3.41-0.26,5.12-0.35c1-0.01,2-0.03,2.93-0.03l1.19-0.05l0.79-2.7
							c-0.8,0.3-2.15,0.72-2.95,1.02C400.6,538.39,398.16,539.11,396.07,539.62z"/>
						<path fill="#FDC99D" d="M432.73,561.11c0,0,1.09,0.06,2.75,0.1c1.79-0.09,3.78-0.35,5.76-0.65c3.01-0.53,6.53-1.62,9.09-3.69
							c3-2.46,4.77-6.18,3.15-11.9c-0.46-1.61-1.8-2.86-3.75-3.75l-0.26,0.11c0,0,5.57,5.4,0.33,10.94
							C444.63,557.8,432.73,561.11,432.73,561.11z"/>
					</g>
					<path fill="#FDC99D" d="M388.3,541.34c0,0,0.83-0.18,2.26-0.35c0.19-0.04,0.45-0.09,0.72-0.09c0.78-0.1,1.69-0.22,2.73-0.32
						c1.5-0.12,3.28-0.23,5.13-0.29c0.65-0.07,1.25-0.07,1.92-0.07c0.06-0.01,0.12-0.03,0.2,0.02c1.2,0.01,2.47,0.01,3.68,0.09
						c0.06-0.01,0.06-0.01,0.12-0.03c0.07-0.01,0.07-0.01,0.12-0.03l0.07-0.01l0.04-1.07l-1.19,0.05c-0.93,0-1.93,0.01-2.93,0.03
						c-1.71,0.09-3.42,0.19-5.12,0.35l-0.07,0.01c-0.46,0.03-0.85,0.05-1.3,0.14c-0.86,0.05-1.63,0.15-2.34,0.3
						C390.43,540.35,388.93,540.8,388.3,541.34z"/>
				</g>
				<path fill="#FED92B" d="M120.94,718.56h202.06c-13.01-15.62-22.09-37.13-21.47-68.6c0.41-18.9,21.31-47.5,27.57-74.44
					c4.77-20.52-25.78-37.35-36.73-72.42c-5.1-16.33-19.73-59.48-44.18-83.98c-28.35-28.35-62.28-50.83-84.74-38.54
					c-7.14,1.6-13.21,11.39-13.21,11.39C119.49,422.23,42.14,517.11,98.6,663.23C106.41,683.43,113.81,701.66,120.94,718.56z"/>
				<path fill="#FFC53F" d="M166.03,540.38c0.54-4.33,11.05,110.54,106.39,103.63v19.34C272.42,663.35,148.06,682.69,166.03,540.38z
					"/>
				<path fill="#FCDABE" d="M215.33,718.56c-13.43-40.49-30.94-80.6-36.15-92.07c0,0-55.35-46.59-62.46,42.31
					c-1.37,17.05,1.25,33.88,6.43,49.76H215.33z"/>
				<path fill="#FCDABE" d="M290.29,718.56c42.92-71.91,87.34-158.46,67.45-161.96c-25.34-4.46-101.8,105.63-139.01,161.96H290.29z"
					/>
				<path fill="#9AD5C2" d="M200.45,613.28c-0.21,15.59-0.87,25.45-0.87,25.45c-49.7,48.96-93.22,49.29-93.22,49.29
					s-5.64-8.21-11.07-25.95C103.62,661.61,149.09,657.09,200.45,613.28z"/>
				<path fill="#F8A62E" d="M200.45,613.28c-51.36,43.82-96.83,48.33-105.17,48.79C88.15,638.65,81.4,598.61,88.65,539
					c5.77-47.38,13.01-74.03,29.02-89.83c19.61-19.31,54.92-7.54,64.58,18.24C199.2,512.76,200.98,577.8,200.45,613.28z"/>
				<g>
					<path fill="#E8AA80" d="M354.26,304.86c0,0,20.42,92.39-47.48,136.52c0,0,85.28-31.88,86.29-80.75
						C394.59,287.53,354.26,304.86,354.26,304.86z"/>
					<path fill="#9AD5C2" d="M223.25,431.05c-54.72-6.18-65.85-31.58-67.77-44.68c4.84-5.45,8.39-7.56,9.7-8.83
						c16.77,2.98,52.93,16.92,64.5,29.08c4.45,4.69,5.79,8.94,6.41,12.13C237.27,424.89,229.45,431.74,223.25,431.05z"/>
					<path fill="#FAC5A7" d="M167.45,292.82c0,0,0.58,66.5-4.4,85.05c-7.52,28,32.95,37.39,53.09,40.3
						c5.92,0.86,11.34-3.39,11.97-9.34l5.81-54.43L167.45,292.82z"/>
					<path fill="#F9CAB7" d="M197.91,319.37c29.62,64.19,60.78,96.04,82.42,111.64c-5.52-0.74-10.69-2.09-14.09-3.95
						c-20.72-11.43-58.95-41.71-94.88-119.59c-52.8-114.35-28.37-202.33,40.06-233.64C265.29,49.22,317.32,51.85,358,75.5
						c-35.7-11.67-77.3-9.3-120.02,10.22C169.54,117.03,145.11,205.02,197.91,319.37z"/>
					<path fill="#FCDABE" d="M418.67,275.2c0,0-11.06,17.8-18.71,53.79c-6.04,28.38,14.5,62.25-96.41,100.88
						c-5.56,1.94-14.83,2.23-23.22,1.14c-21.64-15.6-52.8-47.45-82.42-111.64c-52.8-114.35-28.37-202.34,40.06-233.65
						C280.7,66.21,322.3,63.83,358,75.5c11.02,6.45,21.2,14.39,30.36,23.76C388.36,99.27,463.64,168.66,418.67,275.2z"/>
					<path fill="#CB8E63" d="M431.44,258.05c0,0-24.57-52.22-56.23-52.22c0,0-5.08-0.16-4.03,5.54c1.05,5.7,26.66,0.24,57.57,50.34
						L431.44,258.05z"/>
					<path fill="#CB8E63" d="M220.76,210.45c0,0,54.94-36.98,89.06-18.15c0,0,5.57,2.86,1.33,7.87c-4.24,5.01-28.87-15.61-89.5,15.5
						L220.76,210.45z"/>
					<path fill="#F49A54" d="M323.36,314.81c0,0-8.11,13.63,0.85,19.92c6.97,4.89,21.75-0.74,25.42,3.42c0,0,5.75,5.25-0.85,14.54
						c-6.6,9.29-23.7,20.78-23.7,20.78s23.95-19.3,22.24-26.88c-1.71-7.58-18.21-3.79-23.59-6.72
						C318.35,336.93,312.12,323.85,323.36,314.81z"/>
					<path fill="#FFFFFF" d="M297.83,239.49c10.93,2.02,19,11.28,19.86,22.36c1.18,15.34,0.06,40.6-17.71,52.44
						c-26.48,17.65-48.41-16.95-51.16-26.88c-2.76-9.93,0.41-42.63,19.17-46.49C278.4,238.79,288.82,237.84,297.83,239.49z"/>
					<path fill="#FFFFFF" d="M401.65,294c0,0,17.53-47.34-19.87-39.74c-37.39,7.6-45.58,55.52-35.06,67.78
						C357.24,334.32,378.86,334.9,401.65,294z"/>
					<path fill="#F58A72" d="M349.06,279.1c34.11-24.26,55.22,9.93,55.22,9.93s8-35.97-12.14-46.38
						C365.32,228.71,349.06,279.1,349.06,279.1z"/>
					<path fill="#F58A72" d="M250.37,257.55c39.79-21.57,67.88,11.29,67.88,11.29s4.79-32.94-19.82-43.75
						C265.66,210.61,250.37,257.55,250.37,257.55z"/>
					<g>
						<g>
							<path fill="#611B13" d="M274.77,292.28c-4.56,6.73-3.3,15.56,2.84,19.73c6.13,4.16,14.81,2.08,19.38-4.65
								c4.56-6.72,3.3-15.56-2.84-19.72S279.34,285.55,274.77,292.28z"/>
							<path fill="#1D1D1B" d="M287.3,308.18c1.79-0.62,4.03-2.51,4.93-5.89c0.58-2.23,0.38-4.53-0.56-6.34
								c-0.49-0.96-1.42-2.19-2.96-2.59c-0.83-0.22-1.66-0.18-2.55,0.14c-1.8,0.63-4.04,2.51-4.92,5.88
								c-0.6,2.23-0.39,4.54,0.55,6.35c0.5,0.96,1.42,2.19,2.97,2.59C285.57,308.55,286.4,308.5,287.3,308.18z"/>
						</g>
						<circle fill="#FFFFFF" cx="295.8" cy="290.01" r="5.11"/>
					</g>
					<g>
						<g>
							<path fill="#611B13" d="M358.36,304.37c-4.33,6.38-3.13,14.75,2.69,18.69c5.81,3.95,14.04,1.98,18.37-4.41
								c4.33-6.38,3.13-14.75-2.69-18.69C370.92,296.02,362.69,297.99,358.36,304.37z"/>
							<path fill="#1D1D1B" d="M370.23,319.45c1.7-0.6,3.82-2.38,4.68-5.59c0.56-2.11,0.36-4.3-0.53-6.01
								c-0.47-0.91-1.35-2.07-2.81-2.46c-0.79-0.21-1.58-0.17-2.42,0.13c-1.71,0.6-3.82,2.38-4.67,5.57
								c-0.56,2.12-0.37,4.31,0.52,6.02c0.47,0.91,1.35,2.07,2.81,2.46C368.59,319.79,369.39,319.74,370.23,319.45z"/>
						</g>
						<path fill="#FFFFFF" d="M373.44,302.22c0,2.68,2.17,4.85,4.84,4.85c2.68,0,4.85-2.17,4.85-4.85c0-2.67-2.17-4.84-4.85-4.84
							C375.61,297.38,373.44,299.55,373.44,302.22z"/>
					</g>
					<path fill="#E8AA80" d="M355.31,104.59c0,0,91.22,22.56,91.22,67.88c0,0,17.01-85.7-42.47-95.61
						C344.57,66.95,355.31,104.59,355.31,104.59z"/>
					<path fill="#CB8E63" d="M309.24,126.64c0,0,92.18,21.38,102.75,101.67c0,0,31.46-108.9-40.66-120.92
						C299.2,95.37,309.24,126.64,309.24,126.64z"/>
					<path fill="#E8AA80" d="M209.43,223.82c0,0-65.96,67.86-31.41,141.1c0,0-61.61-73.12-36.77-115.22
						C178.41,186.72,209.43,223.82,209.43,223.82z"/>
					<path fill="#E8AA80" d="M206.85,228c0,0-86.1,73.14-73.75,155.52c0,0-25.71-109.85,6.41-151.04
						C187.57,170.87,206.85,228,206.85,228z"/>
					<g>
						<path fill="#FCD1AC" d="M187.47,228.44c0,0-19.09-40.75-39.38-24.23c-20.28,16.52-26.25,75.99,3.59,90.31
							C181.5,308.84,188.66,265.89,187.47,228.44z"/>
						<path fill="#F49A54" d="M152.7,230.07c19.61,1.29,23.68,26.31,14.05,40.51c-9.65,14.2-19.18-2.27-19.18-2.27
							s15.3,11.8,19.59-10.09c0.71-3.61,0.74-6.76,0.39-9.56c-0.09,0.31-0.14,0.56-0.26,0.89c-2.59,7.37-17.45-3.13-17.45-3.13
							c11.13,3.57,15-1.43,16.14-3.72C161.98,233.21,152.7,230.07,152.7,230.07z"/>
					</g>
					<path fill="#E8AA80" d="M347.74,113c0,0-23.96-33.54-52.44-19.73c-28.48,13.82-148.63,101.3-151.52,140.41
						s-13.07-49.27-0.61-101.89c6.24-26.4,103.74-159.89,225.79-55.53L347.74,113z"/>
					<path fill="#E8AA80" d="M353.59,90.34c0,0,19.95,73.75-96.71,86.25c0,0-34.66-2.16-44.64,23.31
						c-8.58,21.89-17.41,93.08-17.41,93.08s-35.6-58.28-28.2-95.53C186.61,96.92,321.86,59.54,353.59,90.34z"/>
					<path fill="#CB8E63" d="M411.83,226.83c0,0-11.73-110.46-70.38-97.76c0,0-18.57-7.82-35.67,21.02
						c-17.11,28.84-65.5,0-84.56,19.06s-26.4,121.71-26.4,121.71s12.22-104.6,40.08-109.97c27.86-5.38,74.78,12.21,89.94-20.53
						C339.98,127.61,389.84,160.85,411.83,226.83z"/>
					<ellipse fill="#FBC3AE" cx="248.34" cy="337.05" rx="22.73" ry="13.44"/>
					<path fill="#FBC3AE" d="M355.27,349.85c-3.57,6.51,2.25,16.56,12.99,22.45c10.74,5.89,22.35,5.38,25.92-1.12
						c3.57-6.51-2.25-16.56-12.99-22.45C370.44,342.84,358.84,343.34,355.27,349.85z"/>
					<path fill="#FFFCFD" d="M335.22,380.61c-2.4,6.47-5.77,15.19-9.09,21.91c-0.69-0.54-1.57-0.99-2.35-1.39
						c-1.39-0.65-2.59-1.1-2.59-1.1C270.17,387.68,273.68,360,273.68,360c1.43,6.12,35.9,24.14,57.21,21.3
						C332.5,381.11,333.93,380.86,335.22,380.61z"/>
					<path fill="#F49A54" d="M346.44,374.68c0,1-0.93,3.93-11.22,5.92c-1.29,0.25-2.72,0.5-4.33,0.7
						c-21.31,2.84-55.78-15.18-57.21-21.3c0,0-3.51,27.68,47.52,40.02c0,0,1.2,0.45,2.59,1.1c0.78,0.4,1.66,0.85,2.35,1.39
						c1.2,0.85,1.85,1.89,0.93,2.84c-0.23,0.25-1.11,0.25-2.45,0.05c-1.15-0.25-2.67-0.6-4.47-1.15c-1.16-0.35-2.4-0.79-3.78-1.29
						c-18.96-6.72-42.86-16.72-44.76-45.5c0,0,0.97,1.24,3.05,3.14c6.92,6.17,26.07,19.16,61.68,15.08c0.18,0,0.41,0,0.65-0.05
						c0.09,0,0.23-0.05,0.37-0.05c0.87-0.11,1.8-0.2,2.72-0.35c3.64-0.5,4.57-0.45,4.57-0.3c0.41-0.15,0.97-0.35,1.75-0.6
						C346.39,374.34,346.44,374.43,346.44,374.68z"/>
					<path fill="#E8AA80" d="M328.79,124.03c0,0,92.18,21.38,102.75,101.67c0,0,49.22-113.01-22.9-125.03
						C336.51,88.64,328.79,124.03,328.79,124.03z"/>
					<path fill="#FDD3B6" d="M246.62,62.33c0,0,52.3,21.51,32.75,73.32c0,0,44.48-37.15,64.03-23.95
						C343.4,111.7,321.9,52.07,246.62,62.33z"/>
				</g>
			</g>
		</g>
	</g>
</g>
</svg>
