<?xml version="1.0" encoding="utf-8"?>
<!-- Generator: Adobe Illustrator 25.2.3, SVG Export Plug-In . SVG Version: 6.00 Build 0)  -->
<svg version="1.1" id="Layer_1" xmlns="http://www.w3.org/2000/svg" xmlns:xlink="http://www.w3.org/1999/xlink" x="0px" y="0px"
	 viewBox="0 0 576 576" enable-background="new 0 0 576 576" xml:space="preserve">
<g>
	<g>
		<defs>
			<path id="SVGID_1_" d="M575.53,288c0,159.05-128.94,288-288,288s-288-128.94-288-288c0-159.06,128.94-288,288-288
				S575.53,128.94,575.53,288z"/>
		</defs>
		<use xlink:href="#SVGID_1_"  overflow="visible" fill="#F9E3D9"/>
		<clipPath id="SVGID_2_">
			<use xlink:href="#SVGID_1_"  overflow="visible"/>
		</clipPath>
		<g clip-path="url(#SVGID_2_)">
			<g>
				<path fill="#08BFDE" d="M387.24,444.86c0,0,74.1,33.85,105.43,79.16c31.32,45.3-81.61,403.83-52.72,488.53
					c28.89,84.71,25.72,141.12,18.89,145.04c-8.21,4.72-232.3,56.14-311.09,5.78c0,0,19.7-247.35-11.81-377.36
					C104.41,656,108.39,524.89,108.39,524.89s62.98-53.75,115.19-59.82C275.8,459.01,387.24,444.86,387.24,444.86z"/>
				<path fill="#A9A8A8" d="M377.16,427.48c0,0-69.78-35.92-190.77,40.42l-2.14,26.13c0,0,154.33-45.93,215.16-43.33L377.16,427.48z
					"/>
				<path fill="#A9A8A8" d="M248.68,558.85c-0.59,1.4-16.43,123.74-16.43,123.74l43.98-1.14l-1.45-121.2l-14.12,12.64L248.68,558.85
					z"/>
				<path fill="#D0D1D1" d="M244.45,605.92c0.84,5.45,5.93,9.18,11.37,8.34c5.45-0.84,9.18-5.93,8.34-11.38
					c-0.84-5.45-5.93-9.18-11.38-8.33C247.34,595.39,243.61,600.48,244.45,605.92z"/>
				<path fill="#F0917A" d="M189.91,487.56l2.79-97.47l142.12-29.93l29.63,93.08l0.05-0.01l-0.03,0.07l1.93,6.07
					c-9.62,18.24-42.93,68.09-94.71,81.07l-11.03,32.46l-10.11-29.69c-23.29-0.25-45.52-12.32-55.87-33.53
					C191.32,502.76,189.21,495.21,189.91,487.56z"/>
				<polygon fill="#BCBCBB" points="274.8,560.27 274.8,560.23 293.71,543.32 311.89,527.04 275.97,527.84 260.69,572.89 				"/>
				<polygon fill="#BCBCBB" points="230.23,537.21 234.55,542.28 248.67,558.84 260.69,572.89 245.16,527.34 				"/>
				<path fill="#D0D1D1" d="M275.97,527.84c0.74,1.44,8.55,8.05,17.74,15.48c14.14,11.53,31.62,25.09,31.62,25.09l72.57-115.33
					l1.51-2.39l-0.34-0.34l-21.91-22.89l-12.86,12.75l-3.97,3.96l-10.79,10.68l-70.62,70.06L275.97,527.84z"/>
				<polygon fill="#D0D1D1" points="184.25,494.04 215.27,569.42 234.55,542.28 245.16,527.34 241.9,524.05 206.76,488.54 
					206.1,487.84 206.05,487.8 186.4,467.92 				"/>
			</g>
			<g>
				<path fill="#F0917A" d="M145.87,230.01c0.77-5.36,2.71-14.69,5.75-27.76C166.75,137.32,220.03,91,281.21,89.6l0,0
					c89.04-2.07,124.93,86.16,130.01,136.89c3.54,35.46-3.24,69.18-18.41,86.4c-15.86,18.01-32.72,28.33-34.02,29.11
					c-0.58,0.96-7.01,11.58-34.13,60.09c-28.5,50.96-89.39,72.46-117.54,70.93c-1.16-0.06-2.27-0.16-3.31-0.31
					c-17.6-2.37-54.22-7.29-61.15-24.29c-2.48-6.06-4-12.37,0.73-20.84c18.79-33.59,13.58-71.64,8.36-87.97
					c-5.37-16.83-1.55-39.42,3.37-61.31c2.47-10.98-0.81-17.75-4.28-24.92C147.68,246.87,144.42,240.12,145.87,230.01z"/>
				<path fill="#BF7355" d="M317.12,198.65l-8.92,43.57c0,0,37.22,6.41,24.03,58.8c-13.19,52.39,1.47,6.21,1.47,6.21l11.27,0.61
					c0,0,20.2-27.35,60.62-12.29l18.48-85.47C424.07,210.08,344.31,181.38,317.12,198.65z"/>
				<path fill="#60281A" d="M300.69,173.39c0,0,19.63,9.72,14.74,33.56c-4.88,23.84,108.5,5.88,108.5,5.88s10.92-88.4-17.01-94.6
					C378.99,112.03,300.69,173.39,300.69,173.39z"/>
				<path fill="#60281A" d="M412.74,121.08c0,0-64.77-76.34-229.66-43.1l-8.02,61.43c0,0,123.7,17.7,136.63,38.67
					C324.6,199.05,412.74,121.08,412.74,121.08z"/>
				<path fill="#6E2E1F" d="M350.32,105c0,0-2.11,55.97-49.64,68.39c-47.54,12.42-78.01-21.19-105.79-10.42
					c-49.7,19.28-62.3-42.94-46.72-80.98C171.48,25.13,272.56,138.97,350.32,105z"/>
				<g>
					<path fill="#F0917A" d="M343.56,303.21c0,0,36.6-55.91,55.18-35.19c18.59,20.71-12.13,93.27-40.27,89.58
						C330.34,353.92,339.6,308.87,343.56,303.21z"/>
					<g>
						<path fill="#F05569" d="M389.83,288.94c-0.09-0.11-0.18-0.19-0.26-0.29C389.82,288.92,389.94,289.06,389.83,288.94z"/>
						<path fill="#F05569" d="M356.99,328.11c0,0,17.55,0.03,15.49-8.86c-2.06-8.89-11.56-18.18-6.13-27.58
							c5.39-9.33,13.29-14.71,23.21-3.02c-1.55-1.66-9.03-8.71-16.89-0.64c-1.9,1.96-3.15,3.7-3.91,5.34
							c3.31-0.53,13.19-0.79,17.24,13.54c0,0-6.01-13.91-18.18-10.23c-0.45,4.72,2.95,8.9,6.02,15.19
							c4.75,9.72-6.28,29.91-17.9,22.82L356.99,328.11z"/>
					</g>
				</g>
				<path fill="#BF7355" d="M317.12,198.65l-8.92,43.57c0,0,37.22,6.41,24.03,58.8c-13.19,52.39,1.47,6.21,1.47,6.21l19.56,4.74
					c0,0,11.91-31.49,52.33-16.42l18.48-85.47C424.07,210.08,344.31,181.38,317.12,198.65z"/>
				<path fill="#60281A" d="M300.69,173.39c0,0,19.63,9.72,14.74,33.56c-4.88,23.84,108.5,5.88,108.5,5.88s10.92-88.4-17.01-94.6
					C378.99,112.03,300.69,173.39,300.69,173.39z"/>
				<path fill="#60281A" d="M412.74,121.08c0,0-64.77-76.34-229.66-43.1l-8.02,61.43c0,0,123.7,17.7,136.63,38.67
					C324.6,199.05,412.74,121.08,412.74,121.08z"/>
				<path fill="#6E2E1F" d="M350.32,105c0,0-2.11,55.97-49.64,68.39c-47.54,12.42-78.01-21.19-105.79-10.42
					c-49.7,19.28-62.3-42.94-46.72-80.98C171.48,25.13,272.56,138.97,350.32,105z"/>
				<g>
					<path fill="#F0917A" d="M343.56,303.21c0,0,36.6-55.91,55.18-35.19c18.59,20.71-12.13,93.27-40.27,89.58
						C330.34,353.92,339.6,308.87,343.56,303.21z"/>
					<g>
						<path fill="#F05569" d="M389.83,288.94c-0.09-0.11-0.18-0.19-0.26-0.29C389.82,288.92,389.94,289.06,389.83,288.94z"/>
						<path fill="#F05569" d="M356.99,328.11c0,0,17.55,0.03,15.49-8.86c-2.06-8.89-11.56-18.18-6.13-27.58
							c5.39-9.33,13.29-14.71,23.21-3.02c-1.55-1.66-9.03-8.71-16.89-0.64c-1.9,1.96-3.15,3.7-3.91,5.34
							c3.31-0.53,13.19-0.79,17.24,13.54c0,0-6.01-13.91-18.18-10.23c-0.45,4.72,2.95,8.9,6.02,15.19
							c4.75,9.72-6.28,29.91-17.9,22.82L356.99,328.11z"/>
					</g>
				</g>
				<g>
					<g>
						<path fill="#772215" d="M154.97,391.61c2.34,2.21,4.8,3.93,7.35,5.23c8.65-15.52,27.77-15.03,36.1-13.97
							c-3.14-8.35-7.23-18.24-11.52-25.98c-5.18,1.99-14.02,4.21-21.52-0.34C160.21,368.49,156.81,382.65,154.97,391.61z"/>
						<path fill="#FFFFFF" d="M153.32,400.62c0,0,2.03,2.74,6.03,5.38c7.79,5.21,23.03,10.13,44.97-6.24c0,0-0.63-2.03-1.74-5.28
							c-5.56,2.73-24.23,10.61-40.25,2.37c-2.56-1.29-5.02-3.02-7.35-5.23C153.86,397.06,153.32,400.62,153.32,400.62z"/>
						<path fill="#9B1C20" d="M162.33,396.85c16.02,8.24,34.68,0.36,40.25-2.37c-1.03-3-2.44-7.06-4.15-11.6
							C190.1,381.82,170.98,381.33,162.33,396.85z"/>
					</g>
					<path fill="#FFFFFF" d="M165.39,356.55c7.49,4.55,16.34,2.33,21.52,0.34c-5.91-10.73-12.17-17.27-16.74-9.74
						C168.43,349.98,166.83,353.18,165.39,356.55z"/>
				</g>
				<path fill="#6E2E1F" d="M168.56,195.77l1.89,19.93c0,0-19,2.09-23.65,16.99l-2.2-10.52
					C144.6,222.17,145.51,201.06,168.56,195.77z"/>
				<g>
					<path fill="#6E2E1F" d="M199.08,189.9l-1.27,23.5c0,0,46.21-1.51,56.4,32.64l8.07-10.09
						C262.28,235.95,242.14,191.24,199.08,189.9z"/>
					<path fill="#FEF4F4" d="M248.65,258.76c-1.5-0.84-9.71-20.2-28.5-15.55c-18.79,4.66-20.09,12.09-20.09,12.09l9.48,17.35
						l20.27,1.1L248.65,258.76z"/>
					<path fill="#FEF4F4" d="M200.06,255.31c0,0-4.41,16.47,14.56,21.45c18.96,4.98,34.03-18,34.03-18l-15.71-8.8
						C232.94,249.97,214.79,244.03,200.06,255.31z"/>
					<g>
						<path fill="#3A140E" d="M204.33,259.99c-1.79,7.71,2.86,15.19,10.37,16.73c7.51,1.53,15.04-3.48,16.83-11.18
							c1.78-7.71-2.87-15.19-10.38-16.73C213.65,247.28,206.12,252.29,204.33,259.99z"/>
						<path fill="#010101" d="M211.05,261.37c-0.9,3.89,1.45,7.68,5.24,8.45c3.8,0.77,7.61-1.76,8.51-5.65
							c0.9-3.9-1.45-7.68-5.24-8.46C215.77,254.94,211.96,257.47,211.05,261.37z"/>
					</g>
					<path fill="#6E2E1E" d="M248.65,258.76c0,0-20.36-28.45-48.59-3.45C200.06,255.31,222.44,211.05,248.65,258.76z"/>
				</g>
				<g>
					<path fill="#FEF4F4" d="M151.57,255.78c0.7-0.72,5.7-19.36,13.35-13.28c7.66,6.09,7.64,13.6,7.64,13.6l-5.39,16.55l-8.72-0.47
						L151.57,255.78z"/>
					<g>
						<path fill="#FEF4F4" d="M172.56,256.11c0,0,0.6,16.74-7.87,20.23c-8.47,3.49-13.12-20.56-13.12-20.56l7.38-7.55
							C158.95,248.23,167.15,243.73,172.56,256.11z"/>
						<g>
							<path fill="#3A140E" d="M168.08,259.99c0.35,7.64-2.31,14.41-5.95,15.11c-3.64,0.7-6.87-4.93-7.22-12.57
								c-0.35-7.64,2.31-14.4,5.95-15.11C164.5,246.73,167.73,252.35,168.08,259.99z"/>
							<path fill="#010101" d="M164.83,260.62c0.18,3.86-1.17,7.29-3.01,7.64c-1.83,0.36-3.47-2.49-3.65-6.35
								c-0.18-3.87,1.17-7.29,3-7.64C163.01,253.92,164.65,256.76,164.83,260.62z"/>
						</g>
						<path fill="#6E2E1E" d="M151.57,255.78c0,0,10.88-26.76,20.99,0.32C172.56,256.11,166.43,210.3,151.57,255.78z"/>
					</g>
				</g>
				<g>
					<path fill="#6E2E1F" d="M264.43,343.14c-0.63,0.52-1.44,1.19-2.36,1.93l-6.06,3.91L264.43,343.14z"/>
					<path fill="#6E2E1F" d="M140.07,458.57c2.15,6.58,12.58,14.65,27.9,21.59c0.53,0.25,1.08,0.45,1.61,0.7
						c0.61,0.27,1.23,0.53,1.85,0.79c1.1,0.47,2.2,0.91,3.31,1.34c0.61,0.23,1.22,0.47,1.83,0.7c0.99,0.37,1.98,0.71,2.96,1.06
						c0.78,0.27,1.55,0.53,2.33,0.78c0.61,0.2,1.22,0.4,1.83,0.58c1.16,0.35,2.3,0.68,3.44,0.99c0.44,0.12,0.88,0.24,1.33,0.35
						c1.23,0.32,2.45,0.62,3.65,0.88c0.31,0.07,0.61,0.14,0.92,0.19c1.25,0.26,2.48,0.49,3.67,0.68c0.25,0.04,0.47,0.07,0.71,0.1
						c1.11,0.16,2.2,0.3,3.25,0.39c0.29,0.03,0.57,0.05,0.84,0.07c0.86,0.07,1.71,0.1,2.52,0.11c0.23,0.01,0.49,0.03,0.72,0.03
						c0.81,0,1.58-0.03,2.31-0.09c9.4-0.73,37.06-14.67,65.76-33.14c14.55-9.36,27.38-18.65,37.11-26.84
						c11.19-9.42,17.74-16.9,19.46-22.24c7.67-23.74,25.36-102.1,25.54-102.89v-0.01h-0.01c0,0-1.86-1.66-4.64-3.03
						c-0.05-0.03-0.1-0.05-0.16-0.08c-0.22-0.1-0.44-0.21-0.68-0.31c-0.14-0.07-0.27-0.12-0.42-0.18c-0.22-0.09-0.44-0.18-0.66-0.26
						c-0.16-0.06-0.32-0.12-0.49-0.18c-0.23-0.08-0.47-0.16-0.71-0.22c-0.16-0.05-0.32-0.1-0.49-0.14
						c-0.25-0.07-0.51-0.13-0.77-0.19c-0.14-0.03-0.29-0.06-0.44-0.08c-0.29-0.06-0.59-0.12-0.9-0.15
						c-0.07-0.01-0.15-0.01-0.22-0.02c-1.59-0.18-3.26-0.1-4.96,0.38c-0.05,0.01-0.12,0.03-0.17,0.05c-0.14,0.04-0.26,0.06-0.39,0.1
						c-0.12,0.03-0.22,0.11-0.33,0.16c-0.73,0.26-1.46,0.59-2.18,1.02c-0.23,0.13-0.45,0.29-0.68,0.44
						c-0.64,0.42-1.27,0.9-1.91,1.47c-0.27,0.25-0.53,0.53-0.8,0.8c-0.45,0.45-0.89,0.96-1.33,1.49c-0.4,0.49-0.79,1.01-1.17,1.57
						c-0.33,0.49-0.67,0.99-1,1.54c-0.32,0.53-0.65,1.09-0.96,1.68c-0.41,0.78-0.82,1.62-1.22,2.51c-0.28,0.62-0.55,1.26-0.81,1.92
						c-0.27,0.68-0.54,1.41-0.81,2.15c-0.35,0.99-0.7,2.03-1.02,3.11c-0.25,0.84-0.51,1.7-0.75,2.59c-0.21,0.79-0.42,1.6-0.62,2.43
						c-0.23,0.96-0.44,1.95-0.66,2.97c-0.14,0.64-0.29,1.22-0.42,1.89c-0.45,2.35-0.97,4.57-1.54,6.71
						c-0.14,0.54-0.28,1.09-0.43,1.61c-0.18,0.62-0.37,1.22-0.55,1.82c-0.24,0.77-0.48,1.54-0.73,2.27
						c-0.14,0.41-0.29,0.81-0.44,1.21c-0.32,0.89-0.66,1.75-1.01,2.59c-0.1,0.27-0.21,0.53-0.32,0.79c-0.4,0.92-0.81,1.82-1.23,2.68
						c-0.08,0.19-0.18,0.37-0.27,0.55c-0.44,0.87-0.89,1.71-1.36,2.52c-0.1,0.18-0.2,0.37-0.31,0.55c-0.44,0.74-0.89,1.44-1.35,2.13
						c-0.17,0.25-0.33,0.5-0.5,0.75c-0.38,0.55-0.77,1.07-1.16,1.58c-0.28,0.36-0.55,0.73-0.84,1.08l-0.05,0.05
						c-0.88,1.09-1.83,2.11-2.81,3.09c0.07-0.07,0.14-0.13,0.2-0.19c-0.1,0.11-0.21,0.21-0.32,0.32c0.05-0.04,0.08-0.08,0.12-0.12
						c-0.39,0.39-0.79,0.77-1.2,1.14c0.14-0.12,0.29-0.23,0.43-0.36c-0.27,0.26-0.55,0.49-0.83,0.74c0.14-0.12,0.27-0.26,0.4-0.38
						c-0.96,0.88-1.97,1.73-3.03,2.52c0.85-0.64,1.67-1.29,2.47-1.99c-0.86,0.75-1.74,1.46-2.63,2.13c0.06-0.05,0.11-0.09,0.16-0.14
						c-0.49,0.37-1,0.71-1.51,1.07c0.22-0.16,0.47-0.28,0.7-0.44c-1.33,0.94-2.69,1.78-4.09,2.55c0.1-0.06,0.19-0.13,0.29-0.18
						c-0.62,0.35-1.27,0.68-1.92,1c0.29-0.15,0.62-0.27,0.92-0.42c-1.5,0.79-3.04,1.48-4.61,2.11c0.25-0.1,0.45-0.22,0.7-0.32
						c-0.41,0.16-0.79,0.35-1.2,0.51c-13.24,5.17-37.65,5.28-28.78-25.38c0,0-24.62,14.24-28.84,15.98c0,0,9.51,29.98,2.58,45.11
						c-0.05,0.09-0.08,0.18-0.12,0.26c-1.06,2.28-2.33,4.52-3.85,6.67c-0.03,0.04-0.07,0.08-0.1,0.12c-0.7,0.98-1.46,1.93-2.27,2.86
						c-0.12,0.14-0.25,0.28-0.37,0.42c-1.94,2.16-4.1,4.06-6.48,5.71c-0.17,0.11-0.34,0.23-0.51,0.34c-1.06,0.7-2.16,1.36-3.3,1.97
						c-0.19,0.1-0.38,0.21-0.58,0.31c-2.68,1.38-5.59,2.5-8.72,3.34c-0.12,0.03-0.23,0.05-0.35,0.09c-1.42,0.37-2.89,0.68-4.39,0.94
						c-0.34,0.06-0.68,0.11-1.01,0.16c-1.35,0.21-2.72,0.38-4.14,0.51c-0.4,0.03-0.8,0.06-1.21,0.1c-1.44,0.1-2.92,0.16-4.43,0.18
						c-0.53,0.01-1.04,0.03-1.57,0.02c-0.25,0-0.49,0-0.73,0c-10.29-0.18-16.83-0.77-19.54-1.77l-0.01-0.01
						c-0.9-0.34-1.37-0.71-1.42-1.14c-0.22-2.01,11.13-14.21,11.22-14.23l0,0l-25.84,0.92c0,0,0.19,11.98-1.71,13.5
						c-0.02,0.02-0.04,0.03-0.04,0.03c-0.22,0.16-0.44,0.27-0.69,0.32h-0.01c-0.79,0.17-1.83-0.11-3.12-0.83
						c-1.16-0.64,6-47.62,6.08-48.1l0.01-0.03l-0.03,0.01c0.41-6.94-1.03-28.63-1.05-28.65l-2.57,4.75l-0.39,10.86
						C153.86,367.66,136.66,448.19,140.07,458.57z M338.82,300.42l0.02-0.01h0.01L338.82,300.42z"/>
				</g>
				<path fill="#481A0E" d="M153.74,357.83c0,0,0.29-0.76,0.66-1.72c1.01-2.66,2.4-4.54,5.23-4.97c4.12-0.57,8.25-3.8,13.39-12.19
					c0,0-3.44-2.68,0.27-5.24c0,0-3.52-2.44-9.42-6.54C151.63,318.57,153.45,355.68,153.74,357.83z"/>
				<path fill="#481A0E" d="M174.3,342.65c0,0,47.94,49.45,94.9-2.19l0.03-0.03c-3.43,0.94-6.88,1.95-10.2,3.11
					c-24.62,8.64-34.26-2.07-48.85-13.85c-14.56-11.78-38.49,2.08-40.67,2.27C166.24,335.05,174.3,342.65,174.3,342.65z"/>
				<path fill="#EB7A77" d="M185.12,250.15c0,0-14.95,18.75-18.56,30.15c-3.6,11.41-14.78,22.86-18.23,28.33
					c-3.46,5.47-8.31,17.34,2.18,19.13c10.49,1.8,18.37-3.41,26.89-1.01c8.52,2.4,28.59-2.59,17.79-18.76
					c-10.8-16.18-15.49,2.19-15.49,2.19l5.02,1.33C184.73,311.52,179.17,289.67,185.12,250.15z"/>
			</g>
		</g>
	</g>
</g>
</svg>
