<?xml version="1.0" encoding="utf-8"?>
<!-- Generator: Adobe Illustrator 25.2.3, SVG Export Plug-In . SVG Version: 6.00 Build 0)  -->
<svg version="1.1" id="Layer_1" xmlns="http://www.w3.org/2000/svg" xmlns:xlink="http://www.w3.org/1999/xlink" x="0px" y="0px"
	 viewBox="0 0 576 576" enable-background="new 0 0 576 576" xml:space="preserve">
<g>
	<g>
		<defs>
			<path id="SVGID_1_" d="M577.01,287.92c0,159.02-128.9,287.93-287.92,287.93S1.16,446.94,1.16,287.92S130.07,0,289.09,0
				S577.01,128.9,577.01,287.92z"/>
		</defs>
		<use xlink:href="#SVGID_1_"  overflow="visible" fill="#F9E3D9"/>
		<clipPath id="SVGID_2_">
			<use xlink:href="#SVGID_1_"  overflow="visible"/>
		</clipPath>
		<g clip-path="url(#SVGID_2_)">
			<polygon fill="#307E85" points="131.82,284.78 131.03,258.91 143.07,263.94 143.07,280.02 			"/>
			<g>
				<path fill="#F0545C" d="M190.12,336.17c0-15.17-4.08-28.95-10.71-39.34c-0.45-8.6,4.38-13.53,1.86-14.92
					c-8.3-4.55-23.63-4.58-29.8-3.76c-0.04,0-0.08-0.01-0.12-0.01c-22.58,0-43,25.75-43,58.04c0,29.88,14.46,53.61,35.53,58.32
					c7.54,2.46,27.29,2.46,27.29,2.46s0.75-5.14,1.8-13.23C183.34,373.11,190.12,355.79,190.12,336.17z"/>
				<path fill="#D62029" d="M212.06,338.49c0,32.29-18.3,58.47-40.89,58.47c-22.58,0-40.88-26.17-40.88-58.47
					s18.3-58.47,40.88-58.47C193.75,280.02,212.06,306.2,212.06,338.49z"/>
			</g>
			<path fill="#F0545C" d="M235.49,617.02c-1.31,9.45-2.79,20.84-4.32,33.44h108.4c-10.54-87.86,41.79-126.47,41.79-126.47
				l18.02-2.97l-15.85-39.28c0,0-14.27-2.13-34.73-3.82l-0.07,0.34c-0.08,0.58-9.08,58.47-69.71,58.47c-1.4,0-2.79-0.04-4.21-0.08
				c-42.49-1.81-56.34-24.51-60.82-39.78c-0.42,0.42-0.85,0.88-1.28,1.35c-1.35,1.55-2.66,3.13-3.94,4.75l4.68,0.27
				C213.45,503.23,242.02,569.7,235.49,617.02z"/>
			<path fill="#D62029" d="M231.17,650.46c1.53-12.6,3.01-23.99,4.32-33.44c6.53-47.32-22.04-113.79-22.04-113.79l-4.68-0.27
				c-29.46,37.62-36.15,95.23-36.15,95.23s-0.33,21.34-0.63,52.27H231.17z"/>
			<path fill="#D62029" d="M451.62,650.46l-52.24-129.44l-18.02,2.97c0,0-52.33,38.61-41.79,126.47H451.62z"/>
			<path fill="#7A513A" d="M387.02,615.28l15.05,35.18h154.61c-1.04-25.65-1.78-43.23-1.97-47.43c0,0-174.11-143.1-183.62-146.77
				c-9.51-3.64-10.29,3.68-10.29,3.68l-8.78,29.04c0,0,6.77,49.3,7.73,49.6C360.72,538.92,387.02,615.28,387.02,615.28z"/>
			<path fill="#43B5E8" d="M213.99,496.86c4.49,15.27,18.33,37.97,60.82,39.78c1.43,0.05,2.82,0.08,4.21,0.08
				c60.63,0,69.63-57.89,69.71-58.47l0.07-0.34c-1.85-0.16-3.82-0.31-5.79-0.47c0,0-8.05,55.98-67.98,53.39
				c-41.13-1.73-52.85-24.24-56.14-38.16C217.09,493.95,215.46,495.34,213.99,496.86z"/>
			<path fill="#F07C5C" d="M333.03,421.09l9.99,56.35c0,0-8.05,55.98-67.98,53.39c-41.13-1.73-52.85-24.24-56.14-38.16v-57.15
				L333.03,421.09z"/>
			<g>
				<path fill="#4B5555" d="M398.28,650.46h12.34c-6.92-20.04-15.4-39.58-24.54-55.32c-23.26-40-30.95-106.16-31.02-106.83
					l-11.53,1.31c0.31,2.81,8.02,69.22,32.51,111.35C384.18,614.97,391.83,632.41,398.28,650.46z"/>
			</g>
			<path fill="#4B5555" d="M355.07,456.1l-11.54,33.52l11.6-0.66c0,0,10.07-25.79,9.4-32.86
				C363.85,449.04,355.07,456.1,355.07,456.1z"/>
			<path fill="#242B2D" d="M206.34,507.45c0.42,1.27,0.77,2.55,1.01,3.94c-0.47-2.63-0.81-4.06-0.81-4.06
				S206.45,507.37,206.34,507.45z"/>
			<path fill="#7A513A" d="M197.01,650.46c1.03-10.67,2.38-19.68,4.19-26.21c14.5-52.39,8.86-97.28,6.3-111.94
				c0.08,0.58,0.16,1.16,0.19,1.78c0.82,9.93-45.43,30.93-52.19,75.4c-1.45,9.56-0.26,31.86,2.34,60.97H197.01z"/>
			<path fill="#593721" d="M158.16,650.46c-2.8-29.12-4.12-51.41-2.67-60.97c6.77-44.47,53.01-65.46,52.19-75.4
				c-0.03-0.62-0.12-1.2-0.19-1.78c-0.03-0.31-0.11-0.62-0.15-0.93c-0.23-1.39-0.58-2.67-1.01-3.94
				c-4.18,2.43-70.72,41.76-81.93,71.72c-4.47,12.03-0.69,39.11,6.02,71.29H158.16z"/>
			<g>
				<path fill="#4B5555" d="M206.31,584.65c-5.08,13.74-8.8,37.06-11.25,65.82h12.54c2.51-24.34,5.78-45.92,9.85-62.56
					c8.93-36.49-4.71-87.48-5.36-89.65l-11.11,3.34C201.12,502.09,218.13,552.66,206.31,584.65z"/>
			</g>
			<g>
				<path fill="#B82025" d="M317.89,650.46l3.68-12.49c8.22,2.72,15.69,7.08,22.38,12.49h6.66c-15-14.04-34.67-22.64-56.3-22.64
					c-21.62,0-41.29,8.59-56.29,22.64H317.89z"/>
			</g>
			<polygon fill="#4B5555" points="212.71,498.21 218.9,492.67 218.9,487.47 200.97,501.59 			"/>
			<path fill="#E76B48" d="M160.55,316.63c0,0-14.73-11.86-16.9,7.04c-2.16,18.9,1.84,35.06,11.61,40.57
				c9.77,5.5,20.13-21.07,20.13-21.07L160.55,316.63z"/>
			<path fill="#66301B" d="M334.88,416.53c2.6,8.66-8.64,28.91,29.66,37.92c0,0-13.73-41.69,8.32-53.89c0,0,7.81,15.09,24.95,16.86
				c0,0-28.01-34.39-9.73-67.09c18.27-32.7,52.99-111.83,20.58-157.75c0,0,40.32,14.03,47.15,25.74c0,0-22.23-72.37-49.18-89.68
				c-26.95-17.32-33.97,6-33.97,6s41.37-71.32-60.93-102.87c0,0,14.23,22.49,11.45,36.25c0,0-16.43-25.1-36.43-25.06
				C266.74,43,127.68,155.37,103.49,146.05l28.93,45.82c0,0-18.81,8.9-18.68,14.54c0.12,5.64,25.6,93.54,46.47,102.12
				C181.06,317.1,334.88,416.53,334.88,416.53z"/>
			<path fill="#F28B6F" d="M355.93,415.57c-21.86,30.8-105.53,63.29-118.72,57.21c-13.34-6.18-63.46-47.5-74.91-64.3
				c-11.46-16.79-13.64-179.34-13.64-179.34c5.49-7.13,11.35-13.6,17.51-19.47c-2.04,2.35-4.03,4.78-5.97,7.3
				c0,0,2.2,162.55,13.66,179.34c11.46,16.8,61.57,58.11,74.92,64.28C260.22,465.91,324.81,442.11,355.93,415.57z"/>
			<path fill="#F8A075" d="M356.65,414.55c-0.23,0.34-0.46,0.69-0.72,1.03c-31.12,26.53-95.71,50.34-107.15,45.03
				c-13.35-6.18-63.46-47.49-74.92-64.28c-11.45-16.8-13.66-179.34-13.66-179.34c1.94-2.53,3.93-4.95,5.97-7.3
				c77.24-73.71,200.13-50.97,210.98-27.78C393.66,217.11,377.37,383.45,356.65,414.55z"/>
			<g>
				<g>
					<path fill="#95261F" d="M197.38,375.67c0,0,3.56,33.8,36.36,42.72c7.99-8.38,26.05-20.35,56.63-10.16
						c0.08,0.01,0.08,0.01,0.08,0.01c20.6-15.91,30.2-42.31,28.95-53.18l-6.57,1.16l-108.07,18.03L197.38,375.67z"/>
					<path fill="#FFFFFF" d="M312.81,356.19c-0.12,8.74-3,17.3-9.63,21.91c-17.38,11.38-80.87,15.23-90,11.95
						c-5.64-1.93-7.58-9.96-8.43-15.82L312.81,356.19z"/>
				</g>
				<path fill="#F26745" d="M233.73,418.39c4.81,1.56,10.36,2.4,16.62,2.58c16.29,0.38,29.58-4.88,40.01-12.74
					C259.78,398.04,241.72,410.02,233.73,418.39z"/>
			</g>
			<path fill="#E76B48" d="M226.74,427.07c0,0,51.53,4.28,72.09-3.97C298.83,423.1,261.65,474.36,226.74,427.07z"/>
			<g>
				<path fill="#F8A075" d="M389.5,298.67c0,0,23.25-28.82,28.77-18.84c5.53,9.98,15.29,27.83,9.58,37.8
					c-5.7,9.97-28.43,40.04-36.53,34.45c-3.75-2.59-6.38-6.1-8.13-9.12c-2-3.48-2.55-7.6-1.6-11.51L389.5,298.67z"/>
				<path fill="#C04532" d="M419.43,303.92c0,0-16.62-6.7-32.43,19.54l1.1,2.56C388.1,326.02,396.46,307.62,419.43,303.92z"/>
				<path fill="#C04532" d="M394.56,315.19c0,0,13.16,0.85,13.99,9.08c0.82,8.23-13.88,9.75-13.88,9.75s12.76-6.53,11.3-9.66
					c-1.46-3.12-13.16-5.43-13.16-5.43L394.56,315.19z"/>
			</g>
			<g>
				<path fill="#F2F3F3" d="M353.53,274.6c0.49,6.84-0.46,16.32-7.93,22.8c-4.15,3.71-10.41,6.44-19.49,7.32
					c-7.34,0.71-13.33,0.03-18.19-1.55c-13.36-4.41-18.08-15.64-19.67-22.41c0,0,0.25-2.37,1.24-5.83l31.45-12.32l29.31,3.44
					c1.98,3.9,2.97,7.25,3.18,8.2C353.52,274.46,353.53,274.6,353.53,274.6z"/>
				<g>
					<path fill="#8E4634" d="M301.33,290.58c2.5,10.55,13.08,17.07,23.63,14.57c10.55-2.5,17.08-13.08,14.57-23.64
						c-2.5-10.55-13.08-17.07-23.63-14.56C305.34,269.45,298.83,280.03,301.33,290.58z"/>
					<path fill="#704338" d="M310.07,288.5c1.36,5.72,7.09,9.26,12.81,7.9c5.72-1.36,9.25-7.1,7.9-12.81
						c-1.36-5.72-7.09-9.26-12.81-7.9C312.25,277.05,308.71,282.78,310.07,288.5z"/>
					<path opacity="0.7" fill="#F2F3F3" d="M295.23,289.75c0.7,4.43,4.87,7.47,9.31,6.76c4.43-0.7,7.46-4.86,6.76-9.3
						c-0.7-4.43-4.86-7.47-9.3-6.77C297.55,281.16,294.53,285.32,295.23,289.75z"/>
				</g>
				<path fill="#E76B48" d="M288.35,282.37c33.8-35.02,65.28-6.55,65.28-6.55s0.12-0.34,0.06-0.6c-0.25-1.05-0.9-4.82-2.94-9.32
					c-4.42-9.55-14.11-22.26-32.03-20.16c-20,2.39-27.64,19.67-29.86,29.55C287.92,279.25,288.35,282.37,288.35,282.37z"/>
			</g>
			<g>
				<path fill="#F2F3F3" d="M224.5,288c0.49,6.84-0.45,16.32-7.93,22.8c-4.15,3.71-10.42,6.45-19.49,7.33
					c-7.34,0.71-13.34,0.03-18.19-1.56c-13.36-4.41-18.08-15.64-19.67-22.41c0,0,0.26-2.38,1.25-5.83l31.45-12.32l29.3,3.44
					c1.98,3.91,2.97,7.25,3.19,8.2C224.49,287.86,224.5,288,224.5,288z"/>
				<g>
					<path fill="#8E4634" d="M174.52,303.83c2.5,10.55,13.08,17.07,23.63,14.57c10.55-2.51,17.08-13.08,14.58-23.64
						c-2.51-10.55-13.08-17.07-23.64-14.57C178.54,282.7,172.01,293.28,174.52,303.83z"/>
					<path fill="#704338" d="M183.27,301.75c1.36,5.72,7.09,9.26,12.81,7.9c5.72-1.36,9.25-7.09,7.9-12.81
						c-1.35-5.72-7.09-9.26-12.81-7.9C185.44,290.3,181.91,296.04,183.27,301.75z"/>
					<path opacity="0.7" fill="#F2F3F3" d="M168.42,303.01c0.7,4.43,4.87,7.47,9.3,6.76c4.43-0.7,7.46-4.86,6.76-9.3
						c-0.7-4.43-4.86-7.47-9.3-6.77C170.75,294.4,167.72,298.57,168.42,303.01z"/>
				</g>
				<path fill="#E76B48" d="M159.32,295.77c33.8-35.02,65.28-6.55,65.28-6.55s0.12-0.35,0.05-0.61c-0.25-1.05-0.9-4.82-2.93-9.32
					c-4.42-9.55-14.11-22.26-32.03-20.15c-20.01,2.39-27.64,19.67-29.87,29.56C158.9,292.65,159.32,295.77,159.32,295.77z"/>
			</g>
			<path fill="#E76B48" d="M238.32,311.62c0,0-18.07,7.79-17.87,14.03c0.21,6.23,3.64,17.69,23.89,22.69c0,0-18.1-16.31-13.8-25.13
				C235,314.07,238.32,311.62,238.32,311.62z"/>
			<path fill="#66301B" d="M157.5,240.59c1.98-0.26,38.99-9.66,48.74,5.58c9.75,15.24,12.45-8.49,10.38-11.56
				c-2.07-3.07-32.22-16.29-58.13-2.69L157.5,240.59z"/>
			<path fill="#66301B" d="M344.56,222.24c-1.99-0.1-39.66-6.38-48.11,9.61c-8.45,16-13.12-7.43-11.3-10.66
				c1.81-3.23,30.75-18.9,57.7-7.49L344.56,222.24z"/>
			<path fill="#4B2413" d="M348.53,161.63c0,0,44.97,48.13,43.15,80.79C391.68,242.42,422.87,160.78,348.53,161.63z"/>
			<path fill="#4B2413" d="M357.6,160.23c0,0,26.01-52.6-28.15-74.15c0,0,23.65,39.36,12.17,72.32c0,0-17.58-47.37-53.17-49.26
				c0,0,35.26,32.54,33.33,51.31C321.79,160.45,352.26,166.61,357.6,160.23z"/>
			<g>
				<path fill="#307E85" d="M414.68,229.02l-3.67,0.27l-0.35,0.03l-3.08,0.24l-2.41,0.1l-1.5,0.08c0.03-0.81,0.03-1.74,0-2.82
					c-0.14-18.75-4.45-75.74-26.06-106.42c0.32-1.18,0.62-2.36,0.86-3.51c0.4-1.74,0.72-3.45,0.96-5.12
					c2.44,2.62,4.69,5.55,6.75,8.71C397.61,138.24,415.48,174.64,414.68,229.02z"/>
				<g>
					<path fill="#EE8D72" d="M379.13,324.13c-5.49-14.59-3.71-32.1,3.6-45.29c8.84-15.97,23.94-36.02,34.46-11.55
						c15.74,36.6,3.06,88.4-21.48,76.28C387.12,339.32,382.07,331.93,379.13,324.13z"/>
					<g>
						<g>
							<path fill="#7FC7C3" d="M403.67,226.93v1.16c0,0.59,0,1.15-0.03,1.66c0,2.76-0.05,4.53-0.1,4.9l-6.03-0.69
								c0-0.14,0.14-1.77,0.21-4.64c0.03-0.54,0.05-1.13,0.05-1.77v-0.53c0.43-18-3.43-65.97-22.74-98.39
								c1.02-2.79,1.88-5.49,2.57-8.12c0.32-1.18,0.62-2.36,0.86-3.51C401.37,153.72,403.86,206.92,403.67,226.93z"/>
						</g>
					</g>
					<g>
						<path fill="#D62029" d="M432.27,299.02c0,20.12-4.8,38.22-12.42,50.48c-0.35,0.58-0.75,1.23-1.16,1.82
							c-0.55,0.78-1.1,1.56-1.65,2.27c-0.9,9.28-1.56,15.19-1.56,15.19c-0.69,0-1.34-0.07-2-0.07c-2.75,0-7.91-0.19-12.82-0.71
							c-3.66-0.45-7.11-1.04-9.36-2.01c-18.67-5.39-31.49-32.64-31.49-66.97c0-13.76,2.45-26.41,6.61-36.93
							c3.76-9.6,8.86-17.39,14.77-22.58c2.51-2.27,5.16-4.02,7.91-5.19c1.6-0.71,3.25-1.23,4.96-1.56c1.25-0.26,2.55-0.39,3.85-0.39
							c0.05,0,0.05,0,0.1,0c1.75-0.32,4.36-0.52,7.3-0.45c0.9,0,1.81,0.06,2.76,0.13c3.45,0.19,7.21,0.78,10.56,1.95h0.05
							c1.85,0.58,3.56,1.3,5.06,2.34c0.2,0.06,0.45,0.25,0.65,0.39c1.6,1.1-0.15,4.34-1.1,9.79c-0.34,2.08-0.6,4.55-0.5,7.34
							c0.25,0.52,0.5,0.97,0.7,1.49c2.91,6.23,5.16,13.37,6.66,21.28c0.2,0.91,0.35,1.82,0.5,2.73
							C431.72,285.59,432.27,292.14,432.27,299.02z"/>
						<path fill="#F0545C" d="M451.71,301.67c0,37.08-16.22,67.13-36.23,67.13s-36.22-30.06-36.22-67.13s16.21-67.13,36.22-67.13
							S451.71,264.59,451.71,301.67z"/>
						<path fill="#C59C6D" d="M454.87,299.62c0,27.89-14.01,50.93-32.01,53.97c-13.34-5.29-23.35-27.23-23.35-53.53
							c0-27.45,10.93-50.2,25.17-53.97C441.83,250.29,454.87,272.67,454.87,299.62z"/>
						<path fill="#FEE396" d="M426.97,253.15c0,0-20.91,7.97-16.49,55.39c0,0,10.3-29.25,21.2-29.25
							C442.58,279.29,441.7,258.02,426.97,253.15z"/>
					</g>
					<polygon fill="#FEE396" points="408.39,235.43 394.02,234.52 394.08,232.76 394.27,226.33 394.37,223.03 398.88,223.29 
						405.48,223.74 407.34,223.87 407.84,229.52 408.09,232.05 					"/>
					<polygon fill="#CBA25D" points="419.41,233.87 418.66,234 414.6,234.52 410.85,235.1 408.39,235.43 408.09,232.05 
						407.84,229.52 407.34,223.87 416.15,223.22 419.33,222.74 					"/>
				</g>
			</g>
			<g>
				<path fill="#010101" d="M169.14,529.74c-9.85,20.04-26.47,66-41.04,120.72h5.39c14.41-53.63,30.76-98.64,40.45-118.35
					c27.82-56.6-21.49-133-23.78-136.35l-7.99-1.69C142.72,394.86,195.57,475.96,169.14,529.74z"/>
			</g>
			<g>
				<path fill="#7A513A" d="M440.64,595.29l62.17,39.6c0,0,0.04,0,0.08,0.04c1.08,0.51,16.03,7.49,34.7,15.54h207.23
					c-107.5-136.9-373.17-198.58-373.74-194.19C359.98,541.09,440.64,595.29,440.64,595.29z"/>
			</g>
		</g>
	</g>
</g>
</svg>
