<?xml version="1.0" encoding="utf-8"?>
<!-- Generator: Adobe Illustrator 25.2.3, SVG Export Plug-In . SVG Version: 6.00 Build 0)  -->
<svg version="1.1" id="Layer_1" xmlns="http://www.w3.org/2000/svg" xmlns:xlink="http://www.w3.org/1999/xlink" x="0px" y="0px"
	 viewBox="0 0 576 576" enable-background="new 0 0 576 576" xml:space="preserve">
<g>
	<g>
		<defs>
			<path id="SVGID_1_" d="M576,288.5c0,158.68-128.64,287.32-287.32,287.32C130,575.82,1.36,447.18,1.36,288.5
				C1.36,129.81,130,1.18,288.68,1.18C447.36,1.18,576,129.81,576,288.5z"/>
		</defs>
		<clipPath id="SVGID_2_">
			<use xlink:href="#SVGID_1_"  overflow="visible"/>
		</clipPath>
		<g clip-path="url(#SVGID_2_)">
			<path fill="#F9E3D9" d="M576,288.5c0,158.68-128.64,287.32-287.32,287.32C130,575.82,1.36,447.18,1.36,288.5
				C1.36,129.81,130,1.18,288.68,1.18C447.36,1.18,576,129.81,576,288.5z"/>
			<g>
				<path fill="#025F9F" d="M329.34,617.95l-73-95.24c0,0,24.17-72.48,57.99-51.54c16.82,10.44,53.6,75.24,95.72,146.78H329.34z"/>
				<path fill="#12213B" d="M167.21,448.08c0,0,27.39-34.37,46.18-37.04c18.79-2.69,3.22,31.68,3.22,31.68L167.21,448.08z"/>
				<polygon fill="#183660" points="234.6,417.62 287.35,430.9 285.74,448.62 233.39,438.55 				"/>
				<path fill="#F8A285" d="M205.61,346.18v96.83c0,0,32.57,30.81,73.71,8.8l1.99-93.31L205.61,346.18z"/>
				<path fill="#FBB581" d="M180.51,274.66c0-0.39,0.07-0.77,0.12-1.16c0.9-7.34,2.13-14.75,3.54-22.23v-0.07
					c0.97-5.02,2-10.06,3.16-15.08c0.33-1.35,0.65-2.77,0.97-4.12c1.35-5.54,2.77-11.08,4.32-16.56c0.13-0.45,0.26-0.97,0.39-1.41
					c0.32-1.1,0.58-2.19,0.9-3.35c0.26-0.9,0.58-1.8,0.84-2.71c0.51-1.87,1.09-3.73,1.67-5.54c2-6.5,4.06-12.89,6.31-19.13
					c0.07-0.07,0.07-0.07,0-0.12c0.07-0.07,0.07-0.07,0-0.13c0.07-0.07,0.07-0.07,0.07-0.13c6.83-19.46,14.37-37.43,21.97-52.38
					v-0.07c11.14-22.16,22.1-37.76,30.02-41.62c1.48-0.71,3.42-1.61,5.86-2.57c19.65-8.12,68.43-22.88,108.63-2.26
					c4.51,2.26,8.95,5.03,13.21,8.31c3.54,2.71,7.02,5.86,10.31,9.35c4.32,4.51,8.38,9.66,12.05,15.59
					c2.58,4.12,5.03,8.57,7.28,13.4c2.64,5.74,5.09,11.99,7.21,18.82l3.61,13.08c3.09,13.08,5.29,28.02,6.31,44.97
					c0,0,0,0.84,0.07,2.45v0.77c0,0.07,0,0.13,0,0.13v0.19c0.07,3.29,0.13,8.76,0,15.79v0.07c-0.13,5.02-0.26,10.76-0.58,17.14
					c-2.51,52.26-13.98,144.65-62.82,168.29c-32.15,15.47-60.18,21.98-86.14,17.72c-26.03-4.12-50-19.07-73.91-46.39
					c-0.07-0.07-0.2-0.13-0.26-0.26c-3.48-4-6.96-8.25-10.44-12.76c-5.21-6.77-9.09-14.95-11.79-24.16
					c-1.74-5.86-2.96-12.18-3.73-18.81c-0.07-0.07-0.07-0.2-0.07-0.26c-0.12-0.71-0.19-1.35-0.26-2.06
					C177.67,309.84,178.26,292.57,180.51,274.66z"/>
				<path fill="#F36F52" d="M318.49,332.68c0,0,12.33,1.89,3.24,6.02c-11.08,5.04-22.27,12.16-25.16,14.8
					C290.29,359.29,300.41,341.25,318.49,332.68z"/>
				<path fill="#F36F52" d="M399.3,340.14c0,0-6.73-5.19-4.49,1.24c2.73,7.84,4.5,16.71,4.55,19.38
					C399.46,366.59,403.59,353.1,399.3,340.14z"/>
				<g>
					<path fill="#8B491F" d="M315.93,370.67c0.77,1.85,1.81,3.63,3.18,5.48c6.24,9.27,17.85,17.96,32.67,18.13
						c10.03,0.12,19.82-1.26,26.85-6.5c0.03,0.14,0.03,0.14,0.14-0.04c5.11-3.97,8.74-10.25,9.54-19.42c0,0,2.21-7.17-5.45-8.52
						c-1.27-0.31-2.93-0.36-4.97-0.16c-13.42,1.21-33.2,1.51-47.19-4.21c-8.32-3.39-13.64-1.41-15.6,3.18
						C313.64,361.66,313.89,366.16,315.93,370.67z"/>
					<path fill="#FFFFFF" d="M315.11,358.61c14.22,13.69,37.56,18.62,53.49,13.15c8.78-3.02,12.61-7.93,14.27-11.96
						c-1.27-0.31-2.93-0.36-4.97-0.16c-13.42,1.21-33.2,1.51-47.19-4.21C322.39,352.04,317.07,354.02,315.11,358.61z"/>
					<path fill="#F16162" d="M319.12,376.16c6.24,9.27,17.85,17.96,32.67,18.13c10.03,0.12,19.82-1.26,26.85-6.5
						C366.48,382.21,340.01,371.47,319.12,376.16z"/>
				</g>
				<path fill="#FFFFFF" d="M311.77,237.9c12.26-17.69,39.7-13.19,47.92,6.7c3.9,9.47,4.88,19.27-4.68,32.88
					c-17.69,25.17-51.55,2.42-51.74-14.1C303.19,257.17,304.67,248.13,311.77,237.9z"/>
				<path fill="#FFFFFF" d="M422.69,270.83c4.13-7.21,5.78-15.42,4.57-23.56c-1.32-8.91-4.99-19.27-14.92-17.08
					c-16.9,3.71-32.26,38.18-13.91,50.97C409.33,288.74,417.69,279.56,422.69,270.83z"/>
				<g>
					<path fill="#611B13" d="M333.26,267.18c-3.93,5.8-2.84,13.41,2.44,16.99c5.29,3.59,12.75,1.8,16.69-4
						c3.94-5.79,2.84-13.4-2.44-16.99C344.67,259.59,337.2,261.39,333.26,267.18z"/>
				</g>
				<g>
					<path fill="#611B13" d="M400.63,264.73c-3.93,5.8-3.19,13.17,1.66,16.46c4.85,3.3,11.97,1.26,15.91-4.53
						c3.93-5.8,3.2-13.17-1.66-16.46C411.69,256.9,404.57,258.93,400.63,264.73z"/>
				</g>
				<path fill="#F36F52" d="M303.99,252.01c29.93-27.04,58.1-0.64,58.1-0.64s-0.85-31.97-22.89-38.1
					C309.83,205.04,303.99,252.01,303.99,252.01z"/>
				<path fill="#F36F52" d="M427.69,254.67c0,0-9.18-17.31-36.7,0c0,0,5.19-28.17,21.41-28.17
					C430.45,226.5,427.69,254.67,427.69,254.67z"/>
				<path fill="#8B491F" d="M309.7,224.64c0,0-11.63,11.1-14.09,5.41c-2.46-5.69-0.96-19.76,16.59-22.7
					c17.54-2.93,43.98,0.07,44.71,6.98c0.73,6.92,0.47,11.86-5.71,11.36C345.03,225.19,329.24,214.04,309.7,224.64z"/>
				<path fill="#8B491F" d="M425.78,224.01c0,0,10.25,9.61,11.15,3.71c0.9-5.9-2.42-19.63-15.7-20.49s-32.11,5.18-31.56,12.09
					c0.56,6.92,1.53,11.77,5.96,10.55C400.06,228.66,409.84,215.83,425.78,224.01z"/>
				<path fill="#F36F52" d="M395.89,303.39c0,0-4.02,29.4-28.29,24.83c-10.28-1.93-9.56-0.15-5.9,2.94
					c4.13,3.47,16.78,7.16,23.5,3.01C397.12,326.83,396.24,320.72,395.89,303.39z"/>
				<path fill="#2482C5" d="M396.67,617.95c-13.46-45.51-35.88-103.8-71.57-150.52c-2.32-3.03-4.7-5.86-7.22-8.5
					c-3.28-3.54-6.77-6.83-10.31-9.73c-6.76-5.61-15.2-5.48-22.74-8.9c-22.88-10.57-43.82-10.15-68.5-3.71
					c-15.53,4-34.21,4.87-47.93,14.22c-35.12,23.71-61.47,63.15-63.46,109.73c-0.75,17.64,1.65,37.06,6.03,57.42H396.67z
					 M287.33,512.41c-2.9-5.41-8.12-14.23-12.63-21.71c0.45-4.58,1.29-10.06,2.33-15.92c0.12-0.06,0.32-0.12,0.45-0.19
					C278.7,484.77,283.34,503,287.33,512.41z"/>
				<path fill="#1672B9" d="M117.07,617.95c-7.59-49.78-8.35-90.37,3.45-105.42c40.08-51.22,96.71-45.3,100.64,51.74
					c0.71,16.94,2.04,35.16,3.69,53.68H117.07z"/>
				<path fill="#F8A285" d="M216.59,432.51c15.66-3.35,33.76-4.64,49.61-2c1.93,0.26,11.67,3.42,18.62,9.79
					c6.31,5.73,10.3,14.11,3.93,25.45c-2.19,3.93-6.12,6.83-11.28,8.83c1.23,10.18,5.87,28.41,9.86,37.82
					c-2.9-5.41-8.12-14.23-12.63-21.71c-0.06,0.83-0.12,1.61-0.19,2.38c-1.61-4.19-3.54-8.18-5.61-11.85
					c-0.96-1.68-1.74-2.97-2.19-3.67c-1.48,0.26-2.96,0.45-4.51,0.58c-1.61-1.81-3.28-3.61-5.02-5.35c-0.45-0.45-0.96-0.9-1.41-1.41
					c-8.25-8.44-17.33-15.53-22.49-13.08c-2.96,1.42-6.05,5.03-8.89,9.54c-0.39,0.64-0.84,1.29-1.22,2
					c-1.03,1.74-2.06,3.67-3.09,5.67c-17.27-3.35-32.6-9.02-39.17-15.07C170.2,450.42,189.79,438.31,216.59,432.51z"/>
				<path fill="#183660" d="M277.47,474.59c1.23,10.18,5.87,28.41,9.86,37.82c0.2,0.32,0.39,0.71,0.52,1.03
					c0.45,1.16,0.96,2.12,1.41,2.9c0.07,0.13,0.13,0.2,0.13,0.2s-4.32-100.38,35.56-42.78c-1.55-3.35-4.19-9.02-7.09-14.82
					c-4.19-8.31-8.76-16.82-11.08-18.88c-4.83-4.32-19.46-9.15-19.46-9.15s-0.51,1.81-1.28,4.83c-0.39,1.29-0.42,2.97-1.23,4.57
					c-4.45,8.85-5.49,9.56-7.81,21.74C276.35,468.62,277.15,471.88,277.47,474.59z"/>
				<path fill="#183660" d="M167.24,448.1c0.06,0.65,0.51,1.55,1.16,2.71c6.96,11.8,41.75,48.84,41.75,48.84s4.19-12.7,9.92-24.17
					c1.03-1.99,2.06-3.92,3.09-5.67c0.39-0.71,0.84-1.36,1.22-2c2.64-4.06,5.35-7.09,8.31-8.5c5.09-2.45,14.56,4,23.07,12.05
					c0.45,0.52,0.96,0.97,1.41,1.41c1.74,1.74,3.41,3.54,5.02,5.35c6.31,7.09,25.26,35.63,27.06,38.2c-0.26-0.71-0.77-1.67-1.41-2.9
					c-0.13-0.32-0.32-0.71-0.52-1.03c-2.9-5.41-8.12-14.23-12.63-21.71c-2.19-3.67-4.25-7.02-5.8-9.47
					c-0.96-1.68-1.74-2.97-2.19-3.67c-14.04-22.93-35.05-37.18-50.13-45.04c-1.29-0.71-2.58-1.35-3.81-1.93
					c-8.89-4.25-16.44-11.36-16.44-11.36S166.14,441.08,167.24,448.1z"/>
				<path fill="#6E3B18" d="M123.98,199.36c13.05,6.03,45.17-2,62.23-13.05c17.06-11.04,29.11-28.11,30.12-57.21
					c1-29.11,29.11,23.08,58.22,22.08c29.11-1,22.08-26.1,14.05-52.2c-8.03-26.1,24.09,5.02,40.15,14.06s16.06-7.03,19.08-22.08
					c3.01-15.06,82.31,41.15,49.18,8.02c-12.64-12.64-17.79-23.65-19.35-32.44c-1-0.45-1.6-0.68-1.6-0.68
					c-6.39-1.21-12.09-1.49-17.23-1.13c-1.44-1.32-2.33-2.01-2.33-2.01c-13.61-6.74-25.26-8.43-34.73-6.87
					c-20.12-9.59-57.02-21.76-98.42-9.07c-33.12,10.16-60.95,42.48-78.74,79.38l-0.04-0.08c0,0-0.16,0.36-0.4,1
					C132.81,150.93,125.66,176.55,123.98,199.36z"/>
				<path fill="#6E3B18" d="M186.21,69.36c0,0,178.18-78.8,251.47,33.13L186.21,69.36z"/>
				<path fill="#532414" d="M128.99,268.63c19.51,37.3,39.15,120.46,39.15,120.46s33.97-44.49,27.11-63.24
					c-4.34-11.92,4.13-63.12,10.92-98.9c2.25,1.81,3.45,4.54,3.25,8.67c0,0,22.25-30.72,27.51-51.8c0,0,7.31,34.09,4.5,48.67
					c0,0,56.53-34.37,83.63-110.82c21.32,16.14,24.78,47.9,24.78,47.9c13.09-12.81,21.12-24.81,25.62-35.77
					c14.58,11.64,21.6,29.11,21.6,29.11c1.84-3.22,3.37-6.27,4.81-9.24c22.21,30.15,40.27,74.12,40.27,74.12
					c27.43-123.43-14.18-148.81-48.82-150.69c-6.39-5.82-12.77-9.16-15.66-10.56c1.57,8.79,6.71,19.8,19.35,32.44
					c33.13,33.13-46.18-23.08-49.18-8.02c-3.01,15.05-3.01,31.12-19.08,22.08s-48.18-40.16-40.15-14.06
					c8.03,26.1,15.05,51.2-14.05,52.2c-29.12,1-57.22-51.19-58.22-22.08c-1.01,29.11-13.06,46.18-30.12,57.21
					c-17.06,11.04-49.18,19.08-62.23,13.05c-0.12,1.85-0.16,3.53-0.12,5.18C120.48,228.23,120.44,252.28,128.99,268.63z"/>
				<g>
					<g>
						<path fill="#FBB581" d="M223.91,235.41c0,0-21.29-45.43-43.91-27.02c-22.61,18.42-29.27,84.73,4,100.69
							C217.26,325.05,225.24,277.16,223.91,235.41z"/>
					</g>
					<g>
						<path fill="#F36F52" d="M185.15,237.23c21.87,1.43,26.41,29.33,15.66,45.17c-10.74,15.83-21.38-2.53-21.38-2.53
							s17.06,13.16,21.85-11.24c0.79-4.03,0.83-7.53,0.43-10.66c-0.1,0.34-0.16,0.62-0.28,1c-2.88,8.21-19.46-3.5-19.46-3.5
							c12.41,3.99,16.72-1.59,18-4.15C195.5,240.73,185.15,237.23,185.15,237.23z"/>
					</g>
				</g>
			</g>
		</g>
	</g>
</g>
</svg>
