<?xml version="1.0" encoding="utf-8"?>
<!-- Generator: Adobe Illustrator 25.2.3, SVG Export Plug-In . SVG Version: 6.00 Build 0)  -->
<svg version="1.1" id="Layer_1" xmlns="http://www.w3.org/2000/svg" xmlns:xlink="http://www.w3.org/1999/xlink" x="0px" y="0px"
	 viewBox="0 0 576 576" enable-background="new 0 0 576 576" xml:space="preserve">
<g>
	<g>
		<defs>
			<path id="SVGID_1_" d="M576,287.31c0,159.42-129.24,288.65-288.66,288.65c-159.42,0-288.66-129.24-288.66-288.65
				c0-159.42,129.24-288.66,288.66-288.66C446.76-1.35,576,127.89,576,287.31z"/>
		</defs>
		<use xlink:href="#SVGID_1_"  overflow="visible" fill="#F9E3D9"/>
		<clipPath id="SVGID_2_">
			<use xlink:href="#SVGID_1_"  overflow="visible"/>
		</clipPath>
		<g clip-path="url(#SVGID_2_)">
			<path fill="#F9E3D9" d="M576,287.31c0,159.42-129.24,288.65-288.66,288.65c-159.42,0-288.66-129.24-288.66-288.65
				c0-159.42,129.24-288.66,288.66-288.66C446.76-1.35,576,127.89,576,287.31z"/>
			<g>
				<path fill="#367D8A" d="M349.3,435.55c1.24-0.31,18.05-29.09,38.27-18.26l-2.07,24.14L349.3,435.55z"/>
				<path fill="#DF806B" d="M248.93,417.7c1.65,6.6,0.41,44.15,0.41,44.15l21.66,52.6c0,0,109.97-26.61,111.61-57.15
					c1.65-30.53-6.19-63.96,2.89-92.84C394.57,335.59,248.93,417.7,248.93,417.7z"/>
				<path fill="#E39874" d="M179.66,689.76c-2.99-60.77-39.96-29.48-65.58,0H179.66z"/>
				<path fill="#0A97B9" d="M218.59,689.76c33.24-59.76,61.16-142.02,42.59-194.69c0,0-84.87,1.02-136.86,100.88
					c-23.01,44.19-36.62,74.34-44.59,93.81H218.59z"/>
				<path fill="#0A97B9" d="M430.41,667.09l10.79,7.73c0,0-0.32,5.39-0.88,14.95h26.94c0.74-12.65,1.16-19.91,1.16-19.91
					l-10.79-7.73c-9.21-43.96-41.09-192.8-52.78-201.52c-3.57-2.67-14.16-0.39-28.02,4.56c0.3,0.1,0.59,0.2,0.79,0.39
					C389.32,474.28,421.2,623.12,430.41,667.09z"/>
				<path fill="#46A4BC" d="M440.32,689.76c0.57-9.56,0.88-14.95,0.88-14.95l-10.79-7.73c-9.21-43.97-17.75-203.95-29.44-212.66
					c-0.2-0.2-23.84,10.85-24.13,10.75c-39.71,13.76-105.86,48.62-105.86,48.62l-2.88-7.42l-0.99-2.57L258,489.93h-16.04l-8.12,9.61
					l-1.98,2.28l-2.38-1.59c-38.73,28.6-61.46,101.67-74.33,189.54H440.32z"/>
				<path fill="#46A4BC" d="M286.47,491.15c0,0-9.28,3.51-16.71,25.79l100.27-46.42C370.03,470.52,299.47,479.6,286.47,491.15z"/>
				<path fill="#3D8CA1" d="M286.47,491.15c0,0,35.9-10.73,38.38,42.5c0,0,80.05-61.48,80.05-76.75s-17.33-39.61-17.33-39.61
					S384.88,451.02,286.47,491.15z"/>
				<path fill="#46A4BC" d="M260.48,478.77L271,514.46c0,0-12.37-43.02-46.11-0.62C224.89,513.84,245.94,475.88,260.48,478.77z"/>
				<path fill="#F6B185" d="M351.68,375.75c-12.41,47.73-53.22,64.58-105.53,64.03c-13.42-3.82-25.36-12-30.44-27.88
					c-7.06-22.05-25.37-60.63-36.53-84.59c-10.18-21.86-12.85-168.94-12.85-168.94c59.36-100.62,132.93-87.31,182.74-57.16
					c-24.15,16.36-41.89,28.71-41.89,28.71s4.97,33.5,26.11,46.4C354.44,189.23,396,205.43,351.68,375.75z"/>
				<path fill="#E39874" d="M409.42,297.16c-12.01,54.15-44.85,152.62-147.29,145.35c-5.34-0.37-10.77-1.21-15.98-2.72
					c52.31,0.55,93.12-16.3,105.53-64.03c44.32-170.32,2.75-186.52-18.39-199.43c-21.15-12.91-26.11-46.4-26.11-46.4
					s17.74-12.35,41.89-28.71c29.32,17.74,50.4,41.3,55.52,50.89C418.37,177.92,421.83,241.34,409.42,297.16z"/>
				<path fill="#FFFFFF" d="M171.98,255.76c0.49,4.85,0.77,19.08,18.66,20.94s27.87-12.33,27.29-23.32L171.98,255.76z"/>
				<path fill="#FFFFFF" d="M262.76,251.18c0,0,1.25,18.06,20.66,18.74c19.41,0.68,32.11-11.5,35.55-25.11L262.76,251.18z"/>
				<g>
					<path fill="#66292E" d="M206.92,262.81c0.52,6.83-4.23,12.77-10.6,13.25c-6.37,0.49-11.96-4.66-12.48-11.49
						c-0.52-6.84,4.23-12.77,10.6-13.25C200.82,250.83,206.4,255.97,206.92,262.81z"/>
					<path fill="#29110C" d="M201.22,263.24c0.26,3.46-2.14,6.46-5.36,6.7c-3.22,0.24-6.05-2.36-6.31-5.81
						c-0.26-3.46,2.13-6.46,5.36-6.7C198.13,257.18,200.95,259.79,201.22,263.24z"/>
				</g>
				<g>
					<path fill="#66292E" d="M297.7,256.73c0.52,6.83-4.23,12.77-10.6,13.25c-6.38,0.48-11.96-4.67-12.48-11.5
						c-0.52-6.83,4.23-12.76,10.6-13.25C291.58,244.74,297.18,249.89,297.7,256.73z"/>
					<path fill="#29110C" d="M291.99,257.16c0.26,3.46-2.14,6.46-5.36,6.7c-3.22,0.24-6.05-2.36-6.31-5.81
						c-0.26-3.46,2.14-6.46,5.36-6.7C288.9,251.1,291.73,253.7,291.99,257.16z"/>
				</g>
				<path fill="#D57D56" d="M171.98,255.76c0,0,6.49-20.12,14.64-22.08c12.51-3,23.16-4.57,31.31,19.7L171.98,255.76z"/>
				<path fill="#D57D56" d="M262.76,251.18c0,0-2.55-28.25,27.43-26.16c28.79,2.01,28.78,19.78,28.78,19.78
					S270.91,249.64,262.76,251.18z"/>
				<polygon fill="#1D1D1B" points="257.22,247.93 262.76,251.18 318.97,244.8 318.72,243.02 				"/>
				<polygon fill="#1D1D1B" points="171.98,255.76 168.19,253.34 215.76,251.53 217.93,253.38 				"/>
				<path fill="#8B2B1C" d="M239.66,37.46c-32.27-1.69-106.62,74.03-112.07,117.12c0,0,34.6-42.39,85.43,1.26
					c0,0,125.45-33.79,162.29-21.07c21.65,7.47,42.97-33.62,4.46-57.95C352.73,59.73,299.86,40.62,239.66,37.46z"/>
				<path fill="#8B2B1C" d="M360.21,178.59c0,0,40.45-41.86,2.06-62.22c0,0,75.87-67.39,90.51,42.57
					c5.26,39.52-46.6,114.1-46.6,114.1S388.97,199.67,360.21,178.59z"/>
				<path fill="#8B2B1C" d="M166.86,186.5c-1.77-10.53,13.33-54.35,37.28-58.11c23.96-3.76-56.34-26.75-59.94,15.22
					C140.61,185.59,166.86,186.5,166.86,186.5z"/>
				<path fill="#D65D54" d="M225.96,287.16c-2.7,4.93-12.85,28.6-8.37,35.05c4.48,6.45,24.8,5.16,37.18,1.53
					c12.39-3.63,12.92,3.46,15.95-2.08c3.03-5.55,3.1-15.91-6.93-16.6c0,0,7.57,6.65,4.59,12.37c-2.99,5.73-3.76-3.55-14.35,0.7
					c-10.59,4.26-30.58,9.54-33.82,3.11C216.98,314.82,225.96,287.16,225.96,287.16z"/>
				<path fill="#D65D54" d="M217.66,232.43c0,0,16.99,29.09,7.48,55.89c0,0,13.78-30.89-6.23-57.06L217.66,232.43z"/>
				<path fill="#884634" d="M220.32,218.67c0,0,0.01,0.32,0.01,0.86c-0.01,2.76-0.49,11.33-5.8,13.57
					c-6.35,2.69-34.72-7.46-49.54,2.56c-8.94,6.06-4.49-8.93-0.31-12.45C168.88,219.68,216.88,207.24,220.32,218.67z"/>
				<path fill="#884634" d="M258.18,202.88c0,0-1.51,4.23-1.53,4.76c-0.12,2.78,0.01,11.42,5.95,13.56
					c7.09,2.56,44.71-11.36,59.34,0.33s4.69-9.76,0.1-13.21C317.45,204.86,259.49,195.36,258.18,202.88z"/>
				<g>
					<path fill="#E39874" d="M392.49,256.8c-0.97-20.03,7.58-39.45,22.46-52.89c9.19-8.3,20.37-13.2,29.48-1.56
						c15.93,20.36,10.33,73.89-19.61,86.4c-11.5,4.81-24.62-1.56-28.75-13.33C394.29,270.37,392.84,264.14,392.49,256.8z"/>
					<path fill="#D65D54" d="M429.8,218.59c-15.88-0.27-17.47,36.8-17.47,36.8c1.46-8.92,3.45-15.45,5.47-20.24
						c0.07,7.94,1.57,25.21,13.17,28.89c0,0-11.06-6.47-9.59-33.53c0.09-1.68,0.72-3.34,1.79-4.63c0.13-0.16,0.27-0.32,0.39-0.47
						c1.62-1.84,4.01-2.89,6.44-2.7c12.45,0.98,11.1,14.85,11.1,14.85S445.95,218.86,429.8,218.59z"/>
				</g>
				<path fill="#8B2B1C" d="M371.52,286.6c0,0,21.82-77.19-11.31-108.02l34.45,9.2c0,0,7.79,70.86,1.41,87.64L371.52,286.6z"/>
				<g>
					<path fill="#D65D54" d="M299.23,346.49c-13.3,8.11-39.3,21.2-66.17,20.76c-1.23-0.09-2.62-0.01-3.86-0.26
						c-3.56-0.13-6.97-0.41-10.56-1.3c0,0-2.3-11.44,0.82-10.69l2.36,6.66c0,0,2.95,0.31,8.05,0.51c0.76-0.04,1.7,0.07,2.78,0.01
						C247.6,362.01,275.4,359.93,299.23,346.49z"/>
					<path fill="#D65D54" d="M304.33,332.22c-1.67,1.55,8.4-0.68,9.56,7.69c1.16,8.37,0.34,11.07,0.34,11.07s5.03-14.25,2.72-17.02
						C314.63,331.19,305.7,330.94,304.33,332.22z"/>
					<path fill="#894634" d="M304.89,366.09c-1.51,9.34-1.92,10.15-5.23,14.49c-7.65,9.97-61.07,21.53-61.77,13.67
						c-0.2-2.34-2.01-11.71-2.91-16.91C246.93,378.71,272.74,379.51,304.89,366.09z"/>
					<path fill="#FFFFFF" d="M308.33,340.61c0,0-1.02,12.85-3.44,25.48c-32.15,13.42-57.95,12.62-69.91,11.25
						c-0.68-4.28-1.51-8.25-1.92-10.08c26.86,0.43,52.87-12.66,66.17-20.76c1.05-0.67,2.24-1.35,3.28-2.02
						c1.95-1.18,3.28-2.18,4.32-2.86C307.88,340.94,308.33,340.61,308.33,340.61z"/>
				</g>
				<path fill="#D74D45" d="M217.57,505.18l-47.87,78.4l22.28,21.45c0,0,40.54-95.93,53.03-113.47
					C245.01,491.56,232.01,495.59,217.57,505.18z"/>
				<g>
					<path fill="#D74D45" d="M301.11,689.76c8.01-52.48,13.83-84.27,13.83-84.27c-88.33,11.48-145.27-21.88-145.27-21.88
						c-11.26,25.98-20.86,62.48-29.03,106.16H301.11z"/>
				</g>
				<path fill="#3D8CA1" d="M249.75,446.59c0.83,2.47-2.47,7.42,10.73,32.18c0,0-35.48,26.41-37.13,50.34c0,0-3.38-22.51,5.67-52.2
					C232.66,464.96,240.05,454.47,249.75,446.59L249.75,446.59z"/>
				<path fill="#F6B185" d="M561.32,689.76c-1.01-2.28-2.03-4.57-3.08-6.89c-70.14-155.53-85-55.58-87.98,6.89H561.32z"/>
				<path fill="#0A97B9" d="M548.58,689.76h43.68c-7.33-20.11-19.72-50.26-40.46-95.51c-33.89-74.1-77.31-106.01-109.1-119.63
					c22.6,22.48,46.31,56.6,66.68,108.66C524.8,622.74,537.97,658.94,548.58,689.76z"/>
				<path fill="#46A4BC" d="M548.58,689.76c-10.61-30.83-23.77-67.02-39.2-106.48c-20.38-52.06-44.08-86.17-66.68-108.66
					c-25.25-11.08-43.2-10.53-43.2-10.53c-24.93,56.11-6.02,152.55,21.71,225.66H548.58z"/>
				<path fill="#BD443D" d="M301.11,689.76h53.55c3.21-27.44,6.65-54.22,9.4-74.97c3.57-27.33,14.26-53.28,30.9-75.26
					c18.02-23.67,37.93-51.2,33.87-63.28c-6.63-19.81-23.96-15.65-23.96-15.65c13.27,28.92-89.92,144.88-89.92,144.88
					S309.12,637.29,301.11,689.76z"/>
			</g>
		</g>
	</g>
</g>
</svg>
