<?xml version="1.0" encoding="utf-8"?>
<!-- Generator: Adobe Illustrator 25.2.3, SVG Export Plug-In . SVG Version: 6.00 Build 0)  -->
<svg version="1.1" id="Layer_1" xmlns="http://www.w3.org/2000/svg" xmlns:xlink="http://www.w3.org/1999/xlink" x="0px" y="0px"
	 viewBox="0 0 576 576" enable-background="new 0 0 576 576" xml:space="preserve">
<g>
	<g>
		<defs>
			<path id="SVGID_1_" d="M576,288c0,159.06-128.94,288-288,288S0,447.06,0,288S128.94,0,288,0S576,128.94,576,288z"/>
		</defs>
		<use xlink:href="#SVGID_1_"  overflow="visible" fill="#F9E3D9"/>
		<clipPath id="SVGID_2_">
			<use xlink:href="#SVGID_1_"  overflow="visible"/>
		</clipPath>
		<g clip-path="url(#SVGID_2_)">
			<g>
				<path fill="#F47A4B" d="M173.34,242.47c-1.71-0.43-20.06-17.07-36.27,2.56s1.28,69.12,14.08,74.24
					c12.8,5.12,23.47,1.28,24.75-2.14C177.18,313.73,173.34,242.47,173.34,242.47z"/>
				<g>
					<polygon fill="#818478" points="126.73,236.71 176.72,243.84 176.72,247.96 133.23,244.1 					"/>
					<polygon fill="#818478" points="176.72,276.31 176.72,282.36 126.64,294.03 125.53,284.57 					"/>
				</g>
				<g>
					<path fill="#F8A184" d="M190.4,788.01c6.42-33.38,12.93-74.76,18.2-100.76c3.58-17.57,6.58-36.06,8.61-55.12v-0.05
						c3.15-29.13,3.97-59.52,1.07-89.62c-1.99-20.37-5.66-40.6-11.52-60.25c-1.22-4.06-2.95-7.88-5.32-9.29
						c-0.25-0.15-0.49-0.29-0.73-0.39c-2.81-1.07-6.68-1.69-11.18-0.53c-0.05,0-0.1,0.05-0.1,0.05c-0.63,0.14-1.26,0.38-1.94,0.62
						c-4.84,1.79-10.26,5.76-15.73,13.31c-0.29,0.29-0.58,0.63-0.77,0.97c-4.31,6.15-8.66,14.52-12.82,25.84
						c-0.19,0.49-0.39,1.02-0.58,1.55c-7.74,21.53-14.86,58.6-20.95,99.35c-0.19,1.35-0.38,2.71-0.63,4.11
						c-0.44,3.15-0.92,6.34-1.35,9.58c-6.83,48.03-12.24,112.86-15.69,160.62H190.4z"/>
				</g>
				<g>
					<path fill="#8C2D1C" d="M290.97,49.09c-10.31,20.24,5.45,48.95,35.22,64.12c29.76,15.17,62.25,11.05,72.57-9.18
						c10.32-20.24-5.45-48.95-35.22-64.12C333.77,24.73,301.29,28.85,290.97,49.09z"/>
					<path fill="#8C2D1C" d="M324.49,61.86c0,0-36.15-83.58-94.97-16.23C229.52,45.63,291.03,34.87,324.49,61.86z"/>
					<path fill="#8C2D1C" d="M329.75,66.74c0,0,1.22-78.47-76.8-58.29C252.94,8.45,311.05,30.73,329.75,66.74z"/>
					<path fill="#8C2D1C" d="M324.49,61.86c0,0-36.15-83.58-94.97-16.23C229.52,45.63,291.03,34.87,324.49,61.86z"/>
					<path fill="#8C2D1C" d="M329.75,66.74c0,0,1.22-78.47-76.8-58.29C252.94,8.45,311.05,30.73,329.75,66.74z"/>
					<path fill="#8C2D1C" d="M450.24,140.86c0,0,7.14-78.15-72.18-63.92C378.06,76.94,434.32,103.54,450.24,140.86z"/>
					<path fill="#F6EB16" d="M403,115.21c0,0-27.56-68-121.65-62.41l-4.87,9.56c0,0,76.63-1.98,121.02,59.32L403,115.21z"/>
				</g>
				<path fill="#93341F" d="M173.8,202.81c-4.92,1.88-20.1,83.35-20.1,83.35s-18.04-74.27-1.23-106.93
					C163.56,157.68,173.8,202.81,173.8,202.81z"/>
				<path fill="#F8A184" d="M288.33,499.84L288.33,499.84c15.37,0,27.83-12.46,27.83-27.82v-89.13h-55.65v89.13
					C260.51,487.38,272.96,499.84,288.33,499.84z"/>
				<path fill="#EE1F47" d="M181.81,788.01h177.88c-0.36-23.82,1.7-48,7.58-73.45c0.72-3.15,2.47-5.91,3.72-8.86
					c0.58-1.55,1.21-3.05,1.79-4.55c0.38-0.87,0.72-1.79,1.11-2.81c0.29-0.82,0.63-1.74,0.92-2.71c0,0-75.25,5.86-143.09-7.11
					c-17.86-3.39-36.34-1.26-52.84,6.49C180.82,711.76,182.2,752.94,181.81,788.01z"/>
				<path fill="#F8A184" d="M132.57,607.27v0.05c-0.39,2.18,3.09,0.92,2.95,2.52c-0.05,0.77,0.34,2.13,1.11,3.87
					c0.63,1.45,1.5,3.19,2.61,5.13c8.28,14.76,27.78,41.18,32.72,44.23c1.98,1.21,4.79,13.69,6.92,31.94
					c16.5-7.75,34.98-9.88,52.84-6.49c67.84,12.97,143.09,7.11,143.09,7.11s0-0.05,0.05-0.1c2.47-8.03,4.55-20.28,3.68-38.04v-0.14
					c-0.73-13.84-3.24-30.87-8.81-51.93c0.97-0.38,2.03-0.82,3.05-1.31c0.14-0.05,0.24-0.1,0.38-0.14c0.15-0.05,0.24-0.1,0.39-0.14
					c1.01-0.44,2.08-0.92,3.15-1.46c1.45-0.72,2.95-1.5,4.45-2.32l1.88-1.02c0.97-0.53,1.94-1.11,2.95-1.69
					c7.55-4.41,15.68-9.83,23.77-15.63c2.9-13.07,4.3-21.58,4.3-23.76c0,0,8.57-31.6-8.13-59.52c-0.09-0.1-0.19-0.24-0.24-0.39
					c-1.55-2.57-3.34-5.08-5.32-7.6c-0.1-0.1-0.19-0.24-0.29-0.34c-1.21-1.45-2.52-2.9-3.92-4.26c-0.05-0.05-0.1-0.1-0.14-0.15
					c-0.53-0.62-8.42-5.9-14.18-9.34c-0.87-0.53-1.69-1.06-2.52-1.5c-1.94-1.21-3.63-2.22-4.79-2.9
					c-7.26-4.35-15.25-7.79-23.76-10.31c-3.05-0.92-6.15-1.74-9.29-2.42c-8.13-1.88-16.65-3.09-25.31-3.68
					c-7.75-0.58-30.1-2.52-55.66-0.97c-18.34,1.12-38.38,4.02-55.84,10.46c-4.4,1.64-8.71,3.48-12.72,5.66
					c-0.83,0.44-1.64,0.87-2.42,1.31l-0.1,0.05c-0.77,0.44-1.5,0.87-2.23,1.31c-5.86,3.53-11.08,7.69-15.43,12.63
					c-0.29,0.29-0.58,0.63-0.77,0.97c-1.21,1.31-2.27,2.71-3.29,4.16c-0.05,0-0.05,0.05-0.05,0.05c-0.83,1.21-1.64,2.47-2.37,3.72
					c-3.34,5.81-6.53,12.87-9.44,20.67C143.7,547.9,135.47,592.37,132.57,607.27z"/>
				<path fill="#F8A184" d="M477.43,788.01c-2.89-85.92-17.93-216.32-77.79-298.53c-2.76-3.79-6.9-6.52-11.55-7.03
					c-9.1-0.97-21.89,6.04-22.15,52.84c-0.25,45.62,23.13,167.81,40.63,252.71H477.43z"/>
				<path fill="#F8A184" d="M205.46,98.82c47.08-43.22,117.19-43.22,164.27,0c45.31,41.59,54.43,106.07,52.97,157.62
					c1.46,47.18-12.59,104.5-57.9,142.56c-47.08,39.55-112.26,41.21-159.34,1.67c-45.31-38.06-54.43-97.05-52.98-144.23
					C151.03,204.9,160.15,140.41,205.46,98.82z"/>
				<path fill="#F47A4B" d="M237.18,290.33h-28.61C208.56,290.33,220.06,316.04,237.18,290.33z"/>
				<path fill="#8F2F1D" d="M192.78,206.35l-1.11,13.91c0,0-14.01-3.72-33.95,2.68l-0.7-8.82
					C157.01,214.12,178.28,203.05,192.78,206.35z"/>
				<path fill="#8F2F1D" d="M291.68,206.35l1.11,13.91c0,0,14.01-3.72,33.96,2.68l0.7-8.82
					C327.44,214.12,306.17,203.05,291.68,206.35z"/>
				<g>
					<path fill="#74403B" d="M238.25,377.81c28.24,0.22,48.07-26.72,46.04-33.07c-0.92-3.5-6.37-2.04-14.66,0.27
						c-8.23,2.26-19.28,5.32-31.38,5.1c-13.88,0.27-26.33-3.81-34.81-6.03c-6.35-1.68-10.45-2.35-11.24,0.66
						C190.19,351.09,210.01,378.03,238.25,377.81z"/>
					<path fill="#FDE6E6" d="M203.45,344.08l2.86,17.2c28.35,14.8,62.03-0.63,62.03-0.63l1.3-15.64c-8.23,2.26-19.28,5.32-31.38,5.1
						C224.37,350.38,211.92,346.3,203.45,344.08z"/>
				</g>
				<g>
					<path fill="#EE1F47" d="M123.19,613.55c3.54,1.26,7.06,2.47,10.55,3.54c0.78,0.24,1.5,0.48,2.27,0.73
						c1.07,0.34,2.18,0.68,3.24,1.01c0.29,0.05,0.53,0.14,0.83,0.24c4.2,1.31,8.37,2.42,12.48,3.48c3.19,0.83,6.34,1.6,9.49,2.27
						c1.74,0.44,3.43,0.78,5.13,1.12c1.21,0.24,2.37,0.48,3.58,0.72c1.98,0.39,3.97,0.77,5.9,1.12c1.99,0.34,3.92,0.68,5.86,0.96
						c2.66,0.44,5.23,0.83,7.79,1.12c2.03,0.29,4.07,0.53,6.05,0.72c2.37,0.29,4.74,0.49,7.01,0.68c2.03,0.2,4.07,0.34,6.05,0.44
						c2.09,0.14,4.17,0.29,6.19,0.34c0.54,0.05,1.07,0.05,1.6,0.05c0.44,0,0.92,0.05,1.36,0.05c2.76,0.1,5.51,0.14,8.27,0.14
						c2.13,0,4.26-0.05,6.34-0.1c1.12,0,2.23-0.05,3.29-0.1c1.16-0.05,2.32-0.1,3.43-0.14c1.21-0.05,2.42-0.1,3.58-0.19
						c1.84-0.1,3.63-0.24,5.42-0.38c1.75-0.15,3.54-0.29,5.28-0.49c2.08-0.2,4.11-0.44,6.15-0.73c2.42-0.29,4.74-0.62,7.06-0.96
						c2.32-0.34,4.65-0.73,6.92-1.16c1.31-0.19,2.56-0.44,3.82-0.73c1.94-0.39,3.87-0.77,5.76-1.21c5.71-1.21,11.18-2.61,16.46-4.16
						c1.98-0.58,3.92-1.16,5.86-1.79c1.4-0.44,2.81-0.87,4.16-1.35c18.2-6.1,33.53-13.55,45.68-20.57c1.26-0.73,2.52-1.46,3.73-2.18
						c0.92-0.53,1.79-1.07,2.66-1.64c2.61-1.6,5.08-3.2,7.31-4.7c-0.68-2.61-1.36-5.23-2.18-7.94
						c-16.25-56.52-0.58-90.49,11.76-106.89c-1.94-1.22-3.63-2.23-4.79-2.9c-7.26-4.35-15.25-7.79-23.76-10.31
						c-3.05-0.92-6.15-1.74-9.29-2.42c-18.63,25.16-59.37,71.67-112.22,81.98c-4.01,0.77-7.69,1.22-10.98,1.26
						c-0.73,0.05-1.4,0.05-2.08,0.05c-0.53,0-1.07,0-1.6-0.05c-33.49-1.4-24.14-40.51-14.23-66.78c0.05-0.14,0.1-0.29,0.19-0.44
						c0.29-0.77,0.58-1.55,0.87-2.32c1.06-2.86,2.22-5.47,3.24-7.89c-4.41,1.64-8.71,3.48-12.73,5.66
						c-0.82,0.44-1.64,0.87-2.42,1.31c-0.05,0-0.1,0.05-0.1,0.05c-0.63,0.14-1.26,0.38-1.94,0.62c-0.1,0.25-0.19,0.44-0.29,0.68
						c-4.02,8.61-12.25,19.26-21.82,30.82c-2.33,2.81-4.75,5.71-7.21,8.61c-0.78,0.92-1.55,1.84-2.33,2.76
						c-10.55,12.34-21.53,25.26-29.95,37.36C110.65,574.84,112.83,596.76,123.19,613.55z"/>
					<path fill="#BB1F2F" d="M123.18,613.56c3.97,6.58,9.2,12.3,15.15,16.94c2.18,1.74,4.4,3.29,6.73,4.69
						c12.48,7.55,20.61,22.65,25.6,35.91c5.03,13.16,6.87,24.53,6.87,24.53c0.44-0.19,0.87-0.44,1.36-0.62
						c16.5-7.75,34.98-9.88,52.84-6.49c67.84,12.97,143.09,7.11,143.09,7.11s0-0.05,0.05-0.1c0.82-1.74,11.13-25.11-2.08-91.41
						c-0.87-4.59-1.89-9.38-3.05-14.42c-2.23,1.5-4.7,3.1-7.31,4.7c-0.87,0.58-1.74,1.11-2.66,1.64c-1.21,0.73-2.42,1.45-3.73,2.18
						c-12.15,7.02-27.48,14.47-45.68,20.57c-1.4,0.48-2.76,0.92-4.16,1.35c-1.94,0.63-3.87,1.21-5.86,1.79
						c-1.75,0.49-3.54,1.02-5.32,1.46c-1.4,0.39-2.86,0.77-4.31,1.11c-2.27,0.58-4.55,1.12-6.82,1.6c-1.89,0.44-3.82,0.87-5.76,1.21
						c-1.26,0.29-2.52,0.53-3.83,0.73c-2.27,0.44-4.54,0.83-6.91,1.16c-2.33,0.39-4.65,0.73-7.06,0.97
						c-2.03,0.29-4.07,0.53-6.15,0.73c-1.74,0.19-3.48,0.34-5.28,0.49c-1.79,0.14-3.58,0.29-5.42,0.38
						c-1.16,0.1-2.37,0.15-3.58,0.19c-0.92,0.05-1.88,0.1-2.9,0.14c-3.29,0.14-6.73,0.19-10.16,0.19c-2.71,0-5.47-0.05-8.27-0.14
						c-0.97,0-1.94-0.05-2.96-0.1c-2.03-0.05-4.11-0.19-6.19-0.34c-1.98-0.1-4.02-0.24-6.04-0.44c-0.34,0-0.68-0.05-1.07-0.1
						c-1.93-0.15-3.92-0.34-5.95-0.58c0,0-0.1,0-0.19-0.05c-1.94-0.14-3.87-0.39-5.86-0.68c-0.73-0.05-1.45-0.15-2.23-0.29
						c-1.84-0.24-3.67-0.53-5.56-0.83c-7.74-1.21-15.68-2.76-23.81-4.69c-2.09-0.48-4.12-0.97-6.15-1.49
						c-4.11-1.07-8.27-2.23-12.48-3.49c-0.29-0.1-0.53-0.2-0.83-0.24l-5.52-1.74C130.24,616.03,126.71,614.82,123.18,613.56z"/>
				</g>
				<path fill="#74403B" d="M310.13,239.41c7.43,0,13.47,6.03,13.47,13.47v17.83c0,7.43-6.03,13.47-13.47,13.47l0,0
					c-7.43,0-13.47-6.03-13.47-13.47v-17.83C296.67,245.44,302.7,239.41,310.13,239.41z"/>
				<path fill="#74403B" d="M170.98,239.41c7.44,0,13.47,6.03,13.47,13.47v17.83c0,7.43-6.02,13.47-13.47,13.47
					c-7.43,0-13.47-6.03-13.47-13.47v-17.83C157.52,245.44,163.55,239.41,170.98,239.41z"/>
				<path fill="#93341F" d="M288.1,116.71c0,0,30.21,76.8,140.58,110.91c0,0,13.81-149.55-140.58-166.05V116.71z"/>
				<path fill="#93341F" d="M317.17,114.09c-2.62,5.24,1.85,54.07-164.82,97.79c0,0-19.11-147.8,135.75-150.31L317.17,114.09z"/>
				<path fill="#93341F" d="M379.33,200.4c5.02,1.61,34.91,89.93,34.91,89.93s25.31-67.39,10.14-94.86
					C412.64,174.27,379.33,200.4,379.33,200.4z"/>
				<path fill="#FFFFFF" d="M194.77,469.26c0,0,12.34-6.95,23.96-8.55c-5.54,11.15-23.36,48.5-13.74,62.54
					c3.57,5.22,10.87,7.34,21.75,6.36c56.51-5.2,100.04-72.19,100.6-72.94c0,0,20.31,3.57,21.34,4.35
					c-2.4,3.26-60.99,82.43-124,88.23c-2.18,0.2-4.27,0.3-6.28,0.3c-13.24,0-22.91-4.33-28.78-12.92
					C173.44,513.03,192.18,474.44,194.77,469.26z"/>
				<g>
					<path fill="#818478" d="M115.27,252.02l1.04,19.65c0.48,9.03,4.34,17.39,10.33,22.36c14.14,11.74,28.24,15.81,40.48,15.81
						c15.46,0,27.95-6.49,33.77-12.24c9.68-9.59,21.8-10.16,21.92-10.12c0,0,12.36,0.53,22.05,10.12
						c5.81,5.75,18.3,12.24,33.76,12.24c12.24,0,26.35-4.07,40.48-15.81c5.99-4.97,9.85-13.32,10.33-22.36l1.04-19.65
						c0.21-4.06-0.92-8.07-3.13-11c-2.2-2.93-5.27-4.53-8.46-4.43l-96.01,3.58l-96.01-3.58c-3.19-0.1-6.25,1.49-8.45,4.43
						C116.2,243.95,115.06,247.96,115.27,252.02z M120.93,251.53c-0.11-2.05,0.44-3.99,1.55-5.47c1.12-1.48,2.56-2.28,4.21-2.2
						l96.18,3.58l96.17-3.58c1.65-0.08,3.1,0.73,4.21,2.2c1.11,1.48,1.66,3.42,1.56,5.47l-1.04,19.66
						c-0.36,6.76-3.26,13.02-7.75,16.75c-29.45,24.43-58.32,13.19-67.7,3.91c-12-11.89-24.8-11.56-25.39-11.35
						c-0.58-0.21-13.51-0.54-25.51,11.35c-9.37,9.27-38.25,20.52-67.69-3.91c-4.5-3.73-7.4-10-7.76-16.75L120.93,251.53z"/>
					<g>
						<path fill="#818478" d="M115.44,246.85l0.01,0.1c0.01,0.81,0.25,3.3,2.63,6.18c0.08,0.09,0.18,0.18,0.26,0.27
							c0.32,0.37,0.65,0.74,1.03,1.1c0.23,0.21,0.48,0.43,0.72,0.64c0.27,0.24,0.54,0.47,0.84,0.71c0.31,0.24,0.64,0.47,0.96,0.7
							c0.29,0.2,0.57,0.4,0.88,0.6c0.38,0.25,0.78,0.48,1.19,0.72c0.31,0.18,0.6,0.36,0.93,0.53c0.45,0.25,0.95,0.49,1.44,0.73
							c0.33,0.16,0.65,0.32,0.99,0.47c0.55,0.25,1.14,0.49,1.74,0.73c0.33,0.14,0.65,0.27,1,0.4c0.71,0.27,1.46,0.53,2.22,0.78
							c0.29,0.1,0.55,0.2,0.85,0.29c1.1,0.35,2.25,0.69,3.45,1.01c0.25,0.07,0.53,0.12,0.79,0.19c1.09,0.28,2.21,0.55,3.41,0.81
							c0.64,0.14,1.31,0.26,1.97,0.38c0.89,0.18,1.77,0.36,2.72,0.51c0.74,0.13,1.53,0.24,2.3,0.36c0.92,0.14,1.84,0.29,2.81,0.42
							c0.84,0.11,1.74,0.21,2.61,0.31c0.97,0.12,1.92,0.23,2.94,0.33c0.98,0.1,2.01,0.18,3.02,0.27c0.97,0.08,1.93,0.18,2.95,0.25
							c1.2,0.08,2.46,0.15,3.71,0.22c0.9,0.05,1.77,0.1,2.7,0.15c1.62,0.07,3.31,0.12,5,0.17c0.64,0.02,1.24,0.05,1.89,0.06
							c2.44,0.05,4.94,0.08,7.52,0.08c1.89,0,3.88-0.03,5.85-0.06c0.87-0.01,1.68-0.01,2.57-0.03c1.75-0.04,3.59-0.1,5.39-0.16
							c1.25-0.04,2.44-0.07,3.72-0.11c2.65-0.1,5.38-0.25,8.14-0.39c0.49-0.03,0.94-0.05,1.44-0.07c3.37-0.19,6.81-0.41,10.34-0.66
							c1.46-0.1,3.01-0.1,4.48,0c3.5,0.25,6.92,0.47,10.27,0.66c1.07,0.07,2.06,0.1,3.11,0.15c2.2,0.12,4.42,0.23,6.55,0.32
							c1.23,0.05,2.37,0.06,3.55,0.1c1.87,0.07,3.76,0.13,5.57,0.17c0.76,0.01,1.45,0.01,2.2,0.03c2.1,0.03,4.2,0.06,6.21,0.06h0.02
							c2.57,0,5.08-0.03,7.51-0.08c0.64-0.01,1.22-0.04,1.84-0.06c1.71-0.05,3.41-0.1,5.04-0.17c0.95-0.05,1.83-0.1,2.75-0.16
							c1.23-0.06,2.48-0.13,3.67-0.21c1.02-0.07,1.98-0.16,2.96-0.25c1.01-0.08,2.04-0.16,3.02-0.26c1.01-0.1,1.96-0.22,2.92-0.33
							c0.88-0.1,1.77-0.2,2.63-0.31c0.96-0.13,1.85-0.27,2.75-0.41c0.79-0.12,1.6-0.23,2.37-0.37c0.9-0.16,1.73-0.32,2.58-0.49
							c0.7-0.14,1.43-0.26,2.11-0.41c1.01-0.21,1.94-0.45,2.87-0.68c0.43-0.1,0.9-0.2,1.31-0.31c1.21-0.32,2.36-0.66,3.46-1.02
							c0.26-0.08,0.49-0.17,0.73-0.25c0.81-0.27,1.59-0.54,2.34-0.83c0.32-0.12,0.62-0.25,0.94-0.38c0.62-0.25,1.23-0.5,1.8-0.76
							c0.34-0.15,0.64-0.31,0.96-0.46c0.5-0.24,0.99-0.48,1.46-0.73c0.32-0.18,0.62-0.35,0.92-0.53c0.41-0.24,0.82-0.48,1.2-0.73
							c0.31-0.2,0.58-0.4,0.87-0.6c0.32-0.23,0.66-0.46,0.96-0.7c0.3-0.24,0.57-0.47,0.84-0.71c0.24-0.21,0.49-0.42,0.71-0.64
							c0.38-0.36,0.71-0.73,1.03-1.1c0.08-0.09,0.18-0.18,0.26-0.27c2.45-2.97,2.64-5.56,2.63-6.28l0,0l0,0h-0.01l-5.65,0.02v-0.04
							c0.01-0.27,0.03-0.43,0.03-0.43l0.01-0.03l-0.01,0.01v-0.01c-0.03,0.14-3.37,10.74-44.45,13.19c-0.05,0.01-0.1,0.01-0.14,0.01
							c-1.56,0.09-3.18,0.17-4.85,0.23c-0.29,0.01-0.58,0.03-0.88,0.03c-1.47,0.06-2.99,0.1-4.54,0.14
							c-0.4,0.01-0.78,0.02-1.18,0.03c-1.62,0.03-3.3,0.05-5.02,0.05c-0.29,0-0.58,0.01-0.88,0.01c-0.81,0-1.69-0.01-2.52-0.01
							c-1.69-0.01-3.41-0.03-5.18-0.05c-0.94-0.02-1.91-0.05-2.87-0.07c-1.77-0.05-3.59-0.1-5.46-0.16
							c-0.97-0.03-1.94-0.07-2.93-0.11c-2.1-0.09-4.26-0.19-6.47-0.31c-0.82-0.04-1.62-0.08-2.46-0.12
							c-3.11-0.18-6.31-0.38-9.64-0.62c-1.48-0.1-3.04-0.1-4.52,0c-75.56,5.44-93.71-5.8-97.92-10.39
							c3.07,3.37,13.61,10.29,48.71,11.63c-46.12-1.75-49.83-13.14-49.92-13.45v-0.01v-0.01v0.01v-0.01c0,0,0.01,0.17,0.02,0.26
							c0.01,0.08,0.01,0.07,0.01,0.23L115.44,246.85L115.44,246.85L115.44,246.85z M115.44,246.85h0.02H115.44L115.44,246.85z
							 M182.72,260.06c-1.62,0-3.16-0.03-4.69-0.05C179.56,260.04,181.1,260.06,182.72,260.06z M176.64,260
							c-1.94-0.03-3.81-0.08-5.63-0.16C172.82,259.92,174.7,259.97,176.64,260z M195.49,259.88c0.23-0.01,0.45-0.01,0.69-0.01
							C195.94,259.87,195.73,259.88,195.49,259.88z M185.77,260.05c1.15-0.01,2.27-0.01,3.46-0.02
							C188.04,260.04,186.92,260.04,185.77,260.05z M233.96,259.21c-2.19-0.13-4.46-0.28-6.76-0.44
							C229.49,258.93,231.77,259.08,233.96,259.21z M242.78,259.64c-1.58-0.06-3.22-0.15-4.86-0.23
							C239.57,259.49,241.21,259.58,242.78,259.64z M251.01,259.92c-1.37-0.03-2.76-0.07-4.19-0.12
							C248.24,259.84,249.63,259.88,251.01,259.92z M258.54,260.05c-1.18-0.01-2.37-0.02-3.6-0.04
							C256.17,260.03,257.36,260.03,258.54,260.05z M268.65,260h-0.04H268.65z M324.17,246.87h-0.01l0,0H324.17z M329.82,246.86
							c0,0-0.01,0.14-0.01,0.19c0-0.05,0.01-0.15,0.01-0.15V246.86z M325.4,254.96c0.15-0.14,0.32-0.27,0.45-0.4
							C325.71,254.69,325.55,254.82,325.4,254.96z M323.56,256.43c0.24-0.18,0.49-0.35,0.72-0.52
							C324.05,256.09,323.8,256.26,323.56,256.43z M321.5,257.78c0.32-0.19,0.64-0.38,0.94-0.57
							C322.14,257.41,321.81,257.59,321.5,257.78z M319.15,259.04c0.39-0.19,0.79-0.38,1.15-0.57
							C319.93,258.67,319.54,258.86,319.15,259.04z M316.47,260.25c0.47-0.19,0.96-0.39,1.4-0.59
							C317.42,259.86,316.95,260.06,316.47,260.25z M313.4,261.4c0.58-0.2,1.18-0.4,1.73-0.6
							C314.57,261.01,313.99,261.21,313.4,261.4z M309.15,262.71c1.01-0.27,1.99-0.55,2.91-0.84
							C311.13,262.16,310.15,262.44,309.15,262.71z M303.24,264.09c0.38-0.08,0.79-0.14,1.15-0.22
							C304.02,263.94,303.62,264.01,303.24,264.09z M298.15,265c0.5-0.08,1.03-0.16,1.53-0.24
							C299.19,264.84,298.66,264.92,298.15,265z M292.79,265.74c0.58-0.07,1.18-0.13,1.74-0.21
							C293.96,265.61,293.37,265.67,292.79,265.74z M286.98,266.35c0.66-0.06,1.33-0.11,1.97-0.18
							C288.31,266.24,287.64,266.29,286.98,266.35z M280.64,266.82c0.77-0.05,1.57-0.08,2.31-0.14
							C282.2,266.73,281.41,266.77,280.64,266.82z M273.61,267.14c0.97-0.03,1.98-0.05,2.92-0.1
							C275.58,267.09,274.58,267.11,273.61,267.14z M269.64,267.27c-1.48,0.03-3.02,0.03-4.54,0.05
							C266.62,267.3,268.18,267.3,269.64,267.27z M175.64,267.27c1.42,0.03,2.93,0.03,4.41,0.05
							C178.57,267.3,177.07,267.3,175.64,267.27z M168.74,267.04c0.96,0.05,1.98,0.07,2.96,0.1
							C170.71,267.11,169.7,267.09,168.74,267.04z M162.31,266.68c0.77,0.05,1.59,0.09,2.38,0.14
							C163.89,266.77,163.08,266.73,162.31,266.68z M156.32,266.17c0.64,0.07,1.33,0.12,1.99,0.18
							C157.64,266.29,156.96,266.24,156.32,266.17z M150.74,265.53c0.56,0.08,1.16,0.14,1.73,0.21
							C151.9,265.67,151.31,265.61,150.74,265.53z M145.61,264.76c0.46,0.08,0.97,0.15,1.45,0.22
							C146.58,264.91,146.07,264.84,145.61,264.76z M140.89,263.87c0.32,0.07,0.69,0.13,1.02,0.2
							C141.58,264,141.22,263.94,140.89,263.87z M133.23,261.86c0.77,0.25,1.6,0.48,2.43,0.71
							C134.83,262.35,134,262.11,133.23,261.86z M130.15,260.8c0.52,0.2,1.09,0.39,1.65,0.58C131.24,261.19,130.67,261,130.15,260.8
							z M127.4,259.67c0.44,0.19,0.9,0.38,1.36,0.57C128.3,260.05,127.84,259.86,127.4,259.67z M124.96,258.47
							c0.36,0.19,0.75,0.39,1.14,0.58C125.71,258.86,125.32,258.66,124.96,258.47z M122.83,257.21c0.29,0.19,0.62,0.38,0.94,0.57
							C123.45,257.6,123.13,257.41,122.83,257.21z M120.98,255.91c0.23,0.18,0.48,0.36,0.73,0.53
							C121.46,256.26,121.21,256.09,120.98,255.91z M119.41,254.55c0.14,0.14,0.31,0.27,0.45,0.4
							C119.72,254.82,119.55,254.69,119.41,254.55z"/>
						<path fill="#818478" d="M121.55,247.28c0,0-0.03-0.04-0.04-0.06C121.52,247.24,121.54,247.26,121.55,247.28z"/>
						<path fill="#818478" d="M121.51,247.22c-0.06-0.1-0.13-0.2-0.18-0.29C121.38,247.01,121.44,247.11,121.51,247.22z"/>
						<path fill="#818478" d="M121.29,246.85c-0.04-0.07-0.08-0.14-0.1-0.19C121.21,246.71,121.25,246.78,121.29,246.85z"/>
						<path fill="#818478" d="M121.33,246.93c0,0-0.03-0.05-0.04-0.08C121.3,246.88,121.31,246.9,121.33,246.93z"/>
						<path fill="#818478" d="M121.83,247.66c-0.1-0.13-0.2-0.26-0.28-0.38C121.63,247.4,121.72,247.53,121.83,247.66z"/>
						<path fill="#818478" d="M122.29,248.21c-0.01-0.01-0.02-0.03-0.02-0.03S122.28,248.2,122.29,248.21z"/>
						<path fill="#818478" d="M121.83,247.66c0.01,0.02,0.02,0.04,0.02,0.04S121.84,247.68,121.83,247.66z"/>
						<path fill="#818478" d="M121.87,247.72c0.11,0.14,0.24,0.29,0.39,0.45C122.11,248.01,121.98,247.85,121.87,247.72z"/>
						<polygon fill="#818478" points="121.07,246.38 121.07,246.38 121.07,246.38 						"/>
						<path fill="#818478" d="M121.07,246.38c0,0,0.02,0.05,0.03,0.09c-0.02-0.05-0.03-0.08-0.03-0.08L121.07,246.38z"/>
						<path fill="#818478" d="M121.18,246.66c-0.02-0.04-0.03-0.07-0.04-0.1C121.16,246.59,121.17,246.62,121.18,246.66z"/>
						<path fill="#818478" d="M121.15,246.56l-0.04-0.08L121.15,246.56z"/>
					</g>
					
						<rect x="219.75" y="244.02" transform="matrix(-1 -1.224647e-16 1.224647e-16 -1 445.2625 531.0669)" fill="#818478" width="5.77" height="43.03"/>
					<g>
						
							<rect x="297.37" y="238.88" transform="matrix(-1 -1.224647e-16 1.224647e-16 -1 600.5202 500.2689)" fill="#818478" width="5.77" height="22.51"/>
						
							<rect x="142.12" y="238.88" transform="matrix(-1 -1.224647e-16 1.224647e-16 -1 290.0049 500.2689)" fill="#818478" width="5.77" height="22.51"/>
					</g>
				</g>
				<g>
					<polygon fill="#818478" points="324.06,236.71 371.94,243.54 371.94,247.48 330.9,247.48 					"/>
					<polygon fill="#818478" points="371.94,274.64 371.94,280.44 319.1,293.55 325.2,282.18 					"/>
					<polygon fill="#010101" points="369.33,243.71 369.33,281.08 409.6,279.57 407.86,245.97 					"/>
				</g>
				<path fill="#F47A4B" d="M397.69,259.56c-0.09-9.1,5.36-17.37,13.82-20.72c8.05-3.19,18.18-4,26.6,6.19
					c16.21,19.63-1.28,69.12-14.08,74.24c-12.8,5.12-19.28-0.09-22.01-2.51C397.5,312.76,397.89,279.07,397.69,259.56z"/>
				<path fill="#91484B" d="M192.78,206.35l-1.11,13.91c0,0-14.01-3.72-33.95,2.68l-0.7-8.82
					C157.01,214.12,178.28,203.05,192.78,206.35z"/>
			</g>
			<polygon fill="#FFFFFF" points="251.32,680.87 237.76,663.86 213.21,663.64 199.94,680.92 199.94,698.84 216.64,698.84 
				216.64,689.63 220.38,684.8 230.74,684.8 235.47,690.85 235.47,706.56 230.33,713.26 223.5,713.26 223.5,733.88 230.41,733.88 
				235.47,740 235.47,758.21 230.86,764.22 221.12,764.22 216.64,758.78 216.64,748.3 199.94,748.3 199.94,768.57 213.18,786.04 
				237.78,786.04 251.32,768.61 251.32,730.64 246.12,723.98 251.32,717.57 			"/>
		</g>
	</g>
</g>
</svg>
