<?xml version="1.0" encoding="utf-8"?>
<!-- Generator: Adobe Illustrator 25.2.3, SVG Export Plug-In . SVG Version: 6.00 Build 0)  -->
<svg version="1.1" id="Layer_1" xmlns="http://www.w3.org/2000/svg" xmlns:xlink="http://www.w3.org/1999/xlink" x="0px" y="0px"
	 viewBox="0 0 576 576" enable-background="new 0 0 576 576" xml:space="preserve">
<g>
	<g>
		<defs>
			<path id="SVGID_1_" d="M575.07,287.68c0,158.88-128.79,287.69-287.68,287.69S-0.29,446.56-0.29,287.68
				C-0.29,128.8,128.51,0,287.39,0S575.07,128.8,575.07,287.68z"/>
		</defs>
		<use xlink:href="#SVGID_1_"  overflow="visible" fill="#F9E3D9"/>
		<clipPath id="SVGID_2_">
			<use xlink:href="#SVGID_1_"  overflow="visible"/>
		</clipPath>
		<g clip-path="url(#SVGID_2_)">
			<path fill="#6C2619" d="M318,70c0,0-114.8-94.9-200.42,55.65C10.96,313.12,174.38,331.08,7.36,466.27
				c-52.93,42.85,106.22,65.32,106.22,65.32L318,70z"/>
			<polygon fill="#ED7154" points="-184.8,375.89 -184.8,482.62 -172.75,481.32 -172.75,375.89 			"/>
			<polygon fill="#F68E5A" points="-172.75,375.89 -172.75,481.32 -136.66,477.54 -136.66,375.89 			"/>
			<path fill="#17424E" d="M-180.62,625.61c0,0,210.1-1.33,240.54,4.65c48.87,9.6,45.36-133.01,28.97-148.01
				c-16.4-15-119.08,73.09-245.13,65.84C-156.24,548.1-124.81,600.8-180.62,625.61z"/>
			<path fill="#17424E" d="M-131.75,423.69c0,0-18.6-23.43-58.48-5.59c0,0-4.14,204.57,9.62,207.51
				c13.75,2.93,99.27-31.55,56.12-71.95L-131.75,423.69z"/>
			<path fill="#5E2117" d="M279.89,85.24l-32.92,60.5L151.55,321c0,0,90.12,385.08,141.91,331.14
				c51.73-53.93-2.23-46.23,98.51-179.08c50.84-67.06,112.5-166.77,104.45-243.3c-8.36,6.39-15.73-5.19-27.24,1.14
				c-14.77,8.1-30.19,13.59-41.16,10.03c-28.42-9.28-16.09,31.48-39.26,35.29c-23.17,3.8-11.01-44.82-23-31.56
				c-10.41,11.52-38.32,73.01-50.78,33.45c-8.21-51.23,9.1-95.6,19.02-115.84l0.03-0.03c3.74-7.53,6.42-11.72,6.42-11.72
				s-0.3-0.38-0.84-1.16c17.46-26.12,36.16-41.49,36.16-41.49s3.62,6.86,8.56,14.81c8.83,14.16,21.97,31.89,26.63,20.72
				c5.09-12.26,10.61-16.44,21.28-10.76c4.52,2.39,9.94,6.53,16.71,12.59c15.73,14.07,18.32,8.41,20.74-8.41
				c-7.77-15.68-17.08-30.47-27.92-43.98c-56.73-70.81-147.4-37.76-177.56-10.65l38.86-22.38C288.52,72.9,279.89,85.24,279.89,85.24
				z"/>
			<path fill="#FFFFFF" d="M271.52,467.58L181.55,656.4l-17.3-196.1C204.41,455.63,240.46,459.54,271.52,467.58z"/>
			<path fill="#17424E" d="M79.81,766.16c-1.57-16.81-4.83-32.26-10.67-44.67c-4.46-9.54-9.95-17-16.46-21.79
				c-5.2-3.85-9.85-7.8-14.01-11.88C6.73,656.6,4.56,619.18,23.82,586.17c18.43-31.64,59.3-105.46,59.3-105.46
				c6.29-2.42,12.48-4.59,18.6-6.55c21.81-7.1,42.66-11.53,62.54-13.86l17.3,196.1l89.97-188.81c27.64,7.14,51.36,17.56,70.45,28.08
				c35.52,19.55,55.28,39.45,55.28,39.45l-51.62,231.05H79.81z"/>
			<path fill="#ED7154" d="M277.47,432.8c1.8-50.39,27.74-142.55,28.67-149.27c0,0-103.59,6.53-100.68,50.96
				c2.33,35.91-27.22,84.26-38.57,101.46C222.31,443.01,257.38,438.31,277.47,432.8z"/>
			<path fill="#6C2619" d="M339.6,149.36c17.46-26.12,36.16-41.49,36.16-41.49s3.62,6.86,8.56,14.81
				c8.83,14.16,21.97,31.89,26.63,20.72c5.09-12.26,10.61-16.44,21.28-10.76c-11.35-13.18-25.67-24.03-43.53-31.52
				c-1.93-0.82-3.98-1.62-6.01-2.35C279.45,61.39,332.11,138.84,339.6,149.36z"/>
			<path fill="#F8A479" d="M167.92,148.18c-26.53,71.26-24.77,88.25-42.04,108.86c-17.69,21.09,18.25,142.29,53.46,151.16
				c10.46,2.64,70.21,5.91,123.16-13.14c3.3-5.02,6.87-10.9,10.75-17.69c24.48-43.09-10.25-93.03-9.19-132.15
				c1.07-39.11,29.95-82.95,29.95-82.95l50.84,26.22c-12.96-51.61-47.46-93-122.86-93.31C258.22,95.18,193.15,80.34,167.92,148.18z"
				/>
			<g>
				<path fill="#F57F42" d="M351.17,332.64c6.35-21.17,23.58-37.47,46.76-43.61c14.79-3.16,30.79-1.67,36.35,13.44
					c8.57,24.82-25.45,67.27-62.21,70.83c-13.68,2.01-24.34-7.29-24.08-20.34C348.05,347.25,348.83,340.35,351.17,332.64z"/>
				<path fill="#E96B42" d="M418.05,325.14c0,0-3.69,10.26-6.33,4.48c-2.64-5.78-11.37-22.8-16.01-10.82
					c-4.63,11.99,2.11,25.94-10.54,29.01c-12.64,3.07-12.39,1.28-13.18-3.18c0,0,10.85,1.72,13.21-4.07
					c2.36-5.78,6.95-8.71,6.45-8.97c-0.51-0.26-4.65-8.98-4.65-8.98l3.41-11.89l7.5-5.26l17.56,4.9
					C415.49,310.37,420.63,318.36,418.05,325.14z"/>
				<path fill="#C84830" d="M408.88,305.45c0,0,16.23,9.83,6.31,19.09c-9.92,9.26,7.97-6.03-5.7-11.96
					c-13.68-5.94-11.98-7.27-17.03-1.59c-5.05,5.69-3.7,10.4,1.01,19.46c4.71,9.06-21.51,19.85-22.36,14.29
					c-0.92-6.01,21.12-4.98,18.06-12.64c-3.06-7.66-6.47-20.07-0.53-24.74C394.59,302.69,405.44,303.49,408.88,305.45z"/>
			</g>
			<path fill="#F2885A" d="M229.38,228.26c-1.43-1.43-20.14,40.57-47.61,46.24c-34.2,7.07,14.12,37.21,33.16,27.25
				c19.03-9.96,3.95-17.89-1.1-16.44C208.79,286.78,234.84,233.76,229.38,228.26z"/>
			<path fill="#3A160F" d="M316.13,216.04c-0.67,3.61-1.27,7.36-1.75,11.17c10.81,6.02,21.87,13.42,28.52,21.58
				c1.11,1.39-7.04-21.33-20.62-29.27C320.51,218.48,318.44,217.29,316.13,216.04z"/>
			<path fill="#ED7154" d="M310.15,212.78c-1.15,3.46-2.14,7-2.98,10.58c2.38,1.19,4.8,2.48,7.23,3.85
				c0.48-3.81,1.08-7.56,1.75-11.17C314.23,215,312.23,213.89,310.15,212.78z"/>
			<path fill="#ED7154" d="M316.13,216.04c-0.67,3.61-1.27,7.36-1.75,11.17c-2.43-1.37-4.85-2.67-7.23-3.85
				c-1.76,7.25-2.9,14.64-3.09,21.88c-1.06,39.11,33.66,89.06,9.18,132.15c-3.87,6.79-7.45,12.66-10.75,17.69
				c40.32-14.45,76.69-41.89,84.46-92.35c5.53-35.84,7.15-77.59-2.1-114.22l-50.84-26.22c0,0-15.13,22.97-23.86,50.49
				C312.23,213.89,314.23,215,316.13,216.04z"/>
			<path fill="#6C2619" d="M146.84,158.88c31.44-21.52,48.72-32.63,100.13-13.14c8.73,3.32,18.23,6.88,28.67,10.59
				c24.24,8.61,42.36,9.36,55.66,6.56c0.95-0.19,1.82-0.42,2.68-0.62l0.03-0.03c3.74-7.53,41.74-54.37,41.74-54.37
				s3.62,6.86,8.56,14.81c4.72-6.03,7.62-13.46,4.38-21.56c-4.53-11.41-21.18-24.1-61.84-36.16c-8.21-2.42-16.15-4.12-23.79-5.2
				l-0.02,0.04C204.21,46.27,146.84,158.88,146.84,158.88z"/>
			<g>
				<path fill="#8B491F" d="M237.81,364.51c-1.06,1.76-2.41,3.35-4.12,4.92c-7.88,8.06-21.4,13.73-37.1,8.96
					c-10.63-3.22-20.79-8.04-27.38-16.24c-0.06,0.15-0.06,0.15-0.14-0.09c-4.77-6.15-7.6-14.37-6.98-24.89c0,0-1.17-8.76,7.08-7.64
					c1.38,0.09,3.12,0.6,5.23,1.54c13.88,5.96,34.57,13.1,50.07,11.61c9.19-0.84,14.48,3.17,15.9,8.88
					C241.47,355.41,240.58,360.26,237.81,364.51z"/>
				<path fill="#FFFFFF" d="M240.36,351.57c-16.87,10.15-42.16,7.64-58.08-3.83c-8.77-6.36-12.02-13.13-13.12-18.2
					c1.38,0.09,3.12,0.6,5.23,1.54c13.88,5.96,34.57,13.1,50.07,11.61C233.65,341.85,238.94,345.85,240.36,351.57z"/>
				<path fill="#F16162" d="M233.69,369.43c-7.88,8.06-21.4,13.73-37.1,8.96c-10.63-3.22-20.79-8.04-27.38-16.24
					C182.9,360.07,212.37,357.17,233.69,369.43z"/>
			</g>
			<path fill="#EE7376" d="M313.06,333.5c-0.78,13.57-15.09,23.8-31.96,22.82c-16.87-0.97-29.92-12.75-29.14-26.33
				c0.78-13.57,15.08-23.79,31.96-22.82C300.79,308.14,313.84,319.93,313.06,333.5z"/>
			<path fill="#EE7376" d="M158.09,305.47c-7.12,6.35-19.28,4.31-27.17-4.53c-7.88-8.84-8.51-21.16-1.39-27.51
				c7.12-6.35,19.28-4.31,27.17,4.53C164.57,286.82,165.2,299.13,158.09,305.47z"/>
			<path fill="#5E2117" d="M264.53,461.19l41.7,36.91c0,0,32.6-10.87,70.15,19.62l-3.92-44.1l-41.87,0.25L264.53,461.19z"/>
			<path fill="#F68E5A" d="M165.41,535.46c51.97,27.21,115.41-22.78,139.31-47.91c-16.7-16.08-24.19-28.46-24.35-28.74v-0.03
				c-2.5-5.69-3.32-14.8-2.9-25.98c-20.09,5.51-55.16,10.21-110.58,3.15c-1.44,2.18-2.58,3.84-3.36,4.94
				c-2.02,2.61-3.91,3.3-5.42,4.78c-7.34,7.12-20.84,10.2-36.35,12.99C117.66,482.43,121.05,512.25,165.41,535.46z"/>
			<path fill="#17424E" d="M480.16,766.16c-15.53-26.44-53.23-87.53-90.85-124.86c-17.82-17.72-31.06-19.94-40.71-15.49
				c-3.78-41.11,43.33-91.48,43.33-91.48c29.87-4.34,128.37,177.55,163.63,231.84H480.16z"/>
			<path fill="#11343D" d="M254.61,766.16c14.96-19.46,24.33-32.48,24.33-32.48c-110.06,7.69-254.71-63.33-254.71-63.33
				c266.57,100.67,326.34-45.34,326.34-45.34l29.74,36.93c0.67,12.44-9.33,54.93-22.4,104.21H254.61z"/>
			<path fill="#11343D" d="M461.71,766.16c-19.67-28.01-59.08-80.73-95.71-109.2c-11.26-8.73-16.34-19.59-17.39-31.15
				c9.65-4.44,22.89-2.23,40.71,15.49c37.62,37.33,75.32,98.43,90.85,124.86H461.71z"/>
			<path fill="#11343D" d="M233.05,732.89c-18.09,6.36-135.36-7.84-163.92-11.4c-4.46-9.54-9.95-17-16.46-21.79
				c-5.2-3.85-9.85-7.8-14.01-11.88L24.5,668.59c2.45,1.83,11.3,6.57,11.3,6.57l27.13,9.99l18.38,6.44l16.12,5.22l30.8,8.06
				l57.62,7.65l39.43,5.17L233.05,732.89z"/>
			<polygon fill="#11343D" points="181.55,656.4 103.87,450.85 167.37,431.36 			"/>
			<polygon fill="#11343D" points="342.27,495.86 181.55,656.4 271.52,467.58 282.66,452.08 341.98,495.66 			"/>
			<polygon fill="#11343D" points="151.26,514.37 113.58,531.59 181.55,656.4 			"/>
			<polygon fill="#11343D" points="231.5,560.46 274.58,592.72 181.55,656.4 			"/>
			<path fill="#6C2619" d="M314.97,278.12c2.96,18.58,9.28,38.06,20.53,57.64c53.75,93.64-128.06,191.52-128.06,191.52l56.9-11.61
				c68.61-17.58,93.01-56.61,136.5-101.22c13.29-13.62,24.76-28.53,31.73-44.02c13.24-29.45,41.19-88.52,36.6-139.53
				c-14.77,8.1-30.19,13.59-41.16,10.03c-28.42-9.28-16.09,31.48-39.26,35.29c-23.17,3.8-11.01-44.82-23-31.56
				C355.34,256.19,327.43,317.67,314.97,278.12z"/>
			<path fill="#6C2619" d="M316.5,286.28c0,0,12.57,49.77-18.35,88.37c0,0,41.78-12.44,49.97-40.17L316.5,286.28z"/>
			<polygon fill="#EF8158" points="207.4,200.36 203.1,243.72 186.08,227.43 167.46,225.09 153.66,231.93 153.7,194.04 
				163.96,187.16 198.3,189.16 			"/>
			<path fill="#EF8158" d="M256.6,226.14l-12.07,30.04l16.68-1.95l14.95,2.65l8.81,4.6l5.84,15.72l33.4-27.19
				c0,0-42.43-21.66-43.54-22.21s-15.11-3.33-15.11-3.33L256.6,226.14z"/>
			<path fill="#6C2619" d="M155.19,186.3l-1.5,7.75c0,0,35.08-8.6,53.71,6.32l3-15.59C210.4,184.77,171.04,175.42,155.19,186.3z"/>
			<path fill="#6C2619" d="M328.34,248.98l-2.51,8.25c0,0-38.75-34.49-69.23-31.09l4.44-14.58
				C261.05,211.56,315.45,229.45,328.34,248.98z"/>
			<path fill="#6C2619" d="M182.09,221.42c-19.53-6.16-29.56,11.55-29.56,11.55s0.4-0.4,1.13-1.04l-1.13,1.04
				c0,0,26.18-12.03,50.57,10.75C203.1,243.72,201.61,227.59,182.09,221.42z"/>
			<path fill="#6C2619" d="M274.81,251.45c19.2,7.1,16.26,27.25,16.26,27.25s-0.06-0.56-0.25-1.52l0.25,1.52
				c0,0-13.29-25.57-46.53-22.53C244.54,256.17,255.6,244.34,274.81,251.45z"/>
			<path fill="#993B21" d="M334,162.25l-0.02,0.03c-5.57,11.37-13.44,30.28-17.85,53.77c-0.67,3.61-1.27,7.36-1.75,11.17
				c-2,15.62-2.27,32.83,0.6,50.9c12.44,39.55,40.35-21.94,50.75-33.46c12-13.24-0.17,35.36,23.01,31.58
				c23.17-3.82,10.82-44.57,39.26-35.3c10.98,3.57,26.39-1.92,41.16-10.03c11.52-6.34,18.88,5.25,27.27-1.14
				c-3.46-32.39-12.49-64.15-26.78-92.93c-2.43,16.8-5,22.47-20.74,8.4c-6.75-6.07-12.19-10.21-16.72-12.59
				c-10.65-5.68-16.17-1.5-21.26,10.74c-4.65,11.18-17.8-6.55-26.63-20.71c-4.93-7.93-8.54-14.81-8.54-14.81
				S337.78,154.71,334,162.25z"/>
			<g>
				<path fill="#6C2619" d="M267.7,107.51c0,0-82.32,35.66-82.36,108.23c0,0-44.19-54.89,7.49-91.02
					C244.51,88.6,267.7,107.51,267.7,107.51z"/>
				<path fill="#6C2619" d="M302,97.93c0,0-82.33,35.66-82.37,108.23c0,0-44.19-54.89,7.49-91.02C278.81,79.01,302,97.93,302,97.93z
					"/>
			</g>
		</g>
	</g>
</g>
</svg>
