<?xml version="1.0" encoding="utf-8"?>
<!-- Generator: Adobe Illustrator 25.2.3, SVG Export Plug-In . SVG Version: 6.00 Build 0)  -->
<svg version="1.1" id="Layer_1" xmlns="http://www.w3.org/2000/svg" xmlns:xlink="http://www.w3.org/1999/xlink" x="0px" y="0px"
	 viewBox="0 0 576 576" enable-background="new 0 0 576 576" xml:space="preserve">
<g>
	<g>
		<defs>
			<circle id="SVGID_1_" cx="287.92" cy="288.08" r="288.08"/>
		</defs>
		<use xlink:href="#SVGID_1_"  overflow="visible" fill="#F9E3D9"/>
		<clipPath id="SVGID_2_">
			<use xlink:href="#SVGID_1_"  overflow="visible"/>
		</clipPath>
		<g clip-path="url(#SVGID_2_)">
			<polygon fill="#833D23" points="174.07,178.41 171.26,199.01 158.94,182.85 			"/>
			<path fill="#AFD3E3" d="M94.66,741.4c4.78-41.28,13-103.59,22.63-139.08c11.95-43.98,47.3-74.09,61.24-84.99l4.4-25.47
				c-4.35,0.69-62.84,33.96-83.05,88.39C84.11,622.79,66.66,706.6,59.75,741.4H94.66z"/>
			<path fill="#D4E1E7" d="M174.04,741.4l15.6-57.81l-14.27-167.23c-13.94,10.91-46.14,41.99-58.09,85.96
				c-9.63,35.49-17.85,97.8-22.63,139.08H174.04z"/>
			<path fill="#D4E1E7" d="M142.21,741.4h246.54c15.46-61.78,46.82-104.5,53.69-113.38c-0.23-6.18-0.49-10.33-0.73-11.98
				C411.6,410.78,274.76,497.32,211.62,490.78c-45.4-4.64-63.22,101.83-69.68,162.05c-2.49,23-2.88,46.2-1.15,69.32L142.21,741.4z"
				/>
			<path fill="#AFD3E3" d="M443.76,741.4c0.21-49.52-0.49-92.79-1.32-113.38c-6.87,8.88-38.24,51.61-53.69,113.38H443.76z"/>
			<path fill="#AFD3E3" d="M524.56,741.4h49.46l5.24-3.72c-30.72-251.53-194.73-264.44-194.73-264.44
				c-1.46,2.42-2.81,4.88-4.07,7.37C407.82,490.13,521.71,542.25,524.56,741.4z"/>
			<path fill="#D4E1E7" d="M524.56,741.4c-2.85-199.15-116.74-251.27-144.11-260.79c-35.82,71.89,11.23,186.62,50.3,260.79H524.56z"
				/>
			<path fill="#89C6E0" d="M276.49,439.17c-1.87,1.01-57.11-2.13-66.22,15.59c-9.1,17.72,12.52,37.1,12.52,37.1L276.49,439.17z"/>
			<polygon fill="#F28B6F" points="229.56,481.14 211.18,495.83 226.06,517.33 228.31,520.5 238.07,539.06 263.19,517.33 
				283.76,495.43 			"/>
			<path fill="#89C6E0" d="M321.36,417.82c1.78-0.36,32.9-7.31,61.72,6.3l6.97,38.5L321.36,417.82z"/>
			<path fill="#F28B6F" d="M247.69,366.95c6.14,26.12-15.49,59.74-15.49,59.74l-2.64,54.45c0,0,31.81,22.39,66.88,26.62
				c52.26-78.6,34.94-130.89,14.72-158.61C286.33,347.86,243.26,348.23,247.69,366.95z"/>
			<path fill="#E76F49" d="M296.44,507.76c18.07,2.22,38.56,1.28,52.86-13.4c37.98-38.99,3.99-133.09,3.99-133.09
				s-22.71-6.37-25.28-10.82c0,0-7.01-0.77-16.85-1.31C331.39,376.86,348.7,429.16,296.44,507.76z"/>
			<g>
				<path fill="#57BADE" d="M603.08,741.4l-4.35-13.53l-3.77-11.8l-1.35-4.18l-5.24,2.31l-11.91,2.01
					c-18.68,6.18-36.85,15.27-53.38,25.19H603.08z"/>
			</g>
			<path fill="#045473" d="M197.69,741.4c-2.97-39.43-7.13-93.86-8.06-101.27c-1.47-11.79,5.5-160.26,5.5-160.26l-14.55,5.5
				c0,0-23.76,139.92-24.29,155.12c-0.31,8.97,5.05,64.73,8.66,100.9H197.69z"/>
			<path fill="#045473" d="M350.6,741.4c8.81-44.7,23.81-98.18,23.81-98.18l64.08-157.08l-37.09-12.92
				c0,0-57.46,153.03-58.44,154.51c-0.63,0.94-16.08,66.47-27.16,113.67H350.6z"/>
			<path fill="#89C6E0" d="M235.99,541.08l1.12-0.44l61.84-25.31l3.53-1.46l65.37-26.76l2.36-0.97c0,0-0.86,0.08-2.36,0.32
				c-2.66,0.32-7.46,0.89-13.66,1.73l-0.07,0.04c-4.57,0.64-9.94,1.41-15.72,2.3c-2.03,0.29-4.13,0.61-6.26,0.93
				c-2.7,0.4-5.48,0.85-8.29,1.33c-6.97,1.13-14.18,2.38-21.15,3.76c-13.73,2.66-26.37,5.61-34.73,8.68
				c-0.19,0.04-0.34,0.08-0.45,0.16c-1.31,0.44-2.51,0.93-3.52,1.45c-0.42,0.17-0.79,0.32-1.12,0.53c0,0-8.67,3.43-17.29,15.54
				c-2.77,3.84-5.51,8.56-7.98,14.33c0,0-0.08,0,0,0.04c-0.08,0.2-0.19,0.36-0.3,0.53c0,0.04,0,0.04,0,0.08
				c-0.08,0.16-0.15,0.32-0.15,0.45c-0.15,0.36-0.3,0.68-0.45,1.05C236.44,539.95,236.21,540.51,235.99,541.08z"/>
			<path fill="#89C6E0" d="M176.32,536.39c5.66-6.33,10.8-11.02,15.53-14.4c0-0.08,0.08-0.08,0.15-0.12
				c2.74-2.02,5.37-3.59,7.84-4.72c0.07-0.08,0.07-0.08,0.15,0c6.41-3.11,11.89-3.55,16.54-2.46h0.07c4.09,0.93,7.5,3.07,10.28,5.73
				c5.33,4.96,8.4,14.73,9.83,18.97c0.15,0.49,0.3,0.93,0.41,1.25c0,0,0.11-1.7,0.19-2.75c0-0.04,0-0.04,0-0.08
				c0-0.45,0.03-0.77,0.03-0.77l-0.18-0.6l-0.38-1.21l-6.83-22.08l-5.81-18.93c-3.03-0.56-6.3,0.08-9.67,1.62
				c-8.25,3.68-16.99,12.6-24.04,21.15c-0.08,0.08-0.16,0.12-0.16,0.2c-0.71,0.81-1.42,1.7-2.1,2.54
				C181.65,528.04,177,535.39,176.32,536.39z"/>
			<path fill="#C2D8F0" d="M267.98,505.24c3.23,0.18,77.17,52.25,77.17,52.25s43.99-68.34,45.82-94.88
				c1.83-26.53-7.89-38.5-7.89-38.5L267.98,505.24z"/>
			<path fill="#C2D8F0" d="M208.57,457.89l15.57,36.32l-47.81,42.18C176.32,536.39,194.19,473.36,208.57,457.89z"/>
			<g>
				<path fill="#872C1B" d="M401.15,282.93c0,0,0.81,61.19-15.35,73.5c-16.17,12.3-52.81-0.31-52.81-0.31L401.15,282.93z"/>
				<path fill="#872C1B" d="M177.79,143.36c0,0-11.23,44.81-5.68,120.36c5.33,72.33,108.52-73.01,108.52-73.01L177.79,143.36z"/>
				<path fill="#F28B6F" d="M183.15,224.55c3.39,53.03,15.35,181.01,53.68,206.95c-1.36-0.42-2.69-0.92-3.98-1.47
					c-41.75-18.03-54.17-149.36-57.54-202.6c-0.97-15.9,1.6-31.84,7.9-46.44c12.52-29.01,27.7-48.44,44.12-60.16
					c-13.47,12.3-25.89,30.55-36.41,55.79C184.67,191.67,182.13,208.12,183.15,224.55z"/>
				<path fill="#F8A075" d="M390.33,246.76c7.11,114.42-99.56,201.65-153.5,184.74c-38.33-25.94-50.29-153.92-53.68-206.95
					c-1.01-16.43,1.52-32.89,7.78-47.93c10.52-25.23,22.93-43.49,36.41-55.79C295.51,72.05,384.71,156.67,390.33,246.76z"/>
				<path fill="#F2F3F3" d="M187.25,273.48c0.66,3.98,2.48,9.3,7.65,11.99c2.88,1.57,6.85,2.27,12.17,1.55
					c4.31-0.58,7.65-1.79,10.22-3.36c7.06-4.35,8.23-11.42,8.22-15.52c0,0-0.47-1.33-1.51-3.17l-19.7-2.79l-16.33,5.96
					c-0.6,2.51-0.71,4.55-0.71,5.13C187.24,273.4,187.25,273.48,187.25,273.48z"/>
				<path fill="#F2F3F3" d="M264.73,268.31l0.09,0.53c1.31,5,4.27,11.6,10.89,15.08c3.72,2.01,8.63,3,15.11,2.13
					c3.53-0.44,6.46-1.27,8.97-2.38c9.59-4.25,12.04-12.72,12.64-18.82c0,0-0.99-3.25-2.81-7.39l-24.12-2.2l-20.04,6.67
					C264.8,264.88,264.74,267.28,264.73,268.31z"/>
				<path fill="#964627" d="M292.33,137.75c-15.27-6.54-6.95,20.73-70.01,24.3c-48.44,2.73-47.59-23.85-47.2-49.87
					c3.81-0.68,8.08-3.13,12.59-2.75c0.77,0.06,0.71-4.79,1.42-4.72c-2.11-14.36,1.86-24.49,22.33-15.59
					c4.73,2.05,9.02,4.09,12.82,6.09c1-13.35,7.43-20.65,42.36-13.53c88.28,18,132.38,64.24,141.17,73.27
					c3.52,3.62-5.29,102.47-1.61,127.12C380.71,236.29,305.68,143.44,292.33,137.75z"/>
				<path fill="#964627" d="M255.61,218.66c0,0-0.49,18.98,6.89,20.26c7.38,1.29,31.11-4.92,49.61,2.43l5.71-12.71
					C317.81,228.65,270.9,211.15,255.61,218.66z"/>
				<path fill="#D46629" d="M228.38,327.78c7.54,4.84,23.21,0.19,24.95-0.96c1.79-1.12,5.59,3.28,7.9,4.26
					c2.3,0.97,9.45-2.32,9.62-11.07c0.21-7.96-3.3-6.11-3.94-5.71l-0.08,0.06c7.57,3.17-3.25,19.33-7.3,14.07
					c-4.09-5.2-9.5-2.83-9.5-2.83c-16.49,6.44-26.84-1.46-27.67-9.41c-0.33-2.98,0.49-6.39,1.64-9.58c0.14-0.27,0.24-0.52,0.39-0.73
					c3.43-6.67,14.42-28.07,16.35-34.33l-17.97,36.19l0.1,0.03c-0.14,0.26-0.25,0.47-0.39,0.73c-0.49,0.99-0.89,1.96-1.15,2.9
					C219.52,317.49,221.92,323.61,228.38,327.78z"/>
				<path fill="#833D23" d="M362.23,274.19c-3.63-24.01-1.33-27.81-2.21-52.23c0,0-13.78-58.11-63.6-70.04
					c-3.72-0.89-65.96,52.58-127.02,32.42c-56.26-18.55-37.85-65.12,7.59-72.51c-0.38,26.03-3.11,52.95,45.33,50.22
					c63.06-3.57,54.75-30.84,70.01-24.3c13.34,5.7,85.61,35.21,114.79,68.88c1.39,9.28-0.31,40.98,2.25,48.32
					C401.65,260.94,383.98,270.13,362.23,274.19z"/>
				<g>
					<g>
						<g>
							<path fill="#95261F" d="M215.4,356.48c0,0,3.26,20.91,23.25,27.32c4.48-4.68,14.83-10.99,33.69-4.61c0.05,0,0.05,0,0.05,0
								c11.64-8.13,16.07-21.7,14.76-27.42l-3.87,0.32l-63.56,4.04L215.4,356.48z"/>
							<path fill="#FFFFFF" d="M283.27,352.08c0.37,4.59-0.92,9-4.67,11.22c-9.88,5.58-47.74,5.31-53.3,2.89
								c-3.43-1.47-4.87-6.45-5.57-10.06L283.27,352.08z"/>
						</g>
						<path fill="#F26745" d="M238.65,383.81c2.96,1.03,6.33,1.62,10.12,1.85c9.85,0.45,17.64-2.31,23.57-6.45
							C253.48,372.82,243.13,379.13,238.65,383.81z"/>
					</g>
					<path fill="#ED985B" d="M235.23,387.45c0,0,32.11,1.03,44.6-4.74C279.83,382.71,258.38,415.69,235.23,387.45z"/>
				</g>
				<path fill="#F28B6F" d="M222.37,316.18c0.83,7.96,11.17,15.86,27.67,9.41c0,0,5.41-2.37,9.5,2.83
					c4.05,5.26,14.86-10.9,7.3-14.07c0,0-5.95-6.92-15.31-0.54c-8.96,6.17-23.21-14.03-27.12-7.95c-0.15,0.21-0.25,0.47-0.39,0.73
					C222.86,309.79,222.04,313.2,222.37,316.18z"/>
				<path opacity="0.5" fill="#FFFFFF" d="M230.55,313.36c-0.37,1.65,2.14,3.62,5.6,4.39c3.46,0.77,6.56,0.06,6.93-1.59
					c0.37-1.66-2.14-3.62-5.6-4.39C234.02,311,230.92,311.71,230.55,313.36z"/>
				<path fill="#964627" d="M184.21,248.17c0.16,0.13,0.32,0.21,0.49,0.32c0.28,0.19,0.56,0.42,0.83,0.55
					c0.93,0.42,3.9,0.1,7.72-0.57c10.1-1.77,26.18-6.06,26.4-6.12c0.03-0.02,0.57-1.29,0.91-3.12c0.95-4.05,1.97-11.51-1.86-16.08
					c0,0-0.1,0.01-0.25,0.04c-2.43,0.43-21.76,4.07-32.11,11.11c-1.89,1.03-3.29,1.87-3.51,2.06c-0.64,0.56-1.07,1.14-1.42,1.73
					l-0.05,0.1c-0.32,0.57-0.52,1.13-0.64,1.69c-0.02,0.08-0.03,0.17-0.04,0.25c-0.12,0.76-0.14,1.48-0.05,2.08
					c0.05,0.31,0.18,0.6,0.27,0.9c0.08,0.3,0.16,0.6,0.27,0.9c0.15,0.4,0.33,0.76,0.53,1.13c0.13,0.23,0.27,0.46,0.41,0.68
					c0.24,0.36,0.47,0.7,0.74,1.02c0.16,0.19,0.32,0.34,0.48,0.51C183.64,247.64,183.91,247.93,184.21,248.17z M182.44,246.23
					c0.07,0.1,0.14,0.2,0.21,0.3C182.58,246.43,182.51,246.34,182.44,246.23z M181.32,244.29c0.06,0.12,0.12,0.25,0.18,0.37
					C181.45,244.54,181.38,244.42,181.32,244.29z M180.7,242.2c0,0,0-0.03,0-0.05c0.01,0.06,0.03,0.12,0.05,0.19
					C180.74,242.34,180.71,242.25,180.7,242.2z M180.69,240.52c-0.03,0.3-0.05,0.59-0.04,0.88
					C180.64,241.11,180.66,240.83,180.69,240.52z M181.13,238.85c-0.11,0.27-0.24,0.54-0.31,0.81
					C180.89,239.38,181.02,239.12,181.13,238.85z M182.06,237.34c-0.17,0.21-0.38,0.4-0.51,0.62
					C181.67,237.74,181.89,237.55,182.06,237.34z M186.37,234.32L186.37,234.32L186.37,234.32L186.37,234.32z M183.97,247.93
					c0.02,0.02,0.04,0.05,0.05,0.06C184.01,247.97,183.99,247.95,183.97,247.93z"/>
				<g>
					<g>
						<path fill="#F8A075" d="M366.92,253.54c0,0,8.15-26.87,31.05-13.04c25.91,15.64,6.41,71.6-13.77,77.96
							c-20.18,6.35-13.58-17.1-13.58-17.1L366.92,253.54z"/>
					</g>
					<path fill="#EC7260" d="M385.09,297.2c0,0,23.04-19.67,13.71-36.32c-9.32-16.64-25.01,3.57-25.27,9.64
						C373.54,270.52,391.46,265.52,385.09,297.2z"/>
				</g>
				<g>
					<path fill="#8E4634" d="M218.9,274.19c0,6.39-5.17,11.56-11.56,11.56c-6.39,0-11.56-5.17-11.56-11.56
						c0-6.39,5.18-11.56,11.56-11.56C213.73,262.63,218.9,267.81,218.9,274.19z"/>
					<path fill="#704338" d="M213.61,274.19c0,3.46-2.81,6.27-6.27,6.27c-3.46,0-6.27-2.81-6.27-6.27c0-3.46,2.81-6.26,6.27-6.26
						C210.8,267.93,213.61,270.73,213.61,274.19z"/>
					<path opacity="0.7" fill="#F2F3F3" d="M222.28,272.89c0.2,2.64-1.77,4.94-4.41,5.14c-2.64,0.21-4.94-1.77-5.14-4.41
						c-0.2-2.64,1.77-4.94,4.41-5.14C219.78,268.28,222.08,270.26,222.28,272.89z"/>
				</g>
				<g>
					<path fill="#8E4634" d="M301.92,269.35c0,7.38-5.98,13.37-13.37,13.37c-7.38,0-13.36-5.99-13.36-13.37s5.98-13.36,13.36-13.36
						C295.93,255.98,301.92,261.97,301.92,269.35z"/>
					<path fill="#704338" d="M295.79,269.35c0,4-3.24,7.25-7.24,7.25c-4,0-7.24-3.25-7.24-7.25c0-4,3.24-7.24,7.24-7.24
						C292.55,262.1,295.79,265.34,295.79,269.35z"/>
					<path opacity="0.7" fill="#F2F3F3" d="M305.82,267.85c0.23,3.05-2.05,5.71-5.1,5.94c-3.05,0.23-5.71-2.05-5.94-5.1
						c-0.23-3.05,2.05-5.7,5.1-5.94C302.93,262.51,305.59,264.79,305.82,267.85z"/>
				</g>
				<path fill="#E76B48" d="M225.67,269.08c-24.13-15.48-38.3,5.11-38.3,5.11s0-0.08,0-0.23c0-0.64,0.04-2.98,0.6-5.84
					c1.23-6.07,4.76-14.68,15.32-15.91c11.78-1.35,18.18,7.82,20.8,13.17C225.15,267.53,225.67,269.08,225.67,269.08z"/>
				<path fill="#E76B48" d="M297.15,259.75c7.5,2.02,12.27,3.8,15.33,5.29c-0.29-1.34-0.89-3.7-2.07-6.36
					c-3.1-7.06-10.17-16.21-25.78-14.07c-13.25,1.82-17.72,11.08-19.19,17.7c-0.66,2.92-0.71,5.29-0.72,6.31l0.01,0.04
					c-0.04,0.32-0.01,0.49-0.01,0.49c0.05,0,0.05,0,0.09-0.01C264.8,269.14,274.05,253.53,297.15,259.75z"/>
			</g>
			<path fill="#03445E" d="M339.3,54.35c2.88,2.16,5.23,4.39,6.96,6.59c19.61,24.79,1.02,95.58-3.39,111.15
				c30.81,14.99,64.39,31.76,64.39,31.76s14.67-90.76-7.41-118.69C391.09,74.11,367.23,62.83,339.3,54.35z"/>
			<path fill="#045473" d="M182.72,118.6c27.83,0.06,67.71,13.12,105.43,28.71c0.03,0.03,0.05,0.03,0.05,0.03
				c19.44,8.05,38.32,16.78,54.67,24.75c4.41-15.57,23-86.36,3.39-111.15c-1.73-2.2-4.09-4.43-6.96-6.59
				c-42.51-12.97-88.49-16.29-110.95-5.85c-25.43,11.85-40.6,38.56-43.88,56.31C182.97,113.02,182.72,118.6,182.72,118.6z"/>
			<path fill="#045473" d="M407.26,203.85c0,0-115.76-83.01-226.66-96.64c-121.91-14.99-67.66,48.85-67.66,48.85l93.04-26.95
				l85.53,26.16L407.26,203.85z"/>
			<path fill="#02354A" d="M396.83,198.66c-1.53-0.7-20.17-8.18-46.78-17.36c-33.61-11.64-82.04-25.04-132.43-27.66
				c-23.01-1.19-36.69,0.64-43.21,5.57c-10.78,8.15-4.38,32.72-3.15,39.79c-0.42-0.12-0.88-0.19-1.35-0.31c0,0,0,0-0.04-0.04
				c-2.81-1.53-124.48-69.56-32.72-84.11c79.23-12.56,216.39,59.57,254.72,80.88c0.08,0.08,0.19,0.12,0.27,0.19
				C394.83,197.32,396.44,198.36,396.83,198.66z"/>
		</g>
	</g>
</g>
</svg>
