<?xml version="1.0" encoding="utf-8"?>
<!-- Generator: Adobe Illustrator 25.2.3, SVG Export Plug-In . SVG Version: 6.00 Build 0)  -->
<svg version="1.1" id="Layer_1" xmlns="http://www.w3.org/2000/svg" xmlns:xlink="http://www.w3.org/1999/xlink" x="0px" y="0px"
	 viewBox="0 0 576 576" enable-background="new 0 0 576 576" xml:space="preserve">
<g>
	<g>
		<defs>
			<path id="SVGID_1_" d="M576,287.61c0,158.84-128.77,287.61-287.6,287.61c-158.84,0-287.61-128.77-287.61-287.61S129.55,0,288.4,0
				C447.23,0,576,128.77,576,287.61z"/>
		</defs>
		<use xlink:href="#SVGID_1_"  overflow="visible" fill="#F9E3D9"/>
		<clipPath id="SVGID_2_">
			<use xlink:href="#SVGID_1_"  overflow="visible"/>
		</clipPath>
		<g clip-path="url(#SVGID_2_)">
			<path fill="#872C1B" d="M146.24,134.37c0,0-18.78,32.22-7.35,115.31c11.43,83.09,132.63-74.63,132.63-74.63L146.24,134.37z"/>
			<path fill="#F47A4E" d="M163.73,249.89c-1.66-0.42-19.46-16.56-35.19,2.48c-15.73,19.04,1.25,67.07,13.66,72.03
				c12.42,4.97,22.77,1.24,24.01-2.07C167.45,319.02,163.73,249.89,163.73,249.89z"/>
			<path fill="#713825" d="M112.64,269.87l92.98-20.57l-0.86,3.28c-0.66,2.54-2.59,4.55-5.1,5.32l-86.49,20.06L112.64,269.87z"/>
			<polygon fill="#B09678" points="347.02,867.64 285.87,467.19 203.7,467.19 142.56,867.64 			"/>
			<path fill="#E6E6E5" d="M104.75,543.13C34.81,657.56,56.94,783.27,56.94,783.27l42.28,17.4
				c89.36-172.61,63.28-305.68,61.69-314.29c-0.1-0.31-0.12-0.47-0.12-0.47l-20.31,17.53c-14.07,10.88-26.17,24.12-35.48,39.29
				C104.93,542.86,104.84,543,104.75,543.13z"/>
			<path fill="#E6E6E5" d="M89.13,867.64c7.24-25.14,13.72-53.5,18.73-85.52l-51.75-6.02c0,0-18.06,43.98-33.86,91.54H89.13z"/>
			<path fill="#F8A184" d="M231.88,389.36V502.8h12.12l-11.08-46.2c23.24-5.31,48.13-7.32,71.83-4.04l-56.29,50.24h65.59V389.36
				H231.88z"/>
			<path fill="#F8A184" d="M194.89,110.5c45.69-41.93,113.71-41.93,159.39,0c43.96,40.36,52.82,102.92,51.4,152.94
				c1.41,45.77-12.23,101.4-56.18,138.31c-45.68,38.37-108.92,39.99-154.61,1.62c-43.96-36.92-52.81-94.16-51.39-139.94
				C142.08,213.42,150.93,150.86,194.89,110.5z"/>
			<path fill="#F47A4E" d="M225.66,296.31H197.9C197.9,296.31,209.06,321.26,225.66,296.31z"/>
			<path fill="#68423E" d="M296.45,290.35L296.45,290.35c7.22,0,13.06-5.84,13.06-13.06v-17.3c0-7.22-5.84-13.07-13.06-13.07l0,0
				c-7.21,0-13.07,5.85-13.07,13.07v17.3C283.38,284.5,289.24,290.35,296.45,290.35z"/>
			<path fill="#68423E" d="M161.44,290.35L161.44,290.35c7.22,0,13.07-5.84,13.07-13.06v-17.3c0-7.22-5.85-13.07-13.07-13.07l0,0
				c-7.22,0-13.06,5.85-13.06,13.07v17.3C148.38,284.5,154.22,290.35,161.44,290.35z"/>
			<path fill="#834A4C" d="M182.58,214.83l-1.08,13.5c0,0-13.59-3.61-32.94,2.61l-0.68-8.56
				C147.88,222.37,168.52,211.63,182.58,214.83z"/>
			<path fill="#834A4C" d="M278.54,214.83l1.08,13.5c0,0,13.59-3.61,32.94,2.61l0.67-8.56
				C313.24,222.37,292.61,211.63,278.54,214.83z"/>
			<g>
				<path fill="#68423E" d="M226.71,381.2c27.41,0.21,46.64-25.93,44.68-32.09c-0.89-3.4-6.19-1.98-14.23,0.26
					c-7.99,2.19-18.71,5.16-30.45,4.95c-13.47,0.25-25.55-3.7-33.77-5.85c-6.16-1.63-10.14-2.28-10.9,0.64
					C180.07,355.27,199.3,381.42,226.71,381.2z"/>
				<path fill="#FFFCFD" d="M192.94,348.47l2.78,16.68c27.51,14.37,60.18-0.61,60.18-0.61l1.26-15.17
					c-7.99,2.19-18.71,5.16-30.45,4.95C213.24,354.58,201.16,350.62,192.94,348.47z"/>
			</g>
			<path fill="#F8A184" d="M232.92,456.6l11.08,46.2h4.46l56.29-50.24C281.04,449.27,256.15,451.29,232.92,456.6z"/>
			<path fill="#2AA9E1" d="M137.72,867.64H380.4c0.65-4.92,1.34-9.94,2.1-15.18c16.25-110.66,33.15-250.26,28.41-321.72
				c-2.25-33.71-39.82-57.1-72.59-69.5c-2.25-0.89-4.46-1.69-6.67-2.44c-5.77-1.97-11.64-3.52-17.6-4.7c-3.1-0.66-6.2-1.17-9.3-1.55
				l-56.29,50.24h-4.46l-11.08-46.2c-0.33,0.05-0.71,0.14-1.04,0.23c-6.15,1.41-12.16,3.05-18.03,4.88
				c-36.67,11.41-66.91,30-78.6,46.39c-65.88,92.22-26.62,200.35-3.15,266.09C140.26,797.04,140.66,831.88,137.72,867.64z"/>
			<g>
				<path fill="#872C1B" d="M264.83,867.64c-12.25-116.51-10.25-232.73-0.43-351.73v0.01c-0.49-1.29-0.98-2.59-1.47-3.88
					c-11.75-2.75-23.51-5.53-35.25-8.33c-1.48,1.01-2.96,2.01-4.44,3.02c-25.59,118.25-47.61,238.52-52.16,360.92H264.83z"/>
			</g>
			<path fill="#64220D" d="M252.48,503.93c-0.59,0-15.07-1.37-15.07-1.37l-18.19,28.88l45.38,4.38L252.48,503.93z"/>
			<path fill="#E6E6E5" d="M413.7,867.64l-2.19-352.75c0,0-33.93-58.44-105.53-62.51c0,0-23.41,199.52-33.1,415.25H413.7z"/>
			<path fill="#E6E6E5" d="M158.31,867.64c9.37-144.49,28.73-295.41,66.73-409.13c-68.62-0.92-126.15,89.25-126.15,89.25
				L88.23,867.64H158.31z"/>
			<path fill="#872C1B" d="M343.76,118.93c-39.1,15.74-108.28,5.57-108.28,5.57s71.47,24.24,18.47,44.87
				c-65.04-4.17-128.68-23.19-131.75-76.4c0,0,34.95,10.23,102.27-23.58c23.76-11.9,51.92-13.95,77.13-4.95l33.93,12.51
				C351.89,91.3,366.09,109.92,343.76,118.93z"/>
			<path fill="#64220D" d="M405.81,243.59c-10.73,10.01-14.62,10.34-18.74,11.62c-4.7,25.69-7.91,47.43-8.61,48.76
				c-1.69,3.23-24.42-1.57-24.42-1.57s0.84-18.76,2.18-49.23l-0.73-16.68c0,0-19.39-31.93-11.38-69.96
				c-25.37,3.17-58.3,5.01-90.82,2.84c51.15-20.63-17.82-44.87-17.82-44.87s66.77,10.17,104.52-5.57
				c21.54-9.01,7.84-27.63-7.96-41.98l59.05,22.57c-0.41-8.22,1.1-19.57,9.64-30.69c0,0-3.14,16.07,1.04,30.36
				c2.79-5.95,7.67-12.62,16.2-17.68c0,0-10.28,15.51-9.35,29.91c6.32,0.28,11.67,3.61,13.64,12.56
				C428.61,152.68,431.14,219.96,405.81,243.59z"/>
			<path fill="#E6E6E5" d="M370.59,573.99c-21.35,132.4,46.8,240.33,46.8,240.33l45.73,0.07c46.17-213.15-55.7-304.64-60.44-312.01
				c-0.21-0.25-0.28-0.39-0.28-0.39l-13.79,21.72c-8.89,15.4-15.07,32.24-17.94,49.8C370.64,573.68,370.61,573.83,370.59,573.99z"/>
			<path fill="#E6E6E5" d="M477.67,867.64c-2.92-22.63-7.28-47.15-13.6-73.68L413.9,808c0,0-0.02,25.95,1.34,59.64H477.67z"/>
			<g>
				<path opacity="0.4" fill="#FFFFFF" d="M228.21,276.33l-0.08,19.41c-0.01,6.81,3.85,12.37,8.48,12.34l58.34-0.43
					c4.77-0.06,8.64-5.68,8.65-12.53l0.08-19.37c0.02-1.49-0.89-2.71-1.97-2.71l-71.61,0.57
					C229.09,273.63,228.22,274.85,228.21,276.33z"/>
				<path opacity="0.4" fill="#FFFFFF" d="M115.9,276.33l-0.08,19.41c-0.01,6.81,3.85,12.37,8.48,12.34l58.34-0.43
					c4.77-0.06,8.63-5.68,8.65-12.53l0.08-19.37c0.02-1.49-0.89-2.71-1.97-2.71l-71.61,0.57
					C116.78,273.63,115.92,274.85,115.9,276.33z"/>
				<g opacity="0.29">
					<g>
						<polygon fill="#FFFFFF" points="256.84,273.23 273.23,307.66 292.12,307.53 275.72,273.1 						"/>
					</g>
					<g>
						<polygon fill="#FFFFFF" points="228.71,273.42 245.1,307.85 260.21,307.75 243.81,273.32 						"/>
					</g>
				</g>
				<g opacity="0.29">
					<g>
						<polygon fill="#FFFFFF" points="145.21,274.29 161.61,308.73 180.5,308.6 164.1,274.16 						"/>
					</g>
					<g>
						<polygon fill="#FFFFFF" points="117.08,274.49 133.47,308.92 148.58,308.82 132.19,274.39 						"/>
					</g>
				</g>
				<path fill="#713825" d="M110.04,277.26l-0.07,19.37c-0.02,5.08,1.18,9.55,3.27,13.08c2.52,4.78,6.6,7.77,11.1,7.73l58.39-0.48
					c7.46-0.07,13.5-8.32,14.26-18.95c8.15-4.42,17.34-4.48,25.44-0.23c0.67,10.65,6.68,18.8,14.13,18.78l58.34-0.48
					c3.64-0.02,6.99-1.98,9.53-5.4c3.12-3.71,4.99-9.3,5-15.59l0.08-19.41c0.04-4.74-2.06-8.71-4.93-10.45
					c-0.88-0.42-1.86-0.69-2.85-0.68l-71.61,0.57c-4.33,0.01-7.78,5.13-7.78,11.27l-0.03,10.79c-8.17-3.25-16.97-3.2-25.15,0.21
					l0.03-10.79c0.01-6.19-3.41-11.18-7.7-11.17L117.91,266c-1.64,0-3.22,0.82-4.52,2.1C111.38,270.14,110.06,273.43,110.04,277.26z
					 M228.21,276.33c0.01-1.49,0.88-2.7,1.88-2.72l71.61-0.57c1.08,0,1.99,1.23,1.97,2.71l-0.08,19.37
					c-0.01,6.86-3.87,12.47-8.65,12.53l-58.34,0.43c-4.64,0.03-8.49-5.53-8.48-12.34L228.21,276.33z M115.9,277.2
					c-0.03-1.49,0.88-2.7,1.97-2.71l71.61-0.57c1-0.01,1.86,1.21,1.89,2.7l-0.08,19.41c-0.01,6.81-3.79,12.43-8.56,12.49
					l-58.34,0.43c-4.77,0.01-8.57-5.55-8.57-12.35L115.9,277.2z"/>
			</g>
			<path fill="#713825" d="M305.16,269l92.97-20.57l-0.85,3.28c-0.66,2.54-2.59,4.55-5.1,5.32l-86.49,20.05L305.16,269z"/>
			<path fill="#F47A4E" d="M381.41,266.47c-0.08-8.83,5.2-16.86,13.41-20.11c7.81-3.09,17.65-3.88,25.81,6.01
				c15.73,19.04-1.25,67.07-13.67,72.03s-18.71-0.09-21.36-2.43C381.22,318.09,381.59,285.4,381.41,266.47z"/>
			<path fill="#F6F6F6" d="M381.41,501.5l-77.74-43c0,0-25.38,294.34-28.72,366.94l91.5-224.57l-20.81-17.01L381.41,501.5z"/>
			<path fill="#D9D9D8" d="M374.01,598.65l-22.1-16.03l29.49-81.11c-1.99-0.93-4.03-1.86-6.12-2.79l-29.65,85.16l22.49,12.49
				l-93.18,229.09L374.01,598.65z"/>
			<polygon fill="#54C1EF" points="245.53,502.8 264.37,539 298.79,502.8 314.05,486.74 338.32,461.24 344.29,454.96 314.05,444.25 
				304.75,452.56 			"/>
			<polygon fill="#D9D9D8" points="153.09,506.09 147.81,509.02 156.91,584.14 140.18,595.29 162.09,812.98 179.92,514.3 			"/>
			<polygon fill="#F6F6F6" points="216.47,470.28 153.09,506.09 160.72,587.08 143.36,597.06 162.22,814.4 			"/>
			<polygon fill="#54C1EF" points="213.85,456.64 213.85,461.71 214.13,536.98 245.53,502.8 232.92,456.6 231.88,452.37 			"/>
		</g>
	</g>
</g>
</svg>
