<?xml version="1.0" encoding="utf-8"?>
<!-- Generator: Adobe Illustrator 25.2.3, SVG Export Plug-In . SVG Version: 6.00 Build 0)  -->
<svg version="1.1" id="Layer_1" xmlns="http://www.w3.org/2000/svg" xmlns:xlink="http://www.w3.org/1999/xlink" x="0px" y="0px"
	 viewBox="0 0 576 576" enable-background="new 0 0 576 576" xml:space="preserve">
<g>
	<g>
		<defs>
			<path id="SVGID_1_" d="M576,288.33c0,158.68-128.64,287.33-287.34,287.33S1.33,447.01,1.33,288.33
				C1.33,129.64,129.97,0.99,288.66,0.99S576,129.64,576,288.33z"/>
		</defs>
		<use xlink:href="#SVGID_1_"  overflow="visible" fill="#F9E3D9"/>
		<clipPath id="SVGID_2_">
			<use xlink:href="#SVGID_1_"  overflow="visible"/>
		</clipPath>
		<g clip-path="url(#SVGID_2_)">
			<polygon fill="#F69D81" points="242.08,460.16 242.08,497.81 211.97,492.89 218.52,476.85 			"/>
			<path fill="#F69D81" d="M137.86,740.66c50.82-140.62,31.29-241.92,29.88-249.55c-0.1-0.33-0.12-0.5-0.12-0.5l-21.28,18.36
				c-14.74,11.4-27.41,25.27-37.17,41.15c-0.08,0.14-0.18,0.29-0.27,0.43c-41.85,68.46-52.19,140.67-53.41,190.1H137.86z"/>
			
				<rect x="242.08" y="389.45" transform="matrix(-1 -1.224647e-16 1.224647e-16 -1 570.2548 897.7752)" fill="#F69D81" width="86.09" height="118.87"/>
			<path fill="#F17A4D" d="M170.69,243.34c-1.74-0.43-20.39-17.34-36.87,2.61c-16.48,19.95,1.3,70.26,14.32,75.46
				c13.01,5.2,23.85,1.3,25.15-2.17C174.59,315.77,170.69,243.34,170.69,243.34z"/>
			<path fill="#F69D81" d="M203.34,97.32c47.85-43.93,119.11-43.93,166.97,0c46.05,42.28,55.33,107.83,53.85,160.23
				c1.48,47.95-12.81,106.22-58.86,144.91c-47.86,40.2-114.11,41.89-161.96,1.7c-46.05-38.68-55.33-98.66-53.85-146.61
				C148.01,205.14,157.29,139.6,203.34,97.32z"/>
			<path fill="#F17A4D" d="M235.58,291.99H206.5C206.5,291.99,218.19,318.12,235.58,291.99z"/>
			<path fill="#562E1F" d="M190.45,206.61l-1.13,14.14c0,0-14.24-3.78-34.51,2.73l-0.71-8.97
				C154.1,214.52,175.72,203.27,190.45,206.61z"/>
			<path fill="#562E1F" d="M290.98,206.61l1.13,14.14c0,0,14.24-3.78,34.51,2.73l0.71-8.97
				C327.33,214.52,305.71,203.27,290.98,206.61z"/>
			<g>
				<path fill="#68423E" d="M236.67,380.91c28.72,0.23,48.86-27.17,46.81-33.61c-0.93-3.56-6.48-2.07-14.91,0.27
					c-8.37,2.3-19.6,5.41-31.9,5.18c-14.11,0.27-26.76-3.88-35.38-6.13c-6.45-1.71-10.63-2.39-11.42,0.67
					C187.82,353.74,207.96,381.14,236.67,380.91z"/>
				<path fill="#FEF7F7" d="M201.3,346.63l2.9,17.48c28.83,15.05,63.05-0.64,63.05-0.64l1.32-15.89c-8.37,2.3-19.6,5.41-31.9,5.18
					C222.56,353.02,209.91,348.88,201.3,346.63z"/>
			</g>
			<path fill="#68423E" d="M309.74,240.23c7.56,0,13.69,6.13,13.69,13.69v18.13c0,7.56-6.13,13.68-13.69,13.68
				c-7.55,0-13.69-6.12-13.69-13.69v-18.12C296.05,246.36,302.18,240.23,309.74,240.23z"/>
			<path fill="#68423E" d="M168.29,240.23c7.57,0,13.69,6.13,13.69,13.69v18.12c0,7.57-6.13,13.69-13.69,13.69
				c-7.56,0-13.69-6.12-13.69-13.69v-18.12C154.61,246.36,160.73,240.23,168.29,240.23z"/>
			<path fill="#F69D81" d="M417.45,740.66c0.18-1.57,0.38-3.14,0.56-4.71c8.85-78.9,14.51-155.14,11.41-201.98
				c-1.48-21.89-17.02-38.42-36.85-50.76c-14.31-9-30.89-15.89-45.94-21c-0.69-0.25-1.38-0.45-2.12-0.69
				c-5.36-1.72-10.82-3.1-16.33-4.18c-0.15,0.1-36.5,43.33-72.07,42.84c-7.72-0.1-14.56-5.07-16.72-12.45
				c-1.77-6.1-1.92-14.95,2.7-27.6c-7.38,1.72-14.56,3.74-21.55,6.05c-14.07,4.48-27.15,9.99-38.62,15.99
				c-18.98,9.93-33.69,21.25-41.12,31.68c-5.31,7.42-9.93,14.95-14.02,22.52c5.41,18.54,11.07,41.22,14.56,64.59
				c0.05,0.45,0.15,0.94,0.2,1.38c0.34,2.11,0.64,4.28,0.89,6.39c0.29,2.31,0.59,4.62,0.83,6.99c0.05,0.49,0.1,1.03,0.15,1.52
				c0.2,1.92,0.4,3.83,0.54,5.71c0.19,2.41,0.39,4.77,0.49,7.13c0.15,1.96,0.25,3.94,0.3,5.9c0,0.59,0.05,1.18,0.05,1.77
				c0.05,2.12,0.1,4.18,0.1,6.25c0,10.38-0.74,20.46-2.41,29.91c-0.64,3.79-1.48,7.48-2.46,11.02c-1.48,5.36-3.35,10.43-5.61,15.2
				c-0.74,1.58-1.58,3.1-2.41,4.62c-2.51,4.53-5.51,8.71-9,12.45c-2.31,2.51-4.82,4.82-7.58,6.93c1.49,5.63,3.08,11.11,4.69,16.51
				H417.45z"/>
			<path fill="#562E1F" d="M181.99,412.64c8.34,9.34,19.99,16.55,30.29,21.66c14.81,7.34,32.16,7.5,47.31,0.89
				c11.79-5.15,25.34-12.65,34.18-22.55c0,0,6.61-101.41-58.85-101.41C169.58,313.92,181.99,412.64,181.99,412.64z M234.93,324.85
				c0,0,44.33-7.32,39.55,74.38l-31.43,13.41l3.94-27.65h-11.35h-11.35l3.94,27.65l-30.34-13.32
				C193.12,317.62,234.93,324.85,234.93,324.85z"/>
			<path fill="#562E1F" d="M173.7,79.22c8.5-10.63,18.96-14.54,29.58-14.7c20.78-16.34,53.98-29.57,104.16-18.1
				c92.78,21.21,81.45,166.43,81.45,166.43c-41.63-10.15-86.88-83.83-86.88-83.83c-14.8,20.5,9.96,66.61,9.96,66.61
				c-28.94-13.12-60.99-65.99-60.99-65.99c-14.71,12.29,10.32,58.61,10.32,58.61c-28.12-12.29-54.79-54.92-54.79-54.92
				c-15.2,6.56-7.83,47.55-7.83,47.55c-11.02-14.76-26.4-31.56-26.4-31.56c-22.93,34.44-24.61,111.5-24.61,111.5
				S127.48,137.02,173.7,79.22z"/>
			<path fill="#562E1F" d="M349.97,106.28c0,0,69.57,67.57,59.03,162.33l21.29,4.91c0,0,51.09-201.37-96.39-216.28L349.97,106.28z"
				/>
			<path fill="#F17A4D" d="M398.74,260.71c-0.09-9.25,5.45-17.66,14.06-21.07c8.18-3.24,18.48-4.06,27.04,6.3
				c16.48,19.95-1.3,70.26-14.32,75.46c-13.01,5.2-19.6-0.09-22.38-2.55C398.55,314.79,398.94,280.54,398.74,260.71z"/>
			<path fill="#F69D81" d="M370.47,472.74c0,0,77,14.82,91.78,94.72C477.04,647.37,370.47,472.74,370.47,472.74z"/>
			<path fill="#F69D81" d="M183.46,474.02c0,0-42.86,22.24-51.09,29.35c-15.44,13.34-32.1,62.21-32.1,62.21l83.19-74.97V474.02z"/>
			<path fill="#9B3839" d="M115.43,724.15c1.49,5.63,3.08,11.11,4.69,16.51h22.17c-1.59-5.34-3.16-10.74-4.63-16.31
				c-5.81-79.79,26.12-121.8,26.12-121.8c-0.05-0.44-0.15-0.93-0.19-1.37c23.61-42.01,35.81-94.49,40.58-118.8
				c0.64-3.25,1.13-6,1.52-8.16l12.2-3.2l1.58-0.4c0.34-1.43,0.69-2.95,1.08-4.43c0.15-0.69,0.3-1.37,0.49-2.07l-25.38,6.69
				l-12.2,3.2c-0.4,2.17-0.89,4.92-1.53,8.17c-4.77,24.3-16.97,76.79-40.58,118.79c0.05,0.45,0.15,0.94,0.2,1.38
				C141.55,602.36,109.63,644.37,115.43,724.15z"/>
			<path fill="#A53D3D" d="M137.67,724.35c1.47,5.57,3.04,10.98,4.63,16.31h280.1l0.32-3.72c-1.62-0.3-3.2-0.59-4.72-0.99
				c-9.6-2.26-17.76-6.15-24.7-11.41c-65.86-49.39-20.12-218.35-10.23-246.84c0.45-1.28-8.01-5.9-17.07-10.48
				c-10.13-5.01-20.96-9.88-20.96-9.88c-0.2,1.43-0.34,2.8-0.54,4.18c-0.29,2.17-0.59,4.33-0.88,6.44
				c-11.31,77.43-36.11,132.91-55.34,153.72c-6.64,7.18-14.95,11.81-23.71,13.88c-7.42,1.72-15.2,1.67-22.58-0.3
				c-8.31-2.21-16.14-6.74-22.48-13.58c-19.68-21.25-21.89-63.26-0.05-151.06l-1.58,0.4l-12.2,3.2c-0.4,2.17-0.89,4.91-1.52,8.16
				c-4.77,24.3-16.97,76.79-40.58,118.8c0.05,0.44,0.15,0.93,0.19,1.37C163.79,602.55,131.86,644.56,137.67,724.35z"/>
			<path fill="#F69D81" d="M396.31,736.45c0.36,1.41,0.75,2.81,1.13,4.21h98.83c5.58-156.35-71.06-226.27-75.26-232.8
				c-0.2-0.25-0.3-0.4-0.3-0.4l-14.41,22.73c-9.34,16.14-15.79,33.79-18.79,52.19c-0.05,0.14-0.05,0.34-0.1,0.49
				c-8.46,52.43-3.49,101.23,5.9,141.66C394.29,728.58,395.28,732.57,396.31,736.45z"/>
			<g>
				<g>
					<path fill="#F8B136" d="M276.33,740.66c-11.75-25.18-32.23-40.26-52.45-36.81c-18.23,3.07-32.39,17.36-41.08,36.81H276.33z"/>
				</g>
			</g>
		</g>
	</g>
</g>
</svg>
