<?xml version="1.0" encoding="utf-8"?>
<!-- Generator: Adobe Illustrator 25.2.3, SVG Export Plug-In . SVG Version: 6.00 Build 0)  -->
<svg version="1.1" id="Layer_1" xmlns="http://www.w3.org/2000/svg" xmlns:xlink="http://www.w3.org/1999/xlink" x="0px" y="0px"
	 viewBox="0 0 576 576" enable-background="new 0 0 576 576" xml:space="preserve">
<g>
	<g>
		<defs>
			<path id="SVGID_1_" d="M576,288.33c0,158.68-128.64,287.33-287.34,287.33S1.33,447.01,1.33,288.33
				C1.33,129.64,129.97,0.99,288.66,0.99S576,129.64,576,288.33z"/>
		</defs>
		<use xlink:href="#SVGID_1_"  overflow="visible" fill="#F9E3D9"/>
		<clipPath id="SVGID_2_">
			<use xlink:href="#SVGID_1_"  overflow="visible"/>
		</clipPath>
		<g clip-path="url(#SVGID_2_)">
			<g>
				<path fill="#64493F" d="M431.83,326.91c0,0-17.84,62.26-58.63,88.59l-12.71-11.97l35.77-85.62L431.83,326.91z"/>
				<path fill="#E35726" d="M120.83,227.91l11.36,81.38c0,0,13.63,11.64,29.53,0.93l9.65-85.89L120.83,227.91z"/>
				<path fill="#DF3127" d="M65.98,740.66c0.04-20.16,2.08-39.18,6.94-61.43l98.31,38.18c-3.4,8.58-6.72,16.3-9.91,23.26H65.98z"/>
				<path fill="#DF3127" d="M178.35,690.34l-7.11,27.06l-98.31-38.18c16.3-114.23,78.5-161.32,82.45-166.5
					c0.27-0.29,0.61-0.62,0.61-0.62l12.29,22.17c7.74,16.4,13.74,33.73,15.19,51.81c-0.01,0.14,0.12,1.02,0.12,1.16
					C186.42,624.36,185.35,659.49,178.35,690.34z"/>
				
					<rect x="248.61" y="398.06" transform="matrix(-1 -1.224647e-16 1.224647e-16 -1 581.0374 911.8515)" fill="#F8A184" width="83.81" height="115.73"/>
				<g>
					<path fill="#F8A184" d="M210.89,113.66c46.59-42.77,115.97-42.77,162.56,0c44.84,41.16,53.87,104.97,52.42,155.99
						c1.45,46.68-12.46,103.42-57.3,141.07c-46.59,39.14-111.09,40.79-157.69,1.65c-44.84-37.66-53.87-96.04-52.42-142.73
						C157.02,218.62,166.06,154.82,210.89,113.66z"/>
					<path fill="#F47A4E" d="M242.28,303.17h-28.31C213.96,303.17,225.34,328.61,242.28,303.17z"/>
					<path fill="#834A4C" d="M198.34,220.06l-1.1,13.77c0,0-13.86-3.68-33.6,2.66l-0.69-8.73C162.95,227.75,184,216.8,198.34,220.06
						z"/>
					<path fill="#834A4C" d="M296.21,220.06l1.1,13.77c0,0,13.86-3.68,33.6,2.66l0.69-8.73
						C331.61,227.75,310.56,216.8,296.21,220.06z"/>
					<g>
						<path fill="#68423E" d="M243.34,389.75c27.95,0.22,47.57-26.45,45.57-32.72c-0.91-3.46-6.31-2.02-14.52,0.27
							c-8.14,2.23-19.08,5.26-31.05,5.04c-13.73,0.27-26.05-3.77-34.44-5.97c-6.28-1.67-10.35-2.33-11.12,0.65
							C195.78,363.3,215.39,389.97,243.34,389.75z"/>
						<path fill="#FFFCFD" d="M208.9,356.37l2.83,17.02c28.06,14.65,61.38-0.63,61.38-0.63l1.28-15.47
							c-8.14,2.23-19.08,5.26-31.05,5.04C229.61,362.6,217.29,358.56,208.9,356.37z"/>
					</g>
				</g>
				<path fill="#4877BB" d="M130.09,740.66c-19.56-64.9-32.45-148.08,19.94-221.47c10.72-14.98,36.68-31.84,68.96-43.53
					c3.07-1.15,6.23-2.25,9.39-3.2c6.9,61.49,31.8,96.73,31.8,96.73s70.25-38.02,85-101.91c1.72,0.48,3.49,1.05,5.22,1.63
					c3.31,1.15,6.66,2.35,10.1,3.64c32.57,12.4,68.29,32.95,70.5,66.19c3.09,46.66-2.77,123.25-11.74,201.92H130.09z"/>
				<path fill="#68423E" d="M314.48,252.79c7.36,0,13.32,5.96,13.32,13.32v17.65c0,7.36-5.97,13.32-13.32,13.32
					s-13.32-5.97-13.32-13.33v-17.64C301.15,258.75,307.12,252.79,314.48,252.79z"/>
				<path fill="#68423E" d="M176.77,252.79c7.36,0,13.32,5.96,13.32,13.32v17.64c0,7.37-5.97,13.33-13.32,13.33
					c-7.36,0-13.32-5.97-13.32-13.33v-17.64C163.45,258.75,169.41,252.79,176.77,252.79z"/>
				<path fill="#F8A184" d="M400.08,740.66c-11.72-42.18-19.41-95.87-9.99-154.28c0.02-0.16,0.05-0.32,0.08-0.49
					c2.92-17.91,9.23-35.08,18.29-50.79l13.6-21.39c0,0,0.08,0.14,0.29,0.4c4.09,6.36,79.23,74.05,73.66,226.55H400.08z"/>
				<path fill="#DF3127" d="M400.48,740.66c-2.07-7.25-4.11-14.85-6.04-22.95l100.43-32.17c2.68,17.14,2.75,35.93,1.72,55.11H400.48
					z"/>
				<path fill="#DF3127" d="M388.98,690.28l5.46,27.44l100.43-32.16c-9.36-115.02-68.6-165.78-72.24-171.19
					c-0.25-0.3-0.57-0.65-0.57-0.65l-13.6,21.39c-8.71,15.9-15.76,32.83-18.29,50.79c0,0.14-0.19,1.01-0.19,1.15
					C384.91,623.92,383.85,659.05,388.98,690.28z"/>
				<path fill="#F8A184" d="M247.62,467.1c-0.14,11.06,1.24,19.3,3.26,25.38c3.44,10.68,13.07,18.05,24.18,19.44
					c43.14,5.36,57.37-47.84,57.37-47.84c-27.48-5.51-56.99-3.49-84.24,2.87L247.62,467.1z"/>
				<path fill="#3A3E49" d="M238.77,469.34L238.77,469.34c2.92-0.8,5.89-1.57,8.86-2.24c-0.14,11.07,1.24,19.3,3.26,25.38
					c3.44,10.68,13.07,18.05,24.18,19.44c43.14,5.36,57.37-47.84,57.37-47.84c2.44,0.53,4.84,1.06,7.23,1.68v-0.01
					c1.87,0.47,3.69,0.95,5.51,1.53c-14.75,63.88-85,101.91-85,101.91s-24.9-35.25-31.8-96.73
					C231.78,471.31,235.27,470.3,238.77,469.34z"/>
				<path fill="#DF3127" d="M165.23,95.82c34.97-47.18,137.45-44.71,137.45-44.71s90.97-1.8,125.94,45.39
					c34.97,47.19,37.56,98.94,37.56,98.94l-163.5-10.41l-175.72-0.68C126.96,184.35,130.27,143.01,165.23,95.82z"/>
				<path fill="#B73426" d="M349.37,128.4c0,1.35,29.27,34.16,29.27,34.16l-159.46,7.86v-13.71L349.37,128.4z"/>
				<polygon fill="#8C381E" points="333.01,138.74 345.4,155.37 260.1,162.11 				"/>
				<path fill="#B73426" d="M148.17,128.4c0,1.35-15.96,34.16-15.96,34.16l86.97,7.86v-13.71L148.17,128.4z"/>
				<polygon fill="#8C381E" points="157.1,138.74 150.33,155.37 196.86,162.11 				"/>
				<path fill="#DF3127" d="M218.99,475.67c5.5,76.58,40.08,110.87,40.08,110.87s78.64-39.12,101.43-113.98
					c-3.44-1.29-6.8-2.49-10.1-3.64c-1.72-0.58-3.49-1.15-5.22-1.63c-14.75,63.88-85,101.91-85,101.91s-24.9-35.25-31.8-96.73
					C225.21,473.42,222.05,474.52,218.99,475.67z"/>
				<path fill="#E35726" d="M115.99,186.81v47.84c42.57-16.57,258.99,0,258.99,0l1.91,80.12c8.14,17.62,25.62,23.08,40.9,22.7
					c6.51-33.19,20.07-61.82,31.08-62.88c10.59-0.91,0.58,35.2-4.31,53.49c9.77-14.94,18.72-93.72,18.72-93.72l3.4-30.65
					c1.58-14.18-9.25-26.67-23.52-27.15l-305.63-9.96C125.86,165.88,115.99,175.12,115.99,186.81z"/>
				<polygon fill="#963A20" points="396.27,184.02 393.79,206.87 323.92,191.88 				"/>
				<polygon fill="#963A20" points="120.83,181.22 122.43,204.07 167.96,189.09 				"/>
				<path fill="#393B37" d="M417.8,337.47c11.2-0.24,21.26-3.73,25.57-7.85c0.38-0.38,0.82-0.91,1.19-1.54
					c4.89-18.29,19.57-74.73,8.99-73.82C442.54,255.31,424.31,304.28,417.8,337.47z"/>
				<path opacity="0.27" fill="#FFFFFF" d="M417.8,199.79l-21.53,118.13c0,0-204.42,51.09-275.44-15.17l-9.57-107.31
					C111.25,195.44,306.1,179.84,417.8,199.79z"/>
				<ellipse fill="#AD4525" cx="402.18" cy="217.29" rx="9.28" ry="13.22"/>
				<g>
					<polygon fill="#FFFFFF" points="291.01,740.66 291.01,736.11 255.61,736.11 255.61,740.66 244.4,740.66 244.4,727.79 
						290.65,727.79 290.65,632.99 209.35,632.99 209.35,676.78 255.25,676.78 255.25,691.23 228.74,691.23 209.35,715.09 
						209.35,740.66 196.9,740.66 196.9,724.29 223.05,692.11 196.9,692.11 196.9,639.56 205.79,628.61 294.21,628.61 294.21,731.73 
						294.57,731.73 294.57,740.66 					"/>
					<polygon fill="#FFFFFF" points="231.24,727.13 231.24,740.66 219.85,740.66 219.85,722.32 234.97,703.71 267.7,703.71 
						267.7,662.11 221.1,662.11 221.1,646.79 279.27,646.79 279.27,714.87 241.37,714.87 					"/>
				</g>
			</g>
		</g>
	</g>
</g>
</svg>
