<?xml version="1.0" encoding="utf-8"?>
<!-- Generator: Adobe Illustrator 25.2.3, SVG Export Plug-In . SVG Version: 6.00 Build 0)  -->
<svg version="1.1" id="Layer_1" xmlns="http://www.w3.org/2000/svg" xmlns:xlink="http://www.w3.org/1999/xlink" x="0px" y="0px"
	 viewBox="0 0 576 576" enable-background="new 0 0 576 576" xml:space="preserve">
<g>
	<g>
		<defs>
			<path id="SVGID_1_" d="M575.09,287.65c0,158.81-128.74,287.55-287.54,287.55C128.74,575.2,0,446.46,0,287.65
				C0,128.85,128.74,0.11,287.55,0.11C446.35,0.11,575.09,128.85,575.09,287.65z"/>
		</defs>
		<use xlink:href="#SVGID_1_"  overflow="visible" fill="#F9E3D9"/>
		<clipPath id="SVGID_2_">
			<use xlink:href="#SVGID_1_"  overflow="visible"/>
		</clipPath>
		<g clip-path="url(#SVGID_2_)">
			<path fill="#D5D3B1" d="M234.63,629.66c0.16-2.79,0.29-5.58,0.33-8.39c-2.48-10.61-4.57-20.6-6.25-29.21
				c-0.96-4.94-28.42-17.43-29.12-21.29c-1.69,14.77-4.39,35.8-7.56,58.89H234.63z"/>
			<path fill="#FFE3B1" d="M188.39,629.66c1.13-23.94,1.9-45.8,4-64.2c0.7,3.85,35.36,21.67,36.32,26.61
				c1.67,8.61,3.77,18.6,6.25,29.21c2.24-8.21,4.26-16.04,5.86-23.32c5.11-22.26,6.94-39.1,2.98-44.66
				c-15.12-21.06-83.61-79.66-83.8-76.6c0,0-10.93,6.99-17.72,23.45c-9.32,22.62-13.44,81.3-15.48,129.51H188.39z"/>
			<path fill="#CBCAA9" d="M457.7,629.66c2.65-63.51-0.61-126.87-25.06-160.26c1.67,4.31-0.92,10.74-12.3,44.52
				c0.4-7.3,0.36-14.45,0-21.28c-9.06,36.09-25.28,96.86-43.12,135.42c-0.25,0.54-0.51,1.07-0.76,1.6H457.7z"/>
			<path fill="#FFE3B1" d="M181.84,629.66H417.2c14.09-31.9,22.32-69.28,25.1-78.29c0.92-2.8,1.84-5.47,2.64-7.94
				c0.4-7.31,0.36-14.46,0-21.28v-0.04c-0.92-18.68-4.31-35.38-9.1-48.31c0.72,4.19,1.28,8.71,1.67,13.5
				c-0.12-1.24-0.32-2.48-0.52-3.68c0-0.24-1.6-8.74-1.67-8.74c-0.92-3.11-2.55-5.99-4.71-8.63c-3.96-3.67-7.9-6.99-11.86-9.94
				c-49.43-36.61-99.81-17.13-131.87-34.18c0,0-129.59,36.73-140.09,71.03c-10.42,34.26,41.44,62.72,40.97,89.43
				C187.57,593.68,183.46,610.64,181.84,629.66z"/>
			<g>
				<path fill="#A05725" d="M133.56,142.81c0,0-14.49,70.27-15.64,75.48c-4.41,20.07,4.95,54.17,13.24,81.98
					c8.59,28.82,2.82,135.44-16.59,158.44c0,0,81.96,33.77,112.59-24.34C257.78,376.27,152.39,156.61,133.56,142.81z"/>
				<path fill="#A05725" d="M359.12,281.72c0,0,32.24,85.29-8.73,121.4c-40.96,36.12-136.38,87.37-136.38,87.37l-15.96-147.03
					L359.12,281.72z"/>
				<g>
					<path fill="#F89A5F" d="M259.21,513.64c6.97,0.23,13.88-0.53,20.67-2.03c45.03-26.98,34.75-55.49,26.22-79.34
						c-9.17-25.68,14.14-65.77,14.14-65.77l19.36-11.01c6.24-23.6,12.6-27.2,12.38-33.19l-114.81,54.75c0,0,16.99,11.23,14.58,33.57
						c-2.38,22.34-47.84,42.17-47.84,42.17S197.73,511.51,259.21,513.64z"/>
					<path fill="#DA7E53" d="M277.06,512.08c52.85-12.44,97.15-74.13,97.15-74.13c-86.52,1.34-31.4-74.57-22.37-110.66l-34.51,31.15
						c0,0-24.81,44.5-15.61,71.7C310.26,455.4,322.06,483.54,277.06,512.08z"/>
				</g>
				<path fill="#F6B185" d="M132.12,195.9c4.47,20.72,8,82.46,10.47,103.3c3.89,32.76,44.94,73.47,64.91,108.85
					c6.4,11.29,17.04,12.23,29.32,10.9c3.17-1.52,6.75-3.08,10.84-4.65c121.16-46.69,74.11-213.8,74.11-213.8
					c4.5-6.89,12.19-10.56,21.76-11.91c-7.03-41.58-15.89-58.93-26.89-59.68c-17.38-1.26-133.64-25.13-152.26,6.93
					c-9.12,15.74-18.23,27.61-25.2,35.65C131.9,179.89,129.76,184.92,132.12,195.9z"/>
				<path fill="#F79150" d="M233.09,419.22c1.77-0.16,4.16-0.17,5.89-0.66c43.35-12.39,120.86-44.84,114.99-131
					c-2.89-42.27-6.34-74.72-10.45-98.98c-9.58,1.34-17.26,5.01-21.76,11.91c0,0,43.33,167.39-77.84,214.08
					C239.84,416.15,236.25,417.7,233.09,419.22z"/>
				<path fill="#A05725" d="M344.6,125.9c-21.25,11.97-46.25,23.76-70.4,29.68c-4.18,1.07-8.35,1.92-12.43,2.58
					c-2.7-6.16-5.07-11.82-7-16.48c-3.23-7.81-18.81-10.41-18.81-10.41C238.62,101.75,315.71,116.73,344.6,125.9z"/>
				<path fill="#A05725" d="M363.55,244.55c-3.54-5.01-8.48-8.16-14.13-10.21c-15.74-5.71-36.99-2.77-48.29-7.04
					c-4.63-1.75-11.15-11.36-17.99-23.92c0.26-8.35,2.38-21.32,11.7-31.17c10.73-11.34,31.04-18.53,69.18-9.6
					C368.56,200.67,372.6,257.46,363.55,244.55z"/>
				<path fill="#A05725" d="M350.03,117.06c-21.88,12.34-48.28,22.65-73.15,28.75c-11.16-8.56-9.49-2.07-9.49-2.07
					c-0.36-0.06-5.09,0.91-5.45,0.93c-104.48,8.22-137.76,88.73-137.76,88.73s-12.39-62.2,19.15-112.35
					c29.86-47.46,109.84-76.93,207.65-53.41c10.88,2.64,22.12,11.98,33.19,26.12C374.73,100.12,363.41,109.54,350.03,117.06z"/>
				<path fill="#A05725" d="M452.83,263.8c-28.91,52.46-74.38,48.97-97.78,42.78c5.98-29.57,7.2-57.77-0.63-79.65
					c-1.7-4.81-3.86-9.27-6.48-13.41c-9.88-15.48-30.62-34.71-49.73-50.58c11.05-11.68,31.96-19.09,71.26-9.89
					c15.77,3.69,34.44,10.05,56.63,19.91C437.1,201.28,446.41,232.72,452.83,263.8z"/>
				<path fill="#BC6428" d="M460.55,377.2c-0.46,3.45-1.11,6.79-1.86,10.03c-25.51-16.48-72.3-33.45-130.6,4.99
					c10.81-26.64,21.14-56.79,26.96-85.64c23.39,6.19,68.86,9.68,97.78-42.78C461.36,304.86,464.82,345.29,460.55,377.2z"/>
				<path fill="#BC6428" d="M297.25,169.51c-10.24,11.4-12.54,26.45-12.81,36.13c-8.18-15.83-18.25-35.79-25.05-52.51
					c4.48-0.76,10.48-1.71,15.07-2.95C281.2,155.72,289.09,162.31,297.25,169.51z"/>
				<path fill="#BC6428" d="M373.26,158.51c-41.94-10.43-61.42-0.08-76.49,11.9c-8.16-7.21-15.57-14.69-22.32-20.21
					c26.53-6.83,53.98-20.46,77.32-34.31c8.76,2.98,14.66,5.21,15.39,5.32C368.28,121.38,370.81,137.51,373.26,158.51z"/>
				<path fill="#BC6428" d="M428.96,180.17c-23.68-11.13-38.88-17.48-55.7-21.66c-2.45-21-4.98-37.13-6.1-37.31
					c-0.74-0.1-6.63-2.33-15.39-5.32c14.26-8.45,22.33-14.98,32.4-22.13C400.17,115.38,415.71,144.13,428.96,180.17z"/>
				<g>
					<path fill="#F79150" d="M337.02,250.57c1.49-11.14,7.76-21.63,18.27-28.4c7.7-4.96,16.92-7.66,24.52-0.43
						c16.38,15.56,12.97,63.89-16.93,71.94C337.57,300.49,333.56,276.28,337.02,250.57z"/>
					<path fill="#F37021" d="M373,234.68c-18.46-1.08-26.52,21.2-19.98,35.21c6.54,14.01,18.22,0.14,18.22,0.14
						s-16.24,8.97-16.5-11.41c-0.04-3.36,0.46-6.23,1.27-8.73c0.04,0.29,0.04,0.52,0.09,0.83c1.14,7,16.76-0.84,16.76-0.84
						c-0.12,0.02-0.23,0.04-0.35,0.06c-8.59,1.45-11.74-10.28-3.71-13.84C371.23,235.02,373,234.68,373,234.68z"/>
				</g>
				<path fill="#A05725" d="M458.45,387.48c-23.48,92.49-169.36,86.63-169.36,86.63s20.72-36.33,40-82.82
					C386.28,354.09,434.07,370.45,458.45,387.48z"/>
				<g>
					<path fill="#F7966B" d="M192.5,265.63c0,0,0.72,27.72-3.04,37.4c-2.1,5.42-4.04,12.43-5.34,17.55
						c-1.03,4.07,1.22,8.14,5.39,9.71c5.03,1.88,10.97,3.56,12.58,3.01c16.96-5.84,22.15-4.03,23.8-8.03
						c2.46-5.91-2.87-16.46-13.25-10.82c0,0-6.1-20.73-10.28-27.01C198.18,281.18,192.5,265.63,192.5,265.63z"/>
					<g>
						<path fill="#FFFFFF" d="M270.07,252.32c-2.42,10.87-13.85,21.97-27.14,23.45c-13.29,1.48-27.58-14.26-27.58-14.26l5.66-6.28
							c5.54-6.29,12.88-10.72,21-11.68C259.78,241.38,270.07,252.32,270.07,252.32z"/>
						<g>
							<g>
								<path fill="#894634" d="M225.77,259.14c-0.87,8.31,4.93,15.74,12.93,16.61c8.01,0.87,15.22-5.16,16.09-13.47
									c0.87-8.31-4.93-15.74-12.93-16.61C233.85,244.8,226.65,250.83,225.77,259.14z"/>
								<path fill="#704338" d="M234.67,261.38c-0.36,3.49,2.07,6.62,5.44,6.99c3.37,0.36,6.39-2.17,6.76-5.66s-2.07-6.62-5.43-6.99
									C238.06,255.35,235.03,257.89,234.67,261.38z"/>
							</g>
							<path opacity="0.7" fill="#EDEEEE" d="M221.65,264.91c-0.35,3.29,1.95,6.24,5.13,6.58c3.17,0.35,6.03-2.05,6.37-5.34
								c0.35-3.29-1.95-6.24-5.12-6.58C224.85,259.23,222,261.62,221.65,264.91z"/>
						</g>
					</g>
					<g>
						<path fill="#FFFFFF" d="M139.56,272.36c3.77,9.3,13,18.2,25.63,16.24c9.62-1.49,14.83-16.69,14.83-16.69l-5.21-4.7
							c-5.11-4.73-11.15-7.51-17.07-7.09C144.75,261,139.56,272.36,139.56,272.36z"/>
						<g>
							<g>
								<path fill="#894634" d="M169.57,270.97c2.16,7.2-1.11,14.87-7.3,17.14c-6.18,2.27-12.94-1.73-15.1-8.92
									c-2.16-7.2,1.11-14.87,7.29-17.14C160.65,259.78,167.41,263.77,169.57,270.97z"/>
								<path fill="#704338" d="M162.93,274.62c0.91,3.02-0.47,6.25-3.07,7.21c-2.59,0.95-5.43-0.73-6.34-3.75
									c-0.91-3.02,0.46-6.25,3.06-7.2C159.18,269.92,162.02,271.6,162.93,274.62z"/>
							</g>
							<path opacity="0.7" fill="#EDEEEE" d="M151.66,272.72c0.85,2.85-0.44,5.89-2.89,6.79s-5.13-0.68-5.98-3.54
								c-0.85-2.85,0.44-5.89,2.89-6.79C148.13,268.29,150.8,269.87,151.66,272.72z"/>
						</g>
					</g>
					<path fill="#5F1E0E" d="M131.99,250.72c0,0,31.67-17.12,37.95-12.18c5.52,4.34-0.99,8.68-0.99,8.68s-28.06,2.85-33.23,5.19
						C130.55,254.75,131.99,250.72,131.99,250.72z"/>
					<path fill="#5F1E0E" d="M217.34,226.82c-1.9,0.71-3.05,2.53-2.73,4.24c0.56,2.95,4.16,6.95,5.55,6.16
						c2.1-1.19,43.66-17.46,49.09-14.72c5.43,2.74,4.97-4.6-4.41-4.18C256.52,218.68,228.07,222.8,217.34,226.82z"/>
					<g>
						<path fill="#EC6738" d="M256.55,340.21c0,0-18.35,13.89-29,8.87c-10.47-4.95-12.65-5.41-15.31,1.85
							c-2.66,7.27-12.45-5.07-14.47,3.88c-1.82,8.05-1.3,11.01-2.89,12.15C194.89,366.96,236.83,364.23,256.55,340.21z"/>
						<path fill="#EC6738" d="M256,342.9c0,0-13.18,31.73-37.84,37.34c0,0-15.61,2.18-21.91-13.38
							C196.25,366.86,246.35,357.81,256,342.9z"/>
						<path fill="#A82F23" d="M256.82,338.28c0,0-10.18,22.9-65.5,29.16c0,0,35.09,7.08,66.29-25.05L256.82,338.28z"/>
						<path fill="#F29B63" d="M238.12,386.3c0.43,0.21-14.15-3.83-19.4,8.92C218.72,395.22,220.41,377.64,238.12,386.3z"/>
					</g>
					<path fill="#F68742" d="M139.56,272.36c0,0,24.62-10.83,40.46-0.44c0,0-0.42-2.25-0.78-4.69
						c-2.77-19.35-30.17-26.53-39.76,4.27L139.56,272.36z"/>
					<path fill="#62351E" d="M139.48,271.5l0.08,0.86c0,0,24.58-10.3,40.46-0.44l0.27-5.19
						C180.28,266.73,162.31,257.96,139.48,271.5z"/>
					<path fill="#F68742" d="M215.34,261.51c0,0,11.66-18.3,54.72-9.19c0,0-19.67-22.41-39.48-15.14c-7.72,2.84-12.95,9.96-14.67,18
						C215.42,257.48,215.13,259.77,215.34,261.51z"/>
					<path fill="#62351E" d="M214.17,258.89l1.17,2.62c0,0,18.07-17.78,55.13-9.04l-1.03-1.37
						C269.45,251.1,227.12,240.53,214.17,258.89z"/>
				</g>
			</g>
		</g>
	</g>
</g>
</svg>
