<?xml version="1.0" encoding="utf-8"?>
<!-- Generator: Adobe Illustrator 25.2.3, SVG Export Plug-In . SVG Version: 6.00 Build 0)  -->
<svg version="1.1" id="Layer_1" xmlns="http://www.w3.org/2000/svg" xmlns:xlink="http://www.w3.org/1999/xlink" x="0px" y="0px"
	 viewBox="0 0 576 576" enable-background="new 0 0 576 576" xml:space="preserve">
<g>
	<g>
		<defs>
			<path id="SVGID_1_" d="M576.25,288c0,159.06-128.94,288-288,288c-159.06,0-288-128.94-288-288S129.19,0,288.25,0
				C447.3,0,576.25,128.94,576.25,288z"/>
		</defs>
		<use xlink:href="#SVGID_1_"  overflow="visible" fill="#F9E3D9"/>
		<clipPath id="SVGID_2_">
			<use xlink:href="#SVGID_1_"  overflow="visible"/>
		</clipPath>
		<g clip-path="url(#SVGID_2_)">
			<g>
				<g>
					<path fill="#F47A4C" d="M174.63,230.1c-1.85-0.46-21.71-18.48-39.27,2.77c-17.56,21.25,1.38,74.85,15.24,80.39
						c13.86,5.54,25.41,1.38,26.8-2.31C178.79,307.26,174.63,230.1,174.63,230.1z"/>
					<path fill="#F15F22" d="M176.97,189.76c-5.43,1.74-26.55,88.96-26.55,88.96s-11.51-74.11,0-97.69
						C161.93,157.44,176.97,189.76,176.97,189.76z"/>
					<g>
						<path fill="#D84F3A" d="M707.08-122.22c0,0-23.46,88.81-127.68,95.73c46.3-25.17,29.5-78.76,29.5-78.76
							s11.85,70.79-109.08,43.63c-65.3-14.66-100.68,13.02-119.46,41.59c-39.27,41.1-23.56,120.83-23.56,120.83l20.6,6.06
							c0,0-5.84-18.89,16.08-34.19c1.66-0.84,3.46-1.94,5.46-3.42c4.47-2.48,9.87-4.8,16.26-6.87
							c26.99-3.65,57.8,28.08,139.15,40.85c91.68,14.39,113.02-39.42,115.32-46.17c-1.22,2.81-9.65,13.88-67.65,24.36
							c-31.53,5.69-51.81-8.73-64.57-25.57c4.72,0.4,9.48,0.82,14.47,1.33C748.33,77.38,707.08-122.22,707.08-122.22z"/>
						<path fill="#9B3420" d="M669.68,57.04c0.19-0.44,0.23-0.69,0.23-0.69S669.84,56.59,669.68,57.04z"/>
					</g>
					<polygon fill="#1295D3" points="353.7,38.72 350.45,56.74 391.81,81.25 403.72,69.15 					"/>
					<path fill="#F47A4C" d="M174.63,230.1c-1.85-0.46-21.71-18.48-39.27,2.77c-17.56,21.25,1.38,74.85,15.24,80.39
						c13.86,5.54,25.41,1.38,26.8-2.31C178.79,307.26,174.63,230.1,174.63,230.1z"/>
					<path fill="#F8A083" d="M209.4,74.55c50.98-46.8,126.89-46.8,177.87,0c49.06,45.04,58.93,114.85,57.36,170.68
						c1.57,51.07-13.64,113.15-62.7,154.35c-50.98,42.82-121.55,44.63-172.53,1.81c-49.05-41.21-58.93-105.09-57.36-156.17
						C150.47,189.41,160.35,119.59,209.4,74.55z"/>
					<path fill="#F47A4C" d="M243.75,281.92h-30.98C212.77,281.92,225.22,309.75,243.75,281.92z"/>
					<path fill="#92484B" d="M195.67,190.98l-1.2,15.06c0,0-15.17-4.03-36.76,2.9l-0.75-9.55
						C156.95,199.4,179.97,187.41,195.67,190.98z"/>
					<path fill="#92484B" d="M302.76,190.98l1.21,15.06c0,0,15.17-4.03,36.76,2.9l0.75-9.55
						C341.48,199.4,318.45,187.41,302.76,190.98z"/>
					<path fill="#74403B" d="M322.75,226.79c8.05,0,14.58,6.52,14.58,14.58v19.31c0,8.05-6.52,14.58-14.58,14.58
						c-8.06,0-14.58-6.52-14.58-14.58v-19.31C308.16,233.32,314.69,226.79,322.75,226.79z"/>
					<path fill="#74403B" d="M172.07,226.79c8.06,0,14.58,6.52,14.58,14.58v19.31c0,8.05-6.52,14.58-14.58,14.58
						c-8.05,0-14.58-6.52-14.58-14.58v-19.31C157.5,233.32,164.02,226.79,172.07,226.79z"/>
					<path fill="#92484B" d="M195.97,190.96l-1.21,15.07c0,0-15.17-4.03-36.76,2.9l-0.76-9.55
						C157.24,199.37,180.27,187.39,195.97,190.96z"/>
					<path fill="#9E3421" d="M298.81,95.74c0,0,32.7,83.15,152.22,120.09c0,0,14.95-161.93-152.22-179.79V95.74z"/>
					<path fill="#9E3421" d="M330.28,92.91c-2.84,5.67-4.47,73.89-184.95,121.23c0,0-14.21-175.37,153.48-178.1L330.28,92.91z"/>
					<path fill="#9E3421" d="M417.34,189.76c5.43,1.74,26.55,88.96,26.55,88.96s13.97-74.11,2.46-97.69
						C434.84,157.44,417.34,189.76,417.34,189.76z"/>
					<path fill="#F47A4C" d="M417.55,248.61c-0.1-9.86,5.8-18.81,14.97-22.45c8.71-3.45,19.69-4.32,28.8,6.71
						c17.55,21.25-1.39,74.85-15.25,80.39c-13.86,5.54-20.88-0.1-23.84-2.72C417.34,306.21,417.76,269.73,417.55,248.61z"/>
					<path fill="#F8A083" d="M209.4,74.55c50.98-46.8,126.89-46.8,177.87,0c49.06,45.04,58.93,114.85,57.36,170.68
						c1.57,51.07-13.64,113.15-62.7,154.35c-50.98,42.82-121.55,44.63-172.53,1.81c-49.05-41.21-58.93-105.09-57.36-156.17
						C150.47,189.41,160.35,119.59,209.4,74.55z"/>
					<path fill="#F47A4C" d="M243.75,281.92h-30.98C212.77,281.92,225.22,309.75,243.75,281.92z"/>
					<path fill="#92484B" d="M195.67,190.98l-1.2,15.06c0,0-15.17-4.03-36.76,2.9l-0.75-9.55
						C156.95,199.4,179.97,187.41,195.67,190.98z"/>
					<path fill="#D84F3A" d="M302.76,190.98l1.21,15.06c0,0,15.17-4.03,36.76,2.9l0.75-9.55
						C341.48,199.4,318.45,187.41,302.76,190.98z"/>
					<path fill="#74403B" d="M322.75,226.79c8.05,0,14.58,6.52,14.58,14.58v19.31c0,8.05-6.52,14.58-14.58,14.58
						c-8.06,0-14.58-6.52-14.58-14.58v-19.31C308.16,233.32,314.69,226.79,322.75,226.79z"/>
					<path fill="#74403B" d="M172.07,226.79c8.06,0,14.58,6.52,14.58,14.58v19.31c0,8.05-6.52,14.58-14.58,14.58
						c-8.05,0-14.58-6.52-14.58-14.58v-19.31C157.5,233.32,164.02,226.79,172.07,226.79z"/>
					<path fill="#D84F3A" d="M195.97,190.96l-1.21,15.07c0,0-15.17-4.03-36.76,2.9l-0.76-9.55
						C157.24,199.37,180.27,187.39,195.97,190.96z"/>
					<path fill="#F15F22" d="M250.55,117.26c0,0,64.19,96.88,200.48,98.57c0,0,14.95-161.93-152.22-179.79L250.55,117.26z"/>
					<path fill="#F15F22" d="M298.34,88.98c-2.84,5.68,27.47,77.82-153.01,125.16c0,0-14.21-175.37,153.48-178.1L298.34,88.98z"/>
					<path fill="#F15F22" d="M417.34,189.76c5.43,1.74,26.55,88.96,26.55,88.96s13.97-74.11,2.46-97.69
						C434.84,157.44,417.34,189.76,417.34,189.76z"/>
					<path fill="#F47A4C" d="M417.55,248.61c-0.1-9.86,5.8-18.81,14.97-22.45c8.71-3.45,19.69-4.32,28.8,6.71
						c17.55,21.25-1.39,74.85-15.25,80.39c-13.86,5.54-20.88-0.1-23.84-2.72C417.34,306.21,417.76,269.73,417.55,248.61z"/>
				</g>
				<path fill="#FFFFFF" d="M300.52,314.56c-4.57,33.06-25.79,58.07-51.31,58.07c-25.51,0-46.73-25.01-51.3-58.07H300.52z"/>
				<path fill="#FFFFFF" d="M300.52,314.56c-4.57,33.06-25.79,58.07-51.31,58.07c-25.51,0-46.73-25.01-51.3-58.07H300.52z"/>
			</g>
			<g>
				<path fill="#F8A083" d="M115.16,608.01c-0.05,0.8,0.38,2.2,1.26,4c0.71,1.49,1.7,3.29,2.97,5.29
					c9.39,15.23,31.53,42.5,37.13,45.64c2.26,1.25,5.44,14.13,7.86,32.96c1.79,13.97,3.15,44.41,3.37,74.68h202.26
					c0.94-17.74,3.48-35.78,8.24-54.51c0.83-3.24,2.8-6.09,4.23-9.14c0.66-1.6,1.37-3.15,2.03-4.69c0.44-0.9,0.83-1.85,1.26-2.9
					c0.33-0.84,0.71-1.79,1.05-2.79c0,0,0-0.05,0.05-0.1c2.8-8.29,5.17-20.92,4.18-39.25v-0.15c-0.83-14.28-3.68-31.86-10-53.58
					c1.1-0.4,2.25-0.8,3.41-1.3l0.06-0.05c0.16-0.05,0.27-0.1,0.44-0.15c0.17-0.05,0.28-0.1,0.44-0.15
					c1.15-0.45,2.36-0.95,3.57-1.49c1.65-0.75,3.35-1.55,5.06-2.4l2.14-1.05c1.1-0.55,2.2-1.14,3.35-1.74
					c8.57-4.55,17.8-10.14,26.98-16.13c3.29-13.49,4.89-22.27,4.89-24.52c0,0,9.51-31.95-8.68-60.52c-0.17-0.3-0.33-0.6-0.55-0.9
					c-0.11-0.1-0.22-0.25-0.27-0.4c-1.76-2.65-3.79-5.24-6.04-7.84c-0.11-0.1-0.22-0.25-0.33-0.35c-1.37-1.5-2.85-3-4.45-4.39
					c-0.17-0.1-0.28-0.2-0.38-0.3c-2.59-1.7-5.61-2.9-8.79-3.2c-10.33-1-24.83,6.19-25.16,54.53c-0.11,15.83,2.86,40.55,7.58,69.81
					c-0.99-4.39-2.03-8.94-3.24-13.68c-0.77-2.7-1.53-5.39-2.47-8.2c-18.46-58.32-0.66-93.38,13.35-110.31
					c-2.2-1.25-4.12-2.29-5.44-3c-8.24-4.49-17.31-8.03-26.98-10.63c-3.46-0.95-6.97-1.8-10.55-2.5
					c-21.15,25.96-67.41,73.95-127.4,84.59c-4.56,0.8-8.73,1.25-12.47,1.29c-0.83,0.05-1.59,0.05-2.36,0.05c-0.6,0-1.21,0-1.81-0.05
					c-38.02-1.44-27.41-41.79-16.16-68.91c0.06-0.15,0.11-0.3,0.22-0.45c0.33-0.8,0.66-1.6,0.99-2.4c1.21-2.94,2.53-5.64,3.68-8.14
					c-5,1.7-9.89,3.59-14.45,5.84c-0.93,0.45-1.87,0.9-2.74,1.35c-0.05,0-0.11,0.05-0.11,0.05c-0.88,0.45-1.7,0.9-2.53,1.35
					c-6.65,3.65-28.64,37.04-31.94,45.08c-13.79,33.35-26.79,77.71-30.09,93.09v0.05C111.37,607.66,115.32,606.36,115.16,608.01z"/>
				<path fill="#F8A083" d="M181.78,770.58c4.54-22.93,9-47.19,13.03-66.94c-51.09-4.99-76.97-18.57-87.57-26.01
					c-3.63,31.03-6.71,63.88-9.16,92.96H181.78z"/>
				<path fill="#019D75" d="M107.25,677.62c10.6,7.44,36.48,21.02,87.57,26.01c1.1-5.64,2.26-10.94,3.3-15.73
					c4.07-18.13,7.47-37.21,9.78-56.88c0,0,0,0,0-0.05c3.57-30.06,4.5-61.41,1.21-92.48c-2.25-21.02-6.43-41.89-13.08-62.17
					c-1.37-4.19-3.35-8.14-6.04-9.59c-0.27-0.15-0.55-0.3-0.82-0.4c-3.19-1.1-7.58-1.75-12.69-0.55c-0.06,0-0.11,0.05-0.11,0.05
					c-0.71,0.15-1.43,0.4-2.2,0.65c-5.5,1.85-11.65,5.94-17.86,13.73c-0.32,0.3-0.66,0.65-0.88,0.99
					c-4.89,6.34-9.83,14.99-14.56,26.66c-0.22,0.5-0.44,1.05-0.66,1.6c-8.79,22.23-16.87,60.47-23.79,102.52
					c-0.21,1.4-0.44,2.79-0.71,4.24c-0.49,3.24-1.04,6.54-1.53,9.88C111.69,641.92,109.38,659.45,107.25,677.62z"/>
				<path fill="#F8A083" d="M502.21,770.58c-2.06-34.92-6.32-74.94-14.69-115.53c-13.46,10.44-42.03,27.36-87.79,29.61
					c5.91,29.2,12.3,58.79,18.35,85.92H502.21z"/>
				<path fill="#36B87F" d="M320.23,448.97v-0.15c-8.79-0.6-34.17-2.6-63.18-1v1.15c0,15.88,14.12,28.71,31.59,28.71
					C306.06,477.69,320.23,464.85,320.23,448.97z"/>
				<path fill="#36B87F" d="M101.14,611.86c4.01,1.29,8.03,2.54,11.98,3.65l6.26,1.79c0.33,0.05,0.6,0.15,0.94,0.25
					c4.78,1.35,9.5,2.5,14.17,3.59c2.31,0.55,4.62,1.05,6.98,1.55c9.23,2,18.24,3.59,27.03,4.84c2.14,0.3,4.23,0.6,6.32,0.85
					c0.88,0.15,1.7,0.25,2.53,0.3c2.26,0.3,4.45,0.55,6.65,0.7c0.11,0.05,0.16,0.05,0.22,0.05c2.31,0.25,4.56,0.45,6.76,0.6
					c0.44,0.05,0.82,0.1,1.21,0.1c2.31,0.2,4.61,0.35,6.86,0.45c2.37,0.15,4.72,0.3,7.03,0.35c0.6,0.05,1.21,0.05,1.81,0.05
					c0.49,0,1.05,0.05,1.54,0.05c3.13,0.1,6.26,0.15,9.39,0.15c3.91,0,7.81-0.05,11.54-0.2c1.1-0.05,2.25-0.1,3.3-0.15
					c1.37-0.05,2.74-0.1,4.06-0.19c2.09-0.1,4.12-0.25,6.15-0.4c1.98-0.15,4.01-0.3,5.99-0.5c2.36-0.2,4.67-0.45,6.97-0.75
					c2.75-0.3,5.39-0.65,8.02-1c2.64-0.34,5.28-0.75,7.86-1.2c1.48-0.2,2.91-0.45,4.34-0.75c2.2-0.4,4.39-0.8,6.54-1.25
					c2.58-0.5,5.16-1.05,7.75-1.65c1.64-0.35,3.29-0.75,4.89-1.15c2.03-0.45,4.07-0.99,6.04-1.49c2.26-0.6,4.45-1.2,6.65-1.85
					c1.59-0.45,3.18-0.9,4.72-1.4c20.65-6.29,38.07-13.98,51.86-21.22c1.43-0.75,2.85-1.5,4.23-2.25c1.04-0.55,2.03-1.1,3.02-1.7
					c2.96-1.65,5.76-3.29,8.29-4.84c1.21,4.74,2.25,9.29,3.24,13.68c-4.72-29.26-7.69-53.98-7.58-69.81
					c0.33-48.33,14.84-55.53,25.16-54.53c3.02,0.3,5.93,1.4,8.4,2.94c-2.14-1.49-9.72-6.09-15.49-9.23
					c-0.99-0.55-1.92-1.1-2.85-1.55c-2.2-1.25-4.12-2.3-5.44-3c-8.24-4.5-17.31-8.04-26.98-10.64c-3.46-0.95-6.97-1.8-10.55-2.5
					c-4.78-1-9.72-1.85-14.72-2.45c0.05,0.8,0.05,1.65,0.05,2.45c0,22.92-20.43,41.54-45.65,41.54c-25.22,0-45.71-18.62-45.71-41.54
					c0-1.25,0.06-2.5,0.17-3.74c-16.7,1.59-33.95,4.54-49.44,9.74c-5,1.7-9.89,3.59-14.45,5.84c-0.94,0.45-1.87,0.9-2.75,1.35
					c-0.06,0-0.11,0.05-0.11,0.05c-0.71,0.15-1.43,0.4-2.2,0.65c-0.11,0.25-0.22,0.45-0.33,0.7c-4.56,8.89-13.9,19.87-24.77,31.81
					c-2.64,2.89-5.39,5.89-8.19,8.88c-0.88,0.95-1.75,1.9-2.64,2.85c-11.98,12.74-24.44,26.07-34,38.55
					C86.92,571.91,89.39,594.53,101.14,611.86z"/>
				<path fill="#008C66" d="M164.07,695.28v0.15c0.99,7.51,1.81,19.82,2.42,34.27c112.03,11.66,181.4,0.1,210.2-6.8
					c0.49-2.4,1.1-4.85,1.71-7.25c0.83-3.26,2.81-6.11,4.24-9.16c0.66-1.6,1.38-3.15,2.03-4.7c0.44-0.9,0.83-1.85,1.27-2.9
					c0.33-0.85,0.71-1.8,1.05-2.8L225.51,663L164.07,695.28z"/>
				<path fill="#00AC7A" d="M101.14,611.86c4.5,6.79,10.44,12.68,17.2,17.48c2.48,1.79,5,3.39,7.64,4.84
					c14.17,7.79,23.4,23.37,29.06,37.05c5.71,13.58,7.8,25.32,7.8,25.32c0.5-0.2,0.99-0.45,1.54-0.65
					c18.74-7.99,39.72-10.18,59.99-6.69c77.02,13.39,162.45,7.34,162.45,7.34s0-0.05,0.05-0.1c0.77-1.45,8.51-17.48,3.57-59.72
					c-1.16-9.99-3.02-21.47-5.93-34.61c-0.06-0.34-0.11-0.7-0.22-1.05v-0.15c-0.99-4.39-2.03-8.94-3.24-13.68
					c-2.53,1.55-5.33,3.19-8.29,4.84c-0.99,0.6-1.98,1.15-3.02,1.7c-1.38,0.75-2.75,1.5-4.23,2.25
					c-13.79,7.24-31.21,14.93-51.86,21.22c-1.59,0.5-3.13,0.95-4.72,1.4c-2.2,0.64-4.39,1.25-6.65,1.85
					c-1.98,0.5-4.01,1.05-6.04,1.49c-1.59,0.4-3.24,0.8-4.89,1.15c-2.59,0.6-5.17,1.15-7.75,1.65c-2.14,0.45-4.34,0.9-6.54,1.25
					c-1.43,0.3-2.86,0.55-4.34,0.75c-2.58,0.45-5.17,0.85-7.86,1.2c-2.63,0.4-5.27,0.75-8.02,1c-2.31,0.3-4.61,0.55-6.97,0.75
					c-1.98,0.2-3.96,0.35-5.99,0.5c-2.03,0.15-4.06,0.3-6.15,0.4c-1.32,0.1-2.69,0.15-4.06,0.19c-1.05,0.05-2.14,0.1-3.3,0.15
					c-3.74,0.15-7.64,0.2-11.54,0.2c-3.07,0-6.21-0.05-9.39-0.15c-1.1,0-2.2-0.05-3.35-0.1c-2.31-0.05-4.67-0.2-7.03-0.35
					c-2.25-0.1-4.56-0.25-6.86-0.45c-0.39,0-0.77-0.05-1.21-0.1c-2.2-0.15-4.45-0.34-6.76-0.6c-0.06,0-0.11,0-0.22-0.05
					c-2.2-0.16-4.39-0.4-6.65-0.7c-0.83-0.05-1.64-0.15-2.53-0.3c-2.09-0.25-4.17-0.55-6.32-0.85c-8.79-1.25-17.8-2.85-27.03-4.84
					c-2.36-0.5-4.67-1-6.98-1.55c-4.67-1.1-9.39-2.3-14.17-3.59c-0.33-0.1-0.6-0.2-0.94-0.25l-6.26-1.79
					C109.17,614.4,105.15,613.15,101.14,611.86z"/>
				<path fill="#36B87F" d="M376.71,531.11c-0.11,15.83,2.86,40.55,7.58,69.81v0.15c0.05,0.35,0.11,0.7,0.16,1.1
					c1.76,10.94,3.79,22.57,5.99,34.55c2.85,15.48,5.99,31.66,9.28,47.94c45.76-2.25,74.33-19.17,87.79-29.61V655
					c-11.81-57.17-31.7-115.24-64.83-161.04c-2.31-3.25-4.72-6.39-7.2-9.49c-0.16-0.25-0.32-0.45-0.49-0.65
					c-1.15-1.4-2.47-2.7-3.95-3.74c-0.17-0.1-0.28-0.2-0.39-0.3c-2.58-1.7-5.6-2.9-8.79-3.2
					C391.54,475.59,377.04,482.78,376.71,531.11z"/>
				<path fill="#F8A083" d="M257.06,391.39v57.59c0,15.88,14.12,28.71,31.59,28.71c17.41,0,31.58-12.84,31.58-28.71v-57.59H257.06z"
					/>
				<path fill="#FFFFFF" d="M242.94,452.62c0,22.92,20.49,41.54,45.71,41.54c25.22,0,45.65-18.62,45.65-41.54
					c0-0.8,0-1.65-0.05-2.45c-4.61-0.65-9.29-1.05-14.01-1.35v0.15c0,15.88-14.17,28.71-31.58,28.71
					c-17.48,0-31.59-12.84-31.59-28.71v-1.15c-4.56,0.25-9.23,0.6-13.95,1.05C242.99,450.12,242.94,451.37,242.94,452.62z"/>
			</g>
		</g>
	</g>
</g>
</svg>
