<?xml version="1.0" encoding="utf-8"?>
<!-- Generator: Adobe Illustrator 25.2.3, SVG Export Plug-In . SVG Version: 6.00 Build 0)  -->
<svg version="1.1" id="Layer_1" xmlns="http://www.w3.org/2000/svg" xmlns:xlink="http://www.w3.org/1999/xlink" x="0px" y="0px"
	 viewBox="0 0 576 576" enable-background="new 0 0 576 576" xml:space="preserve">
<g>
	<g>
		<defs>
			<circle id="SVGID_1_" cx="288.65" cy="288.15" r="287.35"/>
		</defs>
		<use xlink:href="#SVGID_1_"  overflow="visible" fill="#F9E3D9"/>
		<clipPath id="SVGID_2_">
			<use xlink:href="#SVGID_1_"  overflow="visible"/>
		</clipPath>
		<g clip-path="url(#SVGID_2_)">
			<g>
				<path fill="#6A5CA8" d="M116.74,643.24c7.44-29.25,28.82-53.58,35.71-68.69c10.8-23.47-26.83-44.1-3.3-70.76
					c23.59-26.65,162.88-36.62,162.88-36.62c29.55,31.15,149.24,25.1,150.44,65.62c0.45,15.06-10.6,56.05-23.76,110.46H116.74z"/>
			</g>
			<path fill="#A05725" d="M390.26,316.93c0,0,4.31,94.89-49.28,116.01c-53.59,21.12-167.47,38.05-167.47,38.05l32.76-149.75
				L390.26,316.93z"/>
			<path fill="#554DA0" d="M-88.74,595.14c3.9,34.93,14.62,46.99,41.2,42.37c17.3-2.99,103.6-17.42,164.62-33.5
				c7.76-7.29,15.17-13.95,21.64-19.6c3.71-3.23,7.1-6.11,10.01-8.59C101.1,596.6-26.77,619.19-47.71,623.05
				c-25.11,4.61-35.24-7.45-38.91-42.34c-0.47-4.34-0.43-9.07,0-13.95C-88.59,576.58-89.69,586.63-88.74,595.14z"/>
			<path fill="#6A5CA8" d="M-86.61,580.72c3.67,34.89,13.8,46.95,38.91,42.34c20.93-3.87,148.81-26.45,196.42-47.22
				c-2.92,2.48-6.3,5.36-10.01,8.59c-6.47,5.64-13.88,12.3-21.64,19.6c8.04-2.13,15.64-4.26,22.59-6.47
				c21.32-6.58,36.46-13.29,39.22-19.35c10.41-23.1,7.02-117.43,4.34-116.09c0,0-4.06,1.26-10.95,3.43
				c-31.73,10.21-123.78,40.76-158.55,64.18c-42.37,28.46-92.75-8.67-92.75-8.67s-3.15,23.53-7.57,45.69v0.04
				C-87.05,571.65-87.09,576.38-86.61,580.72z"/>
			<path fill="#554DA0" d="M521.68,643.24c-12.99-37.87-26.54-73.68-37.1-100.68c-14.07-35.99-38.12-58.69-62.01-72.96
				c31.11,11.31,71,35.24,90.94,85.5c9.49,23.97,21.42,54.98,33.18,88.15H521.68z"/>
			<path fill="#6A5CA8" d="M432.3,643.24c-2.65-13.68-3.21-25.41-0.43-33.47c15.42-44.66-52.38-150.14-52.38-150.14
				s18.84,1.18,43.04,9.97h0.04c23.89,14.27,47.94,36.98,62.01,72.96c10.56,27,24.12,62.81,37.1,100.68H432.3z"/>
			<path fill="#403C86" d="M25.72,479.34c0,0,18.4,4.72,4.45,15.29c-15.15,11.48-63.08,18.47-80.92-3.83
				c-17.84-22.3-33.37-26.96-11.46-30.58c16.64-2.75,13.38,1.27,13.38,1.27L25.72,479.34z"/>
			<path fill="#A05725" d="M196.57,99.68c0,0-31.56,68.69-33.94,73.67c-2.39,4.99-9.01,52.02-9.85,82.18
				c-0.88,31.26-42.23,133.79-69.6,149.56c0,0,71.92,61.73,122.35,15.44C255.95,374.25,211.09,119.79,196.57,99.68z"/>
			<g>
				<path fill="#F89A5F" d="M272.29,513.72c6.77,0.81,13.57,0.63,20.3-0.28c46.05-22.59,38.38-51.19,32.03-75.11
					c-6.84-25.76,19.15-62.89,19.15-62.89l14.49,8.54c8.01-22.47,19.76-43.13,20.03-48.99l-116.28,43.92
					c0,0,15.63,12.32,11.45,33.88c-4.14,21.55-49.92,39.12-49.92,39.12S212.6,506.62,272.29,513.72z"/>
				<path fill="#DA7E53" d="M289.8,513.68c52.49-7.79,100.68-64.24,100.68-64.24c-50.07-0.36-38.93-43.53-27.18-77.95l-21.7-4.12
					c0,0-27.8,41.29-21.08,68.53C326.77,461.2,335.96,489.57,289.8,513.68z"/>
			</g>
			<path fill="#403C86" d="M35.33,485.76c0,0,11.46,26.12-8.29,49.7c-19.75,23.57-86.01,11.46-103.22-2.55
				c-17.2-14.02-5.7-65.55,5.14-70.01C-71.04,462.89-47.73,523.72,35.33,485.76z"/>
			<path fill="#A05725" d="M456.17,455.14c-53.71,83.35-201.89,27.02-201.89,27.02s32.82-28.35,67.7-67.72
				C393.94,397.1,435.77,430.08,456.17,455.14z"/>
			<g>
				<path fill="#FBB581" d="M102.52,174.81c0,0,45.76-18.65,54.27,4.06c8.28,22.08-40.98,1.98-59.28,24.58
					c-18.29,22.6-35.72,18.11-35.72,18.11S49.73,185.16,102.52,174.81z"/>
				<path fill="#DB7E4B" d="M102.48,220.94c0,0,24.96,30.07,13.08,48.48c-11.88,18.42-70.37,19.99-70.37,19.99l-2.84-65.39
					C42.34,224.02,91.99,196.79,102.48,220.94z"/>
				<path fill="#FBB581" d="M70.93,189.51c2.87-0.07,27.75,0.77,31.68,9.09c3.93,8.32,21.55,42.64,5.23,43.34
					c-16.31,0.7-23.26-36.49-23.26-36.49l-27.92-2.22C56.66,203.23,56.55,189.82,70.93,189.51z"/>
				<path fill="#FBB581" d="M85.45,201.75c0,0,19.37,37.19,7.42,45.6c-11.96,8.41-22.41-28.38-22.41-28.38s-13.44,6.24-15.82,12.45
					c-2.38,6.2,3.92,18.07,1.42,38.48c-3,24.53-28.44,47.14-33.26,37.45c-4.83-9.69-10.87-74.17,3.26-84.06
					C40.19,213.39,64.07,185.53,85.45,201.75z"/>
				<path fill="#F59E7A" d="M-33.09,508.27c21.88,9.2,48.12,7.44,55.25-47.27c9.81-74.95,30.98-124.27,41.46-144.45
					c0.12-0.01,0.24,0.01,0.31,0.01c22.19-1.08,49.27-30.41,61.14-48.3c6.66-10.05,20.2-14.28,30.77-16.09
					c6.94-1.21,8.36-10.52,2.13-13.66c-0.86,0.51-1.85,0.92-3.02,1.11c-11.22,1.92-25.54,6.34-32.61,16.74
					c-12.57,18.47-41.34,48.83-64.78,50.02c-0.12,0.01-0.2-0.02-0.32-0.01c-11.16,20.83-33.64,71.86-44.21,149.29
					C6.7,502.27-13.29,511.73-33.09,508.27z"/>
				<path fill="#FBB581" d="M-65.28,486.52c0,0,14.71,14.35,32.19,21.74c19.8,3.46,39.79-6,46.13-52.6
					c10.57-77.43,33.05-128.46,44.21-149.29c0.12-0.01,0.2,0.02,0.32,0.01c23.44-1.19,52.21-31.54,64.78-50.02
					c7.06-10.4,21.38-14.82,32.61-16.74c1.17-0.18,2.16-0.6,3.02-1.11c-0.04-0.04-0.12-0.07-0.16-0.1
					c-16.99-8.16-47.09,3.75-57.31,15.07c-13.32,14.67-35.93,14.16-53.63,21.79c-6.13,2.67-8.58,8.6-8.29,15.14
					c-8.36-1.76-15.85-0.14-18.6,9.45C12.5,325.82-65.28,486.52-65.28,486.52z"/>
				<path fill="#FBB581" d="M70.36,209.5c2.27,5.1,19.19,41.39,5.58,39.72c-13.61-1.66-19.83-27.21-19.83-27.21l-1.47,9.41
					l-30.23-6.63C24.41,224.79,56.99,179.42,70.36,209.5z"/>
			</g>
			<path fill="#F6B185" d="M189.83,144.59c-2.43,22.52-17.52,82.34-27.32,102.48c-11.01,22.73,24.59,95.95,33.33,138.87
				c2.82,13.7,13.61,18.48,26.91,21.54c3.83-0.39,8.11-0.67,12.92-0.79c142.64-3.59,150.77-189.27,150.77-189.27
				c7.07-5.35,16.36-6.29,26.83-4.2c6.91-44.52,3.6-65.22-7.63-69.94c-17.73-7.53-131.05-73.43-161.5-47.75
				c-14.92,12.62-28.52,21.33-38.56,26.95C195.09,128.35,191.14,132.66,189.83,144.59z"/>
			<path fill="#F7966B" d="M229.63,225.68c0,0-10.04,32.4-18.34,42.05c-4.65,5.4-9.73,12.73-13.3,18.13
				c-2.84,4.28-1.74,9.93,2.64,13.46c5.28,4.26,11.75,8.66,13.88,8.68c22.62,0.24,30.18,5.59,31.69,0.52
				c1.71-5.77-0.33-15.47-14.99-13.22c0,0,4.21-31.3,1.66-40.28C230.32,246.03,229.63,225.68,229.63,225.68z"/>
			<path fill="#F79150" d="M218.77,406.44c1.91,0.47,4.41,1.32,6.39,1.45c49.55,3.08,141.69-1.82,165.1-90.95
				c11.48-43.73,19.01-77.75,23.03-103.72c-10.47-2.09-19.76-1.15-26.83,4.2c0,0-12.13,184.62-154.77,188.22
				C226.88,405.76,222.59,406.04,218.77,406.44z"/>
			<path fill="#A05725" d="M435.89,150.3c-26.31,4.44-56.47,7.36-83.75,4.66c-4.72-0.43-9.38-1.07-13.88-1.87
				c-0.71-7.19-1.24-13.76-1.66-19.16c-0.69-9.05-1.02-14.87-1.02-14.87C348.5,90.21,408.86,130.66,435.89,150.3z"/>
			<path fill="#A05725" d="M415.01,276.95c-1.99-6.34-6.07-11.3-11.26-15.4c-14.5-11.43-37.71-16.1-48.05-24.48
				c-4.23-3.43-7.76-15.47-10.59-30.62c3.14-8.34,9.79-20.68,22.92-27.27c15.1-7.59,38.79-7.55,75.6,15.19
				C435.29,234.43,420.05,293.24,415.01,276.95z"/>
			<path fill="#A05725" d="M435.82,150.28c-26.31,4.45-56.48,7.36-83.75,4.66c-8.47-12.3-14.55-20.44-14.55-20.44
				c-0.35-0.19-0.61-0.49-0.99-0.59c-108.76-28.43-174.11,40-174.11,40s11.75-79.51,65.17-111.26
				c34.04-20.22,134.29-15.71,225.7,41.5c10.16,6.38,18.46,19.47,24.99,37.2C466.58,144.3,451.9,147.57,435.82,150.28z"/>
			<path fill="#A05725" d="M491.32,332.07c-46.82,41.35-91.79,22.05-113.46,7.81c15.91-26.91,26.55-54.13,25.89-78.32
				c-0.12-5.31-0.83-10.43-2.11-15.41c-4.87-18.63-19.51-44.72-33.62-66.96c15.1-7.59,38.79-7.55,75.6,15.19
				c14.77,9.12,31.6,21.89,50.83,39.29C496.18,265.27,495.16,299.36,491.32,332.07z"/>
			<path fill="#BC6428" d="M461.4,445.96c-1.62,3.22-3.39,6.27-5.23,9.18c-20.39-25.06-62.23-58.05-134.19-40.7
				c19.84-22.35,40.36-48.3,55.88-74.57c21.68,14.24,66.65,33.54,113.46-7.81C486.3,375.31,476.35,416.16,461.4,445.96z"/>
			<path fill="#E67424" d="M368.02,179.18c-13.12,6.58-19.78,18.93-22.92,27.27c-3.08-16.44-5.4-36.62-6.92-53.38
				c4.49,0.8,9.15,1.45,13.88,1.87C356.84,161.95,362.39,170.25,368.02,179.18z"/>
			<path fill="#BC6428" d="M443.62,194.37c-36.81-22.74-60.5-22.78-75.6-15.19c-5.63-8.94-11.18-17.24-15.95-24.24
				c27.27,2.7,57.44-0.22,83.75-4.66c7.45,5.45,12.4,9.31,13.07,9.64C449.9,160.44,447.52,175.29,443.62,194.37z"/>
			<path fill="#BC6428" d="M494.45,233.66c-19.23-17.4-36.07-30.17-50.83-39.29c3.9-19.08,6.28-33.93,5.27-34.45
				c-0.67-0.33-5.62-4.19-13.07-9.64c16.08-2.71,30.76-5.97,42.46-8.92C487.08,165.39,492.53,197.97,494.45,233.66z"/>
			<path fill="#FFFFFF" d="M199.86,328.92l4.11,20.35l6,9.9l33.52,2.7l14.82-7.74c0,0,7.74-8.96,9.84-14.75
				c0.28-0.78-4.27,1.03-8.93,0.08C241.64,335.85,199.86,328.92,199.86,328.92z"/>
			<path fill="#EF4546" d="M203.97,349.27c0,0-3.35,4.91-0.84,11.31c3.39,8.63,40.27,16.79,57.25-8.58c0,0-28.46,12.81-46.92,4.45
				C204.41,352.37,203.97,349.27,203.97,349.27z"/>
			<path fill="#EF4546" d="M200.91,331.16c-1.68-0.48-2.19-2.58-0.88-3.68c3.51-2.93,9.38-6.82,12.26-3.06
				c4.26,5.57,7.72,5.4,10.86,3.54c2.78-1.64,7.95-3.04,13.9,0.86c7.73,5.06,26.06,12.35,31.03,10.17
				C268.08,339,259.85,347.99,200.91,331.16z"/>
			<g>
				<path fill="#E0DCCE" d="M147.77,259.4c-0.31,5.16,4.42,6.94,4.42,6.94c189.42,52.56,212.31,32.47,212.31,32.47
					c21.76-54.87,13.25-111.97,13.25-111.97s0.36,85.1-17.9,62.48c-18.22-22.62-16.51-62.68-16.51-62.68l-173.94-22.72
					C169.41,163.91,148.04,254.25,147.77,259.4z"/>
				<path fill="#CEC9BA" d="M329.63,184.87c0,0,12,41.82,30.22,64.45c18.26,22.62,17.9-62.48,17.9-62.48
					c-97.02-51.68-211.37-25.04-215.58-24.24L329.63,184.87z"/>
				<path fill="#2A4649" d="M132.75,257.09c7.25,2.2,15.06,4.27,23.23,6.17c4.89,1.19,9.93,2.31,15.07,3.38
					c3.83,0.8,7.72,1.57,11.66,2.29c13.48,2.59,27.35,4.84,40.74,6.81c48.57,7.1,91.29,10.27,91.29,10.27
					c19.14-41.9,15.89-100.87,13.57-101.68c-4.17-1.42-8.35-2.78-12.51-4.01c-16.82-5.1-33.63-8.85-49.76-11.62
					c-5.86-1.01-11.62-1.91-17.26-2.69c-8.5-1.15-16.69-2.05-24.46-2.76h-0.04c-40.71-3.64-77.14-2.96-77.14-2.96
					C129.88,185.99,132.75,257.09,132.75,257.09z"/>
				<path fill="#2D575A" d="M182.71,268.93c13.48,2.59,27.35,4.84,40.74,6.81c25.5-26.36,66.54-68.7,92.35-95.42
					c-16.82-5.1-33.63-8.85-49.76-11.62L182.71,268.93z"/>
				<path fill="#2D575A" d="M155.98,263.26c4.89,1.19,9.93,2.31,15.07,3.38l77.74-100.64c-8.5-1.15-16.69-2.05-24.46-2.76h-0.04
					L155.98,263.26z"/>
			</g>
			<path fill="#0F1B1C" d="M371.96,219.87l-6.05-0.48c0,0-10.75,26.34-6.89,45.19l6.64,1.21L371.96,219.87z"/>
			<path fill="#152828" d="M371.96,219.87c-3.32-0.68-7.74,45.43-6.29,45.92c1.45,0.48,30.94,3.87,41.57,3.38
				s13.54-19.33,13.54-19.33S395.64,224.7,371.96,219.87z"/>
			<g>
				<path fill="#F79150" d="M385.22,273.48c5.39-10.7,15.53-19.05,28.84-22.11c9.75-2.24,20.32-1.64,25.78,8.39
					c11.78,21.61-8.36,69.18-42.37,66.56C368.68,324.09,372.78,298.2,385.22,273.48z"/>
				<path fill="#F37021" d="M428.27,270.37c-18.92-7.72-34.99,11.87-32.96,28.37c2.03,16.5,19,6.7,19,6.7s-20.05,3.22-13.33-17.46
					c1.11-3.41,2.62-6.12,4.32-8.36c-0.06,0.31-0.14,0.54-0.2,0.88c-1.2,7.48,17.81,5.18,17.81,5.18c-0.14-0.02-0.27-0.04-0.39-0.07
					c-9.48-1.62-8.74-14.6,0.88-15.3C426.31,270.08,428.27,270.37,428.27,270.37z"/>
			</g>
		</g>
	</g>
</g>
</svg>
