<?xml version="1.0" encoding="utf-8"?>
<!-- Generator: Adobe Illustrator 25.2.3, SVG Export Plug-In . SVG Version: 6.00 Build 0)  -->
<svg version="1.1" id="Layer_1" xmlns="http://www.w3.org/2000/svg" xmlns:xlink="http://www.w3.org/1999/xlink" x="0px" y="0px"
	 viewBox="0 0 576 576" enable-background="new 0 0 576 576" xml:space="preserve">
<g>
	<g>
		<defs>
			<path id="SVGID_1_" d="M576,288.04c0,159.06-128.94,288-288,288c-159.06,0-288-128.94-288-288s128.94-288,288-288
				C447.06,0.04,576,128.98,576,288.04z"/>
		</defs>
		<use xlink:href="#SVGID_1_"  overflow="visible" fill="#F9E3D9"/>
		<clipPath id="SVGID_2_">
			<use xlink:href="#SVGID_1_"  overflow="visible"/>
		</clipPath>
		<g clip-path="url(#SVGID_2_)">
			<path fill="#55B6E7" d="M184.85,652.2l23.97-45.77l5.01-111.42c0,0-15.57,0.78-36.92,6.62l-4.22,93.68l-29.79,56.89H184.85z"/>
			<path fill="#9AC9EC" d="M146.45,652.2l26.23-56.89l4.22-93.68c-38.3,10.34-95.29,36.8-114.59,103.58
				c-5.63,19.46-10.58,34.85-14.89,47H146.45z"/>
			<path fill="#55B6E7" d="M510.38,552.77c4.17,4.73,7.96,9.67,11.12,14.85c5.29,8.67,8.84,17.9,9.79,27.52
				c1.62,16.76,2.29,36.92,2.43,57.06h61.3c-14.08-59.46-68.35-107.77-68.35-107.77s-41.42-29.19-98.41-51.48
				c-0.61,0.72-1.17,1.39-1.66,2.11C426.6,495.07,479.75,517.91,510.38,552.77z"/>
			<path fill="#9AC9EC" d="M502.57,652.2l18.93-84.58c-3.17-5.18-6.95-10.12-11.12-14.85c-30.64-34.86-83.78-57.71-83.78-57.71
				c0.5-0.72,1.06-1.39,1.66-2.11c-63.99-25.13-147.67-41.48-214.44,2.06c-86.07,56.1-92.07,150.61-92.07,150.61
				c0,0.33,0.03,2.65,0.12,6.58H502.57z"/>
			<path fill="#9AC9EC" d="M533.73,652.2c-0.14-20.14-0.82-40.3-2.43-57.06c-0.95-9.61-4.5-18.85-9.79-27.52
				c-3.17-5.18-6.95-10.12-11.12-14.85c-24.91,14.12-70.11,46.09-75.45,93.79c-0.2,1.85-0.35,3.73-0.46,5.63H533.73z"/>
			<g>
				<defs>
					<path id="SVGID_3_" d="M598.18,685.37c4.22-73.55-71.5-140.94-71.5-140.94s-41.42-29.19-98.41-51.48
						c-63.99-25.13-147.67-41.48-214.44,2.06c0,0-15.57,0.78-36.92,6.62c-38.3,10.34-95.29,36.8-114.59,103.58
						C32.23,709.12,20.6,704.33,20.6,704.33l57.79,71.06l34.02,15.17l14.09-26.91c4.9,80.68,14.6,179.92,33.45,219.73
						c33.86,71.39,265.26,37.08,265.26,37.08l3.39-17.18l35.69-180.19l5-22.3c1.35,3.02,2.51,5.44,3.4,7.12
						c7.89-11.51,28.96-40.37,59.05-67.5c15.4-13.84,33.19-27.18,52.76-37.53l13.73-8.84C598.56,691.1,598.01,688.21,598.18,685.37z
						"/>
				</defs>
				<clipPath id="SVGID_4_">
					<use xlink:href="#SVGID_3_"  overflow="visible"/>
				</clipPath>
				<g opacity="0.75" clip-path="url(#SVGID_4_)">
					<path opacity="0.35" fill="#1F9DD9" d="M689.68,494.33C454.4,466.6,219.13,438.86-16.15,411.13
						c0.95-23.83,2.21-47.67,3.77-71.5c238.09,33.95,476.18,67.91,714.27,101.86C697.6,459.05,693.53,476.67,689.68,494.33z"/>
					<path opacity="0.35" fill="#1F9DD9" d="M672.36,583.08c-230.24-17.62-460.48-35.24-690.72-52.85
						c-0.06-23.8,0.18-47.62,0.72-71.44c233.31,23.65,466.62,47.3,699.93,70.96C678.75,547.47,675.44,565.25,672.36,583.08z"/>
					<path opacity="0.35" fill="#1F9DD9" d="M74.05,652.2H661.6c1.55-11.15,3.16-22.29,4.89-33.42
						c-228.11-13.66-456.21-27.32-684.32-40.98c0.47,23.78,1.24,47.55,2.32,71.28C14.34,650.12,44.2,651.16,74.05,652.2z"/>
					<path opacity="0.35" fill="#1F9DD9" d="M626.09,652.2c10.66-84.29,26.31-167.86,46.89-250.24c-19.53-3.09-39.06-6.19-58.6-9.28
						c-19.78,85.56-34.37,172.22-43.76,259.52H626.09z"/>
					<path opacity="0.35" fill="#1F9DD9" d="M533.69,652.2c8.54-89.3,22.41-178.03,41.63-265.71c-19.53-3.09-39.07-6.19-58.6-9.28
						c-18.37,90.86-31.15,182.69-38.37,274.99H533.69z"/>
					<path opacity="0.35" fill="#1F9DD9" d="M441.51,652.2c6.33-94.3,18.37-188.2,36.15-281.18c-19.53-3.09-39.06-6.19-58.6-9.28
						c-16.88,96.16-27.8,193.17-32.77,290.46H441.51z"/>
					<path opacity="0.35" fill="#1F9DD9" d="M349.53,652.2c4.05-99.28,14.2-198.35,30.48-296.64c-19.53-3.09-39.06-6.19-58.6-9.28
						c-15.36,101.48-24.33,203.65-26.99,305.93H349.53z"/>
					<path opacity="0.35" fill="#1F9DD9" d="M257.71,652.2c1.72-104.26,9.92-208.5,24.64-312.11c-19.53-3.09-39.07-6.19-58.6-9.28
						c-13.77,106.81-20.77,214.15-21.07,321.39H257.71z"/>
					<path opacity="0.35" fill="#1F9DD9" d="M166.04,652.2c-0.67-109.23,5.53-218.64,18.65-327.58c-19.53-3.09-39.06-6.19-58.6-9.28
						c-12.13,112.15-17.11,224.66-14.98,336.86H166.04z"/>
					<path opacity="0.35" fill="#1F9DD9" d="M74.51,652.2c-3.09-114.19,1.06-228.77,12.52-343.05c-19.53-3.09-39.06-6.18-58.6-9.28
						C17.98,417.35,15.08,535.03,19.66,652.2H74.51z"/>
				</g>
			</g>
			<g>
				<path fill="#045473" d="M131.74,652.2h33.25c-2.44-8.02-4.02-13.7-4.26-15.65c-1.39-11.12,37.46-143.34,37.46-143.34
					l-42.32,8.24c0,0-28.33,130.36-26.24,142.87C129.86,645.75,130.6,648.49,131.74,652.2z"/>
				<path fill="#045473" d="M374.93,652.2l66.61-147.23l-28.15-22.59c0,0-74.86,148.9-75.79,150.29c-0.2,0.31-2.08,7.9-4.88,19.53
					H374.93z"/>
			</g>
			<path fill="#175B8F" d="M46.36,652.2c-2.32-1.17-4.39-1.67-6.12-1.29c-1.46,0.32-2.75,0.76-3.94,1.29H46.36z"/>
			<path fill="#F4A976" d="M229.04,524.59l6.93,20.83l0.38,1.14l0.19,0.57c0,0-0.03,0.31-0.03,0.72c0.11-0.15,0.22-0.31,0.3-0.5
				c-0.08-0.04,0-0.04,0-0.04c2.51-5.44,5.29-9.89,8.11-13.52C238.67,530.84,233.42,527.71,229.04,524.59z"/>
			<path fill="#55B6E7" d="M276.28,454.82c-1.91,0.95-57.98-2.01-67.22,14.7c-9.24,16.71,12.97,31.93,12.97,31.93L276.28,454.82z"/>
			<path fill="#55B6E7" d="M328.62,432.14c1.68-0.33,40.07-6.89,67.25,5.94l-2.46,36.31L328.62,432.14z"/>
			<path fill="#F4A976" d="M213.31,508.26c3.28,5.37,8.26,10.93,15.72,16.34c4.38,3.12,9.63,6.25,15.88,9.21
				c0.19,0.08,0.38,0.2,0.57,0.27c0.46,0.23,0.87,0.42,1.33,0.57c0.46,0.19,0.91,0.34,1.33,0.5c0.8,0.3,1.64,0.5,2.44,0.69
				c0.8,0.19,1.6,0.3,2.36,0.38c0.16,0.08,0.35,0.08,0.5,0.08c9.18,0.84,17.78-4.08,29.51-8.18c1.44-0.5,2.97-0.95,4.53-1.37
				c0.04,0,0.08,0,0.12-0.04c11-2.97,24.78-4.57,34.56-11.12c0.65-2.06,1.18-4.07,1.52-6.09c0.31-1.37,0.54-2.74,0.69-4.07
				c2.36-19.26-5.94-35.29-11.26-43.28c-0.35-0.5-0.65-0.91-0.95-1.33c-1.91-2.74-3.24-4.23-3.24-4.23l0.15-4.84l1.53-52.65
				l-51.93,8.83l-1.25,0.23l-36.28,6.17c0,0,15.99,21.97,0.19,51.02c-0.61,1.1-1.22,2.17-1.94,3.27c-2.82,4.61-6.47,9.4-11.16,14.28
				C207.15,489.19,207.34,498.4,213.31,508.26z"/>
			<path fill="#ED7E67" d="M322.14,515.58c23.91-15.93,45.4-36.48,57.11-48.52c-5.3-22.47-5.3-78.79-5.3-78.79l-63.38,10.79
				l-1.66,57.5C308.91,456.57,332.52,482.84,322.14,515.58z"/>
			<path fill="#F4A976" d="M154.46,431.63c7.48,14.05,20.78,23.8,37.3,30.05c2.96,0.2,6.6,0.65,10.93,1.4
				c65.85,11.38,138.21-13.82,159.35-53.65s-21.95-63.41-3.25-95.12c18.7-31.71,0.81-130.08,0.81-130.08s14.18-0.72,32.13-1.04
				c-5.2-29.91-21.69-57.1-46.83-74.5c-83.8-57.95-170.92,33.53-170.92,80.16c0,29.43,29.27,115.97,20.58,151.74
				C185.87,376.35,120.83,368.77,154.46,431.63z"/>
			<path fill="#FFFFFF" d="M329.51,257.66c0,0,0,19.51-12.47,24.12s-36.04,4.47-40.38-28.86L329.51,257.66z"/>
			<path fill="#FFFFFF" d="M226.05,264.1c-0.97,4.4-5.48,10.42-9.65,12.14c-1.88,0.78-4.06,1.17-6.41,0.67
				c-7.52-1.63-13.82-16.67-16.06-27.65l33.81-4.88C227.75,244.39,228.56,252.68,226.05,264.1z"/>
			<g>
				<g>
					<path fill="#2A9695" d="M291.61,260.94c0,8.25,6.69,14.94,14.94,14.94s14.94-6.69,14.94-14.94c0-8.26-6.69-14.95-14.94-14.95
						S291.61,252.68,291.61,260.94z"/>
					<path fill="#19281F" d="M299.96,261.51c0,3.47,2.81,6.29,6.28,6.29c3.47,0,6.28-2.81,6.28-6.29c0-3.47-2.81-6.28-6.28-6.28
						C302.77,255.23,299.96,258.05,299.96,261.51z"/>
				</g>
				<circle opacity="0.85" fill="#EDEEEE" cx="295.04" cy="258.81" r="5.2"/>
			</g>
			<g>
				<g>
					<path fill="#2A9695" d="M203.28,258.5c0,6,4.87,10.87,10.87,10.87c6.01,0,10.88-4.87,10.88-10.87
						c0-6.01-4.87-10.88-10.88-10.88C208.14,247.62,203.28,252.49,203.28,258.5z"/>
					<path fill="#19281F" d="M209.35,258.92c0,2.53,2.04,4.58,4.57,4.58s4.57-2.05,4.57-4.58c0-2.52-2.04-4.57-4.57-4.57
						S209.35,256.4,209.35,258.92z"/>
				</g>
				<circle opacity="0.85" fill="#EDEEEE" cx="205.39" cy="256.04" r="3.79"/>
			</g>
			<path fill="#F49252" d="M329.51,257.66l-52.85-4.74c0,0,2.79-24.39,28.46-24.39C329.1,228.53,329.51,257.66,329.51,257.66z"/>
			<path fill="#F26B6A" d="M246.31,224.61c0,0-15.72,13.82-19.24,40.11c-3.52,26.29-17.34,55.55-10.02,62.6
				c7.32,7.04,33.87,0.27,36.86-7.32c2.98-7.58,15.98,9.22,18.7-2.17c2.71-11.38-5.69-18.7-10.57-16.8
				C257.15,302.92,246.31,224.61,246.31,224.61z"/>
			<g>
				<path fill="#813823" d="M301.25,344.41c1.64,11.58-15.84,45.48-54.35,40.64c-38.23-5.05-40.97-42.11-40.97-42.11h5.74
					l84.39,1.47H301.25z"/>
				<path fill="#FFFFFF" d="M296.06,344.41c0,6.11-2.19,11.79-7.38,14.33c-13.66,6.31-63.64,1.89-70.74-1.9
					c-4.37-2.32-5.73-9.05-6.28-13.9L296.06,344.41z"/>
			</g>
			<path fill="#D8745F" d="M244.69,470.58c51.96,0.81,109.82-16.66,131.96-40.03c29.3-30.93,21.92-169.46,16.45-236.52
				c-0.29-3.64-0.74-7.28-1.4-10.86c-1.95,0.03-3.83,0.07-5.65,0.1c0.61,3.54,1.07,7.15,1.36,10.76
				c5.46,67.05,12.84,205.59-16.46,236.52C349.63,453.09,295.12,470.13,244.69,470.58z"/>
			<path fill="#ED7E67" d="M191.74,461.67c0.87,0.33,1.76,0.65,2.67,0.98c14.8,5.17,32,7.64,49.95,7.94c0.1,0.03,0.2,0.03,0.33,0
				c50.44-0.46,104.94-17.5,126.27-40.03c29.3-30.93,21.92-169.46,16.46-236.52c-0.29-3.61-0.75-7.22-1.36-10.76
				c-15.19,0.36-26.47,0.94-26.47,0.94s17.88,98.37-0.82,130.08s24.39,55.28,3.25,95.12c-18.05,34.02-73.46,57.36-130.24,56.36
				c-0.2,0.03-0.39,0.03-0.59,0c-9.53-0.2-19.09-1.08-28.52-2.7C198.34,462.32,194.71,461.86,191.74,461.67z"/>
			<path fill="#954120" d="M359.85,205.01l8.69,8.75l1.21,87.95l28.61-0.15c0,0,11.9-92.68,5.95-117.07
				c-1.86-7.61-2.34-14.25-2.44-19.84C386.29,170.05,369.08,191.87,359.85,205.01z"/>
			<path fill="#954120" d="M186.42,189.92c0,0,43.9-26.01,61.79-36.33c17.88-10.27,56.9,16.26,65.59,24.39
				c8.42,7.9-0.65-19.67-2.18-22.21l18.14,18.93c34.38-8.16,47.84-29.43,52.98-46.99c-3.25-3.9-6.89-8.3-10.99-12.75
				c0.03,0.1,0.03,0.16,0.03,0.16s-63.41-56.1-120.32-12.2c-55.41,42.76-85.65,89.37-87.15,91.77c2.14-1.76,36.39-30.31,46.44-36.68
				C209.51,159.09,189.58,176.78,186.42,189.92z"/>
			<path fill="#723316" d="M329.77,174.7l30.08,30.31c9.24-13.14,26.44-34.96,42.02-40.36c-0.23-12.39,1.4-19.96-5.69-22.95
				c-2.96-1.24-7.48-6.8-13.43-13.99C377.61,145.27,364.14,166.53,329.77,174.7z"/>
			<path fill="#6B3013" d="M164.21,194.79c0,0,0.03-0.03,0.1-0.1c1.49-2.4,31.74-49.01,87.15-91.77
				c56.91-43.9,120.32,12.2,120.32,12.2s0-0.07-0.03-0.16c-14.57-15.94-34.34-32.78-58.5-31.28c-43.35,2.73-70.47-9.76-88.36,11.38
				C207.01,116.19,163.66,173.66,164.21,194.79z"/>
			<path fill="#ED6B62" d="M377.83,315.71c-0.97-21.07,8.09-41.35,24.79-54.49c10.85-7.7,24.01-11.64,32.72,0.08
				c13.88,19.42-1.1,68.67-29.33,83.97c-10.31,6.3-21.43,1.48-24.93-10.31C379.49,329.83,378.16,323.4,377.83,315.71z"/>
			<path fill="#6B3013" d="M357.15,221.36l-4.34,15.72c0,0-44.98-24.93-84.01-14.64l1.08-31.43
				C269.89,191,345.77,200.76,357.15,221.36z"/>
			<path fill="#6B3013" d="M224.36,193.71l-2.17,27.1c0,0-35.77-1.08-44.99,11.38l-2.71-18.97
				C174.5,213.22,204.85,186.13,224.36,193.71z"/>
			<path fill="#ED7E67" d="M259.59,409.42c0,0-17.07-32.52-70.73-14.63C188.86,394.79,235.2,393.98,259.59,409.42z"/>
			<path fill="#F49252" d="M229.1,248.86c-1.01-0.4-2.23-23.37-21.75-19.31c-14.77,3.08-14.03,20.53-14.03,20.53L229.1,248.86z"/>
			<path fill="#E9575C" d="M428.87,286.96c0,0-0.01,10.42-3.75,6.1c-3.75-4.31-15.53-16.7-15.81-4.43
				c-0.27,12.27,9.05,22.55-0.13,29.47c-9.18,6.91-9.49,5.23-11.38,1.49c0,0,9.12-2.03,9.35-7.99c0.23-5.97,3.05-10.1,2.58-10.16
				c-0.48-0.07-6.24-6.52-6.24-6.52l-0.67-11.77l4.47-7.19l15.36-1.39C422.65,274.57,429,280.04,428.87,286.96z"/>
			<path fill="#CD394B" d="M415.99,272.33c0,0,15.7,3.47,10.44,15.04c-5.25,11.57,4.63-8.02-7.93-8.84
				c-12.57-0.82-11.6-2.58-13.99,4.18c-2.4,6.77,0.01,10.55,6.33,17.11c6.32,6.57-11.47,24.87-13.72,20.17
				c-2.44-5.08,15.38-11.41,10.78-17.27c-4.61-5.86-10.86-15.86-7.46-22.01C403.84,274.57,412.69,271.71,415.99,272.33z"/>
			<path fill="#55B6E7" d="M235.16,550.93l1.14-0.42l62.78-23.87l3.58-1.37l66.36-25.24l2.4-0.92c0,0-0.87,0.08-2.4,0.31
				c-2.7,0.31-7.57,0.84-13.86,1.64l-0.07,0.04c-4.65,0.61-10.09,1.33-15.95,2.17c-2.06,0.26-4.19,0.57-6.36,0.87
				c-2.73,0.39-5.55,0.8-8.41,1.26c-7.08,1.06-14.39,2.25-21.47,3.54c-13.93,2.51-26.76,5.29-35.25,8.19
				c-0.19,0.04-0.35,0.07-0.46,0.15c-1.33,0.42-2.55,0.87-3.58,1.37c-0.42,0.15-0.8,0.31-1.15,0.5c0,0-8.79,3.23-17.54,14.65
				c-2.82,3.62-5.6,8.07-8.11,13.52c0,0-0.08,0,0,0.04c-0.08,0.19-0.19,0.35-0.3,0.5c0,0,0,0.04,0,0.07
				c-0.08,0.16-0.16,0.31-0.16,0.42c-0.15,0.34-0.31,0.65-0.46,0.99C235.62,549.87,235.39,550.4,235.16,550.93z"/>
			<path fill="#55B6E7" d="M174.6,546.52c5.75-5.98,10.96-10.4,15.76-13.59c0-0.07,0.07-0.07,0.15-0.11
				c2.78-1.91,5.44-3.39,7.96-4.46c0.08-0.07,0.08-0.07,0.15,0c6.51-2.93,12.07-3.35,16.79-2.32h0.08c4.14,0.87,7.61,2.89,10.43,5.4
				c5.4,4.68,8.52,13.89,9.97,17.89c0.15,0.46,0.31,0.88,0.42,1.18c0,0,0.12-1.6,0.2-2.59c0-0.03,0-0.03,0-0.03
				c0-0.46,0.03-0.76,0.03-0.76l-0.19-0.57l-0.38-1.14l-6.93-20.83l-5.9-17.86c-3.08-0.54-6.4,0.08-9.82,1.52
				c-8.37,3.47-17.24,11.88-24.4,19.95c-0.08,0.08-0.15,0.12-0.15,0.19c-0.72,0.76-1.45,1.6-2.13,2.4
				C180,538.64,175.28,545.57,174.6,546.52z"/>
			<path fill="#C2D8F0" d="M267.64,517.13c3.28,0.17,78.34,49.28,78.34,49.28s51.66-75,53.52-100.02
				c1.85-25.02-3.62-28.32-3.62-28.32L267.64,517.13z"/>
			<path fill="#C2D8F0" d="M207.33,472.48l15.81,34.26l-48.54,39.79C174.6,546.52,192.74,487.07,207.33,472.48z"/>
			<g>
				<path fill="#E6AD23" d="M138.68,192.74l2.2,7c0,0,117.74,20.91,211.36,5.41l55.7-33.46l-0.96-3.8L138.68,192.74z"/>
				<path fill="#FFEA2F" d="M161.39,176.21l-22.71,16.53c0,0,103.13,18.55,212.84,6.48l55.46-31.33L161.39,176.21z"/>
				<path fill="#F4D12C" d="M280.73,187.92l-2.9-3.67c110.42-59.63,21.48-150.09,21.48-150.09c0.27-0.1,0.54-0.29,0.82-0.31
					c-28.48-0.77-56.87,4.95-78.2,12.44c-67.56,23.76-60.53,129.92-60.53,129.92C193.94,193.82,231.54,191.14,280.73,187.92z"/>
				<path fill="#EEB929" d="M270.56,188.06l10.17-0.14c69.26-4.53,126.26-20.03,126.26-20.03c5.85-105.6-46.1-132.53-106.86-134.04
					c-0.28,0.03-0.54,0.21-0.82,0.31C299.31,34.16,380.98,128.43,270.56,188.06z"/>
				<path fill="#E6AD23" d="M255.6,193.33l4.78-3.82c0,0-1.46-134.95,38.93-155.34l8.41,0.12c0,0-6.81-7.22-14.2-4.21
					c-7.4,3.01-36.74,47.25-36.74,47.25l-15.51,81.52L255.6,193.33z"/>
				<path fill="#FFEA2F" d="M255.57,29.43c0,0-59.99,67.25-39.39,162.26l39.42,1.64c0,0-8.6-132.89,37.92-163.25L255.57,29.43z"/>
			</g>
		</g>
	</g>
</g>
</svg>
