<?xml version="1.0" encoding="utf-8"?>
<!-- Generator: Adobe Illustrator 25.2.3, SVG Export Plug-In . SVG Version: 6.00 Build 0)  -->
<svg version="1.1" id="Layer_1" xmlns="http://www.w3.org/2000/svg" xmlns:xlink="http://www.w3.org/1999/xlink" x="0px" y="0px"
	 viewBox="0 0 576 576" enable-background="new 0 0 576 576" xml:space="preserve">
<g>
	<g>
		<defs>
			<path id="SVGID_1_" d="M575.98,287.53c0,158.8-128.73,287.53-287.53,287.53c-158.79,0-287.53-128.73-287.53-287.53
				C0.92,128.73,129.65,0,288.45,0C447.25,0,575.98,128.73,575.98,287.53z"/>
		</defs>
		<use xlink:href="#SVGID_1_"  overflow="visible" fill="#F9E3D9"/>
		<clipPath id="SVGID_2_">
			<use xlink:href="#SVGID_1_"  overflow="visible"/>
		</clipPath>
		<g clip-path="url(#SVGID_2_)">
			<g>
				<path fill="#BF6728" d="M163.66,94.79c0,0,19.28-47.2,61.36-55.51c38.73-7.65,225.43-13.5,247.25,152.71
					c21.82,166.22-37.24,153.78-19.58,200.53c17.66,46.75,59.06,40.49,49.71,100.74s-57.86,36.33-126.42,66.45
					c-68.57,30.12-171.83,57.03-246.63,24.82c-74.8-32.2-60.48-77.14-60.48-77.14s13.15,49.7,30.46,35.73
					c25.15-20.31-30.13-69.61-2.08-108.05c28.05-38.44,64.58-48.55,27.63-102.93c-35.32-51.97-29.64-199.66,20.38-226.25
					C173.15,91.08,163.66,94.79,163.66,94.79z"/>
				<path fill="#F47A4C" d="M160.61,254.48c-1.84-0.47-21.68-18.45-39.2,2.76c-17.53,21.22,1.38,74.73,15.22,80.26
					c13.83,5.53,25.37,1.38,26.75-2.31C164.77,331.5,160.61,254.48,160.61,254.48z"/>
				<path fill="#F8A083" d="M195.34,99.18c50.89-46.72,126.68-46.72,177.58,0c48.98,44.96,58.84,114.67,57.27,170.4
					c1.58,50.99-13.62,112.97-62.6,154.1c-50.89,42.75-121.35,44.55-172.24,1.8c-48.98-41.14-58.84-104.92-57.27-155.91
					C136.5,213.85,146.36,144.14,195.34,99.18z"/>
				<path fill="#FFFFFF" d="M286.3,338.79c-4.56,33.01-25.74,57.98-51.22,57.98s-46.66-24.97-51.22-57.98H286.3z"/>
				<path fill="#F47A4C" d="M229.62,306.21h-30.93C198.69,306.21,211.13,334,229.62,306.21z"/>
				<path fill="#92484B" d="M181.63,215.42l-1.21,15.04c0,0-15.14-4.02-36.7,2.9l-0.75-9.54
					C142.97,223.82,165.96,211.85,181.63,215.42z"/>
				<path fill="#92484B" d="M288.54,215.42l1.2,15.04c0,0,15.14-4.02,36.7,2.9l0.75-9.54C327.2,223.82,304.21,211.85,288.54,215.42z
					"/>
				<path fill="#74403B" d="M308.49,251.17c8.04,0,14.56,6.51,14.56,14.56V285c0,8.05-6.52,14.56-14.56,14.56
					c-8.05,0-14.56-6.51-14.56-14.56v-19.27C293.93,257.69,300.45,251.17,308.49,251.17z"/>
				<path fill="#74403B" d="M158.07,251.17c8.04,0,14.55,6.51,14.55,14.56V285c0,8.05-6.51,14.56-14.55,14.56
					s-14.56-6.51-14.56-14.56v-19.27C143.51,257.68,150.03,251.17,158.07,251.17z"/>
				<path fill="#92484B" d="M181.92,215.39l-1.2,15.04c0,0-15.15-4.02-36.7,2.9l-0.75-9.54
					C143.26,223.79,166.25,211.84,181.92,215.39z"/>
				<path fill="#F47A4C" d="M403.15,272.95c-0.1-9.84,5.79-18.78,14.94-22.41c8.7-3.45,19.66-4.31,28.76,6.7
					c17.53,21.22-1.38,74.73-15.22,80.26c-13.83,5.53-20.85-0.1-23.79-2.71C402.93,330.46,403.35,294.04,403.15,272.95z"/>
				<path fill="#F47A4C" d="M160.61,254.48c-1.84-0.47-21.68-18.45-39.2,2.76c-17.53,21.22,1.38,74.73,15.22,80.26
					c13.83,5.53,25.37,1.38,26.75-2.31C164.77,331.5,160.61,254.48,160.61,254.48z"/>
				<path fill="#F8A083" d="M195.34,99.18c50.89-46.72,126.68-46.72,177.58,0c48.98,44.96,58.84,114.67,57.27,170.4
					c1.58,50.99-13.62,112.97-62.6,154.1c-50.89,42.75-121.35,44.55-172.24,1.8c-48.98-41.14-58.84-104.92-57.27-155.91
					C136.5,213.85,146.36,144.14,195.34,99.18z"/>
				<path fill="#FFFFFF" d="M286.3,338.79c-4.56,33.01-25.74,57.98-51.22,57.98s-46.66-24.97-51.22-57.98H286.3z"/>
				<path fill="#F47A4C" d="M229.62,306.21h-30.93C198.69,306.21,211.13,334,229.62,306.21z"/>
				<path fill="#92484B" d="M181.63,215.42l-1.21,15.04c0,0-15.14-4.02-36.7,2.9l-0.75-9.54
					C142.97,223.82,165.96,211.85,181.63,215.42z"/>
				<path fill="#BF6728" d="M288.54,215.42l1.2,15.04c0,0,15.14-4.02,36.7,2.9l0.75-9.54C327.2,223.82,304.21,211.85,288.54,215.42z
					"/>
				<path fill="#74403B" d="M308.49,251.17c8.04,0,14.56,6.51,14.56,14.56V285c0,8.05-6.52,14.56-14.56,14.56
					c-8.05,0-14.56-6.51-14.56-14.56v-19.27C293.93,257.69,300.45,251.17,308.49,251.17z"/>
				<path fill="#74403B" d="M158.07,251.17c8.04,0,14.55,6.51,14.55,14.56V285c0,8.05-6.51,14.56-14.55,14.56
					s-14.56-6.51-14.56-14.56v-19.27C143.51,257.68,150.03,251.17,158.07,251.17z"/>
				<path fill="#BF6728" d="M181.92,215.39l-1.2,15.04c0,0-15.15-4.02-36.7,2.9l-0.75-9.54
					C143.26,223.79,166.25,211.84,181.92,215.39z"/>
				<path fill="#F47A4C" d="M403.15,272.95c-0.1-9.84,5.79-18.78,14.94-22.41c8.7-3.45,19.66-4.31,28.76,6.7
					c17.53,21.22-1.38,74.73-15.22,80.26c-13.83,5.53-20.85-0.1-23.79-2.71C402.93,330.46,403.35,294.04,403.15,272.95z"/>
				<path fill="#BF6728" d="M268.64,115.08c0,0,36.38,108.45,167.93,145.32c0,0,16.08-187.1-167.93-204.93V115.08z"/>
				<path fill="#BF6728" d="M300.06,134.13c-2.84,5.66-92.33-2.73-184.65,99.15c0,0-3.19-169.15,153.23-177.82L300.06,134.13z"/>
				<path fill="#BF6728" d="M260.23,125.29c0,0,8.3,64.13-40.55,95.12c0,0,88.49,20.84,101.79-37.58
					C334.77,124.43,260.23,125.29,260.23,125.29z"/>
				<path fill="#BF6728" d="M243.22,135.25c0.47,2.93-10.37,40.93-35.94,46.85c0,0,23.89,14.95,44.31-5.43
					c20.42-20.39,15.65-49.25,15.65-49.25L243.22,135.25z"/>
			</g>
			<g>
				<path fill="#F8A083" d="M119.15,643.91c-0.06,0.8,0.38,2.19,1.26,3.99c0.71,1.49,1.7,3.29,2.97,5.28
					c9.38,15.21,31.48,42.43,37.07,45.57c2.25,1.25,5.43,14.11,7.84,32.9c1.78,13.95,3.13,44.35,3.36,74.56h201.93
					c0.93-17.7,3.47-35.72,8.23-54.42c0.82-3.24,2.8-6.08,4.22-9.12c0.66-1.6,1.37-3.14,2.02-4.68c0.44-0.9,0.82-1.84,1.27-2.89
					c0.32-0.84,0.71-1.79,1.04-2.79c0,0,0-0.05,0.06-0.1c2.8-8.28,5.15-20.89,4.17-39.19v-0.15c-0.82-14.25-3.67-31.81-9.98-53.49
					c1.1-0.4,2.24-0.8,3.4-1.3l0.05-0.05c0.17-0.05,0.28-0.1,0.44-0.14c0.16-0.05,0.27-0.1,0.44-0.16c1.15-0.45,2.36-0.95,3.56-1.49
					c1.65-0.75,3.35-1.54,5.05-2.39l2.13-1.04c1.1-0.55,2.2-1.15,3.35-1.75c8.56-4.54,17.77-10.12,26.93-16.1
					c3.29-13.46,4.88-22.24,4.88-24.48c0,0,9.49-31.9-8.67-60.42c-0.16-0.3-0.32-0.6-0.55-0.9c-0.11-0.1-0.22-0.25-0.27-0.4
					c-1.76-2.64-3.79-5.24-6.03-7.82c-0.11-0.1-0.22-0.25-0.33-0.35c-1.37-1.49-2.85-2.99-4.44-4.39c-0.16-0.1-0.27-0.2-0.38-0.3
					c-2.58-1.69-5.59-2.89-8.78-3.19c-10.31-1-24.79,6.18-25.12,54.44c-0.11,15.8,2.85,40.48,7.57,69.69
					c-0.99-4.39-2.03-8.92-3.24-13.66c-0.77-2.69-1.54-5.39-2.47-8.18c-18.43-58.23-0.66-93.22,13.33-110.13
					c-2.2-1.25-4.11-2.3-5.43-2.99c-8.23-4.49-17.28-8.03-26.93-10.62c-3.45-0.95-6.97-1.79-10.53-2.49
					c-21.11,25.92-67.3,73.83-127.19,84.45c-4.55,0.8-8.72,1.25-12.45,1.3c-0.82,0.05-1.59,0.05-2.36,0.05c-0.6,0-1.21,0-1.81-0.05
					c-37.95-1.45-27.37-41.73-16.12-68.8c0.06-0.15,0.11-0.3,0.22-0.45c0.33-0.8,0.66-1.6,0.99-2.39c1.21-2.94,2.52-5.63,3.67-8.12
					c-4.99,1.69-9.87,3.59-14.42,5.83c-0.93,0.45-1.86,0.9-2.74,1.34c-0.06,0-0.11,0.05-0.11,0.05c-0.88,0.45-1.7,0.9-2.52,1.35
					c-6.64,3.64-28.59,36.98-31.88,45c-13.77,33.3-26.75,77.58-30.04,92.94v0.05C115.37,643.56,119.32,642.27,119.15,643.91z"/>
				<path fill="#F8A083" d="M185.67,806.21c4.53-22.88,8.99-47.11,13.01-66.84c-51.01-4.98-76.84-18.54-87.43-25.97
					c-3.61,30.98-6.7,63.77-9.14,92.81H185.67z"/>
				<path fill="#019D75" d="M111.25,713.4c10.59,7.43,36.42,20.99,87.43,25.97c1.1-5.63,2.24-10.91,3.29-15.7
					c4.06-18.1,7.46-37.14,9.76-56.79c0,0,0,0,0-0.05c3.56-30.01,4.5-61.32,1.21-92.33c-2.25-20.99-6.42-41.83-13.05-62.07
					c-1.37-4.19-3.35-8.13-6.03-9.58c-0.27-0.15-0.55-0.3-0.82-0.4c-3.18-1.1-7.57-1.75-12.67-0.55c-0.05,0-0.1,0.05-0.1,0.05
					c-0.71,0.15-1.43,0.4-2.2,0.65c-5.48,1.84-11.63,5.93-17.82,13.71c-0.33,0.3-0.66,0.65-0.88,1
					c-4.89,6.33-9.82,14.96-14.53,26.62c-0.22,0.5-0.44,1.04-0.66,1.6c-8.77,22.18-16.84,60.37-23.75,102.35
					c-0.22,1.39-0.44,2.79-0.71,4.24c-0.49,3.24-1.04,6.53-1.54,9.87C115.7,677.76,113.39,695.26,111.25,713.4z"/>
				<path fill="#F8A083" d="M505.58,806.21c-2.06-34.87-6.31-74.82-14.68-115.34c-13.44,10.42-41.96,27.32-87.64,29.57
					c5.9,29.15,12.28,58.69,18.32,85.77H505.58z"/>
				<path fill="#36B87F" d="M323.9,485.13v-0.15c-8.78-0.6-34.12-2.59-63.07-1v1.15c0,15.86,14.09,28.67,31.53,28.67
					C309.75,513.79,323.9,500.98,323.9,485.13z"/>
				<path fill="#36B87F" d="M105.17,647.75c4,1.3,8.01,2.54,11.96,3.64l6.25,1.79c0.33,0.05,0.6,0.15,0.93,0.25
					c4.78,1.34,9.49,2.49,14.15,3.59c2.3,0.55,4.61,1.04,6.97,1.54c9.21,2,18.21,3.59,26.98,4.83c2.13,0.3,4.22,0.6,6.31,0.85
					c0.88,0.15,1.7,0.25,2.52,0.3c2.24,0.3,4.44,0.55,6.64,0.7c0.1,0.05,0.16,0.05,0.21,0.05c2.3,0.25,4.55,0.45,6.75,0.6
					c0.44,0.05,0.82,0.1,1.21,0.1c2.3,0.2,4.61,0.35,6.86,0.45c2.36,0.15,4.72,0.3,7.02,0.35c0.6,0.05,1.21,0.05,1.81,0.05
					c0.49,0,1.04,0.05,1.53,0.05c3.13,0.1,6.25,0.15,9.38,0.15c3.89,0,7.79-0.05,11.52-0.19c1.1-0.05,2.25-0.1,3.29-0.15
					c1.38-0.05,2.74-0.1,4.06-0.2c2.08-0.1,4.11-0.25,6.14-0.4c1.97-0.15,4-0.3,5.98-0.49c2.36-0.2,4.67-0.45,6.97-0.75
					c2.74-0.3,5.37-0.65,8.01-0.99c2.63-0.35,5.26-0.75,7.84-1.2c1.48-0.19,2.91-0.45,4.33-0.75c2.19-0.4,4.39-0.8,6.52-1.25
					c2.58-0.5,5.16-1.04,7.73-1.65c1.65-0.34,3.3-0.75,4.89-1.14c2.03-0.45,4.05-1,6.03-1.5c2.24-0.6,4.44-1.19,6.63-1.84
					c1.6-0.45,3.19-0.9,4.72-1.39c20.63-6.28,38.01-13.96,51.78-21.19c1.43-0.75,2.85-1.49,4.22-2.24c1.04-0.55,2.03-1.1,3.02-1.69
					c2.97-1.64,5.76-3.29,8.29-4.83c1.21,4.74,2.24,9.27,3.23,13.66c-4.72-29.21-7.68-53.89-7.57-69.69
					c0.33-48.26,14.81-55.44,25.12-54.44c3.01,0.3,5.92,1.39,8.39,2.94c-2.14-1.49-9.71-6.08-15.47-9.22
					c-0.99-0.55-1.92-1.1-2.85-1.54c-2.19-1.25-4.11-2.3-5.42-2.99c-8.23-4.49-17.28-8.03-26.93-10.62
					c-3.46-0.95-6.97-1.79-10.53-2.49c-4.77-1-9.71-1.84-14.7-2.44c0.06,0.79,0.06,1.64,0.06,2.44c0,22.88-20.41,41.48-45.58,41.48
					c-25.17,0-45.63-18.6-45.63-41.48c0-1.25,0.05-2.49,0.16-3.74c-16.67,1.6-33.89,4.54-49.36,9.72
					c-4.99,1.69-9.87,3.59-14.42,5.83c-0.93,0.45-1.86,0.9-2.74,1.35c-0.05,0-0.1,0.05-0.1,0.05c-0.71,0.15-1.43,0.4-2.2,0.65
					c-0.1,0.25-0.21,0.45-0.32,0.7c-4.55,8.87-13.88,19.84-24.74,31.75c-2.63,2.89-5.37,5.88-8.17,8.88
					c-0.88,0.95-1.76,1.89-2.63,2.84c-11.96,12.71-24.41,26.02-33.95,38.48C90.96,607.87,93.43,630.45,105.17,647.75z"/>
				<path fill="#008C66" d="M167.98,731.03v0.15c0.99,7.49,1.82,19.78,2.42,34.23c111.86,11.64,181.11,0.1,209.86-6.8
					c0.49-2.39,1.1-4.85,1.7-7.24c0.82-3.25,2.8-6.1,4.23-9.14c0.66-1.6,1.38-3.15,2.04-4.7c0.44-0.9,0.82-1.85,1.27-2.9
					c0.33-0.85,0.71-1.8,1.04-2.8l-161.22-33.03L167.98,731.03z"/>
				<path fill="#00AC7A" d="M105.17,647.75c4.5,6.78,10.42,12.66,17.17,17.45c2.47,1.8,4.99,3.39,7.62,4.83
					c14.15,7.78,23.36,23.33,29.02,37c5.7,13.56,7.79,25.27,7.79,25.27c0.49-0.2,0.99-0.45,1.54-0.65
					c18.7-7.97,39.65-10.17,59.89-6.68c76.89,13.36,162.18,7.33,162.18,7.33s0-0.05,0.06-0.1c0.77-1.45,8.5-17.45,3.56-59.63
					c-1.15-9.97-3.02-21.44-5.92-34.54c-0.05-0.35-0.11-0.7-0.22-1.05v-0.15c-0.99-4.39-2.02-8.92-3.23-13.66
					c-2.52,1.54-5.32,3.19-8.29,4.83c-0.99,0.6-1.97,1.15-3.02,1.69c-1.37,0.75-2.74,1.5-4.22,2.24
					c-13.76,7.23-31.15,14.91-51.78,21.19c-1.59,0.5-3.12,0.95-4.72,1.39c-2.19,0.65-4.39,1.25-6.63,1.84c-1.98,0.5-4,1.04-6.03,1.5
					c-1.59,0.4-3.24,0.8-4.89,1.14c-2.58,0.6-5.15,1.15-7.73,1.65c-2.13,0.45-4.33,0.9-6.52,1.25c-1.43,0.3-2.85,0.55-4.33,0.75
					c-2.58,0.45-5.16,0.85-7.84,1.2c-2.63,0.4-5.27,0.75-8.01,0.99c-2.3,0.3-4.61,0.55-6.97,0.75c-1.97,0.19-3.95,0.34-5.98,0.49
					c-2.03,0.15-4.06,0.3-6.14,0.4c-1.32,0.1-2.69,0.15-4.06,0.2c-1.04,0.05-2.13,0.1-3.29,0.15c-3.73,0.15-7.62,0.19-11.52,0.19
					c-3.07,0-6.2-0.05-9.38-0.15c-1.1,0-2.19-0.05-3.34-0.1c-2.3-0.05-4.67-0.2-7.02-0.35c-2.25-0.1-4.55-0.25-6.86-0.45
					c-0.38,0-0.77-0.05-1.21-0.1c-2.19-0.15-4.44-0.35-6.75-0.6c-0.05,0-0.11,0-0.21-0.05c-2.2-0.15-4.39-0.4-6.64-0.7
					c-0.82-0.05-1.65-0.15-2.52-0.3c-2.08-0.25-4.17-0.55-6.31-0.85c-8.78-1.25-17.77-2.84-26.98-4.83
					c-2.36-0.5-4.67-0.99-6.97-1.54c-4.66-1.1-9.38-2.29-14.15-3.59c-0.33-0.1-0.6-0.2-0.93-0.25l-6.25-1.79
					C113.17,650.29,109.17,649.05,105.17,647.75z"/>
				<path fill="#36B87F" d="M380.28,567.14c-0.11,15.8,2.85,40.48,7.57,69.69v0.15c0.06,0.35,0.11,0.7,0.17,1.1
					c1.75,10.92,3.78,22.53,5.98,34.5c2.85,15.46,5.98,31.61,9.27,47.86c45.68-2.24,74.21-19.14,87.64-29.56v-0.05
					c-11.79-57.08-31.64-115.06-64.72-160.77c-2.3-3.24-4.72-6.38-7.18-9.47c-0.16-0.25-0.33-0.45-0.49-0.65
					c-1.15-1.39-2.47-2.69-3.95-3.74c-0.16-0.1-0.27-0.2-0.38-0.3c-2.58-1.69-5.59-2.89-8.77-3.19
					C395.09,511.7,380.61,518.88,380.28,567.14z"/>
				<path fill="#F8A083" d="M260.83,427.63v57.49c0,15.86,14.09,28.67,31.53,28.67c17.39,0,31.54-12.81,31.54-28.67v-57.49H260.83z"
					/>
				<path fill="#FFFFFF" d="M246.73,488.77c0,22.88,20.46,41.48,45.63,41.48c25.17,0,45.58-18.6,45.58-41.48c0-0.8,0-1.65-0.06-2.44
					c-4.61-0.65-9.27-1.05-13.98-1.35v0.15c0,15.86-14.15,28.67-31.54,28.67c-17.44,0-31.53-12.81-31.53-28.67v-1.15
					c-4.55,0.25-9.22,0.6-13.94,1.05C246.78,486.28,246.73,487.52,246.73,488.77z"/>
			</g>
		</g>
	</g>
</g>
</svg>
