<?xml version="1.0" encoding="utf-8"?>
<!-- Generator: Adobe Illustrator 25.2.3, SVG Export Plug-In . SVG Version: 6.00 Build 0)  -->
<svg version="1.1" id="Layer_1" xmlns="http://www.w3.org/2000/svg" xmlns:xlink="http://www.w3.org/1999/xlink" x="0px" y="0px"
	 viewBox="0 0 576 576" enable-background="new 0 0 576 576" xml:space="preserve">
<g>
	<g>
		<defs>
			<path id="SVGID_1_" d="M576,287.8c0,158.94-128.84,287.79-287.79,287.79S0.42,446.74,0.42,287.8S129.27,0,288.21,0
				S576,128.85,576,287.8z"/>
		</defs>
		<use xlink:href="#SVGID_1_"  overflow="visible" fill="#F9E3D9"/>
		<clipPath id="SVGID_2_">
			<use xlink:href="#SVGID_1_"  overflow="visible"/>
		</clipPath>
		<g clip-path="url(#SVGID_2_)">
			<path fill="#994C44" d="M406.98,342.3c28.37-29.24-9.07,88.2-124.05,85.8c-112.52-2.35-35.18-131.82-35.18-131.82l138.89-19.93
				C386.65,276.35,415.73,305.64,406.98,342.3z"/>
			<g>
				<g>
					<path fill="#242424" d="M421.89,265.24c-0.28,8-2.76,36.17-16.26,53.93c-3.17-26.24-1.66-51.52-1.66-51.52
						C405.63,268.44,412.39,267.16,421.89,265.24z"/>
					<path fill="#994C44" d="M405.63,319.19c0.79,6.42,0.45,12.74,0.9,18.82v0.05c0.23,3.44,0.73,6.82,1.81,10.09
						c4.28,13.12,14.53,20.16,24.22,24c33.85,13.46,26.31,18.87,12.23,72.33c-17.41,65.97,48.84,76.11,58.02,77.18
						c-0.68-0.17-1.75-0.68-3.21-1.75c-44.9-14.65-50.59-54.36-10.76-134.64c33.86-68.17-20.68-100.22-37.8-108.34
						c1.81-5.24,3.16-10.59,3.83-16.17c-2.2,0-4.45,0.06-6.7,0.23c-2.65,0.17-5.35,0.51-8.06,0.9c-2.47,0.4-4.9,0.84-7.21,1.24
						c-4,0.73-7.66,1.41-10.98,2.08c-0.18,4.51-1.02,15.38-4.12,27.21C415.31,301.61,411.54,311.41,405.63,319.19z"/>
					<path fill="#00A29F" d="M406.52,338.01c15.27-15.5,35.66-36.45,44.5-61.07c1.81-5.24,3.16-10.59,3.83-16.17
						c0.11-0.73,0.17-1.4,0.23-2.14c-1.86-0.96-4-1.58-6.31-1.92c-4.62-0.73-9.75-0.45-13.69,0.06c-0.51,1.63-1.24,3.77-2.2,6.36
						c-2.87,7.6-7.72,18.7-15.1,29.3c-3.71,5.41-8.11,10.7-13.29,15.32c-0.17,0.17-0.34,0.28-0.51,0.45
						C398.41,319.81,400.89,331.3,406.52,338.01z"/>
				</g>
				<path fill="#6F3630" d="M488.83,385.27c-39.83,80.27-34.14,119.99,10.76,134.64c-4.62-3.55-13.07-13.86-25.07-43.43
					c-15.66-38.65,64.56-42.98,55.99-146.02c-3.77-44.95-38.53-69.35-75.66-69.69c-0.68,5.58-2.03,10.93-3.83,16.17
					C468.15,285.05,522.69,317.1,488.83,385.27z"/>
			</g>
			<path fill="#B44946" d="M125.1,780.06H66.55c38.51-77.61,89.41-184.82,89.16-208.89c0,0,8.33,125.27-6.6,151.38
				C149.11,722.55,139.54,748.48,125.1,780.06z"/>
			<path fill="#F04F54" d="M104.65,780.06H40.37c2.03-11.86,4.57-25.16,7.66-40.03c41.68-200.25,93.06-236.76,98.38-241.7
				c-0.03,7.83-0.82,185.21-29.84,255.62C113.47,761.45,109.37,770.47,104.65,780.06z"/>
			<path fill="#B44946" d="M143.63,780.06c-0.27-1.31-0.53-2.77-0.79-4.03c-5.58-26.1-10.98-44.24-10.98-44.24
				c-2.31-2.45-4.42-4.86-6.34-7.24c-10.07-12.4-16.11-24.55-19.2-36.28c6.97,8.64,16.07,18.48,26.33,26.1
				c11.27,8.37,23.98,14.03,36.85,12.29c1.66-0.23,3.25-0.49,4.75-0.75c35.26-5.58,42.47-17.46,42.47-17.46s1.36,1.77,3.84,4.57
				c12.52,14.33,54.36,55.78,100.59,34.06c36.36-17.01,77.02-68.99,82.07-79.4c-8.42,39.71-20.55,77.81-31.45,112.39H143.63z"/>
			<path fill="#F04F54" d="M429.76,532.85c0.47,17.46-12.42,68.3-26.52,134.81c-5.05,10.42-45.73,62.39-82.09,79.42
				c-35.61,16.72-68.6-4.05-87.62-21.01c-9.46-8.44-22.02-11.4-33.34-6.87c-7.07,2.83-16.97,5.6-30.7,7.44
				c-24.48,3.31-48.52-20.18-63.17-38.39c-12.7-48.34,24.28-89.68,33.44-111.97c10.1-24.41-23.49-41.08-1.47-68.81
				c22.07-27.72,149.74-41.9,149.74-41.9C340.8,486.29,428.64,490.71,429.76,532.85z"/>
			<g>
				<path fill="#F89F73" d="M230,496.16l78.59-1.6c0,0,0.06-2.88,0.19-7.84l-0.37,0.42c1.55-42.1-36.88-76.52-36.88-76.52
					l40.79-36.77c0.08-2.42,0.28-4.05,0.39-4.77l-62.95,23.81L230,496.16z"/>
				<path fill="#F48165" d="M271.53,410.61c0,0,38.43,34.43,36.88,76.52l0.37-0.42c0.53-23.52,15.66-98.07,16.92-117.64
					L271.53,410.61z"/>
			</g>
			<path fill="#F89F73" d="M212.6,537.17c7.65,25.33,106.94-27.24,119.49-58.31c-28.8-10.58-61.16-15.75-104.85-3.87
				C215,490.99,206.95,518.47,212.6,537.17z"/>
			<path fill="#F04F54" d="M419.93,780.06l-70.15-188.62l75.71-43.72c24.02,40.19,92.24,142.7,99.63,232.34H419.93z"/>
			<path fill="#B44946" d="M525.24,780.06c-7.38-89.61-75.73-192.16-99.75-232.34l1.53-27.35c0,0,89.03,151.48,115.84,259.7H525.24z
				"/>
			<path fill="#F89F73" d="M173.63,350.79c6.2,18.71,29.24,90.14,70.42,93.41c10.7,0.84,27.09-3.6,45.24-11.61
				c0,0,108-104.02,75.47-141.72c-28.7-33.27-9.76-102.59-52.05-108.4c-42.54-5.84-100.88-30.99-99.13-31.72
				c35.26-14.64,89.23-9.07,140.61,2.53c-39.26-22.36-92.5-39.94-134.58-22.7c0,0-40.9,47.78-41.01,100.28
				C178.49,270.8,166.32,328.6,173.63,350.79z"/>
			<path fill="#A81E22" d="M215.94,256.06c0,0,4.83,44.88-18.16,62.49c0,0-5.49,1.5-5.04,5.63c0.45,4.12,8.24,12.33,8.24,12.33
				l1.92-2.1c0,0-10.59-7.09-6.83-11.48c3.76-4.38,14.73-7.38,20.45-31.41C222.23,267.52,215.94,256.06,215.94,256.06z"/>
			<path fill="#8C181B" d="M217.55,334.33c0,0,0.69,2.6-2.16,2.91c-2.85,0.32-6.35-2.07-6.35-2.07S213.35,332.42,217.55,334.33z"/>
			<g>
				<path fill="#070707" d="M211.72,292.26c3.22-3.67,6.77-5.55,10.57-5.58c7.62-0.09,16.09,8.57,15.13,7.66l2.97-4.46
					c-0.33-0.36-8.12-8.75-18.15-8.77c-5.45,0.06-10.39,2.57-14.7,7.49L211.72,292.26z"/>
			</g>
			<g>
				<g>
					<path fill="#070707" d="M236.91,289.57c0,19.23,14.23,35.24,32.8,38.02c1.89,0.33,3.79,0.45,5.79,0.45c2.88,0,5.78-0.34,8.45-1
						h0.1c4.9-1.01,9.34-3.12,13.35-5.79c1.22-0.89,2.33-1.78,3.45-2.77c2.89-2.56,5.44-5.45,7.33-8.79
						c0.78-1.11,1.45-2.22,1.89-3.45c2.56-5,3.9-10.67,3.9-16.67c0-20.24-15.46-36.69-35.02-38.35c-1.11-0.22-2.33-0.22-3.44-0.22
						c-11.9,0-22.46,5.33-29.57,13.67c-2.67,3.11-4.78,6.78-6.34,10.78C237.8,279.79,236.91,284.57,236.91,289.57z M294.17,315.58
						l-31.91-55.25c4.01-1.89,8.45-2.89,13.23-2.89c2.55,0,5.11,0.34,7.44,0.89l23.13,40.8
						C303.95,305.8,299.73,311.58,294.17,315.58z M265.27,319.92l-21.24-36.8c1.56-7.45,5.56-14.01,11.34-18.57l31.8,54.8
						c-3.56,1.45-7.56,2.23-11.67,2.23C271.94,321.59,268.49,321.03,265.27,319.92z"/>
					<path fill="#242424" d="M282.94,258.33l23.13,40.8c1-3,1.45-6.23,1.45-9.56C307.51,274.45,297.06,261.67,282.94,258.33z"/>
					<path fill="#242424" d="M255.37,264.56l31.8,54.8c2.55-0.88,4.89-2.22,7.01-3.78l-31.91-55.25
						C259.71,261.45,257.48,262.89,255.37,264.56z"/>
					<path fill="#242424" d="M243.36,289.57c0,14.12,9.12,26.12,21.9,30.35l-21.24-36.8C243.58,285.13,243.36,287.35,243.36,289.57z
						"/>
				</g>
				<path fill="#3F3F3F" d="M262.26,260.33l31.91,55.25c5.55-4,9.78-9.78,11.89-16.45l-23.13-40.8c-2.33-0.55-4.89-0.89-7.44-0.89
					C270.71,257.44,266.27,258.44,262.26,260.33z"/>
				<path fill="#3F3F3F" d="M244.03,283.13l21.24,36.8c3.22,1.11,6.67,1.67,10.23,1.67c4.11,0,8.11-0.78,11.67-2.23l-31.8-54.8
					C249.59,269.12,245.59,275.68,244.03,283.13z"/>
			</g>
			<g>
				<path fill="#772215" d="M202.9,375.19c2.6,9.72,9.6,21.94,28.57,23.05c31.87,1.88,44.6-31.35,45.91-37.55
					c0,0-18.63,18.43-42.28,18.62C216.24,379.49,208.01,377.92,202.9,375.19z"/>
				<path fill="#FFFFFF" d="M202.9,375.16c5.3,2.71,13.85,4.26,33.43,4.02c24.57-0.26,43.98-18.76,43.98-18.76
					s-48.15,14.54-78.86,2.71C201.44,363.12,201.1,368.57,202.9,375.16z"/>
			</g>
			<polygon fill="#242424" points="388.73,270.98 308.35,272.85 308.14,276.51 386.65,276.35 			"/>
			<path fill="#070707" d="M337.59,269.79c0-0.06-1.28,10.59-1.28,10.59h-28.8v-10.59H337.59z"/>
			<path fill="#841618" d="M228.8,324.92c0,0,1.11,9.55-4.99,10.98C223.82,335.9,234.43,335.9,228.8,324.92z"/>
			<path fill="#6F3630" d="M330.8,244.67l-2.27,8.23c0,0-27.57-18.37-66.96-14.81l-1.13-14.45c0,0,22.22-1.73,30.72,1.95
				C299.65,229.28,330.8,244.67,330.8,244.67z"/>
			<path fill="#6F3630" d="M203.04,226.86v14.43c0,0-24.41,1.64-30.29,7.86l-0.06-8.92c0,0,11.91-9.42,14.79-9.86
				C190.36,229.94,203.04,226.86,203.04,226.86z"/>
			<g>
				<g>
					<path fill="#070707" d="M137.62,281.28c0,19.24,14.23,35.24,32.8,38.02c1.89,0.33,3.78,0.44,5.78,0.44c2.89,0,5.78-0.33,8.45-1
						h0.11c4.89-1,9.34-3.11,13.34-5.78c1.22-0.89,2.34-1.78,3.45-2.78c2.89-2.56,5.45-5.45,7.34-8.78
						c0.78-1.11,1.44-2.23,1.89-3.45c2.56-5,3.89-10.67,3.89-16.68c0-20.24-15.46-36.69-35.02-38.35c-1.11-0.22-2.33-0.22-3.44-0.22
						c-11.9,0-22.46,5.34-29.57,13.68c-2.67,3.11-4.78,6.78-6.34,10.78C138.51,271.5,137.62,276.28,137.62,281.28z M194.87,307.3
						l-31.91-55.25c4.01-1.89,8.46-2.89,13.24-2.89c2.56,0,5.11,0.33,7.45,0.89l23.13,40.8
						C204.65,297.52,200.43,303.29,194.87,307.3z M165.96,311.64l-21.24-36.8c1.56-7.45,5.56-14.01,11.35-18.57l31.79,54.81
						c-3.56,1.45-7.56,2.22-11.67,2.22C172.63,313.3,169.19,312.75,165.96,311.64z"/>
					<path fill="#242424" d="M183.64,250.04l23.13,40.8c1-3,1.44-6.22,1.44-9.56C208.21,266.16,197.76,253.38,183.64,250.04z"/>
					<path fill="#242424" d="M156.07,256.27l31.79,54.81c2.56-0.89,4.89-2.22,7.01-3.78l-31.91-55.25
						C160.41,253.16,158.18,254.6,156.07,256.27z"/>
					<path fill="#242424" d="M144.06,281.28c0,14.12,9.12,26.13,21.9,30.35l-21.24-36.8C144.29,276.83,144.06,279.06,144.06,281.28z
						"/>
				</g>
				<path fill="#3F3F3F" d="M162.96,252.05l31.91,55.25c5.56-4.01,9.78-9.78,11.9-16.46l-23.13-40.8c-2.34-0.56-4.89-0.89-7.45-0.89
					C171.41,249.16,166.96,250.16,162.96,252.05z"/>
				<path fill="#3F3F3F" d="M144.73,274.83l21.24,36.8c3.22,1.11,6.67,1.66,10.23,1.66c4.11,0,8.11-0.77,11.67-2.22l-31.79-54.81
					C150.29,260.83,146.29,267.38,144.73,274.83z"/>
			</g>
			<path fill="#F48165" d="M364.76,290.87c29.13,32.89-71.4,138.18-71.4,138.18c34.37-15.1,74.93-42.81,94.76-70.81
				c30.26-42.75,42.59-142.81,19.33-170.91c-8.51-10.25-26.54-24.74-49.18-37.58c-51.38-11.61-105.35-17.18-140.61-2.54
				c-1.75,0.73,61.32,41.72,95.94,37.02C343.71,180.13,335.64,257.97,364.76,290.87z"/>
			<path fill="#994C44" d="M145.81,187.76c0.06,0.06,0.06,0.17,0.12,0.29c0.62,1.35,1.35,2.7,2.08,4.11
				c0.45,0.73,0.79,1.35,1.01,1.92c12.34,22.08,30.24,47.3,30.24,47.3s-3.13-29.54,10.19-53.61c8.32-15.03,21.14-28.11,24.13-37.01
				c32.11,29.24,109.12,9.01,126.75,28.9c18.7,21.07,7.27,72.79,31.15,95.77c9.63,9.24,14.81,22.81,17.63,35.78
				c38.82-40.51,61.69-97.8,8.17-169.52c-97.46-130.7-151.26-81.46-164.16-65.51c0,0.22-0.06,0.51-0.06,0.73
				c-0.17-0.06-0.28-0.12-0.45-0.12c-1.07-0.4-2.08-0.73-3.16-1.01c-0.62-0.17-1.24-0.4-1.8-0.56h-0.06
				c-16-2.47-61.18-7.21-61.63,18.31c-0.56,30.98,4.56,38.53,4.56,38.53s-30.98-1.41-10.76,29.57
				C159.78,161.62,139.84,171.43,145.81,187.76z"/>
			<path fill="#6F3630" d="M233.13,76.16c12.9-15.94,66.7-65.18,164.16,65.51c53.52,71.72,30.65,129.01-8.17,169.52
				c4.17,19.2,1.16,40.5,1.16,40.5c31.21-11.49,123.51-209.4-31.24-291.76C256.11,5.18,235.44,44,233.13,76.16z"/>
			<path fill="#6F3630" d="M145.81,187.76c-5.97-16.33,13.97-26.14,13.97-26.14c-20.22-30.98,10.76-29.57,10.76-29.57
				s-5.12-7.55-4.56-38.53c0.45-25.52,45.63-20.79,61.63-18.31c-91.6-28.28-86.42,16.57-77.63,41.58
				c-25.29,1.81-10.42,29.24-0.79,43.66C137.53,162.41,139.1,174.02,145.81,187.76z"/>
			<g>
				<path fill="#F48165" d="M373.93,277.97c0,0,75.89-62.88,64.55,9.64s-67.14,26.68-67.14,26.68L373.93,277.97z"/>
				<path fill="#F15B22" d="M405.1,301.1c0.84-9.04-5.92-41.87,21.33-30.04c0,0-20.5-3.93-18,14.46c0.16,1.13,0.32,2.1,0.48,3.16
					c5.81-3.03,13.61,1.56,13.61,1.56c-5.53-2.1-10.26-0.01-13.09,1.76c2.31,13.79,4.16,19.81-6.94,19.13
					C389.79,310.33,404.27,310.14,405.1,301.1z"/>
			</g>
		</g>
	</g>
</g>
</svg>
