<?xml version="1.0" encoding="utf-8"?>
<!-- Generator: Adobe Illustrator 25.2.3, SVG Export Plug-In . SVG Version: 6.00 Build 0)  -->
<svg version="1.1" id="Layer_1" xmlns="http://www.w3.org/2000/svg" xmlns:xlink="http://www.w3.org/1999/xlink" x="0px" y="0px"
	 viewBox="0 0 576 576" enable-background="new 0 0 576 576" xml:space="preserve">
<g>
	<g>
		<defs>
			<path id="SVGID_1_" d="M575.82,287.91c0,159.01-128.9,287.91-287.91,287.91C128.9,575.82,0,446.92,0,287.91
				C0,128.9,128.9,0,287.91,0C446.92,0,575.82,128.9,575.82,287.91z"/>
		</defs>
		<use xlink:href="#SVGID_1_"  overflow="visible" fill="#F9E3D9"/>
		<clipPath id="SVGID_2_">
			<use xlink:href="#SVGID_1_"  overflow="visible"/>
		</clipPath>
		<g clip-path="url(#SVGID_2_)">
			<path fill="#F9E3D9" d="M575.82,287.91c0,159.01-128.9,287.91-287.91,287.91C128.9,575.82,0,446.92,0,287.91
				C0,128.9,128.9,0,287.91,0C446.92,0,575.82,128.9,575.82,287.91z"/>
			<g>
				<path fill="#025F9F" d="M316.15,580.1l32.09-41.87c0,0-25.27-75.82-60.65-53.91c-12.86,7.98-36.91,46.46-66.12,95.78H316.15z"/>
				<g>
					<path fill="#F15B2D" d="M238.16,272.2c0-19.78-5.31-37.74-13.96-51.28c-0.58-11.22,5.72-17.64,2.42-19.45
						c-10.82-5.93-30.79-5.98-38.83-4.9c-0.05,0-0.11-0.01-0.16-0.01c-29.43,0-56.05,33.56-56.05,75.65
						c0,38.93,18.85,69.88,46.3,76.01c9.83,3.2,35.58,3.2,35.58,3.2s0.97-6.7,2.34-17.24C229.32,320.34,238.16,297.77,238.16,272.2z
						"/>
					<ellipse fill="#B54426" cx="213.46" cy="275.21" rx="53.29" ry="76.2"/>
				</g>
				<path fill="#2482C5" d="M506.56,580.1c-0.02-0.75,0.08-1.57,0.05-2.31c-2.09-48.72-29.65-89.97-66.38-114.77
					c-14.36-9.77-30.2-16.98-46.44-21.16c-25.81-6.73-52.7-5.66-76.62,5.39c-7.88,3.57-15.43,8.23-22.51,14.09
					c-3.71,3.03-7.35,6.47-10.79,10.17c-2.63,2.76-5.12,5.73-7.55,8.89c-23.28,30.48-41.01,65.77-54.69,99.69H506.56z
					 M326.14,487.89c0.13,0.07,0.34,0.14,0.47,0.2c1.08,6.14,1.96,11.86,2.42,16.65c-4.71,7.82-10.17,17.05-13.21,22.71
					C320.01,517.61,324.86,498.54,326.14,487.89z"/>
				<path fill="#1672B9" d="M499.69,580.1c0.63-24.48-2.08-43.19-9.39-52.52c-41.69-53.28-100.45-47.35-105.14,52.52H499.69z"/>
				<path fill="#12213B" d="M441.46,460.17c0,0-28.64-35.94-48.3-38.75c-19.65-2.81-3.37,33.14-3.37,33.14L441.46,460.17z"/>
				<polygon fill="#183660" points="370.98,428.3 315.81,442.21 317.49,460.74 372.24,450.21 				"/>
				<path fill="#8B491F" d="M345.67,143.36c0,0,15.35,21.48,38.05,46.65c22.71,25.17,26.09,91.91,26.09,91.91
					s85.16-144.54-5.06-191.5C345,59.33,345.67,143.36,345.67,143.36z"/>
				<path fill="#F8A285" d="M389.82,443.89c-16.38-3.51-35.32-4.85-51.89-2.09c-2.02,0.27-12.2,3.57-19.48,10.24
					c-6.61,6-10.79,14.76-4.12,26.62c2.29,4.12,6.41,7.15,11.8,9.24c-1.28,10.65-6.13,29.72-10.31,39.56
					c3.03-5.66,8.49-14.89,13.21-22.71c0.07,0.88,0.14,1.69,0.2,2.49c1.69-4.38,3.71-8.56,5.86-12.4c1.01-1.75,1.82-3.1,2.29-3.84
					c1.55,0.27,3.1,0.47,4.72,0.61c1.69-1.89,3.44-3.77,5.26-5.6c0.47-0.47,1.01-0.94,1.48-1.48c8.63-8.83,18.12-16.25,23.51-13.68
					c3.1,1.48,6.34,5.25,9.3,9.97c0.41,0.67,0.88,1.35,1.28,2.09c1.08,1.82,2.16,3.84,3.24,5.93c18.06-3.5,34.1-9.43,40.97-15.77
					C438.34,462.62,417.85,449.95,389.82,443.89z"/>
				<path fill="#183660" d="M326.14,487.89c-1.28,10.65-6.13,29.72-10.31,39.56c-0.2,0.33-0.4,0.74-0.54,1.08
					c-0.47,1.21-1.01,2.23-1.48,3.03c-0.07,0.14-0.13,0.2-0.13,0.2s4.52-104.99-37.2-44.75c1.61-3.5,4.38-9.43,7.41-15.5
					c4.38-8.69,9.16-17.59,11.59-19.75c5.05-4.52,20.35-9.56,20.35-9.56s0.54,1.88,1.35,5.05c0.4,1.35,0.43,3.11,1.28,4.79
					c4.65,9.26,5.74,10,8.17,22.73C327.32,481.65,326.47,485.06,326.14,487.89z"/>
				<path fill="#F8A285" d="M401.31,353.59v101.27c0,0-34.07,32.22-77.1,9.2l-2.08-97.59L401.31,353.59z"/>
				<path fill="#8B491F" d="M443.71,333.26c0,0-8.99,49.98-42.68,59.52l8.99-57.28L443.71,333.26z"/>
				<path fill="#FBB581" d="M427.55,278.78c0-0.41-0.07-0.81-0.13-1.21c-0.95-7.68-2.23-15.43-3.71-23.25v-0.07
					c-1.01-5.26-2.09-10.52-3.3-15.77c-0.34-1.42-0.68-2.9-1.02-4.31c-1.41-5.8-2.89-11.59-4.51-17.32
					c-0.14-0.48-0.27-1.02-0.41-1.49c-0.34-1.14-0.61-2.28-0.95-3.5c-0.27-0.95-0.6-1.89-0.87-2.84c-0.54-1.95-1.15-3.91-1.75-5.79
					c-2.09-6.81-4.25-13.48-6.6-20.02c-0.07-0.07-0.07-0.07,0-0.13c-0.07-0.07-0.07-0.07,0-0.14c-0.07-0.07-0.07-0.07-0.07-0.13
					c-7.14-20.35-15.03-39.16-22.97-54.79v-0.07c-11.66-23.18-23.12-39.49-31.4-43.53c-1.55-0.74-3.58-1.68-6.14-2.69
					c-20.55-8.49-71.56-23.93-113.61-2.36c-4.72,2.36-9.37,5.26-13.82,8.7c-3.7,2.83-7.35,6.13-10.78,9.77
					c-4.52,4.72-8.76,10.11-12.6,16.31c-2.7,4.31-5.26,8.96-7.61,14.01c-2.76,6-5.32,12.54-7.55,19.68
					c2.43,1.35,4.92,2.56,7.48,3.64c11.72,5.32,25.27,8.76,40.84,9.37c88.48,3.37,69.14-41.31,94.34-42.12
					c8.49-0.27,17.19-1.69,25.27-2.23c15.91-1.21,29.32,0.88,33.76,21.64c0.2,0.87,0.41,1.82,0.54,2.76
					c3.97,19,8.56,50.54,11.72,73.46c-3.71,1.21-7.28,3.03-10.65,5.39c-4.31-22.65-11.32-44.68-18.53-63.69
					c-15.77,4.99-114.83,34.57-182.9,7.82c-1.96-0.68-3.84-1.48-5.66-2.36c-3.24,13.68-5.53,29.32-6.6,47.04c0,0,0,0.87-0.07,2.56
					v0.81c0,0.07,0,0.13,0,0.13v0.2c-0.07,3.44-0.14,9.16,0,16.51v0.07c0.13,5.26,0.27,11.25,0.6,17.93
					c2.63,54.65,14.63,151.29,65.71,176.02c33.62,16.17,62.94,22.98,90.09,18.53c27.23-4.31,52.3-19.95,77.3-48.52
					c0.07-0.07,0.2-0.14,0.27-0.28c3.64-4.17,7.28-8.63,10.92-13.35c5.45-7.07,9.51-15.63,12.33-25.27
					c1.82-6.13,3.1-12.73,3.91-19.68c0.07-0.07,0.07-0.2,0.07-0.27c0.14-0.74,0.2-1.42,0.27-2.16
					C430.52,315.58,429.92,297.52,427.55,278.78z"/>
				<path fill="#8B491F" d="M381.87,105.93c0,8.63-0.2,15.91-0.6,22.04v0.07c-0.33,5.05-0.74,9.23-1.28,12.87
					c-0.14-0.94-0.34-1.88-0.54-2.76c-4.44-20.76-17.85-22.85-33.76-21.64c-8.09,0.54-16.78,1.96-25.27,2.23
					c-25.2,0.81-5.86,45.49-94.34,42.12c-15.57-0.6-29.11-4.04-40.84-9.37c-2.57-1.08-5.05-2.29-7.48-3.64
					c-6.47-3.51-12.26-7.61-17.59-12.13c-31.8-26.55-43.67-65.71-45.42-72.38c1.96,5.8,13.54,33.9,52.7,21.03
					c5.59-1.75,11.86-4.44,18.73-8.22c0.14-0.07,0.34-0.2,0.47-0.27c1.42-0.81,2.89-1.55,4.38-2.29c3.77-1.95,7.89-3.77,12.13-5.52
					c12.87-5.32,27.7-9.77,43.13-13.01h0.07c0.27,0,0.54-0.07,0.81-0.13c0.07-0.07,0.2-0.07,0.33-0.07c1.15-0.2,2.23-0.47,3.37-0.67
					c0.47-0.14,0.95-0.2,1.41-0.34c44.28-8.08,92.33-5.59,115.51,16.99c8.28,8.01,13.34,18.53,13.95,32.07c0,0,0,0,0,0.07
					C381.87,103.91,381.87,104.92,381.87,105.93z"/>
				<path fill="#8B491F" d="M461.66,234.98c-0.07,1.01-0.13,1.88-0.2,2.7v0.07c-0.27,2.63-0.48,4.11-0.48,4.11s-1.21,1.55-3.23,4.04
					c-2.49,3.03-6.27,7.48-10.79,12.4c-1.28,1.42-2.69,2.9-4.11,4.45c-0.54,0.54-1.08,1.14-1.62,1.68
					c-3.56,3.71-7.41,7.41-11.32,10.92c-0.81,0.74-1.69,1.48-2.49,2.23c-2.56,2.09-5.12,4.18-7.61,5.93
					c-4.72,3.43-9.37,6.07-13.61,7.41c-11.8,3.84-20.76-1.96-20.76-28.37c0-2.09-0.07-4.18-0.13-6.27
					c-0.07-2.29-0.14-4.52-0.34-6.81c-0.13-2.23-0.33-4.44-0.54-6.67c-0.74-7.68-1.95-15.37-3.37-23.05
					c3.37-2.36,6.94-4.18,10.65-5.39c-3.16-22.92-7.75-54.46-11.72-73.46c-0.14-0.94-0.34-1.88-0.54-2.76
					c-4.44-20.76-17.85-22.85-33.76-21.64c-5.8-11.99-9.77-19.14-9.77-19.14c1.01-6.26,3.77-11.52,7.81-15.63
					c3.85-4.11,9.03-7.08,14.96-8.97c2.84-0.94,5.87-1.61,9.1-1.95c0.4-0.07,0.81-0.14,1.28-0.07c1.75-0.27,3.5-0.33,5.32-0.33
					c2.63,0,5.32,0.14,8.09,0.54c22.97,2.76,49.13,17.66,65.7,47.24C467.05,151.75,463.48,214.29,461.66,234.98z"/>
				<path fill="#307E85" d="M430.37,202.55l-10.74,0.64l-5.89,0.19c0.44-18.34-5.44-96.91-44.77-132.71
					c-17.82-16.27-29.22-17.82-57.92-21.5c0,0-0.05,0-0.08,0c-29.96-0.96-51.44,2.51-66.76,6.72C270.98,45.39,312.19,36.1,356,53.49
					c12.16,4.82,22.92,12.69,31.33,22.7C404.61,96.76,431.58,139.17,430.37,202.55z"/>
				<path fill="#F36F52" d="M283.24,339.46c0,0-12.89,1.98-3.39,6.3c11.59,5.27,23.3,12.71,26.32,15.49
					C312.74,367.3,302.15,348.43,283.24,339.46z"/>
				<path fill="#F36F52" d="M198.72,347.27c0,0,7.04-5.43,4.7,1.3c-2.86,8.2-4.71,17.48-4.75,20.27
					C198.55,374.94,194.24,360.82,198.72,347.27z"/>
				<path fill="#6E3317" d="M173.97,161.53c1.82,0.87,3.7,1.68,5.66,2.36c-4.92,12.13-9.97,28.24-12.2,47.1
					c-0.07,0.33-0.13,0.68-0.13,0.95c0,0.07,0,0.13,0,0.13v0.2c-0.68,5.6-1.08,11.32-1.15,17.32v1.82c0,0-0.13-0.54-0.33-1.55
					c-0.47-2.43-1.55-7.61-2.76-14.49v-0.07c-2.83-16.71-6.6-43.26-5.66-63.01C162.58,155.86,168.18,158.97,173.97,161.53z"/>
				<path fill="#8B491F" d="M192.23,139.08c0,0-3.03,4.45-7,12.4c-2.57-1.08-5.05-2.29-7.48-3.64c-6.47-3.51-12.26-7.61-17.59-12.13
					c1.21-3.44,2.9-6.13,5.05-7.68c8.97-6.61,15.64-4.12,20.09,0.13C189.94,132.62,192.23,139.08,192.23,139.08z"/>
				<g>
					<path fill="#EE8D72" d="M376.68,313.38c-8.3-17.01-5.6-37.4,5.44-52.78c13.36-18.62,36.16-41.99,52.05-13.47
						c23.78,42.65,4.62,103.02-32.45,88.89C388.75,331.09,381.11,322.48,376.68,313.38z"/>
					<g>
						<g>
							<path fill="#7FC7C3" d="M413.74,201.46c0,4.31-0.14,7.1-0.2,7.64l-9.1-0.81c0-0.18,0.27-2.88,0.41-7.46v-0.63
								c0.67-22.48-6.07-85.12-41.05-122.51c-12.6-13.48-28.9-21.15-55.3-24.1c-19.13-2.14-36.76-3.13-51.38,1.54
								c-9.84,2.97-16.67,5.02-27.14,8c-0.13,0.09-3.69,1.42-3.79,1.48c20.22-11.69,19.61-8.25,35.11-13.92
								c0.07,0,0.2-0.09,0.33-0.09c14.02-5.13,31.65-4.37,59.08-3.2c26.28,4.5,37.89,3.72,54.19,23.59
								C410.9,114.69,414.14,179.08,413.74,201.46z"/>
						</g>
					</g>
					<g>
						<path fill="#F15B2D" d="M449.79,281.55c0,20.89-6.47,39.69-16.71,52.43c-0.47,0.6-1.01,1.28-1.55,1.88
							c-0.74,0.81-1.48,1.62-2.22,2.36c-1.21,9.64-2.09,15.77-2.09,15.77c-0.95,0-1.82-0.07-2.69-0.07c-3.71,0-10.65-0.2-17.25-0.74
							c-4.92-0.47-9.57-1.08-12.6-2.09c-25.14-5.6-42.39-33.9-42.39-69.55c0-14.28,3.3-27.43,8.89-38.35
							c5.06-9.97,11.93-18.06,19.88-23.45c3.37-2.36,6.94-4.18,10.65-5.39c2.16-0.74,4.38-1.28,6.67-1.62
							c1.69-0.27,3.44-0.4,5.19-0.4c0.07,0,0.07,0,0.13,0c2.36-0.34,5.87-0.54,9.84-0.47c1.21,0,2.43,0.07,3.71,0.13
							c4.65,0.2,9.7,0.81,14.22,2.02h0.07c2.49,0.61,4.79,1.35,6.81,2.43c0.27,0.07,0.61,0.27,0.88,0.41
							c2.15,1.14-0.2,4.51-1.48,10.17c-0.47,2.15-0.81,4.71-0.68,7.61c0.33,0.54,0.68,1.01,0.95,1.55
							c3.91,6.47,6.94,13.88,8.96,22.1c0.27,0.95,0.47,1.89,0.68,2.83C449.06,267.6,449.79,274.4,449.79,281.55z"/>
						<path fill="#B54426" d="M475.95,284.3c0,38.51-21.83,69.72-48.75,69.72c-26.93,0-48.76-31.21-48.76-69.72
							s21.83-69.72,48.76-69.72C454.13,214.58,475.95,245.79,475.95,284.3z"/>
						<path fill="#FFD050" d="M480.21,282.17c0,28.96-18.85,52.87-43.09,56.04c-17.95-5.49-31.43-28.29-31.43-55.59
							c0-28.51,14.71-52.13,33.89-56.04C462.65,230.94,480.21,254.19,480.21,282.17z"/>
						<path fill="#FEE396" d="M442.66,233.91c0,0-28.14,8.28-22.2,57.52c0,0,13.88-30.37,28.54-30.37
							C463.66,261.06,462.48,238.97,442.66,233.91z"/>
					</g>
					<polygon fill="#FEE396" points="417.65,215.5 398.31,214.56 398.38,212.74 398.65,206.07 398.78,202.63 404.85,202.9 
						413.74,203.37 416.24,203.51 416.91,209.37 417.25,212 					"/>
					<polygon fill="#CBA25D" points="432.48,213.89 431.47,214.02 426.01,214.56 420.95,215.17 417.65,215.5 417.25,212 
						416.91,209.37 415.95,202.97 428.1,202.83 432.37,202.34 					"/>
				</g>
				<g>
					<path fill="#8B491F" d="M285.92,379.2c-0.81,1.94-1.9,3.8-3.33,5.74c-6.52,9.7-18.67,18.79-34.17,18.96
						c-10.49,0.13-20.74-1.32-28.08-6.81c-0.04,0.15-0.04,0.15-0.15-0.04c-5.34-4.16-9.14-10.71-9.98-20.31c0,0-2.31-7.5,5.7-8.91
						c1.33-0.33,3.06-0.38,5.19-0.16c14.04,1.26,34.72,1.58,49.36-4.4c8.7-3.54,14.27-1.48,16.33,3.32
						C288.31,369.78,288.05,374.48,285.92,379.2z"/>
					<path fill="#FFFFFF" d="M286.78,366.59c-14.87,14.32-39.29,19.48-55.95,13.76c-9.18-3.16-13.19-8.29-14.92-12.51
						c1.33-0.33,3.06-0.38,5.19-0.16c14.04,1.26,34.72,1.58,49.36-4.4C279.16,359.72,284.72,361.79,286.78,366.59z"/>
					<path fill="#F16162" d="M282.58,384.94c-6.52,9.7-18.67,18.79-34.17,18.96c-10.49,0.13-20.74-1.32-28.08-6.81
						C233.05,391.27,260.72,380.04,282.58,384.94z"/>
				</g>
				<path fill="#FFFFFF" d="M290.28,240.34c-12.83-18.5-41.53-13.8-50.12,7c-4.08,9.91-5.11,20.16,4.9,34.39
					c18.5,26.32,53.91,2.53,54.12-14.75C299.25,260.49,297.7,251.04,290.28,240.34z"/>
				<path fill="#FFFFFF" d="M174.25,274.78c-4.33-7.53-6.05-16.13-4.79-24.64c1.39-9.32,5.21-20.15,15.6-17.87
					c17.68,3.88,33.74,39.93,14.55,53.3C188.24,293.51,179.49,283.9,174.25,274.78z"/>
				<g>
					<path fill="#611B13" d="M267.79,270.96c4.12,6.07,2.97,14.02-2.55,17.78c-5.53,3.75-13.34,1.88-17.46-4.19
						c-4.12-6.06-2.97-14.02,2.55-17.77C255.85,263.02,263.67,264.9,267.79,270.96z"/>
					<path fill="#1D1D1B" d="M256.5,285.29c-1.62-0.57-3.64-2.26-4.44-5.31c-0.53-2.01-0.35-4.09,0.5-5.72
						c0.45-0.86,1.28-1.97,2.67-2.33c0.75-0.2,1.5-0.16,2.3,0.12c1.61,0.57,3.64,2.26,4.44,5.31c0.54,2.01,0.35,4.09-0.5,5.72
						c-0.45,0.87-1.27,1.97-2.67,2.34C258.06,285.62,257.31,285.58,256.5,285.29z"/>
				</g>
				<g>
					<path fill="#611B13" d="M197.33,268.39c4.12,6.07,3.34,13.77-1.73,17.22s-12.52,1.32-16.64-4.75
						c-4.12-6.07-3.34-13.77,1.73-17.21S193.21,262.33,197.33,268.39z"/>
				</g>
				<path fill="#F36F52" d="M298.41,255.09c-31.3-28.28-60.77-0.66-60.77-0.66s0.89-33.44,23.94-39.84
					C292.3,205.97,298.41,255.09,298.41,255.09z"/>
				<path fill="#F36F52" d="M169.02,257.87c0,0,9.6-18.1,38.39,0c0,0-5.44-29.46-22.4-29.46
					C166.14,228.41,169.02,257.87,169.02,257.87z"/>
				<path fill="#8B491F" d="M292.43,226.47c0,0,12.16,11.61,14.74,5.66c2.57-5.95,1-20.67-17.36-23.74
					c-18.35-3.07-46,0.07-46.76,7.31c-0.76,7.24-0.5,12.41,5.96,11.88C255.47,227.04,272,215.39,292.43,226.47z"/>
				<path fill="#8B491F" d="M171.02,225.82c0,0-10.72,10.05-11.66,3.87c-0.95-6.17,2.53-20.53,16.42-21.43
					c13.89-0.9,33.59,5.42,33,12.65c-0.58,7.23-1.6,12.31-6.23,11.04C197.92,230.67,187.7,217.24,171.02,225.82z"/>
				<path fill="#FFFFFF" d="M253.45,268.92c0,2.54-2.06,4.6-4.6,4.6c-2.55,0-4.61-2.06-4.61-4.6c0-2.54,2.06-4.6,4.61-4.6
					C251.39,264.32,253.45,266.38,253.45,268.92z"/>
				<path fill="#F36F52" d="M202.29,308.83c0,0,4.21,30.75,29.59,25.97c10.75-2.02,10-0.16,6.16,3.07
					c-4.31,3.63-17.55,7.49-24.58,3.16C201,333.35,201.92,326.96,202.29,308.83z"/>
				<path fill="#6E3317" d="M253.35,170.09c0,0-120.9-13.65-97.26-114.7c-6.3,84.91,100.08,96.86,100.08,96.86
					c22.51,5.44,38.83-0.62,45.92-10.53C307.94,159.47,288.01,178.56,253.35,170.09z"/>
				<path fill="#8B491F" d="M302.09,141.72c-7.09,9.91-23.41,15.97-45.92,10.53c0,0-106.38-11.95-100.08-96.86c0,0,0,0,0-0.09
					c0.45-1.96,1.02-4.02,1.58-6.07c0,0,18.92,61.72,94.56,67.07C282.61,118.45,298.15,129.77,302.09,141.72z"/>
				<path fill="#6E3317" d="M281.68,154.05c0,0-111.4-12.58-89.61-105.68c-5.81,78.23,92.21,89.25,92.21,89.25
					c20.74,5.02,35.78-0.58,42.31-9.7C331.99,144.27,313.63,161.85,281.68,154.05z"/>
				<path fill="#8B491F" d="M326.59,127.92c-6.53,9.12-21.57,14.71-42.31,9.7c0,0-98.02-11.01-92.21-89.25c0,0,0,0,0-0.09
					c0.41-1.81,0.93-3.7,1.45-5.59c0,0,17.43,56.87,87.13,61.8C308.65,106.47,322.97,116.9,326.59,127.92z"/>
				<path fill="#183660" d="M441.44,460.19c-0.07,0.68-0.54,1.62-1.21,2.83c-7.28,12.34-43.67,51.08-43.67,51.08
					s-4.38-13.27-10.38-25.27c-1.08-2.09-2.15-4.11-3.24-5.93c-0.4-0.74-0.87-1.42-1.28-2.09c-2.76-4.25-5.59-7.41-8.69-8.89
					c-5.32-2.56-15.23,4.17-24.12,12.6c-0.47,0.54-1.01,1.01-1.48,1.48c-1.82,1.82-3.57,3.71-5.26,5.6
					c-6.6,7.41-26.41,37.27-28.3,39.96c0.27-0.74,0.81-1.75,1.48-3.03c0.14-0.33,0.33-0.74,0.54-1.08
					c3.03-5.66,8.49-14.89,13.21-22.71c2.29-3.84,4.45-7.35,6.07-9.91c1.01-1.75,1.82-3.1,2.29-3.84
					c14.69-23.99,36.66-38.88,52.44-47.1c1.35-0.74,2.69-1.41,3.97-2.02c9.3-4.44,17.2-11.87,17.2-11.87
					S442.59,452.85,441.44,460.19z"/>
				<path fill="#6E3317" d="M160.15,135.72c-1.55,4.38-2.36,10.11-2.76,16.57c-20.89-14.35-36.25-36.79-41.24-70.82l-1.68-19.14
					c0,0,0,0.07,0.07,0.27c0.07,0.14,0.14,0.41,0.2,0.74C116.49,70.01,128.35,109.16,160.15,135.72z"/>
				<path fill="#6E3317" d="M177.75,147.85c-1.35,4.31-2.63,8.89-3.77,13.68c-5.8-2.56-11.39-5.66-16.58-9.24
					c0.41-6.47,1.21-12.2,2.76-16.57C165.48,140.23,171.27,144.34,177.75,147.85z"/>
				<path fill="#6E3317" d="M362.53,156.06c-15.77,4.99-114.83,34.57-182.9,7.82c1.96-4.79,3.84-8.96,5.6-12.4
					c11.72,5.32,25.27,8.76,40.84,9.37c88.48,3.37,69.14-41.31,94.34-42.12c8.49-0.27,17.19-1.69,25.27-2.23
					C350.46,126.68,356.6,140.3,362.53,156.06z"/>
				<path fill="#6E3317" d="M379.98,140.9c-4.45,31.27-15.3,14.42-15.3,14.42s-0.74,0.27-2.15,0.74
					c-5.93-15.77-12.07-29.38-16.85-39.56c15.91-1.21,29.32,0.88,33.76,21.64C379.64,139.02,379.85,139.96,379.98,140.9z"/>
				<path fill="#6E3317" d="M391.71,214.36c-3.71,1.21-7.28,3.03-10.65,5.39c-4.31-22.65-11.32-44.68-18.53-63.69
					c1.41-0.47,2.15-0.74,2.15-0.74s10.85,16.85,15.3-14.42C383.96,159.9,388.54,191.45,391.71,214.36z"/>
				<path fill="#6E3317" d="M185.23,151.48c-1.76,3.44-3.64,7.61-5.6,12.4c-1.96-0.68-3.84-1.48-5.66-2.36
					c1.14-4.79,2.42-9.37,3.77-13.68C180.18,149.19,182.66,150.41,185.23,151.48z"/>
				<path fill="#6E3317" d="M270.18,135.3c0,0,16.84,2.8,43.8-15.45c0,0,1.4,26.96-7.86,28.36
					C296.85,149.62,270.18,135.3,270.18,135.3z"/>
			</g>
		</g>
	</g>
</g>
</svg>
