<?xml version="1.0" encoding="utf-8"?>
<!-- Generator: Adobe Illustrator 25.2.3, SVG Export Plug-In . SVG Version: 6.00 Build 0)  -->
<svg version="1.1" id="Layer_1" xmlns="http://www.w3.org/2000/svg" xmlns:xlink="http://www.w3.org/1999/xlink" x="0px" y="0px"
	 viewBox="0 0 576 576" enable-background="new 0 0 576 576" xml:space="preserve">
<g>
	<g>
		<defs>
			<circle id="SVGID_1_" cx="288.83" cy="288" r="288"/>
		</defs>
		<use xlink:href="#SVGID_1_"  overflow="visible" fill="#F9E3D9"/>
		<clipPath id="SVGID_2_">
			<use xlink:href="#SVGID_1_"  overflow="visible"/>
		</clipPath>
		<g clip-path="url(#SVGID_2_)">
			<path fill="#C62737" d="M372.14,589.18l-114.99,92.14H93.06L-46.29,612.7c-25.81-12.71-36.43-43.94-23.72-69.74
				c12.71-25.81,43.94-36.44,69.75-23.72l181.52,89.4l125.74-100.75c22.45-17.98,55.23-14.38,73.23,8.08
				C398.21,538.41,394.59,571.2,372.14,589.18z"/>
			<path fill="#BC2035" d="M93.06,681.33L-46.29,612.7c-22.67-11.17-33.61-36.61-27.33-60.14l249.4,128.76H93.06z"/>
			<polygon fill="#BC2035" points="199.98,681.33 328.75,580.01 352.44,604.97 257.15,681.33 			"/>
			<path fill="#B4B4B4" d="M363.52,494.46l-12.34,20.47c0,0,16.73,7.47,34.98,1.49C371.03,504.23,363.52,494.46,363.52,494.46z"/>
			<path fill="#C42127" d="M344.44,681.33c-9.73-27.21-19.54-44.17-24.95-53.43c-2.45-4.18-4.94-8.44-7.36-13.2
				c-28.33-55.87-4.54-125.58,52.94-150.48c53.94-23.37,112.42-1.85,140.96,51.97c0.23,0.39,36.3,62.45,61.12,165.14H344.44z"/>
			<path fill="#B71F2D" d="M492.73,681.33c-29.62-105.76-83.36-194.15-103.3-224.59c46.38-8.72,92.33,13.66,116.61,59.46
				c0.23,0.39,36.3,62.45,61.12,165.14H492.73z"/>
			<path fill="#E63F4D" d="M483.11,681.33H173.29c-0.18-4.63,0.03-9.31,1.15-14.04c6.65-28,34.73-45.33,62.72-38.66l143.29,34.02
				l15.76-125.75c3.55-28.35,29.25-48.51,57.55-45.29c0.2,0.02,0.4,0.04,0.61,0.07c28.55,3.58,48.79,29.61,45.21,58.17
				L483.11,681.33z"/>
			<polygon fill="#F0906B" points="370.98,360.54 411.02,500.45 347.68,492.47 324.83,375.89 			"/>
			<path fill="#E02D46" d="M483.11,681.33h-36.97c8.73-58.52,19.21-155.1,22.46-185.74c20.7,8.97,33.93,30.74,30.98,54.26
				L483.11,681.33z"/>
			<path fill="#E07E60" d="M388.39,421.37c-7.2,8.48-22.39,20-50.93,18.95l-7.13-36.38l48.41-16.3L388.39,421.37z"/>
			<path fill="#F9A570" d="M-111.4,541.29c0.05,26.27,21.37,47.53,47.64,47.48c26.27-0.04,47.53-21.37,47.48-47.64
				c-0.04-26.27-21.37-47.53-47.64-47.49C-90.18,493.69-111.44,515.02-111.4,541.29z"/>
			<path fill="#F9A570" d="M-36.99,540.99c1.7,0.2,3.45,0.12,5.21-0.27c8.55-1.89,13.94-10.36,12.05-18.91
				c-13.8-62.42-46.82-88.38-48.23-89.45c-6.94-5.34-16.9-4.03-22.23,2.92c-5.31,6.91-4.04,16.79,2.81,22.14
				c0.67,0.55,25.64,21.32,36.68,71.23C-49.18,535.44-43.54,540.25-36.99,540.99z"/>
			<path fill="#F9A570" d="M-65.7,524.81c2.48,0.28,5.07-0.12,7.49-1.3c6.74-3.3,9.54-11.43,6.24-18.18
				c-22.08-45.14-99.79-76.46-103.08-77.77c-6.98-2.77-14.87,0.64-17.65,7.61c-2.77,6.97,0.63,14.87,7.6,17.65l0,0
				c19.76,7.88,74.22,34.81,88.71,64.45C-74.27,521.6-70.15,524.31-65.7,524.81z"/>
			<path fill="#F9A570" d="M-93.18,532.32c2.88,0.33,5.87-0.25,8.54-1.87c6.42-3.88,8.49-12.23,4.61-18.66
				c-22.41-37.14-90.07-52.49-97.72-54.11c-7.38-1.55-14.55,3.12-16.11,10.46c-1.57,7.34,3.12,14.55,10.46,16.12
				c17.59,3.77,66.25,18.59,80.11,41.57C-101.02,529.6-97.23,531.86-93.18,532.32z"/>
			<path fill="#F9A570" d="M-101.74,558.7c2.81,0.32,5.76-0.23,8.39-1.78c6.48-3.79,8.65-12.11,4.86-18.59
				c-24.85-42.44-86.98-42.93-89.62-42.93c-7.51,0-13.59,6.08-13.59,13.59c0,7.5,6.07,13.6,13.58,13.59
				c0.82,0.01,49.3,0.65,66.19,29.48C-109.69,555.91-105.84,558.24-101.74,558.7z"/>
			<path fill="#F09766" d="M-165.1,452.82c-6.97-2.77-10.38-10.68-7.6-17.65c0.24-0.59,0.55-1.12,0.87-1.67
				c1.51,5.65,6.4,15.46,22.31,20.4c22.99,7.15,48.66,30.93,52.93,39.25C-118.91,473.93-150.93,458.48-165.1,452.82z"/>
			<path fill="#F09766" d="M-173.52,480.87c20.83,4.27,52.12,24.53,58.53,31.37c1.66,1.78,1.23,1.59-1.01,0.25
				c-20.2-15.36-53.51-25.25-67.41-28.23c-7.34-1.57-12.02-8.78-10.46-16.12c0.07-0.34,0.21-0.65,0.31-0.97
				C-191.46,471.8-186.29,478.26-173.52,480.87z"/>
			<path fill="#F09766" d="M-111.94,552.07c-0.37-0.62-0.77-1.21-1.16-1.81c12.59,1.92,28.5,0.99,39.78-5.34
				c16.85-9.44,26.2-57.43,9.46-83.19c-11.38-17.5-20.3-24.98-24.87-27.99c5.55-5.52,14.41-6.28,20.78-1.38
				c1.4,1.07,34.42,27.03,48.23,89.45c0.19,0.83,0.24,1.65,0.29,2.48c2,5.24,3.15,10.9,3.15,16.85
				c0.05,26.26-21.22,48.13-47.48,47.64C-103.28,588.03-111.21,553.32-111.94,552.07z"/>
			<path fill="#CCCCCC" d="M387.06,417.46c25.09,7.69,42.03,30.61,39.21,55.44c-3.22,28.38-31.03,48.53-62.1,44.99
				c-4.54-0.52-8.86-1.56-12.98-2.96C376.97,478.16,384.84,434.83,387.06,417.46z"/>
			<path fill="#CCCCCC" d="M334.71,426.09c3.32,19.59,20.34,51.37,47.44,91.22c-4.57,0.53-10.58,1.43-17.71,1.11
				c-31.24-1.38-53.64-29.4-50.42-57.77C315.82,444.84,321.36,434.12,334.71,426.09z"/>
			<path fill="#F0906B" d="M168.94,251.67c0,0-45.13,1.46-36.5,40.47c5.63,25.49,39.07,26.19,39.07,26.19L168.94,251.67z"/>
			<path fill="#F0906B" d="M408.48,265.67c3.07-3.96,5.8-15.34,10.5-17.08c12.49-4.6,40.09-3.39,46.27,13.47
				c13.39,36.57-22.63,64.34-58.49,54.46C378.66,308.78,398.57,278.42,408.48,265.67z"/>
			<path fill="#F8A17B" d="M417.63,280.19c0,0,2.43,72.62-25.26,108.98c-25,32.84-67.2,39.77-121.71,33.58
				c-77.18-8.77-92.83-37.94-102.74-100.11c-3.22-20.24-7.24-73.46-6.59-100.29c1.29-53.37-10.39-81.77,5.91-98.87
				c12.9-13.52,136.82-30.94,173.59-3.56s73.69,27.95,76.87,57.32C420.91,206.61,417.63,280.19,417.63,280.19z"/>
			<path fill="#73251E" d="M291.22,328.48c9.33-1.96,26.44,1.09,30.09,22.37c3.9,22.78-5.8,35.34-13.84,35.87
				c-8.03,0.54-15.25-12.6-26.22-11.68c-10.98,0.93-19.28,10.14-30.02,8.92c-10.74-1.22-25.13-17.86-14.89-32.65
				c7.49-10.83,20.23-4.85,32.43-8.87C280.98,338.43,281.9,330.45,291.22,328.48z"/>
			<path fill="#E07E60" d="M265.31,247.28c-2.16-7.5-7.53-13.88-14.99-16.19c-5.78-1.79-11.88-0.72-13.18,10.73
				c-2.6,22.91-1.93,29.69-18.42,47.3c-16.51,17.61-22.15,29.01-13.22,39.74c8.93,10.73,41.49,17.77,52.21-6.4
				C267.04,301.43,272,270.5,265.31,247.28z"/>
			<path fill="#E88660" d="M259.7,243.09c-2.02-7.05-7.07-13.02-14.06-15.19c-5.42-1.68-11.15-0.67-12.37,10.07
				c-2.44,21.49-1.8,27.86-17.29,44.38c-15.48,16.53-20.78,27.22-12.4,37.29c8.38,10.06,38.92,16.66,48.98-6
				C261.33,293.89,265.98,264.88,259.7,243.09z"/>
			<path fill="#C13E27" d="M175.23,208.6c19.78-11.71,24.34-22.77,24.79-24l-12.74-4.73l6.37,2.37l-6.31-2.52
				c-0.03,0.08-3.56,8.03-19.04,17.18L175.23,208.6z"/>
			<path fill="#010101" d="M291.83,244.96c0.76,15.78,9.63,28.18,19.84,27.7c10.2-0.49,17.86-13.67,17.11-29.45
				c-0.75-15.78-9.63-28.18-19.83-27.69C298.74,216,291.07,229.18,291.83,244.96z"/>
			<path fill="#010101" d="M181.36,248.98c-0.41,14.63,6.82,26.68,16.15,26.92c9.33,0.24,17.23-11.42,17.64-26.05
				c0.4-14.63-6.83-26.69-16.15-26.93C189.66,222.68,181.77,234.34,181.36,248.98z"/>
			<path fill="#FFFFFF" d="M300.01,237.84c0.35,7.37,4.5,13.16,9.27,12.94c4.76-0.23,8.35-6.39,8-13.76
				c-0.35-7.38-4.5-13.16-9.27-12.94C303.24,224.3,299.66,230.46,300.01,237.84z"/>
			<path fill="#FFFFFF" d="M189.02,244.18c0.33,7.1,4.26,12.67,8.78,12.45c4.53-0.23,7.94-6.16,7.61-13.26
				c-0.32-7.09-4.25-12.67-8.78-12.44C192.11,231.15,188.7,237.09,189.02,244.18z"/>
			<path fill="#F9A570" d="M110.86,681.33C81.11,660.3,65.21,641.52,64.3,640.4c-4.75-5.81-3.91-14.37,1.9-19.13
				c5.8-4.75,14.37-3.91,19.12,1.89c0.27,0.34,27.13,32.3,78.27,58.16H110.86z"/>
			<path fill="#F09766" d="M126.26,664.85c-30.59-13.99-53.29-35.11-60.91-42.73c0.29-0.28,0.53-0.59,0.85-0.85
				c5.8-4.75,14.37-3.91,19.12,1.9c0.25,0.3,22.26,26.79,64.69,51.04C144.04,672.38,136.3,669.45,126.26,664.85z"/>
			<path fill="#F9A570" d="M138.23,671.98c4.86,0.55,9.85-1.55,12.79-5.87c4.22-6.21,2.6-14.66-3.62-18.87
				c-52.02-35.33-61.33-55.75-61.42-55.95c0.12,0.29,0.16,0.43,0.16,0.43l-25.58,9.16c1.59,4.46,12.55,28.78,71.57,68.86
				C134.02,670.99,136.11,671.74,138.23,671.98z"/>
			<path fill="#F9A570" d="M218.39,681.33h-89.08c-2.47-6.73-3.62-14.03-2.76-21.62c2.97-26.1,26.53-44.86,52.63-41.89
				c26.11,2.97,44.86,26.53,41.89,52.63C220.65,674.26,219.65,677.86,218.39,681.33z"/>
			<path fill="#F9A570" d="M199.88,666.52c2.21,0.25,4.49,0.04,6.74-0.7c8.31-2.73,12.84-11.69,10.11-20.01
				c-11.17-33.97-61.62-63.97-67.34-67.28c-7.58-4.39-17.28-1.8-21.67,5.78c-4.39,7.58-1.8,17.27,5.77,21.66l0,0
				c17.57,10.2,47.51,32.72,53.11,49.74C188.59,661.79,193.91,665.84,199.88,666.52z"/>
			<path fill="#F09766" d="M108.34,681.33c-24.49-19.16-43.35-40.09-44.04-40.92c-1.48-1.8-2.34-3.88-2.76-6
				c16.44,12.97,49.87,37.4,78.55,46.93H108.34z"/>
			<path fill="#F09766" d="M140.58,642.5c-2.32-0.25-4.94-0.62-7.98-1.17c-32.69-5.97-56.12-21.85-65.83-29.45
				c-1.87-2.65-3.22-4.87-4.18-6.64l1.8-5.74l3.27-1.17l32.7,11.04C108.61,617.76,121.31,628.92,140.58,642.5z"/>
			<path fill="#F9A570" d="M167.83,657.56c5.22,0.59,10.54-1.89,13.33-6.74c3.74-6.51,1.49-14.82-5.01-18.56
				c-47.83-27.48-112.08-56.38-114.79-57.59c-6.86-3.07-14.89-0.01-17.96,6.84c-3.07,6.84-0.01,14.89,6.84,17.95
				c0.65,0.29,65.74,29.57,112.37,56.36C164.26,656.8,166.04,657.36,167.83,657.56z"/>
			<path fill="#F09766" d="M126.32,587.57c3.84,4.67,11.6,12.98,23.07,20.05c16.98,10.47,24.61,21.24,24.61,21.24
				s-8.92-3.79-19.95-9.05c-7.32-5.55-14.64-10.4-20.56-13.84C126.97,602.19,124.18,594.48,126.32,587.57z"/>
			<path fill="#E07E60" d="M429.62,261.82c0,0,17.86-5.56,20.23,13.23c2.08,16.48-8.77,23.67-15.98,25.7
				c-7.22,2.02-13.75-4.56-13.75-4.56s23.16,1.87,22.58-19.74C442.42,265.87,429.62,261.82,429.62,261.82z"/>
			<path fill="#F0906B" d="M171.99,344.32L171.99,344.32c0,0,7.13,89.96,119.84,62.31c153.46-37.65,51.52-284.95,51.52-284.95
				c19.21,2.18,51.4-1.15,64.93,36.86c14.28,40.13,9.35,121.66,9.35,121.66s2.43,72.62-25.26,108.98
				c-25,32.84-67.2,39.77-121.71,33.58C203.07,415.08,182.67,391.75,171.99,344.32z"/>
			<path fill="#CC5128" d="M107.62,166.86c0,0,15.08-52.6,39.96-72.96c30.99-25.35,71.21-24.27,71.21-24.27l-13.78-29.34
				c0,0,27.65,13.9,67.13,16.1s75.1-7.42,107.84,17.78c25.69,19.78,29.32,46.82,25.95,58.78c-5.55,19.65-37.27,22.51-48.02,16.37
				c-10.76-6.14-65.51-18.14-141.27-7.29C140.88,152.87,107.62,166.86,107.62,166.86z"/>
			<path fill="#EF9173" d="M219.22,323.07c8.16,1.85,15.51,0.17,16.4-3.77s-5-8.63-13.16-10.49c-8.16-1.85-15.51-0.17-16.41,3.77
				C205.16,316.52,211.06,321.22,219.22,323.07z"/>
			<path fill="#FFFFFF" d="M286.99,354.49c-21.81,3.71-41.12-1.46-49.68-4.39c7.6-9.1,19.77-3.8,31.47-7.66
				c12.2-4.01,13.13-12,22.45-13.96c7.45-1.57,19.85,0.09,26.41,11.66C311.55,345.74,301.77,351.98,286.99,354.49z"/>
			<path fill="#E07E60" d="M316.58,408.58l65.81-22.16L316.58,408.58z"/>
			<path fill="#F0906B" d="M340.85,119.93c1.74,1.29,3.47,2.47,5.2,3.65l26.19,28.98c0,0-104-11.82-155.2,2.88
				c-26.1,7.49-44.99,15-57.28,20.57c-1.42-19.15-2.51-33.15,1.85-43.71l170.7-17.28C335.5,116.47,338.38,118.09,340.85,119.93z"/>
			<path fill="#C13E27" d="M330.74,191.91l4.99-12.64c-15.42-6.08-20.64-19.95-20.86-20.54l-12.81,4.56
				C302.35,164.11,309.39,183.49,330.74,191.91z"/>
			<path fill="#C13E27" d="M387.26,126.13c21.36-5.17,51.52,5.85,58.28,55.21c5.97,43.58-27.14,77.66-27.14,77.66
				s-29.9-26.71-43.38-65.28C361.52,155.15,365.9,131.31,387.26,126.13z"/>
			<path fill="#C13E27" d="M193.77,122.41c46.25-8.42,147.08-2.48,162.6-24.07c7.71-10.73,6.53-24.44,3.38-35.52
				c6.87,2.64,13.61,6.25,20.23,11.35c25.69,19.78,29.32,46.82,25.95,58.78c-5.55,19.65-37.27,22.51-48.02,16.37
				c-10.76-6.14-65.51-18.14-141.27-7.29c-75.75,10.85-109.01,24.84-109.01,24.84s0.09-0.33,0.27-0.91
				C124.86,150.77,159.45,128.67,193.77,122.41z"/>
			<path fill="#E07E60" d="M291.48,388.54c0,0-2.77-4.02-9.71-4.81c-6.94-0.79-11.28,4.04-11.28,4.04S285.39,386.98,291.48,388.54z"
				/>
			<path fill="#F0906B" d="M298.82,273.78c0,0,12.58,13.36,31.35,15.23c18.76,1.86,17.97-1.27,17.97-1.27s-7.98,11.36-27.23,6.27
				S298.82,273.78,298.82,273.78z"/>
			<path fill="#F0906B" d="M170.91,290.95c0,0,13.1,3.19,25.4-3.17c12.3-6.36,10.56-7.98,10.56-7.98s-0.37,10.19-14.25,14.76
				C178.72,299.13,170.91,290.95,170.91,290.95z"/>
			<path fill="#C13E27" d="M287.52,137.8c-33.13,0.48-68.56,23.93-68.56,23.93s23.87-25.96,48.87-33.37
				C292.82,120.94,287.52,137.8,287.52,137.8z"/>
			<path fill="#F9AC8C" d="M301.75,317.28c-0.49,4.28,10.26,9.02,24,10.58c13.75,1.57,25.28-0.64,25.77-4.93
				c0.49-4.28-10.26-9.02-24-10.59C313.77,310.79,302.23,313,301.75,317.28z"/>
			<path fill="#F9AC8C" d="M171.44,323.92c0.31,2.16,6.18,3.09,13.11,2.08c6.92-1.01,12.28-3.58,11.96-5.74
				c-0.31-2.15-6.18-3.09-13.11-2.08S171.12,321.77,171.44,323.92z"/>
			<path fill="#E02D46" d="M197.24,681.33c8.5-25.47,6.95-43.41,6.88-44.1c-1.4-11.53,6.76-22.06,18.29-23.56
				c11.62-1.51,22.24,6.68,23.74,18.27c0.15,1.17,2.27,20.93-4.88,49.39H197.24z"/>
			<path fill="#BC2035" d="M-57.73,617.54c6.1,0.69,12.45-1.26,17.18-5.87c38.83-37.83,43.08-84.75,43.23-86.73
				c0.95-11.66-7.77-21.86-19.38-22.84c-11.62-0.95-21.81,7.66-22.83,19.27c-0.08,0.8-3.67,33.73-30.58,59.95
				c-8.38,8.16-8.55,21.58-0.39,29.96C-66.95,614.91-62.41,617.01-57.73,617.54z"/>
		</g>
	</g>
</g>
</svg>
