<?xml version="1.0" encoding="utf-8"?>
<!-- Generator: Adobe Illustrator 25.2.3, SVG Export Plug-In . SVG Version: 6.00 Build 0)  -->
<svg version="1.1" id="Layer_1" xmlns="http://www.w3.org/2000/svg" xmlns:xlink="http://www.w3.org/1999/xlink" x="0px" y="0px"
	 viewBox="0 0 576 576" enable-background="new 0 0 576 576" xml:space="preserve">
<g>
	<g>
		<defs>
			<path id="SVGID_1_" d="M576.19,287.76c0,158.93-128.84,287.77-287.77,287.77S0.65,446.69,0.65,287.76
				C0.65,128.84,129.49,0,288.42,0S576.19,128.84,576.19,287.76z"/>
		</defs>
		<use xlink:href="#SVGID_1_"  overflow="visible" fill="#F9E3D9"/>
		<clipPath id="SVGID_2_">
			<use xlink:href="#SVGID_1_"  overflow="visible"/>
		</clipPath>
		<g clip-path="url(#SVGID_2_)">
			<g>
				<path fill="#8E2D1D" d="M128.53,406.75c0,0,228.3,27.48,314.89,17.76c0,0-50.51-97.1-28.87-218.35s-233.03-52.85-233.03-52.85
					L176.4,289.2C176.4,289.2,146.04,391.41,128.53,406.75z"/>
				<path fill="#C43C27" d="M157.27,175.87c0,0,0.45,191.34-28.74,230.88c0,0,67.35-70.31,45.31-242.22L157.27,175.87z"/>
				<path fill="#262E30" d="M172.69,459.47c0,0,6.76-76.3,129.9-77.54s117.01,42.99,117.01,42.99l-80.39,59.55l-156.61,6.01
					L172.69,459.47z"/>
				<path fill="#ED7154" d="M21.26,644.7c-7.37,5.57-14.94,7.66-21.39,3.65c-14.92-9.25-49.11-190.21-64.78-268.16l20.77-8.6
					C-27.31,457.15,6.08,633.88,21.26,644.7z"/>
				<path fill="#F68E5A" d="M21.26,644.7c-15.18-10.82-48.57-187.55-65.4-273.11l30.7-12.67c11.43,55.89,64.96,229,64.96,229
					C51.98,605.91,37.95,632.11,21.26,644.7z"/>
				<path fill="#ED7154" d="M-103.34,405.29c2.02,1.08,36.13,23.29,70.44,14.86c16.26-3.99,29.57-48.74,23.56-56.53
					s-40.09-40.39-40.09-40.39l-44.4,17.04C-93.84,340.28-117.66,397.65-103.34,405.29z"/>
				<g>
					<path fill="#B7E3EA" d="M-42.06,117.99l-55.46,7.04l-55.46,7.05c0,0-23.21,163.96,76.82,161.06
						C21.41,270.93-42.06,117.99-42.06,117.99z"/>
					<path fill="#B7E3EA" d="M-37.09,182.85l-104.5,13.28c-3.07-27.72-1.57-53.99-0.45-65.45l89.02-11.3
						C-49.07,130.19-41.11,155.3-37.09,182.85z"/>
					<path fill="#B7E3EA" d="M-114,437.3c0,0,48.83-10.42,45.56-45.52c-3.34-35.95-12.61-99.87-12.61-99.87s-5.2-30.49-19.57-37.85
						l19.18-2.43l23.38,184.08C-58.05,435.7-104.81,444.69-114,437.3z"/>
					<path fill="#B7E3EA" d="M-3.48,423.26c0,0-51.49,2.35-55.5-32.68c-4.04-35.24-12.77-99.86-12.77-99.86s-2.59-30.82,9.49-41.54
						l-19.18,2.44l23.38,184.08C-58.05,435.7-10.53,432.71-3.48,423.26z"/>
					<path fill="#4E151C" d="M-51.53,270.19c-6.67,7.36-15.07,12.28-25.62,15.01c-10.96,0-20.33-2.66-28.57-8.12
						c-22.93-15.07-32.4-48.96-35.87-80.95l104.5-13.28C-32.46,214.74-33.15,249.92-51.53,270.19z"/>
					<path opacity="0.5" fill="#FFFFFF" d="M-142.55,136.69l33.99-4.32c0,0-10.16,145.89,31.52,153.82
						C-77.04,286.19-160.08,287.45-142.55,136.69z"/>
				</g>
				<path fill="#F68E5A" d="M-114.08,337.46c0,0-12.62,5.37-9.59,15.31c3.03,9.94,11.95,17.33,40.19,21.25s25.5-4.39,23.17-9.36
					C-62.63,359.7-94.34,340.66-114.08,337.46z"/>
				<path fill="#F68E5A" d="M-114.08,337.46c-9.71-5.11-13.43-34.83,7.15-25.93c20.58,8.9,48.77,20.01,43.42,31.79
					C-68.87,355.11-69.75,360.8-114.08,337.46z"/>
				<path fill="#F68E5A" d="M-57.85,307.28c-6.18-2.63-7.85-10.41-17.94-11.73c-14.76-1.93-34.32-23.12-37.39-12.52
					c-8.51,29.31,50.3,51.5,50.3,51.5s11.99,43.76,32.58,53.2c34.12,15.63,23.08-44.16,7.53-57.29
					C-34.99,320.11-44.94,312.78-57.85,307.28z"/>
				<path fill="#F68E5A" d="M-108.47,361.54c0,0-11.06,2.68-7.14,16.22c3.92,13.54,46.05,20.43,49.78,15.38
					c3.72-5.06,4.12-12.34-7.96-17.27C-85.87,370.94-108.47,361.54-108.47,361.54z"/>
				<path fill="#F68E5A" d="M-101.72,386.06c0,0-15.52,6.43-8.97,17.78c6.41,11.13,43.6,10.24,47,7.46
					c3.4-2.77,8.2-14.85-16.33-19.44S-101.72,386.06-101.72,386.06z"/>
				<path fill="#4C5C64" d="M341.32,413.54l-33.53,91.22c-14.03,8.33-29.49,12.47-45.74,8.94c-2.64-0.58-5.14-1.23-7.52-1.98
					l-12.73-77.78C277.19,419.61,310.99,414.06,341.32,413.54z"/>
				<path fill="#4C5C64" d="M412.51,421.38c-20-4.8-44.25-8.29-71.19-7.84l-33.54,91.22c-14.02,8.33-29.48,12.47-45.74,8.94
					c-2.64-0.58-5.13-1.23-7.52-1.98l-12.73-77.78c-17.48,7.16-35.34,16.41-53.4,28.39c-5.09,3.33-10.17,6.85-15.3,10.64
					c0,0-18.59,77.51-27.38,110.97c-7.53,28.56-1.25,56.22,21.59,76.51c5.01,4.45,10.87,8.61,17.55,12.29
					c4.78,2.67,10.03,5.05,15.72,7.27c7.15,2.73,14.01,8.11,20.46,15.68c38.35,44.59,47.14,133.78,14.28,338.35
					c142.58,74.45,299.23-32.75,299.23-32.75s-33.31-120.34-39.91-199.68c0.17-14.22,0.41-30.31,0.53-47.27
					c-0.01-0.05,0.03-0.14,0.03-0.19c4.68-25.11,5.1-56.68,3.84-86.58c-0.01-0.05-0.01-0.09-0.01-0.09l-4.38-37.64l-6.95-59.13
					l-1.13-9.62l-13.78-117.71C472.78,443.38,449.8,430.21,412.51,421.38z"/>
				<path fill="#4C5C64" d="M4.42,665.12c13.98,15.28,37.86,16.15,53.79,2.91C101.57,632,225.19,531.41,262.42,524.59
					c45.41-8.32-65.22-92.76-83.86-83.98C159.92,449.4,85.8,568.76-13.57,622.62C-13.57,622.62-9.92,649.46,4.42,665.12z"/>
				<path fill="#ED7154" d="M337.96,380.39c-11.06-46.32-10.68-136.77-11.52-143.11c0,0-92.66,32.05-78.82,71.76
					c11.18,32.1-3.54,83.57-9.54,102.08C290.31,403.59,321.06,390.47,337.96,380.39z"/>
				<path fill="#F8A479" d="M170.6,155.89c-7.04,71.48-1.32,86.57-12.12,109.55c-11.06,23.54,51.01,125.55,85.31,125.15
					c10.19-0.12,65.54-11.55,109.3-41.73c1.8-5.37,3.65-11.6,5.55-18.74c11.96-45.26-31.81-82.49-40.28-118.47
					c-8.46-35.97,7.33-82.98,7.33-82.98l52.75,11.67c-24.29-44-65.79-73.47-134.72-55.56C240.27,85.68,177.27,87.84,170.6,155.89z"
					/>
				<path fill="#3A160F" d="M322.34,182.08c0.26,3.47,0.62,7.03,1.09,10.63c11.33,2.89,23.22,6.97,31.26,12.83
					c1.35,0.99-11.58-17.79-25.89-21.77C326.92,183.25,324.74,182.67,322.34,182.08z"/>
				<path fill="#ED7154" d="M316.08,180.55c-0.21,3.45-0.27,6.91-0.17,10.38c2.46,0.51,4.98,1.11,7.52,1.78
					c-0.47-3.6-0.83-7.16-1.09-10.63C320.35,181.59,318.25,181.06,316.08,180.55z"/>
				<path fill="#ED7154" d="M322.34,182.08c0.26,3.47,0.62,7.03,1.09,10.63c-2.54-0.67-5.06-1.27-7.52-1.78
					c0.14,7.04,0.88,14.08,2.45,20.73c8.46,35.97,52.24,73.21,40.28,118.47c-1.9,7.13-3.74,13.36-5.55,18.74
					c33.32-22.93,59.92-56.76,54.84-104.72c-3.6-34.07-12.19-72.58-29.49-103.8l-52.75-11.67c0,0-8.28,24.63-9.61,51.87
					C318.25,181.06,320.35,181.59,322.34,182.08z"/>
				<g>
					<path fill="#8B491F" d="M286.64,336.57c-0.55,1.87-1.4,3.65-2.57,5.5c-5.26,9.27-16.24,17.7-31.73,17.13
						c-10.49-0.38-20.92-2.33-28.93-8.22c-0.02,0.15-0.02,0.15-0.15-0.05c-5.84-4.47-10.41-11.3-12.38-21.05
						c0,0-3.18-7.72,4.62-8.69c1.28-0.24,3-0.19,5.15,0.14c14.12,2.1,34.74,3.62,48.53-1.47c8.2-2.99,13.99-0.6,16.66,4.27
						C287.79,327.38,288.15,332.02,286.64,336.57z"/>
					<path fill="#FFFFFF" d="M285.84,324.14c-12.95,13.34-36.65,17.16-53.97,10.53c-9.55-3.69-14.14-9.1-16.37-13.47
						c1.28-0.24,3-0.19,5.15,0.14c14.12,2.1,34.74,3.62,48.53-1.47C277.37,316.88,283.17,319.27,285.84,324.14z"/>
					<path fill="#F16162" d="M284.07,342.07c-5.26,9.27-16.24,17.7-31.73,17.13c-10.49-0.38-20.92-2.33-28.93-8.22
						C235.42,345.77,261.64,336.01,284.07,342.07z"/>
				</g>
				<path fill="#F3877C" d="M347.88,290.1c2.56,12.58-8.03,25.37-23.67,28.55c-15.65,3.19-30.4-4.43-32.97-17.01
					c-2.57-12.58,8.03-25.36,23.67-28.55C330.56,269.9,345.31,277.51,347.88,290.1z"/>
				<path fill="#F3877C" d="M199.59,301.9c-4.97,7.51-16.57,8.59-25.91,2.42c-9.34-6.17-12.88-17.27-7.91-24.78
					c4.97-7.51,16.56-8.59,25.9-2.41C201.01,283.3,204.55,294.39,199.59,301.9z"/>
				<path fill="#F68E5A" d="M376.56,423.39c-10.78,20.19-36.05,62.08-68.78,81.36c-14.03,8.33-29.49,12.47-45.74,8.94
					c-2.64-0.58-5.14-1.23-7.52-1.98c-39.94-12.26-49.68-47.14-51.81-68.55c13.44-6.44,24.95-12.66,29.85-20.99
					c0.98-1.71,2.51-2.8,3.71-5.7c0.45-1.17,1.05-2.98,1.8-5.36c52.25-7.53,82.96-20.62,99.87-30.73
					c2.43,10.29,5.51,18.4,9.18,22.94l0.01,0.05C347.35,403.57,357.3,412.95,376.56,423.39z"/>
				<path fill="#43535B" d="M493.48,599.27c0.46,9.11,0.85,19.44,1.16,30.57c0.9,37.03,0.88,83.21,0.55,124.31
					c0.01,0.05-0.03,0.14-0.03,0.19c-0.12,16.96-0.36,33.05-0.53,47.27c-0.5,33.12-1.05,56.01-1.05,56.01l-197.13,158.92
					c14.17-15,79.63-93.87,92.96-129.99c41.94-113.5,25.7-232.63,25.7-232.63c-96.99,34.31-244,7.23-247.71,6.56
					c267.92,24.42,285.57-123.53,285.57-123.53l33.6,24.13l2.78,2.01C491.19,568.67,492.54,581.66,493.48,599.27z"/>
				<path fill="#43535B" d="M373.15,664.77c-14.87,10.34-125.2,26.96-152.1,30.93c-6.46-7.56-13.35-12.97-20.47-15.69
					c-5.7-2.2-10.93-4.61-15.75-7.28l-17.74-13.95c2.69,1.05,11.94,3.13,11.94,3.13l27.22,2.26l18.36,1.23l15.98,0.69l30.07-0.42
					l54.39-7.56l37.2-5.23L373.15,664.77z"/>
				<path fill="#4C5C64" d="M14.1,446.75c0,0-29.08,31.62-68.72,23.28c0,0,36.93,153.08,45.65,162.77
					c8.72,9.69,70.87,8.92,60.49-44.88L14.1,446.75z"/>
				<path fill="#FAA324" d="M563.48,134.13c1.11,8.4-4.8,16.1-13.19,17.22c-8.39,1.11-16.1-4.8-17.22-13.19
					c-1.11-8.4,4.8-16.11,13.19-17.22C554.66,119.83,562.36,125.74,563.48,134.13z"/>
				<path fill="#43535B" d="M493.48,599.27c2.08,18.16,4.25,37.69,5.32,63.33c0,0,0.23,4.93,0.23,4.97
					c1.26,29.9,0.84,61.48-3.84,86.58c0.01,0.05-0.03,0.14-0.03,0.19c-2.22,12.03-2.14,28.49-0.53,47.27
					c6.6,79.34,39.91,199.68,39.91,199.68s-156.65,107.2-299.23,32.75c0,0,52.71-34.73,104.15-87.77
					c48.43-49.8,95.73-115.84,97.08-184.36c2.43-125.74,42.32-180.59,51.15-191.22c1.08-1.3,1.7-1.95,1.7-1.95
					S491.3,580.76,493.48,599.27z"/>
				<g>
					<path fill="#F68E5A" d="M647.42,200.37c-10.75,0.23-20.98,0.57-31.22,0.93c0.33,0.78,0.66,1.64,1.08,2.55
						c4.71,10.62,28.82,86.4,28.82,86.4l27.35-1.3C666.41,270.93,642.58,215.67,647.42,200.37z"/>
					<g>
						<path fill="#EF4039" d="M574.22,107.2c0,0-12.28,31.49,17.37,35.86c29.64,4.38,31.07,26.06,31.07,26.06l18.74-20.04
							c0,0,6.71-25.32-28-24.56c-34.71,0.76-21.49-25.5-21.49-25.5L574.22,107.2z"/>
						<path fill="#ED7154" d="M616.2,201.29c-4.66,0.18-9.36-0.88-13.62-0.72c0.43,1.6,1.23,4.61,2.09,6.81
							c4.21,10.8,24.72,87.56,24.72,87.56l46-0.29c0.05-0.35-0.66-2.38-1.94-5.71l-27.35,1.3c0,0-24.11-75.77-28.82-86.4
							C616.86,202.94,616.53,202.07,616.2,201.29z"/>
						<path fill="#4C5C64" d="M733.18,439.36l-73.67-208.54c-11.18,0.27-20.05,3.65-26.91,8.08c-8.88,24.41,34.08,194.1,34.08,194.1
							s-171.51-27.2-226.42,7.95c-19.98,12.82-32.65,12.23-40.67,6.21c-1.82,5.81-2.54,12.08-2.47,18.52
							c0.59,46.46,41.95,81.94,88.23,77.89c88.46-7.75,208.91-52.9,242.28-85.88C732.91,452.45,736.53,445.94,733.18,439.36z"/>
						<path fill="#43535B" d="M632.61,238.9c-14.02,9.03-19.6,22.42-19.6,22.42l42.65,163.8c0,0-178.43-29.91-233.81-3.26
							c-12.14,5.83-18.99,14.84-22.25,25.31c8.02,6.02,20.69,6.61,40.67-6.21C495.18,405.8,666.69,433,666.69,433
							S623.72,263.31,632.61,238.9z"/>
						<g>
							<path fill="#ED7154" d="M651.51,150.88c-13.26,9.6-38.37,31.14-34.23,52.84c-6.12-0.2-11.34-0.8-13.54-1.96
								c-3.54-1.81-7.44-5.8-10.37-9.23c-2.82-3.28-4.8-6.07-4.8-6.07l-30.57-53.39c0,0,10.81-12.62,21.87-16.2
								c1.81-0.57,3.63-0.95,5.43-0.97c1.79-0.03,3.96-0.23,6.39-0.57c1.91-0.27,3.94-0.62,6.04-1.04c1.01-0.19,2.06-0.41,3.09-0.66
								c5.83-1.21,11.98-2.78,17.03-4.11c0.31-0.1,0.58-0.16,0.89-0.26c6.12-1.65,10.44-2.98,10.44-2.98s5.23,4.31,11.04,14.32
								c1.93,3.39,3.95,7.43,5.85,12.15C648.73,139.34,650.44,145.48,651.51,150.88z"/>
							<path fill="#F68E5A" d="M596.34,193.88c0,0-41.44-18.4-43.62-28.86c-2.17-10.45-7.2-49.79,10.03-56.6
								c17.23-6.81,27.91-8.64,31.29-1.51c3.39,7.13-20.81,29.16-20.81,29.16S641.51,143.58,596.34,193.88z"/>
							<path fill="#F68E5A" d="M589.04,90.65c-3.6-1.43-9.31,1.55-9.49,5.42c-0.66,13.49,0.2,54.98,14.41,50.7
								c0,0,14.45-13.27,3.58-46.64c-1.31-4.04-4.13-7.57-8.02-9.28C589.36,90.78,589.2,90.71,589.04,90.65z"/>
							<path fill="#F68E5A" d="M612.37,97.13c-3.54-3.7-9.76-3.01-12.3,1.43c-3.09,5.39-5.31,15.57,3.49,32.43
								c14.45,27.67,18.67,13.84,19.29,8.94c0.62-4.9-2.86-34.36-8.11-40.22C613.83,98.7,613.06,97.85,612.37,97.13z"/>
							<path fill="#F68E5A" d="M616.73,104.03c0,0,5.42,32.55,14.87,39.87c9.44,7.31,10.62-9.55,8.74-13.87
								c-0.75-1.73-0.74-3.93-0.45-5.94c0.69-4.81,0.4-9.73-1.46-14.23c-1.4-3.39-3.19-6.85-5.19-8.52
								C629.95,98.57,621.19,92.68,616.73,104.03z"/>
							<path fill="#F68E5A" d="M560.72,117.77c-0.31-0.79-17.53-69.59-10.62-75.31c6.9-5.72,23.99,32.14,27.46,50.11
								c3.47,17.96,3.48,18.7,3.48,18.7L560.72,117.77z"/>
						</g>
						<path fill="#F68E5A" d="M651.51,150.88c1.93,9.92,1.63,17.34,0.92,20.27c-1.14,4.53-4.22,23.91-5,29.2
							c-0.36,2.37-17.24,3.79-30.16,3.37C613.13,182.02,638.25,160.47,651.51,150.88z"/>
						<path fill="#ED7154" d="M651.51,150.88c0,0,2.14,21.47-7.34,29.99c-9.47,8.52-30.37,13.52-26.89,22.86
							c3.48,9.33-6.64-14.54-6.64-14.54l23.6-34.99L651.51,150.88z"/>
					</g>
				</g>
				<path fill="#1A1F21" d="M415.7,419.64c0,0,106.18,155.73,169.51,183.75l-26.71,86.42c0,0-152.97-153.52-161.38-224.12
					L415.7,419.64z"/>
				<path fill="#262E30" d="M191.43,438.35c0,0,88.04,87.31,162.23-52.9l53.49-5.05c0,0,50.13,46.07-31.25,114.94
					c-73.46,62.18-169.14,47.85-202.13-22.86L191.43,438.35z"/>
				<path fill="#F2885A" d="M243.82,242.54c0,0-4.96,27.7-16.08,34.37s2.93,26.1,14.06,19.43s14.75-4.88,19.44-2.34
					c4.69,2.54,11.69-10.2,3.64-15.93c-8.05-5.74-11.54,0.51-12.89-4.27S243.82,242.54,243.82,242.54z"/>
				<path fill="#A73B29" d="M356.94,204.71c-21.71-51.53,2.18-114.4,2.18-114.4c22.87-2.84,40.41,0.97,53.68,9.32
					C417.88,120.27,425.37,179.02,356.94,204.71z"/>
				<path fill="#C43C27" d="M443.44,424.5c-136.37-57.73-15.52-127.72-55.75-179.07c12.01-16.13,37.19-45.71,63.66-51.03
					c1.36,46.14-8.75,92.63-11.2,105.06C434.67,327.19,443.44,424.5,443.44,424.5z"/>
				<path fill="#A73B29" d="M367.74,119.91c0,0-27.11,49.32-144.87,58.93c-57.1-41.31-34.29-88.95-2.9-122.95
					c11.79-5.33,25.43-9.3,41.16-11.43C380.15,28.34,367.74,119.91,367.74,119.91z"/>
				<g>
					<path fill="#F57F42" d="M382.48,280.11c0.68-20.87,12.49-39.91,32.18-51.12c12.73-6.45,27.71-8.96,36.44,3.5
						c13.82,20.59-7,67.58-39.72,79.7c-12,5.13-23.99-0.79-26.89-12.77C383.15,294.21,382.21,287.72,382.48,280.11z"/>
					<path fill="#E96B42" d="M441.74,257.12c0,0-0.89,10.26-4.69,5.62c-3.8-4.65-15.89-18.09-17.22-6.02s8.18,23.17-2.63,29.03
						c-10.81,5.85-11.01,4.16-12.8,0.28c0,0,10.32-1.04,11.08-6.9c0.76-5.86,4.24-9.64,3.72-9.75c-0.53-0.11-6.4-7.08-6.4-7.08
						l0.25-11.67l5.58-6.61l17.22,0.23C435.84,244.24,442.46,250.3,441.74,257.12z"/>
					<path fill="#C84830" d="M428.62,241.34c0,0,17.18,5.06,10.37,15.92c-6.82,10.86,5.83-7.43-8.1-9.55
						c-13.92-2.12-12.69-3.75-15.93,2.67c-3.24,6.41-0.88,10.38,5.61,17.53c6.49,7.13-14.85,23.31-16.97,18.45
						c-2.28-5.26,18.09-9.65,13.45-15.9c-4.64-6.26-10.75-16.76-6.45-22.47C414.9,242.28,425.01,240.39,428.62,241.34z"/>
				</g>
				<path fill="#E1432B" d="M451.35,194.4c-26.48,5.33-51.65,34.91-63.66,51.03c-1.85-2.38-4.02-4.72-6.62-6.99
					c-11.21-9.94-18.95-21.54-24.13-33.74c68.43-25.69,60.94-84.44,55.86-105.09C441.13,117.36,450.26,155.76,451.35,194.4z"/>
				<path fill="#E1432B" d="M222.87,178.84c-22.69,1.87-48.76,2.23-78.62,0.5c0,0-0.43-89.23,75.72-123.45
					C188.58,89.89,165.78,137.53,222.87,178.84z"/>
				<g>
					<path fill="#65B3A3" d="M318.88,48.12L294.33,15.8l-27.74-36.66l-24.87-32.83l-29.13-38.45l-27.57-36.36l-2.22,32.95
						l-2.49,36.28l-2.06,29.57l-2.47,36.36l-1.92,28.83l-2.52,36.47l-1.88,28.11l-0.55,7.79c0,0,35.93,14,78.35,5.85
						c19.55-3.73,40.39-12.14,59.8-28.82c7.62-6.42,14.95-14.16,21.93-23.38L318.88,48.12z"/>
					<path fill="#FEC743" d="M193.16-28.81c-0.29,0.62-0.26,1.34,0.11,1.9l4.14,7.17c0.83,1.43-0.34,3.25-2.01,3.04l-8.24-1.03
						c-0.66-0.08-1.32,0.12-1.78,0.65l-5.54,6.15c-0.82,0.93-2.15,0.86-2.87,0.11l1.27-18.88l0.94-13.23l5.31,5.02
						c0.49,0.47,1.17,0.65,1.84,0.49l8.11-1.73c1.63-0.36,2.98,1.36,2.25,2.88L193.16-28.81z"/>
					<path fill="#FEC743" d="M219.7-58.7l-8.22-1.06c-0.67-0.08-1.33,0.16-1.78,0.67l-5.53,6.17c-1.12,1.26-3.21,0.68-3.52-0.98
						l-1.54-8.14c-0.13-0.66-0.56-1.21-1.18-1.49l-7.58-3.35c-1.54-0.68-1.64-2.84-0.15-3.65l7.26-3.98
						c0.59-0.32,0.98-0.92,1.05-1.58l0.84-8.24c0.18-1.68,2.2-2.43,3.43-1.28l6.02,5.68c0.49,0.46,1.17,0.65,1.83,0.51l8.09-1.75
						c1.65-0.36,3,1.33,2.27,2.86l-3.54,7.5c-0.29,0.6-0.25,1.31,0.08,1.89l4.16,7.16C222.56-60.29,221.37-58.49,219.7-58.7z"/>
					<path fill="#FEC743" d="M259.15-30.64l-7.18-3.1c-0.62-0.29-1.33-0.22-1.9,0.1l-7.05,4.39c-1.4,0.92-3.26-0.24-3.1-1.89
						l0.78-8.26c0.09-0.66-0.21-1.33-0.69-1.77l-6.38-5.33c-1.28-1.04-0.79-3.19,0.88-3.55l8.1-1.78c0.14-0.05,0.27-0.08,0.38-0.17
						L259.15-30.64z"/>
					<path fill="#FEC743" d="M232.79,19.66l-7.59-3.29c-0.62-0.27-1.32-0.22-1.89,0.14l-7.02,4.39c-1.43,0.9-3.27-0.24-3.11-1.92
						l0.78-8.25c0.06-0.67-0.21-1.32-0.72-1.75l-6.35-5.33c-1.3-1.08-0.79-3.18,0.86-3.54l8.09-1.8c0.66-0.14,1.2-0.6,1.45-1.23
						l3.1-7.68c0.64-1.57,2.78-1.73,3.65-0.28l4.21,7.13c0.34,0.58,0.95,0.95,1.62,1l8.26,0.58c1.69,0.12,2.51,2.12,1.39,3.38
						l-5.48,6.21c-0.44,0.5-0.61,1.19-0.45,1.84l2.01,8.03C235.99,18.94,234.34,20.33,232.79,19.66z"/>
					<path fill="#FEC743" d="M210.49,57.32l-8.24,0.84c-0.67,0.07-1.26,0.46-1.58,1.05l-3.98,7.26c-0.81,1.48-2.97,1.39-3.65-0.16
						l-3.35-7.58c-0.27-0.61-0.82-1.05-1.48-1.17l-8.14-1.54c-1.65-0.31-2.24-2.39-0.97-3.52l6.17-5.52
						c0.51-0.45,0.75-1.12,0.67-1.78l-1.05-8.22c-0.21-1.68,1.58-2.87,3.04-2.02l7.16,4.17c0.58,0.34,1.29,0.36,1.9,0.08l7.48-3.54
						c1.53-0.72,3.23,0.62,2.87,2.28l-1.75,8.09c-0.14,0.66,0.05,1.34,0.51,1.83l5.68,6.03C212.92,55.12,212.17,57.14,210.49,57.32z
						"/>
					<path fill="#FEC743" d="M266.52,56.38l-7.57-3.36c-0.62-0.27-1.32-0.23-1.89,0.13l-7.06,4.33c-1.44,0.88-3.27-0.27-3.1-1.95
						l0.86-8.24c0.07-0.66-0.19-1.32-0.7-1.77l-6.3-5.37c-1.29-1.1-0.75-3.19,0.9-3.54l8.11-1.73c0.66-0.14,1.2-0.6,1.45-1.21
						l3.17-7.66c0.65-1.56,2.8-1.71,3.65-0.24l4.15,7.16c0.33,0.58,0.93,0.96,1.6,1.01l8.26,0.65c1.69,0.13,2.49,2.14,1.36,3.39
						l-5.54,6.16c-0.45,0.5-0.62,1.19-0.46,1.84l1.93,8.05C269.72,55.69,268.06,57.07,266.52,56.38z"/>
					<path fill="#FEC743" d="M293.83,15.16c-0.43,0.95-1.61,1.51-2.68,1.02l-7.55-3.36c-0.61-0.25-1.33-0.22-1.89,0.14l-7.07,4.32
						c-1.47,0.88-3.26-0.25-3.12-1.94l0.89-8.24c0.04-0.64-0.22-1.34-0.73-1.75l-6.31-5.39c-1.25-1.07-0.73-3.15,0.9-3.51l8.11-1.73
						c0.67-0.16,1.21-0.62,1.46-1.23l0.55-1.33L293.83,15.16z"/>
					<path fill="#FEC743" d="M232.58,111.96l-7.57-3.36c-0.62-0.27-1.32-0.23-1.89,0.13l-7.06,4.33c-1.44,0.88-3.27-0.27-3.1-1.95
						l0.86-8.24c0.06-0.67-0.19-1.32-0.71-1.76l-6.3-5.38c-1.29-1.09-0.75-3.19,0.9-3.54l8.11-1.73c0.66-0.14,1.2-0.59,1.45-1.21
						l3.17-7.66c0.65-1.56,2.8-1.7,3.65-0.24l4.15,7.16c0.33,0.58,0.93,0.96,1.6,1.01l8.26,0.65c1.69,0.13,2.49,2.14,1.36,3.39
						l-5.53,6.17c-0.45,0.49-0.62,1.18-0.47,1.84l1.94,8.05C235.78,111.27,234.12,112.65,232.58,111.96z"/>
					<path fill="#FEC743" d="M177.26,82.17l-5.53,6.2c-0.43,0.47-0.6,1.15-0.45,1.82l1.91,8.06c0.4,1.61-1.25,2.99-2.8,2.31
						l-0.94-0.38l0.01-0.1l1.46-21.7l5,0.39C177.61,78.93,178.42,80.94,177.26,82.17z"/>
					<path fill="#FEC743" d="M312.91,78.04l-7.61,3.22c-0.63,0.29-1.1,0.82-1.23,1.49l-1.13,5.57c-1.4,1.11-2.8,2.17-4.21,3.24
						l-5.3-6.05c-0.4-0.51-1.06-0.78-1.77-0.71l-8.21,0.94c-1.69,0.18-2.82-1.64-1.98-3.11l4.29-7.07c0.35-0.59,0.38-1.28,0.1-1.87
						l-3.41-7.59c-0.71-1.53,0.66-3.2,2.33-2.8l8.05,1.86c0.68,0.18,1.34-0.03,1.84-0.47l6.15-5.57c1.24-1.16,3.22-0.37,3.36,1.33
						l0.72,8.28c0.06,0.66,0.43,1.26,1.01,1.56l7.21,4.1C314.61,75.25,314.5,77.41,312.91,78.04z"/>
					<path opacity="0.3" fill="#0889A6" d="M185.01-128.5c0,0,140.92,183.43,69.7,240.68c0,0,50.82-13.04,74.27-50.65L185.01-128.5z
						"/>
				</g>
				<polygon fill="#ED7154" points="222.77,206.3 226.58,250.6 210.69,232.24 192.69,234.83 169.17,241.55 171.7,206.15 
					179.66,200.26 212.28,193.31 				"/>
				<path fill="#ED7154" d="M282.54,195.96l-12.65,39.06l17.94,2.95l14.66-1.37l9.42,2.04l29.96,9.95l7.44-39.25
					c0,0-39.95-18.84-41.13-19.07c-1.18-0.23-16.52,1.79-16.52,1.79L282.54,195.96z"/>
				<path fill="#C43C27" d="M349.14,205.93l-1.12,8.06c0,0-38.84-21.08-66.77-13.38l2.25-16.21
					C283.49,184.4,334.2,189.63,349.14,205.93z"/>
				<path fill="#C43C27" d="M172.27,198.72l-0.57,7.43c0,0,31.99-11.84,51.07,0.15l1.14-14.95
					C223.91,191.35,185.98,186.81,172.27,198.72z"/>
				<path fill="#262E30" d="M180.58,436.59c0,0-13.52,23.97-5.46,38.7c8.05,14.72,27.21-34.49,27.21-34.49L180.58,436.59z"/>
			</g>
			<g>
				<g>
					<path fill="#A73B29" d="M349.86,138.88c0,0,0.21,34.26-15.48,62.68c0,0-13.5-41.04-37.36-68.06l9.33-21.31L349.86,138.88z"/>
				</g>
				<g>
					<path fill="#A73B29" d="M317.6,146.96c0,0,8.11,30.85-6.73,57.72c0,0-12.77-38.81-35.32-64.36l8.82-20.15L317.6,146.96z"/>
				</g>
			</g>
			<path fill="#F68E5A" d="M226.58,250.6c0,0,1.73-33.67-17.08-39.66c-24.77-7.88-36.84,15.49-40.33,30.6l5.14,3.93L226.58,250.6z"
				/>
			<path fill="#FFFFFF" d="M174.31,245.48c0,0,2.4,2.98,6.79,6.09c2.15,1.54,4.82,3.11,7.9,4.37c4.41,1.8,9.73,2.99,15.82,2.56
				c2.63-0.16,5.41-0.66,8.33-1.53c4.2-1.25,8.7-3.29,13.42-6.37c0,0-10.16-27.29-30.86-23.42c-13.8,2.58-18.81,10.84-20.55,15.32
				C174.48,244.29,174.31,245.48,174.31,245.48z"/>
			<g>
				<path fill="#6B2613" d="M218.81,247.53c0,2.93-0.75,5.72-2,8.13c-1.25,0.51-2.46,0.93-3.67,1.3c-2.92,0.88-5.71,1.4-8.31,1.54
					h-0.41c-2.14,0.14-4.18,0.09-6.13-0.14h-0.05c-3.39-0.42-6.5-1.3-9.24-2.41c-1.07-0.42-2.09-0.93-3.02-1.4
					c-0.98-2.14-1.49-4.5-1.49-7.02c0-9.47,7.66-17.14,17.19-17.14C211.15,230.39,218.81,238.06,218.81,247.53z"/>
				<path fill="#3D2015" d="M212.96,247.53c0,5.3-3.62,9.75-8.55,10.97c-2.14,0.14-4.18,0.09-6.13-0.14h-0.05
					c-2.18-0.69-4.09-2.04-5.53-3.85c-1.49-1.9-2.37-4.32-2.37-6.97c0-0.32,0-0.65,0.05-0.97c0.51-5.76,5.34-10.31,11.29-10.31
					C207.9,236.25,212.96,241.31,212.96,247.53z"/>
				<circle fill="#FFFFFF" cx="191.17" cy="250.65" r="4.19"/>
			</g>
			<path fill="#F68E5A" d="M174.31,245.48c0,0,23.59-36.11,52.27,5.13l-2.14-14.35l-17.29-17.85l-14.7-2.08l-15.41,11.9
				L174.31,245.48z"/>
			<path fill="#4B2524" d="M171.55,240.5l2.76,4.98c0,0,25.03-36.26,52.27,5.13C226.57,250.6,208.71,204.64,171.55,240.5z"/>
			<g>
				<path fill="#F68E5A" d="M341.06,237.54c0,0-3.52-29.23-39.74-30.55c-36.21-1.32-32.18,42.47-32.18,42.47L341.06,237.54z"/>
				<path fill="#FFFFFF" d="M269.15,249.48c0,0,4.17,3.54,11.1,7.04c3.19,1.59,6.93,3.16,11.12,4.38c4.61,1.33,9.77,2.21,15.26,2.17
					c3.92-0.01,8-0.52,12.2-1.63c7.47-1.99,15.26-5.95,23.04-12.86c0,0-0.97-1.41-2.73-3.54c-5.76-6.9-20-21.36-37-19.05
					C279.99,229,269.15,249.48,269.15,249.48z"/>
				<g>
					<path fill="#6B2613" d="M328.99,250.6c0,2.69-0.51,5.25-1.44,7.62c-2.97,1.44-5.85,2.5-8.73,3.25
						c-1.06,0.28-2.13,0.51-3.2,0.69c-3.07,0.6-6.09,0.88-9.01,0.88c-2.04,0-4.04-0.09-6-0.32c-3.25-0.37-6.36-1.02-9.24-1.81
						c-0.93-0.28-1.86-0.56-2.74-0.88c-1.44-2.84-2.23-6.04-2.23-9.43c0-11.75,9.53-21.32,21.32-21.32
						C319.47,229.28,328.99,238.85,328.99,250.6z"/>
					<path fill="#3D2015" d="M321.7,250.6c0,4.78-2.41,9.06-6.08,11.56c-3.07,0.6-6.09,0.88-9.01,0.88c-2.04,0-4.04-0.09-6-0.32
						c-1.53-0.93-2.87-2.09-3.9-3.48h-0.05c-1.86-2.37-2.97-5.34-2.97-8.64c0-0.42,0-0.84,0.09-1.25c0.6-7.16,6.6-12.78,13.94-12.78
						C315.43,236.57,321.7,242.84,321.7,250.6z"/>
					<path fill="#FFFFFF" d="M299.89,254.44c0,2.87-2.32,5.2-5.19,5.2c-2.86,0-5.19-2.32-5.19-5.2c0-2.86,2.33-5.19,5.19-5.19
						C297.56,249.26,299.89,251.58,299.89,254.44z"/>
				</g>
				<path fill="#F68E5A" d="M269.15,249.48c1.48-0.18,28.22-33.24,72.73-0.89c0,0-8.31-33.1-26.84-30.75
					c-18.52,2.34-33.1,6.3-33.1,6.3L269.15,249.48z"/>
				<path fill="#4B2524" d="M269.15,249.48c0,0,30.03-32.97,72.73-0.89l-0.81-11.05C341.06,237.54,292.29,216.13,269.15,249.48z"/>
			</g>
		</g>
	</g>
</g>
</svg>
