<?xml version="1.0" encoding="utf-8"?>
<!-- Generator: Adobe Illustrator 25.2.3, SVG Export Plug-In . SVG Version: 6.00 Build 0)  -->
<svg version="1.1" id="Layer_1" xmlns="http://www.w3.org/2000/svg" xmlns:xlink="http://www.w3.org/1999/xlink" x="0px" y="0px"
	 viewBox="0 0 576 576" enable-background="new 0 0 576 576" xml:space="preserve">
<g>
	<g>
		<defs>
			<path id="SVGID_1_" d="M576,288c0,159.05-128.94,288-288,288C128.94,576,0,447.06,0,288C0,128.94,128.94,0,288,0
				C447.06,0,576,128.94,576,288z"/>
		</defs>
		<use xlink:href="#SVGID_1_"  overflow="visible" fill="#F9E3D9"/>
		<clipPath id="SVGID_2_">
			<use xlink:href="#SVGID_1_"  overflow="visible"/>
		</clipPath>
		<g clip-path="url(#SVGID_2_)">
			<path fill="#02A2B3" d="M363.4,768.59c3.39-39.2,18.28-73.93,24.74-85.54c5.57-10,16.45-58.04,21.8-106.91
				c-21.71-6.15-39.24-10.98-39.24-10.98s8.21,57.39-5.1,95.35c-13.35,37.92,0,28.69-13.35,61.51c-3.99,9.85-5.66,26.51-5.95,46.57
				H363.4z"/>
			<path fill="#0CB3C1" d="M348.35,768.59c0.03-1.58-0.01-3.31,0.03-4.84c-31.73-96.45-173.69-36.69-210.72-49.18
				c-21.65-7.29-37.23-36.36-40-60.23c1.14,35.11,32.2,72.83,49.6,114.25H348.35z"/>
			<path fill="#5E2117" d="M199.93,129.05l3.47,56l10.03,162.26c0,0,177.37,292.21,189.76,232.56
				c12.35-59.61,2.47-117.98,31.91-259.56c6.42-30.87,15.51-135.95-23.18-185.28c-3,8.03-13.11,3.23-18.3,12.59
				c-6.68,11.98-14.95,22.45-24.07,24.74c-23.63,5.91,2.53,28.69-11.81,41.35c-14.35,12.66-27.01-26.16-29.54-11.81
				c-2.2,12.46,5.16,66.97-20.56,45.06c-27.85-31.8-35.1-69.91-37.03-88.17v-0.03c-0.68-6.82-0.64-10.87-0.64-10.87
				s-0.38-0.14-1.08-0.44c0.75-25.59,6.99-44.29,6.99-44.29s5.47,3.18,12.32,6.51c12.22,5.94,28.96,12.49,27.34,2.77
				c-1.79-10.66,0.2-15.93,10.02-16.64c4.16-0.31,9.69,0.2,16.98,1.45c16.95,2.91,16.28-2.12,10.68-14.78
				c-12.15-7.46-24.98-13.64-38.31-18.26c-69.8-24.3-100.94,5.46-110.02,37.23v0.03C200.54,116.8,199.93,129.05,199.93,129.05z"/>
			<path fill="#6C2619" d="M219.62,102.04c0,0-120.3-15.78-114.21,125.18c7.6,175.52,125.8,228.85,101.33,278.64
				s71.67,3.22,71.67,3.22L219.62,102.04z"/>
			<path fill="#F68E5A" d="M244.87,499.15c44.98,16.11,91.68-41.28,108.15-64.24c-15.28-11.09-22.72-20.24-22.88-20.45v-0.03
				c-2.65-4.31-4.33-11.57-5.25-20.64c-15.59,6.71-43.36,14.44-88.88,14.96c-0.92,1.92-1.66,3.39-2.16,4.36
				c-1.34,2.34-2.79,3.1-3.84,4.47c-5.12,6.57-15.67,10.57-27.87,14.57C201.51,451.79,206.48,485.39,244.87,499.15z"/>
			<path fill="#F4783A" d="M324.88,393.78c-4.21-40.86,6.36-118.14,6.36-123.66c0,0-82.86,16.91-75.52,52.43
				c5.92,28.71-12.49,71.05-19.72,86.19C281.52,408.22,309.29,400.49,324.88,393.78z"/>
			<path fill="#F8A479" d="M41.52,768.59H68.1l-2.1-33.47c-1.47-10.09-0.21-36.66,2.62-46.47l37.52-147.84l56.19,2.24l0.64-1.97
				l-66-7.72L48.28,677.9c-3.57,9.57-6.86,35.96-6.14,46.14L41.52,768.59z"/>
			<path fill="#F38F73" d="M68.1,768.59h30.31l1.39-27.63c0.43-5.96,1.57-11.84,3.47-17.53l59.05-180.39l-56.19-2.24L68.61,688.64
				c-2.83,9.81-4.09,36.38-2.62,46.47L68.1,768.59z"/>
			<path fill="#02A2B3" d="M200.34,430.99c0,0-30.95,20.61-56.71,26.38c-25.76,5.76-61.63,87.75-68.88,116.54
				c0,0,31.2,26.09,53.5,23.02C150.55,593.85,200.34,430.99,200.34,430.99z"/>
			<path fill="#0CB3C1" d="M387.12,507.73l-2.36,61.3c6.79,1.94,15.59,4.4,25.19,7.11c3.51-32.27,4.62-64.9,0.12-87.14
				L387.12,507.73z"/>
			<path fill="#0CB3C1" d="M102.96,621c28.66,6.03,152.62,28.12,209.88-4.08c53.73-30.23,24.45-118.2,12.1-149.08
				c-21.05,21.23-49.19,40.29-76.72,30.14c-37.21-13.75-42.04-47.33-41.42-66.99c0,0-0.03,0-0.06,0.03
				c-0.98,0.59-12.46,12.45-20.63,22.36C166.23,477.49,121.89,596.82,102.96,621z"/>
			<path fill="#0696A6" d="M303.18,492.35c0,0-50.75,43.44-92.27,1.16C210.9,493.51,242.05,557.33,303.18,492.35z"/>
			<path fill="#02A2B3" d="M97.65,654.33c2.77,23.87,18.35,52.95,40,60.23c37.03,12.49,178.99-47.27,210.72,49.18
				c0.47-17.93,2.14-32.7,5.7-41.74c12.94-32.82,0-23.59,12.94-61.51c12.91-37.95,4.95-95.35,4.95-95.35s5.28,1.51,13.63,3.88
				l2.29-61.3L410.12,489c-2.44-12.58,5.56-18.76-0.88-22.79c-15.45-9.69-46.34-25.06-56.19-32.45
				c-5.9,8.46-15.77,21.65-28.12,34.08c12.35,30.88,41.63,118.84-12.1,149.08c-57.25,32.2-181.22,10.11-209.88,4.08
				c-1.82,7.63-3.43,14-4.26,18.55C97.8,644.44,97.47,649.35,97.65,654.33z"/>
			<path fill="#02A2B3" d="M352.78,768.59l19.98-76.32L383,614.37l1.75-45.33c-8.61-2.37-14.05-3.88-14.05-3.88
				s8.21,57.39-5.1,95.35c-13.35,37.92,0,28.69-13.35,61.51c-3.66,9.04-5.38,23.81-5.87,41.74c0.51,1.5,0.82,3.27,1.27,4.84H352.78z
				"/>
			<path fill="#6C2619" d="M268.9,147.45c0.75-25.59,6.99-44.29,6.99-44.29s5.47,3.18,12.32,6.51c12.22,5.94,28.96,12.49,27.34,2.77
				c-1.79-10.66,0.2-15.93,10.02-16.64c-13.54-4.18-28.12-5.47-43.68-2.9c-1.68,0.27-3.44,0.61-5.16,0.97
				C189.3,112.78,259.18,143.43,268.9,147.45z"/>
			<path fill="#F8A479" d="M149.92,220.97c12.54,60.66,21.11,71.63,18.11,93.32c-3.08,22.22,74.2,90.29,102.34,81.17
				c8.36-2.71,51.01-26.32,79.3-62.4c0.11-4.88,0.03-10.49-0.23-16.85c-1.76-40.34-47.35-59.77-63.55-87.22
				c-16.2-27.45-15.25-70.2-15.25-70.2l46.43-3.92c-31.29-30.01-73.02-43.63-125.18-11.2C189.27,145.3,137.95,163.23,149.92,220.97z
				"/>
			<g>
				<path fill="#F57F42" d="M356.24,268.91c-4.79-17.35,0.05-36.06,13.39-50.34c8.83-8.58,20.52-14.48,30.91-6.46
					c16.65,13.41,11.56,57.43-12.27,75.81c-8.57,7.3-19.95,5.51-25.42-3.62C360.4,280.35,357.96,275.25,356.24,268.91z"/>
				<path fill="#E96B42" d="M399.14,234.78c0,0,1.9,8.68-2.43,5.83c-4.33-2.84-17.72-10.82-15.72-0.54
					c1.99,10.28,12.68,16.98,5.28,24.58c-7.39,7.59-8,6.25-10.46,3.51c0,0,8.23-3.51,7.35-8.53c-0.88-5.01,1.03-9.02,0.57-8.98
					c-0.46,0.04-7.09-4.19-7.09-4.19l-2.8-9.68l2.9-6.88l14.24-4.22C390.98,225.7,397.98,228.99,399.14,234.78z"/>
				<path fill="#C84830" d="M384.29,225.17c0,0,15.44-0.24,12.62,10.44c-2.83,10.69,2.89-7.61-9.11-5.79
					c-12.02,1.83-11.42,0.17-12.44,6.28c-1.02,6.11,1.95,8.78,9.12,13c7.18,4.21-6.25,23-9.24,19.54
					c-3.23-3.75,12.42-12.59,6.99-16.54c-5.43-3.96-13.16-11.04-11.08-16.85C373.23,229.45,381.06,225.3,384.29,225.17z"/>
			</g>
			<path fill="#F2885A" d="M227,249.62c-1.61-0.37,3.66,36.72-12.83,52.53c-20.55,19.69,25.85,19.56,34.67,4.45
				c8.83-15.11-5.01-14.05-7.87-10.87C238.12,298.91,233.15,251.05,227,249.62z"/>
			<g>
				<path fill="#EF435C" d="M277.23,332.79c0,0-32.94,0.58-46.6,6.96c-11.08,5.17,1.18,15.56,1.18,15.56s21.3-1.96,27.07-8.44
					C264.65,340.37,277.23,332.79,277.23,332.79z"/>
				<path fill="#C42126" d="M231.82,355.28c0,0,0.21,0.1,0.59,0.23c3.36,1.09,21.1,4.49,55.56-29.91c0.83-0.79,1.66-1.61,2.47-2.44
					c0,0-1.53,1.2-4.13,3.12c-10.19,7.47-36.84,26.03-53.77,28.86v0.03C232.29,355.23,232.06,355.26,231.82,355.28z"/>
				<path fill="#EF435C" d="M240.6,367.12c23.43,1.44,45.21-37.5,47.37-41.51c-34.46,34.4-52.2,31-55.56,29.91
					C227.74,366.59,240.6,367.12,240.6,367.12z"/>
			</g>
			<path fill="#3A160F" d="M241.21,222.9c0,0,10.57-7.5,16.96-8c2.86-0.21,10.83-1.53,20.38-2.34c-0.97-2.84-1.82-5.71-2.53-8.6
				c-13.44,0.86-29.9,2.58-31.55,4.47C242.32,210.93,239.24,219.29,241.21,222.9z"/>
			<path fill="#3A160F" d="M281.57,203.62c1.1,2.79,2.31,5.63,3.63,8.47c10.07-0.53,20.9-0.21,29.03,2.55
				c1.37,0.47-14.09-11.68-26.9-11.28C285.65,203.41,283.7,203.49,281.57,203.62z"/>
			<path fill="#3A160F" d="M158.21,252.76c-0.55,0.93,2.2-15.41,9.7-19.89c7.5-4.48,24.48-13.14,26.96-11.81
				c2.48,1.33,8.41,7.4,9.1,11.28c0,0-9.77-2.49-13.66-0.51C186.43,233.81,165.43,240.63,158.21,252.76z"/>
			<g>
				<path fill="#F68E5A" d="M218.9,279.48c0,0-5.74-27.66-24.77-27.7c-25.06-0.05-31.32,21.91-31.29,35.02L218.9,279.48z"/>
				<path fill="#4B2524" d="M162.83,286.8c0,0,5.34-23.63,28.52-24.88c23.18-1.25,27.54,17.56,27.54,17.56l-50.37,9.19L162.83,286.8
					z"/>
				<path fill="#FFFFFF" d="M168.53,288.66c0,0,2.91,1.79,7.74,3.19c2.37,0.69,5.22,1.29,8.4,1.51c4.55,0.33,9.82-0.06,15.46-1.96
					c2.45-0.81,4.95-1.92,7.52-3.35c3.68-2.08,7.47-4.88,11.25-8.57c0,0-15.54-19.47-34.2-11.06c-12.42,5.61-15.35,13.55-16,17.61
					C168.43,287.65,168.53,288.66,168.53,288.66z"/>
				<g>
					<path fill="#6B2613" d="M175.06,285.2c-0.03,0.75,0,1.5,0.1,2.24c0.15,1.51,0.52,2.99,1.1,4.41c2.37,0.69,5.22,1.29,8.4,1.51
						c4.55,0.33,9.82-0.06,15.46-1.96c2.45-0.81,4.95-1.92,7.52-3.35c0.14-2.18-0.21-4.33-0.93-6.36c-0.06-0.2-0.15-0.4-0.23-0.59
						c-1.83-4.57-5.68-8.38-10.79-10c-8.68-2.77-17.67,1.86-20.05,10.35C175.28,282.7,175.1,283.96,175.06,285.2z"/>
					<path fill="#3D2015" d="M181.48,285.33c-0.03,0.32-0.04,0.64-0.03,0.97c0.05,1.86,0.64,3.66,1.68,5.22
						c0.42,0.66,0.94,1.29,1.53,1.84c4.55,0.33,9.82-0.06,15.46-1.96c0.34-0.58,0.6-1.23,0.79-1.92c0.64-2.26,0.41-4.59-0.51-6.64
						c-0.13-0.31-0.27-0.6-0.45-0.89c-1.25-2.22-3.33-3.99-5.96-4.83c-5.27-1.69-10.73,1.13-12.18,6.29
						c-0.08,0.31-0.16,0.62-0.21,0.92C181.53,284.66,181.51,285,181.48,285.33z"/>
					<path fill="#FEF7F7" d="M178.12,287.61c-0.49,1.74,0.56,3.61,2.34,4.18c1.79,0.57,3.63-0.38,4.12-2.13
						c0.49-1.74-0.56-3.61-2.34-4.18C180.46,284.92,178.62,285.87,178.12,287.61z"/>
				</g>
			</g>
			<path fill="#076D77" d="M468.87,579.62c0,0-21.9,24.77-88.42,34.99C380.45,614.61,433.54,573.4,468.87,579.62z"/>
			<path fill="#3A160F" d="M276.03,203.97c0.71,2.89,1.55,5.76,2.53,8.6c2.16-0.21,4.39-0.37,6.65-0.47
				c-1.32-2.84-2.53-5.68-3.63-8.47C279.81,203.73,277.94,203.84,276.03,203.97z"/>
			<path fill="#F68E5A" d="M281.57,203.62c1.1,2.79,2.31,5.63,3.63,8.47c-2.26,0.1-4.49,0.27-6.65,0.47
				c1.92,5.76,4.34,11.36,7.33,16.43c16.2,27.45,61.79,46.89,63.55,87.21c0.27,6.36,0.34,11.96,0.24,16.86
				c21.56-27.43,34.78-62.1,18.3-100.29c-11.7-27.14-28.66-56.64-50.91-77.91l-46.43,3.92c0,0-0.5,22.4,5.39,45.17
				C277.94,203.84,279.81,203.73,281.57,203.62z"/>
			<path fill="#6C2619" d="M140,237.48c12.38-28.47,19.5-43.61,63.41-52.43c7.46-1.48,15.56-3.14,24.38-5.09
				c20.46-4.56,33.29-11.89,41.25-19.58c0.57-0.54,1.08-1.08,1.58-1.58v-0.03c-0.68-6.82,5.27-55.6,5.27-55.6s5.47,3.18,12.32,6.51
				c0.64-6.21-0.57-12.59-6.31-16.78c-8.07-5.9-25.04-7.46-58.33,1.83c-6.72,1.89-12.92,4.15-18.67,6.72v0.03
				C130.84,134.93,140,237.48,140,237.48z"/>
			<g>
				<path fill="#F68E5A" d="M327.47,247.81c0,0-19.03-29.36-51.6-21.8c-32.57,7.56-18.42,45.58-18.42,45.58L327.47,247.81z"/>
				<path fill="#4B2524" d="M327.47,247.81l-5.46,5.46l-64.56,18.32c0,0-1.68-30.59,23.91-36.12
					C306.96,229.96,327.47,247.81,327.47,247.81z"/>
				<path fill="#FFFFFF" d="M257.46,271.61c0,0,4.56,2.15,11.57,3.59c3.21,0.65,6.94,1.14,10.96,1.22
					c4.42,0.07,9.24-0.38,14.11-1.75c3.49-0.95,7-2.38,10.48-4.38c6.17-3.57,12.15-8.98,17.43-17.01c0,0-1.21-1.03-3.29-2.49
					c-6.79-4.76-22.97-14.2-37.55-8.05C262.17,250.76,257.46,271.61,257.46,271.61z"/>
				<g>
					<path fill="#6B2613" d="M267,268.36l-0.01,0.02c0.02,0.17,0.04,0.32,0.07,0.51c0.27,2.21,0.93,4.36,1.97,6.32
						c3.21,0.65,6.94,1.14,10.96,1.22c4.42,0.07,9.24-0.38,14.11-1.75c3.49-0.95,7-2.38,10.48-4.38c0.84-4.02,0.31-8.1-1.32-11.68
						c-0.35-0.73-0.73-1.45-1.19-2.16c-2.03-3.31-5.11-6.02-8.98-7.6c-9.74-3.96-20.84,0.76-24.8,10.5
						C267.1,262.29,266.69,265.38,267,268.36z"/>
					<path fill="#3D2015" d="M274.58,264.39c-0.11,0.48-0.16,0.97-0.19,1.47c-0.03,0.31-0.03,0.62-0.01,0.94l-0.01,0.02
						c0.05,1.73,0.49,3.42,1.29,4.95c0.94,1.89,2.43,3.51,4.33,4.66c4.42,0.07,9.24-0.38,14.11-1.75c1.07-1.05,1.94-2.34,2.55-3.84
						c1.39-3.44,1.01-7.18-0.73-10.16c-0.35-0.61-0.77-1.19-1.23-1.71c-1.16-1.38-2.64-2.48-4.41-3.2
						c-5.92-2.39-12.66,0.45-15.07,6.38C274.92,262.87,274.71,263.63,274.58,264.39z"/>
					<path fill="#FEF7F7" d="M270.35,266.78c-0.81,2,0.15,4.28,2.16,5.09c2,0.81,4.28-0.16,5.09-2.16s-0.16-4.28-2.16-5.09
						C273.44,263.81,271.16,264.78,270.35,266.78z"/>
				</g>
			</g>
			<path fill="#6C2619" d="M307.65,246.96c10.09,11.54,22.89,22.25,39.12,30.89c77.64,41.35-5.9,126.58-5.9,126.58l43.04,14.35
				c0,0,52.47-104.17,44.87-159.02c-3.61-26.06-9.9-78.92-35.15-112.13c-6.68,11.98-14.95,22.45-24.07,24.74
				c-23.63,5.91,2.53,28.69-11.81,41.35c-14.35,12.66-27.01-26.16-29.54-11.81C326.01,214.36,333.37,268.87,307.65,246.96z"/>
			<path fill="#993B21" d="M270.61,158.77v0.03c1.08,10.26,3.84,26.71,10.96,44.83c1.1,2.79,2.31,5.63,3.63,8.47
				c5.39,11.65,12.65,23.64,22.45,34.86c25.71,21.9,18.35-32.6,20.54-45.07c2.55-14.33,15.2,24.48,29.55,11.83
				c14.33-12.67-11.83-35.44,11.81-41.36c9.13-2.29,17.38-12.76,24.06-24.75c5.21-9.36,15.31-4.55,18.33-12.59
				c-16.41-20.85-36.39-38.86-58.71-52.53c5.6,12.65,6.28,17.67-10.68,14.78c-7.28-1.27-12.83-1.77-16.98-1.45
				c-9.81,0.68-11.81,5.97-10.02,16.62c1.63,9.73-15.12,3.18-27.35-2.76c-6.83-3.34-12.3-6.53-12.3-6.53
				S269.95,151.93,270.61,158.77z"/>
			<path fill="#02A2B3" d="M206.8,430.99c0,0-3.59-3.42-6.46,0c-2.88,3.42-6.82,13.44-6.82,13.44S206.77,433.33,206.8,430.99z"/>
			<g>
				<path fill="#F38F73" d="M450.17,763.01c-1.51,0.94-4.88,2.89-9.57,5.57h67.15c3.01-3.46,4.94-8.32,4.94-16.34
					c0-23.59-79.19-256.81-79.19-256.81s-10,0.61-23.9,3.9c0,0,0,0,0,0.03c20.06,59.69,71.33,214.43,71.33,233.41
					C480.93,756.34,465.03,753.78,450.17,763.01z"/>
				<path fill="#F8A479" d="M343.76,768.59h96.83c4.7-2.69,8.07-4.64,9.58-5.59c14.86-9.23,30.77-6.65,30.77-30.21
					c0-18.98-51.27-173.72-71.33-233.41c-14.91,3.52-34.34,10.23-50.67,22.72l62.53,189.63L343.76,768.59z"/>
			</g>
			<path fill="#02A2B3" d="M468.87,579.62c0,0-56.64,7.82-88.42,34.99c0,0-53.82-100.22-17.95-137.64
				C398.39,439.56,443.76,471.98,468.87,579.62z"/>
		</g>
	</g>
</g>
</svg>
