<?xml version="1.0" encoding="utf-8"?>
<!-- Generator: Adobe Illustrator 25.2.3, SVG Export Plug-In . SVG Version: 6.00 Build 0)  -->
<svg version="1.1" id="Layer_1" xmlns="http://www.w3.org/2000/svg" xmlns:xlink="http://www.w3.org/1999/xlink" x="0px" y="0px"
	 viewBox="0 0 576 576" enable-background="new 0 0 576 576" xml:space="preserve">
<g>
	<g>
		<defs>
			<path id="SVGID_1_" d="M576.13,288c0,159.06-128.94,288-288,288C129.08,576,0.13,447.06,0.13,288S129.08,0,288.13,0
				C447.19,0,576.13,128.94,576.13,288z"/>
		</defs>
		<use xlink:href="#SVGID_1_"  overflow="visible" fill="#F9E3D9"/>
		<clipPath id="SVGID_2_">
			<use xlink:href="#SVGID_1_"  overflow="visible"/>
		</clipPath>
		<g clip-path="url(#SVGID_2_)">
			<path fill="#EBECE8" d="M224.67,689.48c-1.47-19.39-4.49-39.5-8.78-60.08c-0.01-0.15-0.27-1.07-0.29-1.22
				c-4.05-19.06-12.84-36.69-23.36-53.09l-16.15-21.93c0,0-0.32,0.41-0.56,0.75c-2.96,5.12-45.82,47.94-60.12,135.57H224.67z"/>
			<path fill="#F8A184" d="M51.55,689.48c-4.87-6.28-9.74-12.51-14.58-18.61c-14.22-17.93-43.52-44.33-53.97-50.77
				c-18.98-11.7-21.93,10.05-21.93,10.05s3.55,21.27,21.98,59.33H51.55z"/>
			<g>
				<path fill="#F8A184" d="M26.3,597.33c10.12,29.42,1.16,59.8-3.38,64.04s-36.75,25.32-36.75,25.32s-46.41-19.58-50.29-27.01
					c-3.89-7.42-3.94-10.94-3.94-10.94s-9.35-24.67-2.22-33.73c2.73-3.46,5.31-4.86,7.48-5.27c1.77-0.34,3.25-0.02,4.28,0.38
					c0.32-2.74,1.08-5.19,2.51-7.01c3-3.81,5.85-5.13,8.13-5.38c1.48-0.15,2.72,0.14,3.62,0.49c0.32-2.75,1.07-5.2,2.51-7.01
					c2.3-2.92,4.5-4.38,6.44-5.01c1.76-0.57,3.29-0.46,4.47-0.15c0.37-2.29,1.1-4.33,2.34-5.89c7.13-9.06,13.34-4.03,13.34-4.03
					l9.1,26.63c1.53-0.44,15.13,12.46,16.23,10.12C14.49,603.62,23.34,588.74,26.3,597.33z"/>
				<path fill="#D78A70" d="M-58.53,610.13c-1.03-0.4-2.51-0.73-4.28-0.38l7.07,30.82L-58.53,610.13z"/>
				<path fill="#D78A70" d="M-44.26,598.23c-0.9-0.35-2.14-0.64-3.62-0.49l7.51,30.68L-44.26,598.23z"/>
				<path fill="#D78A70" d="M-30.85,586.05c-1.18-0.31-2.71-0.42-4.47,0.15l10.79,30.66L-30.85,586.05z"/>
			</g>
			<g>
				<path fill="#E39440" d="M661.68,15.26L377.43,286.95c-1.14,0.92-112.56,87.44-158,127.38
					c-45.5,39.93-272.11,260.02-274.39,262.25l-0.4,0.37l-11.52-12.05c32.45-31.48,232.51-225.38,275.26-262.97
					c46.31-40.76,159.66-129.12,160.82-130.07L658.95-5.07c1.86-1.78,3.28-3.83,4.3-6.01C669.65-3.31,669.09,8.19,661.68,15.26z"/>
				<path fill="#FFD17B" d="M-69.45,657.17l-4.21-4.4c-1.15-1.2-2.09-3.09-3.55-3.71c31.3-29.51,233.39-219.85,272.27-260.22
					c41.91-43.62,133.42-150.99,134.33-152.09L613.67-34.97c7.71-7.37,19.91-7.09,27.28,0.5c-5.9-1.13-12.31,0.52-16.98,4.99
					L339.64,242.27c-0.87,1.06-92.38,108.43-134.32,152.08C165.57,435.67-45.8,634.91-69.45,657.17z"/>
				<path fill="#FEBE46" d="M658.95-5.07L369.2,271.86c-1.17,0.95-114.51,89.31-160.82,130.07
					C167.46,437.89-17.51,617.02-61.81,659.95c-0.87,0.89-1.71,1.69-2.49,2.44l-0.09,0.08c-0.9,0.92-1.74,1.72-2.49,2.44
					l-12.85-13.43l2.52-2.41c0.57-0.48-0.75,0.72,0,0c1.45,0.62,2.4,2.51,3.55,3.71l4.21,4.4
					c23.65-22.26,235.02-221.5,274.78-262.82c41.94-43.65,133.45-151.02,134.32-152.08L623.97-29.48
					c4.68-4.47,11.08-6.12,16.98-4.99l21.35,22.34c0.32,0.33,0.66,0.69,0.95,1.05C662.23-8.9,660.81-6.85,658.95-5.07z"/>
				<path fill="#E39440" d="M-45.15,689.48c0.43-3.72-0.68-7.59-3.47-10.52l-12.01-12.57c4.99,5.22,4.8,13.49-0.42,18.48
					c-5.22,4.99-13.49,4.8-18.48-0.42l4.81,5.03H-45.15z"/>
				<path fill="#FEBE46" d="M-61.05,684.87c-5.22,4.99-13.49,4.8-18.48-0.42l-20.92-21.89c-4.99-5.22-4.83-13.52,0.39-18.51
					c5.22-4.98,13.52-4.77,18.5,0.45l20.93,21.89C-55.65,671.62-55.84,679.88-61.05,684.87z"/>
			</g>
			<path fill="#AE2528" d="M125.29,255.04c0,0,13.27,126.55,59.23,118.45c49.32-8.68,33.62-143.45,33.62-143.45L125.29,255.04z"/>
			
				<rect x="266.63" y="412.54" transform="matrix(-0.9917 0.1288 -0.1288 -0.9917 681.8474 905.303)" fill="#F8A184" width="90.03" height="124.34"/>
			<g>
				<path fill="#F8A184" d="M179.45,121.08c43.72-52.02,117.63-61.62,173.19-22.5c53.46,37.64,71.91,104.38,77.43,158.93
					c8,49.54,1.03,111.9-41.53,158.22c-44.22,48.14-112.71,58.82-167.76,23.58c-52.98-33.92-70.68-94.87-75.6-144.8
					C136.59,240.37,137.38,171.13,179.45,121.08z"/>
				<path fill="#F47A4E" d="M239.12,318.64l-30.17,3.92C208.95,322.57,224.6,348.09,239.12,318.64z"/>
				<path fill="#834A4C" d="M180.81,236.18l0.73,14.82c0,0-15.28-2-35.42,7.48l-1.95-9.21
					C144.16,249.27,165.07,234.69,180.81,236.18z"/>
				<path fill="#834A4C" d="M285.08,222.64l3.08,14.52c0,0,14.26-5.84,36.16-1.82l-0.47-9.4
					C323.84,225.94,299.91,217.18,285.08,222.64z"/>
				<g>
					<path fill="#68423E" d="M252.23,410.73c29.81-3.64,47.02-34.76,44.02-41.16c-1.45-3.57-7-1.28-15.43,2.28
						c-8.37,3.51-19.6,8.25-32.38,9.68c-14.6,2.18-28.28-0.42-37.53-1.59c-6.92-0.9-11.34-1.05-11.75,2.24
						C197.9,389.14,222.48,414.83,252.23,410.73z"/>
					<path fill="#FFFCFD" d="M210.91,379.93l5.37,17.74c31.92,11.73,65.31-9.16,65.31-9.16l-0.77-16.67
						c-8.37,3.51-19.6,8.25-32.38,9.68C233.84,383.71,220.16,381.11,210.91,379.93z"/>
				</g>
			</g>
			<path fill="#EBECE8" d="M486.3,689.48c-2.32-58.2-6.54-110.62-13.54-145.98c-7.68-38.79-56.79-55.4-95.53-63.23
				c-3.94-0.79-7.86-1.42-11.87-1.88c-3.71,16.98-18.3,65.25-64.9,65.49c-14.57,0.08-28.2-7.85-34.47-20.99
				c-3.09-6.55-5.87-15.17-7.62-26.71c-42.32,17.69-76.46,44.48-87.64,65.39c-23.1,43.2-28.01,86.78-23.42,127.92H486.3z"/>
			<path fill="#68423E" d="M309.06,254.97c7.84-1.01,15.02,4.51,16.04,12.35l2.44,18.8c1.02,7.84-4.51,15.02-12.35,16.04
				c-7.84,1.01-15.02-4.51-16.04-12.35l-2.44-18.8C295.69,263.18,301.22,255.99,309.06,254.97z"/>
			<path fill="#68423E" d="M162.36,274.03c7.85-1.01,15.02,4.51,16.04,12.35l2.44,18.8c1.02,7.85-4.51,15.03-12.35,16.04
				c-7.84,1.02-15.02-4.51-16.04-12.35l-2.44-18.8C148.98,282.23,154.52,275.05,162.36,274.03z"/>
			<path fill="#F8A184" d="M267.49,492.55c1.38,11.8,3.99,20.39,6.98,26.59c5.15,10.9,16.43,17.43,28.45,17.37
				c46.71-0.25,54.5-58.91,54.5-58.91c-30.05-2.07-61.2,4.16-89.35,14.72L267.49,492.55z"/>
			<path fill="#C1282D" d="M258.37,496.17c1.75,11.55,4.53,20.16,7.62,26.71c6.27,13.14,19.91,21.07,34.47,20.99
				c46.61-0.24,61.19-48.52,64.9-65.49c-2.64-0.33-5.26-0.57-7.93-0.79c0,0-7.79,58.65-54.5,58.91
				c-12.03,0.06-23.3-6.47-28.45-17.37c-2.99-6.2-5.61-14.79-6.98-26.59C264.42,493.67,261.37,494.9,258.37,496.17z"/>
			<path fill="#AE2528" d="M163.4,106.13c2.86-1.52,5.79-2.99,8.87-4.37c16.71-7.57,36.79-13.13,60.83-15.79
				c160.77-24.04,181.02,124.3,183.21,147.21l0.1-0.02c0,0,13.28,65.88-1.31,102.12c2.09,0.14,4.31,0.01,6.59-0.39
				c49.36-8.64,25.97-124.77,25.97-124.77l-0.1,0.01c-2.15-22.91-22.45-171.25-183.22-147.2c-24.04,2.66-44.07,8.22-60.83,15.78
				C187.16,86.12,173.96,95.57,163.4,106.13z"/>
			<path fill="#C1282D" d="M125.31,255.04l24.52,2.21l34.86,3.2c53-14.51,106.98-23.13,161.63-25.76c3.35-0.18,6.72-0.25,10.02-0.37
				c3.28,16.07,21.58,98.26,58.77,100.96c14.59-36.24,1.31-102.12,1.31-102.12l-0.1,0.02c-2.2-22.91-22.45-171.25-183.21-147.21
				c-24.04,2.66-44.12,8.22-60.83,15.79c-3.09,1.38-6.01,2.85-8.87,4.37C106.25,163.46,125.31,255.04,125.31,255.04z"/>
			<path fill="#AE2528" d="M356.1,233.61c0,0-133.38-6.91-230.81,21.43c0,0-19.82,16.57-8.37,24.89
				C129.97,289.41,263.08,276.84,356.1,233.61z"/>
			<g>
				<path fill="#751B16" d="M415.87,294.03c1.18,0.27,2.36,0.27,3.59,0.1c11.33-1.47,18.52-18.33,16.01-37.67
					c-2.51-19.34-13.78-33.8-25.1-32.32c-1.23,0.16-2.38,0.46-3.45,1.02c10.06,1.55,19.27,14.93,21.52,32.22
					C430.68,274.67,425.2,289.96,415.87,294.03z"/>
				<path fill="#922220" d="M394.36,261.81c2.25,17.3,11.51,30.67,21.52,32.22c9.33-4.07,14.81-19.35,12.57-36.65
					c-2.25-17.3-11.46-30.68-21.52-32.22C397.65,229.22,392.11,244.51,394.36,261.81z"/>
			</g>
			<g>
				<path fill="#C1282D" d="M341.14,689.48l-41.01-34.79c-13.85,14.01-24.13,25.45-31.84,34.79H341.14z"/>
			</g>
			<polygon fill="#F8A184" points="199.14,689.48 89.62,605.3 63.59,649.38 117.48,689.48 			"/>
			<path fill="#F8A184" d="M-71.68,637.82c0,0,7.74,23.57,14.58,15.94c6.84-7.64,0.44-23.23,0.44-23.23s7.81,22.34,14.57,11.79
				c6.75-10.54-1.08-25.35-1.08-25.35s11.46,18.78,15.13,9.84c3.66-8.94-1.65-23.49-1.65-23.49L-71.68,637.82z"/>
			<path fill="#CCCDCA" d="M423.42,689.48c42.42-48.41,99.22-129.45,41.51-164.77c-64.89-39.72-162.92,128.22-164.8,129.98
				l41.01,34.79H423.42z"/>
			<path fill="#CCCCCC" d="M-18.13,689.48h30.4l24.7-18.61L26.6,657.69c0,0,11.5-36.62,4.33-44.63s-17.73,0-17.73,0l-61.51,57.06
				c0,0,13.7,10.28,28.99,14.36C-19.32,684.48-19.15,686.37-18.13,689.48z"/>
			<polygon fill="#236490" points="20.49,689.48 40.08,674.8 32.28,664.9 -0.89,689.48 			"/>
			<g>
				<path fill="#F8A184" d="M-27.73,566.87c-2.44-0.92-4.81-0.26-6.29,4.08c-0.58,1.71-0.73,3.62-0.55,5.63
					c0.27,2.75,1.11,5.7,2.29,8.63c-0.97,0.37-1.92,1.08-2.83,2.21c-7.87,9.9,21.84,45.81,23.93,46.88
					c18.6,9.58,74.76,15.08,74.76,15.08l26.03-44.07c-1.41-2.94-24.29-45.92-24.29-45.92l-10.01,17.26c0,0-37.35-5.12-47.93-27.43
					c-7.85-16.55-18.76-15.8-23.55-10.17c-1.67,1.96-2.6,4.51-2.39,7.12c0.12,1.58,0.78,3.55,1.8,5.75
					c-2.34-1.45-4.59-1.95-6.6-0.98c-3.31,1.6-5.15,4.04-5.68,7.12C-29.47,560.59-29.01,563.57-27.73,566.87z"/>
				<path fill="#D78A70" d="M-18.55,546.16c0.12,1.58,0.78,3.55,1.8,5.75L3.2,578.77c-0.57-1.03-16.58-30.49-19.36-39.73
					C-17.83,541-18.76,543.55-18.55,546.16z"/>
				<path fill="#D78A70" d="M-29.03,558.05c-0.44,2.53,0.02,5.51,1.3,8.82l22.84,27.54L-29.03,558.05z"/>
				<path fill="#D78A70" d="M-34.56,576.58c0.27,2.75,1.11,5.7,2.29,8.63l21.4,24.21C-11.49,608.55-26.82,587.05-34.56,576.58z"/>
			</g>
			<path fill="#CCCCCC" d="M89.96,605.64l-26.38,43.74c0,0-62.53-3.54-74.75-15.09c-3.47-3.27-5.9-5.84-7.6-7.79
				c-0.69-3.73-2.41-17.06,7.9-19.1c0-0.35,0.05-12.22,5.99-12.98c0,0-1.39-14.8,10-15.65c0,0,2.58-16.24,14.76-16.04
				c7.16,4.6,21.14,12.83,29.58,12.81l15.84-16.15L89.96,605.64z"/>
			<path fill="#2F86C0" d="M69.52,645.2c0,0-58.97-5.97-42.15-24.06c16.82-18.08,59.01-2.17,59.01-2.17L69.52,645.2z"/>
			<polygon fill="#2DA9E1" points="89.83,604.95 63.59,649.38 76.6,659.06 104.65,616.86 			"/>
			<path fill="#236490" d="M63.59,649.38l12.05-20.39c0,0,6.53-7.64,12.15-1.42s1.84,11.91,1.84,11.91L76.6,659.06L63.59,649.38z"/>
			<g>
				<path fill="#CBCFCF" d="M81.42,629.8c0.42-0.18,0.88-0.27,1.35-0.27c1.99,0,3.61,1.62,3.61,3.63c0,2-1.62,3.62-3.61,3.62
					c-0.16,0-0.33-0.02-0.49-0.04c1.35-0.51,2.3-1.83,2.3-3.35C84.57,631.55,83.19,630.02,81.42,629.8z"/>
				<path fill="#EDF0F1" d="M79.14,633.16c0-1.53,0.95-2.85,2.27-3.36c1.77,0.22,3.16,1.75,3.16,3.59c0,1.53-0.95,2.84-2.3,3.35
					C80.51,636.51,79.14,635,79.14,633.16z"/>
			</g>
			<path fill="#2F86C0" d="M19.89,562.72c-12.18-0.19-14.76,16.04-14.76,16.04c-11.39,0.84-10,15.65-10,15.65
				c-5.95,0.76-5.99,12.63-5.99,12.98c-10.31,2.04-8.59,15.37-7.9,19.1c-4.3-4.98-3.95-6.25-3.95-6.25s-3.54-12.13,7.49-16.91
				c0,0-4.19-9.36,6.14-14c0,0-0.69-13.17,9.29-14.61c0,0,2.47-15.63,15.17-15.04C15.38,559.68,17.11,560.93,19.89,562.72z"/>
		</g>
	</g>
</g>
</svg>
