<?xml version="1.0" encoding="utf-8"?>
<!-- Generator: Adobe Illustrator 25.2.3, SVG Export Plug-In . SVG Version: 6.00 Build 0)  -->
<svg version="1.1" id="Layer_1" xmlns="http://www.w3.org/2000/svg" xmlns:xlink="http://www.w3.org/1999/xlink" x="0px" y="0px"
	 viewBox="0 0 576 576" enable-background="new 0 0 576 576" xml:space="preserve">
<g>
	<g>
		<defs>
			<circle id="SVGID_1_" cx="288.07" cy="287.93" r="288.07"/>
		</defs>
		<use xlink:href="#SVGID_1_"  overflow="visible" fill="#F9E3D9"/>
		<clipPath id="SVGID_2_">
			<use xlink:href="#SVGID_1_"  overflow="visible"/>
		</clipPath>
		<g clip-path="url(#SVGID_2_)">
			<g>
				<path fill="#F89A5F" d="M237.33,583.39h93.1c21.74-13.8,43.58-32.6,62.01-51.46c5.02-0.59,18.55-2.23,19.78-2.63
					c1.51-0.51,0.67-8.05,0.67-8.05s-14.26-9.73-15.6-10.24c-0.56-0.21-8.07-1.6-16.71-3.21c-17.54-21.3-27.13-63.27-30.74-120.52
					c-21.87-2.01-56.61,50.18-87.47,58.01c1.92,9.16,2.95,20.33,1.51,32.78c-0.68,5.55-2.98,12.12-6.61,16.47
					c-6.72,8.16-14.37,14.17-22.95,20.25c-3.15,2.27-6.44,4.35-9.94,6.22c0,14.92,1.23,27.49,3.63,37.93
					C230.27,568.97,233.49,576.89,237.33,583.39z"/>
				<path fill="#D15E2C" d="M444.63,326.64c0,0,59.81,42.11,27.53,130.79c-32.28,88.68-44.14,63.89-50.51,95.69
					c0,0-41.2-43.1-44.63-104.13c-3.43-61.03,16.6-76.28,21.86-99.6C404.13,326.07,444.63,326.64,444.63,326.64z"/>
				<path fill="#248FC6" d="M440.06,306c1.6,0.83,31.46,10.94,3.66,51.21c-27.8,40.26-70.48,9-71.7-5.17
					C371.58,346.81,413.29,291.93,440.06,306z"/>
				<path fill="#F89A5F" d="M353.01,358.19c0,0-10.08,71.11-8.71,92.3c2.06,31.99-48.85,34.25-71.32,33.03
					c-6.6-0.35-8.29-1.73-7.69-8.31l2.27-64.69L353.01,358.19z"/>
				<path fill="#F79150" d="M354.01,353.97c-31.43,71.57-90.4,99.68-117.25,111.89c6.15,0.41,12.05,0.07,16.14-1.22
					c24.95-7.88,72.98-32.41,128.85-109.04c82.1-112.5,68.6-212.57,7.34-262.03c-50.95-41.13-110.04-46.83-159.28-30.03
					c41.25-4.91,85.83,6.71,127.92,37.16C425.12,149.52,404.77,238.33,354.01,353.97z"/>
				<path fill="#F6B185" d="M120.64,266.88c0,0,12.28,14.76,12.56,55.44c0.22,31.43,6.55,83.3,78.64,137.27
					c5.22,3.91,15.59,5.64,24.92,6.27c26.85-12.21,78.41-33.34,113.62-103.13c54.79-108.6,74.73-213.21,7.34-262.03
					c-42.09-30.45-86.67-42.07-127.92-37.16c-13.35,4.6-26.11,11-38.07,19.17C191.74,82.71,95.03,141.59,120.64,266.88z"/>
				<path fill="#FFFCFD" d="M188.4,400.73c2.54,7.2,9.67,16.94,13.21,24.43c0.77-0.59,1.75-1.07,2.63-1.5
					c1.54-0.69,2.88-1.16,2.88-1.16c56.65-12.68,49.72-43.39,49.72-43.39c-1.7,6.74-40.14,26.01-63.65,22.47
					C191.41,401.33,189.83,401.03,188.4,400.73z"/>
				<path fill="#EF804E" d="M176.12,393.97c-0.02,1.1,0.95,4.37,12.28,6.76c1.43,0.3,3.01,0.6,4.79,0.85
					c23.51,3.54,61.95-15.74,63.65-22.47c0,0,3.36,30.66-53.3,43.35c0,0-1.33,0.47-2.88,1.16c-0.87,0.43-1.85,0.91-2.63,1.5
					c-1.35,0.91-2.08,2.06-1.08,3.12c0.25,0.28,1.22,0.3,2.71,0.1c1.28-0.25,2.97-0.61,4.97-1.18c1.28-0.36,2.67-0.83,4.21-1.36
					c21.1-7.07,47.71-17.69,50.33-49.46c0,0-1.09,1.36-3.42,3.41c-7.77,6.7-29.19,20.7-68.49,15.51c-0.2,0-0.45-0.01-0.71-0.07
					c-0.11,0-0.26-0.06-0.41-0.06c-0.97-0.13-1.99-0.26-3-0.44c-4.03-0.62-5.04-0.58-5.05-0.41c-0.45-0.17-1.06-0.41-1.92-0.7
					C176.18,393.58,176.13,393.69,176.12,393.97z"/>
				<path fill="#EF804E" d="M181.4,284.88c0,0,4.33,35.81-5.15,51.27c-9.48,15.46-8.19,27.56,5.85,29.88
					c14.04,2.32,21.41-3.48,21.41-3.48s-26.79,4.12-28.2-8.63C173.91,341.17,188.77,325.45,181.4,284.88z"/>
				<path fill="#EF804E" d="M209.25,345.42c0,0,14.51,5.16,10.99,13.4c-3.51,8.24-11.47,0.77-16.73,3.73c0,0,6.2-4.25,9.71-2.96
					C216.73,360.87,222.12,353.92,209.25,345.42z"/>
				<g>
					<path fill="#D15E2C" d="M174.4,262.65c-14.19-7.98-34.47-11.62-48.13,4.93c-4.22,5.1-9.3-4.56-5.04-9.73
						c16.26-19.69,38.76-17.63,55.99-7.94C181.94,252.57,179.15,265.33,174.4,262.65L174.4,262.65z"/>
				</g>
				<g>
					<path fill="#D15E2C" d="M286.64,263.99c-22.42-18.23-47.04-20.48-69.62-6.5c-5.14,3.19-8.39-8.9-3.29-12.06
						c24.48-15.16,52.22-12.47,76.52,7.28C295.33,256.84,291.76,268.16,286.64,263.99L286.64,263.99z"/>
				</g>
				<path fill="#D15E2C" d="M450.78,230.36c-1.33,73.56-53.87,116.33-52.31,68.37c1.13-33.94-12.96-5.23-40.63-20.29
					c-11.43-6.28-25.21-20.01-41.19-48.76c-3.14-5.68-5.76-11.44-7.89-17.08c-9.86-25.89-9.9-48.92-9.9-49.41
					c-49.77-2.82-115.12,62.7-115.12,62.7c-2.02-22.11,28.55-64.63,28.55-64.63c-95.11,14.21-95.76,126.8-95.76,126.8
					s-32.58-75.01-17.19-124.87c17.48-56.61,36.52-103.24,174.27-110.45c52.43-2.74,96.12,18.65,127,51.3
					c22.99,24.32,38.9,54.93,46.03,86.49C449.58,203.78,451.02,217.19,450.78,230.36z"/>
				<g>
					<path fill="#F79150" d="M381.61,339c1.25,1.88,2.75,3.47,4.44,4.77c2.57-3.32,6.36-5.69,10.57-6.69
						c-3.03-1.77-6.32-4.01-6.44-4.22c-0.03-0.08,0.17-0.26,0.49-0.47C387.17,333.93,384.09,336.15,381.61,339z"/>
					<g>
						<path fill="#F79150" d="M382.16,339.5c2.08-2.4,4.67-4.25,7.6-5.54c-0.26,0.17-0.43,0.33-0.41,0.39
							c0.09,0.17,2.85,2.05,5.39,3.54c-3.52,0.83-6.7,2.82-8.86,5.6c3.91,2.97,9.35,3.95,16.65,2.18c2.77-0.69,5.37-1.76,7.69-3.17
							c1.58-0.92,3.05-2.02,4.43-3.22c18.81-16.39,20.62-56.28,7.6-71.36C406.78,250.09,382,282.1,382,282.1
							C376.74,303.56,374.41,327.81,382.16,339.5z"/>
						<path fill="#F37021" d="M413.33,289.57c-18.07-2.29-26.33,18.72-20.15,32.71c6.18,14,17.85,1.37,17.85,1.37
							s-16.06,7.57-15.98-12.16c0.01-3.26,0.55-5.99,1.39-8.36c0.03,0.28,0.03,0.51,0.07,0.81c1.01,6.84,16.44,0.32,16.44,0.32
							c-10.77,1.16-13.37-3.85-14-6.04C404.32,290.69,413.33,289.57,413.33,289.57z"/>
					</g>
				</g>
				<g>
					<path fill="#FFFFFF" d="M282.56,285.88c-3.21,12.79-17.47,25.61-33.8,26.99c-16.33,1.38-33.51-17.65-33.51-17.65l7.09-7.28
						c6.94-7.3,16.04-12.32,26.01-13.23C270.2,272.66,282.56,285.88,282.56,285.88z"/>
					<g>
						<g>
							<path fill="#894634" d="M235.28,288.36c-1.25,9.81,5.68,18.77,15.49,20.02c9.81,1.25,18.76-5.69,20.02-15.49
								c1.25-9.81-5.68-18.77-15.49-20.02C245.5,271.62,236.54,278.55,235.28,288.36z"/>
							<path fill="#704338" d="M246.14,291.26c-0.53,4.12,2.38,7.89,6.51,8.41c4.12,0.53,7.89-2.38,8.41-6.51
								c0.53-4.12-2.38-7.89-6.51-8.41C250.43,284.23,246.66,287.14,246.14,291.26z"/>
						</g>
						<path opacity="0.7" fill="#EDEEEE" d="M230.1,295.08c-0.5,3.88,2.25,7.43,6.13,7.93c3.88,0.49,7.43-2.25,7.93-6.14
							c0.49-3.88-2.25-7.43-6.14-7.93C234.15,288.45,230.59,291.19,230.1,295.08z"/>
					</g>
					<path fill="#62351E" d="M288.66,278.22l-6.1,7.66c0,0-12.37-13.23-34.2-11.17c-9.98,0.91-19.08,5.93-26.01,13.23l-7.09,7.28
						C215.26,295.22,230.45,251.88,288.66,278.22z"/>
				</g>
				<g>
					<path fill="#FFFFFF" d="M129.8,288.36c3.1,11.57,16.12,22.74,27.41,23.52c11.28,0.77,19.37-17,19.37-17l-5.37-6.43
						c-5.27-6.44-11.87-10.76-18.76-11.29C137.33,275.92,129.8,288.36,129.8,288.36z"/>
					<g>
						<g>
							<path fill="#894634" d="M170.02,289.97c1.46,8.44-2.72,16.44-9.35,17.86c-6.63,1.43-13.19-4.26-14.67-12.71
								c-1.46-8.44,2.73-16.44,9.35-17.86C161.99,275.84,168.55,281.52,170.02,289.97z"/>
							<path fill="#704338" d="M162.77,292.86c0.62,3.55-1.14,6.91-3.93,7.51c-2.79,0.6-5.55-1.79-6.17-5.34
								c-0.61-3.55,1.15-6.91,3.93-7.51C159.4,286.92,162.16,289.31,162.77,292.86z"/>
						</g>
						<path opacity="0.7" fill="#EDEEEE" d="M173.99,295.6c0.58,3.35-1.08,6.52-3.71,7.08c-2.62,0.56-5.23-1.69-5.81-5.03
							c-0.58-3.35,1.08-6.52,3.7-7.08C170.81,290,173.41,292.26,173.99,295.6z"/>
					</g>
					<path fill="#62351E" d="M125.08,281.55l4.73,6.81c0,0,7.53-12.44,22.64-11.2c6.9,0.53,13.49,4.85,18.76,11.29l5.37,6.43
						C176.58,294.88,163.08,255.8,125.08,281.55z"/>
				</g>
			</g>
			<path fill="#248FC6" d="M538.89,583.39c-2.32-6.55-4.33-14.5-9.79-19.14c-89.79-31.73-165.03-87.81-165.03-87.81
				c-6.56,6.36-27.15,24.78-50.33,33.22c-35.42,12.9-48.91,5.02-51.13,1.44c-1.65-2.7-4.07-10.59-6-17.15
				c-3.59,3.66-8.13,7.37-13.49,11.03c-11.36,8.01-103.13,48.08-105.42,58.1c-0.08,0.24-0.08,0.48-0.04,0.68
				c0.9,3.58,1.66,10.42,2.31,19.62H538.89z"/>
			<path opacity="0.15" fill="#FFFFFF" d="M446.64,190.53c-32.9,13.29-68.13,58.18-88.79,87.9c-11.43-6.28-25.21-20.01-41.19-48.76
				c-3.14-5.68-5.76-11.44-7.89-17.08c54.24-11.6,80.86-73.24,91.85-108.56C423.8,122.52,439.51,158.97,446.64,190.53z"/>
			<path opacity="0.15" fill="#FFFFFF" d="M122.93,153.83c-7.43,19.11-13.1,46.13-11.19,83.02c0,0,22.82-101.34,120.79-110.73
				c0,0-11.76-12.04-35.09-15.86C165.59,105.04,134.63,123.74,122.93,153.83z"/>
		</g>
	</g>
</g>
</svg>
