<?xml version="1.0" encoding="utf-8"?>
<!-- Generator: Adobe Illustrator 25.2.3, SVG Export Plug-In . SVG Version: 6.00 Build 0)  -->
<svg version="1.1" id="Layer_1" xmlns="http://www.w3.org/2000/svg" xmlns:xlink="http://www.w3.org/1999/xlink" x="0px" y="0px"
	 viewBox="0 0 576 576" enable-background="new 0 0 576 576" xml:space="preserve">
<g>
	<g>
		<defs>
			<path id="SVGID_1_" d="M576,287.79c0,159.05-128.93,287.97-287.98,287.97S0.05,446.84,0.05,287.79S128.98-0.18,288.02-0.18
				S576,128.75,576,287.79z"/>
		</defs>
		<use xlink:href="#SVGID_1_"  overflow="visible" fill="#F9E3D9"/>
		<clipPath id="SVGID_2_">
			<use xlink:href="#SVGID_1_"  overflow="visible"/>
		</clipPath>
		<g clip-path="url(#SVGID_2_)">
			<g>
				<path fill="#734339" d="M361.58,82.72c0,0,20.87-92.77-50.33-75.93c-79.05,18.71-71.08,164.99-71.08,164.99
					s53.58-119.66,80.12-128.57C346.81,34.31,361.58,82.72,361.58,82.72z"/>
				<path fill="#734339" d="M347.91,76.02c0,0,23.21-92.11-16.17-66.43c-43.72,28.51-58.99,168.35-58.99,168.35
					S316.6,55.57,331.62,43.47c5.19-4.18,3.41,11.28,5.83,16.47C342.04,69.76,347.91,76.02,347.91,76.02z"/>
				<path fill="#734339" d="M349.01,90.75c0,0,11.6-94.37,72.96-54.52c68.13,44.24,11.33,179.29,11.33,179.29
					S423.17,84.8,401.2,67.47C379.23,50.14,349.01,90.75,349.01,90.75z"/>
				<path fill="#734339" d="M344.45,76.48c0,0,13-94.13,51.06-54.64c42.26,43.83-2.76,178.68-2.76,178.68s0.78-130.27-12.68-147.45
					c-5.98-7.64-13.54,9.77-20.26,16.33C351.43,77.6,344.45,76.48,344.45,76.48z"/>
				<path fill="#734339" d="M348.61,63.85c0,0,44.96-51.39,13.11-60.38C330.53-5.33,335.97,51.12,348.61,63.85z"/>
			</g>
			<path fill="#F8A184" d="M181.64,729.43c2.58-14.82,5.06-28.73,7.29-39.76c3.52-17.3,6.48-35.51,8.48-54.28c0,0,0,0,0-0.05
				c3.09-28.69,3.91-58.62,1.05-88.27c-1.96-20.06-5.58-39.98-11.35-59.33c-1.19-4-2.9-7.77-5.24-9.16
				c-0.24-0.14-0.48-0.29-0.71-0.38c-2.76-1.05-6.58-1.66-11.01-0.52c-0.05,0-0.1,0.05-0.1,0.05c-0.62,0.14-1.23,0.38-1.9,0.62
				c-4.77,1.76-10.1,5.67-15.49,13.1c-0.29,0.29-0.57,0.62-0.76,0.96c-4.24,6.05-8.53,14.3-12.63,25.45c-0.19,0.48-0.38,1-0.57,1.53
				c-7.63,21.2-14.63,57.72-20.63,97.84c-0.19,1.33-0.39,2.67-0.62,4.05c-0.43,3.09-0.9,6.24-1.33,9.44
				c-4.16,29.22-7.76,64.72-10.73,98.71H181.64z"/>
			<path fill="#F8A184" d="M267.45,505.1L267.45,505.1c15.13,0,27.4-12.27,27.4-27.41v-87.77h-54.81v87.77
				C240.05,492.83,252.31,505.1,267.45,505.1z"/>
			<path fill="#F8A184" d="M363.63,601.13c7.46-4.33,15.43-9.66,23.39-15.43c2.89-12.87,4.26-21.2,4.26-23.4
				c0,0,8.41-31.11-8.03-58.59c-0.06-0.12-0.19-0.25-0.19-0.38c-1.57-2.51-3.32-5.02-5.26-7.47c-0.12-0.12-0.19-0.25-0.31-0.37
				c-1.2-1.44-2.45-2.83-3.83-4.2c0,0-0.13-0.07-0.13-0.12c-0.56-0.63-8.34-5.84-13.98-9.22c-0.88-0.5-1.7-1.01-2.51-1.45
				c-1.88-1.19-3.57-2.19-4.7-2.89c-5.02-3.01-10.42-5.58-16.06-7.65c-0.06,0-0.12-0.06-0.19-0.06c-2.33-0.88-4.71-1.63-7.15-2.38
				c-3.01-0.94-6.02-1.76-9.16-2.38c-7.97-1.88-16.38-3.07-24.91-3.64c-7.65-0.57-29.66-2.51-54.83-0.94
				c-18.06,1.07-37.75,3.95-55.01,10.29c-4.33,1.63-8.53,3.39-12.48,5.58c-0.81,0.38-1.63,0.82-2.38,1.25
				c-0.06,0-0.13,0.07-0.13,0.07c-0.75,0.44-1.44,0.87-2.2,1.25c-5.77,3.51-10.92,7.59-15.18,12.48c-0.31,0.25-0.57,0.63-0.75,0.94
				c-1.19,1.26-2.25,2.64-3.26,4.08c-0.07,0-0.07,0.06-0.07,0.06c-0.81,1.19-1.63,2.44-2.32,3.64c-3.26,5.77-6.46,12.73-9.28,20.39
				c-6.02,15.93-11.04,34.81-14.87,51.56c-3.89,16.81-6.65,31.43-8.09,38.77c-0.38,2.19,3.07,0.94,2.95,2.5
				c-0.06,0.75,0.31,2.07,1.06,3.83c0.63,1.44,1.51,3.14,2.57,5.02c8.16,14.56,27.35,40.58,32.24,43.6
				c1.95,1.19,4.7,13.48,6.78,31.42c16.3-7.59,34.43-9.72,52.06-6.39c65.48,12.54,138,7.28,140.88,7.02
				c2.51-7.9,4.58-20.01,3.7-37.57v-0.12c-0.25-5.15-0.75-10.73-1.63-16.75h0.19V605.9c1.32-0.69,2.7-1.38,4.01-2.13l1.88-0.94
				C361.68,602.26,362.62,601.7,363.63,601.13z"/>
			<path fill="#F8A184" d="M449.84,729.43c-7.42-77.97-26.43-170.89-72.77-234.54c-2.71-3.73-6.79-6.43-11.38-6.91
				c-8.96-0.96-21.55,5.94-21.81,52.03c-0.19,35.03,14.11,115.85,28.8,189.41H449.84z"/>
			<path fill="#F47A4E" d="M154.2,251.63c-1.68-0.43-19.74-16.81-35.71,2.51c-15.97,19.33,1.26,68.08,13.87,73.12
				c12.61,5.04,23.11,1.26,24.37-2.1C157.99,321.8,154.2,251.63,154.2,251.63z"/>
			<path fill="#F8A184" d="M185.84,110.15c46.37-42.57,115.41-42.57,161.77,0c44.62,40.96,53.61,104.47,52.17,155.24
				c1.44,46.46-12.41,102.92-57.02,140.4c-46.37,38.94-110.56,40.59-156.93,1.64c-44.62-37.48-53.61-95.58-52.17-142.04
				C132.23,214.62,141.21,151.11,185.84,110.15z"/>
			<path fill="#F47A4E" d="M217.07,298.76h-28.18C188.89,298.76,200.22,324.07,217.07,298.76z"/>
			<path fill="#834A4C" d="M173.34,216.05l-1.09,13.7c0,0-13.8-3.67-33.44,2.64l-0.68-8.69C138.13,223.7,159.06,212.8,173.34,216.05
				z"/>
			<path fill="#834A4C" d="M270.74,216.05l1.1,13.7c0,0,13.8-3.67,33.43,2.64l0.69-8.69C305.96,223.7,285.02,212.8,270.74,216.05z"
				/>
			<g>
				<path fill="#68423E" d="M218.13,384.92c27.83,0.22,47.34-26.32,45.34-32.56c-0.9-3.45-6.27-2.01-14.44,0.26
					c-8.11,2.23-18.99,5.24-30.91,5.02c-13.67,0.26-25.92-3.76-34.28-5.94c-6.25-1.66-10.29-2.31-11.07,0.66
					C170.79,358.59,190.31,385.14,218.13,384.92z"/>
				<path fill="#FFFCFD" d="M183.85,351.7l2.82,16.94c27.92,14.58,61.08-0.63,61.08-0.63l1.28-15.39
					c-8.11,2.23-18.99,5.24-30.91,5.02C204.46,357.9,192.21,353.88,183.85,351.7z"/>
			</g>
			<path fill="#D0272B" d="M104.81,617.06c3.89,6.52,9.03,12.11,14.93,16.69c2.12,1.75,4.32,3.26,6.58,4.65
				c12.29,7.46,20.32,22.33,25.21,35.38c4.96,12.92,6.78,24.15,6.78,24.15c0.44-0.19,0.88-0.44,1.32-0.57v-0.07
				c16.3-7.59,34.43-9.72,52.06-6.39c65.48,12.54,138,7.28,140.88,7.02c0.06,0,0.06,0,0.06,0s8.59-16.56,2.2-65.05
				c-0.94-6.9-2.14-14.36-3.7-22.58c-5.64-1.32-10.54-4.46-14.55-9.72c-3.7,2.25-7.78,4.45-12.11,6.71
				c-3.33,1.75-6.9,3.52-10.61,5.21c-0.56,0.25-1.12,0.5-1.69,0.75c-8.29,19.95-15.3,32.8-15.3,32.8s-1.2-9.9-1.13-26.16
				c-2.13,0.88-4.33,1.64-6.59,2.33c-3.26,1.13-6.59,2.19-10.03,3.2c-2.57,0.75-5.15,1.44-7.84,2.13c-2.64,0.7-5.4,1.32-8.21,1.88
				c-0.94,0.25-1.88,0.44-2.83,0.62c-0.63,0.19-1.19,0.31-1.82,0.44h-0.06c-13.87,18.19-23.71,28.29-23.71,28.29s2-9.66,6.96-25.53
				c-0.57,0.06-1.19,0.12-1.75,0.18c-0.88,0.13-1.7,0.19-2.57,0.32c-1.13,0.18-2.26,0.25-3.45,0.38c-1.7,0.25-3.45,0.38-5.21,0.5
				c-2.33,0.25-4.7,0.44-7.09,0.51c-0.57,0-1.19,0.06-1.75,0.06c-2.2,0.13-4.39,0.25-6.65,0.25c-5.65,0.19-11.42,0.12-17.32-0.12
				h-0.38c-3.82-0.19-7.71-0.45-11.66-0.76c-2.26-0.19-4.57-0.37-6.9-0.69c-0.75-0.06-1.51-0.12-2.25-0.25
				c-1.83-0.19-3.7-0.44-5.58-0.7c-1.2-0.18-2.26-0.31-3.39-0.5c-2.32-0.31-4.64-0.69-6.96-1.12c-0.75-0.13-1.51-0.25-2.26-0.38
				c-2.76-0.5-5.52-1.01-8.28-1.63c-1.75-0.38-3.51-0.75-5.27-1.2c-3.01-0.57-6.02-1.32-9.09-2.13h-0.06
				c-4.08-1.07-8.16-2.2-12.23-3.45c-0.32-0.06-0.57-0.19-0.88-0.25c-1.82-0.56-3.63-1.13-5.39-1.69
				C111.77,619.51,108.26,618.32,104.81,617.06z"/>
			<path fill="#68423E" d="M288.93,248.62c7.32,0,13.26,5.94,13.26,13.26v17.56c0,7.33-5.94,13.26-13.26,13.26l0,0
				c-7.33,0-13.26-5.93-13.26-13.26v-17.56C275.66,254.56,281.6,248.62,288.93,248.62z"/>
			<path fill="#68423E" d="M151.88,248.62c7.32,0,13.26,5.94,13.26,13.26v17.56c0,7.33-5.93,13.26-13.26,13.26
				c-7.33,0-13.27-5.93-13.27-13.26v-17.56C138.61,254.56,144.55,248.62,151.88,248.62z"/>
			<path fill="#734339" d="M285.18,64.26c-9.35,17.09,8.45,44.84,39.77,61.99c31.32,17.14,64.29,17.19,73.64,0.09
				c9.36-17.09-8.44-44.84-39.76-61.99C327.52,47.21,294.55,47.17,285.18,64.26z"/>
			<path fill="#884E44" d="M399.16,275.21c0,0,43.55-124.5-75.37-185.75c-118.93-61.25-218.94,98.19-190.13,175.93
				c0,0-7.69-81.79,42.38-104.66C227.14,137.39,379.61,230.03,399.16,275.21z"/>
			<path fill="#884E44" d="M249.03,141.65c0,0,82.12,54.03,150.16,60.64c0,0-22.65-129.93-136.3-126.05
				c-120.75,4.12-130.1,137.15-130.1,137.15S196.35,206.33,249.03,141.65z"/>
			<path fill="#F47A4E" d="M375.16,268.46c-0.09-8.96,5.28-17.11,13.61-20.41c7.92-3.15,17.91-3.94,26.19,6.1
				c15.97,19.33-1.25,68.08-13.86,73.12c-12.61,5.04-19-0.08-21.68-2.47C374.96,320.86,375.35,287.68,375.16,268.46z"/>
			<path fill="#F15A55" d="M342.58,729.43c0.07-0.31,0.12-0.6,0.18-0.91c0.73-3.96,1.49-7.94,2.42-11.97
				c0.75-3.07,2.45-5.84,3.7-8.72c0.56-1.5,1.19-3.01,1.75-4.46c0.38-0.87,0.7-1.75,1.07-2.76c0.32-0.81,0.62-1.7,0.88-2.7
				c-2.89,0.25-75.39,5.52-140.88-7.02c-17.63-3.33-35.76-1.2-52.06,6.39v0.07c0.82,7.03,1.52,18.68,2.05,32.08H342.58z"/>
			<path fill="#F15A55" d="M326.36,573.72c-4.39,14.74-9.53,28.29-14.17,39.52c0.57-0.25,1.13-0.5,1.69-0.75
				c3.7-1.7,7.28-3.46,10.61-5.21c4.33-2.25,8.4-4.45,12.11-6.71c-3.39-4.46-6.15-10.48-8.16-18.25
				C327.68,579.37,326.99,576.54,326.36,573.72z"/>
			<path fill="#F15A55" d="M301.09,562.55c-14.5,28.29-30.24,51.37-42.66,67.87c0.63-0.13,1.19-0.25,1.82-0.38
				c0.94-0.19,1.88-0.37,2.83-0.62c2.76-0.57,5.52-1.19,8.21-1.88c2.7-0.69,5.27-1.38,7.84-2.13c3.44-1.01,6.77-2.07,10.03-3.2
				c2.25-0.75,4.46-1.51,6.59-2.33C295.81,605.09,296.94,585.07,301.09,562.55z"/>
			<path fill="#F15A55" d="M99.92,607.09c1.25,3.52,2.94,6.84,4.89,9.97c3.45,1.26,6.96,2.45,10.41,3.52
				c1.76,0.56,3.57,1.13,5.39,1.69c0.31,0.07,0.57,0.19,0.88,0.25c4.07,1.25,8.15,2.38,12.23,3.45h0.06
				c3.07,0.81,6.08,1.57,9.09,2.13c1.76,0.44,3.52,0.82,5.27,1.2c1.19,0.25,2.32,0.5,3.51,0.69c1.57,0.31,3.2,0.63,4.77,0.94
				c0.75,0.12,1.51,0.25,2.26,0.38c2.32,0.44,4.64,0.81,6.96,1.12c1.13,0.19,2.2,0.32,3.39,0.5c0.62,0.06,1.25,0.13,1.88,0.19
				c1.25,0.19,2.51,0.38,3.7,0.51c0.75,0.12,1.51,0.19,2.25,0.25c2.33,0.32,4.64,0.5,6.9,0.69c3.95,0.31,7.84,0.57,11.66,0.76h1.94
				c0.44,0,0.94,0.05,1.32,0.05c2.76,0.13,5.46,0.13,8.16,0.13c2.13,0,4.2,0,6.28-0.07c1.07,0,2.19-0.07,3.26-0.12
				c1.13,0,2.25-0.07,3.39-0.13c0.57,0,1.19-0.06,1.75-0.06c0.63,0,1.19-0.07,1.75-0.13c1.83-0.07,3.58-0.25,5.34-0.38
				c1.69-0.12,3.45-0.31,5.21-0.5c1.19-0.12,2.32-0.19,3.45-0.38c0.88-0.12,1.7-0.19,2.57-0.32c0.57-0.06,1.19-0.12,1.75-0.25
				c6.4-20.26,17.63-50.56,35.82-83.55c-34.5,33.69-67.24,50.24-67.24,50.24s19-36.38,49.43-71.7c-25.97,9.97-44.03,7.91-44.03,7.91
				s15.93-21.15,41.02-39.71c-26.1,11.48-56.7,23.02-84.68,28.85c-15.12,3.2-25.16,3.76-37.58,2.64
				c-3.63,2.38-10.22,7.84-13.04,11.29c-4.96,6.15-10.16,11.98-13.81,18.2C96.53,576.1,94.39,592.35,99.92,607.09z"/>
			<path fill="#6EBF57" d="M295.76,619.88c-0.06,16.25,1.13,26.16,1.13,26.16s7.02-12.85,15.3-32.8c-1.32,0.57-2.7,1.2-4.08,1.75
				c-1.94,0.88-4.01,1.76-6.08,2.51C299.96,618.38,297.89,619.14,295.76,619.88z"/>
			<path fill="#95CE91" d="M277.44,549.63c-18.19,33-29.42,63.29-35.82,83.55c0.88-0.12,1.76-0.19,2.63-0.31
				c0.88-0.12,1.75-0.25,2.57-0.38c1.2-0.12,2.32-0.31,3.45-0.57c1.13-0.13,2.26-0.31,3.39-0.57c1.25-0.19,2.51-0.44,3.77-0.75
				c0.31-0.07,0.69-0.13,1-0.19c12.42-16.51,28.16-39.58,42.66-67.87c-4.15,22.52-5.28,42.53-5.34,57.33
				c2.13-0.75,4.2-1.5,6.27-2.38c2.07-0.82,4.08-1.63,6.08-2.51c1.38-0.56,2.76-1.18,4.08-1.75c4.64-11.22,9.78-24.77,14.17-39.52
				c-12.35-55.26-2-86.69,9.92-103.75c-1.07-0.38-2.14-0.75-3.26-1.07c-8.34-0.37-16.56,0.51-24.41,2.26
				c-11.22,6.02-29.98,15.56-52,25.22c-25.09,18.57-41.02,39.71-41.02,39.71s18.07,2.07,44.03-7.91
				c-30.42,35.32-49.43,71.7-49.43,71.7S242.94,583.32,277.44,549.63z"/>
			<path fill="#95CE91" d="M256.61,496.38c22.02-9.66,40.78-19.2,52-25.22C289.11,475.55,271.29,485.52,256.61,496.38z"/>
		</g>
	</g>
</g>
</svg>
