<?xml version="1.0" encoding="utf-8"?>
<!-- Generator: Adobe Illustrator 25.2.3, SVG Export Plug-In . SVG Version: 6.00 Build 0)  -->
<svg version="1.1" id="Layer_1" xmlns="http://www.w3.org/2000/svg" xmlns:xlink="http://www.w3.org/1999/xlink" x="0px" y="0px"
	 viewBox="0 0 576 576" enable-background="new 0 0 576 576" xml:space="preserve">
<g>
	<g>
		<defs>
			<circle id="SVGID_1_" cx="288.4" cy="288" r="288"/>
		</defs>
		<use xlink:href="#SVGID_1_"  overflow="visible" fill="#F9E3D9"/>
		<clipPath id="SVGID_2_">
			<use xlink:href="#SVGID_1_"  overflow="visible"/>
		</clipPath>
		<g clip-path="url(#SVGID_2_)">
			<g>
				<path fill="#C67E2A" d="M116.56,346.03c15.96,32.92,29.48,71.78,37.63,87.9c13.74,27.19,35.2,53.1,71.11,108.64
					c35.92,55.53,212.6,15.96,212.6,15.96s26.83-28.1,23.84-88.38c-2.99-60.27-11.57-111.34-8.98-144.57
					c2.59-33.24-163.5-127.22-163.5-127.22l-180.69,102.6L116.56,346.03z"/>
			</g>
			<g>
				<path fill="#AA6828" d="M427.82,342.05c0,0,4.99,81.8-15.96,115.72s-156.63,50.88-156.63,50.88l-42.89-31.92
					c0,0-37.1-37.53-45.28-75.24c-6.55-30.15-11.94-63.66-9.59-75.41C160.46,311.12,427.82,342.05,427.82,342.05z"/>
			</g>
			<g>
				<path fill="#EB5857" d="M402.33,639.62c12.87-37.97,14.12-65.02,14.52-72.16c2.88-51.71-85.88-101.71-137.67-101.71
					c-67.84,0-104.87,29.1-107.75,80.81c-0.03,0.72-0.5,41.88-27.29,93.06H402.33z"/>
			</g>
			<g>
				<path fill="#FAAF85" d="M205.39,515.03c-10.25-14.35-30.19-17.67-44.54-7.42c-18.55,13.25-82.33,41.68-138.78,65.28
					c13.19,17.11,26.24,34.33,38.77,51.93c0.18,0.25,0.33,0.55,0.51,0.82c50.27-21.24,113.03-49.23,136.61-66.07
					C212.32,549.32,215.64,529.38,205.39,515.03z"/>
			</g>
			<g>
				<path fill="#EB5857" d="M90.6,639.62l37.21-18.29c3.22-1.58,79.49-39.15,125.72-71.38l37.65-26.24l-63.72-51.23
					C150.15,513.34,46.16,559.2,46.16,559.2l39.51,80.42H90.6z"/>
			</g>
			<g>
				<path fill="#EB5857" d="M379.72,616.67l1.64,22.95h91.73c-3.77-31.35-17.11-100.18-63.23-134.96
					c-28.73-21.67-83.17-32.18-83.17-32.18l25.66,51.68C362.83,550.11,378.24,595.96,379.72,616.67z"/>
			</g>
			<g>
				<path fill="#F3A179" d="M328.7,476.51c-17.53-6.81-34.98-10.76-49.52-10.76c-1.77,0-3.43,0.1-5.15,0.14
					c-1.8,4.71-2.83,9.81-2.83,15.15c0,23.51,19.06,42.57,42.57,42.57c23.51,0,42.57-19.06,42.57-42.57c0-0.33-0.04-0.65-0.05-0.98
					c-16.6-5.08-29.58-7.58-29.58-7.58L328.7,476.51z"/>
			</g>
			<g>
				<path fill="#B63232" d="M90.6,639.62l37.21-18.29c1.27-0.62,13.78-6.78,31.28-15.98c-3.72,10.57-8.75,22.17-15.07,34.26h88.72
					c-8.15-50.82,3.37-135.49,3.07-168.84c-2.64,0.69-5.22,1.41-7.7,2.23l-0.64-0.52c-1.34,0.7-2.7,1.42-4.05,2.12
					c-7.09,2.68-13.42,6-19.08,9.86C130.95,521.8,46.16,559.2,46.16,559.2l39.51,80.42H90.6z"/>
				<path fill="#B63232" d="M473.09,639.62c-3.77-31.35-17.11-100.18-63.23-134.96c-8.37-6.32-18.93-11.68-29.68-16.11
					c-0.44,21.09-24.85,101.04-63.01,151.07H473.09z"/>
			</g>
			<g>
				<circle fill="#D68764" cx="180.39" cy="318.81" r="28.27"/>
			</g>
			<g>
				<path fill="#D68764" d="M313.75,507.65c-11.85,0-21.61-9.44-21.93-21.36c-1.16-42.6-8.67-60.64-8.75-60.81
					c-5.12-10.98-0.3-23.89,10.69-29.01c10.97-5.13,24.12-0.21,29.24,10.78c1.15,2.46,11.28,25.59,12.69,77.86
					c0.33,12.12-9.23,22.2-21.35,22.54C314.16,507.65,313.95,507.65,313.75,507.65z"/>
			</g>
			<g>
				<path fill="#BB6B4F" d="M330.24,432.17l-8.5-12.31l-34.86,19.37c1.56,7.38,3.22,17.87,4.21,31.92c3.89,0.61,8.1,1.07,12.69,1.25
					c14.28,0.57,24.25-2.3,30.99-5.75C333.73,452.45,332.03,441.05,330.24,432.17z"/>
			</g>
			<g>
				<circle fill="#D68764" cx="429.12" cy="318.81" r="28.27"/>
			</g>
			<g>
				<path fill="#FAAF85" d="M184.4,202.96c1.33,50.87-3,106.74-3.99,145.65c-0.99,38.91,50.88,88.79,108.75,106.75
					c57.86,17.95,111.74-52.88,121.71-70.83c9.98-17.96,23.95-52.88,22.95-112.73c-1-59.86,8.48-147.16-93.28-156.14
					C238.77,106.68,183.4,165.05,184.4,202.96z"/>
			</g>
			<g>
				<path fill="#D68764" d="M433.57,291.5c0.25-6.26,0.36-12.8,0.24-19.71c-0.36-21.58,0.62-46.71-2.72-70.46l-7.54-30.45
					c-4.52-11.7-11.06-22.34-20.55-31.13L203.58,159.5c-12.97,14.49-19.53,30.22-19.18,43.46c0.65,24.9-0.05,50.99-1.06,75.72
					c12.87,0.31,65.67-0.01,109.14-23.76c49.88-27.27,75.81-70.5,75.81-70.5s-8.64,38.57,9.31,70.5
					C388.54,274.35,414.73,285.64,433.57,291.5z"/>
			</g>
			<g>
				<path fill="#D68764" d="M396.89,383.95c-18.62,27.93-74.49,59.86-104.41,55.2c-29.94-4.66-86.47-49.22-97.11-86.46
					c-10.64-37.25,1.33-78.48,1.33-78.48l-12.86-8.82c-1.06,30.67-2.84,59.99-3.43,83.23c-0.99,38.91,50.88,88.79,108.75,106.75
					c57.86,17.95,111.74-52.88,121.71-70.83c8.72-15.69,20.47-44.32,22.64-91.21C427.34,316.52,413.44,359.13,396.89,383.95z"/>
			</g>
			<g>
				<path fill="#010101" d="M258.6,283.41c-0.15,12.24-8.11,22.05-17.77,21.94c-9.66-0.12-17.37-10.14-17.22-22.37
					c0.15-12.23,8.11-22.05,17.76-21.94C251.04,261.16,258.75,271.17,258.6,283.41z"/>
			</g>
			<g>
				<path fill="#DE7859" d="M318.27,316.93c2.55,17.42-1.27,32.07-19.46,31.7c-18.95-0.39-21.56-16.26-15.87-33.64
					c6.14-18.74,9.71-32.24,19.46-31.71C312.15,283.82,315.63,298.93,318.27,316.93z"/>
			</g>
			<g>
				<path fill="#EA8C68" d="M312.66,314.02c2.3,16.84-1.25,31.02-17.97,30.71c-17.41-0.33-19.78-15.67-14.5-32.49
					c5.7-18.12,9-31.19,17.97-30.7C307.12,282.03,310.29,296.62,312.66,314.02z"/>
			</g>
			<g>
				<path fill="#FFFFFF" d="M250.5,276.74c-0.05,4.31-2.55,7.78-5.55,7.74c-3.01-0.04-5.41-3.56-5.36-7.87s2.54-7.77,5.55-7.74
					C248.15,268.91,250.55,272.43,250.5,276.74z"/>
			</g>
			<g>
				<path fill="#010101" d="M378.31,283.41c-0.14,12.24-8.1,22.05-17.76,21.94c-9.67-0.12-17.37-10.14-17.22-22.37
					c0.16-12.23,8.11-22.05,17.77-21.94C370.75,261.16,378.46,271.17,378.31,283.41z"/>
			</g>
			<g>
				<path fill="#FFFFFF" d="M369.97,276.74c-0.06,4.31-2.55,7.78-5.55,7.74c-3.02-0.04-5.42-3.56-5.36-7.87
					c0.05-4.31,2.54-7.77,5.55-7.74C367.62,268.91,370.02,272.43,369.97,276.74z"/>
			</g>
			<g>
				<path fill="#FFFFFF" d="M264.69,368.46c0,0,10.17,2.55,36.86,2.97c26.69,0.42,38.98-2.55,38.98-2.55s-8.9,38.98-39.4,38.98
					C270.62,407.86,264.69,368.46,264.69,368.46z"/>
			</g>
			<g>
				<path fill="#EA8C68" d="M264.69,368.46c0,0,14.83-4.8,37.92-4.8c23.09,0,37.92,5.22,37.92,5.22s-16.66,7.49-37.92,6.92
					C281.35,375.24,264.69,368.46,264.69,368.46z"/>
			</g>
			<g>
				<path fill="#EA8C68" d="M264.69,368.46c0,0,7.34,41.8,37,42.08c29.66,0.29,38.84-41.66,38.84-41.66s-15.4,27.26-39.06,27.26
					C280.79,396.14,264.69,368.46,264.69,368.46z"/>
			</g>
			<g>
				<path fill="#C67E2A" d="M392.27,141.52c0,0-5.35-88.79-106.11-90.79C185.4,48.74,87.62,147.5,87.62,225.32
					s28.93,120.72,28.93,120.72s5.98-46.89,57.86-61.85C226.3,269.22,334.4,241.28,392.27,141.52z"/>
			</g>
			<g>
				<path fill="#C67E2A" d="M452.81,306.84c0,0-57.91-38.02-72.88-88.9c-14.97-50.88,8.97-86.39,8.97-86.39s46.87-18.7,78.31,46.02
					C498.66,242.28,452.81,306.84,452.81,306.84z"/>
			</g>
			<g>
				<path fill="#DC8B30" d="M270.19,211.35c39.98-13.72,94.4-56.96,120.31-80.96c-2.04-9.23-6.38-22.98-15.45-36.48
					c-51.41-29.95-112.08-35.47-170.7-3.27c-70.83,38.91-82.81,143.66-82.81,143.66S203.35,234.3,270.19,211.35z"/>
			</g>
			<g>
				<path fill="#DC8B30" d="M398.89,150.5c0,0-8.98,62.85,18.95,97.77c27.93,34.92,35.92,36.91,35.92,36.91
					S494.66,167.45,398.89,150.5z"/>
			</g>
			<g>
				<path fill="#B98A2D" d="M374.98,245.28c-8.99-7.87-23.57-4.48-23.71-4.44l-1.87-7.76c0.77-0.18,18.78-4.35,30.83,6.19
					L374.98,245.28z"/>
			</g>
			<g>
				<path fill="#F39D70" d="M230.62,330.4c0,6.43-7.44,11.64-16.63,11.64c-9.18,0-16.62-5.21-16.62-11.64
					c0-6.43,7.45-11.64,16.62-11.64C223.18,318.77,230.62,323.97,230.62,330.4z"/>
			</g>
			<g>
				<path fill="#F39D70" d="M404.88,330.4c0,6.43-7.44,11.64-16.62,11.64c-9.19,0-16.63-5.21-16.63-11.64
					c0-6.43,7.44-11.64,16.63-11.64C397.44,318.77,404.88,323.97,404.88,330.4z"/>
			</g>
			<g>
				<path fill="#BB6B4F" d="M172.42,303.14c0,0-9.64,4.66-9.64,14.63c0,9.97,8.31,13.63,8.31,13.63S164.44,317.1,172.42,303.14z"/>
			</g>
			<g>
				<path fill="#BB6B4F" d="M437.8,303.14c0,0,9.65,4.66,9.65,14.63c0,9.97-8.31,13.63-8.31,13.63S445.78,317.1,437.8,303.14z"/>
			</g>
			<g>
				<path fill="#F4A187" d="M298.72,326.39c-1.28-3.84-12.48-2.43-11.81,3.04C287.57,334.89,301.42,334.5,298.72,326.39z"/>
			</g>
		</g>
	</g>
</g>
</svg>
