<?xml version="1.0" encoding="utf-8"?>
<!-- Generator: Adobe Illustrator 25.2.3, SVG Export Plug-In . SVG Version: 6.00 Build 0)  -->
<svg version="1.1" id="Layer_1" xmlns="http://www.w3.org/2000/svg" xmlns:xlink="http://www.w3.org/1999/xlink" x="0px" y="0px"
	 viewBox="0 0 576 576" enable-background="new 0 0 576 576" xml:space="preserve">
<g>
	<g>
		<defs>
			<path id="SVGID_1_" d="M575.96,288.1c0,159.05-128.93,287.98-287.98,287.98S0,447.15,0,288.1S128.93,0.12,287.98,0.12
				S575.96,129.05,575.96,288.1z"/>
		</defs>
		<use xlink:href="#SVGID_1_"  overflow="visible" fill="#F9E3D9"/>
		<clipPath id="SVGID_2_">
			<use xlink:href="#SVGID_1_"  overflow="visible"/>
		</clipPath>
		<g clip-path="url(#SVGID_2_)">
			<g>
				<path fill="#CCCCCE" d="M175.83,424.64h233.71l0,0c0-6.72-5.44-12.16-12.16-12.16H187.99
					C181.28,412.47,175.83,417.92,175.83,424.64L175.83,424.64z"/>
				<rect x="409.54" y="424.64" fill="#B0B0AF" width="23.76" height="62.28"/>
				<rect x="357.93" y="424.64" fill="#CECECD" width="51.62" height="62.28"/>
				
					<rect x="349.95" y="421.61" transform="matrix(-1 -1.224647e-16 1.224647e-16 -1 791.2355 863.5814)" fill="#616067" width="91.33" height="20.36"/>
				<g>
					<path fill="#C04629" d="M456.73,672.31V565.44c0-41.27-26.11-75.89-61.11-84.94c5.83-1.55,11.91-2.34,18.21-2.34
						c43.73,0,79.31,39.15,79.31,87.29v106.87H456.73z"/>
					<path fill="#E55F36" d="M334.51,672.31V565.44c0-41.27,26.11-75.89,61.11-84.94c35,9.05,61.11,43.67,61.11,84.94v106.87H334.51
						z"/>
					<path fill="#D64D2E" d="M415.12,672.31V565.44c0-40.24-24.81-74.18-58.51-84.19c6.61-2.01,13.57-3.09,20.81-3.09
						c6.29,0,12.37,0.8,18.2,2.34c35,9.05,61.11,43.67,61.11,84.94v106.87H415.12z"/>
					<path fill="#E55F36" d="M298.1,672.31V565.44c0-40.24,24.81-74.18,58.51-84.19c33.71,10.01,58.51,43.95,58.51,84.19v106.87
						H298.1z"/>
				</g>
				<path fill="#616067" d="M338.76,472.86h113.73c2.75,0,4.99,2.16,4.99,4.81v10.42c0,2.65-2.24,4.81-4.99,4.81H338.76
					c-2.75,0-4.99-2.16-4.99-4.81v-10.42C333.77,475.02,336,472.86,338.76,472.86z"/>
				<rect x="201.65" y="424.64" fill="#B0B0AF" width="23.76" height="62.28"/>
				<rect x="150.02" y="424.64" fill="#CECECD" width="51.62" height="62.28"/>
				
					<rect x="142.05" y="421.61" transform="matrix(-1 -1.224647e-16 1.224647e-16 -1 375.4235 863.5814)" fill="#616067" width="91.33" height="20.36"/>
				<g>
					<path fill="#C04629" d="M248.83,672.31V565.44c0-41.27-26.11-75.89-61.11-84.94c5.83-1.55,11.91-2.34,18.2-2.34
						c43.73,0,79.31,39.15,79.31,87.29v106.87H248.83z"/>
					<path fill="#E55F36" d="M126.6,672.31V565.44c0-41.27,26.11-75.89,61.11-84.94c35,9.05,61.11,43.67,61.11,84.94v106.87H126.6z"
						/>
					<path fill="#D64D2E" d="M207.22,672.31V565.44c0-40.24-24.81-74.18-58.51-84.19c6.6-2.01,13.58-3.09,20.81-3.09
						c6.29,0,12.38,0.8,18.2,2.34c35,9.05,61.11,43.67,61.11,84.94v106.87H207.22z"/>
					<path fill="#E55F36" d="M90.19,672.31V565.44c0-40.24,24.81-74.18,58.51-84.19c33.71,10.01,58.51,43.95,58.51,84.19v106.87
						H90.19z"/>
				</g>
				<path fill="#616067" d="M130.85,472.86h113.73c2.75,0,4.99,2.16,4.99,4.81v10.42c0,2.65-2.24,4.81-4.99,4.81H130.85
					c-2.75,0-4.99-2.16-4.99-4.81v-10.42C125.86,475.02,128.1,472.86,130.85,472.86z"/>
				<path fill="#9E9FA1" d="M76.63,672.31c0.82-23.09,19.67-41.59,42.95-41.59h341.48c23.28,0,42.13,18.5,42.95,41.59H76.63z"/>
			</g>
			
				<rect x="229.34" y="414.6" transform="matrix(-1 -1.224647e-16 1.224647e-16 -1 547.9671 952.4965)" fill="#F8A184" width="89.28" height="123.29"/>
			<path fill="#2C64B0" d="M49.89,672.31c3.9-13.61,8.64-27.5,14.48-41.49c6.73-16.38,15-32.86,24.95-49.13
				c0.05-0.16,0.15-0.31,0.25-0.46c10.1-16.48,23.26-30.86,38.57-42.65l22.04-19.08c0,0,0.05,0.21,0.15,0.51
				c1.08,5.83,12.38,64.04-2.55,152.3H49.89z"/>
			<path fill="#2C64B0" d="M229.35,473.29v49.28h89.27v-48.77c-12.6,1.23-26.94,1.94-42.19,1.94
				C259.19,475.73,243.02,474.81,229.35,473.29z"/>
			<path fill="#2C64B0" d="M85.03,672.31c-0.18-42.86,9.72-87.23,39.3-128.66c25.51-35.71,132.26-81.3,213.42-53.57
				c37.1,12.68,83.27,35.28,85.88,74.4c1.84,27.71,0.69,65.42-2.33,107.83H85.03z"/>
			<path fill="#2C64B0" d="M375.69,672.31c-0.02-18.41,1.21-37.47,4.37-57.09c0.03-0.18,0.05-0.35,0.08-0.52
				c3.12-19.08,9.83-37.38,19.49-54.11L414.62,537c0,0,0.08,0.16,0.31,0.43c3.25,5.05,48.51,46.68,68.85,134.89H375.69z"/>
			<path fill="#CCCCCE" d="M285.64,667.79c-0.14,0.4-0.2,0.79-0.17,1.2c0.04,0.61,0.13,1.83,0.25,3.32H147.49
				c0.45-1.32,0.91-2.64,1.36-3.68c0.25-0.58,0.31-1.16,0.17-1.79c-2.25-9.47-20.83-89.84-16.27-132.78
				c0.23-2.11,1.44-3.97,3.21-5.14l32.35-21.26c4.9-3.21,11.37,0.43,11.14,6.28c-1.25,30.75-2.5,103.45,11.89,131.34
				c0.51,1,1.57,1.58,2.7,1.56l53.39-0.79c1.27-0.03,2.38-0.81,2.77-2.02c5.33-16.28,42.81-127.99,76.61-158.17
				c0.86-0.76,2.07-0.92,3.12-0.48l44.98,18.71c1.9,0.79,2.47,3.18,1.1,4.71C364.08,522.25,316.76,579.04,285.64,667.79z"/>
			<g>
				<path fill="#858494" d="M193.72,429.25c-2.4,10.83,1.97,20.37-2.65,31.36c-4.92,11.67-15.46,20.67-24.41,28.02
					c-21.13,17.33-59.9,21.87-68.56,51.92c-4.86,16.87-7.17,32.66,11.18,37.97c18.11,5.24,33.51-6.06,48.77-15.05
					c23.81-14.03,48.88-21.85,75.52-24.93c16.47-1.9,16.35,27.24,0,29.13c-22,2.55-42.88,9.41-62.53,20.96
					c-13.58,7.98-26.02,16.72-41.51,19.22c-21.72,3.49-55.92-3.76-60.61-32.75c-4.18-25.72,5.98-61.77,24.7-77.69
					c12.26-10.42,27.95-13.32,41.47-20.97c8.7-4.92,21.65-11.97,27.17-21.18c6.11-10.19,4.17-22.58,6.64-33.75
					C172.93,403.34,197.76,411.03,193.72,429.25L193.72,429.25z"/>
			</g>
			<polygon fill="#444D74" points="213.52,514.92 236.47,514.99 273.99,553.77 277.23,593.09 264.26,614.53 236.47,630 
				213.52,630.04 			"/>
			<g>
				<path fill="#858494" d="M392.04,431.13c-23.72,48.6,43.77,54.63,65.15,81.89c17.88,22.79,19.72,54.59,2.16,78.16
					c-18.55,24.91-51.11,27.82-79.14,19.8c-15.96-4.56-30.93-12.47-45.06-21c-23.09-13.92-40.76-16.04-67.22-13.25
					c-19.57,2.07-19.42-28.56,0-30.61c34.52-3.64,56.53,1.76,85.9,19.38c15.82,9.49,34.52,19.05,53.49,19.19
					c22.65,0.17,40.12-19.76,32-42.22c-10.63-29.39-52.23-29.26-69.69-54.26c-15.4-22.05-15.54-48.94-4.02-72.55
					C374.24,397.98,400.65,413.47,392.04,431.13L392.04,431.13z"/>
			</g>
			<path fill="#444D74" d="M233.93,514.92c32.68,0,59.17,33.67,59.17,64.67s-26.49,50.45-59.17,50.45s-59.18-19.44-59.18-50.45
				S201.25,514.92,233.93,514.92z"/>
			<g>
				<path fill="#2E344D" d="M154.35,579.59c0,31,26.5,50.45,59.18,50.45s59.18-19.44,59.18-50.45s-26.5-64.67-59.18-64.67
					S154.35,548.58,154.35,579.59z"/>
				<path fill="#444D74" d="M170.29,577.67c0,22.65,19.35,36.86,43.23,36.86c23.88,0,43.23-14.21,43.23-36.86
					c0-22.65-19.35-47.25-43.23-47.25C189.64,530.42,170.29,555.02,170.29,577.67z"/>
			</g>
			<polygon fill="#2E344D" points="129.28,233.06 106.33,240.02 94,255.7 101.77,315.69 110.17,345.37 123.76,355.66 144.38,353.53 
							"/>
			<path fill="#4D2721" d="M171.15,158.18c0,0-35.6,78.77-34.51,128.65l-8.75,2.72c0,0-34.23-112.24,32.28-150.5
				c66.52-38.26,3.23,0,3.23,0L171.15,158.18z"/>
			<path fill="#F8A184" d="M189.16,111.63c49.63-45.56,123.54-45.56,173.17,0c47.76,43.84,57.38,111.83,55.85,166.17
				c1.53,49.73-13.28,110.16-61.05,150.28c-49.63,41.69-118.34,43.45-167.97,1.76c-47.77-40.12-57.38-102.31-55.85-152.04
				C131.78,223.46,141.4,155.48,189.16,111.63z"/>
			<path fill="#F47A4E" d="M222.6,313.52h-30.17C192.43,313.52,204.55,340.63,222.6,313.52z"/>
			<path fill="#68423E" d="M299.51,307.04L299.51,307.04c7.84,0,14.2-6.36,14.2-14.2v-18.8c0-7.84-6.36-14.2-14.2-14.2l0,0
				c-7.84,0-14.2,6.36-14.2,14.2v18.8C285.31,300.68,291.67,307.04,299.51,307.04z"/>
			<path fill="#68423E" d="M152.81,307.04L152.81,307.04c7.84,0,14.2-6.36,14.2-14.2v-18.8c0-7.84-6.36-14.2-14.2-14.2l0,0
				c-7.84,0-14.2,6.36-14.2,14.2v18.8C138.62,300.68,144.98,307.04,152.81,307.04z"/>
			<path fill="#834A4C" d="M175.79,224.99l-1.18,14.66c0,0-14.77-3.92-35.79,2.83l-0.73-9.3
				C138.09,233.18,160.51,221.51,175.79,224.99z"/>
			<path fill="#834A4C" d="M280.05,224.99l1.18,14.66c0,0,14.76-3.92,35.78,2.83l0.73-9.3
				C317.75,233.18,295.33,221.51,280.05,224.99z"/>
			<g>
				<path fill="#68423E" d="M223.73,405.75c29.78,0.23,50.67-28.18,48.53-34.86c-0.97-3.69-6.72-2.15-15.46,0.29
					c-8.68,2.38-20.32,5.6-33.08,5.37c-14.63,0.28-27.76-4.02-36.7-6.35c-6.68-1.78-11.01-2.48-11.84,0.69
					C173.06,377.57,193.96,405.99,223.73,405.75z"/>
				<path fill="#FFFCFD" d="M187.03,370.19l3.02,18.13c29.89,15.61,65.39-0.67,65.39-0.67l1.36-16.48
					c-8.68,2.38-20.32,5.6-33.08,5.37C209.1,376.83,195.98,372.53,187.03,370.19z"/>
			</g>
			<path fill="#4D2721" d="M237.56,64.74c-33.75-1.81-119.25,76.87-124.9,121.98c0,0,36.13-44.35,89.34,1.41
				c0,0,131.14-35.23,169.69-21.88c22.65,7.85,44.9-35.15,4.6-60.68C348,87.66,300.51,68.12,237.56,64.74z"/>
			<path fill="#4D2721" d="M150.2,210.37c0.97-11.14,25.5-52.12,48.28-50.26c22.78,1.86-44.84-40.58-58.42,1.25
				C126.47,203.21,150.2,210.37,150.2,210.37z"/>
			<path fill="#4D2721" d="M379.68,158.18c0,0,35.6,78.77,34.51,128.65l8.75,2.72c0,0,34.23-112.24-32.29-150.5
				c-66.52-38.26-3.23,0-3.23,0L379.68,158.18z"/>
			<path fill="#4D2721" d="M375.32,158.18c0,0-24.96,97.52,4.36,148.86l25.09,6.48c0,0,30.52-24.52,13.56-89.18
				C401.37,159.67,375.32,158.18,375.32,158.18z"/>
			<g>
				<g>
					<path fill="#2E344D" d="M313.27,359.62l33.93-0.05c0.62,0,1.23,0.05,1.79,0.05c16.53-0.1,30.76-14.79,32.8-34.39l5.87-55.71
						c2.24-21.22-10.11-40.71-28.01-44.28c-15.97-3.27-40.4-6.53-73.06-6.38c-5,0.05-10.25,0.16-15.66,0.36
						c22.81,0.92,40.51,3.47,53.01,6.02c7.3,1.43,13.72,5.56,18.52,11.38c1.37,0.2,2.7,0.4,4.03,0.61
						c4.13,0.66,7.91,1.32,11.27,1.99c11.48,2.3,19.39,14.79,17.96,28.42l-5.81,55.71c-1.32,12.6-10.46,21.98-21.07,22.04
						c-0.36,0-0.71,0-1.12-0.05l-8.68-0.51C334.79,351.15,319.95,357.32,313.27,359.62z"/>
				</g>
			</g>
			<g>
				<g>
					<g enable-background="new    ">
						<g>
							<path opacity="0.3216" fill="#5690CC" d="M310.76,237.22l-49.18,103.5c2.3,1.21,4.79,1.94,7.37,2.09l43.04,2.54
								c0.38,0.02,0.75,0.03,1.13,0.03c10.62-0.05,19.72-9.44,21.03-22.04l5.84-55.68c1.44-13.64-6.47-26.13-17.98-28.42
								C318.66,238.55,314.91,237.87,310.76,237.22L310.76,237.22z M186.97,233.44c-30.16,0.36-52.71,3.67-67.59,6.83
								c-11.45,2.4-19.1,14.97-17.35,28.6l7.15,55.61c1.61,12.59,10.96,21.88,21.55,21.82c0.37,0,0.75-0.01,1.12-0.04l1.58-0.11
								L186.97,233.44L186.97,233.44z M251.05,233.08c-6.48,0.03-13.3,0.2-20.45,0.55l-51.75,108.89c6.09-1.92,11.2-7.09,13.8-14.24
								c3.5-9.48,7.17-17.35,10.94-23.29c4.19-6.73,10.66-10.57,17.72-10.61c1.32-0.01,2.62,0.12,3.88,0.37l29.29-61.68
								C253.35,233.07,252.21,233.07,251.05,233.08L251.05,233.08z"/>
							<path opacity="0.4902" fill="#A2CAEC" d="M254.49,233.08c23.29,0.06,42.06,1.91,56.27,4.14l-49.18,103.5
								c-4.68-2.46-8.56-6.93-10.84-12.74c-3.71-9.44-7.57-17.27-11.44-23.17c-3.57-5.44-8.55-8.96-14.11-10.05L254.49,233.08
								L254.49,233.08z"/>
							<path opacity="0.4902" fill="#A2CAEC" d="M190.2,233.41c9.33-0.05,19.37,0.19,30.11,0.79h0.31l0.31-0.01
								c3.29-0.23,6.51-0.42,9.67-0.57l-51.75,108.89c-1.31,0.41-2.67,0.68-4.06,0.78l-41.36,2.86l53.54-112.71
								C188.04,233.43,189.11,233.42,190.2,233.41L190.2,233.41z"/>
							<path fill="#CCCCCE" d="M221.3,308.62l6.04,40.92c-1.8,0.47-3.64,0.71-5.48,0.71c-6.03,0.03-12.09-2.4-17.05-7.31l-3.53-3.5
								c0.91-1.7,1.72-3.51,2.42-5.4c3.12-8.51,6.33-15.42,9.53-20.53C215.18,310.45,218.12,308.71,221.3,308.62L221.3,308.62z"/>
							<path fill="#B8B7BA" d="M221.48,308.61c3.3-0.01,6.34,1.71,8.36,4.83c3.35,5.07,6.73,11.94,10.05,20.42
								c0.72,1.86,1.56,3.64,2.49,5.32l-3.44,3.55c-3.41,3.51-7.38,5.83-11.59,6.81l-6.04-40.92
								C221.36,308.62,221.42,308.61,221.48,308.61L221.48,308.61z"/>
							<path fill="#2E344D" d="M90.18,270.86l7.14,55.66c2.5,19.54,17.09,34.13,33.57,34.02c0.61,0,1.17,0,1.78-0.05l24.13-1.68
								l18.83-1.32c8.92-0.61,17.09-5.51,22.7-13.37c1.12-1.43,2.08-3.01,2.95-4.64c0.92-1.73,1.73-3.52,2.4-5.41
								c3.11-8.52,6.33-15.4,9.54-20.55c1.94-3.07,4.9-4.8,8.06-4.9h0.2c3.27,0,6.33,1.73,8.37,4.84c0.92,1.38,1.79,2.86,2.7,4.49
								c2.35,4.23,4.75,9.38,7.14,15.35c0.05,0.21,0.16,0.36,0.2,0.57c0.71,1.88,1.53,3.67,2.45,5.31c2.09,3.83,4.74,7.09,7.7,9.79
								c5.25,4.75,11.63,7.65,18.41,8.06l43.01,2.55c0.61,0,1.22,0.05,1.78,0.05c3.12,0,6.12-0.57,8.98-1.53
								c6.68-2.29,12.55-6.94,16.78-13.26c3.73-5.46,6.27-12.2,7.04-19.59l5.87-55.71c1.33-12.55-2.45-24.48-9.49-32.9
								c-4.8-5.82-11.22-9.95-18.52-11.38c-12.5-2.55-30.2-5.1-53.01-6.02c-6.27-0.25-12.96-0.41-20.05-0.36
								c-5.1,0.05-10.4,0.16-15.92,0.36h-0.2c-4.59,0.2-9.38,0.46-14.28,0.77c-3.57-0.21-7.09-0.36-10.51-0.46
								c-6.99-0.31-13.63-0.41-19.95-0.36c-32.65,0.16-56.98,3.72-72.85,7.09C99.31,230.04,87.47,249.68,90.18,270.86z
								 M119.41,240.29c4.44-0.97,9.59-1.94,15.46-2.81c13.63-2.09,30.97-3.77,52.09-4.03c1.07-0.05,2.14-0.05,3.21-0.05
								c6.43-0.05,13.11,0.05,20.16,0.36c3.26,0.1,6.58,0.25,9.99,0.45h0.31l0.31-0.05c3.32-0.21,6.53-0.41,9.7-0.57
								c1.38-0.05,2.7-0.1,4.03-0.15h0.21c5.61-0.21,11.02-0.36,16.22-0.36c1.12-0.05,2.29-0.05,3.42,0c5.66,0,11.07,0.1,16.17,0.36
								c15.97,0.61,29.34,2.09,40.1,3.77c4.13,0.66,7.9,1.32,11.27,1.99c11.48,2.3,19.39,14.79,17.96,28.42l-5.81,55.71
								c-1.02,9.49-6.43,17.14-13.52,20.41c-2.34,1.02-4.9,1.63-7.55,1.63c-0.36,0-0.71,0-1.12-0.05l-31.17-1.84l-6.53-0.4
								l-5.36-0.31c-2.5-0.15-4.9-0.81-7.14-1.94c-0.05-0.05-0.15-0.05-0.2-0.1c-4.7-2.49-8.57-6.94-10.81-12.76
								c-1.43-3.62-2.86-6.99-4.34-10.15c-2.34-4.99-4.7-9.34-7.09-12.9c0-0.05-0.05-0.05-0.05-0.05
								c-3.57-5.51-8.51-9.03-14.08-10.1c-1.27-0.26-2.6-0.41-3.88-0.41c-7.09,0.05-13.57,3.88-17.76,10.61
								c-3.77,5.97-7.44,13.83-10.91,23.32c-2.6,7.14-7.71,12.29-13.83,14.23c-1.28,0.41-2.66,0.66-4.03,0.77l-16.53,1.12
								l-18.01,1.27l-6.84,0.46l-1.58,0.1c-0.36,0.05-0.77,0.05-1.12,0.05c-10.61,0.06-19.94-9.23-21.53-21.83l-7.19-55.61
								C100.27,255.24,107.93,242.69,119.41,240.29z"/>
						</g>
					</g>
				</g>
				<polygon fill="#2E344D" points="338.45,228.54 370.77,237.22 380.11,259.85 379.68,307.04 368.21,346.15 343.13,353.96 
					329.42,350.26 344.83,289.24 				"/>
			</g>
			<polygon fill="#2E344D" points="376.72,239.6 434.96,259.85 434.96,294.36 372.16,301.66 			"/>
			<path fill="#F47A4E" d="M391.82,281.09c-0.1-9.59,5.65-18.31,14.57-21.85c8.48-3.36,19.17-4.21,28.04,6.53
				c17.09,20.69-1.35,72.87-14.85,78.26c-13.5,5.4-20.33-0.09-23.2-2.64C391.61,337.18,392.02,301.66,391.82,281.09z"/>
		</g>
	</g>
</g>
</svg>
