<?xml version="1.0" encoding="utf-8"?>
<!-- Generator: Adobe Illustrator 25.2.3, SVG Export Plug-In . SVG Version: 6.00 Build 0)  -->
<svg version="1.1" id="Layer_1" xmlns="http://www.w3.org/2000/svg" xmlns:xlink="http://www.w3.org/1999/xlink" x="0px" y="0px"
	 viewBox="0 0 576 576" enable-background="new 0 0 576 576" xml:space="preserve">
<g>
	<g>
		<defs>
			<path id="SVGID_1_" d="M575.58,287.79c0,158.95-128.85,287.8-287.8,287.8C128.85,575.58,0,446.73,0,287.79
				C0,128.85,128.85,0,287.79,0C446.73,0,575.58,128.85,575.58,287.79z"/>
		</defs>
		<use xlink:href="#SVGID_1_"  overflow="visible" fill="#F9E3D9"/>
		<clipPath id="SVGID_2_">
			<use xlink:href="#SVGID_1_"  overflow="visible"/>
		</clipPath>
		<g clip-path="url(#SVGID_2_)">
			<path fill="#2E2F63" d="M91.91,616.42c-23.77,14.69-149.45,88.62-215.79,57.21v22.71c81.13,17.71,219.75-54.62,219.75-54.62
				L91.91,616.42z"/>
			<path fill="#363A77" d="M77.96,527.08c0,0-127.53,84.28-188.22,62.84c-4.56-1.61-9.11-3.84-13.62-6.56v90.27
				c66.34,31.41,192.03-42.52,215.79-57.21L77.96,527.08z"/>
			<path fill="#363A77" d="M514.26,847.9h76.45c-2.16-13.1-4.54-24.76-7.19-34.28c-21.69-78.12-97.45-241.98-97.45-241.98
				l-95.8,73.15c0,0,95.11,143,122.78,200.43C513.45,846.08,513.86,846.97,514.26,847.9z"/>
			<path fill="#E2DFDE" d="M412.5,526.58L223.83,792.83c0,0-32.1-218.88-47.61-299.26C273.08,474.9,356.62,500.02,412.5,526.58z"/>
			<path fill="#363A77" d="M80.06,623.49c0,0,0,0.05,0.05,0.1c0.72,3.83,20.85,106.41,27.73,224.31h293.88
				c4.58-48.06,12.49-98.57,25.67-146.1c13.47-48.37,32.37-93.69,58.68-130.17c0,0-0.86-0.72-2.49-1.96
				c-7.74-6.11-32.9-24.97-71.1-43.07L223.83,792.85c0,0-32.08-218.88-47.61-299.29c-31.51,6.11-64.46,16.71-98.27,33.52
				c0,0-3.58,23.54-0.33,63.12C78.44,600.19,79.3,611.31,80.06,623.49z"/>
			<path fill="#1B2149" d="M216.34,818.17c0,6.57-5.33,11.9-11.9,11.9c-6.57,0-11.91-5.33-11.91-11.9s5.33-11.91,11.91-11.91
				C211.02,806.26,216.34,811.59,216.34,818.17z"/>
			<polygon fill="#C62732" points="254.01,547.16 256.63,571.64 287.54,580.03 308.82,561.29 281.45,526.58 			"/>
			<polygon fill="#EC2439" points="256.63,571.64 211.44,714.92 223.83,792.83 281.42,711.57 287.54,580.03 			"/>
			<polygon fill="#1B2149" points="176.23,493.57 107.16,590.67 160.35,616.51 117.8,669.71 223.83,792.83 			"/>
			<polygon fill="#1B2149" points="412.5,526.58 422.31,643.2 366.57,643.2 381.77,722.91 223.83,792.83 			"/>
			<path fill="#E97F81" d="M247.76,480.46V426.5l103.36,9.88l-0.76,57.18c0,0-47.37,34.29-68.91,33.02
				C281.45,526.58,230.28,510.86,247.76,480.46z"/>
			<path fill="#C4D4DD" d="M247.76,480.46c0,0-1.9,23.57,33.7,46.12l-46.28,34.7c0,0-41.49-33.94-36.96-69.23L247.76,480.46z"/>
			<path fill="#C4D4DD" d="M311.85,580.03l-30.4-53.45c0,0,36.18-7.85,68.91-33.02l35.52,21.44
				C385.88,515.01,386.84,566.85,311.85,580.03z"/>
			<path fill="#501C2A" d="M390.81,317.42c-44.08,63.08-219.41-22.73-219.41-22.73s-34.52-115.89-22.06-146.54
				c5.73-14.18,16.86-32.66,33.61-48.03c10.36,10.55,22.01,27.21,24.59,52.33c0.92,8.35,0.77,17.67-0.76,28.03
				c25.55,4.2,54.01,7.16,66.27,8.31c-2.62-9.31-6.59-25.69-8.07-44.12c-2.01-24.31,0.34-52.19,15.71-72
				c54.67,6.06,102.13,23.39,125.72,48.99C432.4,149.77,434.89,254.34,390.81,317.42z"/>
			<path fill="#F79877" d="M391.64,278.61c3.67-3.53,32.06-26.16,38.29,2.3c6.22,28.47-14.84,67.44-29.68,59.55
				C385.41,332.58,375.86,293.82,391.64,278.61z"/>
			<path fill="#F79877" d="M195.37,290c-3.89-3.27-33.76-23.92-38.04,4.89c-4.28,28.82,19.39,66.28,33.66,57.41
				C205.25,343.43,212.15,304.11,195.37,290z"/>
			<path fill="#F3978D" d="M377.64,433.55c-42.21,41.15-89.39,46.03-153.81,5.63c-62.98-39.54-37.91-275.85-37.91-275.85l5.11-0.8
				c-1.48,37.77-6.21,234.49,52.38,267.2C299.61,461.04,341.78,460.66,377.64,433.55z"/>
			<path fill="#F5B29A" d="M385.89,425c-2.72,3-5.49,5.87-8.26,8.55c-35.86,27.12-78.03,27.5-134.22-3.82
				c-58.59-32.71-53.86-229.44-52.38-267.2l181.5-28.56C372.53,133.96,430.26,376.15,385.89,425z"/>
			<path fill="#501C2A" d="M207.55,152.44c0.92,8.35,0.77,17.67-0.76,28.03c-10.79-1.82-21.11-3.82-29.41-6.07
				c-19.67-5.21-13.27-15.8-15.38-15.8L207.55,152.44z"/>
			<path fill="#501C2A" d="M389.24,127.9l-5.73,25.02l-104.28,36.43c0,0-2.25-0.19-6.17-0.57c-2.62-9.31-6.59-25.69-8.07-44.12
				L389.24,127.9z"/>
			<path fill="#F79877" d="M217.06,297.58l-16.02-14.04l10.55-22.14l55.18-24.7l1.33,56.28
				C268.1,292.99,235.87,256.99,217.06,297.58z"/>
			<path fill="#92232F" d="M217.06,297.58c0,0,16.42-32.32,51.04-4.6c0,0-6.12-14.84-26.42-14.98
				C221.39,277.87,217.06,297.58,217.06,297.58z"/>
			<path fill="#F79877" d="M366.49,284.42l11.92-15.58l-13.66-20.98l-60.35-1.1l11.15,43.17
				C315.55,289.94,340.09,248.32,366.49,284.42z"/>
			<path fill="#92232F" d="M366.49,284.42c0,0-22.44-28.47-50.94,5.52c0,0,3.08-15.76,22.96-19.88
				C358.38,265.94,366.49,284.42,366.49,284.42z"/>
			<path fill="#501C2A" d="M259.45,223.74c0,0,17.3,11.99-1.29,25.28c-18.6,13.28-43.81,2.98-49.36,22.77
				c-5.54,19.79-16.71-5.83-7.28-19.09C210.97,239.45,258.7,232.47,259.45,223.74z"/>
			<g>
				<path fill="#8B491F" d="M340.94,392.27c-0.6,2.38-1.55,4.67-2.86,7.05c-5.88,11.97-18.32,23.34-36.03,23.81
					c-11.99,0.33-23.95-1.31-33.19-8.05c-0.02,0.19-0.02,0.19-0.17-0.05c-6.74-5.13-12.06-13.31-14.45-25.33
					c0,0-3.74-9.39,5.16-11.19c1.47-0.41,3.43-0.48,5.89-0.22c16.17,1.54,39.77,1.88,55.47-5.54c9.33-4.36,15.99-1.82,19.11,4.06
					C342.13,380.71,342.6,386.47,340.94,392.27z"/>
				<path fill="#FFFFFF" d="M339.87,376.81c-14.63,17.64-41.67,24.21-61.56,17.24c-10.96-3.87-16.29-10.27-18.91-15.55
					c1.47-0.41,3.43-0.48,5.89-0.22c16.17,1.54,39.77,1.88,55.47-5.54C330.08,368.39,336.74,370.93,339.87,376.81z"/>
				<path fill="#F16162" d="M338.08,399.32c-5.88,11.97-18.32,23.34-36.03,23.81c-11.99,0.33-23.95-1.31-33.19-8.05
					C282.51,407.66,312.35,393.48,338.08,399.32z"/>
			</g>
			<path fill="#501C2A" d="M307.87,232.86c0,0-13.13,16.46,8.5,23.85c21.63,7.38,42.82-9.72,53.81,7.64
				c10.99,17.36,14.33-10.4,1.49-20.38C358.82,233.97,311.1,241,307.87,232.86z"/>
			<path fill="#F79877" d="M283.58,275.1c-1.97,4.17,0.62,49.9-16.8,61.88c-17.41,11.99,8.85,28.41,22.78,18.04
				c13.92-10.36,12.01-1.6,17.1-2.59c11.14-2.16,8.36-21.61,0.4-22.9C299.11,328.24,283.58,275.1,283.58,275.1z"/>
			<path fill="#F3978D" d="M388.79,326.24c2.41,9.91-5.61,20.37-17.93,23.36s-24.25-2.6-26.66-12.51
				c-2.41-9.9,5.61-20.37,17.93-23.36C374.45,310.73,386.38,316.33,388.79,326.24z"/>
			<path fill="#F3978D" d="M243.44,353.43c-5.3,8.7-18.37,10.42-29.21,3.84c-10.83-6.59-15.3-18.99-10.01-27.7
				c5.3-8.71,18.37-10.43,29.21-3.84C244.26,332.31,248.74,344.71,243.44,353.43z"/>
			<path fill="#672739" d="M280.71,72.66c-5.54-0.58-11.13-1.1-16.76-1.49c-34.71-2.34-61.59,11.18-80.98,28.94
				c10.36,10.55,22.01,27.21,24.59,52.33c0.92,8.35,0.77,17.67-0.76,28.03c25.55,4.2,54.01,7.16,66.27,8.31
				c-2.62-9.31-6.59-25.69-8.07-44.12C262.99,120.35,265.33,92.47,280.71,72.66z"/>
			<path fill="#2E2F63" d="M76.79,847.9h31.06c-6.87-117.91-27.01-220.49-27.73-224.31C83.67,678.56,85.94,755.11,76.79,847.9z"/>
			<path fill="#C62732" d="M179.49,103.82c-5.7,8.44-17.21,16.45-29.59,22.98c-5.1-1.18-13.63-4.6-6.81-13.78
				c9.37-12.58-1.42-14.43,1.6-20.61c3.04-6.22,0.42-9.98-4.95-13.56c-5.39-3.54-5.54-12.02-4.21-18.43
				c1.49-7.05-17.41-27.41-31.39,1.25c-5.84,11.98,5.69,55.07,12.78,78.76c-6.35,1.88-11.11,2.65-12.82,2.06
				c0,0-36.07-107.63,10.46-109.54c46.53-1.91,23.42,29.3,34.53,26.56c11.1-2.75,36.47-7.73,22.92,6.26
				c-13.56,13.99-20.95,23.79-4.22,22.27S194.32,81.96,179.49,103.82z"/>
			<path fill="#EC2439" d="M153.23,127.4c0,0-1.41-0.12-3.33-0.6c12.38-6.52,23.89-14.54,29.59-22.98
				c14.82-21.87,5.04-17.3-11.69-15.78s-9.34-8.29,4.22-22.27c13.56-13.99-11.81-9.01-22.92-6.26c-11.11,2.75,12-28.47-34.53-26.56
				c-46.53,1.91-10.46,109.54-10.46,109.54c1.71,0.6,6.46-0.18,12.82-2.06c2.87,9.51,5,15.91,5,15.91l-41.96,11.69
				c0,0-33.18-124.03,36.94-165.73C286.68-98.66,351.33,29.52,365.54,56.57C379.74,83.62,178.71,129.9,153.23,127.4z"/>
			<g>
				<path fill="#E5CDD8" d="M135.23,199.01c-7.56,12.37-20.94,20.81-36.43,21.35c-24.55,0.82-45.07-18.51-45.85-43.23
					c-0.58-18.78,10.4-35.26,26.53-42.45c-4.43,7.24-6.88,15.8-6.59,24.92c0.79,24.73,21.3,44.06,45.85,43.23
					C124.6,202.62,130.16,201.29,135.23,199.01z"/>
				<path fill="#FBE7D2" d="M141.84,174.07c0.29,9.11-2.15,17.7-6.61,24.94c-5.07,2.28-10.63,3.61-16.49,3.82
					c-24.55,0.83-45.07-18.5-45.85-43.23c-0.29-9.11,2.16-17.67,6.59-24.92c5.08-2.25,10.66-3.61,16.54-3.82
					C120.57,130.01,141.08,149.37,141.84,174.07z"/>
			</g>
			<path fill="#DAC8D8" d="M189.97,168.22c-9.51,2.6-17.61,5.06-23.71,7.37c-5.33,1.99-9.18,3.86-11.14,5.55
				c-1.28,1.09-9.58,8.05-16.59,6.86c-4.59-0.74-8.61-5-9.79-16.61c-0.85-8.58-0.39-18.6,0.75-28.41
				c1.62-14.45,4.61-28.53,6.72-37.37c1.14-4.89,5.61-8.09,10.4-7.49c7.91,1.02,21.72,1.26,41.54-3.8
				c-1.78,8.33-3.75,18.85-4.95,29.56c-1.14,9.81-1.6,19.83-0.75,28.41C183.42,161.95,186.38,166.53,189.97,168.22z"/>
			<path fill="#FDE4CE" d="M401.57,111.22l-0.03,0.03c-1.84,1.77-5.43,3.72-10.37,5.79c-19.14,7.92-58.98,17.5-100.64,27.1
				c-20.78,4.8-42.03,9.57-61.4,14.19c-3.87,0.92-7.66,1.82-11.36,2.73c-3.87,0.95-7.66,1.88-11.27,2.81
				c-0.87,0.21-1.74,0.43-2.58,0.66c-4.9,1.24-9.58,2.48-13.94,3.7c-3.59-1.69-6.55-6.27-7.52-15.93
				c-0.85-8.58-0.39-18.6,0.75-28.41c1.19-10.72,3.16-21.23,4.95-29.56c12.58-3.18,27.59-8.49,45.03-17.12
				c1.1-0.53,2.19-1.08,3.32-1.64c6.69-3.43,13.38-6.46,20-9.14c0.08-0.03,0.14-0.06,0.19-0.1c0.08-0.03,0.14-0.06,0.14-0.06
				l0.03-0.01c14.11-5.78,27.94-10.12,40.77-13.42c0.03,0,0.03-0.03,0.03-0.03c26.91-6.85,49.56-9.06,61.74-9.74
				c6.21-0.35,12.22,2.1,16.5,6.68c0,0.03,0,0.03,0,0.03C389.22,64.11,416.31,96.73,401.57,111.22z"/>
		</g>
	</g>
</g>
</svg>
