<?xml version="1.0" encoding="utf-8"?>
<!-- Generator: Adobe Illustrator 25.2.3, SVG Export Plug-In . SVG Version: 6.00 Build 0)  -->
<svg version="1.1" id="Layer_1" xmlns="http://www.w3.org/2000/svg" xmlns:xlink="http://www.w3.org/1999/xlink" x="0px" y="0px"
	 viewBox="0 0 576 576" enable-background="new 0 0 576 576" xml:space="preserve">
<g>
	<g>
		<defs>
			<circle id="SVGID_1_" cx="288.39" cy="288.01" r="287.61"/>
		</defs>
		<use xlink:href="#SVGID_1_"  overflow="visible" fill="#F9E3D9"/>
		<clipPath id="SVGID_2_">
			<use xlink:href="#SVGID_1_"  overflow="visible"/>
		</clipPath>
		<g clip-path="url(#SVGID_2_)">
			<g>
				<path fill="#BB2026" d="M190.63,686.8l2.9-14.1c16.28-79.21,48.13-129.67,69.2-163.06c1.58-2.49,3.08-4.88,4.51-7.17
					l-3.59-20.39c0,0-30.64,3.02-33.66,3.48c-21.12,33.46-54.5,94.11-72.11,179.81l-3.67,17.83l17.55,3.61H190.63z"/>
				<g>
					<path fill="#81CCB5" d="M229.15,555.63c1.18,17.36,2.3,33.88-0.82,131.17h139.05c3.16-100.42,1.88-119.15,0.42-140.62
						c-0.11-1.6-0.22-3.21-0.33-4.89c-2.47-38.3-35.52-67.36-73.82-64.87c-38.3,2.48-67.34,35.52-64.87,73.82
						C228.91,552.09,229.03,553.86,229.15,555.63z"/>
					<path fill="#81CCB5" d="M23.9,369.56c12.34-6.94,18.17,3.37,25.11,15.71l45.36,80.68l157.67,28.24
						c13.94,2.49,23.22,15.82,20.72,29.76c-2.22,12.41-13.03,21.12-25.21,21.12c-1.5,0-3.02-0.13-4.56-0.4L76.74,514.91
						c-2.87-0.51-6.99-1.71-9.41-3.06c-5.68-1.99-9.24-5.76-12.42-11.43l-50.6-90.01C-2.63,398.07,11.56,376.5,23.9,369.56z"/>
					<path opacity="0.24" fill="#41937A" d="M65.58,490.61c1.62,2.94,4.36,5.09,7.61,5.95c3.14,0.83,8.23,2.22,16.48,4.54
						c20.68,5.79,156.35,30.61,156.35,30.61l0.98,13.37c-1.32-0.03-2.65-0.14-4-0.38L76.74,514.91c-2.87-0.51-5.53-1.51-7.95-2.85
						c-5.68-1.99-10.7-5.97-13.88-11.63l-50.6-90.01c-4.19-7.45-11.86-15.85-8.53-23.07l12.82-0.41L65.58,490.61z"/>
					<path opacity="0.24" fill="#41937A" d="M338.67,642.55c-0.87,34.9,8.15,43.75,16.99,44.24h1.63c3.83-0.22,7.52-1.81,10.2-3.32
						c0.29-9.35,0.54-17.98,0.76-25.94l-15.51-101.84l-9-62.36c-6.09-5.29-13.09-9.53-20.73-12.46
						C325.41,494.49,340.19,580.97,338.67,642.55z"/>
					<path opacity="0.24" fill="#41937A" d="M229.15,555.63c1.18,17.36,2.3,33.88-0.82,131.17h139.82
						c3.12-23.54,9.56-6.81,9.67-25.49c-81.03-44.64-105.36-159.76-108.44-178.8c-25.52,11.61-42.5,38.1-40.59,67.74
						C228.91,552.09,229.03,553.86,229.15,555.63z"/>
					<path fill="#81CCB5" d="M483.63,669.3c-6.11,0-12.08-2.24-16.72-6.39L338.49,548.1c-10.33-9.24-11.22-25.11-1.98-35.44
						c9.24-10.33,25.1-11.22,35.43-1.98l102.39,91.54l57.4-133.86c5.46-12.74,20.22-18.63,32.95-13.17
						c12.74,5.46,18.63,20.21,13.17,32.95L506.7,654.09c-3.19,7.43-9.75,12.87-17.64,14.61C487.26,669.11,485.44,669.3,483.63,669.3
						z"/>
					<path opacity="0.24" fill="#41937A" d="M576.32,465.39c-0.21,0.6-0.41,1.2-0.66,1.79l-71.17,165.96
						c-3.18,7.42-9.74,12.86-17.63,14.61c-1.81,0.4-3.62,0.59-5.43,0.59c-6.11,0-12.08-2.24-16.72-6.39L336.28,527.14
						c-1.94-1.74-3.55-3.72-4.82-5.84c-3.15,9.24-0.71,19.88,7.03,26.8L466.9,662.91c4.65,4.15,10.62,6.39,16.72,6.39
						c1.81,0,3.63-0.2,5.43-0.59c7.89-1.75,14.45-7.18,17.64-14.61l71.16-165.96C581.16,480.46,580.3,472.06,576.32,465.39z"/>
				</g>
				<g>
					<path fill="#E23432" d="M443.7,686.8c1.38-8.92,2.01-15.79,2.28-19.54c0.2-2.7-1.01-5.32-3.23-6.88
						c-15.26-10.68-74.7-18.65-149.89-18.65c-87.25,0-157.97,10.73-158.01,23.98c0,0,0.31,8.21,2.33,21.09H443.7z"/>
					<defs>
						<filter id="Adobe_OpacityMaskFilter" filterUnits="userSpaceOnUse" x="154.37" y="674.58" width="295.31" height="12.22">
							<feColorMatrix  type="matrix" values="1 0 0 0 0  0 1 0 0 0  0 0 1 0 0  0 0 0 1 0"/>
						</filter>
					</defs>
					<mask maskUnits="userSpaceOnUse" x="154.37" y="674.58" width="295.31" height="12.22" id="SVGID_3_">
						<g filter="url(#Adobe_OpacityMaskFilter)">
							<path fill="#FFFFFF" d="M145.09,1074.37c0.55,0,1.08,0.03,1.62,0.08c6.32-92.7,22.21-182.94,46.69-269.34
								c-55.23-51.98-58.54-139.41-58.54-139.41c0.03-13.24,70.76-23.98,158.01-23.98c75.19,0,134.63,7.97,149.89,18.66
								c2.22,1.55,3.42,4.16,3.23,6.87c-1.21,16.65-9.44,94.5-58.65,140.73c24.75,84.35,38.11,173.47,38.61,264.86
								c0.68-0.08,1.37-0.12,2.07-0.12c10.05,0,18.2,8.15,18.2,18.2c0,10.05-8.15,18.2-18.2,18.2c-3.96,0-7.61-1.28-10.6-3.42
								c-2.12,7.69-9.16,13.35-17.53,13.35c-5.82,0-10.98-2.74-14.31-6.99c-3.21,5.18-8.93,8.64-15.47,8.64
								c-7.03,0-13.13-4-16.15-9.83c-2.94,2.02-6.49,3.21-10.32,3.21c-10.05,0-18.2-8.15-18.2-18.2c0-10.06,8.15-18.2,18.2-18.2
								c0.23,0,0.45,0.03,0.68,0.04c10.29-80.89,9.57-162.46-1.92-242.51c-14.42,4.97-30.83,7.74-49.52,7.53
								c-21.1-0.23-39.37-3.84-55.23-9.87c-8.58,82.37-9.07,165.59-1.38,248.46c8.38,1.63,14.72,9,14.72,17.86
								c0,10.05-8.15,18.2-18.2,18.2c-4.96,0-9.45-1.99-12.74-5.21c-3.22,5.12-8.9,8.52-15.39,8.52c-6.3,0-11.84-3.19-15.11-8.05
								c-3.14,5.46-9.02,9.15-15.77,9.15c-8.83,0-16.19-6.28-17.85-14.63c-3.03,2.25-6.77,3.6-10.84,3.6
								c-10.05,0-18.2-8.15-18.2-18.2S135.04,1074.37,145.09,1074.37z"/>
						</g>
					</mask>
					<g opacity="0.47" mask="url(#SVGID_3_)">
						<path fill="#F8A170" d="M449.68,686.8c-29.24-5.81-142.26-24.31-295.31,0H449.68z"/>
					</g>
					<path opacity="0.2" fill="#541212" d="M346.2,686.8h36.48c0.8-13.51,0.83-27.13,0.3-40.61c-11.11-1.24-23.38-2.27-36.6-3.01
						C347.11,657.79,347.13,672.48,346.2,686.8z"/>
					<path opacity="0.2" fill="#541212" d="M276.95,686.8c1.31-12.38,2.39-27.4,2.59-44.99c-12.62,0.16-24.82,0.55-36.42,1.13
						c-0.3,17.49-1.47,32.17-2.8,43.86H276.95z"/>
					<path fill="#E23432" d="M244.69,686.8h36.67c4.61-39.49,7.59-109.75-16.01-206.56l-35.36,5.31
						C253.15,580.59,249.26,650.77,244.69,686.8z"/>
					<path fill="#E23432" d="M350.67,686.8h36.53c5.79-74.18-12.4-153.67-22.84-191.78c-19.63-12.67-41.68-15.98-41.68-15.98
						C323.04,480.13,358.82,593.33,350.67,686.8z"/>
					<path opacity="0.2" fill="#541212" d="M216.71,686.8c-1.87-16.8-1.77-31.81-2.04-41.9c-47.48,4.13-79.48,11.91-79.5,20.81
						c0,0,0.31,8.21,2.33,21.09H216.71z"/>
					<circle fill="#2F1F10" cx="370.52" cy="674.26" r="10.75"/>
					<circle fill="#2F1F10" cx="265.6" cy="674.82" r="10.75"/>
					<path opacity="0.4" fill="#010101" d="M260.53,665.33c-1.28,7.15-1.13,17.72,10.54,18.73c-1.6,0.95-3.47,1.51-5.47,1.51
						c-5.94,0-10.75-4.82-10.75-10.75C254.84,670.71,257.15,667.14,260.53,665.33z"/>
					<path opacity="0.4" fill="#010101" d="M365.38,664.78c-1.28,7.15-1.12,17.73,10.55,18.73c-1.6,0.95-3.47,1.51-5.48,1.51
						c-5.94,0-10.75-4.82-10.75-10.75C359.7,670.15,362,666.59,365.38,664.78z"/>
				</g>
				<g>
					<g>
						<circle fill="#682F7E" cx="438.9" cy="292.49" r="31.3"/>
						<path fill="#753E88" d="M428.01,315.24c0,10.89,8.82,19.72,19.72,19.72c10.89,0,19.72-8.83,19.72-19.72
							c0-10.88-8.83-19.72-19.72-19.72C436.84,295.52,428.01,304.35,428.01,315.24z"/>
						<path fill="#682F7E" d="M177.35,324.06c0-14.62,11.86-26.47,26.48-26.47s26.47,11.85,26.47,26.47s-11.85,26.48-26.47,26.48
							S177.35,338.68,177.35,324.06z"/>
						<path fill="#682F7E" d="M177.35,355.91c0-13.02-10.55-23.58-23.58-23.58s-23.58,10.56-23.58,23.58
							c0,13.02,10.55,23.58,23.58,23.58S177.35,368.93,177.35,355.91z"/>
						<circle fill="#682F7E" cx="176.12" cy="318.68" r="28.54"/>
						<path fill="#682F7E" d="M230.3,377.42c0-19.88-16.11-35.99-35.98-35.99c-19.88,0-35.99,16.11-35.99,35.99
							c0,19.87,16.11,35.98,35.99,35.98C214.19,413.4,230.3,397.3,230.3,377.42z"/>
						<circle fill="#682F7E" cx="222.03" cy="403.48" r="20.68"/>
						<path fill="#682F7E" d="M391.61,350.54c0-17.36,14.08-31.44,31.44-31.44c17.36,0,31.44,14.07,31.44,31.44
							c0,17.36-14.07,31.43-31.44,31.43C405.69,381.97,391.61,367.89,391.61,350.54z"/>
						<path fill="#F0906B" d="M178.6,355.09c0,13.7,11.11,24.81,24.81,24.81c13.71,0,24.82-11.11,24.82-24.81
							c0-13.71-11.11-24.82-24.82-24.82C189.7,330.27,178.6,341.38,178.6,355.09z"/>
					</g>
					<path fill="#F59C7E" d="M296.23,511.02c10.21,0,19.09-7.56,20.47-17.96l10.2-76.93c1.51-11.32-6.46-21.72-17.78-23.22
						c-11.33-1.5-21.72,6.46-23.22,17.78l-10.2,76.94c-1.5,11.32,6.46,21.72,17.79,23.22C294.41,510.96,295.33,511.02,296.23,511.02
						z"/>
					<path fill="#E07E60" d="M318.4,480.82c-8.37-0.88-20.68-3.41-39.71-15.41l7.21-54.73c0.59-4.41,2.53-8.28,5.33-11.32l35,21.82
						L318.4,480.82z"/>
					<g>
						<path fill="#E07E60" d="M397.13,333.72c0,13.71,11.11,24.81,24.81,24.81c13.71,0,24.82-11.11,24.82-24.81
							c0-13.71-11.11-24.82-24.82-24.82C408.24,308.9,397.13,320.01,397.13,333.72z"/>
						<path fill="#D36846" d="M199.65,339.16c0.75-0.14,1.5-0.2,2.24-0.23c-5.57,3.34-8.78,10.04-7.51,16.99
							c1.49,8.12,8.53,13.75,16.29,13.49c-1.55,0.93-3.27,1.61-5.15,1.96c-8.62,1.57-16.91-4.37-18.54-13.26
							C185.37,349.21,191.04,340.73,199.65,339.16z"/>
						<path fill="#F8A17B" d="M212.1,345.57c4.56,66.55,75.11,125.46,134.84,121.6c36.27-2.34,56.69-18.95,69.49-55.43
							c5.3-15.1,14.89-38.37,14.89-57.9c0-34.39-16.55-43.02-29.78-99.27c-6.07-25.78-42.44-73.09-88.52-69.49
							C253.36,189.75,203.83,224.79,212.1,345.57z"/>
						<path fill="#F0906B" d="M346.94,467.18c-59.73,3.85-130.29-55.06-134.84-121.6c-0.29-4.33-0.51-8.54-0.66-12.66
							c20.51-398.06-12.85,3.43,70.15,88.36c51.5,52.7,98.11,25.52,109.2,13.24c15.3-16.96,23.76-54.9,26.05-68.66
							c2.21-13.24-1.26-53.17-4.5-75.38c10.01,26.68,18.99,38.05,18.99,63.38c0,19.53-9.59,42.8-14.89,57.9
							C403.63,448.23,383.21,464.84,346.94,467.18z"/>
					</g>
					<g>
						<path fill="#E57C5D" d="M305.58,220.25c0-16.22-13.15-29.37-29.37-29.37c-16.22,0-29.36,13.15-29.36,29.37
							c0,16.22,13.15,29.36,29.36,29.36C292.43,249.61,305.58,236.46,305.58,220.25z"/>
						<circle fill="#E57C5D" cx="315.51" cy="204.11" r="32.67"/>
						<circle fill="#E57C5D" cx="398.23" cy="226.86" r="27.3"/>
						<circle fill="#E57C5D" cx="368.45" cy="204.11" r="30.61"/>
						<path fill="#682F7E" d="M282.42,197.91c0,18.05,14.63,32.67,32.68,32.67c18.04,0,32.67-14.63,32.67-32.67
							s-14.63-32.67-32.67-32.67C297.05,165.23,282.42,179.86,282.42,197.91z"/>
						<path fill="#E57C5D" d="M389.82,267.53c0,13.48,10.92,24.41,24.4,24.41c13.47,0,24.4-10.93,24.4-24.41
							c0-13.47-10.93-24.4-24.4-24.4C400.75,243.13,389.82,254.06,389.82,267.53z"/>
						<path fill="#682F7E" d="M401.54,197.5c0-16.91-13.71-30.61-30.61-30.61c-16.91,0-30.61,13.7-30.61,30.61
							c0,16.9,13.71,30.61,30.61,30.61C387.84,228.11,401.54,214.4,401.54,197.5z"/>
						<circle fill="#682F7E" cx="419.88" cy="268.78" r="24.4"/>
						<circle fill="#E57C5D" cx="238.85" cy="250.72" r="29.78"/>
						<path fill="#682F7E" d="M431.32,223.97c0-15.08-12.23-27.3-27.3-27.3c-15.08,0-27.3,12.22-27.3,27.3s12.22,27.3,27.3,27.3
							C419.1,251.26,431.32,239.04,431.32,223.97z"/>
						<path fill="#753E88" d="M335.36,160.68c0,23.07,18.71,41.77,41.78,41.77c23.07,0,41.77-18.7,41.77-41.77
							s-18.71-41.78-41.77-41.78C354.07,118.91,335.36,137.61,335.36,160.68z"/>
						<circle fill="#753E88" cx="322.12" cy="135.73" r="38.05"/>
						<path fill="#753E88" d="M246.57,132.55c0,14.39,11.67,26.06,26.06,26.06c14.39,0,26.06-11.67,26.06-26.06
							s-11.67-26.05-26.06-26.05C258.23,106.5,246.57,118.16,246.57,132.55z"/>
						<path fill="#753E88" d="M268.36,157.1c0,21.24-17.23,38.46-38.47,38.46c-21.25,0-38.47-17.22-38.47-38.46
							c0-21.25,17.22-38.47,38.47-38.47C251.13,118.63,268.36,135.85,268.36,157.1z"/>
						<circle fill="#753E88" cx="186.04" cy="197.08" r="45.08"/>
						<circle fill="#753E88" cx="145.92" cy="231.41" r="30.61"/>
						<circle fill="#753E88" cx="147.16" cy="319.51" r="26.89"/>
						<circle fill="#753E88" cx="451.18" cy="288.77" r="25.09"/>
						<path fill="#682F7E" d="M236.92,299.25c0-18.28-14.82-33.09-33.09-33.09s-33.09,14.82-33.09,33.09
							c0,18.27,14.82,33.08,33.09,33.08S236.92,317.52,236.92,299.25z"/>
						<path fill="#682F7E" d="M303.1,212.8c0-16.67-13.52-30.19-30.19-30.19c-16.68,0-30.2,13.52-30.2,30.19
							c0,16.68,13.52,30.2,30.2,30.2C289.58,242.99,303.1,229.47,303.1,212.8z"/>
						<circle fill="#682F7E" cx="233.61" cy="246.3" r="29.78"/>
						<circle fill="#753E88" cx="157.92" cy="269.05" r="38.47"/>
						<path fill="#753E88" d="M235.26,171.02c0,18.73,15.19,33.92,33.91,33.92c18.73,0,33.92-15.19,33.92-33.92
							s-15.19-33.92-33.92-33.92C250.45,137.1,235.26,152.29,235.26,171.02z"/>
						<path fill="#753E88" d="M293.17,156.14c0,18.73,15.19,33.91,33.92,33.91c18.73,0,33.92-15.19,33.92-33.91
							c0-18.73-15.19-33.92-33.92-33.92C308.36,122.22,293.17,137.4,293.17,156.14z"/>
						<path fill="#753E88" d="M198.86,207.01c0,13.94,11.3,25.23,25.24,25.23c13.93,0,25.22-11.3,25.22-25.23
							c0-13.94-11.3-25.23-25.22-25.23C210.16,181.78,198.86,193.07,198.86,207.01z"/>
						<circle fill="#753E88" cx="193.9" cy="243.82" r="31.44"/>
						<circle fill="#753E88" cx="446.21" cy="246.85" r="30.61"/>
						<path fill="#753E88" d="M392.44,197.63c0,19.11,15.5,34.6,34.61,34.6c19.11,0,34.6-15.49,34.6-34.6
							c0-19.12-15.49-34.61-34.6-34.61C407.94,163.02,392.44,178.52,392.44,197.63z"/>
					</g>
					<g>
						<path opacity="0.39" fill="#FFFFFF" d="M399.89,327.65c7.63,1.27,19.85,7.17,10.47,44.67c-9.37,37.5-22.06,69.49-50.19,75
							c-28.12,5.51-67.83-11.03-88.24-50.19c-20.4-39.15-28.12-52.94-16.54-60.11s35.29,20.95,54.6,31.43
							c19.3,10.48,48.53,9.38,64.53-8.27C390.51,342.54,393.27,326.55,399.89,327.65z"/>
						<path fill="#562770" d="M385.35,266.69c-3.08-0.3-30.4-3.24-41.69-14.32l8.11-8.27c7.1,6.97,27.96,10.41,34.71,11.06
							L385.35,266.69z"/>
						<path fill="#562770" d="M267.18,271.25c-0.2,0-0.39,0-0.59,0l0.14-11.58c0.15,0,0.3,0,0.45,0c17.36,0,31.18-11.93,31.32-12.06
							l7.67,8.68C305.46,256.91,289,271.25,267.18,271.25z"/>
						<g>
							<path fill="#F0906B" d="M316.19,319.79c-11.38,10.62-12,28.44-1.38,39.82c10.61,11.37,28.44,11.99,39.81,1.38
								c11.38-10.61,12-28.44,1.38-39.82C345.39,309.8,327.56,309.18,316.19,319.79z"/>
							<path fill="#EC2227" d="M322.81,314.83c-11.37,10.61-11.99,28.44-1.38,39.81c10.61,11.38,28.44,12,39.82,1.38
								c11.37-10.61,11.99-28.44,1.38-39.81C352.01,304.84,334.18,304.22,322.81,314.83z"/>
							<path fill="#D71F27" d="M328.92,342.04c10.62,11.37,28.44,11.99,39.82,1.38c0.14-0.13,0.28-0.27,0.42-0.41
								c-1.34,4.83-3.99,9.36-7.92,13.02c-11.38,10.62-29.21,10-39.82-1.38c-10.48-11.23-10-28.74,0.96-39.39
								C319.85,324.39,321.98,334.59,328.92,342.04z"/>
							<path fill="#EF4754" d="M337.44,322c-0.21,4.78,3.5,8.83,8.28,9.05c4.78,0.21,8.83-3.5,9.04-8.28
								c0.22-4.78-3.49-8.83-8.28-9.04C341.7,313.5,337.65,317.21,337.44,322z"/>
						</g>
						<g>
							<path fill="#010101" d="M387.66,297.51c1.37,11.8-3.65,22.08-11.21,22.96c-7.57,0.88-14.81-7.97-16.18-19.77
								c-1.38-11.8,3.64-22.08,11.21-22.96C379.04,276.87,386.29,285.72,387.66,297.51z"/>
							<path fill="#F3F3F3" d="M374.57,293.71c0.49,4.2-1.3,7.86-3.99,8.17c-2.69,0.31-5.27-2.84-5.76-7.04
								c-0.49-4.2,1.3-7.86,4-8.17C371.5,286.36,374.08,289.52,374.57,293.71z"/>
							<path fill="#010101" d="M299.97,307.44c1.37,11.8-3.65,22.08-11.22,22.96c-7.56,0.88-14.8-7.97-16.18-19.77
								c-1.37-11.8,3.65-22.08,11.22-22.96C291.36,286.79,298.6,295.64,299.97,307.44z"/>
							<path fill="#F3F3F3" d="M287.29,304.47c0.49,4.2-1.3,7.86-3.99,8.17c-2.69,0.31-5.27-2.84-5.76-7.04
								c-0.49-4.2,1.3-7.86,4-8.17C284.23,297.12,286.8,300.27,287.29,304.47z"/>
						</g>
						<g>
							<path fill="#6E1E24" d="M403.19,339.23c0,0-9.92,54.05-18.2,73.63c-5.76,13.63-34.84,49.37-80.52,0.27
								c-44.12-47.43-45.23-68.11-45.23-68.11S339.5,435.19,403.19,339.23z"/>
							<path fill="#FFFFFF" d="M352.46,398.24c-45.22,7.17-63.43-10.47-80.05-24.96c-12.68-19.4-13.16-28.26-13.16-28.26
								s80.25,90.17,143.94-5.79c0,0-2.01,10.98-4.99,24.83C389.68,378.7,375.02,394.66,352.46,398.24z"/>
							<path fill="#C1282D" d="M381.75,418.79c-10.06,15.3-37.32,37.29-77.28-5.66c-1.51-1.62-2.95-3.19-4.35-4.75
								C347.89,399.31,373.81,413.3,381.75,418.79z"/>
							<path fill="#E5E1E1" d="M259.25,345.02c0,0,80.25,90.17,143.94-5.79c0,0-0.75,4.1-2.01,10.44
								c-8.23,14.62-25.88,36.98-57.55,39.19c-38.58,2.69-70.95-24.54-81.69-34.79C259.42,347.94,259.25,345.02,259.25,345.02z"/>
						</g>
						<path fill="#EC2227" d="M223.41,345.57c0,6.24,6.42,11.31,14.34,11.31s14.33-5.06,14.33-11.31c0-6.24-6.41-11.3-14.33-11.3
							S223.41,339.33,223.41,345.57z"/>
						<path fill="#EC2227" d="M397.68,325.16c0,6.24,5.31,11.31,11.86,11.31c6.54,0,11.85-5.06,11.85-11.31
							c0-6.24-5.31-11.3-11.85-11.3C402.99,313.86,397.68,318.92,397.68,325.16z"/>
					</g>
				</g>
				<g>
					<path fill="#E9E8E9" d="M532.53,478.24c5.02-0.52,9.29-4.3,10.21-9.52c5.72-32.54,20.98-58.45,31.08-75.58l2.26-3.83
						c3.23-5.52,1.37-12.61-4.15-15.84c-5.53-3.23-12.62-1.37-15.84,4.15l-2.22,3.76c-10.95,18.58-27.5,46.66-33.95,83.34
						c-1.11,6.3,3.1,12.3,9.41,13.41C530.41,478.31,531.49,478.34,532.53,478.24z"/>
					<path fill="#513333" d="M657.1,500.21c-0.36,0-0.74-0.07-1.09-0.22l-22.79-9.29c-1.48-0.6-2.19-2.29-1.59-3.77
						c0.61-1.48,2.29-2.2,3.77-1.58l22.79,9.28c1.49,0.61,2.2,2.29,1.59,3.77C659.32,499.54,658.24,500.21,657.1,500.21z"/>
					<path fill="#E9E8E9" d="M513.02,472.44c2.67,25.8,25.75,44.56,51.56,41.89c25.8-2.67,44.56-25.75,41.89-51.56
						c-2.67-25.8-25.75-44.56-51.56-41.88C529.1,423.55,510.35,446.64,513.02,472.44z"/>
					<path fill="#DCDBDB" d="M565.18,467.04l40.65,9.71c-1.92,9.67-6.84,18.37-13.83,24.99c-8.6-5.39-23-12.47-32.71-16.62
						c-13.71-5.86-12.25-15.23-12.25-15.23L565.18,467.04z"/>
					<path fill="#613E3E" d="M630.12,503.99c6.62-0.68,12.7-4.78,15.64-11.29c4.37-9.72,0.04-21.15-9.69-25.52L490.53,401.7
						c-9.72-4.37-21.14-0.04-25.52,9.69c-4.37,9.72-0.04,21.15,9.69,25.52l145.54,65.48C623.44,503.84,626.85,504.33,630.12,503.99z
						"/>
					<path fill="#513333" d="M465.01,411.39c0.47-1.04,1.04-2.01,1.66-2.92c-0.31,7.64,3.96,15.06,11.35,18.39l145.54,65.49
						c3.21,1.44,6.62,1.94,9.89,1.6c5.57-0.57,10.73-3.58,13.99-8.39c-0.09,2.4-0.63,4.82-1.68,7.15
						c-2.93,6.51-9.01,10.6-15.64,11.29c-3.27,0.34-6.67-0.16-9.89-1.6l-145.54-65.48C464.97,432.54,460.63,421.11,465.01,411.39z"
						/>
					<path fill="#E9E8E9" d="M605.69,480.43c1.88-0.2,3.74-0.85,5.4-2.01c13.44-9.33,16.68-25.47,16.47-33.53
						c-0.16-6.39-5.48-11.45-11.88-11.28c-6.35,0.17-11.39,5.42-11.28,11.76c0,0.4-0.16,9.61-6.52,14.02
						c-5.26,3.65-6.56,10.87-2.91,16.13C597.46,479.1,601.63,480.85,605.69,480.43z"/>
					<path fill="#DCDBDB" d="M605.77,480.41l-0.08,0.01c-4.06,0.42-8.23-1.32-10.72-4.91c-3.64-5.26-2.35-12.48,2.91-16.13
						c6.36-4.41,6.52-13.62,6.52-14.02c-0.1-6.34,4.93-11.6,11.28-11.76c0,0-0.14,18.52-9.22,29.17
						C600.11,470.21,601.54,477.08,605.77,480.41z"/>
					<path fill="#E9E8E9" d="M590.65,469.26c2.41-0.25,4.75-1.25,6.66-3.02c12.01-11.11,12.96-27.54,11.63-35.5
						c-1.06-6.32-7.03-10.58-13.33-9.52c-6.28,1.04-10.52,6.95-9.54,13.22c0.05,0.39,1.19,9.54-4.5,14.8
						c-4.69,4.35-4.98,11.67-0.63,16.37C583.52,468.39,587.15,469.63,590.65,469.26z"/>
					<path fill="#E9E8E9" d="M570.25,459.73c2.41-0.25,4.76-1.25,6.67-3.02c12.01-11.11,12.96-27.54,11.63-35.5
						c-1.05-6.31-7.01-10.56-13.33-9.52c-6.28,1.05-10.52,6.95-9.54,13.22c0.05,0.39,1.19,9.53-4.5,14.79
						c-4.69,4.35-4.98,11.67-0.63,16.37C563.13,458.86,566.75,460.09,570.25,459.73z"/>
					<path fill="#DCDBDB" d="M561.18,439.7c5.69-5.26,4.56-14.4,4.5-14.79c-0.46-2.95,0.24-5.81,1.75-8.13
						c4.15,0.5,12.04,2.5,14.98,10.63c2.24,6.16,2.05,14.31,1.42,20.42c-1.74,3.14-4,6.16-6.93,8.87c-1.91,1.77-4.26,2.77-6.67,3.02
						c-3.5,0.36-7.12-0.87-9.7-3.65C556.21,451.38,556.49,444.05,561.18,439.7z"/>
					<path fill="#E9E8E9" d="M580.49,530.48c6.34-0.66,11.51-5.74,12.06-12.31c0.63-7.44-4.89-13.97-12.33-14.59
						c-0.68-0.07-33.44-3.05-53.05-15.21c-6.34-3.93-14.67-1.97-18.6,4.37c-3.93,6.35-1.98,14.68,4.37,18.61
						c25.28,15.66,63.41,19.03,65.02,19.16C578.82,530.57,579.66,530.56,580.49,530.48z"/>
					<path fill="#DCDBDB" d="M507.09,496.11c1.03,2.62,2.86,4.95,5.44,6.54c25.28,15.66,63.41,19.03,65.02,19.16
						c0.86,0.07,1.71,0.07,2.54-0.03c5.46-0.56,10.05-4.43,11.56-9.71c0.74,1.88,1.09,3.94,0.91,6.09
						c-0.55,6.58-5.72,11.65-12.06,12.31c-0.83,0.08-1.68,0.09-2.54,0.02c-1.61-0.13-39.74-3.49-65.02-19.16
						C507.67,508.07,505.44,501.79,507.09,496.11z"/>
					<path fill="#DCDBDB" d="M580.95,465.6c-4.35-4.69-4.06-12.02,0.63-16.37c5.69-5.26,4.56-14.4,4.5-14.8
						c-0.98-6.27,3.26-12.18,9.54-13.22c0.43-0.07,0.85-0.12,1.28-0.14c-1.97,3.81,0.01,12.57-2.85,20.17
						c-3.2,8.49-9.73,21.56,2.7,25.43c-1.81,1.48-3.92,2.35-6.1,2.58C587.15,469.63,583.52,468.39,580.95,465.6z"/>
					<path fill="#E9E8E9" d="M528.93,482.44c3.37-0.35,6.62-1.87,9.11-4.54c13.04-14.03,36.3-32.32,36.53-32.5
						c6.29-4.93,7.39-14.04,2.46-20.33c-4.93-6.29-14.03-7.39-20.33-2.46c-1.02,0.8-25.3,19.89-39.87,35.57
						c-5.44,5.86-5.11,15.02,0.74,20.46C520.77,481.6,524.93,482.85,528.93,482.44z"/>
					<path fill="#BBA9A9" d="M438.38,416.6c2.07,20.04,20,34.61,40.04,32.54c20.04-2.07,34.61-20,32.54-40.05
						c-2.08-20.04-20-34.6-40.05-32.53C450.88,378.64,436.31,396.57,438.38,416.6z"/>
					<path fill="#A99898" d="M438.56,407.84c3.2,18.8,20.44,32.15,39.67,30.16c17.06-1.77,30.11-15.02,32.35-31.29
						c0.14,0.79,0.29,1.57,0.37,2.38c2.07,20.04-12.49,37.97-32.54,40.05c-20.04,2.07-37.97-12.49-40.04-32.54
						C438.07,413.62,438.17,410.69,438.56,407.84z"/>
				</g>
				<g>
					<path fill="#682F7E" d="M285.42,121.39c6.9,13.23-19.48,40.63-58.91,61.19c-39.43,20.56-76.99,26.5-83.89,13.26
						c-6.9-13.24,19.47-40.63,58.9-61.19S278.52,108.16,285.42,121.39z"/>
					<path fill="#FAAD73" d="M280.47,111.89c6.9,13.23-19.48,40.63-58.91,61.18c-39.43,20.56-76.99,26.5-83.89,13.26
						c-6.9-13.23,19.47-40.63,58.9-61.18C236.01,104.59,273.56,98.65,280.47,111.89z"/>
					<path fill="#F68A32" d="M275.6,107.05c6.9,13.23-19.47,40.63-58.9,61.19c-39.43,20.56-76.99,26.5-83.89,13.26
						c-6.9-13.24,19.48-40.63,58.9-61.19C231.15,99.76,268.71,93.82,275.6,107.05z"/>
					<path fill="#EA7926" d="M212.85,45.46c0,0,20.91,55.46,32.64,75.47l-83.02,43.29l-55.6-63.51L212.85,45.46z"/>
					<path fill="#EA7926" d="M245.49,120.93c4.02,7.69-11.32,23.62-34.24,35.57c-22.93,11.95-44.77,15.41-48.78,7.72
						c-4.02-7.7,11.32-23.63,34.25-35.58C219.64,116.69,241.48,113.23,245.49,120.93z"/>
					<path fill="#DA6827" d="M153.78,89.13c0.07,0.05,0.39,0.42,0.93,1.08c2.03,0.36,3.21,0.58,3.21,0.58L153.78,89.13z"/>
					<path fill="#DA6827" d="M154.7,90.2c-4.11-0.74-11.77-2.11-20.69-3.64l-27.15,14.15l55.6,63.5c3.85,7.39,24.14,4.5,46.06-6.33
						C193.07,138.35,160.62,97.35,154.7,90.2z"/>
					<path fill="#F68A32" d="M212.85,45.46c5.12,9.82-14.46,30.15-43.72,45.41c-29.26,15.26-57.14,19.66-62.26,9.84
						c-5.12-9.82,14.45-30.15,43.72-45.41C179.85,40.05,207.73,35.64,212.85,45.46z"/>
				</g>
				<g>
					<path fill="#E9E8E9" d="M-12.08,338.68c5.27,0,10.04-3.62,11.28-8.98l4.14-17.92c0.72-3.14,0.11-6.43-1.69-9.09
						c-1.8-2.67-4.63-4.46-7.81-4.95c-9.84-1.53-37.75-6.74-48.57-12.35c-5.67-2.94-12.66-0.73-15.61,4.95
						c-2.95,5.68-0.72,12.66,4.95,15.61c10.85,5.62,30.5,10.04,43.42,12.52l-1.39,6.03c-1.44,6.23,2.44,12.45,8.68,13.89
						C-13.81,338.58-12.94,338.68-12.08,338.68z"/>
					<path fill="#E9E8E9" d="M-48.48,337.03c0,21.62,7.29,34.19,32.26,34.19c24.97,0,20.93,3.28,39.71-7.45
						c17.37-9.93,18.51-29.48,15.52-38.53c-6.72-20.36-24.98-27.37-42.27-27.37c-15.3,0-51.12,12.46-37,16.64
						C-26.15,318.68-34.83,330.68-48.48,337.03z"/>
					<path fill="#DCDBDB" d="M-71.04,292.02c3.72,3.3,10.83,8.43,21.74,11.36c16.96,4.55,28.12,9.52,24.81,16.13
						c-2.63,5.26-11,11.03-16.61,13.18c8.81-6.46,12.16-14.83,0.84-18.18c-0.15-0.05-0.26-0.09-0.4-0.14
						c-9.18-2.31-18.45-5.16-24.74-8.43C-70.52,303.28-72.81,297.33-71.04,292.02z"/>
					<path fill="#E9E8E9" d="M-65.03,362.95c1.02,0,2.07-0.14,3.1-0.43l54.59-15.16c6.17-1.71,9.77-8.1,8.06-14.26
						c-1.71-6.16-8.11-9.77-14.26-8.06l-44.71,12.42l-11.8-28.57c-2.44-5.91-9.21-8.73-15.12-6.28c-5.91,2.44-8.73,9.21-6.29,15.12
						l15.72,38.06C-73.9,360.2-69.62,362.95-65.03,362.95z"/>
					<path fill="#DCDBDB" d="M-85.16,302.61c0.18-0.07,0.35-0.12,0.53-0.19c-1.45,7.32,2.2,18.65,6.37,28.26
						c5.37,12.41,21.09,14.07,32.67,12.83c11.58-1.24,28.54-1.24,28.54-1.24L-47.1,358.4l-14.82,4.11c-1.04,0.29-2.08,0.43-3.1,0.43
						c-4.59,0-8.88-2.74-10.7-7.16l-15.72-38.06C-93.89,311.82-91.07,305.04-85.16,302.61z"/>
					<path fill="#E9E8E9" d="M-45.71,378.66c1.69,0,3.42-0.37,5.03-1.15L-0.7,358.2c5.76-2.78,8.17-9.7,5.39-15.46
						c-2.78-5.76-9.71-8.18-15.46-5.4l-31.2,15.06l-15-21.01c-3.72-5.21-10.95-6.41-16.16-2.69c-5.21,3.72-6.41,10.95-2.69,16.16
						l20.68,28.95C-52.91,376.94-49.36,378.66-45.71,378.66z"/>
					<path fill="#DCDBDB" d="M-73.14,328.7c0.05-0.04,0.1-0.07,0.16-0.1c2.16,7.71,8.94,19.53,17.05,28.55
						c11.17,12.41,55.84-3.31,55.84-3.31l-42.35,24.32c-1.08,0.32-2.18,0.5-3.27,0.5c-3.64,0-7.2-1.72-9.43-4.85l-20.68-28.95
						C-79.54,339.65-78.34,332.42-73.14,328.7z"/>
					<path fill="#DCDBDB" d="M40.59,335.09c-0.83,8.55,8.54,26.75,8.54,26.75l-46.6,21.78v-12.13l26.48-18.48L40.59,335.09z"/>
					<path fill="#F4F4F4" d="M-61.31,337.09c-4.37-6.77-6.92-8.92-9.67-9.6c4.89-2.11,10.77-0.61,13.99,3.9l15,21.01l3.68-1.78
						c0.98,4.38,0.46,7.5-3.36,6.94C-53.03,355.91-54.89,347.02-61.31,337.09z"/>
					<path fill="#E9E8E9" d="M-12.92,405.55c0.72,0,1.46-0.07,2.2-0.21c34.53-6.64,63.58-28.53,64.8-29.46
						c5.09-3.87,6.07-11.14,2.2-16.23c-3.88-5.08-11.14-6.07-16.22-2.2c-0.48,0.36-26.2,19.58-55.16,25.15
						c-6.28,1.21-10.39,7.28-9.18,13.56C-23.21,401.7-18.37,405.55-12.92,405.55z"/>
					<path fill="#E9E8E9" d="M-18.69,387.21c1.9,0,3.81-0.46,5.57-1.43l33.09-18.2c5.61-3.08,7.65-10.12,4.56-15.73
						c-3.08-5.61-10.13-7.65-15.73-4.57l-24.03,13.22L-28,342.46c-3.7-5.22-10.92-6.46-16.14-2.76c-5.22,3.7-6.46,10.92-2.76,16.14
						l18.75,26.47C-25.91,385.49-22.34,387.21-18.69,387.21z"/>
					<path fill="#DCDBDB" d="M-48.12,344.68c-0.08-0.74,6.17-7.67,6.67-5.72c1.72,6.5,8.45,15.9,13.23,24.81
						c6.21,11.58,26.89,7.86,38.05,0c10.09-7.1,24.87-16.26,29.77-36.25c2.07,9.54-0.01,26.4-15.2,35.7
						c-1.02,1.77-2.52,3.3-4.44,4.36l-33.09,18.2c-1.76,0.97-3.68,1.43-5.57,1.43c-3.65,0-7.22-1.72-9.46-4.89l-18.75-26.47
						C-49.3,352.47-49.61,348.24-48.12,344.68z"/>
					<path fill="#F4F4F4" d="M-29.45,347.64c-3.05-4.67-5.45-7.95-7.65-10.04c3.5,0.11,6.92,1.79,9.1,4.87l12.78,18.03l6.71-3.69
						c-0.25,3.15-1.04,5.4-2.74,5.72C-17.88,363.77-23.25,357.15-29.45,347.64z"/>
					<path fill="#F4F4F4" d="M-73.3,315.79c-2.69-5.55-5.52-11.78-8.26-14.03c4.84-0.34,9.56,2.4,11.52,7.13l6.22,15.05
						C-66.83,322.84-71.06,320.41-73.3,315.79z"/>
					<path fill="#DCDBDB" d="M-13.12,321.38c0,0,5.38,2.48,13.03,2.27c7.66-0.21,18.82-5.79,18.82-5.79s-9.1,5.18-13.86,13.65
						c-4.76,8.48-6.41,13.65-6.41,13.65S-8.15,325.31-13.12,321.38z"/>
					<path fill="#DCDBDB" d="M-23.34,388.97c1.54,4.79,5.99,8.04,10.97,8.04c0.72,0,1.46-0.07,2.2-0.22
						c34.53-6.64,63.58-28.53,64.81-29.45c1.52-1.16,2.67-2.63,3.43-4.25c1.48,4.56,0.03,9.73-3.99,12.79
						c-1.22,0.93-30.27,22.82-64.8,29.46c-0.74,0.14-1.48,0.21-2.2,0.21c-5.44,0-10.29-3.85-11.36-9.4
						C-24.77,393.61-24.38,391.12-23.34,388.97z"/>
				</g>
			</g>
		</g>
	</g>
</g>
</svg>
