<?xml version="1.0" encoding="utf-8"?>
<!-- Generator: Adobe Illustrator 25.2.3, SVG Export Plug-In . SVG Version: 6.00 Build 0)  -->
<svg version="1.1" id="Layer_1" xmlns="http://www.w3.org/2000/svg" xmlns:xlink="http://www.w3.org/1999/xlink" x="0px" y="0px"
	 viewBox="0 0 576 576" enable-background="new 0 0 576 576" xml:space="preserve">
<g>
	<g>
		<defs>
			<path id="SVGID_1_" d="M575.62,288c0,159.06-128.94,288-288,288c-159.05,0-288-128.94-288-288c0-159.05,128.94-288,288-288
				C446.67,0,575.62,128.94,575.62,288z"/>
		</defs>
		<use xlink:href="#SVGID_1_"  overflow="visible" fill="#F9E3D9"/>
		<clipPath id="SVGID_2_">
			<use xlink:href="#SVGID_1_"  overflow="visible"/>
		</clipPath>
		<g clip-path="url(#SVGID_2_)">
			<g>
				<path fill="#ED7E67" d="M-337.5,284.75c-0.49-1.36-0.58-2.52-0.58-3.5c0.68-15.25,51.47-68.86,65.36-66.71
					c0,0,13.89,4.76,20.3,12.24c-0.09-11.36-23.5-19.52-23.5-19.52c-13.89-2.14-64.78,51.47-65.36,66.72
					C-341.39,276.59-340.02,280.29-337.5,284.75z"/>
				<path fill="#F4A976" d="M-338.08,281.25c0,0.98,0.09,2.14,0.58,3.5c6.51,12.04,20.98,29.72,35.45,45.94
					c9.71,6.89,27.87,18.45,40.79,18.55c9.23,0.1,16.13,6.7,20.79,13.41c13.21-6.6,26.22-16.13,20.98-26.22
					c-13.01-24.67,9.23-51.47,6.7-67.5c-0.29-1.94-0.78-3.79-1.36-5.63c-4.67-13.79-17.68-25.84-27.49-32.83
					c-4.37-3.11-7.38-3.2-9.42-2.13c-0.78,0.39-1.46,0.87-1.85,1.46c0.29-0.97,0.48-2.04,0.48-3.01c-6.4-7.48-20.3-12.24-20.3-12.24
					C-286.61,212.4-337.4,266.01-338.08,281.25z"/>
				<path fill="#CD394B" d="M-303.16,293.67c5.9-3.3,10.1-8.33,12.32-11.41c2.09-14.11,10.33-20.36,10.33-20.36
					c-0.5,0.74-12.23,20.34-5.63,24.19c6.6,3.86,25.28,1.32,29.11-7.14c4.25-9.4,7.73-9.4,7.73-9.4s-6.91,13.38-11.6,23.52
					c0,0-3.77,11.63-4.18,20.73c0,0-2.16-12.05-0.33-19.98c-7.47,1.02-21.94,1.97-25.13-5.34c-2.42,2.72-7.8,7.82-15.66,9.89
					c-10.93,2.88-14.87-3.94-14.87-3.94S-312.12,298.69-303.16,293.67z"/>
				<path fill="#ED7E67" d="M-302.05,330.69c19.43,21.95,38.85,41.37,38.85,41.37s11.36-3.59,22.73-9.42
					c-4.66-6.7-11.56-13.31-20.79-13.41C-274.18,349.14-292.34,337.59-302.05,330.69z"/>
			</g>
			<path fill="#BECDC7" d="M-212.67,327.16l8.1,21.86l-55.44,37.63l-15.78-13.76C-275.8,372.89-249.09,339.3-212.67,327.16z"/>
			<g>
				<path fill="#ED7E67" d="M641.14,999.17c1.31,0.63,2.45,0.84,3.42,0.94c15.23,0.89,73.79-44.11,73.09-58.15
					c0,0-3.3-14.31-10.08-21.45c11.29,1.27,17,25.39,17,25.39c0.7,14.03-57.86,59.14-73.1,58.14
					C648.85,1003.87,645.32,1002.14,641.14,999.17z"/>
				<path fill="#F4A976" d="M644.56,1000.11c-0.97-0.1-2.11-0.31-3.42-0.94c-11.31-7.71-27.4-23.92-42.04-39.98
					c-5.86-10.37-15.49-29.63-14.25-42.49c0.85-9.18-5.01-16.72-11.2-22.05c7.93-12.46,18.74-24.42,28.25-18.17
					c23.2,15.49,52.15-3.88,67.83,0.28c1.9,0.49,3.68,1.16,5.46,1.93c13.24,6.06,23.87,20.24,29.82,30.72
					c2.64,4.67,2.43,7.67,1.16,9.59c-0.47,0.73-1.02,1.36-1.64,1.68c1-0.19,2.08-0.27,3.05-0.17c6.78,7.14,10.08,21.45,10.08,21.45
					C718.35,955.99,659.79,1001,644.56,1000.11z"/>
				<path fill="#CD394B" d="M635.8,964.09c3.88-5.53,9.33-9.2,12.62-11.08c14.25-0.63,21.32-8.18,21.32-8.18
					c-0.8,0.42-21.49,10.08-24.64,3.11c-3.15-6.97,1.29-25.29,10.1-28.22c9.8-3.26,10.16-6.73,10.16-6.73s-14.02,5.49-24.59,9.12
					c0,0-11.96,2.56-21.05,2.02c0,0,11.77,3.39,19.85,2.39c-1.78,7.33-4.22,21.62,2.72,25.54c-2.96,2.13-8.58,6.96-11.45,14.57
					c-3.99,10.57,2.4,15.19,2.4,15.19S629.89,972.49,635.8,964.09z"/>
				<path fill="#ED7E67" d="M599.09,959.19c-19.83-21.58-37.16-42.9-37.16-42.9s4.74-10.93,11.71-21.64
					c6.19,5.33,12.05,12.87,11.2,22.05C583.61,929.56,593.23,948.82,599.09,959.19z"/>
			</g>
			<path fill="#BECDC7" d="M565.16,930.53l-29.88-28.29l43.84-49.16l32.91,15.77C612.03,868.87,581.73,920.16,565.16,930.53z"/>
			<path fill="#432432" d="M170.51,768.48H55.66c8.48-80.68,21.17-140.07,27.69-167.31c2.62-10.88,4.27-16.61,4.27-16.61
				c-5.24-0.29-10.49-0.68-15.54-1.16c5.25-11.95,9.03-16.32,9.03-16.32c16.03-52.74,50.01-81.58,81.87-97.42
				c37.1-18.35,71.39-19.13,71.39-19.13l-46.42,222.21L170.51,768.48z"/>
			<path fill="#432432" d="M397.05,582.91h-0.1c-59.27,62.43-82.15,128.87-95.8,185.57H165.84c10.81-52.01,22.11-95.73,22.11-95.73
				l152.28-191.33l1.84-2.33l81.78,78.08C414.14,565.62,405.21,574.27,397.05,582.91z"/>
			<path fill="#432432" d="M349.82,420.24c0,0-12.24-9.71-26.81-6.98c-14.57,2.73-54.63,5.16-63.73,19.43l-0.51,3.34l90.95-7.28
				L349.82,420.24z"/>
			<path fill="#BECDC7" d="M187.95,672.75l165.49-229.69c-26.51-8.45-58.85-11.94-95.86-3.2L187.95,672.75z"/>
			<path fill="#E4EAD6" d="M303.89,424.19c0,0-30.45,0.61-45.12,11.83l20.85,21.85L303.89,424.19z"/>
			<path fill="#E4EAD6" d="M330.6,418.42c0,0,19.42,3.84,20.03,13.15c0.61,9.31-10.32,17.8-10.32,17.8l-18.82-9.1L330.6,418.42z"/>
			<path fill="#542828" d="M174.2,131.31c0,0-3.24,126.26-17.81,157.01l86.6-26.71c0,0,29.94-126.26-14.57-140.82
				S174.2,131.31,174.2,131.31z"/>
			<path fill="#432432" d="M445.32,534.28c-16.41-28.83-25.07-68.08-58.33-81.24c-3.63-1.44-6.25-3.73-7.99-6.45l-7.45-0.78
				l-69.83,24.46c0,0-0.02,0.31-0.02,0.83l-0.03,0.09c4.99,10.78,9.7,22.29,13.94,34.44c10.74,30.44,18.82,65.15,23.63,104.94
				c23.95,200.14,186.61,288.28,217.59,303.39l53.93-59.29C610.76,854.68,471.56,715.6,445.32,534.28z"/>
			<path fill="#432432" d="M-276.96,383.82c0,0,0,0.1,0.09,0.2c19.91,38.65,42.93,70.6,67.79,97.02c0.1,0.2,0.29,0.29,0.39,0.39
				c50.5,44.77,136.45,90.52,280.77,101.98c5.05,0.48,10.3,0.87,15.54,1.16c0,0-1.65,5.73-4.27,16.61
				c45.16,0.2,74.98-6.02,74.98-6.02l6.51-126.06c-0.58,0.2-1.26,0.49-1.85,0.58c-221.82,77.4-359.05-137.62-359.05-137.62
				L-276.96,383.82z"/>
			<path fill="#ED7E67" d="M268.17,405.77l49.05-6.12l-1.17,50.89c0,0-3.01,2.33-8.64,5.24c17.39-4.76,27.49-12.43,27.49-12.43
				l1.16-51.09l-67.99,8.55L268.17,405.77z"/>
			<path fill="#FBB98D" d="M268.17,405.77l1.07,53.32c14.86,1.36,27.68-0.39,37.97-3.2c0.1-0.1,0.1-0.1,0.2-0.1
				c5.63-2.91,8.64-5.24,8.64-5.24l1.17-50.89L268.17,405.77z"/>
			<path fill="#F4A976" d="M149.3,396.34c3.4,9.13,10.2,15.93,42.06,29.53c7.19,3.11,18.25,4.18,31.46,3.88
				c26.71-6.89,51.96-19.52,69.54-33.02c24.28-18.55,0.78-41.28,40.5-80.13c39.62-38.85,11.26-112.85,11.26-112.85l38.27-20.01
				c-21.46-52.83-71.86-51.66-80.81-53.22c-33.02-5.72-80.71,0-103.43,11.37c-22.73,11.36-45.45,144.22-55.65,165.88
				C132.3,329.34,145.9,387.22,149.3,396.34z"/>
			<g>
				<path fill="#813823" d="M254.16,342.72c-1.45,11.36-22.86,40.38-51.39,28.48c-28.27-12.06-21.68-47.92-21.68-47.92l4.42,1.08
					l64.66,17.39L254.16,342.72z"/>
				<path fill="#FFFFFF" d="M250.16,341.74c-1.43,5.82-4.45,10.83-9.04,12.26c-12,3.44-49.46-10.24-54.04-15.2
					c-2.83-3.03-2.29-9.72-1.58-14.44L250.16,341.74z"/>
			</g>
			<path fill="#ED7E67" d="M222.82,429.75c45.45-0.87,115.67-18.25,133.25-28.84c22.73-13.69,29.53-98.87,29.53-98.87
				c10.68-55.75,7.09-93.13-3.2-118.29l-38.27,20.01c0,0,28.36,74-11.26,112.85c-39.72,38.85-16.22,61.58-40.5,80.13
				C274.78,410.23,249.52,422.86,222.82,429.75z"/>
			<path fill="#F26B6A" d="M206.42,263.27c14.7,0.81,19.78-53.86,23.35-45.94c3.84,8.54-5.21,86.25-5.21,86.25
				c-11.63,8.82-27.13,4.14-33.89,1.73c-6.75-2.41-18.41-9.4-12.08-24.23C184.91,266.26,191.71,262.47,206.42,263.27z"/>
			<path fill="#6B3013" d="M319.43,207.69l-7.32,11.96c0,0-31.23-31.3-65.91-32.08l8.37-25.71
				C254.58,161.86,314.93,187.97,319.43,207.69z"/>
			<path fill="#6B3013" d="M208.51,173.66l-1.86,23.3c0,0-30.75-0.93-38.67,9.78l-2.33-16.3
				C165.65,190.44,191.75,167.14,208.51,173.66z"/>
			<g>
				<path fill="#642F2F" d="M349.82,208l19.37,14.08l-14.91,46.43l12.45,7.44c15.23-22.48,40.45-64.38,25.99-78.14
					C373.81,179.85,352.59,204.44,349.82,208z"/>
				<path fill="#642F2F" d="M154.36,131.97c10.15,6.31,50.14,12.3,90.88,17.63c41.07-8.41,72.74-40.93,94.88-18.61
					c12.15,12.13,9.23,23.95,2.46,33.33c2.62,1.13,4.46,2.58,5.85,4.53c18.91-15.53,46.59-41.42,52.43-63.91
					c-6.3-4.85-13.22-10.02-20.45-15.04c-16.6,5.67-49.82,16.02-83.81,22.16c-48.75,8.74-73.66-4.37-73.66-4.37
					s98.57-22.65,130.41-35.75c-0.61-0.49-1.08-0.81-1.69-1.14c-38.14-12.3-103.95-24.75-158.09,9.39
					c-13.22,16.66-19.68,26.86-27.22,22.97c-12-5.98-11.08-24.27-11.08-24.27S134.06,119.34,154.36,131.97z"/>
				<path fill="#542828" d="M344.13,203.8l5.69,4.2c2.77-3.56,23.99-28.15,42.9-10.19c14.46,13.75-10.76,55.65-25.99,78.14l2,1.14
					c0,0,23.53-9.55,24.91,0.48c0,0,66.28-64.71,42.29-90.92c-18.14-20.06-33.06-18.93-39.21-17.31c12-4.86,54.44-25.4,9.39-60.5
					c-1.7-1.3-3.39-2.59-5.23-3.89c-5.84,22.49-33.52,48.37-52.43,63.91C357.51,180.66,344.13,203.8,344.13,203.8z"/>
				<path fill="#542828" d="M245.24,149.6c41.37,5.5,83.35,10.19,95.04,13.75c0.92,0.32,1.69,0.65,2.3,0.97
					c6.77-9.39,9.69-21.2-2.46-33.33C317.98,108.67,286.31,141.19,245.24,149.6z"/>
				<path fill="#542828" d="M193.57,80.2c54.14-34.13,119.95-21.68,158.09-9.39c-46.44-28.8-98.42-49.82-125.34-25.72
					C211.88,58.03,201.42,70.33,193.57,80.2z"/>
				<path fill="#7E3C3F" d="M222.95,107.7c0,0,24.91,13.11,73.66,4.37c33.99-6.15,67.2-16.5,83.81-22.16
					c-8.61-6.15-17.68-12.13-27.06-17.95C321.52,85.05,222.95,107.7,222.95,107.7z"/>
			</g>
			<g>
				<path fill="#ED6B62" d="M358.24,305.32c-0.96-20.82,8.01-40.87,24.51-53.86c10.73-7.61,23.73-11.5,32.35,0.08
					c13.71,19.19-1.1,67.89-29,83.01c-10.19,6.23-21.19,1.46-24.64-10.19C359.88,319.28,358.56,312.92,358.24,305.32z"/>
				<path fill="#E9575C" d="M408.69,276.9c0,0-0.01,10.29-3.71,6.03c-3.7-4.26-15.35-16.51-15.62-4.38
					c-0.27,12.13,8.95,22.29-0.13,29.13c-9.08,6.83-9.39,5.17-11.25,1.48c0,0,9.01-2.01,9.24-7.9c0.23-5.89,3.02-9.98,2.55-10.04
					c-0.46-0.07-6.17-6.45-6.17-6.45l-0.66-11.64l4.42-7.1l15.18-1.37C402.54,264.65,408.82,270.06,408.69,276.9z"/>
				<path fill="#CD394B" d="M395.96,262.44c0,0,15.51,3.43,10.32,14.87c-5.19,11.43,4.58-7.94-7.84-8.75
					c-12.42-0.81-11.47-2.55-13.84,4.14c-2.37,6.68,0.01,10.42,6.26,16.92c6.25,6.49-11.33,24.58-13.56,19.94
					c-2.41-5.02,15.21-11.28,10.65-17.07c-4.56-5.79-10.73-15.67-7.37-21.75C383.95,264.65,392.7,261.83,395.96,262.44z"/>
			</g>
			<path fill="#8D311D" d="M273.6,224.67c0,0,22.2,11.85,23.5,23.84c1.11,10.19-18.99-17.85-31.66-14.62
				c-6.87,1.74-4.08,8-7.51,7.98C254.51,241.85,252.88,218.95,273.6,224.67z"/>
			<path fill="#8D311D" d="M190.9,212.45c0,0,20.47,9.3,16.13,15.19c-4.34,5.89-7.75-10.54-21.4-4.96
				c-8.13,3.32-8.68,9.31-10.23,8.99C173.85,231.37,171.68,213.07,190.9,212.45z"/>
			<path fill="#E4EAD6" d="M350.63,431.57c-7.28,4.86-71.02,26.3-71.02,26.3l24.89,55.44l50.18-72.03L350.63,431.57z"/>
			<polygon fill="#E4EAD6" points="240.96,496.32 279.61,457.87 258.77,436.02 			"/>
			<polygon fill="#D0D7C9" points="347.79,439.26 285.47,463.14 304.5,513.31 354.67,441.28 			"/>
			<polygon fill="#D0D7C9" points="240.96,496.32 272.52,459.49 258.77,436.02 			"/>
			<path fill="#6A8F91" d="M187.95,672.75c0,0,0.1-0.1,0.2-0.29c3.59-5.73,61.86-97.11,67.78-105.96
				c6.12-9.12,8.45-56.42,8.45-56.42c6.12-1.85,20.1-28.55,20.1-28.55c-2.23-0.68-9.81-7.68-15.25-12.82l-20,20.68
				c-1.27,5.63,3.79,14.86,7.96,21.17l-35.84,37.1L187.95,672.75z"/>
			<path fill="#42767C" d="M272.93,565.92l-0.48-50.6c16.61-4.86,25.54-16.6,25.54-16.6l-18.36-40.79l-10.39,10.78
				c5.44,5.14,13.01,12.14,15.25,12.82c0,0-13.98,26.71-20.1,28.55c0,0-2.33,47.3-8.45,56.42c-5.93,8.84-64.2,100.23-67.78,105.96
				L272.93,565.92z"/>
			<polygon fill="#432432" points="312.36,604.18 296.63,575.63 340.92,564.75 372.48,450.54 372.19,450.15 349.85,420.24 
				349.75,428.79 354.71,441.31 353.44,443.06 187.95,672.75 			"/>
			<polygon fill="#6F4258" points="258.77,436.02 187.95,672.75 151.54,562.27 186.33,548.92 161.25,527.07 224.37,450.99 
				259.28,432.68 			"/>
			<path fill="#432432" d="M156.97,564.75l30.98,107.99l69.63-232.89l1.17-3.88l-11.36,6.51l-23.8,13.79
				c-1.65,2.43-55.65,70.21-55.65,70.21l23.02,23.03L156.97,564.75z"/>
			<polygon fill="#6F4258" points="321.49,608.84 305.27,578.83 347.42,573.2 378.6,450.54 349.85,420.24 372.48,450.54 
				340.92,564.75 296.63,575.63 312.36,604.18 187.95,672.75 			"/>
			<path fill="#331924" d="M55.66,768.48H39.53c4.19-86.88,15.94-138.61,25.86-167.8c-76.63-3.2-186.56-26.61-274.07-119.26
				c50.5,44.77,136.45,90.52,280.77,101.98c5.05,0.48,10.3,0.87,15.54,1.16c0,0-1.65,5.73-4.27,16.61
				C76.83,628.41,64.14,687.8,55.66,768.48z"/>
			<g>
				<path fill="#EBC01D" d="M182.62,729.41c0.69,0.48,1.48,0.75,2.37,0.88c4.73,0.7,9.33-3.76,10.26-10.04
					c0.92-6.21-2.17-11.88-6.91-12.59c-0.22-0.03-0.52-0.08-0.75-0.03c3.27,1.92,5.22,6.59,4.46,11.7
					C191.18,725.24,186.98,729.61,182.62,729.41z"/>
				<path fill="#FDEA66" d="M178.16,717.72c-0.76,5.18,1.12,9.84,4.46,11.7c4.36,0.2,8.56-4.17,9.44-10.09
					c0.76-5.1-1.19-9.78-4.46-11.7C183.16,707.5,179.03,711.88,178.16,717.72z"/>
			</g>
		</g>
	</g>
</g>
</svg>
