<?xml version="1.0" encoding="utf-8"?>
<!-- Generator: Adobe Illustrator 25.2.3, SVG Export Plug-In . SVG Version: 6.00 Build 0)  -->
<svg version="1.1" id="Layer_1" xmlns="http://www.w3.org/2000/svg" xmlns:xlink="http://www.w3.org/1999/xlink" x="0px" y="0px"
	 viewBox="0 0 576 576" enable-background="new 0 0 576 576" xml:space="preserve">
<g>
	<g>
		<defs>
			<path id="SVGID_1_" d="M575.86,288c0,159.06-128.95,288-288.01,288c-159.05,0-288-128.94-288-288S128.8,0,287.85,0
				C446.91,0,575.86,128.94,575.86,288z"/>
		</defs>
		<use xlink:href="#SVGID_1_"  overflow="visible" fill="#F9E3D9"/>
		<clipPath id="SVGID_2_">
			<use xlink:href="#SVGID_1_"  overflow="visible"/>
		</clipPath>
		<g clip-path="url(#SVGID_2_)">
			<path fill="#F4A976" d="M186.84,493.96c4.27-2.34,10.94-4.37,20.54-5.97c91.37-15.31,43.36-79.31,43.36-79.31l19.31-22.03
				c0,0,26.03-1.01,57.71-1.17c4.91-9.82,10.98-16.43,10.98-16.43s-137.03,14.35-138.25,43.1c-1.17,28.75-22.03,22.84-22.03,22.84
				S170.63,468.84,186.84,493.96z"/>
			<path fill="#DB7749" d="M186.84,493.96c7.15,11.1,19.25,21.6,39.42,28.91c64.91,23.63,128.65-73.23,130.41-75.95
				c-1.17,0.22-17.76,3.15-31.09-22.18c-7.21-13.82-3.26-28.48,2.19-39.26c-31.69,0.16-57.71,1.17-57.71,1.17l-19.31,22.03
				c0,0,48,64-43.36,79.31C197.78,489.59,191.11,491.62,186.84,493.96z"/>
			<g>
				<path fill="#813A1F" d="M172.86,162.16c0,0-2.87,80.76-12.08,101.98c-9.22,21.23,113.84-38.05,113.84-38.05
					S216.01,151.7,172.86,162.16z"/>
				<path fill="#F8A681" d="M160.19,383.12c33.54,24.16,75.13,10.12,91.51,2.2c18.42-8.83,13.72-24.99,37.12-52.8
					c23.4-27.81,3.8-54.29,5.14-78.46c1.38-24.17,33.64-67.18,33.64-67.18s25.37-8.48,57.36-19.1
					c-35.01-66.86-131.01-66.53-167.01-37.18C149.38,186.52,146.91,323.52,160.19,383.12z"/>
				<path fill="#F49454" d="M160.19,383.12c2.84,12.62,6.35,21.73,10.08,25.94c14.93,16.65,90.3,27.69,152.4-6.59
					c64.54-35.62,74.36-156.62,74.36-156.62c3.41-32.59-1.62-58.25-12.07-78.07c-31.99,10.62-57.36,19.1-57.36,19.1
					s-32.26,43-33.64,67.18c-1.34,24.17,18.26,50.65-5.14,78.46c-23.4,27.81-18.69,43.97-37.12,52.8
					C235.32,393.24,193.73,407.28,160.19,383.12z"/>
				<g>
					<path fill="#813823" d="M233.66,352.64c2.37,7.04-14.84,29.28-38.71,21.78c-29.87-9.39-22.91-34.47-23.14-34
						c1.19,0.44,2.38,0.87,3.57,1.29c17.48,6.41,36.05,10.11,54.82,10.88C231.35,352.61,232.5,352.63,233.66,352.64z"/>
					<path fill="#FFFFFF" d="M230.2,352.59c0.13,3.91-1.25,7.55-4.97,8.99c-10.07,4.69-45.71-5.46-49.02-10.21
						c-2.43-2.35-1.66-6.68-0.83-9.66C192.86,348.12,211.43,351.82,230.2,352.59z"/>
				</g>
				<path fill="#A74C27" d="M178.22,188.29c48.79-22.58,154.71,19.03,156.85-12.65c2.15-31.68-89.65-38.1-89.65-38.1
					c50.07-22.95,108.73,12.94,108.73,12.94c12.11-12.96,8.76-25.02-0.56-35.11l-0.05-0.01c-14.72-6.94-33.94-11.68-58.93-12.39
					c-111.3-3.29-149.6,57.09-150.76,58.98C145.29,161.99,155.76,183.43,178.22,188.29z"/>
				<path fill="#F2F3F3" d="M235.53,267.03l46.45,8.18c0,0-1.81,26.03-27.54,22.46C228.71,294.1,235.53,267.03,235.53,267.03z"/>
				<path fill="#F2F3F3" d="M162.41,253.04l36.46,7.06c0,0-1.62,21.54-22.85,18.6C154.79,275.76,162.41,253.04,162.41,253.04z"/>
				<path fill="#F2F3F3" d="M235.43,267.17l46.68,9.06C282.12,276.23,253.74,261.25,235.43,267.17z"/>
				<path fill="#ED906C" d="M205.73,244.85c0.57,1.32,0.7,36.23-17.37,46.33c-18.07,10.09-16.21,26.65,2.56,26.02
					c18.77-0.64,17.34,7.21,22.3,4.47c4.97-2.75,6.04-13.1-1.17-13.6c-7.21-0.5,4.37-32.87,3.94-43.9
					C215.58,253.14,205.73,244.85,205.73,244.85z"/>
				<g>
					<g>
						<path fill="#8E4634" d="M271.06,281.77c-1.29,6.62-7.69,10.96-14.33,9.67c-6.62-1.28-10.96-7.69-9.67-14.32
							c1.28-6.63,7.69-10.96,14.32-9.68C268.01,268.73,272.34,275.15,271.06,281.77z"/>
						<path fill="#704338" d="M263.39,281.34c-0.54,2.79-3.24,4.61-6.02,4.07c-2.79-0.54-4.61-3.23-4.07-6.02
							c0.54-2.79,3.24-4.61,6.02-4.07C262.12,275.85,263.93,278.55,263.39,281.34z"/>
					</g>
					<path opacity="0.7" fill="#F2F3F3" d="M272.49,285.47c-0.44,2.31-2.68,3.81-4.99,3.37c-2.3-0.44-3.82-2.68-3.37-4.99
						s2.68-3.82,4.99-3.37C271.44,280.93,272.94,283.16,272.49,285.47z"/>
				</g>
				<path fill="#F2F3F3" d="M162.41,253.04l36.46,7.06C198.88,260.09,174.59,247.56,162.41,253.04z"/>
				<g>
					<g>
						<path fill="#8E4634" d="M195.96,266.56c-1.28,6.62-7.69,10.96-14.32,9.68c-6.62-1.29-10.96-7.7-9.68-14.33
							c1.29-6.62,7.7-10.96,14.33-9.67C192.92,253.52,197.25,259.94,195.96,266.56z"/>
						<path fill="#704338" d="M188.31,266.12c-0.54,2.79-3.24,4.61-6.02,4.07c-2.78-0.54-4.6-3.23-4.07-6.02
							c0.54-2.79,3.24-4.61,6.02-4.07C187.03,260.64,188.85,263.34,188.31,266.12z"/>
					</g>
					<path opacity="0.7" fill="#F2F3F3" d="M197.06,270.85c-0.44,2.31-2.68,3.82-4.99,3.37c-2.31-0.45-3.82-2.68-3.37-4.99
						c0.44-2.3,2.68-3.82,4.99-3.37C195.99,266.32,197.5,268.54,197.06,270.85z"/>
				</g>
				<path fill="#813A1F" d="M257.7,198.19c-18.16,4.48-29.56,3.18-29.56,3.18c35.02,7.62,79.51,3.91,102.92,1.03
					c6.1,10.23,21.72,41.67-1.44,62.73c0,0,11.8,14.75,4.53,54.66l3.89,5.66c0,0,33.5-18.96,58.45-22.57
					c23.26-3.32,42.26-69.41,13.03-104.33c8.81-1.96,11.71-4.23,26.57,2.47c1.87,0.85,2.17-8.59-15.33-12.97
					c8.79-6.92,16.75-14.77,17.69-15.7c-5.42,4.83-16.1,9.89-25.86,13.89c10.53-20.16,9.57-42.44,9.43-44.07
					c-3.79,23.73-13.49,30.04-20.18,38.91c-1.95-16.3-10.79-48.11-48.25-65.7c9.32,10.08,12.67,22.15,0.56,35.11
					c0,0-58.66-35.89-108.73-12.94c0,0,91.8,6.42,89.65,38.1c-2.15,31.68-108.06-9.93-156.85,12.65
					C178.22,188.29,216.9,194.65,257.7,198.19z"/>
				<g>
					<path fill="#EE7E67" d="M343.59,337.63c2.6-19.33,14.22-36.27,31.58-45.46c11.15-5.2,23.77-6.6,29.76,5.5
						c9.4,19.96-12.39,62.29-40.61,71.53c-10.42,4.02-19.74-2.21-20.97-13.52C342.76,350.75,342.61,344.68,343.59,337.63z"/>
					<path fill="#E9575C" d="M394.79,319.94c0,0-1.74,9.47-4.43,4.93c-2.69-4.55-11.36-17.77-13.65-6.65
						c-2.28,11.11,4.5,22.01-5.01,26.79c-9.5,4.76-9.5,3.18-10.6-0.54c0,0,8.63-0.33,9.83-5.72c1.2-5.39,4.44-8.69,4.03-8.82
						c-0.42-0.14-4.59-6.96-4.59-6.96l1.34-10.82l5.25-5.79l14.21,1.28C391.18,307.63,396.05,313.66,394.79,319.94z"/>
					<path fill="#C46A56" d="M385.49,304.49c0,0,13.7,5.76,7.01,15.41c-6.7,9.66,5.54-6.53-5.76-9.36
						c-11.29-2.83-10.12-4.27-13.43,1.49c-3.3,5.76-1.74,9.59,2.92,16.62c4.67,7.02-14.55,20.72-15.82,16.08
						c-1.38-5.03,15.89-7.84,12.66-13.93c-3.22-6.09-7.24-16.22-3.13-21.25C374.07,304.51,382.6,303.38,385.49,304.49z"/>
				</g>
				<path fill="#ED906C" d="M162.41,253.04c12.17-5.48,36.46,7.06,36.46,7.06s0.61-15.19-14.79-18.41
					C167.98,238.33,162.41,253.04,162.41,253.04z"/>
				<path fill="#ED906C" d="M235.43,267.17c18.31-5.92,46.68,9.06,46.68,9.06s-0.1-17.8-20.85-21.58
					C241.45,251.03,235.43,267.17,235.43,267.17z"/>
				<path fill="#813A1F" d="M289.07,266.13c0,0,0.21,7.74-2.86,6.78c-3.07-0.97-20.19-18.29-39.51-16.94
					c-19.31,1.34-14.93-14.89-14.93-14.89S279.41,236.79,289.07,266.13z"/>
				<path fill="#813A1F" d="M161.7,238.35c0,0-2.61,7.23-0.03,7.29c2.58,0.07,14.91-7.56,28.78-0.17
					c13.87,7.39,15.77-9.29,15.77-9.29S176.86,218.45,161.7,238.35z"/>
			</g>
			<path fill="#F7D5AE" d="M381.62,448.51c6.87,4.22,23.53,16.16,35.89,37.92c1.46-0.19,2.84-0.35,4.22-0.46
				c0.65-0.07,1.34-0.11,1.99-0.15c0.35-0.04,0.69-0.04,1.04-0.04c0.2,0,0.39-0.04,0.54-0.04h0.42
				c-14.93-19.38-31.43-30.94-38.23-35.27c-0.04,0-0.04-0.04-0.04-0.04h-0.07l-0.08-0.04C385.39,449.74,383.51,449.12,381.62,448.51
				z"/>
			<path fill="#FFFFFF" d="M432.02,536.25c-11.9,22.45-27.18,52.74-42.91,87.58c-0.04,0.04,0,0.04,0,0.04
				c-1.11,2.49-2.23,4.95-3.37,7.48c-2.56,5.75-5.12,11.61-7.68,17.57h-341l30.58-61.85l2.26-5.76l29.98-76.76v-0.03l5.06-12.94
				v-0.04l1.57-3.92c-0.54,1.15-1.16,2.38-1.88,3.69c-1.84,3.37-4.22,7.25-7.34,11.36v0.04c-11.05,14.59-30.97,31.93-65.78,39.84
				h-0.04c-9.45,2.16-20.12,3.54-31.91,4.05c9.73-22.64,21.67-44.49,36.39-64.09c23.87-31.82,57.98-49.3,96.92-54.82
				c2.02-0.29,3.86-1.06,5.49-2.15c17.65,1.96,33.45,4.1,45.37,6.37c0,0-27.37,153.25,158.32,7.17c0,0,17.54,2.34,39.56,9.44
				c6.87,4.22,23.53,16.15,35.89,37.92c1.46-0.19,2.84-0.35,4.22-0.46c0.65-0.08,1.34-0.11,1.99-0.15c0.35-0.04,0.69-0.04,1.04-0.04
				c0.2,0,0.39-0.04,0.54-0.04h0.42c6.45,8.37,12.63,18.19,17.58,29.55c-3.22,5.87-7.02,12.86-11.28,20.88V536.25z"/>
			<path fill="#F7D5AE" d="M37.33,648.92h-2.41c-0.12-31.27,0.65-56.02,2.79-67.96l-42.78-16c0.35-3.14,0.65-6.29,0.97-9.44
				c1.21-3.01,2.43-6,3.71-8.99c79.5-3.62,103.57-49.63,109.04-63.78L75.32,581.3L37.33,648.92z"/>
			<path fill="#045473" d="M89.12,554.34c-0.85,4.01-8.42,87.04-9.01,91.25l11.77,3.33H32.16c0.74-29.97,2.44-54.21,5.55-67.96
				c0,0,4.91-25.6,17.13-56.27c15.41-38.89,42.61-85.93,86.3-99.37l34.67,3.57C175.8,428.89,107.36,464.73,89.12,554.34z"/>
			<path fill="#045473" d="M273.51,574.93c-4.86,21.71-1.23,41.18,8,57.77c3.21,5.79,7.15,11.18,11.59,16.22h-81.24
				c9.15-44.21,28.38-121.71,55.73-151.97c0-0.05,0.06-0.05,0.06-0.05c18.29-20.16,42.51-40.75,74.4-57.82l36.43,7.57
				C378.48,446.65,289.46,504.1,273.51,574.93z"/>
			<path fill="#D0B291" d="M353.27,648.92c27.61-16.52,74.55-22.65,74.12-20.92c-0.22,0.85-2.74,9.45-6.58,20.92H353.27z"/>
			<path fill="#F7D5AE" d="M460.08,531.76c-0.08,0.72-0.12,1.11-0.12,1.11l0.04-0.04C460,532.83,460.04,532.45,460.08,531.76z"/>
			<path fill="#F7D5AE" d="M450.6,558.12c-0.96,2.41-1.96,4.8-2.96,7.17c-4.57,10.91-9.4,21.22-14.27,30.94
				c-1.34,2.68-2.73,5.29-4.07,7.86c-3.53,6.72-7.06,13.09-10.55,19.12c-0.84,1.53-1.73,3.03-2.61,4.49
				c-4.56,7.73-9,14.8-13.2,21.21h-1.78c0.02-0.03,0.04-0.07,0.05-0.1c1.12-2.03,2.19-4.03,3.22-6.02c0.04-0.04,0.08-0.12,0.08-0.19
				c1.16-2.19,2.26-4.34,3.3-6.49c0.31-0.54,0.57-1.12,0.84-1.69c0.89-1.8,1.73-3.61,2.54-5.37c0.11-0.27,0.23-0.5,0.34-0.77
				c0.23-0.46,0.42-0.88,0.62-1.31c0.88-1.92,1.72-3.8,2.49-5.68c1.99-4.57,3.76-9.06,5.33-13.43c0.85-2.19,1.61-4.34,2.3-6.49
				c0.73-2.11,1.38-4.22,2-6.29c0.5-1.65,1-3.3,1.42-4.91c0.12-0.31,0.2-0.61,0.27-0.92c0.19-0.65,0.38-1.27,0.54-1.92
				c0.39-1.46,0.76-2.96,1.12-4.42v-0.04c0.38-1.61,0.72-3.15,1.03-4.68c0.16-0.65,0.27-1.27,0.39-1.92
				c0.31-1.42,0.57-2.84,0.81-4.22c0.11-0.46,0.19-0.92,0.23-1.38c0.61-3.45,1.07-6.87,1.42-10.17c0.04-0.5,0.12-0.96,0.16-1.46
				c0.12-1.34,0.23-2.73,0.35-4.07c0.07-1.34,0.15-2.69,0.19-3.99c0.04-0.19,0.04-0.39,0.04-0.57c0.04-0.77,0.08-1.58,0.08-2.34
				c0.08-4.11,0-8.02-0.27-11.82v-0.08c-0.04-0.88-0.12-1.69-0.2-2.53c-0.11-1.49-0.27-3-0.46-4.45v-0.23
				c-0.2-1.46-0.39-2.88-0.61-4.3c-0.12-0.85-0.27-1.69-0.39-2.53c-0.23-1.27-0.46-2.5-0.73-3.69c-0.04-0.19-0.08-0.39-0.16-0.57
				c-0.23-1.23-0.54-2.41-0.84-3.57c-0.04-0.27-0.11-0.57-0.19-0.84c-0.35-1.34-0.73-2.65-1.12-3.92c-0.23-0.77-0.46-1.53-0.69-2.3
				c-0.61-1.92-1.27-3.8-1.96-5.6c-0.04-0.12-0.07-0.23-0.11-0.35c-0.39-1-0.81-1.93-1.19-2.88v-0.04
				c-0.69-1.58-1.38-3.15-2.11-4.65c-0.69-1.53-1.46-3.03-2.23-4.45c-0.5-0.96-1-1.88-1.53-2.8v-0.04c1.46-0.19,2.84-0.35,4.22-0.46
				c0.65-0.08,1.34-0.11,1.99-0.15c0.35-0.04,0.69-0.04,1.04-0.04c0.2,0,0.39-0.04,0.54-0.04h0.42
				c6.45,8.37,12.63,18.19,17.58,29.55c4.65,10.63,8.26,22.57,10.02,35.88c0.2-0.42,0.35-0.84,0.5-1.27
				c-0.16,0.46-0.31,0.92-0.5,1.34C452.44,553.55,451.56,555.86,450.6,558.12z"/>
			<path fill="#F7D5AE" d="M460,532.83c0,0,0.04-0.38,0.08-1.07c-0.08,0.72-0.12,1.11-0.12,1.11L460,532.83z"/>
			<path fill="#F7D5AE" d="M453.32,551.25c0.2-0.42,0.35-0.88,0.5-1.34c-0.16,0.42-0.31,0.85-0.5,1.27
				C453.32,551.21,453.32,551.21,453.32,551.25z"/>
			<g>
				<path fill="#064762" d="M388.42,117.04c2.4,2.96,4.24,5.85,5.46,8.55c13.7,30.36-24.58,97.38-33.34,112.04
					c27.97,23.37,58.97,48.19,58.97,48.19s28.7-90.31,13.26-124.52C426.65,147.76,415.13,133.03,388.42,117.04z"/>
				<path fill="#045473" d="M208.66,141c28.87,7.41,66.75,31.2,101.73,57c0.03,0.04,0.05,0.05,0.05,0.05
					c18.01,13.31,35.26,27.16,50.09,39.58c8.77-14.66,47.04-81.68,33.34-112.04c-1.21-2.7-3.05-5.59-5.46-8.55
					c-40.63-24.4-87.48-39.9-113.6-35.22c-29.59,5.33-52.49,28.47-60.66,45.63C210.4,135.39,208.66,141,208.66,141z"/>
				<path fill="#032636" d="M101.04,138.26c0.85,2.41,2.02,4.86,3.55,7.48l104.01-7.62l55.74,39.04l80.89,56.65l73.62,51.49
					c0.16,0.12,0.27,0.2,0.34,0.24l0.19,0.16c0,0-174.14-229.65-294.07-190.05C125.31,95.65,90.26,108.97,101.04,138.26z"/>
				<path fill="#064762" d="M101.04,138.26c1.27,8.18,5.76,17.6,15.51,28.25c14.48,15.81,35.98,32.36,51.61,42.87
					c2.26-17.75,10.44-58.01,68.24-42.51c14.87,3.99,28.81,10.9,41.42,19.73l67.4,47.21c9.21,5.6,17.65,11.14,25.14,16.31
					c21.46,14.78,44.66,32.19,48.48,35.18c0.16,0.12,0.27,0.2,0.34,0.24h0.04c-2-2.32-21.3-20.42-36.58-37.72
					c-25.77-29.23-68.37-72.95-117.73-105.43c-44.62-29.31-94.76-49.45-142.91-41.42C122.01,100.97,97.33,114.05,101.04,138.26z"/>
			</g>
			<path fill="#FFFFFF" d="M310.75,648.92c-7.75-48.83-10.23-92.72-1.19-115.33c23.07-57.66,115.33-49.01,132.63-17.3
				c8,14.67,15.38,71.92,20.73,132.63H310.75z"/>
		</g>
	</g>
</g>
</svg>
