<?xml version="1.0" encoding="utf-8"?>
<!-- Generator: Adobe Illustrator 25.2.3, SVG Export Plug-In . SVG Version: 6.00 Build 0)  -->
<svg version="1.1" id="Layer_1" xmlns="http://www.w3.org/2000/svg" xmlns:xlink="http://www.w3.org/1999/xlink" x="0px" y="0px"
	 viewBox="0 0 576 576" enable-background="new 0 0 576 576" xml:space="preserve">
<g>
	<g>
		<defs>
			<circle id="SVGID_1_" cx="288.4" cy="288" r="288"/>
		</defs>
		<use xlink:href="#SVGID_1_"  overflow="visible" fill="#F9E3D9"/>
		<clipPath id="SVGID_2_">
			<use xlink:href="#SVGID_1_"  overflow="visible"/>
		</clipPath>
		<g clip-path="url(#SVGID_2_)">
			<g>
				<path fill="#D03D27" d="M138.52,672.45c22.71-46.35,50.95-100.92,77.82-150.48c8.65-15.96,15.42-50.44-0.54-59.09
					c-15.95-8.65-48.58,11.81-57.23,27.76c-18.01,33.23-61.17,113.92-93.04,181.81H138.52z"/>
			</g>
			<g>
				<g>
					<path fill="#FAAF85" d="M280.56,555.13c-2.96-11.68-66.9-83.8-67.99-98.53c4.76-1.49,9.72-2.75,14.76-3.81l8.54-46.99
						c3.77-20.7,23.59-34.43,44.31-30.67c20.7,3.77,34.43,23.59,30.66,44.3l-5.19,28.53c6.68,0.35,10.71,0.74,10.71,0.74
						L280.56,555.13z"/>
				</g>
				<g>
					<path fill="#D03D27" d="M419.98,672.45c-4.3-66.91-9.46-101.77-9.46-101.77s-52.32-106.17-55.21-107.77
						c-5.42-3.02-27.12-13.7-27.12-13.7c-46.64,67-84.81,54.33-108.81,20l-6.64-11.73c0,0-15.11,4.59-24.25,10.73
						c-6.55,4.39-12.04,142.33-12.04,142.33l-7.91,61.92H419.98z"/>
				</g>
				<g>
					<path fill="#B23025" d="M342.67,455.65l66.41,114.78l79.35,49.92l51.2-58.88C539.63,561.47,428.76,482.09,342.67,455.65z"/>
				</g>
				<g>
					<path fill="#E6E6E5" d="M268.99,507.24c-48.61,3.07-70.13-44.89-70.13-44.89c5.33-2.58,10.92-4.92,13.71-5.74
						c-0.33,0.49,1.94,7.04,13.8,19.7c25.41,27.16,71.97,27.35,88.13-27.59c4.35-0.11,9.1-0.06,13.41,0.27
						C325.27,466.82,309.82,504.66,268.99,507.24z"/>
				</g>
				<g>
					<path fill="#E18B5D" d="M235.11,410.05l75.98,7.62c-0.08,0.59-0.12,1.18-0.23,1.78l-3.53,19.42
						c-18.61,3.63-53.26,8.06-78.97,8.35L235.11,410.05z"/>
				</g>
				<g>
					<path fill="#B23025" d="M322.82,672.45h97.16c-4.3-66.91-9.46-101.77-9.46-101.77s-52.32-106.17-55.21-107.77
						c-2.67-1.49-9.29-4.83-15.33-7.85C343.72,487.39,352.86,594.71,322.82,672.45z"/>
				</g>
			</g>
			<g>
				<g>
					<path fill="#E9996E" d="M108.05,241.27c-3.58,18.25,8.03,34.19,25.11,39.24c42.38,12.55,34.49-8.6,38.06-26.85
						c3.58-18.25,14.06-30.71-25.11-39.24C128.74,210.63,111.62,223.02,108.05,241.27z"/>
				</g>
				<g>
					<path fill="#D27A54" d="M119.65,248.22c-0.52-11.07,7.62-20.66,18.21-20.94c3.8-0.1,6.88,0.04,9.39,0.39
						c-0.91-0.01-1.84,0-2.84,0.03c-10.59,0.28-18.73,9.87-18.21,20.94c0.48,10.07,7.97,17.23,17.31,18.81
						c-1.17,0-2.41-0.03-3.76-0.08C129.15,266.85,120.17,259.28,119.65,248.22z"/>
				</g>
				<g>
					<path fill="#E9996E" d="M445.88,267.23c-0.65-18.59-15.56-31.48-33.34-32.54c-44.13-2.63-31.65,16.18-31,34.77
						c0.64,18.59-6.74,33.1,33.34,32.54C432.66,301.75,446.52,285.82,445.88,267.23z"/>
				</g>
				<g>
					<path fill="#D27A54" d="M435.12,273.25c-2.02,10.89-12.13,18.37-22.5,16.23c-3.72-0.77-6.69-1.61-9.05-2.51
						c0.88,0.21,1.79,0.42,2.77,0.62c10.38,2.15,20.49-5.34,22.51-16.23c1.83-9.91-3.82-18.59-12.56-22.26
						c1.14,0.27,2.34,0.57,3.64,0.94C430.12,252.94,437.14,262.36,435.12,273.25z"/>
				</g>
				<g>
					<path fill="#FAAF85" d="M148.31,312.08c12.7,83.21,41.16,110.36,131.38,116.49c75.29,5.12,132.26-49.48,122.62-129.63
						c-7.13-59.31,21.02-206.7-119.12-212.84c-59.99-2.62-110.92,42.93-129.63,127.88C148.69,236.13,144.45,286.82,148.31,312.08z"
						/>
				</g>
				<g>
					<path fill="#E9996E" d="M205.76,142.17c0,0,39.06,18,87.65,18c48.58,0,80.75-9,80.75-9l-10.54-34l-161.6,0.91L205.76,142.17z"
						/>
				</g>
				<g>
					<path fill="#010101" d="M217.94,262.38c0,13.42,6.17,24.31,13.79,24.31c7.62,0,13.8-10.89,13.8-24.31
						c0-13.43-6.17-24.31-13.8-24.31C224.12,238.07,217.94,248.95,217.94,262.38z"/>
				</g>
				<g>
					<path fill="#D27A54" d="M300.82,266.09c-1.53-10.52-3.82-18.97-12.75-23.69c-7.64-4.03-18.74,3.49-20.36,10.51
						c-7.99,34.69-9.28,77.41,17.95,80.16c39.68,4,20.49-45.95,20.49-45.95L300.82,266.09z"/>
				</g>
				<g>
					<path fill="#010101" d="M330.51,264.71c-0.7,13.41,4.89,24.6,12.51,25c7.6,0.4,14.35-10.14,15.05-23.54
						c0.7-13.41-4.89-24.6-12.5-25C337.95,240.77,331.22,251.31,330.51,264.71z"/>
				</g>
				<g>
					<path fill="#E18B5D" d="M304.11,265.71c-0.66-9.86-2.15-18.01-10.66-23.04c-9.26-5.48-18.75,1.51-20.91,7.85
						c-10.65,31.32-15.35,70.68,11.26,75.68c38.79,7.3,23.88-40.59,23.88-40.59L304.11,265.71z"/>
				</g>
				<g>
					<path fill="#FFFFFF" d="M227.37,268.3c-0.34,4.71,2.02,8.71,5.28,8.95c3.26,0.23,6.17-3.39,6.51-8.09s-2.03-8.71-5.29-8.94
						C230.62,259.97,227.71,263.6,227.37,268.3z"/>
				</g>
				<g>
					<path fill="#E9996E" d="M279.25,432.95c-90.22-6.13-120.87-43.79-131.82-121.74c-3.56-25.31,1.25-75.08,6.13-97.23
						c9.23-41.92,26.32-74.22,48.45-95.9l20.08,1.52c0,0-40.11,47.07-58.47,115.62c-30,112,37.83,180.26,109.05,184.59
						c33.72,2.05,73.63-7.39,95.91-44.01c24.79-40.74,30.1-111.91,29.6-171c3.84,35.71,1.39,71.39,4.12,94.13
						C411.95,379.09,354.54,438.07,279.25,432.95z"/>
				</g>
				<g>
					<path fill="#FFFFFF" d="M339.72,272.02c-0.52,4.69,1.7,8.78,4.95,9.13c3.24,0.35,6.29-3.16,6.81-7.84
						c0.52-4.69-1.7-8.77-4.95-9.13C343.29,263.83,340.24,267.34,339.72,272.02z"/>
				</g>
				<g>
					<path fill="#F3A46A" d="M279.69,311.97c0,3.08,4.86,5.58,10.84,5.58c5.98,0,10.83-2.5,10.83-5.58c0-3.09-4.85-5.59-10.83-5.59
						C284.55,306.39,279.69,308.89,279.69,311.97z"/>
				</g>
				<g>
					<path fill="#F3A46A" d="M332.86,313.87c-0.36,6.71,8.28,12.62,19.29,13.21c11.01,0.59,20.23-4.37,20.58-11.08
						c0.36-6.7-8.28-12.62-19.29-13.2C342.44,302.21,333.22,307.17,332.86,313.87z"/>
				</g>
				<g>
					<path fill="#F3A46A" d="M184.84,311.69c-0.36,6.7,8.28,12.62,19.29,13.2c11.01,0.59,20.22-4.37,20.58-11.08
						c0.35-6.71-8.28-12.62-19.29-13.2C194.41,300.02,185.2,304.98,184.84,311.69z"/>
				</g>
				<g>
					<path fill="#E9996E" d="M312.17,395.73c0,0-2.84,8.71-20.6,8.23c-17.76-0.49-20.96-8.98-20.96-8.98
						S291.29,401.17,312.17,395.73z"/>
				</g>
				<g>
					<path fill="#C46128" d="M204.77,107.6c0,0-51.85,17.52-57.53,53.66c-5.67,36.14,0,66.4,0,66.4s41.78-25.19,57.53-60.03
						S204.77,107.6,204.77,107.6z"/>
				</g>
				<g>
					<path fill="#C46128" d="M359.31,126.22c0,0-0.04,33.95,14.33,69c14.37,35.05,26.7,44.22,26.7,44.22s21.67-38.06,12.34-71.81
						c-9.34-33.75-33.23-49.54-33.23-49.54L359.31,126.22z"/>
				</g>
				<g>
					<path fill="#D67028" d="M202.02,118.09c0,0-17.05-26.92-3.15-48.82c13.9-21.91,68.66-14.24,122.32-13.14
						c53.67,1.1,52.45-25.19,52.45-25.19s13.35,8.77,18.79,47.1c5.43,38.34-11.85,59.14-49.76,62.43
						C304.76,143.74,210.55,145.03,202.02,118.09z"/>
				</g>
				<g>
					
						<rect x="220.23" y="206.8" transform="matrix(0.9945 -0.1049 0.1049 0.9945 -20.9433 25.956)" fill="#8A481F" width="32.05" height="10.51"/>
				</g>
				<g>
					<rect x="337.61" y="208.48" fill="#8A481F" width="26" height="10.51"/>
				</g>
				<g>
					<path fill="#C46128" d="M391.99,104.6c-21.01,6.47-65.79,4.74-122.28,3c-61.19-1.88-60.08-25.61-57.84-48.23
						c-5.76,2.3-10.22,5.5-13.01,9.9c-13.9,21.9,3.15,48.82,3.15,48.82c8.54,26.94,102.74,25.66,140.65,22.37
						C370.61,138.03,387.3,126.06,391.99,104.6z"/>
				</g>
				<g>
					<path fill="#FFFFFF" d="M251.91,340.34c0,0,10.4,8.89,36.69,8.45c26.28-0.44,32.85-6.23,32.85-6.23s12.05,39.13-33.4,40.46
						C242.61,384.35,251.91,340.34,251.91,340.34z"/>
				</g>
			</g>
			<defs>
				<filter id="Adobe_OpacityMaskFilter" filterUnits="userSpaceOnUse" x="77.53" y="454.68" width="309.02" height="217.77">
					<feColorMatrix  type="matrix" values="1 0 0 0 0  0 1 0 0 0  0 0 1 0 0  0 0 0 1 0"/>
				</filter>
			</defs>
			<mask maskUnits="userSpaceOnUse" x="77.53" y="454.68" width="309.02" height="217.77" id="SVGID_3_">
				<g filter="url(#Adobe_OpacityMaskFilter)">
					<path fill="#FFFFFF" d="M410.52,570.68c0,0-52.33-106.17-55.21-107.77c-5.43-3.02-27.12-13.7-27.12-13.7
						c-43.52,62.52-79.66,55.67-103.81,26.58c-1.32-5.72-3.98-10.4-8.59-12.9l0,0l-3.05-5.41c0,0-4.67,1.42-10.39,3.74
						c-16.49,2.41-37.16,17.22-43.78,29.43c-29.33,54.1-125.44,234.14-130.68,279.63c-2.08,18.03,10.84,34.34,28.87,36.43
						c1.28,0.14,2.55,0.22,3.81,0.22c16.46,0,30.66-12.34,32.59-29.08c2.43-18.12,40.56-98.09,83.91-181.76
						c-0.4,8.9-0.63,14.45-0.63,14.45l-36.13,282.8c0,0,161.6,57.47,285.1,15.44C428.04,688.05,410.52,570.68,410.52,570.68z"/>
				</g>
			</mask>
			<g mask="url(#SVGID_3_)">
				<g>
					<g opacity="0.35">
						<path fill="#FFFFFF" d="M206.03,672.45c7.03-105.14,14.8-200.59,14.96-202.57l-16.38-1.33c-0.65,8.01-8.26,101.35-15.1,203.9
							H206.03z"/>
					</g>
					<g opacity="0.35">
						<path fill="#FFFFFF" d="M246.08,672.45c3.36-51.65,7.61-115.04,12.92-193.87l-16.39-1.11c-5.34,79.3-9.61,143.04-12.99,194.98
							H246.08z"/>
					</g>
					<g opacity="0.35">
						<polygon fill="#FFFFFF" points="294.01,672.45 295.46,489.27 279.03,489.14 277.58,672.45 						"/>
					</g>
					<g opacity="0.35">
						<path fill="#FFFFFF" d="M339.27,672.45c-4.84-111.5-9.63-215.72-9.72-217.77l-16.41,0.76c0.1,2.04,4.87,105.83,9.69,217.01
							H339.27z"/>
					</g>
					<g opacity="0.35">
						<path fill="#FFFFFF" d="M379.37,672.45c-6.12-110.02-11.75-215.15-11.86-217.24l-16.4,0.88c0.44,8.37,5.89,109.96,11.8,216.36
							H379.37z"/>
					</g>
					<g opacity="0.35">
						<path fill="#FFFFFF" d="M168.65,611.21c-33.21-43.89-37.08-107.61-37.22-110.3l16.4-0.91c0.03,0.61,3.79,61.47,33.93,101.29
							L168.65,611.21z"/>
					</g>
					<g opacity="0.35">
						<path fill="#FFFFFF" d="M154.8,647.04c-32.07-42.37-56.25-85.99-56.49-86.43l14.38-7.94c0.23,0.42,23.88,43.06,55.21,84.45
							L154.8,647.04z"/>
					</g>
					<g opacity="0.35">
						<path fill="#FFFFFF" d="M126.12,672.45h20.97c-32.4-42.72-59.15-61.26-60.28-62.03l-9.27,13.56
							C77.76,624.13,99.12,639.18,126.12,672.45z"/>
					</g>
					<g opacity="0.35">
						<path fill="#FFFFFF" d="M115.44,672.45c29.74-58.28,65.03-120.77,75.35-138.89c21.51,4.14,96.99,15.44,195.76-6.64
							l-3.58-16.03c-111,24.81-193.59,5.61-194.42,5.41l-5.98-1.44l-3.06,5.33c-2.75,4.78-47.35,82.53-82.52,152.26H115.44z"/>
					</g>
					<g opacity="0.35">
						<path fill="#FFFFFF" d="M265.91,583.43c-50.07,0-81.56-7.37-83.67-7.88l3.84-15.98c0.82,0.2,83.42,19.41,194.42-5.41
							l3.58,16.04C338.81,580.31,298.43,583.43,265.91,583.43z"/>
					</g>
					<g opacity="0.35">
						<path fill="#FFFFFF" d="M257.77,631.88c-50.07,0-81.55-7.37-83.67-7.88l3.85-15.96c0.82,0.19,83.41,19.4,194.42-5.42
							l3.58,16.03C330.68,628.77,290.3,631.88,257.77,631.88z"/>
					</g>
					<g opacity="0.35">
						<path fill="#FFFFFF" d="M333.16,672.45c15.22-2.01,30.88-4.5,47.3-8.17l-3.58-16.04c-111.12,24.85-200.24,5.58-201.12,5.38
							l-3.58,16.03c0.87,0.2,6.42,1.4,15.76,2.79H333.16z"/>
					</g>
				</g>
			</g>
			<defs>
				<filter id="Adobe_OpacityMaskFilter_1_" filterUnits="userSpaceOnUse" x="364.16" y="459.05" width="145.45" height="147.5">
					<feColorMatrix  type="matrix" values="1 0 0 0 0  0 1 0 0 0  0 0 1 0 0  0 0 0 1 0"/>
				</filter>
			</defs>
			<mask maskUnits="userSpaceOnUse" x="364.16" y="459.05" width="145.45" height="147.5" id="SVGID_4_">
				<g filter="url(#Adobe_OpacityMaskFilter_1_)">
					<path fill="#FFFFFF" d="M196.71,680.57c0,0-20.72-116.54-19.35-119.53c2.59-5.65,13.74-27.1,13.74-27.1
						c72.1,24.6,97.16-2.34,99.38-40.07c-2.32-5.4-2.95-10.74-0.72-15.48l0,0l-0.74-6.17c0,0,4.61-1.62,10.59-3.15
						c14.71-7.83,40.13-8.13,52.7-2.21c55.67,26.22,239.75,114.36,270.92,147.9c12.35,13.29,11.6,34.1-1.69,46.45
						c-0.95,0.88-1.93,1.69-2.94,2.43c-13.26,9.75-32.01,8.22-43.48-4.12c-12.69-13.16-90.78-55.01-175.27-96.75
						c5.59,6.93,9.07,11.28,9.07,11.28l196.61,206.46c0,0-96.16,142.02-220.57,181.29C252.11,785.52,196.71,680.57,196.71,680.57z"
						/>
				</g>
			</mask>
			<g mask="url(#SVGID_4_)">
				<g>
					<g opacity="0.35">
						<path fill="#FFFFFF" d="M366.5,468.03c0.3,0.46,27.01,41.94,31.9,86.6l11.22,15.26l5.98,0.08
							c0.76-55.03-33.86-108.66-35.34-110.92L366.5,468.03z"/>
					</g>
					<g opacity="0.35">
						<path fill="#FFFFFF" d="M447.98,590.63c0.74-53.13-5.61-102.6-5.68-103.09l-16.29,2.12c0.07,0.48,6.26,48.83,5.54,100.74
							L447.98,590.63z"/>
					</g>
					<g opacity="0.35">
						<path fill="#FFFFFF" d="M486.14,594.12l-16.9,12.43c0.8-53.62,11.38-84.4,11.83-85.69l15.51,5.43
							C496.48,526.55,488.18,551.33,486.14,594.12z"/>
					</g>
					<g opacity="0.35">
						<path fill="#FFFFFF" d="M364.16,508.05l19.88,27.03c29.38,13.42,71.59,33.08,110.7,52.72l14.87-10.93
							C453.64,548.45,389.72,519.49,364.16,508.05z"/>
					</g>
				</g>
			</g>
		</g>
	</g>
</g>
</svg>
