<?xml version="1.0" encoding="utf-8"?>
<!-- Generator: Adobe Illustrator 25.2.3, SVG Export Plug-In . SVG Version: 6.00 Build 0)  -->
<svg version="1.1" id="Layer_1" xmlns="http://www.w3.org/2000/svg" xmlns:xlink="http://www.w3.org/1999/xlink" x="0px" y="0px"
	 viewBox="0 0 576 576" enable-background="new 0 0 576 576" xml:space="preserve">
<g>
	<g>
		<defs>
			<path id="SVGID_1_" d="M576,287.63c0,159.05-128.94,287.99-288,287.99S0,446.68,0,287.63c0-159.06,128.94-288,288-288
				S576,128.57,576,287.63z"/>
		</defs>
		<use xlink:href="#SVGID_1_"  overflow="visible" fill="#F9E3D9"/>
		<clipPath id="SVGID_2_">
			<use xlink:href="#SVGID_1_"  overflow="visible"/>
		</clipPath>
		<g clip-path="url(#SVGID_2_)">
			<g>
				<path fill="#656133" d="M304.56,55.48c0,0,7.64-2.62,4.13-5.23c-3.52-2.62-13.91-8.14-17.74-2.62
					c-3.83,5.52,3.97,7.85,3.97,7.85H304.56z"/>
				<g>
					<path fill="#656133" d="M299.67,47.8c5.96-5.76,13.98-12.03,22.07-15.18c5.45-2.12,15.61-0.94,17.57,5.33
						c1.6,5.12-5.49,10.5-9.68,12.67c-8.22,4.27-18.3,5.09-27.56,4.3c-3.49-0.3-3.53-5.25,0-4.96c8.27,0.7,26.1,0.51,30.35-8.07
						c2.49-5-4.66-5.87-8.85-4.48c-2.46,0.81-4.63,2.44-6.75,3.77c-4.83,3.03-9.26,6.25-13.26,10.13
						C301.14,53.65,297.26,50.14,299.67,47.8L299.67,47.8z"/>
				</g>
				<g>
					<path fill="#656133" d="M296.63,50.78c-3.34-3.95-7.61-6.96-12.7-8.85c-2.75-1.02-5.63-1.73-8.62-1.93
						c-2.58-0.16-12.57,0.06-4.56,6.45c3.37,2.68,10.24,1.8,14.3,1.85c4.38,0.06,8.46,0.31,12.62,1.7c3.29,1.1,1.86,5.89-1.47,4.78
						c-8.52-2.84-18.07,0.08-26.43-3.26c-5.37-2.15-10.22-7.68-6.25-12.88c3.86-5.08,12.77-3.97,18.45-2.58
						c7.98,1.95,14.47,6.36,19.43,12.22C303.53,50.82,298.75,53.29,296.63,50.78L296.63,50.78z"/>
				</g>
			</g>
			<g>
				<path fill="#656133" d="M420.5,180.56l6.11,20.66c0,0,18.69,22.08,3.88,32.92c-14.81,10.84-57.02-23.86-57.02-23.86
					L420.5,180.56z"/>
				<path fill="#424120" d="M342.24,472.14c0,0-26.73-21.87-98.92,1.79l-24.79,17.6l13.96,25.95h91.93L342.24,472.14z"/>
				<path fill="#F47A4E" d="M182.19,273.56c-1.7-0.42-19.95-16.98-36.1,2.55c-16.13,19.54,1.28,68.79,14.02,73.89
					c12.74,5.1,23.36,1.27,24.63-2.12C186.01,344.47,182.19,273.56,182.19,273.56z"/>
				<g>
					<path fill="#A38D6F" d="M167.96,199.46c0,0-21.93,49.92-16.73,89.93c5.21,40,21.08-7.53,21.08-7.53s0.2-52.45,29.25-61.82
						C230.61,210.66,167.96,199.46,167.96,199.46z"/>
					<polygon fill="#A38D6F" points="168.91,353.44 162.73,285.72 152.95,298.41 162.29,350.78 					"/>
				</g>
				<path fill="#A6795A" d="M160.99,789.55c28.08-137.84,19.47-267.14,18.31-273.42c-0.1-0.32-0.11-0.49-0.11-0.49l-20.84,17.98
					c-14.43,11.17-26.84,24.74-36.39,40.29c-0.08,0.14-0.17,0.28-0.26,0.42c-36.52,59.75-52.5,145.45-59.38,215.22H160.99z"/>
				<path fill="#A6795A" d="M420.36,789.55c10.83-88.69,18.63-178.94,15.13-231.46c-2.46-36.94-46.04-58.27-81.06-70.24
					c-76.61-26.18-177.38,16.85-201.46,50.57c-60.71,85-34.34,183.17-10.9,251.12H420.36z"/>
				<path fill="#A6795A" d="M436.32,789.55c4.97-49.02,9.47-89.6,9.47-89.6l-175.5-150.13l-7.42,239.73H436.32z"/>
				<path fill="#A6795A" d="M269.09,789.55l11.79-267.71l-32.16-11.99L94.82,695.26c0,0,6.62,43.05,13.81,94.29H269.09z"/>
				<path fill="#9C6B47" d="M501.97,789.55c0.16-172.21-70.26-250.12-74.7-257.01c-0.21-0.25-0.29-0.4-0.29-0.4l-14.14,22.27
					c-9.12,15.8-15.45,33.07-18.39,51.08c-0.03,0.17-0.06,0.32-0.08,0.49c-12.07,74.86,2.67,140.07,18.32,183.56H501.97z"/>
				
					<rect x="252.08" y="416.6" transform="matrix(-1 -1.224647e-16 1.224647e-16 -1 588.4506 934.0797)" fill="#F8A184" width="84.28" height="100.87"/>
				<path fill="#F8A184" d="M214.15,130.6c46.86-43.02,116.63-43.02,163.48,0c45.09,41.39,54.17,105.56,52.72,156.87
					c1.45,46.94-12.54,103.99-57.63,141.87c-46.85,39.35-111.71,41.01-158.57,1.66c-45.08-37.87-54.16-96.59-52.71-143.53
					C159.99,236.16,169.07,171.98,214.15,130.6z"/>
				<path fill="#F47A4E" d="M245.71,321.18h-28.47C217.24,321.18,228.68,346.77,245.71,321.18z"/>
				<path fill="#8B5522" d="M332.63,323.33l93.45-44.26c0,0,16.09,12.29,4.36,17.21c-11.74,4.92-97.37,46.02-97.37,46.02
					L332.63,323.33z"/>
				<path fill="#68423E" d="M318.32,315.06L318.32,315.06c7.4,0,13.41-6,13.41-13.41v-17.74c0-7.4-6-13.4-13.41-13.4l0,0
					c-7.4,0-13.4,5.99-13.4,13.4v17.74C304.92,309.06,310.91,315.06,318.32,315.06z"/>
				<path fill="#68423E" d="M179.84,315.06L179.84,315.06c7.4,0,13.41-6,13.41-13.41v-17.74c0-7.4-6-13.4-13.41-13.4l0,0
					c-7.4,0-13.41,5.99-13.41,13.4v17.74C166.44,309.06,172.44,315.06,179.84,315.06z"/>
				<path fill="#834A4C" d="M201.53,237.6l-1.1,13.85c0,0-13.94-3.7-33.79,2.67l-0.7-8.78C165.94,245.34,187.1,234.33,201.53,237.6z
					"/>
				<path fill="#834A4C" d="M299.95,237.6l1.11,13.85c0,0,13.94-3.7,33.78,2.67l0.7-8.78C335.54,245.34,314.38,234.33,299.95,237.6z
					"/>
				<path fill="#F47A4E" d="M405.46,290.57c-0.09-9.06,5.33-17.29,13.75-20.63c8.01-3.17,18.1-3.97,26.47,6.16
					c16.14,19.54-1.27,68.79-14.01,73.89c-12.74,5.1-19.19-0.09-21.91-2.49C405.26,343.51,405.65,309.98,405.46,290.57z"/>
				<g>
					<path fill="#68423E" d="M246.78,408.25c28.11,0.22,47.83-26.6,45.82-32.9c-0.92-3.49-6.35-2.03-14.59,0.26
						c-8.19,2.25-19.19,5.29-31.23,5.07c-13.81,0.27-26.2-3.79-34.64-5.99c-6.31-1.68-10.4-2.34-11.18,0.66
						C198.95,381.65,218.68,408.47,246.78,408.25z"/>
					<path fill="#FFFCFD" d="M212.15,374.68l2.84,17.11c28.22,14.73,61.73-0.63,61.73-0.63l1.29-15.56
						c-8.19,2.25-19.19,5.29-31.23,5.07C232.97,380.94,220.58,376.88,212.15,374.68z"/>
				</g>
				<path fill="#F8A184" d="M265.39,515.63c33.61-5.3,53.6-18.11,64.72-28.47L265.39,515.63z"/>
				<path fill="#656133" d="M526.07,789.55c2.58-1.06,3.99-1.68,3.99-1.68s-29.56-163.55-54.03-227.12
					c-20.8-54.18-106.04-72.14-130.75-76.28c-4.33-0.72-6.79-1.01-6.79-1.01l-8.38,3.71c-11.13,10.35-31.11,23.17-64.72,28.47
					l-6.88,273.92H526.07z"/>
				<path fill="#F8A184" d="M243.56,486.93c1.44,10.16,6.4,23.45,21.82,28.7l-13.29-29.81
					C252.09,485.82,248.95,486.11,243.56,486.93z"/>
				<g>
					<path fill="#A38D6F" d="M418.36,195.31c0,0,26.91,49.01,14.96,89.51s-38.14-6.28-38.14-6.28s2.82-52.67-49.83-60.32
						C292.7,210.56,418.36,195.31,418.36,195.31z"/>
					<polygon fill="#A38D6F" points="397.07,350.24 412.49,281.84 429.64,293.99 417.79,354.69 					"/>
				</g>
				<path fill="#A38D6F" d="M180.72,362.58c7.91-40.72,55.71-13.91,55.71-13.91s47.8-26.81,55.71,13.91
					c7.92,40.72,35.94,23.6,35.94,23.6s-8.57,32.64-44.66,15.18c-36.09-17.45-31.44-35.59-46.98-36.49
					c-18.74,2.26-10.87,19.04-46.97,36.49c-36.09,17.45-44.66-15.18-44.66-15.18S172.81,403.3,180.72,362.58z"/>
				<path fill="#656133" d="M290.2,54.62l-45.48,3.74L217.02,68.9l-31.6,24.68l-15.35,30.4c0,0-8,18.29-8.16,19.48
					c-0.17,1.19,1.31,57.77,1.31,57.77l28.53-3.2L290.2,54.62z"/>
				<path fill="#55522A" d="M265.39,515.63l102.67,61.25l-22.78-92.41l-3.03-12.33c0,0-3.23,6.75-12.14,15.03
					C318.98,497.52,299,510.33,265.39,515.63z"/>
				<polygon fill="#55522A" points="368.06,497.13 368.06,576.87 342.24,472.14 				"/>
				<path fill="#656133" d="M426.61,201.22l-258.64-1.76c0,0-50.61,15.66-28.38,37.53C161.82,258.86,356.27,257.4,426.61,201.22z"/>
				<path fill="#656133" d="M162.26,193.63c0.23,2.77,0.55,5.42,0.95,7.59l2.33-0.53c0,0-21.73-144.28,129.33-145.52v-2.18
					C294.87,52.99,142.05,33.83,162.26,193.63z"/>
				<path fill="#656133" d="M427.57,193.63c-0.23,2.77-0.55,5.42-0.96,7.59l-2.33-0.53c0,0,21.74-144.28-129.32-145.52v-2.18
					C294.96,52.99,447.77,33.83,427.57,193.63z"/>
				<path fill="#4F4323" d="M373.47,210.28c33.91-3.83,53.13-9.06,53.13-9.06c0-81.56-58.49-147.71-130.77-148.24
					c-0.58,1.39-0.95,2.18-0.95,2.18S389.99,79.91,373.47,210.28z"/>
				<path fill="#63532F" d="M163.31,201.22c89.75,17,163.72,14.35,210.17,9.06c16.52-130.38-78.59-155.12-78.59-155.12
					s0.37-0.79,0.95-2.18h-0.88C222.23,52.99,163.31,119.33,163.31,201.22z"/>
				<path fill="#656133" d="M426.61,201.22l-25.38,13.07c0,0,2.05-144.86-106.27-159.12l0.08-4.3c0,0,31.56,4.18,32.56,4.38
					c1,0.2,25.98,6.12,25.98,6.12l31.61,13.15l23.37,26.89l15.76,40.83l2.29,31V201.22z"/>
				<path fill="#656133" d="M219.99,789.55l45.39-273.92c-15.42-5.25-20.38-18.54-21.82-28.7c-2.02,0.29-4.43,0.67-7.08,1.15
					c-32.51,5.59-106.09,23.55-124.97,72.67c-24.46,63.57-54.03,227.12-54.03,227.12s0.28,0.62,0.96,1.68H219.99z"/>
				<path fill="#55522A" d="M193.72,576.88l71.66-61.25c-15.42-5.25-20.38-18.54-21.82-28.7c-1.01-7.33-0.24-13.01-0.24-13.01
					l-6.84,14.16L193.72,576.88z"/>
				<polygon fill="#55522A" points="193.73,576.87 198.95,506.25 243.32,473.93 				"/>
				<g>
					<path opacity="0.5" fill="#F1F9FB" d="M322.79,330.71c0,19.01-15.42,34.43-34.44,34.43c-19.01,0-34.42-15.42-34.42-34.43
						s15.41-34.43,34.42-34.43C307.37,296.28,322.79,311.7,322.79,330.71z"/>
					<path opacity="0.5" fill="#F1F9FB" d="M207.21,330.71c0,19.01-15.41,34.43-34.43,34.43c-19.01,0-34.42-15.42-34.42-34.43
						s15.41-34.43,34.42-34.43C191.8,296.28,207.21,311.7,207.21,330.71z"/>
					<g>
						<path fill="#8B5522" d="M172.56,291.36c-22.14,0-40.07,17.95-40.07,40.1c0,22.14,17.93,40.1,40.07,40.1
							c22.14,0,40.1-17.96,40.1-40.1C212.66,309.32,194.7,291.36,172.56,291.36z M172.56,363.85c-17.89,0-32.39-14.5-32.39-32.38
							c0-17.89,14.5-32.39,32.39-32.39c17.89,0,32.42,14.5,32.42,32.39C204.98,349.35,190.45,363.85,172.56,363.85z"/>
						<path fill="#8B5522" d="M287.88,291.36c-22.14,0-40.07,17.95-40.07,40.1c0,22.14,17.93,40.1,40.07,40.1
							c22.13,0,40.1-17.96,40.1-40.1C327.98,309.32,310.02,291.36,287.88,291.36z M287.88,363.85c-17.89,0-32.39-14.5-32.39-32.38
							c0-17.89,14.5-32.39,32.39-32.39c17.89,0,32.42,14.5,32.42,32.39C320.3,349.35,305.77,363.85,287.88,363.85z"/>
						<path fill="#8B5522" d="M248,327.62c-7.4-13.48-28.16-13.9-35.57-0.43c-2.98-1.64-5.25-3.28-8.24-4.92
							c11.29-20.54,40.79-20.54,52.08,0C253.29,323.91,250.99,325.98,248,327.62z"/>
						<rect x="127.95" y="322.4" fill="#8B5522" width="8.24" height="19.35"/>
						<rect x="324.83" y="322.95" fill="#8B5522" width="8.24" height="19.35"/>
					</g>
				</g>
			</g>
		</g>
	</g>
</g>
</svg>
