<?xml version="1.0" encoding="utf-8"?>
<!-- Generator: Adobe Illustrator 25.2.3, SVG Export Plug-In . SVG Version: 6.00 Build 0)  -->
<svg version="1.1" id="Layer_1" xmlns="http://www.w3.org/2000/svg" xmlns:xlink="http://www.w3.org/1999/xlink" x="0px" y="0px"
	 viewBox="0 0 576 576" enable-background="new 0 0 576 576" xml:space="preserve">
<g>
	<g>
		<defs>
			<path id="SVGID_1_" d="M575.63,287.82c0,158.95-128.86,287.82-287.81,287.82C128.86,575.64,0,446.77,0,287.82
				C0,128.86,128.86,0,287.82,0C446.77,0,575.63,128.86,575.63,287.82z"/>
		</defs>
		<use xlink:href="#SVGID_1_"  overflow="visible" fill="#F9E3D9"/>
		<clipPath id="SVGID_2_">
			<use xlink:href="#SVGID_1_"  overflow="visible"/>
		</clipPath>
		<g clip-path="url(#SVGID_2_)">
			<path fill="#F9E3D9" d="M575.63,287.82c0,158.95-128.86,287.82-287.81,287.82C128.86,575.64,0,446.77,0,287.82
				C0,128.86,128.86,0,287.82,0C446.77,0,575.63,128.86,575.63,287.82z"/>
			<g>
				<path fill="#EDB86F" d="M56.77,630.98c35.61-55.54,80.81-117.28,114.53-132.95l0.44-19.57c-37.36,5.9-94.91,87.49-135.4,152.52
					H56.77z"/>
				<path fill="#FED76F" d="M161.65,630.98c4.2-5.93,6.79-9.62,6.79-9.62l2.86-123.33c-33.72,15.66-78.92,77.41-114.53,132.95
					H161.65z"/>
				<path fill="#FED76F" d="M398.61,586.36c5.87,13.26,15.37,28.54,26.9,44.62h116.43c-24.23-34.11-48.88-67.92-69.29-95.62
					c-28.05-38.03-48.11-64.59-48.11-64.59l-2.77,4.18l-13.14,20.01L392.67,562c0.13,6.86,2.15,14.91,5.72,23.83
					C398.47,586.01,398.52,586.18,398.61,586.36z"/>
				<path fill="#FED76F" d="M453.58,630.98c-1.38-16.22-3.03-30.82-4.86-42.85c-0.09-0.57-0.18-1.1-0.26-1.63
					c-0.05-0.57-0.14-1.1-0.22-1.58c-0.09-0.31-0.13-0.62-0.18-0.93c-0.04-0.18-0.04-0.31-0.09-0.44c-0.09-0.57-0.18-1.14-0.26-1.63
					c-6.77-38.69-20.4-68.76-39.09-91.05c-47.27-56.58-126.84-62.35-207.66-28.49c-24.58,10.34-24.23,17.46-36.98,36.01
					c-15.87,23.17-13.14,82.54-9.37,132.59H453.58z"/>
				<path fill="#E4A93C" d="M355.43,421.07c0,0-30.48-20.66-54.76-8.27c-24.29,12.4,26.35,32.55,26.35,32.55l15.5,9.3L355.43,421.07
					z"/>
				<path fill="#E68C63" d="M344.07,377.68c-1.03,5.16-2.07,95.06-2.07,95.06s-81.09,32.04-93.49,36.17
					c-0.5,0.16-0.99,0.2-1.53,0.12c25.17-9.51,83.82-32.7,83.82-32.7s0.95-81.46,1.9-93.74L344.07,377.68z"/>
				<path fill="#FAAA73" d="M332.7,382.59c-0.95,12.28-1.9,93.74-1.9,93.74s-58.65,23.19-83.82,32.7
					c-11.78-2.61-22.28-79.69-22.28-79.69L332.7,382.59z"/>
				<path fill="#FDCA41" d="M355.43,421.07l-108.67,88.34l47.71-16.36l26.18,69.58l62.69-92.31
					C383.34,445.39,355.43,421.07,355.43,421.07z"/>
				<polygon fill="#F8BC4B" points="222.14,484.79 246.6,509.59 233.77,477.13 211.81,449.32 				"/>
				<path fill="#1B4F4A" d="M383.66,630.98c4.5-89.39,45.1-168.58,45.1-168.58l-43.02-6.53c0,0-28.45,73.04-40.54,175.11H383.66z"/>
				<path fill="#1B4F4A" d="M183.43,630.98c-0.07-22.42,0.26-68.49,3.62-106.08l-22.11,0.54c-6.92,11.62-9.96,58.21-11.22,105.54
					H183.43z"/>
				<path fill="#E4A93C" d="M185.98,542.66c0,0,34.1-64.07,60.62-33.07l-24.46-24.8L185.98,542.66z"/>
				<path fill="#E4A93C" d="M248.49,508.91c0,0,48.22-18.6,72.16,53.73l-26.18-69.58L248.49,508.91z"/>
				<path fill="#F8BC4B" d="M355.43,421.07c0,0-29.44,56.14-60.96,71.99l-47.71,16.36L355.43,421.07z"/>
				<path fill="#1B4F4A" d="M186.15,630.98c-1.05-23.95-2.34-69.69,0.93-106.08c1.69-19.31,9.07-58.17,17.51-68.01l-32.02,4.31
					c0,0-23.91,96.09-20.8,169.78H186.15z"/>
				<path fill="#FDCA41" d="M222.14,484.79l-0.46,0.75l-40.89,66.07l16.56-82.66c0,0,6.54-15.16,14.47-19.63L222.14,484.79z"/>
				<g>
					<path fill="#A64D2A" d="M235.54,97.42c0,0,0.54-0.58,1.58-1.71c0.98-1.14,2.58-2.72,4.74-4.56
						c4.31-3.66,11.21-8.26,21.03-11.17c9.85-2.92,22.2-4.22,36.58-1.38c14.36,2.66,30.32,9.22,47.48,17.74c0,0-2.85-2.83-8.38-7.26
						c-5.53-4.37-13.81-10.44-25.24-15.37c-5.72-2.42-12.23-4.48-19.36-5.58c-7.1-1.1-14.99-1.06-22.65,0.63
						c-7.68,1.64-15.26,4.91-21.73,9.78c-3.2,2.49-6.1,5.34-8.53,8.51C238.69,90.28,236.83,93.8,235.54,97.42z"/>
				</g>
				<g>
					<path fill="#A64D2A" d="M388.78,149.84c0,0,0.66-2.31,1.21-6.74c0.49-4.41,0.64-10.98-0.75-19.07
						c-1.38-8.06-4.37-17.57-9.55-27.38c-5.12-9.88-11.59-18.37-22.44-29.23c0,0,1.73,1.82,3.44,6.44
						c1.71,4.62,5.02,8.64,8.18,16.29C375.09,105.65,383.34,116.51,388.78,149.84z"/>
				</g>
				<path fill="#964627" d="M323.4,119.87c0,0-91.45-52.7-143.11,41.33c0,0,31,12.4,51.15-5.16
					c20.15-17.57,87.31-36.68,101.78-21.18C347.68,150.35,323.4,119.87,323.4,119.87z"/>
				<path fill="#964627" d="M407.31,139.73c-3.47,46.25-23.56,101.34-23.56,101.34l-4.96,18.48l-2.23-0.45l-10.41-2.07l-1.57-0.33
					c0,0,16.33-73.94,7.11-85.31c-9.26-11.37-28.44-39.1-28.44-39.1s-5.12-0.21-13.18-0.42c-2.69-0.04-5.75-0.12-9.05-0.16
					c-3.27-0.04-6.82-0.08-10.54-0.08c-5.83-0.05-12.11,0-18.52,0.16c-28.4,0.62-58.94,3.06-63.9,10.79c0,0-7.48,12.82-15.05,20.87
					c-1.12,1.24-2.27,2.36-3.43,3.31l-8.55,84.6l-5.66,3.92l-7.32-90.85l10.66-18.64l-2.11-36.79l30.05-10.13l5.66-17.07
					l106.63,1.07c0,0,3.88-37.32-11.65-44.59c13.06,4.83,72.25,28.89,79.23,71.25C408.01,118.61,408.09,128.94,407.31,139.73z"/>
				<path fill="#FAAA73" d="M382.88,193.54c0,0.7-1.45,16.37-3.35,36.62c-0.12,1.24-0.24,2.52-0.33,3.8
					c-0.66,6.74-1.33,13.85-1.98,21.04c-0.05,0.04-0.05,0.09-0.05,0.09c-0.08,0.94-0.16,1.9-0.24,2.85
					c-0.05,0.41-0.09,0.79-0.12,1.2c-0.21,1.94-0.37,3.92-0.58,5.87v0.12c-0.87,9.38-1.78,18.6-2.52,26.79
					c-1.74,18.02-2.98,31.29-2.98,31.29s-63.03,96.72-64.48,100.6c-1.44,3.85-91.38,12.98-91.38,12.98L195.6,367.8l-1.32-4.96
					l-0.62-2.19l2.93-17.03c0.78-1.12,1.61-2.19,2.56-3.22c-4.84-25.17-2.85-46.37-2.85-46.37l-2.11,11.94
					c-0.87-4.3-2.02-8.85-3.46-13.52c-2.89-9.3,0.53-23.51,4.17-42.78c1.45-7.77,2.94-16.37,4.09-25.79c0-0.29,0.04-0.58,0.09-0.87
					c0.29-2.32,0.54-4.71,0.74-7.15c0.21-2.52,0.41-5.04,0.54-7.68c0.09-0.87,0.12-1.78,0.12-2.69c0.29-4.46,0.37-9.09,0.33-13.85
					c-0.25-23.18,5.79-41.54,12.36-54.64c7.77-15.45,16.28-23.56,16.28-23.56c11.86-15.34,66.51-10.7,103.82-5.45
					c4.13,0.58,8.06,1.15,11.66,1.73c14.5,2.28,24.34,4.22,24.34,4.22s0.62,3.51,1.61,9.13
					C374.45,143.61,382.88,192.05,382.88,193.54z"/>
				<g>
					<path fill="#FFFFFF" d="M264.65,363.12c-9.68,8.13-24.87,14.86-41.05-1.01C242.74,363.93,255.96,363.79,264.65,363.12z"/>
					<path fill="#FFFFFF" d="M275.4,351.37c0,0-0.87,1.32-2.43,3.28c-0.72,0.14-1.44,0.28-2.2,0.44
						c-22.25,4.81-42.65,1.22-54.69-2.1c-1.06-1.46-2.05-3.01-3.08-4.67L275.4,351.37z"/>
					<path fill="#FFFFFF" d="M272.97,354.65c-0.57,0.68-1.21,1.46-1.94,2.27c-1.71,1.93-3.84,4.13-6.38,6.19
						c-8.69,0.68-21.91,0.81-41.05-1.01c-1.1-1.12-2.28-2.38-3.42-3.73c-1.36-1.59-2.74-3.39-4.1-5.39
						c12.03,3.32,32.44,6.91,54.69,2.1C271.53,354.93,272.25,354.79,272.97,354.65z"/>
				</g>
				<path fill="#FFFFFF" d="M200.68,225.17c0,0,5.92,19.02,27.13,13.75c0,0,11.19-5.01,10.2-12.84L200.68,225.17z"/>
				<path fill="#FFFFFF" d="M274.42,227.05l45.88-1.7c0,0-2.91,20.63-28.89,16.26C291.41,241.61,276.12,233.6,274.42,227.05z"/>
				<path fill="#66292E" d="M227.91,232.24c0,4.78-3.03,8.65-6.78,8.65s-6.79-3.87-6.79-8.65c0-4.78,3.04-8.65,6.79-8.65
					S227.91,227.47,227.91,232.24z"/>
				<path fill="#66292E" d="M305.84,234.19c0,4.78-3.04,8.65-6.79,8.65c-3.75,0-6.78-3.87-6.78-8.65c0-4.78,3.03-8.65,6.78-8.65
					C302.81,225.54,305.84,229.41,305.84,234.19z"/>
				<linearGradient id="SVGID_3_" gradientUnits="userSpaceOnUse" x1="218.7241" y1="209.4091" x2="219.2704" y2="225.0694">
					<stop  offset="0.1276" style="stop-color:#D98057"/>
					<stop  offset="1" style="stop-color:#FAAA73"/>
				</linearGradient>
				<path fill="url(#SVGID_3_)" d="M200.68,225.17c0,0-2.24-14.87,8.19-15.11c10.44-0.24,24.04-4.13,29.14,16.02L200.68,225.17z"/>
				<linearGradient id="SVGID_4_" gradientUnits="userSpaceOnUse" x1="296.6667" y1="209.9598" x2="297.3941" y2="226.6899">
					<stop  offset="0.1276" style="stop-color:#D98057"/>
					<stop  offset="1" style="stop-color:#FAAA73"/>
				</linearGradient>
				<path fill="url(#SVGID_4_)" d="M274.42,227.05c0,0-0.97-21.61,23.07-17.48c24.03,4.13,22.82,15.78,22.82,15.78
					S281.11,226.31,274.42,227.05z"/>
				<path fill="#964627" d="M189.14,222.34c0,0,4.82-25.51,43.64-15.18l3.76-5.67v16.4C236.55,217.88,205.4,206.13,189.14,222.34z"
					/>
				<path fill="#964627" d="M332.68,222.34c0,0-6.48-25.51-58.72-15.18l-5.07-5.67v16.4C268.89,217.88,310.81,206.13,332.68,222.34z
					"/>
				<polygon fill="#1D1D1B" points="270.14,224.07 274.42,227.05 320.3,225.35 320.21,223.9 				"/>
				<polygon fill="#1D1D1B" points="200.68,225.17 197.77,222.98 236.37,224.44 238.01,226.08 				"/>
				<path fill="#FAAA73" d="M196.6,343.62c0,0,1.98-16.12-2.4-37.65l2.11-11.94c0,0-1.99,21.2,2.85,46.37
					C198.21,341.43,197.38,342.5,196.6,343.62z"/>
				<path fill="#964627" d="M376.64,257.4l-0.05,0.79l-0.04,0.91l-0.04,0.33l-0.29,5.58v0.12l-1.49,27.98l-1.86,35.51l-1.95,36.87
					l-94.89,115.2l-60.8-5.33L186.1,358.79l-0.7-2.89l2.68-15.21l6.12-34.72c4.38,21.54,2.4,37.65,2.4,37.65
					c0.78-1.12,1.61-2.19,2.56-3.22c1.36,7.36,3.35,15.09,6.12,22.69c5.58,15.3,14.34,30.21,28.11,41.33c0,0,9.59-24.02,30.38,0
					c0,0,2.73-1.33,7.11-3.64c16.95-8.89,58.9-32.32,67.37-50.92c5.29-11.61,15.25-64.6,23.48-84.6c1.53-3.76,3.02-6.4,4.42-8.22
					c0.12-0.17,0.24-0.33,0.37-0.46C372.47,249.34,376.64,257.4,376.64,257.4z"/>
				<path fill="#964627" d="M386.97,128.73v90.64c0,0-28.81,70.76-24.55,45.17c0.09-0.41,0.12-0.87,0.2-1.33
					c3.39-24.3-3.71-93.68-5.07-108.23c-0.17-1.69-0.25-2.64-0.25-2.64c-0.66-0.16-1.36-0.33-2.03-0.54
					c-11.24-3.14-19.23-10.68-25.55-16.71c-8.02-7.64-12.11-14.88-12.11-14.88s-56.01-18.68-79.81-0.99l-5.5-0.09
					c0.12,2.03-0.12,4.18-0.74,6.33c-3.81,13.23-20.05,26.66-20.05,29.39c0,3.22-11.2,51.37-11.2,51.37l-4.26-35.92l7.93-30.13
					l8.06-30.63l56.51-25.62l79.39,1.49l32.61,0.66L386.97,128.73z"/>
				<path fill="#964627" d="M351.76,93.54l-34.13,26.66c0,0-56.01-18.69-79.81-0.98c-1.67,1.19-3.12,2.61-4.44,4.18
					c-0.6,0.68-1.19,1.36-1.84,2.05c-6.82,7.04-16.94,11.69-27.55,14.72c-22.99,6.57-48.46,5.63-48.46,5.63
					c16-6.4,19.19-70.38,93.85-98.11c58.99-21.93,88.69,19.45,98.58,37.75C350.52,90.3,351.76,93.54,351.76,93.54z"/>
				<path fill="#8C4628" d="M330.8,135.72c0,0-3.39-2.32-9.79-4.01c-4.22-1.12-9.76-1.98-16.45-1.65
					c-3.81,0.12-8.02,0.66-12.61,1.74c-9.76,2.27-21.16,6.9-33.98,15.45c-19.76,13.14-34.56,16.58-44.97,16.21
					c-13.6-0.41-19.8-7.23-19.8-7.23s29.84-23.4,43.89-46.17c14.92-24.18,75.43-16.83,90.56,15.09c1.03,2.15,1.86,4.38,2.4,6.73
					C330.39,133.11,330.64,134.4,330.8,135.72z"/>
				<g>
					<path fill="#E68C63" d="M372.71,290.46c-1.57-2.6-2.77-5.37-3.67-8.18c0.2,0.54,0.54,1.04,0.83,1.57
						c11.61,19.71,34.42-33.07,29.06-54.1c-0.87-3.35-2.24-5.5-3.97-6.65c4.17-0.12,7.64,2.15,9.3,8.64
						C410.08,254.55,385.32,311.84,372.71,290.46z"/>
					<path fill="#FAAA73" d="M369.86,283.85c-0.29-0.54-0.62-1.04-0.83-1.57c-3.35-9.96-3.18-20.75-2.19-29.14
						c1.19-10.13,6.82-19.25,15.34-24.92c4.17-2.81,8.76-5.04,12.77-5.12c1.73,1.15,3.1,3.3,3.97,6.65
						C404.29,250.79,381.47,303.57,369.86,283.85z"/>
					<path fill="#E68C63" d="M390.05,237.04c-10.56-3.6-13.84,23.62-13.84,23.62c1.47-6.07,3.18-10.47,4.82-13.66
						c-0.37,5.47-0.24,17.45,7.56,20.59c0,0-7.28-5.03-4.85-23.6c0.15-1.15,0.67-2.26,1.48-3.1c0.1-0.1,0.2-0.21,0.3-0.3
						c1.21-1.18,2.91-1.78,4.58-1.52c8.52,1.33,6.87,10.8,6.87,10.8S400.61,240.63,390.05,237.04z"/>
				</g>
				<path fill="#E68C63" d="M362.63,263.22c-0.33,0.62-0.62,1.33-0.91,2.03c-8.23,20.01-18.19,73-23.48,84.6
					c-8.47,18.6-50.42,42.04-67.37,50.92c16.33-12.32,52.99-41.45,59.77-59.76c8.81-23.81,24.8-84.74,26.87-93
					c2.07-8.27-6.73-86.8-6.73-86.8s-16.54-1.07-24.8-17.61c-3.1-6.2-9.13-9.84-15.49-11.98c3.71,0,7.27,0.04,10.54,0.08
					c4.3,1.15,7.27,2.57,8.72,3.39c6.32,6.03,15.16,12.36,26.41,15.5c0.75,1.03,1.54,2.11,2.28,3.18
					C359.78,168.33,366.02,238.92,362.63,263.22z"/>
				<path fill="#8C4628" d="M312.29,338.82c0.91,7.19-15.71,25.75-36.79,26.45c-6.61,0.25-13.64-1.33-20.75-5.58
					c-5-2.97-10.05-7.36-14.96-13.39c0,0-8.18,6.53-18.77,11.53c-2.64,1.28-5.49,2.48-8.35,3.39c-2.44,0.83-4.96,1.44-7.4,1.86
					c-3.81,0.58-7.53,0.62-11-0.25c-2.93-0.66-5.7-1.98-8.18-4.05c-1.4-1.2-2.69-2.64-3.88-4.34c-12.11-17.4,2.11-27.69,2.11-27.69
					s1.33,8.18,3.76,13.92c2.03,4.88,4.92,8.02,8.52,2.93c0.78-1.12,1.61-2.19,2.56-3.22c7.03-8.18,17.24-14.42,23.64-17.77
					c3.6-1.95,5.95-2.98,5.95-2.98l25.59,0.7c0,0,1.49,1.49,3.88,3.64c8.35,7.6,27.94,23.72,35.96,16.24
					c9.42-8.72-4.92-16.29-6.29-16.99C289.8,323.61,310.96,327.95,312.29,338.82z"/>
				<path fill="#E68C63" d="M243.69,228.27c0,0,1.41,46.25-12.36,54.57c-12.8,7.73-16.06,11.42-16.79,20.53
					c-0.73,9.11,6.59,27.6,22.98,19.59c16.39-8.01,17.48,8.74,26.95-3.64c9.47-12.38,7.64-19.3-3.28-23.31
					C250.27,292,255.71,258.49,243.69,228.27z"/>
				<path fill="#8C4628" d="M348.2,62.52c-2.06-1.04-16.53,17.05,6.2,41.85c22.73,24.8,26.35,68.19,26.35,68.19
					S415.88,96.62,348.2,62.52z"/>
			</g>
		</g>
	</g>
</g>
</svg>
