<?xml version="1.0" encoding="utf-8"?>
<!-- Generator: Adobe Illustrator 25.2.3, SVG Export Plug-In . SVG Version: 6.00 Build 0)  -->
<svg version="1.1" id="Layer_1" xmlns="http://www.w3.org/2000/svg" xmlns:xlink="http://www.w3.org/1999/xlink" x="0px" y="0px"
	 viewBox="0 0 576 576" enable-background="new 0 0 576 576" xml:space="preserve">
<g>
	<g>
		<defs>
			<path id="SVGID_1_" d="M576.36,287.95c0,159.03-128.92,287.96-287.96,287.96c-159.03,0-287.95-128.92-287.95-287.96
				C0.45,128.92,129.38,0,288.4,0C447.44,0,576.36,128.92,576.36,287.95z"/>
		</defs>
		<use xlink:href="#SVGID_1_"  overflow="visible" fill="#F9E3D9"/>
		<clipPath id="SVGID_2_">
			<use xlink:href="#SVGID_1_"  overflow="visible"/>
		</clipPath>
		<g clip-path="url(#SVGID_2_)">
			<g>
				<path fill="#F8A083" d="M107.19,644.86c-0.06,0.8,0.38,2.2,1.26,4c0.71,1.49,1.7,3.29,2.97,5.29
					c9.39,15.23,31.53,42.49,37.13,45.63c2.25,1.25,5.44,14.13,7.86,32.95c1.79,13.97,3.14,44.41,3.37,74.67H362
					c0.94-17.73,3.48-35.78,8.24-54.5c0.83-3.24,2.8-6.09,4.23-9.14c0.66-1.6,1.37-3.14,2.03-4.69c0.44-0.9,0.83-1.85,1.26-2.9
					c0.33-0.84,0.71-1.79,1.05-2.79c0,0,0-0.05,0.05-0.1c2.8-8.29,5.17-20.92,4.18-39.25v-0.15c-0.83-14.28-3.68-31.85-10-53.57
					c1.1-0.4,2.25-0.8,3.4-1.3l0.06-0.05c0.16-0.05,0.27-0.1,0.44-0.14c0.17-0.05,0.27-0.1,0.44-0.16c1.15-0.45,2.36-0.95,3.57-1.49
					c1.65-0.75,3.35-1.55,5.06-2.4l2.14-1.05c1.1-0.55,2.2-1.15,3.35-1.75c8.57-4.54,17.8-10.14,26.97-16.13
					c3.29-13.48,4.89-22.27,4.89-24.52c0,0,9.51-31.95-8.67-60.51c-0.17-0.3-0.33-0.6-0.55-0.9c-0.11-0.1-0.22-0.25-0.27-0.4
					c-1.76-2.64-3.79-5.24-6.04-7.84c-0.11-0.1-0.22-0.25-0.33-0.35c-1.37-1.49-2.85-3-4.44-4.39c-0.17-0.1-0.28-0.2-0.39-0.3
					c-2.58-1.7-5.6-2.9-8.79-3.2c-10.33-1-24.83,6.19-25.16,54.52c-0.11,15.82,2.86,40.54,7.58,69.79
					c-0.99-4.39-2.03-8.93-3.24-13.68c-0.77-2.7-1.54-5.39-2.47-8.19c-18.46-58.32-0.66-93.36,13.35-110.29
					c-2.2-1.25-4.12-2.3-5.44-3c-8.24-4.5-17.3-8.04-26.97-10.64c-3.46-0.95-6.97-1.79-10.55-2.5
					c-21.14,25.96-67.4,73.94-127.38,84.58c-4.56,0.8-8.73,1.25-12.47,1.3c-0.83,0.05-1.59,0.05-2.36,0.05c-0.6,0-1.21,0-1.81-0.05
					c-38.01-1.45-27.41-41.79-16.15-68.9c0.06-0.15,0.11-0.3,0.22-0.45c0.33-0.8,0.66-1.6,0.99-2.4c1.21-2.94,2.53-5.64,3.68-8.14
					c-5,1.7-9.89,3.59-14.45,5.84c-0.93,0.45-1.86,0.9-2.74,1.35l-0.11,0.05c-0.88,0.45-1.7,0.9-2.53,1.35
					c-6.65,3.65-28.64,37.03-31.93,45.07c-13.79,33.35-26.79,77.69-30.08,93.08v0.05C103.4,644.51,107.35,643.21,107.19,644.86z"/>
				<path fill="#F8A083" d="M173.8,807.4c4.54-22.92,9-47.18,13.03-66.93c-51.08-4.99-76.95-18.57-87.55-26.01
					c-3.63,31.03-6.71,63.87-9.16,92.95H173.8z"/>
				<path fill="#019D75" d="M99.28,714.46c10.6,7.44,36.47,21.02,87.55,26.01c1.1-5.64,2.25-10.93,3.29-15.72
					c4.07-18.12,7.47-37.19,9.78-56.87c0,0,0,0,0-0.05c3.57-30.06,4.5-61.41,1.21-92.46c-2.25-21.02-6.43-41.89-13.07-62.16
					c-1.37-4.2-3.35-8.14-6.04-9.59c-0.27-0.15-0.55-0.3-0.82-0.4c-3.19-1.1-7.58-1.75-12.69-0.55l-0.11,0.05
					c-0.71,0.15-1.43,0.4-2.2,0.65c-5.5,1.85-11.64,5.94-17.86,13.73c-0.32,0.3-0.66,0.65-0.88,1c-4.89,6.34-9.83,14.98-14.56,26.66
					c-0.22,0.5-0.44,1.05-0.66,1.6c-8.79,22.22-16.87,60.46-23.79,102.5c-0.22,1.4-0.44,2.79-0.71,4.24
					c-0.49,3.24-1.04,6.54-1.53,9.88C103.72,678.76,101.42,696.28,99.28,714.46z"/>
				<path fill="#F8A083" d="M494.18,807.4c-2.06-34.92-6.32-74.93-14.69-115.51c-13.46,10.44-42.02,27.36-87.78,29.61
					c5.91,29.19,12.3,58.77,18.35,85.9H494.18z"/>
				<path fill="#36B87F" d="M312.23,485.84v-0.15c-8.79-0.6-34.17-2.59-63.17-1v1.15c0,15.88,14.11,28.71,31.59,28.71
					C298.06,514.55,312.23,501.72,312.23,485.84z"/>
				<path fill="#36B87F" d="M93.18,648.71c4.01,1.3,8.02,2.55,11.98,3.65l6.26,1.79c0.33,0.05,0.6,0.15,0.93,0.25
					c4.78,1.35,9.51,2.5,14.17,3.59c2.31,0.55,4.62,1.05,6.98,1.55c9.23,2,18.24,3.59,27.02,4.84c2.14,0.31,4.23,0.6,6.32,0.85
					c0.88,0.15,1.7,0.25,2.53,0.3c2.25,0.3,4.45,0.55,6.65,0.7c0.11,0.05,0.16,0.05,0.22,0.05c2.31,0.25,4.55,0.45,6.75,0.6
					c0.44,0.05,0.83,0.1,1.21,0.1c2.31,0.2,4.62,0.35,6.87,0.45c2.37,0.15,4.72,0.3,7.03,0.35c0.6,0.05,1.21,0.05,1.81,0.05
					c0.49,0,1.05,0.05,1.54,0.05c3.13,0.1,6.26,0.15,9.39,0.15c3.91,0,7.8-0.05,11.54-0.19c1.1-0.05,2.25-0.1,3.29-0.15
					c1.37-0.05,2.74-0.1,4.06-0.2c2.09-0.1,4.12-0.25,6.15-0.4c1.98-0.15,4.01-0.3,5.98-0.49c2.37-0.2,4.67-0.45,6.98-0.75
					c2.75-0.3,5.38-0.65,8.02-0.99c2.64-0.35,5.28-0.75,7.86-1.2c1.48-0.19,2.91-0.45,4.34-0.75c2.2-0.4,4.39-0.8,6.54-1.25
					c2.58-0.5,5.16-1.05,7.75-1.65c1.64-0.34,3.29-0.75,4.89-1.14c2.03-0.45,4.07-1,6.04-1.5c2.25-0.6,4.45-1.2,6.65-1.85
					c1.59-0.45,3.18-0.9,4.72-1.4c20.65-6.29,38.06-13.98,51.85-21.22c1.43-0.75,2.85-1.49,4.23-2.25c1.04-0.55,2.03-1.1,3.02-1.7
					c2.96-1.64,5.76-3.29,8.29-4.84c1.21,4.74,2.25,9.29,3.24,13.68c-4.72-29.25-7.69-53.97-7.58-69.79
					c0.33-48.33,14.83-55.52,25.16-54.52c3.02,0.3,5.93,1.4,8.4,2.94c-2.14-1.49-9.72-6.09-15.49-9.23
					c-0.99-0.55-1.92-1.1-2.85-1.55c-2.2-1.25-4.12-2.3-5.44-3c-8.24-4.5-17.3-8.04-26.97-10.64c-3.46-0.95-6.97-1.79-10.55-2.5
					c-4.78-1-9.72-1.85-14.72-2.44c0.05,0.79,0.05,1.64,0.05,2.44c0,22.92-20.43,41.54-45.64,41.54
					c-25.22,0-45.71-18.62-45.71-41.54c0-1.25,0.06-2.5,0.17-3.74c-16.7,1.6-33.94,4.54-49.44,9.73c-5,1.7-9.89,3.59-14.45,5.84
					c-0.93,0.45-1.86,0.9-2.74,1.35l-0.11,0.05c-0.71,0.15-1.43,0.4-2.2,0.65c-0.11,0.25-0.22,0.45-0.33,0.7
					c-4.56,8.88-13.9,19.87-24.77,31.8c-2.64,2.9-5.39,5.89-8.19,8.89c-0.88,0.95-1.75,1.9-2.64,2.85
					c-11.98,12.73-24.44,26.06-34,38.54C78.95,608.76,81.42,631.38,93.18,648.71z"/>
				<path fill="#008C66" d="M156.09,732.11v0.15c0.99,7.51,1.81,19.81,2.42,34.28c112.02,11.66,181.38,0.1,210.17-6.81
					c0.49-2.4,1.1-4.85,1.7-7.25c0.83-3.26,2.81-6.11,4.24-9.16c0.66-1.6,1.38-3.15,2.03-4.7c0.44-0.9,0.83-1.85,1.27-2.9
					c0.33-0.85,0.71-1.8,1.05-2.8l-161.45-33.07L156.09,732.11z"/>
				<path fill="#00AC7A" d="M93.18,648.71c4.5,6.79,10.44,12.68,17.19,17.47c2.48,1.8,5,3.4,7.63,4.84
					c14.17,7.79,23.4,23.37,29.06,37.05c5.71,13.58,7.8,25.31,7.8,25.31c0.49-0.2,0.99-0.45,1.54-0.65
					c18.73-7.99,39.71-10.18,59.98-6.69c77.01,13.38,162.43,7.34,162.43,7.34s0-0.05,0.05-0.1c0.77-1.45,8.51-17.47,3.57-59.72
					c-1.16-9.98-3.02-21.47-5.93-34.59c-0.06-0.35-0.11-0.7-0.22-1.05v-0.15c-0.99-4.39-2.03-8.93-3.24-13.68
					c-2.53,1.55-5.33,3.2-8.29,4.84c-0.99,0.6-1.98,1.15-3.02,1.7c-1.38,0.75-2.75,1.5-4.23,2.25
					c-13.79,7.24-31.2,14.93-51.85,21.22c-1.59,0.5-3.13,0.95-4.72,1.4c-2.2,0.65-4.39,1.25-6.65,1.85c-1.98,0.5-4.01,1.05-6.04,1.5
					c-1.59,0.4-3.24,0.8-4.89,1.14c-2.59,0.6-5.17,1.15-7.75,1.65c-2.14,0.45-4.34,0.9-6.54,1.25c-1.43,0.3-2.86,0.55-4.34,0.75
					c-2.58,0.45-5.17,0.85-7.86,1.2c-2.64,0.4-5.27,0.75-8.02,0.99c-2.31,0.3-4.61,0.55-6.98,0.75c-1.98,0.19-3.95,0.34-5.98,0.49
					c-2.03,0.15-4.06,0.31-6.15,0.4c-1.32,0.1-2.69,0.15-4.06,0.2c-1.05,0.05-2.14,0.1-3.29,0.15c-3.74,0.15-7.63,0.19-11.54,0.19
					c-3.07,0-6.21-0.05-9.39-0.15c-1.1,0-2.2-0.05-3.35-0.1c-2.31-0.05-4.67-0.2-7.03-0.35c-2.25-0.1-4.56-0.25-6.87-0.45
					c-0.38,0-0.77-0.05-1.21-0.1c-2.2-0.15-4.44-0.35-6.75-0.6c-0.06,0-0.11,0-0.22-0.05c-2.2-0.15-4.39-0.4-6.65-0.7
					c-0.83-0.05-1.65-0.15-2.53-0.3c-2.09-0.25-4.17-0.55-6.32-0.85c-8.79-1.25-17.8-2.84-27.02-4.84c-2.36-0.5-4.67-0.99-6.98-1.55
					c-4.67-1.1-9.39-2.29-14.17-3.59c-0.32-0.1-0.6-0.2-0.93-0.25l-6.26-1.79C101.19,651.25,97.18,650,93.18,648.71z"/>
				<path fill="#36B87F" d="M368.7,567.98c-0.11,15.82,2.86,40.54,7.58,69.79v0.15c0.05,0.35,0.11,0.7,0.16,1.1
					c1.76,10.94,3.79,22.57,5.99,34.55c2.85,15.48,5.98,31.66,9.28,47.93c45.76-2.24,74.32-19.17,87.78-29.6v-0.05
					c-11.81-57.16-31.7-115.23-64.82-161.01c-2.31-3.24-4.72-6.39-7.2-9.49c-0.16-0.25-0.32-0.45-0.49-0.65
					c-1.15-1.4-2.47-2.7-3.95-3.74c-0.17-0.1-0.28-0.2-0.39-0.3c-2.58-1.7-5.6-2.9-8.79-3.2
					C383.53,512.45,369.03,519.65,368.7,567.98z"/>
				<path fill="#F8A083" d="M249.07,428.27v57.58c0,15.88,14.11,28.71,31.59,28.71c17.41,0,31.58-12.83,31.58-28.71v-57.58H249.07z"
					/>
				<path fill="#FFFFFF" d="M234.95,489.49c0,22.92,20.49,41.54,45.71,41.54c25.21,0,45.64-18.62,45.64-41.54
					c0-0.8,0-1.65-0.05-2.44c-4.61-0.65-9.29-1.05-14.01-1.35v0.15c0,15.88-14.17,28.71-31.58,28.71
					c-17.47,0-31.59-12.83-31.59-28.71v-1.15c-4.56,0.25-9.23,0.6-13.95,1.05C235,486.99,234.95,488.24,234.95,489.49z"/>
			</g>
			<g>
				<g>
					<g>
						<path fill="#D84F3A" d="M680.35,317.73c0,0-90.83,13.59-138.4-79.38c41.42,32.56,83.99-4.06,83.99-4.06
							s-60.32,38.88-83.21-82.91c-12.37-65.76-51.78-87.3-85.43-93.24C404.02,38.33,337.03,84.3,337.03,84.3l2.58,21.32
							c0,0,15.04-12.83,37.77,1.25c1.42,1.19,3.15,2.4,5.3,3.66c4.05,3.12,8.31,7.16,12.74,12.22
							c14.03,23.33-2.92,64.17,17.53,143.93c23.04,89.88,80.89,88.19,88.01,87.63c-3.05-0.01-16.55-3.38-49.12-52.48
							c-17.7-26.69-12.48-51.03-2.06-69.4c1.5,4.49,3,9.02,4.5,13.81C513.38,434.57,680.35,317.73,680.35,317.73z"/>
						<path fill="#9B3420" d="M500.95,354.3c0.48,0,0.73-0.07,0.73-0.07S501.42,354.26,500.95,354.3z"/>
					</g>
					<polygon fill="#1295D3" points="392.79,56.9 374.95,61.03 368.81,108.71 384.64,114.86 					"/>
				</g>
				<path fill="#F47A4C" d="M166.65,249.84c-1.85-0.45-21.71-18.47-39.26,2.77c-17.56,21.25,1.38,74.83,15.24,80.38
					c13.86,5.54,25.41,1.38,26.79-2.31C170.81,326.98,166.65,249.84,166.65,249.84z"/>
				<path fill="#F15F22" d="M168.99,209.5c-5.43,1.75-26.55,88.95-26.55,88.95s-11.51-74.1,0-97.68
					C153.96,177.19,168.99,209.5,168.99,209.5z"/>
				<path fill="#F47A4C" d="M166.65,249.84c-1.85-0.45-21.71-18.47-39.26,2.77c-17.56,21.25,1.38,74.83,15.24,80.38
					c13.86,5.54,25.41,1.38,26.79-2.31C170.81,326.98,166.65,249.84,166.65,249.84z"/>
				<path fill="#F8A083" d="M201.42,94.32c50.98-46.79,126.87-46.79,177.85,0c49.05,45.02,58.92,114.84,57.35,170.65
					c1.57,51.07-13.64,113.13-62.69,154.33c-50.97,42.81-121.53,44.62-172.5,1.81c-49.05-41.2-58.92-105.08-57.35-156.14
					C142.49,209.15,152.37,139.34,201.42,94.32z"/>
				<path fill="#F47A4C" d="M235.76,301.65h-30.98C204.78,301.65,217.23,329.48,235.76,301.65z"/>
				<path fill="#92484B" d="M187.69,210.72l-1.2,15.06c0,0-15.17-4.03-36.76,2.9l-0.75-9.55
					C148.97,219.14,171.99,207.16,187.69,210.72z"/>
				<path fill="#92484B" d="M294.76,210.72l1.21,15.06c0,0,15.17-4.03,36.75,2.9l0.75-9.55
					C333.47,219.14,310.45,207.16,294.76,210.72z"/>
				<path fill="#74403B" d="M314.75,246.53c8.05,0,14.57,6.52,14.57,14.58v19.3c0,8.06-6.52,14.58-14.57,14.58
					c-8.06,0-14.58-6.52-14.58-14.58v-19.3C300.16,253.06,306.69,246.53,314.75,246.53z"/>
				<path fill="#74403B" d="M164.09,246.53c8.05,0,14.58,6.52,14.58,14.58v19.3c0,8.06-6.53,14.58-14.58,14.58
					c-8.05,0-14.57-6.52-14.57-14.58v-19.3C149.52,253.05,156.04,246.53,164.09,246.53z"/>
				<path fill="#92484B" d="M187.99,210.7l-1.21,15.07c0,0-15.17-4.04-36.75,2.9l-0.76-9.55
					C149.27,219.11,172.29,207.14,187.99,210.7z"/>
				<path fill="#9E3421" d="M290.81,115.5c0,0,32.7,83.14,152.2,120.07c0,0,14.95-161.9-152.2-179.76V115.5z"/>
				<path fill="#9E3421" d="M322.28,112.66c-2.84,5.68-4.47,73.89-184.93,121.22c0,0-14.2-175.34,153.46-178.07L322.28,112.66z"/>
				<path fill="#9E3421" d="M409.32,209.5c5.43,1.75,26.55,88.95,26.55,88.95s13.97-74.1,2.46-97.68
					C426.82,177.19,409.32,209.5,409.32,209.5z"/>
				<path fill="#F47A4C" d="M409.54,268.35c-0.1-9.86,5.8-18.81,14.96-22.44c8.71-3.45,19.69-4.32,28.8,6.71
					c17.55,21.25-1.39,74.83-15.24,80.38c-13.86,5.54-20.88-0.1-23.83-2.72C409.32,325.94,409.74,289.47,409.54,268.35z"/>
				<path fill="#F8A083" d="M201.42,94.32c50.98-46.79,126.87-46.79,177.85,0c49.05,45.02,58.92,114.84,57.35,170.65
					c1.57,51.07-13.64,113.13-62.69,154.33c-50.97,42.81-121.53,44.62-172.5,1.81c-49.05-41.2-58.92-105.08-57.35-156.14
					C142.49,209.15,152.37,139.34,201.42,94.32z"/>
				<path fill="#F47A4C" d="M235.76,301.65h-30.98C204.78,301.65,217.23,329.48,235.76,301.65z"/>
				<path fill="#92484B" d="M187.69,210.72l-1.2,15.06c0,0-15.17-4.03-36.76,2.9l-0.75-9.55
					C148.97,219.14,171.99,207.16,187.69,210.72z"/>
				<path fill="#D84F3A" d="M294.76,210.72l1.21,15.06c0,0,15.17-4.03,36.75,2.9l0.75-9.55
					C333.47,219.14,310.45,207.16,294.76,210.72z"/>
				<path fill="#74403B" d="M314.75,246.53c8.05,0,14.57,6.52,14.57,14.58v19.3c0,8.06-6.52,14.58-14.57,14.58
					c-8.06,0-14.58-6.52-14.58-14.58v-19.3C300.16,253.06,306.69,246.53,314.75,246.53z"/>
				<path fill="#74403B" d="M164.09,246.53c8.05,0,14.58,6.52,14.58,14.58v19.3c0,8.06-6.53,14.58-14.58,14.58
					c-8.05,0-14.57-6.52-14.57-14.58v-19.3C149.52,253.05,156.04,246.53,164.09,246.53z"/>
				<path fill="#D84F3A" d="M187.99,210.7l-1.21,15.07c0,0-15.17-4.04-36.75,2.9l-0.76-9.55
					C149.27,219.11,172.29,207.14,187.99,210.7z"/>
				<path fill="#F15F22" d="M242.55,137.01c0,0,64.18,96.86,200.45,98.55c0,0,14.95-161.9-152.2-179.76L242.55,137.01z"/>
				<path fill="#F15F22" d="M290.34,108.73c-2.84,5.68,27.47,77.81-152.99,125.14c0,0-14.2-175.34,153.46-178.07L290.34,108.73z"/>
				<path fill="#F15F22" d="M409.32,209.5c5.43,1.75,26.55,88.95,26.55,88.95s13.97-74.1,2.46-97.68
					C426.82,177.19,409.32,209.5,409.32,209.5z"/>
				<path fill="#F47A4C" d="M409.54,268.35c-0.1-9.86,5.8-18.81,14.96-22.44c8.71-3.45,19.69-4.32,28.8,6.71
					c17.55,21.25-1.39,74.83-15.24,80.38c-13.86,5.54-20.88-0.1-23.83-2.72C409.32,325.94,409.74,289.47,409.54,268.35z"/>
				<path fill="#FFFFFF" d="M292.52,334.28c-4.57,33.05-25.78,58.06-51.3,58.06s-46.73-25.01-51.29-58.06H292.52z"/>
				<path fill="#FFFFFF" d="M292.52,334.28c-4.57,33.05-25.78,58.06-51.3,58.06s-46.73-25.01-51.29-58.06H292.52z"/>
			</g>
		</g>
	</g>
</g>
</svg>
