<?xml version="1.0" encoding="utf-8"?>
<!-- Generator: Adobe Illustrator 25.2.3, SVG Export Plug-In . SVG Version: 6.00 Build 0)  -->
<svg version="1.1" id="Layer_1" xmlns="http://www.w3.org/2000/svg" xmlns:xlink="http://www.w3.org/1999/xlink" x="0px" y="0px"
	 viewBox="0 0 576 576" enable-background="new 0 0 576 576" xml:space="preserve">
<g>
	<g>
		<defs>
			<circle id="SVGID_1_" cx="288" cy="288" r="288"/>
		</defs>
		<use xlink:href="#SVGID_1_"  overflow="visible" fill="#F9E3D9"/>
		<clipPath id="SVGID_2_">
			<use xlink:href="#SVGID_1_"  overflow="visible"/>
		</clipPath>
		<g clip-path="url(#SVGID_2_)">
			<path fill="#8E4634" d="M178.48,124.68c0,0-35.84,38.7-15.77,65.94c20.07,27.24,76.69-22.22,76.69-22.22L178.48,124.68z"/>
			<path fill="#4DC0E4" d="M291.49,630.55c48.37-206.57-200.82-220.71-416.83-5.47c-1.21,1.2-3.33,3.21-5.77,5.47H291.49z"/>
			<path fill="#8BD1E7" d="M477.78,630.55c-12.06-92.07-29.8-156.08-29.8-156.08s-13.24-16-28.6-34.71c-1.76-0.3-3.52-0.6-5.29-0.9
				c-0.78-0.08-1.55-0.22-2.33-0.34c-6.45-0.99-12.86-1.85-19.22-2.58c-58.4-6.79-114.22-3.18-161.49,4.04
				c-18.11,2.8-34.96,6.07-50.19,9.55c-4.56,1.03-8.99,2.06-13.2,3.1c-1.03,8.17-1.89,17.24-1.94,26.23l-7.05-23.91
				c-0.17,0.04-0.39,0.09-0.6,0.13c-3.61,0.94-7.09,1.89-10.45,2.84c-5.12,1.46-9.93,2.88-14.37,4.22
				c-2.41,0.68-4.64,1.41-6.83,2.11c-5.29,1.63-9.98,3.18-14.06,4.64c-12.34,4.17-19.18,7.01-19.18,7.01S66.57,540.2,44.69,630.55
				H477.78z"/>
			<path fill="#4DC0E4" d="M477.78,630.55h201.69c-11.69-46.11-37.36-87.56-83.51-119.78c-53.12-37.12-110.05-58.28-165.74-69.03
				c-3.62-0.69-7.23-1.33-10.84-1.98c15.35,18.71,28.6,34.71,28.6,34.71S465.72,538.48,477.78,630.55z"/>
			<path fill="#288498" d="M409.93,389.62c-28.8-3.03-73.03-3.13-136.1-6.26c-60.72-3.02-91.75,5.64-107.61,15.81
				c-6.05,3.86-9.86,7.93-12.26,11.69c-5.06,7.82-4.02,14.24-4.02,14.24l8.14,29.99l7.72,28.48l2.4,8.92l1.57-0.05l122.33-2.14
				c0,0,7.25-1.77,18.73-4.9c19.25-5.21,50.34-14.29,78.61-25.09c8.45-3.24,16.64-6.63,24.21-10.12c6-2.76,11.58-5.58,16.59-8.45
				c13.98-8.09,23.27-16.43,23.58-24.47C454.48,399.59,441.33,392.91,409.93,389.62z M158.7,454.93c2.92-0.73,5.89-1.51,8.97-2.29
				c-1.04,8.13-1.88,17.21-1.93,26.24L158.7,454.93z"/>
			<path fill="#288498" d="M167.67,452.64c-1.04,8.13-1.88,17.21-1.93,26.24l-7.04-23.95C161.63,454.2,164.6,453.42,167.67,452.64z"
				/>
			<path fill="#F19379" d="M413.63,450.19C400.12,515.81,204.3,609.86,204.3,609.86l-3.19-10.85
				c-5.89-19.62-18.72-61.04-29.42-84.35c-4.02-8.71-5.64-19.72-5.9-31.09c-0.05-1.57-0.05-3.13-0.05-4.69
				c0.05-9.03,0.89-18.11,1.93-26.24c0.68-5.16,1.46-10.01,2.19-14.19c1.83-9.86,3.55-16.38,3.55-16.38s5.11-1.2,13.93-2.97
				c47.52-9.81,201.93-37.3,224.46,12.15c0.47,0.99,0.89,2.03,1.2,3.13v0.05c0.16,0.36,0.26,0.73,0.37,1.09
				c0.31,1.1,0.57,2.24,0.73,3.34C414.62,442.52,414.47,446.33,413.63,450.19z"/>
			<path fill="#F6A980" d="M402.65,247.23c-0.04,23.44-3.53,41.97-7.1,54.83l-2.84-52.16l-4.9,64.85l-18.23,4.21
				c0,0,13.63,69.93-6.97,122.95c-153.32,26.36-199.76-36.47-213.65-72.34c0.48-10.62,2.06-21.29,4.26-31.65
				c5.98-28.13,8.77-70.4,12-109.71c3.91-46.92,8.47-89.58,19.91-98.74c19.83-15.83,117.07-17.07,172.63-16.47
				c23.18,0.26,39.05,0.86,39.05,0.86s1.93,46.96,4.56,104.89c0.04,1.46,0.13,2.97,0.17,4.47
				C401.92,231.06,402.26,239.11,402.65,247.23z"/>
			<path fill="#F6A980" d="M169.07,437.58c-16.43-18.8-21.25-43.15-20.12-68.01c15.32,39.55,70.19,111.86,264.14,61.35
				C417.02,468.76,251.09,531.48,169.07,437.58z"/>
			<polygon fill="#71BFD3" points="370.63,525.54 204.28,609.85 453.79,417.27 			"/>
			<polygon fill="#5B94AE" points="440.03,588.01 370.63,525.54 453.79,417.27 			"/>
			<polygon fill="#5B94AE" points="95.6,545.78 143.54,516.28 149.94,425.1 			"/>
			<polygon fill="#71BFD3" points="204.3,609.86 143.52,516.28 147.64,457.91 149.94,425.1 158.7,454.93 165.74,478.88 
				169.76,492.44 201.11,599.01 			"/>
			<path fill="#F29269" d="M200.36,415.09c0,0,12.17,22.61,73.03,28.7C273.39,443.79,216.88,455.09,200.36,415.09z"/>
			<path fill="#F2F3F3" d="M269.65,243.25l53.76-1.07c0,0,0.53,30.88-29.28,32.47S269.65,243.25,269.65,243.25z"/>
			<path fill="#8E4634" d="M311.97,251c0,7.25-5.88,13.13-13.13,13.13s-13.13-5.88-13.13-13.13s5.88-13.13,13.13-13.13
				S311.97,243.75,311.97,251z"/>
			<path fill="#F2F3F3" d="M181.89,243.94l44.37-0.88c0,0,0.44,25.47-24.16,26.79C177.5,271.18,181.89,243.94,181.89,243.94z"/>
			<path fill="#8E4634" d="M220.75,250.02c0,6.43-5.21,11.64-11.64,11.64c-6.43,0-11.63-5.21-11.63-11.64
				c0-6.42,5.21-11.64,11.63-11.64C215.54,238.38,220.75,243.59,220.75,250.02z"/>
			<path fill="#704338" d="M213.51,251c0,2.7-2.19,4.89-4.89,4.89c-2.7,0-4.89-2.19-4.89-4.89c0-2.7,2.19-4.89,4.89-4.89
				C211.32,246.11,213.51,248.3,213.51,251z"/>
			<path fill="#704338" d="M303.24,251.98c0,2.7-2.19,4.89-4.89,4.89c-2.7,0-4.89-2.19-4.89-4.89c0-2.7,2.19-4.89,4.89-4.89
				C301.05,247.09,303.24,249.28,303.24,251.98z"/>
			<path opacity="0.7" fill="#F2F3F3" d="M199.82,257.19c0,2.7-2.19,4.89-4.89,4.89c-2.7,0-4.89-2.19-4.89-4.89
				c0-2.7,2.19-4.89,4.89-4.89C197.63,252.3,199.82,254.49,199.82,257.19z"/>
			<path opacity="0.7" fill="#F2F3F3" d="M289.8,258.5c0,2.7-2.19,4.89-4.89,4.89c-2.7,0-4.89-2.19-4.89-4.89
				c0-2.7,2.19-4.89,4.89-4.89C287.61,253.61,289.8,255.8,289.8,258.5z"/>
			<g>
				<path fill="#0BBAE2" d="M750.95,630.55c-56.21-61.56-129.81-103.14-129.81-103.14c-113.45-56.84-123.77,12.95-101.68,103.14
					H750.95z"/>
			</g>
			<path fill="#ED906C" d="M181.89,243.94l44.37-0.88c0,0-6.93-24.85-25.92-22.7C181.34,222.52,181.89,243.94,181.89,243.94z"/>
			<path fill="#ED906C" d="M269.65,243.25l53.76-1.07c0,0-7.32-22.89-29.54-18.59C271.65,227.9,269.65,243.25,269.65,243.25z"/>
			<path fill="#F19379" d="M362.61,441.92c20.6-53.02,6.97-122.95,6.97-122.95l18.23-4.21l4.9-64.85l2.84,52.16
				c3.57-12.86,7.05-31.39,7.1-54.83c3.61,78.36,8,165.53,10.41,183.29c0,0.13,0.04,0.26,0.04,0.39
				C395.08,435.6,378.26,439.25,362.61,441.92z"/>
			<path fill="#F19379" d="M362.61,441.92c0,0-31.47,38.99-94.54,64.79c-63.07,25.8-66.66,24.37-66.66,24.37l101.78-14.33
				c0,0,86.34-45.38,110.9-77.88l-1-7.96L362.61,441.92z"/>
			<path fill="#8E4634" d="M164.86,146.19c0,0,32.62,44.8,65.94,16.84c33.33-27.95,124.72-4.3,152.67,18.28
				c0,0,18.77,35.85-4.3,94.07c-22.58,56.98-24.37,95.87-117.9,51.79c0,0-76.7-8.6-103.57,23.29c-26.96,31.99-12.9,63.07-26.88,83.5
				c-13.98,20.43,61.28,56.98,64.51,58.05c3.22,1.08,97.83,22.58,112.89,12.91c15.05-9.68,70.96-62.36,72.03-83.86
				c1.08-21.5-4.84-82.25,9.14-114.5c13.98-32.26,39.24-149.98,16.67-189.76c-22.58-39.78-73.83-76.69-105-63.79
				c0,0-63.07-22.22-78.13,12.19C207.87,99.6,137.26,80.24,164.86,146.19z"/>
			<g>
				<g>
					<path fill="#F6A980" d="M396.85,246.54c0,0,13.36-25.24,33.55-6.99c22.83,20.66-7.51,72.74-28.9,75.16
						C380.1,317.13,391.26,295,391.26,295L396.85,246.54z"/>
				</g>
				<path fill="#EC7260" d="M407.74,294.02c0,0,25.89-16.71,18.75-34.75c-7.14-18.04-25.7,0.2-26.78,6.3
					C399.71,265.57,418.46,262.95,407.74,294.02z"/>
			</g>
			<g>
				<g>
					<path fill="#C7684A" d="M300.68,357.23c0,0-6.23,8.96-15.83,18.41c-17.33,17.09-45.63,35.74-67.78,5.92
						c-3.03-4.03-5.89-8.91-8.62-14.86l9.62-0.97l67.85-6.99L300.68,357.23z"/>
				</g>
				<g>
					<path fill="#FFFFFF" d="M285.93,358.74l-0.56,8.76c-26.95,10.81-67.93,8.31-67.93,8.31l0.64-10.08L285.93,358.74z"/>
				</g>
				<g>
					<path fill="#FFFFFF" d="M285.16,370.91l-0.3,4.73c-17.33,17.09-45.63,35.74-67.78,5.92l0.32-5.09
						C264.27,379.04,280.42,373.42,285.16,370.91z"/>
				</g>
				<g>
					<path fill="#D5C9A5" d="M285.37,367.5l-0.22,3.41c-4.74,2.51-20.89,8.13-67.76,5.56l0.04-0.66
						C217.44,375.81,258.43,378.31,285.37,367.5z"/>
				</g>
			</g>
			<path fill="#ED906C" d="M251.44,253.61c-0.26-3.94-9.26-4.36-12.29-1.83c-35.94,29.91-37.3,68.09-31.82,75.52
				c12.17,16.52,31.29-12.17,53.03,0.87c11,6.6,17.77-9.12,14.35-20.43c-3.42-11.31-13.38-6.68-21.3-10.87
				C248.15,294.08,252.65,271.59,251.44,253.61z"/>
			<polygon fill="#8E4634" points="159.12,212.12 161.99,223.59 225.07,228.61 225.07,199.94 			"/>
			<polygon fill="#8E4634" points="263.06,202.81 267.36,229.33 339.03,240.08 339.03,223.59 			"/>
			<path fill="#8E4634" d="M163.42,252.62c0,0-22.22,88.16-13.62,110.38c8.6,22.22,20.52-6.72,20.52-6.72
				S161.99,266.6,163.42,252.62z"/>
			<path fill="#8E4634" d="M163.42,252.62c0,0-8.24,96.04,26.17,79.56l-18.99,27.24l-11.11-16.12L163.42,252.62z"/>
		</g>
	</g>
</g>
</svg>
