<?xml version="1.0" encoding="utf-8"?>
<!-- Generator: Adobe Illustrator 25.2.3, SVG Export Plug-In . SVG Version: 6.00 Build 0)  -->
<svg version="1.1" id="Layer_1" xmlns="http://www.w3.org/2000/svg" xmlns:xlink="http://www.w3.org/1999/xlink" x="0px" y="0px"
	 viewBox="0 0 576 576" enable-background="new 0 0 576 576" xml:space="preserve">
<g>
	<g>
		<defs>
			<path id="SVGID_1_" d="M576,287.67c0,159.05-128.94,287.99-288,287.99S0,446.72,0,287.67c0-159.06,128.94-288,288-288
				S576,128.61,576,287.67z"/>
		</defs>
		<use xlink:href="#SVGID_1_"  overflow="visible" fill="#F9E3D9"/>
		<clipPath id="SVGID_2_">
			<use xlink:href="#SVGID_1_"  overflow="visible"/>
		</clipPath>
		<g clip-path="url(#SVGID_2_)">
			<g>
				<path fill="#F4A976" d="M234.52,496.31c22.59,10.6,51.76-1.33,78.05-18.81c10.57-33.34-13.47-60.1-13.47-60.1l1.69-58.55
					l-91.1,15.5c0,0,23.18,31.86-13.15,69.84C194.52,456.24,196.93,478.7,234.52,496.31z"/>
				<path fill="#ED7E67" d="M312.57,477.5c24.34-16.23,46.23-37.15,58.16-49.4c-5.4-22.88-5.4-80.24-5.4-80.24l-64.55,10.99
					l-1.69,58.55C299.1,417.4,323.14,444.16,312.57,477.5z"/>
				<path fill="#F4A976" d="M141.81,392.01c7.62,14.31,21.16,24.24,37.99,30.6c3.01,0.2,6.72,0.66,11.12,1.42
					c67.06,11.59,140.74-14.08,162.27-54.64c21.52-40.57-22.36-64.57-3.32-96.86c19.04-32.29,0.83-132.47,0.83-132.47
					s14.44-0.73,32.72-1.06c-5.3-30.47-22.09-58.15-47.68-75.87C250.4,4.12,161.68,97.28,161.68,144.77
					c0,29.97,29.8,118.09,20.96,154.52C173.8,335.71,107.57,328,141.81,392.01z"/>
				<path fill="#FFFFFF" d="M320.07,214.85c0,0,0,19.87-12.69,24.56c-12.69,4.69-36.71,4.56-41.12-29.39L320.07,214.85z"/>
				<path fill="#FFFFFF" d="M214.72,221.41c-0.98,4.48-5.58,10.61-9.82,12.36c-1.92,0.79-4.14,1.2-6.53,0.68
					c-7.66-1.66-14.08-16.97-16.35-28.15l34.43-4.97C216.45,201.33,217.28,209.77,214.72,221.41z"/>
				<g>
					<g>
						<circle fill="#2A9695" cx="296.69" cy="218.18" r="15.21"/>
						<path fill="#19281F" d="M289.98,218.77c0,3.53,2.86,6.4,6.39,6.4c3.53,0,6.4-2.86,6.4-6.4c0-3.53-2.86-6.4-6.4-6.4
							C292.84,212.38,289.98,215.24,289.98,218.77z"/>
					</g>
					<path opacity="0.85" fill="#EDEEEE" d="M279.67,216.02c0,2.92,2.37,5.29,5.29,5.29c2.93,0,5.3-2.37,5.3-5.29
						c0-2.93-2.37-5.3-5.3-5.3C282.04,210.72,279.67,213.09,279.67,216.02z"/>
				</g>
				<g>
					<g>
						<path fill="#2A9695" d="M191.52,215.7c0,6.11,4.96,11.08,11.08,11.08c6.11,0,11.07-4.96,11.07-11.08
							c0-6.12-4.96-11.08-11.07-11.08C196.48,204.62,191.52,209.58,191.52,215.7z"/>
						<path fill="#19281F" d="M197.71,216.13c0,2.57,2.09,4.66,4.66,4.66c2.57,0,4.66-2.08,4.66-4.66c0-2.57-2.08-4.66-4.66-4.66
							C199.8,211.47,197.71,213.56,197.71,216.13z"/>
					</g>
					<path opacity="0.85" fill="#EDEEEE" d="M189.82,213.2c0,2.13,1.73,3.85,3.85,3.85c2.13,0,3.86-1.73,3.86-3.85
						c0-2.13-1.73-3.86-3.86-3.86C191.55,209.34,189.82,211.06,189.82,213.2z"/>
				</g>
				<path fill="#F49252" d="M320.07,214.85l-53.81-4.83c0,0,2.84-24.83,28.98-24.83C319.66,185.19,320.07,214.85,320.07,214.85z"/>
				<path fill="#F26B6A" d="M235.35,181.18c0,0-16.01,14.08-19.6,40.85c-3.59,26.76-17.66,56.57-10.21,63.74
					c7.45,7.18,34.5,0.28,37.53-7.45c3.04-7.73,16.28,9.38,19.04-2.21c2.76-11.59-5.79-19.04-10.76-17.11
					C246.39,260.93,235.35,181.18,235.35,181.18z"/>
				<g>
					<path fill="#813823" d="M291.3,303.19c1.67,11.79-16.13,46.32-55.35,41.39c-38.94-5.15-41.72-42.89-41.72-42.89h5.84l85.94,1.5
						H291.3z"/>
					<path fill="#FFFFFF" d="M286.01,303.19c0,6.22-2.23,12.01-7.51,14.58c-13.91,6.43-64.81,1.93-72.04-1.93
						c-4.45-2.36-5.84-9.22-6.4-14.15L286.01,303.19z"/>
				</g>
				<path fill="#D8745F" d="M233.69,431.67c52.92,0.83,111.84-16.95,134.38-40.76c29.84-31.49,22.32-172.57,16.76-240.85
					c-0.3-3.7-0.76-7.41-1.43-11.06c-1.98,0.03-3.91,0.07-5.76,0.1c0.63,3.61,1.09,7.29,1.39,10.96
					c5.57,68.29,13.09,209.36-16.76,240.85C340.56,413.85,285.05,431.21,233.69,431.67z"/>
				<path fill="#ED7E67" d="M179.78,422.59c0.89,0.33,1.79,0.66,2.71,1c15.07,5.27,32.59,7.78,50.87,8.08c0.1,0.03,0.2,0.03,0.33,0
					c51.36-0.46,106.86-17.81,128.59-40.76c29.84-31.49,22.33-172.57,16.76-240.85c-0.3-3.67-0.76-7.35-1.39-10.96
					c-15.46,0.37-26.95,0.96-26.95,0.96s18.21,100.17-0.83,132.47c-19.04,32.29,24.84,56.29,3.32,96.86
					c-18.38,34.64-74.81,58.41-132.63,57.39c-0.2,0.03-0.4,0.03-0.6,0c-9.7-0.2-19.44-1.1-29.04-2.75
					C186.5,423.26,182.8,422.79,179.78,422.59z"/>
				<path fill="#954120" d="M350.97,161.23l8.84,8.9l1.24,89.56l29.13-0.14c0,0,12.12-94.38,6.06-119.22
					c-1.89-7.75-2.38-14.5-2.48-20.2C377.89,125.63,360.37,147.85,350.97,161.23z"/>
				<path fill="#954120" d="M174.36,145.86c0,0,44.71-26.49,62.92-36.99c18.21-10.47,57.95,16.56,66.79,24.84
					c8.58,8.04-0.66-20.03-2.22-22.62l18.48,19.27c35-8.31,48.71-29.97,53.94-47.85c-3.31-3.98-7.02-8.44-11.2-12.98
					c0.04,0.1,0.04,0.16,0.04,0.16s-64.58-57.13-122.53-12.42c-56.43,43.55-87.23,91-88.75,93.45c2.19-1.79,37.05-30.86,47.29-37.36
					C197.87,114.47,177.58,132.48,174.36,145.86z"/>
				<path fill="#723316" d="M320.34,130.36l30.63,30.87c9.4-13.38,26.92-35.6,42.79-41.1c-0.24-12.61,1.42-20.34-5.8-23.38
					c-3.01-1.26-7.62-6.93-13.68-14.24C369.05,100.39,355.34,122.05,320.34,130.36z"/>
				<path fill="#6B3013" d="M151.74,150.83c0,0,0.03-0.03,0.1-0.1c1.52-2.45,32.32-49.9,88.75-93.45
					c57.95-44.71,122.53,12.42,122.53,12.42s0-0.07-0.04-0.16c-14.83-16.23-34.96-33.38-59.58-31.86
					c-44.14,2.78-71.76-9.93-89.97,11.59S151.18,129.3,151.74,150.83z"/>
				<path fill="#ED6B62" d="M369.28,273.96c-0.99-21.45,8.25-42.1,25.25-55.48c11.05-7.84,24.45-11.85,33.32,0.08
					c14.12,19.78-1.13,69.93-29.87,85.51c-10.49,6.42-21.82,1.5-25.39-10.49C370.97,288.34,369.62,281.79,369.28,273.96z"/>
				<path fill="#6B3013" d="M348.22,177.87l-4.41,16.01c0,0-45.81-25.39-85.55-14.91l1.1-32.01
					C259.36,146.97,336.63,156.9,348.22,177.87z"/>
				<path fill="#6B3013" d="M212.99,149.72l-2.21,27.6c0,0-36.43-1.1-45.81,11.59l-2.76-19.32
					C162.22,169.59,193.13,141.99,212.99,149.72z"/>
				<path fill="#ED7E67" d="M248.87,369.39c0,0-17.39-33.11-72.02-14.9C176.85,354.49,224.04,353.66,248.87,369.39z"/>
				<path fill="#F49252" d="M217.83,205.88c-1.04-0.41-2.28-23.8-22.15-19.67c-15.04,3.14-14.28,20.91-14.28,20.91L217.83,205.88z"
					/>
				<path fill="#E9575C" d="M421.25,244.68c0,0-0.01,10.6-3.82,6.21c-3.81-4.39-15.81-17.01-16.09-4.51
					c-0.28,12.5,9.22,22.97-0.13,30.01c-9.36,7.04-9.67,5.33-11.6,1.52c0,0,9.28-2.07,9.52-8.14c0.24-6.07,3.11-10.28,2.63-10.35
					c-0.49-0.07-6.36-6.64-6.36-6.64l-0.68-11.99l4.55-7.31l15.64-1.42C414.91,232.06,421.39,237.63,421.25,244.68z"/>
				<path fill="#CD394B" d="M408.14,229.78c0,0,15.98,3.53,10.64,15.31c-5.34,11.79,4.71-8.17-8.08-9.01
					c-12.8-0.83-11.81-2.62-14.25,4.27c-2.45,6.88,0.01,10.73,6.44,17.42c6.44,6.69-11.67,25.33-13.97,20.55
					c-2.48-5.17,15.67-11.63,10.97-17.59c-4.69-5.96-11.06-16.14-7.59-22.4C395.76,232.06,404.78,229.15,408.14,229.78z"/>
			</g>
			<path fill="#4275AA" d="M118.75,624.11c-3.21-19.76-7.26-39.24-12.35-55.81c3.71,18.65,6.54,38.01,8.69,55.81H118.75z"/>
			<path fill="#74A3D6" d="M115.09,624.11c-2.15-17.8-4.98-37.16-8.69-55.81c-6.43-20.86-14.48-37.09-24.61-43.48
				c-9.12-5.75-47.97,46.83-72.89,99.29H115.09z"/>
			<path fill="#74A3D6" d="M475.17,497.44c0,0,5.7,2.32,13.98,7.35c-3.61-3.61-7.29-6.82-10.89-9.7c-0.37-0.26-0.73-0.56-1.1-0.86
				C476.43,495.15,475.77,496.25,475.17,497.44z"/>
			<path fill="#74A3D6" d="M510.19,624.11c-20.38-32.7-46.77-63.52-81.38-84.75c-11.03-6.75-20.24-13.94-27.99-21.29
				c-2.09-1.99-4.07-3.98-5.96-5.96c-0.86-0.93-1.72-1.86-2.51-2.78c-0.83-0.89-1.59-1.79-2.35-2.69c-0.13-0.13-0.24-0.26-0.37-0.43
				c-0.76-0.89-1.52-1.82-2.22-2.72c-0.79-0.96-1.55-1.92-2.25-2.88c-0.77-1-1.46-1.96-2.15-2.92c-1.39-1.92-2.69-3.84-3.87-5.73
				c-1.26-1.95-2.42-3.87-3.48-5.76c-0.49-0.83-0.93-1.66-1.36-2.49c-2.51-4.63-4.57-9.1-6.22-13.31c-0.66-1.69-1.25-3.31-1.79-4.87
				c-3.28-9.48-4.6-17.26-5.13-22.09c-0.07-0.4-0.1-0.79-0.13-1.16c-0.13-1.49-0.2-2.61-0.23-3.34c-0.03-0.6-0.03-0.93-0.03-0.93
				c-29.91,28.74-87.63,76.4-126.24,58.28c-37.58-17.62-40-40.07-37.98-52.12c-2.48,2.65-5.27,5.29-8.38,7.98
				c-48.02,41.39-124.19,52.99-134.12,120.88c-3.28,22.44-2.4,38.54,0.32,51.07H510.19z"/>
			<path fill="#608BB8" d="M138.73,624.11c2.09-54.79,6.32-123.47,14.79-148.76c-5.43,1.95-31.59,17.12-31.59,17.12
				s-11.14,67.32-14.82,131.64H138.73z"/>
			<path fill="#4275AA" d="M145.64,624.11c-0.74-58.28,0.27-129.6,8.84-148.76c0.14-0.27-0.23-0.27-0.93,0h-0.03
				c-8.46,25.29-12.7,93.97-14.79,148.76H145.64z"/>
			<path fill="#4275AA" d="M360.78,438.95c0.04,0.74,0.11,1.86,0.23,3.34c12.95,6.4,25.32,12.52,32.14,15.54
				c1.2,0.54,2.79,1.28,4.61,2.13c0.31-0.12,0.47-0.16,0.47-0.16c9.46,2.25,18.22,5.08,26.24,8.3c0.58,0.27,1.2,0.54,1.79,0.74
				c82.42,34.12,92.15,113.83,106.26,140.92c2.37,4.54,4.73,9.37,7.07,14.35h38.88c-10.75-34.45-23.95-99.95-94.52-133.37
				c-0.54-0.27-1.16-0.55-1.74-0.81c-7.87-3.6-16.48-6.86-25.82-9.61c0,0-0.12,0.04-0.43,0.11c-1.82-0.93-3.33-1.74-4.53-2.32
				c-16.55-8.29-66.22-37.53-76.14-40.82c-1.83-0.62-3.34-4.03-4.54-9.19c-2.83,2.87-6.17,6.24-10,9.92v0.51
				c0.04,0.35,0.12,0.66,0.19,1C360.89,439.34,360.82,439.14,360.78,438.95z"/>
			<path fill="#74A3D6" d="M366.29,465.55c0.53,1.59,1.13,3.21,1.79,4.87c1.65,4.21,3.71,8.68,6.22,13.31
				c0.43,0.83,0.9,1.66,1.36,2.49c1.06,1.88,2.22,3.81,3.48,5.76c1.22,1.89,2.51,3.81,3.87,5.73c0.7,0.96,1.39,1.92,2.15,2.92
				c0.73,0.96,1.45,1.92,2.25,2.88c0.74,0.93,1.46,1.83,2.22,2.72c0.13,0.16,0.24,0.3,0.37,0.43c0.76,0.9,1.56,1.79,2.35,2.69
				c0.83,0.93,1.65,1.85,2.51,2.78c1.89,1.98,3.87,3.97,5.96,5.96c-19.69,22.09-36.72,55.83-35.47,106.04h174.23
				c-2.34-4.98-4.69-9.8-7.05-14.35c-14.11-27.09-23.85-106.79-106.27-140.9c-0.59-0.23-1.19-0.49-1.79-0.76
				c-8.02-3.21-16.79-6.03-26.26-8.28c0,0-0.13,0.03-0.43,0.13c-1.85-0.86-3.41-1.59-4.64-2.12c-6.82-3.01-19.17-9.14-32.12-15.53
				c0.03,0.37,0.07,0.76,0.13,1.16C361.69,448.29,363.01,456.08,366.29,465.55z"/>
			<g>
				<path fill="#4275AA" d="M334.29,624.11c8.2-32.71,21.67-70.5,43.82-108.33c-23.86,37.84-38.66,75.84-47.87,108.33H334.29z"/>
				<g>
					<path fill="#608BB8" d="M330.23,624.11c9.21-32.49,24.02-70.49,47.87-108.33c0.04-0.1,0.11-0.2,0.17-0.3
						c11.43-19.5,25.17-38.98,41.69-57.79l-32.61-20l-1.59-0.99c0,0-18.21,19.14-39.94,53.02c-0.03,0,0,0.03,0,0.03
						c-20.81,32.5-44.82,78.57-59.06,134.36H330.23z"/>
				</g>
			</g>
		</g>
	</g>
</g>
</svg>
