<?xml version="1.0" encoding="utf-8"?>
<!-- Generator: Adobe Illustrator 25.2.3, SVG Export Plug-In . SVG Version: 6.00 Build 0)  -->
<svg version="1.1" id="Layer_1" xmlns="http://www.w3.org/2000/svg" xmlns:xlink="http://www.w3.org/1999/xlink" x="0px" y="0px"
	 viewBox="0 0 576 576" enable-background="new 0 0 576 576" xml:space="preserve">
<g>
	<g>
		<defs>
			<path id="SVGID_1_" d="M576,288c0,159.05-128.94,288-288,288S0,447.06,0,288C0,128.94,128.94,0,288,0S576,128.94,576,288z"/>
		</defs>
		<use xlink:href="#SVGID_1_"  overflow="visible" fill="#F9E3D9"/>
		<clipPath id="SVGID_2_">
			<use xlink:href="#SVGID_1_"  overflow="visible"/>
		</clipPath>
		<g clip-path="url(#SVGID_2_)">
			<path fill="#DD7741" d="M135.52,665.03c14.14-14.98,27.47-34.72,39-60.84l16.67-125.59c0,0-5.92,1.28-13.97,4.88l-5.53,99.44
				c-13.66,38.71-31.99,64.78-51.81,82.11H135.52z"/>
			<path fill="#F8A17E" d="M139,519.57c-9.52,21.75-25.49,94.57-65.76,127.96v17.5h52.27c18.8-17.25,36.11-42.22,49-78.8l2.7-102.75
				C164.91,488.97,147.62,499.82,139,519.57z"/>
			<path fill="#5C190F" d="M196.96,416.82c0,0,158.44,156.71,233.68,180.69c75.24,23.98,120.27,20,145.58,45.11
				c25.31,25.12-15.15-138.52-15.15-138.52S442.69,370.66,435.66,357.62c-7.02-13.04-51.16-145.47-51.16-149.49
				c0-4.01-70.24-97.31-70.24-97.31l-107.35-10.03l-66.21,140.46l42.13,165.54L196.96,416.82z"/>
			<path fill="#F68A5A" d="M298,396.44c-2.14,1.08-3.92,1.71-5.32,1.83c-10.53,1.01-35.59,7.5-48.64-2.53
				c-13.05-10.02-53.18-33.6-61.22-56.67c-8-23.08-23.07-68.22-20.55-74.24c2.53-6.02-9.52-131.92-9.52-131.92l87.75-22.1l1.59,0.23
				l-73.69,18.57c0,0,12.04,125.9,9.52,131.92c-2.49,6.01,12.54,51.15,20.58,74.23c8,23.08,48.13,46.65,61.19,56.68
				C269.45,399.94,285.92,398.19,298,396.44z"/>
			<path fill="#F8A17E" d="M371.88,298.82c-2.21,17.87-6.33,34.58-13.94,43.74c-18.72,22.61-46.07,47.08-59.9,53.88
				c0,0,0-0.04-0.04,0c-12.08,1.75-28.55,3.49-38.3-4c-13.05-10.03-53.19-33.6-61.19-56.68c-8.04-23.08-23.07-68.22-20.58-74.23
				c2.52-6.03-9.52-131.92-9.52-131.92l73.69-18.57l92.73,14.33l38.65,101.81c0,0.86,0.47,8.43,0.66,19.43
				C374.41,260.71,374.18,280.37,371.88,298.82z"/>
			<path fill="#7F2318" d="M140.04,99.44c1.54-3.01,4.77-7.41,7.24-9.73c12.31-11.55,31.84-19.86,44.54-8.25
				c21.87,19.99,44.2-53.43,97.7-47.65c53.51,5.77,125.75,50.59,137.11,72c11.37,21.4,32.1,53.5,36.79,105.67
				c4.68,52.17,18.06,165.87,52.17,201.32c34.11,35.45,70.9,79.08,75.57,156.25c4.68,77.18,10.7,83.2,10.7,83.2
				s-37.46-3.34-38.79-28.76c-1.34-25.42-6.02-119.06-58.19-148.49c-52.17-29.43-125.74-90.96-111.7-161.86
				c14.05-70.9-56.01-181.25-113.95-191.96c-57.93-10.7-86.7,66.55-106.09,104.34c-20.95,40.81-10.03,161.19,78.25,217.37
				c69.29,44.09,39.29,59.35,23.18,63.88c-4.72,1.32-9.75,0.42-13.75-2.4c-21.8-15.33-97.52-72.66-127.14-148.43
				C98.9,267,94.97,230.87,115.66,167.33C135.58,106.17,127.35,124.24,140.04,99.44z"/>
			<path fill="#F8A17E" d="M384.72,621.33c1.32,4.07,3.98,10.32,7.67,17.76c-2.79,4.59-5.77,8.85-8.57,12.65
				c-4.46-8-7.68-14.78-9.24-19.13c-3.98-10.89,2.79-54.31,9.52-90.49c5.35-28.64,10.66-52.8,10.66-52.8s3.98,4.31,8.71,15.96
				c-3.84,16.06-8.66,37.18-12.55,57.16C385.71,588.89,382.16,613.37,384.72,621.33z"/>
			<path fill="#F8A17E" d="M406.68,665.03h41.2c-17.64-26.64-26.69-63.38-31.25-102.85c-3.21-27.66-8.52-45.7-13.17-56.92
				c-8.85,37.27-23.25,102.14-18.75,116.06C387.4,629.64,395.73,646.89,406.68,665.03z"/>
			<path fill="#DD7741" d="M304.53,392.66c-0.57,3.17-1.24,7.19-1.62,10.98c-12.05,1.42-37.73,8.06-53.12-0.6
				c-0.56-4.07-1.22-8-1.93-11.65c15.58,10.7,43.93,2.86,55.98,1.73C303.99,393.1,304.39,392.66,304.53,392.66z"/>
			<path fill="#F8A17E" d="M213.86,660.67c0.37,1.42,0.54,2.91,0.84,4.36h157.03c19.95-54.89,35.53-143.02,28.62-164.41
				c-1.47-4.54-3.17-8.09-5.25-10.89c-10.23-13.97-28.46-10.33-60.33-22.64c-2.03-0.8-4.16-1.66-6.35-2.6
				c-24.1-10.37-27.41-37.4-25.66-58.9c0.09-1.14,0.19-2.27,0.28-3.36c-12.12,1.42-37.74,7.57-53.23-1.09
				c1.33,9.47,2.04,19.61,1.09,28.13c-2.7,24.01-23.67,42.95-44.7,45.6c-21.02,2.65-31.68,13.93-31.68,13.93s0,102.99,0,111.85
				c0,7.57,22.16,21.21,34.19,46.12C210.79,651.07,212.54,655.71,213.86,660.67z"/>
			<path fill="#2FBFC9" d="M192.46,519.14c5.73,26.66,10.65,70.03,0.99,81.87c-1.75,2.13-3.46,3.55-5.16,4.45
				c2.42,11.09,10.33,44.75,37.88,54.98c7.7,2.85,17,4.13,26.94,4.59h20.05c26.06-0.95,52.66-4.57,65.85-0.66
				c0,0-1.62,0.27-4.29,0.66h38.74c0.41-0.57,0.78-1.18,1.21-1.7c2.13-2.56,5.45-6.63,9.14-11.6c2.79-3.79,5.77-8.05,8.57-12.65
				c6.87-11.18,12.69-23.96,12.07-34.62c-0.71-12.03-7.62-26.94-13.54-42.05c-2.7-6.82-5.21-13.68-6.82-20.32
				c-0.99-3.97-1.66-7.86-1.84-11.6c-0.95-16.48-9.38-52.85-6.49-52.04l1.84,0.52c0,0-2.55-11.93-7.76-12.41
				c-5.21-0.52-13.31,0.29-12.83,5.02c0.52,4.73,18.47,62.74-15.87,79.93c-33.76,16.86-102.42,10.04-102.42,10.04
				s-39.63-87.18-59.47-82.97c0,0-8.43,1.9-10.04,8.95C169.21,487.55,186.73,492.53,192.46,519.14z"/>
			<path fill="#DD7741" d="M264.49,523.09c0,0,30.78,7.11,35.12,31.57C299.61,554.66,279.88,528.81,264.49,523.09z"/>
			<path fill="#DD7741" d="M322.89,521.32c0,0-16.18,8.88-12.04,31.77C310.85,553.09,315.79,528.03,322.89,521.32z"/>
			<path fill="#7F2318" d="M393.2,313.16c-1.57-9.27-3.61-18.18-5.86-26.61c-4.81-18.18-10.79-34.27-16.09-47.15
				c-4.49-10.92-8.46-19.54-10.83-25.24c-6.5-15.53-26.08-40.13-65.74-48.16c-28.73-5.81-56.98-18.26-70.66-25.2
				c-5.18-2.65-8.27-4.49-8.55-4.9l35.07-40.61l120.39,5.5c0,0,16.65,98.48,23.56,162.96C398.66,302.53,396.13,330.41,393.2,313.16z
				"/>
			<path fill="#7F2318" d="M172.56,222.27c1.25-0.5,18.56-10.79,48.66-9.78c0,0,4.01,9.78,2,14.3c-2,4.51-51.41,6.52-53.42,10.03
				L172.56,222.27z"/>
			<path fill="#7F2318" d="M278.85,208.72l4.53,12.94c0,0,7.52-4.51,33.86-3.76c26.34,0.75,38.01,4.26,38.7,3.76
				c0.68-0.5-14.99-16.55-25.15-16.3C320.64,205.62,299.06,198.34,278.85,208.72z"/>
			<path fill="#F68C5B" d="M167.85,265.3c0,0,8.22-31.18,38.9-33.94c30.69-2.75,29.24,34.6,29.24,34.6L167.85,265.3z"/>
			<path fill="#4B2524" d="M167.85,265.3l6.36,3.21l61.79-2.54c0,0-7.33-27.27-31.33-24.74C180.68,243.76,167.85,265.3,167.85,265.3
				z"/>
			<path fill="#FFFFFF" d="M236.01,265.97c0,0-3.37,3.21-9.11,6.49c-2.64,1.49-5.73,2.97-9.23,4.22c-0.88,0.29-1.77,0.6-2.69,0.84
				c-3.17,0.88-6.58,1.53-10.19,1.68c-2.69,0.12-5.46,0-8.35-0.44c-0.68-0.12-1.41-0.24-2.09-0.36c-6.42-1.36-13.2-4.37-20.14-9.87
				c0,0,0.76-1.29,2.17-3.13c2.88-3.89,8.5-10.47,15.96-14.49c4.3-2.33,9.23-3.81,14.57-3.36c3.01,0.23,5.78,0.88,8.35,1.76
				C228.83,254,236.01,265.97,236.01,265.97z"/>
			<path fill="#6B2613" d="M214.98,277.52c-3.17,0.88-6.58,1.53-10.19,1.68c-2.69,0.12-5.46,0-8.35-0.44
				c-4.98-2.64-8.59-7.66-9.19-13.68c-0.57-5.46,1.48-10.59,5.09-14.17c4.3-2.33,9.23-3.81,14.57-3.36
				c3.01,0.23,5.78,0.88,8.35,1.76c3.77,2.81,6.42,7.18,6.9,12.28C222.81,268.01,219.88,273.99,214.98,277.52z"/>
			<path fill="#3D2015" d="M215.69,262.23c0.6,6.06-3.81,11.47-9.87,12.08c-6.07,0.61-11.47-3.81-12.08-9.87
				c-0.61-6.06,3.81-11.47,9.87-12.08C209.67,251.74,215.07,256.17,215.69,262.23z"/>
			<path opacity="0.51" fill="#FFFFFF" d="M193.65,264.38c0.27,2.68-1.68,5.07-4.36,5.35c-2.68,0.27-5.07-1.69-5.35-4.37
				c-0.27-2.68,1.69-5.07,4.37-5.35C191,259.74,193.39,261.7,193.65,264.38z"/>
			<path fill="#F68C5B" d="M352.46,249.18c0,0-12.77-29.6-43.52-27.77c-30.75,1.85-23.76,38.57-23.76,38.57L352.46,249.18z"/>
			<path fill="#4B2524" d="M352.46,249.18l-5.81,4.12l-61.48,6.69c0,0,3.19-28.06,27.3-29.12
				C336.58,229.79,352.46,249.18,352.46,249.18z"/>
			<path fill="#FFFFFF" d="M346.65,253.28c-6.02,6.5-12.28,10.47-18.46,12.8c-0.64,0.24-1.29,0.44-1.93,0.64
				c-2.81,0.88-5.57,1.44-8.27,1.73c-3.65,0.36-7.18,0.24-10.47-0.25c-0.88-0.08-1.77-0.19-2.61-0.36
				c-3.66-0.68-6.94-1.73-9.79-2.81c-6.14-2.36-9.95-5.05-9.95-5.05s5.34-12.96,18.1-19.63l0.04-0.04c2.36-1.2,4.98-2.2,7.87-2.88
				c5.25-1.25,10.39-0.49,15.01,1.2c7.94,2.88,14.44,8.51,17.85,11.88C345.73,252.2,346.65,253.28,346.65,253.28z"/>
			<path fill="#6B2613" d="M333.25,251.84c0.28,6.06-2.49,11.55-6.98,14.89c-2.81,0.88-5.57,1.44-8.27,1.73
				c-3.65,0.36-7.18,0.24-10.47-0.25c-5.26-2.81-8.99-8.22-9.31-14.64c-0.24-5.14,1.73-9.84,5.06-13.21l0.04-0.04
				c2.36-1.2,4.98-2.2,7.87-2.88c5.25-1.25,10.39-0.49,15.01,1.2C330.23,241.64,332.97,246.38,333.25,251.84z"/>
			<path fill="#3D2015" d="M304.71,253.26c0.3,6.09,5.48,10.78,11.55,10.47c6.09-0.29,10.78-5.47,10.48-11.55
				s-5.48-10.78-11.55-10.48C309.1,242,304.41,247.18,304.71,253.26z"/>
			<path fill="#DD7741" d="M249.31,299.43c0,0,14.04,7.27,29.84,0C279.15,299.43,263.6,320.25,249.31,299.43z"/>
			<path fill="#DD7741" d="M256.31,377.04c0,0,23.02,4.22,38.81-6.86C295.12,370.18,277.33,393.17,256.31,377.04z"/>
			<path fill="#DD7741" d="M307.05,328.09c0,0,3.48,4.51,4.14,9.01c0.66,4.51,5.4-4.5,2.04-7.21
				C309.87,327.19,306.93,326.41,307.05,328.09z"/>
			<path opacity="0.11" fill="#FFFFFF" d="M205.11,138.44c0,0-111.25,115.95-26.77,244.13C178.34,382.57,61.48,225.52,205.11,138.44
				z"/>
			<path opacity="0.05" fill="#FFFFFF" d="M440.34,136.77c-1.41-3.29-15.46-47.57-69.89-70.14s-65.72-33.15-93.81-18.34
				c-28.09,14.82-51.67,7.05-44.39,38.65c7.27,31.6-17.81,37.37,1.5,47.41c19.32,10.03,79.01,9.03,110.11,41.63
				c31.1,32.6,37.37,64.68,37.37,64.68s2.1-20.87,14.97,5.13c12.87,26-5.02,26.41,46.48,136.78c0,0,14.04,43.98,51.16,64.04
				c0,0-46.65-64.94-42.63-109.97C455.22,291.61,464.5,193.03,440.34,136.77z"/>
			<path opacity="0.11" fill="#FFFFFF" d="M423.44,112.84C381.3,58.99,311.08,51.3,301.38,48.29c0,0,8.7,9.7-11.2,7.37
				c-19.9-2.34,15.71,10.2,19.06,22.57c3.34,12.37-16.39,0.17-41.63,0.67c-25.25,0.5,36.79,23.91,27.42,22.24
				c-9.37-1.67-35.61-10.87-35.61-1.01c0,9.87,43.64,28.43,27.92,22.25c-15.72-6.19-48.83,14.71,4.51,16.39
				c53.34,1.67,63.71,43.97,69.22,40.13c5.52-3.84-24.41-30.43-7.35-31.94c17.06-1.5,41.8,35.11,40.79,23.58
				c-1-11.53-25.75-25.58-21.06-33.77c4.68-8.2,30.77,15.38,37.45,9.7c6.69-5.69-24.24-23.41-6.52-20.9
				c17.73,2.51,19.4,35.62,26.25,28.42c3.9-4.09-4.59-17.59-12.79-28.67C433.64,134.37,441.65,136.11,423.44,112.84z M356.73,91.44
				c3.12-1.37,13.71,4.48,26.07,12.11C367.32,99.38,350.56,94.13,356.73,91.44z"/>
			<path opacity="0.05" fill="#FFFFFF" d="M497.54,422.59c0,0,0,21.71,34.72,54.86c34.73,33.14,45.38,110.48,45.38,110.48
				s5.92-77.73-40.05-116.41C537.58,471.52,504.63,445.87,497.54,422.59z"/>
			<path opacity="0.51" fill="#FFFFFF" d="M305.21,254.61c0.27,2.68-1.68,5.08-4.36,5.35c-2.68,0.27-5.08-1.68-5.35-4.36
				c-0.27-2.68,1.68-5.08,4.36-5.35C302.55,249.98,304.94,251.93,305.21,254.61z"/>
			<path fill="#F68A5A" d="M387.34,286.55c-4.25,8.91-10.19,14.77-15.17,12.44c-0.08-0.05-0.2-0.08-0.29-0.16
				c2.29-18.46,2.53-38.13,2.25-52.21C378.63,258.09,383.37,271.62,387.34,286.55z"/>
			<path fill="#DD7741" d="M174.52,586.24c0,0,9.65-6.96,13.78,19.22l-6.88,6.95l-8.81-7.4L174.52,586.24z"/>
			<path fill="#06A0A3" d="M334.73,665.03c2.67-0.4,4.29-0.66,4.29-0.66c-13.19-3.9-39.79-0.29-65.85,0.66H334.73z"/>
			<path fill="#06A0A3" d="M210.68,665.03h42.44c-9.94-0.46-19.24-1.74-26.94-4.59c-27.56-10.23-35.47-43.89-37.88-54.98
				c-6.62,3.46-12.12-1.66-13.3-2.88c-0.1,0-0.19,0-0.33,0.05l-1.23,4.02c0,0,33.86,47.45,36.42,54.56
				C210.2,662.19,210.46,663.53,210.68,665.03z"/>
			<g>
				<path fill="#F04B33" d="M282.81,332.95c-5.09-0.25-9.6,2.64-12.9,5.16c-1.98-0.68-4.32-1.49-7.08-2.48
					c-9.05-2.86-30.88,6.03-31.47,5.53c-0.18,10.65,18.31,36.62,47.52,28.99c24.82-6.49,32.28-38.08,31.85-37.38
					C310.64,333.14,291.73,333.95,282.81,332.95z"/>
				<path fill="#8E191C" d="M304.67,337.23c-0.03-0.04-1.48,7.51-8.32,14.36c-5.16,0.29-9.96,0.49-14.3,0.69
					c-9.8,0.44-17.91,0.91-24.62,1.57c-4.34,0.44-8.08,0.92-11.21,1.47c-4.86-3.04-8-7.16-8.68-11.94c0,0,1.34,0.38,3.82,0.95
					c9.36,2.8,37.29,5.33,58.12-4.53C301.25,339,303.02,338.16,304.67,337.23z"/>
				<path fill="#D62627" d="M296.35,351.59c-3.61,3.59-8.74,6.92-15.54,8.34c-11.74,2.58-25.9,1.05-34.6-4.6
					C256.67,353.41,272.43,352.72,296.35,351.59z"/>
				<path fill="#FFFFFF" d="M299.47,339.8c-2.49,3.26-8.04,9.03-17.43,12.49c-3.63,1.38-7.83,2.34-12.45,2.64
					c-4.69,0.26-8.72-0.19-12.17-1.07c-9.14-2.16-13.72-6.79-16.07-9.53C250.72,347.13,278.65,349.66,299.47,339.8z"/>
			</g>
		</g>
	</g>
</g>
</svg>
