<?xml version="1.0" encoding="utf-8"?>
<!-- Generator: Adobe Illustrator 25.2.3, SVG Export Plug-In . SVG Version: 6.00 Build 0)  -->
<svg version="1.1" id="Layer_1" xmlns="http://www.w3.org/2000/svg" xmlns:xlink="http://www.w3.org/1999/xlink" x="0px" y="0px"
	 viewBox="0 0 576 576" enable-background="new 0 0 576 576" xml:space="preserve">
<g>
	<g>
		<defs>
			<path id="SVGID_1_" d="M575.8,288.05c0,159.09-128.97,288.05-288.05,288.05C128.67,576.1-0.3,447.14-0.3,288.05
				S128.67,0,287.75,0C446.84,0,575.8,128.96,575.8,288.05z"/>
		</defs>
		<use xlink:href="#SVGID_1_"  overflow="visible" fill="#F9E3D9"/>
		<clipPath id="SVGID_2_">
			<use xlink:href="#SVGID_1_"  overflow="visible"/>
		</clipPath>
		<g clip-path="url(#SVGID_2_)">
			<path fill="#E52225" d="M13.01,567.2h98.73l30.71-127.99c0,0-6.72,0.56-17.48,2.87l0.87,1.12C125.83,443.2,68,455.46,13.01,567.2
				z"/>
			<path fill="#B22024" d="M13.01,567.2c55-111.74,112.83-124,112.83-124l-0.87-1.12c-32.19,6.89-100.51,29.54-135.44,100.17
				c-3.97,8.02-7.78,16.38-11.44,24.96H13.01z"/>
			<path fill="#E52225" d="M529.84,567.2c-42.16-71.07-79.19-97.51-96.25-106.64c-0.08-0.05-0.18-0.13-0.31-0.18
				c-3.64-1.95-6.38-3.08-7.98-3.69c-0.22-0.08-0.39-0.17-0.61-0.22c-0.25-0.08-0.56-0.18-0.82-0.26c-0.08-0.05-0.18-0.05-0.26-0.08
				c-40.77,42.92-61.66,79.84-70.12,111.07H529.84z"/>
			<path fill="#F4A976" d="M203.44,507.51c4.82-2.66,12.36-4.95,23.21-6.76c103.28-17.31,49.02-89.65,49.02-89.65l21.83-24.9
				c0,0,29.42-1.15,65.23-1.33c5.55-11.1,12.42-18.57,12.42-18.57s-154.89,16.21-156.27,48.72c-1.33,32.5-24.9,25.81-24.9,25.81
				S185.11,479.11,203.44,507.51z"/>
			<path fill="#DB7749" d="M203.44,507.51c8.07,12.54,21.76,24.41,44.55,32.67c73.37,26.71,145.42-82.78,147.41-85.85
				c-1.33,0.23-20.08,3.55-35.15-25.09c-8.14-15.61-3.68-32.19,2.47-44.37c-35.81,0.18-65.23,1.33-65.23,1.33l-21.83,24.9
				c0,0,54.27,72.35-49.02,89.65C215.79,502.57,208.25,504.86,203.44,507.51z"/>
			<g>
				<path fill="#813A1F" d="M147.34,141.71c0,0,6.18,92.74-0.4,118.06c-6.57,25.32,120.48-62.41,120.48-62.41
					S193.69,122.48,147.34,141.71z"/>
				<path fill="#F8A681" d="M167.09,392.74c41.68,21.12,85.68-1.84,102.58-13.55c19.03-13.08,10.95-30.3,32.21-65.45
					c21.26-35.15-5.25-61.3-7.99-88.53c-2.68-27.23,25.82-80.9,25.82-80.9s26.86-13.91,60.72-31.36
					c-50.79-68.54-157.94-51.39-193.01-12.3C120.64,175.07,141.83,328.5,167.09,392.74z"/>
				<path fill="#F49454" d="M167.09,392.74c5.37,13.59,10.89,23.15,15.79,27.2c19.58,15.98,105.68,15.12,169.04-34.01
					c65.85-51.06,55.65-187.9,55.65-187.9c-1.89-37-12-64.77-27.14-85.08c-33.87,17.45-60.72,31.36-60.72,31.36
					s-28.5,53.67-25.82,80.9c2.74,27.23,29.25,53.38,7.99,88.53c-21.26,35.15-13.18,52.37-32.21,65.45
					C252.77,390.89,208.77,413.85,167.09,392.74z"/>
				<g>
					<path fill="#813823" d="M243.8,345.85c3.88,7.44-11.44,35.3-39.41,31.09c-35-5.25-31.62-34.48-31.8-33.92
						c1.4,0.28,2.81,0.55,4.22,0.81c20.64,4.1,42.03,4.99,63.12,2.57C241.22,346.23,242.52,346.04,243.8,345.85z"/>
					<path fill="#FFFFFF" d="M239.93,346.4c0.84,4.35-0.07,8.66-3.98,10.91c-10.43,7-52,1.89-56.53-2.83
						c-3.12-2.2-3.02-7.16-2.61-10.65C197.45,347.93,218.83,348.82,239.93,346.4z"/>
				</g>
				<path fill="#A74C27" d="M153.15,172.01c50.54-33.76,176.09-5.81,172.95-41.56c-3.14-35.75-106.78-26.87-106.78-26.87
					C271.21,69.2,343,99.02,343,99.02c11.27-16.59,5.4-29.48-6.76-39.11h-0.05c-17.65-5.18-39.96-7.12-67.98-3.53
					c-124.87,15.8-157.07,89.91-158.04,92.24C111.78,148.4,174.57,137.99,153.15,172.01z"/>
				<path fill="#F2F3F3" d="M230.92,249.92l53.3,1.01c0,0,2.52,29.39-26.84,29.9C228.04,281.35,230.92,249.92,230.92,249.92z"/>
				<path fill="#F2F3F3" d="M146.81,247.08l41.96,1.51c0,0,1.96,24.34-22.27,24.77C142.29,273.79,146.81,247.08,146.81,247.08z"/>
				<path fill="#F2F3F3" d="M230.84,250.09l53.72,1.95C284.56,252.04,250.25,240.28,230.84,250.09z"/>
				<path fill="#ED906C" d="M193.77,230.36c0.87,1.38,7.12,40.33-11.29,54.77c-18.41,14.43-13.45,32.61,7.41,28.61
					c20.86-3.99,20.63,5.03,25.69,1.09c5.07-3.93,4.45-15.68-3.69-14.98c-8.14,0.7-0.87-37.47-3.27-49.72
					C206.22,237.9,193.77,230.36,193.77,230.36z"/>
				<g>
					<g>
						<path fill="#8E4634" d="M277.57,262.42c-0.29,8.28-7.25,14.75-15.52,14.45c-8.28-0.3-14.75-7.25-14.45-15.53
							c0.3-8.28,7.25-14.75,15.53-14.45C271.4,247.19,277.87,254.14,277.57,262.42z"/>
						<path fill="#704338" d="M268.2,263.35c-0.12,3.48-3.05,6.2-6.53,6.07c-3.48-0.12-6.19-3.04-6.07-6.52
							c0.12-3.48,3.05-6.2,6.53-6.08C265.61,256.95,268.33,259.87,268.2,263.35z"/>
					</g>
					<path opacity="0.7" fill="#F2F3F3" d="M254.17,257.83c-0.1,2.88-2.53,5.13-5.4,5.03c-2.89-0.1-5.14-2.52-5.03-5.4
						c0.1-2.88,2.53-5.13,5.4-5.03C252.02,252.53,254.27,254.95,254.17,257.83z"/>
				</g>
				<path fill="#F2F3F3" d="M146.82,247.08l41.96,1.5C188.78,248.58,159.46,238.83,146.82,247.08z"/>
				<g>
					<g>
						<path fill="#8E4634" d="M183.28,256.93c-0.27,7.62-6.68,13.58-14.3,13.31c-7.62-0.27-13.58-6.68-13.31-14.3
							c0.27-7.62,6.68-13.58,14.3-13.31C177.59,242.9,183.55,249.31,183.28,256.93z"/>
						<path fill="#704338" d="M174.65,257.79c-0.12,3.21-2.81,5.71-6.01,5.59c-3.21-0.12-5.71-2.81-5.59-6.01
							c0.11-3.21,2.81-5.71,6.01-5.59C172.26,251.89,174.76,254.58,174.65,257.79z"/>
					</g>
					<path opacity="0.7" fill="#F2F3F3" d="M161.27,253.04c-0.1,2.66-2.32,4.73-4.98,4.63c-2.65-0.1-4.73-2.32-4.63-4.98
						c0.1-2.65,2.32-4.73,4.98-4.63C159.29,248.15,161.36,250.38,161.27,253.04z"/>
				</g>
				<path fill="#813A1F" d="M243.63,169.17c-19.49,8.18-32.45,8.73-32.45,8.73c40.45,2.38,89.47-9.54,115.12-16.85
					c8.61,10.35,31.55,42.73,9.37,70.31c0,0,15.76,14.41,14.62,60.25l5.34,5.63c0,0,34.09-27.02,61.32-35.42
					c25.39-7.77,35.05-84.91-3.7-118.79c9.5-3.74,25.17-7.68,42.94-2.81c2.25,0.62-11.91-9.06-32.23-10.89
					c8.61-9.26,16.12-19.42,17-20.62c-5.21,6.34-16.25,13.86-26.44,20.03c8.23-24.36,3.84-63.46,3.39-65.25
					c-0.08,27.16-10.39,50.3-16.3,61.37c-5.03-17.86-20.46-51.84-65.38-64.93c12.17,9.63,18.03,22.52,6.76,39.11
					c0,0-71.79-29.82-123.68,4.56c0,0,103.64-8.88,106.78,26.87c3.14,35.75-122.41,7.81-172.95,41.56
					C153.15,172.01,197.46,172.35,243.63,169.17z"/>
				<g>
					<path fill="#EE7E67" d="M363.94,309.86c-0.47-22.04,9.53-42.99,27.32-56.3c11.54-7.75,25.39-11.53,34.2,0.94
						c13.98,20.65-2.95,71.73-32.84,86.98c-10.93,6.31-22.43,0.99-25.78-11.42C365.31,324.66,364.08,317.9,363.94,309.86z"/>
					<path fill="#E9575C" d="M418.02,281.15c0,0-0.29,10.88-4.08,6.28c-3.8-4.61-15.79-17.86-16.4-5.05
						c-0.61,12.81,8.87,23.81-0.91,30.79c-9.78,6.98-10.06,5.22-11.93,1.26c0,0,9.58-1.89,9.97-8.11c0.4-6.23,3.45-10.47,2.96-10.56
						c-0.49-0.08-6.35-6.98-6.35-6.98l-0.39-12.32l4.86-7.38l16.09-1.06C411.84,268.04,418.34,273.92,418.02,281.15z"/>
					<path fill="#C46A56" d="M404.94,265.53c0,0,16.31,4.03,10.52,15.99c-5.78,11.95,5.05-8.27-8.06-9.45
						c-13.11-1.19-12.04-3-14.73,4.01c-2.69,7-0.27,11.02,6.17,18.04c6.44,7.03-12.62,25.69-14.86,20.73
						c-2.42-5.37,16.37-11.53,11.7-17.77c-4.67-6.24-10.93-16.85-7.22-23.19C392.19,267.55,401.51,264.79,404.94,265.53z"/>
				</g>
				<path fill="#ED906C" d="M146.82,247.08c17.37-7.53,42.63,4.25,42.63,4.25s0.92-21-20.41-20.72
					C150.44,230.85,146.82,247.08,146.82,247.08z"/>
				<path fill="#ED906C" d="M230.84,250.09c28.34-5.65,53.91,5.71,53.91,5.71s0.89-24.66-27.25-24.21
					C234.72,231.95,230.84,250.09,230.84,250.09z"/>
				<path fill="#813A1F" d="M290.55,239.55c0,0,1.59,8.61-2,8.07c-3.6-0.54-25.75-16.89-47.08-12
					c-21.33,4.88-19.28-14.02-19.28-14.02S274.63,208.46,290.55,239.55z"/>
				<path fill="#813A1F" d="M143.46,230.8c0,0-1.65,8.53,1.23,8.15c2.89-0.38,15.33-11.06,32.11-5.23
					c16.78,5.83,15.99-13.14,15.99-13.14S156.91,205.93,143.46,230.8z"/>
			</g>
			<path fill="#E52225" d="M79.32,539.76c0.13-0.09,0.26-0.18,0.35-0.26c1.34-1,2.64-2,3.9-3c3.9-3.12,7.38-6.33,10.41-9.54
				c0.31-0.26,0.56-0.56,0.87-0.87c0.69-0.74,1.39-1.48,2.04-2.25c1.95-2.21,3.78-4.39,5.34-6.51c0.69-0.91,1.38-1.83,2-2.74
				c1.21-1.69,2.3-3.34,3.3-4.95c0.48-0.74,0.91-1.48,1.3-2.21c0.48-0.82,0.95-1.61,1.39-2.38c0.91-1.69,1.73-3.3,2.43-4.73
				l-1.78,4.43v0.05l-5.72,14.62v0.04L86.49,567.2h387.82c2.16-4.15,4.26-8.14,6.25-11.91v-0.09c4.82-9.06,9.11-16.96,12.76-23.6
				c-5.59-12.84-12.58-23.94-19.87-33.4c-14.75-19.18-30.89-31.58-39.86-37.66c-0.09-0.04-0.18-0.13-0.31-0.18
				c-1.13-0.82-2.17-1.47-3.04-2.04c0,0-0.05-0.04-0.08-0.04h-0.05l-0.08-0.05c-0.08-0.05-0.22-0.08-0.31-0.08h-0.04
				c-1.48-0.52-2.95-1.04-4.39-1.48c-0.22-0.09-0.39-0.18-0.61-0.22c-0.25-0.09-0.56-0.18-0.82-0.26c-0.08-0.05-0.18-0.05-0.26-0.09
				c-1.56-0.52-3.08-1-4.56-1.43h-0.04c-3.95-1.21-7.72-2.26-11.28-3.21c-14.88-3.9-25.9-5.59-28.33-5.94l-0.52-0.08
				c-23.86,18.74-44.6,33.14-62.6,43.9c-0.04,0.05-0.08,0.08-0.08,0.08c-140.56,83.95-116.27-52.1-116.27-52.1
				c-3.51-0.7-7.38-1.34-11.45-2c-11.02-1.74-23.95-3.43-37.96-4.99c-48.63,15.66-79,68.33-96.31,111.88
				c-1.87,4.73-3.6,9.33-5.16,13.8c10.07-3.82,18.7-8.38,26.07-13.32C76.54,541.75,77.98,540.75,79.32,539.76z"/>
			<path fill="#F7D5AE" d="M116.6,490.19l-1.39,4.16C116.2,491.7,116.6,490.19,116.6,490.19z"/>
			<path fill="#F7D5AE" d="M90.56,567.2l24.3-71.94c-0.57,1.44-1.31,3.13-2.21,5.08c-0.69,1.43-1.52,3.04-2.43,4.73
				c-0.44,0.78-0.87,1.57-1.39,2.39c-0.39,0.74-0.82,1.48-1.3,2.21c-1,1.61-2.09,3.25-3.3,4.94c-0.61,0.91-1.26,1.82-2,2.74
				c-1.56,2.13-3.39,4.3-5.34,6.51c-0.65,0.74-1.34,1.52-2.04,2.25c-0.31,0.31-0.56,0.61-0.87,0.87c-3.04,3.21-6.51,6.42-10.41,9.55
				c-1.26,0.99-2.56,1.99-3.9,2.99c-0.08,0.08-0.22,0.18-0.35,0.26c-1.34,1-2.74,2-4.21,2.95c-7.38,4.95-16.01,9.5-26.07,13.32v0.05
				c-1.37,3.84-2.63,7.56-3.79,11.12H90.56z"/>
			<g>
				<defs>
					<path id="SVGID_3_" d="M-77.71,751.57c0,0,25.12-124.12,67.24-209.32c34.92-70.63,103.25-93.28,135.44-100.17
						c0.65-0.14,1.24-0.25,1.87-0.39c7.37-4.71,15.24-8.61,23.69-11.33c14.01,1.56,26.94,3.26,37.96,4.99
						c4.07,0.65,7.94,1.31,11.45,2c0,0-24.3,136.05,116.27,52.1c0,0,0.05-0.05,0.08-0.08c18-10.76,38.74-25.16,62.6-43.91l0.52,0.08
						c2.43,0.35,13.45,2.04,28.33,5.95c3.56,0.95,7.33,1.99,11.28,3.21h0.04c1.48,0.43,3,0.91,4.56,1.43
						c0.08,0.04,0.18,0.04,0.26,0.08c0.26,0.08,0.57,0.18,0.82,0.26c0.22,0.05,0.39,0.13,0.61,0.22c1.43,0.44,2.9,0.95,4.37,1.48
						h0.05c0.09,0,0.22,0.05,0.31,0.09c0,0,0.04,0.04,0.08,0.04h0.05c0.04,0,0.04,0.05,0.08,0.05c0.87,0.56,1.91,1.21,3.04,2.04
						c0.13,0.05,0.22,0.13,0.31,0.18c21.37,11.44,74.08,50.04,128.99,169.59c23.13,50.36,34.68,105.56,31.09,160.87
						c-0.18,2.75-0.4,5.51-0.65,8.26c-3.43,36.44-13.84,72.93-39.17,93.62c-45.98,37.66-97.31-36.66-122.17-80.64
						c-9.54-16.84-15.18-29.24-15.18-29.24s0.52-1.38,1.31-3.86c1.21-3.77,3.04-10.11,4.42-17.74c1.31-6.9,2.22-14.84,2.04-22.95
						c-0.18-13.02-3.17-26.42-12.1-36.44c0,0-0.22-0.08-0.61-0.35c-3.39,8.24-6.77,16.66-10.07,25.16
						c-4.47,11.41-8.85,23.04-13.06,34.75c-31.58,88.16-54.4,183.98-43.73,260.21c0,0-11.19,2.43-29.8,5.46
						c-0.7,0.13-1.39,0.22-2.08,0.35c-57.79,9.37-181.86,23.86-268.5-6.38c0,0-4.98-87.13-8.68-182.4l-86.88-66.88L-77.71,751.57z"
						/>
				</defs>
				<clipPath id="SVGID_4_">
					<use xlink:href="#SVGID_3_"  overflow="visible"/>
				</clipPath>
				<g clip-path="url(#SVGID_4_)">
					<rect x="-166.77" y="480.12" opacity="0.45" fill="#981E22" width="1063.16" height="40.43"/>
					<rect x="481.03" y="105.19" opacity="0.45" fill="#981E22" width="40.43" height="462.01"/>
					<rect x="390.08" y="105.19" opacity="0.45" fill="#981E22" width="40.43" height="462.01"/>
					<rect x="299.13" y="105.19" opacity="0.45" fill="#981E22" width="40.43" height="462.01"/>
					<rect x="208.17" y="105.19" opacity="0.45" fill="#981E22" width="40.43" height="462.01"/>
					<rect x="113.42" y="105.19" opacity="0.45" fill="#981E22" width="40.43" height="462.01"/>
					<rect x="22.47" y="105.19" opacity="0.45" fill="#981E22" width="40.43" height="462.01"/>
					<rect x="-68.48" y="105.19" opacity="0.45" fill="#981E22" width="40.43" height="462.01"/>
					<rect x="-159.44" y="105.19" opacity="0.45" fill="#981E22" width="40.42" height="462.01"/>
				</g>
			</g>
			<path fill="#045473" d="M314.07,567.2c31.89-56.75,105.06-102.66,115.61-109.05h0.04c0.78-0.52,1.21-0.78,1.21-0.78l-50.37-13.23
				c-24.73,13.23-47.11,29.68-64.29,45.2c-0.04,0.05-0.08,0.08-0.08,0.08c-7.85,7.08-14.97,14.28-21.43,21.39c0,0-0.05,0-0.05,0.04
				c-12.59,13.93-22.91,34.3-31.22,56.34H314.07z"/>
			<path fill="#045473" d="M94.89,567.2c20.52-84.62,80.65-124.18,93.59-131.87c1.61-0.91,2.47-1.39,2.47-1.39l-39.18-4.03
				c-0.43,0.13-0.87,0.26-1.25,0.44c-48.63,15.66-79,68.33-96.31,111.88c-1.87,4.73-3.6,9.33-5.16,13.8c0,0.04,0,0.04,0,0.04
				c-1.38,3.85-2.64,7.57-3.79,11.14H94.89z"/>
			<path fill="#F4A976" d="M163.56,567.2c-1.46-16.37-2.43-30.65-15.35-24.24c-8.06,3.94-12.27,11.16-13.76,19.28
				c-0.31,1.63-0.46,3.29-0.56,4.97H163.56z"/>
		</g>
	</g>
</g>
</svg>
