<?xml version="1.0" encoding="utf-8"?>
<!-- Generator: Adobe Illustrator 25.2.3, SVG Export Plug-In . SVG Version: 6.00 Build 0)  -->
<svg version="1.1" id="Layer_1" xmlns="http://www.w3.org/2000/svg" xmlns:xlink="http://www.w3.org/1999/xlink" x="0px" y="0px"
	 viewBox="0 0 576 576" enable-background="new 0 0 576 576" xml:space="preserve">
<g>
	<g>
		<defs>
			<path id="SVGID_1_" d="M576,287.92c0,159.06-128.94,288-288,288S0,446.97,0,287.92S128.94-0.08,288-0.08S576,128.86,576,287.92z"
				/>
		</defs>
		<use xlink:href="#SVGID_1_"  overflow="visible" fill="#F9E3D9"/>
		<clipPath id="SVGID_2_">
			<use xlink:href="#SVGID_1_"  overflow="visible"/>
		</clipPath>
		<g clip-path="url(#SVGID_2_)">
			<polygon fill="#F8A184" points="250.95,469.64 250.95,508.16 220.14,503.13 226.85,486.72 			"/>
			<path fill="#F05151" d="M60.3,785.28c-2.07-47.83,2.58-138.37,54.41-223.15c0.1-0.15,0.19-0.3,0.28-0.44
				c9.98-16.25,22.95-30.43,38.02-42.11l21.77-18.78c0,0,0.01,0.18,0.12,0.51c1.55,8.33,24.43,125.29-41.5,283.97H60.3z"/>
			
				<rect x="250.95" y="397.31" transform="matrix(-1 -1.224647e-16 1.224647e-16 -1 589.9703 916.2242)" fill="#F8A184" width="88.06" height="121.61"/>
			<path fill="#F47A4E" d="M177.92,247.84c-1.78-0.44-20.85-17.75-37.72,2.66c-16.86,20.41,1.33,71.88,14.64,77.2
				c13.31,5.33,24.4,1.33,25.74-2.22C181.91,321.94,177.92,247.84,177.92,247.84z"/>
			<path fill="#F8A184" d="M211.32,98.46c48.96-44.94,121.86-44.94,170.81,0c47.11,43.25,56.6,110.3,55.09,163.91
				c1.51,49.06-13.1,108.66-60.21,148.24c-48.96,41.12-116.73,42.86-165.69,1.74c-47.11-39.57-56.6-100.92-55.08-149.98
				C154.72,208.76,164.2,141.71,211.32,98.46z"/>
			<path fill="#F47A4E" d="M244.3,297.61h-29.75C214.54,297.61,226.5,324.34,244.3,297.61z"/>
			<path fill="#562E1F" d="M198.13,210.28l-1.16,14.46c0,0-14.57-3.87-35.3,2.79l-0.73-9.18
				C160.94,218.36,183.06,206.85,198.13,210.28z"/>
			<path fill="#562E1F" d="M300.97,210.28l1.16,14.46c0,0,14.57-3.87,35.31,2.79l0.73-9.18
				C338.16,218.36,316.04,206.85,300.97,210.28z"/>
			<g>
				<path fill="#68423E" d="M245.42,388.58c29.37,0.23,49.98-27.79,47.87-34.39c-0.95-3.64-6.62-2.12-15.25,0.28
					c-8.56,2.35-20.05,5.53-32.62,5.3c-14.44,0.28-27.38-3.96-36.2-6.27c-6.6-1.75-10.87-2.44-11.68,0.69
					C195.44,360.79,216.04,388.81,245.42,388.58z"/>
				<path fill="#FFFCFD" d="M209.22,353.5l2.97,17.88c29.49,15.4,64.49-0.65,64.49-0.65l1.35-16.26c-8.56,2.35-20.05,5.53-32.62,5.3
					C230.98,360.05,218.04,355.81,209.22,353.5z"/>
			</g>
			<path fill="#68423E" d="M320.16,244.67c7.74,0,14,6.26,14,14v18.54c0,7.74-6.27,14-14,14c-7.74,0-14-6.27-14-14v-18.54
				C306.16,250.93,312.43,244.67,320.16,244.67z"/>
			<path fill="#68423E" d="M175.46,244.67c7.74,0,14,6.26,14,14v18.54c0,7.74-6.27,14-14,14c-7.73,0-14-6.27-14-14v-18.54
				C161.46,250.93,167.74,244.67,175.46,244.67z"/>
			<path fill="#65B29F" d="M135.4,785.28c-24.34-70.94-50.95-172.57,11.98-260.68c14.54-20.35,55.84-43.93,103.57-54.96
				c-4.72,12.92-4.55,22.01-2.74,28.21c2.2,7.55,9.22,12.63,17.08,12.74c36.39,0.52,73.61-43.7,73.72-43.84
				c6.41,1.28,12.73,2.91,18.88,5.01c36.6,12.51,82.14,34.8,84.71,73.39c3.64,54.54-4.39,148-15.6,240.13H135.4z"/>
			<path fill="#F05151" d="M418.88,785.28c-16.59-47.15-31.38-114.93-19.26-190.08c0.03-0.17,0.05-0.34,0.08-0.51
				c3.08-18.82,9.7-36.86,19.22-53.37l14.78-23.28c0,0,0.08,0.16,0.31,0.42c4.55,7.07,92.41,86.45,75.33,266.82H418.88z"/>
			<path fill="#F05151" d="M177.42,785.28H97.87c-0.82-76.63,0.44-150.45,5.79-203.65c0,0,49.81-105.76,143.07-110.98
				c-9.1,5.71,3.86,15.16,3.61,25.66c-0.06,2.27,1.11,6.44,0.61,7.03C203.46,558.94,183.77,670.25,177.42,785.28z"/>
			<path fill="#F05151" d="M273.55,785.28c4.29-139.35,20.75-274.54,65.45-318.53c56.17,7.87,94.69,51.28,94.69,51.28
				c6.42,63.85,7.51,165.08,6.35,267.24H273.55z"/>
			<polygon fill="#BC3B3D" points="339.02,452.81 296.72,508.16 343.43,541.71 363,473.67 			"/>
			<polygon fill="#BC3B3D" points="250.95,454.9 250.95,503.35 204.63,524.09 228.22,470.42 			"/>
			<path fill="#562E1F" d="M189.47,421.03c8.54,9.55,20.45,16.93,30.99,22.15c15.15,7.51,32.9,7.68,48.4,0.91
				c12.06-5.27,25.92-12.94,34.97-23.06c0,0,6.75-103.74-60.21-103.74C176.79,320.05,189.47,421.03,189.47,421.03z M243.63,331.22
				c0,0,45.35-7.48,40.46,76.09l-32.16,13.72l4.03-28.3h-11.61h-11.61l4.03,28.3l-31.03-13.63
				C200.87,323.83,243.63,331.22,243.63,331.22z"/>
			<path fill="#F47A4E" d="M411.21,265.62c-0.1-9.47,5.57-18.07,14.37-21.56c8.37-3.31,18.91-4.15,27.66,6.44
				c16.86,20.41-1.33,71.88-14.65,77.2c-13.31,5.33-20.05-0.09-22.89-2.6C411.01,320.93,411.41,285.9,411.21,265.62z"/>
			<path fill="#562E1F" d="M428.76,124.88c0,0,24.63,67.94-0.63,137.31l-16.92,3.43c0,0-30.05-72.38-30.05-112.22l-27.89-45.5
				C353.28,107.9,418.07,63.87,428.76,124.88z"/>
			<path fill="#562E1F" d="M149.45,262.19l5.72-0.44c0,0,2.55-72.71,33.64-144.42c31.14-71.71,122.34,22.64,174.91,5.03
				c51.44-17.26,31.23-97.12,30.36-100.54c-0.05-0.05-0.05-0.1-0.05-0.1c-3.21,26.92-51.48,57.87-111.63,26.92
				c-60.15-30.9-94.19,41.92-94.19,41.92s-10.46-22.44-34.26-1.51C128.18,111.65,149.45,262.19,149.45,262.19z"/>
			<path fill="#7E432D" d="M155.16,261.75c0,0,17.99-114.33,49.65-134.25c31.66-19.98,99.75,65.82,167.01,30.9
				c66.09-34.32,23.76-133.05,22.25-136.57c0.86,3.42,21.08,83.28-30.36,100.54c-52.56,17.61-143.76-76.74-174.91-5.03
				C157.71,189.04,155.16,261.75,155.16,261.75z"/>
		</g>
	</g>
</g>
</svg>
