<?xml version="1.0" encoding="utf-8"?>
<!-- Generator: Adobe Illustrator 25.2.3, SVG Export Plug-In . SVG Version: 6.00 Build 0)  -->
<svg version="1.1" id="Layer_1" xmlns="http://www.w3.org/2000/svg" xmlns:xlink="http://www.w3.org/1999/xlink" x="0px" y="0px"
	 viewBox="0 0 576 576" enable-background="new 0 0 576 576" xml:space="preserve">
<g>
	<g>
		<defs>
			<path id="SVGID_1_" d="M576,288.4c0,158.61-128.58,287.19-287.19,287.19S1.63,447.01,1.63,288.4
				C1.63,129.8,130.2,1.22,288.81,1.22S576,129.8,576,288.4z"/>
		</defs>
		<use xlink:href="#SVGID_1_"  overflow="visible" fill="#F9E3D9"/>
		<clipPath id="SVGID_2_">
			<use xlink:href="#SVGID_1_"  overflow="visible"/>
		</clipPath>
		<g clip-path="url(#SVGID_2_)">
			<polygon fill="#B09678" points="329.81,641.9 307.44,495.39 222.66,495.39 200.29,641.9 			"/>
			<path fill="#E6E6E5" d="M155.32,641.9c25.1-55.41,32.1-94.22,32.69-98.76c0-0.34,0.03-0.51,0.03-0.51l-25.48,10.8
				c-17.26,6.26-33.32,15.43-47.26,27.38c-0.12,0.11-0.25,0.22-0.38,0.33c-22.27,19.18-40.28,39.94-55.17,60.75H155.32z"/>
			<path fill="#F8A184" d="M251.73,415.09v117.04h12.5l-11.43-47.67c23.98-5.47,49.66-7.56,74.12-4.17l-58.09,51.84h67.69V415.09
				H251.73z"/>
			<path fill="#F8A184" d="M252.8,484.47l11.43,47.67h4.6l58.09-51.84C302.45,476.91,276.78,478.99,252.8,484.47z"/>
			<path fill="#2AA9E1" d="M435.51,641.9c1.85-31.33,2.38-59.24,0.94-80.94c-2.33-34.79-41.08-58.91-74.89-71.7
				c-2.33-0.92-4.6-1.74-6.88-2.52c-5.96-2.03-12.01-3.63-18.16-4.84c-3.2-0.68-6.4-1.21-9.6-1.61l-58.09,51.84h-4.6l-11.43-47.67
				c-0.34,0.05-0.73,0.15-1.07,0.24c-6.35,1.46-12.54,3.15-18.6,5.04c-37.84,11.77-69.03,30.96-81.1,47.86
				c-24,33.61-34.31,69.25-36.75,104.3H435.51z"/>
			<g>
				<path fill="#872C1B" d="M279.19,641.9c1.43-31.93,3.43-63.97,6.1-96.24h-0.01c-0.51-1.33-1.01-2.67-1.51-4
					c-12.13-2.85-24.25-5.71-36.37-8.61c-1.53,1.04-3.06,2.08-4.59,3.12c-7.59,35.06-14.86,70.31-21.51,105.72H279.19z"/>
			</g>
			<path fill="#64220D" d="M272.98,533.31c-0.6,0-15.54-1.41-15.54-1.41l-18.77,29.79l46.82,4.52L272.98,533.31z"/>
			<path fill="#E6E6E5" d="M437.68,641.9l-0.6-97.3c0,0-35.01-60.3-108.89-64.49c0,0-7.64,65.26-16.11,161.79H437.68z"/>
			<path fill="#E6E6E5" d="M206.52,641.9c10.07-55.98,22.56-108.8,38.16-155.46c-70.8-0.96-130.16,92.08-130.16,92.08l-2.11,63.39
				H206.52z"/>
			<polygon fill="#54C1EF" points="265.82,532.13 285.26,569.48 320.77,532.13 336.51,515.57 361.56,489.26 367.71,482.77 
				336.51,471.72 326.91,480.3 			"/>
			<polygon fill="#54C1EF" points="233.13,484.51 233.13,489.74 233.42,567.4 265.82,532.13 252.8,484.47 251.73,480.11 			"/>
			<path fill="#E6E6E5" d="M488.57,641.9c-20.83-71.4-57.76-105.75-60.61-110.19c-0.21-0.26-0.3-0.41-0.3-0.41l-14.22,22.41
				c-9.17,15.89-15.54,33.27-18.5,51.38c-0.03,0.16-0.06,0.32-0.08,0.49c-1.99,12.36-3,24.43-3.61,36.31H488.57z"/>
			<g>
				<path fill="#872C1B" d="M162.49,155.06c0,0-18.91,33.04-7.07,119.12c11.83,86.09,137.41-77.33,137.41-77.33L162.49,155.06z"/>
				<path fill="#F47A4E" d="M178.9,272.67c-1.71-0.43-20.16-17.16-36.46,2.58c-16.3,19.73,1.29,69.49,14.15,74.63
					c12.87,5.15,23.59,1.29,24.88-2.14C182.75,344.3,178.9,272.67,178.9,272.67z"/>
				<path fill="#713825" d="M126.95,295.5l96.33-21.32l-0.89,3.4c-0.69,2.63-2.68,4.71-5.28,5.51l-89.62,20.78L126.95,295.5z"/>
				<path fill="#F8A184" d="M211.19,128.27c47.33-43.45,117.81-43.45,165.14,0c45.54,41.81,54.71,106.63,53.25,158.45
					c1.46,47.42-12.67,105.05-58.21,143.31c-47.33,39.75-112.85,41.43-160.18,1.68c-45.54-38.26-54.71-97.57-53.25-144.99
					C156.47,234.9,165.64,170.07,211.19,128.27z"/>
				<path fill="#F47A4E" d="M243.07,320.79H214.3C214.3,320.79,225.87,346.63,243.07,320.79z"/>
				<path fill="#68423E" d="M316.41,314.6L316.41,314.6c7.48,0,13.54-6.06,13.54-13.54v-17.93c0-7.47-6.06-13.54-13.54-13.54l0,0
					c-7.47,0-13.54,6.06-13.54,13.54v17.93C302.87,308.54,308.94,314.6,316.41,314.6z"/>
				<path fill="#68423E" d="M176.53,314.6L176.53,314.6c7.47,0,13.54-6.06,13.54-13.54v-17.93c0-7.47-6.06-13.54-13.54-13.54l0,0
					c-7.48,0-13.54,6.06-13.54,13.54v17.93C162.99,308.54,169.05,314.6,176.53,314.6z"/>
				<path fill="#F47A4E" d="M404.43,289.86c-0.09-9.15,5.39-17.47,13.9-20.83c8.08-3.21,18.28-4.02,26.74,6.22
					c16.29,19.73-1.29,69.49-14.16,74.63c-12.87,5.15-19.38-0.09-22.13-2.51C404.24,343.34,404.63,309.47,404.43,289.86z"/>
				<g>
					<path fill="#68423E" d="M190.6,393.23c0.89,3.55,6.44,2.09,14.84-0.25c8.36-2.29,19.56-5.35,31.81-5.11
						c14.08-0.28,26.7,3.8,35.3,6.04c6.45,1.7,10.63,2.38,11.4-0.68c1.13-3.46-4.34-13.09-14.2-21.11
						c-8.23-6.66-19.47-12.21-32.49-12.12c-11.4-0.1-21.42,4.14-29.25,9.68C196.15,378.04,189.33,389.38,190.6,393.23z"/>
					<path fill="#FFFCFD" d="M208,369.68l0.36,2.44c25.15,14.55,54.49,3.06,61.38,0c-8.23-6.66-19.47-12.21-32.49-12.12
						C225.85,359.9,215.83,364.13,208,369.68z"/>
				</g>
				<path fill="#834A4C" d="M331.93,264.53l1.46-7.69c0,0-15.98-7.6-30.34-24.33l-4.11,14.59
					C298.94,247.11,316.62,262.11,331.93,264.53z"/>
				<path fill="#834A4C" d="M159.67,264.53l-1.46-7.69c0,0,15.98-7.6,30.34-24.33l4.11,14.59
					C192.66,247.11,174.97,262.11,159.67,264.53z"/>
				<path fill="#872C1B" d="M367.69,138.72c-40.52,16.3-112.2,5.76-112.2,5.76s74.05,25.12,19.14,46.49
					c-67.38-4.32-133.33-24.02-136.5-79.15c0,0,36.21,10.6,105.96-24.43c24.62-12.32,53.79-14.46,79.91-5.12l35.15,12.96
					C376.1,110.09,390.81,129.39,367.69,138.72z"/>
				<path fill="#64220D" d="M431.98,267.87c-11.13,10.38-15.14,10.71-19.42,12.04c-4.88,26.61-8.2,49.14-8.92,50.52
					c-1.74,3.34-25.3-1.63-25.3-1.63s0.87-19.44,2.25-51l-0.75-17.29c0,0-20.1-33.08-11.79-72.48c-26.29,3.28-60.4,5.18-94.09,2.93
					c53-21.37-18.47-46.49-18.47-46.49s69.19,10.54,108.29-5.76c22.32-9.33,8.12-28.63-8.24-43.5l61.18,23.39
					c-0.42-8.52,1.15-20.28,9.99-31.8c0,0-3.24,16.65,1.08,31.46c2.89-6.17,7.95-13.08,16.79-18.32c0,0-10.65,16.07-9.68,30.99
					c6.55,0.28,12.09,3.74,14.13,13.02C455.59,173.69,458.22,243.4,431.98,267.87z"/>
				<g>
					<path opacity="0.4" fill="#FFFFFF" d="M246.67,302.19l-0.08,20.12c0,7.05,3.98,12.82,8.79,12.78l60.44-0.45
						c4.94-0.06,8.94-5.88,8.96-12.99l0.08-20.06c0.03-1.53-0.92-2.81-2.04-2.81l-74.19,0.6
						C247.59,299.39,246.7,300.65,246.67,302.19z"/>
					<path opacity="0.4" fill="#FFFFFF" d="M130.31,302.19l-0.08,20.12c-0.01,7.05,3.98,12.82,8.78,12.78l60.44-0.45
						c4.94-0.06,8.95-5.88,8.96-12.99l0.08-20.06c0.01-1.53-0.93-2.81-2.05-2.81l-74.19,0.6
						C131.23,299.39,130.33,300.65,130.31,302.19z"/>
					<g opacity="0.29">
						<g>
							<polygon fill="#FFFFFF" points="276.34,298.98 293.33,334.65 312.89,334.52 295.91,298.84 							"/>
						</g>
						<g>
							<polygon fill="#FFFFFF" points="247.2,299.17 264.18,334.85 279.83,334.74 262.85,299.07 							"/>
						</g>
					</g>
					<g opacity="0.29">
						<g>
							<polygon fill="#FFFFFF" points="160.69,300.09 177.67,335.76 197.24,335.62 180.26,299.95 							"/>
						</g>
						<g>
							<polygon fill="#FFFFFF" points="131.54,300.29 148.53,335.96 164.18,335.85 147.19,300.18 							"/>
						</g>
					</g>
					<path fill="#713825" d="M124.25,303.16l-0.08,20.06c-0.01,5.27,1.22,9.9,3.39,13.56c2.61,4.95,6.83,8.05,11.51,8.01l60.49-0.5
						c7.73-0.07,13.99-8.62,14.77-19.63c8.45-4.58,17.97-4.64,26.36-0.24c0.7,11.04,6.92,19.48,14.64,19.46l60.45-0.51
						c3.77-0.02,7.23-2.05,9.86-5.6c3.24-3.84,5.17-9.64,5.19-16.15l0.08-20.11c0.04-4.92-2.14-9.03-5.1-10.83
						c-0.91-0.43-1.92-0.71-2.96-0.71l-74.19,0.6c-4.49,0.01-8.05,5.31-8.06,11.66l-0.03,11.18c-8.46-3.37-17.58-3.32-26.05,0.22
						l0.03-11.18c0.01-6.41-3.53-11.59-7.97-11.57l-74.19,0.6c-1.71,0-3.34,0.85-4.69,2.18
						C125.63,295.78,124.27,299.19,124.25,303.16z M246.67,302.19c0.03-1.54,0.92-2.8,1.96-2.81l74.19-0.6
						c1.12,0,2.07,1.28,2.04,2.81l-0.08,20.06c-0.01,7.1-4.02,12.92-8.96,12.99l-60.44,0.45c-4.81,0.03-8.79-5.73-8.79-12.78
						L246.67,302.19z M130.31,303.09c-0.03-1.54,0.92-2.8,2.05-2.8l74.18-0.6c1.04-0.01,1.94,1.26,1.96,2.8l-0.09,20.12
						c0,7.05-3.92,12.87-8.86,12.93L139.11,336c-4.94,0.02-8.89-5.74-8.87-12.8L130.31,303.09z"/>
				</g>
				<path fill="#713825" d="M326.4,294.6l96.32-21.31l-0.88,3.39c-0.69,2.63-2.69,4.71-5.28,5.51l-89.61,20.78L326.4,294.6z"/>
			</g>
		</g>
	</g>
</g>
</svg>
