<?xml version="1.0" encoding="utf-8"?>
<!-- Generator: Adobe Illustrator 25.2.3, SVG Export Plug-In . SVG Version: 6.00 Build 0)  -->
<svg version="1.1" id="Layer_1" xmlns="http://www.w3.org/2000/svg" xmlns:xlink="http://www.w3.org/1999/xlink" x="0px" y="0px"
	 viewBox="0 0 576 576" enable-background="new 0 0 576 576" xml:space="preserve">
<g>
	<g>
		<defs>
			<circle id="SVGID_1_" cx="288.2" cy="288" r="288"/>
		</defs>
		<use xlink:href="#SVGID_1_"  overflow="visible" fill="#F9E3D9"/>
		<clipPath id="SVGID_2_">
			<use xlink:href="#SVGID_1_"  overflow="visible"/>
		</clipPath>
		<g clip-path="url(#SVGID_2_)">
			<path fill="#1489B8" d="M345.48,635.29l42.96-38.02l-48.19-116.04c0,0-53.93,129.78-57.43,137.16c-3.79,8-6.6,14.36-18.88,16.9
				H345.48z"/>
			<g>
				<path fill="#F49763" d="M240.9,473.09c24.63,2.06,52.68,14.37,58.84,14.37c6.16,0,4.79,12.32,6.85,21.89
					c2.05,9.58,54.73-24.63,83.47-49.94c28.74-25.32,41.33-65.27,43.92-74.03c2.6-8.76-26.82-6.7-37.76-21.07
					c-7.57-9.93-29.42-10.95-29.42-10.95L240.9,473.09z"/>
				<path fill="#E5895A" d="M297.03,487.06c15.28-6.68,50.06-23.59,68.4-46.12c23.95-29.42,34.89-43.79,45.84-44.47
					c5.2-0.33,12.39,0.44,18.53,1.32c2.15-5.71,3.51-10.12,4.18-12.4c2.6-8.76-26.82-6.7-37.76-21.07
					c-7.57-9.93-29.42-10.95-29.42-10.95L259.5,476.18C275.46,479.88,290.22,485.52,297.03,487.06z"/>
				<path fill="#69311D" d="M357.76,121.3c0,35.54-31.48,64.36-70.3,64.36c-38.82,0-70.3-28.82-70.3-64.36s31.48-64.36,70.3-64.36
					C326.28,56.94,357.76,85.75,357.76,121.3z"/>
				<path fill="#442017" d="M357.76,121.3c0-33.04-27.2-60.25-62.21-63.92c14.01,23.5,35.49,74.48-3.15,123.33
					c-1.38,1.75-2.49,3.38-3.37,4.91C327.13,184.85,357.76,156.36,357.76,121.3z"/>
				<path fill="#69311D" d="M413.21,210.74c-14.17-31.6-81.1-74.31-161.73-71.29c-70.62,2.64-108.92,23.76-126.07,59.41
					c-7.06,14.64-9.24,36.96,0.66,47.53c-1.13,34.61,66.7,9.9,146.54,9.9S430.37,249.02,413.21,210.74z"/>
				<path fill="#FCB971" d="M267.15,226.11C56.72,245.6,149.83,302.5,140.59,365.86c-9.05,62.01,39.86,121.34,112.33,115.93
					c3.7,1,7.65,1.57,11.77,1.57c10.8,0,20.49-3.75,27.25-9.69c61.22-19.51,86.76-61.78,90.25-122.33
					C386.09,283.56,359.88,217.53,267.15,226.11z"/>
				<path fill="#69311D" d="M176.9,267.18c0,0,21.12,10.56,51.49,11.88c30.36,1.32,48.19-4.62,48.19-4.62s-59.41,1.98-82.52-10.56
					S176.9,267.18,176.9,267.18z"/>
				<path fill="#F49763" d="M385.32,352.66c2.11-36.69-6.61-72.84-27.92-96.95c-15.67,2.6-38.1,5.53-38.1,5.53
					s49.54,124.89-2.47,175.26c-49.35,47.79-105.78,39.6-142.63,20.67c19.91,17.86,47.53,28.36,79.87,25.96
					c3.7,1,7.65,1.56,11.77,1.56c10.8,0,20.49-3.75,27.26-9.69C354.31,455.48,381.83,413.21,385.32,352.66z"/>
				<path fill="#69311D" d="M328.84,234.27l-59.2,5.35c0,0,18.31,61.89,87.63,68.82c1.79-23.37,0.84-41.2-0.74-53.74
					C349.15,246.26,340,239.3,328.84,234.27z"/>
				<path fill="#69311D" d="M392.42,217.34c0,0,117.5,90.11-15.18,168.33c19.76-70.17-66.01-157.43-74.93-167.34
					C334,221.3,392.42,217.34,392.42,217.34z"/>
				<path fill="#ED955A" d="M225.08,359.26c15.87,23.84-7.69,35.64-17.17,35.64c-9.48,0-31.02-5.28-17.16-35.64
					c8.17-17.91-4.45-30.29,17.16-35.65C214.39,322.01,211.33,338.59,225.08,359.26z"/>
				<path fill="#F49F61" d="M221.12,356.62c12.54,25.74-7.68,35.65-17.17,35.65c-9.48,0-31.02-5.29-17.16-35.65
					c8.17-17.91-5.1-35.65,17.16-35.65C213.2,320.97,212.5,338.92,221.12,356.62z"/>
				<path fill="#833E35" d="M199.34,410.75c1.65-3.3,24.93-18.03,34.33,0c7.92,15.19-2.31,23.44-13.2,21.13
					C209.57,429.56,217.16,419,199.34,410.75z"/>
				<path fill="#F8A973" d="M298.75,359.13c-1.13-6.09-8.88-9.76-17.3-8.19c-8.42,1.57-14.33,7.77-13.2,13.87
					c1.14,6.09,8.88,9.76,17.3,8.2C293.98,371.44,299.88,365.23,298.75,359.13z"/>
				<path fill="#F8A973" d="M175.97,387.78c-1.13-6.09-8.88-9.76-17.3-8.2c-8.42,1.57-14.33,7.78-13.2,13.87
					c1.14,6.1,8.88,9.76,17.3,8.2C171.2,400.08,177.11,393.87,175.97,387.78z"/>
				<path fill="#442017" d="M413.21,210.74c-8.87-19.79-38.44-43.92-79.09-58.47l-24.88,6.64c0,0,61.89,25.25,72.28,68.33
					c3.11,12.86,7.41,15.4,17.49,15.84C413.55,236.22,419.47,224.71,413.21,210.74z"/>
				<path fill="#442017" d="M386.98,252.49c0,0,19.98,101.28-9.48,132.16c-0.09,0.34-0.17,0.68-0.26,1.02
					c92.78-54.7,63.22-115.2,37.05-146.65l-26.33,11.49L386.98,252.49z"/>
				<path fill="#F37D92" d="M121.17,283.89l-6.45-29.14c-1.04-4.73,1.81-9.42,6.48-10.66c21.03-5.57,79.51-19.68,148.44-24.27
					c86.8-5.78,146.87,4.12,146.87,4.12s8.58,9.74,15.51,39.44c-57.35-3.52-109.6-3.4-156.76,0.3
					c-53.09,4.17-103.18,12.88-143.81,26.08C126.96,291.22,122.19,288.51,121.17,283.89z"/>
				<circle fill="#F49763" cx="380.21" cy="313.88" r="30.2"/>
				<path fill="#69311D" d="M150.78,314.52c-1.66,0-2.67-0.21-2.8-0.23l1.65-7.75c0.29,0.05,7.31,1.24,16.34-6.97l5.33,5.86
					C162.64,313.3,154.8,314.52,150.78,314.52z"/>
				<path fill="#69311D" d="M237.52,303.7c-6.5,0-10.49-1.32-10.76-1.42l2.56-7.49c0.08,0.03,8.71,2.79,21.35-1.03l2.3,7.58
					C246.97,303.14,241.71,303.7,237.52,303.7z"/>
				<path fill="#69311D" d="M218.15,116.34c0,0-6.44-40.6,55.44-69.31c-38.61,25.75-36.63,80.21-36.63,80.21L218.15,116.34z"/>
				<path fill="#010101" d="M174.23,342.8c0.59,9.46-3.35,17.41-8.8,17.75c-5.46,0.34-10.36-7.05-10.96-16.51
					c-0.59-9.46,3.35-17.41,8.8-17.75C168.73,325.95,173.64,333.34,174.23,342.8z"/>
				<path fill="#010101" d="M259.39,327.95c0.59,9.46-3.35,17.41-8.8,17.75c-5.46,0.35-10.36-7.05-10.96-16.51
					c-0.59-9.46,3.35-17.41,8.8-17.75C253.89,311.09,258.79,318.49,259.39,327.95z"/>
				<path fill="#FFFFFF" d="M254.45,322.39c0.24,3.85-1.36,7.08-3.58,7.22c-2.22,0.14-4.22-2.87-4.46-6.72
					c-0.24-3.85,1.36-7.09,3.58-7.22C252.21,315.54,254.2,318.54,254.45,322.39z"/>
				<path fill="#FFFFFF" d="M169.29,337.24c0.24,3.85-1.36,7.08-3.58,7.22c-2.22,0.14-4.22-2.87-4.46-6.72s1.36-7.08,3.58-7.22
					C167.05,330.38,169.05,333.39,169.29,337.24z"/>
				<path fill="#FCB971" d="M214.36,375.97c-0.64-3.39-5.73-5.29-11.36-4.23c-5.63,1.06-9.69,4.67-9.05,8.07
					c0.64,3.39,5.72,5.29,11.36,4.23C210.95,382.98,214.99,379.37,214.36,375.97z"/>
				<path fill="#F49763" d="M268.65,346.92c0,0-8.18,7.89-19.19,7.71c-11.01-0.18-10.34-2.19-10.34-2.19s3.88,8.11,15.38,6.19
					C266,356.72,268.65,346.92,268.65,346.92z"/>
				<path fill="#F49763" d="M247.4,429.42c0,0-7.22,8.78-18.18,9.87c-10.96,1.09-10.53-0.99-10.53-0.99s4.78,7.62,16,4.38
					C245.9,439.46,247.4,429.42,247.4,429.42z"/>
				<path fill="#F49763" d="M180.19,361.1c0,0-8.18,7.9-19.19,7.72c-11.01-0.18-10.34-2.19-10.34-2.19s3.88,8.12,15.38,6.19
					C177.55,370.91,180.19,361.1,180.19,361.1z"/>
				<path fill="#E95B79" d="M388.33,261.4c13.98,0.43,29.05,1.08,43.69,1.98c-6.93-29.7-15.51-39.44-15.51-39.44
					s-13.09-2.26-37.33-4C384.74,234.66,386.23,243.33,388.33,261.4z"/>
				<g>
					<path fill="#F37D92" d="M301.33,169.55c-52.02,0-83.21-13.69-84.82-14.4c-6.49-2.91-9.38-10.53-6.47-17.02
						c2.91-6.47,10.5-9.37,16.98-6.48c0.71,0.31,43.86,18.76,112.53,9.56c7.04-0.95,13.52,4,14.46,11.05
						c0.95,7.05-4,13.52-11.05,14.47C327.94,168.74,314.01,169.55,301.33,169.55z"/>
				</g>
				<path fill="#E95B79" d="M354.02,152.26c-0.95-7.05-7.43-12-14.46-11.05c-10.2,1.36-19.82,2.11-28.84,2.41
					c-1.76,5.42-5.5,15.8-11.23,25.92c0.62,0,1.23,0.01,1.85,0.01c12.69,0,26.61-0.82,41.64-2.83
					C350.02,165.78,354.96,159.31,354.02,152.26z"/>
				<path fill="#69311D" d="M142.4,175.76c-20.79,18.81-39.6,33.66-39.11,58.91c0.49,25.25,27.73,8.42,27.73,8.42l0,0
					c-0.15-3.2-3.43-5.25-6.38-4.03c-4.36,1.81-9.76,2.81-11.44-2.25c-2.98-8.91-1.98-25.41,15.34-38.29
					C145.87,185.66,142.4,175.76,142.4,175.76z"/>
				<path fill="#69311D" d="M215.45,189.03c0,0,68.56,5.63,76.83,59.24C275.61,204.96,200.7,205,200.7,205L215.45,189.03z"/>
				<path fill="#442017" d="M373.26,172.97c0,0,41.24,27.85,34.7,81.7c-4.33-46.21-53.21-70.3-53.21-70.3L373.26,172.97z"/>
				<path fill="#69311D" d="M218.48,162.55c0,0-71.62-10.89-93.4,19.8c28.72-12.87,84.16,4.95,111.89,15.84
					c27.73,10.89,23.76,0,23.76,0L218.48,162.55z"/>
				<path fill="#69311D" d="M188.29,194.73c0,0-27.75,66.92-3.18,95.43c-5.61-30.96,24.99-80.52,42.21-104.82
					c17.22-24.3,5.7-23.07,5.7-23.07L188.29,194.73z"/>
				<path fill="#69311D" d="M170.15,207.43c0,0-17.52,42.26-2,60.26c-3.54-19.55,15.78-50.85,26.66-66.19
					c10.87-15.35,3.6-14.57,3.6-14.57L170.15,207.43z"/>
				<path fill="#E88756" d="M385.74,295.03c-5.15-1.48-10.4-0.64-14.69,1.87c2.94-0.72,6.1-0.72,9.22,0.17
					c9.55,2.73,15.08,12.7,12.35,22.26c-1.87,6.51-7.09,11.15-13.24,12.58c8.64,0.56,16.81-4.93,19.29-13.6
					C401.52,308.31,395.74,297.89,385.74,295.03z"/>
			</g>
			<g>
				<path fill="#1898C5" d="M361.61,635.29h334.67V405.95c-18.02-5.91-34.8-11.15-40.51-12.66
					c-40.26-10.56-171.29-35.15-221.79-7.92c-33.66,71.29-128.72,112.21-128.72,112.21s5.7,74.7,23.76,99.02
					C337.71,608.3,349.31,621.8,361.61,635.29z"/>
				<path opacity="0.6" fill="#076AA1" d="M520.64,635.29c10.83-51.01,17.78-104.88,10.38-130.11
					c-16.17-55.12-24.42-20.8-24.42-20.8L382.43,635.29H520.64z"/>
				<path opacity="0.3" fill="#0D638A" d="M696.28,441.32c-11.1-4.37-22.75-8.56-35.39-12.28
					c-121.17-35.64-222.58-20.74-223.6-20.58l0.62,4.05c1-0.15,101.57-14.9,221.81,20.47c13.09,3.85,25.14,8.19,36.56,12.74V441.32z
					"/>
				<path fill="#F37D92" d="M477.24,374.22c-17.11,1.68-32.14,5.16-43.26,11.15C400.32,456.67,305.26,497.6,305.26,497.6
					s1.06,13.86,3.71,31.57C341.79,516.38,426.33,475.05,477.24,374.22z"/>
				<path opacity="0.4" fill="#076AA1" d="M644.15,635.29h52.13V405.95c-18.02-5.91-34.8-11.15-40.51-12.66
					c-40.26-10.56-171.29-35.15-221.79-7.92C433.98,385.38,692.62,462.94,644.15,635.29z"/>
			</g>
		</g>
	</g>
</g>
</svg>
