<?xml version="1.0" encoding="utf-8"?>
<!-- Generator: Adobe Illustrator 25.2.3, SVG Export Plug-In . SVG Version: 6.00 Build 0)  -->
<svg version="1.1" id="Layer_1" xmlns="http://www.w3.org/2000/svg" xmlns:xlink="http://www.w3.org/1999/xlink" x="0px" y="0px"
	 viewBox="0 0 576 576" enable-background="new 0 0 576 576" xml:space="preserve">
<g>
	<g>
		<defs>
			<path id="SVGID_1_" d="M576,287.79c0,159.04-128.93,287.97-287.97,287.97S0.06,446.83,0.06,287.79S128.99-0.18,288.03-0.18
				S576,128.75,576,287.79z"/>
		</defs>
		<use xlink:href="#SVGID_1_"  overflow="visible" fill="#F9E3D9"/>
		<clipPath id="SVGID_2_">
			<use xlink:href="#SVGID_1_"  overflow="visible"/>
		</clipPath>
		<g clip-path="url(#SVGID_2_)">
			<g>
				
					<rect x="248.97" y="378.57" transform="matrix(-1 -1.224647e-16 1.224647e-16 -1 583.5833 875.4072)" fill="#F8A083" width="85.65" height="118.27"/>
				<path fill="#E6E6E5" d="M150.37,713.68c44.28-132.46,25.94-226.63,24.58-233.96c-0.1-0.32-0.12-0.49-0.12-0.49l-21.17,18.27
					c-14.67,11.35-27.27,25.15-36.98,40.95c-0.08,0.14-0.18,0.28-0.27,0.43c-37.77,61.78-49.7,126.56-52.5,174.81H150.37z"/>
				<path fill="#E6E6E5" d="M502.29,713.68c0.64-145.65-71.3-210.99-75.35-217.28c-0.21-0.26-0.29-0.41-0.29-0.41l-14.37,22.63
					c-9.27,16.06-15.71,33.61-18.69,51.91c-0.03,0.17-0.05,0.33-0.08,0.51c-8.54,52.97-3.29,102.1,6.36,142.65H502.29z"/>
				<path fill="#F8A184" d="M424.98,713.68c8.19-75.02,13.29-146.63,10.31-191.32c-2.5-37.53-46.79-59.2-82.38-71.37
					c-77.86-26.6-180.26,17.13-204.74,51.39c-49.6,69.45-41.95,147.47-24.68,211.31H424.98z"/>
				<path fill="#EDEDEE" d="M425.33,713.68c8.34-75.18,13.54-146.96,10.49-191.71c-2.53-37.53-47.42-59.22-83.47-71.4
					c-6.1-2.05-12.3-3.67-18.6-4.89c0,0-6.35,48.06-55,46.84c0,0-27.62-1.47-31.79-44c-47.02,10.72-87.74,33.67-102.07,53.44
					c-50.38,69.59-42.49,147.81-24.92,211.73H425.33z"/>
				<path fill="#C0282D" d="M238.99,451.22L238.99,451.22c2.99-0.83,6.02-1.61,9.05-2.29c-0.14,11.31,1.9,18.52,5.46,24.02
					c6.79,10.5,12.36,15.78,23.72,17.21c44.09,5.48,57.5-44.31,57.5-44.31c2.5,0.54,4.95,1.08,7.39,1.72v-0.01
					c1.91,0.49,3.77,0.97,5.63,1.57c-15.08,65.29-86.87,104.14-86.87,104.14s-25.45-36.02-32.5-98.86
					C231.85,453.22,235.42,452.2,238.99,451.22z"/>
				<path fill="#FFFFFF" d="M218.79,457.68c5.63,78.25,40.96,113.29,40.96,113.29s80.36-39.98,103.65-116.48
					c-3.52-1.32-6.95-2.54-10.33-3.72c-1.76-0.59-3.57-1.18-5.33-1.66c-15.08,65.29-86.87,104.14-86.87,104.14
					s-25.45-36.02-32.5-98.86C225.15,455.38,221.92,456.51,218.79,457.68z"/>
				<g>
					<path fill="#FFFFFF" d="M248.62,713.68c6.04-74.29,12.1-135.19,15.89-151.13l-9.52-2.26c-3.84,16.16-10.01,78.07-16.13,153.39
						H248.62z"/>
				</g>
				<path fill="#D6D5D5" d="M302.31,468.46c-2.09,0.17-4.16,0.3-6.21,0.39v-30.7c1.64-0.11,3.46-0.25,5.45-0.42
					c11.8-0.99,29.62-2.58,52.75,0.59c30.83,4.23,76.22,66.59,62.52,70.82c-13.7,4.22-69.09,36.99-152.32,53.41
					C340.53,473.33,336.39,465.7,302.31,468.46z"/>
				<path fill="#D6D5D5" d="M229.27,438.31c23.44-3.21,41.38-1.55,53.18-0.56v30.74c-0.42-0.03-0.83-0.05-1.25-0.09
					c-37.44-3.32-72.82-6.56-32.24,88.45c-66-31.48-68.51-43.49-82.21-47.71C153.06,504.9,198.45,442.54,229.27,438.31z"/>
				<path fill="#F8A083" d="M251.69,469.66h71.1c0,0,11.82-20.24,11.82-40.81c0-20.57-85.65,0-85.65,0L251.69,469.66z"/>
			</g>
			<g>
				<path fill="#F47A4E" d="M177.4,242.63c-1.7-0.42-19.9-16.93-35.99,2.54c-16.08,19.47,1.27,68.58,13.97,73.66
					c12.7,5.08,23.28,1.27,24.56-2.12C181.21,313.33,177.4,242.63,177.4,242.63z"/>
				<path fill="#5D290D" d="M153.96,94.89c0,0-40.85,85.03,1.63,150.93l60.55-102.91L153.96,94.89z"/>
				<path fill="#F8A184" d="M209.27,100.09c46.71-42.89,116.27-42.89,162.99,0c44.95,41.26,54.01,105.25,52.56,156.4
					c1.45,46.81-12.5,103.69-57.45,141.44c-46.71,39.24-111.38,40.89-158.1,1.66c-44.96-37.75-54.01-96.3-52.56-143.1
					C155.26,205.34,164.31,141.35,209.27,100.09z"/>
				<path fill="#68423E" d="M313.13,284.01L313.13,284.01c7.38,0,13.36-5.98,13.36-13.36v-17.69c0-7.38-5.98-13.36-13.36-13.36l0,0
					c-7.38,0-13.37,5.98-13.37,13.36v17.69C299.76,278.02,305.75,284.01,313.13,284.01z"/>
				<path fill="#68423E" d="M175.06,284.01L175.06,284.01c7.38,0,13.36-5.98,13.36-13.36v-17.69c0-7.38-5.98-13.36-13.36-13.36l0,0
					c-7.38,0-13.36,5.98-13.36,13.36v17.69C161.7,278.02,167.68,284.01,175.06,284.01z"/>
				<path fill="#5D290D" d="M196.69,206.78l-1.1,13.81c0,0-13.9-3.7-33.69,2.66l-0.7-8.75C161.2,214.49,182.3,203.51,196.69,206.78z
					"/>
				<path fill="#5D290D" d="M294.81,206.78l1.1,13.81c0,0,13.91-3.7,33.69,2.66l0.7-8.75C330.3,214.49,309.2,203.51,294.81,206.78z"
					/>
				<g>
					<path fill="#68423E" d="M241.81,376.92c28.03,0.21,47.69-26.53,45.68-32.81c-0.91-3.48-6.32-2.03-14.55,0.26
						c-8.17,2.24-19.13,5.28-31.13,5.06c-13.78,0.26-26.12-3.79-34.54-5.98c-6.3-1.67-10.37-2.33-11.14,0.66
						C194.11,350.39,213.78,377.13,241.81,376.92z"/>
					<path fill="#FFFCFD" d="M207.27,343.45l2.84,17.06c28.13,14.69,61.54-0.62,61.54-0.62l1.29-15.52
						c-8.17,2.24-19.13,5.28-31.13,5.06C228.03,349.69,215.69,345.64,207.27,343.45z"/>
				</g>
				<path fill="#5D290D" d="M279.51,170.91c9.56,1.57,52.69,16.8,113.38,3.6l25.91,87.29c0,0,32.37-110.1,10.17-140.11
					s-36.08-27.61-36.08-27.61s11.47-22.81-7.73-33.61c-19.21-10.81-129.39-37.21-178.74,0c-49.34,37.21-69.33,10.64-69.33,10.64
					S130.22,146.47,279.51,170.91z"/>
				<polygon fill="#5D290D" points="392.89,174.51 392.89,271.84 420.61,273.23 424.96,170.35 				"/>
				<path fill="#F47A4E" d="M400,259.59c-0.08-9.03,5.32-17.24,13.72-20.57c7.99-3.16,18.05-3.96,26.4,6.15
					c16.09,19.47-1.27,68.58-13.97,73.66c-12.7,5.08-19.14-0.09-21.85-2.49C399.81,312.37,400.2,278.94,400,259.59z"/>
				<path fill="#F47A4E" d="M240.74,290.11h-28.4C212.35,290.11,223.76,315.62,240.74,290.11z"/>
				<g>
					<path fill="#713317" d="M379.22,118.96c0,0-164.98,38.41-225.2-28.81c0,0,62.62,14.41,95.54-9.6
						C282.47,56.54,353.43,34.39,379.22,118.96z"/>
					<path fill="#713317" d="M416.6,163.75c3.42,0.85,10.32-70.83-47.31-55.62C369.29,108.13,350.53,147.35,416.6,163.75z"/>
				</g>
			</g>
		</g>
	</g>
</g>
</svg>
