<?xml version="1.0" encoding="utf-8"?>
<!-- Generator: Adobe Illustrator 25.2.3, SVG Export Plug-In . SVG Version: 6.00 Build 0)  -->
<svg version="1.1" id="Layer_1" xmlns="http://www.w3.org/2000/svg" xmlns:xlink="http://www.w3.org/1999/xlink" x="0px" y="0px"
	 viewBox="0 0 576 576" enable-background="new 0 0 576 576" xml:space="preserve">
<g>
	<g>
		<defs>
			<path id="SVGID_1_" d="M576,288c0,159.06-128.94,288-288,288C128.94,576,0,447.06,0,288s128.94-288,288-288
				C447.06,0.01,576,128.94,576,288z"/>
		</defs>
		<use xlink:href="#SVGID_1_"  overflow="visible" fill="#F9E3D9"/>
		<clipPath id="SVGID_2_">
			<use xlink:href="#SVGID_1_"  overflow="visible"/>
		</clipPath>
		<g clip-path="url(#SVGID_2_)">
			<path fill="#2C4F8A" d="M304.08,757.73l32.63-59.29c0,0-69.86-173.55-6.22-240.94c0,0,112.12,19.93,132.05,103.81
				c10.32,43.45-7.71,130.65-30.23,196.42H304.08z"/>
			<path fill="#2C4F8A" d="M75.14,733.36H-38.62C28.44,628.75,76.74,515.03,76.74,515.03s69.51,110.21,39.99,155.49
				C107.13,685.24,91.65,708.58,75.14,733.36z"/>
			<path fill="#2C4F8A" d="M88.23,757.73c15.57-103.24-13.92-231.78-15.1-241.23l121.97-69.07l103.29-3.18l79.45,201.81
				c9.33,37.57,11.27,75.1,7.97,111.67H88.23z"/>
			<path fill="#136CAC" d="M173,652.75c0,0,193.66-133.97,177.74-196.32c-15.92-62.34-163.82-23.87-179.08-5.31
				C156.42,469.7,163.05,609.64,173,652.75z"/>
			<path fill="#DAEEF7" d="M341.63,461.24c0,0-90.03-31.67-163.65-4.48L173,652.75L341.63,461.24z"/>
			<path fill="#EA9E74" d="M232.85,513.35c19-6.17,35.57-16.09,48.43-25.59c7.68-10.08,14.08-23.64,13.73-40.69
				c-0.77-40.88-56.4-17.66-58.29-16.86l13.41-9.5l-47.05,23.55C203.07,444.26,187.07,528.22,232.85,513.35z"/>
			<path fill="#E9844D" d="M295,447.07c0.35,17.05-6.05,30.61-13.73,40.69c18.14-13.4,28.95-25.91,28.95-25.91l3.96-73.19
				l-64.07,32.05l-13.41,9.5C238.6,429.41,294.23,406.19,295,447.07z"/>
			<g>
				<path fill="#872C1B" d="M363.91,328.02c0,0-3.68,48.61-22.95,58.56c-19.27,9.95-44.73-10.29-44.73-10.29L363.91,328.02z"/>
				<path fill="#872C1B" d="M172.88,135.5c0,0-31.71,36.59-28.77,113.97c2.94,77.37,127.57-56.77,127.57-56.77L172.88,135.5z"/>
				<path fill="#F9AE73" d="M162.93,210.32c-6.21,56.39-17.22,193.17,18.29,227.52c-1.35-0.69-2.66-1.47-3.91-2.28
					c-40.57-26.66-29.42-167.04-23.14-223.64c1.91-16.9,7.55-33.19,16.86-47.39c18.52-28.19,38.07-45.82,57.49-55.12
					c-16.43,10.44-32.86,27.35-48.56,51.94C170.59,176.03,164.89,192.87,162.93,210.32z"/>
				<path fill="#F9BF8F" d="M376.69,271.88C363.06,393.5,234.82,465.55,181.22,437.84c-35.51-34.35-24.49-171.13-18.29-227.52
					c1.96-17.46,7.66-34.29,17.02-48.96c15.7-24.6,32.13-41.5,48.56-51.94C309.19,70.68,387.39,176.11,376.69,271.88z"/>
				<path fill="#F2F3F3" d="M240.84,264.79l51.97,4.2c0,0,0.69,28.83-27.99,27.57C236.13,295.3,240.84,264.79,240.84,264.79z"/>
				<path fill="#F2F3F3" d="M158.91,256.96l40.87,3.99c0,0,0.44,23.89-23.23,22.84S158.91,256.96,158.91,256.96z"/>
				<path fill="#ED906C" d="M221.82,267.27c-0.05-3.39-7.75-5.55-9.12-2.99c-17.2,32.29-30.64,53.6-26.84,60.55
					c8.43,15.47,18.77,2.15,39.62,6.9c9.18,2.09,13.65-5.7,11.55-15.72c-2.1-10.02-9.74-7.23-15.48-11.71
					C217.72,301.32,221.99,282.7,221.82,267.27z"/>
				<g>
					<path fill="#8E4634" d="M184.49,269.8c-0.72,7.43-7.34,12.86-14.76,12.13c-7.43-0.72-12.86-7.34-12.13-14.76
						c0.73-7.43,7.34-12.86,14.76-12.13C179.79,255.76,185.22,262.37,184.49,269.8z"/>
					<path fill="#704338" d="M176.01,270.11c-0.3,3.12-3.08,5.4-6.21,5.1c-3.12-0.3-5.4-3.08-5.1-6.2c0.31-3.13,3.09-5.4,6.21-5.1
						C174.04,264.21,176.32,266.99,176.01,270.11z"/>
				</g>
				<g>
					<path fill="#8E4634" d="M269.8,278.87c-0.73,7.43-7.34,12.86-14.76,12.13c-7.43-0.72-12.86-7.34-12.13-14.76
						c0.72-7.43,7.34-12.86,14.76-12.13C265.1,264.83,270.53,271.44,269.8,278.87z"/>
					<path fill="#704338" d="M261.32,279.18c-0.31,3.13-3.09,5.4-6.21,5.1c-3.12-0.31-5.4-3.09-5.1-6.21
						c0.31-3.13,3.08-5.41,6.21-5.1C259.35,273.28,261.63,276.06,261.32,279.18z"/>
				</g>
				<path opacity="0.7" fill="#F2F3F3" d="M186.14,274.42c-0.25,2.58-2.55,4.48-5.14,4.22c-2.58-0.25-4.48-2.55-4.22-5.14
					c0.25-2.58,2.55-4.47,5.14-4.22C184.5,269.53,186.39,271.83,186.14,274.42z"/>
				<path opacity="0.7" fill="#F2F3F3" d="M271.77,282.8c-0.25,2.58-2.55,4.48-5.14,4.22c-2.58-0.25-4.48-2.55-4.22-5.14
					c0.25-2.59,2.55-4.48,5.14-4.23C270.13,277.91,272.02,280.21,271.77,282.8z"/>
				<path fill="#ED906C" d="M158.91,256.96l40.87,3.99c0,0-0.87-16.78-18.17-18.73C163.51,240.19,158.91,256.96,158.91,256.96z"/>
				<path fill="#ED906C" d="M293.06,270.09l-52.33-5.12c0,0,4.97-18.36,27.17-16.44C291.14,250.53,293.06,270.09,293.06,270.09z"/>
				<path fill="#872C1B" d="M290.47,251.92c0,0,11.03,10.8,14.05,6.12c3.02-4.69,2.68-17.05-15.15-21.37
					c-17.81-4.31-45.29-4.36-46.63,1.57c-1.34,5.93-1.5,10.24,4.9,10.42C254.05,248.85,271.26,240.77,290.47,251.92z"/>
				<path fill="#872C1B" d="M163.86,239.45c0,0-12.52,8.49-14.49,3.32c-1.96-5.18,0.72-17.25,18.44-18.09
					c17.71-0.83,43.77,4.36,43.91,10.43c0.14,6.08-0.53,10.34-6.63,9.29C198.99,243.37,184.21,232.16,163.86,239.45z"/>
				<g>
					<path fill="#813823" d="M252.96,365.02c0.39,8.97-15.5,33.57-44.56,26.99c-28.83-6.72-28.15-35.24-28.15-35.24l4.38,0.43
						l64.37,7.44L252.96,365.02z"/>
					<path fill="#FFFFFF" d="M248.99,364.63c-0.46,4.66-2.55,8.84-6.71,10.38c-10.91,3.8-48.76-3.31-53.9-6.74
						c-3.17-2.1-3.71-7.35-3.76-11.09L248.99,364.63z"/>
				</g>
				<path fill="#872C1B" d="M335.64,151.97c-34.62,11.21-92.47-3.89-92.47-3.89s58.53,28.21,11.66,42.77
					c-54.87-9.24-88.38-9.2-86.2-58.35c0,0,9.93-10.49,70.15-35.97c21.25-8.96,45.35-8.51,65.95,1.86l27.69,14.32
					C345.03,127.25,355.42,145.55,335.64,151.97z"/>
				<path fill="#64220D" d="M381.72,269.98c-11.29,6.79-17.79,9.4-21.53,10.22c-6.45,23.2-12.32,42.13-13.06,43.3
					c-1.77,2.81-15.62-1.7-15.62-1.7s2.43-17.17,6.34-45.06l0.86-15.39c0,0-14.2-31.01-3.72-65.27
					c-22.61,0.72-51.76-0.42-80.17-5.22c46.87-14.55-11.66-42.77-11.66-42.77s57.85,15.1,92.47,3.89
					c19.78-6.42,9.39-24.72-3.22-39.26l49.94,25.83c0.38-7.6-3.05,2.39,5.46-7.09c0,0,1.57-5.79,3.97,7.71
					c2.99-5.23,2.1,9.35,10.06,5.43c0,0-4.66-6.91-5.14,6.4c5.55,0.8,9.95,4.33,10.88,12.72C410.58,190.62,408.25,254,381.72,269.98
					z"/>
				<g>
					<g>
						<path fill="#F9BF8F" d="M357.8,265.03c0,0,13.53-26.75,35.06-7.99c24.36,21.23-6.45,76.48-28.86,79.43
							c-22.4,2.96-11.12-20.48-11.12-20.48L357.8,265.03z"/>
					</g>
					<path fill="#EC7260" d="M370.16,314.64c0,0,26.84-18.04,18.99-36.83s-26.95,0.72-27.98,7.14
						C361.17,284.95,380.79,281.83,370.16,314.64z"/>
				</g>
			</g>
			<path fill="#F4D12C" d="M414,192.06l-3.05,7.49l-45.03,37.44c0,0-161.79,21.71-280.83-30.7l-1.91-8.23l74.41-29.21L414,192.06z"
				/>
			<path fill="#FFEA2F" d="M409.11,192.06l-54.18,38.19c0,0-155.63,18.19-271.24-30.11l69.01-31.29L409.11,192.06z"/>
			<path fill="#F4D12C" d="M281.31,194.26l-2.38-4.01c113.27-48.26,37.81-149.28,37.81-149.28c0.28-0.07,0.55-0.23,0.83-0.23
				c-27.39-3.86-55.4-1.16-76.84,4.09c-67.86,16.68-86.07,124.12-86.07,124.12C181.86,182.55,233.51,192.18,281.31,194.26z"/>
			<path fill="#EEB929" d="M271.49,193.31l9.82,0.95c67.31,2.94,132.7-1.47,132.7-1.47c17.67-106.02-38-143.94-96.43-152.05
				c-0.28,0-0.55,0.16-0.83,0.23C316.75,40.97,384.77,145.05,271.49,193.31z"/>
			<path fill="#E6AD23" d="M316.7,40.95l0.57,6.92c0,0-37.2,14.48-42.93,29.92c-5.72,15.45-1.15,105.22,5.15,115.84l-24.04,1.93
				L233.71,91.79l25.76-41.51C259.47,50.28,301.82,31.14,316.7,40.95z"/>
			<path fill="#FFEA2F" d="M316.7,40.95c0,0-54.94,14.16-57.23,52.77c-3.09,52.09,6.87,103.77,6.87,103.77l-83.56-11.1
				c0,0,10.3-122.59,51.51-147.7C234.28,38.7,293.81,27.76,316.7,40.95z"/>
			<path fill="#FAD431" d="M259.42,199.17l14.23-4.11c0,0,88.72,5.61,127.29-1.12l-46.42,33.69c0,0-81.99,7.11-142.64-0.75
				L259.42,199.17z"/>
			<path fill="#323D31" d="M138.9,757.73c1.74-13.53,2.9-27.64,3.25-42.31l34.82,2.98c0,0,0.54,15.62-1.04,39.33H138.9z"/>
			<g>
				<path fill="#DBDADC" d="M196.1,757.73l9.39-43.3l-82.91-9.95l-10.61,49.08l21.39,4.18H196.1z M135.52,719.07l51.4,6.96
					l-4.98,20.56l-49.74-4.64L135.52,719.07z"/>
				<polygon fill="#A5A6A7" points="215.77,711.45 136.69,701.74 122.59,704.47 205.49,714.43 				"/>
				<polygon fill="#8B8B8C" points="196.1,757.73 205.49,714.43 215.77,711.45 204.87,757.73 				"/>
				<polygon fill="#8B8B8C" points="132.21,741.95 139.67,737.97 142.15,720.23 135.52,719.07 				"/>
				<polygon fill="#6A6C6C" points="139.67,737.97 182.95,743.28 181.95,746.59 132.21,741.95 				"/>
			</g>
			<path fill="#223F6F" d="M368.69,632.74l-24.92,87.2l-40.69-17.44C303.08,702.5,357.9,643.53,368.69,632.74z"/>
			<path fill="#136CAC" d="M215.05,757.73c7.45-25.3,28.81-59.38,40.64-77.1c5.04-7.54,13.99-11.39,22.93-9.95
				c11.59,1.86,26.3,5.3,29.85,11.08c6.75,11.01-4.93,45.39-17.73,75.98H215.05z"/>
		</g>
	</g>
</g>
</svg>
