<?xml version="1.0" encoding="utf-8"?>
<!-- Generator: Adobe Illustrator 25.2.3, SVG Export Plug-In . SVG Version: 6.00 Build 0)  -->
<svg version="1.1" id="Layer_1" xmlns="http://www.w3.org/2000/svg" xmlns:xlink="http://www.w3.org/1999/xlink" x="0px" y="0px"
	 viewBox="0 0 576 576" enable-background="new 0 0 576 576" xml:space="preserve">
<g>
	<g>
		<defs>
			<path id="SVGID_1_" d="M575.06,287.44c0,158.74-128.7,287.44-287.45,287.44c-158.74,0-287.44-128.7-287.44-287.44
				C0.18,128.69,128.87,0,287.61,0C446.36,0,575.06,128.69,575.06,287.44z"/>
		</defs>
		<use xlink:href="#SVGID_1_"  overflow="visible" fill="#F9E3D9"/>
		<clipPath id="SVGID_2_">
			<use xlink:href="#SVGID_1_"  overflow="visible"/>
		</clipPath>
		<g clip-path="url(#SVGID_2_)">
			<path fill="#964627" d="M198.2,149.02c0,0-5.05,49.71,7.2,85.01c12.25,35.3,32.42-100.13,32.42-100.13L198.2,149.02z"/>
			<path fill="#F89B59" d="M155.8,776.81c7.52-14.6,14.68-30.99,21.29-49.36c70.14-195.03-72.11-71.5-72.11-71.5
				s-43.56,63.76-79.2,120.85H155.8z"/>
			<path fill="#E64A43" d="M183.76,773.32c-23.14-8.49-75.83-59.12-99.88-83.03c36.69,9.45,94.41-2.84,159.45-124.49
				c18.58-34.78,28.04-64.16,31.01-88.95c28.78-6.91,49.03-5.17,49.03-5.17C337.43,568.75,214.23,784.49,183.76,773.32z"/>
			<path fill="#E64A43" d="M274.34,476.86c-2.97,24.79,1.43,56.1-17.16,90.88c-65.04,121.65-136.62,132-173.3,122.55h-0.03
				c-7.6-7.61-12.34-12.48-12.34-12.48s20.78-43.64,86.6-125.85C196.1,504.51,240.95,484.89,274.34,476.86z"/>
			<path fill="#FDB928" d="M457.78,776.81c7.92-76.32-3.12-143.7-3.12-143.7l26.67-24.21c-35.53-61.16-98.68-134.03-103.04-134.98
				c-6.01-1.34-106.78,40.05-106.78,40.05l-114.54,162.9c0,0,8.9,47.72,17.24,99.94H457.78z"/>
			<path fill="#E64A43" d="M442.59,776.81c9.81-42.89,18.66-85.68,20.71-124.25c3.71-70.15,22.04-77.76,34.45-74.43
				c-5.71-44.26-10.44-65-36.61-80.64c-83.2-49.71-164.25-17.83-164.25-17.83l0.3,297.14H442.59z"/>
			<path fill="#DF1E2E" d="M498.33,776.81c5.61-34.67,8.98-65.47,6.76-81.03c-2.94-20.49-1.43-71.88-7.35-117.65
				c-12.4-3.33-30.73,4.28-34.45,74.43c-2.05,38.58-10.9,81.37-20.71,124.25H498.33z"/>
			<path fill="#46525C" d="M218.28,498.59c0,0,7.84-111.57,155.7-93.83l-1.08,9.73c0,0-107.07-10.44-140.56,86.8L218.28,498.59z"/>
			<path fill="#AD5926" d="M342.41,432.59c1.24-0.31,27.15-24.44,47.48-13.55l-2.08,24.28L342.41,432.59z"/>
			<path fill="#E68C63" d="M378.89,467.74c0,0-93.79,32.46-106.85,36.78c-0.52,0.17-1.08,0.21-1.64,0.13
				c26.54-9.99,88.34-34.41,88.34-34.41s1.69-112.59,2.72-125.52l11.98-5.19c-0.57,2.64,0.73,33.11,2.16,63.67
				c-0.56-0.17-0.91-0.25-0.91-0.25l-1.08,9.73c0.87,0.35,1.73,0.69,2.51,1.08C377.5,442.11,378.89,467.74,378.89,467.74z"/>
			<path fill="#F89B59" d="M361.45,344.73c-1,12.93-2.73,125.5-2.73,125.5s-57.28,33.64-83.8,43.66
				c-12.41-2.74-32.41-97.25-32.41-97.25L361.45,344.73z"/>
			<g>
				<path fill="#FFFFFF" d="M272.74,361.65c-10.2,8.56-26.21,15.66-43.25-1.07C249.65,362.5,263.57,362.37,272.74,361.65z"/>
				<path fill="#FFFFFF" d="M284.06,349.27c0,0-0.92,1.39-2.56,3.47c-0.76,0.14-1.52,0.29-2.33,0.46
					c-23.45,5.07-44.94,1.28-57.62-2.21c-1.12-1.54-2.16-3.18-3.24-4.92L284.06,349.27z"/>
				<path fill="#FFFFFF" d="M281.5,352.73c-0.61,0.71-1.28,1.54-2.05,2.39c-1.8,2.03-4.04,4.35-6.72,6.53
					c-9.17,0.72-23.09,0.85-43.25-1.07c-1.16-1.18-2.4-2.5-3.6-3.93c-1.44-1.67-2.88-3.56-4.33-5.67
					c12.68,3.49,34.17,7.28,57.62,2.21C279.98,353.02,280.74,352.88,281.5,352.73z"/>
			</g>
			<path fill="#FFFFFF" d="M283.02,218.29l48.34-1.79c0,0-3.07,21.74-30.43,17.14C300.93,233.64,284.81,225.2,283.02,218.29z"/>
			<path fill="#66292E" d="M234.02,223.77c0,5.03-3.2,9.11-7.14,9.11c-3.95,0-7.15-4.08-7.15-9.11c0-5.03,3.2-9.11,7.15-9.11
				C230.83,214.65,234.02,218.74,234.02,223.77z"/>
			<path fill="#66292E" d="M316.13,225.81c0,5.04-3.2,9.11-7.14,9.11c-3.95,0-7.15-4.08-7.15-9.11c0-5.04,3.2-9.11,7.15-9.11
				C312.93,216.7,316.13,220.78,316.13,225.81z"/>
			<linearGradient id="SVGID_3_" gradientUnits="userSpaceOnUse" x1="306.462" y1="200.2861" x2="307.2283" y2="217.9099">
				<stop  offset="0.1276" style="stop-color:#D98057"/>
				<stop  offset="1" style="stop-color:#FAAA73"/>
			</linearGradient>
			<path fill="url(#SVGID_3_)" d="M283.02,218.29c0,0-1.02-22.77,24.3-18.41c25.33,4.35,24.04,16.62,24.04,16.62
				S290.07,217.51,283.02,218.29z"/>
			<path fill="#964627" d="M344.41,213.33c0,0-6.83-26.88-61.88-16l-5.33-5.97v17.28C277.2,208.63,321.37,196.26,344.41,213.33z"/>
			<polygon fill="#1D1D1B" points="278.51,215.16 283.02,218.29 331.36,216.5 331.26,214.97 			"/>
			<path fill="#FAAA73" d="M385.5,127.41c0,0-123.72-69.7-149.85-28.81c0,0-8.97,8.53-17.16,24.82
				c-6.92,13.8-13.28,33.14-13.02,57.57c0.04,5-0.05,9.88-0.35,14.58c0,0.96-0.04,1.92-0.13,2.83c-0.12,2.79-0.35,5.45-0.56,8.1
				c-0.22,2.57-0.48,5.09-0.79,7.54c-0.04,0.3-0.08,0.61-0.08,0.91c-1.22,9.93-2.79,18.99-4.31,27.17
				c-3.83,20.3-7.45,35.27-4.4,45.07c1.52,4.92,2.74,9.71,3.65,14.25c4.62,22.69,2.53,39.67,2.53,39.67l9.58,63.5
				c5.6,20.08,24.97,33.11,45.68,30.71c26.97-3.14,58.03-8.6,60.27-9.73c15.56-7.87,46.72-66.12,61.25-89.36
				c3.97-6.34,6.51-13.52,8.33-20.78c2.67-10.71,0.46-18.16,1.49-28.82c0.78-8.62,1.74-18.34,2.65-28.22v-0.13
				c0.22-2.05,0.4-4.14,0.61-6.19c0.05-0.43,0.08-0.83,0.13-1.26c0.08-1,0.18-2.01,0.26-3.01c0,0,0-0.04,0.05-0.08
				c0.7-7.58,1.39-15.07,2.09-22.17c0.08-1.35,0.21-2.7,0.35-4.01c2.01-21.33,3.53-37.84,3.53-38.58
				C397.3,181.42,385.5,127.41,385.5,127.41z"/>
			<path fill="#D65D54" d="M303.17,327.95c-1.58,1.31,7.97-0.57,9.07,6.51c1.11,7.09,0.33,9.37,0.33,9.37s4.77-12.06,2.58-14.4
				C312.95,327.08,304.47,326.87,303.17,327.95z"/>
			<g>
				<path fill="#894634" d="M301.88,345.29c-1.33,4.78-3.01,10.66-4.66,16.32c-10.59,2.57-27.41,9.58-33.04,28.38
					c-2.46-0.07-5.11-0.29-7.96-0.72c0,0-10.88-15.91-21.54-27C249.1,362.71,280.14,361.85,301.88,345.29z"/>
				<path fill="#FFFFFF" d="M304.73,335.19c0,0-1.17,4.21-2.85,10.09v0.01c-21.74,16.56-52.78,17.42-67.2,16.98
					c-5.06-5.29-10.08-9.47-13.84-10.34C220.85,351.93,288.28,350.45,304.73,335.19z"/>
				<path fill="#DF3326" d="M297.22,361.61c-2.95,10.12-5.8,19.46-6.44,20.25c-1.28,1.56-9.13,8.69-26.6,8.13
					C269.81,371.18,286.63,364.18,297.22,361.61z"/>
			</g>
			<path fill="#D65D54" d="M293.77,341.14c-13.33,5.67-39.14,14.45-64.44,11.76c-1.16-0.18-2.47-0.24-3.63-0.55
				c-3.34-0.41-6.53-0.94-9.84-2.01c0,0-1.06-9.84,1.82-8.92l1.58,5.81c0,0,2.76,0.51,7.55,1.12c0.73,0.03,1.6,0.2,2.62,0.25
				C243.55,349.74,269.99,350.4,293.77,341.14z"/>
			<path fill="#964627" d="M274.74,172.44c0,0-3.18,27.76,5.94,30.79c9.12,3.04,39.84-2.33,62.13,11.35l8.9-17.74
				C351.72,196.84,295.01,163.82,274.74,172.44z"/>
			<path fill="#964627" d="M196.76,201.61c0.97-1.17,30.97-19.67,39.08-12.07c8.1,7.6,3.88,20.88,3.88,20.88
				s-31.68,11.95-35.22,9.92C200.96,218.31,191.69,207.69,196.76,201.61z"/>
			<path fill="#EDEEEE" d="M273.02,242.62l55.51-0.94c0,0,3.73,30.49-26.8,32.13S273.02,242.62,273.02,242.62z"/>
			<path fill="#EDEEEE" d="M198.35,244.25h43.72c0,0,2.96,25.26-22.24,26.62C194.63,272.22,198.35,244.25,198.35,244.25z"/>
			<g>
				<g>
					<path fill="#894634" d="M230.03,255.75c0,7.95-6.44,14.39-14.38,14.39c-7.95,0-14.39-6.44-14.39-14.39s6.44-14.39,14.39-14.39
						C223.59,241.36,230.03,247.8,230.03,255.75z"/>
					<path fill="#704338" d="M221.08,256.96c0,3.34-2.71,6.04-6.04,6.04c-3.34,0-6.05-2.7-6.05-6.04c0-3.34,2.71-6.05,6.05-6.05
						C218.37,250.91,221.08,253.62,221.08,256.96z"/>
				</g>
				<g>
					<path fill="#894634" d="M307.7,256.73c0,7.94-6.44,14.38-14.4,14.38c-7.94,0-14.38-6.44-14.38-14.38
						c0-7.95,6.44-14.39,14.38-14.39C301.25,242.34,307.7,248.78,307.7,256.73z"/>
					<path fill="#704338" d="M298.74,257.93c0,3.34-2.7,6.05-6.04,6.05c-3.34,0-6.05-2.71-6.05-6.05c0-3.34,2.71-6.04,6.05-6.04
						C296.04,251.89,298.74,254.6,298.74,257.93z"/>
				</g>
				<path opacity="0.7" fill="#EDEEEE" d="M232.26,260.46c0,2.77-2.25,5.01-5.02,5.01c-2.76,0-5-2.24-5-5.01
					c0-2.77,2.24-5.01,5-5.01C230.01,255.46,232.26,257.7,232.26,260.46z"/>
				<circle opacity="0.7" fill="#EDEEEE" cx="305.18" cy="260.68" r="5.01"/>
			</g>
			<path fill="#E88B6A" d="M198.35,244.25h43.72c0,0-2.66-17.69-21.2-17.97C201.48,226,198.35,244.25,198.35,244.25z"/>
			<path fill="#E88B6A" d="M328.91,242.81h-55.99c0,0,3.36-19.97,27.08-20.25C324.84,222.28,328.91,242.81,328.91,242.81z"/>
			<path fill="#D25E54" d="M274.59,304.64c8.4,2.59-2.2,18.76-6.94,13.97c-4.75-4.79-10.42-2.2-10.42-2.2
				c-17.35,7.18-29.05,0.2-30.51-7.39c-0.54-2.82,0.12-6.18,1.17-9.28c2.79-5.63,13.95-28.28,15.69-34.65l-16.94,35.79l0.09,0.02
				c-0.13,0.25-0.25,0.48-0.37,0.74c-3.47,6.99-0.73,13.97,7.67,18.17c8.4,4.19,25.03-1.2,26.86-2.4c1.83-1.2,6.21,2.79,8.77,3.6
				c2.55,0.79,10.05-2.79,9.69-11.18C278.97,301.44,274.59,304.64,274.59,304.64z"/>
			<path fill="#F89B59" d="M504.17,776.81h110.2c-9.62-32.35-21.78-65.52-36.62-95.06c-93.02-185.23-87.44,47.49-87.44,47.49
				S495.39,749.77,504.17,776.81z"/>
			<path fill="#DF1E2E" d="M288.23,493.32c0,0,21.18,21.21,13.71,43.62l81.4-40.52c0,0-68.22-16-86.78-5.43
				C295.31,491.71,289.04,492.59,288.23,493.32z"/>
			<path fill="#EE6E2C" d="M262.08,480.88l2.03,47.79c0,0-3.9-55.15-37.82-12.51C226.29,516.15,247.46,477.97,262.08,480.88z"/>
			<path fill="#EE6E2C" d="M251.29,448.51c0.83,2.49-2.49,7.47,10.79,32.37c0,0-35.68,26.56-37.34,50.63c0,0-3.39-22.64,5.7-52.5
				C234.1,466.99,241.54,456.43,251.29,448.51L251.29,448.51z"/>
			<path fill="#E68C63" d="M376.12,413.76c-0.78-0.39-1.64-0.74-2.51-1.08l1.08-9.73c0,0,0.35,0.08,0.91,0.25
				C375.77,406.76,375.95,410.26,376.12,413.76z"/>
			<path fill="#DF1E2E" d="M587.8,776.81h37.54c-9.53-36.03-26.32-90.63-54.12-156.7C542.84,552.57,495.19,513.41,467,500.26
				c19.67,20.84,49.55,61.45,66.4,108.81C549.35,653.95,572.32,726.04,587.8,776.81z"/>
			<path fill="#E64A43" d="M587.8,776.81c-15.48-50.78-38.45-122.87-54.4-167.75c-16.84-47.36-44.66-86.94-64.33-107.79
				c-22.39-10.66-31.05-2.42-31.05-2.42c-28.13,58.28,2.83,191.36,38.05,277.95H587.8z"/>
			<path fill="#EE6E2C" d="M288.23,493.32c0,0,36.1-10.79,38.59,42.74c0,0,80.5-61.82,80.5-77.18c0-15.35-17.42-39.84-17.42-39.84
				S387.19,452.97,288.23,493.32z"/>
			<path fill="#E64A43" d="M239.65,776.81l24.47-248.15c-127.82,31.05-118.4,146.63-102.03,248.15H239.65z"/>
			<g>
				<path fill="#1B8D9D" d="M257.01,535.62c-2.09-11.7-7.14-21.76-13.69-28.85c-1.53-6.57,1.51-11.04-0.63-11.76
					c-7.03-2.36-18.84-0.27-23.49,1.22c-0.03,0.01-0.07,0.01-0.1,0.01c-17.41,3.11-29.59,25.79-25.13,50.68
					c4.12,23.03,18.55,39.33,35.44,40.05c6.16,0.85,21.39-1.88,21.39-1.88s-0.14-4.06-0.44-10.45
					C256.88,565.03,259.72,550.74,257.01,535.62z"/>
				<path fill="#0D5B65" d="M274.24,534.37c4.46,24.89-6.04,47.6-23.44,50.72c-17.41,3.12-35.14-14.53-39.6-39.42
					c-4.46-24.89,6.04-47.6,23.44-50.72S269.78,509.48,274.24,534.37z"/>
			</g>
			<g>
				<path fill="#373E49" d="M347.97,776.81h6.49c-1.37-2.4-2.74-4.81-4.07-7.24c-32.56-59.34-26.47-121.56-16.3-185.93
					c0.54-3.41-4.66-4.87-5.2-1.44c-8.14,51.49-16.49,105.94,1.41,156.37C335.04,751.89,341.15,764.53,347.97,776.81z"/>
			</g>
			<path fill="#8EA0BD" d="M388.74,531.2l-5.53-13.87l-0.21-0.56c7.48-20.83,9.12-40.33,7.95-57.06
				c3.28-17.03,2.38-33.85-9.68-42.87c-2.29-5.75-4.41-9.9-5.58-12.1c-0.61-1.17-1-1.77-1-1.77c0.3,0.13,0.61,0.25,0.91,0.43
				c0.61,0.26,1.17,0.51,1.78,0.78c0,0,0.08,0.04,0.12,0.08C445.23,436.84,388.74,531.2,388.74,531.2z"/>
			<path fill="#46525C" d="M383.21,517.32c-0.38,0.65-0.82,1.34-1.3,1.99l-10.46-7.56c0,0,14.57-26.24,19.5-52.04
				c3.28-17.03,2.38-33.85-9.68-42.87c-1.52-1.17-3.24-2.21-5.15-3.07c-0.13-2.98-0.3-6.01-0.43-9.03
				c-0.05-0.43-0.05-0.91-0.09-1.34v-0.18c0.48,0.13,1.08,0.48,1.78,0.96c0,0,0.08,0.04,0.12,0.08
				C388.44,411.52,425.17,454.17,383.21,517.32z"/>
			<g>
				<path fill="#1B8D9D" d="M371.47,553.99c-3.14,13.95-10.28,25.53-19.03,32.5c-0.4,0.33-0.87,0.7-1.32,1.02
					c-0.62,0.43-1.23,0.86-1.84,1.24c-2.26,6.25-3.77,10.21-3.77,10.21c-0.63-0.14-1.21-0.32-1.79-0.45
					c-2.48-0.55-7.07-1.73-11.41-3.08c-3.21-1.06-6.23-2.16-8.1-3.29c-15.95-7.5-23.22-28.99-17.87-52.8
					c2.14-9.54,6.32-17.82,11.69-24.27c4.87-5.9,10.68-10.27,16.8-12.68c2.6-1.07,5.26-1.75,7.91-2c1.56-0.17,3.12-0.2,4.7-0.08
					c1.16,0.07,2.35,0.25,3.52,0.51c0.04,0.01,0.04,0.01,0.09,0.02c1.62,0.13,3.99,0.52,6.64,1.17c0.81,0.18,1.61,0.41,2.46,0.64
					c3.07,0.83,6.36,1.99,9.19,3.48l0.04,0.01c1.58,0.78,3,1.62,4.18,2.64c0.18,0.08,0.36,0.27,0.53,0.4
					c1.26,1.09-0.81,2.98-2.52,6.57c-0.64,1.37-1.24,3.03-1.59,4.99c0.14,0.41,0.29,0.78,0.4,1.17c1.63,4.9,2.55,10.31,2.66,16.1
					c0.04,0.67,0.03,1.34,0.03,1.99C373.06,544.56,372.54,549.22,371.47,553.99z"/>
				<path fill="#534099" d="M388.51,559.75c-5.78,25.7-25.04,43.27-43.02,39.23c-17.98-4.05-27.87-28.17-22.09-53.87
					c5.78-25.71,25.04-43.28,43.02-39.23C384.4,509.92,394.3,534.04,388.51,559.75z"/>
				<path fill="#4FBECF" d="M391.68,558.97c-4.35,19.33-20.53,32.48-37.18,30.95c-11.16-6.36-16.74-23.61-12.64-41.83
					c4.27-19.04,17.64-32.6,31.03-32.33C387.64,522.13,395.88,540.28,391.68,558.97z"/>
				<path opacity="0.65" fill="#FFFFFF" d="M373.84,521.11c0,0-20.03,1.31-23.46,35.08c0,0,13.82-18.2,23.62-16
					C383.8,542.39,386.32,527.46,373.84,521.11z"/>
			</g>
			<path fill="#E64A43" d="M163.34,776.81c15.18-25.79,27.35-49.89,28.37-62.3c2.89-34.58-103.54-59-120.21-36.71
				c0,0-45.48,75.61-45.48,97.21c0,0.55,0.08,1.17,0.18,1.79H163.34z"/>
			<path fill="#964627" d="M147.77,154.42c0,0-17.32-28.26,47.73-51.22c0,0-61.23-59.32-15.31-57.4
				c45.92,1.92,70.79,38.26,70.79,38.26s-80.36-89.92-15.31-59.31c65.05,30.62,65.05,63.14,65.05,63.14s-40.18-80.36,7.65-40.18
				s42.09,51.66,42.09,51.66s0-76.53,21.05-47.83s0,55.49,0,55.49s34.44-45.92,44.01-7.65c9.57,38.27-22.92,103.02-22.11,129.97
				c0,0-36.7-72.08-55.83-83.57c-19.13-11.48-33.62,2.2-117.22,12.91C144,168.47,147.77,154.42,147.77,154.42z"/>
			<path fill="#964627" d="M337.6,145.77c0,0,39.26,27.02,37.1,65.2c-2.16,38.18-11.52,59.79-11.52,59.79l12.97-0.72l17.28-44.46
				C393.42,225.58,376.85,144.69,337.6,145.77z"/>
			<g>
				<path fill="#E68C63" d="M384.79,292.14c-1.87-2.75-3.3-5.66-4.38-8.62c0.25,0.57,0.64,1.09,0.98,1.65
					c13.84,20.77,41.01-34.84,34.61-57c-1.04-3.52-2.66-5.79-4.73-7.01c4.97-0.13,9.11,2.27,11.08,9.1
					C429.3,254.29,399.82,314.65,384.79,292.14z"/>
				<path fill="#FAAA73" d="M381.4,285.17c-0.35-0.57-0.74-1.09-0.98-1.65c-3.99-10.49-3.79-21.86-2.61-30.7
					c1.43-10.67,8.12-20.29,18.26-26.26c4.98-2.96,10.44-5.32,15.22-5.4c2.07,1.22,3.69,3.48,4.73,7.01
					C422.41,250.33,395.24,305.94,381.4,285.17z"/>
				<path fill="#E68C63" d="M405.45,235.85c-12.58-3.79-16.48,24.88-16.48,24.88c1.75-6.39,3.79-11.02,5.75-14.39
					c-0.44,5.77-0.29,18.39,9,21.7c0,0-8.66-5.31-5.77-24.86c0.18-1.21,0.79-2.38,1.75-3.26c0.12-0.11,0.24-0.22,0.36-0.32
					c1.44-1.24,3.47-1.88,5.45-1.61c10.16,1.4,8.19,11.39,8.19,11.39S418.04,239.63,405.45,235.85z"/>
			</g>
		</g>
	</g>
</g>
</svg>
