<?xml version="1.0" encoding="utf-8"?>
<!-- Generator: Adobe Illustrator 25.2.3, SVG Export Plug-In . SVG Version: 6.00 Build 0)  -->
<svg version="1.1" id="Layer_1" xmlns="http://www.w3.org/2000/svg" xmlns:xlink="http://www.w3.org/1999/xlink" x="0px" y="0px"
	 viewBox="0 0 576 576" enable-background="new 0 0 576 576" xml:space="preserve">
<g>
	<g>
		<defs>
			<path id="SVGID_1_" d="M575.81,288.17c0,159.15-129.02,288.17-288.17,288.17c-159.15,0-288.17-129.02-288.17-288.17
				C-0.53,129.02,128.49,0,287.64,0C446.79,0,575.81,129.02,575.81,288.17z"/>
		</defs>
		<use xlink:href="#SVGID_1_"  overflow="visible" fill="#F9E3D9"/>
		<clipPath id="SVGID_2_">
			<use xlink:href="#SVGID_1_"  overflow="visible"/>
		</clipPath>
		<g clip-path="url(#SVGID_2_)">
			<g>
				<path fill="#F8A083" d="M108.95,645.34c-0.05,0.8,0.38,2.2,1.27,4c0.72,1.5,1.7,3.3,2.97,5.29
					c9.4,15.24,31.55,42.52,37.16,45.67c2.25,1.25,5.44,14.14,7.86,32.98c1.79,13.98,3.15,44.45,3.37,74.73h202.38
					c0.94-17.74,3.49-35.8,8.25-54.54c0.83-3.24,2.81-6.09,4.23-9.14c0.66-1.6,1.38-3.15,2.04-4.69c0.44-0.9,0.83-1.85,1.26-2.9
					c0.33-0.85,0.72-1.79,1.05-2.8c0,0,0-0.05,0.06-0.1c2.8-8.3,5.16-20.94,4.17-39.28v-0.15c-0.83-14.29-3.68-31.88-10-53.61
					c1.1-0.4,2.25-0.8,3.41-1.3l0.05-0.05c0.16-0.05,0.27-0.1,0.44-0.14c0.16-0.05,0.27-0.1,0.44-0.16c1.16-0.45,2.37-0.95,3.58-1.5
					c1.65-0.75,3.35-1.55,5.06-2.4l2.14-1.05c1.1-0.55,2.2-1.15,3.36-1.75c8.58-4.55,17.81-10.14,26.99-16.14
					c3.3-13.49,4.9-22.28,4.9-24.53c0,0,9.51-31.97-8.69-60.55c-0.16-0.3-0.33-0.6-0.55-0.9c-0.11-0.1-0.22-0.25-0.28-0.4
					c-1.76-2.65-3.79-5.25-6.05-7.84c-0.1-0.1-0.21-0.25-0.33-0.35c-1.38-1.5-2.86-3-4.45-4.4c-0.16-0.1-0.27-0.2-0.38-0.3
					c-2.58-1.7-5.61-2.9-8.8-3.2c-10.33-1-24.85,6.2-25.17,54.56c-0.11,15.83,2.85,40.57,7.58,69.85c-0.99-4.4-2.04-8.94-3.24-13.69
					c-0.77-2.7-1.54-5.4-2.48-8.19c-18.47-58.36-0.66-93.43,13.36-110.37c-2.2-1.25-4.12-2.3-5.44-3
					c-8.25-4.5-17.31-8.04-26.99-10.64c-3.47-0.95-6.98-1.79-10.55-2.5c-21.17,25.98-67.45,73.99-127.47,84.64
					c-4.56,0.8-8.75,1.25-12.48,1.3c-0.83,0.05-1.6,0.05-2.37,0.05c-0.6,0-1.21,0-1.81-0.05c-38.04-1.45-27.43-41.82-16.16-68.95
					c0.05-0.15,0.11-0.3,0.22-0.45c0.33-0.8,0.66-1.6,0.99-2.4c1.21-2.95,2.53-5.64,3.68-8.14c-5,1.7-9.89,3.6-14.46,5.85
					c-0.94,0.45-1.87,0.9-2.75,1.35c-0.05,0-0.11,0.05-0.11,0.05c-0.88,0.45-1.7,0.9-2.53,1.35c-6.65,3.65-28.66,37.06-31.95,45.1
					c-13.79,33.37-26.8,77.75-30.1,93.15v0.05C105.16,644.99,109.12,643.7,108.95,645.34z"/>
				<path fill="#F8A083" d="M175.63,808.01c4.54-22.94,9.01-47.22,13.04-66.98c-51.12-4.99-77.01-18.58-87.62-26.03
					c-3.63,31.05-6.71,63.92-9.16,93.02H175.63z"/>
				<path fill="#019D75" d="M101.04,714.99c10.61,7.45,36.5,21.04,87.62,26.03c1.1-5.64,2.25-10.94,3.3-15.74
					c4.06-18.14,7.47-37.22,9.79-56.91c0,0,0,0,0-0.05c3.57-30.08,4.51-61.46,1.2-92.53c-2.25-21.04-6.43-41.92-13.08-62.21
					c-1.38-4.2-3.36-8.15-6.05-9.6c-0.28-0.15-0.55-0.3-0.83-0.4c-3.19-1.1-7.59-1.75-12.7-0.55c-0.05,0-0.11,0.05-0.11,0.05
					c-0.72,0.15-1.42,0.4-2.2,0.65c-5.49,1.85-11.65,5.94-17.86,13.74c-0.33,0.3-0.66,0.65-0.88,1c-4.9,6.35-9.85,14.99-14.57,26.68
					c-0.21,0.5-0.44,1.05-0.66,1.6c-8.8,22.23-16.87,60.5-23.8,102.57c-0.22,1.4-0.44,2.8-0.72,4.25c-0.49,3.24-1.05,6.55-1.54,9.89
					C105.49,679.27,103.19,696.81,101.04,714.99z"/>
				<path fill="#F8A083" d="M496.25,808.01c-2.07-34.95-6.32-74.98-14.71-115.6c-13.47,10.44-42.05,27.38-87.84,29.63
					c5.91,29.21,12.3,58.82,18.36,85.97H496.25z"/>
				<path fill="#36B87F" d="M314.16,486.21v-0.15c-8.8-0.6-34.19-2.59-63.22-1v1.15c0,15.89,14.13,28.73,31.61,28.73
					C299.98,514.94,314.16,502.1,314.16,486.21z"/>
				<path fill="#36B87F" d="M94.94,649.19c4.01,1.3,8.02,2.55,11.98,3.65l6.27,1.79c0.33,0.05,0.6,0.15,0.94,0.25
					c4.78,1.35,9.51,2.5,14.18,3.6c2.31,0.55,4.62,1.05,6.98,1.55c9.24,2,18.25,3.6,27.05,4.84c2.15,0.31,4.23,0.6,6.33,0.85
					c0.88,0.15,1.7,0.25,2.52,0.3c2.26,0.3,4.45,0.55,6.65,0.7c0.11,0.05,0.17,0.05,0.22,0.05c2.31,0.25,4.57,0.46,6.76,0.6
					c0.44,0.05,0.83,0.1,1.21,0.1c2.31,0.2,4.62,0.35,6.87,0.45c2.36,0.15,4.73,0.3,7.04,0.35c0.6,0.05,1.21,0.05,1.81,0.05
					c0.49,0,1.04,0.05,1.53,0.05c3.13,0.1,6.27,0.15,9.4,0.15c3.9,0,7.8-0.05,11.54-0.2c1.1-0.05,2.26-0.1,3.3-0.15
					c1.37-0.05,2.75-0.1,4.07-0.2c2.09-0.1,4.12-0.25,6.15-0.4c1.98-0.15,4.02-0.3,6-0.49c2.36-0.2,4.67-0.46,6.98-0.75
					c2.75-0.3,5.39-0.65,8.03-0.99c2.63-0.35,5.27-0.75,7.86-1.2c1.49-0.2,2.91-0.45,4.34-0.75c2.2-0.4,4.4-0.8,6.54-1.25
					c2.59-0.5,5.17-1.05,7.75-1.65c1.65-0.34,3.3-0.75,4.89-1.14c2.04-0.46,4.07-1,6.05-1.5c2.26-0.6,4.45-1.2,6.65-1.85
					c1.59-0.45,3.19-0.9,4.73-1.4c20.67-6.29,38.09-13.99,51.89-21.24c1.43-0.75,2.86-1.5,4.23-2.25c1.05-0.55,2.04-1.1,3.02-1.7
					c2.97-1.65,5.77-3.3,8.3-4.84c1.21,4.75,2.26,9.29,3.24,13.69c-4.73-29.28-7.69-54.01-7.58-69.85
					c0.33-48.37,14.84-55.57,25.17-54.56c3.02,0.3,5.94,1.4,8.41,2.95c-2.15-1.5-9.73-6.09-15.5-9.24c-0.99-0.55-1.92-1.1-2.86-1.55
					c-2.2-1.25-4.12-2.3-5.44-3c-8.25-4.5-17.31-8.04-26.99-10.64c-3.47-0.95-6.98-1.79-10.55-2.5c-4.79-1-9.73-1.85-14.74-2.45
					c0.06,0.79,0.06,1.65,0.06,2.45c0,22.94-20.45,41.57-45.68,41.57s-45.73-18.64-45.73-41.57c0-1.25,0.05-2.5,0.16-3.75
					c-16.71,1.6-33.97,4.55-49.47,9.74c-5,1.7-9.9,3.6-14.46,5.85c-0.94,0.45-1.87,0.9-2.75,1.35c-0.05,0-0.11,0.05-0.11,0.05
					c-0.72,0.15-1.42,0.4-2.2,0.65c-0.11,0.25-0.22,0.45-0.33,0.7c-4.56,8.89-13.9,19.89-24.79,31.82c-2.64,2.9-5.38,5.9-8.19,8.9
					c-0.88,0.95-1.76,1.9-2.63,2.85c-11.98,12.74-24.46,26.08-34.03,38.57C80.7,609.22,83.18,631.86,94.94,649.19z"/>
				<path fill="#008C66" d="M157.89,732.66v0.15c0.99,7.51,1.82,19.83,2.43,34.3c112.11,11.67,181.52,0.1,210.32-6.81
					c0.49-2.4,1.11-4.86,1.71-7.26c0.83-3.26,2.81-6.11,4.24-9.16c0.66-1.61,1.38-3.15,2.04-4.71c0.44-0.9,0.83-1.85,1.27-2.91
					c0.33-0.85,0.72-1.8,1.04-2.8l-161.57-33.1L157.89,732.66z"/>
				<path fill="#00AC7A" d="M94.94,649.19c4.51,6.8,10.44,12.69,17.21,17.49c2.47,1.8,5,3.4,7.64,4.84
					c14.18,7.8,23.42,23.38,29.07,37.08c5.72,13.59,7.81,25.33,7.81,25.33c0.49-0.2,0.99-0.45,1.53-0.65
					c18.75-7.99,39.74-10.19,60.03-6.69c77.06,13.39,162.54,7.34,162.54,7.34s0-0.05,0.05-0.1c0.77-1.45,8.53-17.49,3.58-59.76
					c-1.16-9.99-3.02-21.49-5.94-34.62c-0.05-0.35-0.11-0.7-0.22-1.05v-0.15c-0.99-4.4-2.04-8.94-3.24-13.69
					c-2.52,1.55-5.33,3.2-8.3,4.84c-0.99,0.6-1.98,1.15-3.02,1.7c-1.37,0.75-2.75,1.5-4.23,2.25c-13.8,7.24-31.22,14.94-51.89,21.24
					c-1.59,0.5-3.13,0.95-4.73,1.4c-2.2,0.65-4.4,1.25-6.65,1.85c-1.98,0.5-4.01,1.05-6.05,1.5c-1.59,0.4-3.24,0.8-4.89,1.14
					c-2.58,0.6-5.16,1.15-7.75,1.65c-2.14,0.45-4.34,0.9-6.54,1.25c-1.43,0.3-2.85,0.55-4.34,0.75c-2.58,0.45-5.16,0.85-7.86,1.2
					c-2.64,0.4-5.28,0.75-8.03,0.99c-2.31,0.3-4.62,0.55-6.98,0.75c-1.98,0.2-3.96,0.34-6,0.49c-2.03,0.15-4.06,0.31-6.15,0.4
					c-1.32,0.1-2.7,0.15-4.07,0.2c-1.04,0.05-2.15,0.1-3.3,0.15c-3.74,0.15-7.64,0.2-11.54,0.2c-3.08,0-6.22-0.05-9.4-0.15
					c-1.1,0-2.2-0.05-3.35-0.1c-2.31-0.05-4.68-0.2-7.04-0.35c-2.26-0.1-4.56-0.25-6.87-0.45c-0.38,0-0.77-0.05-1.21-0.1
					c-2.2-0.15-4.45-0.35-6.76-0.6c-0.05,0-0.11,0-0.22-0.05c-2.2-0.15-4.4-0.4-6.65-0.7c-0.82-0.05-1.65-0.15-2.52-0.3
					c-2.09-0.25-4.18-0.55-6.33-0.85c-8.79-1.25-17.8-2.84-27.05-4.84c-2.36-0.5-4.67-0.99-6.98-1.55c-4.68-1.1-9.4-2.3-14.18-3.6
					c-0.33-0.1-0.6-0.2-0.94-0.25l-6.27-1.79C102.97,651.74,98.95,650.49,94.94,649.19z"/>
				<path fill="#36B87F" d="M370.67,568.4c-0.11,15.83,2.85,40.57,7.58,69.85v0.15c0.06,0.35,0.11,0.7,0.17,1.1
					c1.76,10.94,3.79,22.58,5.99,34.58c2.86,15.49,5.99,31.68,9.29,47.96c45.79-2.24,74.37-19.18,87.84-29.63v-0.05
					c-11.82-57.2-31.72-115.31-64.86-161.13c-2.31-3.24-4.73-6.39-7.2-9.49c-0.17-0.25-0.33-0.45-0.49-0.65
					c-1.16-1.4-2.48-2.7-3.96-3.75c-0.16-0.1-0.27-0.2-0.38-0.3c-2.59-1.7-5.61-2.9-8.8-3.2
					C385.51,512.84,370.99,520.04,370.67,568.4z"/>
				<path fill="#F8A083" d="M250.94,428.59v57.62c0,15.89,14.13,28.73,31.61,28.73c17.43,0,31.61-12.84,31.61-28.73v-57.62H250.94z"
					/>
				<path fill="#FFFFFF" d="M236.82,489.86c0,22.94,20.5,41.57,45.73,41.57s45.68-18.64,45.68-41.57c0-0.8,0-1.65-0.06-2.45
					c-4.62-0.65-9.29-1.05-14.01-1.35v0.15c0,15.89-14.18,28.73-31.61,28.73c-17.48,0-31.61-12.84-31.61-28.73v-1.15
					c-4.56,0.25-9.23,0.6-13.96,1.05C236.87,487.36,236.82,488.61,236.82,489.86z"/>
			</g>
			<g>
				<path fill="#F47A4C" d="M164.65,252.62c-1.85-0.46-21.73-18.49-39.3,2.78c-17.56,21.26,1.39,74.89,15.26,80.43
					c13.87,5.55,25.43,1.39,26.81-2.31C168.81,329.82,164.65,252.62,164.65,252.62z"/>
				<path fill="#711912" d="M170.19,202.61c-5.43,1.75-26.56,89.01-26.56,89.01s-11.52-74.16,0-97.75
					C155.14,170.27,170.19,202.61,170.19,202.61z"/>
				<path fill="#F8A083" d="M199.45,96.99c51.01-46.83,126.96-46.83,177.97,0c49.08,45.06,58.97,114.92,57.39,170.78
					c1.57,51.1-13.65,113.22-62.74,154.45c-51.01,42.85-121.62,44.65-172.63,1.81c-49.09-41.23-58.97-105.15-57.4-156.25
					C140.48,211.91,150.36,142.05,199.45,96.99z"/>
				<path fill="#FFFFFF" d="M290.62,337.13c-4.57,33.07-25.8,58.11-51.34,58.11s-46.76-25.04-51.33-58.11H290.62z"/>
				<path fill="#F47A4C" d="M233.81,304.48h-31.01C202.81,304.48,215.27,332.33,233.81,304.48z"/>
				<path fill="#92484B" d="M185.71,213.48l-1.2,15.07c0,0-15.18-4.03-36.79,2.91l-0.75-9.56
					C146.96,221.91,170,209.91,185.71,213.48z"/>
				<path fill="#711912" d="M292.86,213.48l1.21,15.07c0,0,15.18-4.03,36.78,2.91l0.76-9.56
					C331.61,221.91,308.56,209.91,292.86,213.48z"/>
				<path fill="#74403B" d="M312.85,249.31c8.06,0,14.59,6.53,14.59,14.59v19.32c0,8.06-6.53,14.59-14.59,14.59
					c-8.06,0-14.59-6.54-14.59-14.59V263.9C298.27,255.85,304.8,249.31,312.85,249.31z"/>
				<path fill="#74403B" d="M162.1,249.31c8.05,0,14.59,6.53,14.59,14.59v19.32c0,8.06-6.54,14.59-14.59,14.59
					c-8.06,0-14.59-6.54-14.59-14.59V263.9C147.51,255.84,154.04,249.31,162.1,249.31z"/>
				<path fill="#711912" d="M186.01,213.46l-1.21,15.07c0,0-15.18-4.03-36.78,2.91l-0.76-9.56
					C147.26,221.88,170.3,209.89,186.01,213.46z"/>
				<g>
					<g>
						<path fill="#711912" d="M-160.28,16.78c0,0,52.48-56.65,87.58-17.85c56.57,62.53,29.32,109.43,115.67,68.32
							c86.35-41.1,134.26,21.8,136.34,32.05c2.09,10.26-31.6,25.68-31.6,25.68S70.5,90.49,26.45,141.15
							c-44.06,50.65-124.39,0.77-116.93-70.2C-83.02-0.04-160.28,16.78-160.28,16.78z"/>
						<path fill="#711912" d="M-7.25,1.62c0,0-40.28,64.85,1.76,103.3s128.44-36.86,156.41-20.13
							c27.97,16.74-10.22-67.37-57.82-51.26C45.51,49.64-10.52,84.57-7.25,1.62z"/>
						<path fill="#711912" d="M-87.21,142.94c0,0,27.04,76.77,84.34,43.72c57.3-33.05,66.96-73.49,105.09-72.71
							c38.13,0.78-36.1-16.95-36.1-16.95S-29.01,221.91-87.21,142.94z"/>
					</g>
					<polygon fill="#1295D3" points="182.85,82.27 201.43,101.21 156.48,146.49 135.45,131.89 					"/>
				</g>
				<path fill="#711912" d="M292.1,108.54c0,0,32.72,83.2,152.31,120.16c0,0,14.96-162.03-152.31-179.9V108.54z"/>
				<path fill="#711912" d="M323.59,105.7c-2.84,5.68-4.47,73.94-185.06,121.31c0,0-14.22-175.48,153.57-178.21L323.59,105.7z"/>
				<path fill="#711912" d="M410.71,202.61c5.43,1.75,26.56,89.01,26.56,89.01s13.98-74.16,2.46-97.75
					C428.21,170.27,410.71,202.61,410.71,202.61z"/>
				<path fill="#711912" d="M271.37,115.2c0.12,1.96,14.72,50.46-21.48,85.86c0,0,82.31,9.83,85.82-51.12
					C339.2,88.98,271.37,115.2,271.37,115.2z"/>
				<g>
					<g>
						<path fill="#711912" d="M733.35,17.26c0,0-52.48-56.65-87.59-17.86C589.2,61.93,616.45,108.84,530.1,67.73
							c-86.35-41.11-134.26,21.79-136.35,32.05c-2.09,10.25,31.61,25.67,31.61,25.67s77.19-34.48,121.25,16.17
							c44.06,50.66,124.39,0.78,116.93-70.2C656.08,0.44,733.35,17.26,733.35,17.26z"/>
						<path fill="#711912" d="M580.32,2.09c0,0,40.28,64.85-1.76,103.29c-42.05,38.45-128.44-36.86-156.41-20.12
							S432.37,17.89,479.96,34C527.55,50.11,583.58,85.04,580.32,2.09z"/>
						<path fill="#711912" d="M660.28,143.41c0,0-27.05,76.76-84.34,43.72c-57.3-33.05-66.96-73.49-105.09-72.71
							c-38.13,0.77,36.1-16.95,36.1-16.95S602.08,222.38,660.28,143.41z"/>
					</g>
					<polygon fill="#1295D3" points="390.21,82.73 371.63,101.69 416.59,146.97 437.62,132.36 					"/>
				</g>
				<path fill="#F47A4C" d="M407.72,271.14c-0.09-9.86,5.81-18.82,14.98-22.45c8.71-3.46,19.7-4.33,28.82,6.71
					c17.56,21.26-1.39,74.89-15.26,80.43c-13.87,5.55-20.89-0.1-23.85-2.71C407.51,328.78,407.93,292.28,407.72,271.14z"/>
			</g>
		</g>
	</g>
</g>
</svg>
