<?xml version="1.0" encoding="utf-8"?>
<!-- Generator: Adobe Illustrator 25.2.3, SVG Export Plug-In . SVG Version: 6.00 Build 0)  -->
<svg version="1.1" id="Layer_1" xmlns="http://www.w3.org/2000/svg" xmlns:xlink="http://www.w3.org/1999/xlink" x="0px" y="0px"
	 viewBox="0 0 576 576" enable-background="new 0 0 576 576" xml:space="preserve">
<g>
	<g>
		<defs>
			<path id="SVGID_1_" d="M576,287.76c0,158.92-128.83,287.75-287.76,287.75c-158.92,0-287.75-128.83-287.75-287.75
				C0.49,128.83,129.32,0,288.24,0C447.17,0,576,128.83,576,287.76z"/>
		</defs>
		<use xlink:href="#SVGID_1_"  overflow="visible" fill="#F9E3D9"/>
		<clipPath id="SVGID_2_">
			<use xlink:href="#SVGID_1_"  overflow="visible"/>
		</clipPath>
		<g clip-path="url(#SVGID_2_)">
			<path fill="#5D290D" d="M162.28,119.06c0,0-40.08,83.43,1.6,148.09l59.41-100.97L162.28,119.06z"/>
			<path fill="#F47A4E" d="M185.28,264.02c-1.66-0.41-19.53-16.61-35.31,2.5c-15.78,19.1,1.25,67.29,13.71,72.28
				c12.46,4.98,22.85,1.25,24.09-2.08C189.01,333.4,185.28,264.02,185.28,264.02z"/>
			<polygon fill="#AC2523" points="128.58,266.86 191.29,258.41 191.29,264.95 128.58,275.21 			"/>
			<path fill="#F8A184" d="M156.61,732.99c45.43-130.9,27.17-224.47,25.83-231.66c-0.09-0.31-0.11-0.47-0.11-0.47l-20.38,17.59
				c-14.12,10.93-26.26,24.21-35.6,39.42c-0.09,0.14-0.18,0.27-0.26,0.41c-38.03,62.22-48.92,127.72-50.92,174.71H156.61z"/>
			
				<rect x="253.65" y="403.96" transform="matrix(-1 -1.224647e-16 1.224647e-16 -1 589.7623 921.7804)" fill="#F8A184" width="82.45" height="113.86"/>
			<path fill="#F8A184" d="M497.55,732.99c2.82-144.76-68.55-209.45-72.51-215.6c-0.21-0.25-0.29-0.4-0.29-0.4l-13.83,21.79
				c-8.92,15.46-15.12,32.35-17.99,49.97c-0.03,0.16-0.05,0.32-0.08,0.48c-8.67,53.8-2.62,103.56,7.66,143.75H497.55z"/>
			<path fill="#F8A184" d="M216.54,124.16c45.84-42.07,114.1-42.07,159.94,0c44.11,40.49,52.99,103.27,51.57,153.47
				c1.41,45.93-12.26,101.75-56.37,138.79c-45.83,38.5-109.29,40.13-155.13,1.62c-44.1-37.04-52.99-94.49-51.57-140.41
				C163.56,227.43,172.44,164.65,216.54,124.16z"/>
			<path fill="#68423E" d="M318.46,304.62L318.46,304.62c7.24,0,13.11-5.87,13.11-13.1v-17.37c0-7.24-5.87-13.11-13.11-13.11l0,0
				c-7.24,0-13.11,5.87-13.11,13.11v17.37C305.34,298.76,311.21,304.62,318.46,304.62z"/>
			<path fill="#68423E" d="M182.98,304.62L182.98,304.62c7.24,0,13.11-5.87,13.11-13.1v-17.37c0-7.24-5.87-13.11-13.11-13.11l0,0
				c-7.24,0-13.11,5.87-13.11,13.11v17.37C169.87,298.76,175.74,304.62,182.98,304.62z"/>
			<path fill="#5D290D" d="M204.2,228.85l-1.08,13.54c0,0-13.64-3.62-33.05,2.62l-0.68-8.59
				C169.38,236.42,190.08,225.64,204.2,228.85z"/>
			<path fill="#5D290D" d="M300.49,228.85l1.08,13.54c0,0,13.63-3.62,33.05,2.62l0.67-8.59C335.3,236.42,314.6,225.64,300.49,228.85
				z"/>
			<g>
				<path fill="#68423E" d="M248.48,395.79c27.5,0.21,46.79-26.03,44.82-32.2c-0.9-3.41-6.2-1.99-14.28,0.26
					c-8.02,2.2-18.77,5.18-30.55,4.96c-13.52,0.26-25.64-3.71-33.89-5.87c-6.18-1.64-10.18-2.28-10.93,0.64
					C201.67,369.76,220.97,396,248.48,395.79z"/>
				<path fill="#FFFCFD" d="M214.59,362.95l2.78,16.74c27.61,14.41,60.4-0.62,60.4-0.62l1.26-15.22c-8.02,2.2-18.77,5.18-30.55,4.96
					C234.96,369.08,222.84,365.1,214.59,362.95z"/>
			</g>
			<path fill="#D0D5CF" d="M422.46,732.99c8.31-74.56,13.58-146.31,10.62-190.59c-2.41-36.13-45.04-57.01-79.29-68.74
				c-5.79-1.98-11.69-3.53-17.66-4.7c0,0-6.04,46.26-52.25,45.09c0,0-26.24-1.42-30.2-42.36C209,482,170.32,504.09,156.7,523.13
				c-49.42,69.18-39.87,147.28-22.06,209.86H422.46z"/>
			<path fill="#5D290D" d="M285.47,193.66c9.38,1.54,51.69,16.5,111.24,3.54l25.43,85.64c0,0,31.77-108.02,9.97-137.46
				c-21.78-29.45-35.4-27.09-35.4-27.09s11.26-22.38-7.59-32.98c-18.85-10.6-126.96-36.51-175.37,0
				c-48.41,36.52-68.02,10.44-68.02,10.44S138.98,169.67,285.47,193.66z"/>
			<g>
				<path fill="#5D290D" d="M170.97,362.89c5.89,27.98,20.59,62.52,57.01,76.94c0.19,0.09,0.43,0.14,0.62,0.23
					c7.87,0.85,14.51,1.04,18.94,0.99h1.23c0.43-0.05,0.75-0.05,1.18-0.05c11.87-0.23,39.53-2.36,63.74-15.45
					c11.68-6.31,45.18-17.37,53.14-29.76c25.54-39.58,29.88-100.44,29.88-100.44s-17.5,76.1-72.53,65.42
					c-2.96-0.57-6.03-0.42-9.14-1.55c0,0-8.53-26.72-48.2-26.2c-6.03,0.09-12.76,0.8-20.26,2.36c-6.69-1.04-12.67-1.46-18.05-1.37
					c-39.47,0.56-47.02,27.09-47.02,27.09c-1.37,0.56-4.63-0.41-9.04-14.14c-0.54-1.65,1.6,15.93-0.05,15.98
					C171.97,362.94,171.49,362.94,170.97,362.89z M257.15,415.38c-2.5,0.05-4.47-0.52-5.65-1.75c-8.86-9.28,1.56-12.95,1.56-12.95
					l-4.16-0.49c-3.34-0.4-6.72-0.36-10.05,0.12l-4.31,0.61c0,0,10.51,3.39,1.74,12.91c-1.18,1.27-3.15,1.89-5.65,1.93
					c-16.07,0.23-49.66-23.8-41.23-48.9c4.81-14.33,19.27-18.09,32.65-18.28c7.54-0.14,14.8,0.94,19.75,1.88
					c2.12,0.42,4.28,0.62,6.45,0.56c2.17-0.05,4.34-0.28,6.5-0.75c4.94-1.08,12.11-2.36,19.7-2.45c13.38-0.19,27.85,3.2,32.84,17.38
					C315.99,390.08,273.21,415.14,257.15,415.38z"/>
			</g>
			<g>
				<path fill="#0F1F33" d="M297.59,692.69c0,13.97-5.35,27.47-14.69,37.03c-1.14,1.16-2.32,2.25-3.54,3.27h23.81
					c6.53-10.04,10.72-22.01,11.61-34.92c1.4-20.25-5.28-40.11-18.31-54.49c-1.73-1.91-4.12-2.9-6.56-2.69
					c-2.43,0.19-4.65,1.54-6.1,3.69l-0.4,0.6c-2.45,3.65-2.08,8.68,0.87,11.97C292.86,666.7,297.59,679.32,297.59,692.69z"/>
				<path fill="#0F1F33" d="M223.74,732.99c-10.2-8.51-17.16-21.51-18.2-36.25c-1.05-14.69,3.74-29.1,13.15-39.57
					c2.97-3.3,3.34-8.35,0.89-12l-0.4-0.6c-1.45-2.15-3.68-3.5-6.11-3.7c-2.44-0.19-4.81,0.78-6.53,2.67
					c-11.94,13.17-18.52,30.62-18.52,49.14c0,14.49,4.18,28.59,11.73,40.3H223.74z"/>
				<path fill="#0F1F33" d="M251.49,717.74c-4.15,0-8.35-3.06-8.35-8.91v-79.24c0-5.85,4.21-8.9,8.36-8.9c4.15,0,8.35,3.06,8.35,8.9
					v79.24C259.85,714.67,255.64,717.74,251.49,717.74z"/>
			</g>
			<path fill="#D0D5CF" d="M502.88,732.99c-3.31-147.51-77.83-215.6-77.83-215.6c-54.08,51.34-40.54,152.82-25.19,215.6H502.88z"/>
			<path fill="#D0D5CF" d="M158.49,732.99c14.21-84.32-1.81-209.85-1.81-209.85c-59.16,45.52-80.17,161.05-86.57,209.85H158.49z"/>
			<polygon fill="#5D290D" points="396.71,197.19 396.71,292.68 423.91,294.05 428.19,193.1 			"/>
			<polygon fill="#AC2523" points="350.45,266.86 422.14,258.41 422.14,264.95 350.45,275.21 			"/>
			<path fill="#5D290D" d="M426.56,282.83c0,0,13.19,155.43-141.29,163.05c0,0-11.6,1.13-63.69-6.78c0,0,126.3-22.91,146.72-58.04
				c20.42-35.12,28.41-88.38,28.41-88.38L426.56,282.83z"/>
			<path fill="#5D290D" d="M170.97,362.89c5.89,27.98,20.59,62.52,57.01,76.94c0.19,0.09,0.43,0.14,0.62,0.23
				c65.82,25.68,134.32-16.26,134.32-16.26l-49.23,1.75l-27.57,0.94l-61.67-1.6l-32.04-24.31c0,0-7.96-18.24-14.94-38.25
				c-5.13-14.7-9.7-30.39-10.22-40.56C167.26,321.76,166.22,340.18,170.97,362.89z"/>
			<path fill="#F47A4E" d="M403.7,280.67c-0.09-8.87,5.22-16.92,13.46-20.19c7.83-3.1,17.7-3.89,25.89,6.04
				c15.79,19.1-1.24,67.29-13.71,72.28c-12.46,4.98-18.77-0.09-21.43-2.44C403.51,332.46,403.89,299.65,403.7,280.67z"/>
			<path fill="#F47A4E" d="M247.42,310.61h-27.86C219.57,310.61,230.77,335.64,247.42,310.61z"/>
			<g>
				<g>
					<g>
						<path opacity="0.4" fill="#FFFFFF" d="M260.71,277.59l-0.1,20.86c-0.01,7.31,4.57,13.29,10.09,13.26l69.37-0.47
							c5.67-0.06,10.27-6.09,10.27-13.46l0.1-20.8c0.02-1.6-1.06-2.91-2.35-2.91l-85.15,0.62
							C261.77,274.68,260.74,275.99,260.71,277.59z"/>
						<path opacity="0.4" fill="#FFFFFF" d="M127.18,277.59l-0.1,20.86c0,7.31,4.57,13.29,10.09,13.26l69.36-0.47
							c5.68-0.06,10.27-6.09,10.28-13.46l0.09-20.8c0.03-1.6-1.06-2.91-2.34-2.91l-85.15,0.62
							C128.23,274.68,127.2,275.99,127.18,277.59z"/>
						<g opacity="0.29">
							<g>
								<polygon fill="#FFFFFF" points="294.76,274.26 314.26,311.24 336.71,311.11 317.22,274.12 								"/>
							</g>
							<g>
								<polygon fill="#FFFFFF" points="261.31,274.47 280.81,311.45 298.77,311.34 279.27,274.35 								"/>
							</g>
						</g>
						<g opacity="0.29">
							<g>
								<polygon fill="#FFFFFF" points="162.04,275.4 181.53,312.39 203.98,312.25 184.49,275.27 								"/>
							</g>
							<g>
								<polygon fill="#FFFFFF" points="128.58,275.61 148.07,312.6 166.04,312.49 146.55,275.51 								"/>
							</g>
						</g>
						<path fill="#AC2523" d="M120.22,278.59l-0.1,20.8c-0.01,5.46,1.41,10.26,3.89,14.06c3,5.13,7.85,8.35,13.2,8.3l69.43-0.51
							c8.86-0.08,16.06-8.94,16.95-20.36c9.7-4.74,20.62-4.81,30.26-0.24c0.8,11.44,7.94,20.19,16.8,20.17l69.37-0.51
							c4.33-0.03,8.31-2.13,11.33-5.81c3.71-3.98,5.94-9.99,5.96-16.73l0.09-20.86c0.04-5.09-2.46-9.36-5.87-11.23
							c-1.05-0.44-2.21-0.74-3.39-0.73l-85.14,0.62c-5.16,0.01-9.25,5.5-9.25,12.1l-0.04,11.59c-9.71-3.5-20.18-3.45-29.89,0.22
							l0.03-11.59c0.01-6.64-4.05-12.01-9.15-12l-85.15,0.62c-1.95,0-3.83,0.89-5.38,2.26C121.8,270.94,120.23,274.47,120.22,278.59
							z M260.71,277.59c0.03-1.6,1.06-2.91,2.24-2.91l85.15-0.62c1.28,0,2.37,1.32,2.35,2.91l-0.1,20.8
							c-0.01,7.37-4.61,13.39-10.27,13.46l-69.37,0.47c-5.52,0.03-10.1-5.95-10.09-13.26L260.71,277.59z M127.18,278.52
							c-0.03-1.6,1.04-2.9,2.33-2.91l85.15-0.62c1.18-0.01,2.21,1.31,2.24,2.91l-0.09,20.86c-0.01,7.31-4.5,13.35-10.18,13.42
							l-69.37,0.47c-5.67,0.01-10.19-5.96-10.19-13.27L127.18,278.52z"/>
					</g>
				</g>
			</g>
			<g>
				<path fill="#793C21" d="M383.3,142.68c0,0-161.88,37.69-220.96-28.27c0,0,61.45,14.13,93.74-9.42
					C288.37,81.43,358,59.7,383.3,142.68z"/>
				<path fill="#793C21" d="M419.98,186.63c3.35,0.84,10.12-69.5-46.42-54.58C373.56,132.06,355.15,170.53,419.98,186.63z"/>
			</g>
		</g>
	</g>
</g>
</svg>
