<?xml version="1.0" encoding="utf-8"?>
<!-- Generator: Adobe Illustrator 25.2.3, SVG Export Plug-In . SVG Version: 6.00 Build 0)  -->
<svg version="1.1" id="Layer_1" xmlns="http://www.w3.org/2000/svg" xmlns:xlink="http://www.w3.org/1999/xlink" x="0px" y="0px"
	 viewBox="0 0 576 576" enable-background="new 0 0 576 576" xml:space="preserve">
<g>
	<g>
		<defs>
			<path id="SVGID_1_" d="M576,288.61c0,158.74-128.69,287.43-287.43,287.43c-158.75,0-287.43-128.69-287.43-287.43
				C1.14,129.86,129.83,1.18,288.57,1.18C447.31,1.18,576,129.86,576,288.61z"/>
		</defs>
		<clipPath id="SVGID_2_">
			<use xlink:href="#SVGID_1_"  overflow="visible"/>
		</clipPath>
		<g clip-path="url(#SVGID_2_)">
			<path fill="#F9E3D9" d="M576,288.61c0,158.74-128.69,287.43-287.43,287.43c-158.75,0-287.43-128.69-287.43-287.43
				C1.14,129.86,129.83,1.18,288.57,1.18C447.31,1.18,576,129.86,576,288.61z"/>
			<g>
				<path fill="#D15E2C" d="M121.73,293.81c0,0-74.87-15.18-61.78,70.68s43.45,83.25,43.45,113.09c0,0,52.36-5.76,66.5-60.21
					s-10.47-72.77-11-94.77C158.37,300.61,121.73,293.81,121.73,293.81z"/>
				<path fill="#DF1E2E" d="M129.58,276.01c-1.59,0.47-30.37,4.19-12.56,45.55c17.8,41.36,61.97,20.87,65.64,8.3
					C184,325.22,156.28,268.15,129.58,276.01z"/>
				<path fill="#F8A62E" d="M232.35,578.68h91.68c-10.14-29.38-26.84-70.57-48.49-97.91c-14.92-18.83-18.26-11.78-36.1-10.39
					c-19.06,1.49-17.04,42.55-11.41,82.81C229.31,562.31,230.79,570.71,232.35,578.68z"/>
				<path fill="#FED92B" d="M323.48,578.68c-4.25-15.64-25.47-31.24-34.08-58.81c-4.8-15.39-18.59-56.02-41.62-79.1
					c-26.7-26.7-58.66-47.88-79.81-36.3c-6.73,1.51-12.44,10.72-12.44,10.72c-21.89,21.54-68.76,77.88-67.45,163.48H323.48z"/>
				<path fill="#F8A62E" d="M201.91,578.68c-1.69-30.34-6.03-65.13-16.23-92.43c-9.1-24.28-42.36-35.37-60.83-17.18
					c-15.07,14.88-21.9,39.97-27.33,84.6c-1.07,8.84-1.73,17.06-2.2,25H201.91z"/>
				<path fill="#9AD5C2" d="M233.98,453.5c-55.69-6.28-67.02-32.14-68.97-45.47c4.92-5.55,8.54-7.7,9.88-8.98
					c17.07,3.03,53.87,17.22,65.64,29.59c4.53,4.77,5.9,9.1,6.52,12.35C248.26,447.24,240.3,454.22,233.98,453.5z"/>
				<path fill="#FAC5A7" d="M177.19,312.82c0,0,0.59,67.68-4.48,86.56c-7.65,28.5,33.54,38.06,54.03,41.02
					c6.02,0.87,11.54-3.45,12.19-9.5l5.91-55.39L177.19,312.82z"/>
				<path fill="#F9CAB7" d="M208.2,339.84c30.15,65.33,61.86,97.75,83.89,113.62c-5.63-0.74-10.89-2.12-14.35-4.02
					c-21.09-11.63-60-42.45-96.56-121.71c-53.74-116.39-28.88-205.93,40.77-237.8c54.82-25.04,107.78-22.35,149.18,1.72
					c-36.34-11.89-78.67-9.46-122.16,10.4C179.32,133.91,154.47,223.46,208.2,339.84z"/>
				<path fill="#FCDABE" d="M432.88,294.9c0,0-11.26,18.11-19.04,54.74c-6.15,28.89,14.76,63.36-98.12,102.67
					c-5.66,1.97-15.09,2.27-23.62,1.15c-22.03-15.87-53.74-48.29-83.89-113.62c-53.74-116.39-28.88-205.93,40.77-237.79
					c43.49-19.86,85.82-22.29,122.16-10.4c11.22,6.56,21.57,14.65,30.89,24.19C402.02,115.84,478.64,186.46,432.88,294.9z"/>
				<path fill="#D15E2C" d="M442,289.48c0,0-18.11-55.87-50.08-59.93c0,0-5.1-0.82-4.78,5.07c0.32,5.89,26.88,3.67,51.67,58.22
					L442,289.48z"/>
				<path fill="#D15E2C" d="M247.69,234.75c0,0,55.92-37.64,90.65-18.47c0,0,5.66,2.91,1.35,8.01c-4.31,5.1-29.38-15.89-91.09,15.77
					L247.69,234.75z"/>
				<path fill="#F49A54" d="M335.88,335.2c0,0-8.26,13.87,0.87,20.27c7.08,4.97,22.14-0.75,25.87,3.48c0,0,5.85,5.35-0.87,14.8
					c-6.72,9.45-24.12,21.14-24.12,21.14s24.37-19.65,22.63-27.36c-1.74-7.71-18.53-3.85-24-6.84
					C330.78,357.71,324.44,344.4,335.88,335.2z"/>
				<path fill="#FFFFFF" d="M309.89,258.55c11.13,2.05,19.33,11.47,20.2,22.76c1.21,15.61,0.06,41.32-18.02,53.38
					c-26.95,17.96-49.26-17.25-52.07-27.36c-2.8-10.11,0.42-43.38,19.51-47.31C290.12,257.83,300.72,256.86,309.89,258.55z"/>
				<path fill="#FFFFFF" d="M415.56,314.03c0,0,17.84-48.17-20.22-40.45c-38.07,7.73-46.39,56.5-35.69,68.99
					C370.36,355.06,392.36,355.66,415.56,314.03z"/>
				<path fill="#F58A72" d="M362.04,298.86c34.71-24.69,56.2,10.11,56.2,10.11s8.15-36.61-12.35-47.2
					C378.58,247.57,362.04,298.86,362.04,298.86z"/>
				<path fill="#F58A72" d="M261.59,276.93c40.49-21.95,69.08,11.49,69.08,11.49s4.88-33.53-20.17-44.53
					C277.16,229.16,261.59,276.93,261.59,276.93z"/>
				<g>
					<g>
						<path fill="#611B13" d="M286.43,312.27c-4.65,6.85-3.36,15.83,2.88,20.07c6.24,4.23,15.07,2.12,19.72-4.73
							c4.65-6.84,3.36-15.83-2.88-20.07C299.9,303.31,291.08,305.42,286.43,312.27z"/>
						<path fill="#1D1D1B" d="M299.18,328.46c1.83-0.64,4.1-2.56,5.01-6c0.6-2.26,0.39-4.61-0.56-6.45
							c-0.5-0.98-1.44-2.23-3.01-2.63c-0.85-0.23-1.69-0.18-2.6,0.14c-1.83,0.64-4.1,2.56-5.01,5.99c-0.6,2.27-0.39,4.62,0.56,6.46
							c0.5,0.98,1.44,2.23,3.01,2.64C297.41,328.83,298.27,328.78,299.18,328.46z"/>
					</g>
					<path fill="#FFFFFF" d="M302.62,309.96c0,2.88,2.33,5.2,5.2,5.2s5.2-2.33,5.2-5.2c0-2.87-2.33-5.2-5.2-5.2
						S302.62,307.09,302.62,309.96z"/>
				</g>
				<g>
					<g>
						<path fill="#611B13" d="M371.5,324.58c-4.4,6.49-3.18,15.01,2.73,19.02s14.29,2.01,18.69-4.48
							c4.41-6.49,3.18-15.01-2.73-19.03C384.28,316.08,375.9,318.09,371.5,324.58z"/>
						<path fill="#1D1D1B" d="M383.58,339.92c1.73-0.61,3.89-2.42,4.76-5.69c0.56-2.14,0.37-4.37-0.54-6.11
							c-0.48-0.92-1.38-2.1-2.86-2.5c-0.8-0.22-1.61-0.17-2.46,0.13c-1.73,0.61-3.89,2.42-4.75,5.68c-0.57,2.15-0.37,4.38,0.53,6.12
							c0.48,0.92,1.37,2.11,2.86,2.5C381.91,340.28,382.72,340.23,383.58,339.92z"/>
					</g>
					<circle fill="#FFFFFF" cx="391.77" cy="322.39" r="4.93"/>
				</g>
				<path fill="#FBC3AE" d="M236.39,357.84c0,7.56,10.35,13.68,23.13,13.68c12.77,0,23.13-6.12,23.13-13.68
					c0-7.56-10.35-13.68-23.13-13.68C246.74,344.15,236.39,350.28,236.39,357.84z"/>
				<path fill="#FBC3AE" d="M368.35,370.87c-3.63,6.63,2.29,16.86,13.22,22.85c10.94,5.99,22.75,5.48,26.38-1.15
					c3.63-6.63-2.29-16.86-13.22-22.84C383.79,363.73,371.98,364.24,368.35,370.87z"/>
				<path fill="#FFFCFD" d="M347.95,402.17c-2.44,6.59-5.87,15.45-9.25,22.29c-0.7-0.56-1.59-1.02-2.39-1.42
					c-1.41-0.66-2.63-1.11-2.63-1.11c-51.93-12.56-48.36-40.74-48.36-40.74c1.45,6.23,36.53,24.57,58.23,21.68
					C345.18,402.68,346.64,402.43,347.95,402.17z"/>
				<path fill="#F49A54" d="M359.36,396.14c0,1.02-0.94,4-11.41,6.03c-1.32,0.26-2.77,0.5-4.42,0.71
					c-21.69,2.89-56.77-15.45-58.23-21.68c0,0-3.56,28.17,48.36,40.74c0,0,1.23,0.46,2.63,1.11c0.8,0.41,1.69,0.87,2.39,1.42
					c1.22,0.86,1.88,1.93,0.94,2.89c-0.23,0.25-1.12,0.25-2.48,0.05c-1.17-0.25-2.73-0.61-4.55-1.17c-1.17-0.35-2.44-0.81-3.85-1.32
					c-19.3-6.84-43.63-17.02-45.55-46.31c0,0,0.98,1.26,3.1,3.19c7.04,6.28,26.53,19.51,62.78,15.35c0.18,0,0.42,0,0.66-0.05
					c0.09,0,0.24-0.05,0.37-0.05c0.89-0.1,1.83-0.2,2.77-0.35c3.71-0.5,4.65-0.45,4.65-0.3c0.43-0.15,0.99-0.35,1.79-0.61
					C359.32,395.79,359.36,395.89,359.36,396.14z"/>
				<path fill="#D15E2C" d="M261.26,144.85c0,0,29.25,18.43,5.5,46.33c-72.59,85.27-109.95,32.2-117.81,79.33
					c-7.85,47.12-59.69-7.07-37.69-76.97c21.99-69.9,70.87-182.8,223.23-147.46c152.36,35.34,157.08,148.7,144.32,190.66
					c-15.1,49.66-52.62,78.53-52.62,78.53s21.4-110.02-68.66-142.49c0,0,21.53,47.46,15.25,68.67
					C372.78,241.45,310.4,151.84,261.26,144.85z"/>
				<g>
					<path fill="#F9CAB7" d="M184.44,311.98c-1.69-3.15-4.06-5.79-6.92-7.88c0.24,0.24,0.39,0.46,0.35,0.53
						c-0.14,0.17-3.54,1.69-6.61,2.82c3.6,1.69,6.57,4.63,8.27,8.23c-4.88,2.51-10.95,2.44-18.41-1.13
						c-2.83-1.38-5.37-3.14-7.56-5.22c-1.48-1.38-2.82-2.94-4.02-4.59c-16.54-22.54-9.47-67.91,7.95-82.11
						c20.67-16.79,40.1,24.66,40.1,24.66C198.39,272.62,195.43,300.46,184.44,311.98z"/>
					<path fill="#F49A54" d="M162.18,248.96c19.96,1.31,24.11,26.78,14.29,41.23c-9.81,14.45-19.52-2.31-19.52-2.31
						s15.57,12.01,19.94-10.26c0.72-3.68,0.75-6.88,0.39-9.73c-0.1,0.31-0.14,0.57-0.26,0.91c-2.63,7.5-17.76-3.19-17.76-3.19
						c11.32,3.64,15.26-1.45,16.43-3.79C171.63,252.15,162.18,248.96,162.18,248.96z"/>
				</g>
				<path fill="#F9CAB7" d="M184.44,311.98c-1.48,1.55-3.15,2.79-4.91,3.71c-1.7-3.6-4.67-6.54-8.27-8.23
					c3.07-1.13,6.47-2.65,6.61-2.82c0.03-0.07-0.11-0.29-0.35-0.53C180.37,306.19,182.74,308.84,184.44,311.98z"/>
				<path fill="#39A9E0" d="M187.19,322.94c0,12.82-10.43,23.28-23.25,23.28c-12.82,0-23.24-10.46-23.24-23.28
					c0-7.39,3.46-13.95,8.83-18.19c3.95-3.18,8.97-5.05,14.41-5.05c0.96,0,1.91,0.07,2.83,0.18c1.13,1.17,2.82,3.56,0.98,6.36
					c-1.23-0.28-2.5-0.46-3.81-0.46c-3.89,0-7.49,1.31-10.39,3.57c-4.14,3.07-6.82,8.01-6.82,13.6c0,9.51,7.73,17.21,17.2,17.21
					c9.47,0,17.21-7.7,17.21-17.21c0-2.61-0.6-5.05-1.63-7.24c1.76-0.92,3.43-2.16,4.91-3.71
					C186.2,315.27,187.19,318.98,187.19,322.94z"/>
			</g>
		</g>
	</g>
</g>
</svg>
