<?xml version="1.0" encoding="utf-8"?>
<!-- Generator: Adobe Illustrator 25.2.3, SVG Export Plug-In . SVG Version: 6.00 Build 0)  -->
<svg version="1.1" id="Layer_1" xmlns="http://www.w3.org/2000/svg" xmlns:xlink="http://www.w3.org/1999/xlink" x="0px" y="0px"
	 viewBox="0 0 576 576" enable-background="new 0 0 576 576" xml:space="preserve">
<g>
	<g>
		<defs>
			<path id="SVGID_1_" d="M576,287.54c0,158.8-128.73,287.54-287.54,287.54c-158.8,0-287.53-128.74-287.53-287.54
				C0.94,128.73,129.67,0,288.46,0C447.27,0,576,128.73,576,287.54z"/>
		</defs>
		<use xlink:href="#SVGID_1_"  overflow="visible" fill="#F9E3D9"/>
		<clipPath id="SVGID_2_">
			<use xlink:href="#SVGID_1_"  overflow="visible"/>
		</clipPath>
		<g clip-path="url(#SVGID_2_)">
			<g>
				<polygon fill="#713825" points="139.08,295.15 192.35,285.17 191.13,277.35 137.86,287.33 				"/>
			</g>
			<path fill="#C3E7EA" d="M152.01,693.11c0.16-3.33,0.41-6.8,0.37-9.83c-0.85-52.62-29.14-83.08-56.46-100.23
				c4.58-10.29,7.56-16.22,7.56-16.22s97.7,29.86,92.15,126.28H152.01z"/>
			<path fill="#DCEAEB" d="M58.59,693.11c12.44-52.91,33.11-104.43,44.89-126.28c27.32,17.15,48.04,63.83,48.89,116.45
				c0.05,3.04-0.21,6.5-0.37,9.83H58.59z"/>
			<path fill="#E68E4A" d="M342.32,509.76c-28.89,13.28-87.43,40.86-87.43,40.86l-40.74-27.17c1.38-2.5,2.28-4.96,2.56-7.39
				c5.14-43.67,3.58-108.78,3.58-108.78l125.96,2.15C346.25,409.43,336.56,490.36,342.32,509.76z"/>
			<path fill="#612E1B" d="M202.13,175.86c0,0-71.92-48.9-62.78,12.63s88.57,66.07,88.57,66.07L202.13,175.86z"/>
			<path fill="#DCEAEB" d="M403.62,585.72c0,2.69,3.89,40.78-0.35,107.39H126.8c-10.46-56.59-20.85-105.57-23.9-117.75
				c-5.31-21.19,44.97-40.28,91.23-72.83c5.2-3.57,17.69-5.82,21.19-9.39c9.81,0.27,20.83,12.99,22.43,15.6
				c2.17,3.49,2.75,9.51,5.28,16.19c0.27,0,20.95-13.74,21.42-13.74c2.94-17.65,19.71-14.9,19.71-14.9s3.96-0.62,4.03-0.62
				c0.12-0.07,4.69-1.36,4.85-1.48c5.05-3.22,10.33-0.89,14.63-3.72c19.56-13.27,30.84-22.35,37.21-28.52
				c4.58,1.98,13.89,6.29,25.8,11.99c1.63,0.81,3.42,1.63,5.12,2.52c-2.52,1.16-3.84,1.9-3.84,1.9s63.99,36.12,93.67,76.2
				c3.15,4.27,6.02,8.58,8.27,12.88c4.04,7.65,9.51,18.86,15.95,32.48c-0.08,1.28-0.16,2.6-0.24,3.92
				C441.41,593.75,403.62,585.72,403.62,585.72z"/>
			<path fill="#F0A67E" d="M172.42,300.73c1.09,0.8,1.71,2.35,1.7,4.75c-0.06,22.91,9.95,25.11,12.75,51.57
				c2.79,26.46,15.7,15.04,15.7,15.04c49.44-30.61,75.11,3.06,110.22-1.83c35.11-4.89,55.09-93.87,55.09-93.87l8.8,6.04
				c-1.09-64.82,14.9-121.9,14.9-121.9c-105.83-56.33-213.1,11.71-213.79,14.23c-0.64,2.58-0.97,100.62-4.34,119.27
				C173.06,296.37,172.71,298.61,172.42,300.73z"/>
			<path fill="#90A39A" d="M243.03,525.17l51.4-28.71L348.12,468c0,0-38.46,9.05-62.72,18.11c-5.41,2.76-11.05,5.69-17.37,8.8
				c-0.22,0.09-0.33,0.09-0.45,0.17c-0.11,0-12.13,7.93-12.13,7.93s-8.35,3.7-12.07,20.7C243.26,524.13,243.15,524.65,243.03,525.17
				z"/>
			<path fill="#97D7DE" d="M268.03,494.91c2.83-0.95,14.89-4.31,26.4,1.55c7.55,3.8,14.89,11.47,19.18,26.31
				c0,0,55.27-36.49,52.67-48.3c-0.34-1.38-0.9-2.76-1.58-4.23c-5.41-10.18-15.61-27.26-17.98-29.07
				c0.68,0.86-3.23,9.14-14.51,17.51c-8.01,5.95-22.22,14.66-46.81,27.43C279.99,488.87,274.35,491.8,268.03,494.91z"/>
			<path fill="#97D7DE" d="M208.95,533.76c-0.6-2.94-4.48-25.45,11.47-32c5.09-2.07,10.17-0.6,14.06,3.19
				c2.42,2.42,6.77,15.36,8.53,19.97c0.97-10.92-14.7-32.94-17.06-36.11c-3.91-5.24-3.8-9.92-5.61-16.04
				c-1.38-5-2.41-9.32-2.41-9.32s-6.04,7.16-10.17,19.67C203.69,495.46,201.53,512.88,208.95,533.76z"/>
			<polygon fill="#97D7DE" points="130.8,693.11 129.12,656.78 224.14,658.87 224.14,693.11 			"/>
			<path fill="#367C85" d="M224.14,658.87c-11.7,3.89-72.73,13.24-95.02-2.08L224.14,658.87z"/>
			<path fill="#EDEEEE" d="M273.95,262.17l59.54-0.86c0,0,3.91,32.71-28.84,34.38C271.9,297.36,273.95,262.17,273.95,262.17z"/>
			<path fill="#EDEEEE" d="M179.96,262.13l46.89,0.12c0,0,3.09,27.1-23.93,28.48S179.96,262.13,179.96,262.13z"/>
			<g>
				<path fill="#894634" d="M210.75,274.33c-0.02,7.07-5.76,12.78-12.82,12.76c-7.07-0.02-12.78-5.76-12.76-12.83
					c0.02-7.07,5.76-12.78,12.83-12.76C205.06,261.52,210.77,267.27,210.75,274.33z"/>
				<path fill="#704338" d="M202.79,275.39c-0.01,2.97-2.43,5.37-5.4,5.36c-2.97-0.01-5.37-2.43-5.36-5.4
					c0.01-2.97,2.42-5.37,5.4-5.36C200.4,270,202.8,272.42,202.79,275.39z"/>
			</g>
			<g>
				<path fill="#894634" d="M309.72,277.22c-0.02,7.49-6.1,13.54-13.6,13.52c-7.49-0.02-13.54-6.11-13.52-13.6
					c0.01-7.49,6.1-13.54,13.59-13.52C303.69,263.65,309.74,269.73,309.72,277.22z"/>
				<path fill="#704338" d="M301.29,278.34c-0.01,3.15-2.57,5.69-5.72,5.68c-3.15-0.01-5.69-2.57-5.68-5.72
					c0.01-3.15,2.57-5.69,5.72-5.68C298.75,272.63,301.29,275.19,301.29,278.34z"/>
			</g>
			<path opacity="0.7" fill="#EDEEEE" d="M214.71,282.51c-0.01,2.96-2.42,5.36-5.38,5.36c-2.97-0.01-5.37-2.42-5.36-5.38
				c0.01-2.97,2.42-5.37,5.39-5.36C212.31,277.14,214.71,279.54,214.71,282.51z"/>
			<path opacity="0.7" fill="#EDEEEE" d="M312.96,282.77c-0.01,2.97-2.42,5.37-5.39,5.36c-2.96-0.01-5.36-2.42-5.36-5.38
				c0.01-2.97,2.42-5.37,5.38-5.36C310.57,277.39,312.97,279.81,312.96,282.77z"/>
			<path fill="#E88B6A" d="M179.96,262.13l46.89,0.12c0,0-2.81-18.99-22.68-19.33C183.38,242.56,179.96,262.13,179.96,262.13z"/>
			<path fill="#E88B6A" d="M333.89,262.53l-60.04-0.16c0,0,3.66-21.41,29.11-21.63C329.59,240.5,333.89,262.53,333.89,262.53z"/>
			<path fill="#C3E7EA" d="M371.92,478.32c0,0,64.02,36.15,93.7,76.23c5.38-3.64,14.97,7.15,24.6,6.74
				c-0.24-1.14-3.06-11.41-4.6-16.98c-0.71-2.57-1.93-4.99-3.76-6.93c-16.41-17.46-69.59-43.1-106.06-60.92
				C373.3,477.64,371.92,478.32,371.92,478.32z"/>
			<path fill="#863E24" d="M131.67,115.5c4.52,74.42,84.36,57.47,84.36,57.47c19.97-7.53,92.57-7.7,131.55,0.19
				c10.18,2.05,18.03,4.66,22.13,7.83c19.76,15.32-2.23,96.66-2.23,96.66l0.07,0.05l8.94,4.59l9.92,5.1
				c0,0,58.82-104.29,33.65-108.15c0,0,17.33-92.04-13.75-64.93c-4.43,3.87-7.71,7.3-10.03,10.25c-0.95-3.09-1.97-6.46-3.11-9.93
				c-13.54-41.21-39.43-102.84-58.22-41.56c-0.19,0.56-0.34,1.17-0.53,1.73c-26.79-37.42-64.97-78.25-66.89-10.5
				c-0.04,0.97-0.05,1.95-0.09,2.88c-30.59-24.13-73.16-48.46-75.44,0.76c-0.47,10.38,0.19,18.99,1.72,26.1
				C162.3,80.78,129.28,75.9,131.67,115.5z"/>
			<path fill="#964627" d="M261.46,205.68c-0.11,0.08-0.17,24.04,11.07,15.09c7.17-5.7,48.74-5.64,66.1,23.13
				c-3.34-5.54,6.54-12.78,8.9-19.19C349.04,220.61,315.28,175.04,261.46,205.68z"/>
			<path fill="#964627" d="M168.25,227.76c1.3-1.11,22.25,2.14,47.44-7.15c12.09-4.45,1.65,23.12,1.65,23.12s-38.75,8.14-42.62,5.41
				C170.85,246.43,161.47,233.56,168.25,227.76z"/>
			<path fill="#863E24" d="M172.4,300.73c-3.84,30.33,7.62,39.69,9.54,57.92c4.08,39.92,8.84,82.5,13.96,97.92
				c5.05,15.41,34.21,10.39,63.37,10.45c29.08,0.09,88.88-29.62,107.8-50.07c3.89-4.25,6.38-17.98,7.89-37.1
				c2.09-25.97,2.29-61.88,1.74-97.42l-0.22-0.14l-8.61-5.88c0,0-0.1,0.46-0.32,1.29c-2.28,9.61-17.78,70.79-43.79,88.17
				c-3.49,2.3-7.16,3.84-10.98,4.39c-35.1,4.91-60.79-28.78-110.22,1.84c0,0-12.91,11.41-15.69-15.05
				c-2.82-26.43-12.82-28.65-12.76-51.55C174.11,303.09,173.52,301.53,172.4,300.73z"/>
			<g>
				<path fill="#FFFFFF" d="M279.81,388.45l-62.52-0.16C217.29,388.29,238.62,427.27,279.81,388.45z"/>
			</g>
			<path fill="#C3E7EA" d="M392.29,693.11c-0.83-48.37-6.44-74.6-6.44-77c0,0,55.57-22.35,103.76-12.27
				c-1.7,25.29-5.09,56.54-9.2,89.27H392.29z"/>
			<g>
				<path fill="#C3E7EA" d="M371.14,593.79c-3.42,7.72-5.01,39.62-8.65,50.29c-4.88,14.53-9.5,31.51-13.54,49.03H333.2
					c4.08-17.88,8.79-35.2,13.77-50c3.65-10.67,5.24-42.57,8.65-50.29c23.44-53.15,65.96-52.54,97.78-49.67
					C424.34,542.38,390.94,548.89,371.14,593.79z"/>
				<path fill="#DCEAEB" d="M471.8,565.27c-0.2,1.9-0.43,3.88-0.66,5.98c-0.78,7.02-1.86,15.4-3.1,24.75
					c-3.73,26.95-9.47,61.99-16.87,97.1H348.95c4.04-17.52,8.65-34.5,13.54-49.03c3.64-10.67,5.24-42.57,8.65-50.29
					c19.79-44.89,53.2-51.41,82.26-50.64c6.95,0.58,13.39,1.32,19.01,1.59c0.31,5.32,0.35,10.52-0.11,15.33
					C472.19,561.66,471.99,563.41,471.8,565.27z"/>
				<path fill="#C3E7EA" d="M484.12,693.11h-32.96c7.39-35.11,13.12-70.15,16.85-97.11c1.99-14.95,3.53-27.36,4.28-35.93
					c0.47-4.81,0.41-10,0.1-15.31c6.49-0.13,6.45-1.69,14.74,3.21c-0.06,0.24-0.16,0.47-0.26,0.7c-0.05,0.07,0.01,0.2,0.01,0.2
					C494.68,574.45,503.44,619.52,484.12,693.11z"/>
			</g>
			<path fill="#EC8969" d="M236.38,261.1c-0.92-4.62-9.18-13.69-9.99-9.3c-8.89,48.4-31.53,88.02-23.11,95.25
				c18.93,16.25,15.69-11.35,40.68-0.18c13.45,6.01,20.58-4.82,15.15-18c-5.43-13.18-14.53-0.04-19.61-9.58
				C234.09,309.12,240.59,282.16,236.38,261.1z"/>
			<path fill="#EC8969" d="M323.77,365.86c26.01-17.37,41.51-78.56,43.79-88.17l-0.07-0.05c0,0,21.99-81.34,2.23-96.66
				c-4.1-3.17-11.95-5.78-22.13-7.83C360.12,205.96,370.78,273.43,323.77,365.86z"/>
			<path opacity="0.4" fill="#FFFFFF" d="M143.02,278.86l-0.79,15.74c-0.25,5.52,2.96,10.18,7.24,10.36l52.38,2.01
				c4.29,0.14,7.89-4.26,8.14-9.78l0.78-15.73c0.03-1.21-0.7-2.24-1.6-2.27l-64.29-2.43C143.91,276.7,143.05,277.65,143.02,278.86z"
				/>
			<path opacity="0.4" fill="#FFFFFF" d="M243.85,282.7l-0.78,15.74c-0.26,5.52,3,10.19,7.16,10.35l52.38,2.01
				c4.28,0.14,7.96-4.25,8.21-9.81l0.78-15.7c0.07-1.21-0.7-2.24-1.67-2.28l-64.3-2.43C244.74,280.54,243.93,281.49,243.85,282.7z"
				/>
			<g>
				<polygon fill="#713825" points="314.47,299.11 386.08,277.53 384.27,269.82 312.65,291.41 				"/>
			</g>
			<g opacity="0.29">
				<g>
					<polygon fill="#FFFFFF" points="269.66,281.34 283.12,309.92 300.07,310.58 286.62,282 					"/>
				</g>
				<g>
					<polygon fill="#FFFFFF" points="244.41,280.36 257.86,308.94 271.43,309.46 257.97,280.89 					"/>
				</g>
			</g>
			<g opacity="0.29">
				<g>
					<polygon fill="#FFFFFF" points="169.43,277.69 182.89,306.27 199.85,306.93 186.39,278.35 					"/>
				</g>
				<g>
					<polygon fill="#FFFFFF" points="144.18,276.71 157.63,305.29 171.2,305.82 157.75,277.24 					"/>
				</g>
			</g>
			<g>
				<path fill="#EC8969" d="M369.09,300.4c-0.79-17.33,6.65-34.1,19.56-45.69c7.97-7.16,17.64-11.37,25.49-1.28
					c13.73,17.65,8.77,63.93-17.16,74.68c-9.96,4.13-21.29-1.4-24.83-11.59C370.63,312.14,369.38,306.74,369.09,300.4z"/>
				<path fill="#D25E54" d="M401.45,267.43c-13.73-0.27-15.19,31.78-15.19,31.78c1.28-7.72,3.02-13.36,4.77-17.5
					c0.04,6.87,1.3,21.81,11.33,25.02c0,0-9.54-5.62-8.22-29.02c0.09-1.45,0.63-2.88,1.56-4.01c0.12-0.14,0.23-0.28,0.35-0.4
					c1.4-1.59,3.47-2.5,5.57-2.33c10.77,0.88,9.57,12.86,9.57,12.86S415.42,267.7,401.45,267.43z"/>
			</g>
			<path fill="#713825" d="M137.76,278.67l-0.77,15.7c-0.2,4.12,0.71,7.79,2.45,10.74c2.09,3.97,5.64,6.56,9.69,6.71l52.42,1.98
				c6.69,0.24,12.42-6.2,13.49-14.79c7.48-3.25,15.73-2.93,22.85,0.85c0.22,8.67,5.3,15.52,12,15.8l52.39,1.97
				c3.26,0.12,6.34-1.33,8.75-4c2.94-2.88,4.82-7.34,5.06-12.44l0.78-15.74c0.2-3.84-1.53-7.15-4.04-8.67
				c-0.77-0.37-1.64-0.63-2.54-0.66l-64.29-2.43c-3.89-0.17-7.16,3.84-7.39,8.82l-0.42,8.75c-7.22-2.97-15.12-3.28-22.58-0.85
				l0.43-8.75c0.23-5.02-2.66-9.21-6.5-9.37l-64.29-2.43c-1.48-0.07-2.92,0.54-4.14,1.52C139.22,272.95,137.91,275.57,137.76,278.67
				z M243.85,282.7c0.07-1.21,0.89-2.16,1.78-2.12l64.3,2.43c0.97,0.04,1.74,1.08,1.67,2.28l-0.78,15.7
				c-0.26,5.55-3.93,9.95-8.21,9.81l-52.38-2.01c-4.16-0.16-7.41-4.83-7.16-10.35L243.85,282.7z M143.02,278.86
				c0.03-1.21,0.89-2.16,1.86-2.12l64.29,2.43c0.9,0.03,1.63,1.06,1.6,2.27l-0.78,15.73c-0.26,5.52-3.85,9.93-8.14,9.78l-52.38-2.01
				c-4.27-0.18-7.49-4.84-7.24-10.36L143.02,278.86z"/>
		</g>
	</g>
</g>
</svg>
