<?xml version="1.0" encoding="utf-8"?>
<!-- Generator: Adobe Illustrator 25.2.3, SVG Export Plug-In . SVG Version: 6.00 Build 0)  -->
<svg version="1.1" id="Layer_1" xmlns="http://www.w3.org/2000/svg" xmlns:xlink="http://www.w3.org/1999/xlink" x="0px" y="0px"
	 viewBox="0 0 576 576" enable-background="new 0 0 576 576" xml:space="preserve">
<g>
	<g>
		<defs>
			<circle id="SVGID_1_" cx="287.9" cy="288" r="288"/>
		</defs>
		<use xlink:href="#SVGID_1_"  overflow="visible" fill="#F9E3D9"/>
		<clipPath id="SVGID_2_">
			<use xlink:href="#SVGID_1_"  overflow="visible"/>
		</clipPath>
		<g clip-path="url(#SVGID_2_)">
			<path fill="#E5C520" d="M56.1,677.14v17.45c26.77-14.87,57.57-32.59,83.33-49.1c1.18-0.74,2.37-1.48,3.5-2.23
				c5.16-9.48,10.16-18.23,14.58-25.7c1.83-3.07,3.53-5.88,5.11-8.46c0.62-1.04,1.22-2.04,1.81-2.96
				C142.32,625.89,95.83,654.28,56.1,677.14z"/>
			<path fill="#FEDA00" d="M161.62,485.88c0,0-4.54-19.65-10.49-15.4c-19.19,13.97-61.49,65.43-95.04,105.51v101.15
				c39.73-22.86,86.22-51.25,108.33-71.01c-0.58,0.93-1.19,1.92-1.81,2.96c6.76-6.49,27.81-23.11,29.63-24.51l1.85,6.62
				C191.54,559.02,163.59,483.96,161.62,485.88z"/>
			<path fill="#A05725" d="M174.77,97.86c0,0-28.92,70.82-31.12,75.96c-2.2,5.15-6.85,52.98-6.4,83.52
				c0.47,31.64-36.9,137.11-63.88,154.25c0,0,75.4,59.29,124.38,10.3S190.32,117.55,174.77,97.86z"/>
			<path fill="#A05725" d="M380.05,309.1c0,0,8.48,95.76-44.79,119.43c-53.27,23.68-167.69,45.75-167.69,45.75l26.62-152.84
				L380.05,309.1z"/>
			<path fill="#FEDA00" d="M107.21,654.01h292.25c3.05-4.21,5.49-7.82,6.42-9.72c14.1-66.55,26.99-117.42,26.53-134.88
				c-1.12-42.16-113.14-35.87-140.8-68.28c0,0-130.36,10.37-152.44,38.11c-22.03,27.74,13.19,49.21,3.09,73.63
				C133.79,573.46,102.09,610.41,107.21,654.01z"/>
			<g>
				<path fill="#F89A5F" d="M269.32,513.21c6.87,0.51,13.74,0.04,20.51-1.18c45.58-24.83,36.58-53.43,29.12-77.34
					c-8.03-25.75,16.63-64.41,16.63-64.41l15.03,8c7.12-23.07,18.1-44.46,18.13-50.4l-115.67,49.46c0,0,16.34,11.78,13.05,33.76
					c-3.25,21.98-48.98,39.73-48.98,39.73S208.66,508.62,269.32,513.21z"/>
				<path fill="#DA7E53" d="M287.02,512.4c52.73-10.16,99.01-69.32,99.01-69.32c-50.64,1.81-41.26-42.33-30.87-77.64l-22.12-3.22
					c0,0-26.32,42.96-18.33,70.21C322.13,457.74,332.65,486.02,287.02,512.4z"/>
			</g>
			<path fill="#A05725" d="M452.69,445.99C402,532.6,249.74,482.07,249.74,482.07s31.95-30.09,65.52-71.4
				C387.26,390,430.99,421.54,452.69,445.99z"/>
			<path fill="#F6B185" d="M169.91,143.55c-1.48,22.88-14.14,84.02-23.17,104.81c-10.14,23.47,29.04,95.95,39.74,138.97
				c3.44,13.73,14.56,18.1,28.14,20.61c3.85-0.56,8.17-1.03,13.03-1.37c144.07-9.82,144.23-197.92,144.23-197.92
				c6.91-5.71,16.27-7.07,26.94-5.41c5.06-45.31,0.81-66.1-10.75-70.38c-18.26-6.84-135.7-68.56-165.37-41.27
				c-14.54,13.4-27.91,22.8-37.82,28.92C174.52,126.9,170.72,131.44,169.91,143.55z"/>
			<path fill="#F7966B" d="M213.68,223.82c0,0-8.74,33.2-16.72,43.32c-4.47,5.67-9.29,13.29-12.67,18.9
				c-2.68,4.46-1.33,10.11,3.26,13.49c5.53,4.08,12.26,8.24,14.41,8.17c22.88-0.75,30.76,4.33,32.06-0.85
				c1.48-5.9-1-15.63-15.73-12.72c0,0,2.9-31.83-0.07-40.8C215.26,244.35,213.68,223.82,213.68,223.82z"/>
			<path fill="#F79150" d="M210.54,407.05c1.95,0.39,4.51,1.15,6.52,1.19c50.24,0.96,143.18-8,162.98-99.12
				c9.71-44.72,15.84-79.44,18.78-105.87c-10.67-1.65-20.03-0.3-26.94,5.41c0,0-4.25,187.21-148.32,197.03
				C218.71,406.01,214.39,406.48,210.54,407.05z"/>
			<path fill="#A05725" d="M418.96,138.64c-26.41,5.64-56.78,9.9-84.48,8.36c-4.8-0.23-9.53-0.68-14.12-1.29
				c-1.02-7.24-1.85-13.86-2.51-19.3c-1.1-9.12-1.67-14.99-1.67-14.99C327.98,81.68,390.77,119.95,418.96,138.64z"/>
			<path fill="#A05725" d="M403.35,267.61c-2.29-6.32-6.63-11.16-12.06-15.08c-15.15-10.92-38.83-14.64-49.65-22.66
				c-4.43-3.29-8.52-15.31-12.04-30.51c2.8-8.57,9-21.33,21.98-28.57c14.94-8.33,38.9-9.32,77.09,12.08
				C422,223.73,409.14,283.85,403.35,267.61z"/>
			<path fill="#A05725" d="M418.88,138.62c-26.41,5.64-56.78,9.9-84.48,8.35c-9.09-12.06-15.6-20.03-15.6-20.03
				c-0.35-0.17-0.64-0.47-1.02-0.55c-111.2-24.02-174.31,48.01-174.31,48.01s8.44-80.9,61.06-115.32
				c33.55-21.92,135.11-21.72,230.02,32.16c10.55,6.01,19.51,18.88,26.88,36.52C449.72,131.25,435.03,135.18,418.88,138.62z"/>
			<path fill="#A05725" d="M482.89,320.02c-45.54,43.84-91.85,26.28-114.38,12.82c14.92-27.89,24.49-55.88,22.78-80.32
				c-0.35-5.36-1.29-10.51-2.8-15.48c-5.73-18.62-21.67-44.37-36.9-66.25c14.94-8.33,38.9-9.32,77.09,12.08
				c15.33,8.58,32.91,20.75,53.11,37.51C484.91,252.28,485.36,286.78,482.89,320.02z"/>
			<path fill="#BC6428" d="M457.58,436.48c-1.5,3.33-3.15,6.49-4.89,9.51c-21.71-24.45-65.43-55.99-137.44-35.32
				c19.09-23.47,38.71-50.6,53.25-77.83c22.54,13.46,68.85,31.02,114.38-12.82C479.7,363.96,471.41,405.7,457.58,436.48z"/>
			<path fill="#E67424" d="M351.58,170.79c-12.98,7.24-19.18,20-21.98,28.57c-3.83-16.49-7.05-36.79-9.31-53.67
				c4.58,0.61,9.31,1.06,14.11,1.29C339.53,153.85,345.5,162,351.58,170.79z"/>
			<path fill="#BC6428" d="M428.68,182.87c-38.2-21.4-62.16-20.41-77.09-12.08c-6.08-8.79-12.05-16.93-17.18-23.82
				c27.7,1.55,58.07-2.71,84.48-8.35c7.77,5.19,12.95,8.88,13.63,9.18C433.56,148.28,431.8,163.41,428.68,182.87z"/>
			<path fill="#BC6428" d="M481.78,220.38c-20.2-16.76-37.78-28.94-53.11-37.51c3.13-19.46,4.89-34.58,3.83-35.07
				c-0.68-0.3-5.86-3.99-13.63-9.18c16.15-3.43,30.84-7.37,42.54-10.86C471.37,151.67,478.3,184.38,481.78,220.38z"/>
			<g>
				<path fill="#E0DCCE" d="M132.37,261.47c-0.08,5.23,4.78,6.82,4.78,6.82c193.81,44.92,216.07,23.61,216.07,23.61
					c19.62-56.42,8.54-113.79,8.54-113.79s4.06,86.03-15.38,63.95c-19.41-22.08-19.42-62.66-19.42-62.66L150.1,163.97
					C150.1,163.97,132.42,256.24,132.37,261.47z"/>
				<path fill="#CEC9BA" d="M313.02,178.21c0,0,13.95,41.77,33.36,63.85c19.44,22.08,15.38-63.95,15.38-63.95
					c-100.34-48.04-214.8-16.14-219.03-15.15L313.02,178.21z"/>
				<path fill="#2A4649" d="M117.09,259.78c7.41,1.91,15.4,3.66,23.76,5.23c4.99,1,10.13,1.9,15.38,2.76
					c3.91,0.65,7.88,1.25,11.89,1.81c13.74,2.02,27.86,3.7,41.49,5.11c49.42,5.06,92.75,6.43,92.75,6.43
					c17.53-43.2,11.69-102.69,9.32-103.41c-4.28-1.25-8.56-2.46-12.82-3.51c-17.24-4.43-34.4-7.49-50.83-9.59
					c-5.97-0.77-11.83-1.42-17.56-1.98c-8.65-0.79-16.96-1.35-24.85-1.73l-0.03,0.01c-41.33-1.91-78.12,0.35-78.12,0.35
					C111.1,188.02,117.09,259.78,117.09,259.78z"/>
				<path fill="#2D575A" d="M168.12,269.59c13.74,2.02,27.86,3.7,41.49,5.11c24.65-27.76,64.3-72.35,89.25-100.49
					c-17.24-4.43-34.4-7.49-50.83-9.59L168.12,269.59z"/>
				<path fill="#2D575A" d="M140.85,265.01c4.99,1,10.13,1.9,15.38,2.76l74.24-105.13c-8.65-0.79-16.96-1.35-24.85-1.73l-0.03,0.01
					L140.85,265.01z"/>
			</g>
			<path fill="#0F1B1C" d="M357.33,211.76l-6.13-0.22c0,0-9.73,27.11-5,46l6.77,0.93L357.33,211.76z"/>
			<path fill="#152828" d="M357.33,211.76c-3.38-0.54-5.84,46.28-4.36,46.71c1.49,0.43,31.45,2.57,42.18,1.62
				c10.73-0.95,12.84-20.14,12.84-20.14S381.48,215.62,357.33,211.76z"/>
			<g>
				<path fill="#F79150" d="M373.07,265.39c4.98-11.06,14.88-19.93,28.2-23.61c9.76-2.69,20.47-2.55,26.43,7.35
					c12.85,21.33-5.45,70.32-39.94,69.15C358.54,317.29,361.57,290.92,373.07,265.39z"/>
				<path fill="#F37021" d="M416.46,260.38c-19.46-6.99-34.86,13.53-32.09,30.12c2.76,16.59,19.5,5.94,19.5,5.94
					s-20.13,4.12-14.24-17.07c0.98-3.5,2.38-6.3,4.01-8.64c-0.05,0.31-0.12,0.55-0.16,0.89c-0.89,7.61,18.23,4.46,18.23,4.46
					c-0.13-0.01-0.27-0.03-0.4-0.05c-9.65-1.23-9.46-14.39,0.22-15.52C414.47,260.17,416.46,260.38,416.46,260.38z"/>
			</g>
			<g>
				<path fill="#E5C520" d="M431.21,654.01h24.54c19.72-50.49,7.11-95.47-7.84-125.22c7.68,27.1,9.61,60.51-5.04,96.78
					C439.39,634.2,435.41,643.89,431.21,654.01z"/>
				<path fill="#FEDA00" d="M431.21,654.01c4.2-10.12,8.18-19.81,11.66-28.44c14.64-36.27,12.71-69.68,5.04-96.78
					c0.03-0.03,0.03-0.03-0.03-0.03c-11.71-23.28-24.76-37.24-24.76-37.24s-23.36,124.74-65.72,146.91
					c-5.49,2.87-11.02,8.35-16.5,15.58H431.21z"/>
			</g>
			<path fill="#AEAB9D" d="M360.24,275.01l-9.88,15.44c0,0-11.64,4.59-22.58-1.06l1.06-16.93
				C328.83,272.45,346.99,265.79,360.24,275.01z"/>
			<path fill="#B3C0B9" d="M360.24,275.01l-3.53,16.23c0,0-11.65,4.59-22.59-1.06l1.06-16.94
				C335.19,273.24,347.53,266.54,360.24,275.01z"/>
			<g>
				<path fill="#8B491F" d="M233.46,356.98c-0.81,1.73-2.11,3.41-3.72,4.92c-0.97-0.6-2.08-1.16-3.33-1.71
					c-14.2-6.38-22.62,1.06-26.2,5.74c-2.99-2.52-5.24-6.49-6.17-12.25c0,0-2.58-10.28,0.33-18.76c7.45,2.38,19.74,4.2,39.08,0.89
					C236.86,343.02,235.83,351.84,233.46,356.98z"/>
				<path fill="#FFFFFF" d="M233.44,335.82c-19.34,3.3-31.62,1.49-39.08-0.89c2.08-6.05,6.98-11.19,17.64-10.92
					C224.01,324.3,230.46,329.43,233.44,335.82z"/>
				<path fill="#F16162" d="M229.73,361.9c-7.24,6.94-21.2,11.03-29.53,4.03c3.58-4.68,12-12.12,26.2-5.74
					C227.65,360.75,228.76,361.31,229.73,361.9z"/>
			</g>
		</g>
	</g>
</g>
</svg>
