<?xml version="1.0" encoding="utf-8"?>
<!-- Generator: Adobe Illustrator 25.2.3, SVG Export Plug-In . SVG Version: 6.00 Build 0)  -->
<svg version="1.1" id="Layer_1" xmlns="http://www.w3.org/2000/svg" xmlns:xlink="http://www.w3.org/1999/xlink" x="0px" y="0px"
	 viewBox="0 0 576 576" enable-background="new 0 0 576 576" xml:space="preserve">
<g>
	<g>
		<defs>
			<path id="SVGID_1_" d="M575.97,288c0,159.06-128.94,288-288,288c-159.05,0-288-128.94-288-288S128.91,0,287.96,0
				C447.02,0,575.97,128.94,575.97,288z"/>
		</defs>
		<use xlink:href="#SVGID_1_"  overflow="visible" fill="#F9E3D9"/>
		<clipPath id="SVGID_2_">
			<use xlink:href="#SVGID_1_"  overflow="visible"/>
		</clipPath>
		<g clip-path="url(#SVGID_2_)">
			<g>
				<path fill="#9E3421" d="M241.46,289.5c0,0-69.09-119.59-151.46-36.06c-85.35,86.55,119.01,193.54,75.73,236.81
					s-80.54-25.24-80.54-25.24s-21.63,56.49,49.29,84.14c70.92,27.65,132.23-31.25,91.36-104.58s-97.37-174.3,7.21-126.21
					L241.46,289.5z"/>
				<path fill="#9E3421" d="M347.12,289.5c0,0,69.1-119.59,151.46-36.06c85.35,86.55-119.01,193.54-75.73,236.81
					s80.54-25.24,80.54-25.24s21.64,56.49-49.28,84.14c-70.93,27.65-132.23-31.25-91.36-104.58s97.37-174.3-7.21-126.21
					L347.12,289.5z"/>
				<path fill="#F47A4C" d="M146.44,229.1c-1.81-0.45-21.35-18.17-38.61,2.72s1.36,73.58,14.99,79.03
					c13.62,5.45,24.98,1.36,26.34-2.27C150.53,304.95,146.44,229.1,146.44,229.1z"/>
				<path fill="#F8A083" d="M180.63,76.17c50.13-46.01,124.75-46.01,174.88,0c48.23,44.28,57.94,112.92,56.39,167.81
					c1.55,50.22-13.41,111.25-61.64,151.75c-50.12,42.1-119.5,43.87-169.63,1.78c-48.23-40.51-57.94-103.32-56.39-153.54
					C122.69,189.09,132.41,120.44,180.63,76.17z"/>
				<path fill="#FFFFFF" d="M270.22,312.13c-4.5,32.5-25.35,57.1-50.44,57.1s-45.95-24.6-50.44-57.1H270.22z"/>
				<path fill="#F47A4C" d="M214.4,280.04h-30.46C183.94,280.04,196.19,307.41,214.4,280.04z"/>
				<path fill="#92484B" d="M167.14,190.63l-1.19,14.81c0,0-14.91-3.96-36.14,2.86l-0.74-9.39
					C129.07,198.91,151.7,187.13,167.14,190.63z"/>
				<path fill="#92484B" d="M272.42,190.63l1.19,14.81c0,0,14.91-3.96,36.14,2.86l0.74-9.39
					C310.49,198.91,287.85,187.13,272.42,190.63z"/>
				<path fill="#74403B" d="M292.07,225.84c7.92,0,14.34,6.41,14.34,14.33v18.98c0,7.92-6.42,14.34-14.34,14.34
					c-7.92,0-14.34-6.41-14.34-14.34v-18.98C277.73,232.26,284.15,225.84,292.07,225.84z"/>
				<path fill="#74403B" d="M143.94,225.84c7.92,0,14.34,6.41,14.34,14.33v18.98c0,7.92-6.42,14.34-14.34,14.34
					s-14.34-6.41-14.34-14.34v-18.98C129.6,232.26,136.02,225.84,143.94,225.84z"/>
				<path fill="#92484B" d="M167.42,190.61l-1.18,14.81c0,0-14.91-3.96-36.14,2.85l-0.75-9.39
					C129.35,198.88,151.99,187.1,167.42,190.61z"/>
				<path fill="#9E3421" d="M268.53,97c0,0,32.16,81.75,149.66,118.06c0,0,14.7-159.2-149.66-176.76V97z"/>
				<path fill="#9E3421" d="M299.47,94.21c-2.79,5.58-4.39,72.65-181.83,119.2c0,0-13.97-172.42,150.89-175.11L299.47,94.21z"/>
				<path fill="#9E3421" d="M385.07,189.43c5.34,1.72,26.11,87.46,26.11,87.46s13.74-72.87,2.42-96.05
					C402.28,157.66,385.07,189.43,385.07,189.43z"/>
				<path fill="#9E3421" d="M148.75,189.43c-5.34,1.72-26.11,87.46-26.11,87.46s-11.31-72.87,0-96.05
					C133.97,157.66,148.75,189.43,148.75,189.43z"/>
				<path fill="#F47A4C" d="M385.28,247.29c-0.1-9.69,5.71-18.5,14.72-22.07c8.56-3.39,19.35-4.25,28.32,6.6
					c17.26,20.89-1.36,73.58-14.99,79.03c-13.62,5.45-20.52-0.1-23.43-2.66C385.07,303.93,385.49,268.06,385.28,247.29z"/>
			</g>
			<g>
				<path fill="#F8A083" d="M94.75,608.01c-0.05,0.8,0.39,2.2,1.27,4c0.71,1.49,1.7,3.29,2.96,5.29
					c9.4,15.23,31.54,42.5,37.14,45.64c2.25,1.25,5.44,14.13,7.86,32.96c1.79,13.97,3.14,44.41,3.36,74.68h202.27
					c0.93-17.74,3.48-35.78,8.23-54.51c0.83-3.24,2.81-6.09,4.23-9.14c0.66-1.6,1.38-3.15,2.03-4.69c0.44-0.9,0.83-1.85,1.27-2.9
					c0.32-0.84,0.71-1.79,1.04-2.79c0,0,0-0.05,0.06-0.1c2.8-8.29,5.16-20.92,4.17-39.25v-0.15c-0.83-14.28-3.68-31.86-10-53.58
					c1.1-0.4,2.25-0.8,3.41-1.3l0.05-0.05c0.17-0.05,0.27-0.1,0.44-0.15c0.16-0.05,0.27-0.1,0.44-0.15
					c1.16-0.45,2.37-0.95,3.57-1.49c1.64-0.75,3.35-1.55,5.06-2.4l2.14-1.05c1.1-0.55,2.2-1.14,3.35-1.74
					c8.57-4.55,17.8-10.14,26.98-16.13c3.29-13.49,4.89-22.27,4.89-24.52c0,0,9.5-31.95-8.68-60.52c-0.16-0.3-0.33-0.6-0.55-0.9
					c-0.11-0.1-0.22-0.25-0.28-0.4c-1.75-2.65-3.79-5.24-6.04-7.84c-0.11-0.1-0.22-0.25-0.33-0.35c-1.38-1.5-2.86-3-4.45-4.39
					c-0.16-0.1-0.27-0.2-0.38-0.3c-2.58-1.7-5.6-2.9-8.79-3.2c-10.33-1-24.83,6.19-25.16,54.53c-0.11,15.83,2.85,40.55,7.58,69.81
					c-0.99-4.39-2.03-8.94-3.24-13.68c-0.77-2.7-1.54-5.39-2.48-8.2c-18.46-58.32-0.66-93.38,13.35-110.31
					c-2.2-1.25-4.12-2.29-5.44-3c-8.24-4.49-17.3-8.03-26.97-10.63c-3.46-0.95-6.98-1.8-10.55-2.5
					c-21.15,25.96-67.41,73.95-127.4,84.59c-4.56,0.8-8.74,1.25-12.47,1.29c-0.83,0.05-1.59,0.05-2.37,0.05c-0.6,0-1.21,0-1.81-0.05
					c-38.02-1.44-27.41-41.79-16.15-68.91c0.05-0.15,0.11-0.3,0.22-0.45c0.32-0.8,0.66-1.6,0.99-2.4c1.21-2.94,2.53-5.64,3.68-8.14
					c-5,1.7-9.88,3.59-14.45,5.84c-0.94,0.45-1.87,0.9-2.75,1.35c-0.05,0-0.11,0.05-0.11,0.05c-0.88,0.45-1.7,0.9-2.52,1.35
					c-6.65,3.65-28.64,37.04-31.94,45.08c-13.78,33.35-26.79,77.71-30.08,93.09v0.05C90.96,607.66,94.91,606.36,94.75,608.01z"/>
				<path fill="#F8A083" d="M161.38,770.58c4.54-22.93,9-47.19,13.03-66.94c-51.09-4.99-76.97-18.57-87.57-26.01
					c-3.62,31.03-6.71,63.88-9.16,92.96H161.38z"/>
				<path fill="#019D75" d="M86.84,677.62c10.61,7.44,36.48,21.02,87.57,26.01c1.1-5.64,2.25-10.94,3.29-15.73
					c4.06-18.13,7.47-37.21,9.78-56.88c0,0,0,0,0-0.05c3.57-30.06,4.5-61.41,1.21-92.48c-2.26-21.02-6.43-41.89-13.08-62.17
					c-1.38-4.19-3.35-8.14-6.04-9.59c-0.27-0.15-0.55-0.3-0.83-0.4c-3.18-1.1-7.58-1.75-12.69-0.55c-0.05,0-0.11,0.05-0.11,0.05
					c-0.71,0.15-1.42,0.4-2.2,0.65c-5.49,1.85-11.65,5.94-17.85,13.73c-0.33,0.3-0.66,0.65-0.88,0.99
					c-4.89,6.34-9.83,14.99-14.56,26.66c-0.22,0.5-0.44,1.05-0.66,1.6c-8.79,22.23-16.86,60.47-23.79,102.52
					c-0.22,1.4-0.44,2.79-0.71,4.24c-0.49,3.24-1.05,6.54-1.54,9.88C91.29,641.92,88.98,659.45,86.84,677.62z"/>
				<path fill="#F8A083" d="M481.81,770.58c-2.06-34.92-6.32-74.94-14.7-115.53c-13.46,10.44-42.03,27.36-87.79,29.61
					c5.91,29.2,12.3,58.79,18.35,85.92H481.81z"/>
				<path fill="#36B87F" d="M299.83,448.97v-0.15c-8.79-0.6-34.17-2.6-63.18-1v1.15c0,15.88,14.12,28.71,31.59,28.71
					C285.66,477.69,299.83,464.85,299.83,448.97z"/>
				<path fill="#36B87F" d="M80.74,611.86c4.01,1.29,8.02,2.54,11.98,3.65l6.26,1.79c0.33,0.05,0.6,0.15,0.94,0.25
					c4.78,1.35,9.5,2.5,14.17,3.59c2.31,0.55,4.61,1.05,6.98,1.55c9.23,2,18.24,3.59,27.03,4.84c2.14,0.3,4.22,0.6,6.32,0.85
					c0.88,0.15,1.7,0.25,2.53,0.3c2.25,0.3,4.45,0.55,6.64,0.7c0.11,0.05,0.17,0.05,0.22,0.05c2.31,0.25,4.56,0.45,6.76,0.6
					c0.44,0.05,0.83,0.1,1.21,0.1c2.31,0.2,4.61,0.35,6.87,0.45c2.36,0.15,4.72,0.3,7.03,0.35c0.6,0.05,1.21,0.05,1.81,0.05
					c0.49,0,1.04,0.05,1.53,0.05c3.13,0.1,6.26,0.15,9.4,0.15c3.9,0,7.8-0.05,11.54-0.2c1.1-0.05,2.26-0.1,3.29-0.15
					c1.38-0.05,2.75-0.1,4.07-0.19c2.09-0.1,4.12-0.25,6.15-0.4c1.98-0.15,4.01-0.3,5.99-0.5c2.36-0.2,4.67-0.45,6.98-0.75
					c2.74-0.3,5.38-0.65,8.02-1c2.63-0.34,5.27-0.75,7.86-1.2c1.48-0.2,2.91-0.45,4.33-0.75c2.2-0.4,4.4-0.8,6.54-1.25
					c2.59-0.5,5.17-1.05,7.75-1.65c1.65-0.35,3.29-0.75,4.89-1.15c2.03-0.45,4.06-0.99,6.04-1.49c2.26-0.6,4.45-1.2,6.65-1.85
					c1.59-0.45,3.19-0.9,4.72-1.4c20.66-6.29,38.07-13.98,51.86-21.22c1.43-0.75,2.86-1.5,4.23-2.25c1.05-0.55,2.03-1.1,3.02-1.7
					c2.97-1.65,5.77-3.29,8.3-4.84c1.21,4.74,2.25,9.29,3.24,13.68c-4.72-29.26-7.69-53.98-7.58-69.81
					c0.32-48.33,14.83-55.53,25.16-54.53c3.02,0.3,5.93,1.4,8.41,2.94c-2.14-1.49-9.73-6.09-15.49-9.23
					c-0.99-0.55-1.92-1.1-2.86-1.55c-2.2-1.25-4.12-2.3-5.44-3c-8.24-4.5-17.3-8.04-26.97-10.64c-3.46-0.95-6.98-1.8-10.55-2.5
					c-4.78-1-9.72-1.85-14.73-2.45c0.06,0.8,0.06,1.65,0.06,2.45c0,22.92-20.44,41.54-45.65,41.54c-25.22,0-45.71-18.62-45.71-41.54
					c0-1.25,0.05-2.5,0.16-3.74c-16.7,1.59-33.95,4.54-49.44,9.74c-5,1.7-9.88,3.59-14.45,5.84c-0.94,0.45-1.87,0.9-2.75,1.35
					c-0.05,0-0.11,0.05-0.11,0.05c-0.71,0.15-1.42,0.4-2.2,0.65c-0.11,0.25-0.22,0.45-0.32,0.7c-4.56,8.89-13.9,19.87-24.78,31.81
					c-2.64,2.89-5.38,5.89-8.18,8.88c-0.88,0.95-1.76,1.9-2.64,2.85c-11.98,12.74-24.45,26.07-34.01,38.55
					C66.51,571.91,68.98,594.53,80.74,611.86z"/>
				<path fill="#008C66" d="M143.66,695.28v0.15c0.99,7.51,1.82,19.82,2.42,34.27c112.04,11.66,181.41,0.1,210.2-6.8
					c0.5-2.4,1.1-4.85,1.71-7.25c0.83-3.26,2.81-6.11,4.24-9.16c0.66-1.6,1.38-3.15,2.04-4.7c0.44-0.9,0.83-1.85,1.27-2.9
					c0.32-0.85,0.71-1.8,1.05-2.8L205.1,663L143.66,695.28z"/>
				<path fill="#00AC7A" d="M80.74,611.86c4.5,6.79,10.44,12.68,17.2,17.48c2.47,1.79,5,3.39,7.64,4.84
					c14.17,7.79,23.4,23.37,29.06,37.05c5.71,13.58,7.8,25.32,7.8,25.32c0.49-0.2,0.99-0.45,1.54-0.65
					c18.73-7.99,39.71-10.18,59.99-6.69c77.02,13.39,162.45,7.34,162.45,7.34s0-0.05,0.06-0.1c0.77-1.45,8.51-17.48,3.57-59.72
					c-1.15-9.99-3.02-21.47-5.93-34.61c-0.05-0.34-0.11-0.7-0.22-1.05v-0.15c-0.99-4.39-2.03-8.94-3.24-13.68
					c-2.53,1.55-5.33,3.19-8.3,4.84c-0.99,0.6-1.98,1.15-3.02,1.7c-1.37,0.75-2.75,1.5-4.23,2.25
					c-13.79,7.24-31.2,14.93-51.86,21.22c-1.59,0.5-3.13,0.95-4.72,1.4c-2.2,0.64-4.39,1.25-6.65,1.85
					c-1.98,0.5-4.01,1.05-6.04,1.49c-1.6,0.4-3.24,0.8-4.89,1.15c-2.58,0.6-5.16,1.15-7.75,1.65c-2.14,0.45-4.33,0.9-6.54,1.25
					c-1.42,0.3-2.85,0.55-4.33,0.75c-2.59,0.45-5.17,0.85-7.86,1.2c-2.64,0.4-5.28,0.75-8.02,1c-2.31,0.3-4.62,0.55-6.98,0.75
					c-1.98,0.2-3.96,0.35-5.99,0.5c-2.03,0.15-4.07,0.3-6.15,0.4c-1.32,0.1-2.69,0.15-4.07,0.19c-1.04,0.05-2.14,0.1-3.29,0.15
					c-3.74,0.15-7.64,0.2-11.54,0.2c-3.08,0-6.21-0.05-9.4-0.15c-1.1,0-2.2-0.05-3.35-0.1c-2.31-0.05-4.67-0.2-7.03-0.35
					c-2.26-0.1-4.56-0.25-6.87-0.45c-0.38,0-0.77-0.05-1.21-0.1c-2.2-0.15-4.45-0.34-6.76-0.6c-0.05,0-0.11,0-0.22-0.05
					c-2.2-0.16-4.39-0.4-6.64-0.7c-0.83-0.05-1.65-0.15-2.53-0.3c-2.09-0.25-4.18-0.55-6.32-0.85c-8.79-1.25-17.8-2.85-27.03-4.84
					c-2.37-0.5-4.67-1-6.98-1.55c-4.67-1.1-9.4-2.3-14.17-3.59c-0.33-0.1-0.6-0.2-0.94-0.25l-6.26-1.79
					C88.76,614.4,84.75,613.15,80.74,611.86z"/>
				<path fill="#36B87F" d="M356.31,531.11c-0.11,15.83,2.85,40.55,7.58,69.81v0.15c0.06,0.35,0.11,0.7,0.17,1.1
					c1.75,10.94,3.79,22.57,5.99,34.55c2.86,15.48,5.99,31.66,9.29,47.94c45.76-2.25,74.33-19.17,87.79-29.61V655
					c-11.81-57.17-31.69-115.24-64.83-161.04c-2.31-3.25-4.72-6.39-7.19-9.49c-0.17-0.25-0.33-0.45-0.49-0.65
					c-1.16-1.4-2.48-2.7-3.96-3.74c-0.16-0.1-0.27-0.2-0.38-0.3c-2.58-1.7-5.6-2.9-8.79-3.2
					C371.14,475.59,356.63,482.78,356.31,531.11z"/>
				<path fill="#F8A083" d="M236.65,391.39v57.59c0,15.88,14.12,28.71,31.59,28.71c17.42,0,31.59-12.84,31.59-28.71v-57.59H236.65z"
					/>
				<path fill="#FFFFFF" d="M222.53,452.62c0,22.92,20.49,41.54,45.71,41.54c25.22,0,45.65-18.62,45.65-41.54
					c0-0.8,0-1.65-0.06-2.45c-4.61-0.65-9.28-1.05-14.01-1.35v0.15c0,15.88-14.17,28.71-31.59,28.71
					c-17.47,0-31.59-12.84-31.59-28.71v-1.15c-4.56,0.25-9.23,0.6-13.95,1.05C222.58,450.12,222.53,451.37,222.53,452.62z"/>
			</g>
		</g>
	</g>
</g>
</svg>
