<?xml version="1.0" encoding="utf-8"?>
<!-- Generator: Adobe Illustrator 25.2.3, SVG Export Plug-In . SVG Version: 6.00 Build 0)  -->
<svg version="1.1" id="Layer_1" xmlns="http://www.w3.org/2000/svg" xmlns:xlink="http://www.w3.org/1999/xlink" x="0px" y="0px"
	 viewBox="0 0 576 576" enable-background="new 0 0 576 576" xml:space="preserve">
<g>
	<g>
		<defs>
			<path id="SVGID_1_" d="M576,288c0,159.05-128.94,288-288,288C128.94,576,0,447.05,0,288c0-159.06,128.94-288,288-288
				C447.06-0.01,576,128.94,576,288z"/>
		</defs>
		<use xlink:href="#SVGID_1_"  overflow="visible" fill="#F9E3D9"/>
		<clipPath id="SVGID_2_">
			<use xlink:href="#SVGID_1_"  overflow="visible"/>
		</clipPath>
		<g clip-path="url(#SVGID_2_)">
			<path fill="#7D1E18" d="M289.49,442.3c-1.85,0.93-56.5-1.96-65.51,14.33c-9.01,16.28,12.63,31.12,12.63,31.12L289.49,442.3z"/>
			<path fill="#7D1E18" d="M340.51,420.2c1.64-0.33,39.05-6.72,65.54,5.78l-3.85,45.69L340.51,420.2z"/>
			<path fill="#F4A976" d="M228.13,494.38c3.19,5.23,8.06,10.65,15.33,15.92c4.27,3.05,9.38,6.09,15.47,8.98
				c0.18,0.07,0.37,0.18,0.56,0.26c0.45,0.22,0.85,0.41,1.3,0.56c0.45,0.18,0.89,0.33,1.3,0.49c0.77,0.3,1.6,0.48,2.37,0.66
				c0.78,0.18,1.56,0.3,2.3,0.37c0.14,0.07,0.33,0.07,0.48,0.07c8.94,0.81,17.33-3.97,28.75-7.98c1.41-0.48,2.9-0.93,4.42-1.33
				c0,0,0.07,0,0.11-0.04c10.73-2.9,24.16-4.45,33.69-10.83c0.63-2,1.16-3.97,1.48-5.94c0.3-1.34,0.52-2.67,0.67-3.97
				c2.3-18.77-5.79-34.39-10.99-42.18c-0.33-0.49-0.63-0.89-0.93-1.3c-1.85-2.67-3.15-4.12-3.15-4.12l0.14-4.71l1.49-51.32
				l-50.61,8.61l-1.22,0.22l-35.36,6.01c0,0,15.58,21.41,0.18,49.72c-0.59,1.08-1.19,2.11-1.89,3.19
				c-2.74,4.49-6.31,9.17-10.87,13.91C222.12,475.79,222.3,484.77,228.13,494.38z"/>
			<path fill="#ED7E67" d="M334.2,501.53c23.29-15.53,44.24-35.56,55.66-47.28c-5.17-21.91-5.17-76.8-5.17-76.8l-61.77,10.53
				L321.29,444C321.29,444,344.31,469.61,334.2,501.53z"/>
			<path fill="#F4A976" d="M170.76,419.7c7.29,13.69,20.25,23.2,36.36,29.29c2.88,0.19,6.43,0.63,10.64,1.36
				c64.18,11.1,134.7-13.47,155.3-52.29c20.6-38.82-21.39-61.8-3.16-92.7c18.22-30.9,0.79-126.78,0.79-126.78s13.82-0.7,31.31-1.01
				c-5.07-29.16-21.14-55.66-45.64-72.61c-81.67-56.48-166.58,32.67-166.58,78.13c0,28.68,28.52,113.02,20.07,147.88
				C201.38,365.82,138,358.44,170.76,419.7z"/>
			<path fill="#FFFFFF" d="M341.37,250.15c0,0,0,19.02-12.15,23.51c-12.15,4.49-35.12,4.36-39.35-28.12L341.37,250.15z"/>
			<path fill="#FFFFFF" d="M240.55,256.43c-0.95,4.29-5.34,10.16-9.4,11.83c-1.84,0.76-3.96,1.14-6.25,0.64
				c-7.33-1.58-13.47-16.24-15.65-26.93l32.95-4.75C242.2,237.21,242.99,245.29,240.55,256.43z"/>
			<g>
				<g>
					<circle fill="#2A9695" cx="319" cy="253.34" r="14.56"/>
					<circle fill="#19281F" cx="318.69" cy="253.9" r="6.12"/>
				</g>
				<circle opacity="0.85" fill="#EDEEEE" cx="307.77" cy="251.27" r="5.07"/>
			</g>
			<g>
				<g>
					<path fill="#2A9695" d="M218.34,250.96c0,5.86,4.75,10.6,10.6,10.6c5.86,0,10.6-4.75,10.6-10.6c0-5.85-4.75-10.6-10.6-10.6
						C223.09,240.36,218.34,245.11,218.34,250.96z"/>
					<path fill="#19281F" d="M224.26,251.38c0,2.46,2,4.45,4.45,4.45c2.46,0,4.46-1.99,4.46-4.45s-2-4.46-4.46-4.46
						C226.26,246.92,224.26,248.91,224.26,251.38z"/>
				</g>
				<circle opacity="0.85" fill="#EDEEEE" cx="220.4" cy="248.57" r="3.69"/>
			</g>
			<path fill="#F49252" d="M341.37,250.15l-51.51-4.62c0,0,2.73-23.77,27.74-23.77C340.97,221.76,341.37,250.15,341.37,250.15z"/>
			<path fill="#F26B6A" d="M260.29,217.93c0,0-15.32,13.47-18.75,39.1c-3.43,25.62-16.9,54.14-9.77,61.01
				c7.13,6.87,33.02,0.26,35.92-7.13c2.91-7.39,15.58,8.98,18.23-2.11c2.64-11.09-5.55-18.22-10.3-16.38
				C270.85,294.26,260.29,217.93,260.29,217.93z"/>
			<g>
				<path fill="#813823" d="M313.83,334.7c1.6,11.29-15.44,44.33-52.98,39.61c-37.26-4.92-39.92-41.05-39.92-41.05h5.59l82.25,1.44
					H313.83z"/>
				<path fill="#FFFFFF" d="M308.77,334.7c0,5.95-2.13,11.49-7.18,13.95c-13.31,6.16-62.03,1.85-68.95-1.85
					c-4.25-2.26-5.59-8.83-6.12-13.55L308.77,334.7z"/>
			</g>
			<path fill="#D8745F" d="M258.7,457.66c50.65,0.79,107.02-16.23,128.61-39.02c28.56-30.14,21.37-165.15,16.04-230.51
				c-0.29-3.55-0.73-7.1-1.37-10.58c-1.9,0.03-3.74,0.07-5.52,0.1c0.6,3.45,1.04,6.97,1.33,10.49
				c5.33,65.35,12.52,200.37-16.03,230.51C360.97,440.61,307.86,457.22,258.7,457.66z"/>
			<path fill="#ED7E67" d="M207.11,448.98c0.85,0.32,1.71,0.64,2.59,0.95c14.43,5.04,31.19,7.45,48.68,7.74
				c0.1,0.03,0.19,0.03,0.32,0c49.16-0.45,102.27-17.05,123.07-39.02c28.56-30.14,21.36-165.15,16.03-230.51
				c-0.29-3.51-0.73-7.03-1.33-10.49c-14.8,0.35-25.8,0.92-25.8,0.92s17.43,95.87-0.79,126.78c-18.23,30.9,23.77,53.88,3.16,92.7
				c-17.58,33.15-71.59,55.91-126.93,54.92c-0.2,0.03-0.38,0.03-0.58,0c-9.28-0.19-18.6-1.04-27.79-2.63
				C213.54,449.61,209.99,449.17,207.11,448.98z"/>
			<path fill="#954120" d="M370.94,198.83l8.46,8.52l1.2,85.72l27.87-0.14c0,0,11.6-90.33,5.8-114.1
				c-1.81-7.41-2.28-13.88-2.38-19.34C396.71,164.76,379.94,186.03,370.94,198.83z"/>
			<path fill="#954120" d="M201.92,184.12c0,0,42.79-25.36,60.22-35.4c17.43-10.02,55.47,15.84,63.92,23.77
				c8.21,7.7-0.63-19.18-2.12-21.65l17.68,18.44c33.5-7.95,46.62-28.68,51.63-45.8c-3.17-3.8-6.72-8.08-10.71-12.42
				c0.03,0.1,0.03,0.16,0.03,0.16s-61.8-54.68-117.27-11.88c-54,41.68-83.48,87.09-84.93,89.43c2.09-1.71,35.46-29.54,45.25-35.75
				C224.42,154.08,204.99,171.32,201.92,184.12z"/>
			<path fill="#723316" d="M341.62,169.29l29.32,29.54c9-12.8,25.77-34.07,40.95-39.34c-0.22-12.07,1.36-19.46-5.55-22.37
				c-2.88-1.2-7.29-6.63-13.09-13.63C388.24,140.61,375.12,161.34,341.62,169.29z"/>
			<path fill="#6B3013" d="M180.27,188.88c0,0,0.03-0.03,0.1-0.1c1.46-2.34,30.93-47.76,84.93-89.43
				c55.47-42.79,117.27,11.88,117.27,11.88s0-0.07-0.03-0.16c-14.2-15.53-33.47-31.94-57.02-30.49
				c-42.25,2.66-68.68-9.51-86.11,11.09C221.98,112.28,179.73,168.27,180.27,188.88z"/>
			<path fill="#ED6B62" d="M388.47,306.72c-0.95-20.53,7.89-40.3,24.16-53.11c10.58-7.51,23.4-11.34,31.89,0.08
				c13.52,18.92-1.08,66.93-28.59,81.84c-10.04,6.14-20.88,1.44-24.3-10.04C390.09,320.49,388.79,314.22,388.47,306.72z"/>
			<path fill="#6B3013" d="M368.31,214.76l-4.22,15.32c0,0-43.84-24.3-81.87-14.26l1.05-30.64
				C283.26,185.18,357.22,194.69,368.31,214.76z"/>
			<path fill="#6B3013" d="M238.89,187.82l-2.11,26.41c0,0-34.86-1.06-43.84,11.1l-2.64-18.49
				C190.3,206.84,219.88,180.43,238.89,187.82z"/>
			<path fill="#ED7E67" d="M273.23,398.05c0,0-16.64-31.69-68.93-14.26C204.3,383.79,249.46,383,273.23,398.05z"/>
			<path fill="#F49252" d="M243.52,241.57c-0.99-0.39-2.18-22.78-21.2-18.81c-14.4,2.99-13.67,20.01-13.67,20.01L243.52,241.57z"/>
			<path fill="#E9575C" d="M438.21,278.71c0,0-0.01,10.14-3.66,5.94s-15.13-16.28-15.4-4.31c-0.27,11.96,8.82,21.98-0.13,28.71
				c-8.95,6.74-9.25,5.1-11.09,1.46c0,0,8.88-1.98,9.11-7.79s2.97-9.84,2.51-9.9c-0.46-0.07-6.08-6.36-6.08-6.36l-0.65-11.47l4.35-7
				l14.97-1.36C432.14,266.62,438.34,271.96,438.21,278.71z"/>
			<path fill="#CD394B" d="M425.65,264.44c0,0,15.3,3.38,10.18,14.66c-5.12,11.28,4.51-7.82-7.74-8.62
				c-12.25-0.79-11.3-2.51-13.64,4.08c-2.34,6.6,0.01,10.28,6.17,16.68c6.16,6.4-11.17,24.24-13.37,19.67
				c-2.38-4.96,14.99-11.13,10.5-16.84c-4.49-5.71-10.58-15.45-7.27-21.45C413.81,266.62,422.44,263.84,425.65,264.44z"/>
			<path fill="#74A3D6" d="M489.81,520.61c0,0,5.45,2.21,13.38,7.03c-3.45-3.45-6.97-6.53-10.43-9.28c-0.35-0.26-0.7-0.54-1.04-0.83
				C491.02,518.41,490.38,519.46,489.81,520.61z"/>
			<path fill="#F4A976" d="M243.45,510.3l6.75,20.3l0.37,1.12l0.18,0.55c0,0-0.04,0.3-0.04,0.71c0.11-0.15,0.22-0.3,0.3-0.49
				c-0.08-0.03,0-0.03,0-0.03c2.45-5.31,5.15-9.65,7.9-13.17C252.83,516.38,247.72,513.34,243.45,510.3z"/>
			<path fill="#E52225" d="M550.38,609.68c-10.02-24.06-17.47-41.01-18.79-41.54c-4.6-1.84-41.94-64.62-59.82-63.8l0.05-0.12
				l-18.45-8.12l-69.72-33.7c0,0-0.46-0.58-3.15,4.79c-0.09-1.08-0.14-1.97-0.18-2.56c0-0.55,0-0.89,0-0.89
				c-0.74,0.7-1.52,1.44-2.3,2.15c-8.94,8.16-20.67,16.69-33.47,24.49c-2.9,1.78-5.86,3.53-8.87,5.19
				c-11.58,6.57-23.7,12.43-35.18,16.77c-0.03,0.04-0.07,0.04-0.07,0.04c-0.37,0.14-0.7,0.3-1.04,0.41
				c-12.24,4.6-22.15,9.98-32.17,8.9c-0.15,0-0.33,0-0.48-0.07c-0.78-0.07-1.52-0.19-2.3-0.37c-0.77-0.18-1.6-0.37-2.37-0.66
				c-0.41-0.15-0.85-0.3-1.3-0.49c-0.45-0.15-0.85-0.33-1.3-0.56c-0.18-0.07-0.37-0.18-0.56-0.26c-2.74,3.52-5.45,7.86-7.9,13.17
				c0,0-0.08,0,0,0.03c-0.08,0.19-0.19,0.33-0.3,0.49c0-0.41,0.04-0.71,0.04-0.71l-0.18-0.55l-0.37-1.12l-6.75-20.3
				c-7.27-5.27-12.13-10.68-15.33-15.92c-5.82-9.61-6.01-18.59-4.97-24.75c-2.37,2.56-5.04,5.08-8.01,7.64
				c-32.14,27.71-77.43,41.49-105.03,69.46c-9.45,3.11-30.51,30.17-49.56,62.94H550.38z"/>
			<path fill="#B22024" d="M380.33,464.62c0.04,0.71,0.11,1.79,0.22,3.19c12.39,6.13,24.23,11.98,30.76,14.88
				c1.19,0.53,2.67,1.23,4.45,2.04c0.26-0.11,0.41-0.15,0.41-0.15c9.05,2.15,17.44,4.87,25.12,7.95c0.3,0.14,0.56,0.26,0.85,0.37
				c0.18,0.07,0.33,0.15,0.48,0.22c0.15,0.04,0.26,0.07,0.37,0.11c14.02,5.82,25.82,12.99,35.88,21.04c1.44,1.15,2.82,2.3,4.19,3.49
				c33.09,28.64,45.43,66.62,54.29,91.92h41.37c-11.24-32.54-31.28-72.17-80.52-95.49c-0.52-0.26-1.12-0.52-1.67-0.77
				c-7.53-3.45-15.77-6.57-24.71-9.2c0,0-0.11,0.03-0.41,0.11c-1.75-0.89-3.19-1.67-4.34-2.23c-15.84-7.94-63.37-35.91-72.87-39.06
				c-1.74-0.6-3.19-3.86-4.34-8.8c-2.71,2.74-5.9,5.98-9.57,9.5v0.48c0.04,0.33,0.11,0.63,0.19,0.97
				C380.44,465,380.36,464.81,380.33,464.62z"/>
			<g>
				<defs>
					<path id="SVGID_3_" d="M34.49,662.61c24.64,8.94,75.13,109.2,99.18,165.25c16.36-32.8,18.22-108.01,17.29-122.4
						c-0.32-4.72-0.87-13.29-1.79-24.32l194.88,16.94c2.93,10.46,8.61,19.36,15.69,26.97c0.18,0.19,0.37,0.41,0.56,0.6
						c18.07,19,44.81,29.83,58.74,36.4c-0.36-0.18-0.76-0.39-1.13-0.58c0.83,0.42,1.64,0.83,2.41,1.21c0.19,0.1,0.41,0.19,0.6,0.28
						c-1.18-1.6-2.34-3.3-3.5-5.05c1.16,1.75,2.32,3.45,3.51,5.06c0.14,0.07,0.3,0.14,0.48,0.22c0.3,0.15,0.63,0.3,0.89,0.45
						c2.46,1.16,4.4,2,5.82,2.6c1.07,0.98,2.17,1.96,3.28,2.95c0.23,0.58,0.5,1.25,0.83,2.09c0.24-0.24,0.49-0.49,0.72-0.73
						c9.36,8.16,26.87,14.74,40.15,23.84c2.48,1.69,114,18.48,123.92-20.49c6.11,17.79,9.27,6.45,18.35,30.78
						c5.57,14.84-3.34,29.64-17.55,43.15c19.26,7.05,19.59-7.53,33.13-6.08c6.38-8.87,6.48-3.84,3.4-13.56
						c-11.09-34.88-1.85-26.73-10.94-46.99c-3.26-7.35,0.23-48.31-3.22-57.55c-8.54-22.56-17.55-48.87-27.13-69.68
						c-12.21-26.57-17.7-103.22-94.87-139.77c-0.53-0.26-1.12-0.52-1.67-0.77c-5.65-2.59-11.71-4.99-18.16-7.14
						c-2.19-1.2-4.23-1.87-6.07-1.91c-0.16-0.05-0.32-0.1-0.48-0.14l-4.35-1.92c-0.12-0.06-0.28-0.14-0.39-0.2
						c-15.84-7.95-63.37-35.92-72.87-39.07c-1.74-0.6-3.19-3.86-4.34-8.8c-2.71,2.74-5.9,5.98-9.57,9.5v0.03
						c-0.73,0.7-1.5,1.42-2.26,2.12c-8.94,8.16-20.67,16.69-33.47,24.49c-2.9,1.78-5.86,3.53-8.87,5.19
						c-11.58,6.57-23.7,12.43-35.18,16.77c-0.03,0.04-0.07,0.04-0.07,0.04c-0.37,0.14-0.7,0.3-1.04,0.41
						c-12.24,4.6-22.15,9.98-32.17,8.9c-0.15,0-0.33,0-0.48-0.07c-0.78-0.07-1.52-0.19-2.3-0.37c-0.77-0.18-1.6-0.37-2.37-0.66
						c-0.41-0.15-0.85-0.3-1.3-0.49c-0.45-0.15-0.85-0.33-1.3-0.56c-0.18-0.07-0.37-0.18-0.56-0.26c-2.74,3.52-5.45,7.86-7.9,13.17
						c0,0-0.08,0,0,0.03c-0.08,0.19-0.19,0.33-0.3,0.49c0-0.41,0.04-0.71,0.04-0.71l-0.18-0.55l-0.37-1.12l-6.75-20.3
						c-7.27-5.27-12.13-10.68-15.33-15.92c-5.82-9.61-6.01-18.59-4.97-24.75c-2.38,2.56-5.04,5.08-8.01,7.64
						c-32.14,27.71-77.43,41.49-105.03,69.46C95.78,551.47,54.7,611.32,34.49,662.61z M383.73,738.55
						c-0.73-0.64-1.44-1.31-2.17-1.98C382.28,737.24,383,737.91,383.73,738.55z M387.68,741.9c-0.83-0.68-1.65-1.38-2.48-2.09
						C386.03,740.52,386.85,741.23,387.68,741.9z M391.65,745.03c-0.89-0.68-1.79-1.39-2.68-2.1
						C389.86,743.64,390.75,744.35,391.65,745.03z M395.6,747.95c-0.93-0.67-1.87-1.37-2.81-2.07
						C393.73,746.59,394.67,747.28,395.6,747.95z M399.5,750.65c-0.95-0.64-1.9-1.3-2.86-1.98
						C397.59,749.35,398.55,750.01,399.5,750.65z M403.31,753.14c-0.94-0.59-1.88-1.21-2.84-1.85
						C401.43,751.92,402.38,752.55,403.31,753.14z M407,755.42c-0.9-0.54-1.83-1.11-2.75-1.69
						C405.18,754.31,406.1,754.87,407,755.42z M410.54,757.49c-0.85-0.49-1.73-1-2.61-1.52C408.82,756.49,409.69,757,410.54,757.49z
						 M413.9,759.36c-0.79-0.43-1.61-0.89-2.44-1.35C412.28,758.47,413.1,758.92,413.9,759.36z M380.5,467.18
						c-0.01-0.01-0.01-0.03-0.01-0.03S380.5,467.17,380.5,467.18L380.5,467.18z M380.48,465.18c-0.04-0.18-0.11-0.37-0.15-0.56
						c0.01,0.3,0.04,0.7,0.07,1.12c-0.03-0.44-0.06-0.82-0.07-1.12c0-0.09,0-0.13,0-0.21C380.36,464.67,380.42,464.92,380.48,465.18
						z M416.41,756.37c-1-1.57-2.01-3.19-3-4.87C414.4,753.18,415.4,754.8,416.41,756.37z M417.05,761.02
						c-0.73-0.37-1.48-0.77-2.25-1.18C415.57,760.26,416.32,760.65,417.05,761.02z M378.07,733.25c0.59,0.58,1.18,1.18,1.77,1.75
						C379.24,734.42,378.66,733.83,378.07,733.25z M374.82,729.91c0.41,0.43,0.81,0.89,1.22,1.32
						C375.62,730.79,375.23,730.34,374.82,729.91z M371.32,692.93c0.08-0.18,0.16-0.35,0.24-0.53
						C371.48,692.58,371.4,692.75,371.32,692.93z M366.48,704.39c0.25-0.63,0.5-1.26,0.76-1.88
						C366.98,703.13,366.73,703.76,366.48,704.39z M372.37,727.24c-0.16-0.18-0.32-0.38-0.48-0.57
						C372.06,726.86,372.22,727.06,372.37,727.24z"/>
				</defs>
				<clipPath id="SVGID_4_">
					<use xlink:href="#SVGID_3_"  overflow="visible"/>
				</clipPath>
				<g clip-path="url(#SVGID_4_)">
					
						<rect x="-376.57" y="474.15" transform="matrix(-1 -1.224647e-16 1.224647e-16 -1 287.7341 987.876)" opacity="0.45" fill="#981E22" width="1040.87" height="39.57"/>
					
						<rect x="-376.57" y="563.2" transform="matrix(-1 -1.224647e-16 1.224647e-16 -1 287.7341 1165.9664)" opacity="0.45" fill="#981E22" width="1040.87" height="39.57"/>
					<rect x="-9.49" y="107.08" opacity="0.45" fill="#981E22" width="39.57" height="502.6"/>
					<rect x="79.56" y="107.08" opacity="0.45" fill="#981E22" width="39.57" height="502.6"/>
					<rect x="168.6" y="107.08" opacity="0.45" fill="#981E22" width="39.57" height="502.6"/>
					<rect x="257.65" y="107.08" opacity="0.45" fill="#981E22" width="39.58" height="502.6"/>
					<rect x="350.41" y="107.08" opacity="0.45" fill="#981E22" width="39.57" height="502.6"/>
					<rect x="439.45" y="107.08" opacity="0.45" fill="#981E22" width="39.57" height="502.6"/>
					<rect x="528.5" y="107.08" opacity="0.45" fill="#981E22" width="39.58" height="502.6"/>
					<polygon opacity="0.45" fill="#981E22" points="636.63,609.68 636.63,101.42 617.55,107.08 617.55,609.68 					"/>
				</g>
			</g>
			<path fill="#F4BB1B" d="M169.25,609.68c2.32-44.59,6.22-90.79,12.72-110.21c-5.19,1.87-30.23,16.39-30.23,16.39
				s-7.26,43.89-11.78,93.83H169.25z"/>
			<path fill="#AC2E33" d="M237.69,492.92c0,0-1.56,0.97-4.15,2.74c-3.18,2.1-7.93,5.44-13.06,9.6c-1.83,1.46-3.71,3.03-5.59,4.71
				c0,0-0.07,0-0.07,0.05c-1.82,1.46-3.58,3.08-5.27,4.71h-0.07c-1.18,1.19-2.41,2.38-3.59,3.58c-0.07,0.05-0.13,0.05-0.13,0.11
				c-5.28,5.42-10.12,11.4-13.41,17.51c-2.3,4.3-3.91,8.61-4.28,12.95c0,0-0.78-4.79-0.68-13.01c0.05-3.84,0.37-8.5,1.01-13.71
				c0.07-0.71,0.14-1.42,0.29-2.19c0.14-0.77,0.21-1.54,0.35-2.3c1.33-8.1,3.5-17.35,7.24-27.35c1.2-3.16,2.65-6.22,4.36-9.17
				c5.46-9.53,13.55-17.89,23.36-24.51l0.07-0.06c0.87,2.37-2.15,6.72,7.21,24.95C232.96,484.84,235.04,488.6,237.69,492.92z"/>
			<path fill="#7F2322" d="M249.43,535.97l1.11-0.41l61.18-23.26l3.49-1.33l64.67-24.6l2.34-0.89c0,0-0.85,0.07-2.34,0.3
				c-2.63,0.3-7.38,0.82-13.51,1.6l-0.07,0.04c-4.52,0.59-9.84,1.3-15.55,2.11c-2,0.26-4.08,0.56-6.19,0.85
				c-2.67,0.37-5.42,0.77-8.2,1.22c-6.9,1.04-14.03,2.19-20.93,3.45c-13.58,2.45-26.08,5.15-34.35,7.98
				c-0.19,0.03-0.33,0.07-0.45,0.14c-1.3,0.41-2.49,0.85-3.49,1.34c-0.41,0.14-0.78,0.3-1.12,0.48c0,0-8.57,3.16-17.11,14.29
				c-2.74,3.52-5.45,7.86-7.9,13.17c0,0-0.08,0,0,0.03c-0.08,0.19-0.19,0.33-0.3,0.49c0,0.03,0,0.03,0,0.07
				c-0.07,0.15-0.14,0.3-0.14,0.41c-0.15,0.33-0.3,0.63-0.45,0.97C249.87,534.93,249.65,535.45,249.43,535.97z"/>
			<path fill="#7F2322" d="M190.4,531.67c5.6-5.82,10.68-10.13,15.36-13.24c0-0.08,0.08-0.08,0.15-0.11
				c2.71-1.86,5.31-3.3,7.75-4.35c0.07-0.07,0.07-0.07,0.14,0c6.35-2.86,11.77-3.26,16.36-2.26h0.07c4.05,0.85,7.43,2.82,10.17,5.27
				c5.27,4.57,8.31,13.55,9.72,17.44c0.15,0.45,0.3,0.85,0.41,1.15c0.04,0,0.11-1.56,0.18-2.52c0-0.04,0-0.04,0-0.07
				c0-0.41,0.04-0.71,0.04-0.71l-0.18-0.55l-0.37-1.12l-6.75-20.3l-5.75-17.4c-3.01-0.52-6.23,0.07-9.57,1.48
				c-8.16,3.38-16.8,11.58-23.78,19.44c-0.07,0.07-0.14,0.11-0.14,0.18c-0.7,0.74-1.41,1.56-2.08,2.34
				C195.66,523.99,191.07,530.75,190.4,531.67z"/>
			<g>
				<path fill="#EF9D24" d="M174.25,609.68c0.09-47.38,1.97-95.3,8.64-110.21c0.12-0.25-0.22-0.25-0.89,0h-0.03
					c-6.5,19.43-10.4,65.62-12.72,110.21H174.25z"/>
			</g>
			<g>
				<path fill="#EF9D24" d="M364.43,609.68c7.74-22.84,18.23-47.18,32.49-71.51c-15.33,24.31-26.74,48.7-35.27,71.51H364.43z"/>
				<g>
					<path fill="#F4BB1B" d="M361.64,609.68c8.53-22.82,19.94-47.2,35.27-71.51c0.03-0.1,0.09-0.19,0.16-0.29
						c10.93-18.67,24.09-37.3,39.9-55.31l-31.22-19.14l-1.52-0.95c0,0-17.43,18.32-38.22,50.74v0.03
						c-15.77,24.61-33.45,57.37-46.9,96.43H361.64z"/>
				</g>
			</g>
			<path fill="#AC2E33" d="M428.3,470.8c-0.02,1.04-0.42,2.3-1.21,3.72c0,0,0,0,0,0.05c-1.45,2.61-4.06,5.77-7.65,9.34
				c-9.13,9.27-24.34,21.1-39.93,32.42c-10.66,7.72-21.5,15.2-30.85,21.56c-15.45,10.45-26.93,17.77-26.93,17.77
				c0.54-6.86,0.49-12.89-0.03-18.11c-0.91-9.13-3.27-15.9-6.55-20.94c-1.08-1.6-2.21-3.05-3.42-4.33
				c-1.21-1.27-2.48-2.39-3.76-3.28c-11.04-8.04-25.35-5.75-30.84-4.5c-0.71,0.16-1.22,0.32-1.61,0.42c1.74-0.58,3.42-1.17,5.1-1.75
				c0.13-0.05,0.26-0.11,0.45-0.16c12.74-4.34,24.18-8.63,34.41-12.79c6.21-2.5,11.97-5,17.34-7.41
				c21.49-9.72,36.73-18.64,47.45-26.34c25.53-18.5,25.81-30.46,25.81-30.46S428.51,453.62,428.3,470.8z"/>
			<path fill="#E76624" d="M361.14,55.5c2.9,2.18,5.25,4.42,7.01,6.63c19.71,24.92,1.02,96.08-3.41,111.73
				c30.97,15.07,52.96,27.41,52.96,27.41s26.51-86.72,4.31-114.8C413.21,75.37,389.22,64.03,361.14,55.5z"/>
			<path fill="#EF9D24" d="M203.74,120.1c27.97,0.06,68.06,13.19,105.98,28.86c0.03,0.03,0.06,0.03,0.06,0.03
				c19.53,8.09,38.52,16.86,54.95,24.88c4.43-15.65,23.12-86.81,3.41-111.73c-1.75-2.21-4.11-4.45-7.01-6.63
				c-42.72-13.04-88.95-16.37-111.53-5.88c-25.57,11.91-40.81,38.76-44.11,56.6C203.99,114.48,203.74,120.1,203.74,120.1z"/>
			<path fill="#E34E25" d="M417.58,201.2c0,0-219.91-168.58-328.13-103.64c0,0-36.48,24.12-7.42,51.32l100.8-31.54L417.58,201.2z"/>
			<path fill="#E97A26" d="M99.23,165.31c32.43,19.78,70.69,30.57,92.98,35.62c-1.23-7.12-1.97-13.21-1.97-17.85
				c0-1.3,0.08-2.6,0.22-3.97c-2.71-6.83-2.45-13.55,4.94-18.18c6.97-4.34,20.29-6.8,43.41-5.61c50.68,2.64,99.36,16.11,133.12,27.8
				c26.75,9.24,44.08,17.36,45.64,18.07c-1.26-0.97-13.87-10.28-34.1-23.12c-33.09-21.04-86.6-51.53-143.85-70.02
				c-51.76-16.69-106.56-23.56-152.09-4.78C87.54,103.28,50,135.3,99.23,165.31z"/>
		</g>
	</g>
</g>
</svg>
