<?xml version="1.0" encoding="utf-8"?>
<!-- Generator: Adobe Illustrator 25.2.3, SVG Export Plug-In . SVG Version: 6.00 Build 0)  -->
<svg version="1.1" id="Layer_1" xmlns="http://www.w3.org/2000/svg" xmlns:xlink="http://www.w3.org/1999/xlink" x="0px" y="0px"
	 viewBox="0 0 576 576" enable-background="new 0 0 576 576" xml:space="preserve">
<g>
	<g>
		<defs>
			<path id="SVGID_1_" d="M576,287.51c0,158.72-128.66,287.39-287.39,287.39S1.22,446.23,1.22,287.51S129.89,0.12,288.61,0.12
				S576,128.79,576,287.51z"/>
		</defs>
		<use xlink:href="#SVGID_1_"  overflow="visible" fill="#F9E3D9"/>
		<clipPath id="SVGID_2_">
			<use xlink:href="#SVGID_1_"  overflow="visible"/>
		</clipPath>
		<g clip-path="url(#SVGID_2_)">
			<path fill="#026362" d="M165.38,666.4c0,0,32,43.59,97.27,61.74C327.91,746.29,237.72,648.33,165.38,666.4z"/>
			<g>
				<path fill="#F89F74" d="M207.65,709.26c1.02,3.06-4,50.33-30.71,95.84l-48.37-9.12c20.14-48.88,45.78-148.2,51.03-150.02
					c35.66-12.33,89.54,47.72,89.54,47.72l-22.17,44.92L207.65,709.26z"/>
				<path fill="#F68B57" d="M174.28,804.6c30.63-61.28,39.09-148.44,38.03-151.62l55.8,46.22l-59.25,111.92L174.28,804.6z"/>
			</g>
			<g>
				<path fill="#017F81" d="M165.38,666.4c0,0,45.77-13.85,83.94,29.25c135.21-127.39,92.94-189.79,69.05-212.28
					C226.64,463.21,165.38,666.4,165.38,666.4z"/>
				<path fill="#7A1315" d="M249.31,695.65c8.08,9.14,15.84,20.88,22.76,35.88c0,0,168.93-132.19,69.55-237.01
					C330.71,483,320,476.43,309.54,473.83C333.42,496.32,384.53,568.26,249.31,695.65z"/>
			</g>
			<path fill="#F89F74" d="M339.89,329.11c1.88,5.91-16.66,99.97,64.81,150.08c81.46,50.11-55.18,122.65-93.64,83.43
				c-38.47-39.23,8.64-130.28-18.96-156.21C252.06,368.81,339.89,329.11,339.89,329.11z"/>
			<path fill="#019B9B" d="M248.86,818.66l11.08-65.67l-13.55-111.57l48.36-115.62c0,0,25.25,25.08,80.15,4.29
				c54.9-20.79,106.05-37.18,106.05-37.18s80.56,107.83,1.13,369.74L248.86,818.66z"/>
			<path fill="#026362" d="M389.41,711.96c0,0,56.06,31.01,123.74,17.78C513.15,729.73,478,682.28,389.41,711.96z"/>
			<path fill="#F9AF8A" d="M323.23,376.97c-13.64,45.58-28.13,80.88-60.36,93.5c-0.01,0.05-0.06,0.03-0.06,0.03
				c-0.05,0.04-0.16,0.06-0.16,0.06c-24.78,6.37-48.89,3.72-67.67-13.59c-91.16-83.88-26.3-275.4-25.12-284.38l22.85,3
				c0.93,7.99,1.84,13.39,1.84,13.39s26.49,33.24,57.57,26.12c31.04-7.13,61.74-1.95,70.58,26.56
				C331.65,270.17,336.94,331.3,323.23,376.97z"/>
			<path fill="#751E14" d="M211.32,260.77l3.18,18.2c0,0,25.05-31.59,71.23-26.5l5.42-25.45
				C291.15,227.02,249.3,229.47,211.32,260.77z"/>
			<path fill="#FFFFFF" d="M242.78,327.27c-23.95-5.77-25.88-31.75-25.88-31.75l10.51-2.2l23.7-4.93l24.79-5.19
				C278.94,298.89,266.77,333.04,242.78,327.27z"/>
			<g>
				<path fill="#FFFFFF" d="M188.22,289.15c0,0,4.64,22.48-14.53,28.71c-19.18,6.24-28.78-19.8-26.19-33.06l7.8-0.68l17.22,2.49
					L188.22,289.15z"/>
			</g>
			<path fill="#7C1E16" d="M178.01,310.73c-1.3,5.75-7.01,9.36-12.76,8.06c-5.75-1.3-9.36-7.02-8.06-12.77
				c1.3-5.75,7.01-9.36,12.76-8.06C175.71,299.26,179.31,304.98,178.01,310.73z"/>
			<path fill="#7C1E16" d="M254.25,315.55c-1.48,6.52-7.96,10.61-14.47,9.13c-6.52-1.47-10.61-7.95-9.14-14.47
				c1.47-6.52,7.95-10.61,14.47-9.14C251.63,302.54,255.73,309.02,254.25,315.55z"/>
			<path fill="#F5855B" d="M209.09,239.66c0,0-13.32,7.48-10.4,31.84C198.7,271.51,199.27,248.41,209.09,239.66z"/>
			<path fill="#F5855B" d="M177.2,241.93c0,0,19.25,5.08,9.74,26.1C186.94,268.02,190.73,248.43,177.2,241.93z"/>
			<path fill="#F5855B" d="M216.9,295.51l61.59-11.74C278.49,283.78,237.15,251.56,216.9,295.51z"/>
			<path fill="#F5855B" d="M147.5,284.79l40.72,4.35C188.22,289.15,170.45,260.14,147.5,284.79z"/>
			<path fill="#751E14" d="M137.99,242.38c4.86,1.26,35.73,14.81,44.95,31.5l-1.58,13.45c0,0-31.75-24.89-46.01-22.67L137.99,242.38
				z"/>
			<path fill="#F89F74" d="M380.45,372.06c-19.07,39.55-69.55,85.96-117.58,98.4c32.22-12.62,46.71-47.92,60.36-93.5
				c13.71-45.67,8.42-106.8-0.51-135.32c-8.84-28.5-39.55-33.69-70.58-26.56c-31.08,7.13-57.57-26.12-57.57-26.12
				s-0.91-5.4-1.84-13.39l197.96,17.3C390.69,192.89,409.44,312.03,380.45,372.06z"/>
			<polygon fill="#824C1F" points="281.95,288.25 285.02,299.63 370.37,318.91 372.4,309.92 			"/>
			<polygon opacity="0.39" fill="#0E89B1" points="181.87,311.58 177.53,330.78 173.63,334.05 129.51,329.37 120.91,317.99 
				120.02,285.2 129.72,279 144.8,280.71 143.16,304.01 181.49,306.82 182.56,297.49 			"/>
			<polygon opacity="0.68" fill="#FFFFFF" points="181.49,306.82 143.16,304.01 144.8,280.71 145.31,280.73 178.7,284.5 
				182.94,288.9 182.56,297.49 			"/>
			<polygon opacity="0.33" fill="#0E89B1" points="285.49,308.62 275.06,335.55 264.87,338.91 229.38,337.78 214.03,334.31 
				210.03,325.96 211.96,289.04 231.67,285.05 281.97,288.26 283.26,289.68 247.09,286.74 245.45,310.05 283.77,312.86 
				285.66,295.93 			"/>
			<polygon opacity="0.68" fill="#FFFFFF" points="283.77,312.86 245.45,310.05 247.09,286.74 283.26,289.68 285.73,292.51 
				285.66,295.93 			"/>
			<g>
				<path fill="#824C1F" d="M217.87,339.88c-5.91-1.34-10.27-6.36-10.27-12.27l-0.01-33.37c-0.01-3.3,1.33-6.44,3.75-8.83
					c2.59-2.56,6.25-4.01,10.01-3.96c3.26,0.05,7.07,0.05,11.17,0.04c37.04-0.03,53.96,1.28,56.24,9.09l0,0
					c3.32,11.33-1.7,33.77-9.94,44.46c-4.77,6.19-9.55,7.38-12.72,7.3c-9.18-0.26-29.99-1.3-45.84-2.13
					C219.44,340.16,218.64,340.05,217.87,339.88z M277.56,290.68c-10.23-2.31-33.76-2.3-45.03-2.29c-4.14,0-7.98,0.01-11.27-0.04
					c-1.93-0.03-3.77,0.69-5.06,1.97c-1.1,1.08-1.7,2.46-1.7,3.91l0.01,33.37c0,3.02,2.66,5.53,6.13,5.71
					c12.93,0.68,36.07,1.86,45.66,2.12c2.85,0.08,5.42-2.46,7.08-4.61c7.43-9.63,11.24-29.59,8.82-38.18
					C281.52,291.85,279.89,291.2,277.56,290.68z M282.22,292.71L282.22,292.71L282.22,292.71z M282.14,292.52L282.14,292.52
					L282.14,292.52L282.14,292.52z"/>
			</g>
			<g>
				<path fill="#824C1F" d="M129.71,333.23c-2.55-0.58-5.8-2.35-8.64-7.1c-6.93-11.61-7.83-34.48-3.68-44.38l0,0
					c3.05-7.27,18.09-6.64,50.64-2.5c3.56,0.45,6.86,0.88,9.7,1.19c3.29,0.36,6.26,2.02,8.3,4.64c2.05,2.63,2.93,5.9,2.48,9.22
					l-4.29,31.57c-0.87,6.39-6.58,11.05-13.02,10.6c-11.36-0.78-31.69-2.22-40.24-3.05C130.56,333.39,130.15,333.32,129.71,333.23z
					 M123.69,284.53c-3.39,8.3-2.39,28.53,3.29,38.05c1.02,1.71,2.69,3.82,4.63,3.98c8.48,0.82,28.74,2.25,40.06,3.04
					c2.81,0.19,5.32-1.85,5.7-4.65l4.28-31.57c0.2-1.46-0.19-2.89-1.08-4.05c-0.89-1.15-2.19-1.87-3.63-2.02
					c-2.87-0.32-6.21-0.75-9.81-1.21C155.21,284.57,127.33,281.03,123.69,284.53z"/>
			</g>
			<path fill="#F5855B" d="M184.93,280.11c0,0,4.67,55.82-17.41,68.9c-22.08,13.08-3.98,33.79,19.04,32.35
				c8.51-0.54,15.29-2.83,20.44-5.51c9.45-4.9,12.52-17.42,5.57-25.48c-3.16-3.66-7.11-4.79-11.35,2.11
				C201.23,352.49,206.01,309.18,184.93,280.11z"/>
			<g>
				<path fill="#824C1F" d="M180.65,288.4l-3.09-6.17c18.2-9.14,35.74,3.46,36.47,4l-4.07,5.57
					C209.82,291.69,195.04,281.19,180.65,288.4z"/>
			</g>
			<path fill="#019B9B" d="M246.39,641.42c0,0-25.36-119.93,37.91-159.16s142.07-27.29,197.34,12.65
				C529.66,529.61,246.39,641.42,246.39,641.42z"/>
			<path fill="#F89F74" d="M378.39,458.38c0,0-22.84,69.54-77.69,66.71c0,0-17.06-20.03-2.63-50.53
				C298.07,474.55,348.01,442.17,378.39,458.38z"/>
			<g>
				<g>
					<g enable-background="new    ">
						<g>
							<path fill="#FFFFFF" d="M291.6,698.14c2.28,0.19,4.62,1.73,6.31,3.94c3.04,4.01,10.27,5.01,13.05,5.27
								c0,0,0.21,0.02,0.56,0.05c0.36,0.03,0.58,0.04,0.58,0.04c2.78,0.2,9.94,0.36,12.6-3.19c1.46-1.96,3.66-3.13,5.94-2.95
								c2.87,0.23,5.87,2.61,7.69,8.27c3.27,10.16,19.5,48.4,8.44,55.6c-1.41,0.91-2.74,1.25-4.01,1.15
								c-8.04-0.65-13.96-19.02-27.55-20.82l0.03,0.14h-0.02c-0.54-0.12-1.1-0.19-1.65-0.24c-0.55-0.05-1.1-0.06-1.64-0.03h-0.02
								l-0.01-0.14c-13.49-0.38-17.48,17.19-25.52,16.54c-1.27-0.1-2.64-0.66-4.16-1.82c-11.93-9.05,0.31-45,2.52-54.71
								C285.97,699.82,288.73,697.91,291.6,698.14L291.6,698.14z"/>
						</g>
					</g>
				</g>
				<g>
					<g enable-background="new    ">
						<g>
							<path fill="#FFFFFF" d="M316.43,793.67c-28.13-2.28-52.54-32.34-54.4-67.03c-1.86-34.7,19.51-61.06,47.64-58.79
								c28.15,2.28,52.56,32.35,54.42,67.04C365.95,769.58,344.57,795.94,316.43,793.67L316.43,793.67z M309.45,663.79
								c-29.94-2.42-52.69,25.67-50.71,62.58c1.98,36.93,27.96,68.94,57.91,71.36c29.97,2.43,52.72-25.64,50.74-62.57
								C365.4,698.25,339.42,666.22,309.45,663.79L309.45,663.79z"/>
						</g>
					</g>
				</g>
			</g>
			<path fill="#8E2323" d="M329.49,277.29c5.8,11,15.69,20.29,31.74,25.4c73.12,23.23,108.15-59.52,98.54-109.6
				C421.69,192.06,358.3,249.24,329.49,277.29z"/>
			<path fill="#8E2323" d="M358.63,78.74c1.82-11.21,2.59-21.12,2.89-28.72c-12.88-10.48-30.21-18.85-53.43-23.17
				C308.09,26.86,352.43,44.26,358.63,78.74z"/>
			<path fill="#8E2323" d="M132.21,190.26c0.01-1.6-0.22-35.38,6.71-44.47c0,0-1.36,35.57,28.91,46.9c17.04,6.39,66,7.88,105.6,8
				l0.03,0.01c56.3-24.16,76.85-76.95,84.22-116.62c-22.9-20.1-73.11-51.98-157.51-46.02c0,0,29.82,13.03,47.3,31.29
				c-13.86-3.58-32.68-1.64-58.2,10.89C102.07,123.09,131.2,188.08,132.21,190.26z"/>
			<g>
				<path fill="#F89F74" d="M361.84,319.78c0,0,44.94-62.87,71.15-26.7c26.21,36.17-14.2,94.03-52.68,84.82
					c-38.48-9.22-29.51-25.89-29.51-25.89L361.84,319.78z"/>
				<path fill="#F47644" d="M374.07,338.8c0,0,0.74,14.59,12.28,12.81c11.55-1.78,11.87-14.23,3.73-18.85
					c-8.14-4.61-7.85-1.88-7.85-1.88s24.75-34.66,33.9-28.39c9.15,6.26,22.4,26.19,9.01,35.67c-13.39,9.49-11.67,4.89-6.96-1.04
					c4.71-5.92,10.82-8.53,6.42-15.69c-4.4-7.16-12.78-13.4-12.78-13.4l-21.71,20.03c0,0,13.4,10.1,8.35,18.14
					c-5.05,8.03-20.7,17.76-27.33,4.89C371.12,351.1,367.21,343.89,374.07,338.8z"/>
			</g>
			<path fill="#6A2324" d="M329.53,199.99c0,0-16.81,45.69-0.04,77.3c28.8-28.05,92.2-85.23,130.29-84.2
				c-3.05-15.93-10.62-28.56-22.94-33.42c-6.93-2.72-13.37-3.89-19.61-4.4c11.34-15.83,19.95-40.01,1.61-73.48
				c0,0-2,24.04-21.44,41.05c-1.9-21.67-9.72-51.56-35.89-72.81c-0.3,7.6-1.07,17.51-2.89,28.72c0.4,2.2,0.62,4.47,0.7,6.83
				c-0.53-0.47-1.1-0.99-1.65-1.49c-7.36,39.67-27.92,92.46-84.22,116.62C304.36,200.75,329.53,199.99,329.53,199.99z"/>
			<path fill="#8E2323" d="M357.68,84.08c0.55,0.51,1.12,1.02,1.65,1.49c-0.08-2.35-0.3-4.62-0.7-6.83
				C358.33,80.47,358.02,82.26,357.68,84.08z"/>
			<g>
				<path fill="#FFFFFF" d="M190.42,412.74c0,0,0.65,9.15,2.35,10.38c1.67,1.32,4.81,6.53,26.58,3.57
					c21.75-2.87,50.97,26.8,53.23,3.11c0.01-0.46,0.11-0.91,0.12-1.37c0.12-1.38,0.12-2.6,0.09-3.73
					c-0.19-19.09-13.38-21.31-13.38-21.31s-16.3-5.09-30.89,5.12C219.27,414.94,190.42,412.74,190.42,412.74z"/>
				<path fill="#F69266" d="M278.59,433.17c0,0,0.89,10.75-4.73,13.19c-5.64,2.44-16.92-3.82-16.92-3.82
					S277.58,449.74,278.59,433.17z"/>
				<path fill="#CD792F" d="M221.61,415.42c0,0,37.8,5.27,51.08,13c0.12-1.38,0.12-2.6,0.09-3.73
					C266.06,422.05,240,415.09,221.61,415.42z"/>
				<polygon fill="#CD792F" points="260.16,412.95 259.24,421.42 257.35,420.99 				"/>
				<polygon fill="#CD792F" points="243.73,410.13 242.81,418.61 240.92,418.18 				"/>
				<polygon fill="#CD792F" points="246.65,428.15 247.72,419.7 249.6,420.16 				"/>
			</g>
			<g>
				<path fill="#F9AF8A" d="M450.24,690.09c2.38,3.42,22.85,83.08-12.91,148.06c-2.84,5.17-6.84,9.76-11.79,13.84l-54.21-10.23
					l16.43-1.4c0,0,8.05-193.11,15.99-197.32c33.32-17.7,114.72,21.3,114.72,21.3l-11.05,47.13L450.24,690.09z"/>
				<path fill="#F89F74" d="M419.69,850.89c3.77-3.53,6.91-7.41,9.27-11.71c35.77-64.97,23.66-145.67,21.28-149.09l57.18,21.39
					l-33.94,149.56L419.69,850.89z"/>
			</g>
			<g>
				<path fill="#017F81" d="M386.32,711.36c0,0,32.97-31.45,78.33-8.15c69.1-171.31,3.7-215.42-23.23-225.93
					C369.11,492.2,386.32,711.36,386.32,711.36z"/>
				<path fill="#026362" d="M464.65,703.21c9.61,4.95,37.92,15.78,48.5,26.52c0,0,42.28-180.65-36.79-241.39
					c-11.12-8.54-21.58-13.66-34.94-11.06C468.35,487.8,533.75,531.9,464.65,703.21z"/>
			</g>
		</g>
	</g>
</g>
</svg>
