<?xml version="1.0" encoding="utf-8"?>
<!-- Generator: Adobe Illustrator 25.2.3, SVG Export Plug-In . SVG Version: 6.00 Build 0)  -->
<svg version="1.1" id="Layer_1" xmlns="http://www.w3.org/2000/svg" xmlns:xlink="http://www.w3.org/1999/xlink" x="0px" y="0px"
	 viewBox="0 0 576 576" enable-background="new 0 0 576 576" xml:space="preserve">
<g>
	<g>
		<defs>
			<path id="SVGID_1_" d="M576,288c0,159.06-128.94,288-288,288C128.94,576,0,447.06,0,288C0,128.94,128.94,0,288,0
				C447.06,0,576,128.94,576,288z"/>
		</defs>
		<use xlink:href="#SVGID_1_"  overflow="visible" fill="#F9E3D9"/>
		<clipPath id="SVGID_2_">
			<use xlink:href="#SVGID_1_"  overflow="visible"/>
		</clipPath>
		<g clip-path="url(#SVGID_2_)">
			<path fill="#F9E3D9" d="M576,288c0,159.06-128.94,288-288,288C128.94,576,0,447.06,0,288C0,128.94,128.94,0,288,0
				C447.06,0,576,128.94,576,288z"/>
			<g>
				<path fill="#CF5D3D" d="M85.77,626.16c9.34-20.14,20.05-37.54,32.17-47.06c44.47-34.95,90.12-145.86,90.12-145.86
					S58.77,535.17,47.63,578.26c-3.12,12.06-9.8,29.13-18.18,47.9H85.77z"/>
				<path fill="#EA9277" d="M383.08,272.33c0,0,16.13,132.57-45.05,184.43c-30.06,25.47-63.02,43.75-88.75,55.75
					c-3.36-2.04-6.32-4.61-8.77-7.75c-44.54-57.16,18.21-152.13,18.21-152.13s72.58-218.56,43.15-275.72
					c0,0,88.47,25.85,104.99,171.89L383.08,272.33z"/>
				<path fill="#C47C61" d="M249.28,512.51c25.73-12,58.69-30.28,88.75-55.75c61.18-51.85,45.05-184.43,45.05-184.43l23.78-23.53
					c1.83,16.26,2.78,34.01,2.6,53.38c0,0,0.84,67.25,42.88,96.68C492.04,426.68,307.33,547.54,249.28,512.51z"/>
				<path fill="#C47C61" d="M220.9,65.43c0,0,103.11-48.19,171.48,60.52c68.36,108.71-14.57,151.3-17.93,168.11
					c-3.36,16.81-11.21,47.63-19.61,51.83c-8.4,4.2-34.18-64.16-34.18-64.16l15.69-51.55c0,0,6.72-30.82-18.5-54.36
					C292.63,152.29,238.27,73.84,220.9,65.43z"/>
				<path fill="#C47C61" d="M347.26,189.56c0,0,16.81,142.05,7.56,156.34c-9.25,14.29-57.16,47.91-86.58,54.64
					c-29.42,6.72-5.88-135.33,15.97-167.27C306.07,201.32,347.26,189.56,347.26,189.56z"/>
				<path fill="#F9A97E" d="M321.77,178.63c0,0,19.61,25.21,10.09,47.07c-9.53,21.85-35.31,41.47-33.63,56.59
					c0,0,4.48,100.17-23.67,115.72c-28.16,15.55-71.45,21.85-88.26,13.03c-16.81-8.83-60.52-53.8-46.23-105.07
					c14.29-51.28,9.25-35.73,0.84-50.86s-26.05-42.45-1.68-70.61c24.38-28.16,29.84-120.2,99.6-120.2S329.89,81.13,321.77,178.63z"
					/>
				<path fill="#FFFFFF" d="M228.7,202.85c3.57,4.15,5.9,17.41,29.32,17.85c23.42,0.44,25.77-21.56,25.77-21.56L228.7,202.85z"/>
				<path fill="#FFFFFF" d="M175.5,202.73c0,0-13.15,23.53-26.61-7.01c-0.54-1.25,2.55-0.76,6.81,0.38
					c1.32,0.36,2.78,0.79,4.25,1.25c3.44,1.07,7.09,2.32,9.97,3.37c1.71,0.58,3.16,1.12,4.16,1.48
					C174.99,202.53,175.5,202.73,175.5,202.73z"/>
				<path fill="#C96E3E" d="M262.37,300.51c0,0-12.61-40.63-21.01-48.47l1.67-2.25C243.03,249.79,260.12,276.13,262.37,300.51z"/>
				<path fill="#C96E3E" d="M157.58,242.23c0,0-9.25,32.79-5.61,54.64c0,0,3.37-42.87,8.97-52.12L157.58,242.23z"/>
				<path fill="#C96E3E" d="M251.16,322.08c-35.72-12.16-83.5-2.8-86.58-2.24C164.58,319.84,264.33,326.57,251.16,322.08z"/>
				<path fill="#E78571" d="M369.96,180.87c0,0,37.55-44.83,54.36-5.05s-6.17,61.64-16.25,68.93
					c-10.09,7.29-33.06,34.18-45.95,25.22C349.22,261,369.96,180.87,369.96,180.87z"/>
				<path fill="#C47C61" d="M374.78,200.7l29.08-15.35c0,0,13.72,13.73,7.27,25.04c-6.46,11.31-27.46,29.88-27.46,29.88
					S378.81,207.97,374.78,200.7z"/>
				<path fill="#7D885B" d="M274,204.88c0,7.54-6.12,13.66-13.66,13.66c-7.54,0-13.66-6.12-13.66-13.66s6.12-13.66,13.66-13.66
					C267.88,191.22,274,197.34,274,204.88z"/>
				<path fill="#313D23" d="M268.26,204.88c0,4.38-3.55,7.93-7.92,7.93c-4.38,0-7.93-3.55-7.93-7.93c0-4.37,3.55-7.92,7.93-7.92
					C264.71,196.96,268.26,200.51,268.26,204.88z"/>
				<path fill="#7D885B" d="M174.07,202.2c-0.97,4.36-4.85,7.6-9.48,7.6c-5.38,0-9.74-4.36-9.74-9.74c0-1.4,0.31-2.75,0.85-3.95
					c1.32,0.36,2.78,0.79,4.25,1.25c3.44,1.07,7.09,2.32,9.97,3.37C171.62,201.3,173.07,201.84,174.07,202.2z"/>
				<path fill="#313D23" d="M169.92,200.72c-0.33,2.68-2.6,4.71-5.33,4.71c-2.99,0-5.38-2.4-5.38-5.38c0-0.99,0.28-1.91,0.74-2.71
					C163.39,198.42,167.03,199.67,169.92,200.72z"/>
				<path fill="#DE553F" d="M171.58,239.15c0,0-15.41-3.93-14.56,8.96c0.84,12.89,14.56,26.06,14.56,26.06V239.15z"/>
				<path fill="#534030" d="M309.44,194.6c-3.36,2.53-81.53,15.12-90.79,14.28c-9.25-0.81-9.74-17.43-5.88-19.32
					c0.97-0.49,1.94-0.92,2.9-1.35c-0.46,5.56,1.79,13.43,8.08,13.99c7.52,0.69,60.72-7.54,82.07-11.98
					C308.83,192.35,310.13,194.07,309.44,194.6z"/>
				<path fill="#785D48" d="M305.82,190.22c-21.34,4.43-74.55,12.67-82.07,11.98c-6.3-0.56-8.54-8.44-8.08-13.99
					C259.58,168.19,294.61,182.19,305.82,190.22z"/>
				<path fill="#534030" d="M182.82,205.64c-2.35,2.73-6.5,2.78-9.61,0.18c-16.19-13.54-30.03-12.11-37.96-14.76
					c-8.6-2.88-4.47-9.23-4.47-9.23c4.59-2.37,9.36-3.59,14.05-4.01c-2.16,0.66-4.31,1.5-6.4,2.58c0,0-4.13,6.34,4.46,9.23
					c7.93,2.65,21.77,1.22,37.97,14.76C181.47,204.9,182.13,205.31,182.82,205.64z"/>
				<path fill="#785D48" d="M183.91,203.88c-0.28,0.66-0.66,1.25-1.09,1.76c-0.69-0.33-1.35-0.74-1.96-1.25
					c-16.19-13.54-30.03-12.11-37.97-14.76c-8.59-2.88-4.46-9.23-4.46-9.23c2.09-1.08,4.24-1.92,6.4-2.58
					c18.92-1.63,36.74,10.3,39.16,17.09C184.91,197.43,184.68,202.18,183.91,203.88z"/>
				<path fill="#F26B42" d="M189.24,191.24c0,0-25.63,31.52-23.12,81.11c0,0,11.35,18.92,27.32,7.98
					c15.97-10.93,18.91-11.35,31.94-10.51c13.03,0.84,22.7-21.43,12.19-21.85c-10.51-0.42-20.59,1.68-30.26,2.1
					C197.64,250.5,187.14,203,189.24,191.24z"/>
				<path fill="#785D48" d="M308.7,388.74c-12.94,17.3-48.47,28.41-65.64,31.1c-3.07,0.49-5.57,0.72-7.24,0.64
					c-0.64-0.04-4.85,0.15-4.85,0.15s-21.04-1.59-39.67-2.99c-12.74-0.98-24.34-1.86-27.26-2.12c-7.24-0.61-25.52-33.75-24.23-45.24
					c1.29-11.45,1.29-23.59,1.29-23.59s19.95,43.15,26.96,51.42c7.02,8.31,19.57-6.79,13.8-21.47c-5.73-14.64,12.13-9.55,12.13-9.55
					s3.49,35.91,38.04,38.14c0.03,0,0.03,0,0.07,0c1.44,0.08,2.96,0.12,4.55,0.08c0.23,0.04,0.45,0,0.68,0
					c39.52-1.25,76.48-64.99,72.66-94.3C309.99,311.01,324.02,368.38,308.7,388.74z"/>
				<path fill="#785D48" d="M309.98,311l6.8-2.12c0,0,8.5,44.19-3.19,68.83s-21.67,9.34-21.67,9.34s22.31-35.48,20.39-46.95
					C310.41,328.64,309.98,311,309.98,311z"/>
				<path fill="#C47C61" d="M414.72,373.84c-5.34,31.43-28.1,83.61-105.53,154.79c0.03-0.34,0.07-0.64,0.07-0.95l-42.32,2.16
					c-0.22-4.93-0.56-9.86-1.1-14.75c32.95-2.76,98.97-61.01,130.52-111.67c7.05-11.3,12.4-22.22,15.29-32.08
					C412.64,372.14,413.66,372.97,414.72,373.84z"/>
				<path fill="#C47C61" d="M266.95,529.85l-7.54,0.38c0.57-4.93,0.91-10.05,0.95-15.25c1.67,0.23,3.53,0.26,5.5,0.11
					C266.38,519.98,266.72,524.91,266.95,529.85z"/>
				<path fill="#F26640" d="M549.78,626.16c1.39-7.85,2.81-15.79,4.29-23.89c8.5-46.27-8.95-98.93-34.2-144.89
					c-20.82-16.46-40.88-32.35-59.12-46.91c-10.32-8.19-20.06-15.96-29.05-23.13c-6.03-4.78-11.71-9.33-16.99-13.5
					c-5.34,31.43-28.1,83.61-105.53,154.79c0.03-0.34,0.07-0.64,0.07-0.95l-42.32,2.16l-7.54,0.38c0.57-4.93,0.91-10.05,0.95-15.25
					c-3.64-0.49-6.67-1.97-8.98-4.48c-21.58-23.43-27.11-43.49-26.7-60.9c0.04-0.07,0.04-0.15,0.04-0.23
					c0.19-9.51,2.2-18.2,4.32-26.2c1.02-3.87-20.28,8.49-21.01,10.2c-6.37,14.37-14.9,28.18-24.65,41.37
					c-36.4,49.44-89.15,90.29-104.13,121.19c-3.2,6.61-7.7,17.23-13.03,30.22H549.78z"/>
				<path fill="#D65E3C" d="M431.71,387.34c24.95,19.91,55.63,44.32,88.17,70.04c21.96,17.37,44.75,35.34,67.16,52.94
					c42.88,33.63,108.98,77.2,101.22,115.84h51.53c4.84-34.13,0.24-70.73-37.79-99.73c-49.41-37.65-166.34-77.21-206.5-108.34
					c-41.91-60.48-89-97.64-82.25-68.86c1.48,6.33,0.79,13.84-1.59,22.11C417.79,376.27,424.5,381.62,431.71,387.34z"/>
				<path fill="#F26640" d="M519.98,604.85c-9.8,5.4-18.56,12.94-26.8,21.31h195.06c7.76-38.64-58.34-82.22-101.22-115.84
					c-22.41-17.6-45.2-35.57-67.16-52.94c-32.54-25.71-63.21-50.13-88.17-70.04l77.63,195.21L519.98,604.85z"/>
				<path fill="#E7403C" d="M474.86,484.72c-24.12-31.36-153.69,37.77-165.71,44.25c-0.45,0.27-0.72,0.42-0.83,0.49
					c0.3-0.3,0.6-0.56,0.87-0.83c77.43-71.17,100.18-123.35,105.53-154.79c3.99-23.17-1.48-35.12-1.48-35.12
					c12.75,5.35,32.69,38.79,47.51,71.74c8.87,19.72,15.88,39.29,18.35,52.44C485.79,497.99,474.86,484.72,474.86,484.72z"/>
				<path fill="#F1ECC9" d="M274.43,626.16c22.92-80.69-15.03-95.93-15.03-95.93h-0.04c0,0,0,0.15-0.03,0.45
					c-0.04,0.34-0.08,0.68-0.12,1.02c-0.04,0.41-0.11,0.83-0.15,1.25c-1.13,10.11-5.61,47.43-14.47,93.21H274.43z"/>
				<path fill="#E7403C" d="M260.35,514.98c-0.03,5.19-0.37,10.32-0.95,15.25c0,0.15-0.04,0.3-0.07,0.45
					c-0.04,0.34-0.08,0.68-0.12,1.02c-0.04,0.41-0.11,0.83-0.15,1.25c-0.22,1.64-0.49,3.26-0.79,4.86c0,0-22.45-55.14-74.89-63.06
					c-1.02-0.19-2.04-0.34-3.11-0.45c-25.1-2.85-42.24-0.95-42.24-0.95s18.54-35.98,53.27-55.7c18.62,1.41,39.67,2.99,39.67,2.99
					s4.21-0.19,4.85-0.15c1.67,0.08,4.17-0.15,7.24-0.64C250.45,440.5,260.88,479.64,260.35,514.98z"/>
				<path fill="#E3C1A4" d="M274.43,626.16h4.83c15.81-36.51,28.2-72.08,29.89-97.19c0.04-0.11,0.04-0.23,0.04-0.34
					c0.03-0.34,0.07-0.64,0.07-0.95l-42.32,2.16l-7.54,0.38C259.4,530.23,297.35,545.47,274.43,626.16z"/>
			</g>
		</g>
	</g>
</g>
</svg>
