<?xml version="1.0" encoding="utf-8"?>
<!-- Generator: Adobe Illustrator 25.2.3, SVG Export Plug-In . SVG Version: 6.00 Build 0)  -->
<svg version="1.1" id="Layer_1" xmlns="http://www.w3.org/2000/svg" xmlns:xlink="http://www.w3.org/1999/xlink" x="0px" y="0px"
	 viewBox="0 0 576 576" enable-background="new 0 0 576 576" xml:space="preserve">
<g>
	<g>
		<defs>
			<circle id="SVGID_1_" cx="288.28" cy="287.77" r="287.77"/>
		</defs>
		<use xlink:href="#SVGID_1_"  overflow="visible" fill="#F9E3D9"/>
		<clipPath id="SVGID_2_">
			<use xlink:href="#SVGID_1_"  overflow="visible"/>
		</clipPath>
		<g clip-path="url(#SVGID_2_)">
			<path fill="#F6B185" d="M177.19,742.07c0.04-0.12,0.08-0.22,0.12-0.33c72.08-200.39-74.09-73.46-74.09-73.46
				s-17.37,33.19-37.91,73.8H177.19z"/>
			<path fill="#CF382B" d="M234.28,742.07c46.59-68.48,103.27-194.6,93.34-263.14c0,0-20.8-1.79-50.38,5.31
				c-3.05,25.47-12.77,55.66-31.86,91.4C178.55,700.62,119.23,713.25,81.55,703.54c9.97,9.91,24.74,24.31,40.37,38.52H234.28z"/>
			<path fill="#F0493C" d="M277.24,484.23c-3.05,25.47,1.46,57.65-17.63,93.39C192.78,702.61,119.23,713.25,81.55,703.54h-0.03
				c-7.81-7.82-12.68-12.83-12.68-12.83s21.34-44.84,88.97-129.31C196.85,512.65,242.93,492.49,277.24,484.23z"/>
			<path fill="#AD5926" d="M347.18,438.75c1.28-0.32,27.9-25.11,48.79-13.92l-2.13,24.94L347.18,438.75z"/>
			<path fill="#F0A67E" d="M384.66,474.87c0,0-96.37,33.36-109.79,37.8c-0.53,0.18-1.11,0.22-1.68,0.13
				c27.27-10.26,90.78-35.35,90.78-35.35s1.73-115.69,2.8-128.97l12.3-5.33c-0.57,2.71,0.76,34.02,2.22,65.42
				c-0.58-0.18-0.93-0.27-0.93-0.27l-1.12,9.99c0.89,0.36,1.78,0.71,2.58,1.12C383.24,448.53,384.66,474.87,384.66,474.87z"/>
			<path fill="#F7AA6B" d="M366.74,348.47c-1.02,13.29-2.8,128.96-2.8,128.96s-58.86,34.57-86.11,44.87
				c-12.75-2.82-33.31-99.93-33.31-99.93L366.74,348.47z"/>
			<g>
				<path fill="#FFFFFF" d="M275.6,365.86c-10.49,8.79-26.93,16.09-44.45-1.1C251.87,366.74,266.18,366.59,275.6,365.86z"/>
				<path fill="#FFFFFF" d="M287.23,353.14c0,0-0.95,1.43-2.63,3.55c-0.78,0.15-1.56,0.29-2.38,0.48
					c-24.1,5.2-46.17,1.32-59.21-2.28c-1.15-1.57-2.22-3.26-3.33-5.06L287.23,353.14z"/>
				<path fill="#FFFFFF" d="M284.6,356.69c-0.61,0.74-1.32,1.58-2.09,2.46c-1.85,2.09-4.15,4.47-6.91,6.71
					c-9.42,0.73-23.73,0.87-44.45-1.1c-1.19-1.21-2.47-2.57-3.7-4.03c-1.48-1.72-2.96-3.67-4.44-5.83
					c13.04,3.59,35.11,7.48,59.21,2.28C283.04,356.99,283.82,356.84,284.6,356.69z"/>
			</g>
			<path fill="#FFFFFF" d="M286.16,218.55l49.67-1.84c0,0-3.16,22.34-31.28,17.61C304.56,234.32,288,225.65,286.16,218.55z"/>
			<path fill="#66292E" d="M235.82,224.18c0,5.17-3.29,9.36-7.34,9.36c-4.06,0-7.34-4.19-7.34-9.36c0-5.17,3.29-9.36,7.34-9.36
				C232.53,214.82,235.82,219.01,235.82,224.18z"/>
			<path fill="#66292E" d="M320.18,226.28c0,5.17-3.29,9.36-7.34,9.36c-4.06,0-7.34-4.2-7.34-9.36c0-5.17,3.29-9.36,7.34-9.36
				C316.89,216.92,320.18,221.11,320.18,226.28z"/>
			<linearGradient id="SVGID_3_" gradientUnits="userSpaceOnUse" x1="310.2509" y1="200.0547" x2="311.0382" y2="218.1617">
				<stop  offset="0.1276" style="stop-color:#D98057"/>
				<stop  offset="1" style="stop-color:#FAAA73"/>
			</linearGradient>
			<path fill="url(#SVGID_3_)" d="M286.16,218.55c0,0-1.05-23.39,24.96-18.92c26.02,4.47,24.71,17.08,24.71,17.08
				S293.41,217.75,286.16,218.55z"/>
			<path fill="#964627" d="M349.24,213.45c0,0-7.02-27.62-63.57-16.44l-5.48-6.14v17.75C280.18,208.63,325.56,195.92,349.24,213.45z
				"/>
			<polygon fill="#1D1D1B" points="281.53,215.34 286.16,218.55 335.84,216.72 335.73,215.14 			"/>
			<path fill="#F9BF8F" d="M391.46,125.17c0,0-127.13-71.62-153.97-29.61c0,0-9.22,8.77-17.63,25.51
				c-7.11,14.18-13.65,34.05-13.38,59.15c0.04,5.15-0.05,10.16-0.36,14.99c0,0.99-0.05,1.97-0.14,2.92
				c-0.13,2.86-0.36,5.59-0.58,8.32c-0.22,2.64-0.5,5.24-0.81,7.74c-0.04,0.31-0.08,0.63-0.08,0.94
				c-1.25,10.2-2.87,19.51-4.43,27.92c-3.93,20.85-7.65,36.24-4.52,46.31c1.57,5.06,2.82,9.98,3.76,14.63
				c4.74,23.31,2.6,40.76,2.6,40.76l9.83,65.26c5.76,20.63,25.66,34.02,46.94,31.54c27.72-3.22,59.63-8.83,61.93-10
				c15.98-8.09,48-67.93,62.94-91.82c4.08-6.52,6.69-13.89,8.56-21.35c2.75-11.01,0.48-18.66,1.53-29.61
				c0.8-8.86,1.79-18.83,2.73-28.99v-0.13c0.22-2.11,0.4-4.25,0.63-6.36c0.05-0.44,0.09-0.85,0.14-1.3
				c0.08-1.02,0.18-2.05,0.27-3.08c0,0,0-0.05,0.05-0.09c0.71-7.79,1.43-15.48,2.15-22.77c0.09-1.39,0.22-2.78,0.36-4.12
				c2.05-21.93,3.63-38.89,3.63-39.64C403.58,180.67,391.46,125.17,391.46,125.17z"/>
			<path fill="#D65D54" d="M306.86,331.23c-1.62,1.34,8.18-0.59,9.32,6.69c1.13,7.28,0.34,9.63,0.34,9.63s4.9-12.39,2.65-14.8
				C316.91,330.34,308.21,330.12,306.86,331.23z"/>
			<g>
				<path fill="#894634" d="M305.55,349.04c-1.37,4.92-3.1,10.96-4.79,16.77c-10.88,2.65-28.16,9.84-33.94,29.16
					c-2.53-0.07-5.25-0.3-8.18-0.74c0,0-11.18-16.34-22.13-27.74C251.31,366.94,283.2,366.06,305.55,349.04z"/>
				<path fill="#FFFFFF" d="M308.47,338.67c0,0-1.2,4.32-2.93,10.36v0.01c-22.35,17.02-54.23,17.9-69.05,17.45
					c-5.2-5.43-10.36-9.73-14.22-10.62C222.27,355.88,291.56,354.35,308.47,338.67z"/>
				<path fill="#DF3326" d="M300.75,365.81c-3.03,10.4-5.95,19.99-6.62,20.81c-1.32,1.6-9.38,8.93-27.32,8.35
					C272.59,375.65,289.87,368.46,300.75,365.81z"/>
			</g>
			<path fill="#D65D54" d="M297.21,344.78c-13.71,5.83-40.22,14.84-66.22,12.08c-1.19-0.19-2.54-0.25-3.72-0.57
				c-3.44-0.42-6.71-0.97-10.11-2.06c0,0-1.09-10.11,1.86-9.18l1.62,5.98c0,0,2.82,0.52,7.75,1.15c0.75,0.03,1.64,0.21,2.69,0.25
				C245.61,353.62,272.77,354.29,297.21,344.78z"/>
			<path fill="#B76D3A" d="M301.52,116.29c-3.48-1.45-50.11,57.25-106.59,27.76c-56.47-29.5-41.4-113.02,14.23-99.54
				s10.96,48.04,10.96,48.04s-27.81-87.66,15.17-59.85c42.99,27.81,40.46,46.36,40.46,46.36l-29.5-18.55c0,0-8.43-58.16,43.82-26.97
				c52.26,31.19,127.49,95.14,125.81,102.73c-1.69,7.59-9.5,65.85-1.06,91.98c8.43,26.13-47.79,37.37-47.79,37.37
				s-6.01-80.46,8.32-106.59C375.36,159.04,348.25,135.83,301.52,116.29z"/>
			<path fill="#964627" d="M277.65,171.43c0,0-3.27,28.52,6.11,31.65c9.36,3.12,40.94-2.4,63.84,11.65l9.15-18.23
				C356.75,196.51,298.48,162.58,277.65,171.43z"/>
			<path fill="#964627" d="M197.53,201.41c1-1.2,31.82-20.2,40.15-12.4c8.33,7.81,3.99,21.45,3.99,21.45s-32.55,12.28-36.19,10.2
				C201.84,218.57,192.32,207.66,197.53,201.41z"/>
			<g>
				<path fill="#F0A67E" d="M390.74,294.43c-1.92-2.82-3.39-5.81-4.51-8.86c0.25,0.58,0.66,1.12,1.02,1.7
					c14.22,21.34,42.14-35.8,35.56-58.58c-1.06-3.62-2.73-5.95-4.86-7.2c5.11-0.14,9.36,2.33,11.39,9.35
					C436.47,255.54,406.17,317.56,390.74,294.43z"/>
				<path fill="#F9BF8F" d="M387.25,287.27c-0.36-0.59-0.76-1.12-1.02-1.7c-4.1-10.79-3.89-22.46-2.68-31.54
					c1.47-10.96,8.35-20.86,18.77-26.98c5.11-3.05,10.73-5.47,15.63-5.55c2.13,1.25,3.8,3.58,4.86,7.2
					C429.39,251.47,401.47,308.62,387.25,287.27z"/>
				<path fill="#E68C63" d="M411.96,236.59c-12.93-3.89-16.94,25.57-16.94,25.57c1.81-6.57,3.89-11.33,5.9-14.78
					c-0.45,5.92-0.29,18.89,9.25,22.29c0,0-8.9-5.45-5.93-25.54c0.18-1.25,0.82-2.45,1.81-3.36c0.12-0.11,0.25-0.22,0.37-0.33
					c1.48-1.28,3.56-1.93,5.6-1.65c10.43,1.43,8.41,11.7,8.41,11.7S424.89,240.48,411.96,236.59z"/>
			</g>
			<path fill="#EDEEEE" d="M275.89,243.55l57.04-0.98c0,0,3.83,31.34-27.54,33.02C274.01,277.27,275.89,243.55,275.89,243.55z"/>
			<path fill="#EDEEEE" d="M199.15,245.23h44.93c0,0,3.03,25.96-22.86,27.35C195.35,273.96,199.15,245.23,199.15,245.23z"/>
			<g>
				<g>
					<circle fill="#894634" cx="215.33" cy="249.5" r="14.78"/>
					<path fill="#704338" d="M220.92,250.74c0,3.44-2.78,6.21-6.21,6.21c-3.44,0-6.21-2.78-6.21-6.21c0-3.43,2.78-6.21,6.21-6.21
						C218.13,244.53,220.92,247.31,220.92,250.74z"/>
				</g>
				<g>
					<circle fill="#894634" cx="295.12" cy="250.5" r="14.78"/>
					<path fill="#704338" d="M300.71,251.74c0,3.43-2.78,6.21-6.21,6.21c-3.43,0-6.21-2.78-6.21-6.21s2.78-6.21,6.21-6.21
						C297.93,245.53,300.71,248.31,300.71,251.74z"/>
				</g>
				<path opacity="0.7" fill="#EDEEEE" d="M232.39,254.34c0,2.84-2.31,5.15-5.15,5.15c-2.84,0-5.15-2.3-5.15-5.15
					s2.31-5.15,5.15-5.15C230.09,249.2,232.39,251.5,232.39,254.34z"/>
				<circle opacity="0.7" fill="#EDEEEE" cx="307.32" cy="254.57" r="5.15"/>
			</g>
			<path fill="#E88B6A" d="M199.15,245.23h44.93c0,0-2.74-18.18-21.78-18.46C202.38,226.48,199.15,245.23,199.15,245.23z"/>
			<path fill="#E88B6A" d="M333.31,243.75h-57.53c0,0,3.45-20.52,27.83-20.8C329.13,222.65,333.31,243.75,333.31,243.75z"/>
			<path fill="#D25E54" d="M277.5,307.27c8.63,2.67-2.25,19.28-7.13,14.36c-4.88-4.92-10.7-2.26-10.7-2.26
				c-17.84,7.39-29.85,0.21-31.36-7.58c-0.55-2.9,0.13-6.35,1.2-9.54c2.87-5.78,14.34-29.05,16.11-35.6l-17.4,36.78l0.09,0.01
				c-0.12,0.26-0.25,0.5-0.38,0.76c-3.57,7.18-0.75,14.36,7.88,18.66c8.63,4.31,25.72-1.23,27.6-2.46c1.88-1.23,6.38,2.87,9.01,3.69
				c2.63,0.82,10.32-2.87,9.95-11.48C282,303.99,277.5,307.27,277.5,307.27z"/>
			<path fill="#F0493C" d="M468.61,742.07c0.76-55.45-6.09-97.27-6.09-97.27l27.4-24.87c-36.51-62.85-101.4-137.73-105.88-138.71
				c-6.18-1.38-109.72,41.16-109.72,41.16L156.63,689.76c0,0,4.08,21.84,9.33,52.31H468.61z"/>
			<path fill="#CF382B" d="M468.61,742.07h40.01c3.78-24.83,6.09-45.77,5.73-59.52c-0.4-15.72-10.3-38.29-24.43-62.62l-27.4,24.87
				C462.52,644.79,469.37,686.61,468.61,742.07z"/>
			<path fill="#F89B59" d="M548.38,742.07h128.58c-27.55-45.4-67.33-101.38-111.41-143.18c-154.49-146.6-67.95,76.39-67.95,76.39
				S519.63,708.29,548.38,742.07z"/>
			<path fill="#DF1E2E" d="M291.51,501.15c0,0,21.76,21.8,14.09,44.83l83.64-41.64c0,0-70.09-16.44-89.17-5.57
				C298.8,499.49,292.35,500.41,291.51,501.15z"/>
			<path fill="#EE6E2C" d="M264.65,488.36l2.09,49.1c0,0-4.01-56.67-38.86-12.85C227.87,524.61,249.62,485.37,264.65,488.36z"/>
			<path fill="#EE6E2C" d="M253.56,455.11c0.85,2.56-2.56,7.68,11.09,33.25c0,0-36.67,27.29-38.37,52.02c0,0-3.5-23.26,5.86-53.94
				C235.9,474.09,243.54,463.25,253.56,455.11L253.56,455.11z"/>
			<path fill="#E68C63" d="M381.82,419.4c-0.8-0.4-1.69-0.76-2.58-1.12l1.12-9.99c0,0,0.35,0.09,0.93,0.27
				C381.47,412.21,381.64,415.8,381.82,419.4z"/>
			<path fill="#CF382B" d="M620.34,646.53c0,0-9.6,12.49-22.94,28.03c-20.89-29.79-55.84-76.63-100.07-130.46
				c-32.79-39.9-75.83-68.73-102.11-82.02c31.82,2.88,91.55,24.12,142.52,79.51C629.28,640.92,620.34,646.53,620.34,646.53z"/>
			<path fill="#F0493C" d="M597.4,674.56c-18.7,21.58-43.28,54.47-62.59,56.33c-40.1,3.85-178.49-159.8-168.09-260.05
				c0,0,15.61-5.61,40.95-3.11c26.28,13.28,56.87,36.47,89.66,76.38C541.56,597.93,576.51,644.77,597.4,674.56z"/>
			<path fill="#EE6E2C" d="M291.51,501.15c0,0,37.09-11.08,39.65,43.92c0,0,82.72-63.53,82.72-79.31
				c0-15.78-17.91-40.93-17.91-40.93S393.2,459.69,291.51,501.15z"/>
		</g>
	</g>
</g>
</svg>
