<?xml version="1.0" encoding="utf-8"?>
<!-- Generator: Adobe Illustrator 25.2.3, SVG Export Plug-In . SVG Version: 6.00 Build 0)  -->
<svg version="1.1" id="Layer_1" xmlns="http://www.w3.org/2000/svg" xmlns:xlink="http://www.w3.org/1999/xlink" x="0px" y="0px"
	 viewBox="0 0 576 576" enable-background="new 0 0 576 576" xml:space="preserve">
<g>
	<g>
		<defs>
			<circle id="SVGID_1_" cx="288" cy="288.66" r="288"/>
		</defs>
		<clipPath id="SVGID_2_">
			<use xlink:href="#SVGID_1_"  overflow="visible"/>
		</clipPath>
		<g clip-path="url(#SVGID_2_)">
			<circle fill="#F9E3D9" cx="288" cy="288.66" r="288"/>
			<g>
				<path fill="#D65327" d="M391.77,281.41c0,0,1.06,48.48-17.05,60.2c-18.12,11.72-45.28-5.86-45.28-5.86L391.77,281.41z"/>
				<path fill="#FDFAD5" d="M422.82,682.02c29.61-59.42,90.99-193.11,56.67-216.99c-29.66-20.64-114.36-32.05-114.36-32.05
					s-93.16,8.11-142.11,3.59s-110.39,44.09-110.39,44.09s43.13,134.21,68.68,201.37H422.82z"/>
				<path fill="#D65327" d="M184,109.35c0,0-27.84,39.29-17.44,115.6c10.41,76.31,120.79-68.55,120.79-68.55L184,109.35z"/>
				<path fill="#E9844D" d="M272.44,283.67c19.94,42.71-4.26,169.07-14.06,215.09c-23.57,1.45-42.1,2.6-42.1,2.6
					s67.33-171.66,50.5-227.23c-8.1-26.68,16.07-51.4,43.34-69.9C283.77,226.95,259.91,256.83,272.44,283.67z"/>
				<path fill="#EA9E74" d="M372.8,171.46c0,0-0.98,27.32-2.56,66.06c-3.7,94.06-10.65,255.45-14.23,255.45
					c-3.2,0-57.66,3.32-97.64,5.79c9.8-46.02,34.01-172.38,14.06-215.09c-12.53-26.84,11.33-56.72,37.67-79.44
					c20.03-13.64,41.77-23.86,53.66-29.02C369.39,172.78,372.8,171.46,372.8,171.46z"/>
				<path fill="#F9AE73" d="M181.4,184.38c-0.68,56.42,1.67,192.88,40.15,223.44c-1.41-0.55-2.77-1.2-4.09-1.88
					c-42.75-22.46-45.3-162.49-44.58-219.13c0.26-16.92,4.26-33.59,12.11-48.54c15.59-29.71,33.24-49.05,51.56-60.13
					c-15.26,11.94-29.88,30.26-43.04,56.13C185.67,149.69,181.66,166.91,181.4,184.38z"/>
				<path fill="#F9BF8F" d="M398.97,224.61c-1.71,121.71-121.67,205.46-177.42,183.21c-38.48-30.56-40.82-167.02-40.15-223.44
					c0.26-17.47,4.26-34.69,12.11-50.12c13.17-25.87,27.78-44.19,43.04-56.13C312.67,31.98,400.29,128.76,398.97,224.61z"/>
				<path fill="#D65327" d="M332.98,119.77c0,0-38.5,33.54-77.01,21.12c-38.51-12.42-81.99-38.5-85.71-17.39
					c-3.73,21.12,2.48,24.84,2.48,24.84s-45.96-31.05,19.88-73.29s168.93-29.81,163.96,23.6c0,0,38.51-19.88,48.45,14.91
					s-5.09,149.39-5.09,149.39S369,128.47,332.98,119.77z"/>
				<path fill="#D65327" d="M373.18,62.87c0,0-13.78,21.5-8.79,38.33c5,16.84-11.96-4.51-11.96-4.51S353.03,75.26,373.18,62.87z"/>
				<path fill="#D65327" d="M382.89,79.35c0,0-17.72,12.69-19.09,27.62c-1.37,14.93-8.06-7.36-8.06-7.36S362.99,82.8,382.89,79.35z"
					/>
				<path fill="#EBD6B4" d="M110.59,682.02c23.15-50.05,38.35-86.94,38.35-86.94s-1.79-5.8-4.6-14.79
					c-9.51,23.16-25.2,60.4-44.16,101.72H110.59z"/>
				<path fill="#FDFAD5" d="M100.17,682.02c18.96-41.33,34.65-78.56,44.16-101.72c-10.18-32.35-24.85-106.99-31.71-99.64
					c-7.32,7.85-67.35,72.72-117.89,201.37H100.17z"/>
				<path fill="#FDFAD5" d="M381.32,682.02c42.1-78.44,72.37-217.72,57.15-233.38c-7.18-7.41-115.75-2.04-158.57-3.68
					c-67.51-2.57-44.75-22.9-44.75-22.9s-99.1,11.99-135.57,98.95c-14.43,34.41-19.68,99.23-20.05,161.01H381.32z"/>
				<path fill="#010101" d="M118.03,682.02c15.08-139.89,46.92-232.9,69.81-248.58c0.05-0.05,0.13-0.09,0.17-0.13
					c-7.11,2.56-16.91,7.03-29.57,14.83c-23.13,14.37-57.24,101.59-76.56,233.88H118.03z"/>
				<path fill="#232126" d="M445.45,682.02c0.09-8.45,0.09-16.13,0.01-22.84c-0.13-8.82-0.34-15.98-0.77-21.18
					c-0.47-5.59-2.05-13.09-13.76,5.41l-6.99,11.08l-8.9,14.03c-9.76,12.1-25.1,6.09-28.81-3.2
					c-55.96-140.68,49.57-221.95,49.57-221.95l-34.14-7.72l-19.13-4.35c-28.56,82.81-120.74,172.05-167.1,213.17
					c-16.49,14.62-27.19,23.14-27.19,23.14c-60.35-91.41,13.89-237.76,13.89-237.76c-0.3,0.09-4.9,0.17-14.06,3.45h-0.05
					c-0.04,0.05-0.12,0.09-0.17,0.13c-22.9,15.69-54.74,108.7-69.81,248.58H445.45z"/>
				<path fill="#D5D1A0" d="M366.65,391.96c-6.73,5.61-51.62,44.89-100.99,56.11l48.33,47.5c0,0,59.27-49.06,67.12-69.25
					C388.97,406.12,366.65,391.96,366.65,391.96z"/>
				<path fill="#D5D1A0" d="M265.66,448.07l-40.4,37.03c0,0-28.06-57.23,22.44-76.31C247.7,408.8,249.95,434.6,265.66,448.07z"/>
				<g>
					<path fill="#535252" d="M335.41,502.41c0.07-0.2,0.14-0.39,0.22-0.58c8.97-23.98,11.47-50.34,7.16-75.58
						c-0.03-0.2-0.07-0.4-0.11-0.61c0,0-21.11,0.66-67.74,17.59l-1.38,14.56l-1.38,14.56C314.8,497.77,335.41,502.41,335.41,502.41z
						"/>
					<path fill="#535252" d="M204.45,489.93c-0.03-0.21-0.07-0.41-0.11-0.62c-4.31-25.23-1.81-51.6,7.16-75.58
						c0.07-0.19,0.14-0.38,0.22-0.58c0,0,20.6,4.64,63.22,30.07l-1.38,14.56l-1.38,14.56C225.56,489.27,204.45,489.93,204.45,489.93
						z"/>
					<path fill="#2A2928" d="M310.06,479.88c-8.24-6.41-18.27-9.74-28.36-9.44c-0.18-2.53-0.35-5.06-0.53-7.59
						c-0.22,0.11,6.9-1.39,14.29,1.32C302.81,466.48,310.42,472.98,310.06,479.88z"/>
					<path fill="#2A2928" d="M233.58,472.59c9.29-4.74,19.77-6.12,29.62-3.91c0.65-2.46,1.3-4.9,1.94-7.36
						c0.2,0.15-6.51-2.66-14.28-1.4C243.22,460.8,234.52,465.75,233.58,472.59z"/>
					<path fill="#2A2928" d="M313.17,446.98c-9.29,4.73-19.76,6.12-29.62,3.91c-0.65,2.45-1.29,4.9-1.94,7.36
						c-0.2-0.16,6.51,2.66,14.28,1.4C303.54,458.77,312.23,453.82,313.17,446.98z"/>
					<path fill="#2A2928" d="M236.69,439.69c8.24,6.41,18.27,9.74,28.36,9.43c0.18,2.53,0.35,5.06,0.53,7.6
						c0.22-0.11-6.9,1.39-14.29-1.32C243.95,453.09,236.34,446.59,236.69,439.69z"/>
					<path fill="#5E5F5F" d="M272.68,433.43c1.05-0.19,2.13-0.24,3.2-0.13c9.28,0.88,15.77,12.56,14.49,26.09
						c-1.28,13.53-9.84,23.77-19.12,22.88c-1.08-0.11-2.13-0.35-3.13-0.74c7.97-1.41,14.8-10.8,15.93-22.75
						C285.19,446.83,280.25,436.32,272.68,433.43z"/>
					<path fill="#383938" d="M256.76,456.18c1.13-11.95,7.94-21.33,15.92-22.75c7.56,2.89,12.51,13.4,11.37,25.35
						c-1.13,11.95-7.96,21.35-15.93,22.75C260.55,478.63,255.63,468.13,256.76,456.18z"/>
				</g>
				<path fill="#422F28" d="M258.62,519.95c-3.2,9.08-11.06,14.6-17.54,12.32c-6.49-2.29-9.16-11.5-5.96-20.59
					c3.2-9.09,11.05-14.6,17.54-12.32C259.15,501.64,261.82,510.86,258.62,519.95z"/>
				<path fill="#422F28" d="M225.06,609.44c-3.2,9.09-11.05,14.6-17.54,12.32c-6.49-2.29-9.17-11.5-5.96-20.59
					c3.2-9.09,11.05-14.6,17.54-12.32C225.59,591.13,228.25,600.35,225.06,609.44z"/>
				<path fill="#F29269" d="M216.29,371.86c0,0,12.81,14.08,49.67,6.26C265.96,378.13,236.05,397.79,216.29,371.86z"/>
				<path fill="#F2F3F3" d="M266.4,220.51l51.85-0.89c0,0,3.48,28.48-25.04,30.01C264.7,251.16,266.4,220.51,266.4,220.51z"/>
				<path fill="#F2F3F3" d="M184.54,220.69h40.84c0,0,2.76,23.6-20.78,24.86S184.54,220.69,184.54,220.69z"/>
				<path fill="#ED906C" d="M245.22,235.04c-0.37-3.34-8.21-4.75-9.32-2.07c-13.89,33.62-25.14,56.02-20.71,62.54
					c9.84,14.49,18.79,0.31,39.88,2.99c9.3,1.18,12.97-6.96,9.91-16.68c-3.05-9.72-10.34-6.22-16.47-10.1
					C244.46,269.14,246.89,250.3,245.22,235.04z"/>
				<g>
					<circle fill="#8E4634" cx="206.99" cy="230.92" r="13.44"/>
					<path fill="#704338" d="M212.06,232.05c0,3.13-2.53,5.65-5.65,5.65s-5.65-2.53-5.65-5.65c0-3.12,2.53-5.65,5.65-5.65
						S212.06,228.93,212.06,232.05z"/>
				</g>
				<g>
					<path fill="#8E4634" d="M305.75,231.63c0,7.43-6.02,13.44-13.44,13.44s-13.44-6.01-13.44-13.44c0-7.42,6.02-13.43,13.44-13.43
						S305.75,224.21,305.75,231.63z"/>
					<path fill="#704338" d="M297.38,232.76c0,3.12-2.53,5.65-5.65,5.65c-3.12,0-5.65-2.53-5.65-5.65c0-3.13,2.53-5.65,5.65-5.65
						C294.86,227.11,297.38,229.64,297.38,232.76z"/>
				</g>
				<path opacity="0.7" fill="#F2F3F3" d="M199.42,235.46c0,2.58-2.09,4.68-4.68,4.68c-2.59,0-4.68-2.09-4.68-4.68
					c0-2.59,2.09-4.68,4.68-4.68C197.32,230.78,199.42,232.87,199.42,235.46z"/>
				<path opacity="0.7" fill="#F2F3F3" d="M285.5,236.7c0,2.58-2.09,4.68-4.68,4.68c-2.58,0-4.68-2.09-4.68-4.68
					c0-2.59,2.09-4.68,4.68-4.68C283.4,232.02,285.5,234.12,285.5,236.7z"/>
				<path fill="#D65327" d="M352.01,282.23c0,0,19.02-133.16-19.04-162.45c0,0,54.16,7.3,59.29,27.79s-16.1,128.07-17.56,131
					S352.01,282.23,352.01,282.23z"/>
				<g>
					<g>
						<path fill="#F9BF8F" d="M379.61,219.65c0,0,10.8-27.79,33.93-11.3c26.17,18.65,1.02,76.33-20.87,81.43
							c-21.89,5.1-12.99-19.2-12.99-19.2L379.61,219.65z"/>
					</g>
					<path fill="#EC7260" d="M396.65,267.57c0,0,24.82-20.46,15.23-38.3c-9.59-17.84-26.62,3.33-27.01,9.78
						C384.88,239.04,404,234.05,396.65,267.57z"/>
				</g>
				<path fill="#ED906C" d="M184.54,220.69h40.84c0,0-2.48-16.53-19.8-16.78C187.47,203.64,184.54,220.69,184.54,220.69z"/>
				<path fill="#ED906C" d="M318.61,220.69h-52.29c0,0,3.14-18.66,25.31-18.91C314.8,201.51,318.61,220.69,318.61,220.69z"/>
				<path fill="#D65327" d="M312.41,198.75c0,0,11.96,9.62,14.5,4.69s0.99-17.14-17.07-19.68c-18.05-2.54-45.25,0.07-46,6.07
					c-0.76,6-0.49,10.29,5.86,9.85C276.05,199.23,292.31,189.57,312.41,198.75z"/>
				<path fill="#D65327" d="M185.87,198.65c0,0-11.57,9.63-14.02,4.69c-2.45-4.93-0.95-17.14,16.5-19.69
					c17.46-2.54,43.76,0.07,44.49,6.07c0.73,6,0.47,10.29-5.67,9.85C221.02,199.14,205.31,189.47,185.87,198.65z"/>
				<g>
					<path fill="#813823" d="M285.51,328.78c1.25,8.84-12.09,34.73-41.5,31.03c-29.19-3.86-31.28-32.15-31.28-32.15h4.38l64.44,1.12
						H285.51z"/>
					<path fill="#FFFFFF" d="M281.55,328.78c0,4.66-1.67,9-5.63,10.93c-10.43,4.83-48.59,1.45-54.01-1.44
						c-3.34-1.77-4.38-6.91-4.79-10.61L281.55,328.78z"/>
				</g>
				<path fill="#EBD6B4" d="M477.24,682.02c-15.48-50.63-26.54-97.16-23.42-118.73c6.61-45.43,17.98-58.6,32.86-84.72
					c-7.16-10.78-15.34,10.27-15.34,10.27c-18.63,39.21-29.88,25.48-37.89,66.82c-0.68,3.54-1.37,7.5-2,11.93
					c-3.05,20.95,7.31,65.48,22.11,114.43H477.24z"/>
				<path fill="#FDFAD5" d="M469.84,682.02h108.8c-12.46-36.4-25.86-70.29-37.41-101c-35.84-95.42-58.73-113.23-58.9-113.49
					c-14.87,26.13-42.4,26.97-49.01,72.45c-0.6,4.18-0.55,9.46,0.13,15.68C436.4,584.14,451.58,632.03,469.84,682.02z"/>
			</g>
		</g>
	</g>
</g>
</svg>
