<?xml version="1.0" encoding="utf-8"?>
<!-- Generator: Adobe Illustrator 25.2.3, SVG Export Plug-In . SVG Version: 6.00 Build 0)  -->
<svg version="1.1" id="Layer_1" xmlns="http://www.w3.org/2000/svg" xmlns:xlink="http://www.w3.org/1999/xlink" x="0px" y="0px"
	 viewBox="0 0 576 576" enable-background="new 0 0 576 576" xml:space="preserve">
<g>
	<g>
		<defs>
			<path id="SVGID_1_" d="M576,288c0,159.06-128.94,288-288,288S0,447.06,0,288S128.94,0,288,0S576,128.94,576,288z"/>
		</defs>
		<use xlink:href="#SVGID_1_"  overflow="visible" fill="#F9E3D9"/>
		<clipPath id="SVGID_2_">
			<use xlink:href="#SVGID_1_"  overflow="visible"/>
		</clipPath>
		<g clip-path="url(#SVGID_2_)">
			<path fill="#A62D32" d="M272.87,90.98c0,0,14.83-74.41,55.83-71.51c41,2.9,116.85,87.19,131.15,210.25
				c14.72,126.59-49.54,208.17-49.54,226.2c0,0-77.96-126.21-61.75-195.06C364.79,192.02,272.87,90.98,272.87,90.98z"/>
			<path fill="#F8A184" d="M192.87,721.32c3.51-17.41,6.47-35.67,8.49-54.52c0,0,0,0,0-0.05c3.19-29.6,4.03-60.48,1.08-91.07
				c-2.01-20.7-5.76-41.25-11.7-61.22c-1.23-4.13-3-8.02-5.41-9.44c-0.25-0.15-0.49-0.29-0.74-0.39c-2.85-1.09-6.78-1.72-11.36-0.55
				c-0.05,0-0.1,0.05-0.1,0.05c-0.64,0.15-1.28,0.39-1.96,0.64c-4.92,1.82-10.43,5.86-15.99,13.52c-0.29,0.29-0.59,0.64-0.79,0.98
				c-4.37,6.25-8.8,14.75-13.03,26.26c-0.19,0.49-0.39,1.03-0.59,1.57c-7.86,21.88-15.1,59.55-21.29,100.95
				c-0.19,1.38-0.4,2.76-0.64,4.19c-0.45,3.19-0.94,6.44-1.38,9.74c-2.56,18.02-4.91,38.4-7.06,59.33H192.87z"/>
			<path fill="#F8A184" d="M273.63,532.37L273.63,532.37c15.61,0,28.27-12.65,28.27-28.27v-90.56h-56.55v90.56
				C245.35,519.71,258.01,532.37,273.63,532.37z"/>
			<path fill="#F8A184" d="M118.34,644.15c-0.05,0.79,0.34,2.16,1.13,3.94c0.64,1.48,1.52,3.24,2.65,5.21
				c8.41,15.01,28.23,41.85,33.24,44.95c1.65,1.01,3.84,9.88,5.78,23.08h17.22l38.92-22.49l99.8,22.49h46.7
				c1.3-7.43,2.11-16.73,1.52-28.74v-0.14c-0.74-14.06-3.29-31.38-8.95-52.77c1.12-0.44,2.31-0.93,3.49-1.47
				c0.15-0.05,0.24-0.1,0.4-0.15c1.03-0.44,2.11-0.94,3.19-1.48c1.48-0.74,3-1.53,4.52-2.36l1.92-1.03c0.98-0.55,1.96-1.13,3-1.72
				c7.67-4.48,15.93-9.98,24.14-15.88c2.95-13.28,4.37-21.93,4.37-24.14c0,0,8.71-32.11-8.26-60.48c-0.1-0.1-0.19-0.25-0.24-0.4
				c-1.58-2.61-3.39-5.16-5.41-7.72c-0.1-0.1-0.19-0.25-0.29-0.34c-1.23-1.48-2.56-2.95-3.98-4.32c-0.05-0.05-0.1-0.1-0.15-0.16
				c-0.54-0.64-8.55-6-14.41-9.49c-0.88-0.54-1.72-1.08-2.55-1.52c-1.97-1.23-3.69-2.27-4.87-2.95
				c-7.38-4.43-15.49-7.92-24.14-10.48c-3.1-0.94-6.25-1.77-9.44-2.46c-8.27-1.92-16.92-3.15-25.72-3.74
				c-7.87-0.58-30.58-2.55-56.55-0.98c-18.63,1.13-38.99,4.08-56.74,10.63c-4.48,1.67-8.85,3.54-12.94,5.75
				c-0.83,0.44-1.67,0.88-2.46,1.33c-0.05,0-0.1,0.05-0.1,0.05c-0.79,0.44-1.52,0.88-2.26,1.33c-5.95,3.59-11.26,7.82-15.69,12.84
				c-0.29,0.29-0.59,0.64-0.79,0.98c-1.23,1.33-2.31,2.76-3.34,4.23c-0.05,0-0.05,0.05-0.05,0.05c-0.84,1.23-1.67,2.51-2.41,3.79
				c-3.39,5.9-6.64,13.08-9.59,21c-12.34,32.85-20.71,78.04-23.66,93.19v0.05C114.95,643.8,118.49,642.52,118.34,644.15z"/>
			<path fill="#F8A184" d="M456.79,721.32c-10.16-69.93-30.45-145.08-70.06-199.48c-2.79-3.84-7.01-6.63-11.74-7.13
				c-9.25-0.99-22.25,6.13-22.51,53.69c-0.16,29.45,9.37,90.32,20.91,152.92H456.79z"/>
			<g>
				<path fill="#F47A4E" d="M156.77,270.84c-1.73-0.44-20.37-17.35-36.85,2.6c-16.47,19.95,1.3,70.24,14.3,75.45
					c13.01,5.2,23.85,1.3,25.15-2.17S156.77,270.84,156.77,270.84z"/>
				<path fill="#F8A184" d="M189.42,124.86c47.84-43.92,119.09-43.92,166.92,0c46.04,42.26,55.31,107.79,53.83,160.18
					c1.48,47.94-12.8,106.19-58.84,144.86c-47.84,40.18-114.07,41.88-161.91,1.7c-46.04-38.67-55.31-98.62-53.83-146.56
					C134.1,232.65,143.38,167.12,189.42,124.86z"/>
				<path fill="#F47A4E" d="M221.64,319.47h-29.08C192.57,319.47,204.25,345.6,221.64,319.47z"/>
				<path fill="#834A4C" d="M176.53,234.13l-1.14,14.14c0,0-14.23-3.78-34.5,2.73l-0.71-8.97
					C140.19,242.02,161.8,230.78,176.53,234.13z"/>
				<path fill="#834A4C" d="M277.03,234.13l1.13,14.14c0,0,14.23-3.78,34.5,2.73l0.7-8.97
					C313.36,242.02,291.75,230.78,277.03,234.13z"/>
				<path fill="#F47A4E" d="M384.75,288.21c-0.09-9.25,5.45-17.65,14.05-21.06c8.18-3.24,18.48-4.06,27.03,6.29
					c16.47,19.95-1.3,70.24-14.31,75.45c-13,5.2-19.59-0.09-22.37-2.55C384.56,342.27,384.95,308.03,384.75,288.21z"/>
				<g>
					<path fill="#68423E" d="M222.74,408.37c28.71,0.22,48.85-27.16,46.79-33.61c-0.94-3.55-6.48-2.07-14.9,0.27
						c-8.37,2.29-19.59,5.41-31.89,5.18c-14.1,0.27-26.75-3.87-35.37-6.13c-6.45-1.71-10.62-2.39-11.42,0.68
						C173.89,381.21,194.04,408.59,222.74,408.37z"/>
					<path fill="#FFFCFD" d="M187.37,374.09l2.9,17.48c28.82,15.04,63.03-0.64,63.03-0.64l1.32-15.89
						c-8.37,2.29-19.59,5.41-31.89,5.18C208.63,380.49,195.99,376.34,187.37,374.09z"/>
				</g>
			</g>
			<g>
				<path fill="#FCEE25" d="M190.09,587.5c0.58,0.05,1.13,0.05,1.72,0.05c0.74,0,1.43,0,2.22-0.05c3.54-0.05,7.43-0.49,11.75-1.27
					c54.68-10.13,109.91-65.94,131.35-92.65h-0.05c-3.1-0.94-6.25-1.77-9.44-2.46c-18.94,25.57-60.34,72.83-114.04,83.3
					c-4.08,0.79-7.82,1.23-11.16,1.27c-0.73,0.05-1.43,0.05-2.11,0.05c-0.55,0-1.09,0-1.62-0.05
					c-34.03-1.42-24.54-41.16-14.46-67.85c0.05-0.16,0.1-0.3,0.19-0.45c0.3-0.79,0.59-1.57,0.88-2.36c1.09-2.9,2.27-5.56,3.3-8.01
					c-1.57,0.59-3.2,1.23-4.72,1.87c-2.85,6.34-7.08,15.94-7.86,17.95c-0.3,0.79-0.59,1.57-0.94,2.36c-0.1,0.15-0.15,0.3-0.2,0.44
					C164.32,546.34,154.33,586.07,190.09,587.5z"/>
				<path fill="#27A4DC" d="M105.8,647.94c3.59,1.28,7.18,2.51,10.72,3.59c2.16,0.69,4.33,1.38,6.44,2.01
					c4.28,1.33,8.51,2.46,12.69,3.54c2.07,0.54,4.13,1.03,6.25,1.53c8.26,1.96,16.33,3.54,24.2,4.77c1.92,0.29,3.79,0.59,5.65,0.83
					c0.79,0.15,1.53,0.25,2.26,0.3c2.02,0.29,3.98,0.54,5.95,0.69c0.1,0.05,0.15,0.05,0.19,0.05c2.07,0.25,4.08,0.44,6.05,0.59
					c0.39,0.05,0.73,0.1,1.08,0.1c2.07,0.2,4.13,0.34,6.15,0.45c2.11,0.14,4.23,0.29,6.3,0.34c0.54,0.05,1.08,0.05,1.62,0.05
					c0.44,0,0.94,0.05,1.38,0.05c2.8,0.1,5.61,0.15,8.41,0.15c3.49,0,6.99-0.05,10.33-0.19c0.99-0.05,2.01-0.1,2.95-0.15
					c1.23-0.05,2.46-0.1,3.64-0.2c1.87-0.1,3.69-0.25,5.5-0.4c1.77-0.14,3.59-0.29,5.36-0.49c2.12-0.19,4.18-0.44,6.25-0.74
					c2.46-0.29,4.82-0.64,7.18-0.98s4.72-0.74,7.03-1.18c1.33-0.19,2.61-0.44,3.89-0.73c1.96-0.4,3.93-0.79,5.85-1.23
					c2.31-0.49,4.62-1.03,6.93-1.62c1.48-0.34,2.95-0.74,4.37-1.13c1.83-0.44,3.65-0.99,5.41-1.48c2.01-0.59,3.98-1.18,5.95-1.82
					c1.42-0.44,2.85-0.88,4.22-1.38c18.49-6.19,34.08-13.76,46.42-20.9c1.28-0.73,2.56-1.48,3.79-2.21c0.94-0.54,1.82-1.09,2.7-1.68
					c1.43-0.83,2.76-1.72,4.08-2.55c1.13-0.74,2.26-1.48,3.35-2.22c-0.69-2.65-1.38-5.31-2.22-8.06
					c-5.65-19.57-7.47-36.49-6.98-50.95c0.73-21.69,6.73-37.81,13.27-49.07c1.87-3.29,3.79-6.15,5.66-8.6
					c-1.97-1.23-3.69-2.26-4.87-2.95c-6.78-4.08-14.17-7.33-22.03-9.79c-0.69-0.25-1.38-0.44-2.07-0.69
					c-21.44,26.7-76.67,82.52-131.35,92.65c-4.32,0.79-8.21,1.23-11.75,1.27c-0.79,0.05-1.48,0.05-2.22,0.05
					c-0.58,0-1.13,0-1.72-0.05c-35.76-1.42-25.77-41.16-15.2-67.86c0.05-0.14,0.1-0.29,0.2-0.44c0.34-0.79,0.64-1.57,0.94-2.36
					c0.79-2.01,5.01-11.61,7.86-17.95c-2.16,0.88-4.28,1.87-6.34,2.95c-0.64,0.29-1.23,0.59-1.87,0.94
					c-0.83,0.44-1.67,0.88-2.46,1.33c-0.05,0-0.1,0.05-0.1,0.05c-0.64,0.15-1.27,0.39-1.97,0.64c-0.1,0.25-0.19,0.44-0.29,0.69
					c-1.33,2.85-3.15,5.95-5.26,9.24c-4.42,6.69-10.37,14.17-16.92,22.08c-2.36,2.85-4.82,5.8-7.32,8.75
					c-0.79,0.94-1.57,1.87-2.36,2.81c-10.72,12.54-21.88,25.66-30.44,37.96C93.07,608.6,95.28,630.87,105.8,647.94z"/>
				<path fill="#2297C9" d="M121.2,665.13c2.21,1.77,4.47,3.35,6.83,4.77c12.69,7.68,20.95,23.01,26.01,36.49
					c2.15,5.62,3.61,10.68,4.72,14.93h205.58c2.61-13.81,4.43-43.39-7.99-97.65c-36.59,24.64-121.22,65.9-239.83,27.83
					c-3.54-1.08-7.13-2.31-10.72-3.59C109.84,654.61,115.15,660.41,121.2,665.13z"/>
			</g>
			<path fill="#68423E" d="M295.78,267.73c7.55,0,13.68,6.12,13.68,13.68v18.12c0,7.56-6.13,13.69-13.68,13.69l0,0
				c-7.56,0-13.69-6.13-13.69-13.69v-18.12C282.1,273.86,288.22,267.73,295.78,267.73z"/>
			<path fill="#68423E" d="M154.38,267.73c7.56,0,13.69,6.12,13.69,13.68v18.12c0,7.56-6.13,13.69-13.69,13.69
				c-7.56,0-13.69-6.13-13.69-13.69v-18.12C140.69,273.86,146.82,267.73,154.38,267.73z"/>
			<path fill="#FCEE25" d="M345.19,111.76l5.3-19.59c0,0-30.59-25.25-79.97-21.62l-5.45,20.19L345.19,111.76z"/>
			<path fill="#C1282D" d="M294.8,172.73c0,0,110.66,3.3,109.69,153.29c0,0,67.46-211.86-123.42-237.86L294.8,172.73z"/>
			<path fill="#C1282D" d="M325.25,132.19c0,0-12.72,65.75-124.31,62.12c-95.55-3.11-60.24,152.05-60.24,152.05
				S64.83,92.45,278.95,87.94c0,0,61.78,2.87,118.99,99.58L325.25,132.19z"/>
			<polygon fill="#2297C9" points="317.08,721.32 217.28,698.83 178.37,721.32 			"/>
		</g>
	</g>
</g>
</svg>
