<?xml version="1.0" encoding="utf-8"?>
<!-- Generator: Adobe Illustrator 25.2.3, SVG Export Plug-In . SVG Version: 6.00 Build 0)  -->
<svg version="1.1" id="Layer_1" xmlns="http://www.w3.org/2000/svg" xmlns:xlink="http://www.w3.org/1999/xlink" x="0px" y="0px"
	 viewBox="0 0 576 576" enable-background="new 0 0 576 576" xml:space="preserve">
<g>
	<g>
		<defs>
			<path id="SVGID_1_" d="M576,287.64c0,158.86-128.78,287.65-287.64,287.65S0.71,446.5,0.71,287.64S129.5,0,288.36,0
				S576,128.78,576,287.64z"/>
		</defs>
		<use xlink:href="#SVGID_1_"  overflow="visible" fill="#F9E3D9"/>
		<clipPath id="SVGID_2_">
			<use xlink:href="#SVGID_1_"  overflow="visible"/>
		</clipPath>
		<g clip-path="url(#SVGID_2_)">
			<path fill="#0E83BC" d="M509.53,419.45c0,0-66.97-29.57-148.8,45.64l7.53,40.98l103.78-32.45L509.53,419.45z"/>
			<path fill="#5862AD" d="M168.1,360.06c6.85,28.33,25.8,48.05,42.33,44.05c16.53-3.99,24.38-30.2,17.53-58.52
				s-25.8-48.05-42.33-44.05C169.1,305.53,161.25,331.73,168.1,360.06z"/>
			<g>
				<path fill="#F89F74" d="M325.29,652.81c2.09,3.19,18.91,76.47-15.32,135c-34.23,58.52-231.44,29.99-258.43,30.21
					c-11.2,0.12-27.13,7.07-39.57,15.57h-67.15c3.52-11.46,34.92-40.6,49.69-50.65c8.24-5.61,18.52-7.26,28.13-4.63
					c38.52,10.52,67.13,16.07,67.13,16.07l182.43-16.31c17.14,1.63,14.38-168.26,20.08-172.07c28.66-19.19,95.97,24.92,95.97,24.92
					l-11.22,42.81L325.29,652.81z"/>
				<path fill="#F68B57" d="M323.73,833.59H54.46l-2.29-0.27c0,0-0.18,0.1-0.45,0.27H11.97c12.44-8.5,28.37-15.45,39.57-15.57
					c26.98-0.21,224.2,28.31,258.43-30.21c34.23-58.53,17.41-131.81,15.32-135l51.74,20.91l-35.45,135.33
					C340.2,815.68,334.65,825.63,323.73,833.59z"/>
			</g>
			<path fill="#3C7BBF" d="M87.23,833.59c0.69-5.28,2.11-15.22,4.1-24.34c29.81,6.62,81.47,17.56,126.95,24.34H87.23z"/>
			<path fill="#3C7BBF" d="M306.42,833.59c41.35-35.6,88.93-249.34,73.37-313.1c4.89,2.29,9.51,5.26,13.66,8.82
				c32.15,27.4-5.13,226.54-45.96,304.28H306.42z"/>
			<path fill="#2EA3DC" d="M306.42,833.59h-88.15c-45.48-6.78-97.14-17.72-126.95-24.34c1.51-6.9,3.98-15.51,7.95-25.7l174.17-15.21
				l3.23-126.49c0.12-94.87,42.83-129.5,80.96-127.12c7.7,0.47,15.22,2.44,22.15,5.76C395.35,584.25,347.78,798,306.42,833.59z"/>
			<path fill="#F89F74" d="M379.03,324.65c2.69,5,1.98,92.63,83.64,123.84c81.67,31.21-28.77,119.53-69.98,90.81
				c-41.2-28.72-14.31-118.5-43.5-137.11C306.85,375.2,379.03,324.65,379.03,324.65z"/>
			<path fill="#F9AF8A" d="M354.7,368.76c-2.99,43.39-8.79,77.79-34.99,95.53c0,0.05-0.04,0.05-0.04,0.05
				c-0.05,0.04-0.13,0.08-0.17,0.08c-20.77,10.68-42.81,13.16-63.03,1.51c-98.19-56.43-78.93-240.27-79.68-248.51l20.98-1.93
				c2.44,6.93,4.34,11.56,4.34,11.56s30.31,24.3,56.59,11.69c26.24-12.61,54.67-14.17,68.29,9.46
				C340.69,271.84,357.73,325.28,354.7,368.76z"/>
			<path fill="#751E14" d="M231.5,287.71l6.51,15.58c0,0,15.97-33.22,58.16-37.98l-0.29-23.79
				C295.88,241.52,259.06,252.14,231.5,287.71z"/>
			<path fill="#FFFFFF" d="M272.95,340.65c-22.52-0.31-29.47-23.09-29.47-23.09l8.92-4.08l20.14-9.17l21.06-9.63
				C299.47,308.07,295.51,340.98,272.95,340.65z"/>
			<g>
				<path fill="#FFFFFF" d="M216.62,317.65c0,0,8.67,19.1-7.18,28.53s-29.64-11.86-30.01-24.21l6.82-2.17l15.86-1.25L216.62,317.65z
					"/>
			</g>
			<g>
				<path fill="#ED1C24" d="M314.85,406.66c-1.64,17.62-7.18,36.71-22.96,40.05c-4.21,0.91-9.15,0.71-14.91-0.95
					c0,0-33.24-9.69-42.87-29.18c0,0,2.68,0.29,7.26,0.03c3.15,3.99,8.32,9.52,17.24,13.86c12.11,5.88,39.21-22.52,46.53-44.4
					c3.18-3.26,6.37-6.88,9.47-10.87C314.61,375.2,316.42,390.31,314.85,406.66z"/>
				<path fill="#FFFFFF" d="M305.14,386.07c-7.32,21.89-34.43,50.28-46.53,44.4c-8.92-4.34-14.09-9.87-17.24-13.86
					C253.82,415.94,280.39,411.29,305.14,386.07z"/>
				<path fill="#F26C58" d="M314.85,406.66c-1.64,17.62-7.18,36.71-22.96,40.05c-4.45-4.08-7.33-10.37-5.27-19.99
					C290.75,407.47,306.81,406.09,314.85,406.66z"/>
			</g>
			<path fill="#7C1E16" d="M211.86,338.95c0,5.39-4.37,9.76-9.76,9.76c-5.39,0-9.76-4.37-9.76-9.76c0-5.39,4.37-9.76,9.76-9.76
				C207.5,329.19,211.86,333.56,211.86,338.95z"/>
			<path fill="#7C1E16" d="M280.82,327.89c0,6.11-4.95,11.06-11.06,11.06c-6.11,0-11.07-4.95-11.07-11.06
				c0-6.11,4.95-11.07,11.07-11.07C275.86,316.82,280.82,321.78,280.82,327.89z"/>
			<path fill="#F5855B" d="M225.26,269.32c0,0-10.37,9.36-2.86,30.49C222.41,299.81,218.27,279.11,225.26,269.32z"/>
			<path fill="#F5855B" d="M197.29,277.77c0,0,18.18,0.66,13.94,21.31C211.22,299.08,210.65,280.84,197.29,277.77z"/>
			<path fill="#F5855B" d="M243.47,317.56l52.56-22.87C296.03,294.68,252.67,274.28,243.47,317.56z"/>
			<path fill="#F5855B" d="M179.44,321.97l37.19-4.32C216.62,317.65,194.93,295.37,179.44,321.97z"/>
			<path fill="#751E14" d="M162.41,286.07c4.59,0.15,34.84,6,46.42,19.03l1.3,12.31c0,0-33.32-15.79-45.59-10.95L162.41,286.07z"/>
			<path fill="#C32026" d="M409.39,833.59l-30.36-114.62l-31.07-97.93L371.82,509c0,0,26.93,18.25,72.72-9.73
				c45.79-27.98,108.28,45.7,108.28,45.7s55.24,176.12,68.69,288.63H409.39z"/>
			<path fill="#1BC2E8" d="M437.15,833.59h-52.93c-6.67-45.74-11.08-101.21-26.41-127.43c-27.29-46.69-34.3-116.93-21.93-142.21
				s14.75-32.32,14.75-32.32l25.14-9.61l4.38,16.64c0,0-13,100.71,15.01,158.16C409.72,726.7,425.43,784.75,437.15,833.59z"/>
			<path fill="#0C83BB" d="M488.39,660.18c0,0,55.61,18.36,114.15-5C602.54,655.17,562.94,618.5,488.39,660.18z"/>
			<path fill="#062430" d="M247.45,833.59h-59.84c17.85-9.22,42.11-9.49,61.68-5.31c-0.86,1.77-1.38,2.85-1.38,2.85
				C247.81,831.29,247.67,832.18,247.45,833.59z"/>
			<path fill="#010101" d="M247.45,833.59c0.22-1.41,0.36-2.3,0.46-2.46c0,0,0.52-1.08,1.38-2.85c6.3,1.36,12.06,3.21,17.03,5.31
				H247.45z"/>
			<path fill="#F89F74" d="M404.73,352.87c-9.04,39.11-44.7,90.66-85.02,111.43c26.2-17.75,32-52.14,34.99-95.53
				c3.03-43.48-14-96.92-27.71-120.55c-13.62-23.63-42.05-22.08-68.29-9.46c-26.28,12.61-56.59-11.69-56.59-11.69
				s-1.9-4.63-4.34-11.56l179.85-16.61C377.61,198.89,418.48,293.5,404.73,352.87z"/>
			<polygon fill="#824C1F" points="300.02,297.97 305.04,307.5 385.03,307.5 385.03,299.08 			"/>
			<path fill="#9B2820" d="M378.33,241.52c-17.49,41.71-17.54,78.88-17.54,78.88s-8.15-79.18-1.38-90.07
				c-1.18,0.47-25.23,10.01-72.28-21.19c0,0-17.03,39.57-78.59,19.3c-11.35-3.75-12.37,1.17-20.1,0c-0.46,3.45-0.97,7.15-1.51,11.14
				c0,1.22-0.05,2.43-0.12,3.7c-0.3,3.87-1.14,7.9-2.61,11.77c-1.77,8.11-4.33,16.36-7.61,23.71c-1.89,4.34-3.99,8.5-6.26,12.37
				c-2.31,3.87-4.54,7.44-7.65,11.56c-3.41,4.67-7.78,8.62-12.45,10.77c-4.71,2.23-9.66,2.73-14.04,2.48
				c-4.33-0.29-7.15-1.17-10.09-1.9c-2.95-0.75-6.01-1.68-8.67-3.11c-2.6-1.38-4.79-3.45-6.01-5.47c-1.22-1.97-1.68-3.91-1.77-5.47
				c-0.12-3.15,1.1-4.33,1.01-4.33c0,0-0.16,1.72,1.22,3.62c1.35,2.02,4.21,3.78,7.87,3.4c1.85-0.12,3.95-0.58,6.52-1.26
				c2.61-0.67,5.72-1.43,7.65-2.44c1.85-0.97,3.49-2.23,4.54-3.91c1.09-1.77,1.47-3.58,1.68-5.55c0.55-2.48,1.26-6.18,1.85-9.76
				c0.21-1.1,0.29-2.27,0.46-3.41c14.64,1.9,38.48-9,5.34-49.2c-33.14-40.19-2.9-70.98-2.9-70.98c9.2-15.01-9.3-15.01-9.3-15.01
				c-5.38-5.72-8.79-12.2-10.47-19.56c-1.6-7.28-0.88-14.51,1.68-20.52c2.86-6.65,7.82-11.61,12.91-14.81
				c5-3.02,10.09-4.62,14.88-5.38c9.72-1.38,17.45,0.68,23.46,2.44c5.97,1.93,10.35,3.91,13.37,5.26c2.94,1.39,4.54,2.1,4.54,2.1
				s-1.73-0.3-4.92-0.8c-3.24-0.47-7.94-1.27-13.88-1.56c-5.8-0.25-13.2-0.08-19.97,2.78c-3.41,1.43-6.73,3.53-9.42,6.22
				c-2.49,2.65-4.29,5.76-4.88,9.29c-1.09,6.48,2.4,12.78,8.2,16.73c5.21,3.45,13.33,3.7,20.81,0.42
				c7.44-3.11,13.96-9.54,19.72-18.38c1.47-2.19,2.86-4.54,4.21-6.98l2.06-3.87l1.22-2.27l0.92-1.6l1.18-1.9
				c3.11-5.04,6.77-9.84,11.14-13.62c4.37-3.78,9.46-6.6,15.01-8.11c6.72-1.8,14-1.47,20.77,0.67c6.77,2.23,13.12,6.22,18.54,11.61
				c2.19,2.1,4.12,4.5,5.97,6.98c0,0,48.9,13.29,48.23,37.8c0,0,56.76-7.7,57.44,37.13C378.33,161.29,395.86,199.81,378.33,241.52z"
				/>
			<path fill="#802018" d="M157.93,148.34c0,0,35.04,45.2,70.08,20.32c35.04-24.88,18.93,14.01,18.93,15.07
				S205.23,246.11,157.93,148.34z"/>
			<path fill="#802018" d="M449.39,269.78c3.41,7.15,5.17,16.49,4.41,28.64c-4.08,63.28-38.3,52.43-34.56,67.19
				c10.18,40.03-24.06,58.2-29.22,21.82c-5.13-36.41,0-86.41,0-86.41l-29.23,19.39c0,0,0.05-37.17,17.54-78.88
				c17.53-41.72,0-80.23,0-80.23c-0.68-44.83-57.44-37.13-57.44-37.13c0.67-24.52-48.23-37.8-48.23-37.8
				c0.63,0.05,1.3,0.05,1.93,0.12c11.9,0.88,22.96,4.46,32.63,9.59c2.48-2.4,5.21-4.8,8.41-7.07c2.27-1.56,4.58-3.07,7.32-4.29
				l4-1.8l4.08-1.35c5.5-1.64,11.14-2.31,16.44-2.1c10.72,0.29,20.18,3.78,28.29,8.54c8.04,4.96,14.84,11.39,19.81,19.13
				c4.87,7.74,7.61,15.47,9,23.17c1.39,7.65,1.47,14.88,0.76,21.57c-0.08,0.55-0.17,1.14-0.25,1.68c0.63,0,1.17-0.04,1.8-0.12
				c0.97-0.13,1.85-0.55,2.82-0.97c3.4-1.27,6.72-8.46,8.28-14.81c1.72-6.35,2.19-12.36,1.64-17.36c-0.55-4.96-2.1-8.92-3.7-11.44
				c-0.8-1.27-1.51-2.23-2.06-2.82c-0.38-0.46-0.63-0.76-0.76-0.88c0.13,0,0.55,0.12,1.14,0.34c0.8,0.25,1.9,0.71,3.37,1.47
				c2.86,1.47,6.85,4.58,10.42,9.89c3.53,5.3,6.52,12.53,8.03,21.11c0.76,4.37,1.27,8.74,1.01,14.12c-0.13,2.65-0.51,5.47-1.26,8.5
				c-0.8,3.12-2.06,6.35-3.79,9.38c-0.38,0.58-0.84,1.17-1.21,1.77c15.31-2.02,28.38,0.97,24.3,18.08
				c-0.71,2.82-1.68,5.34-2.82,7.66c8.24,2.69,15.26,9.37,19.05,22.7C479.92,250.14,464.1,263.68,449.39,269.78z"/>
			<g>
				<path fill="#F89F74" d="M377.6,310c0,0,27.41-65.11,58.07-38.14c30.66,26.97,6.28,86.7-29.88,86.24
					c-36.17-0.46-31.53-17.13-31.53-17.13L377.6,310z"/>
				<path fill="#F47644" d="M392.34,324.49c0,0,3.6,12.86,13.53,8.95c9.94-3.91,7.71-15.08-0.47-17.56
					c-8.18-2.47-7.38-0.09-7.38-0.09s15.08-35.89,24.51-32.14c9.42,3.74,25.25,18.85,15.21,30c-10.03,11.16-9.42,6.71-6.41,0.47
					s7.93-9.79,2.56-15.29c-5.36-5.5-14.09-9.37-14.09-9.37l-15.33,22.23c0,0,13.99,6.3,11.1,14.49c-2.89,8.18-14.88,20-23.39,9.87
					C392.19,336.05,387.25,330.42,392.34,324.49z"/>
			</g>
			<path fill="#802018" d="M147.77,227.18c-33.14-40.19-2.9-70.98-2.9-70.98c9.2-15.01-9.3-15.01-9.3-15.01s-0.17,0.08-0.51,0.21
				c-0.84,0.42-1.64,0.8-2.48,1.26c-3.53,1.93-6.85,4.54-9.37,7.28c-5.17,5.51-7.66,11.01-9.17,15.47
				c-1.47,4.46-2.02,8.5-2.27,11.56c-0.92,13.33,2.78,24.35,6.94,32.51c2.1,4.16,4.5,7.82,6.82,10.98c2.31,3.15,4.58,5.76,6.69,8.07
				c4.08,4.24,8.03,8.37,11.9,12.36c10.53,9.51,0,13.79,0,13.79c-1.17,0.51-2.44,0.88-3.7,1.1c-2.94,0.38-5.97,0.12-8.83-0.51
				c-5.8-1.26-10.64-3.78-13.84-5.55c-3.24-1.81-5-2.95-5-2.95s0.75,1.94,2.47,5.43c1.81,3.45,4.5,8.58,9.97,14.13
				c2.78,2.77,6.31,5.63,10.93,7.86c1.93,0.88,4.08,1.6,6.31,2.19C157.07,278.27,180.91,267.38,147.77,227.18z"/>
			<path fill="#802018" d="M240.05,179.54c0,0-0.32,39.98,47.57,26.61c0,0-25.29-7.54-38.14-32.69
				C244.05,162.82,240.05,179.54,240.05,179.54z"/>
			<polygon opacity="0.39" fill="#0E89B1" points="215.48,338.93 215.48,356.93 212.66,360.63 172.37,365.34 162.41,356.93 
				155.01,327.87 162.41,320.39 176.2,318.87 179.44,339.98 214.18,334.77 213.25,326.24 			"/>
			<polygon opacity="0.68" fill="#FFFFFF" points="214.18,334.77 179.44,339.98 176.2,318.87 176.66,318.79 207.19,315.43 
				211.86,318.5 213.25,326.24 			"/>
			<polygon opacity="0.33" fill="#0E89B1" points="307.27,315.43 303.4,341.54 294.99,346.58 263.12,352.72 248.74,352.72 
				243.48,346.08 237.76,312.78 254.54,305.25 300.04,297.97 301.47,298.99 268.63,303.65 271.87,324.76 306.6,319.55 
				304.87,304.08 			"/>
			<polygon opacity="0.68" fill="#FFFFFF" points="306.6,319.55 271.87,324.76 268.63,303.65 301.47,298.99 304.24,301.01 
				304.87,304.08 			"/>
			<g>
				<path fill="#824C1F" d="M253.28,356.92c-5.55,0-10.44-3.6-11.63-8.87l-6.73-29.75c-0.67-2.95-0.11-6.01,1.57-8.63
					c1.8-2.81,4.76-4.83,8.13-5.54c2.91-0.62,6.31-1.38,9.96-2.21c33.03-7.48,48.38-9.72,51.98-3.23l0,0
					c5.24,9.44,5.29,30.46,0.1,41.65c-3.01,6.48-7.03,8.51-9.88,9.07c-8.24,1.62-27,4.88-41.3,7.33
					C254.74,356.85,254,356.92,253.28,356.92z M296.59,301.03c-9.59,0-30.57,4.75-40.62,7.03c-3.69,0.83-7.11,1.61-10.05,2.23
					c-1.73,0.36-3.23,1.38-4.12,2.78c-0.76,1.18-1.02,2.54-0.73,3.83l6.73,29.76c0.61,2.69,3.49,4.39,6.61,3.86
					c11.67-2,32.54-5.61,41.13-7.31c2.56-0.5,4.34-3.28,5.38-5.53c4.68-10.09,4.06-28.65,0.18-35.82
					C300.36,301.27,298.77,301.03,296.59,301.03z M301.15,301.89L301.15,301.89L301.15,301.89z M301.04,301.74L301.04,301.74
					L301.04,301.74L301.04,301.74z"/>
			</g>
			<g>
				<path fill="#824C1F" d="M173.33,368.74c-2.4,0-5.65-0.93-9.14-4.6c-8.52-8.94-13.94-29.16-12.22-38.83l0,0
					c1.25-7.09,14.79-9.56,44.64-12.42c3.26-0.32,6.3-0.6,8.89-0.9c3.01-0.34,5.98,0.54,8.33,2.47c2.36,1.93,3.8,4.67,4.07,7.72
					l2.54,29.01c0.51,5.87-3.65,11.18-9.47,12.08c-10.28,1.58-28.7,4.4-36.49,5.39C174.12,368.72,173.74,368.74,173.33,368.74z
					 M158.15,326.53c-1.35,8.09,3.61,25.92,10.61,33.27c1.25,1.32,3.16,2.86,4.93,2.62c7.72-0.98,26.08-3.78,36.33-5.36
					c2.55-0.4,4.38-2.72,4.15-5.3l-2.54-29.01c-0.12-1.34-0.75-2.54-1.78-3.39c-1.03-0.84-2.33-1.23-3.64-1.08
					c-2.62,0.29-5.69,0.59-8.98,0.9C186.26,320.22,160.7,322.67,158.15,326.53z"/>
			</g>
			<path fill="#F5855B" d="M211.86,310.26c0,0,15.41,48.83-1.64,64.94c-17.04,16.12,3.26,30.94,23.5,25.01
				c7.48-2.19,13.06-5.6,17.12-9.03c7.43-6.28,7.65-18.05-0.17-23.83c-3.56-2.64-7.3-2.84-9.69,4.17
				C240.98,371.52,236.52,331.93,211.86,310.26z"/>
			<g>
				<path fill="#824C1F" d="M209.72,318.51l-4-4.87c14.39-11.81,32.57-4.11,33.34-3.78l-2.51,5.78
					C236.39,315.58,221.1,309.18,209.72,318.51z"/>
			</g>
			<path fill="#1BC2E8" d="M457.49,447.87l-55.37,69.01l7.21,61.79l186.92-33.71C596.25,544.96,562.57,436.73,457.49,447.87z"/>
			<path fill="#1BC2E8" d="M366.4,466.5l9.36,55.51l-45.78,94.05C329.98,616.06,312.77,519.08,366.4,466.5z"/>
			<path fill="#2EA3DC" d="M478.34,447.07c0,0-57.5,44.85-64.4,78.44c-6.89,33.6-30.54,8.33-11.82-12.64
				c18.71-20.96,46.83-87.07,63.66-80.23C482.6,439.49,478.34,447.07,478.34,447.07z"/>
			<path fill="#2EA3DC" d="M366.4,466.5c0,0,6.3,54.72,12.62,67.92c6.34,13.2-12.98,20.44-13.37,3.5
				c-0.4-16.93-9.44-61.86-9.44-61.86S359.01,458.26,366.4,466.5z"/>
			<path fill="#DCD7C4" d="M404.86,534.88l11.74,168.13h-5.87l-12.88-168.13C397.85,534.88,400.83,531.42,404.86,534.88z"/>
			<path fill="#DCD7C4" d="M375.76,541.28l1.27,164.87h-4.87l-3.9-164.87C368.26,541.28,368.36,533.01,375.76,541.28z"/>
			<path fill="#DCD7C4" d="M401.29,705.28c0,7.07,5.74,12.81,12.82,12.81c7.08,0,12.81-5.74,12.81-12.81
				c0-7.08-5.74-12.82-12.81-12.82C407.02,692.46,401.29,698.2,401.29,705.28z"/>
			<path fill="#DCD7C4" d="M361.84,706.16c0,7.08,5.74,12.81,12.81,12.81c7.08,0,12.82-5.74,12.82-12.81s-5.74-12.81-12.82-12.81
				C367.57,693.34,361.84,699.08,361.84,706.16z"/>
			<path fill="#35404A" d="M255.87,71.21l16.79,15.17c0,0,100.86,3.9,122.4,182.96l29.46-4.04c0,0-7.74-200.5-163.47-194.37
				C259.35,71,257.63,71.1,255.87,71.21z"/>
			<path fill="#1A2127" d="M272.66,86.38v1.05c0,0,85.06,2.72,106.6,181.78l15.8,0.14C373.52,90.28,272.66,86.38,272.66,86.38z"/>
			<ellipse fill="#1A2127" cx="408.91" cy="311.67" rx="50.28" ry="64.14"/>
			<ellipse fill="#1A2127" cx="415.49" cy="311.67" rx="50.28" ry="64.14"/>
			<path fill="#848AC3" d="M436.93,367.43l0.04,0.03c15.77-8.94,34.56-26.53,35.05-59.96c0.92-57.86-56.52-59.98-56.52-59.98
				s-0.03,0-0.07,0.04C412.87,249.04,345.85,288.31,436.93,367.43z"/>
			<path fill="#5E68B0" d="M372.25,312.81c3.17,44.59,43.25,63,43.25,63s9.92-1.87,21.47-8.35l-0.04-0.03
				c-91.08-79.12-24.07-118.39-21.5-119.87C368.63,259.95,372.25,312.81,372.25,312.81z"/>
			<polygon fill="#5862AD" points="451.42,316.82 430.72,401.54 324.66,447.07 327.36,455.85 436.94,408.42 457.89,318.25 			"/>
			<g>
				<path fill="#454EA0" d="M440.03,303.72c0,8.27,4.29,14.98,9.59,14.98c5.3,0,9.59-6.71,9.59-14.98c0-8.28-4.29-14.98-9.59-14.98
					C444.32,288.74,440.03,295.44,440.03,303.72z"/>
				<polygon fill="#454EA0" points="449.62,288.74 455.59,288.74 455.59,318.7 449.62,318.7 443.13,309.36 443.13,298.8 				"/>
				<path fill="#5862AD" d="M446,303.72c0,8.27,4.3,14.98,9.59,14.98c5.29,0,9.59-6.71,9.59-14.98c0-8.28-4.3-14.98-9.59-14.98
					C450.29,288.74,446,295.44,446,303.72z"/>
			</g>
			<path fill="#424D9D" d="M286.59,464.1c2.78,7.74,15.34,10.35,28.12,5.77c8.83-3.13,15.42-8.9,17.7-14.71
				c-2.88,2.25-6.37,4.19-10.31,5.6c-12.78,4.54-25.38,1.97-28.12-5.81c-0.84-2.39-0.67-4.96,0.36-7.57
				C287.93,452.35,284.66,458.75,286.59,464.1z"/>
			<path fill="#5862AD" d="M293.98,454.95c2.75,7.78,15.34,10.35,28.12,5.81c3.94-1.41,7.43-3.34,10.31-5.6
				c1.06-2.57,1.23-5.17,0.39-7.57c-2.78-7.74-15.34-10.35-28.12-5.77c-3.98,1.41-7.46,3.34-10.35,5.56
				C293.31,449.99,293.14,452.56,293.98,454.95z"/>
			<path fill="#2EA3DC" d="M478.33,447.07c9.07-0.39,21.54,9.68,35.33,24.28c24.46-15.17,4.72-38.57-13.55-54.06
				c-28.75-4.26-40.93,15.87-40.93,15.87S443.83,448.58,478.33,447.07z"/>
			<path fill="#3C7BBF" d="M513.66,471.35c38.78,40.89,88.33,117.44,104.42,98.43c21.82-25.76-29.92-104.7-83.58-138.52
				c-13.41-8.44-24.81-12.56-34.38-13.97C518.37,432.78,538.11,456.18,513.66,471.35z"/>
			<path fill="#1BC2E8" d="M488.74,833.59c-42.53-87.67-76.47-208.85-81.94-277.36c-0.35-4.36-2.08-28.55,1.19-38.09
				c-0.47-0.82,47.43-49,47.43-49s118.78-4.55,147.12,94.57c16.95,59.29,62.91,171.07,47.54,269.88H488.74z"/>
			<path fill="#012833" d="M330.13,833.59c0.01-4.33-0.25-8.79-0.98-13.31l11.28,1.91c0,0,0.4,4.58,0.35,11.4H330.13z"/>
			<g>
				<path fill="#F9AF8A" d="M539.32,630.22c2.72,2.67,34.61,70.76,13.49,135.19c-11.87,36.21-79.86,56.39-141.82,68.18H218.71
					l18.36-17.39l-24.2,8.07c0,0-1.88,4-4.82,9.31h-24.17c2.9-7.08,6.09-13.72,6.93-17.12c2.16-8.79,38.38-19.69,38.38-19.69
					c34.47-8.28,99.67,30.02,99.67,30.02l179.79-51c0,0-25.49-174.84-19.06-179.96c26.93-21.55,106.66-0.31,106.66-0.31l-1.94,44.22
					L539.32,630.22z"/>
				<path fill="#F89F74" d="M558.38,833.59H412.04c58.88-11.21,121.85-30.51,133.43-65.84c21.11-64.42-3.43-134.86-6.15-137.53
					l54.99,9.53l-6.32,172.23C582.51,825.09,577.53,830.01,558.38,833.59z"/>
			</g>
			<path fill="#3C7BBF" d="M502.99,833.59c18.66-3,34.36-6.67,44.12-11.17c39.71-18.28,33.64-266.36,0.32-328.51
				c5.31,0.99,10.52,2.71,15.44,5.12c43.37,21.11,55.1,281.7,20.98,334.56H502.99z"/>
			<path fill="#2EA3DC" d="M547.12,822.42c-9.76,4.5-25.46,8.17-44.12,11.17H353.51c0.19-4.47,0.57-9.41,1.22-14.82l151.73-58.29
				L477.96,637.2c-23.61-91.88,9.07-136.09,46.59-143.33c7.57-1.47,15.35-1.45,22.89,0.03
				C580.76,556.06,586.83,804.14,547.12,822.42z"/>
			<g>
				<path fill="#003544" d="M338.01,828.42c1.38-3.91,2.41-6.23,2.41-6.23l-11.27-1.91c-0.47,0.85-0.9,1.71-1.29,2.56L338.01,828.42
					z"/>
				<path fill="#F6EB16" d="M333.28,833.59l-8.1-4.45c0.79-2.12,1.67-4.21,2.67-6.3l10.16,5.58c-0.53,1.47-1.1,3.25-1.67,5.17
					H333.28z"/>
			</g>
		</g>
	</g>
</g>
</svg>
