<?xml version="1.0" encoding="utf-8"?>
<!-- Generator: Adobe Illustrator 25.2.3, SVG Export Plug-In . SVG Version: 6.00 Build 0)  -->
<svg version="1.1" id="Layer_1" xmlns="http://www.w3.org/2000/svg" xmlns:xlink="http://www.w3.org/1999/xlink" x="0px" y="0px"
	 viewBox="0 0 576 576" enable-background="new 0 0 576 576" xml:space="preserve">
<g>
	<g>
		<defs>
			<path id="SVGID_1_" d="M575.66,288.09c0,158.97-128.87,287.83-287.84,287.83C128.87,575.92,0,447.06,0,288.09
				S128.87,0.25,287.83,0.25C446.8,0.25,575.66,129.12,575.66,288.09z"/>
		</defs>
		<use xlink:href="#SVGID_1_"  overflow="visible" fill="#F9E3D9"/>
		<clipPath id="SVGID_2_">
			<use xlink:href="#SVGID_1_"  overflow="visible"/>
		</clipPath>
		<g clip-path="url(#SVGID_2_)">
			<g>
				<path fill="#F8A083" d="M110.97,636.05c-0.06,0.8,0.38,2.2,1.26,3.99c0.71,1.5,1.7,3.29,2.96,5.29
					c9.39,15.22,31.52,42.47,37.12,45.61c2.25,1.25,5.44,14.13,7.85,32.94c1.79,13.96,3.14,44.39,3.36,74.64h202.15
					c0.94-17.72,3.47-35.76,8.24-54.48c0.82-3.24,2.8-6.09,4.23-9.13c0.66-1.6,1.37-3.14,2.03-4.69c0.44-0.9,0.82-1.84,1.27-2.9
					c0.32-0.84,0.71-1.79,1.04-2.79c0,0,0-0.05,0.06-0.1c2.8-8.29,5.16-20.91,4.17-39.22v-0.16c-0.82-14.27-3.68-31.83-9.99-53.55
					c1.1-0.4,2.25-0.8,3.4-1.3l0.05-0.05c0.17-0.05,0.28-0.1,0.44-0.15c0.16-0.05,0.27-0.1,0.44-0.16c1.15-0.45,2.36-0.95,3.57-1.49
					c1.65-0.75,3.35-1.55,5.05-2.4l2.14-1.05c1.1-0.55,2.2-1.15,3.35-1.75c8.57-4.54,17.79-10.13,26.96-16.12
					c3.29-13.47,4.88-22.26,4.88-24.5c0,0,9.5-31.94-8.68-60.49c-0.16-0.3-0.32-0.6-0.55-0.9c-0.11-0.1-0.22-0.25-0.27-0.4
					c-1.76-2.64-3.79-5.24-6.04-7.83c-0.11-0.1-0.22-0.25-0.33-0.35c-1.37-1.49-2.86-2.99-4.45-4.39c-0.16-0.1-0.27-0.2-0.38-0.3
					c-2.58-1.7-5.6-2.9-8.79-3.2c-10.32-0.99-24.81,6.19-25.14,54.5c-0.11,15.82,2.86,40.52,7.58,69.76
					c-0.99-4.39-2.03-8.93-3.24-13.67c-0.77-2.7-1.54-5.39-2.47-8.18c-18.45-58.29-0.66-93.32,13.34-110.24
					c-2.2-1.25-4.11-2.3-5.43-2.99c-8.24-4.49-17.3-8.03-26.96-10.63c-3.46-0.95-6.98-1.79-10.54-2.49
					c-21.13,25.95-67.37,73.91-127.32,84.54c-4.56,0.8-8.73,1.25-12.46,1.3c-0.82,0.05-1.59,0.05-2.36,0.05c-0.6,0-1.21,0-1.81-0.05
					c-37.99-1.45-27.4-41.77-16.14-68.87c0.05-0.16,0.11-0.31,0.22-0.45c0.33-0.8,0.66-1.59,0.99-2.39
					c1.21-2.95,2.53-5.64,3.68-8.14c-4.99,1.7-9.88,3.59-14.44,5.84c-0.94,0.45-1.86,0.9-2.74,1.35l-0.12,0.05
					c-0.88,0.45-1.7,0.9-2.52,1.35c-6.64,3.64-28.62,37.02-31.92,45.05c-13.78,33.33-26.78,77.66-30.07,93.04v0.05
					C107.18,635.71,111.14,634.41,110.97,636.05z"/>
				<path fill="#F8A083" d="M177.56,798.52c4.53-22.91,9-47.16,13.02-66.91c-51.06-4.99-76.92-18.56-87.52-26
					c-3.62,31.01-6.7,63.84-9.15,92.91H177.56z"/>
				<path fill="#019D75" d="M103.06,705.62c10.6,7.44,36.46,21.01,87.52,26c1.1-5.64,2.25-10.92,3.29-15.72
					c4.07-18.11,7.47-37.18,9.78-56.84c0,0,0,0,0-0.05c3.57-30.05,4.5-61.38,1.21-92.42c-2.25-21.01-6.42-41.87-13.07-62.13
					c-1.38-4.2-3.35-8.14-6.04-9.58c-0.27-0.15-0.55-0.3-0.82-0.4c-3.18-1.1-7.57-1.75-12.68-0.55l-0.1,0.05
					c-0.71,0.15-1.43,0.4-2.2,0.65c-5.49,1.84-11.64,5.94-17.84,13.72c-0.33,0.3-0.66,0.65-0.88,1
					c-4.89,6.34-9.83,14.97-14.55,26.65c-0.22,0.5-0.44,1.05-0.66,1.6c-8.78,22.21-16.85,60.43-23.77,102.45
					c-0.22,1.4-0.44,2.79-0.71,4.24c-0.49,3.25-1.05,6.54-1.54,9.88C107.51,669.94,105.21,687.45,103.06,705.62z"/>
				<path fill="#F8A083" d="M497.81,798.52c-2.06-34.9-6.31-74.89-14.69-115.46c-13.45,10.43-42,27.35-87.74,29.6
					c5.9,29.18,12.3,58.75,18.34,85.86H497.81z"/>
				<path fill="#36B87F" d="M315.93,477.1v-0.15c-8.79-0.6-34.15-2.59-63.15-0.99v1.14c0,15.87,14.11,28.7,31.57,28.7
					C301.77,505.8,315.93,492.98,315.93,477.1z"/>
				<path fill="#36B87F" d="M96.97,639.9c4.01,1.3,8.01,2.55,11.97,3.64l6.25,1.79c0.33,0.05,0.6,0.16,0.94,0.25
					c4.78,1.34,9.5,2.49,14.17,3.59c2.31,0.55,4.61,1.05,6.98,1.55c9.22,2,18.22,3.6,27.01,4.85c2.14,0.3,4.23,0.6,6.31,0.84
					c0.88,0.15,1.7,0.25,2.53,0.3c2.25,0.3,4.44,0.55,6.64,0.7c0.1,0.05,0.16,0.05,0.21,0.05c2.31,0.25,4.56,0.45,6.75,0.6
					c0.44,0.05,0.82,0.1,1.21,0.1c2.31,0.2,4.61,0.35,6.87,0.45c2.36,0.15,4.72,0.3,7.03,0.35c0.6,0.05,1.21,0.05,1.81,0.05
					c0.49,0,1.04,0.05,1.53,0.05c3.13,0.1,6.26,0.16,9.39,0.16c3.9,0,7.79-0.05,11.53-0.2c1.1-0.05,2.25-0.1,3.29-0.15
					c1.38-0.05,2.75-0.1,4.07-0.2c2.08-0.1,4.12-0.25,6.15-0.4c1.97-0.16,4.01-0.31,5.98-0.5c2.36-0.2,4.67-0.45,6.98-0.75
					c2.74-0.3,5.38-0.64,8.01-0.99c2.64-0.35,5.27-0.75,7.85-1.2c1.48-0.19,2.91-0.45,4.34-0.75c2.2-0.4,4.39-0.8,6.53-1.25
					c2.59-0.5,5.16-1.05,7.74-1.65c1.65-0.34,3.3-0.75,4.89-1.14c2.03-0.45,4.06-1,6.04-1.5c2.25-0.6,4.44-1.2,6.64-1.84
					c1.6-0.45,3.19-0.9,4.72-1.4c20.65-6.29,38.05-13.98,51.83-21.21c1.43-0.75,2.86-1.49,4.23-2.24c1.05-0.55,2.03-1.1,3.02-1.7
					c2.97-1.64,5.77-3.29,8.29-4.84c1.21,4.74,2.25,9.28,3.23,13.67c-4.72-29.24-7.68-53.95-7.57-69.76
					c0.33-48.31,14.82-55.49,25.14-54.5c3.02,0.3,5.93,1.4,8.4,2.95c-2.14-1.5-9.72-6.09-15.48-9.24c-0.99-0.55-1.92-1.1-2.86-1.55
					c-2.2-1.25-4.12-2.29-5.43-2.99c-8.24-4.49-17.3-8.03-26.96-10.63c-3.46-0.95-6.98-1.79-10.54-2.49
					c-4.78-1-9.72-1.84-14.72-2.44c0.06,0.8,0.06,1.64,0.06,2.44c0,22.91-20.43,41.52-45.63,41.52c-25.2,0-45.68-18.61-45.68-41.52
					c0-1.25,0.05-2.49,0.16-3.74c-16.69,1.6-33.93,4.54-49.41,9.73c-4.99,1.7-9.88,3.59-14.44,5.84c-0.94,0.45-1.86,0.9-2.75,1.35
					l-0.1,0.05c-0.71,0.15-1.43,0.4-2.2,0.65c-0.11,0.25-0.21,0.45-0.32,0.7c-4.56,8.88-13.89,19.86-24.77,31.79
					c-2.64,2.9-5.38,5.89-8.18,8.89c-0.88,0.95-1.76,1.9-2.64,2.84c-11.97,12.72-24.43,26.05-33.99,38.53
					C82.75,599.97,85.22,622.58,96.97,639.9z"/>
				<path fill="#008C66" d="M159.85,723.27v0.15c0.99,7.5,1.82,19.8,2.42,34.26c111.97,11.65,181.3,0.1,210.08-6.81
					c0.49-2.4,1.1-4.85,1.7-7.25c0.82-3.25,2.81-6.1,4.23-9.15c0.66-1.6,1.38-3.15,2.04-4.7c0.44-0.9,0.82-1.85,1.27-2.9
					c0.33-0.85,0.71-1.8,1.05-2.8l-161.39-33.06L159.85,723.27z"/>
				<path fill="#00AC7A" d="M96.97,639.9c4.5,6.79,10.43,12.68,17.19,17.47c2.47,1.8,4.99,3.4,7.63,4.85
					c14.17,7.78,23.39,23.35,29.05,37.03c5.71,13.57,7.79,25.3,7.79,25.3c0.49-0.19,0.99-0.45,1.54-0.65
					c18.72-7.98,39.69-10.18,59.96-6.68c76.97,13.37,162.35,7.33,162.35,7.33s0-0.05,0.06-0.1c0.77-1.45,8.51-17.47,3.57-59.69
					c-1.15-9.98-3.02-21.46-5.93-34.58c-0.05-0.35-0.11-0.7-0.22-1.05v-0.15c-0.99-4.39-2.03-8.93-3.23-13.67
					c-2.53,1.55-5.33,3.2-8.29,4.84c-0.99,0.6-1.97,1.15-3.02,1.7c-1.37,0.75-2.74,1.49-4.23,2.24
					c-13.78,7.24-31.18,14.93-51.83,21.21c-1.59,0.5-3.12,0.95-4.72,1.4c-2.2,0.65-4.39,1.25-6.64,1.84
					c-1.98,0.5-4.01,1.05-6.04,1.5c-1.59,0.4-3.24,0.8-4.89,1.14c-2.58,0.6-5.16,1.15-7.74,1.65c-2.14,0.45-4.33,0.9-6.53,1.25
					c-1.43,0.3-2.86,0.55-4.34,0.75c-2.59,0.45-5.16,0.85-7.85,1.2c-2.64,0.4-5.27,0.75-8.01,0.99c-2.31,0.31-4.61,0.55-6.98,0.75
					c-1.97,0.19-3.96,0.34-5.98,0.5c-2.03,0.15-4.07,0.3-6.15,0.4c-1.32,0.1-2.69,0.15-4.07,0.2c-1.04,0.05-2.14,0.1-3.29,0.15
					c-3.73,0.15-7.63,0.2-11.53,0.2c-3.07,0-6.2-0.05-9.39-0.16c-1.1,0-2.2-0.05-3.34-0.1c-2.31-0.05-4.67-0.2-7.03-0.35
					c-2.25-0.1-4.56-0.25-6.87-0.45c-0.38,0-0.77-0.05-1.21-0.1c-2.2-0.15-4.45-0.35-6.75-0.6c-0.05,0-0.11,0-0.21-0.05
					c-2.2-0.15-4.4-0.4-6.64-0.7c-0.83-0.05-1.65-0.15-2.53-0.3c-2.08-0.25-4.18-0.55-6.31-0.84c-8.79-1.25-17.79-2.84-27.01-4.85
					c-2.36-0.5-4.67-0.99-6.98-1.55c-4.66-1.1-9.39-2.29-14.17-3.59c-0.33-0.1-0.6-0.2-0.94-0.25l-6.25-1.79
					C104.99,642.44,100.98,641.19,96.97,639.9z"/>
				<path fill="#36B87F" d="M372.37,559.2c-0.11,15.82,2.85,40.52,7.57,69.76v0.15c0.06,0.35,0.11,0.7,0.17,1.1
					c1.75,10.93,3.79,22.56,5.98,34.53c2.86,15.47,5.99,31.64,9.28,47.91c45.73-2.25,74.28-19.17,87.74-29.6v-0.05
					c-11.8-57.14-31.68-115.18-64.79-160.95c-2.31-3.24-4.72-6.38-7.19-9.48c-0.16-0.25-0.33-0.45-0.49-0.65
					c-1.16-1.4-2.47-2.7-3.96-3.74c-0.16-0.1-0.27-0.2-0.38-0.3c-2.58-1.7-5.6-2.9-8.79-3.2
					C387.2,503.71,372.71,510.89,372.37,559.2z"/>
				<path fill="#F8A083" d="M252.79,419.56v57.55c0,15.87,14.11,28.7,31.57,28.7c17.41,0,31.57-12.82,31.57-28.7v-57.55H252.79z"/>
				<path fill="#FFFFFF" d="M238.68,480.75c0,22.91,20.48,41.52,45.68,41.52c25.2,0,45.63-18.61,45.63-41.52c0-0.8,0-1.64-0.06-2.44
					c-4.61-0.65-9.27-1.05-14-1.35v0.15c0,15.87-14.17,28.7-31.57,28.7c-17.46,0-31.57-12.82-31.57-28.7v-1.14
					c-4.55,0.25-9.22,0.6-13.94,1.05C238.73,478.25,238.68,479.5,238.68,480.75z"/>
			</g>
			<g>
				<path fill="#4B2916" d="M72.39,288.09c-1.83-12.3,4.81-20.28,13.02-25.42c-7.63-6.29-12.81-15.54-9.85-29.1
					c3.7-17.01,13.14-26.67,22.12-32.2c-9.83-11.05-17.71-25.93-12.24-42.87c5.06-15.67,16.35-23.72,27.5-27.82
					c-6.19-7.87-9.65-18.88-4.75-34c5.77-17.8,23.29-22.13,40.95-21.49c-0.45-9.88,2.68-21.1,12.76-33.14
					c24.55-29.34,56.95-16.47,73.09-7.06c0.29-14.19,8.09-28.73,33.27-38.29c36.33-13.79,52.88,10.12,60.41,33.57
					c3.89-1.92,8.42-3.89,13.84-5.93c28.86-10.87,44.94,1.04,53.98,18.37c22.24-16.77,49.97-28.05,71.05-4.86
					c24.54,27,15.1,52.77,3.25,69.43c19.32,5.43,17.65,20.88,12.1,33.77c1.31,0.54,2.42,0.94,3.86,1.57
					c36,15.67,25.32,37.16,13.89,49.99c24.99,11.72,22.56,31.22,15.59,46.13c7,5.33,11.93,14.96,12.63,31.42
					c1.87,43.93-27.7,60.57-49.3,66.89c2.38,4.96,4.47,10.26,5.67,16.3c4.36,22.06-21.78,27.94-40.5,29.38
					c1.49,6.42,1.42,13.63-1.86,21.23c-7.14,16.57-25.69,11.02-38.11,4.9c1.27,13.9-4.64,28.94-26.57,41.98
					c-60.57,35.98-93.2-36.64-93.2-36.64c-50.47,23.87-78.49,9.13-94.01-12.99c-27.79,7.16-65.34,22.82-91.51-17.75
					c-16.82-26.07-4.79-52.07,6.81-68.12C92.35,312.26,74.92,305.09,72.39,288.09z"/>
				<path fill="#4B2916" d="M169.96,162.73c0,0-18.48,85.02-38.04,122.77c0,0-39.56-63.05-9.92-136.37
					C151.63,75.82,169.96,162.73,169.96,162.73z"/>
				<path fill="#F47A4C" d="M154.39,252.48c-1.85-0.46-21.71-18.47-39.25,2.77c-17.55,21.24,1.38,74.8,15.24,80.34
					c13.85,5.53,25.4,1.38,26.78-2.31C158.54,329.59,154.39,252.48,154.39,252.48z"/>
				<path fill="#F8A083" d="M189.14,97.02c50.95-46.77,126.82-46.77,177.76,0c49.03,45,58.9,114.79,57.33,170.58
					c1.58,51.04-13.63,113.09-62.66,154.26c-50.95,42.8-121.48,44.6-172.43,1.81c-49.03-41.18-58.9-105.03-57.33-156.07
					C130.25,211.81,140.11,142.03,189.14,97.02z"/>
				<path fill="#FFFFFF" d="M280.21,336.89c-4.57,33.04-25.77,58.04-51.28,58.04s-46.71-25-51.28-58.04H280.21z"/>
				<path fill="#F47A4C" d="M223.47,304.27H192.5C192.5,304.27,204.95,332.09,223.47,304.27z"/>
				<path fill="#92484B" d="M175.42,213.38l-1.21,15.06c0,0-15.16-4.03-36.74,2.9l-0.75-9.55
					C136.72,221.8,159.73,209.82,175.42,213.38z"/>
				<path fill="#92484B" d="M282.44,213.38l1.2,15.06c0,0,15.16-4.03,36.74,2.9l0.75-9.55C321.14,221.8,298.13,209.82,282.44,213.38
					z"/>
				<path fill="#74403B" d="M302.42,249.17c8.05,0,14.58,6.52,14.58,14.57v19.3c0,8.05-6.53,14.57-14.58,14.57
					s-14.57-6.53-14.57-14.57v-19.3C287.85,255.69,294.37,249.17,302.42,249.17z"/>
				<path fill="#74403B" d="M151.83,249.17c8.05,0,14.57,6.52,14.57,14.57v19.3c0,8.05-6.53,14.57-14.57,14.57
					s-14.57-6.53-14.57-14.57v-19.3C137.27,255.69,143.79,249.17,151.83,249.17z"/>
				<path fill="#92484B" d="M175.71,213.36l-1.2,15.06c0,0-15.16-4.03-36.74,2.9l-0.75-9.55
					C137.01,221.77,160.03,209.79,175.71,213.36z"/>
				<path fill="#F47A4C" d="M397.17,270.98c-0.1-9.85,5.81-18.8,14.96-22.43c8.7-3.45,19.67-4.32,28.78,6.7
					c17.55,21.24-1.38,74.8-15.23,80.34c-13.85,5.53-20.87-0.1-23.82-2.71C396.95,328.55,397.37,292.08,397.17,270.98z"/>
				<path fill="#F47A4C" d="M154.39,252.48c-1.85-0.46-21.71-18.47-39.25,2.77c-17.55,21.24,1.38,74.8,15.24,80.34
					c13.85,5.53,25.4,1.38,26.78-2.31C158.54,329.59,154.39,252.48,154.39,252.48z"/>
				<path fill="#F8A083" d="M189.14,97.02c50.95-46.77,126.82-46.77,177.76,0c49.03,45,58.9,114.79,57.33,170.58
					c1.58,51.04-13.63,113.09-62.66,154.26c-50.95,42.8-121.48,44.6-172.43,1.81c-49.03-41.18-58.9-105.03-57.33-156.07
					C130.25,211.81,140.11,142.03,189.14,97.02z"/>
				<path fill="#FFFFFF" d="M280.21,336.89c-4.57,33.04-25.77,58.04-51.28,58.04s-46.71-25-51.28-58.04H280.21z"/>
				<path fill="#F47A4C" d="M223.47,304.27H192.5C192.5,304.27,204.95,332.09,223.47,304.27z"/>
				<path fill="#92484B" d="M175.42,213.38l-1.21,15.06c0,0-15.16-4.03-36.74,2.9l-0.75-9.55
					C136.72,221.8,159.73,209.82,175.42,213.38z"/>
				<path fill="#4B2916" d="M282.44,213.38l1.2,15.06c0,0,15.16-4.03,36.74,2.9l0.75-9.55C321.14,221.8,298.13,209.82,282.44,213.38
					z"/>
				<path fill="#74403B" d="M302.42,249.17c8.05,0,14.58,6.52,14.58,14.57v19.3c0,8.05-6.53,14.57-14.58,14.57
					s-14.57-6.53-14.57-14.57v-19.3C287.85,255.69,294.37,249.17,302.42,249.17z"/>
				<path fill="#74403B" d="M151.83,249.17c8.05,0,14.57,6.52,14.57,14.57v19.3c0,8.05-6.53,14.57-14.57,14.57
					s-14.57-6.53-14.57-14.57v-19.3C137.27,255.69,143.79,249.17,151.83,249.17z"/>
				<path fill="#4B2916" d="M175.71,213.36l-1.2,15.06c0,0-15.16-4.03-36.74,2.9l-0.75-9.55
					C137.01,221.77,160.03,209.79,175.71,213.36z"/>
				<path fill="#4B2916" d="M397.11,162.73c-0.27,11.5-221.4,68.61-264.16,0c0,0,34.15-96.08,77.66-102.62
					C254.12,53.56,400.57,16.1,397.11,162.73z"/>
				<path fill="#4B2916" d="M369.15,151.6c0,0,28.18,96.15,47.75,133.9c0,0,39.56-63.05,9.92-136.37
					C397.19,75.82,369.15,151.6,369.15,151.6z"/>
				<path fill="#F47A4C" d="M397.17,270.98c-0.1-9.85,5.81-18.8,14.96-22.43c8.7-3.45,19.67-4.32,28.78,6.7
					c17.55,21.24-1.38,74.8-15.23,80.34c-13.85,5.53-20.87-0.1-23.82-2.71C396.95,328.55,397.37,292.08,397.17,270.98z"/>
			</g>
		</g>
	</g>
</g>
</svg>
