<?xml version="1.0" encoding="utf-8"?>
<!-- Generator: Adobe Illustrator 25.2.3, SVG Export Plug-In . SVG Version: 6.00 Build 0)  -->
<svg version="1.1" id="Layer_1" xmlns="http://www.w3.org/2000/svg" xmlns:xlink="http://www.w3.org/1999/xlink" x="0px" y="0px"
	 viewBox="0 0 576 576" enable-background="new 0 0 576 576" xml:space="preserve">
<g>
	<g>
		<defs>
			<path id="SVGID_1_" d="M576,288.88c0,158.72-128.67,287.37-287.38,287.37S1.24,447.6,1.24,288.88S129.9,1.5,288.62,1.5
				S576,130.17,576,288.88z"/>
		</defs>
		<use xlink:href="#SVGID_1_"  overflow="visible" fill="#F9E3D9"/>
		<clipPath id="SVGID_2_">
			<use xlink:href="#SVGID_1_"  overflow="visible"/>
		</clipPath>
		<g clip-path="url(#SVGID_2_)">
			<path fill="#F8A184" d="M157.84,729.6c43.32-129.08,25.45-220.89,24.12-228.03c-0.1-0.32-0.12-0.49-0.12-0.49l-20.57,17.76
				c-14.25,11.02-26.5,24.43-35.94,39.78c-0.08,0.14-0.17,0.29-0.26,0.42C88.2,619.38,76.68,682.65,74.02,729.6H157.84z"/>
			<path fill="#F15A55" d="M153.18,729.6c8.3-94.86-1.98-212.79-1.98-212.79c-52.62,40.49-81.76,144.07-95.9,212.79H153.18z"/>
			<g>
				<path fill="#FEC761" d="M209.12,93.34l54.43,219.03c24.67-18.59,54.02-31.99,69.1-38.31c0.38-1.37,0.72-2.69,1.06-4.01
					c25.34-96.53,24.14-199.12,24.14-199.12s104.18,60.34,82.64,203.44c-21.05,139.97,7.11,146.62,8.12,148.25
					c0,0-169.16,104.03-284.7,9.12c16.74-87.15-0.11-43.56-9.38-157.37C145.32,160.57,209.12,93.34,209.12,93.34z"/>
				
					<rect x="253.85" y="403.28" transform="matrix(-1 -1.224647e-16 1.224647e-16 -1 590.9279 921.4964)" fill="#F8A184" width="83.23" height="114.94"/>
				<path fill="#F8A184" d="M500.05,729.6c0.84-141.99-69.26-205.7-73.19-211.82c-0.21-0.25-0.29-0.4-0.29-0.4l-13.96,22
					c-9.01,15.6-15.26,32.66-18.17,50.45c-0.03,0.16-0.05,0.32-0.08,0.49c-8.36,51.84-3.08,99.74,6.43,139.29H500.05z"/>
				<path fill="#F47A4E" d="M184.82,262.01c-1.67-0.42-19.71-16.78-35.65,2.52c-15.93,19.29,1.26,67.93,13.84,72.97
					c12.58,5.03,23.07,1.26,24.32-2.09C188.59,332.04,184.82,262.01,184.82,262.01z"/>
				<path fill="#F8A184" d="M216.38,120.82c46.28-42.48,115.18-42.48,161.45,0c44.52,40.88,53.49,104.26,52.06,154.92
					c1.43,46.36-12.38,102.71-56.91,140.1c-46.27,38.87-110.33,40.51-156.6,1.64c-44.52-37.4-53.49-95.39-52.06-141.74
					C162.89,225.08,171.85,161.7,216.38,120.82z"/>
				<path fill="#F47A4E" d="M247.56,309.04h-28.12C219.43,309.04,230.74,334.31,247.56,309.04z"/>
				<path fill="#DF8D30" d="M203.92,226.5l-1.1,13.68c0,0-13.77-3.66-33.37,2.64l-0.68-8.68
					C168.77,234.14,189.67,223.27,203.92,226.5z"/>
				<path fill="#DF8D30" d="M301.12,226.5l1.1,13.68c0,0,13.77-3.66,33.37,2.64l0.68-8.68C336.26,234.14,315.36,223.27,301.12,226.5
					z"/>
				<path fill="#F47A4E" d="M405.31,278.81c-0.09-8.95,5.27-17.07,13.59-20.37c7.9-3.14,17.87-3.93,26.14,6.08
					c15.94,19.29-1.26,67.93-13.84,72.97c-12.58,5.03-18.95-0.09-21.63-2.46C405.12,331.09,405.5,297.98,405.31,278.81z"/>
				<g>
					<path fill="#68423E" d="M248.61,395.02c27.75,0.21,47.24-26.27,45.25-32.5c-0.9-3.44-6.26-2-14.41,0.26
						c-8.1,2.22-18.95,5.23-30.84,5.01c-13.64,0.27-25.88-3.74-34.21-5.92c-6.23-1.66-10.27-2.31-11.04,0.65
						C201.37,368.75,220.85,395.24,248.61,395.02z"/>
					<path fill="#FFFCFD" d="M214.4,361.87l2.81,16.9c27.87,14.55,60.96-0.62,60.96-0.62l1.28-15.37
						c-8.1,2.22-18.95,5.23-30.84,5.01C234.97,368.06,222.73,364.05,214.4,361.87z"/>
				</g>
				<path fill="#F8A184" d="M424.85,729.6c8-73.13,13.03-143.04,10.12-186.59c-2.43-36.47-45.47-57.54-80.05-69.36
					c-75.66-25.86-175.18,16.65-198.97,49.93c-48.4,67.77-40.61,143.83-23.68,206.02H424.85z"/>
				<path fill="#68423E" d="M319.26,259c7.31,0,13.23,5.93,13.23,13.24v17.53c0,7.31-5.92,13.24-13.23,13.24
					s-13.24-5.93-13.24-13.24v-17.53C306.02,264.93,311.95,259,319.26,259z"/>
				<path fill="#68423E" d="M182.5,259c7.31,0,13.23,5.93,13.23,13.24v17.52c0,7.31-5.92,13.24-13.23,13.24s-13.24-5.93-13.24-13.24
					v-17.52C169.27,264.93,175.19,259,182.5,259z"/>
				<path fill="#F15A55" d="M510.53,729.6c-15.11-136.33-80.77-220.81-80.77-220.81c-50.39,47.83-44.71,145.78-30.71,220.81H510.53z
					"/>
				<path fill="#F15A55" d="M428.12,729.6c8.22-76.13,13.31-148.5,10.27-193.92c-2.59-38.88-48.46-61.33-85.31-73.95
					c-6.24-2.12-12.57-3.8-19.01-5.06c0,0-13.79,54.94-63.52,53.67c0,0-20.93-6.69-25.18-50.73
					c-48.05,11.1-89.67,34.87-104.32,55.35c-50.34,70.47-43.57,149.27-26.46,214.64H428.12z"/>
				<polygon fill="#1172BA" points="250.71,445.83 270.55,508.78 223.04,523.92 221.29,456.67 				"/>
				<path fill="#1172BA" d="M270.55,508.78c0,0,63.39-64.06,66.53-62.96c3.14,1.1,25.23,14.92,25.23,14.92l-44.86,74.74
					L270.55,508.78z"/>
				<path fill="#FEC761" d="M294.71,145.13c0,0,37.78,10.63,28.85,80.77l115.62,41.5c0,0,18.18-178.43-120.42-204.32
					c-10.41-1.95-21.3,1.35-30.34,6.86c-4.69,2.86-9.47,6.83-12.96,12.27L294.71,145.13z"/>
				<path fill="#FEC761" d="M258.46,218.52c0,0,5.21-55.86,36.24-73.39L275.46,82.2c0,0-39.16-33.46-101.35,47.46
					c-35.51,46.19-23.79,104.68-23.79,104.68S187.06,244.1,258.46,218.52z"/>
				<g>
					<path fill="#62B0CD" d="M346.8,729.6c5.08-90.51,16.38-183.23,39.56-254.13l-25.5-10.96
						c-24.48,74.89-36.36,171.54-41.63,265.09H346.8z"/>
				</g>
				<g>
					<path fill="#62B0CD" d="M167.38,729.6c4.14-89.19,12.35-180.81,27.79-253.77c-8.03,4.01-16.06,8.02-24.08,12.06
						c-14.81,74.59-23.05,159.84-27.35,241.71H167.38z"/>
				</g>
				<g>
					<path fill="#95CE91" d="M229.86,552.9c-8.59,3.57-16.64,4.77-16.64,4.77c-23.83-33.37,0-58.78,0-58.78
						c4.18,0.77,7.98,1.7,11.43,2.79C224.65,501.67,255.3,531.05,229.86,552.9z"/>
					<path fill="#95CE91" d="M324.15,557.66c0,0-9.43-1.4-18.76-5.69l-0.01-0.01c-23.24-32.86,1.08-47.88,1.6-48.2l0.01-0.01
						c4.82-2,10.53-3.66,17.17-4.88C324.15,498.88,347.98,524.29,324.15,557.66z"/>
					<path fill="#4FB84B" d="M248.7,537.01c-3.23,7.7-11.24,12.73-18.84,15.89c25.44-21.85-5.21-51.22-5.21-51.22
						C247.47,508.88,254.68,522.74,248.7,537.01z"/>
					<path fill="#4FB84B" d="M305.38,551.96c-6.92-3.18-13.79-7.96-16.72-14.95c-5.44-12.99,0.05-25.65,18.31-33.25
						C306.46,504.08,282.15,519.1,305.38,551.96z"/>
					<path fill="#F7C939" d="M289.45,522.81v13.04c0,8.82-7.12,16.2-15.95,16.2h-10.93c-8.83,0-16.3-7.38-16.3-16.2v-13.04
						c0-0.58,0.03-1.14,0.09-1.7c0.89,8.05,7.96,14.51,16.21,14.51h10.93c8.26,0,15.03-6.45,15.86-14.51
						C289.42,521.67,289.45,522.24,289.45,522.81z"/>
					<path fill="#FEF26F" d="M289.36,521.12c-0.84,8.05-7.61,14.51-15.86,14.51h-10.93c-8.26,0-15.32-6.45-16.21-14.51
						c0.89-8.02,7.96-14.16,16.21-14.16h10.93C281.75,506.95,288.52,513.1,289.36,521.12z"/>
				</g>
			</g>
		</g>
	</g>
</g>
</svg>
