<?xml version="1.0" encoding="utf-8"?>
<!-- Generator: Adobe Illustrator 25.2.3, SVG Export Plug-In . SVG Version: 6.00 Build 0)  -->
<svg version="1.1" id="Layer_1" xmlns="http://www.w3.org/2000/svg" xmlns:xlink="http://www.w3.org/1999/xlink" x="0px" y="0px"
	 viewBox="0 0 576 576" enable-background="new 0 0 576 576" xml:space="preserve">
<g>
	<g>
		<defs>
			<circle id="SVGID_1_" cx="288" cy="288" r="288"/>
		</defs>
		<use xlink:href="#SVGID_1_"  overflow="visible" fill="#F9E3D9"/>
		<clipPath id="SVGID_2_">
			<use xlink:href="#SVGID_1_"  overflow="visible"/>
		</clipPath>
		<g clip-path="url(#SVGID_2_)">
			<g>
				<path fill="#3A261D" d="M438.87,300.88c-14.54,30,31.11,159.66,14.65,160.18c-127.86,3.99-81.01-31.69-113.74,18.92
					c-32.73,50.61-193.74,14.54-193.74,14.54s-24.44-25.6-21.71-80.53c2.72-54.93,10.54-101.46,8.18-131.75
					c-2.36-30.29,148.99-115.93,148.99-115.93l164.65,93.5L438.87,300.88z"/>
			</g>
			<g>
				<path fill="#281812" d="M155.23,297.24c0,0-4.54,74.55,14.55,105.46s142.73,46.37,142.73,46.37l39.09-29.1
					c0,0-45.95-25.36-5.08-43.52c9.59-4.26,41.02-13.31,46.35-25.04c11.64-25.59,10.88-58.01,8.75-68.72
					C398.87,269.06,155.23,297.24,155.23,297.24z"/>
			</g>
			<g>
				<path fill="#55B948" d="M211.89,637.58h255.08c-77.14-72.29-78.05-153.01-78.1-153.97c-2.62-47.12-36.37-73.64-98.19-73.64
					c-47.19,0-128.07,45.56-125.45,92.69c0.53,9.59,2.17,58.18,38.18,120.95C206.01,628.13,208.92,632.84,211.89,637.58z"/>
			</g>
			<g>
				<path fill="#FAAF85" d="M198.21,637.58c-5.42-30.07-10.55-68.93-10.55-108.82c0-16.06-13.03-29.09-29.1-29.09
					c-16.06,0-29.09,13.03-29.09,29.09c0,39.61,4.45,77.75,9.62,108.82H198.21z"/>
			</g>
			<g>
				<path fill="#FAAF85" d="M568.94,517.58c-3.06,1.73-5.93,3.32-8.37,4.65c-56.37-22.72-141.06-59.11-162.07-74.11
					c-13.07-9.34-31.24-6.31-40.58,6.76c-9.34,13.07-6.31,31.24,6.76,40.58c35.79,25.56,171.44,79.7,186.79,85.8
					c3.45,1.36,7.09,2.04,10.73,2.04c2.26,0,4.52-0.28,6.74-0.81V517.58z"/>
			</g>
			<g>
				<path fill="#E9996E" d="M568.94,553.58c-18.74,0.33-39.28-4.5-48.71-12.7c-9.66-8.41-8.09-38.67-8.09-38.67l-10.38-4.53
					l-25.81,52.38c46.14,20.51,66.77,27.73,75.52,31.2c3.45,1.36,7.09,2.04,10.73,2.04c2.26,0,4.52-0.28,6.74-0.81V553.58z"/>
			</g>
			<g>
				<path fill="#E9996E" d="M165.24,637.58c-5.03-37.7-3.78-107.28-2.92-137.63c-1.23-0.16-2.48-0.27-3.76-0.27
					c-16.06,0-29.09,13.03-29.09,29.09c0,39.61,4.45,77.75,9.62,108.82H165.24z"/>
			</g>
			<g>
				<path fill="#55B948" d="M466.14,570.18l36.88-75.06c0,0-94.75-41.8-165.21-79.02l-58.06,46.69l34.3,23.91
					c42.13,29.36,111.63,63.6,114.57,65.04L466.14,570.18z"/>
			</g>
			<g>
				<path fill="#55B948" d="M196.09,589.21l2.98-41.71c1.35-18.88,15.4-60.66,24.94-84.29l23.37-47.1c0,0-49.6,9.57-75.78,29.32
					c-55.46,41.82-58.94,137.82-58.94,137.82L196.09,589.21z"/>
			</g>
			<g>
				<path fill="#F3A179" d="M245.56,419.77c15.96-6.21,31.88-9.8,45.13-9.8c1.61,0,3.12,0.09,4.69,0.13
					c1.64,4.29,2.58,8.94,2.58,13.81c0,21.42-17.36,38.79-38.79,38.79c-21.42,0-38.79-17.37-38.79-38.79c0-0.3,0.04-0.59,0.05-0.89
					c15.14-4.63,26.95-6.92,26.95-6.92L245.56,419.77z"/>
			</g>
			<g>
				<path fill="#4BA146" d="M203.42,623.61c2.57,4.48,5.7,9.27,8.65,13.97H466.8c-37.11-34.79-56.52-71.53-66.69-100.39
					c15.95,8.38,27.35,13.99,28.51,14.56l37.53,18.44l36.88-75.06c0,0-77.26-34.08-144.13-68.11c-5.16-3.51-10.94-6.53-17.39-8.98
					c-1.23-0.65-2.47-1.29-3.69-1.94l-0.59,0.47c-2.26-0.74-4.61-1.4-7.02-2.02c-0.43,47.33,25.54,208.47-31.33,189.05
					c-58.47-19.96-99.68-146.59-100.24-172.86c-9.8,4.04-19.42,8.92-27.04,14.68c-55.46,41.82-58.94,137.82-58.94,137.82l73.28,5.23
					C190.62,599.53,196.35,611.29,203.42,623.61z"/>
			</g>
			<g>
				<path fill="#F3A179" d="M354.94,276.07c0,14.23,11.53,25.76,25.76,25.76c14.23,0,25.75-11.53,25.75-25.76
					c0-14.22-11.53-25.75-25.75-25.75C366.48,250.32,354.94,261.85,354.94,276.07z"/>
			</g>
			<g>
				<path fill="#F3A179" d="M259.18,448.16c10.79,0,19.68-8.6,19.98-19.46c1.06-38.82,7.9-55.25,7.97-55.42
					c4.67-10.01,0.27-21.76-9.74-26.43c-10-4.68-21.98-0.2-26.65,9.82c-1.05,2.24-10.28,23.32-11.57,70.94
					c-0.3,11.04,8.41,20.24,19.45,20.53C258.81,448.15,259,448.16,259.18,448.16z"/>
			</g>
			<g>
				<path fill="#E18B5D" d="M244.15,379.37l7.75-11.21l31.77,17.65c-1.42,6.72-2.94,16.28-3.84,29.08
					c-3.55,0.57-7.38,0.98-11.57,1.15c-13.01,0.52-22.09-2.1-28.25-5.24C240.98,397.85,242.52,387.46,244.15,379.37z"/>
			</g>
			<g>
				<path fill="#F3A179" d="M128.3,276.07c0,14.23,11.53,25.76,25.75,25.76c14.23,0,25.76-11.53,25.76-25.76
					c0-14.22-11.53-25.75-25.76-25.75C139.83,250.32,128.3,261.85,128.3,276.07z"/>
			</g>
			<g>
				<path fill="#FAAF85" d="M377.05,170.5c-1.21,46.35,2.73,97.27,3.64,132.73c0.91,35.46-46.37,80.91-99.09,97.27
					c-52.73,16.37-101.82-48.18-110.91-64.54c-9.09-16.36-21.82-48.19-20.91-102.73c0.91-54.55-7.72-134.1,85.01-142.28
					C327.51,82.76,377.96,135.96,377.05,170.5z"/>
			</g>
			<g>
				<path fill="#F3A179" d="M150,251.19c-0.23-5.7-0.33-11.66-0.23-17.96c0.33-19.66-0.56-42.57,2.48-64.21l6.88-27.74
					c4.12-10.66,10.08-20.36,18.72-28.36l181.72,17.99c11.83,13.2,17.79,27.54,17.47,39.6c-0.59,22.69,0.05,46.47,0.97,69
					c-11.73,0.28-59.84,0-99.45-21.66c-45.46-24.85-69.09-64.24-69.09-64.24s7.88,35.15-8.49,64.24
					C191.03,235.55,167.17,245.84,150,251.19z"/>
			</g>
			<g>
				<path fill="#010101" d="M315.88,256.82h-7.78c0,0,2.88-34.28,20.54-36.63c17.65-2.34,21.34,33.74,21.34,33.74l10.65,1.06
					l-18.11,4.8c0,0,1.07-30.37-11.19-30.37C319.08,229.42,315.88,256.82,315.88,256.82z"/>
			</g>
			<g>
				<path fill="#F3A179" d="M183.41,335.42c16.97,25.45,67.88,54.55,95.16,50.3c27.27-4.24,78.79-44.84,88.49-78.78
					c9.69-33.94-1.21-71.52-1.21-71.52l11.72-8.03c0.96,27.95,2.58,54.66,3.13,75.84c0.91,35.46-46.37,80.91-99.09,97.28
					c-52.73,16.36-101.82-48.19-110.91-64.55c-7.94-14.3-18.65-40.39-20.63-83.12C155.67,273.99,168.34,312.81,183.41,335.42z"/>
			</g>
			<g>
				<path fill="#DE7859" d="M255.06,274.36c-2.32,15.87,1.16,29.23,17.73,28.89c17.26-0.35,19.65-14.82,14.46-30.66
					c-5.59-17.07-8.84-29.38-17.73-28.89C260.63,244.19,257.47,257.95,255.06,274.36z"/>
			</g>
			<g>
				<path fill="#EA8C68" d="M260.18,271.71c-2.1,15.34,1.14,28.26,16.38,27.98c15.87-0.29,18.03-14.28,13.22-29.6
					c-5.19-16.52-8.21-28.42-16.38-27.98C265.22,242.56,262.34,255.85,260.18,271.71z"/>
			</g>
			<g>
				<path fill="#FFFFFF" d="M303.89,321.32c0,0-9.26,2.31-33.59,2.7c-24.32,0.39-35.52-2.32-35.52-2.32s8.11,35.52,35.9,35.52
					C298.48,357.22,303.89,321.32,303.89,321.32z"/>
			</g>
			<g>
				<path fill="#EA8C68" d="M303.89,321.32c0,0-13.51-4.38-34.55-4.38c-21.04,0-34.55,4.76-34.55,4.76s15.18,6.83,34.55,6.31
					C288.7,327.49,303.89,321.32,303.89,321.32z"/>
			</g>
			<g>
				<path fill="#EA8C68" d="M303.89,321.32c0,0-6.69,38.09-33.72,38.34c-27.03,0.26-35.39-37.97-35.39-37.97
					s14.02,24.84,35.59,24.84C289.21,346.54,303.89,321.32,303.89,321.32z"/>
			</g>
			<g>
				<path fill="#3A261D" d="M187.63,114.51c0,0,4.87-80.9,96.69-82.72c91.82-1.82,180.91,88.18,180.91,159.09s-26.37,110-26.37,110
					s-5.45-42.73-52.72-56.36C338.87,230.88,240.36,205.43,187.63,114.51z"/>
			</g>
			<g>
				<path fill="#3A261D" d="M132.46,265.16c0,0,52.77-34.65,66.41-81.01c13.63-46.37-8.18-78.73-8.18-78.73
					s-42.71-17.03-71.36,41.94S132.46,265.16,132.46,265.16z"/>
			</g>
			<g>
				<path fill="#4D352B" d="M298.87,178.15c-36.43-12.5-86.02-51.9-109.63-73.78c1.85-8.41,5.82-20.94,14.08-33.25
					c46.85-27.29,102.14-32.32,155.56-2.98c64.55,35.46,75.45,130.91,75.45,130.91S359.78,199.06,298.87,178.15z"/>
			</g>
			<g>
				<path fill="#4D352B" d="M181.6,122.69c0,0,8.18,57.27-17.28,89.09c-25.45,31.82-32.72,33.64-32.72,33.64
					S94.32,138.15,181.6,122.69z"/>
			</g>
			<g>
				<path fill="#4C2B1B" d="M203.38,209.07l-4.78-5.48c10.98-9.61,27.39-5.81,28.09-5.65l-1.7,7.07l0.85-3.54l-0.84,3.54
					C224.87,204.99,211.52,201.95,203.38,209.07z"/>
			</g>
			<g>
				<path fill="#F39D70" d="M334.93,286.64c0,5.86,6.78,10.61,15.15,10.61c8.37,0,15.15-4.74,15.15-10.61s-6.78-10.61-15.15-10.61
					C341.71,276.03,334.93,280.78,334.93,286.64z"/>
			</g>
			<g>
				<path fill="#F39D70" d="M176.14,286.64c0,5.86,6.78,10.61,15.15,10.61c8.37,0,15.15-4.74,15.15-10.61s-6.78-10.61-15.15-10.61
					C182.92,276.03,176.14,280.78,176.14,286.64z"/>
			</g>
			<g>
				<path fill="#E58A61" d="M387.96,261.79c0,0,8.79,4.24,8.79,13.33c0,9.09-7.58,12.42-7.58,12.42S395.23,274.52,387.96,261.79z"/>
			</g>
			<g>
				<path fill="#E58A61" d="M146.14,261.79c0,0-8.78,4.24-8.78,13.33c0,9.09,7.58,12.42,7.58,12.42S138.87,274.52,146.14,261.79z"/>
			</g>
			<g>
				<path fill="#F4A187" d="M272.88,282.97c1.16-3.5,11.36-2.21,10.77,2.77C283.05,290.73,270.42,290.37,272.88,282.97z"/>
			</g>
			<g>
				<path fill="#010101" d="M231.39,256.82h7.77c0,0-2.88-34.28-20.53-36.63c-17.65-2.34-21.34,33.74-21.34,33.74l-10.66,1.06
					l18.12,4.8c0,0-1.06-30.37,11.19-30.37S231.39,256.82,231.39,256.82z"/>
			</g>
			<g>
				<path fill="#E9996E" d="M177.94,637.58c6.04-4.65,13.7-7.64,18.65-9.22c-1.32-7.92-2.6-16.32-3.75-25.12l-57.97,5.68
					c1.29,10.1,2.73,19.64,4.24,28.66H177.94z"/>
			</g>
		</g>
	</g>
</g>
</svg>
