<?xml version="1.0" encoding="utf-8"?>
<!-- Generator: Adobe Illustrator 25.2.3, SVG Export Plug-In . SVG Version: 6.00 Build 0)  -->
<svg version="1.1" id="Layer_1" xmlns="http://www.w3.org/2000/svg" xmlns:xlink="http://www.w3.org/1999/xlink" x="0px" y="0px"
	 viewBox="0 0 576 576" enable-background="new 0 0 576 576" xml:space="preserve">
<g>
	<g>
		<defs>
			<path id="SVGID_1_" d="M576,288c0,159.06-128.94,288-288,288C128.94,576,0,447.06,0,288S128.94,0,288,0
				C447.06,0,576,128.94,576,288z"/>
		</defs>
		<use xlink:href="#SVGID_1_"  overflow="visible" fill="#F9E3D9"/>
		<clipPath id="SVGID_2_">
			<use xlink:href="#SVGID_1_"  overflow="visible"/>
		</clipPath>
		<g clip-path="url(#SVGID_2_)">
			<g>
				<g>
					<path fill="#64C8CB" d="M-9.03,508.96c0.06-4.16,1.05-7.32,1.05-7.32c-6.08,1.73-11.63,2.98-16.85,3.87
						c3.62-0.84,49.6-22.59,68.37-39.92C39.9,469.44,13.5,496.98-9.03,508.96z"/>
					<path fill="#64C8CB" d="M74.52,486.48c-1.1,1.56-4,5.56-7.97,10.71c-4.15,5.4-9.48,12.14-15.2,18.75
						c-1.64,1.88-3.29,3.74-4.98,5.58c-1.68,1.83-3.37,3.65-5.08,5.36c-1.71,1.74-3.39,3.37-5.08,4.93
						c-1.11,1.05-2.22,2.03-3.29,2.96l-0.03-0.03c-2.36-3.14-3.16-5.58-3.16-5.58c-2.11,0.2-4.15,0.4-5.98,0.47
						c3.19-1.74,6.83-3.87,10.76-6.46c9.98-6.56,21.91-16.03,33.7-29.25c0,0,0.03-0.05,0.05-0.05
						C70.37,491.54,72.46,489.08,74.52,486.48z"/>
					<path fill="#93CDCE" d="M117.52,502.77c0,0-0.03,0.13-0.05,0.23v0.03c-0.15,0.47-0.43,1.33-0.81,2.49
						c-0.18,0.58-0.4,1.25-0.65,2.01c-0.25,0.73-0.53,1.51-0.83,2.37c-1.48,4.27-3.59,9.98-6.16,15.78
						c-0.75,1.74-1.55,3.5-2.39,5.21c-0.3,0.58-0.58,1.16-0.85,1.71c-0.55,1.13-1.13,2.24-1.76,3.31c0,0.03,0,0.03,0,0.03
						c-2.09,3.8-4.32,7.24-6.64,9.88h-0.03v-0.03c-3.11-2.69-4.12-5.41-4.12-5.41c-4.5,1.61-8.64,2.84-12.57,3.82
						c4.43-2.87,9.98-6.99,15.73-12.54c2.03-2.01,4.1-4.17,6.16-6.51c0.75-0.83,1.48-1.68,2.16-2.56c0.23-0.23,0.4-0.48,0.58-0.71
						c0.75-0.9,1.46-1.81,2.14-2.76c0.83-1.06,1.63-2.16,2.39-3.29c0.81-1.13,1.59-2.29,2.31-3.49c0.73-1.1,1.44-2.26,2.06-3.42
						C115.38,506.94,116.49,504.91,117.52,502.77z"/>
				</g>
				<path fill="#C7E0D1" d="M51.35,515.94c5.73-6.61,11.05-13.35,15.2-18.75c-6.53,13.22-11.68,29.23-14.62,48.63
					c-10.13-2.01-15.88-7.04-19-11.06l-0.03-0.03c1.1-0.93,2.21-1.91,3.32-2.94c1.68-1.56,3.37-3.19,5.08-4.93
					c1.68-1.71,3.39-3.52,5.08-5.36C48.05,519.69,49.71,517.83,51.35,515.94z"/>
				<path fill="#C7E0D1" d="M153.25,435.07c-14.72,1.51-59.2,10.13-84.99,58.81c-0.03,0-0.03,0.03-0.03,0.03
					c-11.81,13.24-23.75,22.72-33.72,29.28c-3.93,2.57-7.56,4.71-10.76,6.43c-28.22,1.56-32.75-11.81-32.8-20.65
					c17.62-9.35,37.57-28.2,47.19-37.82c0.4-0.4,0.78-0.78,1.13-1.13c0.36-0.35,0.68-0.68,1.01-1.01c0.63-0.66,1.18-1.23,1.66-1.71
					c0.48-0.5,0.88-0.93,1.21-1.25c0.15-0.15,0.27-0.31,0.4-0.43c-18.47,17.04-63.33,38.38-68.19,39.86
					c-0.07,0.03-0.15,0.03-0.2,0.05c-0.07,0-0.07,0-0.07,0c-57.76,10.03-58.81-27.74-58.81-27.74
					c25.74-1.69,76.23-45.12,118.37-74.11h0.03h0.03c30.76-21.21,57.02-34.74,65.92-18.85c5.73,10.18,15.83,21.06,28.02,31.49
					C136.24,422.8,144.66,429.16,153.25,435.07z"/>
				<path fill="#93CDCE" d="M187.36,523.35c9.05-32.99,0.75-57.37-7.46-71.72c19.43,10.91,36.91,18.09,45.51,18.42l11.46,40.29
					C236.86,510.34,215.66,513.51,187.36,523.35z"/>
			</g>
			<g>
				<g>
					<path fill="#64C8CB" d="M553.43,515.44c-0.06-4.16-1.05-7.32-1.05-7.32c6.08,1.73,11.63,2.98,16.85,3.87
						c-3.61-0.84-49.59-22.59-68.37-39.92C504.49,475.92,530.9,503.46,553.43,515.44z"/>
					<path fill="#64C8CB" d="M520.65,536.12c-1.83-0.1-3.87-0.28-5.98-0.48c0,0-0.81,2.46-3.19,5.58c-1.64-1.41-3.32-2.92-5-4.52
						c-0.45-0.43-0.9-0.88-1.36-1.31v-0.03l-0.02-0.03c-0.68-0.65-1.33-1.31-2.01-1.98c-6.76-6.91-13.57-14.93-19.28-22.07
						c-0.93-1.18-1.86-2.33-2.74-3.46c-0.45-0.56-0.88-1.11-1.31-1.66c-1.29-1.63-2.46-3.19-3.55-4.62
						c-0.35-0.48-0.7-0.93-1.05-1.38c-1.01-1.33-1.91-2.53-2.66-3.59l-0.03-0.03c-0.78-1.03-1.4-1.91-1.91-2.61l-0.03-0.03
						c-0.3-0.4-0.53-0.73-0.73-1.01c0.55,0.71,1.13,1.38,1.68,2.07c1.13,1.38,2.29,2.74,3.44,4.07c3.77,4.3,7.56,8.22,11.31,11.79
						c0.88,0.83,1.74,1.66,2.61,2.44c1.14,1.05,2.29,2.06,3.42,3.04c2.92,2.53,5.78,4.85,8.55,6.93v0.03
						c4.22,3.19,8.27,5.93,11.96,8.24C515.63,533.28,518.26,534.82,520.65,536.12z"/>
					<path fill="#93CDCE" d="M463.71,550.67c-3.9-0.98-8.07-2.21-12.54-3.82c0,0-1.01,2.74-4.15,5.43
						c-1.01-1.13-1.99-2.41-2.94-3.81c-0.96-1.38-1.88-2.89-2.81-4.48c-0.6-1.05-1.18-2.13-1.78-3.24
						c-0.88-1.66-1.71-3.39-2.54-5.12c-0.25-0.58-0.53-1.16-0.81-1.74c-0.77-1.74-1.53-3.47-2.24-5.18
						c-2.13-5.13-3.89-9.98-5.13-13.57c-0.27-0.81-0.5-1.53-0.73-2.19v-0.02c-0.23-0.66-0.4-1.23-0.58-1.74
						c-0.18-0.53-0.32-0.96-0.4-1.28c-0.05-0.23-0.12-0.43-0.15-0.56c-0.03-0.05-0.05-0.1-0.05-0.1c1.68,3.37,3.5,6.56,5.38,9.55
						c0.38,0.6,0.75,1.18,1.16,1.75c1.16,1.76,2.33,3.42,3.54,5.03c1.61,2.13,3.24,4.17,4.9,6.03c0.83,0.93,1.64,1.83,2.46,2.71
						C451.31,541.86,458.33,547.18,463.71,550.67z"/>
				</g>
				<path fill="#C7E0D1" d="M469.81,492.89c0.2,0.25,0.43,0.6,0.73,1.01C470.24,493.5,470.01,493.17,469.81,492.89z"/>
				<path fill="#C7E0D1" d="M470.56,493.93c0.51,0.68,1.13,1.56,1.91,2.61C471.69,495.51,471.07,494.63,470.56,493.93z"/>
				<path fill="#C7E0D1" d="M472.5,496.56c0.75,1.03,1.66,2.26,2.66,3.59C474.16,498.83,473.25,497.62,472.5,496.56z"/>
				<path fill="#C7E0D1" d="M506.48,536.7c1.68,1.61,3.37,3.11,5,4.52c-0.88,1.16-2.01,2.39-3.37,3.59c-0.96-3.14-1.94-6.26-3-9.42
					v-0.03C505.57,535.82,506.03,536.27,506.48,536.7z"/>
				<path fill="#C7E0D1" d="M628.09,484.25c0,0-1.05,37.75-58.78,27.75c0,0,0,0-0.08,0c0,0-0.12-0.03-0.2-0.05
					c-1.46-0.45-6.56-2.72-13.47-6.11c-0.73-0.35-1.49-0.73-2.24-1.1c-0.78-0.38-1.56-0.78-2.37-1.18c-2.39-1.2-4.95-2.51-7.56-3.92
					c-0.45-0.23-0.88-0.45-1.33-0.7c-2.21-1.18-4.5-2.42-6.76-3.7c-2.74-1.53-5.53-3.14-8.27-4.75c-2.74-1.63-5.46-3.29-8.1-4.97
					c-6.93-4.43-13.26-9-17.94-13.3c-0.05-0.03-0.1-0.08-0.15-0.12c0.1,0.12,0.23,0.25,0.4,0.4v0.03c0.63,0.66,1.58,1.66,2.87,2.94
					v0.03c0.32,0.32,0.65,0.65,1,1c2.82,2.84,6.74,6.71,11.36,10.96c1.13,1.09,2.34,2.16,3.57,3.27c1.23,1.1,2.51,2.24,3.81,3.37
					c1.29,1.13,2.61,2.26,3.97,3.39c2.04,1.71,4.13,3.39,6.26,5.06c6.36,4.95,12.99,9.55,19.33,12.91
					c-0.03,8.83-4.55,22.22-32.77,20.66c-2.39-1.31-5.02-2.81-7.86-4.6c-3.69-2.31-7.74-5.05-11.96-8.24v-0.03
					c-17.51-46.57-46.77-90.7-94.95-92.43c3.42-2.64,6.71-5.33,9.88-8.05c12.19-10.4,22.29-21.28,28.02-31.46
					c8.87-15.88,35.16-2.37,65.92,18.85h0.03h0.03C551.86,439.14,602.38,482.54,628.09,484.25z"/>
				<path fill="#93CDCE" d="M357.05,529.84c-28.3-9.85-49.53-13.04-49.53-13.04L319,476.54c8.6-0.32,26.09-7.51,45.51-18.42
					C356.29,472.47,348,496.84,357.05,529.84z"/>
			</g>
			<path fill="#93CDCE" d="M187.36,523.35c-3.67,1.26-7.44,2.65-11.28,4.15c-9.2,3.54-18.9,7.79-28.7,12.84
				c-29.91,15.3-43.85,10.61-49.99,5.45c2.31-2.64,4.55-6.08,6.64-9.88c0,0,0,0,0-0.03c0.63-1.08,1.21-2.18,1.76-3.31
				c0.27-0.55,0.55-1.13,0.85-1.71c0.83-1.71,1.64-3.47,2.39-5.21c2.57-5.8,4.68-11.51,6.16-15.78c0.32-0.86,0.58-1.64,0.83-2.37
				c0.25-0.75,0.47-1.43,0.65-2.01c0.4-1.18,0.66-2.03,0.81-2.49V503c0.03-0.1,0.05-0.2,0.07-0.25l-0.02,0.03
				c-1.03,2.14-2.14,4.17-3.32,6.13c-0.65,1.18-1.36,2.31-2.06,3.42c-0.75,1.18-1.53,2.36-2.31,3.49c-0.78,1.13-1.58,2.22-2.39,3.29
				c-0.7,0.96-1.41,1.86-2.14,2.76c-0.18,0.23-0.35,0.48-0.58,0.71c-0.7,0.88-1.43,1.73-2.16,2.56c-2.06,2.34-4.13,4.5-6.16,6.51
				c-5.75,5.55-11.31,9.67-15.73,12.54c-12.19,3.02-21.56,3.09-28.74,1.64c2.94-19.41,8.09-35.41,14.62-48.63
				c3.97-5.15,6.86-9.15,7.97-10.71c-2.06,2.59-4.15,5.06-6.26,7.39c25.79-48.68,70.27-57.3,84.99-58.81
				c8.85,6.08,17.95,11.69,26.65,16.57C188.11,465.98,196.4,490.36,187.36,523.35z"/>
			<path fill="#93CDCE" d="M508.11,544.82c-6.79,6.08-19.93,11.91-44.41,5.86c-5.38-3.5-12.39-8.82-19.41-16.34
				c-0.83-0.88-1.63-1.78-2.46-2.71c-1.66-1.86-3.29-3.9-4.9-6.03c-1.21-1.61-2.39-3.27-3.54-5.03c-0.4-0.58-0.78-1.16-1.16-1.75
				c-1.88-3-3.7-6.19-5.38-9.61c0,0,0.03,0.1,0.05,0.15c-0.03-0.05-0.05-0.07-0.07-0.12c0.05,0.12,0.1,0.35,0.22,0.68
				c0.08,0.32,0.23,0.75,0.4,1.28c0.15,0.5,0.35,1.08,0.58,1.74v0.02c0.2,0.66,0.45,1.41,0.73,2.19c1.23,3.59,3,8.44,5.13,13.57
				c0.7,1.71,1.46,3.44,2.24,5.18c0.28,0.58,0.55,1.16,0.81,1.74c0.81,1.73,1.66,3.46,2.54,5.12c0.58,1.11,1.18,2.19,1.78,3.24
				c0.93,1.59,1.86,3.09,2.81,4.48c0.96,1.4,1.94,2.68,2.94,3.81c-6.11,5.1-20.06,9.85-50.02-5.48
				c-9.77-5.02-19.48-9.27-28.67-12.84c-3.87-1.48-7.62-2.86-11.28-4.12c-9.05-32.99-0.75-57.37,7.46-71.73
				c13.65-7.64,28.22-17.11,41.37-27.31c48.18,1.74,77.43,45.86,94.95,92.43c-2.76-2.09-5.63-4.4-8.55-6.93
				c-1.13-0.98-2.28-1.99-3.42-3.04c-0.88-0.78-1.73-1.61-2.61-2.44c-3.74-3.57-7.54-7.49-11.31-11.79
				c-1.16-1.33-2.31-2.69-3.44-4.07c-0.55-0.68-1.13-1.36-1.68-2.07c0.2,0.28,0.43,0.6,0.73,1.01l0.03,0.03
				c0.51,0.7,1.13,1.59,1.91,2.61l0.03,0.03c0.75,1.06,1.66,2.26,2.66,3.59c0.35,0.45,0.7,0.9,1.05,1.38
				c1.09,1.43,2.26,2.99,3.55,4.62c0.42,0.55,0.85,1.1,1.31,1.66c0.88,1.13,1.78,2.29,2.74,3.46c5.71,7.14,12.52,15.16,19.28,22.07
				c0.68,0.68,1.33,1.33,2.01,1.98l0.02,0.03v0.03C506.18,538.56,507.16,541.68,508.11,544.82z"/>
			<path fill="#EBAE76" d="M179.39,591.95c2.84-44.57,17.22-87.85,37.43-121.05c7.08-11.55,17.85-20.35,31.03-26.7
				c1.68,0.14,3.39,0.25,5.27,0.34c27.73,4.84,50.8,11.55,69.91,19.59c-15.3-9.75-33.51-19.13-55.18-27.93
				c-1.79-0.49-3.43-0.96-5.06-1.47c-14.23,3.4-26.62,9.71-35.98,19.5c-32.4,34.05-59.7,84.24-68.46,137.7H179.39z"/>
			<path fill="#EAC19B" d="M369.38,591.95c-3.07-34.52-14.69-78.92-46.34-127.81c-19.12-8.04-42.18-14.75-69.91-19.59
				c-1.88-0.1-3.59-0.2-5.27-0.34c-13.19,6.35-23.95,15.14-31.03,26.7c-20.21,33.2-34.59,76.48-37.43,121.05H369.38z"/>
			<path fill="#E69B79" d="M368.06,591.95h38.67c4.17-17.32,5-35.33,0.55-52.6c-20.43-79.09-114.65-95.01-114.65-95.01l-24.75-8.12
				C340.33,485.15,362.92,545.55,368.06,591.95z"/>
			<path fill="#E99723" d="M185.58,129.31c1.94-12.75-13.87-43.61-37.13-28.78c-14.88,9.48-8.69,27.45-8.69,27.45
				c4.15,14.85,19.13,1.81,19.13,1.81c-19.31-2.68-5.63-18.14-5.63-18.14l0,0c4.11-2.29,8.66-2.12,12.86,3.94
				c14.07,20.31-13.53,32.74-14.41,33.27l32.01,2.52C183.71,151.39,183.64,142.06,185.58,129.31z"/>
			<path fill="#E99723" d="M159.77,188.53c0,0-71.49-16.01-69.58,39.16c1.9,55.18,107.67,72.25,107.67,72.25l234.98,36.02
				c0,0,111.66-50.09,25.89-98.28C372.98,189.5,159.77,188.53,159.77,188.53z"/>
			<path fill="#EEB41E" d="M172.02,195.21c0,0-64.75-14.5-63.02,35.48c1.72,49.97,97.53,65.44,97.53,65.44l212.84,32.62
				c0,0,101.14-45.38,23.45-89.02C365.14,196.09,172.02,195.21,172.02,195.21z"/>
			<g>
				<path fill="#EAC19B" d="M393.02,314.51c0,0,56.9-59.01,73.4-21.7c16.5,37.32-8.64,85.99-38.75,83.69
					c-30.1-2.31-44.5-16.65-44.5-16.65L393.02,314.51z"/>
				<path fill="#E6895D" d="M457.6,308.49c0,0-24.29-0.54-20.42,10.79c3.87,11.33,16.39,23.28-6.55,30.03
					c-22.94,6.75-3.41-1.26-4.5-11.08c-1.09-9.82-14.75-11.87-10.4-20.05C420.09,310.01,439.45,292.83,457.6,308.49z"/>
			</g>
			<g>
				<path fill="#EB9E58" d="M178.71,281.01c0,0-49.87-65.05-70.49-29.84c-20.61,35.21-1.12,86.41,29.06,87.52
					c30.17,1.1,46.1-11.52,46.1-11.52L178.71,281.01z"/>
				<path fill="#CF7B55" d="M115.22,267.74c0,0,24.2,2.21,19.07,13.03c-5.13,10.82-18.91,21.28,3.12,30.58
					c22.03,9.29,3.53-0.87,5.72-10.51c2.19-9.63,15.99-10.13,12.59-18.74C152.33,273.48,135.02,254.24,115.22,267.74z"/>
			</g>
			<path fill="#EB9E58" d="M403.07,321.31c-2.6,37.32,24.29,62.92-18.39,112.45c-42.7,49.53-146.03,41.7-210.56-2.59
				c-49.72-34.08-42.1-76.26-26.1-107.59c-11.41,29.91-12.1,66.62,30.68,97.13c62.9,44.87,163.41,53.04,204.77,3.24
				c41.36-49.83,15.14-75.73,17.56-113.34c1.88-29.28,19.89-61.05,27.72-73.66l6.85,5.66C435.59,242.62,405.68,284.02,403.07,321.31
				z"/>
			<path fill="#EAC19B" d="M401.02,310.62c-2.42,37.61,23.81,63.51-17.56,113.34c-41.36,49.8-141.86,41.63-204.77-3.24
				c-45.43-39.79-8.23-116.61,4.31-141.67c12.52-25.07,3.67-59.25,2.07-69.24l-29.43-5.43c-0.12-0.39-0.19-0.68-0.19-0.9l7.6-2.68
				l155.55-54.85l110.15,91.01C420.92,249.57,402.9,281.34,401.02,310.62z"/>
			<path fill="#EEB41E" d="M133.41,202.67l8.62,5.52c-3.91-1.93-6.01-3.05-6.01-3.05S135,204.28,133.41,202.67z"/>
			<path fill="#EEB41E" d="M436.29,257.24l8.2-3.43C441.01,255.4,438.13,256.55,436.29,257.24z"/>
			<path fill="#E99723" d="M259.27,87.95c-74.78-28.08-63.39,62.3-63.39,62.3c-27.07-21.13-44.59-12.66-44.59-12.66
				c-49.09,31.05-10.05,69.82-9.26,70.6l-8.62-5.52c-6.77-6.81-23.51-27.11-11.96-51.84c14.42-30.94,41.51-25.56,61.9-15.44
				c-0.99-6.8-0.13-14.98,3.31-24.86C203.1,63.34,237.81,71.75,259.27,87.95z"/>
			<path fill="#E99723" d="M434.95,182.36c0.53-1.59,7.48-23.79,2.11-47.33c-5.58-24.44-69.04-14.26-69.04-14.26
				c11.18-8.46,10.59-29.31,10.59-29.31c-1.51-32.7-55.8-41.76-90.81-44.17c22.91-6.97,55.38-2.54,81.81,10.83
				c29.24,14.77,30.11,38.98,22.47,54.38C457.75,108.19,447.48,153.91,434.95,182.36z"/>
			<path fill="#E99723" d="M459.33,245.82c1.96-1.51,19.47-15.64,17.91-40.49c-1.59-24.83-37.7-23.25-41.89-23.01
				c11.31-3.34,29.91-6.57,38.47,4.07C496.03,213.94,477.76,234.05,459.33,245.82z"/>
			<path fill="#E99723" d="M472.95,228.25c-4.92,10.6-12.39,16.62-13.62,17.57c-0.13,0.09-0.19,0.14-0.19,0.14
				c-5.17,3.28-10.39,5.93-14.65,7.85l-8.2,3.43l-0.47,0.19c-1.07,0.38-1.67,0.57-1.67,0.57c-66.09,27.15-157.66,4.03-221.83-19.61
				C276.96,252.88,417.46,276.95,472.95,228.25z"/>
			<g>
				<path fill="#BF2847" d="M121.05,591.95c-18.05-32-27.49-64.57-19.15-93.65c-15.8,28.21-11.18,60.86,4,93.65H121.05z"/>
				<path fill="#D72A4F" d="M444.98,591.95c3.81-6.35,7.3-12.71,10.33-19.05c6.84-19.23,9.07-38.08,4.62-55.6
					c-0.75-3.02-1.74-6-2.91-8.94c-0.03,10.15-2.11,20.63-5.81,31.27c-6.03,17.35-16.37,35.09-28.95,52.33H444.98z"/>
				<path fill="#D72A4F" d="M163.1,591.95c-27.63-40.13-43.31-83.11-22.99-118.18c0,0,0-0.03,0-0.05
					c4.35-7.49,10.35-14.63,18.22-21.28c-3.7,1.28-7.47,2.89-11.31,4.82c-2.89,1.43-5.8,3.09-8.79,4.95
					c-17.16,10.76-28.95,22.95-36.32,36.09c-8.34,29.08,1.09,61.65,19.15,93.65H163.1z"/>
				<path fill="#E74662" d="M422.26,591.95c20.28-27.81,34.68-56.9,34.76-83.6c-5.92-14.82-17.16-28.41-35-40.33
					C336.99,411.36,278.5,531.4,278.5,531.4s-45.27-104.9-120.17-78.98c-44.72,37.86-28.72,90.8,4.84,139.52H422.26z"/>
				<path opacity="0.25" fill="#FFFFFF" d="M403.44,498.03c5,13.48-6.02,30.67-24.62,38.4c-18.6,7.72-37.74,3.06-42.74-10.42
					c-5-13.47,6.02-30.66,24.62-38.39C379.29,479.89,398.43,484.55,403.44,498.03z"/>
				<path opacity="0.25" fill="#FFFFFF" d="M420.68,490.86c7.56,20.38-9.1,46.38-37.23,58.05c-28.13,11.68-57.07,4.63-64.63-15.74
					c-7.57-20.38,9.1-46.37,37.23-58.05S413.11,470.48,420.68,490.86z"/>
			</g>
			<path fill="#EAC19B" d="M147.02,457.26c-2.74,1.88-5.35,3.77-7.84,5.63l3.67-5.35c1.84-0.43,3.67-0.83,5.5-1.18
				C147.9,456.66,147.47,456.96,147.02,457.26z"/>
			<g>
				<path fill="#8B491F" d="M315.47,411.92c-1.53,2.04-3.31,3.93-5.46,5.85c-9.49,9.82-23.42,17.95-38.66,14.91
					c-10.48-2.07-20.97-6.07-29.25-14.51c-0.03,0.18-0.03,0.18-0.16-0.08c-6.41-6.42-11.78-15.54-14.38-27.77c0,0-4.13-10,5.87-9.61
					c1.66-0.05,3.86,0.36,6.58,1.19c17.65,5.27,42.98,11.01,62.06,7.73c11.78-1.84,17.96,2,18.74,8.03
					C321.47,401.67,319.48,407,315.47,411.92z"/>
				<path fill="#FFFFFF" d="M320.8,397.65c-21.37,12.95-49.33,13.31-68.22,2.34c-11.1-6.19-16.5-13.58-19.16-19.29
					c1.66-0.05,3.86,0.36,6.58,1.19c17.65,5.27,42.98,11.01,62.06,7.73C313.84,387.78,320.02,391.61,320.8,397.65z"/>
				<path fill="#F16162" d="M310.01,417.77c-9.49,9.82-23.42,17.95-38.66,14.91c-10.48-2.07-20.97-6.07-29.25-14.51
					C255.44,413.91,287.05,406.92,310.01,417.77z"/>
			</g>
			<path fill="#F08F84" d="M233.28,363.22c-2.37,7.4-18.46,9.18-35.94,4c-17.48-5.19-29.72-15.39-27.34-22.79
				c2.37-7.4,18.46-9.18,35.94-3.99C223.41,345.63,235.65,355.83,233.28,363.22z"/>
			<path fill="#F08F84" d="M321.15,376.32c0.97,7.7,16.47,12.41,34.6,10.52c18.13-1.89,32.03-9.67,31.06-17.37
				c-0.97-7.71-16.47-12.42-34.59-10.53C334.08,360.83,320.17,368.61,321.15,376.32z"/>
			<path fill="#E6875A" d="M288.6,280.71c-2.7,1.95-19.32,38.35-7.87,52.04c11.45,13.69,26.19,9.27,25.2,19.69
				c-0.99,10.41-18.78,16.88-18.78,16.88s29.06-4.89,25.27-19.22c-3.99-15.12-22.83-11.59-29.61-21.47
				C277.87,321.45,288.6,280.71,288.6,280.71z"/>
			<g>
				<path fill="#C36149" d="M195.19,337.04c-0.16,1.68-1.64,2.91-3.32,2.76c-1.68-0.16-2.91-1.64-2.76-3.32
					c0.16-1.68,1.64-2.91,3.32-2.76C194.11,333.88,195.35,335.36,195.19,337.04z"/>
				<path fill="#C36149" d="M203.43,348.53c-0.1,1.14-1.11,1.98-2.25,1.87c-1.14-0.11-1.98-1.12-1.87-2.26
					c0.1-1.14,1.11-1.98,2.25-1.87C202.7,346.38,203.54,347.39,203.43,348.53z"/>
				<path fill="#C36149" d="M218.93,344.27c-0.15,1.62-1.59,2.81-3.2,2.66c-1.62-0.15-2.81-1.58-2.66-3.2
					c0.15-1.62,1.59-2.81,3.2-2.66S219.08,342.65,218.93,344.27z"/>
				<path fill="#C36149" d="M213.42,357.11c-0.08,0.87-0.85,1.51-1.72,1.43c-0.87-0.08-1.51-0.85-1.43-1.72
					c0.08-0.87,0.85-1.51,1.72-1.43C212.86,355.47,213.49,356.24,213.42,357.11z"/>
				<path fill="#C36149" d="M214.95,367.15c-0.13,1.35-1.33,2.34-2.67,2.21c-1.35-0.12-2.34-1.31-2.22-2.66
					c0.13-1.35,1.32-2.34,2.67-2.22C214.08,364.61,215.07,365.79,214.95,367.15z"/>
				<path fill="#C36149" d="M198.19,366.14c-0.18,1.92-1.88,3.33-3.8,3.15c-1.92-0.18-3.33-1.88-3.15-3.8
					c0.18-1.92,1.88-3.33,3.8-3.15C196.95,362.52,198.36,364.22,198.19,366.14z"/>
				<path fill="#C36149" d="M179.24,353.95c-0.08,0.87-0.85,1.51-1.72,1.43c-0.87-0.08-1.51-0.85-1.43-1.72
					c0.08-0.87,0.85-1.51,1.72-1.43C178.68,352.31,179.32,353.08,179.24,353.95z"/>
				<path fill="#C36149" d="M231.42,361.84c-0.12,1.2-1.18,2.08-2.37,1.97c-1.2-0.11-2.08-1.18-1.97-2.37
					c0.11-1.2,1.17-2.08,2.37-1.97C230.64,359.58,231.53,360.65,231.42,361.84z"/>
			</g>
			<g>
				<path fill="#C36149" d="M371.22,369.14c-0.16,1.68,1.08,3.16,2.76,3.31c1.68,0.16,3.16-1.08,3.32-2.76
					c0.16-1.68-1.08-3.16-2.76-3.32C372.86,366.23,371.38,367.46,371.22,369.14z"/>
				<path fill="#C36149" d="M358.71,360.32c-0.1,1.14,0.73,2.14,1.87,2.25c1.14,0.11,2.14-0.73,2.26-1.87
					c0.1-1.14-0.73-2.15-1.87-2.26C359.83,358.35,358.82,359.19,358.71,360.32z"/>
				<path fill="#C36149" d="M335.14,362.73c-0.15,1.62,1.04,3.05,2.66,3.2c1.62,0.15,3.05-1.04,3.2-2.66
					c0.15-1.62-1.04-3.05-2.66-3.2S335.29,361.12,335.14,362.73z"/>
				<path fill="#C36149" d="M341.91,375.07c-0.08,0.87,0.56,1.64,1.43,1.72c0.87,0.08,1.64-0.56,1.72-1.43
					c0.08-0.87-0.56-1.64-1.43-1.72C342.76,373.56,342,374.2,341.91,375.07z"/>
				<path fill="#C36149" d="M338.56,384.65c-0.12,1.35,0.87,2.54,2.22,2.66c1.35,0.12,2.54-0.86,2.66-2.22
					c0.12-1.35-0.86-2.54-2.22-2.66C339.88,382.31,338.69,383.3,338.56,384.65z"/>
				<path fill="#C36149" d="M359.73,375.91c-0.18,1.92,1.23,3.61,3.15,3.8c1.92,0.18,3.62-1.23,3.8-3.15
					c0.18-1.92-1.23-3.61-3.15-3.8C361.6,372.59,359.91,374,359.73,375.91z"/>
				<path fill="#C36149" d="M360.91,386.72c-0.08,0.87,0.56,1.64,1.43,1.72c0.87,0.08,1.64-0.56,1.72-1.43
					c0.08-0.87-0.57-1.64-1.43-1.72C361.77,385.21,361,385.85,360.91,386.72z"/>
				<path fill="#C36149" d="M323.35,376.41c-0.11,1.2,0.77,2.26,1.97,2.37s2.26-0.77,2.37-1.97c0.11-1.2-0.77-2.26-1.97-2.37
					C324.52,374.33,323.46,375.22,323.35,376.41z"/>
			</g>
			<path fill="#68BACE" d="M174.2,493.98c20.28,18.08,74.43,55.33,127.77,97.97h51.78C294.9,536.42,205,458.46,158.33,452.42
				c0,0-23.95,4.51-47.44,36.08C110.88,488.5,141.65,464.97,174.2,493.98z"/>
			<path fill="#68BACE" d="M255.35,591.95c52.35-41.57,104.7-77.82,124.42-95.4c32.55-29.02,63.32-5.48,63.32-5.48
				c-23.49-31.56-47.44-36.08-47.44-36.08c-45.6,5.89-133.4,81.19-192.95,136.96H255.35z"/>
			<path fill="#EAC19B" d="M205.47,591.95c0.2-0.84,0.58-1.56,0.58-2.52c0-17.29-35.18-7.24-41.47-15.08
				c-6.28-7.87,15.71-11.01,9.12-29.53c-6.61-18.55-25.13,13.82-32.37,17.89c-4.37,2.49-11.18,7.97-15.86,11.89
				c-21.51-13.69-51.69-42.94-14.6-86.1c-14.6,4.32-37.43,16.49-40.54,50.61c-1.85,20.32,5.2,38.39,14.26,52.84H205.47z"/>
			<path fill="#EAC19B" d="M471.99,591.95c18.17-23.21,21-50.05,6.87-74.65c-9.98-17.31-23.97-24.75-36.79-27.77
				c41.51,49.03,5.02,76.8-18.32,88.39c-3.59-3.12-13.88-11.86-19.76-15.21c-7.23-4.07-25.76-36.44-32.37-17.89
				c-6.58,18.52,15.41,21.66,9.12,29.53c-6.28,7.84-41.47-2.22-41.47,15.08c0,0.96,0.38,1.68,0.58,2.52H471.99z"/>
			<path fill="#EBAE76" d="M84.61,591.95c-9.07-14.45-16.11-32.51-14.26-52.84c3.11-34.13,25.94-46.29,40.54-50.61
				c6.91-8.05,16.18-16.59,28.3-25.61l3.67-5.35c-36.09,8.24-72.27,28.24-82.13,74.01c-5.71,26.53-2.05,46.01,6.29,60.4H84.61z"/>
			<path fill="#E69B79" d="M442.07,489.53c12.82,3.02,26.81,10.46,36.79,27.77c14.14,24.6,11.3,51.44-6.87,74.65h8.17
				c9.1-12.68,14.67-29.37,12.98-51.5c-3.65-47.7-44.56-69.41-81.73-79.54c0.43,0.32,0.83,0.62,1.25,0.96
				C425.17,471.76,434.8,480.96,442.07,489.53z"/>
			<g>
				<path fill="#88C3CF" d="M201.82,467.47c0,0-36.77,42.24,59.9,58.24l-12.38,12.8c0,0-76.11,5.29-91.2-49.45L201.82,467.47z"/>
				<path fill="#D9E6E8" d="M158.14,489.05l27.89-31.71c0,0,56.52-3.43,92.2,60.02l-16.51,8.34
					C261.72,525.71,222.33,475.21,158.14,489.05z"/>
				<path fill="#A5CCD0" d="M340.36,455.93c0,0,44.06,34.56-47.87,68.47l14.56,10.24c0,0,75.75-9.12,80.26-65.73L340.36,455.93z"/>
				<path fill="#D9E6E8" d="M387.32,468.91l-33.35-25.89c0,0-56.16,7.27-79.26,76.29l17.79,5.1
					C292.49,524.4,321.68,467.38,387.32,468.91z"/>
				<path fill="#A5CCD0" d="M248.13,591.95c-8.57-31.47,30.31-36.64,30.31-36.64l-14.37-14.45c0,0-48.93,5.91-38.5,51.09H248.13z"/>
				<path fill="#A5CCD0" d="M330.98,591.95h18.89c-0.61-2.72-1.15-5.5-1.55-8.44c-6.93-50.72-54.42-45.06-54.42-45.06l-9.01,20.5
					C284.89,558.95,321.55,561.48,330.98,591.95z"/>
				<g>
					<path fill="#B3E1E4" d="M295.67,571.76c-0.55,0.22-1.25,0.49-2.06,0.73c-4.7-2.35-9.16-5.06-13.08-8.16
						c-22.71-17.91-2.31-46.97-2.31-46.97s0.11-0.34,0.28-0.96c9.48-1.16,18.96-1.15,23.43,2.39
						C312.53,527.18,301.68,569.23,295.67,571.76z"/>
					<path fill="#88C3CF" d="M293.61,572.49c-8.1,2.53-27.9,5.86-31.16,0.84c-3.59-5.52-22.93-41.62-9.91-51.49
						c0,0,12.97-3.84,25.96-5.44c-0.17,0.61-0.28,0.96-0.28,0.96s-20.4,29.06,2.31,46.97C284.45,567.43,288.91,570.14,293.61,572.49
						z"/>
				</g>
			</g>
			<g>
				<g>
					<polygon fill="#EBAE76" points="191.37,263.72 197.8,314.23 248.12,311.08 257.91,269.31 234.37,264.3 219.64,257.3 
						208.65,257.3 					"/>
					<path fill="#E99723" d="M191.37,263.72c-2.68,2.7,34.79-14.58,60.15,16.99l6.4-11.4C257.91,269.31,221.1,233.73,191.37,263.72z
						"/>
					<g>
						<path fill="#FEEEE9" d="M247.56,307.89c-0.64,13.8-12.46,24.68-26.39,24.31c-13.93-0.36-24.7-11.85-24.05-25.64
							c0.64-13.8,12.46-24.68,26.39-24.31C237.44,282.61,248.2,294.09,247.56,307.89z"/>
						<path fill="#2D7F9D" d="M240.78,312.46c-0.47,9.9-8.94,17.71-18.94,17.44c-9.99-0.26-17.72-8.49-17.25-18.39
							c0.46-9.9,8.94-17.71,18.94-17.45C233.51,294.33,241.24,302.57,240.78,312.46z"/>
						<path fill="#1E5063" d="M228.18,313.69c-0.15,3.09-2.79,5.53-5.92,5.45c-3.12-0.08-5.54-2.65-5.39-5.74
							c0.14-3.09,2.79-5.54,5.91-5.45C225.91,308.02,228.32,310.59,228.18,313.69z"/>
						<path opacity="0.65" fill="#FEEEE9" d="M220.08,303.26c-0.19,4.17-4.56,7.43-9.74,7.3c-5.19-0.14-9.23-3.63-9.03-7.79
							c0.19-4.17,4.56-7.43,9.74-7.29C216.24,295.61,220.28,299.1,220.08,303.26z"/>
					</g>
				</g>
				<path fill="#EC974B" d="M196.92,302.46c0,0,27.54-18.22,50.63,4.14c0,0,2.22-26.8-19.39-30.37
					C211.24,273.45,196.74,282.6,196.92,302.46z"/>
			</g>
			<g>
				<g>
					<polygon fill="#EBAE76" points="385.05,300.9 368.52,333.47 319.64,321.14 324.12,284.14 341.75,277.68 360.08,279.37 
						367.51,282.89 					"/>
					<path fill="#E99723" d="M385.05,300.9c1.05,3.65-23.49-29.52-60.91-14.02l-0.12-13.07C324.02,273.81,373.4,260.31,385.05,300.9
						z"/>
					<g>
						<path fill="#FEEEE9" d="M320.78,318.11c-1.9,13.68,7.71,26.55,21.47,28.75c13.76,2.2,26.46-7.12,28.35-20.8
							s-7.71-26.55-21.48-28.75C335.37,295.11,322.67,304.43,320.78,318.11z"/>
						<path fill="#2D7F9D" d="M326.61,323.85c-1.36,9.81,5.54,19.05,15.41,20.63c9.87,1.57,18.98-5.1,20.34-14.92
							c1.36-9.81-5.54-19.05-15.41-20.62C337.08,307.36,327.96,314.04,326.61,323.85z"/>
						<path fill="#1E5063" d="M338.77,327.36c-0.43,3.07,1.73,5.95,4.82,6.45c3.08,0.49,5.93-1.59,6.36-4.66
							c0.42-3.07-1.74-5.95-4.82-6.45C342.03,322.21,339.19,324.29,338.77,327.36z"/>
						<path opacity="0.65" fill="#FEEEE9" d="M348.64,318.61c-0.58,4.13,3.11,8.14,8.23,8.96c5.12,0.82,9.74-1.87,10.31-6
							c0.57-4.13-3.11-8.14-8.23-8.96C353.82,311.79,349.21,314.47,348.64,318.61z"/>
					</g>
				</g>
				<path fill="#EC974B" d="M371.55,322.07c0,0-23.73-22.97-50.54-5.23c0,0,2.75-26.75,24.64-26.29
					C362.81,290.91,375.37,302.57,371.55,322.07z"/>
			</g>
			<path fill="#64C8CB" d="M74.52,486.48c-1.1,1.56-4,5.56-7.97,10.71c0.55-1.1,1.1-2.19,1.66-3.27c0,0,0.03-0.05,0.05-0.05
				C70.37,491.54,72.46,489.08,74.52,486.48z"/>
			<path fill="#64C8CB" d="M470.54,493.9c-0.3-0.4-0.53-0.73-0.73-1.01c0.55,0.71,1.13,1.38,1.68,2.07
				c1.13,1.38,2.29,2.74,3.44,4.07c3.77,4.3,7.56,8.22,11.31,11.79c0.88,0.83,1.74,1.66,2.61,2.44c1.14,1.05,2.29,2.06,3.42,3.04
				c2.92,2.53,5.78,4.85,8.55,6.93v0.03c1.51,4.02,2.94,8.07,4.28,12.09c-0.68-0.65-1.33-1.31-2.01-1.98
				c-6.76-6.91-13.57-14.93-19.28-22.07c-0.93-1.18-1.86-2.33-2.74-3.46c-0.45-0.56-0.88-1.11-1.31-1.66
				c-1.29-1.63-2.46-3.19-3.55-4.62c-0.35-0.48-0.7-0.93-1.05-1.38c-1.01-1.33-1.91-2.53-2.66-3.59l-0.03-0.03
				c-0.78-1.03-1.4-1.91-1.91-2.61L470.54,493.9z"/>
			<path fill="#EB9E58" d="M178.7,420.72c-42.78-30.51-42.09-67.22-30.68-97.13c4.75-9.35,10.27-17.75,15.25-24.66
				c3.14-4.41,5.21-9.41,6.47-14.8c6.98-30.15-12.03-71.83-14.1-79.75l29.43,5.43c1.6,9.99,10.44,44.17-2.07,69.24
				C170.46,304.11,133.27,380.92,178.7,420.72z"/>
			<path fill="#EEB41E" d="M472.95,228.25c-55.49,48.7-195.99,24.63-260.63,10.14c-33.22-12.24-59.1-24.6-70.27-30.18l-0.02-0.03
				c-0.79-0.78-39.83-39.55,9.26-70.6c0,0,17.52-8.47,44.59,12.66c0,0-11.39-90.37,63.39-62.3c-2.37-21.93,9.93-35.05,28.52-40.67
				c35.01,2.41,89.29,11.48,90.81,44.17c0,0,0.59,20.85-10.59,29.31c0,0,63.46-10.18,69.04,14.26c5.37,23.54-1.59,45.74-2.11,47.33
				c-0.03,0.07-0.03,0.1-0.03,0.1c0.16-0.03,0.29-0.1,0.44-0.14c4.19-0.24,40.3-1.82,41.89,23.01
				C477.82,214.44,475.81,222.1,472.95,228.25z"/>
			<path fill="#E99723" d="M230.16,127c0,0-52.06,25.27-16.74,66.22C213.42,193.22,150.24,153.37,230.16,127z"/>
			<path fill="#E99723" d="M410.44,151.72c0,0,41.43,54.86,0.35,83.27C410.79,234.99,485.2,222.29,410.44,151.72z"/>
			<path fill="#E99723" d="M376.68,115.56c0,0-39.73-66.09-70.98-6.51c-22.41,42.71,39.66,46.9,39.66,46.9s-49.89-17.29-27.72-43.4
				c24.49-28.84,51.28,8.28,51.28,8.28L376.68,115.56z"/>
		</g>
	</g>
</g>
</svg>
