<?xml version="1.0" encoding="utf-8"?>
<!-- Generator: Adobe Illustrator 25.2.3, SVG Export Plug-In . SVG Version: 6.00 Build 0)  -->
<svg version="1.1" id="Layer_1" xmlns="http://www.w3.org/2000/svg" xmlns:xlink="http://www.w3.org/1999/xlink" x="0px" y="0px"
	 viewBox="0 0 576 576" enable-background="new 0 0 576 576" xml:space="preserve">
<g>
	<g>
		<defs>
			<path id="SVGID_1_" d="M576,288c0,159.06-128.94,288-288,288S0,447.06,0,288C0,128.94,128.94,0,288,0S576,128.94,576,288z"/>
		</defs>
		<use xlink:href="#SVGID_1_"  overflow="visible" fill="#F9E3D9"/>
		<clipPath id="SVGID_2_">
			<use xlink:href="#SVGID_1_"  overflow="visible"/>
		</clipPath>
		<g clip-path="url(#SVGID_2_)">
			<polygon fill="#48B4E7" points="138.66,125.69 138.66,108.74 209.06,55.73 327.8,51.8 413.15,88.74 442.98,119.57 410.58,266.51 
				373.78,450.65 183.82,450.65 157.64,296.2 			"/>
			<polygon fill="#C06654" points="427.63,647.79 457.42,445.15 152.22,430.54 172.25,647.79 			"/>
			<polygon fill="#A61F25" points="516.33,647.79 546.21,419.55 457.42,445.15 427.63,647.79 			"/>
			<polygon fill="#ED7E67" points="196.38,412.63 546.21,419.55 457.42,446.54 152.22,431.15 			"/>
			<path fill="#7D1E18" d="M322.95,401.28c1.35-0.27,32.28-5.56,54.17,4.78l-3.18,37.77L322.95,401.28z"/>
			<path fill="#F4A976" d="M230.47,484.87c2.88,5.42,7.27,11.03,13.83,16.49c3.85,3.15,8.47,6.3,13.96,9.3
				c0.17,0.08,0.34,0.19,0.51,0.27c0.4,0.23,0.77,0.43,1.17,0.58c0.4,0.19,0.8,0.34,1.17,0.5c0.7,0.31,1.44,0.5,2.14,0.69
				c0.7,0.2,1.4,0.31,2.07,0.39c0.14,0.07,0.31,0.07,0.44,0.07c8.07,0.84,15.64-4.11,25.95-8.26c1.27-0.5,2.61-0.96,3.98-1.38
				c0.03,0,0.07,0,0.1-0.04c9.67-3,21.79-4.61,30.4-11.22c0.57-2.07,1.03-4.11,1.34-6.15c0.27-1.38,0.47-2.77,0.6-4.11
				c2.07-19.44-5.23-35.63-9.92-43.7c-0.3-0.5-0.57-0.92-0.83-1.35c-1.68-2.77-2.85-4.27-2.85-4.27l0.13-4.88l1.34-53.15
				l-45.67,8.92l-1.1,0.23l-31.91,6.23c0,0,14.06,22.17,0.17,51.5c-0.53,1.11-1.07,2.19-1.71,3.3c-2.48,4.65-5.69,9.49-9.81,14.41
				C225.05,465.62,225.21,474.92,230.47,484.87z"/>
			<path fill="#ED7E67" d="M317.74,468.5c19.25-12.84,36.57-29.39,46-39.08c-4.27-18.11-4.27-63.48-4.27-63.48l-51.06,8.7
				l-1.33,46.32C307.07,420.96,326.09,442.12,317.74,468.5z"/>
			<path fill="#F4A976" d="M228.73,420.29c6.03,11.31-2.3,4.07,11.01,9.1c2.38,0.16,5.32,0.53,8.8,1.12
				c53.05,9.17,84.3-15.44,101.32-47.53s-17.68-51.09-2.62-76.63c15.06-25.55,0.66-104.79,0.66-104.79s11.42-0.57,25.89-0.84
				c-4.19-24.1-17.48-46-37.73-60.02c-67.52-46.68-137.7,27.01-137.7,64.58c0,23.71,23.58,93.42,16.59,122.24
				C207.94,356.33,201.64,369.64,228.73,420.29z"/>
			<path fill="#FFFFFF" d="M323.66,260.72c0,0,0,15.72-10.04,19.43c-10.05,3.71-29.04,3.6-32.53-23.25L323.66,260.72z"/>
			<path fill="#FFFFFF" d="M240.32,265.91c-0.78,3.54-4.41,8.4-7.77,9.78c-1.52,0.63-5.63,0.52-7.14-0.29
				c-7.24-3.92-9.16-12.6-10.96-21.44l27.24-3.93C241.69,250.02,242.34,256.7,240.32,265.91z"/>
			<g>
				<g>
					<path fill="#2A9695" d="M293.13,263.35c0,6.65,5.39,12.04,12.04,12.04c6.65,0,12.04-5.39,12.04-12.04
						c0-6.65-5.39-12.04-12.04-12.04C298.52,251.32,293.13,256.7,293.13,263.35z"/>
					<path fill="#19281F" d="M299.86,263.82c0,2.79,2.27,5.06,5.06,5.06c2.79,0,5.06-2.27,5.06-5.06c0-2.79-2.27-5.06-5.06-5.06
						C302.13,258.76,299.86,261.03,299.86,263.82z"/>
				</g>
				<path opacity="0.85" fill="#EDEEEE" d="M291.7,261.64c0,2.31,1.88,4.19,4.19,4.19s4.19-1.88,4.19-4.19
					c0-2.31-1.88-4.19-4.19-4.19S291.7,259.33,291.7,261.64z"/>
			</g>
			<g>
				<g>
					<path fill="#2A9695" d="M221.97,261.39c0,4.84,3.92,8.76,8.76,8.76c4.84,0,8.77-3.92,8.77-8.76c0-4.84-3.93-8.76-8.77-8.76
						C225.89,252.63,221.97,256.56,221.97,261.39z"/>
					<path fill="#19281F" d="M226.86,261.73c0,2.03,1.65,3.68,3.69,3.68c2.03,0,3.68-1.65,3.68-3.68s-1.64-3.68-3.68-3.68
						C228.51,258.05,226.86,259.69,226.86,261.73z"/>
				</g>
				<path opacity="0.85" fill="#EDEEEE" d="M220.62,259.41c0,1.69,1.36,3.05,3.05,3.05c1.69,0,3.05-1.36,3.05-3.05
					c0-1.68-1.36-3.05-3.05-3.05C221.99,256.36,220.62,257.73,220.62,259.41z"/>
			</g>
			<path fill="#F49252" d="M323.66,260.72l-42.57-3.82c0,0,2.25-19.65,22.93-19.65C323.34,237.25,323.66,260.72,323.66,260.72z"/>
			<path fill="#F26B6A" d="M258.6,236.51c0,0-12.66,11.13-15.5,32.31c-2.84,21.17-13.97,44.75-8.08,50.43
				c5.89,5.67,27.29,0.21,29.69-5.89c2.4-6.12,12.88,7.42,15.06-1.75c2.18-9.17-4.59-15.06-8.52-13.54
				C267.34,299.6,258.6,236.51,258.6,236.51z"/>
			<g>
				<path fill="#813823" d="M300.9,330.6c1.32,9.33-12.76,36.64-43.78,32.74c-30.8-4.07-33-33.93-33-33.93h4.61l67.99,1.19H300.9z"
					/>
				<path fill="#FFFFFF" d="M296.72,330.6c0,4.92-1.76,9.49-5.94,11.54c-11,5.09-51.27,1.53-56.99-1.53
					c-3.52-1.87-4.62-7.29-5.06-11.2L296.72,330.6z"/>
			</g>
			<path fill="#D8745F" d="M255.33,432.25c41.87,0.66,88.47-13.41,106.31-32.25c23.6-24.92,17.65-136.52,13.25-190.54
				c-0.23-2.93-0.6-5.87-1.12-8.75c-1.57,0.03-3.09,0.05-4.56,0.08c0.49,2.86,0.86,5.76,1.1,8.67
				c4.4,54.02,10.35,165.62-13.26,190.54C339.87,418.15,295.96,431.88,255.33,432.25z"/>
			<path fill="#ED7E67" d="M239.72,429.38c0.71,0.26,1.42,0.52,2.15,0.78c11.92,4.17-1.27,1.85,13.19,2.09
				c0.08,0.03,0.16,0.03,0.26,0c40.64-0.36,84.54-14.1,101.73-32.25c23.6-24.92,17.66-136.52,13.26-190.54
				c-0.23-2.9-0.6-5.81-1.1-8.67c-12.24,0.29-21.33,0.76-21.33,0.76s14.41,79.25-0.66,104.79c-15.06,25.54,19.65,44.54,2.63,76.62
				c-14.54,27.41-59.19,46.22-104.92,45.4c-0.16,0.03-0.31,0.03-0.47,0c-7.68-0.16,11.66,3.44,4.07,2.14
				C245.04,429.9,242.11,429.54,239.72,429.38z"/>
			<path fill="#954120" d="M348.1,218.3l6.99,7.05l0.98,70.85l23.04-0.12c0,0,9.59-74.67,4.8-94.31
				c-1.49-6.13-1.89-11.48-1.97-15.98C369.4,190.14,355.55,207.72,348.1,218.3z"/>
			<path fill="#954120" d="M208.39,206.14c0,0,35.37-20.96,49.77-29.26c14.41-8.28,45.85,13.1,52.84,19.65
				c6.78,6.36-0.53-15.86-1.75-17.9l14.62,15.25c27.69-6.57,38.54-23.71,42.68-37.86c-2.62-3.14-5.56-6.68-8.86-10.27
				c0.03,0.08,0.03,0.13,0.03,0.13s-51.08-45.19-96.93-9.82c-44.64,34.45-69,71.99-70.21,73.92c1.73-1.41,29.32-24.42,37.41-29.55
				C226.99,181.31,210.93,195.56,208.39,206.14z"/>
			<path fill="#723316" d="M323.87,193.88l24.23,24.42c7.44-10.58,21.3-28.16,33.85-32.51c-0.18-9.98,1.12-16.09-4.58-18.5
				c-2.39-0.99-6.02-5.48-10.82-11.27C362.41,170.17,351.56,187.31,323.87,193.88z"/>
			<path fill="#6B3013" d="M190.5,210.08c0,0,0.03-0.03,0.08-0.08c1.2-1.94,25.57-39.47,70.21-73.92
				c45.85-35.37,96.93,9.82,96.93,9.82s0-0.05-0.03-0.13c-11.74-12.84-27.66-26.4-47.13-25.2c-34.92,2.2-56.77-7.86-71.18,9.17
				C224.98,146.75,190.05,193.04,190.5,210.08z"/>
			<path fill="#ED7E67" d="M267.34,382.98c0,0-13.75-26.2-56.98-11.79C210.35,371.19,247.69,370.53,267.34,382.98z"/>
			<path fill="#F49252" d="M242.78,253.62c-0.82-0.32-1.8-18.83-17.52-15.55c-11.9,2.48-11.3,16.53-11.3,16.53L242.78,253.62z"/>
			<path fill="#74A3D6" d="M446.36,484.28c0,0,4.51,1.83,11.05,5.82c-2.85-2.86-5.76-5.4-8.62-7.68c-0.29-0.21-0.58-0.45-0.86-0.68
				C447.36,482.47,446.84,483.33,446.36,484.28z"/>
			<path fill="#F4A976" d="M242.73,475.76l5.58,16.77l0.31,0.92l0.15,0.46c0,0-0.03,0.25-0.03,0.58c0.09-0.12,0.18-0.25,0.24-0.4
				c-0.06-0.03,0-0.03,0-0.03c2.03-4.38,4.26-7.97,6.54-10.89C250.49,480.79,246.25,478.27,242.73,475.76z"/>
			<path fill="#ECC21C" d="M135.42,647.79h34.53c-1.52-3.62-3.46-7.28-3.68-10.72c-0.27-3.9-0.72-10.98-1.48-20.11l161.08,14.01
				c1.77,6.34,5.04,11.78,8.83,16.82h9.27c-0.84-1.19-1.89-2.14-2.67-3.39c4.35-12.27,9.72-23.84,15.23-34.26
				c1.62,13.36,3.93,25.53,9.18,37.65h167.1c-20.26-50.9-49.42-123.23-51.9-124.23c-3.81-1.52-34.67-53.41-49.45-52.74l0.04-0.1
				l-15.25-6.71l-57.63-27.85c0,0-0.38-0.48-2.6,3.95c-0.07-0.89-0.12-1.63-0.14-2.11c0-0.46,0-0.73,0-0.73
				c-0.62,0.58-1.26,1.2-1.9,1.77c-7.39,6.75-17.09,13.8-27.67,20.24c-2.39,1.48-4.84,2.91-7.33,4.3
				c-9.57,5.43-19.59,10.27-29.07,13.86l-0.09,0.03c-0.28,0.12-0.55,0.25-0.83,0.34c-10.12,3.8-18.31,8.25-26.59,7.36
				c-0.12,0-0.28,0-0.4-0.07c-0.64-0.06-1.25-0.15-1.9-0.31c-0.65-0.15-1.32-0.31-1.96-0.55c-0.34-0.12-0.71-0.24-1.07-0.4
				c-0.37-0.12-0.71-0.27-1.08-0.46c-0.15-0.06-0.31-0.15-0.46-0.21c-2.27,2.92-4.5,6.51-6.53,10.89c0,0-0.06,0,0,0.03
				c-0.06,0.16-0.15,0.28-0.24,0.4c0-0.34,0.03-0.58,0.03-0.58l-0.15-0.46l-0.31-0.92l-5.58-16.77
				c-6.01-4.35-10.03-8.83-12.67-13.16c-4.82-7.94,8.81-28.12,9.68-33.21c-1.97,2.12-17.96,16.96-20.41,19.07
				c-26.57,22.9-36.19,29.01-59,52.13c-10.87,10.65,1.74,39.57-21.66,82.83C155.61,589.57,132.3,613.3,135.42,647.79z"/>
			<path fill="#ECC21C" d="M340.36,647.79c0.3-1.06,0.64-2.39,0.92-3.37c-3.41-5.43-13.19-13.96-15-20.43l-171.16-7.86
				c0,0-0.39-3.85-4.66,13.96c-1.25,5.19-2.3,11.27-3,17.71H340.36z"/>
			<path fill="#CCCCCC" d="M247.62,264.72c-0.44,0.08-3.38,0.44-8.17,1.06C241.92,264.65,244.67,264.33,247.62,264.72z"/>
			<polygon fill="#E52225" points="323.87,319.91 373.78,279.07 374.37,292.01 339.51,328.9 			"/>
			<g>
				<path fill="#ED6B62" d="M362.59,307.48c-0.79-16.97,6.52-33.31,19.97-43.9c8.74-6.2,19.34-9.37,26.36,0.06
					c11.18,15.65-0.89,55.32-23.63,67.65c-8.3,5.07-17.26,1.19-20.08-8.31C363.93,318.86,362.86,313.67,362.59,307.48z"/>
				<path fill="#E9575C" d="M403.71,284.32c0,0-0.01,8.38-3.02,4.91c-3.02-3.48-12.51-13.45-12.73-3.57
					c-0.22,9.88,7.29,18.17-0.11,23.74c-7.4,5.57-7.64,4.21-9.17,1.2c0,0,7.34-1.64,7.53-6.44c0.19-4.8,2.46-8.14,2.07-8.19
					c-0.38-0.05-5.02-5.25-5.02-5.25l-0.54-9.48l3.6-5.79l12.37-1.12C398.69,274.34,403.81,278.74,403.71,284.32z"/>
				<path fill="#CD394B" d="M393.33,272.54c0,0,12.64,2.79,8.42,12.11c-4.23,9.32,3.73-6.47-6.39-7.13
					c-10.12-0.66-9.34-2.07-11.27,3.37c-1.94,5.45,0.01,8.49,5.1,13.78c5.1,5.3-9.23,20.04-11.05,16.25
					c-1.96-4.09,12.39-9.2,8.68-13.91c-3.72-4.72-8.75-12.77-6.01-17.73C383.54,274.34,390.68,272.04,393.33,272.54z"/>
			</g>
			<polygon fill="#E52225" points="357.72,363.72 375.98,363.72 374.5,376.35 355.2,378.89 			"/>
			<polygon fill="#E52225" points="214.45,295 212.53,316.73 216.7,321.38 221.97,303.98 			"/>
			<g>
				<path fill="#B1AEA1" d="M345.36,406.9c-18.18,18.15-51.09,29.82-88.48,30.92c-29.21,0.9-40.99-26.35-45.63-52.32
					c-5.14-28.61-1.18-58.29,11.04-84.72c0.59-1.33,1.22-2.57,1.81-3.78c8.25-15.97,16.22-30.1,16.22-30.1
					c0.35-0.16,0.66-0.27,1.02-0.39c-1.88,5.47-4.05,11.59-6.13,17.37c-0.47,1.29-1.22,2.54-1.81,3.87
					c-12.21,27.37-16.18,58.01-11.04,87.6c4.63,26.82,16.42,55.01,45.63,54.07C298.66,428.49,326.35,420.21,345.36,406.9z"/>
				<path fill="#CEC9BA" d="M360.28,376.95c-0.83,11.17-6.17,21.32-14.92,29.95c-19.01,13.31-46.69,21.59-77.36,22.53
					c-29.21,0.94-40.99-27.25-45.63-54.07c-5.14-29.6-1.18-60.24,11.04-87.6c0.59-1.33,1.34-2.57,1.81-3.87
					c2.08-5.78,4.24-11.91,6.13-17.37c10.33-3.59,17.75,7.69,26.5,20.54c1.02,7.34,1.1,17.25-2.79,26.9
					c-7.62,18.85,15.94,21.51,48.62,10.07c12.09-4.25,25.4,3.48,37.38,14.88c0.04,0,0.04,0,0.04,0.04
					C358.27,348.85,361.45,361.73,360.28,376.95z"/>
				<path fill="#B1AEA1" d="M351.05,338.89c-11.98-11.4-25.29-19.13-37.38-14.88c-32.68,11.44-56.23,8.79-48.62-10.07
					c3.89-9.64,3.81-19.56,2.79-26.9c9.23,13.62,19.91,29,37.07,30.17C326.39,318.75,341.94,326.4,351.05,338.89z"/>
				<path fill="#D9D5C5" d="M342.02,352.5c0.91,10.86-11.17,20.73-26.99,22.05c-15.82,1.33-29.39-6.41-30.31-17.27
					c-0.92-10.86,11.17-20.74,26.99-22.06C327.53,333.9,341.09,341.64,342.02,352.5z"/>
			</g>
			<g>
				<g enable-background="new    ">
					<g>
						<path fill="#FFFFFF" d="M207.07,647.79c-2.3-4.14-4.52-8.27-6.54-12.39c2.83,4.13,5.82,8.25,8.96,12.39h14.52
							c0.45-0.41,0.86-0.9,1.36-1.23c-0.82-1.42-1.29-3.04-1.27-4.71c0.05-3.18,1.83-5.7,4.35-6.75
							c-4.21-9.79-10.56-10.91-10.56-10.91c0.44,0.01,0.92,0.05,1.36,0.12c6.23,0.97,9.36,7.51,10.55,10.39
							c0.8-0.15,1.64-0.17,2.53-0.04c0.88,0.14,1.74,0.42,2.54,0.81c1.23-2.51,4.68-8.03,11.09-7.05c0.47,0.07,0.96,0.18,1.45,0.32
							c0,0-6.71-0.92-11.22,7.53c2.53,1.81,4.3,4.84,4.38,8.03c0.02,0.79-0.07,1.54-0.26,2.24c6.32-5.61,12.55-11.2,18.59-16.79
							c-7.64-7.06-16.47-12-26-13.5c-19.87-3.23-39.99,10.45-44.82,31.56H207.07z"/>
						<path fill="#803827" d="M219.26,624.32c-0.45-0.07-0.92-0.11-1.42-0.12c0,0,6.4,1.12,10.61,10.91
							c0.12,0.29,0.25,0.58,0.37,0.88c0.49,0.02,0.99,0.04,1.48,0.06c0,0-0.16-0.53-0.49-1.35
							C228.63,631.83,225.5,625.29,219.26,624.32L219.26,624.32z"/>
						<path fill="#803827" d="M245.98,628.43c-6.41-0.98-9.87,4.54-11.09,7.05c-0.35,0.71-0.51,1.18-0.51,1.18
							c0.48,0.13,0.96,0.25,1.45,0.38c0.12-0.27,0.25-0.52,0.38-0.77c4.51-8.44,11.21-7.53,11.21-7.53
							C246.93,628.6,246.45,628.5,245.98,628.43L245.98,628.43z"/>
						<path fill="#E52225" d="M188.1,647.79c4.84-21.11,24.95-34.79,44.82-31.56c9.53,1.51,18.36,6.44,26,13.5
							c0.9-0.84,1.81-1.68,2.7-2.52c2.22,2.55,4.49,5.09,6.81,7.64c-0.85,0.8-1.7,1.59-2.55,2.39c2.6,3.26,4.81,6.84,6.78,10.55
							h7.95c-9.82-20.11-28.48-36.14-47.19-39.25c-23.02-3.86-47.82,13.24-53.07,39.25H188.1z"/>
					</g>
				</g>
			</g>
			<path fill="#954120" d="M200.91,212.49c0.74,1.26,4.35-20.45,20.3-27.18c0,0-13.1-0.39-16.77,4.24
				C200.79,194.19,195.51,203.33,200.91,212.49z"/>
			<path fill="#954120" d="M248.38,228.16l-9.93,19.52c0,0-26.31-11.78-37-5.32l3.8-14.96
				C205.25,227.39,236.17,216.52,248.38,228.16z"/>
			<path fill="#954120" d="M345.77,220.53l1.11,13.09c0,0-40.95-6.28-67.57,12.39l-7.95-24.06
				C271.35,221.96,331.42,208.15,345.77,220.53z"/>
			<g>
				<path fill="#515D4F" d="M375.28,356.32l2.35-2.89l-7.04-5.29c-1.61-2.16-3.41-4.19-5.49-6.02
					c-19.4-16.99-51.98-11.54-72.77,12.19c-20.8,23.73-21.93,56.75-2.53,73.75l15.92,13.95l3.85-4.75c17.68,3,38.28-4.59,53-21.39
					C378.52,397.67,382.85,374.03,375.28,356.32z"/>
				<path fill="#667163" d="M381.01,356.07c19.4,17,18.26,50.02-2.53,73.75c-20.8,23.73-53.37,29.19-72.77,12.19
					c-19.4-17-18.26-50.02,2.53-73.75C329.04,344.53,361.62,339.08,381.01,356.07z"/>
				<path fill="#464F44" d="M364.38,375.06c10.83,9.48,10.2,27.91-1.41,41.16c-11.61,13.24-29.8,16.29-40.62,6.8
					c-10.83-9.49-10.2-27.92,1.41-41.16C335.37,368.62,353.55,365.57,364.38,375.06z"/>
			</g>
			<g>
				<path fill="#515D4F" d="M219.23,369.45c-4.22-22.95-9.74-38.86-13.64-40.69l-0.02-0.14l-0.42,0.03
					c-0.27-0.05-0.53-0.03-0.78,0.07l-31.25,2.43l15.52,105.43l32.8-2.23l-0.07-0.46c0.24-0.22,0.47-0.51,0.69-0.91
					C225.72,426.34,224.46,397.9,219.23,369.45z"/>
				<g>
					<g>
						<path fill="#667163" d="M170.69,332.47c3.67-6.63,10.89,11.04,16.13,39.49c5.23,28.45,6.5,56.9,2.83,63.53
							c-3.67,6.64-10.89-11.04-16.13-39.49C168.29,367.56,167.02,339.11,170.69,332.47L170.69,332.47z"/>
					</g>
				</g>
				<g>
					<g>
						<path fill="#464F44" d="M174.62,353.85c2.14-3.88,6.38,6.46,9.44,23.1c3.06,16.65,3.81,33.29,1.66,37.17
							c-2.14,3.89-6.37-6.45-9.44-23.1C173.22,374.38,172.48,357.74,174.62,353.85L174.62,353.85z"/>
					</g>
				</g>
			</g>
			<path fill="#ECC21C" d="M551.26,647.79c-21.21-82.06-59.09-172.82-123.69-178.82c0,0-79.57,71.52-44.24,178.82H551.26z"/>
			<path fill="#ECC21C" d="M219.32,448.46c0,0,20.96,32.88,37.73,35.39c16.76,2.51,79.96-29.76,79.96-29.76l-8.51,46.02
				l-73.17,23.56l-24.78-10.41L219.32,448.46z"/>
			<path opacity="0.2" fill="#CFE2E0" d="M160.32,238.19l-18.37-124.21c40.52-43.27,105.24-45.82,162.37-36.4
				C262.42,105.58,191.46,161.78,160.32,238.19z"/>
			<path opacity="0.2" fill="#CFE2E0" d="M180.08,371.66c39.7-39.31,164.06-102.56,212.99-126.64
				c-25.37,101.04-56.07,215.39-56.07,215.39l-145.26-9.74l-11.66-78.97C180.08,371.7,180.08,371.7,180.08,371.66z"/>
			<path opacity="0.2" fill="#CFE2E0" d="M423.54,113.98c-1.77,9.7-4.48,22.42-7.86,37.26c-90.63,15.24-207.84,131.78-243.42,167.64
				l-4.39-29.69c22.62-37.38,103.07-158.01,217.26-190.49C408.57,106.96,423.54,113.98,423.54,113.98z"/>
			<path opacity="0.5" fill="#FFFFFF" d="M385.13,98.71C270.94,131.19,190.48,251.82,167.87,289.2l-7.55-51.01
				c31.14-76.41,102.1-132.61,144-160.61C335.11,82.65,363.65,91.17,385.13,98.71z"/>
			<path opacity="0.5" fill="#FFFFFF" d="M415.68,151.25c-5.93,26.31-13.98,59.22-22.62,93.73v0.04
				c-48.93,24.07-173.29,87.33-212.99,126.64l-7.82-52.73v-0.04C207.84,283.03,325.05,166.49,415.68,151.25z"/>
			<path fill="#DBA527" d="M125.49,647.79h28.76l16.23-174.03c-9.89,3.5-19.35,9.38-28.19,16.61l3.38,135.75
				C145.67,626.13,137.39,636.19,125.49,647.79z"/>
			<path fill="#ECC21C" d="M142.29,490.38c-38.21,31.38-64.48,88.23-64.48,88.23c-18.9-19.84-36.47-36.24-52.19-49.75v118.93h99.86
				c11.9-11.6,20.18-21.67,20.18-21.67L142.29,490.38z"/>
			<g>
				<path fill="#1B2B2A" d="M133.02,647.79h19.71c-1.92-25-1.87-52.84,3.57-75.6c8.96-55.89,40.6-110.74,40.81-109.9
					c0.32-1.62-3.65-1.81-3.31-3.44c-21.14,9.77-27.27,29.91-47.13,45.41c-11.18,39.23-22.41,76.07-20.61,118.47
					C128.14,631.01,130.47,639.4,133.02,647.79z"/>
				<path fill="#3B3B3C" d="M142.94,647.79c-3.16-39.02,2.96-78.97,13.72-108.54c17.12-51.55,38.84-80.45,37.13-80.4
					c-10.03,0.32-22.24,9.9-30.6,15.45c-44.95,66.7-45.99,131.75-37.3,173.49H142.94z"/>
			</g>
			<path fill="#E8AC22" d="M132.45,111.35l38.05,362.44c0,0,10.01,41.35,92.04,47.55c82.04,6.17,127.74-69.86,127.74-69.86
				l83.8-340.14C474.07,111.35,269.88-116.39,132.45,111.35z M336.99,460.4l-145.26-9.74l-49.79-336.68
				c86.15-91.97,281.59,0,281.59,0C409.32,191.18,336.99,460.4,336.99,460.4z"/>
			<path fill="#DBA527" d="M489.97,590.51c7.7,20.61,14.25,39.64,19.95,57.28h41.98c-21.54-85.73-60.79-181.24-128.89-181.06
				l-35.71,23.36C389.18,491.94,444.16,467.88,489.97,590.51z"/>
			<g>
				<path fill="#1B2B2A" d="M371.4,647.79h17.93c-4.96-20.71-8.64-44.71-7.11-67.53c3.85-57.46,40.79-113.53,40.79-113.53l-1.7-8.96
					l-61.67,58.59l4.39,118.84L371.4,647.79z"/>
				<path fill="#3B3B3C" d="M380.25,647.79c-31.36-110.55,41.07-190.02,41.07-190.02l-24.55-7.43
					c-70.61,57.81-65.44,143.31-50.04,197.45H380.25z"/>
			</g>
		</g>
	</g>
</g>
</svg>
