<?xml version="1.0" encoding="utf-8"?>
<!-- Generator: Adobe Illustrator 25.2.3, SVG Export Plug-In . SVG Version: 6.00 Build 0)  -->
<svg version="1.1" id="Layer_1" xmlns="http://www.w3.org/2000/svg" xmlns:xlink="http://www.w3.org/1999/xlink" x="0px" y="0px"
	 viewBox="0 0 576 576" enable-background="new 0 0 576 576" xml:space="preserve">
<g>
	<g>
		<defs>
			<path id="SVGID_1_" d="M576,288c0,159.06-128.94,288-288,288s-288-128.94-288-288C0.01,128.94,128.94,0,288,0S576,128.94,576,288
				z"/>
		</defs>
		<use xlink:href="#SVGID_1_"  overflow="visible" fill="#F9E3D9"/>
		<clipPath id="SVGID_2_">
			<use xlink:href="#SVGID_1_"  overflow="visible"/>
		</clipPath>
		<g clip-path="url(#SVGID_2_)">
			<path fill="#F0906B" d="M342.6,485.35c-1.46-10.74-19.38-47.98-38.35-79.72l68.76-41.12c23.03,38.53,50.35,90.78,49.62,120.9
				l-80.09-1.93c-0.03,1.17,0.06,1.85,0.06,1.85V485.35z"/>
			<path fill="#E07E60" d="M376.27,370.04l-69.5,39.88c4.86,8.28,12.41,22.22,16.77,30.5c16.69,0.76,42.74-9.94,74.49-30.62
				C390.79,395.1,384.11,383.38,376.27,370.04z"/>
			<path fill="#F59C7E" d="M418.46,301.19c8.64,60.1-41.08,124.82-113.77,141.14c-70.94,15.93-105.23-10.63-125.71-56.55
				c-10.87-24.39-10.28-60.53-14.03-81.74c-11.96-67.71-44.3-149.48,59.37-177.23c37.22-9.97,104.51-23.21,143.47,15.64
				C404.16,178.71,413.35,265.58,418.46,301.19z"/>
			<path fill="#F0906B" d="M167.99,155.41c-4.4,5.99-15,53.57-17.29,60.35c4.18,0.86,14.35-21.97,19.92-21.07
				C263.65,209.68,344,134.49,344,134.49l-8.07-6.57l-146.27,25C189.67,152.92,179.51,153.79,167.99,155.41z"/>
			<path fill="#F0906B" d="M418.46,301.19c-5.12-35.6-14.3-122.48-50.67-158.75c-7.38-7.36-15.77-12.84-24.79-16.84
				c-19.51,5.68-33.12,9.69-33.12,9.69s43.41,74.89,44.53,153c1.1,77.54-30.56,113.92-65.85,137.17
				c-10.25,6.75-19.1,14.46-27.52,21.3c12.79,0.58,27.2-0.74,43.65-4.43C377.38,426.01,427.1,361.29,418.46,301.19z"/>
			<path fill="#733C4B" d="M396.29,278.55c0,0,72.93-15.06,36.78-127.46c-27.27-84.84-116.07-52.58-116.07-52.58
				s0.49,36.54,9.28,41.03C351.13,152.24,396.29,278.55,396.29,278.55z"/>
			<path fill="#7D4B56" d="M245.08,73.29C81,96.27,137.02,246.65,156.17,260.27c4.71-37.53,11.77-61.71,31.97-81.86
				c111.32,8.84,163.47-70.96,163.47-70.96S311.62,63.97,245.08,73.29z"/>
			<path fill="#010101" d="M298.01,264.07c2.17,12.25-2.73,23.35-10.93,24.81c-8.21,1.46-16.62-7.3-18.79-19.54
				c-2.17-12.25,2.72-23.36,10.93-24.81C287.43,243.07,295.84,251.82,298.01,264.07z"/>
			<path fill="#7D4B56" d="M198.1,410.18c-4.97-20.93,4.4-42.18,31.45-47.7c27.05-5.51,69.29-8.09,77.33,25.23
				c4.12,17.05-1.53,36.88-18.05,55.44c-15.75,17.71-42.31,34.55-42.31,34.55S203.07,431.12,198.1,410.18z"/>
			
				<rect x="256.04" y="225.08" transform="matrix(0.9773 -0.2119 0.2119 0.9773 -42.929 63.6966)" fill="#702D37" width="39.37" height="14.14"/>
			
				<rect x="165.91" y="246.28" transform="matrix(0.998 -0.0632 0.0632 0.998 -15.6633 11.8328)" fill="#702D37" width="26.36" height="14.14"/>
			<path fill="#DE785B" d="M243.55,281.91c-12.5-30.7-27.68-20.47-32.09-5.88c-8.03,26.53-0.84,30.37-15.15,59.96
				c-5.91,12.2-1.37,29.13,25.94,22.36C277.08,344.76,243.55,281.91,243.55,281.91z"/>
			<path fill="#E07E60" d="M241.66,278.04c-12.49-30.7-27.68-20.47-32.1-5.88c-8.02,26.53-0.83,30.37-15.15,59.97
				c-5.91,12.2-1.91,26.35,25.94,22.35C269.4,347.43,241.66,278.04,241.66,278.04z"/>
			<path fill="#EF9173" d="M213.5,347.99c-7.33,1.04-13.75-1.48-14.35-5.64c-0.59-4.16,4.88-8.37,12.2-9.41
				c7.34-1.04,13.76,1.48,14.35,5.64C226.29,342.73,220.83,346.94,213.5,347.99z"/>
			<path fill="#FFFFFF" d="M287.27,272.23c0.72,4.11-1.4,7.91-4.76,8.51c-3.36,0.59-6.67-2.26-7.4-6.36
				c-0.72-4.11,1.4-7.92,4.76-8.52C283.23,265.27,286.54,268.12,287.27,272.23z"/>
			<path fill="#010101" d="M198.99,285.59c2.08,11.72-2.61,22.37-10.47,23.75c-7.86,1.39-15.91-6.98-17.99-18.71
				c-2.08-11.73,2.61-22.37,10.47-23.76C188.87,265.49,196.92,273.87,198.99,285.59z"/>
			<path fill="#FFFFFF" d="M188.83,293.81c0.69,3.93-1.35,7.58-4.56,8.15s-6.38-2.16-7.08-6.09c-0.7-3.94,1.34-7.58,4.56-8.15
				C184.96,287.15,188.13,289.87,188.83,293.81z"/>
			<path fill="#4E1724" d="M222.13,387.77c0,0,12.98-3.36,22.47-3.75c9.49-0.39,14.98,3.87,14.98,3.87S239.3,397.64,222.13,387.77z"
				/>
			<path fill="#F0906B" d="M383.74,279.67c0.1-15.87,14.62-42.96,45.85-36.66c18.18,3.66,22.64,21.28,21.32,37.1
				c-1.47,17.51-18.65,37.86-37.19,37.74C395.16,317.73,383.64,295.54,383.74,279.67z"/>
			<path fill="#E3876A" d="M201.61,204.32c0,0,8.43,2.62,22.14,1.74c13.73-0.87,22.22-9.69,22.22-9.69s-6.92,15.02-21.3,17.9
				C210.29,217.14,201.61,204.32,201.61,204.32z"/>
			<path fill="#733C4B" d="M329.51,90.39c-5.47,10.14-25.25,39.58-73.09,45.53c-57.98,7.21-90.89,18.74-99.73,47.05
				c-6.28,20.12-4.81,54.01-2.13,75.9c0.55,0.55,1.1,1.03,1.61,1.4c4.71-37.53,11.77-61.71,31.97-81.86
				c102,8.11,154.29-58.18,162.33-69.34l0.46-2.31C348.8,104.61,341.45,97.58,329.51,90.39z"/>
			<path fill="#E07E60" d="M410.53,255.59c-4.67,1.38-8.48,4.2-11.22,7.8c1.27-0.63,2.62-1.17,4.04-1.59
				c11.44-3.37,23.13,2.08,26.11,12.17c2.97,10.09-3.89,21-15.34,24.38c-0.14,0.04-0.27,0.04-0.41,0.08
				c3.01,0.42,6.15,0.27,9.25-0.64c11.65-3.43,18.31-15.66,14.88-27.31C434.41,258.82,422.18,252.16,410.53,255.59z"/>
			<path fill="#733C4B" d="M268.03,359.58c36.03,28.31-21.5,118.12-21.5,118.12s26.56-16.85,42.31-34.55
				c16.52-18.56,22.16-38.39,18.05-55.44C302.22,368.4,286.05,361.19,268.03,359.58z"/>
			<path fill="#F9AC8C" d="M321,342.73c-0.6,3.82-8.93,5.68-18.61,4.16c-9.69-1.51-17.05-5.84-16.45-9.65
				c0.59-3.82,8.93-5.68,18.61-4.16C314.23,334.6,321.6,338.92,321,342.73z"/>
			<path fill="#F9AC8C" d="M190.89,364.23c1.01,1.52-0.28,4.17-2.9,5.91c-2.61,1.74-5.55,1.91-6.57,0.39
				c-1.01-1.52,0.29-4.17,2.9-5.91C186.94,362.88,189.88,362.7,190.89,364.23z"/>
			<path fill="#9A6E74" d="M283.81,93.29c0,0-29.94-6.79-57.38-2.1c-27.45,4.69-44.85,21.92-44.85,21.92s21.97-13.54,50.7-16.56
				C261.01,93.53,283.81,93.29,283.81,93.29z"/>
			<path fill="#9A6E74" d="M277.7,102.31c0,0-20.81,13.12-49.83,20.86c-29.02,7.74-43.62,13.39-51.46,20.18
				c-7.83,6.79-12.84,14.59-12.84,14.59s17.71-18.46,35.24-21.33C216.34,133.74,258.14,122.83,277.7,102.31z"/>
			<path fill="#9A6E74" d="M219.4,110.72c0,0-33.85,9.23-46.63,18.69c-12.78,9.47-18.23,22.8-18.23,22.8S178.29,123.16,219.4,110.72
				z"/>
			<path fill="#9A6E74" d="M362.84,154.36c0,0,12.22,17.67,19.47,33.37c7.25,15.7,10.17,30.74,10.17,30.74s-0.63-17.54-10.71-39.34
				C371.69,157.34,362.84,154.36,362.84,154.36z"/>
			<path fill="#9A6E74" d="M368.53,138.66c0,0,16.51,6.01,28.07,26.94c11.56,20.92,14.68,51.68,14.68,51.68s3.14-37.46-8-58
				C392.15,138.73,368.53,138.66,368.53,138.66z"/>
			<path fill="#9A6E74" d="M408.89,142.39c0,0,12.37,14.96,14.62,31.74c2.24,16.77-2.38,24.54-2.38,24.54
				S418.01,155.98,408.89,142.39z"/>
			<path fill="#9A6E74" d="M218.63,405.89c0,0-3.37,8.87,3.72,21.41c7.09,12.54,15.37,19.09,15.37,19.09
				S220.28,419.56,218.63,405.89z"/>
			<path fill="#9A6E74" d="M237.06,409.84c0,0-1.26,9.91,1.24,19.59c2.49,9.69,6.13,15.38,6.13,15.38S243.79,421.61,237.06,409.84z"
				/>
			<path fill="#9A6E74" d="M271.35,389.31c0,0-1.81,13.37-5.71,22.4c-3.91,9.03-9.55,15.88-9.55,15.88S274.38,420.87,271.35,389.31z
				"/>
			<path fill="#B4B4B4" d="M373.72,605.66c8.97-27.59,14.21-47.75,14.56-49.11c6.81-26.47-9.11-53.42-35.56-60.25
				c-26.52-6.85-53.45,9.1-60.27,35.55c-5.4,20.91-11.98,42.06-19.06,62.04L373.72,605.66z"/>
			<path fill="#B2764B" d="M501.85,620.69c-1.62-141.21-90.72-179.08-90.72-179.08s-20.72,58.65-77.53,19.81
				c-45.76,23.23-50.27,71.86-58.1,132.72L501.85,620.69z"/>
			<path fill="#9A603A" d="M501.85,620.69c-1.62-141.21-90.72-179.08-90.72-179.08s-7.3,20.67-25.13,29.34
				c-3.03,25.24-9.57,75.23-20.07,133.79L501.85,620.69z"/>
			<path fill="#CCCCCC" d="M438.54,613.27c2.56-15.75,5.27-32.59,8.19-50.93c4.3-26.99-14.1-52.35-41.08-56.65
				c-26.8-4.26-52.35,14.1-56.64,41.08c-2.85,17.92-5.88,36.5-8.95,54.94L438.54,613.27z"/>
			<path fill="#C2BDBE" d="M438.54,613.27c2.56-15.75,5.27-32.59,8.19-50.93c3.6-22.55-8.69-43.91-28.55-52.85l-17.62,99.33
				L438.54,613.27z"/>
		</g>
	</g>
</g>
</svg>
