<?xml version="1.0" encoding="utf-8"?>
<!-- Generator: Adobe Illustrator 25.2.3, SVG Export Plug-In . SVG Version: 6.00 Build 0)  -->
<svg version="1.1" id="Layer_1" xmlns="http://www.w3.org/2000/svg" xmlns:xlink="http://www.w3.org/1999/xlink" x="0px" y="0px"
	 viewBox="0 0 576 576" enable-background="new 0 0 576 576" xml:space="preserve">
<g>
	<g>
		<defs>
			<path id="SVGID_1_" d="M576.89,288.37C576.89,447.22,448.12,576,289.26,576S1.63,447.22,1.63,288.37
				C1.63,129.51,130.4,0.73,289.26,0.73S576.89,129.51,576.89,288.37z"/>
		</defs>
		<use xlink:href="#SVGID_1_"  overflow="visible" fill="#F9E3D9"/>
		<clipPath id="SVGID_2_">
			<use xlink:href="#SVGID_1_"  overflow="visible"/>
		</clipPath>
		<g clip-path="url(#SVGID_2_)">
			<g>
				<path fill="#828333" d="M355.61,470.45c-12.61-2.05-38.35-4.93-61.41-5.16c-23.06-0.22-48.12,7.92-50.77,8.67
					c-2.65,0.75,21.78,30.54,21.78,30.54h93.97L355.61,470.45z"/>
			</g>
			<g>
				<g>
					<polygon fill="#F8A17B" points="262.18,426.97 279.1,498.91 331.07,493.96 323.79,413.48 					"/>
				</g>
			</g>
			<g>
				<g>
					<path fill="#E07E60" d="M326.22,440.39L324,415.9c-3.75,0.03-8.22,0.18-13.11,0.4l-48.7,10.66l7.12,30.26
						C296.6,456.53,316.19,446.81,326.22,440.39z"/>
				</g>
			</g>
			<g>
				<g>
					<path fill="#F8A17B" d="M-86.8,513.62c0,0-9.26-13.17,28.21,53.93c37.47,67.11,75.79,67.85,78.82,68.04
						c3.02,0.18,107.55-30.36,130.36-39.11c22.82-8.75-12.16-65.57-12.16-65.57s-54.15,23.06-71.67,28.07
						c-17.53,5.02-24.12,6.08-24.12,6.08s-17.57-11.97-17.63-44.39C24.95,488.25-86.8,513.62-86.8,513.62z"/>
				</g>
			</g>
			<g>
				<path fill="#F0906B" d="M153.86,594.61l-19.12-42.82c0,0-20.74,27.38-52.27,40.65c-31.53,13.27-77.16,8.29-97.91-5.81
					c-10.09-6.86-25.38-9.8-38.42-11c35.9,59.07,71.21,59.77,74.11,59.95c3.02,0.18,107.55-30.36,130.36-39.11
					C151.86,596,152.93,595.37,153.86,594.61z"/>
			</g>
			<g>
				<g>
					<path fill="#F8A17B" d="M512.26,671.26c0.93,1.43,1.64,2.87,2.42,4.3h64.67c-6.52-12.22-13.65-23.77-20.9-32.08
						c-25.21-28.88-63.44-79.82-63.44-79.82s-65.98,2.08-51.18,24.25C452.89,601.49,491.68,639.38,512.26,671.26z"/>
				</g>
			</g>
			<defs>
				<filter id="Adobe_OpacityMaskFilter" filterUnits="userSpaceOnUse" x="118.46" y="470.36" width="376.56" height="205.2">
					<feColorMatrix  type="matrix" values="1 0 0 0 0  0 1 0 0 0  0 0 1 0 0  0 0 0 1 0"/>
				</filter>
			</defs>
			<mask maskUnits="userSpaceOnUse" x="118.46" y="470.36" width="376.56" height="205.2" id="SVGID_3_">
				<g filter="url(#Adobe_OpacityMaskFilter)">
					<path fill="#FFFFFF" d="M89.42,443.35c-32.66,1.43,62.86,370.71,59.8,398.89c-3.06,28.18,80.6,29.66,147.74,36.2
						c67.14,6.54,142.83-7.67,153.3-33.37C677.17,288.31,257.36,435.96,89.42,443.35z"/>
				</g>
			</mask>
			<g mask="url(#SVGID_3_)">
				<g>
					<g>
						<path fill="#B9912E" d="M141.86,607.1l48.67-17.31c0,0,11.21,29.37,14.53,85.78H413.9c0.91-50.11,2.05-94.41,2.05-94.41
							L444,603.12l51.02-39.45c0,0-9.43-11.71-28.51-31.11c-19.09-19.39-45.24-39.21-73.32-43.95c-19.8-3.34-37.54-7.57-54.51-8.85
							c-7.09-0.53-20.51,16.5-27.42,17.27c-18.84,2.11-31.91-12.21-50.97-10.9c-4.67,0.32-9.3,0.55-13.89,0.68
							c-23.34,0.61-30.96,9.27-61.08,21.62c-30.13,12.36-66.86,28.46-66.86,28.46s4.44,15.38,10.4,33.97S141.86,607.1,141.86,607.1z
							"/>
					</g>
				</g>
				<g>
					<g>
						<path fill="#F8A17B" d="M348.47,480.78c-10.52-1.38-20.67-1.94-30.73-0.81c-21.21,2.38-43.29,5.51-64.58,6.54
							c4.45,12.9,14.46,28.23,36.96,31.29C320.23,521.92,340.3,494.69,348.47,480.78z"/>
					</g>
				</g>
				<g>
					<g>
						<path fill="#FAC2C3" d="M294.46,510.3c-18.45-0.27-28.67-14.63-33.46-24.25c-2.62,0.19-5.23,0.35-7.84,0.47
							c4.45,12.9,14.46,28.23,36.96,31.29c30.12,4.11,50.19-23.13,58.36-37.03c-3.66-0.48-7.27-0.85-10.85-1.09
							C330.77,490.31,315,510.61,294.46,510.3z"/>
					</g>
				</g>
				<g>
					<g>
						<path fill="#A9852E" d="M394.16,675.57h19.74c0.91-50.11,2.05-94.41,2.05-94.41L444,603.12l51.02-39.45
							c0,0-9.43-11.71-28.51-31.11c-19.09-19.39-45.24-39.21-73.32-43.95c-4.1-0.7-8.1-1.43-12.04-2.16
							C390.18,522.24,408.18,608.21,394.16,675.57z"/>
					</g>
				</g>
				<g>
					<path fill="#8B8E36" d="M195.27,675.57h107.01c2.54-46.8,3.9-85.18,2.14-92.66c-4.98-21.16-39.83-83.39-39.83-102.06
						s-24.89-3.73-51.02,1.24c-26.14,4.98-31.12,41.07-32.36,64.72c-1.24,23.64,8.71,78.41,13.69,123.21
						C195.08,671.77,195.12,673.75,195.27,675.57z"/>
				</g>
				<g>
					<path fill="#828333" d="M283.94,675.57h18.34c2.54-46.8,3.9-85.18,2.14-92.66c-4.98-21.16-39.83-83.39-39.83-102.06
						c0-12.57-11.3-9.9-26.67-5.29c16.17,15.43,38.59,51.89,44.19,83.7C284.69,573.95,285.23,622.75,283.94,675.57z"/>
				</g>
				<g>
					<path fill="#8B8E36" d="M423.94,675.57c0.03-2.57,0.04-5.04,0.04-7.3c0-56-13.06-89.61-13.06-117.61
						c0-28,11.73-59.85,5.51-67.32c-6.22-7.47-55.82-13.45-65.25-12.95c0,0-29.87,33.6-42.94,74.67
						c-5.16,16.22-10.31,70.01-14.67,130.51H423.94z"/>
				</g>
				<g>
					<g>
						<path fill="#828333" d="M339.64,672.31c8.75,0.54,18.46,2.56,27.34,3.26h10.16c11.6-1.24,19.83-7.82,18.95-28.82
							c-1.73-41.08,3.49-52.78-12.39-55.76c-15.88-2.99-22.55-1.91-28.24-2.52c-16.47-1.76-26.11-4.59-32.94,34.09
							C315.7,661.23,314.54,670.76,339.64,672.31z"/>
					</g>
					<g>
						<path fill="#9A9C36" d="M345.53,585.98c-16.47-1.77-26.11-4.6-32.94,34.08s-7.98,48.21,17.11,49.75
							c25.1,1.55,58.18,15.51,56.45-25.56c-1.73-41.08,3.49-52.78-12.38-55.76S351.21,586.59,345.53,585.98z"/>
					</g>
					<g>
						<path fill="#929336" d="M310.53,663.97c3.17,3.67,8.81,5.29,17.91,5.85c25.1,1.55,58.18,15.51,56.45-25.56
							c-1.34-31.69,1.46-45.88-4.48-52.09l-5.47,1.53c0,0-2.49,51.85-3.73,63.27C370.07,667.4,325.73,668.57,310.53,663.97z"/>
					</g>
					<g>
						<path fill="#929336" d="M373.75,594.71c-15.88-2.98-22.56-1.91-28.24-2.52c-14.98-1.6-24.3-4.07-31,24.53
							c1.39,1.53,3.96,2.37,8.16,2.68c11.2,0.83,38.57,2.9,46.87,3.32c8.3,0.41,7.89-11.11,8.71-14.89c0.55-2.49,3.83-4.02,6-4.76
							C382.78,598.26,379.8,595.85,373.75,594.71z"/>
					</g>
					<g>
						<path fill="#9A9C36" d="M335.94,584.56c-7.89,0.17-19.91,1.45-23.23,12.96c-3.32,11.52-3.73,16.08,7.47,16.91
							c11.2,0.83,38.57,2.91,46.87,3.32c8.3,0.42,7.89-11.11,8.71-14.89c0.83-3.78,7.94-5.34,7.94-5.34s2.43-9.79-8.36-11.17
							C364.57,584.98,341.32,584.45,335.94,584.56z"/>
					</g>
					<g>
						<path fill="#828333" d="M347.74,605.66c0,2.59-2.11,4.7-4.71,4.7s-4.71-2.11-4.71-4.7c0-2.6,2.11-4.71,4.71-4.71
							S347.74,603.06,347.74,605.66z"/>
					</g>
					<g>
						<path fill="#ACA93A" d="M377.48,590.99c-0.91-1.98-41.96-6.16-49.11-3.39c-7.16,2.77-14.31,9.93-8.1,10.55
							c6.22,0.63,9.71-4.67,27.42-3.73C365.4,595.35,379.61,595.61,377.48,590.99z"/>
					</g>
					<g>
						<path fill="#ACA93A" d="M367.58,632.75c-0.35,9.26-2.3,26.01-20.75,27.44c-18.45,1.43-15.34-2.93-6.63-4.79
							c8.71-1.87,17.42-17.91,19.29-22.64C361.35,628.02,367.73,628.81,367.58,632.75z"/>
					</g>
				</g>
				<g>
					<g>
						<path fill="#828333" d="M213.79,675.57h7.57c21.51-1.62,51.34,8.08,44.26-33.23c-7.1-41.41-4.28-53.95-18.17-54.91
							c-13.9-0.96-19.42,0.99-24.33,1.11c-14.23,0.35-22.79-1.27-23.3,38.82C199.4,662.18,199.63,674.12,213.79,675.57z"/>
					</g>
					<g>
						<path fill="#9A9C36" d="M214.35,587.3c-14.23,0.35-22.79-1.27-23.29,38.83c-0.5,40.09-0.17,49.9,21.35,48.22
							c21.52-1.69,51.53,8.17,44.43-33.24c-7.1-41.41-4.28-53.95-18.17-54.92C224.78,585.23,219.25,587.18,214.35,587.3z"/>
					</g>
					<g>
						<path fill="#929336" d="M195.32,670.9c3.2,3.3,8.21,4.22,16.02,3.6c21.52-1.69,51.53,8.18,44.43-33.24
							c-5.48-31.95-5.05-46.7-10.94-52.22l-4.44,2.26c0,0,5,52.89,5.51,64.62C246.35,666.66,208.86,673.59,195.32,670.9z"/>
					</g>
					<g>
						<path fill="#929336" d="M239.51,592.5c-13.89-0.96-19.42,0.99-24.33,1.11c-12.93,0.31-21.19-0.98-22.96,28.89
							c1.39,1.37,3.69,1.88,7.29,1.65c9.63-0.61,33.16-2.05,40.26-2.71c7.1-0.65,5.17-12.29,5.36-16.22c0.12-2.6,2.7-4.57,4.44-5.61
							C247.67,594.92,244.8,592.87,239.51,592.5z"/>
					</g>
					<g>
						<path fill="#9A9C36" d="M206.01,587.11c-6.67,1.2-16.71,4.05-17.94,16.15c-1.24,12.1-0.97,16.78,8.66,16.17
							c9.63-0.61,33.16-2.06,40.26-2.72c7.1-0.65,5.17-12.29,5.36-16.22c0.18-3.94,6.01-6.44,6.01-6.44s0.72-10.24-8.63-10.23
							C230.37,583.82,210.57,586.29,206.01,587.11z"/>
					</g>
					<g>
						<path fill="#828333" d="M218.92,606.96c0.36,2.64-1.14,5.05-3.35,5.38c-2.2,0.34-4.28-1.53-4.64-4.16
							c-0.35-2.63,1.14-5.05,3.35-5.38C216.49,602.46,218.56,604.33,218.92,606.96z"/>
					</g>
					<g>
						<path fill="#ACA93A" d="M242.17,588.23c-1.04-1.88-36.47-0.8-42.17,2.94c-5.7,3.73-10.79,11.92-5.42,11.75
							c5.37-0.18,7.6-5.99,22.76-7.34C232.51,594.22,244.61,592.65,242.17,588.23z"/>
					</g>
					<g>
						<path fill="#ACA93A" d="M239.49,631.85c0.97,9.43,1.61,26.67-13.86,30.51s-13.43-0.98-6.28-4
							c7.14-3.02,12.34-20.42,13.27-25.45C233.55,627.87,239.07,627.84,239.49,631.85z"/>
					</g>
				</g>
				<g>
					<path fill="#828333" d="M423.94,675.57c0.03-2.57,0.04-5.04,0.04-7.3c0-56-13.06-89.61-13.06-117.61
						c0-28,11.73-59.85,5.51-67.32c-2.03-2.44-8.71-4.72-17.09-6.67c4.21,12.44,0.2,42.35-3.17,70.76
						c-1.92,16.07-0.37,71.67,1.26,128.14H423.94z"/>
				</g>
				<g>
					<path fill="#605F28" d="M298.06,675.57c0.49-7.29,0.94-13.51,1.34-18.23c4-46.83,7.58-83.49,7.62-83.85
						c0.23-2.45-1.56-4.63-4.01-4.88c-2.48-0.23-4.64,1.56-4.88,4.02c-0.04,0.36-3.63,37.08-7.63,83.95
						c-0.42,4.88-0.89,11.39-1.39,18.99H298.06z"/>
				</g>
			</g>
			<g>
				<g>
					<path fill="#595221" d="M135.52,220.46c-2.86,4.94-8.45,13.48,25.77,24.68c34.23,11.2,252.65,15.56,275.05,11.2
						c22.4-4.36,47.26-3.5,32.68-25.79c-12.7-19.42-135.36-47.64-173.94-47.64S135.52,220.46,135.52,220.46z"/>
				</g>
				<g>
					<g>
						<path fill="#F0906B" d="M170,276.51c0,0-27.25-1.66-28.6,20.55c-1.34,22.21,23.52,29.79,23.52,29.79L170,276.51z"/>
					</g>
				</g>
				<g>
					<g>
						<path fill="#30313D" d="M171.46,185.43c0,0-27.29,82.43-1.56,109.31c25.72,26.89,47.68-101.46,47.68-101.46L171.46,185.43z"/>
					</g>
				</g>
				<g>
					<g>
						<path fill="#F8A17B" d="M183.21,192.21c0,0-2.6,59.62-15.9,95.28c-13.31,35.67-15.6,56.81,7.74,89.63s65.4,57.65,112.96,58.51
							c47.56,0.86,91.33-36,106.32-49.28c14.99-13.27,21.29-83.8,22.39-101.97c1.1-18.17-23.47-131.09-47.45-136.6
							C345.28,142.26,183.21,192.21,183.21,192.21z"/>
					</g>
				</g>
				<g>
					<g>
						<path fill="#F0906B" d="M373.98,150.19c-18.66,16.65-35.72,35.13-29.32,40.67c12.44,10.79,35.67,103.71,33.18,125.29
							c-2.49,21.57-18.25,74.67-97.08,87.12c-68.57,10.82-111.38-43.01-121.37-57.2c2.54,9.67,7.55,19.65,15.64,31.05
							c23.34,32.82,65.4,57.65,112.96,58.51c47.56,0.86,91.33-36,106.32-49.28c14.99-13.27,21.29-83.8,22.39-101.97
							C417.73,267.39,396.35,167.67,373.98,150.19z"/>
					</g>
				</g>
				<g>
					<g>
						<path fill="#46465A" d="M386.36,149.82c0,0,43.5-0.76,55.98,45.95c21.47,80.32-26.61,104.75-26.61,104.75
							S345.28,209.13,386.36,149.82z"/>
					</g>
				</g>
				<g>
					<g>
						<path fill="#F0906B" d="M390.19,304.04c3.03,0.18,36.07-9.97,46.1-8.35c10.03,1.62,15.29,15.11,12.11,34.16
							c-3.18,19.06-19.18,32.27-53.77,18.02C360.03,333.62,390.19,304.04,390.19,304.04z"/>
					</g>
				</g>
				<g>
					<g>
						<path fill="#FFFFFF" d="M227.97,345.2c0,0,11.03,7.42,38.74,7.08c27.72-0.35,37.04-9.24,37.04-9.24s-5.92,30.71-38.38,31.44
							C232.9,375.21,227.97,345.2,227.97,345.2z"/>
					</g>
				</g>
				<g>
					<g>
						<path fill="#E88660" d="M262.61,252.75c-6.71,1.79-4.75,22.67-13.77,37.66c-9.01,14.99-12.55,41.11,2.69,45.41
							c15.24,4.3,36.2-7.26,30.96-43.37C277.25,256.33,270.85,250.55,262.61,252.75z"/>
					</g>
				</g>
				<g>
					<g>
						<path fill="#13141F" d="M318.73,218.53l-2.63,9.97c0,0,13.47,3.35,21.78,8.41c8.3,5.06,12.5,2.78,11.73-1.32
							C348.84,231.51,335.86,220.08,318.73,218.53z"/>
					</g>
				</g>
				<g>
					<g>
						<path fill="#13141F" d="M220.21,231.3l1,7.54c0,0-13.59,1.39-21.4,5.96c-7.81,4.56-10.01-5.94-5.06-7.78
							C199.69,235.17,210.12,231.96,220.21,231.3z"/>
					</g>
				</g>
				<g>
					<g>
						<path fill="#30313D" d="M442.34,195.77c-12.48-46.7-55.98-45.95-55.98-45.95c-0.54,0.79-1.06,1.58-1.56,2.38l0.51,7.14
							c0,0,45.63,36.51,33.18,75.5c-6.84,21.43-16.17,29.82-23.2,33.04c10.32,19.52,20.43,32.64,20.43,32.64
							S463.81,276.08,442.34,195.77z"/>
					</g>
				</g>
				<g>
					<g>
						<path fill="#C9705B" d="M418.91,317.81c0.42-6.22,12.03-8.71,15.35-6.22s2.49,21.16-3.73,24.48c-6.22,3.32-17.83,0-17.83,0
							s2.48-3.73,7.46-3.73s9.13-2.54,9.96-8.3c0.83-5.81-2.08-8.71-3.73-8.71C424.72,315.32,418.91,317.81,418.91,317.81z"/>
					</g>
				</g>
				<g>
					<g>
						<path fill="#F59D82" d="M254.77,309.93c-2.44,0.14-9.77,4.39-7.89,8.58c1.89,4.19,20.04,3.97,17.58-3.26
							C262,308.02,257.46,309.77,254.77,309.93z"/>
					</g>
				</g>
				<g>
					<g>
						<path fill="#E2DFD7" d="M242.5,359.82c0,0,7.78,3.73,21.16,3.42c13.38-0.31,21.16-2.8,21.16-2.8s-11.82,6.54-23.03,6.54
							C250.59,366.97,242.5,359.82,242.5,359.82z"/>
					</g>
				</g>
				<g>
					<g>
						<path fill="#E2DFD7" d="M303.74,343.04c0,0-9.32,8.89-37.04,9.24c-27.71,0.35-38.74-7.08-38.74-7.08s0.36,2.18,1.51,5.33
							c5.12,2.85,15.2,6.56,32.62,6.17c21.57-0.48,35-5.94,40.05-8.42C303.33,345.16,303.74,343.04,303.74,343.04z"/>
					</g>
				</g>
				<g>
					<g>
						<path fill="#E07E60" d="M245.29,379.42c0,0,5.61,4.04,18.36,4.35s21.16-5.91,21.16-5.91s-4.05,9.96-19.61,10.58
							C249.66,389.06,245.29,379.42,245.29,379.42z"/>
					</g>
				</g>
				<g>
					<g>
						<path fill="#D97657" d="M282.49,292.45c-2.06-14.2-4.3-23.69-6.76-29.87c3.25,13.83,6.86,40.22,0.05,51.5
							c-9.02,14.93-23.83,17.06-32.85,13.88c1.62,3.83,4.39,6.68,8.6,7.87C266.77,340.13,287.73,328.56,282.49,292.45z"/>
					</g>
				</g>
				<g opacity="0.49">
					<path fill="#FAB79C" d="M208.41,303.5c-0.74-5.53-33.24-1.24-35.31,7.46C171.02,319.68,211.53,326.52,208.41,303.5z"/>
				</g>
				<g opacity="0.49">
					<path fill="#FAB79C" d="M363.8,309.72c0.32-5.57-30.88-7.06-34.44,1.14C325.81,319.06,362.47,332.9,363.8,309.72z"/>
				</g>
				<g>
					<path fill="#403535" d="M333.04,273.63c0,11.34-5.57,20.54-12.45,20.54c-6.88,0-12.44-9.2-12.44-20.54
						c0-11.34,5.57-20.53,12.44-20.53C327.47,253.09,333.04,262.29,333.04,273.63z"/>
				</g>
				<g>
					<path fill="#FFFFFF" d="M325.57,269.27c0,3.44-1.86,6.22-4.15,6.22c-2.29,0-4.15-2.79-4.15-6.22c0-3.44,1.86-6.22,4.15-6.22
						C323.72,263.05,325.57,265.84,325.57,269.27z"/>
				</g>
				<g>
					<path fill="#403535" d="M226.01,273.63c0,11.34-5.57,20.54-12.44,20.54c-6.88,0-12.45-9.2-12.45-20.54
						c0-11.34,5.57-20.53,12.45-20.53C220.43,253.09,226.01,262.29,226.01,273.63z"/>
				</g>
				<g>
					<path fill="#FFFFFF" d="M218.54,269.27c0,3.44-1.86,6.22-4.15,6.22c-2.29,0-4.15-2.79-4.15-6.22c0-3.44,1.86-6.22,4.15-6.22
						C216.68,263.05,218.54,265.84,218.54,269.27z"/>
				</g>
				<g>
					<path fill="#30313D" d="M210.24,225.17c0,0,96.99-2.56,139.46-26.84c42.46-24.27-61.62-21.44-61.62-21.44
						S241.09,218.53,210.24,225.17z"/>
				</g>
				<g>
					<path fill="#30313D" d="M288.07,195.57c0,0-64.56,22.13-84.47,24.89c-19.91,2.76-27,4.71-27,4.71l2.74-27.46L288.07,195.57z"/>
				</g>
				<g>
					<path fill="#8B8E36" d="M220.51,71.63c-29.44,7.59-28.28,20.05-31.37,33.6c-3.08,13.54-9.84,54.3-12.53,58.74
						c-2.69,4.45,253-2.65,253-2.65s-8.23-39.89-13.52-61.4c-5.29-21.51-10.2-23.24-46.06-29.37
						C334.19,64.42,235.63,67.73,220.51,71.63z"/>
				</g>
				<g>
					<path fill="#8B8E36" d="M135.52,220.86c0,0,77.1-22.8,155.54-21.88c78.44,0.93,177.96,30.19,177.96,30.19
						s-14.11-19.3-19.73-33.25c-5.62-13.95-23.19-39.63-23.19-39.63s-90.39-12.66-144.07-10.02c-53.68,2.65-90.07,8.53-101.42,11.78
						C169.27,161.29,135.52,220.86,135.52,220.86z"/>
				</g>
				<g>
					<path fill="#828333" d="M449.29,195.92c-4.07-10.12-14.44-26.42-19.83-34.6c0.1-0.01,0.16-0.01,0.16-0.01
						s-8.23-39.89-13.52-61.4c-5.29-21.51-10.2-23.24-46.06-29.37c-2.42-0.42-5.15-0.78-8.1-1.11c9.2,26.54,11.56,73.53,11.56,73.53
						l12.19,66.69c46.5,8.69,83.33,19.52,83.33,19.52S454.91,209.87,449.29,195.92z"/>
				</g>
				<g>
					<path fill="#544D1F" d="M180.61,158.05c11.35-3.25,47.74-9.13,101.42-11.78c53.68-2.64,144.07,10.02,144.07,10.02
						s1.33,1.94,3.36,5.03c0.1-0.01,0.16-0.01,0.16-0.01s-2.45-11.87-5.53-26.14c-40.84-6.74-87.27-12.05-129.88-11.32
						c-44.71,0.76-85.23,7.81-110.74,10.36c-1.89,9.86-3.81,19.49-5.29,25.11C179.08,158.7,179.89,158.25,180.61,158.05z"/>
				</g>
				<g opacity="0.46">
					<path fill="#ACA93A" d="M339.03,92.96c1.46-9.87-62-12.45-93.74-7.47c-31.73,4.98-18.97,12.45,23.19,20.75
						C310.64,114.53,337.57,102.91,339.03,92.96z"/>
				</g>
				<g opacity="0.46">
					<path fill="#ACA93A" d="M196.14,168.04c-11.64,15.49-21.45,39.94,0,30.72c21.44-9.21,123.17-10.76,142.89-9.12
						c19.72,1.64,5.91-19.17-24.52-26.61S203.36,158.44,196.14,168.04z"/>
				</g>
			</g>
			<g>
				<path fill="#F0906B" d="M528.62,675.57h50.73c-6.52-12.22-13.65-23.77-20.9-32.08c-6.23-7.13-13.25-15.62-20.3-24.34
					c2.86,10.85,5.13,22.69,4.8,32.21C542.62,661.21,536.13,669.33,528.62,675.57z"/>
			</g>
			<g>
				<path fill="#E07E60" d="M44.89,564.63c-1.53,0.33-2.24,0.44-2.24,0.44s-3.6-2.4-7.92-7.37l-94.74,7.29
					c0.48,0.85,0.95,1.69,1.43,2.57c12.03,21.54,24.14,36.23,35.15,46.27c12.1,1,28.2,0.01,41.19-8.94
					C34.27,593.49,41.8,575.06,44.89,564.63z"/>
			</g>
		</g>
	</g>
</g>
</svg>
