<?xml version="1.0" encoding="utf-8"?>
<!-- Generator: Adobe Illustrator 25.2.3, SVG Export Plug-In . SVG Version: 6.00 Build 0)  -->
<svg version="1.1" id="Layer_1" xmlns="http://www.w3.org/2000/svg" xmlns:xlink="http://www.w3.org/1999/xlink" x="0px" y="0px"
	 viewBox="0 0 576 576" enable-background="new 0 0 576 576" xml:space="preserve">
<g>
	<g>
		<defs>
			<path id="SVGID_1_" d="M576,288.2c0,159.17-129.03,288.2-288.19,288.2c-159.17,0-288.2-129.03-288.2-288.2S128.64,0,287.81,0
				C446.97,0,576,129.03,576,288.2z"/>
		</defs>
		<use xlink:href="#SVGID_1_"  overflow="visible" fill="#F9E3D9"/>
		<clipPath id="SVGID_2_">
			<use xlink:href="#SVGID_1_"  overflow="visible"/>
		</clipPath>
		<g clip-path="url(#SVGID_2_)">
			<path fill="#363A77" d="M-27.99,663.93C16.32,589.79,87.12,491.99,87.12,491.99l78.74,86.85c0,0-52.45,53.26-98.41,103.55
				L-27.99,663.93z"/>
			<path fill="#363A77" d="M566.5,727.37c-29.44-81.21-80.56-191.84-80.56-191.84l-93.62,71.48c0,0,41.38,62.26,76.96,120.36H566.5z
				"/>
			<path fill="#E2DFDE" d="M246.91,727.37L414.05,491.5c-54.61-25.96-136.25-50.51-230.9-32.26
				c12.03,62.35,34.26,209.89,42.93,268.13H246.91z"/>
			<path fill="#363A77" d="M414.08,727.37c3.91-21.82,8.67-43.53,14.53-64.64c13.15-47.27,31.63-91.55,57.34-127.2
				c0,0-0.84-0.7-2.42-1.92c-7.56-5.97-32.15-24.4-69.48-42.09L246.92,727.37H414.08z"/>
			<path fill="#363A77" d="M89.17,586.2c0,0,0,0.05,0.05,0.09c0.54,2.86,12.13,62,20.58,141.08h116.28
				c-8.66-58.25-30.88-205.77-42.92-268.14c-30.8,5.97-63,16.33-96.03,32.76c0,0-3.5,23.01-0.33,61.69
				C87.59,563.43,88.43,574.3,89.17,586.2z"/>
			<polygon fill="#C22726" points="259.17,511.61 261.72,535.53 291.92,543.73 312.72,525.41 285.98,491.5 			"/>
			<polygon fill="#1B2149" points="126.04,631.37 208.72,727.37 225.8,727.37 183.15,459.24 115.65,554.13 167.64,579.38 			"/>
			<polygon fill="#1B2149" points="284.63,727.37 384.02,683.36 369.17,605.46 423.63,605.46 414.05,491.5 246.91,727.37 			"/>
			<path fill="#E97F81" d="M253.05,446.43V393.7l101.01,9.66l-0.74,55.88c0,0-46.3,33.51-67.34,32.26
				C285.98,491.5,235.97,476.14,253.05,446.43z"/>
			<path fill="#C4D4DD" d="M253.05,446.43c0,0-1.85,23.03,32.93,45.07l-45.22,33.91c0,0-40.54-33.18-36.12-67.66L253.05,446.43z"/>
			<path fill="#C4D4DD" d="M315.69,543.73l-29.71-52.23c0,0,35.35-7.66,67.34-32.26l34.71,20.95
				C388.04,480.18,388.98,530.85,315.69,543.73z"/>
			<path fill="#501C2A" d="M392.85,287.08c-43.06,61.65-214.42-22.21-214.42-22.21s-33.73-113.26-21.55-143.21
				c5.6-13.86,16.47-31.92,32.85-46.94c10.13,10.31,21.51,26.6,24.03,51.14c0.88,8.17,0.75,17.27-0.75,27.39
				c24.96,4.1,52.77,7,64.76,8.12c-2.57-9.1-6.43-25.11-7.88-43.12c-1.96-23.75,0.32-51.01,15.35-70.37
				c53.43,5.93,99.82,22.86,122.87,47.87C433.5,123.25,435.93,225.45,392.85,287.08z"/>
			<path fill="#F79877" d="M393.66,249.16c3.58-3.45,31.33-25.57,37.41,2.25s-14.5,65.9-29,58.2
				C387.57,301.91,378.24,264.03,393.66,249.16z"/>
			<path fill="#F79877" d="M201.85,260.29c-3.8-3.2-32.99-23.38-37.18,4.78c-4.17,28.17,18.95,64.77,32.89,56.1
				C211.52,312.51,218.25,274.09,201.85,260.29z"/>
			<path fill="#F3978D" d="M379.98,400.57c-41.25,40.22-87.35,44.98-150.3,5.5c-61.55-38.64-37.05-269.58-37.05-269.58l5-0.79
				c-1.45,36.92-6.07,229.16,51.18,261.13C303.73,427.45,344.93,427.08,379.98,400.57z"/>
			<path fill="#F5B29A" d="M388.05,392.22c-2.66,2.94-5.37,5.73-8.07,8.35c-35.04,26.5-76.25,26.87-131.17-3.74
				c-57.25-31.96-52.63-224.21-51.18-261.13l177.36-27.91C374.99,107.8,431.4,344.48,388.05,392.22z"/>
			<path fill="#501C2A" d="M213.76,125.86c0.88,8.17,0.75,17.27-0.75,27.39c-10.55-1.77-20.62-3.74-28.75-5.93
				c-19.22-5.08-12.97-15.44-15.03-15.44L213.76,125.86z"/>
			<path fill="#501C2A" d="M391.32,101.88l-5.6,24.45l-101.91,35.6c0,0-2.2-0.19-6.02-0.56c-2.57-9.1-6.43-25.11-7.88-43.12
				L391.32,101.88z"/>
			<path fill="#F79877" d="M223.06,267.71l-15.65-13.73l10.3-21.64l53.92-24.13l1.3,55.01
				C272.93,263.22,241.43,228.05,223.06,267.71z"/>
			<path fill="#92232F" d="M223.06,267.71c0,0,16.04-31.59,49.88-4.49c0,0-5.98-14.51-25.81-14.64
				C227.29,248.45,223.06,267.71,223.06,267.71z"/>
			<path fill="#F79877" d="M369.09,254.84l11.65-15.22l-13.36-20.51l-58.97-1.07l10.89,42.19
				C319.31,260.24,343.28,219.56,369.09,254.84z"/>
			<path fill="#92232F" d="M369.09,254.84c0,0-21.94-27.82-49.78,5.39c0,0,3.02-15.4,22.44-19.43
				C361.15,236.79,369.09,254.84,369.09,254.84z"/>
			<path fill="#501C2A" d="M264.48,195.54c0,0,16.91,11.72-1.25,24.71c-18.17,12.98-42.82,2.91-48.24,22.25
				c-5.41,19.34-16.33-5.71-7.11-18.66C217.1,210.89,263.74,204.08,264.48,195.54z"/>
			<g>
				<path fill="#8B491F" d="M344.12,360.24c-0.58,2.32-1.51,4.56-2.8,6.89c-5.75,11.71-17.9,22.81-35.21,23.27
					c-11.72,0.32-23.4-1.28-32.43-7.87c-0.02,0.19-0.02,0.19-0.18-0.05c-6.58-5.01-11.78-13-14.11-24.75c0,0-3.66-9.18,5.04-10.94
					c1.43-0.4,3.35-0.46,5.75-0.21c15.81,1.51,38.86,1.83,54.2-5.41c9.11-4.26,15.62-1.77,18.68,3.97
					C345.28,348.94,345.74,354.57,344.12,360.24z"/>
				<path fill="#FFFFFF" d="M343.07,345.14c-14.3,17.24-40.72,23.66-60.16,16.85c-10.7-3.79-15.92-10.03-18.47-15.2
					c1.43-0.4,3.35-0.46,5.75-0.21c15.81,1.51,38.86,1.83,54.2-5.41C333.5,336.9,340.01,339.39,343.07,345.14z"/>
				<path fill="#F16162" d="M341.32,367.13c-5.75,11.71-17.9,22.81-35.21,23.27c-11.72,0.32-23.4-1.28-32.43-7.87
					C287.02,375.27,316.18,361.42,341.32,367.13z"/>
			</g>
			<path fill="#501C2A" d="M311.8,204.45c0,0-12.83,16.09,8.3,23.3s41.85-9.5,52.59,7.46c10.74,16.97,14-10.16,1.45-19.91
				C361.59,205.54,314.95,212.41,311.8,204.45z"/>
			<path fill="#F79877" d="M288.06,245.73c-1.92,4.08,0.6,48.76-16.42,60.48s8.65,27.76,22.26,17.63
				c13.61-10.13,11.74-1.57,16.72-2.53c10.89-2.11,8.16-21.11,0.38-22.38C303.23,297.67,288.06,245.73,288.06,245.73z"/>
			<path fill="#F3978D" d="M390.88,295.71c2.35,9.68-5.49,19.91-17.53,22.83c-12.04,2.93-23.7-2.55-26.06-12.23
				c-2.35-9.68,5.49-19.91,17.53-22.83C376.86,280.55,388.52,286.03,390.88,295.71z"/>
			<path fill="#F3978D" d="M248.83,322.28c-5.18,8.51-17.96,10.19-28.54,3.76c-10.58-6.44-14.95-18.56-9.77-27.08
				c5.18-8.51,17.96-10.19,28.54-3.75C249.63,301.64,254.01,313.76,248.83,322.28z"/>
			<path fill="#672739" d="M285.25,47.89c-5.41-0.56-10.87-1.07-16.38-1.45c-33.93-2.29-60.2,10.92-79.14,28.28
				c10.13,10.31,21.51,26.6,24.03,51.14c0.88,8.17,0.75,17.27-0.75,27.39c24.96,4.1,52.77,7,64.76,8.12
				c-2.57-9.1-6.43-25.11-7.88-43.12C267.94,94.51,270.22,67.25,285.25,47.89z"/>
			<path fill="#2E2F63" d="M91.29,727.37h18.5c-8.44-79.08-20.04-138.22-20.58-141.08C91.64,623.68,93.43,671.33,91.29,727.37z"/>
			<path fill="#501C2A" d="M283.81,161.94c0,0,43.08,0.8,49.83,36.74c0,0,12.43-55.69-28.88-55.87L283.81,161.94z"/>
			<path fill="#501C2A" d="M288.88,148.44c0,0,41.6-11.22,58.09,21.43c0,0-3.56-56.95-43.29-45.64L288.88,148.44z"/>
			<path fill="#ED2224" d="M285.06,727.37c-6.25-58.37-7.27-124.46,6.86-183.64l-30.21-8.2c0,0-39.42,82.89-46.87,191.84H285.06z"/>
		</g>
	</g>
</g>
</svg>
