<?xml version="1.0" encoding="utf-8"?>
<!-- Generator: Adobe Illustrator 25.2.3, SVG Export Plug-In . SVG Version: 6.00 Build 0)  -->
<svg version="1.1" id="Layer_1" xmlns="http://www.w3.org/2000/svg" xmlns:xlink="http://www.w3.org/1999/xlink" x="0px" y="0px"
	 viewBox="0 0 576 576" enable-background="new 0 0 576 576" xml:space="preserve">
<g>
	<g>
		<defs>
			<path id="SVGID_1_" d="M576,287.46c0,158.76-128.7,287.47-287.47,287.47S1.07,446.22,1.07,287.46S129.77,0,288.53,0
				S576,128.7,576,287.46z"/>
		</defs>
		<use xlink:href="#SVGID_1_"  overflow="visible" fill="#F9E3D9"/>
		<clipPath id="SVGID_2_">
			<use xlink:href="#SVGID_1_"  overflow="visible"/>
		</clipPath>
		<g clip-path="url(#SVGID_2_)">
			<g>
				<path fill="#F39B80" d="M182.26,746.91c5.68-31,11.31-65.98,15.99-89c0.49-2.43,0.99-4.85,1.39-7.28
					c-18.79-1.84-53.92-6.84-80.44-19.38c-4.35,37.81-7.95,80.2-10.61,115.66H182.26z"/>
				<path fill="#0772B5" d="M119.19,631.23c26.51,12.54,61.64,17.55,80.43,19.38c1.04-5.3,2.03-10.76,2.87-16.2
					c0.34-1.69,0.59-3.42,0.84-5.11c1.43-8.92,2.63-17.99,3.61-27.15c0,0,0,0,0-0.05c0.1-1.09,0.25-2.18,0.3-3.32
					c0.25-1.69,0.4-3.37,0.5-5.11c0.45-4.4,0.74-8.87,1.04-13.38c-26.96,1.19-67.49-19.33-78.7-25.32
					c-1.23,7.23-2.48,14.72-3.67,22.35c-0.3,1.93-0.59,3.92-0.89,5.9c0,0.1-0.05,0.2-0.05,0.3c-0.19,1.39-0.4,2.72-0.64,4.16
					c-0.45,3.17-0.9,6.39-1.34,9.67c-0.79,5.35-1.53,10.95-2.28,16.7c-0.2,1.78-0.45,3.62-0.64,5.5
					C120.08,623.35,119.63,627.27,119.19,631.23z"/>
			</g>
			<g>
				<path fill="#FFFFFF" d="M120.58,619.53c14.67,7.09,39.35,15.76,71.26,15.36c3.47-0.05,6.99-0.19,10.66-0.49
					c0.34-1.69,0.59-3.42,0.84-5.11c-38.41,3.22-67.15-7.63-82.12-15.26C121.02,615.82,120.77,617.65,120.58,619.53z"/>
			</g>
			<g>
				<path fill="#FFFFFF" d="M125.54,583.21c14.47,7.19,39.64,16.35,72.5,15.96c3.02-0.05,6.05-0.15,9.22-0.4
					c0.25-1.69,0.4-3.37,0.5-5.11c-36.92,2.68-66.31-8.77-81.32-16.35C126.13,579.25,125.83,581.23,125.54,583.21z"/>
			</g>
			<path fill="#81503D" d="M371.62,270.44c110.46,58.61,121.11,154.74,94.21,197.61c-26.91,42.86-29.66,86.94-29.66,86.94
				l-64.26-65.63C329.13,462.3,297.26,370.98,371.62,270.44z"/>
			<path fill="#F39B80" d="M143.32,558.38c11.2,5.99,51.74,26.51,78.7,25.32c1.54-22.65,1.49-45.79-0.75-68.79
				c-2.03-20.61-5.75-41.03-11.64-60.9c-1.24-4.11-3.02-7.98-5.4-9.42c-0.25-0.15-0.49-0.29-0.74-0.4
				c-2.83-1.04-6.74-1.69-11.3-0.49l-0.1,0.05c-0.65,0.1-1.24,0.34-1.93,0.59c-4.91,1.84-10.41,5.85-15.91,13.48
				c-0.3,0.3-0.59,0.65-0.79,0.99c-4.36,6.19-8.77,14.67-12.93,26.12c-0.19,0.5-0.4,0.99-0.59,1.54
				C153.98,503.08,148.38,528.8,143.32,558.38z"/>
			<path fill="#F39B80" d="M292.08,471.83L292.08,471.83c15.54,0,28.13-12.59,28.13-28.13v-90.1h-56.26v90.1
				C263.95,459.23,276.54,471.83,292.08,471.83z"/>
			<path fill="#F39B80" d="M364.35,746.91c0.55-16.61,2.42-33.48,6.01-50.92c-25.58,6.75-87.23,18.05-186.79,6.65
				c0.52,13.54,0.84,29.04,0.88,44.27H364.35z"/>
			<path fill="#F39B80" d="M390.81,570.41c7.64-4.46,15.85-9.93,24.03-15.81c2.93-13.21,4.35-21.81,4.35-24.01
				c0,0,8.66-31.95-8.22-60.18c-0.1-0.1-0.19-0.25-0.25-0.39c-1.56-2.59-3.37-5.14-5.38-7.68c-0.1-0.1-0.19-0.25-0.29-0.34
				c-1.22-1.47-2.54-2.94-3.96-4.31c-0.05-0.05-0.1-0.1-0.15-0.15c-0.54-0.63-8.51-5.97-14.34-9.44c-0.88-0.54-1.71-1.08-2.54-1.52
				c-1.96-1.22-3.67-2.25-4.85-2.93c-7.34-4.4-15.41-7.88-24.02-10.42c-3.08-0.93-6.21-1.76-9.39-2.45
				c-8.22-1.91-16.83-3.13-25.58-3.72c-7.83-0.59-30.43-2.54-56.26-0.98c-18.55,1.13-38.8,4.06-56.46,10.57
				c-4.45,1.67-8.8,3.52-12.86,5.73c-0.84,0.43-1.67,0.88-2.45,1.32l-0.1,0.05c-0.78,0.44-1.52,0.88-2.25,1.32
				c-5.92,3.57-11.2,7.78-15.61,12.77c-0.3,0.29-0.59,0.64-0.78,0.98c-1.23,1.32-2.3,2.74-3.33,4.2c-0.05,0-0.05,0.05-0.05,0.05
				c-0.84,1.23-1.67,2.49-2.4,3.77c-3.37,5.87-6.6,13.01-9.54,20.89c-12.29,32.68-20.6,77.64-23.53,92.71v0.05
				c-0.4,2.21,3.13,0.93,2.98,2.54c-0.05,0.78,0.34,2.15,1.12,3.92c0.64,1.47,1.52,3.22,2.65,5.18
				c8.36,14.93,28.07,41.63,33.07,44.71c2,1.23,4.85,13.8,6.99,32.14l54.6-31.55l143.49,32.34c2.49-8.12,4.64-20.5,3.76-38.55v-0.14
				c-0.73-13.99-3.28-31.21-8.9-52.5c1.12-0.44,2.3-0.93,3.47-1.47c0.15-0.05,0.25-0.1,0.39-0.15c1.03-0.44,2.11-0.93,3.18-1.47
				c1.47-0.73,2.98-1.52,4.5-2.35l1.91-1.02C388.81,571.59,389.79,570.99,390.81,570.41z"/>
			<path fill="#F39B80" d="M482.58,746.91c-1.76-35.72-5.68-77.37-13.67-119.45c-15.27,6.34-51.74,19.87-79.94,16.9
				c6.37,34.61,13.58,70.51,20.26,102.55H482.58z"/>
			<path fill="#F39B80" d="M370.54,507.69c-0.1,14.52,2.28,36.77,6.14,63.08c6.1,0.54,53.77,4.11,75.23-11.45
				c-11.4-35.83-26.76-69.73-47.33-97.97c-2.78-3.82-6.93-6.59-11.64-7.09C383.72,453.27,370.79,460.36,370.54,507.69z"/>
			<g>
				<path fill="#EF7B4D" d="M175.83,211.64c-1.73-0.43-20.27-17.25-36.66,2.59c-16.39,19.84,1.3,69.88,14.23,75.05
					c12.94,5.18,23.73,1.3,25.02-2.15C179.71,283.68,175.83,211.64,175.83,211.64z"/>
				<path fill="#F39B80" d="M208.3,66.41c47.6-43.69,118.47-43.69,166.07,0c45.8,42.05,55.03,107.24,53.55,159.36
					c1.47,47.68-12.73,105.64-58.54,144.12c-47.6,39.98-113.49,41.66-161.09,1.69c-45.8-38.47-55.03-98.12-53.55-145.8
					C153.27,173.65,162.5,108.46,208.3,66.41z"/>
				<path fill="#EF7B4D" d="M240.36,260.02h-28.93C211.43,260.02,223.06,286.01,240.36,260.02z"/>
				<path fill="#814A4C" d="M195.48,175.12l-1.12,14.06c0,0-14.16-3.76-34.32,2.71l-0.71-8.92
					C159.32,182.97,180.82,171.79,195.48,175.12z"/>
				<path fill="#814A4C" d="M295.46,175.12l1.12,14.06c0,0,14.17-3.76,34.33,2.71l0.7-8.92
					C331.61,182.97,310.12,171.79,295.46,175.12z"/>
				<path fill="#EF7B4D" d="M402.64,228.92c-0.09-9.2,5.42-17.57,13.98-20.96c8.13-3.22,18.38-4.03,26.89,6.27
					c16.39,19.84-1.29,69.88-14.23,75.05c-12.94,5.18-19.5-0.09-22.26-2.54C402.44,282.7,402.83,248.64,402.64,228.92z"/>
				<g>
					<path fill="#68423E" d="M241.45,348.46c28.55,0.23,48.59-27.02,46.54-33.43c-0.93-3.54-6.44-2.06-14.82,0.27
						c-8.33,2.28-19.49,5.38-31.72,5.16c-14.03,0.27-26.62-3.86-35.19-6.1c-6.42-1.7-10.57-2.37-11.36,0.67
						C192.86,321.44,212.9,348.69,241.45,348.46z"/>
					<path fill="#FEF4F5" d="M206.26,314.36l2.89,17.39c28.66,14.96,62.71-0.64,62.71-0.64l1.31-15.81
						c-8.33,2.28-19.49,5.38-31.72,5.16C227.42,320.72,214.84,316.6,206.26,314.36z"/>
				</g>
			</g>
			<path fill="#68423E" d="M314.12,208.55c7.52,0,13.61,6.09,13.61,13.61v18.03c0,7.52-6.09,13.62-13.61,13.62h-0.01
				c-7.52,0-13.61-6.1-13.61-13.62v-18.02C300.51,214.64,306.6,208.55,314.12,208.55z"/>
			<path fill="#68423E" d="M173.45,208.55c7.52,0,13.62,6.09,13.62,13.61v18.03c0,7.52-6.1,13.62-13.62,13.62
				c-7.52,0-13.62-6.1-13.62-13.62v-18.02C159.83,214.64,165.93,208.55,173.45,208.55z"/>
			<path fill="#81503D" d="M313.14,114.04c0,0,110.09,3.28,109.13,152.5c0,0,67.12-210.77-122.79-236.63L313.14,114.04z"/>
			<path fill="#81503D" d="M343.43,73.7c0,0-12.65,65.41-123.67,61.8c-95.05-3.09-59.93,151.27-59.93,151.27
				S84.36,34.17,297.38,29.68c0,0,61.46,2.86,118.38,99.07L343.43,73.7z"/>
			<path fill="#1B335F" d="M366.17,670.51c-2.34,10.99-4.74,20.56-6.8,28.12c4.18-0.92,7.88-1.85,10.99-2.67
				c0.43-2.34,0.97-4.73,1.52-7.07c0.77-3.15,2.5-5.98,3.76-8.98c0.6-1.52,1.25-3.04,1.85-4.57c0.38-0.87,0.71-1.8,1.08-2.83
				c0.33-0.87,0.66-1.8,0.93-2.78l-12.56-2.83C366.65,668.17,366.44,669.31,366.17,670.51z"/>
			<path fill="#1B335F" d="M236.04,637.44l-42.1,24.31c0.1,0.93,0.27,1.74,0.38,2.61c2.34,18.06,1.58,31.28,0.38,39.49
				c42.54,4.3,77.74,4.35,105.75,2.56c6.26-12.24,10.83-24.15,13.93-35.68c1.47-5,2.61-9.96,3.48-14.85L236.04,637.44z"/>
			<path fill="#1B335F" d="M183.6,702.12v0.54c0.16,0,0.27,0.05,0.43,0.05L183.6,702.12z"/>
			<g>
				<path fill="#1B335F" d="M146.85,169.54c16.06,1.5,33.58,2.59,51.85,3.33c17.9-6.58,31.05-12.57,76.91-15.06
					c0.9-0.07,6.32,0.28,7.21,0.25c0.95,0.03,1.65,2.1,2.59,2.17c45.36,2.45,46.11,8.78,63.49,15.3l-2.73,0.18
					c0,0,54.31,11.24,87.6-6.16l-0.61-5.53l-6.36-56.96c-106.31-22.33-228.44-9.91-272.53-4.37L147.47,164L146.85,169.54z"/>
				<path fill="#F5E71C" d="M150.94,151.8c0,0-49.25,36.09-46.52,51.41c0,0,29.64-18.14,80.16-12.47
					c47.11,5.28,50.14,12.55,77.17,22.24c27.02,9.69,63.67,25.96,120.59-37.73c0,0-84.11-39.28-165.36-39.28
					C174.23,135.96,150.94,151.8,150.94,151.8z"/>
			</g>
			<path fill="#0E1336" d="M371.88,564.33c0.82-0.54,1.69-1.09,2.5-1.63v-0.06C373.56,563.18,372.74,563.73,371.88,564.33z"/>
			<path fill="#0E1336" d="M363.61,569.5c0.21-0.11,0.49-0.27,0.71-0.38c0.76-0.43,1.47-0.87,2.17-1.41
				C365.56,568.3,364.58,568.9,363.61,569.5z"/>
			<path fill="#0E1336" d="M366.93,666.92c-0.27,1.25-0.49,2.39-0.76,3.59c8.43-0.38,13.32-0.77,13.32-0.77s13.01-24.92-4.13-102.76
				C377.48,603.22,372.58,639.24,366.93,666.92z"/>
			<path fill="#0E1336" d="M130.46,588.65c1.79,0.6,3.54,1.19,5.33,1.74c0,0,0.05,0,0.16,0.05c2.83,1.14,48.25,20.13,56.14,60.49
				c0.76,3.81,1.36,7.4,1.85,10.83c0.1,0.93,0.27,1.74,0.38,2.61c13.16-3.81,26.98-4.35,40.53-1.8c27.04,5.17,55.27,7.4,79.53,8.16
				c1.47-5,2.61-9.96,3.48-14.85c4.29-23.5,3.04-45.21-1.31-64.57c-0.7,0.27-1.47,0.49-2.22,0.76c-1.36,0.49-2.78,0.93-4.19,1.36
				c-1.96,0.65-3.92,1.25-5.93,1.85c-0.05,0-0.05,0-0.05,0c-1.47,0.43-2.89,0.81-4.35,1.19c-0.33,0.11-0.66,0.22-0.98,0.27
				c-1.41,0.38-2.89,0.76-4.35,1.09c-2.28,0.6-4.57,1.14-6.86,1.63c-1.9,0.43-3.86,0.87-5.82,1.19c-1.3,0.32-2.56,0.54-3.92,0.76
				c-2.28,0.44-4.62,0.82-6.96,1.2c-2.34,0.32-4.68,0.65-7.13,0.98c-2.06,0.27-4.13,0.49-6.25,0.71c-1.74,0.21-3.54,0.32-5.33,0.49
				c-1.8,0.17-3.59,0.27-5.44,0.38c-1.19,0.1-2.45,0.16-3.65,0.22c-0.92,0.05-1.95,0.1-2.93,0.16c-3.32,0.1-6.8,0.16-10.28,0.16
				c-2.78,0-5.55-0.06-8.38-0.16h-1.36c-0.54,0-1.08,0-1.58-0.06c-2.06-0.05-4.18-0.22-6.3-0.38c-0.28,0-0.55,0-0.82-0.06
				c-1.09-0.05-2.18-0.1-3.32-0.21l-1.95-0.17c-0.33,0-0.71-0.05-1.09-0.1c-0.88-0.06-1.74-0.11-2.61-0.22
				c-1.09-0.11-2.23-0.21-3.37-0.32c-0.05,0-0.11,0-0.21-0.05c-0.71-0.06-1.41-0.11-2.13-0.22c-1.25-0.16-2.5-0.32-3.81-0.49
				c-0.71-0.05-1.47-0.16-2.22-0.27c-0.71-0.1-1.47-0.21-2.23-0.32c-1.14-0.16-2.28-0.32-3.42-0.54
				c-7.78-1.19-15.83-2.77-24.05-4.73c-2.12-0.49-4.19-0.98-6.2-1.52c-1.63-0.43-3.21-0.87-4.84-1.3c-0.54-0.16-1.03-0.27-1.52-0.43
				c-0.27-0.11-0.6-0.16-0.87-0.27c-3.92-1.09-7.84-2.23-11.81-3.54C133.99,589.79,132.25,589.24,130.46,588.65z"/>
			<path fill="#1B335F" d="M374.38,562.64c-0.82,0.54-1.63,1.09-2.5,1.69c0.82-0.54,1.69-1.09,2.5-1.63V562.64z"/>
			<path fill="#1B335F" d="M366.49,567.7c-0.93,0.6-1.91,1.2-2.88,1.8c0.21-0.11,0.49-0.27,0.71-0.38
				C365.08,568.68,365.78,568.24,366.49,567.7z"/>
			<path fill="#1B335F" d="M345.82,430.78c-4.4,5.93-10.06,13.05-16.76,20.61c17.41,16.59,28.94,36.99,36.18,59.13
				c-0.11-2.23-0.06-4.4,0-6.53c0.71-21.59,6.69-37.64,13.22-48.85c1.85-3.26,3.75-6.09,5.6-8.54c-1.96-1.25-3.65-2.28-4.85-2.93
				c-6.75-4.08-14.09-7.29-21.92-9.74c-0.71-0.27-1.36-0.43-2.07-0.71h-0.06C352.13,432.3,348.98,431.48,345.82,430.78z"/>
			<path fill="#1B335F" d="M204.22,444.65c1.09-2.88,2.23-5.55,3.26-8c-1.52,0.6-3.15,1.2-4.68,1.85c-2.17,0.87-4.24,1.85-6.31,2.94
				c-0.65,0.33-1.25,0.6-1.85,0.93c-0.87,0.43-1.69,0.87-2.45,1.36h-0.1c-0.66,0.16-1.26,0.44-1.96,0.66
				c-0.11,0.27-0.22,0.43-0.27,0.71c-1.36,2.83-3.16,5.93-5.28,9.19c-2.72,4.08-5.98,8.49-9.68,13.17
				c7.84-4.85,16.11-8.54,24.92-10.5c1.03-3.32,2.17-6.47,3.32-9.52c0.05-0.16,0.11-0.33,0.21-0.44
				C203.62,446.18,203.95,445.41,204.22,444.65z"/>
			<path fill="#1B335F" d="M135.79,590.38c0,0,0.05,0,0.16,0.05c2.07,0.66,4.19,1.31,6.25,1.96c1.85,0.54,3.59,0.98,5.39,1.47
				c0.27,0.11,0.6,0.16,0.87,0.27c0.49,0.16,0.98,0.27,1.52,0.43c1.63,0.43,3.2,0.87,4.84,1.3c2.01,0.54,4.08,1.03,6.2,1.52
				c8.21,1.96,16.26,3.54,24.05,4.73c1.14,0.22,2.28,0.38,3.42,0.54c0.76,0.11,1.52,0.22,2.23,0.32c0.76,0.11,1.52,0.22,2.22,0.27
				c1.31,0.17,2.56,0.33,3.81,0.49c0.71,0.11,1.42,0.16,2.13,0.22c0.1,0.05,0.16,0.05,0.21,0.05c1.14,0.11,2.28,0.21,3.37,0.32
				c0.87,0.11,1.74,0.16,2.61,0.22c0.38,0.05,0.76,0.1,1.09,0.1l1.95,0.17c1.14,0.11,2.23,0.16,3.32,0.21
				c0.27,0.06,0.54,0.06,0.82,0.06c2.12,0.16,4.24,0.32,6.3,0.38c0.49,0.06,1.04,0.06,1.58,0.06h1.36c2.83,0.1,5.6,0.16,8.38,0.16
				c3.48,0,6.96-0.06,10.28-0.16c0.98-0.06,2.01-0.11,2.93-0.16c1.2-0.06,2.45-0.12,3.65-0.22c1.85-0.11,3.65-0.21,5.44-0.38
				c1.8-0.16,3.59-0.27,5.33-0.49c2.12-0.22,4.19-0.43,6.25-0.71c2.45-0.33,4.79-0.66,7.13-0.98c2.34-0.38,4.68-0.76,6.96-1.2
				c1.36-0.21,2.61-0.43,3.92-0.76c1.91-0.38,3.86-0.76,5.82-1.19c2.28-0.49,4.57-1.04,6.86-1.63c1.47-0.33,2.94-0.71,4.35-1.09
				c0.32-0.05,0.65-0.16,0.98-0.27c1.47-0.38,2.88-0.76,4.29-1.19c0,0,0.06,0,0.11,0c2.01-0.6,3.97-1.2,5.93-1.85
				c1.41-0.43,2.83-0.88,4.19-1.36c0.76-0.27,1.52-0.49,2.22-0.76v-0.06c-10.27-46.4-38.13-79.04-48.79-90.19
				c-11.04,5.71-22.9,10.17-35.41,12.62c-4.02,0.76-7.78,1.19-11.1,1.25c-0.71,0.06-1.41,0.06-2.12,0.06c-0.54,0-1.03,0-1.58-0.06
				c-14.36-0.6-20.94-8.05-22.96-18.44C194.59,496.49,100.27,540.29,135.79,590.38z"/>
			<path fill="#F5E71C" d="M300.45,706.41c25.57-1.63,45.15-4.79,58.92-7.78c2.06-7.56,4.46-17.13,6.8-28.12
				c-11.7,0.49-30.2,0.92-51.79,0.21C311.28,682.26,306.71,694.17,300.45,706.41z"/>
			<path fill="#B6AD33" d="M317.86,655.88c4.29-23.5,3.04-45.21-1.31-64.57c0.77-0.27,1.53-0.54,2.29-0.82
				c0.76-0.27,1.52-0.54,2.28-0.82c3.54-1.25,6.96-2.61,10.28-4.03c1.36-0.54,2.72-1.14,4.08-1.74c3.43-1.47,6.75-2.99,9.9-4.57
				c3.65-1.8,7.13-3.59,10.39-5.39c1.63-0.87,3.21-1.8,4.73-2.66c1.09-0.6,2.07-1.2,3.11-1.8c0.21-0.11,0.49-0.27,0.71-0.38
				c0.76-0.43,1.47-0.87,2.17-1.41c0.16-0.06,0.33-0.16,0.49-0.27c1.41-0.82,2.78-1.74,4.08-2.56c0.27-0.16,0.54-0.32,0.82-0.54
				c0.82-0.54,1.69-1.09,2.5-1.63c0.32,1.47,0.65,2.88,0.98,4.29c2.12,36.23-2.78,72.24-8.43,99.93c-0.27,1.25-0.49,2.39-0.76,3.59
				c-11.7,0.49-30.2,0.92-51.79,0.21C315.85,665.73,316.98,660.77,317.86,655.88z"/>
			<path fill="#F5E71C" d="M267.76,501.06c10.66,11.15,38.52,43.79,48.79,90.19c0.77-0.27,1.53-0.49,2.29-0.76
				c0.76-0.27,1.52-0.54,2.28-0.82c3.54-1.25,6.96-2.61,10.28-4.03c1.36-0.54,2.72-1.14,4.08-1.74c3.43-1.47,6.75-2.99,9.9-4.57
				c3.65-1.8,7.13-3.59,10.39-5.39c1.63-0.87,3.21-1.8,4.73-2.66c1.09-0.6,2.07-1.2,3.11-1.8c0.97-0.6,1.95-1.2,2.88-1.8
				c0.16-0.06,0.33-0.16,0.49-0.27c1.41-0.82,2.78-1.74,4.08-2.56c0.27-0.16,0.54-0.32,0.82-0.54c0.87-0.6,1.69-1.14,2.5-1.69
				c-0.71-2.67-1.36-5.22-2.23-7.99c-4.74-16.59-6.75-31.18-6.91-44.06v-0.06c-7.23-22.14-18.77-42.54-36.18-59.13
				C313.78,468.59,292.83,488.06,267.76,501.06z"/>
			<path fill="#F5E71C" d="M366.49,567.7c-0.93,0.6-1.91,1.2-2.88,1.8c0.21-0.11,0.49-0.27,0.71-0.38
				C365.08,568.68,365.78,568.24,366.49,567.7z"/>
			<path fill="#F5E71C" d="M318.84,590.49c-0.76,0.27-1.52,0.49-2.29,0.76v0.06C317.32,591.04,318.08,590.77,318.84,590.49z"/>
			<path fill="#F5E71C" d="M125.13,586.8c1.8,0.6,3.54,1.25,5.33,1.85c1.79,0.6,3.54,1.19,5.33,1.74
				c-35.52-50.1,58.8-93.89,58.8-93.89c-2.28-11.32,0.87-26.22,5.22-39.55c-8.81,1.96-17.08,5.66-24.92,10.5
				c-2.22,2.83-4.63,5.82-7.12,8.81c-2.34,2.83-4.79,5.77-7.29,8.71c-0.76,0.93-1.58,1.85-2.34,2.77
				c-10.66,12.46-21.76,25.52-30.3,37.75C112.45,547.68,114.63,569.82,125.13,586.8z"/>
			<path fill="#B6AD33" d="M125.13,586.8c4.03,6.64,9.3,12.4,15.29,17.13c2.22,1.74,4.46,3.32,6.8,4.74
				c12.62,7.61,20.89,22.9,25.89,36.28c5.11,13.33,8.32,24.21,8.32,24.21c0.43-0.22-0.43,0.16,0,0v-0.16l12.51-7.24
				c-0.49-3.42-1.09-7.01-1.85-10.83c-7.89-40.36-53.31-59.35-56.14-60.49c-0.11-0.05-0.16-0.05-0.16-0.05
				c-1.8-0.54-3.54-1.14-5.33-1.74C128.66,588.04,126.92,587.39,125.13,586.8z"/>
			<path fill="#B6AD33" d="M181.43,668.99v0.16c4.19-1.96,8.48-3.59,12.89-4.79c-0.11-0.87-0.27-1.69-0.38-2.61L181.43,668.99z"/>
			<path fill="#F5E71C" d="M181.43,669.15c0.87,7.23,1.63,19.04,2.17,32.97l0.43,0.6c3.59,0.38,7.18,0.77,10.66,1.14
				c1.19-8.21,1.96-21.43-0.38-39.49C189.92,665.56,185.62,667.19,181.43,669.15z"/>
			<path fill="#86BF40" d="M376.68,570.77c3.22,22.3,7.53,47.57,12.29,73.59c28.2,2.97,64.67-10.56,79.94-16.9
				c-0.95-5.05-1.98-10.06-3.07-15.12c-3.12-14.61-6.74-29.24-11.05-43.56c-0.89-3.17-1.88-6.34-2.87-9.46
				C430.45,574.89,382.78,571.32,376.68,570.77z"/>
			<path fill="#ED2224" d="M408.25,630.78l57.58-18.44c-3.12-14.61-6.74-29.24-11.05-43.56L408.25,630.78z"/>
		</g>
	</g>
</g>
</svg>
