<?xml version="1.0" encoding="utf-8"?>
<!-- Generator: Adobe Illustrator 25.2.3, SVG Export Plug-In . SVG Version: 6.00 Build 0)  -->
<svg version="1.1" id="Layer_1" xmlns="http://www.w3.org/2000/svg" xmlns:xlink="http://www.w3.org/1999/xlink" x="0px" y="0px"
	 viewBox="0 0 576 576" enable-background="new 0 0 576 576" xml:space="preserve">
<g>
	<g>
		<defs>
			<path id="SVGID_1_" d="M576,288c0,159.06-128.94,288-288,288S0,447.06,0,288S128.94,0,288,0S576,128.94,576,288z"/>
		</defs>
		<use xlink:href="#SVGID_1_"  overflow="visible" fill="#F9E3D9"/>
		<clipPath id="SVGID_2_">
			<use xlink:href="#SVGID_1_"  overflow="visible"/>
		</clipPath>
		<g clip-path="url(#SVGID_2_)">
			<g>
				<path fill="#841618" d="M44.28,494.97c44.61,33.21,103.21-2.08,85.51-49.31c-17.68-47.27,15.47-93.8,15.47-93.8l92.36,35.77
					c-5.4-57.37-20.6-243.86,8.6-256.95c0,0-6.91-95.2-100.95-32.91c-97.18,64.36-2.69,106.56-63.13,181.72
					c-60.45,75.14-26.33,162.13-12.67,175.73C83.13,468.81,73.74,497.38,44.28,494.97z"/>
				<path fill="#771614" d="M131.84,552.84c91.18-11.19,107.44-148.54,107.44-148.54s-0.67-6.15-1.63-16.59
					c-0.03-0.06-0.03-0.09-0.03-0.09l-92.36-35.77c0,0-33.15,46.54-15.47,93.8c17.7,47.23-40.9,82.52-85.51,49.31
					C44.28,494.97,40.63,564.04,131.84,552.84z"/>
			</g>
			<g>
				<path fill="#F68E58" d="M298.24,377.66c0,0,8.75,49.29,64.22,73.44c55.58,23.58-46.4,162.86-99.17,129.28
					c-52.58-34.51-62.84-100-62.84-100l5.62-7.64c0,0,35.43-19.73,30.77-81.68L298.24,377.66z"/>
				<path fill="#FEDABB" d="M93.33,1031.71c34.12,36.3,158.47,81.22,264.63,81.21c0,0,55.68-108.06,17.66-223.77
					c-37.49-118.4-195.3-116.91-195.3-116.91c4.68,15.66,5.79,36.67-3.87,73.99C147.3,952.24,40.1,974.96,93.33,1031.71z"/>
				<path fill="#00B0CA" d="M180.32,772.23c0.89-0.01,1.7,0.05,2.59,0.04C181.36,772.24,180.32,772.23,180.32,772.23z"/>
				<path fill="#C9B39B" d="M291.68,729.48c11.41,1.1,22.17,1.67,32.26,1.44c3.95-0.05,7.91-0.34,11.63-0.64
					c4.61-0.26,9.44-0.75,13.83-1.51c4.17-0.53,8.12-1.31,12.07-2.09c0.88-0.45,1.75-0.65,2.64-0.6c3.73-0.79,7.23-1.84,10.75-2.88
					c4.17-1,7.89-2.53,11.62-3.8c3.94-1.25,7.45-2.77,11.17-4.52c3.5-1.51,6.79-3.03,10.07-4.8c3.5-1.75,6.56-3.76,9.62-5.52
					c3.28-1.99,6.12-3.76,9.18-5.76c2.84-2.01,5.45-4.27,8.29-6.27c10.46-8.26,19.37-17.3,26.96-26.39c1.95-2.5,3.9-4.99,5.85-7.49
					c1.51-2.04,3.03-4.08,4.33-6.14c1.51-2.03,2.81-4.09,4.09-6.14c1.3-2.05,2.37-3.88,3.45-5.94c0.42-0.92,1.08-1.59,1.51-2.51
					c3-5.71-9.25,6.1-7.1,1.24c2.57-5.77,4.74-15.73,6.24-20.14c0.84-2.79-3.2-10.09-2.57-12.19c-4.3,38.46,1.38,79.54-28.95,133.56
					c-8.05,13.65-13.04,27.27-15.63,40.78c0,0-2.6,8.66-3.87,22.74c-1.68,20.17-0.45,51.38,16.07,83.37
					c5.53,10.33,9.47,23.96,11.55,39.41c0.36,2.68,0.66,5.42,0.92,8.21c0.49,5.41,0.66,11.04,0.7,16.77l0.08,0.49l-0.09,0.21
					c0.08,60.76-27.88,131.6-100.37,160.55c0,0,55.68-108.06,17.66-223.77c-34.78-109.71-172.82-116.5-192.7-116.88
					c-0.9,0.01-1.71-0.05-2.6-0.04c-8.1-24.27-24.66-37.45-37.73-81.92C175.95,707.89,223.2,724.34,291.68,729.48z"/>
				<path fill="#FEDABB" d="M131.98,512.71c0.1-0.42,0.18-0.36,0.15-0.38c22.57-9.89,32.88-20.31,55.17-30.7
					c6.28-2.95,12.52-5.91,18.76-8.89c0.78-0.24,13.42,85.21,81.66,55.36c58.42-24.94,73.35-76.8,73.09-76.86
					c0,0,8.2,1.58,20.15,4.32c29.76,6.97,65.07,30.51,78.66,46.71c13.24,15.4,23.54,47.67,19.2,97.06c0,0,0.02,0.23-0.16,0.45
					c0.82,11.18-20.8,147.23-187.08,129.7c-68.36-5.05-115.71-21.56-148.88-39.29c-1.66-5.88-3.29-12.5-4.94-19.65
					C116.36,578.83,131.34,519.06,131.98,512.71z"/>
				<path fill="#D5C8B0" d="M259.48,550.59l1.34-23.35l48.99-9.5C309.81,517.74,291.84,542.84,259.48,550.59z"/>
				<polygon fill="#D5C8B0" points="249.58,525.88 259.48,550.59 237.59,535.17 				"/>
				<path fill="#343434" d="M353.32,450.18c0,0,103.99,13.45,121.44,76.76c17.57,62.64,14.12,158.17-33.56,228.19
					c0,0-19.77,91.24,15.74,143.18c35.74,50.81,0.97,167.52,0.97,167.52s-30.99,50.91-171.2,57.39c0,0-34.55-53.32,13.47-173.65
					c47.37-117.01-21.77-361.87,27.33-414.83C376.26,483.51,353.32,450.18,353.32,450.18z"/>
				<path fill="#343434" d="M223.68,514.39c0,0-36.65,86.9-18.07,142.36c18.69,54.85,29.32,147.75,3.92,193.27
					c-25.53,46.19-97.61,208.19-97.61,208.19s-54.5-6.75-35.76-66.28c18.63-58.94,106.83-87.53,99.52-180.62
					c-7.23-93.54-69.75-133.89-44.42-298.4c28.5-21.43,74.8-40.18,74.8-40.18L223.68,514.39z"/>
				<path fill="#FFE8CB" d="M249.58,525.88c0,0-27.99-45.54-26.64-69.98c0,0-22.88-2.99-24.64,13.79
					c-1.77,16.8,6.9,69.47,25.48,85.51L249.58,525.88z"/>
				<path fill="#FFE8CB" d="M260.82,527.24l14.3-9.03c27.62-17.77,48.48-43.84,68.78-70.97c0.14-0.18,0.27-0.36,0.4-0.53
					c13.15-17.52,36.69,12.33,36.69,12.33s3.39,53.31-78.71,100.55L260.82,527.24z"/>
			</g>
			<polygon fill="#363236" points="86.8,272.29 86.8,290.91 185.44,273.18 185.44,267.18 			"/>
			<path fill="#F89F73" d="M170.3,138.71c0,0-39.31,54.41-34.85,110.35c3.39,42.52-0.9,110.44,8.23,129.39
				c9.14,18.94,47.55,94.88,80.77,96.27c33.22,1.38,112.74-56.07,141.23-104.27c28.48-48.2,32.85-155.82,5.58-183.66
				C343.99,158.93,238.57,103.88,170.3,138.71z"/>
			<path fill="#841618" d="M306.08,259.32c0,0-50.17-18.24-83.14-10.75l-0.25-14.51c0,0,26.3-3.49,33.61-1.63
				c9.4,2.39,49.78,21.67,49.78,21.67V259.32z"/>
			<path fill="#841618" d="M165.47,237.34l-1.84,12.45c0,0-17.78-9.66-25.87,6.57l-2.12-10.76c0,0,4.69-9.29,14.25-10.5
				S165.47,237.34,165.47,237.34z"/>
			<g>
				<g>
					<g>
						<path fill="#FFFFFF" d="M237.62,308.65c0.03,0.01,0.06,0.01,0.09,0.01C237.68,308.66,237.64,308.66,237.62,308.65z"/>
						<path fill="#FFFFFF" d="M237.79,308.69c1.01,0.27,2.02,0.49,3.02,0.64c0.73,0.11,1.43,0.4,2.17,0.46
							c0.86,0.07,1.74,0.09,2.61,0.08c0.86-0.02,1.68-0.29,2.53-0.39c1.15-0.12,2.28-0.27,3.39-0.51c1.17-0.26,2.32-0.55,3.44-0.93
							c0.96-0.32,1.88-0.72,2.81-1.12c2.09-0.89,4.06-1.89,5.97-3.05c0.6-0.37,1.23-0.72,1.81-1.12c1.2-0.8,2.31-1.6,3.42-2.46
							c0.42-0.32,0.82-0.64,1.22-0.97c8.31-6.77,13.71-14.3,13.8-14.43l0.06-0.1l-0.08-0.05c-0.11-0.05-10.09-5.02-18.45-15.02
							l-0.31-0.36c-5.34-6.21-13.25-9.27-21.74-8.44c-8.86,0.88-16.73,5.96-20.98,13.56c-4.71,8.43-6.86,17.01-6.89,17.1
							c3.23,4.43,6.64,7.82,10.13,10.64c0.69,0.55,1.37,1.22,2.05,1.7c1.22,0.86,2.46,1.5,3.71,2.16c0.91,0.49,1.81,1.01,2.72,1.38
							c1.12,0.47,2.25,0.84,3.4,1.16c-0.07-0.02-0.14-0.07-0.21-0.09c0.12,0.03,0.23,0.08,0.34,0.12l-0.05-0.01L237.79,308.69z
							 M229.66,305.04c0.26,0.16,0.52,0.3,0.78,0.45C230.18,305.34,229.92,305.2,229.66,305.04z M222.71,299.61l-0.01-0.01
							C222.7,299.6,222.7,299.6,222.71,299.61z M249.72,261.21c-0.02,0-0.03-0.01-0.03-0.01S249.71,261.21,249.72,261.21z
							 M252.92,308.59c0.09-0.02,0.19-0.05,0.29-0.07C253.11,308.55,253.02,308.57,252.92,308.59z"/>
					</g>
					<path fill="#6B3815" d="M221.99,287.46c-0.78,10.44,7.04,19.53,17.48,20.3c10.44,0.79,19.53-7.04,20.31-17.48
						c0.78-10.43-7.05-19.53-17.49-20.3C231.85,269.2,222.77,277.03,221.99,287.46z"/>
					<path fill="#47200F" d="M230.49,288.1c-0.43,5.73,3.87,10.73,9.61,11.16c5.74,0.43,10.73-3.87,11.16-9.61
						c0.44-5.73-3.87-10.73-9.61-11.16C235.92,278.06,230.92,282.36,230.49,288.1z"/>
				</g>
				<path fill="#4A4F54" d="M289.86,274.77l-5.87,10.13c0,0-10.01-3.51-17.8-10.67c-14.15-13.01-37.2-8.25-46.5,8.57
					c-1.43,2.59-2.8,5.51-4.09,8.8c0,0,6.96-27.35,22.6-32.58C253.83,253.78,286.23,274.47,289.86,274.77z"/>
			</g>
			<g>
				<g>
					<g>
						<path fill="#FFFFFF" d="M163.76,312.19l-0.05,0.02L163.76,312.19z"/>
						<path fill="#FFFFFF" d="M163.71,312.2l-0.03,0.01c0.06-0.03,0.14-0.08,0.2-0.12c-0.04,0.02-0.08,0.07-0.12,0.09
							c0.69-0.32,1.36-0.69,2.03-1.16c0.54-0.38,1.08-0.89,1.62-1.38c0.75-0.66,1.49-1.31,2.21-2.16c0.41-0.49,0.81-1.15,1.22-1.7
							c2.08-2.82,4.11-6.21,6.03-10.64c-0.01-0.08-1.29-8.67-4.1-17.1c-2.53-7.61-7.21-12.69-12.49-13.56
							c-5.06-0.84-9.76,2.22-12.95,8.44l-0.18,0.36c-4.97,10-10.91,14.97-10.98,15.02l-0.05,0.05l0.04,0.1
							c0.06,0.13,3.27,7.66,8.21,14.43c0.25,0.32,0.48,0.65,0.73,0.97c0.66,0.86,1.33,1.66,2.03,2.46c0.35,0.4,0.72,0.75,1.09,1.12
							c1.13,1.17,2.31,2.17,3.55,3.05c0.55,0.4,1.1,0.8,1.67,1.12c0.68,0.38,1.35,0.67,2.05,0.93c0.66,0.25,1.34,0.4,2.03,0.51
							c0.51,0.1,0.99,0.37,1.51,0.39c0.52,0.01,1.03-0.02,1.55-0.08c0.44-0.06,0.86-0.34,1.29-0.46c0.6-0.16,1.2-0.37,1.8-0.64
							C163.66,312.22,163.69,312.21,163.71,312.2z M168.03,309.03c0.16-0.15,0.31-0.3,0.47-0.45
							C168.35,308.73,168.19,308.88,168.03,309.03z M172.65,303.13L172.65,303.13L172.65,303.13z M156.59,264.74l-0.03,0.01
							L156.59,264.74z M154.48,312.06c0.05,0.03,0.12,0.05,0.17,0.08C154.59,312.11,154.54,312.08,154.48,312.06z"/>
					</g>
					<path fill="#6B3815" d="M165.74,288.87c0.46,10.44-4.2,19.53-10.41,20.31c-6.22,0.77-11.63-7.05-12.09-17.49
						c-0.46-10.44,4.2-19.53,10.41-20.31C159.86,270.61,165.27,278.44,165.74,288.87z"/>
					<path fill="#47200F" d="M160.67,289.51c0.25,5.73-2.31,10.73-5.73,11.16c-3.42,0.43-6.39-3.87-6.64-9.61
						c-0.25-5.74,2.31-10.74,5.72-11.16C157.44,279.47,160.42,283.77,160.67,289.51z"/>
				</g>
				<path fill="#4A4F54" d="M132.67,278.31l3.49,10.13c0,0,5.95-3.5,10.59-10.66c8.43-13.02,22.15-8.25,27.69,8.57
					c0.86,2.59,1.67,5.51,2.44,8.8c0,0-4.14-27.35-13.45-32.58C154.12,257.32,134.83,278.01,132.67,278.31z"/>
			</g>
			<polygon fill="#363236" points="287.78,272.31 287.78,290.94 386.42,273.21 386.42,267.21 			"/>
			<g>
				<path fill="#F89F73" d="M378.73,274.88c0,0,72.69-68.83,63.24,9.01c-9.44,77.84-70.71,30.95-70.71,30.95L378.73,274.88z"/>
				<path fill="#8C181B" d="M406.83,299.52c0.56-9.68-7.86-44.48,21.67-32.85c0,0-22.04-3.44-18.69,16.1
					c0.21,1.2,0.42,2.23,0.64,3.35c6.09-3.44,14.58,1.16,14.58,1.16c-5.98-2.04-10.96,0.37-13.91,2.37c2.98,14.64,5.17,21-6.7,20.67
					C390.83,309.94,406.28,309.2,406.83,299.52z"/>
			</g>
			<path fill="#FFFFFF" d="M256.78,371.17c0,0-25.5,39.73-54.15,39.36c-23.12-0.29-26.42-24.99-26.42-24.99
				C206.77,397.9,256.78,371.17,256.78,371.17z"/>
			<path fill="#A81E22" d="M179.8,268.55c0,0,6.8,47.74-17.1,67.39c0,0-5.8,1.81-5.17,6.19c0.62,4.39,8.21,13.72,8.21,13.72
				l1.97-2.31c0,0-10.53-8.03-6.67-12.85c3.86-4.82,15.46-8.42,20.68-34.28S179.8,268.55,179.8,268.55z"/>
			<path fill="#8C181B" d="M195.61,346.69c0,0,3.2,5.5-4.52,7.17C191.09,353.87,194.95,350.72,195.61,346.69z"/>
			<path fill="#8C181B" d="M184.75,350.65c0,0,1.05,2.83-2.33,3.15c-3.39,0.31-7.77-2.31-7.77-2.31S179.56,348.55,184.75,350.65z"/>
			<g>
				<path fill="#363236" d="M86.64,272.31v18.63l2.63,3.05c0,0,1.16,24.25,6.84,35.65c5.24,10.76,31.58,17.66,63.6,8.99
					c4.07-1.12,7.42-4.65,9.17-9.15c2.18-6.1,5.82-14.77,9.75-21.52c4.22-6.91,12.95-6.91,17.17,0c4.08,6.75,7.57,15.42,9.76,21.52
					c1.74,4.5,5.09,8.03,9.31,9.15c31.88,8.67,58.22,1.77,63.45-8.99c5.67-11.41,6.84-35.65,6.84-35.65l2.62-3.05v-18.63
					c0,0-16.3-2.73-41.63-2.57c-25.32,0.32-39.58,5.94-46.43,8.83h-0.29c-7.86,3.21-16.45,3.21-24.46,0h-0.14
					c-6.99-2.89-21.1-8.51-46.42-8.83C102.94,269.59,86.64,272.31,86.64,272.31z M200.45,290.78c3.64-12.2,47.16-21.04,75.68-14.77
					c3.93,0.81,6.7,4.98,6.55,9.79c-0.58,13.49-2.91,39.99-12.52,47.85c-13.1,10.76-55.45,1.12-57.92-1.12
					C207,327.55,196.38,303.94,200.45,290.78z M91.74,285.8c-0.14-4.82,2.76-8.99,6.55-9.79c28.52-6.26,72.03,2.57,75.82,14.77
					c3.93,13.17-6.69,36.77-11.93,41.75c-2.48,2.25-44.82,11.89-57.92,1.12C94.8,325.79,92.32,299.29,91.74,285.8z"/>
				<path opacity="0.18" fill="#0C9ED6" d="M153.88,278.42l20.81,22.96c0.44-3.85,0.29-7.55-0.58-10.6
					C172.65,285.8,164.65,281.47,153.88,278.42z"/>
				<path opacity="0.18" fill="#0C9ED6" d="M96.4,276.81l53.56,59.09c6.69-1.28,11.5-2.73,12.22-3.37c0.29-0.32,0.58-0.64,1.01-1.12
					l-51.81-57.16c-4.51,0.32-9.02,0.81-13.1,1.77C97.56,276.16,96.98,276.32,96.4,276.81z"/>
				<path opacity="0.18" fill="#0C9ED6" d="M92.47,296.56c1.31,13.65,4.51,30.99,11.79,37.1c5.38,4.5,15.71,5.46,26.2,4.82
					L92.47,296.56z"/>
				<path opacity="0.18" fill="#0C9ED6" d="M262.89,274.24l19.22,21.19c0.29-3.53,0.44-6.9,0.58-9.63c0.15-4.82-2.62-8.99-6.55-9.79
					C271.91,275.04,267.54,274.56,262.89,274.24z"/>
				<path opacity="0.18" fill="#0C9ED6" d="M213.11,280.98l50.65,55.88c2.48-0.8,4.65-1.76,6.4-3.21c1.46-1.12,2.76-2.73,3.93-4.65
					l-47.16-52.03C221.84,277.93,217.05,279.38,213.11,280.98z"/>
				<path opacity="0.18" fill="#0C9ED6" d="M212.25,332.53c1.45,1.29,16.29,5.14,30.99,5.94l-42.93-47.37
					C196.53,304.27,207,327.55,212.25,332.53z"/>
				<path opacity="0.18" fill="#5EBBD6" d="M226.94,276.97L274.1,329c4.8-8.2,6.98-22.32,8.01-33.57l-19.22-21.19
					C250.95,273.44,238,274.56,226.94,276.97z"/>
				<path opacity="0.18" fill="#5EBBD6" d="M200.31,291.1l42.93,47.37c7.42,0.49,14.84,0.16,20.52-1.61l-50.65-55.88
					c-6.84,2.73-11.64,6.1-12.66,9.79C200.45,290.94,200.45,290.94,200.31,291.1z"/>
				<path opacity="0.18" fill="#5EBBD6" d="M111.38,274.24l51.81,57.16c4.07-4.82,10.34-18.3,11.5-30.02l-20.81-22.96
					C141.66,275.04,125.65,273.28,111.38,274.24z"/>
				<path opacity="0.18" fill="#5EBBD6" d="M91.74,285.8c0.14,3.05,0.29,6.75,0.73,10.76l37.99,41.91
					c6.84-0.32,13.82-1.28,19.5-2.57L96.4,276.81C93.63,278.25,91.59,281.78,91.74,285.8z"/>
			</g>
			<path fill="#841618" d="M185.44,136.98c0,0,40.21,60.77,137.23,61.65c97.01,0.88,33.93-85.27-24.88-83.02
				C238.98,117.88,185.44,136.98,185.44,136.98z"/>
			<g>
				<path fill="#841618" d="M302.31,221.19c-23.98,52.69,80.74,74.83,23.14,134.67c-63.13,65.57-54.53,126.41-6.03,187.3
					c58.45,73.39,147.43-19.13,147.43-19.13s-88.11-34.68-14-79.41c41.53-25.1,32.73-66.63,16.95-98.3
					c22.65-27.44,22.29-57.24,12.37-82.01c-10.65-26.63-32.36-47.44-48.38-53.17c-32.88-11.76-39.21-111.57-127.71-140.71
					c-90.52-29.76-106.59,65.18-106.59,65.18C270.44,124.69,326.29,168.49,302.31,221.19z"/>
				<path fill="#771614" d="M337.1,177.21c15.68,14.05-10.65,50.76,34.16,52.18c44.82,1.38,71.55-10.11,71.55-10.11l3.77-1.14
					c-4.44-3.2-8.78-5.55-12.79-7c-6.34-2.26-11.67-7.78-16.8-15.45c0,0-16.65,11.68-22.17-12.97c-5.56-24.64-36.71-20.6-36.71-20.6
					c13.58,9.05,5.52,25.12,5.52,25.12C354.58,163.12,337.1,177.21,337.1,177.21z"/>
				<path fill="#771614" d="M466.85,524.04c0,0-88.11-34.68-14-79.41c9.11-5.52,15.81-11.83,20.51-18.65
					c-1.87,0.7-62.92,23.68-91.12,22.93C353.59,448.15,344.82,530.53,466.85,524.04z"/>
				<path fill="#771614" d="M381.56,328.85c15.4-10.72-3.61-49.77-3.61-49.77c16.31,2.34,33.57,38.53,33.57,38.53
					c14.19-7.39,0-26.01,0-26.01c25.25,6.32,15.97,38.17,22.01,53.8c2.41,6.25,8.68,7.64,15.35,7.08
					c27.68-11.39,33.3-88.16,33.3-88.16c9.92,24.77,10.29,54.56-12.37,82.01l-0.01,0.01c-18.26,40.7-70.96,46.52-105.65,28.42
					C329.46,356.66,366.16,339.57,381.56,328.85z"/>
			</g>
			<g>
				<path fill="#841618" d="M230.46,127.79c0,0-19.25,27.53-46.84,47.78c-40.59,29.78-59.09,2.83-72.17,23.06
					C111.46,198.63,151.07,52.39,230.46,127.79z"/>
				<path fill="#771614" d="M182.21,127.51c0,0,9.31,15-35.93,41.64c-45.25,26.64-20.11,92.04-20.11,92.04S94,223.44,114.11,183.73
					C134.21,144.02,160.32,158.77,182.21,127.51z"/>
			</g>
		</g>
	</g>
</g>
</svg>
