<?xml version="1.0" encoding="utf-8"?>
<!-- Generator: Adobe Illustrator 25.2.3, SVG Export Plug-In . SVG Version: 6.00 Build 0)  -->
<svg version="1.1" id="Layer_1" xmlns="http://www.w3.org/2000/svg" xmlns:xlink="http://www.w3.org/1999/xlink" x="0px" y="0px"
	 viewBox="0 0 576 576" enable-background="new 0 0 576 576" xml:space="preserve">
<g>
	<g>
		<defs>
			<path id="SVGID_1_" d="M576,288c0,159.06-128.94,288-288,288S0,447.06,0,288s128.94-288,288-288S576,128.94,576,288z"/>
		</defs>
		<use xlink:href="#SVGID_1_"  overflow="visible" fill="#F9E3D9"/>
		<clipPath id="SVGID_2_">
			<use xlink:href="#SVGID_1_"  overflow="visible"/>
		</clipPath>
		<g clip-path="url(#SVGID_2_)">
			<g>
				<path fill="#F68E44" d="M219.97,499.07c0,0,4.61-3.02,9.84-8.84l0.6-0.4c9.24-10.24,20.89-29.13,17.68-57.25l57.05-18.08
					c0,0,5.02,22.3,30.74,38.77l0.81,0.4c7.23,4.42,16.07,8.44,26.92,11.25c0,0,0,0,0,0.2c0,0,0.19,0,0.4,0c0.4,0.2,0.8,0.2,1.2,0.4
					c51.83,12.86-42.59,134.8-91.41,112.1c-48.82-22.5-58.87-72.12-58.87-72.12L219.97,499.07z"/>
				<path fill="#5DBECC" d="M119.72,923.82c31.14,28.33,147.46,75.54,242.49,80.76c0,0,49.22-90.4,15.07-185.22
					c-34.16-94.82-178.21-88.79-178.21-88.79c4.43,11.85,5.63,27.92-2.81,56.64C170.95,867.97,70.9,880.63,119.72,923.82z"/>
				<path fill="#00B0CA" d="M199.07,730.56c0.82-0.05,1.55-0.01,2.37-0.05C200.02,730.53,199.07,730.56,199.07,730.56z"/>
				<path fill="#00B0CA" d="M300.53,693.39c10.44,0.4,20.29,0.4,29.53-0.19c3.61-0.21,7.23-0.6,10.65-1.01
					c4.22-0.4,8.64-1.01,12.65-1.81c3.82-0.6,7.44-1.4,11.05-2.21c0.8-0.4,1.61-0.6,2.41-0.6c3.41-0.81,6.63-1.81,9.85-2.81
					c3.81-1,7.23-2.41,10.65-3.62c3.61-1.2,6.84-2.61,10.25-4.22c3.21-1.4,6.23-2.81,9.24-4.42c3.21-1.61,6.02-3.41,8.83-5.02
					c3.02-1.81,5.63-3.41,8.44-5.22c2.61-1.81,5.02-3.81,7.64-5.63c9.64-7.43,17.88-15.47,24.91-23.51
					c1.81-2.21,3.61-4.41,5.43-6.63c1.4-1.81,2.81-3.61,4.01-5.42c1.41-1.81,2.62-3.61,3.82-5.43c1.2-1.81,2.21-3.42,3.22-5.22
					c0.4-0.81,1.01-1.41,1.4-2.21c2.81-5.02,5.42-9.64,7.43-13.87c2.41-5.02,4.02-9.44,5.42-13.26c0.81-2.41,1.41-4.42,2.01-6.23
					c-4.22,32.55-17.07,74.13-45.2,120.74c-7.43,11.65-12.06,23.1-14.46,34.35c0,0-2.41,7.23-3.62,18.89
					c-1.61,16.67-0.6,42.39,14.26,68.7c4.97,8.56,8.47,19.88,10.27,32.73c0.31,2.24,0.57,4.52,0.79,6.84
					c0.42,4.5,0.55,9.2,0.54,13.96l0.07,0.41l-0.08,0.17c-0.24,50.57-24.79,112.8-89.73,132.92c0,0,49.22-90.4,15.07-185.22
					c-31.68-87.95-157.69-89.14-175.83-88.85c-0.82,0.04-1.56,0.01-2.38,0.05c-7.63-18.29-22.9-27.73-35.35-60.88
					C194.45,681.54,237.84,692.19,300.53,693.39z"/>
				<path fill="#F1624D" d="M257.13,541.06c8.44,2.01,18.68,1.41,31.34-3.21l-16.68-24.31L257.13,541.06z"/>
				<path fill="#F1624D" d="M119.72,923.82c31.14,28.33,147.46,75.54,242.49,80.76c0,0,49.22-90.4,15.07-185.22
					c-34.16-94.82-178.21-88.79-178.21-88.79c4.43,11.85,5.63,27.92-2.81,56.64C170.95,867.97,70.9,880.63,119.72,923.82z"/>
				<path fill="#00B0CA" d="M199.07,730.56c0.82-0.05,1.55-0.01,2.37-0.05C200.02,730.53,199.07,730.56,199.07,730.56z"/>
				<path fill="#963E32" d="M300.53,693.39c10.44,0.4,20.29,0.4,29.53-0.19c3.61-0.21,7.23-0.6,10.65-1.01
					c4.22-0.4,8.64-1.01,12.65-1.81c3.82-0.6,7.44-1.4,11.05-2.21c0.8-0.4,1.61-0.6,2.41-0.6c3.41-0.81,6.63-1.81,9.85-2.81
					c3.81-1,7.23-2.41,10.65-3.62c3.61-1.2,6.84-2.61,10.25-4.22c3.21-1.4,6.23-2.81,9.24-4.42c3.21-1.61,6.02-3.41,8.83-5.02
					c3.02-1.81,5.63-3.41,8.44-5.22c2.61-1.81,5.02-3.81,7.64-5.63c9.64-7.43,17.88-15.47,24.91-23.51
					c1.81-2.21,3.61-4.41,5.43-6.63c1.4-1.81,2.81-3.61,4.01-5.42c1.41-1.81,2.62-3.61,3.82-5.43c1.2-1.81,2.21-3.42,3.22-5.22
					c0.4-0.81,1.01-1.41,1.4-2.21c2.81-5.02,5.42-9.64,7.43-13.87c2.41-5.02,4.02-9.44,5.42-13.26c0.81-2.41,1.41-4.42,2.01-6.23
					c-4.22,32.55-17.07,74.13-45.2,120.74c-7.43,11.65-12.06,23.1-14.46,34.35c0,0-2.41,7.23-3.62,18.89
					c-1.61,16.67-0.6,42.39,14.26,68.7c4.97,8.56,8.47,19.88,10.27,32.73c0.31,2.24,0.57,4.52,0.79,6.84
					c0.42,4.5,0.55,9.2,0.54,13.96l0.07,0.41l-0.08,0.17c-0.24,50.57-24.79,112.8-89.73,132.92c0,0,49.22-90.4,15.07-185.22
					c-31.68-87.95-157.69-89.14-175.83-88.85c-0.82,0.04-1.56,0.01-2.38,0.05c-7.63-18.29-22.9-27.73-35.35-60.88
					C194.45,681.54,237.84,692.19,300.53,693.39z"/>
				<path fill="#F1624D" d="M140.61,537.24c0-0.2,0.2-0.2,0.2-0.2c20.69-9.44,41.38-19.29,61.88-29.33
					c5.82-2.81,11.45-5.83,17.28-8.84v0.19c1,3.62,2.21,6.83,3.42,9.85c4.61,11.05,14.26,28.13,33.75,32.14
					c8.44,2.01,18.68,1.41,31.34-3.21c2.41-0.81,5.02-2.01,7.64-3.22c52.43-24.72,66.89-67.09,67.5-69.51c0-0.2,0-0.2,0-0.2l0.4,0.2
					l1.01,0.2c2.61,0.2,9.23,1,17.48,1.61c27.72,2.21,78.35,10.25,90.81,22.1c12.25,11.65,21.69,37.56,17.27,79.35
					c0,0,0,0.2-0.2,0.4c0.81,9.44-37.76,131.99-189.84,124.56c-62.68-1.01-106.07-11.85-136.81-23.71
					c-1.61-4.42-3.02-9.24-4.62-14.67C138.2,587.27,140,542.06,140.61,537.24z"/>
				<g>
					<path fill="#963E32" d="M271.8,513.53l16.68,24.31l4.21,6.23c0,0,58.46-29.13,72.53-78.55l-0.19-0.2l-1.01-0.2l-0.4-0.2
						l-26.92-11.25l-0.81-0.4C335.88,453.26,312.38,496.46,271.8,513.53z"/>
					<path fill="#963E32" d="M219.97,498.87v0.19c1,3.62,2.21,6.83,3.42,9.85c12.24,33.15,32.14,35.16,32.14,35.16l1.61-3.02
						l14.66-27.52c-27.72-1.61-41.38-23.71-41.38-23.71l-0.6,0.4L219.97,498.87z"/>
				</g>
				<g>
					<path fill="#D1252A" d="M189.45,963.42c135.38-174.25,86.81-447.86,86.3-450.61l-7.89,1.46c0.49,2.71,48.4,272.84-84.76,444.21
						L189.45,963.42z"/>
				</g>
				<g>
					<path fill="#D1252A" d="M321.11,673.36c-19.64-19.46-14.56-62.96-14.32-64.81l0.25-2.08l2.1-0.12
						c7.46-0.37,72.99-3.72,80.48-2.43l1.73,0.29l0.32,1.73c0.25,1.48,6.26,36.28-10.07,58.64c-7.18,9.81-17.54,15.68-30.82,17.44
						c-2.2,0.29-4.3,0.44-6.34,0.44C335.05,682.46,327.23,679.4,321.11,673.36z M311.57,611.26c-0.75,8.81-2.53,43.08,13.06,58.52
						c6.3,6.22,14.87,8.63,25.46,7.26c11.87-1.57,21.1-6.75,27.41-15.4c13.03-17.81,10.46-45.51,9.48-52.93
						C377.24,608.2,338.45,609.87,311.57,611.26z"/>
				</g>
				<g>
					<defs>
						<path id="SVGID_3_" d="M119.72,923.83c31.14,28.32,147.46,75.54,242.49,80.75c64.94-20.12,89.49-82.35,89.73-132.92l0.08-0.17
							l-0.07-0.41c0.01-4.76-0.12-9.46-0.54-13.96c-0.21-2.32-0.47-4.6-0.79-6.84c-1.8-12.85-5.3-24.18-10.27-32.73
							c-14.86-26.31-15.87-52.03-14.26-68.7c1.21-11.66,3.62-18.89,3.62-18.89c2.4-11.24,7.03-22.7,14.46-34.35
							c28.13-46.61,40.98-88.2,45.2-120.74c-0.14,0.44-0.33,1.03-0.48,1.49c1.08-3.74,1.58-6.48,1.49-7.57c0.2-0.2,0.2-0.4,0.2-0.4
							c4.42-41.79-5.02-67.7-17.27-79.35c-12.46-11.85-63.08-19.89-90.81-22.1c-8.24-0.6-14.86-1.4-17.48-1.61l-1.01-0.2l-0.4-0.2
							c0,0,0,0,0,0.2c-0.61,2.42-15.07,44.8-67.5,69.51c-2.62,1.2-5.23,2.41-7.64,3.22c-12.66,4.62-22.9,5.22-31.34,3.21
							c-19.49-4.02-29.13-21.1-33.75-32.14c-1.21-3.02-2.42-6.23-3.42-9.85v-0.19c-5.83,3.01-11.46,6.02-17.28,8.84
							c-20.5,10.04-41.18,19.89-61.88,29.33c0,0-0.2,0-0.2,0.2c-0.6,4.82-2.41,50.03,18.48,117.72c1.61,5.43,3.01,10.25,4.62,14.67
							c11.74,4.53,25.37,8.9,41.16,12.64c-15.8-3.72-29.42-8.06-41.16-12.58c12.45,33.14,27.72,42.59,35.35,60.87
							c4.43,11.85,5.63,27.92-2.81,56.64C170.95,867.97,70.9,880.63,119.72,923.83z M201.44,730.51h0.04H201.44L201.44,730.51z
							 M210.95,730.6c-1.87-0.05-3.69-0.09-5.15-0.1C207.25,730.5,209.08,730.55,210.95,730.6z M300.53,693.34
							c4.49,0.22,8.56-0.03,12.85-0.03c-4.32-0.01-8.31,0.26-12.85,0.08c-7.34-0.14-14.36-0.43-21.17-0.82
							C286.17,692.94,293.19,693.22,300.53,693.34z M233.19,732.03c-7.97-0.81-14.99-1.21-20.54-1.4
							C218.19,730.81,225.2,731.23,233.19,732.03z M245.65,733.55c-3.68-0.53-7.21-0.94-10.6-1.31
							C238.45,732.61,241.96,733.03,245.65,733.55z M259.2,735.82c-3.56-0.68-7.03-1.25-10.42-1.77
							C252.18,734.57,255.63,735.14,259.2,735.82z M273.43,738.97c-3.44-0.86-6.84-1.61-10.18-2.3
							C266.6,737.36,269.98,738.1,273.43,738.97z M288.11,743.13c-3.31-1.06-6.62-2.01-9.91-2.9
							C281.5,741.12,284.79,742.07,288.11,743.13z M302.87,748.45c-3.18-1.27-6.36-2.48-9.56-3.58
							C296.51,745.98,299.68,747.17,302.87,748.45z M373.42,685.68c-2.16,0.66-4.31,1.35-6.6,1.88c-0.81,0-1.61,0.2-2.41,0.6
							c-3.61,0.81-7.23,1.61-11.05,2.21c-4.02,0.8-8.44,1.4-12.65,1.81c-3.41,0.4-7.03,0.8-10.65,1.01
							c-0.55,0.03-1.2-0.02-1.75,0.01C344.88,692.22,359.85,689.56,373.42,685.68z M317.36,755.1c-3-1.53-6.01-3-9.07-4.35
							C311.35,752.09,314.36,753.56,317.36,755.1z M331.29,763.19c-2.77-1.81-5.58-3.59-8.47-5.21
							C325.72,759.61,328.51,761.38,331.29,763.19z M344.37,772.94c-2.55-2.15-5.11-4.29-7.81-6.23
							C339.26,768.66,341.82,770.79,344.37,772.94z M356.27,784.57c-2.29-2.57-4.58-5.15-7.06-7.48
							C351.7,779.43,353.99,781.99,356.27,784.57z M391.85,679.27c-1.49,0.61-2.94,1.33-4.54,1.87c-3.42,1.21-6.83,2.62-10.65,3.62
							c-0.38,0.12-0.77,0.21-1.14,0.32C381.26,683.37,386.64,681.39,391.85,679.27z M377.27,819.36
							c-2.07-5.73-4.57-11.06-7.38-16.08C372.7,808.3,375.2,813.62,377.27,819.36z M487.36,581.09c-0.1,0.29-0.24,0.64-0.35,0.94
							c0.3-0.84,0.57-1.65,0.83-2.42C487.67,580.13,487.55,580.52,487.36,581.09z M481.94,594.35c-0.24,0.5-0.62,1.13-0.88,1.64
							c0.36-0.75,0.83-1.59,1.18-2.32C482.12,593.91,482.05,594.11,481.94,594.35z M483.38,591.03c0.74-1.66,1.43-3.28,2.03-4.8
							C484.83,587.74,484.1,589.38,483.38,591.03z M473.1,610.43c-0.17,0.31-0.38,0.59-0.56,0.89c0.97-1.55,1.88-3.08,2.76-4.59
							c-0.3,0.53-0.49,0.94-0.8,1.49C474.1,609.01,473.49,609.62,473.1,610.43z M466.06,621.07c-0.86,1.3-1.89,2.61-2.89,3.91
							c2.62-3.43,5.04-6.84,7.24-10.18c-0.19,0.29-0.33,0.55-0.53,0.84C468.68,617.46,467.47,619.26,466.06,621.07z M456.62,633.13
							c-0.62,0.7-1.38,1.4-2.02,2.11c2.75-3.08,5.43-6.17,7.82-9.24c-0.13,0.16-0.24,0.34-0.37,0.5
							C460.24,628.71,458.43,630.91,456.62,633.13z M443.48,646.53c1.79-1.66,3.46-3.35,5.11-5.04
							C446.91,643.19,445.27,644.86,443.48,646.53z M428.46,659.03c2.59-1.9,4.91-3.91,7.32-5.89c-1.39,1.15-2.6,2.37-4.06,3.49
							C430.59,657.4,429.53,658.22,428.46,659.03z M415.63,667.47c-0.42,0.25-0.89,0.51-1.31,0.75c4.45-2.61,8.75-5.32,12.74-8.17
							c-0.99,0.74-1.96,1.49-2.98,2.2C421.26,664.06,418.65,665.67,415.63,667.47z M397.56,676.91c-0.44,0.21-0.88,0.34-1.31,0.55
							c4.8-2.1,9.36-4.37,13.72-6.76c-1.07,0.6-2.01,1.22-3.16,1.79C403.79,674.11,400.77,675.51,397.56,676.91z M360.43,789.23
							c2.33,2.95,4.38,6.19,6.43,9.44C364.81,795.42,362.76,792.18,360.43,789.23z"/>
					</defs>
					<clipPath id="SVGID_4_">
						<use xlink:href="#SVGID_3_"  overflow="visible"/>
					</clipPath>
					<g clip-path="url(#SVGID_4_)">
						<path opacity="0.43" fill="#4D4D4D" d="M432.53,1244.21c7.54,2.07,15.08,4.13,22.61,6.19c93.68-342.44,93.68-703.77,0-1046.21
							c-7.54,2.06-15.08,4.13-22.61,6.18C525.11,548.76,525.11,905.82,432.53,1244.21z"/>
						<path opacity="0.43" fill="#4D4D4D" d="M387.24,1231.82c7.53,2.06,15.06,4.12,22.6,6.18c91.46-334.33,91.46-687.09,0-1021.43
							c-7.53,2.06-15.06,4.13-22.6,6.19C477.59,553.04,477.59,901.53,387.24,1231.82z"/>
						<path opacity="0.43" fill="#4D4D4D" d="M341.94,1219.43c7.53,2.05,15.06,4.12,22.6,6.18c89.25-326.22,89.25-670.42,0-996.64
							c-7.53,2.06-15.06,4.13-22.6,6.19C430.09,557.32,430.09,897.26,341.94,1219.43z"/>
						<path opacity="0.43" fill="#4D4D4D" d="M296.64,1207.03c7.54,2.07,15.08,4.12,22.61,6.19c87.03-318.11,87.03-653.75,0-971.86
							c-7.53,2.06-15.07,4.12-22.61,6.18C382.57,561.61,382.57,892.98,296.64,1207.03z"/>
						<path opacity="0.43" fill="#4D4D4D" d="M251.35,1194.65c7.53,2.06,15.08,4.12,22.61,6.18c84.81-310,84.81-637.08,0-947.08
							c-7.53,2.07-15.08,4.12-22.61,6.19C335.05,565.89,335.05,888.69,251.35,1194.65z"/>
						<path opacity="0.43" fill="#4D4D4D" d="M206.06,1182.25c7.53,2.06,15.06,4.13,22.6,6.19c82.59-301.89,82.59-620.41,0-922.3
							c-7.54,2.06-15.07,4.13-22.6,6.19C287.54,570.16,287.54,884.41,206.06,1182.25z"/>
						<path opacity="0.43" fill="#4D4D4D" d="M160.76,1169.87c7.54,2.05,15.08,4.11,22.61,6.18c80.37-293.77,80.37-603.74,0-897.52
							c-7.53,2.07-15.07,4.13-22.61,6.19C240.02,574.44,240.02,880.13,160.76,1169.87z"/>
						<path opacity="0.43" fill="#4D4D4D" d="M115.47,1157.47c7.54,2.06,15.08,4.12,22.61,6.18c78.15-285.66,78.15-587.07,0-872.72
							c-7.54,2.06-15.07,4.12-22.61,6.18C192.51,578.72,192.51,875.86,115.47,1157.47z"/>
						<path opacity="0.43" fill="#4D4D4D" d="M70.17,1145.08c7.54,2.07,15.07,4.12,22.6,6.19c75.93-277.55,75.93-570.4,0-847.95
							c-7.53,2.06-15.06,4.12-22.6,6.19C145,583,145,871.58,70.17,1145.08z"/>
						<path opacity="0.43" fill="#4D4D4D" d="M524.13,311.28c-2.14-10.14-4.34-20.28-6.63-30.39
							C362.65,315.9,207.8,350.91,52.95,385.91c1.75,7.74,3.44,15.49,5.06,23.24C213.38,376.53,368.75,343.9,524.13,311.28z"/>
						<path opacity="0.43" fill="#4D4D4D" d="M535.98,372.38c-1.81-10.19-3.7-20.36-5.67-30.53
							c-155.86,30.23-311.7,60.45-467.57,90.69c1.51,7.77,2.95,15.56,4.34,23.34C223.37,428.04,379.69,400.21,535.98,372.38z"/>
						<path opacity="0.43" fill="#4D4D4D" d="M545.94,433.73c-1.49-10.22-3.07-20.45-4.74-30.65
							C384.5,428.5,227.78,453.93,71.08,479.36c1.25,7.81,2.47,15.62,3.61,23.43C231.78,479.77,388.86,456.75,545.94,433.73z"/>
						<path opacity="0.43" fill="#4D4D4D" d="M554.01,495.29c-1.18-10.26-2.45-20.51-3.79-30.75
							c-157.42,20.61-314.84,41.22-472.26,61.82c1.03,7.84,1.99,15.68,2.89,23.52C238.57,531.68,396.29,513.48,554.01,495.29z"/>
						<path opacity="0.43" fill="#4D4D4D" d="M560.17,557.02c-0.86-10.29-1.82-20.55-2.85-30.82
							c-157.97,15.77-315.95,31.54-473.92,47.31c0.79,7.85,1.51,15.71,2.17,23.57C243.77,583.73,401.97,570.37,560.17,557.02z"/>
						<path opacity="0.43" fill="#4D4D4D" d="M564.44,618.86c-0.56-10.29-1.19-20.59-1.9-30.88
							c-158.38,10.92-316.76,21.85-475.14,32.77c0.55,7.87,1.03,15.74,1.44,23.62C247.37,635.87,405.91,627.36,564.44,618.86z"/>
						<path opacity="0.43" fill="#4D4D4D" d="M566.8,680.79c-0.23-10.31-0.55-20.61-0.94-30.92
							c-158.64,6.07-317.29,12.14-475.94,18.21c0.3,7.88,0.55,15.77,0.72,23.64C249.37,688.08,408.08,684.43,566.8,680.79z"/>
						<path opacity="0.43" fill="#4D4D4D" d="M567.28,742.75c0.08-10.31,0.08-20.62,0-30.93c-158.75,1.22-317.51,2.42-476.27,3.64
							c0.06,7.88,0.06,15.77,0,23.65C249.77,740.32,408.52,741.53,567.28,742.75z"/>
						<path opacity="0.43" fill="#4D4D4D" d="M565.86,804.69c0.4-10.31,0.71-20.61,0.94-30.92
							c-158.72-3.65-317.44-7.29-476.16-10.94c-0.18,7.88-0.42,15.77-0.72,23.64C248.57,792.55,407.22,798.62,565.86,804.69z"/>
						<path opacity="0.43" fill="#4D4D4D" d="M562.53,866.58c0.71-10.29,1.35-20.59,1.9-30.89c-158.53-8.5-317.07-17-475.61-25.51
							c-0.42,7.88-0.9,15.75-1.44,23.62C245.77,844.73,404.16,855.66,562.53,866.58z"/>
						<path opacity="0.43" fill="#4D4D4D" d="M557.33,928.38c1.03-10.27,1.98-20.54,2.84-30.83c-158.2-13.34-316.4-26.7-474.6-40.06
							c-0.66,7.86-1.38,15.72-2.17,23.58C241.38,896.84,399.35,912.6,557.33,928.38z"/>
						<path opacity="0.43" fill="#4D4D4D" d="M550.22,990.02c1.34-10.24,2.61-20.49,3.79-30.75
							c-157.71-18.19-315.43-36.39-473.15-54.58c-0.91,7.84-1.87,15.68-2.9,23.52C235.38,948.81,392.8,969.42,550.22,990.02z"/>
						<path opacity="0.43" fill="#4D4D4D" d="M541.22,1051.48c1.65-10.2,3.23-20.43,4.72-30.65
							c-157.08-23.02-314.17-46.04-471.25-69.06c-1.14,7.82-2.36,15.64-3.61,23.44C227.79,1000.63,384.5,1026.07,541.22,1051.48z"/>
						<path opacity="0.43" fill="#4D4D4D" d="M530.31,1112.72c1.98-10.16,3.86-20.34,5.68-30.53
							c-156.3-27.83-312.61-55.66-468.91-83.5c-1.38,7.79-2.83,15.58-4.35,23.35C218.59,1052.26,374.45,1082.49,530.31,1112.72z"/>
						<path opacity="0.43" fill="#4D4D4D" d="M517.51,1173.67c2.29-10.12,4.49-20.25,6.62-30.39
							c-155.36-32.62-310.75-65.25-466.11-97.87c-1.63,7.75-3.32,15.51-5.07,23.24C207.81,1103.66,362.66,1138.67,517.51,1173.67z"
							/>
					</g>
				</g>
			</g>
			<g>
				<polygon fill="#6A100F" points="220.86,291.45 98.64,253.23 94.97,267.14 216.76,297.52 				"/>
				<path fill="#4F1313" d="M212.64,170.63c0,0-67.76-67.43-72.05-8.46c-4.28,58.96,11.27,83,11.27,83s-2.48-79.15,15.72-70.72
					C185.8,182.88,212.64,170.63,212.64,170.63z"/>
				<path fill="#F8A064" d="M186.94,449.64c11.88,3.54,119.57-13.43,173.78-70.08c24.2-25.48,39.71-66.29,41.68-105.93
					c-30.72,8.21-54.51,14.78-54.51,14.78S360.67,399.22,186.94,449.64z"/>
				<path fill="#FAAD7A" d="M127.43,301.66c-23.28,20-2.35,63.06,5.76,76.95c7.94,13.86,41.84,67.66,53.75,71.03
					C360.67,399.22,347.9,288.42,347.9,288.42s23.79-6.57,54.51-14.78c2.22-48.75-16.03-95.7-63.56-110.86
					c-86.09-27.28-154.25-34.83-154.25-34.83s-50.3,74.64-43.56,111.94C147.81,277.02,150.93,281.47,127.43,301.66z"/>
				<path fill="#F8A064" d="M186.94,449.64c11.88,3.54,119.57-13.43,173.78-70.08c24.2-25.48,39.71-66.29,41.68-105.93
					c-30.72,8.21-54.51,14.78-54.51,14.78S360.67,399.22,186.94,449.64z"/>
				<g>
					<path fill="#772215" d="M156.88,388.18c0.11,0.34,0.23,0.68,0.36,1.01c0.15,0.4,0.27,0.81,0.44,1.22
						c-0.16-0.38-0.27-0.78-0.42-1.17c1.26,3.37,3.06,6.43,5.32,9.08c-0.07-0.08-0.15-0.14-0.21-0.23c0.06,0.08,0.15,0.15,0.22,0.23
						c0.31,0.36,0.65,0.69,0.98,1.03c0.54,0.58,1.07,1.17,1.66,1.71c0.27,0.24,0.57,0.45,0.84,0.69c0.64,0.55,1.27,1.11,1.96,1.61
						c0.34,0.24,0.71,0.43,1.06,0.66c0.75,0.49,1.49,0.99,2.27,1.42c0.62,0.34,1.27,0.6,1.92,0.9c0.55,0.25,1.09,0.53,1.64,0.74
						c0.64,0.25,1.29,0.43,1.93,0.63c0.61,0.19,1.21,0.4,1.83,0.55c0.62,0.16,1.24,0.26,1.87,0.37c0.67,0.12,1.35,0.25,2.03,0.32
						c0.2,0.03,0.4,0.08,0.61,0.1c0.49,0.05,0.97,0.03,1.46,0.05c0.53,0.02,1.06,0.05,1.59,0.05c0.75,0,1.51-0.06,2.26-0.12
						c0.49-0.04,0.97-0.06,1.46-0.12c0.96-0.13,1.9-0.32,2.85-0.53c0.28-0.07,0.57-0.1,0.85-0.18c1.28-0.32,2.55-0.72,3.8-1.22
						c3.49-1.38,6.64-2.95,9.49-4.61c0.23-0.14,0.47-0.27,0.7-0.4c0.37-0.22,0.73-0.45,1.09-0.68c0.41-0.25,0.82-0.51,1.21-0.77
						c0.22-0.14,0.43-0.29,0.64-0.44c0.51-0.34,1.03-0.7,1.51-1.05c0.12-0.08,0.23-0.17,0.34-0.25c0.57-0.41,1.12-0.83,1.66-1.25
						c0.06-0.05,0.12-0.1,0.19-0.14c0.57-0.45,1.12-0.9,1.66-1.35c0.06-0.05,0.11-0.1,0.17-0.15c0.52-0.44,1.04-0.89,1.53-1.34
						c0.1-0.09,0.19-0.18,0.28-0.26c0.44-0.4,0.87-0.81,1.29-1.21c0.18-0.18,0.34-0.34,0.51-0.51c0.31-0.31,0.62-0.62,0.92-0.94
						c0.31-0.32,0.6-0.64,0.9-0.96c0.14-0.15,0.28-0.3,0.42-0.45c1.84-2.05,3.37-4.02,4.61-5.82c5.18-7.51,6.75-13.67,6.76-13.73
						l0.01-0.05l-0.03,0.03c-10.03,11.1-25.87,15.12-38.38,16.46c2.55-0.27,5.15-0.65,7.75-1.14c-15.77,3-31.7,1.58-38.6,0.08
						c0.43,0.09,0.9,0.19,1.4,0.27c-1.95-0.35-3.41-0.73-4.24-1.09c-0.16-0.06-0.3-0.16-0.44-0.23c-0.22-0.12-0.44-0.22-0.63-0.36
						c-0.18-0.12-0.36-0.28-0.54-0.44c-0.16-0.14-0.31-0.27-0.44-0.42c-0.18-0.18-0.36-0.39-0.53-0.6c-0.1-0.14-0.21-0.28-0.32-0.42
						c-0.18-0.26-0.36-0.53-0.53-0.83c-0.06-0.1-0.12-0.22-0.18-0.33c-0.19-0.36-0.38-0.74-0.55-1.16c-0.03-0.05-0.04-0.1-0.04-0.1
						c-0.65-1.55-1.17-3.39-1.58-5.56l-0.01-0.08l-0.01,0.08c-0.07,0.59-0.12,1.22-0.15,1.87c-0.07,1.37-0.04,2.72,0.06,4.06
						c0.01,0.2,0.05,0.4,0.06,0.6c0.1,1.09,0.25,2.17,0.46,3.23c0.06,0.29,0.14,0.58,0.2,0.87
						C156.33,386.36,156.58,387.28,156.88,388.18z M155.56,382.1c0.09,0.76,0.18,1.52,0.32,2.26
						C155.74,383.62,155.65,382.86,155.56,382.1z M155.36,377.96c-0.01,0.85-0.03,1.71,0.03,2.54
						C155.33,379.66,155.34,378.81,155.36,377.96z M156.82,379.73c-0.05-0.13-0.1-0.25-0.14-0.38
						C156.72,379.48,156.77,379.61,156.82,379.73z M155.82,376.38l-0.01-0.03L155.82,376.38z M156.28,378.13
						c-0.04-0.13-0.08-0.26-0.12-0.39C156.21,377.87,156.25,378,156.28,378.13z M157.44,381.18c-0.05-0.1-0.1-0.19-0.14-0.29
						C157.34,380.99,157.4,381.08,157.44,381.18z M158.18,382.5c-0.05-0.07-0.1-0.14-0.14-0.22
						C158.08,382.35,158.14,382.43,158.18,382.5z M160.08,384.58c-0.03-0.03-0.07-0.05-0.1-0.08
						C160.01,384.52,160.05,384.56,160.08,384.58z M164.12,386.07c-0.19-0.04-0.35-0.08-0.53-0.12
						C163.77,385.99,163.93,386.03,164.12,386.07z M226.99,376.32l0.03-0.03L226.99,376.32z M224.49,377.98
						c0.08-0.05,0.16-0.09,0.24-0.14C224.65,377.89,224.57,377.94,224.49,377.98z M221.96,379.44c0.12-0.06,0.25-0.13,0.38-0.2
						C222.22,379.31,222.09,379.38,221.96,379.44z M219.38,380.75c0.16-0.08,0.32-0.15,0.48-0.23
						C219.7,380.6,219.54,380.67,219.38,380.75z M202.87,385.95c0.59-0.12,1.18-0.25,1.77-0.37
						C204.06,385.71,203.47,385.84,202.87,385.95z M216.73,381.91c0.19-0.08,0.4-0.16,0.6-0.25
						C217.13,381.75,216.93,381.83,216.73,381.91z M214.03,382.95c0.23-0.08,0.47-0.17,0.71-0.26
						C214.51,382.78,214.27,382.86,214.03,382.95z M211.28,383.86c0.29-0.08,0.57-0.18,0.86-0.27
						C211.86,383.68,211.57,383.78,211.28,383.86z M208.5,384.66c0.35-0.09,0.7-0.19,1.05-0.29
						C209.2,384.47,208.85,384.57,208.5,384.66z M205.7,385.36c0.44-0.1,0.88-0.21,1.32-0.32
						C206.57,385.15,206.14,385.26,205.7,385.36z M163.95,399.76c0.39,0.4,0.76,0.83,1.17,1.2
						C164.71,400.58,164.35,400.15,163.95,399.76z M158.92,383.49c0.05,0.06,0.1,0.12,0.14,0.17
						C159.01,383.6,158.96,383.54,158.92,383.49z M156.86,388.09c-0.25-0.77-0.46-1.54-0.65-2.33
						C156.4,386.55,156.61,387.33,156.86,388.09z"/>
					<path fill="#EBEFEA" d="M154.48,371.46c-0.12,1.38-0.19,2.06,0.03,3.17c0.77,4.08,2.26,9.01,5.78,10.46
						c6.22,2.6,52.67,8.15,73.08-14.42C210.34,381.91,154.48,371.46,154.48,371.46z"/>
				</g>
				<path fill="#47200F" d="M288.22,301.2c-36.48-27.91-57.8-9.4-57.8-9.4l-4.71-5.54C225.71,286.27,260.31,256.52,288.22,301.2z"/>
				<path fill="#47200F" d="M141.71,280.61c18.72-20.5,28.88,1.61,28.88,1.61l2.46-4.54C173.06,277.68,156.57,242.1,141.71,280.61z"
					/>
				<path fill="#3E1313" d="M169.36,214.37l3.04,17.06c0,0-18.81,14.6-33.47,15.35l1.01-10.91
					C139.94,235.88,162.67,226.79,169.36,214.37z"/>
				
					<radialGradient id="SVGID_5_" cx="1391.2758" cy="388.1172" r="36.1116" gradientTransform="matrix(-0.9999 -0.0134 -0.0134 0.9999 1648.73 -26.0431)" gradientUnits="userSpaceOnUse">
					<stop  offset="0.0622" style="stop-color:#ED8E7B"/>
					<stop  offset="0.9486" style="stop-color:#FAAD7A"/>
				</radialGradient>
				<path fill="url(#SVGID_5_)" d="M211.55,326.56c-5.39,13.08,8.53,31.21,31.08,40.51c22.56,9.29,45.21,6.23,50.61-6.84
					c5.39-13.08-8.53-31.21-31.09-40.51C239.59,310.42,216.94,313.49,211.55,326.56z"/>
				
					<radialGradient id="SVGID_6_" cx="1506.8999" cy="366.6879" r="22.6812" gradientTransform="matrix(-0.9999 -0.0134 -0.0134 0.9999 1648.73 -26.0431)" gradientUnits="userSpaceOnUse">
					<stop  offset="0.0622" style="stop-color:#ED8E7B"/>
					<stop  offset="0.9486" style="stop-color:#FAAD7A"/>
				</radialGradient>
				<path fill="url(#SVGID_6_)" d="M119.22,313.06c-5.39,13.08-1.77,26.96,8.08,31.03c9.86,4.06,22.22-3.25,27.61-16.33
					c5.39-13.08,1.77-26.97-8.08-31.03C136.97,292.68,124.61,299.99,119.22,313.06z"/>
				<path fill="#ED865E" d="M187.53,281.19c-0.34-0.4-4.82,24.77-24.55,41.3c-19.72,16.52,7.34,27.95,16.67,25.63
					c9.33-2.31,9.06,3.73,14.12,3.42c4.68-0.28,12.27-10.85-1.24-13.55C179.02,335.3,207.77,304.6,187.53,281.19z"/>
				<path fill="#4F1313" d="M356.94,55.13c6.77-6.2,10.66-11.68,23.83-13.55c18.65-9.61,68.09,1.84,68.09,1.84
					c-10.18,4.6-11.03,11.54-7.88,18.8c6.52,4.48,12.85,9.73,18.79,15.74c33.5,33.92,41.75,78.71,18.44,100.02
					c-23.3,21.32-69.34,11.09-102.84-22.84C341.89,121.22,333.63,76.44,356.94,55.13z"/>
				<path fill="#F47853" d="M437.67,187.96l-4.33,6.09c0,0-36.76-61.64-101.1-82.37l7.1-10.89
					C339.34,100.79,408.36,123.51,437.67,187.96z"/>
				<g>
					<path fill="#801517" d="M94.97,267.14c0,0,4.17-0.44,5.93,4.52v0.02c-2.13,6.21-3.28,14.21-0.81,23.25
						c0.82,2.96,1.94,5.63,3.29,8.01c3,5.32,7.07,9.22,11.01,12.02c3.34,2.4,6.58,3.98,8.99,4.98c2.29,0.96,3.87,1.36,4.07,1.42
						c0.21,0.07,1.72,0.51,4.08,0.92c0.75,0.13,1.62,0.26,2.55,0.37c6.6,0.77,16.95,0.6,25.97-5.6
						c5.62-3.88,10.58-10.01,14.79-18.31c0.99-1.98,1.71-4.05,2.2-6.11l0,0c5.19-12.78,12.52-10,12.52-10s7.82-0.16,8.42,13.63l0,0
						c-0.23,2.11-0.24,4.3,0.03,6.49c0.81,6.43,2.33,11.99,4.52,16.64c0.96,2.03,2.03,3.89,3.26,5.58c2.13,2.93,4.61,5.29,7.21,7.19
						c2.98,2.17,6.12,3.74,9.06,4.88c3.37,1.31,6.5,2.03,8.84,2.44c0.69,0.12,1.32,0.2,1.85,0.27c1.3,0.18,2.14,0.23,2.3,0.23
						c0.81,0.07,22.4,1.8,34.64-15.71c5.36-7.68,6.97-15.6,7.04-22.17v-0.02c3.32-4.09,7.11-2.27,7.11-2.27s1.09-12.91,1.2-14.34
						l-11.39-0.9l-0.75-0.06c-1.67-2.13-4.46-3.93-7.88-5.43c-3.01-1.31-6.53-2.41-10.27-3.29c-5.82-1.36-12.12-2.26-17.86-2.74
						c-7.03-0.6-13.16-0.64-16.38-0.27c-0.68,0.07-1.36,0.18-2.05,0.32c-2.37,0.47-4.58,1.28-6.64,2.37c0,0-18.14,2.45-21.13,0.77
						c-2.59,0.44-12.67-4.36-17.3-6.63c-1.46-0.74-2.36-1.2-2.36-1.2c-1.59-1.72-3.39-3.22-5.47-4.46c-0.14-0.1-0.31-0.19-0.45-0.27
						c-0.46-0.27-0.9-0.51-1.36-0.73c-1.84-0.9-4.78-2.03-8.43-3.2c-4.76-1.52-10.69-3.11-16.76-4.22l-0.01-0.01
						c-10.99-2.07-22.39-2.7-28.09,0.88l-11.76-3.18C98.28,254.61,94.97,267.14,94.97,267.14z M219.27,277.61
						c0.57-0.11,1.13-0.2,1.7-0.29c3.32-0.38,7.81-0.38,12.75-0.04c4.28,0.28,8.88,0.84,13.36,1.61c1.59,0.28,3.16,0.57,4.68,0.9
						c3.89,0.84,7.5,1.86,10.46,3.02c4.23,1.64,7.19,3.6,7.82,5.78l0.08,0.19c0,0,0.05,0.12,0.13,0.32
						c0.81,2.46,5.66,18.28-4.25,32.49c-9.7,13.87-26.7,13.94-30.07,13.8c-0.36-0.01-0.57-0.03-0.58-0.03
						c-0.14-0.01-4.77-0.27-10.43-2.25c-2.94-1.02-6.19-2.52-9.2-4.69c-2.28-1.66-4.45-3.68-6.28-6.22
						c-1.48-2.03-2.74-4.39-3.78-7.06c-1.48-3.76-2.53-8.11-3.15-13.02C201.01,290.56,208.4,279.79,219.27,277.61z M111.57,261.39
						l0.14-0.17c0.15-0.2,0.32-0.38,0.51-0.58c0,0,0.05-0.04,0.08-0.06c0.21-0.17,0.45-0.34,0.71-0.51c0.1-0.05,0.18-0.11,0.28-0.16
						c0.1-0.05,0.2-0.1,0.31-0.16c0.23-0.12,0.47-0.22,0.74-0.31c0.07-0.04,0.14-0.05,0.22-0.08c0.31-0.11,0.63-0.22,0.99-0.3
						c0.19-0.06,0.41-0.09,0.6-0.15c0.96-0.21,1.98-0.34,3.13-0.42c0.25-0.03,0.53-0.05,0.79-0.05c1.2-0.07,2.46-0.08,3.81-0.04
						c0.57,0.01,1.16,0.04,1.77,0.07c1.23,0.07,2.5,0.18,3.8,0.31c1.98,0.22,3.98,0.5,6.04,0.83c0.36,0.04,0.74,0.1,1.12,0.17
						c3.42,0.59,6.88,1.33,10.16,2.18c0.53,0.14,1.05,0.27,1.56,0.41c1.42,0.36,2.82,0.77,4.15,1.18c0.92,0.27,1.78,0.57,2.65,0.86
						c0.28,0.09,0.56,0.19,0.83,0.28c2.2,0.78,4.17,1.59,5.77,2.38c0.21,0.1,0.4,0.21,0.61,0.34c0.29,0.16,0.6,0.34,0.9,0.5
						c0.47,0.29,0.93,0.58,1.38,0.92c0.45,0.31,0.87,0.64,1.27,0.99c0.36,0.29,0.71,0.63,1.07,0.97c0.1,0.08,0.18,0.14,0.23,0.23
						c0.36,0.34,0.66,0.7,0.96,1.05c0.64,0.71,1.19,1.49,1.72,2.27c0.05,0.1,0.1,0.2,0.18,0.29c0.29,0.45,0.55,0.92,0.77,1.4
						c0.02,0.03,0.04,0.05,0.04,0.05c0.26,0.46,0.46,0.92,0.66,1.37c0.21,0.5,0.4,1,0.57,1.49c0.19,0.5,0.35,1.02,0.47,1.53
						c0.14,0.51,0.26,1.03,0.35,1.55c0.28,1.42,0.42,2.89,0.39,4.35c0.01,0.33-0.01,0.68-0.03,1c-0.13,3.13-0.95,6.3-2.45,9.27
						c-3.83,7.57-8.31,13.16-13.28,16.59c-0.47,0.32-0.94,0.63-1.42,0.9c-0.38,0.23-0.74,0.45-1.14,0.64
						c-0.38,0.21-0.76,0.4-1.16,0.59c-0.52,0.23-1.02,0.47-1.53,0.64c-0.57,0.25-1.16,0.47-1.74,0.65
						c-3.48,1.15-6.92,1.58-10.03,1.65c-0.32,0.02-0.64,0.01-0.94,0c-0.78,0.01-1.53-0.01-2.24-0.06l-0.03-0.01
						c-4.97-0.25-8.48-1.3-8.61-1.33c-0.05-0.01-0.97-0.26-2.47-0.84c-1.08-0.4-2.49-0.99-4.04-1.79c-0.38-0.21-0.78-0.42-1.16-0.62
						c-0.42-0.21-0.81-0.47-1.23-0.71c-0.85-0.52-1.76-1.09-2.66-1.72c-0.96-0.7-1.95-1.46-2.9-2.29c-0.16-0.12-0.32-0.27-0.48-0.42
						c0.01-0.02-0.01-0.03-0.01-0.03c-0.32-0.29-0.64-0.57-0.93-0.88c-1.48-1.4-2.87-3.02-4.13-4.87c-0.16-0.26-0.35-0.5-0.51-0.76
						c-0.64-0.97-1.23-2.01-1.77-3.13c-0.56-1.14-1.06-2.35-1.48-3.64c-0.19-0.49-0.33-1.03-0.49-1.57
						C99.48,275.6,111.45,261.53,111.57,261.39z"/>
					<path opacity="0.13" fill="#30C0CB" d="M169.85,274.36l-32.53,43.92c0.7,0.05,1.46,0.07,2.24,0.06c0.29,0.01,0.62,0.02,0.94,0
						c3.11-0.07,6.55-0.5,10.03-1.65c0.58-0.18,1.17-0.4,1.74-0.65c0.51-0.17,1.01-0.41,1.53-0.64c0.4-0.19,0.78-0.38,1.16-0.59
						c0.4-0.19,0.75-0.41,1.14-0.64c0.48-0.27,0.95-0.58,1.42-0.9c4.97-3.43,9.44-9.02,13.28-16.59c1.5-2.98,2.32-6.15,2.45-9.27
						c0.03-0.32,0.05-0.67,0.03-1c0.03-1.46-0.11-2.93-0.39-4.35c-0.09-0.53-0.21-1.04-0.35-1.55c-0.14-0.51-0.3-1.03-0.47-1.53
						c-0.16-0.51-0.36-0.99-0.57-1.49c-0.19-0.45-0.42-0.91-0.64-1.35c0,0-0.04-0.05-0.06-0.07c-0.24-0.49-0.51-0.93-0.77-1.4
						C169.95,274.56,169.9,274.46,169.85,274.36z"/>
					<path opacity="0.13" fill="#30C0CB" d="M152.46,263.56l-35.33,47.7c0.9,0.62,1.81,1.2,2.66,1.72c0.42,0.24,0.81,0.49,1.23,0.71
						c0.38,0.2,0.78,0.41,1.16,0.62c1.55,0.81,2.96,1.4,4.04,1.79l36.11-48.68c-0.21-0.13-0.4-0.23-0.61-0.34
						c-1.61-0.79-3.57-1.6-5.77-2.38c-0.27-0.09-0.55-0.19-0.83-0.28C154.24,264.13,153.38,263.83,152.46,263.56z"/>
					<path opacity="0.13" fill="#30C0CB" d="M104.42,293.68c0.16,0.54,0.32,1.06,0.49,1.57c0.42,1.29,0.92,2.5,1.48,3.64
						l29.09-39.27c-2.05-0.36-4.08-0.64-6.04-0.83c-1.31-0.14-2.57-0.24-3.8-0.31c-0.61-0.03-1.2-0.06-1.77-0.07
						c-1.35-0.05-2.61-0.03-3.81,0.04c-0.25,0.01-0.53,0.03-0.79,0.05c-1.14,0.08-2.17,0.21-3.13,0.42c-0.19,0.06-0.4,0.09-0.6,0.15
						c-0.36,0.08-0.68,0.19-0.99,0.3c-0.08,0.03-0.15,0.04-0.22,0.08c-0.27,0.09-0.51,0.19-0.74,0.31c-0.1,0.05-0.21,0.1-0.31,0.16
						c-0.1,0.05-0.18,0.11-0.28,0.16c-0.26,0.17-0.49,0.34-0.71,0.51c-0.03,0.02-0.05,0.04-0.05,0.04c-0.22,0.22-0.39,0.4-0.54,0.6
						l-0.14,0.17C111.45,261.53,99.48,275.6,104.42,293.68z"/>
					<path opacity="0.13" fill="#30C0CB" d="M270.24,289.13l-34.32,46.29c3.37,0.14,20.37,0.07,30.07-13.8
						C275.9,307.41,271.05,291.58,270.24,289.13z"/>
					<path opacity="0.13" fill="#30C0CB" d="M251.75,279.8l-36.05,48.65c3.02,2.18,6.26,3.67,9.2,4.69l37.3-50.32
						C259.25,281.66,255.65,280.64,251.75,279.8z"/>
					<path opacity="0.13" fill="#30C0CB" d="M202.49,302.15c0.62,4.91,1.67,9.26,3.15,13.02l28.08-37.88
						c-4.94-0.34-9.43-0.34-12.75,0.04c-0.57,0.08-1.12,0.18-1.7,0.29C208.4,279.79,201.01,290.56,202.49,302.15z"/>
					<g>
						<path opacity="0.25" fill="#73CEE1" d="M224.91,333.14c5.66,1.98,10.29,2.24,10.43,2.25c0.02,0,0.23,0.01,0.58,0.03
							l34.32-46.29c-0.08-0.2-0.13-0.3-0.13-0.3l-0.08-0.22c-0.63-2.18-3.59-4.15-7.82-5.78L224.91,333.14z"/>
						<path opacity="0.25" fill="#73CEE1" d="M205.64,315.17c1.03,2.67,2.29,5.04,3.78,7.06c1.83,2.53,4,4.56,6.28,6.22l36.05-48.65
							c-1.52-0.33-3.09-0.62-4.68-0.9c-4.47-0.77-9.07-1.33-13.36-1.61L205.64,315.17z"/>
						<path opacity="0.25" fill="#73CEE1" d="M126.21,316.1c1.5,0.58,2.42,0.84,2.47,0.84c0.13,0.03,3.64,1.07,8.61,1.33l0.03,0.01
							l32.53-43.92c-0.53-0.79-1.08-1.56-1.72-2.27c-0.3-0.36-0.6-0.71-0.96-1.05c-0.05-0.08-0.14-0.14-0.23-0.23
							c-0.33-0.34-0.69-0.66-1.07-0.97c-0.4-0.35-0.83-0.68-1.27-0.99c-0.45-0.33-0.9-0.62-1.38-0.92c-0.29-0.16-0.61-0.34-0.9-0.5
							L126.21,316.1z"/>
						<path opacity="0.25" fill="#73CEE1" d="M106.39,298.89c0.54,1.12,1.14,2.16,1.77,3.13c0.16,0.26,0.35,0.5,0.51,0.76
							c1.25,1.85,2.65,3.46,4.13,4.87c0.29,0.31,0.61,0.59,0.91,0.85c0,0,0.04,0.03,0.03,0.05c0.16,0.15,0.32,0.29,0.48,0.42
							c0.96,0.84,1.95,1.59,2.9,2.29l35.33-47.7c-1.33-0.42-2.72-0.82-4.15-1.18c-0.51-0.14-1.03-0.27-1.56-0.41
							c-3.29-0.84-6.74-1.59-10.16-2.18c-0.38-0.06-0.75-0.13-1.12-0.17L106.39,298.89z"/>
					</g>
				</g>
				<path fill="#4F1313" d="M387.01,326.8c0,0-42.93-38.55-36.91-66.22c0,0-175.55-42.59-193.19-113.46
					c0,0,55.68-94.48,187.64-32.69C476.53,176.22,492.12,299.01,387.01,326.8z"/>
				<path fill="#3E1313" d="M225.71,232.11c-1.09,0.65,24.32,23.95,34.11,26.24c4.84,3.3,15.9,4.32,27.15,4l3.22-9.8
					c-18.23-3.09-39.4-14.41-49.29-34.39C237.14,220.93,229.41,229.12,225.71,232.11z"/>
				<polygon fill="#6A100F" points="407.24,323.68 285.01,285.46 283.82,299.8 403.13,329.75 				"/>
				<g>
					<path fill="#F8A064" d="M376.08,328.89c0,0,51.68-40.21,40.23,12.8c-11.44,53.02-50.67,16.84-50.67,16.84L376.08,328.89z"/>
					<path fill="#F48020" d="M391.11,350.24c1-6.64-2.59-31.14,17.01-21.26c0,0-14.96-3.77-13.89,9.9c0.06,0.84,0.15,1.57,0.23,2.35
						c4.41-1.99,9.97,1.73,9.97,1.73c-3.99-1.79-7.57-0.44-9.74,0.74c1.12,10.27,2.23,14.8-5.93,13.82
						C379.43,356.4,390.11,356.87,391.11,350.24z"/>
				</g>
			</g>
		</g>
	</g>
</g>
</svg>
