<?xml version="1.0" encoding="utf-8"?>
<!-- Generator: Adobe Illustrator 25.2.3, SVG Export Plug-In . SVG Version: 6.00 Build 0)  -->
<svg version="1.1" id="Layer_1" xmlns="http://www.w3.org/2000/svg" xmlns:xlink="http://www.w3.org/1999/xlink" x="0px" y="0px"
	 viewBox="0 0 576 576" enable-background="new 0 0 576 576" xml:space="preserve">
<g>
	<g>
		<defs>
			<path id="SVGID_1_" d="M575.63,288c0,159.06-128.94,288-288,288c-159.06,0-288-128.94-288-288c0-159.05,128.94-288,288-288
				C446.69,0,575.63,128.94,575.63,288z"/>
		</defs>
		<use xlink:href="#SVGID_1_"  overflow="visible" fill="#F9E3D9"/>
		<clipPath id="SVGID_2_">
			<use xlink:href="#SVGID_1_"  overflow="visible"/>
		</clipPath>
		<g clip-path="url(#SVGID_2_)">
			<path fill="#8E2D1D" d="M124.76,411.19c0,0,225.67,27.16,311.26,17.54c0,0-49.93-95.98-28.53-215.83
				c21.39-119.85-230.35-52.24-230.35-52.24l-5.05,134.33C172.09,294.99,142.07,396.01,124.76,411.19z"/>
			<path fill="#C43C27" d="M153.17,182.96c0,0,0.45,189.14-28.41,228.22c0,0,66.57-69.51,44.78-239.44L153.17,182.96z"/>
			<path fill="#262E30" d="M168.42,463.29c0,0,6.68-75.42,128.4-76.65s115.65,42.49,115.65,42.49l-79.46,58.87l-154.81,5.94
				L168.42,463.29z"/>
			<path fill="#ED7154" d="M18.73,646.38c-7.29,5.51-14.76,7.59-21.14,3.62c-14.75-9.15-48.55-188.01-64.03-265.07l20.54-8.5
				C-29.28,460.99,3.72,635.69,18.73,646.38z"/>
			<path fill="#F68E5A" d="M18.73,646.38c-15-10.69-48-185.38-64.64-269.95l30.34-12.53c11.3,55.25,64.21,226.37,64.21,226.37
				C49.09,608.04,35.23,633.93,18.73,646.38z"/>
			<path fill="#ED7154" d="M-104.44,409.74c2.01,1.07,35.72,23.02,69.63,14.69c16.06-3.95,29.22-48.17,23.28-55.88
				c-5.94-7.7-39.63-39.92-39.63-39.92l-43.89,16.84C-95.04,345.46-118.59,402.18-104.44,409.74z"/>
			<g>
				<path fill="#B7E3EA" d="M-43.86,125.74l-54.82,6.96l-54.82,6.96c0,0-22.93,162.07,75.93,159.2
					C18.87,276.92-43.86,125.74-43.86,125.74z"/>
				<path fill="#B7E3EA" d="M-38.95,189.87l-103.3,13.12c-3.04-27.4-1.55-53.37-0.45-64.69l88-11.18
					C-50.79,137.8-42.92,162.63-38.95,189.87z"/>
				<path fill="#B7E3EA" d="M-114.98,441.37c0,0,48.27-10.3,45.04-45c-3.31-35.53-12.46-98.73-12.46-98.73s-5.14-30.14-19.34-37.41
					l18.95-2.4l23.12,181.95C-59.67,439.78-105.89,448.68-114.98,441.37z"/>
				<path fill="#B7E3EA" d="M-5.73,427.49c0,0-50.9,2.32-54.86-32.31c-3.99-34.85-12.63-98.7-12.63-98.7s-2.55-30.47,9.38-41.06
					l-18.96,2.41l23.12,181.95C-59.67,439.78-12.69,436.84-5.73,427.49z"/>
				<path fill="#4E151C" d="M-53.22,276.2c-6.6,7.27-14.9,12.14-25.33,14.83c-10.83,0-20.09-2.63-28.23-8.03
					c-22.67-14.9-32.03-48.4-35.47-80.02l103.3-13.12C-34.37,221.38-35.06,256.15-53.22,276.2z"/>
				<path opacity="0.5" fill="#FFFFFF" d="M-143.19,144.23l33.6-4.27c0,0-10.05,144.21,31.15,152.05
					C-78.44,292.01-160.52,293.24-143.19,144.23z"/>
			</g>
			<path fill="#F68E5A" d="M-115.05,342.68c0,0-12.47,5.31-9.48,15.13s11.81,17.13,39.72,21.01c27.91,3.88,25.21-4.35,22.91-9.26
				C-64.2,364.67-95.54,345.85-115.05,342.68z"/>
			<path fill="#F68E5A" d="M-115.05,342.68c-9.61-5.05-13.28-34.42,7.06-25.63c20.34,8.79,48.2,19.77,42.92,31.42
				S-71.23,365.75-115.05,342.68z"/>
			<path fill="#F68E5A" d="M-59.46,312.86c-6.11-2.6-7.77-10.3-17.74-11.6c-14.59-1.91-33.92-22.86-36.96-12.39
				c-8.42,28.98,49.72,50.91,49.72,50.91s11.85,43.26,32.21,52.59c33.73,15.45,22.82-43.65,7.44-56.64
				C-36.87,325.53-46.71,318.29-59.46,312.86z"/>
			<path fill="#F68E5A" d="M-109.51,366.48c0,0-10.93,2.65-7.06,16.04c3.88,13.39,45.53,20.2,49.21,15.2
				c3.68-4.99,4.07-12.2-7.87-17.07C-87.17,375.78-109.51,366.48-109.51,366.48z"/>
			<path fill="#F68E5A" d="M-102.84,390.73c0,0-15.34,6.35-8.87,17.58c6.34,11,43.1,10.12,46.46,7.38
				c3.36-2.75,8.11-14.68-16.15-19.22C-105.63,391.92-102.84,390.73-102.84,390.73z"/>
			<path fill="#4C5C64" d="M335.09,417.89l-33.15,90.16c-13.86,8.23-29.15,12.33-45.21,8.84c-2.6-0.57-5.08-1.21-7.44-1.95
				l-12.58-76.89C271.7,423.89,305.11,418.41,335.09,417.89z"/>
			<path fill="#4C5C64" d="M180.42,674.11c4.72,2.64,9.91,4.99,15.54,7.2c7.07,2.7,13.85,8.01,20.22,15.5
				c15.17,17.63,25.56,42.51,30.6,78.71h240.16c0.08-6.75,0.16-13.61,0.21-20.74c-0.01-0.05,0.03-0.14,0.02-0.19
				c4.62-24.82,5.05-56.02,3.8-85.58l-0.01-0.09l-4.33-37.2l-6.87-58.45l-1.12-9.52l-13.62-116.36c0,0-22.71-13.01-59.57-21.74
				c-19.77-4.74-43.74-8.19-70.37-7.74l-33.15,90.16c-13.87,8.23-29.15,12.33-45.21,8.84c-2.6-0.57-5.08-1.21-7.43-1.95
				l-12.59-76.89c-17.28,7.08-34.94,16.22-52.78,28.07c-5.04,3.29-10.05,6.76-15.13,10.52c0,0-18.38,76.61-27.06,109.69
				c-7.44,28.23-1.24,55.57,21.34,75.63C168.03,666.36,173.83,670.47,180.42,674.11z"/>
			<path fill="#4C5C64" d="M2.08,666.57c13.82,15.1,37.43,15.96,53.17,2.88C98.11,633.83,220.3,534.4,257.1,527.66
				c44.89-8.23-64.47-91.7-82.89-83.01c-18.42,8.68-91.69,126.68-189.92,179.91C-15.71,624.56-12.09,651.09,2.08,666.57z"/>
			<path fill="#ED7154" d="M331.78,385.12c-10.93-45.8-10.55-135.19-11.39-141.47c0,0-91.59,31.68-77.91,70.94
				c11.05,31.73-3.49,82.61-9.43,100.9C284.68,408.05,315.06,395.08,331.78,385.12z"/>
			<path fill="#F8A479" d="M166.34,163.2c-6.95,70.65-1.31,85.58-11.98,108.29c-10.94,23.26,50.42,124.1,84.32,123.71
				c10.07-0.12,64.79-11.42,108.05-41.26c1.78-5.31,3.6-11.47,5.48-18.52c11.82-44.74-31.45-81.54-39.81-117.1
				c-8.37-35.56,7.24-82.02,7.24-82.02l52.15,11.54c-24.02-43.5-65.03-72.63-133.17-54.93C235.21,93.81,172.94,95.94,166.34,163.2z"
				/>
			<path fill="#3A160F" d="M316.34,189.1c0.25,3.43,0.61,6.94,1.08,10.5c11.2,2.86,22.95,6.9,30.9,12.68
				c1.34,0.99-11.44-17.58-25.59-21.5C320.87,190.26,318.71,189.68,316.34,189.1z"/>
			<path fill="#ED7154" d="M310.15,187.58c-0.21,3.41-0.27,6.83-0.17,10.27c2.43,0.51,4.93,1.1,7.44,1.75
				c-0.47-3.55-0.82-7.07-1.08-10.5C314.37,188.61,312.29,188.09,310.15,187.58z"/>
			<path fill="#ED7154" d="M316.34,189.1c0.25,3.43,0.61,6.94,1.08,10.5c-2.51-0.65-5.01-1.24-7.44-1.75
				c0.14,6.96,0.88,13.91,2.42,20.48c8.37,35.56,51.64,72.36,39.82,117.1c-1.88,7.05-3.7,13.2-5.48,18.52
				c32.94-22.66,59.23-56.1,54.21-103.5c-3.56-33.68-12.06-71.75-29.15-102.61l-52.15-11.54c0,0-8.18,24.35-9.5,51.27
				C312.29,188.09,314.37,188.61,316.34,189.1z"/>
			<g>
				<path fill="#8B491F" d="M281.04,341.8c-0.54,1.85-1.38,3.61-2.54,5.44c-5.19,9.16-16.04,17.5-31.36,16.94
					c-10.37-0.37-20.68-2.31-28.6-8.13c-0.02,0.15-0.02,0.15-0.15-0.05c-5.77-4.41-10.29-11.16-12.24-20.8c0,0-3.14-7.63,4.57-8.59
					c1.27-0.24,2.97-0.19,5.09,0.14c13.96,2.07,34.34,3.58,47.98-1.46c8.09-2.96,13.83-0.6,16.47,4.22
					C282.18,332.72,282.54,337.31,281.04,341.8z"/>
				<path fill="#FFFFFF" d="M280.26,329.52c-12.81,13.19-36.23,16.96-53.35,10.4c-9.43-3.65-13.98-8.99-16.19-13.31
					c1.27-0.24,2.97-0.19,5.09,0.14c13.96,2.07,34.34,3.58,47.98-1.46C271.89,322.34,277.62,324.7,280.26,329.52z"/>
				<path fill="#F16162" d="M278.5,347.24c-5.19,9.16-16.04,17.5-31.36,16.94c-10.37-0.37-20.68-2.31-28.6-8.13
					C230.42,350.9,256.34,341.25,278.5,347.24z"/>
			</g>
			<path fill="#F3877C" d="M341.58,295.87c2.54,12.44-7.94,25.08-23.4,28.23c-15.46,3.15-30.05-4.37-32.59-16.82
				c-2.53-12.44,7.94-25.08,23.41-28.23C324.46,275.9,339.04,283.43,341.58,295.87z"/>
			<path fill="#F3877C" d="M195,307.54c-4.91,7.42-16.37,8.5-25.6,2.39c-9.23-6.11-12.74-17.07-7.82-24.5
				c4.9-7.42,16.37-8.49,25.6-2.39C196.41,289.15,199.91,300.12,195,307.54z"/>
			<path fill="#F68E5A" d="M369.93,427.63c-10.66,19.95-35.63,61.36-67.99,80.42c-13.86,8.23-29.15,12.33-45.21,8.84
				c-2.6-0.57-5.08-1.21-7.44-1.95c-39.48-12.12-49.1-46.6-51.22-67.76c13.28-6.36,24.67-12.52,29.51-20.75
				c0.97-1.7,2.49-2.77,3.68-5.64c0.44-1.17,1.03-2.95,1.78-5.3c51.65-7.44,82.01-20.39,98.72-30.38
				c2.41,10.18,5.45,18.19,9.08,22.68l0.01,0.05C341.06,408.03,350.9,417.31,369.93,427.63z"/>
			<path fill="#43535B" d="M408.04,655.5c0,0,7.01,52.15-0.42,120.01h79.34c0.08-6.75,0.16-13.61,0.21-20.74
				c-0.01-0.05,0.03-0.14,0.02-0.19c0.32-40.63,0.35-86.28-0.54-122.88c-0.31-11.01-0.69-21.21-1.15-30.22
				c-0.93-17.41-2.27-30.25-4.1-35.76l-2.75-1.98l-33.21-23.86c0,0-17.43,146.25-282.27,122.11
				C166.85,662.65,312.17,689.42,408.04,655.5z"/>
			<path fill="#43535B" d="M366.56,666.23c-14.7,10.22-123.75,26.66-150.34,30.57c-6.4-7.48-13.2-12.82-20.24-15.5
				c-5.64-2.18-10.81-4.57-15.57-7.2l-17.53-13.78c2.66,1.03,11.81,3.09,11.81,3.09l26.9,2.23l18.15,1.21l15.8,0.68l29.72-0.42
				l53.76-7.47l36.77-5.17L366.56,666.23z"/>
			<path fill="#4C5C64" d="M11.65,450.71c0,0-28.75,31.25-67.93,23.02c0,0,36.51,151.31,45.13,160.89
				c8.62,9.58,70.05,8.83,59.79-44.36L11.65,450.71z"/>
			<path fill="#43535B" d="M485.49,775.51c0.06-7.83,0.58-14.83,1.68-20.74c-0.01-0.05,0.03-0.14,0.02-0.19
				c4.62-24.82,5.05-56.02,3.8-85.58l-0.23-4.91c-1.05-25.35-3.2-44.65-5.25-62.6c-2.15-18.3-4.05-30.16-4.05-30.16
				s-0.6,0.64-1.68,1.93c-8.74,10.5-48.16,64.73-50.56,189.01c-0.09,4.44-0.87,8.83-1.33,13.25H485.49z"/>
			<g>
				<g>
					<path fill="#4C5C64" d="M573.81,428.54c-51.12-3.03-112.14-1.97-140.91,16.45c-19.75,12.68-32.27,12.09-40.2,6.14
						c-1.8,5.75-2.51,11.94-2.44,18.31c0.58,45.93,41.46,81,87.21,76.99c40.48-3.55,87.67-15.06,130.03-29.59
						C596.79,487.18,585.02,457.88,573.81,428.54z"/>
					<path fill="#43535B" d="M570.39,419.6c-54.87-5.4-124.73-8.4-155.7,6.5c-12,5.76-18.76,14.67-21.99,25.02
						c7.93,5.96,20.45,6.54,40.2-6.14c28.77-18.41,89.79-19.48,140.91-16.45C572.66,425.56,571.52,422.58,570.39,419.6z"/>
				</g>
			</g>
			<path fill="#1A1F21" d="M408.62,423.92c0,0,104.96,153.94,167.56,181.64l-26.4,85.41c0,0-151.21-151.74-159.51-221.53
				L408.62,423.92z"/>
			<path fill="#262E30" d="M186.93,442.41c0,0,87.02,86.3,160.36-52.3l52.88-4.99c0,0,49.55,45.54-30.9,113.62
				c-72.61,61.45-167.19,47.3-199.8-22.6L186.93,442.41z"/>
			<path fill="#F2885A" d="M238.72,248.85c0,0-4.9,27.38-15.89,33.97c-11,6.59,2.9,25.8,13.89,19.21c11-6.59,14.58-4.83,19.22-2.31
				c4.64,2.51,11.55-10.07,3.6-15.74c-7.95-5.68-11.41,0.5-12.74-4.22C245.48,275.04,238.72,248.85,238.72,248.85z"/>
			<path fill="#C43C27" d="M350.53,211.46c-21.45-50.93,2.15-113.08,2.15-113.08c22.62-2.8,39.96,0.95,53.06,9.21
				C410.78,128,418.18,186.07,350.53,211.46z"/>
			<path fill="#C43C27" d="M436.03,428.72c-134.8-57.06-15.33-126.25-55.1-177c11.87-15.94,36.75-45.17,62.93-50.45
				c1.34,45.61-8.65,91.57-11.07,103.85C427.37,332.53,436.03,428.72,436.03,428.72z"/>
			<path fill="#C43C27" d="M361.22,127.64c0,0-26.8,48.74-143.2,58.25c-56.43-40.83-33.9-87.91-2.87-121.53
				c11.66-5.27,25.14-9.19,40.69-11.29C373.48,37.12,361.22,127.64,361.22,127.64z"/>
			<g>
				<path fill="#F57F42" d="M375.78,286c0.68-20.63,12.34-39.45,31.81-50.53c12.58-6.37,27.39-8.85,36.01,3.46
					c13.65,20.36-6.92,66.8-39.26,78.79c-11.86,5.07-23.71-0.78-26.58-12.63C376.44,299.93,375.51,293.52,375.78,286z"/>
				<path fill="#E96B42" d="M434.36,263.26c0,0-0.88,10.15-4.64,5.55c-3.76-4.59-15.7-17.87-17.03-5.95
					c-1.32,11.92,8.09,22.91-2.59,28.69c-10.68,5.79-10.88,4.12-12.65,0.28c0,0,10.2-1.04,10.96-6.83c0.75-5.78,4.19-9.52,3.68-9.63
					c-0.52-0.11-6.33-7-6.33-7l0.24-11.54l5.52-6.53l17.02,0.23C428.53,250.55,435.07,256.53,434.36,263.26z"/>
				<path fill="#C84830" d="M421.39,247.68c0,0,16.99,5.01,10.25,15.74c-6.74,10.72,5.77-7.35-8-9.44s-12.55-3.72-15.75,2.63
					c-3.2,6.34-0.86,10.27,5.55,17.33c6.42,7.05-14.68,23.04-16.77,18.24c-2.27-5.2,17.88-9.53,13.29-15.72
					c-4.59-6.18-10.63-16.57-6.38-22.21C407.83,248.6,417.82,246.73,421.39,247.68z"/>
			</g>
			<path fill="#E1432B" d="M443.86,201.28c-26.17,5.27-51.06,34.51-62.93,50.45c-1.83-2.35-3.98-4.67-6.54-6.91
				c-11.09-9.82-18.74-21.29-23.86-33.35c67.64-25.39,60.25-83.46,55.21-103.87C433.76,125.12,442.78,163.07,443.86,201.28z"/>
			<path fill="#E1432B" d="M218.02,185.89c-22.43,1.85-48.19,2.2-77.71,0.5c0,0-0.43-88.21,74.84-122.03
				C184.12,97.98,161.58,145.06,218.02,185.89z"/>
			<polygon fill="#EF8158" points="218.8,208.24 225.84,249.4 205.98,238.67 188.17,241.24 177.15,251.07 167.43,212.9 
				175.3,207.07 207.54,200.19 			"/>
			<path fill="#EF8158" d="M277,202.82l-9.7,47.57l14.93-6.03l14.49-1.36l9.31,2.01l9.39,13.04l27.58-42
				c0,0-39.49-18.63-40.66-18.85c-1.16-0.23-16.33,1.77-16.33,1.77L277,202.82z"/>
			<path fill="#6C2619" d="M200.76,234.13c-19.61-0.73-24.39,18.19-24.39,18.19s0.26-0.47,0.78-1.25l-0.78,1.25
				c0,0,21.14-17.78,49.47-2.92C225.84,249.4,220.37,234.87,200.76,234.13z"/>
			<path fill="#6C2619" d="M294.08,238.33c19.56,1.69,21.95,21.06,21.95,21.06s-0.2-0.51-0.62-1.34l0.62,1.34
				c0,0-18.78-20.24-48.73-9C267.3,250.38,274.53,236.64,294.08,238.33z"/>
			<path fill="#C43C27" d="M342.82,212.68l-1.1,7.97c0,0-38.39-20.84-66.01-13.23l2.23-16.03
				C277.94,191.39,328.06,196.56,342.82,212.68z"/>
			<path fill="#C43C27" d="M167.99,205.55l-0.57,7.35c0,0,31.62-11.7,50.49,0.15l1.12-14.79
				C219.04,198.26,181.54,193.78,167.99,205.55z"/>
			<path fill="#262E30" d="M176.22,440.68c0,0-13.37,23.69-5.4,38.25c7.96,14.56,26.9-34.1,26.9-34.1L176.22,440.68z"/>
		</g>
	</g>
</g>
</svg>
