<?xml version="1.0" encoding="utf-8"?>
<!-- Generator: Adobe Illustrator 25.2.3, SVG Export Plug-In . SVG Version: 6.00 Build 0)  -->
<svg version="1.1" id="Layer_1" xmlns="http://www.w3.org/2000/svg" xmlns:xlink="http://www.w3.org/1999/xlink" x="0px" y="0px"
	 viewBox="0 0 576 576" enable-background="new 0 0 576 576" xml:space="preserve">
<g>
	<g>
		<defs>
			<path id="SVGID_1_" d="M576,288c0,159.06-128.94,288-288,288C128.94,576,0,447.06,0,288S128.94,0,288,0
				C447.06,0,576,128.94,576,288z"/>
		</defs>
		<use xlink:href="#SVGID_1_"  overflow="visible" fill="#F9E3D9"/>
		<clipPath id="SVGID_2_">
			<use xlink:href="#SVGID_1_"  overflow="visible"/>
		</clipPath>
		<g clip-path="url(#SVGID_2_)">
			<path fill="#55B6E7" d="M99.85,681.91c4.64-33.16,10.37-67.81,16.71-91.14c12.36-45.5,48.94-76.66,63.36-87.94l4.55-26.36
				c-4.48,0.71-65.01,35.14-85.91,91.45c-10.57,28.51-21.87,74.97-30.49,113.99H99.85z"/>
			<path fill="#9AC9EC" d="M189.52,681.91l1.9-7.05l-14.76-173.03c-14.43,11.29-47.74,43.44-60.1,88.94
				c-6.33,23.34-12.07,57.99-16.71,91.14H189.52z"/>
			<path fill="#9AC9EC" d="M415.56,681.91c15.37-34.95,32.48-58.19,37.42-64.55c-0.24-6.4-0.52-10.69-0.75-12.4
				C421.07,392.6,279.48,482.13,214.16,475.37c-46.97-4.81-65.41,105.34-72.09,167.65c-1.4,12.92-2.03,25.9-2.14,38.88H415.56z"/>
			<path fill="#55B6E7" d="M534.58,681.91h51.77c-45.59-212.99-193.29-224.7-193.29-224.7c-1.51,2.5-2.9,5.04-4.21,7.62
				C414.58,473.8,514.38,519.05,534.58,681.91z"/>
			<path fill="#9AC9EC" d="M534.58,681.91c-20.19-162.87-120-208.11-145.73-217.07c-29.33,58.87-4.89,145.43,26.6,217.07H534.58z"/>
			<path fill="#55B6E7" d="M281.27,421.97c-1.94,1.04-59.09-2.21-68.51,16.12c-9.42,18.33,12.95,38.38,12.95,38.38L281.27,421.97z"
				/>
			<polygon fill="#F28B6F" points="232.72,465.39 213.7,480.59 229.1,502.83 231.42,506.11 241.52,525.32 267.52,502.83 
				288.8,480.17 			"/>
			<path fill="#55B6E7" d="M327.7,399.88c1.84-0.37,34.04-7.56,63.85,6.51l7.22,39.83L327.7,399.88z"/>
			<path fill="#F28B6F" d="M251.48,347.25c6.35,27.03-16.04,61.8-16.04,61.8l-2.72,56.34c0,0,32.92,23.17,69.2,27.54
				c54.07-81.32,36.16-135.43,15.23-164.11C291.46,327.51,246.9,327.88,251.48,347.25z"/>
			<path fill="#E76F49" d="M301.92,492.93c18.69,2.31,39.89,1.32,54.69-13.87c39.3-40.35,4.12-137.7,4.12-137.7
				s-23.5-6.58-26.15-11.19c0,0-7.26-0.79-17.44-1.35C338.07,357.51,355.99,411.61,301.92,492.93z"/>
			<path fill="#F4BB1B" d="M195.73,681.91c-1.98-25.57-3.75-47.45-4.32-52.02c-1.53-12.2,5.69-165.81,5.69-165.81l-15.06,5.7
				c0,0-24.59,144.76-25.14,160.5c-0.19,5.38,1.6,27.08,3.87,51.64H195.73z"/>
			<path fill="#F4BB1B" d="M369.83,681.91c6.74-27.33,12.76-48.83,12.76-48.83l66.29-162.52l-38.37-13.37
				c0,0-59.45,158.33-60.47,159.86c-0.43,0.64-7.58,30.57-15.68,64.85H369.83z"/>
			<path fill="#55B6E7" d="M239.37,527.41l1.16-0.46l63.99-26.18l3.64-1.5l67.64-27.69l2.44-1c0,0-0.89,0.08-2.44,0.33
				c-2.76,0.34-7.73,0.92-14.13,1.8l-0.08,0.04c-4.73,0.67-10.28,1.46-16.26,2.38c-2.09,0.29-4.26,0.62-6.48,0.96
				c-2.79,0.42-5.66,0.88-8.58,1.38c-7.22,1.17-14.67,2.46-21.88,3.88c-14.2,2.75-27.28,5.81-35.93,8.98
				c-0.19,0.05-0.35,0.08-0.47,0.17c-1.36,0.46-2.6,0.96-3.64,1.51c-0.43,0.16-0.82,0.33-1.17,0.54c0,0-8.96,3.55-17.89,16.08
				c-2.86,3.97-5.7,8.85-8.26,14.82c0,0-0.08,0,0,0.05c-0.08,0.21-0.19,0.38-0.31,0.54c0,0,0,0.05,0,0.08
				c-0.08,0.17-0.16,0.34-0.16,0.46c-0.16,0.38-0.31,0.71-0.46,1.08C239.84,526.24,239.6,526.82,239.37,527.41z"/>
			<path fill="#55B6E7" d="M177.64,522.56c5.86-6.55,11.17-11.4,16.06-14.91c0-0.08,0.08-0.08,0.16-0.12
				c2.83-2.09,5.55-3.72,8.11-4.89c0.08-0.08,0.08-0.08,0.16,0c6.63-3.21,12.3-3.67,17.11-2.55h0.08c4.23,0.96,7.76,3.18,10.63,5.93
				c5.51,5.14,8.69,15.24,10.17,19.63c0.16,0.51,0.31,0.96,0.42,1.29c0,0,0.12-1.75,0.19-2.84c0-0.04,0-0.04,0-0.04
				c0-0.5,0.04-0.84,0.04-0.84l-0.19-0.62l-0.39-1.25l-7.06-22.84l-6.01-19.59c-3.14-0.58-6.51,0.08-10.02,1.67
				c-8.53,3.8-17.58,13.03-24.87,21.88c-0.08,0.08-0.16,0.13-0.16,0.21c-0.73,0.83-1.47,1.75-2.17,2.62
				C183.14,513.92,178.33,521.52,177.64,522.56z"/>
			<path fill="#C2D8F0" d="M272.47,490.32c3.35,0.19,79.85,54.07,79.85,54.07s45.52-70.72,47.41-98.16
				c1.89-27.45-8.17-39.83-8.17-39.83L272.47,490.32z"/>
			<path fill="#C2D8F0" d="M211,441.34l16.11,37.58l-49.47,43.64C177.64,522.56,196.13,457.34,211,441.34z"/>
			<g>
				<path fill="#872C1B" d="M410.25,260.32c0,0,0.84,63.31-15.89,76.04c-16.73,12.73-54.63-0.32-54.63-0.32L410.25,260.32z"/>
				<path fill="#872C1B" d="M181.67,126.83c0,0-24.15,40.24-8.38,113.62c15.76,73.37,112.28-75.54,112.28-75.54L181.67,126.83z"/>
				<path fill="#F28B6F" d="M184.7,199.92c3.51,54.87,15.89,187.28,55.54,214.12c-1.41-0.44-2.78-0.96-4.12-1.52
					c-43.19-18.66-56.04-154.53-59.53-209.62c-1.01-16.46,1.66-32.94,8.16-48.06c12.96-30.01,28.67-50.12,45.65-62.25
					c-13.94,12.73-26.79,31.61-37.67,57.72C186.27,165.9,183.65,182.92,184.7,199.92z"/>
				<path fill="#F8A075" d="M399.05,222.9c7.35,118.38-103.01,208.62-158.81,191.14c-39.65-26.84-52.03-159.25-55.54-214.12
					c-1.05-17,1.57-34.02,8.05-49.6c10.88-26.11,23.73-44.99,37.67-57.72C300.95,42.13,393.24,129.68,399.05,222.9z"/>
				<path fill="#F2F3F3" d="M188.95,250.54c0.67,4.12,2.57,9.61,7.91,12.41c2.98,1.62,7.08,2.36,12.59,1.6
					c4.46-0.61,7.91-1.86,10.57-3.48c7.31-4.49,8.52-11.81,8.52-16.06c0,0-0.49-1.37-1.56-3.28l-20.38-2.88l-16.89,6.16
					c-0.62,2.59-0.75,4.72-0.74,5.31C188.94,250.46,188.95,250.54,188.95,250.54z"/>
				<path fill="#F2F3F3" d="M269.11,245.2l0.1,0.55c1.34,5.18,4.4,12,11.27,15.61c3.85,2.07,8.92,3.09,15.63,2.2
					c3.64-0.45,6.68-1.31,9.27-2.46c9.92-4.4,12.46-13.17,13.08-19.48c0,0-1.03-3.36-2.91-7.64l-24.96-2.28l-20.73,6.9
					C269.17,241.64,269.12,244.12,269.11,245.2z"/>
				<path fill="#964627" d="M297.66,110.11c-15.79-6.77-7.18,21.45-72.44,25.14c-50.11,2.82-49.96-32.12-49.56-59.06
					c3.94-0.69,8.26-0.87,12.93-0.47c0.8,0.06,1.57,0.12,2.29,0.2c-2.18-14.86,1.92-25.33,23.1-16.13
					c4.89,2.12,9.33,4.23,13.26,6.31c1.04-13.81,7.69-21.37,43.83-14c91.34,18.61,136.96,66.46,146.06,75.8
					c3.65,3.75-5.48,106.02-1.66,131.52C389.11,212.06,311.47,116,297.66,110.11z"/>
				<path fill="#964627" d="M259.67,193.83c0,0-0.51,19.63,7.12,20.96c7.63,1.33,32.19-5.09,51.32,2.52l5.91-13.15
					C324.03,204.15,275.49,186.06,259.67,193.83z"/>
				<path fill="#D46629" d="M231.5,306.72c7.79,5.01,24.01,0.2,25.81-1c1.86-1.16,5.79,3.4,8.18,4.4c2.38,1,9.77-2.4,9.96-11.45
					c0.22-8.23-3.42-6.32-4.08-5.91l-0.08,0.06c7.83,3.29-3.36,20-7.55,14.56c-4.23-5.38-9.83-2.94-9.83-2.94
					c-17.07,6.67-27.77-1.5-28.62-9.74c-0.34-3.08,0.51-6.61,1.69-9.9c0.15-0.27,0.25-0.54,0.4-0.76
					c3.55-6.9,14.91-29.05,16.92-35.53l-18.59,37.44l0.11,0.03c-0.15,0.27-0.26,0.49-0.41,0.76c-0.51,1.02-0.92,2.02-1.2,3
					C222.33,296.07,224.81,302.4,231.5,306.72z"/>
				<path fill="#833D23" d="M369.98,251.28c-3.75-24.85-1.37-28.78-2.29-54.04c0,0-14.26-60.12-65.81-72.46
					c-3.84-0.92-57.43,60.49-120.6,39.64c-58.21-19.19-52.63-80.58-5.62-88.23c-0.4,26.93-0.55,61.88,49.56,59.06
					c65.25-3.7,56.65-31.91,72.44-25.14c13.81,5.89,88.58,36.42,118.78,71.27c1.44,9.61-0.32,42.39,2.33,49.99
					C410.77,237.56,392.49,247.07,369.98,251.28z"/>
				<g>
					<g>
						<g>
							<path fill="#95261F" d="M218.07,336.42c0,0,3.37,21.65,24.06,28.28c4.63-4.85,15.34-11.37,34.85-4.77
								c0.05,0.01,0.05,0.01,0.05,0.01c12.04-8.42,16.62-22.46,15.27-28.38l-4,0.33l-65.76,4.18L218.07,336.42z"/>
							<path fill="#FFFFFF" d="M288.28,331.86c0.39,4.75-0.96,9.31-4.83,11.61c-10.22,5.77-49.39,5.49-55.15,2.99
								c-3.54-1.53-5.03-6.68-5.76-10.42L288.28,331.86z"/>
						</g>
						<path fill="#F26745" d="M242.12,364.7c3.06,1.06,6.55,1.68,10.47,1.9c10.19,0.47,18.24-2.38,24.38-6.68
							C257.46,353.32,246.75,359.85,242.12,364.7z"/>
					</g>
					<path fill="#ED985B" d="M238.58,368.46c0,0,33.21,1.07,46.15-4.9C284.73,363.55,262.54,397.68,238.58,368.46z"/>
				</g>
				<path fill="#F28B6F" d="M225.28,294.72c0.85,8.24,11.55,16.41,28.62,9.74c0,0,5.61-2.45,9.83,2.94
					c4.19,5.44,15.38-11.28,7.55-14.56c0,0-6.16-7.16-15.83-0.56c-9.28,6.38-24.02-14.52-28.07-8.22c-0.16,0.22-0.25,0.49-0.4,0.76
					C225.79,288.11,224.94,291.64,225.28,294.72z"/>
				<path opacity="0.5" fill="#FFFFFF" d="M233.74,291.8c-0.38,1.71,2.21,3.74,5.79,4.54c3.58,0.79,6.79,0.06,7.17-1.65
					c0.38-1.71-2.21-3.74-5.79-4.54C237.34,289.35,234.13,290.09,233.74,291.8z"/>
				<path fill="#964627" d="M185.8,224.35c0.17,0.14,0.34,0.22,0.52,0.34c0.29,0.19,0.58,0.44,0.86,0.56
					c0.96,0.43,4.03,0.11,7.99-0.58c10.46-1.83,27.09-6.27,27.32-6.33c0,0,0.59-1.34,0.94-3.24c0.99-4.18,2.05-11.91-1.92-16.63
					c0,0-0.1,0.01-0.26,0.05c-2.51,0.44-22.5,4.2-33.21,11.49c-1.96,1.07-3.41,1.94-3.64,2.14c-0.66,0.57-1.11,1.18-1.46,1.79
					c-0.03,0.03-0.03,0.06-0.05,0.1c-0.33,0.59-0.54,1.18-0.66,1.75c-0.02,0.09-0.03,0.18-0.05,0.27c-0.12,0.77-0.14,1.52-0.05,2.14
					c0.05,0.32,0.19,0.62,0.28,0.93c0.08,0.31,0.16,0.62,0.27,0.93c0.16,0.41,0.35,0.79,0.56,1.17c0.14,0.25,0.27,0.48,0.42,0.71
					c0.25,0.38,0.49,0.73,0.77,1.06c0.16,0.19,0.33,0.35,0.49,0.53C185.21,223.81,185.49,224.11,185.8,224.35z M183.96,222.35
					c0.08,0.1,0.15,0.2,0.23,0.31C184.11,222.55,184.04,222.46,183.96,222.35z M182.82,220.34c0.05,0.13,0.12,0.25,0.18,0.38
					C182.94,220.59,182.87,220.47,182.82,220.34z M182.17,218.18c-0.01-0.01,0-0.04,0-0.04c0.01,0.05,0.03,0.12,0.04,0.18
					C182.2,218.27,182.18,218.22,182.17,218.18z M182.16,216.44c-0.03,0.31-0.05,0.6-0.04,0.91
					C182.11,217.05,182.12,216.75,182.16,216.44z M182.62,214.71c-0.12,0.28-0.25,0.55-0.32,0.84
					C182.37,215.27,182.5,214.99,182.62,214.71z M183.57,213.14c-0.18,0.21-0.4,0.42-0.53,0.64
					C183.18,213.57,183.4,213.36,183.57,213.14z M188.03,210.03L188.03,210.03L188.03,210.03L188.03,210.03z M185.55,224.11
					c0.02,0.02,0.04,0.05,0.04,0.05S185.57,224.13,185.55,224.11z"/>
				<g>
					<g>
						<path fill="#F8A075" d="M374.83,229.91c0,0,8.44-27.8,32.14-13.5c26.81,16.19,6.64,74.09-14.25,80.66
							c-20.89,6.57-14.05-17.69-14.05-17.69L374.83,229.91z"/>
					</g>
					<path fill="#EC7260" d="M393.64,275.07c0,0,23.83-20.35,14.19-37.57c-9.64-17.22-25.88,3.69-26.15,9.98
						C381.69,247.49,400.23,242.31,393.64,275.07z"/>
				</g>
				<g>
					<circle fill="#8E4634" cx="209.73" cy="251.28" r="11.96"/>
					<path fill="#704338" d="M216.21,251.28c0,3.58-2.9,6.49-6.48,6.49c-3.59,0-6.49-2.91-6.49-6.49s2.9-6.48,6.49-6.48
						C213.31,244.8,216.21,247.7,216.21,251.28z"/>
					<path opacity="0.7" fill="#F2F3F3" d="M225.19,249.94c0.2,2.73-1.84,5.11-4.57,5.31c-2.73,0.21-5.11-1.83-5.32-4.56
						c-0.21-2.73,1.84-5.11,4.57-5.32S224.98,247.2,225.19,249.94z"/>
				</g>
				<g>
					<path fill="#8E4634" d="M307.58,246.27c0,7.63-6.19,13.83-13.83,13.83s-13.83-6.2-13.83-13.83c0-7.64,6.2-13.83,13.83-13.83
						S307.58,238.63,307.58,246.27z"/>
					<circle fill="#704338" cx="293.75" cy="246.27" r="7.5"/>
					<path opacity="0.7" fill="#F2F3F3" d="M311.63,244.71c0.24,3.16-2.12,5.91-5.28,6.14c-3.15,0.25-5.9-2.12-6.14-5.27
						c-0.24-3.16,2.12-5.91,5.27-6.14C308.63,239.19,311.38,241.55,311.63,244.71z"/>
				</g>
				<path fill="#E76B48" d="M228.69,245.98c-24.97-16.01-39.63,5.3-39.63,5.3s0-0.08,0-0.25c0-0.66,0.04-3.08,0.62-6.03
					c1.27-6.29,4.93-15.2,15.85-16.47c12.19-1.4,18.8,8.09,21.52,13.63C228.15,244.38,228.69,245.98,228.69,245.98z"/>
				<path fill="#E76B48" d="M302.64,236.34c7.76,2.09,12.7,3.94,15.86,5.47c-0.29-1.39-0.92-3.82-2.14-6.58
					c-3.21-7.3-10.52-16.77-26.67-14.56c-13.72,1.88-18.33,11.46-19.85,18.3c-0.69,3.02-0.75,5.48-0.75,6.54l0.01,0.04
					c-0.05,0.33-0.01,0.51-0.01,0.51c0.05-0.01,0.05-0.01,0.09-0.01C269.18,246.05,278.75,229.9,302.64,236.34z"/>
			</g>
		</g>
	</g>
</g>
</svg>
