<?xml version="1.0" encoding="utf-8"?>
<!-- Generator: Adobe Illustrator 25.2.3, SVG Export Plug-In . SVG Version: 6.00 Build 0)  -->
<svg version="1.1" id="Layer_1" xmlns="http://www.w3.org/2000/svg" xmlns:xlink="http://www.w3.org/1999/xlink" x="0px" y="0px"
	 viewBox="0 0 576 576" enable-background="new 0 0 576 576" xml:space="preserve">
<g>
	<g>
		<defs>
			<circle id="SVGID_1_" cx="288.71" cy="288.46" r="287.29"/>
		</defs>
		<use xlink:href="#SVGID_1_"  overflow="visible" fill="#F9E3D9"/>
		<clipPath id="SVGID_2_">
			<use xlink:href="#SVGID_1_"  overflow="visible"/>
		</clipPath>
		<g clip-path="url(#SVGID_2_)">
			<path fill="#EAE5E6" d="M320.46,584.82c55.37-50.05,102.66-126.22,103.23-127.14l-3.62-2.23
				c-0.58,0.94-49.67,79.96-106.01,129.37H320.46z"/>
			<g>
				<path fill="#E3445C" d="M-187.21,584.82h472.09c10.95-32.7,14.71-81.62,14.71-81.62s-98.45-42.38-133.31-116.21
					c-52.3-28.2-188-2.73-229.7,8.2c-11.08,2.9-62.4,19.38-87.16,28.71c-36.15,13.63-67.31,22.46-70.65,25.27
					c-5.16,4.33-6.97,11.15-5.18,17.22c-10.8,9.65-19.17,19.94-23.64,30.65C-256.2,511.81-228.64,545.27-187.21,584.82z"/>
				<path fill="#CC2E4D" d="M169.49,584.82l-78.4-95.29c0,0-8.55-35.55-25.29,21.53c-4.69,15.98-3.82,43.05,0.12,73.76H169.49z"/>
				<path fill="#CC2E4D" d="M-187.17,584.82h130.37c16.41-135.94,223.08-197.83,223.08-197.83c-52.3-28.2-188-2.73-229.7,8.2
					c-11.08,2.9-62.4,19.38-87.16,28.71c-36.15,13.63-67.31,22.46-70.65,25.27c-5.16,4.33-6.97,11.15-5.18,17.22
					c-10.8,9.65-19.17,19.94-23.64,30.65C-256.2,511.81-228.59,545.28-187.17,584.82z"/>
			</g>
			<g>
				<path fill="#4D354A" d="M-116.77,584.82c-79.07-67.53-111.39-116.49-111.39-116.49s-58.11,28.27-79.99,116.49H-116.77z"/>
				<path opacity="0.61" fill="#332533" d="M-221.44,584.82c11.61-27.13,29.37-49.62,38.4-61.79
					c-25.29-27.7-45.12-54.69-45.12-54.69s-58.11,28.27-79.99,116.49H-221.44z"/>
			</g>
			<g>
				<path fill="#F49763" d="M366.25,477.82c-25.51,2.12-54.56,14.88-60.94,14.88c-6.37,0-4.96,12.75-7.08,22.68
					c-2.13,9.92-56.69-25.51-86.45-51.73s-42.8-67.6-45.5-76.67c-2.69-9.07,27.78-6.95,39.12-21.82
					c7.84-10.29,30.47-11.33,30.47-11.33L366.25,477.82z"/>
				<path fill="#E5895A" d="M308.13,492.28c-15.83-6.92-51.84-24.43-70.84-47.77c-24.8-30.46-36.14-45.35-47.47-46.06
					c-5.39-0.34-12.84,0.45-19.19,1.36c-2.22-5.91-3.63-10.48-4.34-12.84c-2.69-9.07,27.78-6.95,39.12-21.82
					c7.84-10.29,30.47-11.33,30.47-11.33l111.12,127.19C330.46,484.85,315.18,490.69,308.13,492.28z"/>
				<path fill="#FFD579" d="M273.74,126c-2.79-23.37-31.49-65.89-77.19-61.63S96.9,110.06,96.24,178.09
					c-0.66,68.02-24.04,134.85-24.04,134.85s59.52-8.37,79.71-46.63s18.61-71.21,38.8-87.16s42.83-24.25,42.83-24.25L273.74,126z"/>
				<path fill="#F3C15A" d="M72.67,311.51c44.19-23.67,71.55-75.99,78.88-115.7c8.5-46.06,36.84-47.47,66.6-60.94
					c26.13-11.82,29.86-41.12,22.71-58.64c19.48,13.5,31.15,35.3,32.88,49.77l-40.21,28.91c0,0-22.63,8.3-42.83,24.25
					s-18.61,48.89-38.8,87.16s-79.71,46.63-79.71,46.63S72.37,312.42,72.67,311.51z"/>
				<path fill="#1898C5" d="M305.31,146.2c-13.46-20.55-37.9-29.18-58.1-17.01c-20.2,12.18-18.53,41.17-8.55,53
					C248.63,194.04,305.31,146.2,305.31,146.2z"/>
				<path fill="#F3C15A" d="M221.99,368.07c0,0-32.88-14.08-45.63-45.16s-3.58-116.82,53.48-150.48
					c57.06-33.65,88.63-45.59,138.29-36.54C417.78,144.93,221.99,368.07,221.99,368.07z"/>
				<path fill="#F3C15A" d="M502.11,227.88c11.18,43.74,3.18,109.3-31.96,138.89c-35.14,29.58-18.8-108.97-18.8-108.97
					L502.11,227.88z"/>
				<path fill="#FCB971" d="M341.45,169.59c217.95,20.18,119.12,131.55,128.69,197.18c9.36,64.22-41.29,125.66-116.34,120.07
					c-3.83,1.04-7.92,1.62-12.19,1.62c-11.19,0-21.22-3.88-28.22-10.03c-63.4-20.22-89.85-63.99-93.46-126.7
					C215.89,281.53,245.42,160.7,341.45,169.59z"/>
				<path fill="#F49763" d="M216.69,353.1c-2.19-38,14.83-116.03,36.9-141c16.23,2.69,56.69-39.68,56.69-39.68
					s-76.52,215.34-22.66,267.5c51.11,49.49,109.55,41.02,147.72,21.41c-20.61,18.5-49.22,29.38-82.72,26.88
					c-3.83,1.04-7.92,1.62-12.19,1.62c-11.18,0-21.22-3.88-28.22-10.03C248.8,459.58,220.3,415.82,216.69,353.1z"/>
				<path fill="#F49763" d="M483.58,273.84c-1.25,11.65-3.83,23.5-6.45,35.13c-12.56-5.9-39.47-19.6-52.77-34.51
					c-17.72-19.84-26.93-42.52-26.93-42.52s-26.22,41.81-70.15,54.56s-60.94,12.75-60.94,12.75v-38.97l146.67-64.48L483.58,273.84z"
					/>
				<g>
					<path fill="#ED955A" d="M382.64,359.94c-16.43,24.69,7.96,36.91,17.77,36.91c9.82,0,32.13-5.47,17.77-36.91
						c-8.46-18.55,4.61-31.37-17.77-36.92C393.71,321.36,396.88,338.53,382.64,359.94z"/>
					<path fill="#F49F61" d="M386.74,357.2c-12.99,26.66,7.96,36.91,17.77,36.91s32.13-5.47,17.77-36.91
						c-8.46-18.55,5.29-36.92-17.77-36.92C394.94,320.28,395.67,338.87,386.74,357.2z"/>
				</g>
				<g>
					<path fill="#F8A973" d="M306.34,359.81c1.17-6.31,9.2-10.11,17.92-8.49c8.72,1.62,14.84,8.05,13.67,14.36
						c-1.17,6.32-9.2,10.11-17.92,8.49C311.29,372.55,305.17,366.12,306.34,359.81z"/>
					<path fill="#F8A973" d="M433.5,389.47c1.17-6.31,9.2-10.11,17.92-8.49c8.72,1.63,14.84,8.05,13.67,14.37
						c-1.17,6.31-9.2,10.11-17.92,8.48C438.45,402.21,432.33,395.78,433.5,389.47z"/>
				</g>
				<path fill="#F49763" d="M190.71,312.94c0,17.27,14,31.27,31.28,31.27s31.28-14,31.28-31.27c0-17.28-14-31.28-31.28-31.28
					S190.71,295.66,190.71,312.94z"/>
				<g>
					<path fill="#010101" d="M435.3,342.89c-0.61,9.8,3.47,18.03,9.13,18.38c5.65,0.36,10.73-7.3,11.34-17.1
						c0.62-9.8-3.46-18.03-9.12-18.38C440.99,325.43,435.91,333.09,435.3,342.89z"/>
					<path fill="#010101" d="M347.11,327.5c-0.62,9.8,3.47,18.03,9.12,18.38c5.65,0.36,10.73-7.3,11.35-17.1
						c0.61-9.8-3.47-18.02-9.12-18.38C352.81,310.05,347.72,317.7,347.11,327.5z"/>
				</g>
				<path fill="#FFFFFF" d="M352.76,332.38c-0.25,3.98,1.41,7.33,3.71,7.48c2.3,0.14,4.37-2.98,4.62-6.96
					c0.25-3.98-1.41-7.33-3.7-7.47C355.07,325.28,353.01,328.39,352.76,332.38z"/>
				<path fill="#FFFFFF" d="M440.95,347.76c-0.25,3.98,1.41,7.33,3.71,7.47c2.3,0.14,4.37-2.97,4.62-6.95
					c0.25-3.98-1.41-7.34-3.71-7.48C443.26,340.66,441.19,343.77,440.95,347.76z"/>
				<path fill="#FCB971" d="M393.75,377.24c0.66-3.52,5.93-5.48,11.76-4.38c5.84,1.1,10.03,4.84,9.37,8.35
					c-0.66,3.52-5.92,5.48-11.76,4.38C397.28,384.5,393.08,380.76,393.75,377.24z"/>
				<path fill="#F49763" d="M337.52,347.15c0,0,8.47,8.17,19.87,7.99c11.41-0.18,10.72-2.27,10.72-2.27s-4.02,8.41-15.93,6.41
					C340.26,357.3,337.52,347.15,337.52,347.15z"/>
				<path fill="#F49763" d="M359.53,432.59c0,0,7.47,9.1,18.82,10.22c11.35,1.13,10.91-1.02,10.91-1.02s-4.96,7.88-16.57,4.54
					C361.08,442.99,359.53,432.59,359.53,432.59z"/>
				<path fill="#F49763" d="M429.12,361.84c0,0,8.48,8.18,19.88,7.99c11.4-0.18,10.72-2.27,10.72-2.27s-4.02,8.4-15.94,6.41
					C431.86,371.99,429.12,361.84,429.12,361.84z"/>
				<path fill="#E88756" d="M216.25,293.41c5.33-1.53,10.77-0.66,15.22,1.94c-3.05-0.75-6.32-0.75-9.54,0.18
					c-9.9,2.83-15.63,13.15-12.79,23.05c1.93,6.74,7.34,11.54,13.72,13.03c-8.95,0.58-17.41-5.11-19.98-14.08
					C199.91,307.17,205.9,296.38,216.25,293.41z"/>
				<path fill="#FFD579" d="M487.42,302.8c0,0-26.93-8.5-56.69-39.68s-41.09-60.94-41.09-60.94s1.41,39.68-58.11,65.19
					c-59.52,25.51-109.55,14.29-109.55,14.29s-9.49-51.13,10.35-89.4c19.84-38.27,82.19-70.86,171.48-51.02
					C493.09,161.09,527.1,234.78,487.42,302.8z"/>
				<path fill="#FFD579" d="M397.96,204.13c0,0-4.24,39.86-44.11,72.27c-39.85,32.42-53.67,34.54-53.67,34.54s54.21-37.2,64.84-74.4
					c10.63-37.2,13.82-46.76,13.82-46.76L397.96,204.13z"/>
				<path fill="#833E35" d="M400.62,416.71c0,0-15.46-2.01-26.33-7.99c-10.87-5.98-14.01-13.96-14.01-13.96s3.03,28.85,18.65,31.97
					C394.55,429.84,400.62,416.71,400.62,416.71z"/>
				
					<rect x="443.55" y="304.82" transform="matrix(0.069 -0.9976 0.9976 0.069 104.9433 737.549)" fill="#9A732B" width="8.2" height="15.45"/>
				
					<rect x="360.38" y="290.94" transform="matrix(0.4475 -0.8943 0.8943 0.4475 -66.2539 491.2751)" fill="#9A732B" width="8.2" height="16.64"/>
				<path fill="#FFD579" d="M196.55,64.37c-32.24,1.77-69.09,18.07-85.39,32.95c-16.3,14.88-19.13,32.59-19.13,32.59
					s17.54-42.51,79.27-48.18C233.04,76.05,196.55,64.37,196.55,64.37z"/>
			</g>
			<g>
				<path fill="#9ADAED" d="M79.04,247.1c0,0-15.98-45.76-35.05-37.42c-15.16,6.63-3.79,22.26,3.79,25.1
					C55.36,237.62,69.57,237.62,79.04,247.1z"/>
				<path fill="#9ADAED" d="M537.73,234.43c0,0,13.18-37.75,28.91-30.87c12.5,5.47,3.13,18.36-3.13,20.7
					C557.26,226.61,545.54,226.61,537.73,234.43z"/>
				<path fill="#9ADAED" d="M81.27,201.65c0,0-26.1-22.3-15.7-32.74c8.27-8.3,15.66,3.21,15.6,8.95
					C81.09,183.59,77.45,192.97,81.27,201.65z"/>
			</g>
			<g>
				<path fill="#EAE5E6" d="M244.11,502.05c12.57,28.97,20.87,48.11,17.3,72.54c-0.5,3.42-1.61,6.82-2.53,10.23h4.37
					c0.83-3.2,1.89-6.39,2.37-9.61c3.74-25.63-5.21-46.28-17.6-74.85c-5.03-11.6-10.74-24.76-16.52-40.28
					c-32.81-88.08-27.6-117.61-27.54-117.89l-4.17-0.82c-0.24,1.22-5.5,31,27.73,120.2C233.33,477.18,239.06,490.39,244.11,502.05z"
					/>
				<path fill="#FFFFFF" d="M200.46,348.17c3.2,1.71,6.22-4.77,11.02-9.38c3.87-3.72,9.75-5.26,11.13-7.85
					c3.08-5.77,0.89-12.96-4.88-16.05c-5.79-3.08-12.97-0.89-16.05,4.89C198.6,325.57,194.68,345.09,200.46,348.17z"/>
				<path fill="#EAE5E6" d="M198.33,343.21c3.2,1.71,6.23-4.77,11.03-9.38c3.87-3.72,9.75-5.26,11.13-7.85
					c1.3-2.43,1.65-5.12,1.2-7.64c2.62,3.57,3.14,8.44,0.92,12.6c-1.38,2.58-7.27,4.12-11.13,7.85c-4.8,4.62-7.82,11.09-11.02,9.38
					c-1.55-0.83-2.38-2.85-2.74-5.45C197.92,342.9,198.11,343.09,198.33,343.21z"/>
			</g>
			<g>
				<path fill="#FCB971" d="M81.39,584.82h147.05c-7.58-21.11-18.62-52.19-35.79-88.58c-20.29-43.02-49.09-64.23-92.11-43.93
					c-43.03,20.31-50.22,67.18-29.93,110.2C72.7,566.94,76.44,574.76,81.39,584.82z"/>
				<path fill="#F49763" d="M81.39,584.82h68.46c-24.3-65.73-23.54-111.66-8.89-139.34c-11.88-2.29-25.27-0.31-40.42,6.84
					c-43.03,20.31-50.22,67.18-29.93,110.2C72.7,566.94,76.44,574.76,81.39,584.82z"/>
			</g>
		</g>
	</g>
</g>
</svg>
