<?xml version="1.0" encoding="utf-8"?>
<!-- Generator: Adobe Illustrator 25.2.3, SVG Export Plug-In . SVG Version: 6.00 Build 0)  -->
<svg version="1.1" id="Layer_1" xmlns="http://www.w3.org/2000/svg" xmlns:xlink="http://www.w3.org/1999/xlink" x="0px" y="0px"
	 viewBox="0 0 576 576" enable-background="new 0 0 576 576" xml:space="preserve">
<g>
	<g>
		<defs>
			<path id="SVGID_1_" d="M576,288c0,159.05-128.94,288-288,288C128.94,576,0,447.06,0,288C0,128.94,128.94,0,288,0
				C447.06,0,576,128.94,576,288z"/>
		</defs>
		<use xlink:href="#SVGID_1_"  overflow="visible" fill="#F9E3D9"/>
		<clipPath id="SVGID_2_">
			<use xlink:href="#SVGID_1_"  overflow="visible"/>
		</clipPath>
		<g clip-path="url(#SVGID_2_)">
			<path fill="#E64A43" d="M117.88,558.87H85.36c13.23-15.13,24.37-26.27,29.59-31.29c-0.08,0.23-0.08,0.47-0.05,0.67
				C116.14,533.11,117.09,543.94,117.88,558.87z"/>
			<path fill="#5F1E0E" d="M124,121.78c0,0-15.38,75.7-16.6,81.21c-1.21,5.52,3.16,53.85,9.35,84.05
				c6.41,31.3-10.84,142.95-34.39,165.02c0,0,85.94,44.65,125.32-13.15C247.08,381.11,143.13,138.4,124,121.78z"/>
			<path fill="#E64A43" d="M119.66,614.08l366.36-0.01c3.19-5.06,4.16-6.58,7.35-11.64c-6.97-14.79-12.88-26.88-17.16-35.03
				c-0.36-0.67,0.35-1.35,1.81-2.02c4.35-2.02,15.41-3.95,23.79-5.96c0.79-0.16,1.54-0.36,2.25-0.56c5.33-1.34,8.96-2.72,7.94-4.15
				c-4.58-6.16-5.33-19.48-12.99-26c-88.12-31.14-181.64-82.98-181.64-82.98c-6.44,6.24-16.4,17.9-37.62,28.81
				c-32.87,16.95-40.06,5.53-42.23,2.02c-1.62-2.65-3.99-10.39-5.89-16.84c-3.51,3.6-7.98,7.24-13.23,10.83
				c-11.15,7.87-101.19,47.18-103.44,57.02c-0.08,0.23-0.08,0.47-0.04,0.67c1.22,4.86-71.7,64.95-70.91,79.89
				C44.79,623.06,65.45,614.08,119.66,614.08z"/>
			<path fill="#DF1E2E" d="M372.98,495.37c21.97,10.87,45.4,21.69,68.55,31.02c0,0,0.08,0.04,0.16,0.08
				c33.63,13.55,84,49.23,132.15,87.61h46.84c-41.46-37.7-86.44-72.96-121.55-85.32c-0.04-0.04-0.08-0.04-0.12-0.04
				c-88.11-31.1-181.64-82.98-181.64-82.98C319.17,454.01,340.63,472.14,372.98,495.37z"/>
			<path fill="#E64A43" d="M377.49,502.25c-9.57,24.21-39.63,69.64-20.82,111.83h217.18c-48.15-38.38-98.52-74.06-132.15-87.61
				c-0.09-0.04-0.12-0.04-0.12-0.04c-23.19-9.36-46.62-20.19-68.59-31.06c3.01,2.13,6.09,4.31,9.28,6.56
				C379.62,501.49,377.92,501.54,377.49,502.25z"/>
			<path fill="#5F1E0E" d="M367.34,292.78c0,0,26.4,93.4-22,126.89s-157.75,76.89-157.75,76.89l-2.31-156.63L367.34,292.78z"/>
			<path fill="#F89A5F" d="M237.32,557.78c6.91,0.89,13.87,0.57,20.77-0.64c47.43-28.25,40-63.06,33.86-92.17
				c-6.61-31.35,20.51-77.06,20.51-77.06l14.7,10.2c8.52-27.55,20.84-52.94,21.2-60.1l-119.58,55.32c0,0,15.81,14.81,11.22,41.19
				c-4.55,26.38-53.23,53.15-53.23,53.15S176.37,549.98,237.32,557.78z"/>
			<path fill="#F6B185" d="M127.77,168.02c2.83,22.98,1.77,86.01-3.29,108.33c-5.65,25.19,46.83,89.73,65.52,130.39
				c6,12.97,17.85,15.21,31.79,15.16c3.72-1.29,7.91-2.56,12.67-3.8c141.08-36.81,105.89-223.44,105.89-223.44
				c5.79-6.96,14.81-10.07,25.72-10.43c-3.5-45.9-11.62-65.72-23.89-67.8c-19.4-3.36-147.49-42.52-171.8-9.87
				c-11.91,16.03-23.41,27.87-32.09,35.79C129.22,150.64,126.29,155.86,127.77,168.02z"/>
			<path fill="#F7966B" d="M186.27,239.43c0,0-2.44,34.57-8.45,46.11c-3.37,6.46-6.71,14.93-9,21.13
				c-1.83,4.92,0.58,10.28,5.76,12.78c6.25,3.01,13.71,5.87,15.84,5.4c22.56-5.04,31.33-1.48,31.64-6.87
				c0.36-6.13-3.93-15.32-17.99-9.66c0,0-3.11-32.12-7.74-40.47C191.69,259.51,186.27,239.43,186.27,239.43z"/>
			<path fill="#DA7E53" d="M255.24,557.46c53.8-10.28,103.92-79.89,103.92-79.89c-51.21,0.28-39.19-52.59-26.66-94.78l-22.15-4.72
				c0,0-29.04,50.83-22.56,83.99C293.82,492.85,302.81,527.36,255.24,557.46z"/>
			<path fill="#F79150" d="M217.57,421.79c2.01,0.03,4.69,0.29,6.69-0.05c50.02-8.48,140.54-34.83,143.06-128.96
				c1.23-46.18,0.79-81.78-1.25-108.55c-10.91,0.37-19.93,3.47-25.72,10.43c0,0,30.97,186.51-110.11,223.32
				C225.49,419.23,221.29,420.5,217.57,421.79z"/>
			<path fill="#5F1E0E" d="M373.9,116.37c-25.14,10.56-54.47,20.49-82.24,24.16c-4.8,0.68-9.59,1.12-14.24,1.37
				c-2.38-6.99-4.45-13.4-6.12-18.67c-2.8-8.84-4.48-14.55-4.48-14.55C272.96,76.95,342.43,103.12,373.9,116.37z"/>
			<path fill="#5F1E0E" d="M382.65,247.23c-3.45-5.84-8.67-9.82-14.8-12.69c-17.09-7.98-41.27-7.22-53.51-13.15
				c-5.01-2.43-11.33-13.59-17.68-28c1.18-9.03,4.92-22.86,16.44-32.47c13.26-11.08,36.84-16.55,78.75-2.51
				C392.91,200.21,391.45,262.26,382.65,247.23z"/>
			<path fill="#5F1E0E" d="M373.82,116.36c-25.14,10.56-54.47,20.49-82.24,24.16c-11.29-10.26-19.25-16.94-19.25-16.94
				c-0.38-0.11-0.73-0.25-1.12-0.36c-112.67-35.16-163.89,80.37-163.89,80.37s-6.84-81.84,38.91-125.87
				c29.15-28.05,129.94-46.92,234.22-11.3c11.6,3.98,22.91,15.07,33.53,31.18C403.03,103.25,389.19,109.92,373.82,116.36z"/>
			<path fill="#5F1E0E" d="M471.41,284.29c-36.94,52.04-86.18,43.32-111.06,34.2c9.57-30.48,13.8-60.04,7.51-83.96
				c-1.36-5.25-3.26-10.18-5.69-14.84c-9.19-17.39-29.84-39.94-49.06-58.78c13.26-11.08,36.84-16.55,78.75-2.51
				c16.82,5.63,36.54,14.41,59.73,27.24C460.68,216.71,467.6,250.85,471.41,284.29z"/>
			<path fill="#5F1E0E" d="M465.12,414.93c-34.02,95.44-194.56,73.92-194.56,73.92s26.04-35.85,51.58-83.14
				C389.68,371.68,438.98,394.74,465.12,414.93z"/>
			<g>
				<path fill="#F79150" d="M353.57,227.9c0,0,30.91-37.3,47.59-14.59c16.67,22.69,6.8,86.27-28.15,93.12
					C338.04,313.28,342.2,266.59,353.57,227.9z"/>
				<path fill="#F37021" d="M389.36,238.99c-20.78-3.95-31.79,21.02-25.59,38.42c6.21,17.4,20.59,2.82,20.59,2.82
					s-19.13,8.16-17.69-15.81c0.24-3.95,1.06-7.24,2.19-10.06c0.01,0.34-0.01,0.62,0.03,1c0.7,8.38,19.02,1.45,19.02,1.45
					c-12.56,0.72-15.23-5.54-15.81-8.24C378.83,239.76,389.36,238.99,389.36,238.99z"/>
			</g>
			<path fill="#792518" d="M468.18,404.57c-0.86,3.58-1.9,7.03-3.06,10.36c-26.13-20.18-75.43-43.25-142.98-9.22
				c14.53-26.87,28.9-57.47,38.21-87.21c24.89,9.11,74.13,17.83,111.06-34.2C476.49,328.48,476.11,371.44,468.18,404.57z"/>
			<path fill="#792518" d="M313.11,160.92c-11.52,9.61-15.27,23.44-16.44,32.47c-6.89-15.64-13.9-35.18-19.32-51.5
				c4.66-0.25,9.44-0.69,14.25-1.37C297.97,146.38,305.42,153.34,313.11,160.92z"/>
			<path fill="#792518" d="M391.86,158.41c-41.91-14.05-65.49-8.57-78.75,2.51c-7.68-7.58-15.14-14.54-21.52-20.4
				c27.76-3.67,57.09-13.6,82.24-24.16c8.68,3.69,14.5,6.38,15.25,6.55C390.2,123.19,391.29,138.52,391.86,158.41z"/>
			<path fill="#792518" d="M451.58,185.65c-23.19-12.84-42.9-21.61-59.73-27.24c-0.56-19.89-1.65-35.22-2.78-35.5
				c-0.74-0.17-6.57-2.86-15.25-6.55c15.37-6.44,29.21-13.11,40.16-18.77C428.35,119.45,441.36,150.59,451.58,185.65z"/>
			<path fill="#FFFFFF" d="M180.7,349.08l8.83,19.29l8.28,8.45l33.97-5.13l12.94-11.16c0,0,5.61-10.72,6.35-16.97
				c0.1-0.84-4.01,2.02-8.87,2.15C223.88,346.24,180.7,349.08,180.7,349.08z"/>
			<path fill="#EF4546" d="M189.53,368.37c0,0-2.19,5.67,1.8,11.45c5.38,7.81,43.98,7.32,54.96-21.87c0,0-25.33,19.38-45.64,15.37
				C190.7,371.35,189.53,368.37,189.53,368.37z"/>
			<g>
				<path fill="#FFFFFF" d="M293.81,234.12c-3.41,13.62-18.6,27.27-35.98,28.73c-17.38,1.46-35.67-18.79-35.67-18.79l7.54-7.75
					c7.38-7.76,17.07-13.11,27.69-14.08C280.65,220.04,293.81,234.12,293.81,234.12z"/>
				<g>
					<g>
						<path fill="#894634" d="M243.48,236.76c-1.33,10.44,6.05,19.98,16.49,21.31c10.44,1.33,19.99-6.05,21.32-16.49
							c1.33-10.44-6.05-19.98-16.49-21.32C254.35,218.93,244.81,226.32,243.48,236.76z"/>
						<path fill="#704338" d="M255.03,239.85c-0.56,4.39,2.55,8.4,6.93,8.96s8.4-2.54,8.96-6.93c0.56-4.39-2.54-8.4-6.93-8.96
							C259.6,232.36,255.59,235.46,255.03,239.85z"/>
					</g>
					<path opacity="0.7" fill="#EDEEEE" d="M237.96,243.91c-0.53,4.14,2.4,7.92,6.53,8.44c4.14,0.53,7.92-2.4,8.45-6.53
						c0.53-4.14-2.4-7.92-6.54-8.44C242.27,236.85,238.49,239.77,237.96,243.91z"/>
				</g>
				<path fill="#62351E" d="M300.31,225.97l-6.49,8.16c0,0-13.17-14.08-36.42-11.88c-10.62,0.97-20.31,6.32-27.69,14.08l-7.54,7.75
					C222.16,244.07,238.34,197.91,300.31,225.97z"/>
			</g>
			<g>
				<path fill="#FFFFFF" d="M128.55,233.7c3.3,12.31,17.16,24.22,29.18,25.04c12.01,0.82,20.62-18.1,20.62-18.1l-5.72-6.85
					c-5.61-6.86-12.63-11.45-19.97-12.02C136.57,220.46,128.55,233.7,128.55,233.7z"/>
				<g>
					<g>
						<path fill="#894634" d="M171.37,235.41c1.56,8.99-2.9,17.51-9.95,19.02c-7.06,1.52-14.05-4.54-15.61-13.53
							s2.9-17.51,9.95-19.02C162.82,220.36,169.82,226.42,171.37,235.41z"/>
						<path fill="#704338" d="M163.66,238.49c0.65,3.78-1.22,7.35-4.19,7.99c-2.97,0.64-5.9-1.91-6.56-5.69s1.21-7.36,4.18-8
							C160.07,232.16,163,234.71,163.66,238.49z"/>
					</g>
					<path opacity="0.7" fill="#EDEEEE" d="M175.6,241.41c0.62,3.56-1.14,6.93-3.94,7.54c-2.8,0.6-5.57-1.8-6.19-5.36
						c-0.62-3.56,1.15-6.93,3.95-7.54C172.21,235.45,174.98,237.85,175.6,241.41z"/>
				</g>
				<path fill="#62351E" d="M123.52,226.44l5.03,7.26c0,0,8.02-13.24,24.1-11.92c7.34,0.56,14.37,5.15,19.97,12.02l5.72,6.85
					C178.35,240.64,163.99,199.03,123.52,226.44z"/>
			</g>
			<path fill="#5F1E0E" d="M126.31,195.77c0,0,30.63-19.4,39.3-16.33c8.68,3.06,2.55,9.7,2.55,9.7s-32.16,5.61-37.78,8.67
				C124.77,200.88,126.31,195.77,126.31,195.77z"/>
			<path fill="#5F1E0E" d="M237.08,178.41c0,0-1.53,9.19,1.02,8.68c2.55-0.51,53.09-1.02,57.68,4.59c4.59,5.62,6.63-3.32-3.07-6.89
				S244.99,175.86,237.08,178.41z"/>
			<path fill="#EF4546" d="M182.26,351.07c-1.77-0.09-2.78-2.06-1.73-3.45c2.82-3.74,7.75-8.98,11.49-5.91
				c5.54,4.55,8.94,3.57,11.63,1c2.38-2.29,7.2-4.87,14.03-2.39c8.86,3.24,28.81,6.22,33.25,2.89
				C250.92,343.21,244.83,354.07,182.26,351.07z"/>
		</g>
	</g>
</g>
</svg>
