<?xml version="1.0" encoding="utf-8"?>
<!-- Generator: Adobe Illustrator 25.2.3, SVG Export Plug-In . SVG Version: 6.00 Build 0)  -->
<svg version="1.1" id="Layer_1" xmlns="http://www.w3.org/2000/svg" xmlns:xlink="http://www.w3.org/1999/xlink" x="0px" y="0px"
	 viewBox="0 0 576 576" enable-background="new 0 0 576 576" xml:space="preserve">
<g>
	<g>
		<defs>
			<path id="SVGID_1_" d="M576,288.79c0,159.05-128.94,288-288,288c-159.05,0-288-128.95-288-288c0-159.06,128.94-288,288-288
				C447.06,0.78,576,129.73,576,288.79z"/>
		</defs>
		<use xlink:href="#SVGID_1_"  overflow="visible" fill="#F9E3D9"/>
		<clipPath id="SVGID_2_">
			<use xlink:href="#SVGID_1_"  overflow="visible"/>
		</clipPath>
		<g clip-path="url(#SVGID_2_)">
			<g>
				<path fill="#D43D27" d="M149.29,701.85h8.39c-0.16-34.41-8.4-63.8-14.42-80.57c-3.45-9.58-6.17-15.06-6.17-15.06
					c-2.95,1.96-5.93,3.72-8.98,5.33c1.87,5.77,3.76,11.82,5.58,18.1C139.9,651.03,145.37,675.4,149.29,701.85z"/>
			</g>
			<g>
				<path fill="#BD3726" d="M127.72,91.26c-13.93,3.14-23.78,15.54-23.68,29.82c0.33,43.44,1.53,132.6,5.94,165.8
					c8.4,63.23,43.57,194.06,51.9,206.01c17.24,24.75,44.87-18.02,69.76-18.31c14-0.16,26.47,9.47,29.64,23.11
					c0.56,2.44,1.52,4.68,3.02,6.5c7.87,9.58,35.16,15.66,46.97-19.79c0.64-1.94,1.02-3.98,1.23-6.01l26.82-258.11
					c1.06-10.23-3.13-20.3-11.12-26.76L204.15,93.41c-6.01-4.85-13.65-7.23-21.36-6.65L132.1,90.6
					C130.63,90.71,129.17,90.93,127.72,91.26L127.72,91.26z"/>
			</g>
			<g>
				<path fill="#8D3628" d="M122.62,559.94c0,0-90.74,8.2-169.07,12.23c-0.47,4.75-0.63,9.5-1.2,14.24
					c0.78,6.15,1.67,12.31,1.71,18.46c0.03,5.96-0.13,11.83-0.2,17.75C27.99,595.14,122.62,559.94,122.62,559.94z"/>
			</g>
			<g>
				<path fill="#78CCCD" d="M132.43,509.07c-1.09-0.94-4.08-0.66-8.77,0.53c-20.53,5.36-57.71,39.48-122.87,54.33
					c-13.68,3.12-29.88,4.48-46.95,4.9c-0.54,5.86-0.78,11.73-1.48,17.59c0.78,6.15,1.67,12.31,1.71,18.46
					c0.09,17.1-0.39,33.95-1.29,50.74c41.53,10.11,89.45,13.13,128.63-8.04c3.05-1.62,6.03-3.38,8.99-5.34c0,0,2.72,5.48,6.17,15.06
					C140.62,614.21,158.06,531.29,132.43,509.07z"/>
			</g>
			<g>
				<g>
					<path fill="#D43D27" d="M-45.3,526.32c0.75,6.81,1.2,13.7,0.96,20.73c118.43-32.56,255.08-49.44,262.74,28.2
						c0.53,5.55,0.57,10.88,0.13,15.91c4.45-11.01,52.64-45.16,51.24-59.41C261.86,452.06,85.53,487.25-45.3,526.32z"/>
				</g>
				<g>
					<path fill="#EF3D23" d="M218.4,575.25c-7.66-77.64-144.31-60.76-262.74-28.2c-0.01,0.04,0,0.09,0,0.12
						c-0.46,13.11-1.74,26.18-3.31,39.23c0.78,6.15,1.67,12.31,1.71,18.46c0.13,24.72-0.72,48.96-2.85,73.17
						c41.8-0.03,95.12-2.26,140.88-11.13c0,0,101.61-13.61,126.45-75.75C218.97,586.13,218.93,580.8,218.4,575.25z"/>
				</g>
			</g>
			<g>
				<path fill="#EF3D23" d="M128.11,611.55c3.05-1.61,6.03-3.38,8.98-5.33c0,0,2.72,5.48,6.17,15.06
					c6.02,16.76,14.26,46.15,14.42,80.57h282.34c-1.29-11.04-3.59-20.65-6.99-28.35c3.32-2.03,7.28-6.18,12.08-13.66
					c17-26.47,31.28-53.78,30.5-69.14c0.47,3.45,4.31,32.12,13.96,66.53c-0.39-15.79-1.63-29.23-3.87-39.35
					c-18.64-82.08,62.58-67.51,70.54-68.52c0.48-0.04,0.72-0.06,0.72-0.06s-16.4-82.33-137.49-96.66
					c-211.25-25-402.02,54.19-402.02,54.19S110.54,558.2,128.11,611.55z"/>
			</g>
			<g>
				<path fill="#00AEC4" d="M488.77,701.85c0.76-16.15,1.08-31.3,0.77-44.61c-9.63-34.42-13.48-63.08-13.95-66.54
					c0.81,15.37-13.5,42.67-30.5,69.16c9.73,14.12,18.08,28.22,25.65,41.99H488.77z"/>
			</g>
			<g>
				<path fill="#EF3D23" d="M421.61,631.3c22.79-21.71,43.15-44.85,46-59.97c-0.35,3.47-3.39,32.23-2.19,67.95
					c0.71,19.81,2.86,41.69,7.39,62.57h116.6c-5.27-51.25-20.4-121.27-33.67-151.62c-0.81-1.86-2.28-3.07-3.42-4.25
					c-31.91-32.85-143.72-106.16-158.5-76.02c-3.81,7.8-38.08,26.86,9.61,120.11C410.37,603.67,416.42,617.51,421.61,631.3z"/>
			</g>
			<g>
				<path fill="#302C2E" d="M130.62,199.54c0,1.25,2.53,41.7,2.53,41.7l11.88-41.13L130.62,199.54z"/>
			</g>
			<g>
				<path fill="#8D3628" d="M239.39,389.32c-1.45-6.09-3.1-12.33-4.88-18.47c-7.35-25.69-16.05-48.98-16.05-48.98l27.57-17.45
					l84.66-53.59l35.16-22.25l7.02-4.45c0,0,0,0.15-0.06,0.49c-0.06,0.18-0.07,0.37-0.11,0.62c-0.04,0.28-0.1,0.62-0.12,1
					c-0.05,0.29-0.09,0.57-0.15,0.9c-0.2,1.39-0.45,3.2-0.79,5.45c-0.05,0.48-0.13,1-0.2,1.53c-0.09,0.87-0.25,1.82-0.36,2.78
					c-0.05,0.29-0.08,0.53-0.12,0.81c-0.16,1.1-0.3,2.25-0.45,3.5c-0.06,0.48-0.12,0.97-0.19,1.49c-0.3,2.25-0.62,4.75-0.97,7.34
					c-0.28,2.21-0.55,4.57-0.84,6.97c-0.09,0.87-0.21,1.69-0.3,2.56c0,0,0,0-0.01,0.05c-1.41,11.89-2.87,25.88-4.12,40.63
					c-0.13,1.31-0.24,2.57-0.33,3.89c-0.14,1.5-0.26,3.07-0.35,4.59l-0.02,0.05c-0.79,9.85-1.39,19.86-1.79,29.74
					c-0.01,0.05-0.01,0.05-0.03,0.09c-0.98,1.78-1.57,2.79-1.57,2.79L348.8,308.6c-2.44-0.05-4.88-0.55-7.13-1.44
					c-4.31,14.45-9.58,29.08-16.63,35.76c-22.49,21.17-52.1,35.99-80.71,44.93c-0.12,0.21-0.33,0.39-0.49,0.58
					c-0.45,0.46-0.91,0.95-1.47,1.42c0.39,8.54,0.85,16.59,1.56,23.39c-0.77-6.46-2.17-13.78-3.93-21.37
					C239.83,391.02,239.6,390.19,239.39,389.32z"/>
			</g>
			<g>
				<path fill="#8D3628" d="M244.3,416.96c0.05,0.62,0.09,1.23,0.16,1.81c0.03,0.51,0.03,0.96,0.03,1.41
					c-0.02-0.41-0.02-0.86-0.1-1.38C244.39,418.19,244.34,417.58,244.3,416.96z"/>
			</g>
			<g>
				<path fill="#8D3628" d="M419.47,452.63c0,0-3.78,4.5-10.34,11.66c-3.52,3.85-7.79,8.44-12.76,13.51
					c-2.88,2.95-5.96,6.09-9.23,9.32c-7.64,7.54-16.28,15.71-25.59,23.75c-1.69,1.5-3.41,2.93-5.15,4.41
					c-1.6,1.38-3.2,2.71-4.89,4.04c-2.01,1.69-4.09,3.31-6.13,4.94c-2.29,1.8-4.63,3.59-7.01,5.35c-1.13,0.83-2.25,1.66-3.42,2.48
					c-1.72,1.29-3.48,2.51-5.17,3.7c-11.01,7.58-22.17,14.12-33.09,18.73c-1.07,0.5-2.15,0.89-3.24,1.33
					c-6.91,2.73-13.69,4.65-20.22,5.46c-0.95,0.14-1.83,0.25-2.74,0.3c-1.86,0.19-3.68,0.24-5.47,0.2c-0.5-0.02-1-0.03-1.54-0.06
					c-0.2-0.01-0.39-0.03-0.58-0.05c-0.74-0.04-1.48-0.09-2.2-0.17c-1.75-0.12-3.5-0.45-5.22-0.87c-0.47-0.11-0.93-0.2-1.38-0.35
					c-1.07-0.25-2.17-0.56-3.19-0.95c-2.06-0.73-4.01-1.52-5.87-2.38c-0.7-0.33-1.39-0.66-2.07-1.03c-0.85-0.43-1.67-0.85-2.42-1.3
					c-6.3-3.52-11.43-7.81-15.57-12.58c-0.55-0.63-1.04-1.25-1.5-1.85c-0.51-0.57-0.95-1.21-1.44-1.88
					c-0.45-0.6-0.89-1.24-1.33-1.88c-1.72-2.52-3.19-5.21-4.49-7.94c-0.32-0.7-0.65-1.36-0.93-2.06c-0.08-0.07-0.14-0.2-0.11-0.28
					c-0.62-1.31-1.1-2.61-1.56-3.92c-0.08-0.22-0.16-0.41-0.21-0.57c-0.56-1.64-1.06-3.3-1.52-4.95c-0.66-2.42-1.21-4.85-1.62-7.24
					c-0.22-1.02-0.35-1.96-0.52-2.97c-0.07-0.42-0.11-0.89-0.17-1.31c-0.18-1.41-0.37-2.82-0.47-4.21c-0.2-2.11-0.32-4.21-0.4-6.23
					c-0.02-1.31-0.04-2.62-0.03-3.87c-0.03-0.06-0.01-0.11-0.01-0.11c-0.03-1.61,0.03-3.14,0.09-4.68
					c0.57-15.58,3.81-27.22,3.81-27.22s10.61-1.06,19.63-8.39c1.8-1.51,3.52-3.25,5.12-5.22c0.43-0.56,0.87-1.12,1.27-1.73
					c0.37-0.53,0.68-1.02,1.03-1.62l0.01-0.05c64.4-6.66,97.79-59.42,121.57-92.28c-0.04,0.74-0.05,1.54-0.07,2.33
					c-0.08,2.83-0.09,5.57-0.09,8.33c0.01,2.71,0.02,5.42,0.09,8.09c0.02,1.31,0.04,2.62,0.11,3.94c0.15,5,0.37,9.83,0.77,14.37
					c0.22,2.37,0.45,4.7,0.74,6.89l0.03,0.07c0.4,3.34,0.89,6.44,1.48,9.34c0.08,0.38,0.16,0.76,0.25,1.08
					c0.14,0.8,0.32,1.61,0.51,2.38c0.1,0.33,0.14,0.64,0.25,0.93c0.11,0.44,0.18,0.81,0.3,1.2c0.09,0.33,0.18,0.66,0.28,0.99
					c0.32,1.16,0.72,2.24,1.08,3.26c0.05,0.16,0.14,0.34,0.18,0.51c0.56,1.49,1.17,2.84,1.82,4.05c0.18,0.36,0.36,0.72,0.59,1.1
					c0.29,0.5,0.62,1,0.92,1.46c0.54,0.77,1.12,1.46,1.71,2.11c2.34,2.48,4.65,4.73,6.92,6.79c0.95,0.91,1.93,1.73,2.87,2.54
					c0.65,0.62,1.33,1.14,1.99,1.71c4.55,3.8,8.89,6.88,12.87,9.4c4.55,2.9,8.66,5,12.08,6.48
					C415.45,451.91,419.47,452.63,419.47,452.63z"/>
			</g>
			<g>
				<path fill="#7B2F22" d="M242.33,388.44c-0.3-9.11-0.46-18.67-0.49-27.83c-0.13-25.12,0.55-47.11,0.55-47.11l17.58-12.03
					l69.6-47.69L365.75,229l7.1-4.87c0,0,0,0.15-0.06,0.49c-0.05,0.13-0.06,0.33-0.11,0.62c-0.04,0.28-0.1,0.62-0.12,1
					c-0.05,0.29-0.09,0.57-0.15,0.9c-0.2,1.39-0.45,3.2-0.79,5.45c-0.05,0.48-0.13,1-0.2,1.53c-0.09,0.87-0.25,1.82-0.36,2.78
					c-0.05,0.29-0.08,0.53-0.12,0.81c-0.16,1.1-0.31,2.3-0.45,3.5c-0.06,0.48-0.12,0.97-0.19,1.49c-0.3,2.25-0.62,4.75-0.97,7.34
					c-0.28,2.21-0.55,4.57-0.84,6.97c-0.09,0.87-0.21,1.69-0.3,2.56c0,0,0,0-0.01,0.05c-1.41,11.89-2.87,25.88-4.12,40.63
					c-0.13,1.31-0.24,2.57-0.33,3.89c-0.14,1.5-0.26,3.07-0.35,4.59l-0.02,0.05c-0.79,9.85-1.39,19.86-1.79,29.74
					c-0.09,1.47-0.11,2.92-0.13,4.36c0.01-1.4,0.03-2.84,0.11-4.27c-0.98,1.78-1.57,2.79-1.57,2.79L348.8,308.6
					c-2.44-0.05-4.88-0.55-7.13-1.44c-4.31,14.45-9.58,29.08-16.63,35.76c-22.49,21.17-52.1,35.99-80.71,44.93
					c-0.12,0.21-0.33,0.39-0.49,0.58c-0.45,0.46-0.91,0.95-1.47,1.42C242.36,389.4,242.37,388.9,242.33,388.44z"/>
			</g>
			<g>
				<path fill="#7B2F22" d="M387.13,487.11c-7.64,7.56-16.26,15.73-25.57,23.76c-1.7,1.51-3.41,2.95-5.15,4.43
					c-1.62,1.36-3.21,2.69-4.92,4.04c-2,1.7-4.08,3.29-6.12,4.92c-2.27,1.81-4.62,3.59-7,5.37c-1.14,0.83-2.27,1.66-3.44,2.46
					c-1.71,1.25-3.41,2.5-5.15,3.71c-11.01,7.6-22.17,14.1-33.09,18.72c-1.06,0.53-2.15,0.91-3.26,1.36
					c-6.88,2.73-13.69,4.66-20.2,5.45c-0.95,0.11-1.85,0.22-2.76,0.3c-1.85,0.19-3.67,0.22-5.48,0.19c-0.49,0-0.98-0.04-1.52-0.08
					c-0.19,0-0.41,0-0.6-0.04c-0.72-0.03-1.47-0.07-2.19-0.15c-1.74-0.15-3.48-0.45-5.22-0.87c-0.45-0.11-0.91-0.23-1.36-0.38
					c-1.1-0.22-2.19-0.53-3.22-0.94c-2.04-0.72-4.01-1.52-5.86-2.39c-0.68-0.3-1.4-0.64-2.04-1.02c-0.87-0.41-1.7-0.83-2.46-1.29
					c-1.06-0.6-2.12-1.21-3.11-1.89c20.32-13.62,71.3-51.1,83.33-92.52l-52.88-24.66c46.45-16.49,73.31-58.29,93.35-85.98
					c-0.04,0.72-0.08,1.56-0.08,2.35c-0.07,2.8-0.07,5.56-0.07,8.32c0,2.69,0,5.4,0.07,8.09c0.04,1.29,0.04,2.61,0.12,3.94
					c0.15,4.99,0.33,9.83,0.76,14.37c0.22,2.34,0.45,4.69,0.76,6.88v0.03c0.41,3.37,0.91,6.47,1.48,9.38
					c0.07,0.34,0.15,0.72,0.26,1.06c0.15,0.79,0.3,1.63,0.53,2.39c0.07,0.33,0.11,0.64,0.22,0.91c0.12,0.45,0.19,0.83,0.3,1.21
					c0.12,0.34,0.19,0.68,0.27,0.98c0.34,1.17,0.72,2.27,1.1,3.29c0.03,0.15,0.15,0.33,0.18,0.49c0.57,1.47,1.1,2.84,1.82,4.04
					c0.19,0.38,0.34,0.72,0.57,1.1c0.3,0.49,0.64,1.02,0.95,1.48c0.53,0.76,1.09,1.44,1.7,2.11c2.34,2.46,4.65,4.73,6.92,6.77
					c0.95,0.91,1.92,1.75,2.87,2.54c0.64,0.6,1.33,1.13,1.97,1.69c2.76,4.47,4.39,8.06,5.03,9.53
					C391.13,456.29,390.34,471.3,387.13,487.11z"/>
			</g>
			<g>
				<path fill="#8D3628" d="M419.47,452.63c0,0-3.78,4.5-10.34,11.66c0.22-5.23,0.14-10.31-0.25-15.35
					C415.45,451.91,419.47,452.63,419.47,452.63z"/>
			</g>
			<g>
				<path fill="#8D3628" d="M368.33,213.34c-0.6,4.99-1.48,10.06-2.5,15.24c-0.04,0.15-0.04,0.31-0.08,0.42
					c-0.53,2.65-1.1,5.29-1.74,7.98c-0.37,1.59-0.72,3.18-1.17,4.77c-1.52,5.98-3.26,11.95-5.26,18c-0.87,2.65-1.82,5.33-2.84,7.98
					c-1.14,3.18-2.38,6.32-3.67,9.46c-1.06,2.65-2.15,5.83-3.25,9.38c-0.57,1.82-1.18,3.74-1.74,5.78c-0.41,1.4-0.87,2.92-1.29,4.43
					c-0.98,3.37-2.04,6.89-3.14,10.37c-4.31,14.45-9.57,29.08-16.65,35.78c-22.46,21.14-52.08,35.97-80.68,44.93
					c-0.68,0.22-1.36,0.45-2,0.56c-1.02,0.34-1.96,0.68-2.95,0.91c-28.86,8.39-56.1,10.74-73.23,7.45
					c-4.92-0.91-8.89-2.27-11.96-4.09c-12.13-7.26-18.04-23.11-20.64-46.9c0-0.23-0.08-0.38-0.08-0.38
					c-3.52-32.11-1.29-78.64-0.64-137.49c0.3-27.76,1.85-48.98,4.05-65.13c6.65-49.78,19.21-52,19.21-52
					c6.39-6.21,12.82-11.35,19.25-15.63c48.07-31.89,96.3-12.63,131.74,14.56c27.35,20.96,47.09,46.56,53.37,57.04
					c0.04,0.07,0.07,0.15,0.11,0.22C369.39,161.9,371.81,185.99,368.33,213.34z"/>
			</g>
			<g>
				<path fill="#FFFFFF" d="M200.21,219.34c2.32,4.48,2.25,19.02,22.65,23.99s31.12-21.53,31.12-21.53L200.21,219.34z"/>
			</g>
			<g>
				<g>
					<path fill="#7D885B" d="M237.08,232.51c-1.49,6.88-8.28,11.25-15.16,9.76s-11.25-8.28-9.76-15.16
						c1.5-6.88,8.29-11.25,15.17-9.76C234.21,218.84,238.57,225.63,237.08,232.51z"/>
				</g>
				<g>
					<path fill="#313D23" d="M231.85,231.38c-0.87,3.99-4.8,6.53-8.79,5.66s-6.53-4.8-5.66-8.79c0.86-3.99,4.8-6.53,8.79-5.66
						C230.18,223.45,232.72,227.39,231.85,231.38z"/>
				</g>
			</g>
			<g>
				<path fill="#302C2E" d="M244.32,387.85c-0.12,0.21-0.33,0.39-0.49,0.58c-0.45,0.46-0.91,0.95-1.47,1.42
					c-0.67,0.68-1.5,1.36-2.36,2.02c-11.79,9.38-33.66,17.1-44.36,17.53c-2.13,0.1-3.88,0.07-5.02-0.11
					c-0.42-0.09-3.36-0.3-3.36-0.3s-8.4-1.21-18.02-2.88c-2.93-0.51-6.01-1.03-8.98-1.6c-8.65-1.7-15.71-5.63-17.68-6.03
					c-4.92-1.02-9.73-29.88-9.76-37.84c-0.01-8.16,0.65-15.2,0.65-15.2s0.06,0.12,0.08,0.37c1.03,3.55,9.27,32.18,13.15,38.01
					c4.16,6.22,13.94-3.11,11.15-13.64c-1.56-5.77,1.36-6.86,4.26-6.7c1.63,0.1,8.05,1.13,12,1.79c2.11,0.35,3.78,1.96,4.2,4.06
					c0.33,1.67,0.53,3.68,0.1,5.44c-1.76,7.21-3.74,16.21,11.56,18.97c0,0,0,0,0.05,0.01c0.95,0.16,2,0.31,3.13,0.38
					c0.14,0.05,0.28,0.05,0.43,0.05c14.42,1.2,29.79-9.76,40.91-23.31c2.74-3.3,5.18-6.76,7.33-10.25
					c5.64-9.05,9.09-18.33,9.02-25.25C251.07,337.27,255.51,374.86,244.32,387.85z"/>
			</g>
			<g>
				<path fill="#EF3D23" d="M397.75,271.64c0.19,0.03,0.38,0,0.53,0.01c-0.26,0.12-0.36,0.2-0.36,0.2S397.87,271.8,397.75,271.64z"
					/>
			</g>
			<g>
				<g>
					<path fill="#511E12" d="M220.42,331.22c-1.22,2.02-2.73,3.92-4.59,5.85c-8.68,9.77-23,18.06-38.95,16.02
						c-10.79-1.37-21.02-4.45-27.44-11.57c-0.07,0.17-0.07,0.17-0.14-0.06c-4.64-5.36-7.19-13.15-6.09-23.87
						c0,0-0.83-8.61,7.68-9.02c1.43-0.16,3.22,0.03,5.36,0.56c14.15,3.42,35.32,6.76,51.56,2.25c9.67-2.66,14.95,0.43,16.08,6.03
						C224.8,321.15,223.58,326.31,220.42,331.22z"/>
				</g>
				<g>
					<path fill="#FFFFFF" d="M223.88,317.41c-18.2,13.67-44.32,15.84-60.25,7.13c-8.79-4.81-11.85-11.05-12.76-15.97
						c1.43-0.16,3.22,0.03,5.36,0.56c14.15,3.42,35.32,6.76,51.56,2.25C217.47,308.72,222.75,311.81,223.88,317.41z"/>
				</g>
				<g>
					<path fill="#F16162" d="M215.83,337.07c-8.68,9.77-23,18.06-38.95,16.02c-10.79-1.37-21.02-4.45-27.44-11.57
						C163.68,336.93,194.39,328.51,215.83,337.07z"/>
				</g>
			</g>
			<g>
				<path fill="#302C2E" d="M364.24,96.05c0,0-1.4,24.13-3.67,50.95c-2.42,29.35-5.82,61.96-9.42,69.9
					c-6.92,15.25-44.11,74.97-44.11,74.97l-16.15-5.98c0,0,5.75-13.73,10.74-38.35c5-24.62-33.36-78.56-33.36-78.56
					c-40.17-31.77-111.54-27.95-131.4-26.17c6.65-49.78,19.21-52,19.21-52c6.39-6.21,12.82-11.35,19.25-15.63l131.74,14.56
					L364.24,96.05z"/>
			</g>
			<g>
				<path fill="#302C2E" d="M144.42,136.11c0,0-11.39,45.67-9.72,57.06l-5.13,1.65l7.85-55.7L144.42,136.11z"/>
			</g>
			<g>
				<path fill="#302C2E" d="M371.38,320.29c-4.24,8.16-7.84,14.68-9.82,18.24c-0.01,0.05-0.01,0.05-0.03,0.09
					c-0.98,1.78-1.57,2.79-1.57,2.79L348.8,308.6l-4.01-11.83l-0.49-1.41c0,0,0.66-1.09,1.79-3.02c0.73-1.16,1.63-2.67,2.75-4.39
					c2.13-3.45,4.94-7.88,8.16-12.63c0.6-0.91,1.21-1.86,1.87-2.79c2.9-4.25,6.05-8.66,9.3-12.9c0.01-0.05,0.01-0.05,0.01-0.05
					c3.15-4.07,6.32-7.93,9.42-11.27c0.63-0.69,1.24-1.34,1.86-1.99c4.15-4.24,8.07-7.35,11.41-8.5c2.78-0.98,5.14-0.56,6.85,1.71
					C405.59,250.13,385.14,293.69,371.38,320.29z"/>
			</g>
			<g>
				<g>
					<path fill="#742B1E" d="M363.72,304.15c-0.87,0.52-1.72,0.98-2.61,1.39c-1.8,0.91-3.69,1.64-5.69,2.23
						c-2.21,0.62-4.45,0.89-6.63,0.82c-2.44-0.05-4.88-0.55-7.13-1.44c-6.89-2.63-12.36-8.67-14.16-16.43
						c-0.22-1.12-0.5-2.27-0.7-3.48c-0.77-4.66-1.15-10.04-0.77-16.02c0.43-6.01,1.61-11.88,3.54-17.45
						c0.37-0.98,0.7-1.97,1.12-2.94c4.98-12.37,13.52-23.27,24.57-31.14c4.2-3.02,8.69-5.4,13.05-6.36
						c6.45-1.33,12.6,0.49,17.32,8.2c2.69,4.44,4.45,10.03,5.24,16.29C393.73,260.74,384,292.12,363.72,304.15z"/>
				</g>
				<g>
					<path fill="#511E12" d="M368.75,236.47c-16.24-2.14-22.21,35.65-22.21,35.65c2.55-8.98,5.34-15.43,7.98-20.11
						c-0.87,8.15-1.35,26.02,10.1,31.16c0,0-10.57-7.93-5.88-35.48c0.29-1.71,1.12-3.34,2.37-4.54c0.16-0.15,0.32-0.29,0.47-0.43
						c1.87-1.69,4.44-2.49,6.92-2.01c12.64,2.47,9.63,16.51,9.63,16.51S385.26,238.65,368.75,236.47z"/>
				</g>
			</g>
			<g>
				<path fill="#6A281A" d="M361.52,338.61c-0.08,1.44-0.08,2.88-0.08,4.27c-0.15,2.19-0.18,4.5-0.22,6.73
					c-20.05,27.69-46.9,69.48-93.35,85.98l-23.34-10.89c0.08-1.44,0.04-2.95-0.03-4.54c0-0.41,0-0.87-0.04-1.4
					c-0.08-0.56-0.12-1.17-0.15-1.81c0-0.15,0-0.3-0.04-0.38c-0.04-0.79-0.11-1.55-0.23-2.34c-0.03-0.3-0.07-0.64-0.11-0.98
					c-0.72-6.8-3.48-14.72-3.85-23.26c0.53-0.46,3.32-1.1,3.78-1.56c0.15-0.18,0.33-0.37,0.49-0.56
					c28.6-8.96,58.22-23.79,80.68-44.93c7.07-6.7,12.33-21.33,16.65-35.78c2.27,0.91,4.69,1.4,7.15,1.43l11.16,32.83
					C359.97,341.41,360.53,340.39,361.52,338.61z"/>
			</g>
			<g>
				<g>
					<path fill="#302C2E" d="M194.28,171.66c0.11,6.02-2.17,22.94-2.17,22.94s56.79-7.04,69.77,1.73
						c12.98,8.76,3.26-18.08,3.26-18.08s-13.85-2.47-36.14,0.67C206.72,182.05,194.28,171.66,194.28,171.66z"/>
				</g>
				<g>
					<path fill="#6A281A" d="M195.52,167.88l-4.72,37.06C190.8,204.94,183.87,178.72,195.52,167.88z"/>
				</g>
			</g>
			<g>
				<path fill="#302C2E" d="M168.66,294.23c9.01-2.04,78.91-0.14,82.2,41.12l0.07,19.65l-9.93,7.36c0,0,10.21-33.86-2.87-39.73
					c-13.08-5.87-28.18-23.67-49.1-17.11s-46.36-11.2-49.44-6.59c-3.09,4.62-3.28,56.48-1.57,60.79c1.71,4.31-4.54-14.29-4.54-14.29
					s-7.41-44.38,1.77-51.37C144.43,287.09,168.66,294.23,168.66,294.23z"/>
			</g>
			<g>
				<path fill="#FFFFFF" d="M158.16,214.66c0,0-1.58,11.78-13.93,10.64c-12.34-1.15-11.9-16.43-11.9-16.43
					S145.96,199.8,158.16,214.66z"/>
			</g>
			<g>
				<g>
					<path fill="#7D885B" d="M152.12,216.42c-1.06,4.89-5.64,8.04-10.24,7.05c-4.6-1-7.47-5.77-6.42-10.65
						c1.06-4.89,5.65-8.04,10.24-7.04C150.31,206.77,153.18,211.54,152.12,216.42z"/>
				</g>
				<g>
					<path fill="#313D23" d="M148.62,215.66c-0.61,2.84-3.27,4.66-5.94,4.08c-2.67-0.58-4.33-3.34-3.72-6.18
						c0.62-2.83,3.28-4.66,5.95-4.08C147.57,210.07,149.24,212.83,148.62,215.66z"/>
				</g>
			</g>
			<g>
				<g>
					<path fill="#302C2E" d="M170.05,180.76c-2.25,5.59-6.17,22.19-6.17,22.19s-12.51-12.46-27.76-8.9
						c-15.25,3.55-0.82-19.04-0.82-19.04s8.7-0.47,11.65,0.08C167.24,178.91,170.05,180.76,170.05,180.76z"/>
				</g>
				<g>
					<path fill="#6A281A" d="M170.24,176.79l-8.83,36.3C161.41,213.09,177.25,191.07,170.24,176.79z"/>
				</g>
			</g>
			<g>
				<path fill="#EF3D23" d="M568,701.85c-7.21-23.97-18.71-49.77-39.23-75.63c-43.5-54.84-3.78-74.7-24.58-121.03
					c-20.8-46.34-74.86-36.39-74.86-36.39l0.95-2.8c-56.9,25.66-32.57,134.75,7.3,235.85H568z"/>
			</g>
			<g>
				<polygon fill="#020202" points="344.56,221.78 242.41,196.54 255.26,208.88 259.29,225.91 342.25,229.74 				"/>
			</g>
			<g>
				<g>
					<g enable-background="new    ">
						<defs>
							<polygon id="SVGID_3_" enable-background="new    " points="247.65,304.78 264.52,204 111.39,151.95 94.52,252.72 							"/>
						</defs>
						<clipPath id="SVGID_4_">
							<use xlink:href="#SVGID_3_"  overflow="visible"/>
						</clipPath>
						<g clip-path="url(#SVGID_4_)">
							<g>
								<path fill="#020202" d="M128.17,258.15c-8.81-2.99-17.18-11.67-21.59-35.1c0,0-11.67-46.69,39.41-29.32
									c0.68,0.23,1.37,0.47,2.07,0.72c13.24,4.79,21.68,18.65,19.37,32.97c-0.03,0.19-0.07,0.38-0.1,0.57
									c-3.28,19.04-5.79,30.53-18.81,31.04C142.7,259.27,135.29,260.58,128.17,258.15z M207.82,264.22
									c-11.41-3.88-13.54-15.55-16.11-34.1c-0.03-0.2-0.05-0.39-0.08-0.58c-1.8-14.01,7.84-26.98,21.35-29.04
									c11.74-1.79,20.34-1.14,26.61,1c23.13,7.86,14.6,35.84,14.6,35.84c-9.59,40.65-30.91,30.62-44.22,27.5
									C209.22,264.66,208.5,264.45,207.82,264.22z M240.54,195.85c-1.94-0.66-4.03-1.18-6.25-1.54
									c-9.61-1.58-22.02-0.39-36.92,3.52l-1.29,0.62c-6.78,3.26-16.67,3.24-24.95,0.43c-2.84-0.97-5.5-2.27-7.77-3.87l-0.44-0.34
									c-5.67-2.69-10.98-4.88-15.91-6.55c-7.5-2.55-14.1-3.91-19.75-4.08c-10.57-0.3-18.12,3.49-22.46,11.3
									c-6.66,12-2.67,28.57-2.57,28.84c5.06,26.83,15.25,36.36,24.89,39.64c3.39,1.16,6.73,1.53,9.75,1.62
									c2.9,0.09,5.76-0.12,8.4-0.32c1.25-0.09,2.48-0.18,3.63-0.22c16.84-0.7,19.75-17.51,22.8-35.33
									c0.56-3.22,0.81-6.15,0.83-8.85c0.01-4.9,2.84-9.04,6.66-9.03h0.46c0.53,0.02,1.04,0.12,1.53,0.29
									c3.29,1.12,5.63,5.31,5.49,9.86c-0.08,2.71,0.04,5.7,0.51,8.99c2.44,17.42,4.73,33.93,19.69,39.02
									c0.81,0.28,1.65,0.52,2.54,0.72c1.16,0.28,2.41,0.62,3.72,0.95c2.71,0.72,5.58,1.5,8.57,2.01
									c11.89,1.96,28.67,0.53,36.91-34.22c0.08-0.28,4.75-15.98-1.71-29.27C253.57,203.16,248.07,198.41,240.54,195.85z"/>
							</g>
							<g>
								<path fill="#54193E" d="M239.59,201.49c23.13,7.86,14.6,35.84,14.6,35.84c-9.59,40.65-30.91,30.62-44.22,27.5
									c-0.76-0.17-1.48-0.38-2.16-0.61c-11.41-3.88-13.54-15.55-16.11-34.1c-0.03-0.2-0.05-0.39-0.08-0.58
									c-1.8-14.01,7.84-26.98,21.35-29.04C224.72,198.7,233.32,199.36,239.59,201.49z"/>
							</g>
							<g>
								<path fill="#54193E" d="M145.99,193.73c0.68,0.23,1.37,0.47,2.07,0.72c13.24,4.79,21.68,18.65,19.37,32.97
									c-0.03,0.19-0.07,0.38-0.1,0.57c-3.28,19.04-5.79,30.53-18.81,31.04c-5.82,0.24-13.23,1.54-20.36-0.88
									c-8.81-2.99-17.18-11.67-21.59-35.1C106.58,223.06,94.91,176.37,145.99,193.73z"/>
							</g>
						</g>
					</g>
				</g>
				<g>
					<path fill="#FFFFFF" d="M220.9,205.48c0,0-25.7-4.31-25.87,25.15C195.02,230.63,201.16,212.03,220.9,205.48z"/>
				</g>
				<g>
					<path fill="#FFFFFF" d="M134.56,193.26c0,0-25.71-4.31-25.88,25.15C108.68,218.41,114.82,199.81,134.56,193.26z"/>
				</g>
			</g>
			<g>
				<path fill="#6F2C21" d="M168.62,226.24c-6.82,9.59-12.21,13.82-21.23,20.47c-8.81,6.49-17.46,17.93-5.76,34.65
					c16.61,23.7,28.86,0.21,39.1,6.36s24.95-11.86,14.55-16.84c-21.03-10.06-21.44-50.77-20.7-52.6
					C174.87,217.55,172.1,221.35,168.62,226.24z"/>
			</g>
			<g>
				<path fill="#32A16A" d="M434.44,400.08c2.69-2.92,5.33-5.9,7.95-8.93C440.01,394.52,437.36,397.58,434.44,400.08z"/>
			</g>
			<g>
				<path fill="#D43D27" d="M504.19,505.19c20.8,46.33-18.91,66.19,24.58,121.03c20.51,25.86,32.02,51.66,39.23,75.63h30.53
					c-5.67-38.85-14.43-84.8-27.62-124.16c0,0-26.86-98.91-91.72-115.36c-11.49-2.95-24.2-3.25-38.12,0
					c-3.89,0.91-7.49,2.12-10.78,3.67l-0.95,2.8C429.34,468.8,483.39,458.85,504.19,505.19z"/>
			</g>
			<g>
				<path fill="#EF3D23" d="M332.72,447.82c-2.51,1.26-61.78,60.52-89.51,60.52c-27.74,0-3.57-66.44-3.57-66.44l-46.23,26.09
					l20.17,114.1l49.17,8.19c0,0,45.39-26.48,47.28-27.11S332.72,447.82,332.72,447.82z"/>
			</g>
			<g>
				<path fill="#7B2F22" d="M320.75,460.25c-12.03,41.42-63.02,78.9-83.33,92.52c-4.91-3.1-9.04-6.73-12.44-10.7
					c-0.56-0.64-1.06-1.25-1.51-1.85c-0.49-0.57-0.95-1.21-1.44-1.86c-0.45-0.6-0.87-1.25-1.33-1.89c-1.7-2.53-3.17-5.22-4.5-7.94
					c-0.3-0.72-0.64-1.37-0.91-2.04c-0.08-0.08-0.15-0.23-0.12-0.3c-0.6-1.29-1.1-2.61-1.55-3.94c-0.08-0.18-0.19-0.37-0.22-0.56
					c-0.57-1.62-1.06-3.29-1.52-4.96c-0.64-2.42-1.21-4.84-1.63-7.22c-0.22-1.02-0.33-1.96-0.53-2.99
					c-0.04-0.41-0.12-0.87-0.15-1.29c-0.19-1.44-0.38-2.84-0.45-4.2c-0.23-2.12-0.34-4.24-0.42-6.24c-0.04-1.33-0.04-2.61-0.04-3.86
					c-0.03-0.08,0-0.11,0-0.11c-0.03-1.63,0.04-3.15,0.08-4.69c7.83-15.5,16.15-27.16,23.45-35.63c1.77-1.48,3.51-3.22,5.1-5.22
					c0.45-0.53,0.87-1.1,1.29-1.7c0.37-0.53,0.72-1.1,1.02-1.63l0.04-0.04c10.14-1.06,19.52-3.25,28.22-6.31L320.75,460.25z"/>
			</g>
			<g>
				<path fill="#6A281A" d="M267.86,435.6c-0.07,0.03-0.15,0.03-0.22,0.07c-1.48,0.53-2.99,1.02-4.5,1.48
					c-1.81,0.56-3.63,1.06-5.48,1.55c-0.98,0.26-1.92,0.49-2.91,0.68c-0.34,0.11-0.72,0.18-1.1,0.26c-0.95,0.23-1.92,0.41-2.91,0.6
					c-1.21,0.27-2.46,0.49-3.74,0.64c-0.83,0.19-1.67,0.3-2.53,0.42c-1.59,0.22-3.18,0.45-4.81,0.6c0.83-1.36,1.56-2.84,2.2-4.42
					c0.3-0.76,0.6-1.52,0.87-2.34c0.6-1.78,1.06-3.75,1.44-5.86c0.22-1.41,0.34-2.92,0.37-4.58L267.86,435.6z"/>
			</g>
			<g>
				<path fill="#BD3726" d="M220.52,413.47l24.01,11.23c-0.03,1.66-0.15,3.17-0.37,4.58c-0.38,2.11-0.83,4.08-1.44,5.86
					c-0.27,0.83-0.57,1.58-0.87,2.34c-0.64,1.58-1.37,3.06-2.2,4.42l-0.04,0.04c-0.3,0.53-0.64,1.1-1.02,1.63
					c-0.42,0.6-0.83,1.18-1.29,1.7c-1.59,2-3.33,3.74-5.1,5.22c-7.3,8.47-15.62,20.13-23.45,35.63c-0.04,1.55-0.11,3.07-0.08,4.66
					c0,0-0.03,0.07,0,0.15c0,1.25,0,2.53,0.04,3.86c0.08,2,0.19,4.12,0.42,6.24c0.07,1.36,0.26,2.76,0.45,4.2
					c0.03,0.42,0.11,0.87,0.15,1.29c0.19,1.02,0.3,1.97,0.53,2.99c0.42,2.38,0.98,4.81,1.63,7.22c0.45,1.67,0.95,3.34,1.52,4.96
					c0.03,0.19,0.14,0.38,0.22,0.56c0.45,1.33,0.95,2.65,1.55,3.94c-0.03,0.07,0.04,0.22,0.12,0.3c0.26,0.68,0.6,1.32,0.91,2.04
					c1.33,2.72,2.8,5.41,4.5,7.94c0.46,0.64,0.87,1.29,1.33,1.89c0.49,0.64,0.95,1.29,1.44,1.86c0.45,0.6,0.95,1.21,1.51,1.85
					c3.41,3.97,7.53,7.6,12.44,10.7c-5.21,3.48-8.4,5.37-8.4,5.37c-29.31-17.97-78.48-103.07-78.48-103.07L220.52,413.47z"/>
			</g>
			<g>
				<g>
					<g>
						<path fill="#F9A033" d="M215.18,701.85c11.4-9.86,22.59-22.46,30.51-32.21c47.19-58.08,96.6-150.4,106.25-221.05
							c0.7-5.08,1.17-9.97,1.42-14.79c0.22-3.53,0.3-7.01,0.25-10.43l-0.15-1.7c-0.22-1.12-3.83-21.53-16.04-35.21
							c-2.74-3.11-5.92-5.8-9.61-7.92c-0.1,2.27-0.18,4.49-0.22,6.58c0.69,0.68,1.36,1.4,2,2.11
							c12.21,13.68,15.82,34.09,16.03,35.21l0.15,1.7c0.05,3.42-0.03,6.9-0.24,10.43c-0.26,4.82-0.73,9.72-1.42,14.79
							c-9.65,70.65-59.07,162.97-106.25,221.05c-7.72,9.5-18.53,21.68-29.62,31.43H215.18z"/>
					</g>
					<g>
						<path fill="#FAD042" d="M208.24,701.85c11.09-9.75,21.91-21.93,29.62-31.43c44.21-54.4,90.37-138.89,103.94-207.44
							c0.93-4.6,1.68-9.16,2.3-13.61c0.7-5.08,1.17-9.97,1.42-14.79c0.11-1.91,0.19-3.84,0.24-5.77c0.02-1.55,0.01-3.1,0-4.66
							l-0.15-1.7c-0.22-1.12-3.83-21.53-16.03-35.21c-0.64-0.72-1.29-1.42-1.99-2.06c-0.07,3.18-0.07,6.13,0.04,8.87
							c0.01,0.35,0.03,0.71,0.05,1.02c0.01,0.76,0.05,1.52,0.11,2.24c0.03,0.31,0.02,0.6,0.07,0.87c0.03,0.41,0.04,0.76,0.09,1.13
							c0.03,0.31,0.05,0.62,0.09,0.93c0.1,1.08,0.26,2.09,0.39,3.03c4.62,5.52,7.64,12.32,9.51,17.79c1.41,4.02,2.15,7.31,2.45,8.67
							c0.08,12.99-2.04,27.6-5.88,43.21c-14.92,60.3-55.75,134.63-95.83,183.99c-12.25,15.08-22.46,25.33-30.53,31.88
							c-0.99,0.83-1.94,1.56-2.89,2.26c-2.28,1.69-4.39,3.06-6.27,4.14c-3.06,1.79-5.59,2.76-7.63,3.14
							c-0.07,0.03-0.15,0.05-0.21,0.03c-0.79,0.14-1.48,0.16-2.11,0.11c-0.49-0.01-0.91-0.1-1.32-0.23l-0.32-0.11
							c-0.09-0.03-0.2-0.07-0.28-0.14c-0.72-0.29-1.35-0.64-1.98-1.1c-0.16-0.11-0.32-0.2-0.45-0.3c-0.14-0.14-0.28-0.24-0.41-0.33
							c-0.25-0.23-0.5-0.47-0.75-0.7c-1.41-1.37-2.61-3.11-3.66-5.26c-0.04-0.07-0.09-0.13-0.09-0.23l-1.75,5.33l-0.27,0.71
							c-10.14-22.01-7.18-68.42,8.82-140.37c11.26-50.79,27.03-85.93,40.37-108.77c6.52-11.22,12.49-19.46,17.06-25.16
							c0.03,0.01,0.43-0.49,0.43-0.49c0.01-0.55-0.2-3.14-0.18-3.89c-0.51,0.54-0.98,1.08-1.48,1.62
							c-2.17,2.04-10.79,10.76-21.68,28.14c-9.65,15.39-21.04,37.61-31.26,68.08c-4.71,13.91-9.15,29.67-13.06,47.24
							c-15.77,70.96-18.81,116.94-9.17,139.33H208.24z"/>
					</g>
				</g>
				<g>
					<path fill="#F9A033" d="M179.8,690.08l-1.75,5.33l-0.27,0.71c-10.14-22-7.18-68.42,8.82-140.37
						c16.82-75.74,43.95-117.18,57.86-134.42c0.85,2.85-0.26,7.09-0.89,9.99c-1.27,5.73-3.91,11.08-6.08,15.02
						c-1.6,2.18-3.31,4.62-5.1,7.38c-5.86,8.92-12.78,21.06-19.74,36.84c-8.33,18.88-16.67,42.9-23.35,72.98
						C174.66,629.48,171.45,672.57,179.8,690.08z"/>
				</g>
			</g>
			<g>
				<path fill="#D43D27" d="M535.58,233.77c-2.8,5.25-6.01,10.13-9.23,14.64c-7.27,10.1-14.49,27.87-31.74,63.35
					c-15.73,32.3-36,62.03-60.17,88.32c1.29-2.84,33.28-74.17-4.27-123.42c-38.28-50.27,96.49-30.94,53.59-82.16
					C411.75,108.57,360.05,59.35,131.59,92.38c-8.73,0.64-23.4,12.95-23.36,12.91c0.18-0.19,0.41-0.45,0.68-0.72
					c0.15-0.15,0.3-0.33,0.49-0.53c0.15-0.19,0.34-0.38,0.57-0.57c-0.33-0.33,0.21-0.98,0.21-0.98c0.19-0.19,0.7-0.64,0.89-0.83
					l3.3-3.86c18.42-17.36,87.39-77.51,261.15-21.41c4.73,1.51,9.31,3.03,13.77,4.58c35.21,17.32,73.83,41.49,115.86,74.36
					C505.14,155.32,541.64,188.79,535.58,233.77z"/>
			</g>
			<g>
				<path fill="#EF3D23" d="M430.17,276.66c37.56,49.25,5.56,120.58,4.27,123.42c0,0-50.34,44.59-19.14,63.5
					c4.69,2.84,9.38,4.47,14.03,5.22c-33.82,27.5-78.78,89.98-116.16,95.96c0,0,53.82-491.22-181.59-472.38
					c200.5-68.18,280.16,16.19,352.18,102.13C526.66,245.72,391.89,226.39,430.17,276.66z"/>
			</g>
			<g>
				<path fill="#D43D27" d="M535.58,233.77c-1.48,11.08-5.56,22.88-13.43,35.02c-39.71,61.46-23.64,94.55-52.95,124.81
					c-29.32,30.26-43.5,46.34-25.53,63.36c0,0-5.37,4.54-14.34,11.84c-4.65-0.76-9.34-2.38-14.03-5.22
					c-31.2-18.91,19.14-63.5,19.14-63.5c2.92-2.5,5.56-5.56,7.95-8.93c20.69-24.01,38.24-50.69,52.23-79.39
					c17.25-35.48,24.47-53.25,31.74-63.35C529.57,243.9,532.79,239.02,535.58,233.77z"/>
			</g>
		</g>
	</g>
</g>
</svg>
