<?xml version="1.0" encoding="utf-8"?>
<!-- Generator: Adobe Illustrator 25.2.3, SVG Export Plug-In . SVG Version: 6.00 Build 0)  -->
<svg version="1.1" id="Layer_1" xmlns="http://www.w3.org/2000/svg" xmlns:xlink="http://www.w3.org/1999/xlink" x="0px" y="0px"
	 viewBox="0 0 576 576" enable-background="new 0 0 576 576" xml:space="preserve">
<g>
	<g>
		<defs>
			<path id="SVGID_1_" d="M576,287.99c0,159.06-128.94,288-288,288S0,447.05,0,287.99C0,128.94,128.94,0,288,0
				S576,128.94,576,287.99z"/>
		</defs>
		<use xlink:href="#SVGID_1_"  overflow="visible" fill="#F9E3D9"/>
		<clipPath id="SVGID_2_">
			<use xlink:href="#SVGID_1_"  overflow="visible"/>
		</clipPath>
		<g clip-path="url(#SVGID_2_)">
			<path fill="#F9E3D9" d="M576,287.99c0,159.06-128.94,288-288,288S0,447.05,0,287.99C0,128.94,128.94,0,288,0
				S576,128.94,576,287.99z"/>
			<g>
				<path fill="#C0DAF2" d="M209.7,718.99l108.51-141.57c0,0-25.64-76.94-61.54-54.71c-20.99,13.03-71.23,105.83-125.6,196.28H209.7
					z"/>
				<g>
					<path fill="#F15B2D" d="M206.5,307.46c0-20.07-5.39-38.29-14.16-52.03c-0.59-11.39,5.8-17.9,2.46-19.74
						c-10.99-6.02-31.25-6.07-39.4-4.98c-0.06,0-0.12-0.01-0.17-0.01c-29.87,0-56.87,34.06-56.87,76.76
						c0,39.52,19.12,70.91,46.98,77.13c9.97,3.26,36.11,3.26,36.11,3.26s0.98-6.8,2.37-17.51
						C197.53,356.31,206.5,333.41,206.5,307.46z"/>
					<ellipse fill="#B54426" cx="181.44" cy="310.52" rx="54.07" ry="77.32"/>
				</g>
				<path fill="#E3F3FC" d="M461.96,718.99c11.7-36.63,18.24-71.29,16.96-101.43c-2.12-49.44-30.09-91.3-67.36-116.46
					c-14.56-9.91-30.64-17.24-47.11-21.47c-26.19-6.84-53.48-5.75-77.76,5.47c-8,3.62-15.66,8.34-22.84,14.29
					c-3.76,3.07-7.46,6.56-10.95,10.32c-2.67,2.8-5.19,5.81-7.66,9.03c-49.48,64.75-75.36,151.3-86.84,200.24H461.96z
					 M295.78,526.34c0.14,0.07,0.34,0.14,0.48,0.2c1.1,6.22,1.98,12.04,2.46,16.89c-4.79,7.93-10.33,17.3-13.4,23.04
					C289.56,556.5,294.48,537.15,295.78,526.34z"/>
				<path fill="#C0DAF2" d="M458.9,718.99c14.1-70.59,19.08-132.47,3.47-152.38c-42.54-54.37-102.64-48.07-106.82,54.91
					c-1.26,30.29-4.3,64.38-7.95,97.46H458.9z"/>
				<path fill="#0D89C1" d="M412.81,498.21c0,0-29.06-36.47-49.01-39.32c-19.94-2.85-3.42,33.62-3.42,33.62L412.81,498.21z"/>
				<polygon fill="#0D89C1" points="341.29,465.87 285.3,479.98 287.01,498.78 342.57,488.1 				"/>
				<path fill="#782C16" d="M360.41,481.68c-16.62-3.55-35.83-4.92-52.65-2.12c-2.06,0.28-12.38,3.62-19.76,10.39
					c-6.7,6.09-10.95,14.98-4.17,27.01c2.32,4.17,6.49,7.25,11.96,9.37c-1.3,10.81-6.22,30.16-10.46,40.14
					c3.07-5.74,8.61-15.11,13.4-23.04c0.07,0.89,0.14,1.71,0.2,2.53c1.71-4.45,3.76-8.69,5.95-12.58c1.02-1.78,1.85-3.15,2.32-3.9
					c1.58,0.28,3.15,0.48,4.79,0.62c1.71-1.92,3.49-3.83,5.34-5.68c0.48-0.48,1.02-0.95,1.5-1.5c8.75-8.96,18.39-16.48,23.86-13.88
					c3.15,1.5,6.43,5.33,9.44,10.12c0.41,0.68,0.89,1.37,1.3,2.12c1.09,1.85,2.19,3.9,3.28,6.02c18.33-3.56,34.6-9.57,41.58-16
					C409.64,500.69,388.85,487.84,360.41,481.68z"/>
				<path fill="#2EAAE1" d="M295.78,526.34c-1.3,10.81-6.22,30.16-10.46,40.14c-0.21,0.34-0.41,0.76-0.55,1.1
					c-0.48,1.23-1.02,2.26-1.5,3.08c-0.07,0.13-0.14,0.2-0.14,0.2s4.58-106.54-37.74-45.41c1.64-3.55,4.44-9.57,7.52-15.73
					c4.45-8.82,9.3-17.85,11.77-20.03c5.12-4.58,20.65-9.71,20.65-9.71s0.55,1.92,1.37,5.13c0.41,1.37,0.44,3.15,1.3,4.85
					c4.72,9.4,5.82,10.14,8.29,23.07C296.98,520.01,296.12,523.47,295.78,526.34z"/>
				<path fill="#782C16" d="M372.06,390.05v102.77c0,0-34.56,32.7-78.23,9.34l-2.11-99.03L372.06,390.05z"/>
				<path fill="#8B491F" d="M415.09,369.42c0,0-9.11,50.72-43.31,60.41l9.12-58.13L415.09,369.42z"/>
				<path fill="#8E4920" d="M398.7,314.14c0-0.41-0.07-0.82-0.14-1.23c-0.96-7.79-2.25-15.66-3.76-23.59v-0.07
					c-1.03-5.33-2.12-10.66-3.36-16c-0.34-1.44-0.68-2.94-1.02-4.37c-1.44-5.88-2.94-11.77-4.58-17.58
					c-0.14-0.48-0.27-1.02-0.41-1.5c-0.35-1.16-0.62-2.32-0.96-3.56c-0.28-0.95-0.62-1.91-0.89-2.87c-0.55-1.98-1.17-3.97-1.78-5.88
					c-2.12-6.9-4.31-13.68-6.7-20.31c-0.07-0.07-0.07-0.07,0-0.13c-0.07-0.07-0.07-0.07,0-0.14c-0.07-0.07-0.07-0.07-0.07-0.14
					c-7.25-20.65-15.25-39.73-23.32-55.6v-0.07c-11.83-23.52-23.45-40.07-31.87-44.18c-1.57-0.75-3.62-1.71-6.22-2.73
					c-20.85-8.62-72.62-24.28-115.3-2.4c-4.79,2.4-9.5,5.34-14.02,8.82c-3.76,2.87-7.45,6.22-10.94,9.91
					c-4.58,4.79-8.89,10.26-12.78,16.55c-2.74,4.38-5.34,9.1-7.73,14.22c-2.8,6.09-5.4,12.73-7.66,19.97
					c2.46,1.37,4.99,2.59,7.59,3.69c11.9,5.4,25.65,8.89,41.44,9.51c89.79,3.42,70.17-41.93,95.74-42.74
					c8.61-0.28,17.43-1.71,25.64-2.26c16.14-1.23,29.75,0.89,34.26,21.95c0.2,0.89,0.41,1.85,0.54,2.8
					c4.04,19.28,8.69,51.29,11.9,74.54c-3.76,1.23-7.39,3.07-10.81,5.47c-4.37-22.98-11.49-45.34-18.81-64.62
					c-16,5.06-116.53,35.08-185.59,7.93c-1.99-0.68-3.9-1.5-5.75-2.39c-3.28,13.88-5.61,29.74-6.7,47.73c0,0,0,0.89-0.07,2.6v0.82
					c0,0.07,0,0.14,0,0.14v0.2c-0.07,3.49-0.14,9.3,0,16.76v0.07c0.13,5.33,0.27,11.42,0.62,18.19
					c2.67,55.46,14.83,153.52,66.67,178.62c34.12,16.42,63.87,23.32,91.43,18.81c27.63-4.37,53.07-20.24,78.44-49.23
					c0.07-0.07,0.2-0.14,0.27-0.28c3.7-4.24,7.39-8.75,11.08-13.54c5.54-7.18,9.64-15.86,12.52-25.64
					c1.85-6.22,3.15-12.93,3.97-19.97c0.07-0.07,0.07-0.21,0.07-0.28c0.14-0.76,0.2-1.44,0.28-2.19
					C401.71,351.48,401.1,333.16,398.7,314.14z"/>
				<path fill="#782C16" d="M252.25,375.72c0,0-13.09,2.01-3.43,6.4c11.75,5.35,23.64,12.9,26.7,15.71
					C282.19,403.97,271.44,384.82,252.25,375.72z"/>
				<path fill="#782C16" d="M166.48,383.64c0,0,7.15-5.51,4.77,1.32c-2.9,8.32-4.77,17.74-4.83,20.57
					C166.31,411.71,161.93,397.39,166.48,383.64z"/>
				<g>
					<path fill="#522E0F" d="M254.97,416.05c-0.81,1.96-1.93,3.85-3.38,5.82c-6.62,9.84-18.94,19.07-34.67,19.25
						c-10.64,0.13-21.04-1.34-28.5-6.91c-0.04,0.16-0.04,0.16-0.15-0.04c-5.42-4.22-9.27-10.87-10.13-20.61c0,0-2.34-7.61,5.78-9.05
						c1.35-0.33,3.11-0.38,5.27-0.16c14.25,1.28,35.23,1.61,50.09-4.47c8.83-3.6,14.48-1.5,16.57,3.38
						C257.39,406.48,257.13,411.25,254.97,416.05z"/>
					<path fill="#FFFFFF" d="M255.85,403.24c-15.1,14.53-39.88,19.76-56.78,13.96c-9.32-3.2-13.38-8.41-15.14-12.7
						c1.35-0.33,3.11-0.38,5.27-0.16c14.25,1.28,35.23,1.61,50.09-4.47C248.11,396.27,253.76,398.37,255.85,403.24z"/>
					<path fill="#F16162" d="M251.58,421.87c-6.62,9.84-18.94,19.07-34.67,19.25c-10.64,0.13-21.04-1.34-28.5-6.91
						C201.32,428.29,229.4,416.9,251.58,421.87z"/>
				</g>
				<path fill="#FFFFFF" d="M259.39,275.12c-13.02-18.77-42.14-14.01-50.86,7.11c-4.15,10.05-5.19,20.45,4.97,34.9
					c18.77,26.7,54.71,2.57,54.92-14.97C268.5,295.58,266.92,285.98,259.39,275.12z"/>
				<path fill="#FFFFFF" d="M141.65,310.08c-4.39-7.64-6.14-16.37-4.85-25.01c1.41-9.46,5.29-20.45,15.83-18.13
					c17.95,3.94,34.24,40.52,14.76,54.09C155.84,329.08,146.96,319.34,141.65,310.08z"/>
				<g>
					<path fill="#611B13" d="M236.57,306.21c4.18,6.15,3.01,14.22-2.59,18.03c-5.61,3.81-13.54,1.91-17.72-4.25
						c-4.18-6.15-3.02-14.22,2.59-18.03C224.46,298.15,232.39,300.06,236.57,306.21z"/>
				</g>
				<g>
					<path fill="#611B13" d="M165.07,303.6c4.18,6.15,3.39,13.97-1.75,17.47c-5.15,3.5-12.71,1.34-16.89-4.81
						c-4.18-6.15-3.39-13.97,1.76-17.47C153.33,295.29,160.89,297.45,165.07,303.6z"/>
				</g>
				<path fill="#782C16" d="M267.64,290.1c-31.77-28.7-61.66-0.67-61.66-0.67s0.9-33.93,24.29-40.43
					C261.44,240.25,267.64,290.1,267.64,290.1z"/>
				<path fill="#782C16" d="M136.35,292.92c0,0,9.74-18.37,38.96,0c0,0-5.52-29.9-22.73-29.9
					C133.43,263.02,136.35,292.92,136.35,292.92z"/>
				<path fill="#28110C" d="M261.57,261.05c0,0,12.34,11.78,14.96,5.75c2.61-6.03,1.02-20.98-17.6-24.1
					c-18.63-3.11-46.68,0.08-47.45,7.42s-0.51,12.59,6.05,12.05C224.08,261.64,240.84,249.81,261.57,261.05z"/>
				<path fill="#28110C" d="M138.38,260.39c0,0-10.87,10.2-11.83,3.94c-0.96-6.26,2.57-20.83,16.67-21.75
					c14.09-0.91,34.08,5.5,33.49,12.84c-0.6,7.34-1.62,12.49-6.32,11.2C165.67,265.32,155.3,251.7,138.38,260.39z"/>
				<path fill="#782C16" d="M170.1,344.64c0,0,4.27,31.2,30.03,26.35c10.91-2.06,10.14-0.16,6.25,3.12
					c-4.37,3.68-17.81,7.6-24.94,3.2C168.8,369.52,169.73,363.03,170.1,344.64z"/>
				<path fill="#2EAAE1" d="M412.79,498.23c-0.07,0.69-0.55,1.64-1.23,2.88c-7.39,12.52-44.32,51.83-44.32,51.83
					s-4.44-13.47-10.53-25.64c-1.1-2.12-2.19-4.18-3.28-6.02c-0.41-0.75-0.89-1.44-1.3-2.12c-2.8-4.31-5.68-7.52-8.82-9.02
					c-5.4-2.6-15.45,4.24-24.48,12.78c-0.48,0.55-1.02,1.02-1.5,1.5c-1.85,1.85-3.62,3.76-5.34,5.68
					c-6.7,7.52-26.8,37.81-28.72,40.55c0.28-0.76,0.82-1.78,1.5-3.08c0.14-0.34,0.34-0.76,0.55-1.1c3.07-5.74,8.61-15.11,13.4-23.04
					c2.32-3.9,4.51-7.45,6.15-10.05c1.02-1.78,1.85-3.15,2.32-3.9c14.91-24.35,37.2-39.46,53.21-47.8c1.37-0.75,2.74-1.43,4.04-2.05
					c9.43-4.52,17.45-12.06,17.45-12.06S413.95,490.78,412.79,498.23z"/>
				<path fill="#37150F" d="M469.15,215.85c6.9-7.11,10.01-17.26,7.03-27.23c-2.22-7.33-7.64-13.08-14.32-16.84
					c-0.6-7.29-2.73-14.31-7.93-20.11c-1.67-1.83-3.54-3.24-5.54-4.31c-0.22-8.48-1.07-18.28-6.82-24.25
					c-2.72-2.86-6.09-4.47-9.8-5.28c-0.38-1.58-0.98-3.11-1.7-4.56c-1.75-11.08-8.4-21.14-18.45-26.63
					c-2.3-1.24-4.65-2.13-7.03-2.86c-7.33-7.42-17.01-12.96-27.02-15.64c-8.14-8.23-19.44-11.81-30.56-14.58
					c-2.13-0.51-4.04-0.38-5.71,0.13c-2.77-2.09-5.71-3.54-8.78-4.44c-7.58-7.75-17.81-12.1-30.43-10.1
					c-0.98,0.17-1.87,0.56-2.72,1.07c-6.99-2.17-14.58-2.43-21.9-0.77c-32.1-11.25-50.46,12.82-50.46,12.82
					c-16.28-6.13-26.38,14.66-26.38,14.66s-0.09-0.09-0.26-0.26c-1.41,2.64-3.59,5.16-6.95,7.16c0,0-0.05,0-0.05,0.05
					c-0.68,0.81-10.01,12.32,4.86,21.44l-3.83,1.49c-0.05-0.05-0.09-0.09-0.09-0.09c-1.02-0.56-7.63-4.18-13.34-5.75
					c-4.77-0.26-8.36,1.02-8.36,1.02c-17.9-18.33-32.21,0.39-32.21,0.39c-6.31,1.45-11.38,5.45-14.71,12.15
					c-2.3,4.6-2.72,9.93-2.72,15.38c-13.76,4.68-24.29,22.41-20.5,36.65c-0.34,0.6-0.64,1.23-0.94,2c-1.7,4.48-1.49,8.82-0.04,12.78
					c-1.66,7.59-3.97,14.54-2.47,22.46c1.19,6.56,4.68,12.78,9.54,17.3c1.16,12.49,2.43,27.11,14.71,31.96
					c15.77,6.18,22.46-12.19,17.68-25.02c0.21-0.13,0.47-0.34,0.68-0.56c5.58-5.79,11.76-9.97,18.28-12.57
					c13,6.26,27.79,8.95,39.59,2.3c1.62,0.77,3.2,1.58,4.77,2.51c13.76,8.06,25.31,20.2,41.55,23.4c5.54,1.1,10.18,0.76,15.73,0.47
					c2.26-0.47,4.43-1.2,6.56-2.09c5.37,6.47,12.15,9.8,20.16,9.72c0.73,0.51,1.5,0.93,2.26,1.36c0.56,2.56,1.62,5.03,3.37,7.33
					c3.28,4.26,6.69,5.28,10.74,6.26c0.39,2.47,0.73,5.41,1.75,7.54c2.3,4.81,5.92,8.82,10.53,11.54c1.45,0.9,2.94,1.54,4.47,2.09
					c3.24,5.45,9.46,9.93,15.56,12.86c-0.17,2.61,0.85,5.25,3.62,7.46c6.99,5.67,15,10.19,24.33,10.11c2.86,0,5.29-0.51,7.63-1.71
					c1.49,0.64,3.03,1.23,4.64,1.71c2,1.23,4.05,2.47,6.26,3.32c6.22,2.34,12.92,3.66,19.61,3.83c11,0.21,19.01-3.71,22.71-14.36
					c0.3-0.77,0.43-1.49,0.56-2.22c0.93-1.23,1.87-2.51,2.77-3.79c6.18,1.15,12.48,0.68,17.85-3.41c5.63-4.26,7.2-10.18,7.16-16.49
					c2.86-1.07,5.54-2.51,7.97-4.6c6.73-5.67,8.23-14.15,7.54-22.5c2.22-2.65,3.71-6.22,4.3-9.42c1.24-6.91-1.19-12.45-5.12-17.22
					C469.06,219.3,469.19,217.6,469.15,215.85z"/>
				<path fill="#307E85" d="M401.56,236.78l-10.9,0.64l-5.98,0.2c0.45-18.61-5.52-98.34-45.43-134.67
					c-18.08-16.51-29.66-18.09-58.78-21.82c-0.03-0.01-0.05-0.01-0.08-0.01c-30.4-0.97-52.21,2.55-67.75,6.82
					c27.16-10.64,68.99-20.07,113.44-2.42c12.33,4.9,23.26,12.88,31.79,23.03C375.42,129.43,402.78,172.47,401.56,236.78z"/>
				<g>
					<path fill="#EE8D72" d="M347.06,349.25c-8.42-17.26-5.68-37.95,5.52-53.55c13.56-18.89,36.7-42.61,52.83-13.66
						c24.12,43.28,4.69,104.53-32.93,90.2C359.32,367.21,351.57,358.48,347.06,349.25z"/>
					<g>
						<g>
							<path fill="#7FC7C3" d="M384.68,235.67c0,4.39-0.14,7.21-0.2,7.76l-9.23-0.82c0-0.18,0.27-2.92,0.41-7.57v-0.64
								c0.68-22.8-6.17-86.37-41.66-124.32c-12.78-13.68-29.32-21.46-56.11-24.45c-19.42-2.17-37.31-3.18-52.14,1.57
								c-9.99,3.01-16.92,5.09-27.53,8.12c-0.14,0.1-3.75,1.44-3.85,1.5c20.51-11.86,19.9-8.37,35.62-14.12
								c0.07,0,0.21-0.09,0.34-0.09c14.23-5.2,32.12-4.43,59.96-3.24c26.67,4.56,38.44,3.78,54.99,23.93
								C381.8,147.63,385.09,212.96,384.68,235.67z"/>
						</g>
					</g>
					<g>
						<path fill="#F15B2D" d="M421.27,316.94c0,21.2-6.57,40.28-16.96,53.21c-0.48,0.62-1.02,1.3-1.57,1.92
							c-0.76,0.82-1.5,1.64-2.26,2.39c-1.23,9.78-2.12,16-2.12,16c-0.96,0-1.85-0.07-2.73-0.07c-3.76,0-10.81-0.21-17.51-0.76
							c-5-0.48-9.71-1.1-12.79-2.12c-25.51-5.67-43.02-34.39-43.02-70.57c0-14.5,3.35-27.83,9.03-38.91
							c5.13-10.12,12.1-18.33,20.17-23.8c3.42-2.4,7.05-4.24,10.81-5.47c2.19-0.76,4.44-1.3,6.76-1.64
							c1.71-0.28,3.49-0.41,5.27-0.41c0.07,0,0.07,0,0.13,0c2.4-0.35,5.96-0.55,9.99-0.49c1.23,0,2.46,0.07,3.76,0.14
							c4.71,0.21,9.85,0.82,14.43,2.06h0.07c2.53,0.62,4.85,1.37,6.9,2.46c0.28,0.07,0.62,0.27,0.89,0.41
							c2.19,1.16-0.2,4.58-1.5,10.33c-0.48,2.19-0.82,4.79-0.68,7.73c0.34,0.55,0.68,1.02,0.96,1.57
							c3.97,6.57,7.04,14.09,9.09,22.43c0.27,0.96,0.48,1.92,0.68,2.88C420.52,302.79,421.27,309.69,421.27,316.94z"/>
						<path fill="#B54426" d="M447.81,319.74c0,39.07-22.15,70.74-49.48,70.74c-27.33,0-49.48-31.68-49.48-70.74
							c0-39.08,22.15-70.75,49.48-70.75C425.66,248.99,447.81,280.67,447.81,319.74z"/>
						<path fill="#FFD050" d="M452.13,317.57c0,29.39-19.13,53.67-43.72,56.87c-18.21-5.57-31.89-28.7-31.89-56.41
							c0-28.93,14.92-52.9,34.39-56.87C434.31,265.6,452.13,289.18,452.13,317.57z"/>
						<path fill="#FEE396" d="M414.03,268.6c0,0-28.56,8.41-22.53,58.37c0,0,14.08-30.82,28.96-30.82
							C435.34,296.16,434.14,273.74,414.03,268.6z"/>
					</g>
					<polygon fill="#FEE396" points="388.65,249.93 369.02,248.97 369.09,247.13 369.36,240.36 369.5,236.87 375.66,237.14 
						384.68,237.62 387.22,237.76 387.9,243.7 388.24,246.37 					"/>
					<polygon fill="#CBA25D" points="403.7,248.29 402.67,248.43 397.13,248.97 392,249.59 388.65,249.93 388.24,246.37 
						387.9,243.7 386.92,237.21 399.24,237.07 403.58,236.57 					"/>
				</g>
			</g>
		</g>
	</g>
</g>
</svg>
