<?xml version="1.0" encoding="utf-8"?>
<!-- Generator: Adobe Illustrator 25.2.3, SVG Export Plug-In . SVG Version: 6.00 Build 0)  -->
<svg version="1.1" id="Layer_1" xmlns="http://www.w3.org/2000/svg" xmlns:xlink="http://www.w3.org/1999/xlink" x="0px" y="0px"
	 viewBox="0 0 576 576" enable-background="new 0 0 576 576" xml:space="preserve">
<g>
	<g>
		<defs>
			<path id="SVGID_1_" d="M576,288c0,159.06-128.94,288-288,288S0,447.06,0,288S128.94,0,288,0S576,128.94,576,288z"/>
		</defs>
		<use xlink:href="#SVGID_1_"  overflow="visible" fill="#F9E3D9"/>
		<clipPath id="SVGID_2_">
			<use xlink:href="#SVGID_1_"  overflow="visible"/>
		</clipPath>
		<g clip-path="url(#SVGID_2_)">
			<g>
				<g>
					<path fill="#F15F22" d="M138.26,417.93c0,0,14.01,1.98,31.88,1.3c23.04-0.9,52.52-6.25,66.67-26.05c0,0,6.37-52.91-7.84-96.95
						c-3.22-9.92-7.45-19.38-13.05-27.69c-0.51-0.74-5.76-1.7-13.95-2.07c-21.2,0.9-49.73,5.66-71.41,20.09h-15.63
						C114.93,286.55,102.26,363.23,138.26,417.93z"/>
					<path fill="#F68D51" d="M153.89,417.93c0,0,6.48,0.93,16.25,1.3c23.1,0.86,64.65-1.33,82.3-26.05c0,0,9.55-79.43-20.89-124.64
						c-0.43-0.65-4.35-1.42-10.6-1.88c-5.04-0.37-11.54-0.53-18.99-0.19c-21.2,0.9-49.73,5.66-71.41,20.09
						C130.56,286.55,117.89,363.23,153.89,417.93z"/>
				</g>
				<path fill="#D35127" d="M119.77,286.55h15.63c21.68-14.43,50.21-19.19,71.41-20.09C186.3,265.5,147.48,268.13,119.77,286.55z"/>
			</g>
			<g>
				<path fill="#F89F74" d="M250.48,647.43c8.88-3.47,19.56-2.82,30.45,0H250.48z"/>
			</g>
			<g>
				<path fill="#A01D20" d="M240,647.43c9.17-54.84,38.47-183.51,111.45-181.31c24.86,15.9,70.58,61.17-3.11,181.31H240z"/>
				<path fill="#7A1315" d="M348.01,647.43c72.32-121.4,18-173.06-6.88-188.96c10.63,0.61,22.23,5.02,34.92,14.2
					c66.59,48.11,48.45,121.33,21.11,174.76H348.01z"/>
			</g>
			<path fill="#013B3F" d="M128.53,259.17c-0.03-0.81-18.39-10.79-18.39-10.79l11.34-18.07l17.35-3.35L128.53,259.17z"/>
			<path fill="#F89F74" d="M344.1,312.5c2.91,5.39,2.13,100.04,90.34,133.75c88.2,33.72-31.08,129.1-75.59,98.08
				c-44.5-31.02-15.45-127.98-46.98-148.08C266.15,367.09,344.1,312.5,344.1,312.5z"/>
			<path fill="#C32026" d="M315.24,647.43l-4.69-14.81l25.76-121.02c0,0,29.09,19.72,78.55-10.5
				c49.45-30.22,96.09-55.48,96.09-55.48s59.91,61.06,92.62,201.81H315.24z"/>
			<path fill="#027F83" d="M125.04,176.66l204.69,58.15c0,0,23.73,17.81,49.53,18.81c1.75-10.75,6.15-23.41,13.95-38.27
				c39.53-75.28,2.2-125.65-30.99-152.75c-39.63-18.62-90.1-23.99-140.87-8.49C102.35,90.47,125.04,176.66,125.04,176.66z"/>
			<path fill="#02666A" d="M393.22,215.35c-7.81,14.86-12.2,27.52-13.95,38.27c23.08,0.94,47.82-11.65,58.5-62.71
				c11.4-54.3-22.27-103.25-75.54-128.31C395.42,89.7,432.75,140.07,393.22,215.35z"/>
			<path fill="#35404A" d="M211.08,38.78c0,0-52.37,5.99-70.99,67.86l16.47-18.46c0,0,17.87-19.73,71.86-36.04L211.08,38.78z"/>
			<path fill="#F9AF8A" d="M317.82,360.15c-3.22,46.86-9.49,84.02-37.78,103.18c0,0.05-0.05,0.05-0.05,0.05
				c-0.05,0.05-0.14,0.09-0.18,0.09c-22.43,11.54-46.23,14.21-68.08,1.63c-106.04-60.95-85.24-259.5-86.06-268.4l22.66-2.09
				c2.63,7.49,4.68,12.49,4.68,12.49s32.75,26.25,61.13,12.63c28.34-13.63,59.04-15.31,73.76,10.22
				C302.7,255.46,321.09,313.19,317.82,360.15z"/>
			<path fill="#751E14" d="M184.76,272.6l7.03,16.83c0,0,17.25-35.88,62.83-41.01l-0.32-25.7
				C254.3,222.72,214.53,234.19,184.76,272.6z"/>
			<path fill="#FFFFFF" d="M229.53,329.78c-24.31-0.34-31.83-24.94-31.83-24.94l9.64-4.41l21.75-9.9l22.74-10.4
				C258.17,294.59,253.89,330.14,229.53,329.78z"/>
			<g>
				<path fill="#FFFFFF" d="M168.7,304.95c0,0,9.36,20.63-7.75,30.81c-17.12,10.18-32.02-12.81-32.42-26.14l7.37-2.35l17.12-1.35
					L168.7,304.95z"/>
			</g>
			<g>
				<path fill="#ED1C24" d="M274.78,401.08c-1.77,19.03-7.76,39.64-24.8,43.26c-4.55,0.98-9.87,0.76-16.1-1.03
					c0,0-35.91-10.46-46.3-31.51c0,0,2.89,0.32,7.84,0.03c3.4,4.32,8.99,10.28,18.62,14.97c13.08,6.34,42.35-24.32,50.26-47.96
					c3.44-3.52,6.88-7.43,10.22-11.73C274.52,367.11,276.48,383.42,274.78,401.08z"/>
				<path fill="#FFFFFF" d="M264.3,378.84c-7.91,23.64-37.18,54.3-50.26,47.96c-9.63-4.69-15.22-10.66-18.62-14.97
					C208.87,411.1,237.57,406.07,264.3,378.84z"/>
				<path fill="#F26C58" d="M274.78,401.08c-1.77,19.03-7.76,39.64-24.8,43.26c-4.81-4.41-7.91-11.2-5.69-21.6
					C248.76,401.96,266.1,400.47,274.78,401.08z"/>
			</g>
			<circle fill="#7C1E16" cx="153.02" cy="327.95" r="10.54"/>
			<path fill="#7C1E16" d="M238.03,316c0,6.6-5.35,11.95-11.95,11.95c-6.6,0-11.94-5.35-11.94-11.95c0-6.6,5.35-11.94,11.94-11.94
				C232.68,304.06,238.03,309.4,238.03,316z"/>
			<path fill="#F5855B" d="M178.02,252.75c0,0-11.2,10.11-3.08,32.92C174.94,285.68,170.48,263.31,178.02,252.75z"/>
			<path fill="#F5855B" d="M147.8,261.87c0,0,19.65,0.71,15.06,23.01C162.86,284.88,162.24,265.19,147.8,261.87z"/>
			<path fill="#F5855B" d="M197.7,304.84l56.76-24.7C254.46,280.14,207.63,258.1,197.7,304.84z"/>
			<path fill="#F5855B" d="M128.53,309.61l40.17-4.67C168.7,304.95,145.27,280.88,128.53,309.61z"/>
			<path fill="#751E14" d="M110.14,270.83c4.96,0.16,37.63,6.49,50.14,20.56l1.4,13.3c0,0-35.98-17.06-49.24-11.83L110.14,270.83z"
				/>
			<path fill="#F89F74" d="M371.86,342.98c-9.77,42.24-48.28,97.92-91.83,120.35c28.29-19.17,34.56-56.32,37.78-103.18
				c3.27-46.96-15.12-104.68-29.93-130.2c-14.71-25.53-45.41-23.84-73.76-10.22c-28.38,13.62-61.13-12.63-61.13-12.63
				s-2.05-5-4.68-12.49l194.24-17.94C342.57,176.67,386.71,278.85,371.86,342.98z"/>
			<g>
				<path fill="#F89F74" d="M342.56,296.68c0,0,29.6-70.32,62.71-41.2c33.12,29.13,6.78,93.64-32.28,93.14
					c-39.06-0.5-34.05-18.51-34.05-18.51L342.56,296.68z"/>
				<path fill="#F47644" d="M358.47,312.33c0,0,3.89,13.89,14.62,9.66c10.73-4.23,8.33-16.29-0.51-18.96
					c-8.84-2.67-7.97-0.1-7.97-0.1s16.29-38.75,26.47-34.71c10.18,4.04,27.27,20.35,16.44,32.4c-10.83,12.04-10.17,7.24-6.93,0.51
					c3.25-6.73,8.56-10.57,2.77-16.51c-5.79-5.94-15.21-10.13-15.21-10.13l-16.55,24.01c0,0,15.1,6.81,11.98,15.64
					c-3.12,8.84-16.07,21.61-25.26,10.66C358.31,324.82,352.97,318.73,358.47,312.33z"/>
			</g>
			<path fill="#F5855B" d="M163.56,296.97c0,0,16.64,52.74-1.77,70.14c-18.41,17.4,3.52,33.41,25.38,27
				c8.08-2.37,14.11-6.04,18.49-9.75c8.03-6.77,8.27-19.5-0.18-25.74c-3.84-2.85-7.88-3.07-10.47,4.5
				C195,363.12,190.18,320.37,163.56,296.97z"/>
			<path fill="#00969C" d="M107.85,185.66l0.32,62.49c33.54-43.44,112.9-31.4,181.57-9.71c67.15-23.44,28-75.24,26.65-77.02
				c-0.03-0.03-0.03-0.03-0.03-0.03c-64.2-18.42-136.37-20.14-173.93-17.62C121.03,145.22,105.29,164.39,107.85,185.66z"/>
			<path fill="#027F83" d="M207.84,217.85c0,0-66.13-7.84-96.07,30.57l12.76,4.35l0.51,6.4c0,0-19.45-5.7-19.74-13.49
				C105.3,245.68,125.53,205.07,207.84,217.85z"/>
			<path fill="#C32026" d="M310.55,632.62c0,0-46.54-111.71,7.66-161.35c54.2-49.64,132.84-52.47,193.77-23.83
				C564.91,472.31,310.55,632.62,310.55,632.62z"/>
			<path fill="#F89F74" d="M405.11,430.88c0,0-9.43,71.65-63.16,78.94c0,0-20.21-16.31-11.8-48.54
				C330.15,461.28,372.67,420.72,405.11,430.88z"/>
			<path fill="#007D81" d="M289.74,238.44c63.81,20.17,118.4,48.66,118.4,48.66l21.69-50.09c-21.08-38.3-64.98-61.71-113.45-75.59
				C317.75,163.19,356.89,215,289.74,238.44z"/>
			<path fill="#35404A" d="M211.08,38.78l17.35,13.36c0,0,109.72,7.24,132.99,200.63l31.81-4.37c0,0-8.36-216.54-176.55-209.93
				C214.85,38.54,212.98,38.66,211.08,38.78z"/>
			<path fill="#1A2127" d="M228.43,52.14l0.21,1.1c0,0,92.45,5.99,115.71,199.38l17.07,0.15C338.15,59.38,228.43,52.14,228.43,52.14
				z"/>
			<g>
				<g>
					<g enable-background="new    ">
						<g>
							<path fill="#FFFFFF" d="M390.29,647.43c-4.48-0.9-9.01-1.22-13.52-0.74c-1.49,0.16-2.94,0.43-4.37,0.74h-11.85
								c4.58-2.44,9.7-4.05,15.27-4.64c8.86-0.94,17.86,0.82,26.36,4.64H390.29z"/>
						</g>
					</g>
				</g>
			</g>
			<g>
				<path fill="#F9AF8A" d="M545.48,647.43l-28.26-4.89c0.4,0.39,1.38,2.11,2.71,4.89h-55.27c-2.27-23.38-3.16-40.43-1.15-42.03
					c29.09-23.27,115.19-0.32,115.19-0.32l-1.86,42.36H545.48z"/>
				<path fill="#F89F74" d="M519.49,647.43c-1.05-2.79-1.87-4.51-2.26-4.89l28.26,4.89H519.49z"/>
			</g>
			<g>
				<path fill="#A01D20" d="M452.52,647.43c-12.71-57.74-35.03-188.28,17.21-209.75c27.78,5.23,98.15,35.52,64.88,209.75H452.52z"/>
				<path fill="#7A1315" d="M534.61,647.43c33.27-174.23-37.11-204.53-64.88-209.75c12.48-4.97,23.56-1.91,35.92,4.34
					c69,34.94,78.88,155.39,79.94,205.41H534.61z"/>
			</g>
			<g>
				<g>
					<path fill="#F15F22" d="M336.04,374.81c0,0,14.01,1.98,31.88,1.3c23.04-0.9,52.52-6.25,66.67-26.05c0,0,6.36-52.91-7.84-96.95
						c-3.21-9.92-7.44-19.38-13.04-27.69c-0.51-0.74-5.76-1.7-13.95-2.07c-21.2,0.9-49.73,5.65-71.41,20.09h-15.63
						C312.71,243.43,300.03,320.11,336.04,374.81z"/>
					<path fill="#F68D51" d="M351.67,374.81c0,0,6.48,0.93,16.26,1.3c23.1,0.86,64.64-1.33,82.29-26.05c0,0,9.55-79.43-20.89-124.64
						c-0.42-0.65-4.35-1.42-10.6-1.89c-5.03-0.36-11.54-0.52-18.98-0.18c-21.2,0.9-49.73,5.65-71.41,20.09
						C328.34,243.43,315.66,320.11,351.67,374.81z"/>
				</g>
				<path fill="#D35127" d="M312.71,243.43h15.63c21.68-14.43,50.21-19.19,71.41-20.09C379.23,222.38,340.42,225.01,312.71,243.43z"
					/>
			</g>
			<path fill="#F15F22" d="M349.24,304.06c0,30.5,21.84,55.23,48.78,55.23c26.94,0,48.77-24.73,48.77-55.23
				c0-30.51-21.84-55.23-48.77-55.23C371.08,248.82,349.24,273.55,349.24,304.06z"/>
			<g>
				<path fill="#424D9D" d="M236.4,478.8c3.54,8.15,17.26,10.07,30.71,4.24c9.3-4,15.99-10.68,18.05-17.1
					c-2.96,2.63-6.57,4.96-10.72,6.75c-13.45,5.79-27.2,3.91-30.71-4.28c-1.08-2.52-1.07-5.3-0.15-8.18
					C237.01,466.04,233.93,473.18,236.4,478.8z"/>
				<path fill="#5862AD" d="M243.71,468.42c3.51,8.19,17.27,10.07,30.71,4.28c4.15-1.79,7.77-4.13,10.72-6.75
					c0.96-2.85,0.96-5.67-0.12-8.19c-3.54-8.14-17.27-10.07-30.71-4.24c-4.19,1.79-7.81,4.13-10.76,6.72
					C242.65,463.12,242.63,465.9,243.71,468.42z"/>
				<polygon fill="#5862AD" points="403.68,308.48 387.33,401.25 276.21,457.77 279.74,467.04 394.51,408.21 410.75,309.55 				"/>
			</g>
			<g>
				<path fill="#454EA0" d="M389.6,304.83c0,11.68,6.06,21.14,13.52,21.14s13.52-9.46,13.52-21.14c0-11.67-6.06-21.13-13.52-21.13
					S389.6,293.16,389.6,304.83z"/>
				<polygon fill="#454EA0" points="403.12,283.69 411.55,283.69 411.55,325.97 403.12,325.97 393.98,312.79 393.98,297.89 				"/>
				<path fill="#5862AD" d="M398.02,304.83c0,11.68,6.05,21.14,13.52,21.14s13.53-9.46,13.53-21.14c0-11.67-6.06-21.13-13.53-21.13
					S398.02,293.16,398.02,304.83z"/>
			</g>
		</g>
	</g>
</g>
</svg>
