<?xml version="1.0" encoding="utf-8"?>
<!-- Generator: Adobe Illustrator 25.2.3, SVG Export Plug-In . SVG Version: 6.00 Build 0)  -->
<svg version="1.1" id="Layer_1" xmlns="http://www.w3.org/2000/svg" xmlns:xlink="http://www.w3.org/1999/xlink" x="0px" y="0px"
	 viewBox="0 0 576 576" enable-background="new 0 0 576 576" xml:space="preserve">
<g>
	<g>
		<defs>
			<path id="SVGID_1_" d="M576,288c0,159.05-128.94,288-288,288S0,447.06,0,288C0,128.94,128.94,0,288,0S576,128.94,576,288z"/>
		</defs>
		<use xlink:href="#SVGID_1_"  overflow="visible" fill="#F9E3D9"/>
		<clipPath id="SVGID_2_">
			<use xlink:href="#SVGID_1_"  overflow="visible"/>
		</clipPath>
		<g clip-path="url(#SVGID_2_)">
			<path fill="#FCBA81" d="M259.97,481.93L336.9,474c0,0-0.17-2.83-0.44-7.7l-0.34,0.44c-1.88-41.4-42.34-72.05-42.34-72.05
				l37.02-39.35c-0.11-2.39-0.06-4,0-4.71L271,379.07L259.97,481.93z"/>
			<path fill="#FAA95F" d="M293.78,394.69c0,0,40.46,30.65,42.34,72.05l0.34-0.44c-1.39-23.11-5.32-91.67-5.65-110.95L293.78,394.69
				z"/>
			<path fill="#9EBAB0" d="M119.75,756.05c23.82-44.18,46.24-88.23,58.57-112.8l9.92,17.23c0,0-19.33,43.78-45.15,95.57H119.75z"/>
			<path fill="#C0E4D7" d="M53.67,756.05l68.34-221.73l56.31,108.93c-12.33,24.57-34.75,68.62-58.57,112.8H53.67z"/>
			<path fill="#C0E4D7" d="M389.97,624.94c0,0.1,0.1,0.19,0.2,0.39c1.41,4.21,15.02,47.04-9.02,130.72H122.1
				c-6.4-82.36-22.15-206.95,10.98-240.5c13.34-13.44,70.94-31.86,107.57-41.48c-4.92,15.2-21.13,28.73-14.36,52.69
				c18.83,66.54,100.96-37.11,115.81-61.05c33.81,2.36,64.33,10.59,84.69,26.88c0,0,0,0,0.1,0.1c25.79,20.8,37.23,44.74,41.54,66.71
				c-0.6,0.19-1.1,0.29-1.7,0.49C435.63,569.12,406.73,588.24,389.97,624.94z"/>
			<path fill="#9EBAB0" d="M423.03,756.05h-41.92c25.34-88.28,8.86-131.11,8.86-131.11c17.06-37.38,46.77-56.51,78.47-65.53
				c7.32,36.79-5.72,67.69-5.72,67.69C446.28,662.63,433.3,707.5,423.03,756.05z"/>
			<path fill="#FCBA81" d="M222.49,529.64c8.03,69.71,107.26-33.35,119.61-63.92c-42.15-3.01-61.82-2.27-101.45,8.36
				C228.61,489.82,219.13,500.44,222.49,529.64z"/>
			<path fill="#C0E4D7" d="M431.04,756.05l-68.77-184.91l74.49-43c23.58,39.44,90.39,139.89,97.94,227.91H431.04z"/>
			<path fill="#FCBA81" d="M169.01,438.82c5.32,3.61,11.24,6.93,17.76,9.74c50.57,21.67,81.68-52.78,129.15-87
				c47.36-34.32,54.19-142.19,50.88-165.58c0,0,1.3,0.81,3.71,2.11c-13.35-57.6-45.06-108.47-117.41-95.13
				c-19.07,3.52-81.48,40.34-91.32,93.73c-9.83,53.49-1.2,75.16-14.15,111.69C136.19,340.38,162.28,419.36,169.01,438.82z"/>
			<path fill="#934626" d="M236.73,221.39c0,0-3.82,22.87,4.89,25.68c8.71,2.81,38.47-0.65,59.58,11.38l9.07-14.39
				C310.27,244.05,256.5,214.91,236.73,221.39z"/>
			<path fill="#F3777D" d="M173.01,344.32c6.48,5.84,22.28,3.82,24.13,2.98c1.9-0.79,4.87,4.03,6.93,5.33
				c2.06,1.29,9.45-0.75,10.98-9.14c1.46-7.61-2.21-6.39-2.89-6.11l-0.09,0.05c6.78,4.24-6.15,18.08-9.22,12.39
				c-3.12-5.65-8.7-4.21-8.7-4.21c-16.86,3.61-25.57-5.61-25.12-13.39c0.14-2.91,1.47-6.06,3.07-8.95c0.18-0.23,0.31-0.46,0.49-0.64
				c4.33-5.87,18.25-24.73,21.09-30.44l-22.93,31.97l0.09,0.04c-0.18,0.23-0.32,0.42-0.49,0.64c-0.62,0.87-1.16,1.74-1.56,2.61
				C166.1,333.03,167.45,339.29,173.01,344.32z"/>
			<path fill="#934626" d="M150.96,236.53c0.18,0.19,0.36,0.31,0.55,0.47c0.31,0.28,0.6,0.6,0.92,0.8c1.05,0.66,4.69,0.79,9.44,0.64
				c12.52-0.43,32.7-2.87,32.98-2.9c0,0,0.91-1.47,1.62-3.63c1.85-4.73,4.35-13.58,0.49-19.76c0,0-0.12,0-0.31,0.01
				c-3.02,0.1-27.01,1.21-40.72,7.97c-2.46,0.92-4.31,1.7-4.61,1.89c-0.86,0.57-1.49,1.2-2,1.85c0,0-0.05,0.08-0.07,0.11
				c-0.49,0.64-0.83,1.29-1.06,1.94c-0.03,0.1-0.06,0.2-0.1,0.3c-0.27,0.89-0.42,1.76-0.42,2.5c0.01,0.38,0.13,0.75,0.18,1.14
				c0.05,0.38,0.08,0.75,0.17,1.12c0.12,0.51,0.28,0.98,0.46,1.46c0.12,0.31,0.24,0.6,0.38,0.9c0.23,0.48,0.45,0.93,0.72,1.36
				c0.16,0.25,0.32,0.47,0.49,0.7C150.35,235.79,150.63,236.19,150.96,236.53z M149.14,233.89c0.07,0.13,0.14,0.27,0.21,0.4
				C149.27,234.15,149.21,234.02,149.14,233.89z M148.12,231.35c0.05,0.16,0.1,0.32,0.16,0.47
				C148.23,231.66,148.17,231.51,148.12,231.35z M147.73,228.69c0,0,0.01-0.02,0.01-0.04c0,0.08,0.02,0.16,0.02,0.23
				C147.75,228.82,147.73,228.77,147.73,228.69z M148,226.67c-0.08,0.35-0.16,0.7-0.19,1.06C147.84,227.39,147.91,227.04,148,226.67
				z M148.82,224.73c-0.18,0.31-0.38,0.6-0.51,0.92C148.44,225.34,148.64,225.04,148.82,224.73z M150.19,223.06
				c-0.23,0.22-0.53,0.42-0.73,0.66C149.66,223.48,149.95,223.28,150.19,223.06z M155.92,220.14L155.92,220.14L155.92,220.14
				L155.92,220.14z M150.7,236.21c0,0,0.04,0.05,0.06,0.08C150.74,236.26,150.72,236.23,150.7,236.21z"/>
			<g>
				<path fill="#070707" d="M190.92,291.39c3.16-3.61,6.66-5.46,10.4-5.49c7.5-0.09,15.82,8.44,14.88,7.53l2.92-4.39
					c-0.32-0.35-7.98-8.62-17.86-8.62c-5.36,0.05-10.22,2.53-14.46,7.37L190.92,291.39z"/>
			</g>
			<g>
				<g>
					<path fill="#070707" d="M215.72,288.74c0,18.92,14,34.67,32.26,37.41c1.87,0.33,3.72,0.44,5.69,0.44
						c2.84,0,5.69-0.32,8.31-0.98h0.11c4.81-0.98,9.18-3.06,13.12-5.69c1.2-0.88,2.29-1.75,3.39-2.74c2.84-2.52,5.36-5.36,7.22-8.64
						c0.76-1.09,1.42-2.18,1.85-3.39c2.52-4.93,3.83-10.5,3.83-16.41c0-19.91-15.2-36.09-34.46-37.73
						c-1.09-0.22-2.29-0.22-3.39-0.22c-11.7,0-22.1,5.25-29.1,13.45c-2.63,3.07-4.71,6.67-6.23,10.61
						C216.59,279.11,215.72,283.82,215.72,288.74z M272.04,314.33l-31.39-54.36c3.94-1.86,8.31-2.85,13.02-2.85
						c2.52,0,5.03,0.33,7.32,0.88l22.75,40.14C281.67,304.71,277.51,310.4,272.04,314.33z M243.6,318.6l-20.89-36.21
						c1.53-7.33,5.47-13.78,11.15-18.26l31.29,53.91c-3.5,1.42-7.44,2.19-11.48,2.19C250.17,320.24,246.78,319.69,243.6,318.6z"/>
					<path fill="#242424" d="M260.99,258l22.75,40.14c0.98-2.96,1.42-6.13,1.42-9.41C285.16,273.87,274.89,261.29,260.99,258z"/>
					<path fill="#242424" d="M233.87,264.13l31.29,53.91c2.52-0.87,4.81-2.18,6.89-3.72l-31.39-54.36
						C238.14,261.07,235.95,262.49,233.87,264.13z"/>
					<path fill="#242424" d="M222.06,288.74c0,13.89,8.97,25.7,21.54,29.86l-20.89-36.21C222.27,284.36,222.06,286.55,222.06,288.74
						z"/>
				</g>
				<path fill="#3F3F3F" d="M240.65,259.97l31.39,54.36c5.47-3.93,9.62-9.62,11.7-16.18L260.99,258c-2.29-0.55-4.81-0.88-7.32-0.88
					C248.96,257.13,244.59,258.12,240.65,259.97z"/>
				<path fill="#3F3F3F" d="M222.72,282.39l20.89,36.21c3.18,1.09,6.56,1.64,10.07,1.64c4.04,0,7.98-0.77,11.48-2.19l-31.29-53.91
					C228.18,268.62,224.24,275.06,222.72,282.39z"/>
			</g>
			<g>
				<g>
					<path fill="#070707" d="M118.02,280.58c0,18.92,14.01,34.67,32.27,37.41c1.86,0.32,3.72,0.44,5.69,0.44
						c2.85,0,5.69-0.33,8.31-0.99h0.11c4.82-0.98,9.19-3.06,13.13-5.69c1.2-0.88,2.29-1.75,3.39-2.74c2.85-2.52,5.36-5.36,7.22-8.64
						c0.77-1.09,1.42-2.18,1.86-3.39c2.52-4.93,3.83-10.5,3.83-16.41c0-19.91-15.2-36.09-34.45-37.73c-1.09-0.21-2.3-0.21-3.39-0.21
						c-11.7,0-22.09,5.24-29.1,13.45c-2.62,3.06-4.7,6.67-6.23,10.61C118.9,270.96,118.02,275.66,118.02,280.58z M174.34,306.17
						l-31.39-54.36c3.94-1.86,8.32-2.84,13.02-2.84c2.52,0,5.03,0.32,7.33,0.87l22.75,40.14
						C183.97,296.55,179.82,302.24,174.34,306.17z M145.91,310.44l-20.89-36.21c1.53-7.32,5.47-13.78,11.16-18.27l31.28,53.93
						c-3.5,1.42-7.43,2.18-11.48,2.18C152.48,312.08,149.08,311.54,145.91,310.44z"/>
					<path fill="#242424" d="M163.3,249.85l22.75,40.14c0.99-2.96,1.42-6.13,1.42-9.41C187.47,265.71,177.19,253.13,163.3,249.85z"
						/>
					<path fill="#242424" d="M136.18,255.97l31.28,53.93c2.52-0.88,4.82-2.19,6.89-3.72l-31.39-54.36
						C140.44,252.91,138.26,254.33,136.18,255.97z"/>
					<path fill="#242424" d="M124.36,280.58c0,13.89,8.97,25.7,21.55,29.86l-20.89-36.21C124.58,276.21,124.36,278.4,124.36,280.58z
						"/>
				</g>
				<path fill="#3F3F3F" d="M142.96,251.82l31.39,54.36c5.47-3.93,9.62-9.62,11.7-16.18l-22.75-40.14c-2.3-0.55-4.82-0.87-7.33-0.87
					C151.27,248.98,146.89,249.96,142.96,251.82z"/>
				<path fill="#3F3F3F" d="M125.02,274.24l20.89,36.21c3.17,1.09,6.56,1.64,10.06,1.64c4.05,0,7.99-0.76,11.48-2.18l-31.28-53.93
					C130.49,260.46,126.55,266.91,125.02,274.24z"/>
			</g>
			<polygon fill="#242424" points="359.41,286.96 291.51,288.74 291.33,292.34 359.73,292.19 			"/>
			<path fill="#070707" d="M316.99,285.73c0-0.05-1.12,10.43-1.12,10.43h-25.09v-10.43H316.99z"/>
			<path fill="#772215" d="M163.24,381.97c1.92,9.73,8.13,22.23,27.43,24.7c32.42,4.16,47.97-27.52,49.79-33.5
				c0,0-20.45,16.72-44.63,15.18C176.55,387.16,168.26,385.02,163.24,381.97z"/>
			<path fill="#FFFFFF" d="M163.24,381.94c5.21,3.05,13.82,5.19,33.85,6.38c25.12,1.53,46.38-15.2,46.38-15.2
				s-50.32,10.75-80.79-3.09C162.69,370.03,161.92,375.35,163.24,381.94z"/>
			<path fill="#FAA95F" d="M169.01,438.82c1,2.81,1.61,4.42,1.61,4.42s11.74,24.79,64.52,4.32c31.71-12.34,76.87-50.48,107.67-78.88
				c23.88-21.88,37.13-52.88,36.83-85.3c-0.2-25.09-2.31-55.99-9.13-85.3c-2.41-1.3-3.71-2.11-3.71-2.11
				c3.31,23.38-3.52,131.26-50.88,165.58c-47.47,34.22-78.57,108.67-129.15,87C180.25,445.75,174.33,442.44,169.01,438.82z"/>
			<path fill="#BB4E26" d="M346.66,225.93c8.42,36.85,16.13,84.8,18.12,93.66c3.22,14.25,23.01,1.05,26.16-2.16
				c61.52-62.51,66.12-96.6,56.98-121.43c0,0,0,0-0.06,0C445.58,194.67,389.11,163.19,346.66,225.93z"/>
			<path fill="#BB4E26" d="M162.54,185.47l35.97-41.01c0,0,96.38,23.5,125.81,34.48c19.01-5.04,38.24-15.41,17.29-35.75
				c-35.14-34.2-83.97-33.25-83.97-33.25s62.97-31.15,104.64,13.19c7.09,7.54,11.69,13.47,14.47,18.18
				c5.37-6.6,11.14-14.14,15.02-20.78c-2.72-7.1-6.49-15.24-11.59-24.66c-47.27-87.68-194.2-27.16-215.7-1.11
				C143.03,120.85,162.54,185.47,162.54,185.47z"/>
			<g>
				<g>
					<path fill="#F89B42" d="M360.65,281.77c0,0,16.97-23.02,36.69-3.57c22.31,22.01-15.67,69.23-38.85,69.55
						c-23.19,0.32-8.9-19.91-8.9-19.91L360.65,281.77z"/>
				</g>
				<path fill="#EB7260" d="M366.08,327.98c0,0,30.34-12.06,25.76-30.35s-27.37-3.66-29.55,2
					C362.29,299.62,382.67,299.94,366.08,327.98z"/>
			</g>
			
				<linearGradient id="SVGID_3_" gradientUnits="userSpaceOnUse" x1="312.1872" y1="300.4742" x2="321.8862" y2="343.7733" gradientTransform="matrix(-1 0 0 1 511.7922 0)">
				<stop  offset="0.127" style="stop-color:#FCBA81"/>
				<stop  offset="0.4471" style="stop-color:#FAAE82"/>
				<stop  offset="0.9108" style="stop-color:#F69782"/>
			</linearGradient>
			<path fill="url(#SVGID_3_)" d="M172.12,323.27c0.18-0.23,0.31-0.46,0.49-0.64c0.29-0.32,0.61-0.55,0.95-0.68l-0.25-0.28
				c0,0,22.03-33.42,24.38-35.14c2.34-1.71,6.34-0.53,5.27,2.48c-0.48,1.35-16.56,38.78-5.52,45.51c10-4.67,14.63,2.92,14.63,2.92
				c6.78,4.24-6.15,18.08-9.22,12.39c-3.12-5.65-8.7-4.21-8.7-4.21c-16.86,3.61-25.57-5.61-25.12-13.39
				C169.19,329.31,170.52,326.16,172.12,323.27z"/>
			<path fill="#9EBAB0" d="M534.86,756.05c-7.55-88-74.54-188.49-98.11-227.91l14.47-8.37c0,0,74.3,129.94,100.82,236.29H534.86z"/>
			<path fill="#8B381D" d="M341.61,143.18c20.95,20.34,1.72,30.71-17.29,35.75c3.66,1.38,6.26,2.55,7.54,3.43
				c4.48,3.11,9.75,21.34,14.8,43.57c42.45-62.75,98.93-31.26,101.2-29.93c-4.99-13.8-11.31-28.94-19.55-38.96
				c-10.59-12.87-19.36-11.75-30.88-9.36c0.38-6.6-1.17-15.41-5.65-27.16c-3.88,6.65-9.64,14.19-15.02,20.78
				c-2.78-4.71-7.38-10.64-14.47-18.18c-41.68-44.34-104.64-13.19-104.64-13.19S306.47,108.99,341.61,143.18z"/>
			<path fill="#8B381D" d="M283.75,162.61c1.42,1.37-74.98-24.73-85.24-18.16s-35.97,41.01-35.97,41.01s2.37-73.7,23.51-70
				C207.19,119.16,240.68,121.08,283.75,162.61z"/>
			<path opacity="0.5" fill="#FFFFFF" d="M176.46,338.86c-0.6,1.53,1.5,3.8,4.71,5.08c3.21,1.27,6.3,1.06,6.91-0.47
				c0.6-1.53-1.5-3.8-4.72-5.08C180.16,337.11,177.07,337.32,176.46,338.86z"/>
		</g>
	</g>
</g>
</svg>
