<?xml version="1.0" encoding="utf-8"?>
<!-- Generator: Adobe Illustrator 25.2.3, SVG Export Plug-In . SVG Version: 6.00 Build 0)  -->
<svg version="1.1" id="Layer_1" xmlns="http://www.w3.org/2000/svg" xmlns:xlink="http://www.w3.org/1999/xlink" x="0px" y="0px"
	 viewBox="0 0 576 576" enable-background="new 0 0 576 576" xml:space="preserve">
<g>
	<g>
		<defs>
			<path id="SVGID_1_" d="M576,288c0,159.05-128.94,288-288,288C128.94,576,0,447.06,0,288C0,128.94,128.94,0,288,0
				C447.06,0,576,128.94,576,288z"/>
		</defs>
		<use xlink:href="#SVGID_1_"  overflow="visible" fill="#F9E3D9"/>
		<clipPath id="SVGID_2_">
			<use xlink:href="#SVGID_1_"  overflow="visible"/>
		</clipPath>
		<g clip-path="url(#SVGID_2_)">
			<path fill="#158F45" d="M379.81,574.39h41.4c-18.7-56.98-42.38-99.05-58.93-125.26c-3.18-0.48-35.48-3.67-35.48-3.67l-3.79,21.5
				c1.51,2.41,3.09,4.92,4.75,7.55C342.78,498.3,362.99,530.34,379.81,574.39z"/>
			<g>
				<path fill="#8AC8ED" d="M167.09,574.39c18.49-16.32,42.72-34.94,70.7-49.86c13.17-7.02,18.16-23.4,11.13-36.57
					c-7.03-13.17-23.4-18.16-36.57-11.13c-40.11,21.39-73.12,48.96-95.24,70.07c-15.34-38.53-28.78-73.02-31.21-80.71
					c-2.51-12.32-13.42-21.6-26.48-21.6c-14.93,0-27.03,12.1-27.03,27.03c0,5.78,0,9.22,37.46,102.77H167.09z"/>
				<path fill="#63B7E6" d="M167.09,574.39c18.49-16.32,42.72-34.94,70.7-49.86c2.08-1.11,3.93-2.47,5.59-4
					c-3.68-11.71-7.26-23.33-7.26-23.33l-41.85,38.36c0,0-24.02,20.27-45.6,38.84H167.09z"/>
				<path fill="#63B7E6" d="M86.71,574.39l-34.28-84.75l-16.44-2.64c4.26,12.49,13.56,36.72,33.85,87.4H86.71z"/>
				<path fill="#8AC8ED" d="M361.95,574.39c-0.27-29.54,0.46-40.31,1.21-51.4c0.12-1.85,0.25-3.73,0.38-5.68
					c2.6-40.36-28.01-75.19-68.37-77.8c-40.37-2.62-75.19,28-77.8,68.37c-0.12,1.77-0.23,3.47-0.35,5.16
					c-0.97,14.22-1.86,27.31-1.56,61.36H361.95z"/>
				<path fill="#8AC8ED" d="M579.48,326.89c-13.01-7.32-19.16,3.55-26.47,16.56l-47.8,85.03l-166.18,29.77
					c-14.69,2.63-24.47,16.68-21.84,31.37c2.34,13.09,13.73,22.27,26.57,22.27c1.59,0,3.18-0.14,4.8-0.42l175.24-31.39
					c3.03-0.54,7.37-1.81,9.91-3.23c6-2.09,9.74-6.07,13.1-12.03l53.33-94.87C607.44,356.92,592.49,334.2,579.48,326.89z"/>
				<path fill="#63B7E6" d="M535.55,454.46c-1.7,3.11-4.6,5.36-8.02,6.28c-3.3,0.87-8.67,2.34-17.37,4.78
					c-21.8,6.1-164.78,32.26-164.78,32.26l-1.04,14.08c1.39-0.03,2.8-0.15,4.21-0.4l175.24-31.39c3.03-0.54,5.83-1.59,8.37-3.01
					c5.99-2.1,11.28-6.29,14.63-12.26l53.33-94.87c4.41-7.85,12.49-16.71,8.99-24.3l-13.52-0.44L535.55,454.46z"/>
				<defs>
					<filter id="Adobe_OpacityMaskFilter" filterUnits="userSpaceOnUse" x="29.45" y="350.81" width="577.57" height="223.57">
						<feColorMatrix  type="matrix" values="1 0 0 0 0  0 1 0 0 0  0 0 1 0 0  0 0 0 1 0"/>
					</filter>
				</defs>
				<mask maskUnits="userSpaceOnUse" x="29.45" y="350.81" width="577.57" height="223.57" id="SVGID_3_">
					<g filter="url(#Adobe_OpacityMaskFilter)">
						<path fill="#FFFFFF" d="M579.48,326.89c-13.01-7.32-19.16,3.55-26.47,16.56l-47.8,85.03l-166.18,29.77
							c-14.69,2.63-24.47,16.68-21.84,31.37c2.34,13.09,13.73,22.27,26.57,22.27c1.59,0,3.18-0.14,4.8-0.42l175.24-31.39
							c3.03-0.54,7.37-1.81,9.91-3.23c6-2.09,9.74-6.07,13.1-12.03l53.33-94.87C607.44,356.92,592.49,334.2,579.48,326.89z"/>
						<g>
							<path fill="#FFFFFF" d="M291.28,752.35c-39.31,0-71.82-31.19-73.15-70.78c-4.15-123.8-2.74-144.54-1.1-168.54
								c0.11-1.69,0.23-3.39,0.35-5.16c2.6-40.37,37.43-70.99,77.8-68.37c40.37,2.6,70.98,37.44,68.37,77.8
								c-0.13,1.95-0.25,3.82-0.38,5.68c-1.31,19.19-2.55,37.32,1.36,153.67c1.36,40.43-30.32,74.3-70.73,75.66
								C292.94,752.34,292.11,752.35,291.28,752.35z"/>
						</g>
						<path fill="#FFFFFF" d="M248.92,487.96c-7.03-13.17-23.4-18.16-36.57-11.13c-40.11,21.39-73.12,48.96-95.24,70.07
							c-15.34-38.53-28.78-73.02-31.21-80.71c-2.51-12.32-13.42-21.6-26.48-21.6c-14.93,0-27.03,12.1-27.03,27.03
							c0,6.38,0,9.89,50.2,134.49v0.01c0.1,0.23,0.21,0.46,0.31,0.69c0.22,0.5,0.44,1,0.69,1.48c0.14,0.28,0.3,0.56,0.46,0.84
							c0.25,0.45,0.5,0.89,0.78,1.32c0.15,0.24,0.31,0.48,0.47,0.72c0.38,0.56,0.78,1.1,1.19,1.63c0.07,0.09,0.14,0.19,0.22,0.28
							c0.54,0.65,1.1,1.28,1.68,1.87c0.09,0.09,0.19,0.18,0.28,0.27c0.53,0.52,1.08,1.02,1.64,1.49c0.07,0.07,0.14,0.13,0.21,0.19
							c0.06,0.05,0.12,0.09,0.18,0.14c0.46,0.38,0.94,0.73,1.42,1.07c0.15,0.1,0.29,0.21,0.43,0.31c0.59,0.4,1.2,0.78,1.83,1.14
							c0.27,0.15,0.54,0.27,0.81,0.42c0.36,0.18,0.72,0.38,1.09,0.55c0.35,0.16,0.72,0.31,1.08,0.46c0.29,0.12,0.59,0.25,0.89,0.36
							c0.37,0.14,0.74,0.26,1.1,0.38c0.32,0.1,0.64,0.2,0.96,0.29c0.35,0.1,0.7,0.2,1.04,0.28c0.39,0.09,0.77,0.17,1.16,0.25
							c0.29,0.05,0.58,0.11,0.87,0.16c0.53,0.08,1.07,0.14,1.61,0.2c0.15,0.01,0.3,0.04,0.46,0.05c0.73,0.06,1.47,0.09,2.21,0.09
							c0.93,0,1.87-0.06,2.81-0.16c0.16-0.02,0.32-0.05,0.48-0.07c0.74-0.09,1.47-0.2,2.21-0.36c0.32-0.07,0.63-0.15,0.95-0.23
							c0.55-0.14,1.11-0.29,1.66-0.46c0.4-0.12,0.8-0.27,1.2-0.42c0.25-0.09,0.52-0.16,0.76-0.27c0.2-0.08,0.39-0.18,0.59-0.27
							c0.44-0.2,0.88-0.4,1.32-0.61c0.43-0.22,0.86-0.44,1.28-0.69c0.39-0.22,0.78-0.44,1.16-0.68c0.48-0.3,0.93-0.62,1.38-0.95
							c0.3-0.22,0.61-0.43,0.9-0.66c0.57-0.45,1.12-0.93,1.64-1.42c0.16-0.15,0.33-0.29,0.49-0.44c0.72-0.7,1.4-1.44,2.04-2.21
							c0.51-0.62,45.03-54.37,109.22-88.6C250.95,517.5,255.94,501.13,248.92,487.96z"/>
					</g>
				</mask>
				<g mask="url(#SVGID_3_)">
					<path fill="#23A1DB" d="M312.19,574.39c-17.78-0.91-34.18-0.75-48.84,0H312.19z"/>
					<path fill="#23A1DB" d="M384.96,558.07c-105.38-23.06-189.15-0.36-189.97-0.12l-6.11-21.83c3.61-1.01,89.75-24.51,200.93-0.19
						L384.96,558.07z"/>
					<path fill="#23A1DB" d="M364.57,505.29c-95.6-16.23-168.8,3.62-169.58,3.83l-6.11-21.83c3.13-0.87,68.2-18.63,157.82-7.54
						C360.53,481.46,371.26,506.43,364.57,505.29z"/>
					<path fill="#23A1DB" d="M401.98,521.73l-24.27-2.59c3.13-29.31,0.35-61.77-6.32-73.91l21.39-11.77
						C403.56,453.06,405.17,491.92,401.98,521.73z"/>
					<path fill="#23A1DB" d="M450.81,509.53l-24.27-2.59c3.13-29.31,0.35-61.77-6.32-73.91l21.39-11.77
						C452.38,440.85,453.99,479.71,450.81,509.53z"/>
					<path fill="#23A1DB" d="M504.86,502.56l-24.27-2.6c3.13-29.31,0.35-61.77-6.32-73.91l21.39-11.77
						C506.44,433.88,508.05,472.74,504.86,502.56z"/>
					<path fill="#23A1DB" d="M565.75,456.86c-21.32-20.36-48.74-37.96-62.42-40.07l3.72-24.13c22.1,3.41,53.88,25.84,75.56,46.55
						L565.75,456.86z"/>
					<path fill="#23A1DB" d="M590.16,415.01c-21.32-20.36-48.73-37.96-62.42-40.07l3.72-24.12c22.11,3.41,53.88,25.83,75.56,46.55
						L590.16,415.01z"/>
					<path fill="#23A1DB" d="M206.51,566.42c-21.72-23.16-34.66-56.46-33.75-86.89l24.4,0.73c-0.71,23.84,9.95,51.11,27.16,69.46
						L206.51,566.42z"/>
					<path fill="#23A1DB" d="M176.97,574.39l0.27-0.25c-17.2-18.35-27.87-45.61-27.16-69.46l-24.4-0.73
						c-0.71,23.81,7.07,49.35,20.9,70.45H176.97z"/>
					<path fill="#23A1DB" d="M83.86,574.39c10.04-12.82,22.99-23.42,36.64-29.42l-9.83-22.35c-22.69,9.98-43.15,29.06-56.22,51.77
						H83.86z"/>
					<path fill="#23A1DB" d="M50.68,540.7l-21.22-12.05c15.68-27.62,43.64-49.85,72.97-58l6.55,23.52
						C85.98,500.56,63.11,518.83,50.68,540.7z"/>
				</g>
				<g>
					<path fill="#F4F4F4" d="M617.39,294.34c-5.55,0-10.58-3.82-11.88-9.46l-4.36-18.89c-0.76-3.3-0.12-6.77,1.78-9.58
						c1.9-2.81,4.88-4.7,8.23-5.22c10.37-1.62,39.79-7.11,51.19-13.02c5.98-3.1,13.35-0.76,16.45,5.22
						c3.11,5.98,0.77,13.35-5.21,16.45c-11.43,5.93-32.15,10.59-45.76,13.2l1.46,6.35c1.52,6.57-2.58,13.12-9.14,14.64
						C619.23,294.24,618.3,294.34,617.39,294.34z"/>
					<path fill="#F4F4F4" d="M655.77,292.59c0,22.79-7.68,36.04-34,36.04s-22.06,3.46-41.85-7.85
						c-18.31-10.46-19.51-31.07-16.36-40.61c7.08-21.46,26.33-28.84,44.55-28.84c16.12,0,53.87,13.13,39,17.54
						C632.23,273.27,641.38,285.91,655.77,292.59z"/>
					<path fill="#E6E6E5" d="M679.54,245.16c-3.91,3.49-11.41,8.9-22.91,11.98c-17.87,4.8-29.64,10.03-26.15,17
						c2.77,5.55,11.59,11.62,17.5,13.89c-9.29-6.81-12.82-15.64-0.89-19.17c0.16-0.05,0.27-0.1,0.42-0.15
						c9.69-2.43,19.44-5.44,26.07-8.88C679,257.03,681.41,250.76,679.54,245.16z"/>
					<path fill="#F4F4F4" d="M673.21,319.91c-1.08,0-2.18-0.14-3.27-0.45l-57.54-15.98c-6.49-1.8-10.3-8.53-8.5-15.02
						c1.81-6.49,8.55-10.3,15.03-8.5l47.12,13.09l12.44-30.11c2.57-6.23,9.71-9.19,15.94-6.62c6.23,2.57,9.2,9.71,6.62,15.94
						l-16.56,40.11C682.56,317.03,678.04,319.91,673.21,319.91z"/>
					<path fill="#E6E6E5" d="M694.42,256.32c-0.18-0.08-0.37-0.14-0.56-0.2c1.52,7.71-2.32,19.66-6.71,29.79
						c-5.67,13.08-22.24,14.82-34.44,13.52c-12.2-1.31-30.08-1.31-30.08-1.31l31.68,17.01l15.62,4.34c1.09,0.31,2.19,0.45,3.27,0.45
						c4.83,0,9.35-2.88,11.28-7.55l16.56-40.11C703.62,266.03,700.66,258.89,694.42,256.32z"/>
					<path fill="#F4F4F4" d="M652.85,336.48c-1.79,0-3.6-0.39-5.3-1.21l-42.14-20.34c-6.07-2.93-8.62-10.23-5.68-16.3
						c2.93-6.07,10.23-8.62,16.3-5.69l32.87,15.87l15.82-22.14c3.92-5.49,11.54-6.75,17.03-2.84c5.49,3.92,6.75,11.55,2.84,17.03
						l-21.8,30.52C660.43,334.66,656.69,336.48,652.85,336.48z"/>
					<path fill="#E6E6E5" d="M681.75,283.82c-0.05-0.04-0.11-0.07-0.16-0.1c-2.28,8.13-9.42,20.59-17.97,30.09
						c-11.77,13.08-58.85-3.49-58.85-3.49l44.64,25.64c1.14,0.34,2.3,0.52,3.45,0.52c3.84,0,7.58-1.81,9.94-5.11l21.8-30.52
						C688.5,295.37,687.24,287.74,681.75,283.82z"/>
					<path fill="#E6E6E5" d="M561.9,290.56c0.87,9.01-9.01,28.19-9.01,28.19L602,341.7v-12.79l-27.9-19.47L561.9,290.56z"/>
					<path fill="#FFFFFF" d="M669.28,292.66c4.61-7.13,7.29-9.4,10.19-10.12c-5.16-2.23-11.35-0.64-14.75,4.12L648.9,308.8
						l-3.88-1.87c-1.03,4.61-0.48,7.89,3.55,7.3C660.56,312.5,662.52,303.13,669.28,292.66z"/>
					<path fill="#F4F4F4" d="M618.29,364.81c-0.76,0-1.53-0.07-2.32-0.22c-36.39-7-67.01-30.07-68.3-31.05
						c-5.36-4.08-6.4-11.74-2.32-17.11c4.09-5.36,11.74-6.4,17.1-2.32c0.5,0.38,27.61,20.63,58.13,26.5
						c6.62,1.27,10.95,7.67,9.68,14.29C629.14,360.75,624.02,364.81,618.29,364.81z"/>
					<path fill="#F4F4F4" d="M624.37,345.48c-2,0-4.01-0.49-5.87-1.51l-34.87-19.18c-5.91-3.25-8.07-10.67-4.82-16.58
						c3.25-5.91,10.68-8.06,16.58-4.82l25.33,13.93l13.46-19.01c3.9-5.5,11.51-6.8,17.01-2.9c5.5,3.9,6.81,11.51,2.9,17.01
						l-19.76,27.9C631.98,343.67,628.22,345.48,624.37,345.48z"/>
					<path fill="#E6E6E5" d="M655.39,300.66c0.08-0.79-6.5-8.09-7.04-6.04c-1.81,6.85-8.91,16.76-13.94,26.15
						c-6.54,12.21-28.34,8.29-40.11,0c-10.63-7.48-26.21-17.14-31.38-38.21c-2.17,10.06,0.01,27.82,16.02,37.62
						c1.08,1.87,2.65,3.49,4.68,4.6l34.87,19.18c1.86,1.02,3.88,1.51,5.87,1.51c3.85,0,7.61-1.81,9.97-5.15l19.76-27.9
						C656.63,308.87,656.96,304.42,655.39,300.66z"/>
					<path fill="#FFFFFF" d="M635.71,303.78c3.22-4.93,5.74-8.37,8.05-10.59c-3.69,0.11-7.28,1.89-9.59,5.13l-13.46,19.01
						l-7.07-3.89c0.26,3.32,1.1,5.69,2.89,6.03C623.51,320.78,629.17,313.81,635.71,303.78z"/>
					<path fill="#FFFFFF" d="M681.92,270.21c2.84-5.85,5.82-12.41,8.71-14.78c-5.1-0.36-10.08,2.53-12.14,7.51l-6.55,15.87
						C675.11,277.65,679.56,275.08,681.92,270.21z"/>
					<path fill="#E6E6E5" d="M618.49,276.1c0,0-5.67,2.62-13.73,2.4c-8.07-0.22-19.83-6.1-19.83-6.1s9.59,5.45,14.6,14.38
						c5.01,8.94,6.76,14.39,6.76,14.39S613.26,280.24,618.49,276.1z"/>
					<path fill="#E6E6E5" d="M629.27,347.34c-1.63,5.05-6.32,8.46-11.57,8.46c-0.76,0-1.53-0.07-2.32-0.22
						c-36.39-7-67.01-30.06-68.3-31.04c-1.61-1.23-2.81-2.77-3.62-4.48c-1.56,4.8-0.03,10.26,4.2,13.48
						c1.29,0.98,31.91,24.05,68.3,31.05c0.78,0.15,1.55,0.22,2.32,0.22c5.74,0,10.85-4.07,11.98-9.9
						C630.78,352.24,630.37,349.61,629.27,347.34z"/>
				</g>
				<g>
					<path fill="#F4F4F4" d="M29.34,432.09c5.55,0,10.58-3.82,11.88-9.46l4.36-18.89c0.76-3.3,0.11-6.77-1.78-9.58
						c-1.91-2.81-4.89-4.71-8.24-5.22c-10.37-1.62-39.79-7.11-51.19-13.02c-5.98-3.1-13.35-0.77-16.45,5.22
						c-3.1,5.98-0.76,13.35,5.22,16.45c11.43,5.93,32.15,10.59,45.76,13.2l-1.47,6.35c-1.51,6.57,2.58,13.12,9.15,14.64
						C27.51,431.99,28.44,432.09,29.34,432.09z"/>
					<path fill="#F4F4F4" d="M-9.03,430.35c0,22.79,7.68,36.03,34,36.03c26.32,0,22.06,3.47,41.85-7.84
						c18.31-10.46,19.51-31.07,16.36-40.61c-7.08-21.46-26.33-28.84-44.55-28.84c-16.12,0-53.87,13.13-39,17.54
						C14.52,411.02,5.36,423.66-9.03,430.35z"/>
					<path fill="#E6E6E5" d="M-32.8,382.91c3.91,3.48,11.41,8.9,22.9,11.98c17.88,4.8,29.64,10.02,26.16,17
						c-2.77,5.55-11.59,11.62-17.51,13.89c9.29-6.81,12.82-15.64,0.89-19.17c-0.16-0.05-0.27-0.1-0.42-0.15
						c-9.68-2.43-19.44-5.44-26.07-8.88C-32.25,394.78-34.67,388.51-32.8,382.91z"/>
					<path fill="#F4F4F4" d="M-26.47,457.67c1.08,0,2.19-0.14,3.27-0.45l57.54-15.98c6.5-1.8,10.3-8.53,8.5-15.02
						c-1.81-6.49-8.54-10.3-15.03-8.5l-47.12,13.09l-12.44-30.11c-2.57-6.23-9.7-9.2-15.94-6.62c-6.23,2.57-9.2,9.71-6.62,15.94
						l16.56,40.11C-35.82,454.78-31.3,457.67-26.47,457.67z"/>
					<path fill="#E6E6E5" d="M-47.69,394.07c0.19-0.08,0.38-0.14,0.56-0.2c-1.52,7.71,2.32,19.66,6.72,29.79
						c5.67,13.07,22.23,14.82,34.43,13.51c12.2-1.31,30.08-1.31,30.08-1.31l-31.67,17.01l-15.63,4.34
						c-1.08,0.31-2.19,0.45-3.27,0.45c-4.83,0-9.35-2.89-11.28-7.55l-16.56-40.11C-56.89,403.78-53.92,396.64-47.69,394.07z"/>
					<path fill="#F4F4F4" d="M-6.12,474.23c1.79,0,3.6-0.4,5.3-1.21l42.14-20.34c6.07-2.93,8.62-10.23,5.68-16.3
						c-2.93-6.06-10.23-8.62-16.3-5.68l-32.88,15.87l-15.82-22.14c-3.92-5.49-11.54-6.75-17.03-2.84
						c-5.48,3.92-6.75,11.55-2.84,17.03l21.8,30.51C-13.7,472.42-9.95,474.23-6.12,474.23z"/>
					<path fill="#E6E6E5" d="M-35.01,421.58c0.06-0.04,0.11-0.07,0.17-0.1c2.28,8.13,9.42,20.59,17.97,30.09
						c11.77,13.08,58.86-3.49,58.86-3.49l-44.64,25.64c-1.14,0.34-2.3,0.52-3.45,0.52c-3.84,0-7.58-1.81-9.94-5.12l-21.8-30.51
						C-41.77,433.12-40.5,425.49-35.01,421.58z"/>
					<path fill="#E6E6E5" d="M84.85,428.31c-0.87,9.01,9.01,28.19,9.01,28.19l-49.11,22.96v-12.79l27.89-19.48L84.85,428.31z"/>
					<path fill="#FFFFFF" d="M-22.54,430.42c-4.61-7.13-7.29-9.4-10.19-10.12c5.16-2.23,11.35-0.65,14.74,4.12l15.82,22.14
						l3.88-1.87c1.03,4.61,0.48,7.9-3.54,7.31C-13.82,450.25-15.79,440.88-22.54,430.42z"/>
					<path fill="#F4F4F4" d="M28.45,502.57c0.76,0,1.54-0.07,2.32-0.22c36.39-7,67.01-30.07,68.3-31.05
						c5.36-4.09,6.4-11.74,2.32-17.11c-4.08-5.36-11.73-6.4-17.1-2.32c-0.5,0.38-27.61,20.63-58.13,26.5
						c-6.62,1.27-10.96,7.68-9.69,14.29C17.6,498.5,22.71,502.57,28.45,502.57z"/>
					<path fill="#F4F4F4" d="M22.37,483.24c2,0,4.01-0.49,5.87-1.51l34.88-19.18c5.91-3.24,8.06-10.66,4.81-16.57
						c-3.25-5.91-10.68-8.07-16.58-4.82l-25.33,13.93l-13.46-19.01c-3.9-5.5-11.51-6.8-17.01-2.9c-5.5,3.9-6.8,11.51-2.9,17.01
						l19.76,27.9C14.76,481.42,18.52,483.24,22.37,483.24z"/>
					<path fill="#E6E6E5" d="M-8.65,438.41c-0.08-0.78,6.49-8.09,7.04-6.04c1.81,6.85,8.91,16.77,13.95,26.16
						c6.54,12.2,28.33,8.28,40.11,0c10.63-7.48,26.2-17.14,31.37-38.21c2.18,10.06-0.01,27.83-16.02,37.63
						c-1.08,1.87-2.65,3.49-4.67,4.59l-34.88,19.18c-1.86,1.02-3.88,1.51-5.87,1.51c-3.84,0-7.61-1.81-9.97-5.15l-19.76-27.9
						C-9.89,446.62-10.22,442.17-8.65,438.41z"/>
					<path fill="#FFFFFF" d="M11.02,441.53c-3.22-4.93-5.74-8.37-8.05-10.59c3.69,0.12,7.29,1.89,9.59,5.14l13.46,19.01l7.07-3.9
						c-0.26,3.33-1.1,5.7-2.89,6.04C23.23,458.54,17.56,451.56,11.02,441.53z"/>
					<path fill="#FFFFFF" d="M-35.18,407.97c-2.83-5.85-5.82-12.42-8.71-14.78c5.1-0.37,10.08,2.52,12.14,7.51l6.55,15.87
						C-28.37,415.4-32.82,412.84-35.18,407.97z"/>
					<path fill="#E6E6E5" d="M28.25,413.85c0,0,5.67,2.61,13.73,2.4c8.06-0.22,19.83-6.1,19.83-6.1s-9.59,5.45-14.61,14.38
						c-5.01,8.94-6.75,14.38-6.75,14.38S33.47,417.99,28.25,413.85z"/>
					<path fill="#E6E6E5" d="M17.47,485.09c1.63,5.05,6.32,8.47,11.57,8.47c0.76,0,1.54-0.07,2.32-0.22
						c36.39-7,67.01-30.07,68.3-31.05c1.61-1.22,2.81-2.77,3.62-4.47c1.56,4.8,0.04,10.25-4.2,13.48
						c-1.29,0.98-31.91,24.04-68.3,31.05c-0.78,0.15-1.55,0.22-2.32,0.22c-5.74,0-10.85-4.07-11.98-9.91
						C15.96,489.99,16.38,487.36,17.47,485.09z"/>
				</g>
				<path opacity="0.4" fill="#3790B6" d="M248.54,574.39c3.18-57.33,13.67-118.64,15.7-130.18c-8.03,3.09-15.42,7.54-21.84,13.13
					l-9.48,65.72l-7.82,51.33H248.54z"/>
				<path opacity="0.4" fill="#3790B6" d="M361.95,574.39c-0.27-29.54,0.46-40.31,1.21-51.4c0.12-1.85,0.25-3.73,0.38-5.68
					c2.02-31.24-15.88-59.16-42.78-71.39c-2.24,13.85-15.15,75.88-50.97,128.47H361.95z"/>
			</g>
			<g>
				<path fill="#24B34B" d="M343.75,574.39c1.64-34.98,6.78-77.08,18.52-125.26l-37.27-5.6c-12.36,50.71-17.8,94.51-19.55,130.86
					H343.75z"/>
				<path fill="#24B34B" d="M237.17,574.39c7.92-70.51,27.15-131.3,27.42-132.13c0,0-23.25,3.49-43.92,16.85
					c-6.92,25.26-17.06,67.77-22.12,115.28H237.17z"/>
			</g>
			<g>
				<g>
					<path fill="#431D59" d="M175.07,245.66c0-18.22-14.76-32.99-32.99-32.99c-18.22,0-32.99,14.77-32.99,32.99
						c0,18.22,14.77,32.99,32.99,32.99C160.31,278.64,175.07,263.87,175.07,245.66z"/>
					<circle fill="#682B84" cx="132.8" cy="269.63" r="20.78"/>
					<path fill="#431D59" d="M417.74,278.93c0-15.41-12.49-27.9-27.89-27.9c-15.41,0-27.9,12.49-27.9,27.9
						c0,15.41,12.49,27.9,27.9,27.9C405.25,306.83,417.74,294.34,417.74,278.93z"/>
					<path fill="#431D59" d="M417.74,312.5c0-13.73,11.13-24.85,24.85-24.85c13.72,0,24.85,11.12,24.85,24.85
						s-11.13,24.85-24.85,24.85C428.87,337.35,417.74,326.22,417.74,312.5z"/>
					<circle fill="#431D59" cx="419.06" cy="273.27" r="30.08"/>
					<circle fill="#431D59" cx="399.87" cy="335.17" r="37.93"/>
					<path fill="#431D59" d="M348.87,362.63c0-12.04,9.76-21.8,21.8-21.8c12.03,0,21.79,9.76,21.79,21.8
						c0,12.03-9.76,21.79-21.79,21.79C358.63,384.43,348.87,374.67,348.87,362.63z"/>
					<circle fill="#431D59" cx="158.8" cy="306.83" r="33.13"/>
					<path fill="#F0906B" d="M416.44,311.63c0,14.44-11.71,26.15-26.16,26.15c-14.44,0-26.15-11.71-26.15-26.15
						c0-14.45,11.71-26.16,26.15-26.16C404.73,285.47,416.44,297.18,416.44,311.63z"/>
				</g>
				<path fill="#F59C7E" d="M292.46,475.97c-10.76,0-20.13-7.97-21.58-18.93l-10.76-81.08c-1.58-11.94,6.81-22.9,18.74-24.47
					c11.94-1.58,22.89,6.81,24.47,18.74l10.76,81.08c1.59,11.93-6.81,22.89-18.74,24.47C294.38,475.92,293.41,475.97,292.46,475.97z
					"/>
				<path fill="#E07E60" d="M269.1,444.15c8.82-0.93,21.79-3.6,41.85-16.24l-7.6-57.68c-0.61-4.65-2.66-8.74-5.61-11.93
					l-36.89,22.99L269.1,444.15z"/>
				<path fill="#E07E60" d="M186.12,289.11c0,14.44-11.72,26.15-26.16,26.15s-26.16-11.71-26.16-26.15
					c0-14.45,11.72-26.16,26.16-26.16S186.12,274.66,186.12,289.11z"/>
				<path fill="#D36846" d="M394.25,294.84c-0.8-0.14-1.58-0.21-2.36-0.23c5.87,3.52,9.25,10.57,7.91,17.91
					c-1.56,8.56-8.99,14.5-17.17,14.21c1.64,0.98,3.45,1.7,5.43,2.06c9.08,1.66,17.82-4.59,19.53-13.97
					C409.3,305.44,403.33,296.49,394.25,294.84z"/>
				<path fill="#F8A17B" d="M381.13,301.6c-4.8,70.14-79.17,132.23-142.12,128.17c-38.23-2.47-59.74-19.97-73.23-58.42
					c-5.59-15.92-15.7-40.44-15.7-61.03c0-36.25,17.44-45.33,31.39-104.62c6.4-27.16,44.73-77.04,93.29-73.23
					C337.65,137.38,389.85,174.31,381.13,301.6z"/>
				<path fill="#F0906B" d="M239.02,429.77c62.95,4.06,137.31-58.03,142.12-128.17c0.31-4.56,0.54-9.01,0.7-13.34
					c-21.62-419.54,13.54,3.61-73.94,93.12c-54.27,55.53-103.4,26.9-115.08,13.95c-16.13-17.88-25.05-57.86-27.46-72.37
					c-2.32-13.95,1.34-56.04,4.75-79.44c-10.55,28.12-20.01,40.11-20.01,66.8c0,20.59,10.11,45.11,15.7,61.03
					C179.27,409.8,200.79,427.3,239.02,429.77z"/>
				<g>
					<path fill="#E57C5D" d="M282.61,169.51c0-17.09,13.86-30.95,30.96-30.95c17.09,0,30.95,13.86,30.95,30.95
						s-13.86,30.95-30.95,30.95C296.47,200.46,282.61,186.61,282.61,169.51z"/>
					<path fill="#E57C5D" d="M306.58,152.51c0,19.02-15.42,34.44-34.44,34.44c-19.02,0-34.43-15.42-34.43-34.44
						s15.42-34.44,34.43-34.44C291.17,118.07,306.58,133.49,306.58,152.51z"/>
					<path fill="#E57C5D" d="M156.19,176.49c0-15.89,12.88-28.78,28.78-28.78c15.89,0,28.77,12.88,28.77,28.78
						c0,15.89-12.88,28.77-28.77,28.77C169.07,205.26,156.19,192.38,156.19,176.49z"/>
					<circle fill="#E57C5D" cx="216.35" cy="152.51" r="32.26"/>
					<circle fill="#431D59" cx="272.58" cy="145.97" r="34.44"/>
					<path fill="#E57C5D" d="M193.83,219.36c0,14.2-11.52,25.71-25.72,25.71c-14.21,0-25.72-11.51-25.72-25.71
						c0-14.21,11.51-25.72,25.72-25.72C182.31,193.64,193.83,205.15,193.83,219.36z"/>
					<path fill="#431D59" d="M181.47,145.54c0-17.81,14.44-32.25,32.26-32.25s32.26,14.44,32.26,32.25
						c0,17.82-14.44,32.26-32.26,32.26S181.47,163.35,181.47,145.54z"/>
					<circle fill="#431D59" cx="162.15" cy="220.66" r="25.72"/>
					<path fill="#E57C5D" d="M321.55,201.62c0-17.33,14.05-31.39,31.39-31.39c17.33,0,31.39,14.05,31.39,31.39
						s-14.06,31.39-31.39,31.39C335.6,233.02,321.55,218.96,321.55,201.62z"/>
					<path fill="#431D59" d="M150.08,173.44c0-15.89,12.88-28.77,28.77-28.77c15.89,0,28.78,12.88,28.78,28.77
						s-12.88,28.78-28.78,28.78C162.97,202.21,150.08,189.33,150.08,173.44z"/>
					<path fill="#682B84" d="M251.22,106.74c0,24.31-19.71,44.03-44.03,44.03s-44.03-19.72-44.03-44.03
						c0-24.32,19.71-44.03,44.03-44.03S251.22,82.42,251.22,106.74z"/>
					<circle fill="#682B84" cx="265.17" cy="80.44" r="40.11"/>
					<circle fill="#682B84" cx="317.34" cy="77.1" r="27.46"/>
					<path fill="#682B84" d="M321.84,102.96c0,22.39,18.15,40.54,40.54,40.54c22.39,0,40.54-18.16,40.54-40.54
						c0-22.39-18.15-40.54-40.54-40.54C339.99,62.42,321.84,80.57,321.84,102.96z"/>
					<path fill="#682B84" d="M361.07,145.1c0,26.24,21.28,47.51,47.52,47.51s47.51-21.28,47.51-47.51
						c0-26.24-21.27-47.52-47.51-47.52S361.07,118.86,361.07,145.1z"/>
					<path fill="#682B84" d="M418.62,181.28c0,17.82,14.44,32.26,32.26,32.26c17.82,0,32.25-14.44,32.25-32.26
						c0-17.81-14.44-32.25-32.25-32.25C433.06,149.03,418.62,163.47,418.62,181.28z"/>
					<path fill="#682B84" d="M421.24,274.13c0-15.64,12.68-28.33,28.33-28.33c15.65,0,28.34,12.69,28.34,28.33
						c0,15.65-12.69,28.34-28.34,28.34C433.92,302.47,421.24,289.79,421.24,274.13z"/>
					<path fill="#682B84" d="M155.61,241.73c0,14.61-11.84,26.45-26.45,26.45s-26.45-11.85-26.45-26.45
						c0-14.61,11.84-26.45,26.45-26.45S155.61,227.12,155.61,241.73z"/>
					<path fill="#431D59" d="M354.97,252.77c0-19.26,15.62-34.87,34.88-34.87s34.87,15.61,34.87,34.87
						c0,19.27-15.61,34.88-34.87,34.88S354.97,272.04,354.97,252.77z"/>
					<circle fill="#431D59" cx="317.05" cy="161.67" r="31.82"/>
					<path fill="#431D59" d="M327.07,196.98c0-17.33,14.05-31.39,31.39-31.39c17.33,0,31.39,14.05,31.39,31.39
						s-14.06,31.39-31.39,31.39C341.12,228.36,327.07,214.31,327.07,196.98z"/>
					<path fill="#682B84" d="M397.69,220.96c0-22.39,18.15-40.54,40.54-40.54c22.39,0,40.54,18.15,40.54,40.54
						c0,22.39-18.15,40.54-40.54,40.54C415.85,261.49,397.69,243.34,397.69,220.96z"/>
					<path fill="#682B84" d="M356.71,117.63c0,19.74-16,35.75-35.75,35.75c-19.74,0-35.75-16.01-35.75-35.75
						c0-19.74,16-35.75,35.75-35.75C340.71,81.89,356.71,97.9,356.71,117.63z"/>
					<circle fill="#682B84" cx="259.94" cy="101.94" r="35.75"/>
					<path fill="#682B84" d="M395.08,155.56c0,14.69-11.9,26.6-26.59,26.6s-26.6-11.9-26.6-26.6c0-14.68,11.91-26.59,26.6-26.59
						S395.08,140.88,395.08,155.56z"/>
					<path fill="#682B84" d="M367.18,194.36c0,18.3,14.83,33.14,33.14,33.14c18.29,0,33.13-14.83,33.13-33.14
						c0-18.29-14.83-33.13-33.13-33.13C382.01,161.23,367.18,176.07,367.18,194.36z"/>
					<path fill="#682B84" d="M166.65,197.56c0,17.82-14.44,32.26-32.26,32.26c-17.81,0-32.25-14.44-32.25-32.26
						s14.44-32.26,32.25-32.26C152.21,165.3,166.65,179.74,166.65,197.56z"/>
					<path fill="#682B84" d="M191.06,145.69c0,20.14-16.33,36.47-36.48,36.47c-20.14,0-36.47-16.33-36.47-36.47
						c0-20.15,16.33-36.48,36.47-36.48C174.74,109.21,191.06,125.54,191.06,145.69z"/>
				</g>
				<g>
					<path opacity="0.39" fill="#FFFFFF" d="M183.22,282.71c-8.05,1.34-20.93,7.56-11.05,47.08c9.88,39.52,23.25,73.23,52.9,79.05
						c29.64,5.81,71.49-11.62,93-52.9c21.5-41.27,29.64-55.8,17.44-63.35c-12.21-7.56-37.2,22.09-57.54,33.13
						s-51.15,9.88-68.01-8.72C193.09,298.41,190.19,281.55,183.22,282.71z"/>
					<path fill="#562770" d="M198.54,218.46l-1.18-12.15c7.63-0.75,29.08-4.3,36.58-11.66l8.55,8.71
						C230.58,215.04,201.78,218.14,198.54,218.46z"/>
					<path fill="#562770" d="M323.08,223.28c-23.01,0-40.34-15.12-41.08-15.77l8.08-9.15c0.15,0.13,14.72,12.71,33,12.71
						c0.16,0,0.32,0,0.48,0l0.14,12.2C323.5,223.27,323.29,223.28,323.08,223.28z"/>
					<g>
						<path fill="#F0906B" d="M271.43,274.43c11.99,11.19,12.64,29.98,1.46,41.97s-29.97,12.64-41.96,1.46s-12.64-29.98-1.46-41.97
							C240.65,263.9,259.44,263.25,271.43,274.43z"/>
						<path fill="#EC2227" d="M264.45,269.21c11.99,11.18,12.64,29.97,1.46,41.96c-11.19,11.99-29.98,12.64-41.97,1.46
							s-12.64-29.97-1.46-41.96C233.68,258.67,252.46,258.02,264.45,269.21z"/>
						<path fill="#D71F27" d="M258.01,297.87c-11.19,11.99-29.97,12.64-41.97,1.46c-0.15-0.14-0.29-0.29-0.44-0.44
							c1.42,5.09,4.2,9.87,8.35,13.73c11.99,11.19,30.78,10.53,41.97-1.46c11.04-11.83,10.54-30.29-1.01-41.53
							C267.58,279.27,265.32,290.03,258.01,297.87z"/>
						<path fill="#EF4754" d="M249.03,276.75c0.22,5.05-3.68,9.31-8.73,9.54c-5.04,0.22-9.31-3.69-9.53-8.73
							c-0.22-5.05,3.68-9.31,8.73-9.54C244.54,267.8,248.8,271.71,249.03,276.75z"/>
					</g>
					<g>
						<path fill="#010101" d="M196.1,250.95c-1.45,12.44,3.84,23.27,11.81,24.19c7.98,0.93,15.6-8.4,17.05-20.84
							c1.44-12.43-3.85-23.27-11.82-24.19C205.18,229.19,197.55,238.52,196.1,250.95z"/>
						<path fill="#F3F3F3" d="M209.9,246.95c-0.52,4.43,1.37,8.28,4.21,8.61c2.83,0.33,5.55-2.99,6.07-7.41
							c0.51-4.43-1.37-8.29-4.21-8.62C213.13,239.2,210.42,242.52,209.9,246.95z"/>
						<path fill="#010101" d="M288.52,261.41c-1.45,12.44,3.84,23.27,11.82,24.19c7.97,0.93,15.6-8.4,17.05-20.84
							c1.44-12.43-3.84-23.27-11.82-24.19C297.6,239.65,289.96,248.98,288.52,261.41z"/>
						<path fill="#F3F3F3" d="M301.88,258.28c-0.51,4.43,1.37,8.28,4.21,8.62c2.84,0.33,5.55-2.99,6.07-7.42
							c0.52-4.42-1.37-8.28-4.2-8.62C305.12,250.53,302.39,253.86,301.88,258.28z"/>
					</g>
					<g>
						<path fill="#6E1E24" d="M179.73,294.91c0,0,10.46,56.96,19.18,77.59c6.07,14.37,36.72,52.04,84.86,0.29
							c46.5-49.99,47.66-71.79,47.66-71.79S246.86,396.05,179.73,294.91z"/>
						<path fill="#FFFFFF" d="M233.2,357.11c47.66,7.56,66.84-11.04,84.37-26.31c13.36-20.45,13.86-29.78,13.86-29.78
							s-84.57,95.03-151.7-6.1c0,0,2.13,11.58,5.26,26.18C193.97,336.52,209.42,353.34,233.2,357.11z"/>
						<path fill="#C1282D" d="M202.32,378.77c10.6,16.13,39.34,39.3,81.45-5.97c1.58-1.7,3.1-3.37,4.58-5.01
							C238.01,358.24,210.7,372.99,202.32,378.77z"/>
						<path fill="#E5E1E1" d="M331.43,301.02c0,0-84.57,95.03-151.7-6.1c0,0,0.8,4.33,2.13,11c8.67,15.41,27.27,38.98,60.64,41.31
							c40.67,2.84,74.79-25.86,86.1-36.67C331.25,304.1,331.43,301.02,331.43,301.02z"/>
					</g>
					<path fill="#EC2227" d="M369.21,301.6c0,6.59-6.77,11.92-15.11,11.92c-8.35,0-15.12-5.33-15.12-11.92
						c0-6.58,6.77-11.91,15.12-11.91C362.45,289.69,369.21,295.02,369.21,301.6z"/>
					<path fill="#EC2227" d="M185.54,280.09c0,6.59-5.6,11.92-12.5,11.92c-6.91,0-12.5-5.33-12.5-11.92
						c0-6.58,5.59-11.91,12.5-11.91C179.94,268.18,185.54,273.51,185.54,280.09z"/>
				</g>
			</g>
		</g>
	</g>
</g>
</svg>
