<?xml version="1.0" encoding="utf-8"?>
<!-- Generator: Adobe Illustrator 25.2.3, SVG Export Plug-In . SVG Version: 6.00 Build 0)  -->
<svg version="1.1" id="Layer_1" xmlns="http://www.w3.org/2000/svg" xmlns:xlink="http://www.w3.org/1999/xlink" x="0px" y="0px"
	 viewBox="0 0 576 576" enable-background="new 0 0 576 576" xml:space="preserve">
<g>
	<g>
		<defs>
			<path id="SVGID_1_" d="M576,287.88c0,158.92-128.83,287.75-287.75,287.75C129.32,575.63,0.49,446.8,0.49,287.88
				C0.49,128.95,129.32,0.12,288.25,0.12C447.17,0.12,576,128.95,576,287.88z"/>
		</defs>
		<use xlink:href="#SVGID_1_"  overflow="visible" fill="#F9E3D9"/>
		<clipPath id="SVGID_2_">
			<use xlink:href="#SVGID_1_"  overflow="visible"/>
		</clipPath>
		<g clip-path="url(#SVGID_2_)">
			<path fill="#025F9F" d="M261.89,632.42c17.64-57.79,32.67-103.82,43.67-114.98c28.99-29.31,70.93,37.83,70.93,37.83l-34.19,77.15
				H261.89z"/>
			<polygon fill="#183660" points="372.86,444.13 322.96,470.33 328.89,487.79 379.17,464.92 			"/>
			<path fill="#8B491F" d="M438.58,338.47c0,0-6.21,49.92-39.03,61.17l5.82-57.14L438.58,338.47z"/>
			<g>
				<path fill="#F15B2D" d="M232,289.08c-1.06-19.56-7.28-37.04-16.55-49.97c-1.17-11.07,4.71-17.76,1.35-19.37
					c-11.02-5.29-30.78-4.26-38.67-2.77c-0.06,0-0.12-0.01-0.17-0.01c-29.11,1.58-53.63,36.2-51.38,77.82
					c2.08,38.51,22.38,68.11,49.87,72.71c9.89,2.64,35.36,1.27,35.36,1.27s0.6-6.68,1.39-17.19
					C225.83,337.17,233.36,314.37,232,289.08z"/>
				<path fill="#B54426" d="M260.44,290.53c2.26,41.63-19.52,76.65-48.63,78.22s-54.53-30.89-56.79-72.52
					c-2.25-41.63,19.52-76.65,48.63-78.22C232.77,216.44,258.19,248.91,260.44,290.53z"/>
			</g>
			<path fill="#2482C5" d="M546.36,632.42c0.5-27.99-1.85-53.8-8.17-75.85c-13.33-46.43-49.45-79.74-90.58-95.09
				c-16.09-6.08-33.02-9.34-49.62-9.59c-26.43-0.49-52.06,6.79-72.53,23c-6.76,5.27-12.95,11.5-18.4,18.79
				c-2.86,3.78-5.56,7.93-8.02,12.3c-1.89,3.27-3.6,6.7-5.2,10.32c-16.41,37.17-25.44,78.18-30.54,116.12H546.36z M350.22,527.48
				c-2.72,8.62-5.84,18.78-7.44,24.94c1.74-10.44,1.98-29.94,0.73-40.49c0.15,0.03,0.36,0.05,0.51,0.09
				C346.48,517.66,348.66,522.98,350.22,527.48z"/>
			<path fill="#12213B" d="M448.13,458.45c0,0-35.93-27.96-55.5-26.1c-19.58,1.86,4.45,32.69,4.45,32.69L448.13,458.45z"/>
			<path fill="#8B491F" d="M331.44,155.89c0,0,16.32,20.42,40.14,44.1c23.81,23.67,30.72,89.51,30.72,89.51
				s76.5-147.53-15.26-189.14C326.28,72.81,331.44,155.89,331.44,155.89z"/>
			<path fill="#F8A285" d="M394.62,454.76c-16.58,0.43-35.13,3.53-50.45,10.04c-1.88,0.73-10.91,6.27-16.37,14.39
				c-4.97,7.31-6.95,16.72,2.22,26.58c3.16,3.42,7.82,5.39,13.5,6.15c1.25,10.55,1,30.04-0.73,40.49c1.6-6.16,4.72-16.32,7.44-24.94
				c0.27,0.83,0.52,1.59,0.77,2.36c0.61-4.61,1.59-9.11,2.77-13.31c0.56-1.92,1.03-3.4,1.31-4.23c1.55-0.1,3.1-0.26,4.68-0.51
				c1.18-2.2,2.43-4.43,3.76-6.61c0.35-0.56,0.75-1.14,1.09-1.77c6.25-10.5,13.68-19.85,19.47-18.64c3.33,0.71,7.32,3.59,11.27,7.45
				c0.55,0.56,1.16,1.1,1.72,1.71c1.46,1.5,2.97,3.2,4.49,4.96c16.58-7.57,30.64-17.01,35.79-24.7
				C445.69,461.53,423.02,454.09,394.62,454.76z"/>
			<path fill="#183660" d="M343.52,511.93c1.25,10.55,1,30.04-0.73,40.49c-0.12,0.37-0.22,0.81-0.27,1.16
				c-0.18,1.28-0.45,2.38-0.72,3.27c-0.04,0.14-0.09,0.22-0.09,0.22s-20.04-102.15-46.21-34.44c0.74-3.75,2.03-10.1,3.54-16.65
				c2.2-9.39,4.74-19.07,6.57-21.7c3.82-5.52,17.38-13.94,17.38-13.94s0.95,1.69,2.47,4.55c0.7,1.2,1.14,2.89,2.35,4.31
				c6.63,7.83,7.85,8.29,13.14,19.99C343.21,505.65,343.19,509.12,343.52,511.93z"/>
			<path fill="#F8A285" d="M397.73,360.85l5.43,100.17c0,0-31.97,33.7-75.76,13.23l-7.29-96.42L397.73,360.85z"/>
			<path fill="#FBB581" d="M419.69,285.45c-0.02-0.4-0.1-0.79-0.2-1.19c-1.34-7.54-3.02-15.14-4.91-22.79l-0.01-0.07
				c-1.28-5.14-2.62-10.28-4.11-15.42c-0.41-1.38-0.83-2.83-1.23-4.21c-1.71-5.66-3.48-11.31-5.39-16.89
				c-0.16-0.46-0.32-0.99-0.48-1.45c-0.39-1.11-0.72-2.23-1.12-3.41c-0.31-0.92-0.7-1.84-1.02-2.76c-0.64-1.9-1.34-3.81-2.04-5.64
				c-2.43-6.62-4.92-13.11-7.6-19.45c-0.07-0.06-0.07-0.06-0.01-0.13c-0.07-0.07-0.07-0.07-0.01-0.13
				c-0.07-0.07-0.07-0.07-0.07-0.13c-8.15-19.75-16.96-37.93-25.66-52.96l-0.01-0.07c-12.77-22.31-24.98-37.82-33.39-41.38
				c-1.57-0.65-3.62-1.48-6.21-2.34c-20.78-7.3-72.07-19.83-112.51,3.75c-4.54,2.58-8.98,5.7-13.2,9.34
				c-3.52,3-6.93,6.46-10.14,10.24c-4.21,4.91-8.12,10.47-11.59,16.81c-2.43,4.41-4.72,9.15-6.78,14.27
				c-2.41,6.08-4.6,12.68-6.42,19.87c2.47,1.2,5.01,2.27,7.6,3.2c11.88,4.64,25.46,7.32,40.89,7.08
				c87.7-1.4,66.18-44.56,91.06-46.71c8.38-0.72,16.91-2.59,24.88-3.56c15.67-2.05,29.04-0.7,34.56,19.59
				c0.24,0.86,0.5,1.78,0.68,2.7c4.95,18.59,11.17,49.53,15.53,72.03c-3.6,1.4-7.04,3.39-10.25,5.9
				c-5.48-22.17-13.59-43.59-21.74-62c-15.33,5.78-111.73,40.34-180.49,17.52c-1.96-0.56-3.88-1.26-5.72-2.03
				c-2.47,13.71-3.9,29.29-4.02,46.88c0,0,0.05,0.87,0.07,2.54l0.04,0.8c0.01,0.07,0.01,0.13,0.01,0.13l0.01,0.2
				c0.12,3.4,0.36,9.07,0.89,16.33l0.01,0.07c0.41,5.19,0.87,11.12,1.56,17.7c5.52,53.92,22.56,148.86,74.41,170.58
				c34.13,14.2,63.49,19.36,90.11,13.51c26.7-5.72,50.66-22.53,73.85-52.12c0.07-0.07,0.2-0.15,0.26-0.28
				c3.38-4.33,6.74-8.92,10.08-13.78c5.02-7.3,8.56-15.98,10.84-25.66c1.47-6.16,2.39-12.76,2.81-19.67
				c0.07-0.07,0.06-0.2,0.05-0.27c0.09-0.74,0.12-1.41,0.15-2.15C424.59,321.68,423.02,303.85,419.69,285.45z"/>
			<path fill="#8B491F" d="M365.25,116.93c0.46,8.54,0.65,15.74,0.58,21.83l0.01,0.07c-0.07,5.02-0.24,9.17-0.58,12.8
				c-0.18-0.93-0.44-1.84-0.68-2.7c-5.51-20.29-18.89-21.64-34.56-19.59c-7.97,0.96-16.49,2.83-24.88,3.56
				c-24.88,2.15-3.36,45.31-91.06,46.71c-15.43,0.24-29.01-2.44-40.89-7.08c-2.59-0.93-5.12-1.99-7.6-3.2
				c-6.59-3.12-12.54-6.88-18.04-11.06c-32.88-24.56-46.71-62.65-48.8-69.16c2.24,5.63,15.21,32.8,53.25,17.98
				c5.44-2.03,11.49-5.03,18.09-9.13c0.13-0.07,0.32-0.22,0.45-0.3c1.36-0.87,2.79-1.69,4.21-2.5c3.63-2.13,7.6-4.15,11.7-6.11
				c12.45-5.96,26.88-11.15,41.97-15.17h0.07c0.27-0.02,0.53-0.1,0.79-0.18c0.06-0.07,0.2-0.08,0.33-0.09
				c1.12-0.26,2.18-0.58,3.3-0.85c0.46-0.16,0.92-0.25,1.38-0.41c43.36-10.37,91.02-10.47,115.16,10.62
				c8.63,7.49,14.19,17.62,15.52,30.99c0,0,0,0,0,0.07C365.13,114.93,365.19,115.93,365.25,116.93z"/>
			<path fill="#8B491F" d="M451.07,240.3c-0.01,1-0.03,1.88-0.06,2.68l0.01,0.07c-0.12,2.62-0.24,4.09-0.24,4.09
				s-1.12,1.59-2.99,4.17c-2.31,3.13-5.8,7.74-10.01,12.84c-1.19,1.47-2.51,3.01-3.82,4.62c-0.51,0.56-1,1.19-1.51,1.76
				c-3.34,3.86-6.93,7.73-10.62,11.4c-0.76,0.77-1.59,1.55-2.35,2.33c-2.42,2.2-4.84,4.41-7.22,6.28c-4.48,3.65-8.94,6.5-13.06,8.06
				c-11.46,4.43-20.63-0.82-22.05-26.95c-0.11-2.06-0.29-4.13-0.47-6.19c-0.18-2.26-0.37-4.46-0.7-6.72
				c-0.25-2.19-0.57-4.38-0.89-6.57c-1.14-7.56-2.76-15.1-4.57-22.61c3.21-2.52,6.65-4.51,10.25-5.9
				c-4.36-22.5-10.58-53.44-15.53-72.03c-0.18-0.93-0.44-1.84-0.68-2.7c-5.51-20.29-18.89-21.64-34.56-19.59
				c-6.37-11.55-10.69-18.41-10.69-18.41c0.66-6.25,3.12-11.6,6.9-15.88c3.58-4.27,8.56-7.49,14.32-9.67
				c2.75-1.08,5.71-1.91,8.9-2.42c0.39-0.09,0.79-0.18,1.26-0.13c1.72-0.36,3.45-0.52,5.25-0.62c2.6-0.14,5.27-0.14,8.03,0.1
				c22.88,1.5,49.53,14.83,67.52,43.21C451.95,157.69,451.77,219.74,451.07,240.3z"/>
			<path fill="#307E85" d="M418.39,209.9l-10.59,1.2l-5.82,0.51c-0.54-18.16-10.57-95.57-51.39-128.86
				c-18.49-15.14-29.86-16.07-58.44-18.17c-0.02,0-0.05,0-0.05,0c-29.71,0.66-50.77,5.24-65.7,10.21
				c25.91-11.8,66.18-23.19,110.45-8.34c12.27,4.13,23.35,11.32,32.21,20.78C387.25,106.64,416.19,147.14,418.39,209.9z"/>
			<path fill="#F36F52" d="M197.86,366.61c0,0,5.53-6.87,4.84,0.16c-0.85,8.56-0.47,17.92,0.12,20.62
				C204.13,393.27,196.69,380.69,197.86,366.61z"/>
			<path fill="#6E3317" d="M162.59,183.04c1.84,0.77,3.76,1.47,5.72,2.03c-4.21,12.26-8.35,28.47-9.54,47.25
				c-0.05,0.33-0.1,0.67-0.09,0.94c0.01,0.07,0.01,0.13,0.01,0.13l0.01,0.2c-0.37,5.56-0.46,11.25-0.2,17.19l0.09,1.8
				c0,0-0.16-0.52-0.41-1.52c-0.6-2.37-1.94-7.45-3.51-14.18v-0.07c-3.69-16.38-8.85-42.43-8.97-62.02
				C151.02,178.05,156.71,180.82,162.59,183.04z"/>
			<path fill="#8B491F" d="M179.45,159.87c0,0-2.76,4.57-6.27,12.64c-2.59-0.93-5.12-1.99-7.6-3.2
				c-6.59-3.12-12.54-6.88-18.04-11.06c1.02-3.46,2.54-6.22,4.59-7.87c8.51-7.01,15.24-4.9,19.87-0.94
				C176.84,153.59,179.45,159.87,179.45,159.87z"/>
			<path fill="#FFFFFF" d="M281.84,254.77c-13.68-17.62-41.82-11.43-49.2,9.61c-3.52,10.02-3.98,20.21,6.69,33.75
				c19.71,25.04,53.46-0.39,52.74-17.49C291.8,274.22,289.76,264.96,281.84,254.77z"/>
			<path fill="#FFFFFF" d="M168.92,295.05c-4.68-7.22-6.84-15.63-6.05-24.12c0.87-9.29,4.08-20.21,14.47-18.51
				c17.7,2.89,35.52,37.69,17.24,51.95C183.75,312.82,174.59,303.8,168.92,295.05z"/>
			<g>
				<path fill="#611B13" d="M261.24,286.27c4.4,5.77,3.69,13.71-1.57,17.71c-5.26,4.01-13.09,2.57-17.49-3.21
					c-4.4-5.77-3.69-13.71,1.57-17.71C249.01,279.06,256.84,280.49,261.24,286.27z"/>
				<path fill="#1D1D1B" d="M250.84,301.05c-1.63-0.48-3.71-2.05-4.68-5.02c-0.63-1.96-0.56-4.02,0.19-5.68
					c0.4-0.87,1.16-2.01,2.51-2.45c0.73-0.24,1.48-0.24,2.28,0c1.63,0.47,3.71,2.04,4.67,5.01c0.64,1.96,0.57,4.03-0.18,5.69
					c-0.39,0.88-1.15,2.01-2.51,2.45C252.4,301.29,251.65,301.28,250.84,301.05z"/>
			</g>
			<g>
				<path fill="#611B13" d="M191.41,287.5c4.4,5.78,4.04,13.44-0.79,17.12c-4.83,3.68-12.31,1.97-16.71-3.8
					c-4.4-5.78-4.04-13.44,0.79-17.12C179.53,280.02,187.01,281.72,191.41,287.5z"/>
				<path fill="#1D1D1B" d="M182.71,301.54c-1.63-0.47-3.72-2.04-4.68-5.01c-0.64-1.96-0.56-4.02,0.19-5.68
					c0.39-0.88,1.16-2.01,2.51-2.45c0.73-0.24,1.47-0.24,2.28,0c1.63,0.48,3.72,2.05,4.68,5.01c0.64,1.96,0.56,4.03-0.18,5.68
					c-0.4,0.88-1.16,2.02-2.52,2.46C184.27,301.78,183.53,301.77,182.71,301.54z"/>
			</g>
			<path fill="#F36F52" d="M290.68,268.93c-32.48-26.3-60.14,2.6-60.14,2.6s-0.92-33.12,21.54-40.69
				C282,220.67,290.68,268.93,290.68,268.93z"/>
			<path fill="#F36F52" d="M162.85,278.61c0,0,8.52-18.42,37.98-2.06c0,0-6.95-28.85-23.73-27.94
				C158.43,249.62,162.85,278.61,162.85,278.61z"/>
			<path fill="#8B491F" d="M283.23,240.94c0,0,12.65,10.83,14.88,4.81c2.23-6.02-0.12-20.5-18.44-22.56
				c-18.32-2.06-45.49,2.53-45.86,9.74c-0.37,7.2,0.17,12.29,6.53,11.42C246.71,243.48,262.43,231.07,283.23,240.94z"/>
			<path fill="#8B491F" d="M163.11,246.79c0,0-10.06,10.52-11.32,4.46c-1.26-6.06,1.41-20.44,15.1-22.08
				c13.69-1.63,33.51,3.56,33.32,10.75c-0.19,7.18-0.92,12.26-5.58,11.24C189.98,250.15,179.15,237.43,163.11,246.79z"/>
			<path fill="#FFFFFF" d="M178.84,286.57c0.14,2.52-1.79,4.66-4.3,4.8c-2.52,0.14-4.66-1.79-4.8-4.3c-0.14-2.52,1.79-4.66,4.31-4.8
				C176.55,282.12,178.7,284.05,178.84,286.57z"/>
			<path fill="#FFFFFF" d="M246.95,285.01c0.13,2.52-1.79,4.66-4.31,4.8c-2.51,0.14-4.66-1.79-4.8-4.3c-0.13-2.52,1.8-4.66,4.31-4.8
				C244.66,280.57,246.81,282.5,246.95,285.01z"/>
			<path fill="#F36F52" d="M198.48,327.23c0,0,5.81,30.19,30.66,24.1c10.53-2.58,9.88-0.7,6.26,2.7
				c-4.07,3.82-16.96,8.35-24.15,4.44C198.51,351.56,199.08,345.18,198.48,327.23z"/>
			<path fill="#6E3317" d="M241.56,187.26c0,0-120.32-7.03-102.34-108.24c-1.69,84.32,104.16,90.45,104.16,90.45
				c22.56,4.18,38.38-2.7,44.86-12.87C294.99,173.85,276.3,193.79,241.56,187.26z"/>
			<path fill="#8B491F" d="M288.24,156.61c-6.48,10.17-22.3,17.04-44.86,12.87c0,0-105.86-6.13-104.16-90.45c0,0,0,0-0.01-0.09
				c0.34-1.97,0.79-4.02,1.23-6.08c0,0,22.01,60.03,97.12,61.28C267.73,134.62,283.71,144.99,288.24,156.61z"/>
			<path fill="#6E3317" d="M268.72,169.88c0,0-110.86-6.48-94.3-99.74c-1.55,77.69,95.98,83.34,95.98,83.34
				c20.78,3.84,35.36-2.49,41.34-11.86C317.96,157.52,300.74,175.89,268.72,169.88z"/>
			<path fill="#8B491F" d="M311.75,141.63c-5.98,9.38-20.55,15.71-41.34,11.86c0,0-97.54-5.65-95.98-83.34c0,0,0,0,0-0.09
				c0.31-1.81,0.72-3.71,1.13-5.6c0,0,20.28,55.32,89.48,56.46C292.85,121.37,307.57,130.93,311.75,141.63z"/>
			<path fill="#183660" d="M448.11,458.47c0.09,0.66-0.14,1.68-0.51,3c-4.15,13.57-30.19,59.33-30.19,59.33s-7.3-11.77-15.86-21.93
				c-1.52-1.76-3.03-3.46-4.49-4.96c-0.56-0.62-1.17-1.15-1.72-1.71c-3.65-3.45-7.11-5.84-10.43-6.55
				c-5.73-1.23-13.7,7.56-20.31,17.74c-0.33,0.63-0.74,1.21-1.09,1.77c-1.33,2.18-2.58,4.4-3.76,6.61
				c-4.64,8.67-16.78,42.02-17.97,45.06c0.09-0.78,0.37-1.88,0.72-3.27c0.05-0.35,0.15-0.79,0.27-1.16
				c1.6-6.16,4.72-16.32,7.44-24.94c1.32-4.23,2.58-8.11,3.54-10.95c0.56-1.92,1.03-3.4,1.31-4.23
				c8.57-26.51,26.27-45.96,39.54-57.54c1.13-1.03,2.27-1.99,3.37-2.87c7.92-6.44,13.8-15.43,13.8-15.43
				S447.52,451.13,448.11,458.47z"/>
			<path fill="#6E3317" d="M147.54,158.25c-1.3,4.42-1.79,10.12-1.85,16.55c-21.43-13.08-37.83-34.45-44.58-67.85l-2.7-18.84
				c0,0,0.01,0.07,0.09,0.26c0.07,0.13,0.16,0.39,0.24,0.72C100.83,95.6,114.66,133.7,147.54,158.25z"/>
			<path fill="#6E3317" d="M165.58,169.31c-1.1,4.34-2.12,8.94-3,13.73c-5.87-2.22-11.57-4.99-16.89-8.25
				c0.06-6.42,0.55-12.13,1.85-16.55C153.05,162.44,159,166.19,165.58,169.31z"/>
			<path fill="#6E3317" d="M348.8,167.55c-15.33,5.78-111.73,40.34-180.49,17.52c1.68-4.84,3.32-9.07,4.87-12.56
				c11.88,4.64,25.46,7.32,40.89,7.08c87.7-1.4,66.18-44.56,91.06-46.71c8.38-0.72,16.91-2.59,24.88-3.56
				C335.29,139.13,342.09,152.27,348.8,167.55z"/>
			<path fill="#6E3317" d="M365.25,151.62c-2.73,31.17-14.36,15.08-14.36,15.08s-0.72,0.31-2.09,0.85
				c-6.71-15.27-13.51-28.41-18.78-38.22c15.67-2.05,29.04-0.7,34.56,19.59C364.81,149.78,365.07,150.69,365.25,151.62z"/>
			<path fill="#6E3317" d="M380.78,223.65c-3.6,1.4-7.04,3.39-10.25,5.9c-5.48-22.17-13.59-43.59-21.74-62
				c1.37-0.54,2.09-0.85,2.09-0.85s11.63,16.09,14.36-15.08C370.2,170.21,376.42,201.15,380.78,223.65z"/>
			<path fill="#6E3317" d="M173.18,172.51c-1.55,3.5-3.2,7.73-4.87,12.56c-1.96-0.56-3.88-1.26-5.72-2.03c0.88-4.8,1.9-9.39,3-13.73
				C168.06,170.51,170.59,171.58,173.18,172.51z"/>
			<path fill="#6E3317" d="M256.34,151.95c0,0,16.81,1.88,42.5-17.62c0,0,2.83,26.59-6.26,28.47
				C283.49,164.69,256.34,151.95,256.34,151.95z"/>
			<g>
				<g>
					<path fill="#E0DCCE" d="M125.65,324.75c0.53,5.07,5.36,6.04,5.36,6.04c190.4,20.46,209.18-2.81,209.18-2.81
						c12.13-56.95-5.18-111.18-5.18-111.18s13.96,82.81-7.2,63.74c-21.13-19.07-25.89-58.36-25.89-58.36l-170.75,6.07
						C131.17,228.26,125.08,319.69,125.65,324.75z"/>
					<path fill="#CEC9BA" d="M288.46,222.69c0,0,18.23,38.79,39.35,57.86c21.16,19.07,7.2-63.74,7.2-63.74
						c-101.48-34.59-207.09,9.89-211,11.34L288.46,222.69z"/>
					<path fill="#2A4649" d="M110.85,324.94c7.32,0.97,15.16,1.71,23.31,2.24c4.89,0.37,9.91,0.64,15.02,0.85
						c3.81,0.16,7.67,0.28,11.57,0.34c13.37,0.33,27.06,0.28,40.23,0.03c47.81-0.97,89.36-4.8,89.36-4.8
						c11.68-43.9-0.87-100.8-3.22-101.22c-4.23-0.7-8.46-1.36-12.66-1.88c-16.98-2.24-33.74-3.16-49.68-3.24
						c-5.79-0.03-11.46,0.03-17.01,0.18c-8.36,0.25-16.36,0.71-23.94,1.27l-0.04,0.01c-39.69,3.06-74.58,9.62-74.58,9.62
						C96.72,256.17,110.85,324.94,110.85,324.94z"/>
					<path fill="#2D575A" d="M160.74,328.37c13.37,0.33,27.06,0.28,40.23,0.03c20.29-29.81,52.94-77.69,73.48-107.9
						c-16.98-2.24-33.74-3.16-49.68-3.24L160.74,328.37z"/>
					<path fill="#2D575A" d="M134.16,327.18c4.89,0.37,9.91,0.64,15.02,0.85l58.59-110.59c-8.36,0.25-16.36,0.71-23.94,1.27
						l-0.04,0.01L134.16,327.18z"/>
				</g>
				<path fill="#152828" d="M334.72,249.92c-3.29-0.12-0.16,45.5,1.31,45.73c1.47,0.24,30.34-1.25,40.49-3.44
					c10.14-2.19,9.91-21.01,9.91-21.01S358.25,250.78,334.72,249.92z"/>
			</g>
			<g>
				<path fill="#EE8D72" d="M371.21,322.4c-9.13-16.38-7.54-36.7,2.55-52.5c12.22-19.12,33.53-43.46,50.77-16.11
					c25.8,40.92,10.08,101.65-27.33,89.66C384.09,339.26,376.09,331.16,371.21,322.4z"/>
				<g>
					<g>
						<path fill="#7FC7C3" d="M401.89,209.71c0.23,4.26,0.24,7.03,0.21,7.56l-9.04-0.31c-0.01-0.18,0.11-2.85,0-7.4l-0.04-0.62
							c-0.53-22.26-10.56-83.87-47.15-118.98c-13.19-12.66-29.72-19.37-55.98-20.87c-19.05-1.1-36.53-1.13-50.74,4.28
							c-9.58,3.46-16.22,5.85-26.41,9.36c-0.12,0.1-3.58,1.6-3.67,1.67c19.37-12.64,18.95-9.21,33.98-15.64
							c0.07-0.01,0.2-0.1,0.33-0.11c13.59-5.82,31.07-6.01,58.27-6.32c26.24,3.04,37.67,1.65,54.86,20.42
							C394.43,124.04,401.09,187.55,401.89,209.71z"/>
					</g>
				</g>
				<g>
					<path fill="#F15B2D" d="M441.83,286.99c1.12,20.67-4.28,39.61-13.72,52.75c-0.44,0.62-0.93,1.33-1.44,1.95
						c-0.69,0.84-1.38,1.68-2.07,2.45c-0.69,9.6-1.23,15.71-1.23,15.71c-0.93,0.05-1.8,0.03-2.67,0.07
						c-3.67,0.2-10.54,0.37-17.1,0.19c-4.89-0.2-9.52-0.55-12.58-1.39c-25.16-4.19-43.74-31.26-45.65-66.52
						c-0.76-14.13,1.8-27.31,6.75-38.41c4.46-10.13,10.83-18.5,18.4-24.25c3.21-2.52,6.65-4.51,10.25-5.9
						c2.09-0.85,4.26-1.5,6.51-1.96c1.65-0.36,3.38-0.58,5.11-0.68c0.07,0,0.07,0,0.14-0.01c2.31-0.46,5.77-0.85,9.7-0.99
						c1.2-0.07,2.4-0.07,3.67-0.07c4.61-0.05,9.64,0.28,14.17,1.24l0.07-0.01c2.49,0.47,4.8,1.08,6.86,2.03
						c0.27,0.05,0.62,0.24,0.89,0.35c2.19,1.02,0.04,4.48-0.93,10.15c-0.35,2.15-0.54,4.7-0.26,7.56c0.36,0.51,0.72,0.96,1.02,1.48
						c4.21,6.19,7.6,13.36,10.04,21.38c0.32,0.92,0.57,1.84,0.82,2.77C440.35,273.23,441.45,279.93,441.83,286.99z"/>
					<path fill="#B54426" d="M467.85,288.32c2.06,38.08-17.86,70.13-44.49,71.57c-26.64,1.44-49.89-28.27-51.95-66.35
						c-2.07-38.08,17.86-70.13,44.49-71.57C442.53,220.53,465.79,250.23,467.85,288.32z"/>
					<path fill="#FFD050" d="M471.95,285.98c1.56,28.64-15.82,53.31-39.62,57.74c-18.04-4.47-32.59-26.3-34.06-53.31
						c-1.53-28.2,11.76-52.35,30.52-57.24C451.84,236.25,470.45,258.3,471.95,285.98z"/>
					<path fill="#FEE396" d="M432.22,240.26c0,0-27.4,9.7-18.88,58.08c0,0,12.1-30.78,26.61-31.57
						C454.46,265.98,452.1,244.2,432.22,240.26z"/>
				</g>
				<polygon fill="#FEE396" points="406.5,223.39 387.32,223.5 387.29,221.69 387.2,215.08 387.15,211.67 393.16,211.61 
					401.98,211.6 404.46,211.6 405.44,217.37 405.91,219.95 				"/>
				<polygon fill="#CBA25D" points="421.08,221 420.09,221.19 414.72,222.01 409.75,222.88 406.5,223.39 405.91,219.95 
					405.44,217.37 404.14,211.08 416.16,210.3 420.35,209.58 				"/>
			</g>
			<path fill="#1672B9" d="M429.7,632.42c-2.37-15.18-4.93-29.98-7.67-43.84c-19.62-98.69,35.98-118.41,88.79-76.56
				c17.02,13.46,26.39,61.33,30.3,120.4H429.7z"/>
			<g>
				<g>
					<path fill="#FFFFFF" d="M227.55,405.77c-0.28,0.48-0.5,2.74-0.66,4.57c1.06,1.17,2.3,2.45,4.02,3.12
						c28.73,11.24,54.54,1.46,64.67-3.82c3.05-1.59,6.5-5.2,8.54-8.5c0.15-4.39,0.29-11.42-0.33-13.81c-0.94-3.6-7.32,4.3-8.68,5.74
						c-1.36,1.43-8.17-1.23-8.34-1.65c-0.16-0.41,6.98,1.23,8.08-1.54c1.1-2.77,9.11-6.96,9.11-6.96c0.86-5.71-0.68-13.88-1.6-17.97
						c-1.98-0.72-3.67-0.69-3.67-0.69s1.27,1.38-1.28,6.3c-2.42,4.66-60.19,19.22-70.88,25.38c-0.03,2.07,0.01,6.93,0.61,7.58
						c0.77,0.81,8.76,0.5,8.76,0.5S228.03,404.93,227.55,405.77z"/>
					<path fill="#704C42" d="M286.76,391.42c0.17,0.42,6.98,3.08,8.34,1.65c1.36-1.44,7.74-9.34,8.68-5.74
						c0.62,2.39,0.49,9.42,0.33,13.81c2.83-4.54,4.21-10.28,3.61-13.04c-1.02-4.77,0.39-2.17,0.77-13.08
						c0.23-6.46-3.27-9.05-6.15-10.07c0.92,4.09,2.46,12.26,1.6,17.97c0,0-8,4.19-9.11,6.96
						C293.74,392.65,286.6,391.02,286.76,391.42z"/>
					<path fill="#704C42" d="M226.89,410.34c0.16-1.83,0.38-4.09,0.66-4.57c0.48-0.85,8.33-1.75,8.33-1.75s-7.99,0.31-8.76-0.5
						c-0.6-0.64-0.64-5.5-0.61-7.58c-0.49,0.52-0.82,1.03-0.97,1.52C223.59,404.02,224.43,407.64,226.89,410.34z"/>
					<path fill="#704C42" d="M279.87,394.19c0,0-28.42,8.71-36.08,9.33C243.79,403.52,265.75,401.47,279.87,394.19z"/>
				</g>
				<path fill="#F36F52" d="M297.62,355.86c0,0,12.24,5.24,14.68,9.34c2.45,4.09,0.62-3.12-2.89-5.72
					C306.05,357,301.47,353.17,297.62,355.86z"/>
				<path fill="#F36F52" d="M301.76,348.74c0,0,5.3,1.55,7.14,4.34C308.9,353.08,306.99,346.53,301.76,348.74z"/>
			</g>
		</g>
	</g>
</g>
</svg>
