<?xml version="1.0" encoding="utf-8"?>
<!-- Generator: Adobe Illustrator 25.2.3, SVG Export Plug-In . SVG Version: 6.00 Build 0)  -->
<svg version="1.1" id="Layer_1" xmlns="http://www.w3.org/2000/svg" xmlns:xlink="http://www.w3.org/1999/xlink" x="0px" y="0px"
	 viewBox="0 0 576 576" enable-background="new 0 0 576 576" xml:space="preserve">
<g>
	<g>
		<defs>
			<path id="SVGID_1_" d="M576,287.92c0,159.01-128.91,287.91-287.92,287.91S0.16,446.93,0.16,287.92C0.16,128.91,129.07,0,288.08,0
				S576,128.91,576,287.92z"/>
		</defs>
		<use xlink:href="#SVGID_1_"  overflow="visible" fill="#F9E3D9"/>
		<clipPath id="SVGID_2_">
			<use xlink:href="#SVGID_1_"  overflow="visible"/>
		</clipPath>
		<g clip-path="url(#SVGID_2_)">
			<path fill="#28110C" d="M136.75,153.74c0,0-56.01,60.4-21.97,136.18c34.05,75.77,111.26,122.43,120.43,119.41
				C244.37,406.33,245.47,199.87,136.75,153.74z"/>
			<polygon fill="#362415" points="139.93,292.49 197.5,281.06 193.37,276.24 143.6,286.56 			"/>
			<path fill="#F68920" d="M229.88,552.36c-5.97,53.33-20.41,107.27-31.02,142.03h24.82c11.57-34.47,27.34-87.64,34.77-140.47
				c3.36-23.51-31.91-50.28-54.34-42.3c-1.56,0.56-2.93,1.08-4.2,1.75C216.66,520.35,231.63,536.83,229.88,552.36z"/>
			<path fill="#F9A026" d="M198.86,694.39c10.62-34.76,25.05-88.69,31.02-142.03c1.75-15.53-13.22-32.01-29.98-39
				c-0.05,0-0.05,0-0.05,0c-10.16,4.72-13.17,11.75-21.53,33.43c-17.36,45.1-27.8,111.26-32.57,147.6H198.86z"/>
			<path fill="#F9A026" d="M436.34,587.82c-4.01,5.47-12.98,24.12-22.47,49.48l-26.15-45.52c0,0-32.06,67.66-48.58,80.27
				c-16.52,12.56-57.65,1.55-106.47,0c-27.28-0.9-38.1-16.67-42.3-30.64v-0.05c0.24-5.53,1.37-11.66,3.54-18.51
				c18.8-58.87,2.55-101.22,2.55-101.22s236.58-31.97,245.41,10.99C450.7,575.54,436.34,587.82,436.34,587.82z"/>
			<path fill="#7A3218" d="M351.17,481.5c-7.46,9.3-20.49,22.1-40.98,31.39c-25.83,11.66-34.04-14.21-36.59-29.79
				c28.33-30.69,1.18-95.14,1.18-95.14l64.92-41.69C339.7,346.28,313.12,450.01,351.17,481.5z"/>
			<path fill="#934921" d="M351.46,259.94c-0.24,23.04-12.51,124.08-51.51,152.03c-23.99,9.16-47.41,11.9-60.44,10.29
				c-28.98-3.55-59.06-88.53-69.77-112.13c-10.77-23.61,8.59-131.02,8.59-131.02c4.72-35.32,47.17-44.15,92.68-41.41l-12.6,10.72
				c0,0,16.62,72.61,46.46,87.06C334.69,249.93,351.69,236.89,351.46,259.94z"/>
			<path fill="#F9A026" d="M437.7,525.46c0,0-247.71,7.46-242.99-5.1c4.72-12.6,8.87-4.92,62.37-26.16
				c6.93-2.74,12.32-6.56,16.52-11.1c2.55,15.58,10.77,41.45,36.59,29.79c20.49-9.3,33.52-22.1,40.98-31.39
				c3.87,3.21,8.35,5.88,13.69,7.17C430.63,504.64,437.7,525.46,437.7,525.46z"/>
			<path fill="#3A160F" d="M166.93,263.44c-1.02,0.47,8.06-14.37,16.69-15.86c8.63-1.49,24.28-4.2,29.32-1.13
				c2.45,1.5,4.79,10.6,3.9,14.69c0,0-8.94-4.64-13.27-4.19C199.24,257.39,179.7,257.61,166.93,263.44z"/>
			<g>
				<path fill="#F68E5A" d="M217.34,295.15l-44.94-2.69c1.21-4.15,5.03-11.91,16.81-15.46
					C206.86,271.77,217.34,295.15,217.34,295.15z"/>
				<path fill="#4B2524" d="M217.34,295.15h-45.48l-4.72-3.01l5.26,0.32c1.21-4.15,5.03-11.91,16.81-15.46
					C206.86,271.77,217.34,295.15,217.34,295.15z"/>
				<path fill="#FFFFFF" d="M217.34,295.15c-3.86,3.13-7.64,5.33-11.19,6.84c-2.47,1.03-4.86,1.67-7.1,2.05
					c-5.26,0.92-9.93,0.32-13.84-0.86c-2.74-0.86-5.17-1.99-7.1-3.18c-4-2.42-6.25-4.85-6.25-4.85s0.05-1.07,0.54-2.69
					c1.21-4.15,5.03-11.91,16.81-15.46C206.86,271.77,217.34,295.15,217.34,295.15z"/>
				<g>
					<path fill="#8E391E" d="M205.86,288.39c0,9.01-6.09,16.3-13.61,16.3c-7.51,0-13.6-7.3-13.6-16.3c0-9.01,6.09-16.31,13.6-16.31
						C199.77,272.08,205.86,279.38,205.86,288.39z"/>
					<path fill="#3A160F" d="M200.86,288.39c0,5.69-3.86,10.31-8.61,10.31s-8.6-4.62-8.6-10.31c0-5.69,3.85-10.32,8.6-10.32
						S200.86,282.69,200.86,288.39z"/>
					<path fill="#FFFFFF" d="M187.18,287.51c0,2.09-1.41,3.78-3.15,3.78c-1.74,0-3.15-1.69-3.15-3.78c0-2.08,1.41-3.77,3.15-3.77
						C185.77,283.74,187.18,285.43,187.18,287.51z"/>
				</g>
				<path fill="#742F16" d="M217.29,294.67c-0.27-3.23-2.69-20.36-21.21-23.16c-20.49-3.12-28.95,20.63-28.95,20.63
					c2.07-13.73,11.06-35.6,32.95-30.76C215.49,264.77,217.16,290.68,217.29,294.67z"/>
				<path fill="#4B2524" d="M217.34,295.15c0,0-10.47-23.37-28.13-18.15c-11.78,3.55-15.6,11.31-16.81,15.46l-5.26-0.32
					c0,0,8.45-23.75,28.95-20.63c18.52,2.8,20.95,19.93,21.21,23.16C217.34,294.98,217.34,295.15,217.34,295.15z"/>
			</g>
			<g>
				<path fill="#4B2524" d="M326.65,280.82l-6.27,4.68l-66.32,6.9c0,0,8.29-20.95,28.27-25.69c15.36-3.66,29.47,9.32,35.29,15.56
					L326.65,280.82z"/>
				<g>
					<path fill="#742F16" d="M321.86,281.5c-1.26-1.62-17.82-22.46-42.78-21.6c-26,0.92-29.82,33.29-29.82,33.29
						s-7.03-42.55,26.1-44.28C307.55,247.29,321.05,279.56,321.86,281.5z"/>
					<path fill="#FFFFFF" d="M315.63,286.29c-6.58,7.43-13.41,11.96-20.08,14.54c-3.71,1.4-7.43,2.27-10.99,2.58
						c-5.02,0.49-9.79,0.06-14.11-0.86c-3.92-0.86-7.48-2.1-10.49-3.39c-6.58-2.86-10.64-5.98-10.64-5.98s8.28-20.95,28.26-25.69
						c15.36-3.66,29.47,9.32,35.3,15.56C314.62,285,315.63,286.29,315.63,286.29z"/>
					<g>
						<path fill="#8E391E" d="M293.06,282.69c0,10.13-7.66,18.35-17.1,18.35s-17.1-8.22-17.1-18.35c0-10.14,7.66-18.36,17.1-18.36
							S293.06,272.56,293.06,282.69z"/>
						<path fill="#3A160F" d="M286.77,282.69c0,6.41-4.84,11.6-10.82,11.6c-5.97,0-10.82-5.19-10.82-11.6
							c0-6.42,4.84-11.61,10.82-11.61C281.93,271.08,286.77,276.28,286.77,282.69z"/>
						<path fill="#FFFFFF" d="M269.58,281.71c0,2.34-1.77,4.25-3.95,4.25c-2.19,0-3.96-1.9-3.96-4.25c0-2.35,1.77-4.25,3.96-4.25
							C267.81,277.46,269.58,279.36,269.58,281.71z"/>
					</g>
					<path fill="#4B2524" d="M321.9,281.61l-9.03,1.45c-5.82-6.25-19.93-19.23-35.3-15.56c-19.98,4.74-28.26,25.69-28.26,25.69
						h-0.05c0,0,3.81-32.37,29.82-33.29c24.95-0.86,41.52,19.99,42.78,21.6C321.9,281.55,321.9,281.61,321.9,281.61z"/>
				</g>
			</g>
			<path fill="#7A3218" d="M242.71,336.64c-1.56,5.04-14.57-0.19-21.79,0.56c-7.23,0.81-8.34,5.66-16.56-2.49
				c-3.18-3.23-4.11-6.16-3.61-8.9c0.87-4.23,5.23-7.97,10.21-11.77c8.22-6.23,2.37-35.37,2.37-35.37
				c6.04,4.23,4.67,28.95,3.3,33.87c-0.93,3.23-6.35,7.6-10.09,11.33c-1.86,1.81-3.3,3.49-3.55,4.79
				c-0.75,3.86,7.16,10.27,12.27,7.16c5.17-3.12,10.71,0,17.49,0.81c6.85,0.81,7.6-2.12,8.6-6.23c0.56-2.43-2.06-4.49-4.36-5.79
				l-1.37-0.69c-0.06-0.06-0.12-0.06-0.12-0.06c-0.93-0.44-1.55-0.69-1.55-0.69c3.49-0.49,5.92,1.06,7.34,3.43
				C243.21,329.6,243.58,333.83,242.71,336.64z"/>
			<path fill="#8E391E" d="M241.34,330.41c-0.99,4.11-1.75,7.03-8.6,6.23c-6.79-0.81-12.32-3.93-17.49-0.81
				c-5.1,3.11-13.01-3.3-12.27-7.16c0.25-1.31,1.68-2.99,3.55-4.79c4.73,1.87,17.25,6.35,23.48,3.68c6.29-2.68,5.97-3.43,5.6-3.62
				l1.37,0.69C239.28,325.92,241.9,327.98,241.34,330.41z"/>
			<path opacity="0.33" fill="#FFFFFF" d="M219.49,330.63c-0.18,1.23-3.56,1.78-7.57,1.22c-4.01-0.56-7.12-2.01-6.94-3.24
				c0.17-1.23,3.56-1.78,7.56-1.22S219.66,329.4,219.49,330.63z"/>
			<path fill="#3A160F" d="M316.36,246.87c1.45,0.23-13.51-11.76-25.27-11.43c-11.76,0.33-33.08,0.92-39.18,4.78
				c-2.98,1.88-4.31,10.81-2.33,14.44c0,0,10.98-6.08,16.82-6.53S298.25,243.99,316.36,246.87z"/>
			<path fill="#8E391E" d="M371.76,345.47c-12.75,34.42-42.82,55.24-72.09,66.43c39-27.95,51.28-128.98,51.51-152.03
				c0.23-23.04-16.76-10.01-46.6-24.45c-29.84-14.45-46.46-87.07-46.46-87.07l12.61-10.71c54.86,3.26,114.21,23.37,117.74,34.32
				C394.89,192.04,394.89,282.92,371.76,345.47z"/>
			<path fill="#F68920" d="M236.4,689.56c0,0-0.06,1.73-0.18,4.83h67.81l-0.54-16.73c-19.36-1.04-43.95-4.77-70.82-5.62
				c-27.28-0.9-38.1-16.67-42.3-30.65C188.62,683.42,236.4,689.56,236.4,689.56z"/>
			<path fill="#F68920" d="M395.64,694.39c1.73-6.52,3.49-13.03,5.4-19.28c0.05-0.05,0.05-0.09,0.05-0.14
				c0.05-0.23,0.09-0.38,0.14-0.47c4.06-13.36,8.4-25.97,12.65-37.21l-26.15-45.52c0,0-32.06,67.66-48.58,80.27
				c-7.42,5.62-19.83,6.51-35.65,5.62l0.54,16.73H395.64z"/>
			<g>
				<g enable-background="new    ">
					<defs>
						<polygon id="SVGID_3_" enable-background="new    " points="139.49,329.51 138.99,276.6 306.23,280.29 306.74,333.2 						"/>
					</defs>
					<clipPath id="SVGID_4_">
						<use xlink:href="#SVGID_3_"  overflow="visible"/>
					</clipPath>
					<g clip-path="url(#SVGID_4_)">
						<path fill="#362415" d="M195.18,285.15c2.41,0.05,4.55,0.12,6.32,0.21c0.05-0.01,0.24-0.01,0.56-0.01
							c1.82,0.04,7.43,0.61,8.12,5.76c-0.02,0.58-0.04,1.19-0.06,1.81c-0.01,0.08-0.01,0.17-0.01,0.25c0,0.07-0.01,0.14-0.01,0.2
							c-0.08,1.9-0.22,3.95-0.42,6.06l-0.01,0.01l0.01-0.01c-0.63,6.7-1.83,13.88-3.69,18.45c-0.02,0.04-0.04,0.08-0.04,0.08
							c-0.04,0.11-0.07,0.18-0.1,0.24c-0.03,0.08-0.07,0.16-0.1,0.25c-0.01,0.03-0.03,0.06-0.04,0.09c-0.76,1.71-1.62,2.97-2.6,3.62
							c-0.01,0.01-0.03,0.03-0.03,0.03c-0.06,0.04-0.1,0.06-0.14,0.08l-0.09,0.05c-0.03,0.02-0.06,0.04-0.1,0.05
							c-0.06,0.04-0.13,0.06-0.2,0.09c-4.62,1.84-19.13,4.53-32.87,4.23c-1.14-0.03-2.27-0.07-3.38-0.14
							c-0.1-0.01-0.19-0.01-0.29-0.02c-0.18-0.01-0.36-0.02-0.55-0.04c-0.32-0.02-0.65-0.05-0.97-0.07l-0.02-0.01
							c-4.23-0.35-8.24-1.05-11.7-2.21c-0.74-0.27-1.45-0.55-2.17-0.86c-0.11-0.05-0.23-0.1-0.34-0.16
							c-0.03-0.01-0.06-0.03-0.08-0.04c-0.08-0.04-0.16-0.08-0.23-0.12c-0.77-0.4-1.47-0.9-2.1-1.49v-0.01v0.01
							c-1.46-1.36-2.56-3.19-3.04-5.25c-0.05-0.21-0.1-0.42-0.15-0.63c-0.88-3.64-1.56-7.47-1.95-11.05
							c-0.56-5.05-0.58-9.56,0.2-12.25v-0.01c0.02-0.08,0.05-0.16,0.07-0.23l0.02-0.07c0.03-0.06,0.05-0.12,0.06-0.18l0.03-0.1
							c0.02-0.04,0.03-0.08,0.05-0.12c0.02-0.05,0.03-0.08,0.05-0.13c0.01-0.03,0.03-0.06,0.04-0.08c0.03-0.05,0.05-0.1,0.06-0.14
							l0.03-0.06c0.02-0.05,0.05-0.1,0.07-0.15c0,0,0.02-0.03,0.03-0.05c0,0,0.06-0.1,0.08-0.15l0.01-0.02
							c0.04-0.06,0.07-0.11,0.1-0.16h0.01c0,0,0.07-0.11,0.11-0.16l0.01-0.01c0.08-0.1,0.17-0.19,0.25-0.27
							c2.51-2.38,10.36-3.74,19.72-4.47c0.39-0.03,0.77-0.06,1.16-0.09c0.05,0,0.1-0.01,0.1-0.01c0.25-0.02,0.45-0.03,0.66-0.05
							h0.04c2.86-0.19,5.83-0.34,8.8-0.43c0.06-0.01,0.12-0.01,0.18-0.01c0.19-0.01,0.37-0.01,0.55-0.01l0.05-0.01
							c0.19,0,0.39-0.01,0.58-0.01c0.14-0.01,0.27-0.01,0.42-0.01c0.09-0.01,0.19-0.01,0.29-0.01c0.49-0.01,0.97-0.03,1.45-0.04
							c0.36-0.01,0.73-0.01,1.1-0.02c2.4-0.05,4.78-0.07,7.06-0.08c0.37-0.01,0.75-0.01,1.11-0.02
							C190.09,285.06,192.77,285.1,195.18,285.15z M141.73,287.67c-5.83,5.47-0.76,27-0.16,29.41c1.06,4.29,3.95,7.82,7.82,9.49
							c5.62,2.42,12.86,3.44,20.28,3.6c1.59,0.03,3.19,0.03,4.79-0.01c12.68-0.27,24.91-2.68,29.33-4.43
							c8.65-3.4,9.62-31.37,9.71-34.54v-0.13V291l-0.01-0.02c-0.74,0.27-1.47,0.57-2.2,0.91c-0.56-1.27-1.13-2.55-1.69-3.82
							c0.86-0.4,1.73-0.76,2.6-1.08c-2.25-3.84-6.87-5.06-9.93-5.14c-0.3,0-0.59,0-0.86,0.01c-0.93-0.03-3.14-0.12-6.2-0.19
							C180.96,281.37,148.41,281.38,141.73,287.67z"/>
						<path opacity="0.251" fill="#75CBCC" d="M154.99,286.8c-5.29,0.79-9.34,1.93-11.02,3.51c-0.08,0.08-0.17,0.17-0.25,0.27
							l-0.01,0.01c-0.04,0.05-0.07,0.1-0.07,0.1l-0.05,0.05c-0.03,0.05-0.06,0.1-0.1,0.16l-0.02,0.02c-0.03,0.05-0.05,0.1-0.05,0.1
							c-0.04,0.06-0.05,0.08-0.05,0.08c-0.04,0.06-0.06,0.12-0.08,0.17l-0.03,0.06c-0.02,0.05-0.04,0.09-0.06,0.14
							c-0.01,0.03-0.03,0.06-0.04,0.08c-0.02,0.05-0.03,0.08-0.05,0.13c-0.01,0.04-0.03,0.08-0.05,0.12l-0.03,0.1
							c-0.02,0.06-0.04,0.12-0.06,0.18l-0.02,0.07c-0.03,0.07-0.05,0.15-0.07,0.23v0.01c-0.59,2.05-0.72,5.15-0.49,8.73
							L154.99,286.8z"/>
						<path fill="#445143" d="M142.88,292.38L142.88,292.38L142.88,292.38z M142.95,292.15l0.02-0.07L142.95,292.15z M143.03,291.9
							l0.03-0.1L143.03,291.9z M143.11,291.69c0.02-0.05,0.03-0.08,0.05-0.13C143.14,291.6,143.13,291.64,143.11,291.69z
							 M143.2,291.47c0.03-0.05,0.05-0.1,0.06-0.14C143.25,291.37,143.23,291.42,143.2,291.47z M143.3,291.27
							c0.02-0.05,0.05-0.1,0.07-0.15C143.34,291.17,143.32,291.22,143.3,291.27z M143.4,291.08c0,0,0.06-0.1,0.08-0.15
							C143.45,290.97,143.43,291.02,143.4,291.08z M143.5,290.91c0.03-0.06,0.06-0.11,0.1-0.16
							C143.56,290.8,143.53,290.85,143.5,290.91z M143.6,290.75c0,0,0.07-0.11,0.11-0.16C143.67,290.63,143.64,290.69,143.6,290.75z
							 M143.73,290.58c0.08-0.1,0.16-0.19,0.25-0.27C143.89,290.39,143.8,290.48,143.73,290.58z"/>
						<path opacity="0.251" fill="#75CBCC" d="M187.22,285.07c-0.36,0-0.72,0-1.09,0c-2.01,0.03-4.09,0.05-6.21,0.08l-32.11,36.4
							c0.64,0.59,1.34,1.1,2.1,1.5c0.07,0.04,0.15,0.08,0.23,0.12c0.03,0.01,0.06,0.03,0.08,0.04c0.11,0.05,0.23,0.1,0.34,0.16
							c0.71,0.31,1.43,0.58,2.19,0.84L187.22,285.07z"/>
						<path fill="#445143" d="M152.73,324.22l0.02-0.02c-0.76-0.26-1.48-0.53-2.19-0.84C151.28,323.67,151.99,323.94,152.73,324.22z
							 M150.23,323.2c-0.03-0.01-0.06-0.03-0.08-0.04C150.17,323.18,150.2,323.19,150.23,323.2z M147.81,321.55
							c0.63,0.59,1.34,1.09,2.1,1.49C149.15,322.65,148.45,322.14,147.81,321.55L147.81,321.55z M186.13,285.07
							c0.37,0,0.73,0,1.09,0l0.02-0.02C186.88,285.06,186.5,285.06,186.13,285.07z"/>
						<path opacity="0.251" fill="#75CBCC" d="M209.66,299.44l-23.23,26.33c7.32-0.87,13.4-2.23,16.1-3.3
							c0.07-0.03,0.14-0.06,0.2-0.09c0.04-0.01,0.07-0.03,0.1-0.05l0.09-0.05c0.05-0.02,0.08-0.05,0.08-0.05s0.08-0.05,0.09-0.06
							c0.97-0.64,1.84-1.92,2.6-3.62c0.01-0.03,0.03-0.06,0.04-0.09c0.03-0.08,0.07-0.16,0.1-0.25c0.03-0.06,0.06-0.13,0.08-0.2
							c0,0,0.03-0.08,0.05-0.12C207.83,313.31,209.03,306.13,209.66,299.44z"/>
						<path fill="#445143" d="M202.53,322.47c0.07-0.03,0.14-0.05,0.2-0.09C202.66,322.41,202.6,322.44,202.53,322.47z
							 M202.83,322.33l0.09-0.05L202.83,322.33z M203.05,322.2c0,0,0.03-0.02,0.05-0.03C203.09,322.18,203.07,322.19,203.05,322.2z
							 M205.7,318.55c0.01-0.03,0.03-0.06,0.04-0.09C205.73,318.48,205.72,318.52,205.7,318.55z M205.85,318.21
							c0.03-0.06,0.06-0.13,0.08-0.2C205.9,318.08,205.87,318.15,205.85,318.21z M209.66,299.44c-0.64,6.69-1.83,13.88-3.68,18.45
							C207.84,313.31,209.04,306.13,209.66,299.44L209.66,299.44z"/>
						<path fill="#362415" d="M285.77,283.49c6.92,0.49,12.44,1.49,14.64,3.29c2.08,1.71,2.86,8.09,2.67,15.38
							c0,0.08-0.01,0.18-0.01,0.27c-0.01,0.08-0.01,0.16-0.01,0.25c-0.1,3.13-0.38,6.41-0.82,9.54c-0.03,0.18-0.05,0.36-0.07,0.55
							c-0.43,3.23-2.35,5.93-5.08,7.3c-4.96,2.48-11.66,3.69-18.62,4.18l0.01-0.01l-0.01,0.01c-3.3,0.23-6.68,0.28-9.96,0.21
							c-5.94-0.13-11.58-0.68-15.99-1.34c-3.24-0.49-5.82-1.05-7.36-1.57c-0.82-0.27-1.6-0.95-2.34-1.92l-0.01-0.02
							c-0.05-0.07-0.1-0.14-0.16-0.21c0,0-0.07-0.1-0.12-0.16l-0.03-0.04c-1.02-1.47-1.98-3.48-2.87-5.84l0,0
							c-0.06-0.17-0.12-0.34-0.19-0.51c-0.05-0.14-0.1-0.27-0.14-0.41c-0.01-0.04-0.03-0.08-0.03-0.08
							c-0.76-2.15-1.44-4.49-2.06-6.91c-0.01-0.03-0.01-0.06-0.02-0.08c-0.05-0.18-0.09-0.35-0.14-0.53l-0.03-0.11
							c-0.04-0.15-0.07-0.31-0.11-0.45c-0.03-0.13-0.06-0.27-0.1-0.4c-0.01-0.06-0.03-0.14-0.05-0.21c-0.05-0.2-0.1-0.4-0.14-0.6
							l-0.01-0.05c-0.16-0.69-0.31-1.37-0.45-2.06l-0.01-0.03c-0.04-0.19-0.08-0.38-0.12-0.58c-0.02-0.12-0.05-0.23-0.07-0.35
							c-0.01-0.06-0.03-0.13-0.04-0.19c-0.03-0.18-0.07-0.36-0.11-0.55v-0.01c-0.07-0.36-0.14-0.71-0.21-1.05
							c-0.52-2.7-0.94-5.3-1.21-7.6c0.19-6.08,7.79-6.17,8.07-6.16c5.38-0.46,14.24-1.05,23.45-1.23c1.83-0.05,3.64-0.08,5.47-0.08
							c1.4-0.01,2.79-0.01,4.18,0c1.36,0.01,2.71,0.03,4.02,0.06C281.74,283.25,283.81,283.35,285.77,283.49z M242.22,280.96
							c-3.01-0.03-8.32,1.27-10.34,5.75c0.75,0.24,1.49,0.51,2.21,0.81c-0.45,1.29-0.9,2.6-1.31,3.92c-0.56-0.22-1.13-0.43-1.7-0.62
							v0.01c0.44,3.25,4.2,31.02,13.16,34c3.91,1.33,13.54,2.88,24.18,3.12c1.81,0.04,3.65,0.05,5.5,0
							c9.02-0.19,18.15-1.47,24.65-4.69c3.68-1.86,6.26-5.53,6.86-9.85c0.38-2.42,3.28-24.13-3.05-29.32
							c-3.72-3.05-13.93-4.17-24.93-4.42C262.13,279.32,245.26,280.69,242.22,280.96z"/>
						<path opacity="0.251" fill="#75CBCC" d="M248.13,284.01c-2.15,0.14-4.06,0.3-5.66,0.42c-0.28-0.01-7.88,0.08-8.07,6.16
							c0.29,2.31,0.7,4.91,1.21,7.6L248.13,284.01z"/>
						<path fill="#445143" d="M235.61,298.19L235.61,298.19c-0.51-2.69-0.92-5.3-1.21-7.6
							C234.67,292.89,235.09,295.49,235.61,298.19z M234.4,290.59c0.19-6.08,7.79-6.17,8.07-6.16
							C242.19,284.42,234.59,284.51,234.4,290.59z"/>
						<path opacity="0.251" fill="#75CBCC" d="M278.29,283.16c-0.9-0.02-1.81-0.03-2.73-0.05c-1.06-0.01-2.14-0.01-3.21,0
							l-30.65,34.78c0.27,0.47,0.53,0.9,0.8,1.29l0.03,0.04c0.05,0.05,0.08,0.1,0.08,0.1c0.09,0.12,0.14,0.19,0.19,0.26l0.01,0.01
							c0.76,0.98,1.55,1.66,2.35,1.93l0.49,0.14l33.92-38.48C279.15,283.18,278.72,283.17,278.29,283.16z"/>
						<path fill="#445143" d="M245.16,321.53c-0.81-0.27-1.59-0.95-2.34-1.92C243.56,320.59,244.34,321.26,245.16,321.53z
							 M242.8,319.59c-0.05-0.07-0.1-0.14-0.16-0.21C242.7,319.46,242.75,319.52,242.8,319.59z M242.53,319.23l-0.03-0.04
							L242.53,319.23z M275.57,283.12c0.92,0.01,1.82,0.03,2.73,0.05c0.43,0.01,0.86,0.02,1.28,0.03l0.01-0.01
							C278.27,283.15,276.92,283.13,275.57,283.12z"/>
						<path opacity="0.251" fill="#75CBCC" d="M302.99,296.38l-24.5,27.85c6.97-0.47,13.65-1.71,18.6-4.17
							c2.73-1.36,4.64-4.07,5.08-7.3c0.02-0.18,0.05-0.36,0.07-0.55c0.44-3.13,0.71-6.41,0.82-9.54c0-0.08,0-0.17,0.01-0.25
							c0-0.1,0.01-0.18,0.01-0.27C303.12,300.13,303.1,298.18,302.99,296.38z"/>
						<path fill="#445143" d="M278.48,324.23l-0.01,0.01c6.95-0.49,13.65-1.7,18.62-4.18C292.14,322.52,285.45,323.76,278.48,324.23
							z M302.23,312.22c0.44-3.13,0.72-6.41,0.82-9.54C302.95,305.81,302.67,309.09,302.23,312.22z M303.07,302.43
							c0-0.1,0.01-0.19,0.01-0.27C303.07,302.24,303.07,302.33,303.07,302.43z"/>
						<path fill="#362415" d="M223.07,285.21c-3.69-0.08-7.38,0.51-10.88,1.78c-0.88,0.32-1.75,0.68-2.6,1.08
							c0.56,1.27,1.14,2.55,1.69,3.82c0.73-0.34,1.46-0.64,2.2-0.91c3.09-1.12,6.33-1.64,9.58-1.57c2.69,0.06,5.38,0.53,8.01,1.39
							c0.57,0.19,1.14,0.4,1.7,0.62c0.42-1.31,0.86-2.63,1.31-3.92c-0.73-0.3-1.47-0.56-2.21-0.81
							C228.99,285.78,226.03,285.28,223.07,285.21z"/>
						<path opacity="0.251" fill="#FFFFFF" d="M179.92,285.15c-0.29-0.01-0.57-0.01-0.84,0c-0.36,0.01-0.73,0.01-1.1,0.02
							c-0.49,0.01-0.97,0.03-1.45,0.04c-0.09,0-0.19,0-0.29,0.01c-0.14,0.01-0.28,0.01-0.42,0.01c-0.19,0.01-0.39,0.01-0.58,0.01
							l-0.05,0.01c-0.18,0.01-0.37,0.01-0.55,0.01c-0.06,0.01-0.12,0.01-0.18,0.01c-2.98,0.09-5.95,0.23-8.8,0.43h-0.04
							c-0.2,0.01-0.4,0.03-0.6,0.05c0,0-0.11,0.01-0.16,0.01c-0.39,0.03-0.78,0.06-1.16,0.09c-3.11,0.24-6.06,0.56-8.7,0.95
							l-12.61,14.32c0.06,1.13,0.16,2.31,0.29,3.51c0.4,3.57,1.08,7.42,1.95,11.05c0.05,0.21,0.1,0.42,0.15,0.63
							c0.49,2.05,1.58,3.88,3.04,5.24L179.92,285.15z"/>
						<path fill="#695B4E" d="M147.81,321.55L147.81,321.55c-1.46-1.37-2.55-3.19-3.04-5.25
							C145.25,318.36,146.35,320.2,147.81,321.55z M144.62,315.68c-0.87-3.64-1.55-7.48-1.95-11.05
							C143.06,308.21,143.75,312.04,144.62,315.68z M163.69,285.84c0.38-0.03,0.77-0.06,1.16-0.09
							C164.47,285.78,164.08,285.81,163.69,285.84z M165.02,285.75c0.19-0.02,0.4-0.03,0.6-0.05
							C165.41,285.71,165.21,285.73,165.02,285.75z M165.65,285.7c2.86-0.19,5.82-0.34,8.8-0.43
							C171.48,285.36,168.51,285.51,165.65,285.7z M174.64,285.26c0.18-0.01,0.37-0.01,0.55-0.01
							C175.01,285.25,174.83,285.25,174.64,285.26z M175.24,285.24c0.19,0,0.39-0.01,0.58-0.01
							C175.63,285.23,175.43,285.24,175.24,285.24z M176.24,285.21c0.09-0.01,0.19-0.01,0.29-0.01
							C176.43,285.21,176.33,285.21,176.24,285.21z M177.98,285.17c0.36-0.01,0.73-0.01,1.1-0.02
							C178.71,285.15,178.34,285.16,177.98,285.17z"/>
						<path opacity="0.251" fill="#FFFFFF" d="M195.23,285.16c-2.43-0.05-5.14-0.08-8.01-0.09l-34.47,39.13
							c3.45,1.17,7.46,1.87,11.67,2.23l0.03,0.01c0.32,0.03,0.65,0.05,0.97,0.07c0.19,0.02,0.37,0.03,0.55,0.04
							c0.1,0.01,0.19,0.01,0.29,0.02c1.09,0.06,2.19,0.11,3.3,0.14c5.73,0.12,11.61-0.27,16.86-0.93l23.23-26.33
							c0.19-2.1,0.34-4.16,0.43-6.06c0-0.06,0.01-0.13,0.01-0.2c0.01-0.08,0.01-0.16,0.01-0.25c0.03-0.62,0.05-1.22,0.06-1.81
							c-0.68-5.15-6.3-5.72-8.12-5.76c-0.32-0.01-0.51,0-0.56,0.01C199.75,285.28,197.61,285.21,195.23,285.16z"/>
						<path fill="#695B4E" d="M166.27,326.56c-0.1-0.01-0.19-0.01-0.29-0.02C166.08,326.55,166.17,326.55,166.27,326.56z
							 M165.43,326.5c-0.32-0.02-0.65-0.05-0.97-0.07C164.78,326.46,165.1,326.48,165.43,326.5z M152.73,324.22
							c3.46,1.16,7.47,1.86,11.69,2.21c-4.21-0.36-8.22-1.06-11.67-2.23L152.73,324.22z M209.66,299.44L209.66,299.44
							c0.21-2.12,0.34-4.17,0.43-6.06C210,295.28,209.86,297.34,209.66,299.44z M210.1,293.17c0.01-0.08,0.01-0.16,0.01-0.25
							C210.1,293.01,210.1,293.1,210.1,293.17z M187.24,285.05l-0.02,0.02c2.86,0.01,5.57,0.04,8.01,0.09
							c2.38,0.05,4.52,0.12,6.27,0.21c0.05-0.01,0.24-0.01,0.56-0.01c1.82,0.04,7.43,0.61,8.12,5.76c-0.68-5.15-6.3-5.72-8.12-5.76
							c-0.32-0.01-0.51,0-0.56,0.01c-1.77-0.09-3.92-0.16-6.32-0.21C192.77,285.1,190.09,285.06,187.24,285.05z"/>
						<path opacity="0.251" fill="#FFFFFF" d="M272.35,283.12c-0.32-0.01-0.64,0-0.96,0c-1.82,0.01-3.66,0.04-5.47,0.08
							c-6.46,0.15-12.74,0.46-17.79,0.81l-12.52,14.18c0.07,0.35,0.14,0.7,0.21,1.06v0.01c0.04,0.18,0.08,0.36,0.11,0.55
							c0.01,0.06,0.03,0.13,0.04,0.19c0.03,0.12,0.05,0.23,0.07,0.35c0.05,0.19,0.08,0.38,0.12,0.58l0.01,0.03
							c0.15,0.69,0.3,1.38,0.45,2.06l0.01,0.03c0.05,0.21,0.1,0.42,0.15,0.62c0.01,0.07,0.03,0.14,0.05,0.21
							c0.03,0.14,0.06,0.27,0.1,0.4c0.04,0.15,0.07,0.31,0.11,0.45l0.03,0.11c0.05,0.18,0.09,0.35,0.14,0.53
							c0.01,0.03,0.01,0.06,0.02,0.08c0.62,2.42,1.31,4.76,2.05,6.87c0,0,0.03,0.08,0.05,0.12c0.05,0.14,0.09,0.27,0.14,0.41
							c0.06,0.17,0.13,0.34,0.19,0.51l0,0c0.66,1.72,1.34,3.27,2.07,4.55L272.35,283.12z"/>
						<path fill="#695B4E" d="M239.63,313.35L239.63,313.35L239.63,313.35z M239.45,312.84c-0.05-0.14-0.1-0.27-0.14-0.41
							C239.35,312.57,239.39,312.7,239.45,312.84z M239.26,312.31c-0.74-2.11-1.43-4.45-2.05-6.87
							C237.83,307.86,238.51,310.2,239.26,312.31z M237.19,305.36c-0.05-0.18-0.09-0.35-0.14-0.53
							C237.1,305.01,237.15,305.18,237.19,305.36z M237.03,304.72c-0.04-0.15-0.07-0.31-0.11-0.45
							C236.96,304.41,236.99,304.57,237.03,304.72z M236.82,303.86c-0.01-0.07-0.03-0.14-0.05-0.21
							C236.79,303.72,236.81,303.8,236.82,303.86z M236.64,303.05l-0.01-0.05L236.64,303.05z M236.17,300.95l-0.01-0.03
							L236.17,300.95z M236.04,300.34c-0.02-0.12-0.05-0.23-0.07-0.35C235.99,300.11,236.02,300.22,236.04,300.34z M235.93,299.8
							c-0.03-0.18-0.07-0.36-0.11-0.55C235.86,299.43,235.89,299.61,235.93,299.8z M235.61,298.19c0.07,0.34,0.14,0.69,0.21,1.05
							C235.75,298.89,235.68,298.54,235.61,298.19L235.61,298.19z M265.92,283.2c1.82-0.05,3.65-0.07,5.47-0.08
							C269.56,283.12,267.75,283.15,265.92,283.2z"/>
						<path opacity="0.251" fill="#FFFFFF" d="M279.57,283.19l-33.92,38.48c1.58,0.48,3.95,0.98,6.87,1.43
							c4.4,0.66,10.03,1.2,15.97,1.34c3.29,0.07,6.67,0.01,9.99-0.21l24.5-27.85c-0.26-4.67-1.1-8.38-2.58-9.6
							c-2.19-1.79-7.72-2.79-14.64-3.29C283.8,283.36,281.72,283.26,279.57,283.19z"/>
						<path fill="#695B4E" d="M268.51,324.45c3.28,0.07,6.66,0.02,9.96-0.21l0.01-0.01c-3.32,0.23-6.7,0.29-9.99,0.21
							c-5.93-0.14-11.56-0.68-15.97-1.34C256.93,323.78,262.57,324.32,268.51,324.45z M279.57,283.19c2.15,0.06,4.23,0.16,6.19,0.29
							c-1.96-0.14-4.03-0.24-6.18-0.31L279.57,283.19z"/>
					</g>
				</g>
			</g>
			<polygon fill="#362415" points="305.55,290.36 363.11,278.93 358.98,274.1 302.38,284.07 			"/>
			<g>
				<path fill="#742F16" d="M349,311.46c-6.35-15.57-3.93-33.45,6.87-48.16c7.24-8.93,17.43-15.69,27.94-9.4
					c16.93,10.6,17.06,51.99-3.01,71.66c-7.14,7.72-17.89,7.3-23.97-0.55C354.13,321.61,351.3,317.15,349,311.46z"/>
				<path fill="#E96B42" d="M385.01,275.08c0,0,2.71,7.84-1.6,5.67c-4.32-2.17-17.63-8.08-14.64,1.23
					c2.98,9.31,13.64,14.35,7.61,22.21c-6.02,7.86-6.73,6.68-9.32,4.42c0,0,7.24-4.16,5.88-8.72c-1.36-4.55-0.05-8.47-0.47-8.39
					c-0.42,0.08-7.03-3.1-7.03-3.1l-3.66-8.66l1.93-6.69l12.74-5.49C376.45,267.56,383.31,269.84,385.01,275.08z"/>
				<path fill="#C84830" d="M370.18,267.8c0,0,14.3-1.93,12.86,8.3c-1.44,10.22,1.84-7.38-9.09-4.36
					c-10.93,3.01-10.56,1.41-10.84,7.19c-0.27,5.78,2.77,7.92,9.89,11.04c7.12,3.11-3.26,22.02-6.41,19.14
					c-3.42-3.12,10.13-13.04,4.66-16.12c-5.47-3.07-13.42-8.79-12.13-14.4C360.41,272.99,367.21,268.29,370.18,267.8z"/>
			</g>
			<g>
				<path fill="#7A3218" d="M442.11,694.39h11.58c2.47-53.89,3.26-108.28-0.17-143.16c-1.23-12.53-10.47-25.64-21.85-33.3
					c0,0-0.65-0.07-1.81,0c6.79,7.26,11.59,16.36,12.46,25.17C445.93,579.74,444.87,637.89,442.11,694.39z"/>
				<path fill="#934821" d="M442.11,694.39c2.77-56.5,3.82-114.65,0.22-151.29c-0.87-8.81-5.67-17.91-12.46-25.17
					c-8.02,0.32-40.24,5.6-51.07,68.19c-4.69,27.1-3.99,67.93-1.31,108.27H442.11z"/>
			</g>
			<g>
				<path fill="#F68920" d="M421.71,544.67c8.24,54.98,7.18,113.32,5.19,149.72h34.58c0.9-33.8,0.38-92.09-9.46-156.48
					c-3.6-23.52-47.66-45.57-68.14-25.06c-1.26,1.27-2.77,1.9-3.93,2.9C399.34,517.64,419.39,529.2,421.71,544.67z"/>
				<path fill="#F9A026" d="M426.89,694.39c1.99-36.39,3.05-94.73-5.19-149.72c-2.31-15.47-22.36-27.03-41.76-28.91
					c-0.05,0.01-0.05,0.01-0.05,0.01c-9.36,7.49-10.65,15.14-13.62,38.45c-5.54,43.72-0.63,102.37,3.82,140.17H426.89z"/>
			</g>
			<path fill="#3D1411" d="M218.18,365.28l1.82,6.24c0,0,13.57,15.3,14.32,15.3c0.75,0,31.91-15.65,31.91-15.65l12.62-12.98
				l-2.69,0.51l-29.19,2.84L218.18,365.28z"/>
			<path fill="#66110E" d="M278.84,358.19c-0.58,0.18-3.67,0.64-4.43,0.86c-10.4,3.5-37.02,11.16-56.23,6.25
				c0,0-1.74-18.2,5.88-12.06c7.62,6.14,9.54-1.56,18.1,0.26C265.66,358.47,271.15,359.78,278.84,358.19z"/>
			<path fill="#66110E" d="M233.7,378.6c-1.52,0.01-11.97-2.02-15.52-13.32c0,0,3.03,15.3,7.23,19.13c0,0-0.17-0.16,0,0
				c4.22,5.55,11.75,5.25,11.75,5.25c24.39,0.62,38.95-28.04,41.68-31.47C255.52,374.34,243.03,378.97,233.7,378.6z"/>
			<path fill="#FFFFFF" d="M274.56,359.01c-8.05,6.65-36.05,11.92-45.66,11.13c-9.57-0.8-10.72-4.84-10.72-4.84
				c19.21,4.92,45.83-2.75,56.23-6.25L274.56,359.01z"/>
			<g>
				<path fill="#28110C" d="M161.17,346.44c0,0,0.31,0.44,0.81,1.2c0.48,0.75,1.17,1.82,2.05,3.19c0.87,1.34,1.93,2.9,3.34,4.71
					c0.73,0.92,1.46,1.81,2.53,2.88c0.57,0.57,1.3,1.24,2,2.14c0.79,0.95,1.47,2.27,1.49,3.53c0.07,1.53-0.75,2.96-1.75,3.75
					c-1,0.81-2.14,1.28-3.38,1.69c0,0,0.19-0.66,0.51-1.79c0.12-0.51,0.26-1.18,0.19-1.61c-0.12-0.32-0.36-0.56-0.59-0.63
					c-0.17-0.05-0.33-0.04-0.41,0.02c-0.51-0.28-1.05-0.58-1.6-0.88c-1.67-0.93-3.66-2.54-4.93-4.48
					C158.7,356.33,158.09,350.53,161.17,346.44z"/>
			</g>
			<path fill="#28110C" d="M299.29,186.69c6.64,2.32,69.18,59.3,47.22,120.8c-21.97,61.5,21.56,95.23,67.48,70.01
				c48.82-26.83,115.22-243.46-58.69-311.62c-162.53-63.7-221.84,50.52-221.84,103.23C133.45,221.83,186.17,147.15,299.29,186.69z"
				/>
			<path fill="#28110C" d="M208.91,160.33c0,0-35.14,24.16-16.47,38.44c18.67,14.28-1.82,34.44-4.21,36.98
				c-2.38,2.55,12.99-19.41,2.01-28.2c-10.98-8.79-20.87-38.44-7.69-42.83C195.74,160.33,208.91,160.33,208.91,160.33z"/>
			<path fill="#28110C" d="M188.37,140.84c0,0-12.36,18.12-20.59,42.01c-8.24,23.88,3.29,21.41,2.47,32.12
				c-0.82,10.71-4.67,20.04-1.64,30.47c0,0-8.24-16.47-5.77-26.36c2.47-9.88-20.59-24.71-6.58-46.95
				C170.24,149.9,188.37,140.84,188.37,140.84z"/>
			<g>
				<path fill="#28110C" d="M200.05,175.1c0,0-0.69,0.73-1.99,2.08c-1.25,1.36-3.01,3.36-4.74,6.16c-0.88,1.4-1.62,2.88-1.82,4.07
					c-0.28,1.02,0.12,2.8,1.26,5.4c1.08,2.63,2.13,5.45,3.13,8.65c0.49,1.61,0.93,3.56,0.45,5.35c-0.42,1.74-2.05,3.15-3.23,2.81
					c0,0,0.76-0.71,0.49-2.28c-0.14-0.7-0.56-1.41-1.4-2.57c-0.84-1.09-2.21-2.84-3.41-4.62c-1.24-1.9-2.43-3.6-3.71-6.32
					c-0.61-1.36-1.18-3.03-1.24-4.97c-0.08-1.95,0.45-3.82,1.23-5.32c1.63-2.99,3.95-4.93,6.55-6.44
					C194.24,175.64,197.21,174.92,200.05,175.1z"/>
			</g>
			<g>
				<path fill="#28110C" d="M352.28,301.32c0,0-0.38-0.38-1.13-1.11c-0.69-0.79-1.74-1.98-2.73-3.8c-1.93-3.51-4.11-9.91-1.55-17.84
					c0.64-1.97,1.76-3.94,2.45-5.27c0.73-1.5,0.9-2.15,0.77-2.96c-0.12-0.86-0.93-2.28-2.29-4c-1.27-1.74-3.08-3.78-4.15-6.9
					c-1.86-6.51,1.26-11.34,0.42-15.95c-0.37-2.31-2.01-4.71-3.59-7.16c-1.58-2.39-3.12-5.37-2.34-7.82
					c0.05-0.01,0.05,0.55,0.46,1.4c0.38,0.86,1.23,1.96,2.75,3.34c1.49,1.45,3.75,2.93,6.04,6.05c1.14,1.56,2.04,3.85,2.31,5.97
					c0.3,2.12,0.23,4.16,0.19,5.97c-0.05,1.82-0.04,3.46,0.27,4.67c0.24,1.15,0.86,2.17,2.05,3.72c1.14,1.53,2.77,3.19,4.14,5.84
					c0.66,1.31,1.21,2.96,1.25,4.69c0.08,1.75-0.42,3.45-1.03,4.73c-1.32,2.62-2.75,4.08-3.68,5.87c-0.99,1.8-1.75,3.85-2.18,6.06
					C349.83,291.24,350.11,296.3,352.28,301.32z"/>
			</g>
			<g>
				<path fill="#28110C" d="M339.74,233.18c0,0-0.47-0.08-1.37-0.3c-0.89-0.27-2.22-0.71-3.8-1.66c-1.56-0.95-3.4-2.38-5.03-4.58
					c-1.64-2.17-3.08-5.2-3.45-8.88c-0.34-3.49,0.19-6.79-0.21-9.03c-0.22-1.1-0.46-1.76-1.31-2.66c-0.86-0.9-2.41-1.82-4.27-2.98
					c-1.86-1.12-4-2.89-5.44-4.87c-1.51-1.99-2.58-4.18-3.49-6.41c-1.86-4.45-2.85-9.23-6.08-13.94c0,0,0.51,0.34,1.44,0.98
					c0.87,0.69,2.17,1.77,3.51,3.31c2.79,2.95,5.62,8.1,9.32,11.67c0.96,0.88,1.86,1.6,3.06,2.25c1.24,0.69,2.87,1.4,4.73,2.56
					c1.81,1.11,4.08,3.08,5.13,5.73c1.08,2.6,1.04,5.12,0.82,7.19c-0.52,4.27-1.47,7.21-0.49,11.04
					C333.72,226.31,335.87,230.2,339.74,233.18z"/>
			</g>
			<g>
				<path fill="#28110C" d="M328.45,214.9c0,0-1.55,0.04-4.36-0.78c-2.75-0.85-6.9-2.73-10.65-7.04c-1.84-2.11-3.58-4.98-4.61-8.16
					c-1.05-3.08-1.56-6.21-2.55-8.92c-0.94-2.75-2.47-4.75-6.17-6.37c-3.6-1.55-7.49-3.2-11.64-5.21c0,0,1.93-0.15,5.25-0.1
					c1.66,0.03,3.67,0.1,5.96,0.28c2.18,0.25,5.19,0.47,8.47,2.68c3.22,2.19,5.07,5.77,6.09,8.86c1.07,3.17,1.56,6.16,2.45,8.77
					C318.52,204.3,322.14,210.07,328.45,214.9z"/>
			</g>
			<g>
				<path fill="#28110C" d="M309.22,193c0,0-2.43-1.08-6.92-3.4c-2.19-1.14-4.9-2.56-8.1-4.25c-3.05-1.49-6.54-2.86-9.77-2.37
					c-1.64,0.21-3.78,1.1-6.79,1.92c-1.5,0.38-3.31,0.7-5.32,0.56c-2.02-0.15-3.8-0.76-5.3-1.38c-1.53-0.63-2.75-1.25-3.99-1.73
					c-1.26-0.49-2.6-0.93-4-1.31c-2.8-0.77-5.9-1.32-9.19-1.79c-13.41-1.75-28.87-4.16-45.82-7.65c0,0,14.78-1.07,35.97-0.2
					c5.28,0.27,10.97,0.38,17.3,1.45c3.14,0.56,6.41,1.43,9.58,2.82c1.57,0.71,2.88,1.4,4.05,1.86c1.2,0.47,2.05,0.67,3.26,0.63
					c2.43-0.02,5.65-1.36,9.52-1.56c3.93-0.12,7.45,1.35,10.3,3.19c2.91,1.86,5.36,4.11,7.86,6.33
					C304.38,188.36,306.83,190.65,309.22,193z"/>
			</g>
			<g>
				<path fill="#28110C" d="M223.04,174.94c0,0-2.41,0.15-6.97,0.44c-2.23,0.16-4.97,0.39-7.97,1.01c-1.49,0.31-3.06,0.72-4.63,1.32
					c-1.63,0.56-2.82,1.38-5.58,2.55c-1.34,0.55-3.18,0.91-4.8,0.87c-1.7,0.02-3.23-0.36-4.67-0.77c-2.82-0.89-5.23-2.2-7.43-3.15
					c-2.27-1.01-4.06-1.44-5.4-1.04c-0.68,0.13-1.59,0.73-2.81,1.65c-1.14,0.88-2.92,2.16-4.81,2.82c-3.76,1.33-7.17,1.14-10.1,1.66
					c-2.93,0.52-5.91,1.75-8.71,3.69c-5.66,3.89-10.41,10.14-15.1,16.64c0,0,0.29-0.81,0.84-2.32c0.58-1.49,1.45-3.68,2.79-6.4
					c1.36-2.69,3.12-5.99,6-9.36c2.8-3.35,7.03-6.85,12.69-8.51c2.79-0.79,5.37-1.05,7.37-1.62c1-0.29,1.81-0.62,2.5-1.06
					c0.73-0.45,1.68-1.31,2.99-2.29c1.25-1.01,3.27-2.12,5.4-2.51c2.15-0.4,4.21-0.09,5.94,0.4c3.47,1.03,5.98,2.72,8.41,3.88
					c2.48,1.23,4.45,1.9,6.73,1.4c1.22-0.27,2.69-0.92,4.3-1.34c1.58-0.42,3.18-0.71,4.77-0.82
					C211.18,171.56,217.16,173.12,223.04,174.94z"/>
			</g>
			<g>
				<path fill="#28110C" d="M148.36,187.93c0.01,0.05-0.84,0.24-1.82,1.32c-1,1.1-2.41,3.36-2.92,7.17
					c-0.35,2.05-0.52,4.64-1.36,7.85c-0.42,1.58-1.08,3.38-2.11,5.01c-1,1.63-2.2,3.01-3.43,4.26c-2.43,2.53-5.17,4.49-6.75,7.37
					c-0.8,1.43-1.16,3.25-0.87,5.27c0.25,2.01,1.01,4.1,1.72,6.17c0,0-0.35-0.32-1.01-0.9c-0.64-0.62-1.59-1.51-2.64-2.97
					c-1.01-1.43-2.23-3.71-2.23-6.73c-0.02-3.01,1.31-6.08,2.92-8.47c1.6-2.43,3.44-4.51,4.84-6.49c0.69-1,1.21-1.85,1.7-2.98
					c0.49-1.12,0.91-2.45,1.35-3.91c0.9-2.85,1.83-6.56,4.27-9.35c1.18-1.36,2.64-2.47,4.2-3.01
					C145.79,186.99,147.38,187.19,148.36,187.93z"/>
			</g>
			<g>
				<path fill="#28110C" d="M147.1,168.64c0,0,0.19,0.77,0.36,2.21c0.18,1.44,0.25,3.59,0.19,6.11c-0.05,2.49-0.19,5.43,0.4,7.9
					c0.32,1.23,0.73,2.16,1.71,3.75c0.92,1.56,2.38,3.51,3.6,6.51c1.19,3.08,1.55,6.75,1.01,10.04c-0.5,3.32-1.63,6.3-2.8,9.06
					c-2.38,5.55-5.16,10.46-4.83,15.42c0.15,5.26,4.55,12.08,5.45,20.36c0.95,8.04-1.04,16.67-5.79,23.39c0,0,0.19-0.85,0.53-2.43
					c0.31-1.57,0.66-3.88,0.71-6.77c0.06-2.88-0.18-6.33-1.1-10.04c-0.91-3.84-2.47-7.25-5.05-11.9c-1.23-2.34-2.62-5.04-3.59-8.36
					c-1.03-3.27-1.21-7.51-0.39-11.01c1.55-7.09,5.27-12.4,7.05-17.46c0.93-2.53,1.35-4.85,0.88-7.36
					c-0.46-2.57-2.27-5.66-2.97-9.27c-0.68-3.68,0.23-7.04,1.34-10.14C144.92,175.53,146.38,172.49,147.1,168.64z"/>
			</g>
			<g>
				<path fill="#28110C" d="M172.26,169.05c0,0,0.42,0.88,1.06,2.47c0.66,1.6,1.57,3.92,2.83,6.79c0.62,1.44,1.35,3.01,2.2,4.75
					c0.81,1.74,2.32,4.23,2.61,7.64c0.25,3.31-0.95,6.51-2.79,8.98c-1.84,2.52-4.25,4.52-6.98,6.4c0,0,0.37-1.39,1.05-3.57
					c0.64-2.14,1.66-5.19,1.75-7.94c0.06-1.4-0.11-2.53-0.58-3.93c-0.48-1.42-1.7-3.62-2.45-6.16
					C169.46,179.55,169.69,173.81,172.26,169.05z"/>
			</g>
			<g>
				<path fill="#28110C" d="M442.64,142.86c0,0,0.23,0.29,0.7,0.85c0.44,0.57,1.14,1.4,2.14,2.42c1.92,2.12,5.3,4.78,9.83,9.11
					c2.22,2.19,4.78,4.96,6.76,8.8c1.95,3.89,2.88,8.63,2.6,13.21c-0.18,4.64-1.2,9.19-2.2,13.94c-0.96,4.75-1.99,9.79-1.15,15.62
					c0,0-0.3-0.55-0.84-1.57c-0.54-1.03-1.23-2.64-1.75-4.71c-1.21-4.18-1.41-10.3-1.27-16.78c0.03-3.24,0.05-6.57-0.39-9.78
					c-0.42-3.24-1.34-6.21-3.2-9.4c-1.84-3.18-4.4-6.45-6.73-10.06C444.81,150.94,442.84,146.8,442.64,142.86z"/>
			</g>
			<g>
				<path fill="#28110C" d="M458.6,199.22c0,0,0.12,0.32,0.35,0.96c0.25,0.63,0.62,1.55,1.28,2.69c1.25,2.35,3.81,5.43,7.63,10.1
					c1.91,2.45,4.03,5.42,5.51,9.43c0.72,2,1.27,4.3,1.21,6.82c0,2.5-0.77,5.19-1.95,7.32c-1.17,2.16-2.62,3.95-3.95,5.68
					c-1.32,1.71-2.59,3.53-3.78,5.56c-2.37,4.03-4.43,8.75-5.74,14.2c0,0-0.56-2.35-0.46-6.53c0.1-4.13,1.07-10.25,4.48-16.56
					c1.65-3.05,3.31-5.67,3.65-8.04c0.45-2.42-0.2-5.53-1.62-8.88c-1.36-3.34-3.53-6.84-5.21-10.8
					C458.31,207.32,457.35,202.74,458.6,199.22z"/>
			</g>
			<g>
				<path fill="#28110C" d="M453.25,217.82c0,0,0.58,1.61,1.82,4.53c1.26,2.9,3.24,7.08,6.66,11.86c1.75,2.41,3.74,4.8,6.43,7.44
					c1.37,1.43,3.41,3.32,4.42,6.57c0.95,3.3,0.03,6.45-1.1,8.77c-2.38,4.53-5.31,8.44-8.98,12.41c-3.64,3.9-8.01,7.49-12.95,10.49
					c0,0,1.49-1.99,3.83-5.42c2.34-3.43,5.47-8.34,8.56-14.35c1.49-2.95,3.44-6.6,3.46-8.56c0.04-0.93-0.12-1.56-1.19-2.96
					c-0.99-1.25-2.76-3-4.12-4.86C454.42,236.4,451.69,226.52,453.25,217.82z"/>
			</g>
			<g>
				<path fill="#28110C" d="M452.13,239.99c0,0,0.58,1.61,1.81,4.53c1.26,2.9,3.24,7.09,6.66,11.86c1.75,2.41,3.73,4.8,6.43,7.44
					c1.38,1.43,3.42,3.32,4.42,6.57c0.95,3.3,0.03,6.45-1.1,8.77c-2.37,4.53-5.31,8.44-8.98,12.41c-3.64,3.9-8.01,7.49-12.95,10.49
					c0,0,1.49-1.99,3.83-5.42c2.34-3.43,5.47-8.34,8.56-14.35c1.49-2.96,3.45-6.6,3.45-8.56c0.05-0.93-0.12-1.56-1.18-2.97
					c-0.98-1.25-2.75-2.99-4.12-4.85C453.3,258.57,450.56,248.69,452.13,239.99z"/>
			</g>
			<g>
				<path fill="#28110C" d="M444.97,273.6c0,0,3.86,5.92,8.79,17.7c0.58,1.44,1.34,2.94,1.66,5.76c0.14,1.36-0.1,3.12-0.68,4.44
					c-0.56,1.36-1.31,2.42-2.02,3.32c-2.7,3.16-5.33,5.99-8.48,9.27c-3.1,3.31-6.63,6.2-8.27,10.44c-0.81,2.15-1.22,5.16-2.93,7.39
					c-1.51,2.25-3.93,3.93-4.44,7.58c0,0-0.24-0.74-0.16-2.16c0.06-1.4,0.71-3.32,1.46-5.21c0.84-2.05,0.97-3.27,1-6.27
					c0.03-1.42,0.21-3.44,0.86-5.32c0.6-1.88,1.53-3.66,2.56-5.29c2.13-3.27,4.45-5.97,7.01-9.04c1.28-1.5,2.62-3.01,4.02-4.53
					c1.46-1.52,2.5-2.64,2.79-3.39c0.42-0.68,0.11-2.77-0.44-4.88c-0.47-2.08-0.89-4.21-1.25-6.37
					C445.7,282.7,445.2,278.21,444.97,273.6z"/>
			</g>
			<g>
				<path fill="#28110C" d="M434.55,315.02c0,0,0.2,0.95,0.73,2.5c0.54,1.59,1.61,3.8,3.35,7.54c0.86,1.96,1.82,4.06,2.65,7.4
					c0.55,2.09,0.6,5.29-0.58,7.58c-1.28,2.58-2.77,3.56-4.06,4.43c-2.74,1.7-5.43,2.15-8.01,3.08c-1.27,0.45-2.58,1.14-3.82,2.25
					c-1.22,1.1-2.46,2.79-2.88,5.34c0.08,0.09-0.97-2.22,0.05-6.03c0.5-1.85,1.46-3.84,2.89-5.61c1.5-1.86,3.23-3.19,4.88-4.42
					c1.58-1.14,3.21-2.4,3.94-3.21c0.09-0.03,0.18,0.03,0.32-0.11c0.24,0.23-0.07-1.53-0.29-2.74c-0.47-2.65-1.18-5.77-1.36-9.12
					C432.16,320.61,432.76,316.92,434.55,315.02z"/>
			</g>
			<g>
				<path fill="#28110C" d="M349.92,359.93c0.01-0.1-1.27,0.85-4.05,0.56c-2.72-0.27-6.51-2.24-8.69-6.51
					c-2.37-4.62-1.52-10.27,0.56-15c1.03-2.42,2.33-4.66,3.5-7.17c1.14-2.51,2.34-5.33,2.15-9.05c0,0,0.26,0.29,0.68,0.91
					c0.4,0.62,0.93,1.58,1.35,2.9c0.89,2.61,1.05,6.58,0.23,10.56c-0.75,3.98-2.12,7.69-2.59,11.34c-0.27,1.75-0.16,3.7,0.68,5.91
					C344.57,356.44,346.24,359.03,349.92,359.93z"/>
			</g>
			<g>
				<path fill="#28110C" d="M437.2,144.75c0,0-0.03-1.21-0.09-3.45c-0.05-1.08-0.15-2.39-0.42-3.68c-0.29-1.3-0.81-2.39-1.45-2.83
					c-0.36-0.27-0.63-0.48-1.43-0.68c-0.75-0.22-1.92-0.36-3.42-0.59c-1.48-0.26-3.44-0.56-5.51-1.82
					c-2.08-1.25-3.46-3.27-4.21-5.05c-1.53-3.71-1.66-6.58-3.44-9.73c-1.66-3.11-4.19-6.29-7.98-8.82c0,0,0.48,0.03,1.38,0.18
					c0.9,0.14,2.21,0.44,3.8,1.08c3.14,1.23,7.61,4.11,10.47,9.51c1.3,2.53,2.27,4.84,3.17,5.71c0.42,0.42,0.79,0.74,1.94,1.1
					c1.07,0.34,2.61,0.58,4.38,1.11c1.74,0.49,3.94,1.57,5.25,3.33c1.38,1.73,1.8,3.82,1.68,5.6
					C441.07,139.3,439.28,142.2,437.2,144.75z"/>
			</g>
			<g>
				<path fill="#28110C" d="M415.28,116.12c0,0-0.03-0.29-0.08-0.84c-0.06-0.55-0.16-1.36-0.39-2.37c-0.44-1.99-1.52-4.96-4-7.66
					c-1.3-1.43-2.56-2.25-5.36-3.8c-1.34-0.77-3.05-1.79-4.56-3.41c-1.46-1.57-2.4-3.3-3.2-4.86c-0.81-1.58-1.44-3.01-2.34-4.25
					c-0.92-1.28-2.12-2.51-3.6-3.59c-2.97-2.11-7.09-3.68-12.01-3.21c0,0,0.44-0.29,1.31-0.75c0.89-0.42,2.25-0.99,4.1-1.32
					c3.58-0.65,9.6-0.29,14.78,4.35c2.64,2.41,4.08,5.37,5.48,7.18c0.71,0.95,1.25,1.52,2.33,2.32c1.06,0.79,2.48,1.61,4,2.77
					c3.18,2.4,5.32,6.02,5.89,9.67C418.26,109.99,417.36,113.74,415.28,116.12z"/>
			</g>
			<g>
				<path fill="#28110C" d="M431.04,128.02c0,0-0.25-0.89-0.62-2.4c-0.39-1.49-0.89-3.62-1.91-5.55c-0.52-0.98-1.18-1.95-1.99-2.71
					c-0.67-0.73-2.13-1.38-4.55-2.47c-2.52-1.11-4.95-3.23-6.42-5.67c-1.55-2.46-2.44-5.23-3.21-8.25c0,0,1.14,0.73,2.87,1.99
					c1.72,1.24,4.05,3.01,6.43,4.08c1.19,0.57,2.29,0.82,4.51,1.55c1.06,0.36,2.32,0.86,3.59,1.71c1.27,0.86,2.32,1.97,3.08,3.2
					c1.53,2.44,1.97,5.3,1.52,7.82C433.91,123.85,432.69,126.07,431.04,128.02z"/>
			</g>
			<g>
				<path fill="#28110C" d="M386.63,85.25c0,0-1.62-0.81-4.53-2.58c-1.45-0.88-3.23-2.01-5.29-3.4c-1.97-1.37-4.25-2.95-6.81-4.73
					c-1.15-0.73-2.19-1.26-3.26-1.51c-1.14-0.27-2.61-0.34-4.48-0.29c-1.85,0.03-4.08,0.19-6.69-0.17
					c-2.66-0.34-5.32-1.46-7.45-2.87c-4.38-2.87-7.32-6.42-11.65-8.99c-4.29-2.66-9.49-4.79-15.55-5.69c0,0,0.63-0.16,1.84-0.36
					c1.2-0.21,2.99-0.42,5.29-0.4c4.49,0.03,11.41,1.27,17.93,5.56c3.12,1.96,6,4.03,8.76,4.82c1.32,0.4,2.92,0.52,4.94,0.53
					c2,0.03,4.37-0.05,6.97,0.47c2.66,0.48,5.25,1.97,6.97,3.6c1.8,1.64,3.19,3.32,4.7,5.04C381.27,77.71,384.07,81.38,386.63,85.25
					z"/>
			</g>
			<g>
				<path fill="#28110C" d="M341.04,66c0,0-1.86-0.42-5.29-1.47c-1.72-0.53-3.83-1.21-6.3-2.09c-1.23-0.45-2.56-0.93-3.97-1.45
					c-1.43-0.55-2.84-1.12-4.1-1.47c-1.32-0.35-2.24-0.45-3.38-0.25c-1.22,0.2-2.84,0.86-4.98,1.63c-1.07,0.37-2.3,0.75-3.72,0.98
					c-1.41,0.23-3.08,0.23-4.56-0.08c-3.03-0.62-5.35-2.07-7.4-3.34c-2.05-1.32-3.84-2.38-6.1-3.26c-2.21-0.88-4.68-1.53-7.32-1.97
					c-5.29-0.91-11.25-0.93-17.47-1.03c0,0,2.45-0.99,6.92-2.21c4.43-1.09,11.16-2.82,19.63-0.97c2.05,0.48,4.3,1.26,6.27,2.26
					c1.93,0.97,3.63,1.94,5.12,2.51c1.57,0.58,2.48,0.78,4.11,0.49c1.64-0.27,3.73-1.14,6.37-1.72c1.31-0.29,2.82-0.45,4.34-0.3
					c1.5,0.16,2.86,0.6,4.06,1.14c2.42,1.12,4.27,2.47,6.28,3.79C333.5,59.87,337.36,62.8,341.04,66z"/>
			</g>
			<g>
				<path fill="#28110C" d="M313.68,58.67c0,0-1.29-0.46-3.55-1.49c-2.26-0.99-5.45-2.62-9.38-4.03c-1.94-0.68-4.14-1.27-6.49-1.54
					c-1.18-0.14-2.4-0.16-3.65-0.06c-1.25,0.1-2.45,0.35-4.05,0.84c-1.56,0.46-3.38,1.1-5.52,1.41c-2.14,0.31-4.33,0.08-6.36-0.47
					c-4.08-1.16-7.51-3.58-10.93-6.32c0,0,1.82,0.3,4.92,0.81c2.99,0.47,7.21,1.06,10.72-0.23c1.82-0.58,4.17-2.14,7.84-3.14
					c3.62-0.95,7.5-0.69,10.94,0.45C305.27,47.22,310.06,52.65,313.68,58.67z"/>
			</g>
			<g>
				<path fill="#28110C" d="M283.11,52.6c0,0-0.32-0.09-0.92-0.27c-0.58-0.21-1.47-0.46-2.6-0.8c-2.28-0.61-5.66-1.35-10.01-1.44
					c-4.36-0.05-9.69,0.44-15.56,3.16c-0.83,0.38-1.84,0.9-3.16,1.23c-1.34,0.34-2.79,0.28-3.92,0.03
					c-2.33-0.56-3.84-1.39-5.79-2.01c-3.77-1.32-7.97-2.45-12.67-3.19c0,0,1.9-0.75,5.36-1.32c1.73-0.28,3.86-0.49,6.29-0.47
					c1.22,0.01,2.51,0.07,3.88,0.22c1.4,0.15,2.75,0.4,3.56,0.39c0.94-0.06,0.79-0.05,1.81-0.57c0.89-0.54,2.67-1.64,4.25-2.3
					c3.27-1.43,6.97-2.24,10.7-2.22c3.73,0.04,7.49,0.89,10.8,2.53C278.45,47.21,281.28,49.68,283.11,52.6z"/>
			</g>
			<g>
				<path fill="#28110C" d="M240.68,55.46c0,0-1.21-0.29-3.48-0.82c-2.25-0.49-5.53-1.15-9.73-1.34c-2.14-0.1-4.38-0.05-5.66,0.5
					c-0.63,0.27-1.02,0.49-1.74,1.47c-0.7,0.95-1.41,2.47-2.61,4.2c-1.16,1.79-3.36,3.5-5.46,4.15c-2.14,0.72-4.21,0.8-6.2,0.77
					c-2.01-0.03-3.96-0.23-6.02-0.15c-2.02,0.09-4.33,0.52-6.36,2.25c0,0,0.23-0.49,0.79-1.41c0.62-0.82,1.75-2.06,3.43-2.97
					c1.66-0.93,3.73-1.63,5.84-2.23c2.06-0.62,4.36-1.18,5.75-2.07c0.73-0.44,1.16-0.84,1.58-1.42c0.45-0.62,0.95-1.71,1.68-3.17
					c0.72-1.4,1.75-3.35,3.73-4.9c1.97-1.53,4.29-2.08,6.25-2.15c3.97-0.05,7.23,1.06,10.42,2.62
					C236.01,50.41,238.73,52.72,240.68,55.46z"/>
			</g>
			<g>
				<path fill="#28110C" d="M215.77,64.12c0,0-1.47,0.71-4.44,1.53c-2.9,0.82-7.6,1.7-13.26,1.66c-2.67,0.02-5.03,0.23-6.3,1.18
					c-1.53,0.87-2.95,4.05-5.31,7.83c-2.38,3.6-5.38,6.64-8.25,10.01c-2.77,3.38-5.75,7.24-6.57,12.81c0,0-0.2-0.56-0.38-1.67
					c-0.18-1.1-0.32-2.76-0.07-4.82c0.33-4.15,2.8-9.69,6.01-14.84c0.74-1.27,1.51-2.58,2.3-3.93c0.76-1.34,1.36-2.56,2.16-4.2
					c0.8-1.59,1.75-3.48,3.4-5.31c1.61-1.86,4.25-3.33,6.62-3.67c2.4-0.41,4.53-0.14,6.47,0.2c1.88,0.37,3.77,0.75,5.67,1.14
					C207.64,62.78,211.62,63.48,215.77,64.12z"/>
			</g>
			<g>
				<path fill="#28110C" d="M185.28,80.83c0,0-0.73,1.16-2.45,2.84c-1.64,1.68-4.51,3.69-6.87,5.97c-1.2,1.23-2.01,2.23-2.73,4.05
					c-0.82,1.84-1.28,4.83-3.36,8.16c-2.23,3.4-5.54,4.93-8.42,6.48c-1.46,0.78-2.89,1.64-4.21,2.89c-1.28,1.24-2.52,2.97-2.68,5.38
					c0.09,0.09-1.24-1.99-0.27-5.53c0.46-1.71,1.43-3.56,2.84-5.32c1.42-1.74,3.06-3.23,4.38-4.67c1.39-1.55,1.98-2.42,2.69-4.51
					c0.75-2.01,1.32-5.18,3.55-8.21c2.21-2.94,5.3-4.43,8.19-5.31C178.92,82.14,181.9,81.82,185.28,80.83z"/>
			</g>
			<g>
				<path fill="#28110C" d="M180.16,83.26c0,0-1,0.17-2.61,0.9c-1.58,0.75-3.87,2.25-5.95,5.03c-2.14,2.8-3.94,7.19-5.95,13.25
					c-0.55,1.55-1.18,3.29-2.21,5.03c-0.97,1.73-2.61,3.42-4.32,4.38c-1.69,1.04-3.44,1.7-5.17,2.6c-1.67,0.88-3.6,2.09-4.49,4.58
					c0,0-0.11-0.54,0.02-1.58c0.1-1.04,0.64-2.58,1.69-4.05c1.01-1.48,2.45-2.89,3.74-4.27c0.64-0.69,1.23-1.39,1.64-2.04
					c0.41-0.62,0.69-1.28,0.98-2.16c0.59-1.71,0.95-4.19,1.75-7.11c0.79-2.84,1.95-5.9,3.87-8.74c1.87-2.81,4.67-5.38,7.92-6.55
					C174.26,81.27,177.96,81.49,180.16,83.26z"/>
			</g>
			<g>
				<path fill="#28110C" d="M166.11,107.06c0,0-4.44,5.08-13.49,12.28c-0.95,0.77-1.49,1.68-1.33,1.43c0,0-0.06-0.08-0.01,0.11
					c0.09,0.28,0.41,0.84,0.89,1.58c2.14,3.29,4.29,7.55,4.42,12.75c0.08,2.56-0.58,5.35-1.78,7.62c-1.18,2.31-2.74,4.23-4.33,6.08
					c-3.27,3.66-6.83,7.42-10.69,11.22c0,0,0.82-2.2,2.46-5.8c0.82-1.79,1.85-3.94,3.08-6.33c1.25-2.41,2.71-5.08,3.5-7.53
					c0.78-2.42,0.75-4.71-0.12-7.65c-0.44-1.43-1.06-2.92-1.86-4.44c-0.4-0.77-0.8-1.43-1.4-2.49c-0.55-1.02-1.28-2.36-1.43-4.27
					c-0.14-1.75,0.59-3.62,1.56-4.78c0.95-1.14,1.97-1.85,2.92-2.44c1.88-1.06,3.75-1.93,5.68-2.84
					C158.04,109.8,162.04,108.26,166.11,107.06z"/>
			</g>
			<g>
				<path fill="#28110C" d="M147.49,133.14c0,0-0.49,0.96-1.51,2.64c-1.02,1.68-2.57,4.06-4.62,7.06c-0.95,1.43-2.45,3.45-2.81,4.26
					c-0.18,0.42-0.31,0.4-0.21,1.29c0.09,0.77,0.57,2.14,0.84,3.59c0.29,1.43,0.56,2.9,0.79,4.42c0.24,1.45,0.45,3.19,0.06,5.16
					c-0.42,2.01-1.86,3.52-3.39,4.27c-1.54,0.81-3.2,1.16-4.95,1.43c0,0,0.26-0.27,0.73-0.77c0.46-0.49,1.14-1.21,1.77-2.07
					c0.64-0.86,1.08-1.9,0.95-2.56c-0.1-0.51-0.44-1.62-1.34-3.62c-0.84-1.86-1.41-3.68-2.28-6.04c-0.45-1.27-1.06-3.12-0.75-5.38
					c0.34-2.23,1.43-3.79,2.39-4.9C136.9,137.85,141.77,134.65,147.49,133.14z"/>
			</g>
			<g>
				<path fill="#28110C" d="M164.64,101.49c0,0-0.79,0.85-2.36,2.31c-1.56,1.47-3.88,3.53-6.88,6.13c-2.21,1.94-1.45,1.2-1.72,1.4
					c0,0-0.04,0.01-0.03,0.07c0.12,0.29,0.24,0.65,0.36,0.98c0.23,0.68,0.45,1.37,0.69,2.07c0.45,1.42,0.9,2.88,1.31,4.41
					c0.32,1.57,0.58,3.31,0.51,5.2c-0.05,1.88-0.56,3.93-1.55,5.59c-1.99,3.38-5.17,5.31-8.54,7.15c0,0,0.75-1.43,2.03-3.83
					c0.58-1.16,1.23-2.53,1.59-3.95c0.37-1.47,0.41-2.68,0.08-4.29c-0.29-1.59-1.07-3.75-1.98-5.99c-0.42-1.12-0.81-2.29-1.16-3.51
					c-0.05-0.17-0.06-0.27-0.18-0.53l-0.36-0.9c-0.21-0.6-0.36-1.22-0.42-1.84c-0.13-1.23,0.14-2.49,0.79-3.53
					c0.61-1.03,1.69-1.9,2.56-2.45c0.65-0.36,1.31-0.72,1.98-1.05c1.34-0.66,2.75-1.25,4.19-1.74
					C158.43,102.22,161.5,101.61,164.64,101.49z"/>
			</g>
			<g>
				<path fill="#28110C" d="M141.77,155.94c0,0-0.72,0.89-2.16,2.33c-1.42,1.45-3.59,3.42-5.86,5.91c-2.27,2.4-4.36,5.69-6.92,10.6
					c-0.66,1.21-1.34,2.46-2.05,3.77c-0.67,1.22-1.25,2.26-1.36,3.46c-0.13,1.26,0.53,3.06,0.4,4.88c-0.07,0.92-0.51,1.73-1.08,2.26
					c-0.59,0.57-1.3,0.55-1.46,0.19c0.08-0.06,0.24-0.31-0.08-1.62l-0.1-0.13c-0.02,0.09-0.07-0.06-0.14-0.27
					c-0.06,0.06-0.22-0.3-0.38-0.48c-0.31-0.47-0.77-1.08-1.31-2.06c-0.53-0.9-1.1-2.56-1.12-4.1c-0.05-1.55,0.23-2.93,0.54-4.12
					c0.6-2.23,1.28-4.42,2.36-6.86c1.08-2.4,2.55-4.92,4.64-7.1C129.97,158.07,135.77,156.37,141.77,155.94z"/>
			</g>
			<g>
				<path fill="#28110C" d="M125.08,182.88c0,0-0.79,1.5-2.44,4.18c-1.64,2.68-4.19,6.49-7.12,11.35c-1.45,2.43-2.94,5.16-4.32,8.21
					c-0.67,1.55-1.37,3.16-1.75,4.64c-0.42,1.49-0.49,2.81-0.28,4.84c0.21,1.95,0.57,4.43,0.59,6.81c0.05,2.42-0.12,4.89-0.51,7.38
					c-0.77,4.99-2.51,10.05-5.25,14.66c0,0,0.31-2.29,0.46-6.1c0.14-3.81,0.03-9.14-1.08-15.15c-0.29-1.54-0.6-2.97-1.03-4.72
					c-0.4-1.76-0.89-3.92-0.77-6.46c0.42-5.09,2.49-8.68,4.67-12.39C110.9,192.83,117.64,187.28,125.08,182.88z"/>
			</g>
			<g>
				<path fill="#28110C" d="M112.48,231.09c0,0-0.42,8.09-3.4,22.26c-0.39,1.77-0.81,3.63-1.24,5.6c-0.48,2.04-0.97,3.86-0.88,4.93
					c-0.01,1.03,0.72,2.66,1.9,4.86c1.21,2.3,2.25,4.92,2.91,7.66c0.34,1.38,0.59,2.79,0.75,4.23c0.18,1.44,0.18,2.99,0.23,4.14
					c0.08,1.21,0.2,2.04,0.7,2.8c0.55,0.82,1.69,1.66,2.88,2.7c4.64,4.05,8.13,9.73,9.4,15.94c0,0-0.37-0.56-1.08-1.59
					c-0.72-1.01-1.79-2.45-3.33-4.06c-1.53-1.62-3.53-3.41-6-5.05c-1.31-0.9-2.38-1.36-4.4-2.62c-0.96-0.63-2.21-1.66-3.08-3.13
					c-0.85-1.42-1.21-2.84-1.45-4.04c-0.17-0.99-0.34-1.99-0.51-3.02c-0.17-0.9-0.38-1.8-0.63-2.71c-0.5-1.81-1.16-3.64-1.99-5.44
					c-0.74-1.75-2.08-3.6-3.15-6.56c-0.51-1.43-0.81-3.32-0.65-4.94c0.14-1.62,0.55-2.98,0.93-4.18
					C103.42,249.59,107.37,240.05,112.48,231.09z"/>
			</g>
			<g>
				<path fill="#28110C" d="M142.51,133.82c0,0-4.27,6.88-13.73,17.85c-1.19,1.36-2.46,2.79-3.79,4.3c-1.4,1.55-2.71,2.92-3.16,3.9
					c-0.51,0.89-0.65,2.67-0.68,5.17c-0.05,2.6-0.4,5.4-1.15,8.11c-0.37,1.37-0.83,2.73-1.39,4.07c-0.54,1.34-1.29,2.7-1.8,3.73
					c-0.52,1.1-0.81,1.88-0.74,2.79c0.07,0.99,0.68,2.27,1.21,3.75c2.1,5.79,2.42,12.45,0.53,18.5c0,0-0.06-0.67-0.18-1.91
					c-0.14-1.23-0.39-3.02-0.95-5.17c-0.56-2.16-1.44-4.69-2.82-7.31c-0.71-1.42-1.42-2.34-2.58-4.42
					c-0.54-1.02-1.14-2.52-1.18-4.23c-0.06-1.65,0.31-3.08,0.68-4.23c0.33-0.95,0.67-1.91,1.01-2.9c0.29-0.86,0.54-1.76,0.76-2.68
					c0.44-1.82,0.74-3.75,0.88-5.73c0.19-1.88-0.08-4.15,0.41-7.27c0.24-1.5,0.9-3.3,1.82-4.64c0.9-1.34,1.91-2.34,2.83-3.21
					C125.64,145.64,133.7,139.2,142.51,133.82z"/>
			</g>
			<g>
				<path fill="#28110C" d="M125.53,297.89c0,0,1.36,3.42,1.55,9.6c0.01,1.09,0.01,2.3,0.03,3.62c-0.14,0.31,0.69,1.49,2.44,3.1
					c1.84,1.72,3.36,4.08,4.42,6.42c1.14,2.37,1.97,4.91,3.8,7.6c0,0-1.42-0.25-3.43-1.41c-2.04-1.1-4.49-3.19-6.75-5.01
					c-1.13-0.94-2.13-1.48-4.05-3.02c-0.89-0.75-1.95-1.75-2.77-3.25c-0.88-1.47-1.14-3.51-0.93-4.79
					C120.7,306.25,122.5,302.18,125.53,297.89z"/>
			</g>
			<g>
				<path fill="#28110C" d="M122.44,292.85c0,0-0.12,0.93-0.66,2.14c-0.25,0.6-0.58,1.24-0.77,1.77c-0.03,0.31,0.14,0.34,0.24,0.42
					c0.07,0.03,0.14,0.02,0.16,0.01c0.36,0.49,0.74,1,1.14,1.55c0.91,1.27,1.92,2.68,3.05,4.25c1.22,1.66,2.56,3.48,4.03,5.49
					c0.78,1.16,1.56,2.62,1.6,4.17c0.08,1.49-0.71,3.03-1.76,3.2c0,0,0-0.58-0.49-1.2c-0.23-0.31-0.56-0.68-0.99-0.95
					c-0.53-0.29-1.12-0.61-1.77-0.96c-0.79-0.42-1.95-1.03-3.18-1.94c-1.19-0.88-2.36-1.94-3.41-3.19
					c-1.06-1.25-1.99-2.68-2.71-4.25c-0.38-0.81-0.65-1.56-0.95-2.53c-0.42-1.12-0.61-2.45-0.26-3.53c0.43-1.48,1.74-2.42,2.85-2.78
					C119.71,294.07,120.98,293.89,122.44,292.85z"/>
			</g>
			<g>
				<path fill="#28110C" d="M136.01,321.2c0.01,0.03,0.11,0.41,0.49,0.98c0.43,0.66,0.88,1.18,2.84,2.8
					c2.17,1.81,4.82,4.01,7.97,6.62c0.92,0.82,1.99,1.86,2.77,3.36c0.82,1.51,0.93,3.42,0.49,4.83c-0.85,2.92-2.97,4.33-3.95,7.64
					c0,0-0.16-0.33-0.36-0.99c-0.2-0.65-0.35-1.62-0.41-2.76c-0.06-1.1-0.01-2.4-0.15-3.41c-0.14-1.1-0.48-1.32-0.79-1.5
					c-0.48-0.55-5.27-2.96-7.86-6.3c-1.35-1.66-2.79-3.57-3.44-6.08c-0.31-1.21-0.27-2.53,0.2-3.56
					C134.24,321.81,135.16,321.12,136.01,321.2z"/>
			</g>
			<g>
				<path fill="#28110C" d="M348.09,233.83c0,0,0.78,0.86,1.62,2.87c0.81,1.99,1.62,5.28,0.77,9.41c-0.41,2.05-1.26,4.28-2.73,6.41
					c-1.42,2.15-3.68,4.09-5.87,5.36c-2.2,1.34-4.47,2.29-6.51,3.77c-1.01,0.77-2.01,1.73-2.8,2.99c-0.78,1.25-1.38,2.93-1.1,4.92
					c0.1,0.01-1.47-1.23-1.72-4.37c-0.12-1.52,0.16-3.34,0.95-5.19c0.77-1.88,2.21-3.73,3.67-5.17c1.49-1.49,3.08-2.73,4.43-3.88
					c1.31-1.13,2.49-2.25,3.69-3.81C344.81,244.08,347.22,239.96,348.09,233.83z"/>
			</g>
			<g>
				<path fill="#28110C" d="M279.77,165.67c0,0,0.94,0.44,2.56,1.53c1.6,1.1,3.93,2.82,6.45,5.77c2.43,2.94,5.32,7.26,5.88,13.33
					c0.24,2.93-0.19,6.12-1.56,9.05c-1.34,2.92-3.8,5.52-6.77,6.45c0,0,0.69-1.17,1.25-3.09c0.55-1.93,0.83-4.63,0.46-7.8
					c-0.32-3.2-1.29-6.55-2.99-10.73C283.46,176.06,281.17,171.25,279.77,165.67z"/>
			</g>
			<path fill="#28110C" d="M207.03,170.77c0.2,3.11-3.29-0.55-38.43,14.28c-35.15,14.82-32.95,26.91-41.19,36.24
				c-8.24,9.33,6.59-51.07,10.43-52.17C141.69,168.02,205.94,153.74,207.03,170.77z"/>
			<path fill="#28110C" d="M193.41,88.3c0,0-60.77,14.02-71.72,64.82c-10.95,50.8-10.99,63.19-10.99,63.19L193.41,88.3z"/>
			<path fill="#28110C" d="M341.77,350.18c0,0-12.42,27.61,7.16,28.81c19.58,1.18,31.13-18.06,31.13-18.06l-4.97,1.9
				c0,0-18.65,14.66-22.57,9.32c-3.92-5.34,2.33-20.54,2.33-20.54L341.77,350.18z"/>
			<path fill="#28110C" d="M433.86,123.21c0,0,1.95,2.56,9.4,5.95c7.45,3.39,3.57,8.13,10.42,19.08
				c6.85,10.95,1.88,22.51,3.92,26.61c2.03,4.09,9.82,10.07,11.28,19.1c1.47,9.03-1.25,23.88-1.25,23.88l-58.37,36.83l-32.59-102.35
				L433.86,123.21z"/>
			<path fill="#28110C" d="M302.33,54.25c0.78-0.19,4.63-7.69,13.04-1.8c8.4,5.9,12.32,5.87,13.75,6.22
				c1.43,0.36-18.43,5.77-18.88,5.62C309.77,64.14,302.33,54.25,302.33,54.25z"/>
			<path fill="#28110C" d="M372.92,76.56c0,0,16.38-2.99,19.32,5.87c2.93,8.86-5.25,9.42-5.25,9.42L372.92,76.56z"/>
			<path fill="#28110C" d="M460.81,282.28c0,0,12.51,6.01,3.91,24.26c-8.59,18.25-10.1,26-13.11,39.74
				c-3.01,13.73-32.2,14.27-32.2,14.27l12.19-11.38c0,0,11.28,12.34,2.85,23.78c-8.43,11.44-51.31,0-51.31,0L460.81,282.28z"/>
			<path fill="#28110C" d="M361.78,374.15c0,0,0.44,26.49,14.89,19.86c14.45-6.62,24.08-1.5,27.99-6.62
				c3.92-5.12,12.34-17.15,12.34-17.15L361.78,374.15z"/>
			<path fill="#28110C" d="M136.49,322.18c0,0-14.31,7.74,1.27,19.47c15.58,11.74,12.71,17.02,16.86,22.96
				c4.14,5.93,11.12-4.45,18.76,9.32c7.65,13.77,4.57,18.28,14.99,18.89s14.57,0,14.57,0L136.49,322.18z"/>
		</g>
	</g>
</g>
</svg>
