<?xml version="1.0" encoding="utf-8"?>
<!-- Generator: Adobe Illustrator 25.2.3, SVG Export Plug-In . SVG Version: 6.00 Build 0)  -->
<svg version="1.1" id="Layer_1" xmlns="http://www.w3.org/2000/svg" xmlns:xlink="http://www.w3.org/1999/xlink" x="0px" y="0px"
	 viewBox="0 0 576 576" enable-background="new 0 0 576 576" xml:space="preserve">
<g>
	<g>
		<defs>
			<path id="SVGID_1_" d="M576,288c0,159.06-128.94,288-288,288S0,447.06,0,288S128.94,0,288,0S576,128.94,576,288z"/>
		</defs>
		<use xlink:href="#SVGID_1_"  overflow="visible" fill="#F9E3D9"/>
		<clipPath id="SVGID_2_">
			<use xlink:href="#SVGID_1_"  overflow="visible"/>
		</clipPath>
		<g clip-path="url(#SVGID_2_)">
			<g>
				<polygon fill="#171617" points="386.03,348.97 421.96,440.92 389.5,456.8 364.03,355.58 				"/>
				<polygon fill="#171617" points="353.39,357.54 344.34,455.84 379.93,462.11 376.36,357.8 				"/>
			</g>
			<path fill="#4C4D63" d="M57.08,775.8c-1.98-48.19,2.95-138.45,54.62-222.97c0.09-0.15,0.18-0.3,0.27-0.45
				c10.01-16.29,23.01-30.52,38.14-42.22l21.83-18.83c0,0,0.02,0.18,0.12,0.51c1.54,8.34,24.4,125.24-41.28,283.97H57.08z"/>
			
				<rect x="248.34" y="387.53" transform="matrix(-1 -1.224647e-16 1.224647e-16 -1 585.0009 897.0305)" fill="#171617" width="88.32" height="121.96"/>
			<g>
				<path fill="#F8A184" d="M208.59,87.81c49.1-45.08,122.22-45.08,171.32,0c47.25,43.37,56.77,110.62,55.25,164.4
					c1.52,49.19-13.13,108.99-60.39,148.67c-49.11,41.24-117.08,42.98-166.18,1.74c-47.25-39.68-56.77-101.22-55.25-150.41
					C151.82,198.43,161.33,131.18,208.59,87.81z"/>
				<path fill="#F47A4E" d="M241.67,287.54h-29.84C211.82,287.54,223.82,314.34,241.67,287.54z"/>
				<g>
					<path fill="#68423E" d="M242.78,378.77c29.46,0.23,50.13-27.87,48.02-34.48c-0.96-3.65-6.65-2.13-15.29,0.27
						c-8.59,2.36-20.11,5.55-32.73,5.32c-14.47,0.28-27.46-3.98-36.3-6.28c-6.62-1.75-10.89-2.45-11.71,0.7
						C192.66,350.9,213.33,379,242.78,378.77z"/>
					<path fill="#FFFCFD" d="M206.48,343.59l2.99,17.94c29.57,15.44,64.69-0.66,64.69-0.66l1.35-16.31
						c-8.59,2.36-20.11,5.55-32.73,5.32C228.31,350.16,215.33,345.9,206.48,343.59z"/>
				</g>
			</g>
			<path fill="#333240" d="M349.89,771.26c0.18,1.53,0.36,3.02,0.53,4.54H132.16c-24.33-71.11-50.56-172.6,12.32-260.62
				c25.24-35.33,130.82-80.4,211.12-52.99c27.35,9.34,59.65,24.18,75.45,47.09C423.02,518.41,333.28,623.79,349.89,771.26z"/>
			<path fill="#68423E" d="M317.76,234.43c7.75,0,14.04,6.29,14.04,14.04v18.6c0,7.75-6.29,14.04-14.04,14.04
				c-7.76,0-14.04-6.29-14.04-14.04v-18.6C303.71,240.72,310,234.43,317.76,234.43z"/>
			<path fill="#68423E" d="M172.63,234.43c7.76,0,14.04,6.29,14.04,14.04v18.6c0,7.75-6.28,14.04-14.04,14.04
				c-7.75,0-14.04-6.29-14.04-14.04v-18.6C158.59,240.72,164.88,234.43,172.63,234.43z"/>
			<path fill="#333240" d="M150.05,251.8c-1.53,49.16,8.07,110.73,55.9,150.4c49.63,41.24,123.61,41.24,173.29,0
				c47.79-39.67,57.44-101.24,55.9-150.4c1.53-53.8-8.12-121.03-55.9-164.43c-49.68-45.07-123.66-45.07-173.29,0
				C158.11,130.77,148.51,197.99,150.05,251.8z M154.85,208.28l94.17-28.37l106.72,21.11l-4.14,97.69l-112.29-18.69l-80.74,18.77
				L154.85,208.28z"/>
			<path fill="#333240" d="M150.05,251.8c-1.53,49.16,8.07,110.73,55.9,150.4c49.63,41.24,123.61,41.24,173.29,0
				c47.79-39.67,57.44-101.24,55.9-150.4c1.53-53.8-8.12-121.03-55.9-164.43c-49.68-45.07-123.66-45.07-173.29,0
				C158.11,130.77,148.51,197.99,150.05,251.8z M154.85,208.28l94.17-28.37l106.72,21.11l-4.14,97.69l-112.96-13.46l-80.07,13.54
				L154.85,208.28z"/>
			<path fill="#171617" d="M248.34,459.7c25.08-5.95,42.85-5.95,43.3-5.95c0,0,19.56-2.11,45.02,3.37l-88.32,155.14V455.72V459.7z"
				/>
			<polygon fill="#444557" points="277.61,775.8 219.8,624.36 222.85,467.28 248.34,459.7 248.34,612.26 310.42,775.8 			"/>
			<g>
				<polygon fill="#834A4C" points="337.36,209.07 300.23,212.7 301.69,225.63 336.64,218.28 				"/>
				<polygon fill="#834A4C" points="155.78,209.07 192.91,212.7 191.45,225.63 156.51,218.28 				"/>
			</g>
			<path fill="#48465A" d="M231.81,409.54c0,0,37.08-3.78,70.29-30.08c0,0,0,0,0.05,0c20.87-16.51,40.25-41.94,47.73-80.96
				l-15.12-2.37l-99.74-15.79L231.81,409.54z"/>
			<path fill="#3E3C4D" d="M158.59,298.51c0,0,20.7,114.82,74.3,111.03l2.15-129.2L158.59,298.51z"/>
			<path fill="#1D1C25" d="M294.25,385.23c2.6,0.1,92.1-21.43,61.51-184.2l-9.46,100.64C339.01,340.68,314.53,368.73,294.25,385.23z
				"/>
			<path fill="#1D1C25" d="M200.8,395.96c0,0-25.53-20.71-39.57-60.04c-18.81-52.75-9.72-121.56-6.38-127.63l3.73,90.23
				C158.59,298.51,170.17,362.23,200.8,395.96z"/>
			<path fill="#21212D" d="M350.42,775.8c-0.18-1.53-0.36-3.01-0.53-4.54c-16.6-147.47,73.13-252.85,81.16-261.98
				c5.35,7.87,8.83,16.65,9.49,26.54c3.65,54.51-4.35,147.85-15.55,239.98H350.42z"/>
			<path fill="#21212D" d="M225.92,775.8c-26.67-65.03-48.83-120.96-50.67-131.58c-4.81-27.76,16.85-164.31,16.85-164.31
				s4.35,127.72,4.71,132.35c0.16,2.05,32.92,78.66,69.43,163.54H225.92z"/>
			<polygon fill="#4C4D63" points="277.61,775.8 254.81,775.8 186.37,626.56 192.11,479.91 222.85,467.28 219.8,624.36 			"/>
			<path fill="#4C4D63" d="M416.47,775.8c-16.52-47.26-31.11-114.87-19.03-189.8c0.03-0.18,0.06-0.34,0.08-0.52
				c3.09-18.87,9.73-36.97,19.28-53.53l14.82-23.34c0,0,0.08,0.16,0.31,0.42c4.56,7.07,92.4,86.45,75.63,266.76H416.47z"/>
		</g>
	</g>
</g>
</svg>
