<?xml version="1.0" encoding="utf-8"?>
<!-- Generator: Adobe Illustrator 25.2.3, SVG Export Plug-In . SVG Version: 6.00 Build 0)  -->
<svg version="1.1" id="Layer_1" xmlns="http://www.w3.org/2000/svg" xmlns:xlink="http://www.w3.org/1999/xlink" x="0px" y="0px"
	 viewBox="0 0 576 576" enable-background="new 0 0 576 576" xml:space="preserve">
<g>
	<g>
		<defs>
			<path id="SVGID_1_" d="M575.78,288c0,159.06-128.94,288-288,288C128.72,576-0.22,447.06-0.22,288S128.72,0,287.78,0
				C446.83,0,575.78,128.94,575.78,288z"/>
		</defs>
		<use xlink:href="#SVGID_1_"  overflow="visible" fill="#F9E3D9"/>
		<clipPath id="SVGID_2_">
			<use xlink:href="#SVGID_1_"  overflow="visible"/>
		</clipPath>
		<g clip-path="url(#SVGID_2_)">
			<g>
				<path fill="#E23D35" d="M111.51,787.56c-19.12-31.41-62-99.97-90.56-131.46C7.57,641.35-9.7,611.56-17.7,604.47
					c-14.52-12.88-20.32,5.33-20.32,5.33s10.04,91.38,70.94,177.77H111.51z"/>
			</g>
			<g>
				<path fill="#F2967F" d="M-21.57,612.13c0,0,0.61-8.98,2.38-15.37c4.56-16.48-15.94-39.17-20.52-53.08
					c-4.58-13.91-10.36-31.4-19.91-25.91c-9.55,5.49-0.05,34.92-0.05,34.92s-28.35-22.92-29.51-27.93s-19.08-0.45-13.65,13.48
					c4.6,11.78,12.11,15.72,12.11,15.72s-7.03,7.94-6.35,15.61c0.69,7.66-4.17,7.21-4.11,13.8c0.06,6.59,20.76,29.85,34.5,38.96
					c11.78,7.82,13.28,17.44,13.35,18.21C-53.25,641.31-25.35,624.42-21.57,612.13z"/>
				<g>
					<path fill="#3A1B0F" d="M-2.06,472.28c-2.37,5.68-13.24,29.88-13.24,29.88s9.4,6.1,9.55,5.33
						c0.15-0.76,12.57-32.78,12.57-32.78l22.73-7.7c0,0,1.92-1.66,0.51-2.55c-1.42-0.9-9.79-1.94-9.79-1.94l-20.63,8.11
						C-1.14,470.93-1.74,471.52-2.06,472.28z"/>
					<path fill="#AD4A25" d="M-81.42,526.76c0,0,9.23-11.79,33.76-5.8c0,0-3.01,19.27-15.06,17.65S-81.42,526.76-81.42,526.76z"/>
					<path fill="#6B2411" d="M-30.5,570.75c-8.2,10.35-18.24,17.19-30,15.29c-37.77-6.14-20.92-59.28-20.92-59.28
						s1.93,1.23,4.94,2.5c-2.8,15.7-3.97,44.61,23.28,49.06C-44.69,579.7-37.15,576.52-30.5,570.75z"/>
					<path fill="#772515" d="M-2.93,508.06c0,0-9.39,39.77-27.51,62.62c-0.01,0.04-0.01,0.04-0.06,0.07
						c-6.65,5.77-14.2,8.95-22.71,7.57c-27.25-4.45-26.08-33.36-23.28-49.06c7.29,3.05,20.93,6.42,28.22-7.11
						c0.2-0.38,0.41-0.77,0.62-1.19l0.29,0.65l6.86,14.04l6.13-10.2l15.58-25.82c0,0,1.18-0.4,2.94-0.53
						C-12.09,498.83-5.82,499.72-2.93,508.06z"/>
					<path fill="#3A1B0F" d="M-77.91,526.1c0,0,13.86-7.74,25.32-4.34C-52.59,521.76-59.83,533.58-77.91,526.1z"/>
				</g>
				<path fill="#F8A184" d="M-89.19,523.42c0,0,39.26,15.55,31.23,27.7c-3.88,5.87-36.97-2.68-37.85-4.18
					C-96.69,545.44-99.72,519.91-89.19,523.42z"/>
				<path fill="#F8A184" d="M-89.27,554.11c0,0,31.99,1.18,28.47,10.63c-3.51,9.46-34.55,8.33-34.55,8.33L-89.27,554.11z"/>
				<path fill="#F8A184" d="M-95.94,575.92c0,0,36.27-16.11,34.04,0.62c-2.22,16.73-30.33,11.76-30.33,11.76L-95.94,575.92z"/>
				<path fill="#F8A184" d="M-86.66,590.94c0,0,27.9-17.67,27.64-6.43c-0.27,11.25-14.56,19.87-14.56,19.87S-91,598.36-86.66,590.94
					z"/>
				<path fill="#F8A184" d="M-89.27,554.11l-1.45-0.16c0,0-7.35,7.77-6.33,18.24c0,0-0.2,0.84,1.71,0.87s11.39-11.24,11.39-11.24
					L-89.27,554.11z"/>
				<path fill="#F8A184" d="M-95.94,575.92c0,0-3.82,0.68-4.51,3.57c-0.69,2.9-1.11,4.73,0.34,7.35c1.46,2.62,8.82,1.59,8.82,1.59
					L-95.94,575.92z"/>
			</g>
			<g>
				<path fill="#E23D35" d="M136.12,787.56c29.89-55.99,54.76-109.46,60.38-148.76c8.74-61.03-19.94-91.56-20.61-96.03
					c-0.08-0.3-0.08-0.45-0.08-0.45l-19.92,16.06c-13.76,9.93-31.08,23.62-31.14,23.77c-31.6,89.54-50.34,166.1-59.01,205.42H136.12
					z"/>
			</g>
			<g>
				<g>
					<polygon fill="#9D1C20" points="46.75,664.87 1.65,587.21 -82.46,645.82 -25.58,713.62 					"/>
				</g>
				<g>
					<g>
						<g>
							<path fill="#FDEC09" d="M-77.55,650.42c1.2-0.59,10.4,10.65,11.71,12.18c6.19,7.28,12.18,14.78,18.24,22.19
								c5.1,6.24,10.2,12.56,15.62,18.46c1.83,2,6.4,7.63,8.87,6.85c6.99-2.24-36.54-61.99-37.92-70.55
								c-0.21-1.31-0.09-0.65,1.53,0.7c2.22,1.86,4.28,4.29,6.25,6.51c6.2,6.98,12.07,14.35,17.98,21.6
								c5.63,6.92,11.24,13.9,17.12,20.58c2.42,2.75,6.82,8.64,10.09,9.43c7.4,1.8-7.74-21.39-9.11-23.63
								c-4.87-7.97-9.89-15.86-14.8-23.8c-4.09-6.62-8.67-13.5-11.8-20.51c-0.36-0.79-1.08-2.07-1.1-2.86
								c-0.02-0.86-0.32-0.27-0.15-0.28c1.23-0.04,4.75,4.25,5.68,5.25c5.73,6.16,11.07,12.83,16.42,19.39
								c6.01,7.38,11.96,14.81,18.14,22.04c3.25,3.8,7.71,9.93,11.87,12.21c8.83,4.85-3.91-16.27-5.13-18.32
								c-9.12-15.31-19.64-30.21-27.88-45.9c-0.58-1.1-3.16-5.3-2.76-6.36c0.08-0.22-0.59-0.06,0.21,0.23
								c0.89,0.32,2.07,1.7,2.82,2.41c5.7,5.49,10.82,12.09,15.9,18.28c5.91,7.21,11.74,14.5,17.72,21.65
								c4.22,5.06,8.72,10.96,13.68,15.08c2.09,1.73,4.95,3.26,4.99,0.05c0.06-3.64-4.16-9.77-6.14-13.18
								c-9.05-15.65-19.46-30.67-28.32-46.4c-1.38-2.46-2.93-5.05-3.92-7.62c-0.79-2.05-1.42-2.62,0.18-1.43
								c5.18,3.86,10.06,10.59,14.31,15.68c10.79,12.98,21.1,27.41,32.95,39.2c1.74,1.73,5.61,5.71,6.99,3.39
								c1.32-2.19-2.38-8.05-3.69-10.46c-8.55-15.7-18.93-30.64-28.06-46.09c-1.07-1.79-8.1-13.22-7.21-14.11
								c0.96-0.96-0.85-3.53-1.83-2.55c-1.84,1.83,1.17,6.9,2.52,9.49c3.79,7.19,8.24,14.19,12.55,21.14
								c4.9,7.87,9.87,15.68,14.64,23.62c2.08,3.45,4.14,6.91,6.01,10.45c0.57,1.08,3.14,5.35,2.76,6.36
								c-0.02,0.06,0.42,0.06-0.53-0.44c-0.69-0.37-1.42-1.18-2.03-1.76c-2.71-2.52-5.23-5.49-7.69-8.34
								c-5.88-6.83-11.55-13.89-17.26-20.9c-5.5-6.75-10.99-13.57-16.78-20.04c-2-2.22-6.79-8.32-9.59-8.19
								c-5.99,0.29,9.3,22.9,11.06,25.77c5.1,8.3,10.35,16.53,15.44,24.84c3.59,5.87,8.01,12.28,10.42,18.58
								c0.75,1.97,1.44,2.63-0.18,1.42c-2.1-1.58-4.06-3.86-5.88-5.87c-6.11-6.74-11.85-13.94-17.62-21.02
								c-5.66-6.95-11.28-13.94-17.13-20.71c-2.79-3.23-7.33-9.44-11.08-10.97c-8.09-3.29,5.46,18.26,6.8,20.48
								c9.14,15.18,20.09,30.25,27.78,46.02c0.44,0.89,2,4.33,1.85,4.44c-0.21,0.14-3.4-2.97-4.1-3.68
								c-5.83-5.93-11.15-12.68-16.46-19.18c-6.09-7.44-12.11-14.97-18.32-22.31c-3.71-4.38-7.77-9.78-12.23-13.1
								c-2.38-1.77-4.63-2.09-4.22,1.17c0.57,4.44,4.88,10.56,7.27,14.62c9.13,15.51,19.59,30.49,28.17,46.24
								c1.16,2.14,2.5,4.46,3.24,6.71c0.25,0.76,0.06,1.24,0.56,1.11c-0.49,0.12-1.97-1.43-2.38-1.8
								c-5.26-4.69-9.96-10.85-14.53-16.38c-6.22-7.51-12.31-15.13-18.52-22.63c-4.47-5.39-9.05-11.24-14.11-15.91
								c-1.86-1.71-5.17-4.51-6-1.8c-0.87,2.85,3.6,9.59,5.15,12.33c8.84,15.59,19.12,30.49,28.1,46.01
								c1.57,2.72,3.18,5.49,4.47,8.31c0.38,0.84,1,1.94,1.14,2.79c0.19,1.19,0.61,0.71-0.04,0.47c-1.46-0.53-3.7-3.29-4.84-4.49
								c-2.75-2.91-5.36-5.98-7.96-9.07c-11.33-13.46-21.97-28.16-34.1-40.75c-1.96-2.03-5.42-5.99-7.63-4.9
								C-80.61,648.47-78.77,651.02-77.55,650.42L-77.55,650.42z"/>
						</g>
					</g>
				</g>
			</g>
			<g>
				<path fill="#6F3F1C" d="M152.99,209.57c0,0-14.73,18.35-3.21,90.12c11.52,71.76,10.26-3.42,10.26-3.42l47.7-60.05L152.99,209.57
					z"/>
			</g>
			<g>
				<path fill="#B6E2EB" d="M394.56,787.56c11.12-87.62,19.61-179.66,16.14-231.77c-2.29-34.34-42.82-54.18-75.39-65.31
					c-71.24-24.35-164.15,15.7-186.54,47.05c-61.61,86.26-27.58,187.05-5.11,250.04H394.56z"/>
			</g>
			<g>
				<path fill="#E23D35" d="M365.73,583.55c36.68,122.54,138.93,189.79,138.93,189.79l40.38-21.82
					C496.14,549.33,370.65,513.1,363.52,508.75c-0.28-0.13-0.41-0.23-0.41-0.23l-2.81,24.38c-1.23,16.92,0.45,33.94,5.29,50.21
					C365.64,583.25,365.68,583.4,365.73,583.55z"/>
			</g>
			<g>
				<path fill="#E23D35" d="M549.92,787.56c-1.36-12.42-3.1-25.34-5.35-38.87l-48.67,10.07c0,0-0.8,11.42-1.6,28.79H549.92z"/>
			</g>
			<g>
				<path fill="#FEF26F" d="M163.91,787.56h71.94c5.54-67.84,11.05-106.92,11.05-106.92l-54.42-95.73
					C194.15,593.77,179.49,690.26,163.91,787.56z"/>
			</g>
			<g>
				<path fill="#E23D35" d="M136.86,787.56h59.89c1.7-8.86,3.4-18.57,5.14-29.4c16.32-102.03,38.25-275.19,38.25-275.19
					c-184.6,47.9-119.89,251.91-106.79,291.13C134.68,778.09,135.84,782.63,136.86,787.56z"/>
			</g>
			<g>
				<path fill="#FEF26F" d="M353.72,787.56l-29.97-202.65l-76.86,95.73c0,0-5.51,39.07-11.05,106.92H353.72z"/>
			</g>
			<g>
				<path fill="#E23D35" d="M402.67,787.56c8.4-110.72,15.06-242.76,0.38-255.53c-25.67-22.34-58.36-56.45-88.16-46.74
					c0,0-34.9,180.87-19.74,302.27H402.67z"/>
			</g>
			<g>
				<path fill="#481119" d="M190.58,787.56h6.35c24.34-116.23,36.99-256.98,36.99-256.98c-7.17,2.25,44.31-66.89,36.39-59.57
					l-15.5,3.26c-50.65-6.7-89.35,56.31-89.35,56.31l30.52,30.86c-21.2,27.25-48.09,69.07-48.09,69.07
					C179.62,674.94,188.24,749.1,190.58,787.56z"/>
			</g>
			<g>
				<polygon fill="#F8A184" points="245.36,532.44 314.89,509.81 318.52,424.22 240.14,424.22 				"/>
			</g>
			<g>
				<path fill="#F47A4E" d="M175.14,291.2c-1.58-0.4-18.56-15.8-33.56,2.37c-15.01,18.16,1.18,63.97,13.03,68.7
					c11.85,4.74,21.72,1.19,22.9-1.97C178.7,357.14,175.14,291.2,175.14,291.2z"/>
			</g>
			<g>
				<path fill="#F8A184" d="M204.87,158.25c43.57-40,108.45-40,152.02,0c41.93,38.49,50.37,98.16,49.02,145.88
					c1.35,43.65-11.66,96.7-53.58,131.92c-43.57,36.6-103.89,38.14-147.46,1.55c-41.93-35.22-50.37-89.82-49.02-133.47
					C154.5,256.42,162.94,196.74,204.87,158.25z"/>
			</g>
			<g>
				<path fill="#F47A4E" d="M234.22,335.48h-26.48C207.74,335.48,218.39,359.27,234.22,335.48z"/>
			</g>
			<g>
				<path fill="#68423E" d="M301.73,329.79L301.73,329.79c6.89,0,12.46-5.59,12.46-12.46v-16.5c0-6.88-5.57-12.46-12.46-12.46l0,0
					c-6.88,0-12.46,5.59-12.46,12.46v16.5C289.28,324.21,294.86,329.79,301.73,329.79z"/>
			</g>
			<g>
				<path fill="#68423E" d="M172.97,329.79L172.97,329.79c6.88,0,12.46-5.59,12.46-12.46v-16.5c0-6.88-5.58-12.46-12.46-12.46l0,0
					c-6.88,0-12.46,5.59-12.46,12.46v16.5C160.5,324.21,166.08,329.79,172.97,329.79z"/>
			</g>
			<g>
				<path fill="#6F3F1C" d="M193.13,257.76l-1.03,12.87c0,0-12.97-3.44-31.43,2.49l-0.64-8.17
					C160.04,264.95,179.72,254.71,193.13,257.76z"/>
			</g>
			<g>
				<path fill="#6F3F1C" d="M284.66,257.76l1.03,12.87c0,0,12.97-3.44,31.42,2.49l0.65-8.17
					C317.76,264.95,298.07,254.71,284.66,257.76z"/>
			</g>
			<g>
				<g>
					<path fill="#68423E" d="M235.22,416.45c26.14,0.2,44.48-24.74,42.61-30.6c-0.85-3.24-5.9-1.89-13.57,0.24
						c-7.62,2.1-17.84,4.93-29.04,4.72c-12.85,0.25-24.37-3.53-32.21-5.58c-5.88-1.56-9.67-2.18-10.39,0.62
						C190.74,391.71,209.08,416.65,235.22,416.45z"/>
				</g>
				<g>
					<path fill="#FFFCFD" d="M203.01,385.23l2.65,15.91c26.24,13.7,57.39-0.58,57.39-0.58l1.21-14.47
						c-7.62,2.1-17.84,4.93-29.04,4.72C222.37,391.05,210.85,387.27,203.01,385.23z"/>
				</g>
			</g>
			<g>
				<g>
					<path fill="#6F3F1C" d="M227,356.55c0,0-54.92-14.97-73.42,32.04c-17.4,44.25-49.66,31.42-49.66,31.42
						s89.73,28.27,123.08-41.46V356.55z"/>
				</g>
				<g>
					<path fill="#6F3F1C" d="M227,356.55c0,0,54.62-14.85,73.42,32.04C317.9,432.2,350.08,420,350.08,420S260.34,448.27,227,378.54
						V356.55z"/>
				</g>
			</g>
			<g>
				<polygon fill="#C2D8F0" points="242.75,478.33 244.05,516.31 207.74,531.66 				"/>
			</g>
			<g>
				<polygon fill="#49A0CB" points="255.6,545.44 244.05,516.31 207.74,531.66 240.88,526.77 				"/>
			</g>
			<g>
				<path fill="#481119" d="M303.6,787.56c5.94-40.13,22.56-119.22,64.9-163.68l-33.94-66.96l33.94-11.49
					c0,0,6.49-57.56-52.81-72.11c0,0-39.22,183.71-19.67,314.24H303.6z"/>
			</g>
			<g>
				<polygon fill="#49A0CB" points="277.96,516.31 255.6,545.44 280.88,524.24 314.89,537.53 				"/>
			</g>
			<g>
				<polygon fill="#C2D8F0" points="342.43,484.36 314.89,537.53 277.96,516.31 318.19,470.47 				"/>
			</g>
			<g>
				<g>
					<path fill="#2297C9" d="M217.9,561.45c-8.35,3.47-16.17,4.62-16.17,4.62c-23.14-32.4,0-57.09,0-57.09
						c4.06,0.75,7.75,1.66,11.11,2.72C212.84,511.7,242.61,540.23,217.9,561.45z"/>
				</g>
				<g>
					<path fill="#2297C9" d="M309.47,566.07c0,0-9.15-1.36-18.22-5.53l0,0c-22.57-31.92,1.04-46.51,1.55-46.81l0.01-0.01
						c4.68-1.95,10.22-3.55,16.66-4.74C309.47,508.98,332.62,533.67,309.47,566.07z"/>
				</g>
				<g>
					<path fill="#1E779E" d="M236.2,546.01c-3.14,7.48-10.92,12.36-18.3,15.43c24.71-21.22-5.06-49.74-5.06-49.74
						C235.01,518.7,242.01,532.16,236.2,546.01z"/>
				</g>
				<g>
					<path fill="#1E779E" d="M291.25,560.54c-6.73-3.1-13.4-7.74-16.24-14.53c-5.29-12.62,0.05-24.91,17.78-32.29
						C292.29,514.03,268.68,528.62,291.25,560.54z"/>
				</g>
				<g>
					<path fill="#F7C939" d="M275.77,532.22v12.66c0,8.57-6.92,15.74-15.5,15.74h-10.61c-8.58,0-15.84-7.16-15.84-15.74v-12.66
						c0-0.57,0.04-1.1,0.09-1.64c0.86,7.81,7.74,14.09,15.75,14.09h10.61c8.02,0,14.59-6.27,15.41-14.09
						C275.74,531.12,275.77,531.66,275.77,532.22z"/>
				</g>
				<g>
					<path fill="#FEF26F" d="M275.69,530.58c-0.82,7.81-7.39,14.09-15.41,14.09h-10.61c-8.01,0-14.89-6.27-15.75-14.09
						c0.86-7.79,7.74-13.76,15.75-13.76h10.61C268.3,516.83,274.87,522.79,275.69,530.58z"/>
				</g>
			</g>
			<g>
				<path fill="#6F3F1C" d="M329.63,231.8c9.3,2.73,47.86,35.11,29.21,103.68h23.92c0,0,3.97-53.92,23.14-31.35
					c19.17,22.55,20.32-61.48-1.42-94.56C382.76,176.48,329.63,231.8,329.63,231.8z"/>
			</g>
			<g>
				<path fill="#F47A4E" d="M382.77,307.02c-0.08-8.42,4.96-16.08,12.79-19.19c7.44-2.95,16.83-3.7,24.62,5.73
					c15,18.16-1.19,63.97-13.04,68.7c-11.84,4.74-17.84-0.08-20.37-2.32C382.58,356.25,382.94,325.07,382.77,307.02z"/>
			</g>
			<g>
				<g>
					<path fill="#010101" d="M356.01,207.96c-14.02,11.77-39.58,31.94-71.59,42.34c-41.45-1.38-85.87-7.02-115.41-19.91
						c-2.18-1.61-4.38-3.33-6.57-5.12c-18.99-15.58-26.51-26.91-27.4-35.14c-2.39-21.82,41.54-22.01,41.54-22.01
						s161.63,11.74,180.47,31.37C359.63,202.17,359.54,205,356.01,207.96z"/>
				</g>
				<g>
					<g>
						<path fill="#412C25" d="M426.23-5.85l-25.5,142.41l-6.74,37.59l-5.2,29.04c-104.48,44.57-215.82,0-215.82,0l-3.47-30.1
							l-4.48-38.77L147.89-14.07C301.74-98.2,426.23-5.85,426.23-5.85z"/>
					</g>
					<g>
						<path fill="#E23D35" d="M400.73,136.55l-6.74,37.59c-98.81,21.93-185.69,7.86-224.49-1.07l-4.48-38.77
							C247.37,108.66,355.46,126.85,400.73,136.55z"/>
					</g>
				</g>
				<g>
					<path fill="#351F11" d="M305.72,250.66c-6.94,0-14.08-0.12-21.3-0.36c-41.45-1.38-85.87-7.02-115.41-19.91
						c-21.27-9.28-34.82-22.34-33.97-40.27c0.08-1.4,0.23-2.85,0.47-4.31c0,0,0.63,55.36,114.83,57.25
						c54.84,0.91,84.44-22.68,106.7-43.59c24.08-22.59,39.59-42.04,69.17-23.78C483.16,210.81,383.53,250.66,305.72,250.66z"/>
				</g>
			</g>
		</g>
	</g>
</g>
</svg>
