<?xml version="1.0" encoding="utf-8"?>
<!-- Generator: Adobe Illustrator 25.2.3, SVG Export Plug-In . SVG Version: 6.00 Build 0)  -->
<svg version="1.1" id="Layer_1" xmlns="http://www.w3.org/2000/svg" xmlns:xlink="http://www.w3.org/1999/xlink" x="0px" y="0px"
	 viewBox="0 0 576 576" enable-background="new 0 0 576 576" xml:space="preserve">
<g>
	<g>
		<defs>
			<path id="SVGID_1_" d="M576,288c0,159.06-128.94,288-288,288c-159.06,0-288-128.94-288-288C0.01,128.94,128.94,0,288,0
				C447.06,0,576,128.94,576,288z"/>
		</defs>
		<use xlink:href="#SVGID_1_"  overflow="visible" fill="#F9E3D9"/>
		<clipPath id="SVGID_2_">
			<use xlink:href="#SVGID_1_"  overflow="visible"/>
		</clipPath>
		<g clip-path="url(#SVGID_2_)">
			<g>
				<g>
					<path fill="#FFE3B1" d="M144.97,714.29C238.35,669.04,281.63,570.79,298,529.05c-27.26-27.61-35.92-12.39-46.57-11.02
						c-87.31,11.13-183.7,107.72-223.8,196.26H144.97z"/>
				</g>
				<path fill="#BEC9AF" d="M252.54,714.29c17.09-21.61,34.41-46.05,50.95-73.36c28.56-47.28,20.12-82.16-0.34-106.28
					c-1.64-1.94-3.38-3.82-5.16-5.6c-16.38,41.73-59.65,139.99-153.03,185.24H252.54z"/>
			</g>
			<g>
				<g>
					<path fill="#FFE3B1" d="M500.34,714.29c19.83-95.56,31.05-178.96,35.41-214.59c-49.9-20.32-118.03-31.49-135.67-33.12
						c-57.84-5.37-108.74,34.37-148.27,48.54c-94.07,33.74-139.05,111.44-99.62,199.17H500.34z"/>
					<path fill="#D5D3B1" d="M583.55,714.29c9.85-89.24,12.62-159.93,5.35-176.1c-6.96-15.34-27.7-28.14-53.15-38.49
						c-4.36,35.63-15.58,119.03-35.41,214.59H583.55z"/>
				</g>
				<g>
					<path fill="#F4A976" d="M382.81,516.94c0.09,0.61,0.18,1.22,0.23,1.85c0.07,0.42,0.1,0.87,0.13,1.32
						c0.09,0.85,0.16,1.71,0.19,2.6c0.03,0.6,0.05,1.18,0.07,1.78c0.03,0.68,0.03,1.36,0.01,2.06c-0.01,0.05,0,0.12-0.01,0.18
						c-76.31,50.72-132.01-8.71-132.01-8.71c2.41-3.35,4.48-6.63,6.24-9.81c1.47-2.63,2.72-5.21,3.82-7.71l0.02-0.02
						c0.61-1.36,1.12-2.62,1.63-3.94l-0.01-0.02c12.85-34.64-8.33-56.35-8.33-56.35l39.14-12.6l1.36-0.44l55.99-18.02l6.68,58.44
						v0.01l0.61,5.38l0.01,0.01c0.03,0.01,0.03,0.03,0.03,0.03c0.1,0.08,0.23,0.2,0.43,0.35c0.56,0.49,1.57,1.44,2.87,2.78
						c0.29,0.3,0.6,0.63,0.91,0.97c0,0,0.01,0.02,0.02,0.01c0.18,0.2,0.38,0.4,0.58,0.6c0.07,0.07,0.11,0.14,0.2,0.22
						c0.13,0.15,0.29,0.32,0.44,0.48c0.02,0,0.02,0.01,0.02,0.01c0.91,1.02,1.9,2.17,2.92,3.46c0.37,0.49,0.79,1.02,1.2,1.54
						c1.38,1.81,2.8,3.81,4.19,6.03c0.69,1.11,1.39,2.28,2.07,3.48c0.69,1.21,1.34,2.45,1.98,3.76c0.64,1.31,1.25,2.67,1.85,4.08
						c0.23,0.55,0.46,1.1,0.68,1.66c0.36,0.93,0.7,1.86,1.03,2.84c0.45,1.31,0.85,2.65,1.24,4.03c0.09,0.39,0.18,0.75,0.27,1.12
						c0.13,0.51,0.27,1.04,0.39,1.59c0.18,0.79,0.34,1.62,0.5,2.44C382.55,515.26,382.69,516.09,382.81,516.94z"/>
					<path fill="#ED7E67" d="M383.04,518.79c-0.05-0.63-0.14-1.25-0.23-1.85c-0.12-0.85-0.26-1.68-0.41-2.49
						c-0.16-0.82-0.32-1.65-0.5-2.44c-0.12-0.55-0.25-1.08-0.39-1.59c-0.09-0.39-0.18-0.75-0.27-1.12
						c-0.39-1.38-0.79-2.72-1.24-4.03c-0.33-0.98-0.67-1.91-1.03-2.84c-0.22-0.55-0.44-1.11-0.68-1.66
						c-0.59-1.41-1.21-2.77-1.85-4.08c-0.64-1.31-1.29-2.55-1.98-3.76c-0.68-1.2-1.38-2.37-2.07-3.48
						c-1.39-2.22-2.81-4.22-4.19-6.03c-0.41-0.52-0.83-1.05-1.2-1.54c-1.05-1.29-2.04-2.45-2.96-3.47
						c-0.16-0.17-0.29-0.34-0.42-0.49c-0.09-0.08-0.14-0.15-0.2-0.22c-0.2-0.2-0.38-0.4-0.56-0.6c-0.33-0.35-0.65-0.68-0.95-0.98
						c-1.31-1.34-2.31-2.29-2.87-2.78c-0.09-0.08-0.18-0.16-0.24-0.21c-0.07-0.07-0.1-0.1-0.15-0.13c-0.05-0.05-0.07-0.05-0.07-0.05
						v-0.02l-0.62-5.37v-0.01l-6.68-58.44l61.85-19.92h0.02l6.48-2.09c0,0,2.81,19.54,6.94,40.93c0.46,2.39,0.93,4.79,1.42,7.22
						c0.35,1.68,0.71,3.37,1.06,5.06c2.71,12.79,5.81,25.04,8.97,33.04c-18.98,24.75-37.31,41.87-54.58,53.36
						c0.01-0.06,0-0.13,0.01-0.18c0.01-0.7,0.01-1.38-0.01-2.06c-0.01-0.6-0.02-1.21-0.07-1.78c-0.03-0.89-0.1-1.74-0.19-2.6
						C383.15,519.67,383.11,519.22,383.04,518.79z"/>
					<path fill="#F4A976" d="M183.86,469.94c10.51,14.34,26.76,23.01,46.01,27.29c3.3-0.25,7.4-0.33,12.3-0.19
						c74.61,2.11,150.6-37.24,167.64-84.64c17.03-47.4-34.34-66.62-18.71-104.64c15.64-38.02-19.77-143.94-19.77-143.94
						s15.56-3.04,35.35-6.25c-10.51-32.25-33.05-59.69-63.61-74.92C241.23,31.9,159.44,146.87,166.86,198.43
						c4.67,32.53,50.78,123.55,46.87,164.48S136.7,405.79,183.86,469.94z"/>
					<path fill="#FFFFFF" d="M349.75,249.8c0,0,3.1,21.57-9.95,28.64c-13.05,7.07-39.13,10.66-49.22-25.49L349.75,249.8z"/>
					<path fill="#FFFFFF" d="M236.4,273.34c-0.37,5.02-4.41,12.39-8.73,14.96c-1.96,1.16-4.3,1.94-6.98,1.76
						c-8.57-0.61-17.93-16.23-22.14-28.01l36.6-10.76C235.14,251.28,237.36,260.32,236.4,273.34z"/>
					<g>
						<g>
							<path fill="#2A9695" d="M308.37,259.43c1.31,9.12,9.77,15.46,18.89,14.15c9.12-1.31,15.46-9.77,14.15-18.89
								c-1.31-9.12-9.77-15.45-18.89-14.15C313.39,241.85,307.06,250.31,308.37,259.43z"/>
							<path fill="#19281F" d="M317.69,258.74c0.55,3.84,4.11,6.49,7.94,5.95c3.83-0.55,6.49-4.11,5.94-7.94
								c-0.55-3.84-4.11-6.5-7.94-5.95C319.8,251.36,317.14,254.91,317.69,258.74z"/>
						</g>
						<path opacity="0.85" fill="#EDEEEE" d="M306.08,257.37c0.46,3.17,3.39,5.38,6.57,4.92c3.18-0.46,5.38-3.4,4.93-6.57
							c-0.46-3.18-3.41-5.38-6.58-4.93C307.82,251.25,305.62,254.19,306.08,257.37z"/>
					</g>
					<g>
						<g>
							<path fill="#2A9695" d="M210.32,270.77c0.95,6.64,7.11,11.25,13.75,10.29c6.64-0.95,11.25-7.11,10.3-13.75
								c-0.96-6.64-7.11-11.25-13.76-10.3C213.98,257.97,209.36,264.13,210.32,270.77z"/>
							<path fill="#19281F" d="M217.11,270.27c0.4,2.79,2.99,4.73,5.78,4.33c2.79-0.4,4.73-2.99,4.33-5.78
								c-0.4-2.79-2.99-4.73-5.78-4.33C218.65,264.89,216.71,267.48,217.11,270.27z"/>
						</g>
						<path opacity="0.85" fill="#EDEEEE" d="M208.09,268.32c0.33,2.31,2.47,3.92,4.78,3.58s3.92-2.47,3.58-4.78
							c-0.33-2.32-2.47-3.92-4.78-3.59C209.36,263.86,207.75,266.01,208.09,268.32z"/>
					</g>
					<path fill="#F49252" d="M349.75,249.8l-59.18,3.15c0,0-0.79-27.41,27.58-31.48C344.67,217.65,349.75,249.8,349.75,249.8z"/>
					<path fill="#D8745F" d="M289.8,498.66c57.58-7.36,118.76-35.86,139.53-65.23c27.48-38.85-2.7-190.82-19.39-264.09
						c-0.9-3.98-1.98-7.94-3.27-11.79c-2.15,0.35-4.24,0.69-6.24,1.01c1.25,3.82,2.32,7.74,3.22,11.69
						c16.69,73.26,46.87,225.24,19.39,264.09C403.04,462.64,345.49,490.14,289.8,498.66z"/>
					<path fill="#ED7E67" d="M229.86,497.22c1.02,0.22,2.04,0.44,3.1,0.65c17.18,3.37,36.59,3.37,56.49,0.84
						c0.11,0.02,0.22,0,0.36-0.05c55.68-8.52,113.24-36.02,133.24-64.32c27.48-38.85-2.7-190.83-19.39-264.09
						c-0.89-3.95-1.97-7.86-3.22-11.69c-16.73,2.81-29.11,5.25-29.11,5.25s35.4,105.91,19.77,143.94
						c-15.64,38.02,35.75,57.24,18.71,104.64c-14.55,40.47-72.1,75.09-135.03,83c-0.22,0.07-0.43,0.1-0.65,0.09
						c-10.57,1.3-21.28,1.85-31.96,1.55C237.26,496.89,233.16,496.96,229.86,497.22z"/>
					<path fill="#6B3013" d="M374.54,205.25l-2.3,18.07c0,0-53.69-20.42-95.2-2.83l-3.79-34.92
						C273.25,185.57,358.68,184.3,374.54,205.25z"/>
					<path fill="#6B3013" d="M223.34,195.8l1.91,30.3c0,0-39.71,4.49-47.92,19.73l-6-20.54
						C171.32,225.29,200.57,190.51,223.34,195.8z"/>
					<path fill="#F49252" d="M237.35,256.01c-1.19-0.29-6.19-25.49-27.11-17.89c-15.85,5.75-12.24,24.92-12.24,24.92L237.35,256.01z
						"/>
					<path fill="#ED7E67" d="M371.32,163.82c0,0-18.01-44.9-38.25-60.88s41.24-8.76,41.24-8.76l40.64,72.54L371.32,163.82z"/>
					<path fill="#954120" d="M100.4,129.5c0,0-4.19,53.26,69.16,50.61c73.34-2.64,116.13-66.71,153.44-68.12
						c37.32-1.42,37.32-1.42,37.32-1.42s11.77,26.94,26.03,50.56c14.25,23.63,22.8,110.76,22.8,110.76l27.81-4.7
						c0,0,25.17-210.75-54.14-192.44c0,0-4.47-58.6-92.36-44.98c-87.89,13.62-118.95,58.56-136.2,89.67S100.4,129.5,100.4,129.5z"/>
					<path fill="#954120" d="M274.68,333.96c0,0,54.81-16.14,76.58,7.17c18.93,20.28,49.01,8.52,53.64-27.54
						c4.69-36.4,4.24-41.69,4.24-41.69l25.6-6.98c0,0,17.84,157.03-10.69,181.91c-28.53,24.87-146.12,93.71-231.69,43.68
						c-85.56-50.03-8.66-86.57,3.09-103.37c11.75-16.8,17.75-60.47,9.15-74.34l5.86,4.67c0,0,2.41,41.09,9.62,45.6
						c7.22,4.51-2.86-21.54,19.61-22.89C262.16,338.83,274.68,333.96,274.68,333.96z"/>
					<path fill="#F26B6A" d="M256.53,247.09c0,0-13.82,7.58-13.54,37.2c0.28,29.62-15.72,53.75-6.51,60.37
						c9.21,6.63,37.49-5.08,39.58-13.94c2.09-8.87,19.14,7.64,20.32-5.37s-9.26-19.77-14.35-16.9S256.53,247.09,256.53,247.09z"/>
					<g>
						<path fill="#662D1A" d="M319.91,355.08c3,10.81-7.44,45.23-41.3,45.39c-33.66-0.07-41.08-34.98-41.08-34.98l4.94-0.71
							l72.96-9.06L319.91,355.08z"/>
						<path fill="#FFFFFF" d="M315.43,355.73c0.84,5.81-0.27,11.49-4.4,14.53c-10.91,7.7-54.6,9.69-61.25,6.96
							c-4.08-1.66-6.18-7.9-7.32-12.44L315.43,355.73z"/>
					</g>
					<path fill="#6B3013" d="M296.57,428.68c0,0-24.04-33.24-80.52-4.94C216.05,423.74,267.14,415.47,296.57,428.68z"/>
					<g>
						<path fill="#ED6B62" d="M416.67,286.71c-3.84-20.11,2.07-40.87,16.3-55.81c9.37-8.9,21.47-14.5,31.47-4.44
							c16.02,16.75,8.43,66.17-16.6,84.79c-9.03,7.47-20.4,4.38-25.39-6.47C420.22,300.06,418.06,294.06,416.67,286.71z"/>
						<path fill="#E9575C" d="M461.77,252.02c0,0,1.43,10.01-2.77,6.38c-4.19-3.63-17.23-13.91-15.8-2.08
							c1.43,11.83,11.81,20.43,3.94,28.35c-7.88,7.92-8.41,6.33-10.74,3c0,0,8.48-3.21,7.88-8.98c-0.6-5.76,1.53-10.12,1.07-10.12
							c-0.46,0-6.91-5.4-6.91-5.4l-2.27-11.23l3.31-7.53l14.57-3.46C454.07,240.97,460.94,245.35,461.77,252.02z"/>
						<path fill="#CD394B" d="M447.36,239.74c0,0,15.57,1.16,12.13,13.01c-3.45,11.85,3.34-8.36-8.85-7.41
							c-12.2,0.95-11.51-0.87-12.88,5.97c-1.37,6.83,1.46,10.13,8.45,15.57c6.98,5.44-7.58,25.49-10.4,21.29
							c-3.05-4.55,13.21-13.11,7.97-18.1c-5.25-4.99-12.63-13.74-10.21-20.12C435.99,243.56,444.11,239.6,447.36,239.74z"/>
					</g>
					<path fill="#B24C26" d="M383.87,137.66c0,0-4.67-58.82,35.99-35.39c0,0-0.35-22.14-22.69-23.18
						C374.83,78.05,358.66,106.81,383.87,137.66z"/>
					<path fill="#B24C26" d="M372.64,69.39c0,0-18.89,16.41-19.87,32.61c0,0-27.57-4.54-46,5.19c-18.43,9.73-56,47.24-88.07,44.3
						c0,0,74.16-52.84,79.98-70.99C304.89,61.19,350.23,57.98,372.64,69.39z"/>
				</g>
			</g>
		</g>
	</g>
</g>
</svg>
