<?xml version="1.0" encoding="utf-8"?>
<!-- Generator: Adobe Illustrator 25.2.3, SVG Export Plug-In . SVG Version: 6.00 Build 0)  -->
<svg version="1.1" id="Layer_1" xmlns="http://www.w3.org/2000/svg" xmlns:xlink="http://www.w3.org/1999/xlink" x="0px" y="0px"
	 viewBox="0 0 576 576" enable-background="new 0 0 576 576" xml:space="preserve">
<g>
	<g>
		<defs>
			<path id="SVGID_1_" d="M576,288.4c0,158.68-128.64,287.32-287.32,287.32C130,575.72,1.36,447.08,1.36,288.4
				C1.36,129.72,130,1.08,288.68,1.08C447.36,1.08,576,129.72,576,288.4z"/>
		</defs>
		<use xlink:href="#SVGID_1_"  overflow="visible" fill="#F9E3D9"/>
		<clipPath id="SVGID_2_">
			<use xlink:href="#SVGID_1_"  overflow="visible"/>
		</clipPath>
		<g clip-path="url(#SVGID_2_)">
			<g>
				<path fill="#4C1F10" d="M144.62,296.26c38.27,87.13,77.2,142.05,56.85,170.74c11.57,0.79,24.4,1.34,38.03,1.82v-0.18
					c0.6-12.35,1.51-28.03,2.42-43.04c-0.85-0.37-1.64-0.73-2.42-1.15c-49.83-24.89-95.78-129.51-83.14-239.59
					C138.38,223.06,129.91,262.72,144.62,296.26z"/>
				<path fill="#5C2310" d="M239.5,424.45c0.79,0.42,1.57,0.79,2.42,1.15c-0.91,15.01-1.82,30.69-2.42,43.04v0.18
					c32.75,1.03,69.75,1.27,102.51,1.15c28.09-0.07,53.09-0.43,69.63-0.67c9.39-0.18,15.92-8.78,13.08-17.2
					c-5.99-18.29-8.23-47.23,27.67-64.61c1.82-0.9,3.64-1.81,5.33-2.9c9.38-5.63,16.95-13.63,23.01-23.31
					c-20.1-7.26-55.58-10.29-81.8-11.62c-19.08-0.91-33.3-0.91-33.3-0.91s0-0.07-0.06-0.18c-0.06-0.48-0.36-1.76-0.79-3.64
					c-0.49-2.17-1.03-5.27-1.64-8.9v-0.07c-3.39-20.71-6.9-60.24,12.9-69.44c7.45-3.45,18.22-2.67,33.55,5.08
					c56.3,28.34,78.1,7.69,87.79-3.69c-2.42-26.88-9.63-54.5-20.77-78.54c-32.27-69.88-52.44-56.49-122.07-127.33
					c-69.69-70.84-80.77-21.98-80.77-21.98c-1.52-2.06-3.27-3.94-5.15-5.57c-1.88,2.36-14.41,14.78-31.12,33.61
					c-25.19,28.46-59.82,71.57-81.14,116.74C143.72,294.93,189.67,399.56,239.5,424.45z"/>
				<path fill="#8B4021" d="M364.78,344.94c0.43,1.88,0.73,3.15,0.79,3.64c0.06,0.12,0.06,0.18,0.06,0.18s14.23,0,33.3,0.91
					c26.22,1.33,61.69,4.36,81.8,11.62c6.36-10.23,10.9-22.34,13.75-35.6c3.87-17.74,4.72-37.6,2.9-57.76
					c-9.69,11.38-31.49,32.03-87.79,3.69C346.31,239.71,360.78,325.51,364.78,344.94z"/>
				<path fill="#8B4021" d="M365.56,348.58c2.42,0.12,5.93,0.12,10.66-0.12c8.23-0.37,15.8,0.06,22.7,1.21
					c30.64,4.84,48.98,22.28,58.79,34.94c9.38-5.63,16.95-13.63,23.01-23.31c6.36-10.23,10.9-22.34,13.75-35.6
					c-6.06-5.14-10.78-8.96-10.78-8.96s-99.05,19.86-118.92,28.21C360.23,346.88,359.81,348.21,365.56,348.58z"/>
			</g>
			<path fill="#4C1F10" d="M136.57,377.95c31.85,18.83,11.08,59.34,12.11,78.53c0.31,5.27,21.8,8.54,52.8,10.53
				c20.35-28.7-18.58-83.61-56.85-170.74C100.9,196.72,261.6,43.35,268.63,34.51c-13.08-11.56-33.19-13.19-40.27,2.67
				c-7.45,16.77-96.87,82.89-135.21,164.63C68.93,253.51,99.21,355.97,136.57,377.95z"/>
			<path fill="#EEB483" d="M238.96,492.02l20.22-15.98c-6.66,0.43-13.32,0.97-20.04,1.63C238.72,486.27,238.65,491.78,238.96,492.02
				z"/>
			<path fill="#EEB483" d="M56.8,617.68c8.58-36.94,19.9-65.17,30.3-78.18c13.74-17.2,32.64-29.98,54.31-39.3
				c12.66-5.51,26.22-9.81,40.33-13.26c8.84-2.18,17.86-3.94,27-5.39c4.18,16.29,32.52,18.47,53.22,17.92
				c-9.2-0.91-17.31-3.21-23.01-7.45c0,0,17.92,0,44.87,4.97c2.73,0.48,5.57,1.09,8.48,1.69c37.9,8,89.97,25.55,135.88,64.18v0.07
				c17.01,14.29,33.17,31.54,47.47,52.25c0.58,0.84,1.16,1.66,1.74,2.5H56.8z"/>
			<path fill="#F29B63" d="M238.96,492.02c5.69,4.24,13.8,6.54,23.01,7.45c9.45,0.91,20.05,0.42,30.34-0.79
				c26.1-3.09,50.62-10.78,50.62-11.68c-0.06-0.3-0.43-6.97-0.9-17.01c-1.04-21.74-2.67-59.34-3.69-83.44
				c-0.61-13.45-0.97-22.65-0.97-22.65l-92.22,10.59c0,0-1.63,24.46-3.2,51.11c-0.91,15.01-1.82,30.69-2.42,43.04v0.18
				c-0.12,3.21-0.3,6.18-0.36,8.84C238.72,486.27,238.65,491.78,238.96,492.02z"/>
			<path fill="#EB9979" d="M336.68,108.5c0,0,70.72,122.31,22.89,236.69c-19.32,46.25-54.55,71-77.13,85.17
				c31.67-6.05,80.04-29.83,108.43-97.76c47.83-114.38-22.95-236.68-22.95-236.68c-23.01-56.61-81.74-53.04-130.6-27.74
				C277.71,56.55,318.46,63.63,336.68,108.5z"/>
			<path fill="#EEB483" d="M234.33,427.69c2.61,1.21,5.95,2.29,9.76,3.2c32.88,7.85,66.89-6.22,86.85-33.49
				c2.48-3.4,4.95-7.02,7.38-10.85c7.38-11.63,14.53-25.31,21.25-41.35c1.27-3.03,2.48-6.12,3.57-9.14v-0.07
				c8.48-23.31,12.24-46.86,12.9-69.44c2.54-85.56-39.36-158.04-39.36-158.04c-18.24-44.85-58.93-51.96-99.29-40.35l-0.07,0.03
				c-36.09,18.59-66.73,49.11-73.51,76c-3.45,13.56-5.87,27.19-7.45,40.69C143.72,294.93,183.74,404.38,234.33,427.69z"/>
			<path fill="#6E2312" d="M269.75,46c0,0,16.65,36.18,10.6,71.11c-6.57,37.89-123.37,56.24-150.61,124.2
				c0,0-20.44-85.43,23.96-119.89C198.11,86.96,269.75,46,269.75,46z"/>
			<g>
				<path fill="#EB9979" d="M393.82,254.01c0,0,26.3-31.73,40.48-12.42s5.78,73.41-23.95,79.24
					C380.61,326.65,384.14,286.93,393.82,254.01z"/>
				<path fill="#F37021" d="M424.27,263.45c-17.68-3.37-27.05,17.88-21.77,32.69c5.28,14.8,17.53,2.4,17.53,2.4
					s-16.29,6.94-15.05-13.46c0.2-3.36,0.89-6.16,1.85-8.56c0.01,0.29-0.01,0.52,0.02,0.85c0.6,7.13,16.19,1.24,16.19,1.24
					c-10.68,0.61-12.96-4.72-13.45-7.02C415.31,264.11,424.27,263.45,424.27,263.45z"/>
			</g>
			<g>
				<path fill="#FFFFFF" d="M338.28,258.11c-5.06,13.64-22.25,25.96-40.31,25.5c-18.06-0.47-34.59-23.4-34.59-23.4l8.65-7.12
					c8.48-7.15,19.07-11.56,30.11-11.35C326.33,242.12,338.28,258.11,338.28,258.11z"/>
				<g>
					<g>
						<path fill="#894634" d="M285.35,256.13c-2.55,10.6,3.96,21.26,14.56,23.82c10.6,2.56,21.26-3.96,23.83-14.56
							c2.55-10.59-3.96-21.26-14.56-23.82C298.58,239.01,287.91,245.53,285.35,256.13z"/>
						<path fill="#704338" d="M296.9,260.62c-1.07,4.45,1.66,8.94,6.12,10.01c4.45,1.08,8.94-1.66,10.02-6.12
							c1.07-4.45-1.66-8.93-6.12-10.01C302.46,253.43,297.98,256.17,296.9,260.62z"/>
					</g>
					<path opacity="0.7" fill="#EDEEEE" d="M278.86,262.86c-1.02,4.2,1.57,8.42,5.76,9.44c4.2,1.02,8.42-1.57,9.44-5.77
						c1.02-4.19-1.57-8.42-5.77-9.43C284.1,256.08,279.87,258.66,278.86,262.86z"/>
				</g>
				<path fill="#62351E" d="M345.89,250.46l-7.61,7.66c0,0-11.95-16-36.15-16.37c-11.04-0.22-21.63,4.19-30.11,11.35l-8.65,7.12
					C263.38,260.21,285.27,214.54,345.89,250.46z"/>
			</g>
			<g>
				<path fill="#FFFFFF" d="M156.22,260.17c3.85,12.76,15.59,26.05,34.01,25.94c14.03-0.09,24.05-18.75,24.05-18.75l-6.68-7.09
					c-6.54-7.11-14.73-11.86-23.28-12.45C165.57,246.46,156.22,260.17,156.22,260.17z"/>
				<g>
					<g>
						<path fill="#894634" d="M203.56,262.12c1.88,9.73-4.08,19.04-13.32,20.79c-9.25,1.75-18.27-4.72-20.16-14.44
							c-1.89-9.73,4.08-19.04,13.32-20.79C192.65,245.93,201.68,252.39,203.56,262.12z"/>
						<path fill="#704338" d="M193.44,265.57c0.79,4.09-1.71,8.01-5.59,8.75c-3.88,0.73-7.68-1.98-8.48-6.07
							c-0.79-4.09,1.72-8.01,5.6-8.74C188.85,258.77,192.64,261.49,193.44,265.57z"/>
					</g>
					<path opacity="0.7" fill="#EDEEEE" d="M176.53,266.05c0.75,3.85-1.62,7.54-5.28,8.23c-3.66,0.69-7.23-1.87-7.98-5.72
						c-0.75-3.85,1.61-7.55,5.27-8.24C172.21,259.63,175.78,262.19,176.53,266.05z"/>
				</g>
				<path fill="#62351E" d="M150.35,252.66l5.87,7.51c0,0,9.35-13.71,28.1-12.35c8.56,0.58,16.74,5.34,23.28,12.45l6.68,7.09
					C214.28,267.36,197.53,224.26,150.35,252.66z"/>
			</g>
			<path fill="#5F1E0E" d="M154.19,222.44c0,0,47.59-9.1,53.83-0.5c5.48,7.55-4.61,10.44-4.61,10.44s-37.44-7.3-45.04-6.39
				C150.77,226.91,154.19,222.44,154.19,222.44z"/>
			<path fill="#5F1E0E" d="M276.86,215.86c-2.67,0.58-4.51,2.73-4.37,4.99c0.26,3.92,4.42,9.74,6.41,8.97
				c3.02-1.17,61.45-14.79,68.27-10.27c6.82,4.52,7.44-5.06-5.21-6.2C330.75,212.34,291.91,212.58,276.86,215.86z"/>
			<path fill="#F29B63" d="M261.18,323.02c0,0-21.57,19.76-42.89,0.73C218.29,323.75,242.51,320.85,261.18,323.02z"/>
			<path fill="#6E2312" d="M328.28,55.08c2.5-2.69-64.08-2.78-64.08-2.78s-5.8,78.46,60.04,117.94
				c65.85,39.49,46.17,131.38,46.17,131.38s81.74-36.61,47.68-96.2C384.04,145.83,300.29,85.23,328.28,55.08z"/>
			<path fill="#6E2312" d="M269,46.75c0,0,77.19,127.96,149.85,142.54C499.34,205.45,346.2,12.82,269,46.75z"/>
			<path fill="#F29B63" d="M477.38,617.68c-0.58-0.84-1.15-1.66-1.74-2.5c-14.29-20.71-30.45-37.96-47.47-52.25v-0.07
				c-84.1-70.84-177.59-65.27-177.59-65.27l8.59-21.56c29.37-1.81,57.22-1.63,79.38-1.27c4,0.12,7.75,0.18,11.32,0.25
				c5.69,0.06,13.87,0.66,22.95,1.75c12.3,1.34,26.22,3.52,37.97,6.3c6.6,1.57,12.41,3.27,16.89,5.27c0.6,0.24,1.39,0.54,2.3,0.97
				c0.24,0.12,0.48,0.24,0.66,0.36c3.51,1.82,7.15,3.94,10.78,6.3c0.25,0.12,0.48,0.31,0.73,0.49c6.6,4.72,15.15,11.99,25.55,23.19
				c0.18,0.18,0.37,0.36,0.48,0.54c17.69,19.08,40.76,49.74,68.62,97.5H477.38z"/>
			<path fill="#23B3E8" d="M139.05,617.68h-47.6c23.27-41.44,41.53-92.04,49.96-117.48c12.66-5.51,26.22-9.81,40.33-13.26
				c-10.11,28.52-46.65,119.56-43.26,129.68C138.61,617,138.9,617.3,139.05,617.68z"/>
			<path fill="#23B3E8" d="M331.09,617.68c1.32-2.17,2.42-4.51,3.14-7.02l38.6-133.9c12.3,1.34,26.22,3.52,37.97,6.3
				c-21.07,53.73-28.29,98.06-28.29,134.62H331.09z"/>
			<path fill="#F29B63" d="M208.75,481.55c4.17,16.29,32.51,18.47,53.22,17.92c-9.2-0.91-17.31-3.21-23.01-7.45
				c-0.31-0.24-0.24-5.75,0.18-14.35h-0.06C228.96,478.64,218.79,479.85,208.75,481.55z"/>
			<path fill="#892B1B" d="M343.42,67.7c3.3-1.35,48.95,26.74,77.2,70.13c0,0-66.1-13.12-80.73,33.3c0,0-27.76-5.05-44.4-31.29
				C295.49,139.85,305.07,83.34,343.42,67.7z"/>
			<g>
				<path fill="#EC6738" d="M288.12,364.22c0,0-22.94,8.72-32.42,0.88c-9.32-7.7-11.42-8.75-16.29-2.31
					c-4.86,6.43-11.32-8.37-16.02-0.09c-4.23,7.44-4.56,10.49-6.53,11.18C216.87,373.88,260.81,382.55,288.12,364.22z"/>
				<path fill="#EC6738" d="M286.44,367.86c0,0-25.36,25.93-49.54,25.42c0,0-16.68-2.08-18.61-19.12
					C218.3,374.16,272.16,379.94,286.44,367.86z"/>
				<path fill="#A82F23" d="M288.96,362.4c0,0-17.18,19.81-75.91,11c0,0,34.02,16.46,75.52-6.74L288.96,362.4z"/>
				<path fill="#F29B63" d="M255.66,404.63c0.39,0.33-13.43-7.59-22.56,3.54C233.1,408.17,239.98,391.32,255.66,404.63z"/>
			</g>
		</g>
	</g>
</g>
</svg>
