<?xml version="1.0" encoding="utf-8"?>
<!-- Generator: Adobe Illustrator 25.2.3, SVG Export Plug-In . SVG Version: 6.00 Build 0)  -->
<svg version="1.1" id="Layer_1" xmlns="http://www.w3.org/2000/svg" xmlns:xlink="http://www.w3.org/1999/xlink" x="0px" y="0px"
	 viewBox="0 0 576 576" enable-background="new 0 0 576 576" xml:space="preserve">
<g>
	<g>
		<defs>
			<path id="SVGID_1_" d="M576,288c0,159.06-128.94,288-288,288C128.94,576,0,447.06,0,288C0,128.94,128.94,0,288,0
				C447.06,0,576,128.94,576,288z"/>
		</defs>
		<use xlink:href="#SVGID_1_"  overflow="visible" fill="#F9E3D9"/>
		<clipPath id="SVGID_2_">
			<use xlink:href="#SVGID_1_"  overflow="visible"/>
		</clipPath>
		<g clip-path="url(#SVGID_2_)">
			<path fill="#F9E3D9" d="M576,288c0,159.06-128.94,288-288,288C128.94,576,0,447.06,0,288C0,128.94,128.94,0,288,0
				C447.06,0,576,128.94,576,288z"/>
			<g>
				<path fill="#F26640" d="M-55.97,627.81h601.93c7.29-73.92,33.11-209.72,8.71-252.45c-15.91-6.61-33.57-12.76-51.24-18.54
					c-21.68-7.07-43.34-13.59-61.72-19.59c-23.62-7.77-41.89-14.7-47.8-21.08c-13.44-14.51-98.4-2.44-152.3,6.98
					c-26.01,4.53-44.8,8.46-44.8,8.46c-3.11,0-47.87,29.4-100.46,66.97c-25.45,18.21-52.7,38.31-77.96,57.87
					c-48.96,37.99-90.27,74.09-96.08,90.81c-7.07,20.38,5.35,46.27,20.14,77.28C-57.02,625.6-56.49,626.73-55.97,627.81z"/>
				<path fill="#D65D3D" d="M545.96,627.81h57.86c9.14-71.7,31.07-186.64,4.71-219.21c-9.92-12.25-29.86-23.25-53.86-33.23
					C579.07,418.09,553.25,553.9,545.96,627.81z"/>
				<path fill="#D65D3D" d="M805.85,627.81c-41.23-84.54-78.18-82.24-95.54-143.2l-19.92,9.62c0,0,36.32,61.8,76.6,133.58H805.85z"
					/>
				<path fill="#D65D3D" d="M544.9,600.37c1.2,5.7,2.02,15.37,2.38,27.44h55.91c-0.45-7.98-1.2-14.33-2.15-18.49
					c-7.49-32.45,42.4-184.63,7.49-219.59c-9.92-9.92-29.86-18.83-53.86-26.91C585.03,405.87,537.61,565.68,544.9,600.37z"/>
				<path fill="#F26640" d="M-27.62,627.81h574.91c-0.36-12.08-1.18-21.74-2.38-27.44c-7.3-34.69,40.13-194.51,9.77-237.55
					c-15.91-5.35-33.57-10.33-51.24-15.01c-21.68-5.73-43.34-11.01-61.72-15.87c-23.62-6.28-41.89-11.9-47.8-17.07
					c-13.44-11.75-98.4-1.98-152.3,5.65c-26.01,3.66-44.8,6.85-44.8,6.85c-3.11,0-47.87,23.8-100.46,54.23
					c-25.45,14.75-52.7,31.03-77.96,46.86c-48.96,30.76-90.27,60-96.08,73.54c-7.07,16.51,5.35,37.46,20.14,62.58
					C-46.48,583.36-34.24,604.5-27.62,627.81z"/>
				<path fill="#D65D3D" d="M672.01,488.17c9.32,39.61,27.76,88.61,43.2,139.64h51.22c-15.19-44.95-32.94-87.97-42.02-122.91
					c-16.17-62.2-86.64-111.12-130.66-125.72C627.99,405.04,661.49,443.52,672.01,488.17z"/>
				<path fill="#F26640" d="M584,627.81h182.99c-40.28-71.79-76.6-133.58-76.6-133.58l19.92-9.62c-0.76-2.58-1.46-5.31-2.14-8.16
					c-10.51-44.65-80.17-71.41-114.41-97.28c-1.35-0.45-2.73-0.89-4.04-1.27C589.71,377.91,597.53,562.47,584,627.81z"/>
				<path fill="#D65D3D" d="M-89.93,627.81c27.15-54.38,52.48-99.03,74.84-150.76c15.73-36.27,49.4-67.44,84.48-89.75
					C20.99,401.42-46.9,438.8-70.18,488.32c-17.31,36.92-72.89,88.4-121.39,139.49H-89.93z"/>
				<path fill="#F26640" d="M60.9,627.81c0.2-5.04-0.01-9.66-1.1-13.29c-10.07-33.49,18.3-157.16,31.1-209.4
					c3.59-14.52,5.95-23.55,5.95-23.55c-0.15,0-0.3,0.04-0.49,0.04c-7.79,0.83-16.95,2.77-26.99,5.69
					c-18.12,11.53-35.89,25.42-50.97,41.18c-14.07,14.71-25.86,30.99-33.46,48.47c0,0-0.04,0.07-0.04,0.11
					c-5.42,12.54-11.04,24.66-16.76,36.61c-8.23,17.11-16.81,33.83-25.67,50.93c-10.41,20.16-21.24,40.96-32.35,63.22H60.9z"/>
				<path fill="#F68D55" d="M308.84,462.34c-15.15,1.94-30.68,1.98-46.22-0.22c-96.07-13.74-113.52-94.84-114.15-103.56
					c7.82-10.07,30.69-17.44,58.87-22.86C205.7,349.99,199.04,443.33,308.84,462.34z"/>
				<path fill="#F9A97E" d="M308.88,462.34C199.04,443.37,205.7,349.99,207.34,335.69c40.27-7.75,91.47-11.46,125.38-13.18
					c21.86-1.08,36.57-1.39,36.57-1.39s55.09-11,71.45,11.71C454.1,391.83,387.41,452.39,308.88,462.34z"/>
				<path fill="#F1ECC9" d="M320.64,464.06c-4.04-0.49-7.97-1.04-11.75-1.72c78.53-9.95,145.22-70.52,131.86-129.5
					c1.46,2.06,2.62,4.38,3.41,7C453.05,370.16,451.79,441.19,320.64,464.06z"/>
				<path fill="#F1ECC9" d="M320.64,464.06c-6.51,1.12-13.4,2.13-20.59,3.03c-151.58,18.71-151.58-108.54-151.58-108.54
					c0.64,8.72,18.08,89.83,114.15,103.56c15.54,2.21,31.07,2.17,46.22,0.22h0.04c1.72,0.34,3.52,0.6,5.32,0.86
					c0.22,0.04,0.41,0.08,0.6,0.11C316.7,463.58,318.65,463.84,320.64,464.06z"/>
				<g>
					<path fill="#F9A97E" d="M419.95,368.49c-5.37,18.62-90.88,64.03-114.85,67.18c0,0-77.95-14.36-91.17-28.62
						c-13.21-14.26-14.54-88.24-34.95-103.98c-20.44-15.77-9.46-63.54-10.19-70.3c-9.25-84.12,34.99-133.81,70.46-159.61
						c30.43-8.94,69.44-9.4,103.87,3.66c43.82,16.6,50.8,26.07,61.36,60.3C415.04,171.37,425.33,349.9,419.95,368.49z"/>
					<path fill="#C96E3E" d="M347.01,344.66c-40.58-10.6-92.81,3.62-96.18,4.49C250.83,349.15,361.98,348.57,347.01,344.66z"/>
					<path fill="#C96E3E" d="M160.97,208.2c0,0-21.76-46.91-33.68-6.38c-11.91,40.53,1.61,63.5,7.62,71.21
						c6.02,7.71,19.36,35.86,27.71,26.93C170.99,291.04,160.97,208.2,160.97,208.2z"/>
					<path fill="#AD5E35" d="M157.25,228.48l-17.55-16.41c0,0-9.05,13.81-5.44,25.58c3.62,11.76,16.02,31.32,16.02,31.32
						S154.47,235.87,157.25,228.48z"/>
					<path fill="#F9A97E" d="M409.77,193.68c0,0,14.75-49.56,32.4-11.18c17.65,38.39,7.59,63.07,2.75,71.57
						c-4.84,8.5-13.97,38.29-23.53,30.65C411.84,277.09,409.77,193.68,409.77,193.68z"/>
					<path fill="#AD5E35" d="M416.38,213.2l15-18.77c0,0,10.95,12.36,9.08,24.52c-1.88,12.17-11.33,33.31-11.33,33.31
						S420.2,220.11,416.38,213.2z"/>
					<path fill="#FFFFFF" d="M322.5,200.09c4.36,4.38,8.07,19.09,34.43,17.67c26.36-1.41,27.2-26.34,27.2-26.34L322.5,200.09z"/>
					<path fill="#7D885B" d="M368.32,199.32c0.62,8.48-5.76,15.86-14.24,16.47c-8.48,0.62-15.86-5.76-16.47-14.24
						c-0.62-8.48,5.76-15.86,14.24-16.47C360.32,184.46,367.7,190.84,368.32,199.32z"/>
					<path fill="#313D23" d="M361.87,199.79c0.35,4.92-3.34,9.2-8.26,9.55c-4.92,0.36-9.2-3.34-9.55-8.26
						c-0.36-4.92,3.34-9.19,8.26-9.55C357.23,191.17,361.51,194.87,361.87,199.79z"/>
					<g>
						<path fill="#534030" d="M412.93,186.23c-3.44,2.99-85.76,20.85-95.62,20.35c-9.86-0.49-11.2-19.18-7.21-21.49
							c1-0.58,2.01-1.12,3.01-1.65c-0.21,6.28,2.57,15.04,9.28,15.38c8.01,0.42,64.06-11.35,86.48-17.35
							C412.17,183.72,413.64,185.59,412.93,186.23z"/>
						<path fill="#785D48" d="M408.88,181.45c-22.42,6-78.47,17.77-86.48,17.35c-6.71-0.33-9.49-9.09-9.28-15.38
							C358.7,158.82,396.57,172.94,408.88,181.45z"/>
					</g>
					<path fill="#FFFFFF" d="M252.39,207.22c-3.68,4.96-5.22,20.05-31.51,22.46s-30.72-22.13-30.72-22.13L252.39,207.22z"/>
					<path fill="#7D885B" d="M206.73,213.59c0.62,8.48,7.99,14.86,16.47,14.24c8.48-0.62,14.86-7.99,14.24-16.47
						c-0.62-8.48-7.99-14.85-16.47-14.24C212.49,197.74,206.12,205.11,206.73,213.59z"/>
					<path fill="#313D23" d="M213.18,213.13c0.36,4.92,4.64,8.61,9.55,8.26c4.92-0.36,8.61-4.64,8.26-9.55
						c-0.35-4.92-4.64-8.62-9.55-8.26C216.52,203.93,212.83,208.2,213.18,213.13z"/>
					<g>
						<path fill="#534030" d="M167.05,205.87c3.86,2.43,87.94,7.38,97.61,5.36c9.67-2,8.11-20.68,3.82-22.34
							c-1.08-0.43-2.16-0.8-3.24-1.18c1.18,6.17-0.21,15.26-6.79,16.63c-7.85,1.65-65.05-1.34-88.13-3.81
							C167.41,203.29,166.26,205.35,167.05,205.87z"/>
						<path fill="#785D48" d="M170.32,200.53c23.08,2.47,80.27,5.46,88.13,3.81c6.58-1.37,7.96-10.45,6.79-16.63
							C216.4,170.44,181.17,190.22,170.32,200.53z"/>
					</g>
					<path fill="#C96E3E" d="M284.79,223.25c-6.23-0.64-15.79-6.03-15.15,50.02c0.02,1.52,0.05,3.11,0.07,4.73
						c0.02,0.75,0.04,1.52,0.06,2.29c0,0-4.36,0.96-8.54,1.52c-3.77,0.51-7.39,0.72-7.47-0.35c-0.16-2.3,1.9-59.54,23.77-63.14
						C299.4,214.72,291.45,223.92,284.79,223.25z"/>
					<path fill="#C96E3E" d="M254.13,276.39c0,0-33.17,15.91-33.35,80.41c0,0,5.85-52.56,33.71-75.4L254.13,276.39z"/>
					<path fill="#C96E3E" d="M335.29,283.07c0,0,21.81,7.04,28.2,66.94c0,0-1.69-58.22-23.41-70.84L335.29,283.07z"/>
					<path fill="#C96E3E" d="M305.1,435.67c-24,3.15-101.29-23.44-125.85-46.89c-24.59-23.42-22.17-138.42-22.17-138.42
						s2.61-28.92,3.82-77.31c1.21-50.28,27.76-77.44,59.22-92.63c5.85-2.83,12.28-5.27,19.13-7.26
						c-35.47,25.8-79.7,75.49-70.46,159.61c0.74,6.76-10.25,54.53,10.19,70.3c20.41,15.74,21.73,89.73,34.95,103.98
						C227.15,421.31,305.1,435.67,305.1,435.67z"/>
					<path fill="#5F4A39" d="M378.04,495.29c0,0-61,29.66-138.45,9.24c0,0-0.79-1.86-2.1-5.23
						c69.59,12.77,122.26-12.84,122.26-12.84c17.14-41.12,5.98-132,5.98-132s-0.48-4.37-4.17-8.83
						c20.82,2.57,22.46,17.66,22.46,17.66S395.19,454.18,378.04,495.29z"/>
					<path fill="#785D48" d="M359.75,486.46c0,0-52.67,25.61-122.26,12.84c-7.02-18-28.83-78.87-23.01-126.14
						c6.91-56.1,50.8-23.21,50.8-23.21c1.24,0.46,27.68,7.22,71.82-2.51c10.22-2.25,18.21-2.61,24.47-1.82
						c3.69,4.46,4.17,8.83,4.17,8.83S376.9,445.34,359.75,486.46z"/>
					<g>
						<path fill="#5F4A39" d="M296.26,311.02c-0.11,2.81-0.3,5.68-0.55,8.57c-0.03,0.39-0.07,0.76-0.16,1.13
							c-4.41,28.2-80.75,56.92-80.75,56.92c-0.01-0.2-0.05-0.42-0.05-0.62c19.11-12.19,68.93-45.52,78.63-67.67
							c0.39-0.91,0.71-1.77,0.96-2.63c0.14-0.41,0.24-0.82,0.33-1.23c0.65-2.86,1.05-5.67,1.22-8.38
							C296.37,301.4,296.45,306.12,296.26,311.02z"/>
						<path fill="#785D48" d="M293.39,309.34c-9.7,22.15-59.52,55.49-78.63,67.67c-6.42-67.7,46.37-95.15,46.37-95.15
							s0.07-0.04,0.11-0.06c4.18-0.56,8.54-1.52,8.54-1.52c7.56,1.61,15.56,9.89,21.27,13.2c0.46,0.26,0.97,0.48,1.53,0.64
							c-0.16,1.88-0.18,3.87-0.1,5.96C292.59,303.03,292.9,306.14,293.39,309.34z"/>
					</g>
					<g>
						<path fill="#5F4A39" d="M384.33,367.44c0.03,0.2,0.03,0.42,0.04,0.62c0,0-81.84-17.85-88.44-45.75
							c-0.13-0.54-0.24-1.06-0.37-1.6c-0.88-3.85-1.62-7.68-2.16-11.37c-0.49-3.2-0.81-6.32-0.91-9.25
							c0.45,2.16,1.07,4.39,1.87,6.62c0.16,0.5,0.35,1,0.55,1.5c0.36,0.93,0.79,1.86,1.36,2.81
							C308.08,331.67,363.38,358.02,384.33,367.44z"/>
						<path fill="#785D48" d="M384.33,367.44c-20.95-9.42-76.25-35.77-88.07-56.42c0.19-4.9,0.11-9.62-0.35-13.92
							c-0.1-0.85-0.2-1.69-0.33-2.5c7.73,0.33,19.43-4.45,19.92-8.33c1.86-1.87,6.43-3.64,10.38-5.02
							C325.88,281.25,380.9,299.53,384.33,367.44z"/>
						<path fill="#785D48" d="M315.49,285.68c0.03,0.2,0.05,0.4,0.01,0.58c-0.49,3.88-12.19,8.67-19.92,8.33
							c0.13,0.81,0.23,1.65,0.33,2.5c0.46,4.3,0.54,9.02,0.35,13.92c-0.56-0.95-1-1.88-1.36-2.81c-0.2-0.5-0.39-1-0.55-1.5
							c-0.8-2.23-1.42-4.46-1.87-6.62c-0.08-2.08-0.06-4.08,0.1-5.96c0.13-1.5,0.32-2.94,0.6-4.27c0.18-0.89,0.41-1.73,0.66-2.53
							c0.03-0.13,0.07-0.26,0.14-0.39C303.22,286.97,314.85,282.4,315.49,285.68z"/>
					</g>
					<path fill="#C96E3E" d="M315.49,285.68c0.74,3.95-11.77,9.28-19.91,8.92c-1.1-0.05-2.1-0.2-3-0.46
						c-0.56-0.16-1.07-0.38-1.53-0.64c-5.71-3.32-13.71-11.6-21.27-13.2c-1.2-0.26-2.39-0.34-3.55-0.22
						c-0.62,0.07-1.15,0.09-1.64,0.07c-6.27-0.17-2.28-6.39-2.28-6.39c1.04-0.55,3.91-0.95,7.34-0.48c2.57,0.38,5.48,1.23,8.16,2.88
						c2.34,1.44,4.5,3.5,6.12,6.37c1.85,3.28,5.54,4.33,9.76,4.39c0.1,0.01,0.18,0.01,0.3,0.02
						C303.22,286.97,314.85,282.4,315.49,285.68z"/>
				</g>
				<path fill="#D65D3D" d="M-89.89,627.81c4.81-9.66,9.55-19.03,14.26-28.15c1.87-3.7,3.78-7.33,5.65-10.97
					c4.19-8.16,8.35-16.17,12.46-24.1c0.15-0.26,0.3-0.56,0.45-0.82c4.26-8.19,8.42-16.32,12.54-24.44
					c4.3-8.54,8.53-17.07,12.69-25.67c3.22-6.66,6.36-13.4,9.47-20.25c1.09-2.32,2.13-4.68,3.18-7.04c1.39-3.07,2.77-6.17,4.12-9.32
					c0-0.04,0.03-0.07,0.03-0.07c1.42-3.34,3-6.55,4.72-9.73c0.56-1.09,1.12-2.13,1.75-3.18c0.56-1.05,1.2-2.09,1.84-3.15
					c0.6-1.04,1.23-2.09,1.91-3.11c5.54-8.76,12.09-17.14,19.31-25.12c0.9-0.97,1.8-1.94,2.69-2.92c0.41-0.45,0.83-0.86,1.23-1.31
					c0.71-0.74,1.42-1.5,2.17-2.21c1.61-1.65,3.3-3.3,4.98-4.9c2.43-2.36,4.98-4.68,7.52-6.89c1.42-1.27,2.85-2.5,4.31-3.74
					c2.84-2.39,5.73-4.75,8.65-6.96c1.27-1.04,2.58-2.02,3.89-2.99c0.6-0.49,1.2-0.93,1.83-1.35c3.37-2.54,6.81-4.94,10.26-7.3
					c2.43-1.65,4.9-3.26,7.37-4.83C21,401.41-46.89,438.8-70.17,488.32c-6,12.76-16.55,27.24-29.8,42.89
					c-9.65,11.34-20.74,23.32-32.52,35.66c-4.64,4.83-9.4,9.77-14.18,14.72l-0.12,46.23H-89.89z"/>
				<path fill="#F26640" d="M60.92,627.81c0.19-5.04-0.01-9.67-1.1-13.29c-10.07-33.5,18.31-157.16,31.1-209.4
					c3.59-14.52,5.95-23.55,5.95-23.55c-0.14,0-0.3,0.04-0.49,0.04c-7.78,0.82-16.95,2.77-26.98,5.69
					c-2.48,1.58-4.94,3.18-7.37,4.83c-3.45,2.36-6.89,4.75-10.26,7.3c-0.64,0.41-1.23,0.86-1.83,1.35
					c-1.31,0.98-2.63,1.95-3.89,2.99c-2.92,2.21-5.8,4.57-8.65,6.96c-1.46,1.24-2.88,2.48-4.31,3.74c-2.54,2.21-5.09,4.53-7.52,6.89
					c-1.68,1.6-3.37,3.25-4.98,4.9c-0.75,0.71-1.46,1.46-2.17,2.21c-0.41,0.45-0.82,0.86-1.23,1.31c-0.89,0.97-1.79,1.94-2.69,2.92
					c-7.22,7.97-13.78,16.36-19.31,25.12c-0.68,1.01-1.31,2.06-1.91,3.11c-0.64,1.05-1.23,2.09-1.84,3.15
					c-0.6,1.05-1.2,2.09-1.75,3.18c-1.72,3.18-3.3,6.4-4.72,9.69c0,0-0.03,0.07-0.03,0.11c-1.35,3.15-2.73,6.25-4.12,9.32
					c-1.05,2.36-2.09,4.71-3.18,7.04c-3.11,6.85-6.25,13.59-9.47,20.25c-4.16,8.6-8.39,17.14-12.69,25.67
					c-4.12,8.12-8.27,16.24-12.54,24.44c-0.15,0.26-0.3,0.56-0.45,0.82c-4.12,7.93-8.27,15.94-12.46,24.1
					c-1.87,3.63-3.78,7.26-5.65,10.97c-4.7,9.12-9.45,18.49-14.26,28.15H60.92z"/>
				<path fill="#F68D55" d="M308.84,462.34c-15.15,1.94-30.68,1.98-46.22-0.22c-96.07-13.74-113.52-94.84-114.15-103.56
					c7.82-10.07,30.69-17.44,58.87-22.86C205.7,349.99,199.04,443.33,308.84,462.34z"/>
				<path fill="#F9A97E" d="M308.88,462.34C199.04,443.37,205.7,349.99,207.34,335.69c40.27-7.75,91.47-11.46,125.38-13.18
					c21.86-1.08,36.57-1.39,36.57-1.39s55.09-11,71.45,11.71C454.1,391.83,387.41,452.39,308.88,462.34z"/>
				<path fill="#F1ECC9" d="M320.64,464.06c-4.04-0.49-7.97-1.04-11.75-1.72c78.53-9.95,145.22-70.52,131.86-129.5
					c1.46,2.06,2.62,4.38,3.41,7C453.05,370.16,451.79,441.19,320.64,464.06z"/>
				<path fill="#F1ECC9" d="M320.64,464.06c-6.51,1.12-13.4,2.13-20.59,3.03c-151.58,18.71-151.58-108.54-151.58-108.54
					c0.64,8.72,18.08,89.83,114.15,103.56c15.54,2.21,31.07,2.17,46.22,0.22h0.04c1.72,0.34,3.52,0.6,5.32,0.86
					c0.22,0.04,0.41,0.08,0.6,0.11C316.7,463.58,318.65,463.84,320.64,464.06z"/>
				<g>
					<path fill="#F9A97E" d="M419.95,368.49c-5.37,18.62-90.88,64.03-114.85,67.18c0,0-77.95-14.36-91.17-28.62
						c-13.21-14.26-14.54-88.24-34.95-103.98c-20.44-15.77-9.46-63.54-10.19-70.3c-9.25-84.12,34.99-133.81,70.46-159.61
						c30.43-8.94,69.44-9.4,103.87,3.66c43.82,16.6,50.8,26.07,61.36,60.3C415.04,171.37,425.33,349.9,419.95,368.49z"/>
					<path fill="#C96E3E" d="M347.01,344.66c-40.58-10.6-92.81,3.62-96.18,4.49C250.83,349.15,361.98,348.57,347.01,344.66z"/>
					<path fill="#C96E3E" d="M160.97,208.2c0,0-21.76-46.91-33.68-6.38c-11.91,40.53,1.61,63.5,7.62,71.21
						c6.02,7.71,19.36,35.86,27.71,26.93C170.99,291.04,160.97,208.2,160.97,208.2z"/>
					<path fill="#AD5E35" d="M157.25,228.48l-17.55-16.41c0,0-9.05,13.81-5.44,25.58c3.62,11.76,16.02,31.32,16.02,31.32
						S154.47,235.87,157.25,228.48z"/>
					<path fill="#F9A97E" d="M409.77,193.68c0,0,14.75-49.56,32.4-11.18c17.65,38.39,7.59,63.07,2.75,71.57
						c-4.84,8.5-13.97,38.29-23.53,30.65C411.84,277.09,409.77,193.68,409.77,193.68z"/>
					<path fill="#AD5E35" d="M416.38,213.2l15-18.77c0,0,10.95,12.36,9.08,24.52c-1.88,12.17-11.33,33.31-11.33,33.31
						S420.2,220.11,416.38,213.2z"/>
					<path fill="#FFFFFF" d="M322.5,200.09c4.36,4.38,8.07,19.09,34.43,17.67c26.36-1.41,27.2-26.34,27.2-26.34L322.5,200.09z"/>
					<path fill="#7D885B" d="M368.32,199.32c0.62,8.48-5.76,15.86-14.24,16.47c-8.48,0.62-15.86-5.76-16.47-14.24
						c-0.62-8.48,5.76-15.86,14.24-16.47C360.32,184.46,367.7,190.84,368.32,199.32z"/>
					<path fill="#313D23" d="M361.87,199.79c0.35,4.92-3.34,9.2-8.26,9.55c-4.92,0.36-9.2-3.34-9.55-8.26
						c-0.36-4.92,3.34-9.19,8.26-9.55C357.23,191.17,361.51,194.87,361.87,199.79z"/>
					<g>
						<path fill="#534030" d="M412.93,186.23c-3.44,2.99-85.76,20.85-95.62,20.35c-9.86-0.49-11.2-19.18-7.21-21.49
							c1-0.58,2.01-1.12,3.01-1.65c-0.21,6.28,2.57,15.04,9.28,15.38c8.01,0.42,64.06-11.35,86.48-17.35
							C412.17,183.72,413.64,185.59,412.93,186.23z"/>
						<path fill="#785D48" d="M408.88,181.45c-22.42,6-78.47,17.77-86.48,17.35c-6.71-0.33-9.49-9.09-9.28-15.38
							C358.7,158.82,396.57,172.94,408.88,181.45z"/>
					</g>
					<path fill="#FFFFFF" d="M252.39,207.22c-3.68,4.96-5.22,20.05-31.51,22.46s-30.72-22.13-30.72-22.13L252.39,207.22z"/>
					<path fill="#7D885B" d="M206.73,213.59c0.62,8.48,7.99,14.86,16.47,14.24c8.48-0.62,14.86-7.99,14.24-16.47
						c-0.62-8.48-7.99-14.85-16.47-14.24C212.49,197.74,206.12,205.11,206.73,213.59z"/>
					<path fill="#313D23" d="M213.18,213.13c0.36,4.92,4.64,8.61,9.55,8.26c4.92-0.36,8.61-4.64,8.26-9.55
						c-0.35-4.92-4.64-8.62-9.55-8.26C216.52,203.93,212.83,208.2,213.18,213.13z"/>
					<g>
						<path fill="#534030" d="M167.05,205.87c3.86,2.43,87.94,7.38,97.61,5.36c9.67-2,8.11-20.68,3.82-22.34
							c-1.08-0.43-2.16-0.8-3.24-1.18c1.18,6.17-0.21,15.26-6.79,16.63c-7.85,1.65-65.05-1.34-88.13-3.81
							C167.41,203.29,166.26,205.35,167.05,205.87z"/>
						<path fill="#785D48" d="M170.32,200.53c23.08,2.47,80.27,5.46,88.13,3.81c6.58-1.37,7.96-10.45,6.79-16.63
							C216.4,170.44,181.17,190.22,170.32,200.53z"/>
					</g>
					<path fill="#C96E3E" d="M284.79,223.25c-6.23-0.64-15.79-6.03-15.15,50.02c0.02,1.52,0.05,3.11,0.07,4.73
						c0.02,0.75,0.04,1.52,0.06,2.29c0,0-4.36,0.96-8.54,1.52c-3.77,0.51-7.39,0.72-7.47-0.35c-0.16-2.3,1.9-59.54,23.77-63.14
						C299.4,214.72,291.45,223.92,284.79,223.25z"/>
					<path fill="#C96E3E" d="M254.13,276.39c0,0-33.17,15.91-33.35,80.41c0,0,5.85-52.56,33.71-75.4L254.13,276.39z"/>
					<path fill="#C96E3E" d="M335.29,283.07c0,0,21.81,7.04,28.2,66.94c0,0-1.69-58.22-23.41-70.84L335.29,283.07z"/>
					<path fill="#C96E3E" d="M305.1,435.67c-24,3.15-101.29-23.44-125.85-46.89c-24.59-23.42-22.17-138.42-22.17-138.42
						s2.61-28.92,3.82-77.31c1.21-50.28,27.76-77.44,59.22-92.63c5.85-2.83,12.28-5.27,19.13-7.26
						c-35.47,25.8-79.7,75.49-70.46,159.61c0.74,6.76-10.25,54.53,10.19,70.3c20.41,15.74,21.73,89.73,34.95,103.98
						C227.15,421.31,305.1,435.67,305.1,435.67z"/>
					<path fill="#5F4A39" d="M378.04,495.29c0,0-61,29.66-138.45,9.24c0,0-0.79-1.86-2.1-5.23
						c69.59,12.77,122.26-12.84,122.26-12.84c17.14-41.12,5.98-132,5.98-132s-0.48-4.37-4.17-8.83
						c20.82,2.57,22.46,17.66,22.46,17.66S395.19,454.18,378.04,495.29z"/>
					<path fill="#785D48" d="M359.75,486.46c0,0-52.67,25.61-122.26,12.84c-7.02-18-28.83-78.87-23.01-126.14
						c6.91-56.1,50.8-23.21,50.8-23.21c1.24,0.46,27.68,7.22,71.82-2.51c10.22-2.25,18.21-2.61,24.47-1.82
						c3.69,4.46,4.17,8.83,4.17,8.83S376.9,445.34,359.75,486.46z"/>
					<g>
						<path fill="#5F4A39" d="M296.26,311.02c-0.11,2.81-0.3,5.68-0.55,8.57c-0.03,0.39-0.07,0.76-0.16,1.13
							c-4.41,28.2-80.75,56.92-80.75,56.92c-0.01-0.2-0.05-0.42-0.05-0.62c19.11-12.19,68.93-45.52,78.63-67.67
							c0.39-0.91,0.71-1.77,0.96-2.63c0.14-0.41,0.24-0.82,0.33-1.23c0.65-2.86,1.05-5.67,1.22-8.38
							C296.37,301.4,296.45,306.12,296.26,311.02z"/>
						<path fill="#785D48" d="M293.39,309.34c-9.7,22.15-59.52,55.49-78.63,67.67c-6.42-67.7,46.37-95.15,46.37-95.15
							s0.07-0.04,0.11-0.06c4.18-0.56,8.54-1.52,8.54-1.52c7.56,1.61,15.56,9.89,21.27,13.2c0.46,0.26,0.97,0.48,1.53,0.64
							c-0.16,1.88-0.18,3.87-0.1,5.96C292.59,303.03,292.9,306.14,293.39,309.34z"/>
					</g>
					<g>
						<path fill="#5F4A39" d="M384.33,367.44c0.03,0.2,0.03,0.42,0.04,0.62c0,0-81.84-17.85-88.44-45.75
							c-0.13-0.54-0.24-1.06-0.37-1.6c-0.88-3.85-1.62-7.68-2.16-11.37c-0.49-3.2-0.81-6.32-0.91-9.25
							c0.45,2.16,1.07,4.39,1.87,6.62c0.16,0.5,0.35,1,0.55,1.5c0.36,0.93,0.79,1.86,1.36,2.81
							C308.08,331.67,363.38,358.02,384.33,367.44z"/>
						<path fill="#785D48" d="M384.33,367.44c-20.95-9.42-76.25-35.77-88.07-56.42c0.19-4.9,0.11-9.62-0.35-13.92
							c-0.1-0.85-0.2-1.69-0.33-2.5c7.73,0.33,19.43-4.45,19.92-8.33c1.86-1.87,6.43-3.64,10.38-5.02
							C325.88,281.25,380.9,299.53,384.33,367.44z"/>
						<path fill="#785D48" d="M315.49,285.68c0.03,0.2,0.05,0.4,0.01,0.58c-0.49,3.88-12.19,8.67-19.92,8.33
							c0.13,0.81,0.23,1.65,0.33,2.5c0.46,4.3,0.54,9.02,0.35,13.92c-0.56-0.95-1-1.88-1.36-2.81c-0.2-0.5-0.39-1-0.55-1.5
							c-0.8-2.23-1.42-4.46-1.87-6.62c-0.08-2.08-0.06-4.08,0.1-5.96c0.13-1.5,0.32-2.94,0.6-4.27c0.18-0.89,0.41-1.73,0.66-2.53
							c0.03-0.13,0.07-0.26,0.14-0.39C303.22,286.97,314.85,282.4,315.49,285.68z"/>
					</g>
					<path fill="#C96E3E" d="M315.49,285.68c0.74,3.95-11.77,9.28-19.91,8.92c-1.1-0.05-2.1-0.2-3-0.46
						c-0.56-0.16-1.07-0.38-1.53-0.64c-5.71-3.32-13.71-11.6-21.27-13.2c-1.2-0.26-2.39-0.34-3.55-0.22
						c-0.62,0.07-1.15,0.09-1.64,0.07c-6.27-0.17-2.28-6.39-2.28-6.39c1.04-0.55,3.91-0.95,7.34-0.48c2.57,0.38,5.48,1.23,8.16,2.88
						c2.34,1.44,4.5,3.5,6.12,6.37c1.85,3.28,5.54,4.33,9.76,4.39c0.1,0.01,0.18,0.01,0.3,0.02
						C303.22,286.97,314.85,282.4,315.49,285.68z"/>
				</g>
				<path fill="#D65D3D" d="M672.01,488.17c9.32,39.61,27.76,88.61,43.2,139.64h51.22c-15.19-44.95-32.94-87.97-42.02-122.91
					c-16.17-62.2-86.64-111.12-130.66-125.72C627.99,405.04,661.49,443.52,672.01,488.17z"/>
				<path fill="#F26640" d="M771.4,627.81c-33.42-57.44-78.95-110.69-99.39-139.64c-26.46-37.47-44.01-83.13-78.26-108.99
					c-1.35-0.45-2.73-0.9-4.04-1.27c0,0-13.54,123.36-34.05,163.11c-6.05,11.73,6.36,46,25.32,86.8H771.4z"/>
				<path fill="#F26640" d="M566.57,627.81h52.51l16.19-101.84c0,0-21.98-126.32-30.41-138.01c-8.42-11.69-50.19-25.14-50.19-25.14
					c-0.24,16.99-0.88,141.99,1.92,200.65C557.76,588.03,561.57,609.43,566.57,627.81z"/>
			</g>
		</g>
	</g>
</g>
</svg>
