<?xml version="1.0" encoding="utf-8"?>
<!-- Generator: Adobe Illustrator 25.2.3, SVG Export Plug-In . SVG Version: 6.00 Build 0)  -->
<svg version="1.1" id="Layer_1" xmlns="http://www.w3.org/2000/svg" xmlns:xlink="http://www.w3.org/1999/xlink" x="0px" y="0px"
	 viewBox="0 0 576 576" enable-background="new 0 0 576 576" xml:space="preserve">
<g>
	<g>
		<defs>
			<path id="SVGID_1_" d="M576,288c0,159.06-128.94,288-287.99,288s-288-128.94-288-288S128.95,0,288.01,0S576,128.94,576,288z"/>
		</defs>
		<use xlink:href="#SVGID_1_"  overflow="visible" fill="#F9E3D9"/>
		<clipPath id="SVGID_2_">
			<use xlink:href="#SVGID_1_"  overflow="visible"/>
		</clipPath>
		<g clip-path="url(#SVGID_2_)">
			<path fill="#F47A4E" d="M167.87,285.67c-1.77-0.44-20.74-17.65-37.52,2.65c-16.77,20.31,1.33,71.5,14.57,76.8
				c13.24,5.29,24.27,1.32,25.6-2.21C171.83,359.38,167.87,285.67,167.87,285.67z"/>
			<g>
				<path fill="#6F604C" d="M152.39,169.16c0,0-22.8,51.88-17.39,93.47c5.4,41.58,21.9-7.82,21.9-7.82s0.21-54.52,30.4-64.27
					C217.5,180.8,152.39,169.16,152.39,169.16z"/>
				<polygon fill="#6F604C" points="153.37,329.2 146.95,258.81 136.79,272 146.49,326.44 				"/>
			</g>
			
				<rect x="240.52" y="434.35" transform="matrix(-1 -1.224647e-16 1.224647e-16 -1 568.6349 989.6813)" fill="#F8A184" width="87.6" height="120.97"/>
			<path fill="#F8A184" d="M201.09,137.07c48.7-44.7,121.22-44.7,169.92,0c46.87,43.02,56.3,109.72,54.8,163.05
				c1.51,48.8-13.03,108.1-59.9,147.46c-48.7,40.9-116.12,42.63-164.83,1.73c-46.86-39.37-56.3-100.4-54.8-149.19
				C144.78,246.8,154.23,180.09,201.09,137.07z"/>
			<path fill="#F47A4E" d="M233.9,335.17h-29.6C204.29,335.17,216.19,361.77,233.9,335.17z"/>
			<path fill="#834A4C" d="M187.97,248.3l-1.15,14.39c0,0-14.49-3.85-35.12,2.77l-0.72-9.13
				C150.98,256.34,172.98,244.89,187.97,248.3z"/>
			<path fill="#834A4C" d="M290.27,248.3l1.15,14.39c0,0,14.49-3.85,35.12,2.77l0.72-9.13C327.26,256.34,305.26,244.89,290.27,248.3
				z"/>
			<g>
				<path fill="#68423E" d="M235.01,425.67c29.22,0.23,49.72-27.65,47.63-34.21c-0.95-3.62-6.59-2.1-15.17,0.28
					c-8.52,2.34-19.95,5.5-32.46,5.27c-14.36,0.27-27.23-3.95-36.01-6.24c-6.56-1.75-10.81-2.44-11.62,0.68
					C185.28,398.02,205.8,425.9,235.01,425.67z"/>
				<path fill="#FFFCFD" d="M199,390.78l2.96,17.79c29.33,15.31,64.16-0.66,64.16-0.66l1.34-16.17c-8.52,2.34-19.95,5.5-32.46,5.27
					C220.65,397.29,207.78,393.07,199,390.78z"/>
			</g>
			<path fill="#68423E" d="M309.36,282.51c7.7,0,13.93,6.24,13.93,13.92v18.45c0,7.69-6.24,13.93-13.93,13.93
				c-7.69,0-13.92-6.24-13.92-13.93v-18.45C295.44,288.75,301.67,282.51,309.36,282.51z"/>
			<path fill="#68423E" d="M165.42,282.51c7.7,0,13.93,6.24,13.93,13.92v18.45c0,7.69-6.24,13.93-13.93,13.93
				c-7.69,0-13.92-6.24-13.92-13.93v-18.45C151.5,288.75,157.73,282.51,165.42,282.51z"/>
			<g>
				<path fill="#6F604C" d="M412.66,164.84c0,0,27.97,50.95,15.55,93.04c-12.42,42.09-39.64-6.53-39.64-6.53s2.92-54.75-51.8-62.71
					S412.66,164.84,412.66,164.84z"/>
				<polygon fill="#6F604C" points="390.53,325.87 406.56,254.78 424.38,267.4 412.07,330.5 				"/>
			</g>
			<path fill="#F47A4E" d="M399.94,303.35c-0.1-9.42,5.54-17.97,14.3-21.44c8.33-3.3,18.81-4.13,27.52,6.4
				c16.77,20.31-1.32,71.5-14.57,76.8c-13.24,5.29-19.95-0.1-22.77-2.6C399.73,358.38,400.13,323.53,399.94,303.35z"/>
			<path fill="#3A2524" d="M385.34,182.21l-265.11-4.25c0,0-18.52,20.28,3.35,44.22C153.37,254.78,326.54,265.47,385.34,182.21z"/>
			<path fill="#EA5E24" d="M103.22,157.26c0,38.36,78.3,49.43,174.89,49.43c96.59,0,174.89-11.07,174.89-49.43
				S375.44,56.52,278.85,56.52C182.26,56.52,103.22,118.9,103.22,157.26z"/>
			<path fill="#FDCD9A" d="M123.58,157.26c0,38.36,55.39,49.43,123.71,49.43s123.71-11.07,123.71-49.43S332.47,56.52,264.14,56.52
				S123.58,118.9,123.58,157.26z"/>
			<path fill="#EA5E24" d="M169.47,160.02c0,21.21,8.62,36.47,25.83,42.99c13.91,5.27,34.55,3.7,51.98,3.7
				c9.06,0,17.27,0.82,25.23-0.58l1.01-0.05c-13.15-30.82-45.67-60.84-14.98-100.88c18.52-24.18,15.77-38.74,10.72-46.45
				c-3.86-1.45-8.22-3.52-12.32-2.2C190.36,77.87,169.47,121.67,169.47,160.02z"/>
			<path fill="#EA5E24" d="M254.43,51.51c0,5.01,8.4,9.07,18.78,9.07c10.37,0,18.77-4.06,18.77-9.07c0-5.01-8.4-9.07-18.77-9.07
				C262.84,42.44,254.43,46.5,254.43,51.51z"/>
			<path fill="#F8A184" d="M59.69,721.5c6.53-42.3,20.6-91.15,49.41-138.28c0.09-0.15,0.18-0.3,0.27-0.45
				c9.93-16.15,22.83-30.27,37.83-41.87l21.65-18.69c0,0,0.01,0.17,0.12,0.51c1.25,6.73,16.36,85-13.18,198.78H59.69z"/>
			<path fill="#C2C4C7" d="M57.98,721.5c11.88-58.97,36.25-139.13,84.18-176.02c0,0,11.89,93.13,6.99,176.02H57.98z"/>
			<path fill="#F8A184" d="M107.37,721.5c-9.44-56.21-6.42-118.74,34.22-175.63c1.7-2.4,3.75-4.81,6.21-7.25l1.05-1.05
				c9.06-8.91,22.52-18.02,38.79-26.08c-16.07,24.93-28.13,72.48,15.31,152.02c7.11-3.8,13.87-7.71,20.33-11.61
				c-41.15-88.7-25.58-124.99-10.26-148.82l-0.7-2.2c0.9-0.35,1.85-0.7,2.81-1c7.85-2.85,16.11-5.36,24.58-7.46
				c0.45-0.16,0.95-0.25,1.45-0.4c31.29-7.66,65.58-10.02,96.96-2.4c4.36,1,8.66,2.25,12.87,3.7c0.3,0.1,0.55,0.2,0.85,0.31
				c0.1,0,0.15,0.05,0.25,0.1c36.25,12.52,80.7,34.64,83.2,72.63c2.49,37.56-0.58,93.73-6.4,155.15H107.37z"/>
			<path fill="#C2C4C7" d="M332.56,489.31l8.36,0.45c-2.7-0.7-5.41-1.3-8.11-1.85C332.81,487.9,332.76,488.4,332.56,489.31z"/>
			<path fill="#E5B779" d="M108.04,721.5c-9.53-56.31-6.59-119,34.15-176.03c1.6-2.25,3.5-4.55,5.6-6.85l1.05-1.05
				c9.16-9.57,22.73-19.17,39.64-27.43c-0.3,0.45,15.07-6.05,23.83-9.26l0.7,2.2c-15.32,23.83-30.89,60.12,10.26,148.82
				c108.02-65.47,125.89-141.81,128.55-158.28c0.05-0.2,0.05-0.4,0.1-0.55c36.35,12.46,81.35,34.59,83.9,72.88
				c2.53,37.64-0.57,93.97-6.42,155.55H108.04z"/>
			<path fill="#431A0F" d="M352.28,490.36l-11.36-0.6c3.6,0.9,7.16,1.95,10.66,3.16c0.1,0.05,0.25,0.1,0.34,0.15
				C352.18,491.31,352.28,490.36,352.28,490.36z"/>
			<path fill="#F8A184" d="M391.57,721.5c-4.29-32.2-5.1-67.81,0.95-105.39c0.03-0.18,0.06-0.34,0.08-0.51
				c3.07-18.72,9.65-36.67,19.13-53.1l14.7-23.15c0,0,0.08,0.16,0.31,0.42c3.74,5.81,64.25,61.07,75.35,181.72H391.57z"/>
			<path fill="#C2C4C7" d="M391.12,721.5c-9.76-62.99-9.15-139.13,36.16-182.13c0,0,63.06,58.01,79.02,182.13H391.12z"/>
			<path fill="#603814" d="M300.27,587.22l49.51,83.95l39.4-52.5c2.25-13.77,5.75-26.99,10.96-39.25l-41.39-70.18L300.27,587.22z"/>
			<path fill="#603814" d="M231.89,646.54l11.42,19.32l57.91-77.34C284.36,607.49,261.83,627.37,231.89,646.54z"/>
			<path fill="#603814" d="M193.5,581.36l9.36,15.92c-2.1-8.06-3.6-15.47-4.55-22.28L193.5,581.36z"/>
			<path fill="#603814" d="M109.41,617.5l25.28,42.8l58.82-78.49l-32.44-55.01c-4.65,3.55-8.76,7.16-12.21,10.76
				c-0.35,0.34-0.7,0.7-1.05,1.05c-2.1,2.3-4.01,4.6-5.6,6.85C125.52,568.8,115.16,593.07,109.41,617.5z"/>
			<polygon fill="#603814" points="312.89,721.5 349.86,672.19 378.95,721.5 			"/>
			<polygon fill="#603814" points="201.72,721.5 243.44,665.85 276.26,721.5 			"/>
			<path fill="#603814" d="M108.23,721.5c-1.2-7.08-2.47-14.14-3.23-21.4v-0.05l29.84-39.74l36.07,61.19H108.23z"/>
			<path fill="#C2C4C7" d="M223.29,651.89c1.3,2.75,2.6,5.56,4,8.41c143.07-93.31,128.75-150.02,124.79-166.59
				c-0.05-0.2-0.1-0.45-0.15-0.65c-0.1-0.05-0.25-0.1-0.34-0.15c-3.51-1.2-7.06-2.25-10.66-3.16l-2.81-0.15l-5.55-0.3
				c-1.51,8.01-11.11,47.61-55.26,46.5c0,0-2.31,0-5.81-0.8c-9.71-2.25-28.64-10.72-31.79-42.6c-0.05-0.1-0.05-0.15-0.05-0.25
				c-19.22,4.46-9.21-0.45-23.93,6.81c-0.2,0.31-0.4,0.6-0.6,0.9c-0.71,1.05-1.4,2.1-2.1,3.2
				C197.7,526.9,182.13,563.19,223.29,651.89z"/>
			<path fill="#7E8183" d="M272.08,534.62c0,0,58.47-64.62,61.57-63.53c3.1,1.09,27.03,12.98,27.03,12.98l-44.3,81.65L272.08,534.62
				z"/>
			<polygon fill="#7E8183" points="212.13,489.31 220.06,562.96 271.49,535.01 272.09,534.61 241.15,492.01 232.39,479.95 			"/>
		</g>
	</g>
</g>
</svg>
