<?xml version="1.0" encoding="utf-8"?>
<!-- Generator: Adobe Illustrator 25.2.3, SVG Export Plug-In . SVG Version: 6.00 Build 0)  -->
<svg version="1.1" id="Layer_1" xmlns="http://www.w3.org/2000/svg" xmlns:xlink="http://www.w3.org/1999/xlink" x="0px" y="0px"
	 viewBox="0 0 576 576" enable-background="new 0 0 576 576" xml:space="preserve">
<g>
	<g>
		<defs>
			<path id="SVGID_1_" d="M576,288.02c0,159.07-128.95,288.02-288.02,288.02c-159.06,0-288.02-128.95-288.02-288.02
				S128.91,0,287.98,0C447.05,0,576,128.94,576,288.02z"/>
		</defs>
		<use xlink:href="#SVGID_1_"  overflow="visible" fill="#F9E3D9"/>
		<clipPath id="SVGID_2_">
			<use xlink:href="#SVGID_1_"  overflow="visible"/>
		</clipPath>
		<g clip-path="url(#SVGID_2_)">
			<path fill="#067AA7" d="M365.56,615.45H247.08c1.01-7.9,1.99-15.19,2.88-21.66c7.34-53.14-24.75-127.78-24.75-127.78l-5.25-0.31
				c1.44-1.82,2.91-3.6,4.43-5.34c0.48-0.52,0.95-1.04,1.44-1.52c5.03,17.15,20.58,42.64,68.29,44.67c1.61,0.05,3.17,0.09,4.74,0.09
				c68.08,0,78.19-65,78.28-65.65l0.08-0.39c22.97,1.91,38.99,4.29,38.99,4.29l17.8,44.12l-20.23,3.35
				C413.78,489.33,361.42,528.05,365.56,615.45z"/>
			<path fill="#01749F" d="M247.08,615.45h-68.26c0.28-25.91,0.54-42.8,0.54-42.8s7.52-64.69,40.6-106.94l5.25,0.31
				c0,0,32.09,74.64,24.75,127.78C249.07,600.26,248.1,607.55,247.08,615.45z"/>
			<path fill="#01749F" d="M365.56,615.45c-4.14-87.4,48.22-126.12,48.22-126.12l20.23-3.35l52.25,129.46H365.56z"/>
			<path fill="#242B2D" d="M430.22,615.45l-10.11-23.61c0,0-29.52-85.75-30.61-86.15c-1.09-0.34-8.68-55.7-8.68-55.7l9.85-32.61
				c0,0,0.87-8.2,11.55-4.12c10.68,4.12,206.19,164.81,206.19,164.81c0.18,3.79,0.75,17.36,1.57,37.38H430.22z"/>
			<path fill="#43B5E8" d="M225.83,458.85c5.03,17.15,20.58,42.64,68.29,44.68c1.61,0.04,3.17,0.08,4.74,0.08
				c68.08,0,78.19-65,78.28-65.65l0.08-0.39c-2.08-0.18-4.29-0.35-6.51-0.52c0,0-9.03,62.87-76.33,59.96
				c-46.19-1.96-59.35-27.22-63.04-42.86C229.29,455.59,227.47,457.16,225.83,458.85z"/>
			<path fill="#F28B6F" d="M359.49,373.77l11.22,63.28c0,0-9.03,62.87-76.33,59.96c-46.19-1.96-59.35-27.22-63.04-42.86v-64.17
				L359.49,373.77z"/>
			<g>
				<path fill="#4B5555" d="M426.77,615.45c-5.81-14.47-12.26-28.12-18.98-39.69c-27.51-47.31-36.16-121.89-36.51-125.04l12.94-1.46
					c0.08,0.75,8.71,75.03,34.83,119.96c7.83,13.47,15.2,29.44,21.72,46.23H426.77z"/>
			</g>
			<path fill="#4B5555" d="M384.24,413.09l-12.96,37.63l13.02-0.74c0,0,11.31-28.96,10.55-36.89
				C394.11,405.16,384.24,413.09,384.24,413.09z"/>
			<path fill="#242B2D" d="M217.22,470.75c0.48,1.43,0.87,2.86,1.13,4.43c-0.52-2.96-0.91-4.56-0.91-4.56
				S217.35,470.66,217.22,470.75z"/>
			<path fill="#242B2D" d="M208.69,615.45h-47.27c-1.95-24.83-2.64-43.65-1.29-52.57c7.6-49.93,59.53-73.51,58.61-84.67
				c-0.05-0.7-0.13-1.34-0.21-1.99c2.86,16.45,9.2,66.86-7.08,125.69C210.4,605.71,209.5,610.31,208.69,615.45z"/>
			<path fill="#F28B6F" d="M257.2,452.35c17.04,2.51,29.74,3.36,29.74,3.36s107.31-20.99,125.81-53.95
				c11.93-21.22,40.5-238.05,23.81-249.89c-4.91-3.49-9.81-6.71-14.71-9.71c12.15,29.55-13.97,234.95-25.31,255.9
				c-18.43,34.13-125.7,55.66-125.7,55.66S265.54,453.34,257.2,452.35z"/>
			<path fill="#F8A075" d="M100.31,188.7c0,0,51.63,211.97,76.76,236.66c15.32,15.04,52.77,23.03,79.7,26.95
				c0.15,0.01,0.29,0.03,0.42,0.05c8.34,0.99,13.64,1.36,13.64,1.36s107.28-21.53,125.7-55.66c11.33-20.94,37.45-226.35,25.31-255.9
				C262.65,44.6,100.31,188.7,100.31,188.7z"/>
			<g>
				<g>
					<g>
						<path fill="#95261F" d="M345.99,351.06c0,0-0.78,33.63-30.94,47.9c-8.03-6.44-25.64-14.23-54.03-0.25
							c-0.07,0.02-0.07,0.02-0.07,0.02c-20.03-10.39-29.83-30.85-28.96-40.13l6.16-0.31l100.96-6.87L345.99,351.06z"/>
						<path fill="#FFFFFF" d="M238.16,358.26c0.37,7.31,3.33,13.98,9.7,16.7c16.73,6.74,76.3-1.57,84.58-6.54
							c5.09-3.03,6.31-11.18,6.68-17.02L238.16,358.26z"/>
					</g>
					<path fill="#F26745" d="M315.05,398.96c-4.45,2.23-9.65,3.87-15.56,5c-15.42,2.77-28.27,0.05-38.47-5.25
						C289.41,384.72,307.02,392.51,315.05,398.96z"/>
				</g>
				<path fill="#E76B48" d="M321.2,403.97c0,0-50.36,8.3-71.24,1.83C249.95,405.79,290.6,453.27,321.2,403.97z"/>
			</g>
			<path fill="#964627" d="M391.92,214.19c0.33-0.21,0.67-0.4,0.99-0.64c0.57-0.4,1.07-0.84,1.6-1.31c0.32-0.29,0.62-0.58,0.92-0.9
				c0.46-0.49,0.89-0.98,1.28-1.53c0.29-0.4,0.49-0.82,0.72-1.25c0.23-0.43,0.57-0.81,0.73-1.25c0.31-0.88,0.45-1.97,0.36-3.16
				c-0.01-0.14-0.01-0.26-0.03-0.4c-0.12-0.88-0.4-1.81-0.94-2.79c-0.03-0.06-0.05-0.11-0.08-0.17c-0.58-1.01-1.39-2.05-2.62-3.11
				c-0.44-0.36-3.24-2.1-7.22-4.09c-21.66-15.37-68.87-10.05-74.04-6.87c-0.36,0.09-0.55,0.15-0.58,0.16
				c-5.38,9.68,2.27,18.91,6.41,23.84c1.79,2.29,3.53,3.68,3.59,3.7c0.47-0.88,32.11-4.14,50.47,0.01
				c7.03,1.08,12.35,2.2,14.11,1.77c0.52-0.12,1.07-0.42,1.61-0.63c0.32-0.13,0.65-0.21,0.97-0.37
				C390.77,214.92,391.33,214.55,391.92,214.19z M393.38,213.16c0.16-0.12,0.31-0.25,0.47-0.38
				C393.69,212.91,393.55,213.03,393.38,213.16z M395.96,210.71c0.14-0.17,0.29-0.33,0.42-0.5
				C396.24,210.38,396.1,210.54,395.96,210.71z M397.96,207.47c0.03-0.1,0.1-0.18,0.13-0.27c0,0-0.01,0.06-0.02,0.08
				C398.04,207.35,397.98,207.4,397.96,207.47z M398.34,206.09c0.09-0.44,0.12-0.89,0.13-1.34
				C398.46,205.22,398.43,205.66,398.34,206.09z M398.38,203.39c-0.08-0.44-0.28-0.88-0.45-1.33
				C398.11,202.51,398.3,202.96,398.38,203.39z M397.27,200.55c-0.23-0.37-0.64-0.74-0.95-1.12
				C396.63,199.81,397.05,200.19,397.27,200.55z M387.62,193.63L387.62,193.63L387.62,193.63L387.62,193.63z M390.55,214.98
				c0.04-0.02,0.08-0.05,0.12-0.07C390.62,214.94,390.58,214.96,390.55,214.98z"/>
			<path fill="#964627" d="M170.42,239.36c0.36,0.08,0.69,0.09,1.04,0.14c0.57,0.09,1.18,0.25,1.7,0.26
				c1.81,0.03,6.76-2.23,13.38-4.83c16.99-8.11,48.57-11.89,49.22-11.13c0.05-0.03,1.45-1.77,2.68-4.4
				c2.96-5.72,8.39-16.41,1.01-24.67c-0.03,0-0.23-0.01-0.6-0.03c-5.74-1.96-52.97,3.25-70.7,23.03c-3.45,2.81-5.79,5.14-6.14,5.58
				c-0.98,1.31-1.53,2.5-1.88,3.62c-0.02,0.06-0.02,0.12-0.04,0.18c-0.31,1.08-0.39,2.05-0.3,2.94c0.01,0.14,0.04,0.26,0.06,0.39
				c0.18,1.18,0.55,2.21,1.05,3c0.26,0.4,0.68,0.69,0.99,1.06c0.32,0.37,0.62,0.73,0.98,1.07c0.5,0.45,1.02,0.83,1.58,1.2
				c0.36,0.24,0.72,0.47,1.1,0.68c0.62,0.34,1.21,0.66,1.84,0.92c0.38,0.16,0.74,0.27,1.11,0.4
				C169.17,238.98,169.79,239.22,170.42,239.36z M164.27,233.98c0.17,0.11,0.34,0.22,0.51,0.32
				C164.6,234.2,164.44,234.09,164.27,233.98z M161.46,231.73c0.15,0.16,0.32,0.3,0.48,0.44
				C161.77,232.02,161.61,231.88,161.46,231.73z M159.44,229.01c0,0-0.01-0.05-0.02-0.07c0.04,0.08,0.11,0.16,0.16,0.25
				C159.54,229.13,159.48,229.08,159.44,229.01z M158.74,226.54c0.06,0.45,0.15,0.89,0.29,1.32
				C158.9,227.45,158.81,227.02,158.74,226.54z M158.97,223.81c-0.12,0.46-0.27,0.94-0.29,1.38
				C158.7,224.75,158.85,224.28,158.97,223.81z M160.25,221.02c-0.27,0.4-0.62,0.82-0.81,1.21
				C159.62,221.85,159.99,221.43,160.25,221.02z M168.22,214.23L168.22,214.23L168.22,214.23L168.22,214.23z M167.69,235.73
				c0,0,0.08,0.04,0.12,0.05C167.77,235.77,167.72,235.75,167.69,235.73z"/>
			<g>
				<path fill="#F2F3F3" d="M386.01,257.12c-0.25,6.96-2.23,16.45-10.49,22.19c-4.59,3.31-11.23,5.38-20.5,5.29
					c-7.5-0.07-13.48-1.42-18.22-3.54c-13.02-5.9-16.57-17.77-17.45-24.79c0,0,0.51-2.37,1.88-5.76l33.13-9.04l29.25,6.66
					c1.58,4.16,2.21,7.64,2.33,8.64C386.01,256.98,386.01,257.12,386.01,257.12z"/>
				<g>
					<g>
						<path fill="#8E4634" d="M331.98,265.21c1.38,10.93,11.37,18.67,22.3,17.28c10.94-1.38,18.67-11.37,17.29-22.3
							c-1.38-10.93-11.37-18.67-22.3-17.28C338.33,244.29,330.59,254.27,331.98,265.21z"/>
						<path fill="#704338" d="M341.05,264.06c0.75,5.92,6.16,10.12,12.09,9.37c5.92-0.75,10.12-6.16,9.37-12.09
							c-0.75-5.92-6.16-10.12-12.09-9.37C344.49,252.72,340.3,258.13,341.05,264.06z"/>
						<path opacity="0.7" fill="#F2F3F3" d="M325.9,263.72c0.23,4.56,4.11,8.07,8.67,7.84c4.56-0.23,8.07-4.11,7.84-8.67
							c-0.23-4.56-4.11-8.07-8.67-7.84C329.19,255.28,325.68,259.16,325.9,263.72z"/>
					</g>
					<path fill="#E76B48" d="M319.29,257.91c37.95-31.74,66.68,0.45,66.68,0.45s-0.02-0.14-0.05-0.4c-0.14-1.09-0.71-5.09-2.29-9.87
						c-3.42-10.13-11.34-24.1-29.68-23.92c-20.47,0.25-29.42,17.33-32.74,27.07C319.84,255.15,319.29,257.91,319.29,257.91z"/>
				</g>
			</g>
			<g>
				<path fill="#F2F3F3" d="M181.03,276.91c1.52,6.79,5.21,15.76,14.38,19.88c5.12,2.4,12.02,3.23,21.12,1.45
					c7.35-1.45,12.99-3.86,17.26-6.83c11.72-8.19,13.03-20.51,12.61-27.57c0,0-0.94-2.23-2.91-5.31l-34.22-2.81l-27.53,11.91
					c-0.78,4.38-0.77,7.92-0.7,8.92C180.99,276.77,181.03,276.91,181.03,276.91z"/>
				<g>
					<path fill="#8E4634" d="M235.62,274.95c0.64,11-7.76,20.44-18.76,21.09c-11,0.64-20.45-7.76-21.08-18.76
						c-0.64-11,7.76-20.44,18.75-21.08C225.53,255.55,234.98,263.94,235.62,274.95z"/>
					<path fill="#704338" d="M226.49,275.48c0.35,5.97-4.2,11.08-10.17,11.43c-5.96,0.35-11.08-4.2-11.43-10.17
						c-0.34-5.96,4.2-11.08,10.17-11.43C221.03,264.96,226.14,269.52,226.49,275.48z"/>
					<path opacity="0.7" fill="#F2F3F3" d="M241.31,272.37c0.61,4.52-2.56,8.68-7.08,9.29c-4.53,0.62-8.69-2.56-9.3-7.08
						c-0.61-4.52,2.56-8.69,7.09-9.3C236.54,264.67,240.7,267.84,241.31,272.37z"/>
				</g>
				<path fill="#E76B48" d="M246.75,265.44c-43.13-24.23-65.47,12.68-65.47,12.68s-0.21-0.3-0.23-0.57
					c-0.06-1.1-0.54-4.96,0.13-9.93c1.51-10.59,7.24-25.79,25.3-28.98c20.17-3.51,32.66,11.09,37.71,20.05
					C246.26,262.28,246.75,265.44,246.75,265.44z"/>
			</g>
			<path fill="#833D23" d="M127.75,291.83c0,0-14.31-40.41-16.54-47.93c-2.23-7.52,35.78-35.29,35.78-35.29L127.75,291.83z"/>
			<path fill="#F28B6F" d="M433.44,284.3c0,0,19.08-38.69,27.48-26.91c8.4,11.77,23.27,32.84,17.53,46.22
				c-5.74,13.38-30.02,54.52-41.04,48.64c-11.02-5.88-17.86-21.49-17.86-21.49L433.44,284.3z"/>
			<path fill="#C04532" d="M465.84,287.55c0,0-21.89-6.04-38.01,29.29l1.77,3.06C429.6,319.9,437.45,295.53,465.84,287.55z"/>
			<path fill="#C04532" d="M436.15,305.34c0,0,16.71-0.83,18.93,9.42c2.23,10.24-16.06,14.28-16.06,14.28s15.12-10.07,12.83-13.8
				c-2.29-3.72-17.35-4.93-17.35-4.93L436.15,305.34z"/>
			<path fill="#F8A075" d="M133.79,301.82c0,0-23.45-36.2-30.42-23.53c-6.97,12.67-19.28,35.33-12.02,47.95
				c7.26,12.62,36.17,50.66,46.43,43.53c10.25-7.12,15.23-23.42,15.23-23.42L133.79,301.82z"/>
			<path fill="#C04532" d="M101.99,308.82c0,0,21.04-8.55,41.17,24.67l-1.39,3.24C141.76,336.73,131.11,313.44,101.99,308.82z"/>
			<path fill="#C04532" d="M133.55,323.03c0,0-16.68,1.12-17.7,11.56c-1.02,10.43,17.62,12.31,17.62,12.31s-16.19-8.24-14.35-12.21
				c1.84-3.96,16.65-6.91,16.65-6.91L133.55,323.03z"/>
			<polygon fill="#66301B" points="431.74,236.95 426.74,298.17 430.75,293.32 438.17,253.53 			"/>
			<polygon fill="#833D23" points="125.95,286.74 145.26,334.27 150.83,333.95 130.27,269.05 			"/>
			<path fill="#833D23" d="M286.83,332.4c0,0,75.64-15.17,77.07,22.38c1.42,37.56,6.49,40.94,6.49,40.94l-9.78,0.57
				c0,0-0.58-53-36.34-48.6C283.13,352.73,287.05,338.72,286.83,332.4z"/>
			<path fill="#833D23" d="M287.37,332.37c0,0-76.47-6.28-73.51,31.18c2.96,37.46-1.65,41.42-1.65,41.42l9.72-0.57
				c0,0-5.59-52.7,30.24-52.5C293.38,352.14,287.89,338.67,287.37,332.37z"/>
			<path fill="#66301B" d="M144.87,314.65l28.5,73.61l48.51,16.13c0,0,62.4,46.4,63.38,3.23l6.44-0.19l6.42-0.56
				c6.01,42.76,62.58-10.59,62.58-10.59l46.31-21.68l19.73-76.43l4.01-4.86l-12.96,110.21c-26.25,36.38-123.51,54.54-123.51,54.54
				s-97.91-6.75-128.22-39.82l-28.9-103.96L144.87,314.65z"/>
			<path fill="#E76B48" d="M304.55,322.57l-6.45-5.53c0,0-7.72,9.55-35.04,3.64C263.06,320.68,286.53,349.99,304.55,322.57z"/>
			<path fill="#F28B6F" d="M428.54,226.06c0,0-55.64-93.38-110.06-89.31c-54.41,4.07-149.7,49.05-149.7,49.05l3.62-55.94
				L350.32,84.6C350.32,84.6,444.1,201.35,428.54,226.06z"/>
			<path fill="#66301B" d="M438.17,253.53c0,0-28.09-84.84-80.39-110.95c0,0,54.93-41.84,88.67-12.39
				C446.44,130.19,452.89,200.98,438.17,253.53z"/>
			<path fill="#66301B" d="M433.73,77.97c0,0-24.36,43.9-70.49,68.27c0,0-44.38-36.96-128.24-0.86
				c-83.86,36.11-79.41,41.19-79.41,41.19S182.35,76.5,261.43,60.02C340.51,43.53,399.39,58.63,433.73,77.97z"/>
			<path fill="#833D23" d="M132.56,259.42c21.17-3.71,39.02-14.03,53.03-27.8c-3.53-6-7.7-12.19-12.5-18.32
				C157.58,239.5,132.56,259.42,132.56,259.42z"/>
			<path fill="#833D23" d="M147.26,104.68c7.11,16.63,19.36,39.06,37.94,52.62c1.78-5.79,3.23-11.06,4.36-15.47
				c-0.78,4.28-1.62,9.76-2.48,16.76c9.23,6.34,19.95,10.41,32.27,10.57c1.62-7.85,2.3-15.59,2.08-22.98
				c-1.45-44.77,54.14-87.87,54.14-87.87C241.39,52.48,182.16,78.82,147.26,104.68z"/>
			<path fill="#833D23" d="M111.22,243.91c0,0,1.51,4.77,29.18-12.79c9.72-6.18,17.93-16.04,24.7-27.23
				c-15.26-16.69-35.87-31.74-63.32-39.56C92.89,202.46,111.22,243.91,111.22,243.91z"/>
			<g>
				<path fill="#A14B2A" d="M173.09,213.3c4.81,6.14,8.98,12.32,12.5,18.32c17.69-17.37,29.26-40.28,33.75-62.46
					c-12.32-0.16-23.04-4.23-32.27-10.57c-0.74,6.01-1.49,13.15-2.23,21.52C183.81,191.61,179.19,202.95,173.09,213.3z"/>
				<path fill="#A14B2A" d="M101.77,164.32c27.45,7.82,48.06,22.88,63.32,39.56c9.07-14.93,15.65-32.32,20.1-46.59
					c-18.58-13.56-30.83-35.99-37.94-52.62c-15.25,11.3-28.05,24.05-36.13,36.83C106.57,148.7,103.6,156.45,101.77,164.32z"/>
			</g>
			<path fill="#1D2124" d="M160.13,562.88c-1.35,8.91-0.55,27.73,1.55,52.57h-32.85c-5.43-28.98-7.88-52.7-3.61-64.17
				c12.59-33.65,87.32-77.8,92-80.54c0.48,1.43,0.87,2.86,1.13,4.43c0.05,0.34,0.13,0.69,0.18,1.04c0.08,0.65,0.17,1.3,0.21,1.99
				C219.66,489.37,167.73,512.95,160.13,562.88z"/>
			<g>
				<path fill="#4B5555" d="M220.43,615.45h-14.34c2.7-24.95,6.37-45.21,11.1-58.01c13.28-35.93-5.82-92.71-5.99-93.27l12.47-3.75
					c0.73,2.44,16.05,59.7,6.03,100.67C226.04,576.05,222.98,594.68,220.43,615.45z"/>
			</g>
			<g>
				<path fill="#2BAAE2" d="M275.7,615.45c12.26-6.05,25.88-9.53,40.3-9.53c14.43,0,28.05,3.47,40.32,9.53H275.7z"/>
			</g>
			<polygon fill="#4B5555" points="224.39,460.37 231.33,454.16 231.33,448.31 211.2,464.17 			"/>
			<g>
				<path fill="#242B2D" d="M553.59,615.45c-1.75-0.82-3.08-1.43-3.36-1.56c-0.04-0.05-0.08-0.05-0.08-0.05l-69.81-44.45
					c0,0-90.58-60.86-78.13-156.11c0.62-4.75,278.38,59.56,406.35,202.17H553.59z"/>
			</g>
		</g>
	</g>
</g>
</svg>
