<?xml version="1.0" encoding="utf-8"?>
<!-- Generator: Adobe Illustrator 25.2.3, SVG Export Plug-In . SVG Version: 6.00 Build 0)  -->
<svg version="1.1" id="Layer_1" xmlns="http://www.w3.org/2000/svg" xmlns:xlink="http://www.w3.org/1999/xlink" x="0px" y="0px"
	 viewBox="0 0 576 576" enable-background="new 0 0 576 576" xml:space="preserve">
<g>
	<g>
		<defs>
			<circle id="SVGID_1_" cx="288" cy="288" r="288"/>
		</defs>
		<use xlink:href="#SVGID_1_"  overflow="visible" fill="#F9E3D9"/>
		<clipPath id="SVGID_2_">
			<use xlink:href="#SVGID_1_"  overflow="visible"/>
		</clipPath>
		<g clip-path="url(#SVGID_2_)">
			<path fill="#5B270D" d="M429.59,558.98c1.18,34.96-1.37,117.4-3.27,169.9h6.76c5.01-86.19,9.73-255.79-29.9-266.34l0.36,11.19
				C403.56,473.74,427.78,505.83,429.59,558.98z"/>
			<path fill="#303030" d="M465.35,728.89l2.9-69.98l-2.29-43.96l-19.48,2.29c0,0-0.84,53.72-2.95,111.65H465.35z"/>
			<path fill="#432011" d="M447.03,214.85c0,0,64.44,33.72,29.77,141.45s-13.22,186.45-13.22,186.45s-102.82-73.72-58.97-174.86
				C448.47,266.74,447.03,214.85,447.03,214.85z"/>
			<path fill="#1A1A1A" d="M459.1,728.89h8c2.96-108.78-2.85-234.13-43.6-251.82l-1.46,7.86c0,0,38.57,52.84,40.49,109
				C463.31,617.22,461.5,672.34,459.1,728.89z"/>
			<path fill="#A49F35" d="M-6.84,400.22c0,0,79.75,65.51,86.08,81.96c6.33,16.46,139.42-78.7,139.42-78.7S45.06,305.59-0.19,291.03
				C-45.45,276.48-6.84,400.22-6.84,400.22z"/>
			<path fill="#27272A" d="M252.31,171.95l-124.55-23.98c-9.57-1.84-18.93,4.85-20.87,14.92L75.13,327.86
				c-1.94,10.07,4.27,19.76,13.84,21.6l124.55,23.97c9.57,1.84,18.93-4.85,20.87-14.91l31.75-164.98
				C268.08,183.48,261.88,173.79,252.31,171.95z"/>
			<polygon fill="#27272A" points="81.98,346.34 93.69,355.68 90.36,316.14 			"/>
			<path fill="#A49F35" d="M65.01,728.89h40.11c28.21-44.06,22.1-246.04,17.97-291.2c-25.89,14-45.42,28.08-43.87,33.07
				C82.9,482.31,92.56,678.27,65.01,728.89z"/>
			<path fill="#BAB433" d="M105.13,728.89h252.3c57.23-42.57,111.17-80.09,113.07-128.22c2.49-64.65-47.1-116.58-47.1-116.58
				s-159.35-70.68-195.42-79.77c-12.16-3.05-33.41,2.14-56.14,10.84c-16.46,6.27-33.69,14.39-48.74,22.53
				C127.23,482.85,133.34,684.83,105.13,728.89z"/>
			<path fill="#CB775E" d="M267.33,362.04c0.4,4.36,0.26,48.33-19.67,63.5c-19.94,15.17-17.64,103.33,64.13,88.66
				c69.96-12.55,76.14-45.65,76.14-45.65s-25.08-25.97-25.89-43.3c-0.81-17.33,16.57-69.71,16.57-69.71L267.33,362.04z"/>
			<path fill="#512F21" d="M182.18,126.94c0,0-7.93,10.85,10.19,28.67c16.17,15.92,20.46,18.67,18.83,73.79l22.74-90.02
				C233.95,139.39,199.73,120.75,182.18,126.94z"/>
			<path fill="#F28B6F" d="M247.58,423.18c6.05,5.25,14.27,8.61,26.37,9.06c45.13,1.7,115.73-48.64,143.11-63.86
				c27.39-15.2,28.95-77.83,28.95-77.83l-18.7-17.08c0.39,18.68-1.36,56.39-20.76,70.12c-26.21,18.55-92.45,77.42-138.9,81.4
				C259.58,425.68,253.04,424.98,247.58,423.18z"/>
			<path fill="#F8A075" d="M212.45,357.49c18.38,22.81,18.63,51.37,35.13,65.7c5.47,1.8,12,2.49,20.06,1.81
				c46.46-3.98,112.69-62.85,138.9-81.4c19.41-13.73,21.15-51.45,20.76-70.12l-46.05-42.02L263.87,124.32l-22.65,10.96l-14.97,7.25
				c0,0,1.2,22.58-15.04,86.87C194.97,293.7,187.32,326.33,212.45,357.49z"/>
			<path fill="#C42126" d="M322.8,379.71c0,0-4.4,7.16-20.8,4.73c-16.4-2.43-58.56-15.39-66.74-28.61c0,0,6.85,24.26,65.12,31.06
				c0,0,17.44,1.22,23.32-4.47L322.8,379.71z"/>
			<path fill="#C42126" d="M319.71,378.32c0,0,4.93,7.41,5.14,11.12c0,0,1.22-8.9-2.54-11.8L319.71,378.32z"/>
			<path fill="#EF435C" d="M309.47,386.05c0,0-12.37,6.49-19.71,9.41c-7.33,2.92-20.68,1.18-25.79,0.28
				c-5.12-0.89-20.16-7.8-24.22-15.18c-2.52-4.59-0.14-17.69-0.14-17.69S268.63,386.53,309.47,386.05z"/>
			<path fill="#E2704B" d="M268.33,312.63c0,0-4.72,17.78-11.45,22.78c0,0,8.59,13.3,13.96,17.43c0,0-23.49-4.21-21.91-20.21
				C248.93,332.63,268.1,314.99,268.33,312.63z"/>
			<path fill="#49311E" d="M222.37,181.84c-1.1-0.45,9.97-10.35,16.89-4.47c6.92,5.88,16.67,14.35,16.95,21.07
				c0.14,3.27,0.03,15.41-4.44,18.08c0,0-5.55-11.68-8.73-14.89C239.85,198.42,236.05,187.53,222.37,181.84z"/>
			<g>
				<path fill="#F68E5A" d="M248.93,289.14L217.25,253c2.27-5.46,7.64-14.55,17.34-11.53C249.05,246.19,248.93,289.14,248.93,289.14
					z"/>
				<path fill="#4B2524" d="M248.93,289.14l-32.98-32.41l-2.4-7.97l3.7,4.24c2.27-5.46,7.64-14.55,17.34-11.53
					C249.05,246.19,248.93,289.14,248.93,289.14z"/>
				<path fill="#FFFFFF" d="M248.93,289.14c-3.83,1.98-7.29,2.64-10.37,2.41c-2.13-0.21-4.08-0.92-5.84-1.94
					c-4.12-2.34-7.33-6.57-9.77-11.15c-1.7-3.26-3.09-6.71-4.09-9.89c-2.09-6.54-2.9-11.83-2.9-11.83s0.4-1.61,1.3-3.73
					c2.27-5.46,7.64-14.55,17.34-11.53C249.05,246.19,248.93,289.14,248.93,289.14z"/>
				<g>
					<path fill="#2BAAE2" d="M246.95,270.43c-2.97,13.67-9.81,20.43-15.28,15.08c-5.47-5.34-7.44-20.79-4.42-34.51
						c3.03-13.72,9.87-20.47,15.28-15.08C247.95,241.3,249.92,256.75,246.95,270.43z"/>
					<path fill="#3A160F" d="M243.33,266.85c-1.88,8.65-6.22,12.92-9.66,9.54c-3.45-3.38-4.7-13.16-2.79-21.83
						c1.9-8.67,6.23-12.94,9.66-9.53C243.97,248.43,245.21,258.2,243.33,266.85z"/>
					<path fill="#FFFFFF" d="M233.72,255.76c-0.7,3.18-2.29,4.74-3.55,3.5s-1.71-4.82-1.01-8c0.69-3.18,2.29-4.75,3.54-3.5
						C233.96,249.01,234.42,252.59,233.72,255.76z"/>
				</g>
				<path fill="#F68E5A" d="M249.06,288.37c0.86-5.09,4.73-32.79-7.69-50.32c-13.71-19.46-27.82,10.71-27.82,10.71
					c6.14-19.47,19.97-46.35,34.06-23.23C257.57,241.77,250.27,282.23,249.06,288.37z"/>
				<path fill="#4B2524" d="M248.93,289.14c0,0,0.12-42.94-14.35-47.67c-9.69-3.02-15.06,6.07-17.34,11.53l-3.7-4.24
					c0,0,14.11-30.17,27.82-10.71c12.42,17.53,8.55,45.23,7.69,50.32C248.98,288.89,248.93,289.14,248.93,289.14z"/>
			</g>
			<path fill="#67321D" d="M247.19,128.12c0,0-25.63-17.7-44.37-0.25c-18.75,17.45-0.49,91.32-0.49,91.32
				S189.38,128.35,247.19,128.12z"/>
			<path fill="#F28B70" d="M124.45,355.23c0,0,27.75-36.29,65.32-26.92c23.99,5.98,52.13,32.08,51.16,36.49
				c-0.98,4.41-19.18,19.65-26.9,19.8c-7.73,0.15-78.68-10.18-78.68-10.18L124.45,355.23z"/>
			<path fill="#39393D" d="M262.34,181.82l-121.92-23.47c-9.37-1.81-18.56,4.92-20.5,14.99L88.16,338.31
				c-1.94,10.07,4.1,19.72,13.47,21.53l121.92,23.47c9.37,1.81,18.56-4.92,20.5-14.98l31.75-164.98
				C277.75,193.28,271.7,183.62,262.34,181.82z"/>
			<path fill="#F8A075" d="M138.42,100.21v54.1C91.9,168.56-0.21,291.05-0.21,291.05s9.51,12.65,14.89,33.23
				c5.38,20.58-21.52,75.93-21.52,75.93s-7.88-3.82-19.35-10.46c7.94-7.24,13.15-12.11,13.15-12.11s-58.48-51.05-62.64-87.79
				S107.46,120.2,107.46,120.2s-0.64-0.4-1.9-1.13C125.53,107.36,138.42,100.21,138.42,100.21z"/>
			<path fill="#F8A075" d="M150.89,339.16c-0.09,0.92-0.12,1.44-0.12,1.44l-25.71-10.45c0.18-0.92,0.37-1.84,0.55-2.79
				c5.72-31.64,1.5-72.35,7.55-74.86c2.36-0.98,2.88-3.31,2.38-6.12c0.86,0.09,1.68,0.28,2.51,0.65c18.19,7.94,11.92,51.35,13,63.64
				C152.02,321.77,151.2,334.85,150.89,339.16z"/>
			<path fill="#CB775E" d="M284.1,337.58c0,0,8.7-14.59,12.75-6.21c4.05,8.38-23.57,33.44-23.57,33.44L284.1,337.58z"/>
			<path fill="#F28B6F" d="M246.63,380.72c1.27,0.12,9.59,6.38,14.62,3.46c5.04-2.92,35.57-55.1,30.64-60.32
				c-4.92-5.22-9.85-4.68-14.3,1.71C268.63,338.41,246.63,380.72,246.63,380.72z"/>
			<path fill="#F28B6F" d="M231.19,390c1.25,0.21,9.08,7.07,14.32,4.53c5.23-2.54,39.57-52.3,35.05-57.87
				c-4.52-5.57-9.47-5.39-14.39,0.64C256.27,349.45,231.19,390,231.19,390z"/>
			<g>
				<path fill="#39393D" d="M251.84,325.23l16.61-86.67l18.69,7.1c7.34,2.81,11.6,10.44,10.12,18.19l-9.31,48.54
					c-1.48,7.72-8.27,13.27-16.11,13.13L251.84,325.23z"/>
				<path fill="#333333" d="M257.77,305.04l8.31-43.39c0.77-4.05,5.1-6.34,8.88-4.7l6.53,2.83c2.77,1.2,4.34,4.16,3.77,7.13
					l-7.74,40.35c-0.57,2.97-3.12,5.14-6.14,5.23l-7.11,0.21C260.16,312.82,256.99,309.1,257.77,305.04z"/>
			</g>
			<g>
				<path fill="#36454C" d="M190.14,331.85c25.21,0,45.68-20.47,45.68-45.68c0-2.21-0.16-4.38-0.49-6.53
					c-3.13,22.14-22.19,39.15-45.2,39.15c-23.01,0-42.07-17.01-45.2-39.15c-0.32,2.16-0.49,4.32-0.49,6.53
					C144.45,311.39,164.92,331.85,190.14,331.85z"/>
				<path fill="#3677A1" d="M190.14,318.79c23,0,42.07-17.01,45.2-39.15c-3.13-22.14-22.19-39.16-45.2-39.16
					c-23.01,0-42.07,17.02-45.2,39.16C148.07,301.78,167.13,318.79,190.14,318.79z"/>
				<path fill="#4290C2" d="M161.84,280.53c0-1.41,0.1-2.78,0.31-4.15c1.99-14.09,14.11-24.91,28.75-24.91
					c14.63,0,26.76,10.82,28.75,24.91c0.21,1.37,0.31,2.74,0.31,4.15c0,16.04-13.01,29.06-29.05,29.06S161.84,296.57,161.84,280.53z
					"/>
				<path fill="#3677A1" d="M174.48,280.53c0-0.79,0.06-1.57,0.18-2.34c1.12-7.96,7.98-14.07,16.24-14.07s15.12,6.12,16.24,14.07
					c0.12,0.77,0.18,1.55,0.18,2.34c0,9.07-7.35,16.42-16.42,16.42S174.48,289.6,174.48,280.53z"/>
				<path opacity="0.3" fill="#FFFFFF" d="M159.36,310.61c0-0.71,0.05-1.4,0.16-2.09c1-7.07,7.09-12.5,14.44-12.5
					c0.92,0,1.83,0.08,2.7,0.25c-0.01-0.08-0.03-0.17-0.03-0.25c0-0.47,0.03-0.94,0.1-1.4c0.67-4.72,4.73-8.35,9.63-8.35
					s8.97,3.62,9.64,8.35c0.06,0.46,0.1,0.92,0.1,1.4c0,4.94-3.7,8.97-8.46,9.61c0.34,0.93,0.6,1.89,0.75,2.9
					c0.1,0.69,0.16,1.38,0.16,2.09c0,8.05-6.54,14.59-14.59,14.59C165.9,325.21,159.36,318.67,159.36,310.61z"/>
				<path fill="#2D3B41" d="M190.13,341.51c30.58,0,55.36-24.77,55.36-55.36c0-30.55-24.77-55.36-55.36-55.36
					c-30.55,0-55.36,24.8-55.36,55.36C134.77,316.74,159.58,341.51,190.13,341.51z M190.13,331.85c-25.2,0-45.67-20.47-45.67-45.7
					c0-25.2,20.47-45.67,45.67-45.67c25.23,0,45.7,20.47,45.7,45.67C235.83,311.39,215.36,331.85,190.13,331.85z"/>
			</g>
			<path fill="#2DB34A" d="M236.37,339.01c1.38,4.16-0.88,8.66-5.04,10.04c-4.16,1.38-8.66-0.88-10.04-5.04
				c-1.38-4.16,0.88-8.66,5.04-10.04C230.5,332.59,235,334.85,236.37,339.01z"/>
			<polygon fill="#39393D" points="275.81,203.35 278.22,204.16 272.37,234.83 269.9,234.05 			"/>
			<path fill="#39393D" d="M88.97,349.46c0,0,16.28,33.14-21.17,82.83c-37.44,49.69-36.68,105.48,0,119.99
				c36.68,14.52,73.97-0.76,66.79-45.85c-7.18-45.09,21.03-134.62,21.03-134.62l-8.76-7.95c0,0-28.62,57.75-27.86,124.99
				c0.76,67.25-48.05,59.23-59.56,37.07c-11.52-22.16-0.05-43.18,9.89-60.38c9.94-17.19,38.59-91.21,26.36-112.66L88.97,349.46z"/>
			<path fill="#F8A075" d="M93.73,400.2c0,0,18.79,295.98,45.42,328.68h54.86c13.66-46.09-8.55-79.13-14.81-87.04
				c-13.76-50.41-53.23-177.54-44.66-233.08l-49.12-22.78c0,0,0.43,6.7,1.16,18.16L93.73,400.2z"/>
			<path fill="#F8A075" d="M227.99,402.46c-1.4,2.66-15.62,1.22-34.21-3.82c-18.55-5.01-40.87,6.63-54.38,9.66
				c-13.51,3.03-7.74,14.13-7.74,14.13s-29.8-3.46-41.54-18.56c2.17-1.31,3.7-2.26,3.7-2.26l-0.09-1.41c0,0,0.22-18.65,21.06-44.66
				c5.01-6.27,8.2-15.29,10.27-25.4c0.18-0.92,0.37-1.84,0.55-2.79c10.14,1.71,23.93,5.23,25.28,11.8c0.16,0.85,0.12,1.77-0.18,2.75
				c-3.06,10.05-6.48,37.6,4.92,29.9c11.41-7.71,62.27,12.29,65.27,9.72c2.99-2.53,15.81-12.9,25.8-22.77
				c10-9.87,14.13-4.86,15.65-3.49C263.88,356.64,229.4,399.81,227.99,402.46z"/>
			<path fill="#F38E70" d="M-13.04,377.64c0,0-5.2,4.86-13.15,12.11c-36.07-20.78-107.48-69.48-79.39-114.84
				c27.78-44.88,151.22-120.75,211.13-155.84c1.25,0.73,1.9,1.13,1.9,1.13S-79.83,253.11-75.68,289.85S-13.04,377.64-13.04,377.64z"
				/>
			<path fill="#F38E70" d="M114.79,355.55c-20.84,26.01-21.06,44.66-21.06,44.66l0.09,1.41c0,0-1.53,0.95-3.7,2.26
				c-2.9-3.73-4.7-8.13-4.7-13.39c0.03-26.59,29.37-64.53,29.37-64.53l10.27,4.19C122.99,340.26,119.8,349.28,114.79,355.55z"/>
			<path fill="#F38E70" d="M125.62,327.36c-0.18,0.95-0.37,1.86-0.55,2.79l-10.27-4.19C114.79,325.96,119.56,326.32,125.62,327.36z"
				/>
			<path fill="#F38E70" d="M133.16,252.5c-6.05,2.51-1.83,43.22-7.55,74.86c-6.05-1.04-10.83-1.4-10.83-1.4s11.31-28.34,11.22-36.1
				c-0.09-8.25,1.13-24.42,0.61-32.46c-0.18-2.57,0.31-4.71,1.04-6.39c1.38-3.21,4.59-4.92,7.88-4.62
				C136.04,249.19,135.52,251.52,133.16,252.5z"/>
			<path fill="#8B8834" d="M-0.19,291.03c0,0,6.97,87.03-39.87,104.12c0,0,30.74,41.35,59.97,34.36
				c22.86-5.47,56.17-93.06,29.91-120.91L-0.19,291.03z"/>
			<path fill="#F38E70" d="M104.55,728.89h34.6C112.52,696.18,93.73,400.2,93.73,400.2l-7.14,3.94c4,63.19,17.11,271.63,17.67,308.1
				C104.34,717.92,104.23,723.6,104.55,728.89z"/>
			<polygon fill="#F28B6F" points="312.06,288.64 312.19,271.21 325.51,260.7 360.6,267.89 385.21,282.04 382.13,316.19 
				365.23,302.02 342.08,294.2 321.61,294.08 315.07,298 			"/>
			<path fill="#49311E" d="M391.68,286.53c1.6,0.77-11.64-18.73-25.43-22.37s-38.8-10.26-47.23-7.74
				c-4.12,1.23-8.76,11.48-7.71,16.51c0,0,14.87-3.53,21.83-2.06C340.09,272.34,371.61,276.86,391.68,286.53z"/>
			<path fill="#67321D" d="M431.14,309.93c0,0-84.76-19.35-150.21-107.96c-57.3-77.56-98.75-75.02-98.75-75.02
				s28.04-4.66,55.71-32.21c27.67-27.55,119.26-86.54,233.25,15.8C552.67,183.73,469.77,323.71,431.14,309.93z"/>
			<path fill="#F28B6F" d="M433.79,297.01c0,0,21.56-35.42,28.3-23.25c6.74,12.16,18.67,33.93,12.02,46.27
				c-6.65,12.34-33.3,49.63-43.07,42.88c-9.76-6.74-14.69-22.46-14.69-22.46L433.79,297.01z"/>
			<path fill="#C04532" d="M463.84,303.31c0,0-19.94-7.96-38.4,24.52l1.36,3.12C426.8,330.96,436.48,308.22,463.84,303.31z"/>
			<path fill="#C04532" d="M434.33,317.56c0,0,15.73,0.84,16.84,10.93c1.12,10.09-16.41,12.2-16.41,12.2s15.13-8.24,13.33-12.05
				s-15.78-6.45-15.78-6.45L434.33,317.56z"/>
			<path fill="#67321D" d="M395.46,267.2c0,0,32.44,64.75,16.43,128.71c0,0,34.23-57.78,12.31-109.06
				C402.27,235.57,395.46,267.2,395.46,267.2z"/>
			<path fill="#67321D" d="M423.37,292.82c0,0,19.22,31.49,14.58,63.83c0,0,15.72-57.34,0.61-75.09
				C423.46,263.81,423.37,292.82,423.37,292.82z"/>
			<path fill="#783A24" d="M423.21,78.51c2.6,0.27,48,54.54,23.38,69.08c-24.62,14.54-89.93,6.82-99.62-5.9
				c-9.68-12.72-34.18-26.08-34.18-26.08s38.51,31.03,7.92,39.55c-30.6,8.51-70.31-10.31-70.31-10.31s49.85,80.21,108.99,97.2
				c59.15,16.98,82.42,15.36,82.42,15.36s7.02-61.37-21.16-81.91c0,0,79.2,13.22,59.48-35.21C460.4,91.85,423.21,78.51,423.21,78.51
				z"/>
			<path fill="#F8A075" d="M181.14,178.53l-42.72-24.21v-54.11c0,0,115.35,34.65,121.52,39.16
				C266.11,143.88,181.14,178.53,181.14,178.53z"/>
			<path fill="#F8A075" d="M175.92,216.5c0,0-5.93-2.84-5.22,2.85c0.71,5.7,12.35,12.58,13.53,12.34c1.19-0.23,8.07-1.19,9.97-2.84
				c1.9-1.66,6.65-18.99,7.36-20.65c0.71-1.66,5.46-39.16,2.14-40.59s-22.55,10.92-22.55,10.92s-2.61,20.89-0.95,26.11
				C180.19,204.64,175.92,213.66,175.92,216.5z"/>
			<path fill="#F8A075" d="M212,178.53c0,0-0.24,18.52,4.51,26.82c0,0-8.79,9.73-9.02,12.81c0,0-11.57-3.53-11.39,1.43
				c0.18,4.96,0,13.76,14.48,15.43s30.14-21.36,30.62-22.55c0.47-1.18-3.33-34.18-5.7-40.59c-2.38-6.41-5.7-18.99-5.7-18.99
				l-23.02,10.21L212,178.53z"/>
			<path fill="#F8A075" d="M232.64,150.76c0,0,7.68,28.01,8.59,36.31c0.91,8.31,2.1,20.17,2.1,20.17s-16.76,18.44-15.26,20.37
				c1.49,1.94,9.57,9.31,21.43,4.08c11.87-5.23,22.08-29.54,21.84-32.1c-0.23-2.55-12.2-51.58-16.54-54.84
				C250.45,141.5,232.64,150.76,232.64,150.76z"/>
			<path fill="#F8A075" d="M254.25,156.46c1.14,1.27,25.16,15.67,27.06,15.18c0,0,1.42,11.87,2.14,12.82c0,0-7.12,12.34-5.22,19.7
				c1.9,7.36,5.22,9.26,8.54,8.54c3.33-0.71,17.09-18.03,17.57-20.65c0.47-2.61,0-37.73-2.61-40.35
				c-2.61-2.61-37.5-13.05-41.77-12.35C255.67,140.08,248.08,149.58,254.25,156.46z"/>
			<path fill="#F8A075" d="M236.58,176.09l3.59,4.88l-6.34-32.82l-34.49,16.41l-1.1,20.61c0,0,9.89-8.82,13.84-2.39
				C216.03,189.21,236.58,176.09,236.58,176.09z"/>
			<path fill="#39393D" d="M98.24,207.83c0,0,4.06-72.64,17.45-83.52l17.46,4.25C133.15,128.57,99.72,200.13,98.24,207.83z"/>
			<path fill="#39393D" d="M105.26,125.68c0,0,33.51,3.23,39.68,8.58c6.17,5.35,27.86-19.84,59.92-15.55
				c32.06,4.28-17.74-37.95-34.22-33.36C154.17,89.93,109.07,106.4,105.26,125.68z"/>
			<path fill="#A64225" d="M430.52,728.89l4.49-108.41l-2.17-41.6l-18.45,2.17c0,0-0.23,95.88-5.18,147.84H430.52z"/>
			<path fill="#5B270D" d="M256.62,728.89c13.57-40.09,32.05-89.86,56.26-145.09c54.33-123.95,91.29-114.4,91.29-114.4l-0.98-6.85
				l-21.34-7.51l-35.32,30.05l-36.69,58.91l-35.15,76.83l-39.74,108.07H256.62z"/>
			<path fill="#A64225" d="M251.95,728.89c34.97-106.1,95.19-260.42,151.24-266.34l-23.6-16.39c0,0-80.06,43.87-154.8,282.73H251.95
				z"/>
			<g>
				<path fill="#1A1A1A" d="M350.1,728.89c3.25-31.53,7.6-66.35,13.52-103.72c22.37-141.23,62.72-141.36,62.72-141.36l-2.84-6.74
					l-23.82-1.97l-28.07,40.16l-21.75,70.03l-15.38,87.95l-5.39,55.65H350.1z"/>
				<path fill="#303030" d="M344.85,728.89c10.17-109.3,31.96-234.18,78.65-251.82L395,466.63c0,0-64.07,83.46-75.02,262.26H344.85z
					"/>
			</g>
			<path fill="#A49F35" d="M202,728.89h89.03c80.39-29.82,142.48-73.24,147.56-94.75c7.5-31.79-10.46-59.24-42.59-64.06
				c-31.92-4.8-219.41,69.7-222.08,70.75l-0.03,0.02C173.89,640.84,211.95,672.64,202,728.89z"/>
			<path fill="#8B8834" d="M160.62,728.89h89.72c5.68-36.03-20.09-100.06-41.66-109.68c-23.42-10.44-34.44,5.87-34.44,5.87
				C179.61,673.27,170.67,707.12,160.62,728.89z"/>
			<path fill="#F16B48" d="M318.08,295.12c0,0,3.61,7.85,6.56,10.89c0,0-11.28-3.16-11.54-9.07L318.08,295.12z"/>
			<path fill="#F28B6F" d="M313.1,296.95c0,0,32.27-0.19,52.5,11.87c20.22,12.06,16.15,6.74,16.15,6.74l-23.46-18.61l-28.63-4.33
				L313.1,296.95z"/>
			<path fill="#4B261A" d="M313.1,296.95c0,0,31.59-9.71,69.03,19.24C382.13,316.19,354.35,268.38,313.1,296.95z"/>
		</g>
	</g>
</g>
</svg>
