<?xml version="1.0" encoding="utf-8"?>
<!-- Generator: Adobe Illustrator 25.2.3, SVG Export Plug-In . SVG Version: 6.00 Build 0)  -->
<svg version="1.1" id="Layer_1" xmlns="http://www.w3.org/2000/svg" xmlns:xlink="http://www.w3.org/1999/xlink" x="0px" y="0px"
	 viewBox="0 0 576 576" enable-background="new 0 0 576 576" xml:space="preserve">
<g>
	<g>
		<defs>
			<circle id="SVGID_1_" cx="288" cy="288" r="288"/>
		</defs>
		<use xlink:href="#SVGID_1_"  overflow="visible" fill="#F9E3D9"/>
		<clipPath id="SVGID_2_">
			<use xlink:href="#SVGID_1_"  overflow="visible"/>
		</clipPath>
		<g clip-path="url(#SVGID_2_)">
			<g>
				<g>
					<path fill="#1F9DD9" d="M305.55,644.44h24.99v-33.68H307.2c5.03,1.83,8.7,8.63,8.7,16.6
						C315.9,636.24,311.37,643.52,305.55,644.44z"/>
				</g>
				<g>
					<path fill="#581E15" d="M301.56,654.29h128.61c15.64,0,28.33-12.69,28.33-28.33l0,0c0-15.64-12.68-28.33-28.33-28.33H301.56
						V654.29z"/>
				</g>
				<g>
					<path fill="#7A3424" d="M292.11,627.37c0-14.01,5.34-26.14,13.15-32.22l0.12-4.03h9.52c0.57-0.06,1.13-0.12,1.7-0.12
						c13.54,0,24.5,16.28,24.5,36.37c0,20.08-10.96,36.37-24.5,36.37l-13.33-0.07l0.17-5.67
						C296.63,651.54,292.11,640.25,292.11,627.37z"/>
				</g>
				<g>
					<path fill="#581E15" d="M279.86,627.37c0,20.08,10.97,36.37,24.5,36.37c13.53,0,24.49-16.28,24.49-36.37
						c0-20.09-10.96-36.37-24.49-36.37C290.83,591,279.86,607.28,279.86,627.37z"/>
				</g>
				<g>
					<path fill="#C2B8CC" d="M170.87,644.57l132.35-0.12h2.33c5.82-0.92,10.35-8.2,10.35-17.09c0-7.96-3.67-14.76-8.7-16.6H195.86
						c-13.16,0-24.13,8.15-24.68,21.31L170.87,644.57z"/>
				</g>
				<g>
					<path fill="#C2B8CC" d="M292.81,627.36c0,8.88,4.54,16.17,10.41,17.09h0.37c0.24,0.07,0.55,0.07,0.8,0.07
						c0.24,0,0.55,0,0.8-0.07h0.37c5.82-0.92,10.35-8.2,10.35-17.09c0-7.96-3.67-14.76-8.7-16.6c-0.91-0.37-1.83-0.55-2.81-0.55
						c-0.99,0-1.9,0.18-2.82,0.55C296.48,612.59,292.81,619.4,292.81,627.36z"/>
				</g>
			</g>
			<g>
				<path fill="#5F1E0E" d="M130.21,139.02c0,0-11.38,77.13-12.3,82.76c-0.92,5.63,6.13,54.11,14.01,84.21
					c8.17,31.2-3.13,144.68-25.66,168.21c0,0,89.07,40.33,125.6-20.09C268.42,393.71,150.41,154.74,130.21,139.02z"/>
				<g>
					<path fill="#DF1E2E" d="M247.29,547.79c-11.41,22.5-26.77,47.77-44.2,73.99c-12.54,18.92-20.42,39.19-29.43,59.05H66.23
						c22-65.42,62.2-147.48,81.72-172.19c2.78-3.52,6.3-6.53,10.33-8.97c1.34-0.81,2.43-1.47,2.43-1.47l35.5,6.03l20.96,4
						l40.42,7.72c0,0-0.74,5.55-2.2,14.93C253.03,536.27,250.21,541.92,247.29,547.79z"/>
				</g>
				<path fill="#DF1E2E" d="M384.05,680.83c24.12-31.6,38.2-68.59,42.62-81.47c0,0.77-0.08,1.47-0.08,2.16
					c0.85-3.32,1.31-5.56,1.55-6.34c0-0.39,0.16-0.46,0.16-0.46l10.97,9.82c-0.62,10.04-0.77,19.39,0,27.51v0.61
					c1.16,11.43,3.86,19.7,7.11,25.04c0.23,0.23,0.46,0.62,0.78,1.01c8.42,11.66,21.71,7.57,34.46-1.01
					c3.24-2.17,6.57-4.64,9.73-7.42l28.04,24.88c-0.25,1.8-0.67,3.82-0.97,5.68H384.05z"/>
				<path fill="#F05041" d="M108.86,680.83c1.4-5.61,3.12-10.78,5.42-14.67c11.87-20.1,22.67-50.09,25.26-64.15
					c2.94-15.96,14.52-93.46,14.52-93.46c15.14,266.15,266.16,106.89,266.16,106.89s11.47,25.7-5.35,65.4H108.86z"/>
				<path fill="#F05041" d="M269.33,680.83h-59.69c-12.73-2.58-22.87-7.35-28.15-15.64c-32.2-50.5-26-163.15-22.78-165.95
					c3.22-2.81,63.34-25.7,63.34-25.7l182.53-6.48c0,0,39.35,5.43,62.66,20.69c23.31,15.26-52.67,156.68-52.67,156.68
					S336.06,672.29,269.33,680.83z"/>
				<path fill="#5F1E0E" d="M384.82,298.1c0,0,31.71,92.7-15.25,129.11c-46.96,36.41-154.82,86.11-154.82,86.11l-10.87-157.75
					L384.82,298.1z"/>
				<path fill="#F89A5F" d="M262.02,549.33c6.97,0.89,13.99,0.57,20.96-0.65c47.89-28.51,40.39-63.65,34.18-93.04
					c-6.68-31.65,20.7-77.8,20.7-77.8l14.85,10.31c8.6-27.81,21.03-53.45,21.4-60.67L253.4,383.31c0,0,15.95,14.96,11.32,41.59
					c-4.59,26.63-53.73,53.66-53.73,53.66S200.48,541.45,262.02,549.33z"/>
				<path fill="#F6B185" d="M136.53,185.43c4.11,23.01,6.47,86.6,2.59,109.37c-4.32,25.7,52.1,87.89,73.17,127.86
					c6.75,12.75,18.82,14.36,32.87,13.55c3.67-1.5,7.84-3.02,12.56-4.52c140.19-44.81,94.55-231.01,94.55-231.01
					c5.46-7.33,14.38-10.95,25.35-11.91c-6.03-46.07-15.29-65.62-27.78-67.05c-19.73-2.32-150.99-34.8-173.71-0.57
					c-11.13,16.81-22.08,29.37-30.39,37.83C137.04,167.83,134.37,173.25,136.53,185.43z"/>
				<path fill="#F7966B" d="M202.64,258.12c0,0-0.78,31.97-6.29,42.95c-3.08,6.14-6.04,14.13-8.06,19.97
					c-1.59,4.64,1.09,9.44,6.43,11.44c6.44,2.42,14.1,4.64,16.22,4.09c22.5-5.91,31.51-3.11,31.57-8.1
					c0.07-5.67-4.71-13.9-18.6-7.89c0,0-4.69-29.41-9.76-36.84C209.09,276.31,202.64,258.12,202.64,258.12z"/>
				<path fill="#DA7E53" d="M280.1,549.01c54.31-10.38,104.9-80.66,104.9-80.66c-51.69,0.29-39.55-53.09-26.91-95.67l-22.35-4.76
					c0,0-29.31,51.31-22.77,84.79C319.05,483.79,328.12,518.62,280.1,549.01z"/>
				<path fill="#F79150" d="M240.9,436.32c2.02-0.08,4.75,0.04,6.74-0.41c49.95-11.28,139.76-42.78,137.16-137.79
					c-1.28-46.62-3.67-82.48-7.19-109.35c-10.97,0.96-19.89,4.58-25.35,11.91c0,0,41.39,186.32-98.81,231.12
					C248.74,433.32,244.58,434.82,240.9,436.32z"/>
				<path fill="#5F1E0E" d="M381.81,119.93c-24.76,12.01-53.79,23.62-81.58,28.83c-4.8,0.95-9.6,1.65-14.28,2.16
					c-2.78-6.92-5.21-13.26-7.19-18.49c-3.3-8.76-5.31-14.42-5.31-14.42C277.91,85.71,349.36,108.3,381.81,119.93z"/>
				<path fill="#5F1E0E" d="M397.77,251.37c-3.8-5.7-9.27-9.44-15.61-11.99c-17.65-7.12-41.99-5.03-54.65-10.34
					c-5.18-2.17-12.16-13.08-19.34-27.26c0.69-9.16,3.71-23.31,14.8-33.63c12.75-11.88,36.22-18.7,79.24-6.82
					C405.54,203.4,407.46,266.03,397.77,251.37z"/>
				<path fill="#5F1E0E" d="M381.73,119.93c-24.76,12.02-53.79,23.63-81.58,28.84c-11.94-9.72-20.31-16.03-20.31-16.03
					c-0.4-0.08-0.76-0.22-1.16-0.3c-115.49-29.3-160.82,89.96-160.82,89.96S105.5,139.3,150.22,93.4
					c32.95-33.83,128.42-54.39,235.48-24.19c11.9,3.38,23.91,13.95,35.5,29.6C410.46,105.12,396.87,112.6,381.73,119.93z"/>
				<path fill="#5F1E0E" d="M489.26,283.88c-34.4,54.47-84.5,48.37-110.08,40.54c7.98-31.24,10.63-61.27,2.98-85.04
					c-1.65-5.21-3.84-10.08-6.54-14.65c-10.21-17.03-32.25-38.64-52.66-56.58c12.75-11.88,36.22-18.7,79.24-6.82
					c17.26,4.76,37.62,12.52,61.69,24.19C474.75,216.34,483.6,250.37,489.26,283.88z"/>
				<path fill="#5F1E0E" d="M490.04,415.9c-29.08,98.06-192.08,85.13-192.08,85.13s24.3-37.55,47.46-86.61
					C411.65,376.42,462.6,396.98,490.04,415.9z"/>
				<path fill="#792518" d="M492.56,405.29c-0.67,3.66-1.53,7.19-2.52,10.61c-27.44-18.91-78.39-39.48-144.62-1.49
					c13.18-27.88,25.99-59.5,33.76-90c25.58,7.83,75.69,13.93,110.08-40.54C496.79,328.14,498.76,371.46,492.56,405.29z"/>
				<path fill="#792518" d="M322.96,168.15c-11.09,10.32-14.11,24.46-14.8,33.63c-7.81-15.39-15.94-34.69-22.29-50.85
					c4.68-0.51,9.48-1.21,14.28-2.16C306.91,154.32,314.8,160.93,322.96,168.15z"/>
				<path fill="#792518" d="M402.2,161.33c-43.02-11.88-66.49-5.06-79.24,6.82c-8.16-7.22-16.05-13.83-22.81-19.38
					c27.79-5.21,56.81-16.83,81.58-28.84c8.96,3.24,14.97,5.63,15.73,5.77C398.61,125.92,400.55,141.31,402.2,161.33z"/>
				<path fill="#792518" d="M463.89,185.53c-24.07-11.67-44.43-19.44-61.69-24.19c-1.65-20.02-3.59-35.41-4.74-35.64
					c-0.76-0.14-6.77-2.53-15.73-5.77c15.14-7.33,28.73-14.81,39.47-21.11C436.87,120.06,451.67,150.75,463.89,185.53z"/>
				<path fill="#FFFFFF" d="M199.77,365.05l9.95,18.96l8.8,8.07l33.96-7.02l12.43-11.95c0,0,5.08-11.11,5.48-17.46
					c0.05-0.85-3.94,2.26-8.82,2.66C243.14,359.83,199.77,365.05,199.77,365.05z"/>
				<path fill="#EF4546" d="M209.72,384.01c0,0-1.9,5.83,2.44,11.44c5.85,7.58,44.73,4.98,54.2-25.04c0,0-24.47,20.91-45.16,17.97
					C211.06,386.95,209.72,384.01,209.72,384.01z"/>
				<g>
					<path fill="#FFFFFF" d="M307.51,242.99c-2.7,13.91-17.26,28.5-34.71,30.93c-17.44,2.43-36.98-17-36.98-17l7.18-8.22
						c7.02-8.23,16.5-14.16,27.15-15.7C293.47,229.51,307.51,242.99,307.51,242.99z"/>
					<g>
						<g>
							<path fill="#894634" d="M248.05,257.9c-0.77,10.59,7.19,19.81,17.79,20.58c10.6,0.78,19.81-7.19,20.59-17.79
								c0.77-10.6-7.19-19.81-17.79-20.59C258.04,239.34,248.83,247.3,248.05,257.9z"/>
							<path fill="#704338" d="M259.87,260.39c-0.33,4.45,3.02,8.32,7.47,8.65c4.46,0.33,8.33-3.02,8.65-7.47
								c0.33-4.46-3.02-8.33-7.47-8.65C264.07,252.58,260.2,255.93,259.87,260.39z"/>
						</g>
						<path opacity="0.7" fill="#EDEEEE" d="M277.9,257.52c-0.31,4.2,2.85,7.85,7.04,8.15c4.2,0.31,7.85-2.85,8.16-7.04
							c0.31-4.2-2.85-7.85-7.05-8.16C281.86,250.17,278.2,253.32,277.9,257.52z"/>
					</g>
					<path fill="#62351E" d="M313.61,234.42l-6.1,8.58c0,0-14.05-13.48-37.36-9.99c-10.65,1.55-20.13,7.47-27.15,15.7l-7.18,8.22
						C235.83,256.93,249.61,209.52,313.61,234.42z"/>
				</g>
				<g>
					<path fill="#FFFFFF" d="M141.63,258.45c3.84,12.24,17.77,23.52,29.32,23.73c11.55,0.2,18.77-19.32,18.77-19.32l-5.85-6.6
						c-5.75-6.62-12.73-10.89-19.8-11.08C148.6,244.7,141.63,258.45,141.63,258.45z"/>
					<g>
						<g>
							<path fill="#894634" d="M177.92,263.97c1.98,8.98-1.82,17.8-8.5,19.69c-6.68,1.89-13.71-3.84-15.69-12.82
								c-1.99-8.98,1.81-17.8,8.5-19.7C168.9,249.24,175.92,254.99,177.92,263.97z"/>
							<path fill="#704338" d="M170.69,267.47c0.84,3.77-0.76,7.48-3.57,8.28c-2.81,0.8-5.76-1.62-6.6-5.39
								c-0.84-3.78,0.76-7.49,3.57-8.28C166.9,261.28,169.86,263.69,170.69,267.47z"/>
						</g>
						<path opacity="0.7" fill="#EDEEEE" d="M158.55,265.33c0.79,3.56-0.72,7.06-3.36,7.81c-2.65,0.75-5.44-1.53-6.22-5.08
							c-0.79-3.56,0.72-7.05,3.37-7.8C154.98,259.5,157.77,261.78,158.55,265.33z"/>
					</g>
					<path fill="#62351E" d="M136.42,251.41l5.21,7.05c0,0,6.96-13.76,22.45-13.27c7.07,0.19,14.05,4.45,19.8,11.08l5.85,6.6
						C189.73,262.87,173.69,221.67,136.42,251.41z"/>
				</g>
				<path fill="#5F1E0E" d="M136.57,213.48c0,0,29.81-21.22,38.73-18.61c8.92,2.62,3.1,9.64,3.1,9.64s-32.11,7.41-37.6,10.81
					C135.3,218.71,136.57,213.48,136.57,213.48z"/>
				<path fill="#5F1E0E" d="M247.27,189.94c0,0-1.04,9.35,1.51,8.69c2.55-0.66,53.45-3.93,58.39,1.48c4.94,5.41,6.51-3.71-3.46-6.78
					C293.74,190.26,255.11,186.94,247.27,189.94z"/>
				<path fill="#EF4546" d="M201.45,366.97c-1.79,0.01-2.92-1.93-1.94-3.39c2.63-3.92,7.32-9.47,11.26-6.58
					c5.83,4.28,9.21,3.11,11.77,0.37c2.28-2.43,6.99-5.31,14.01-3.18c9.12,2.78,29.38,4.69,33.67,1.1
					C270.23,355.29,264.68,366.58,201.45,366.97z"/>
				<g>
					<path fill="#F05041" d="M500.01,680.83h-84.64c-1.95-18.93-3.83-37.9-5.27-55.89c0-0.77,0-1.42-0.15-2.07
						c-3.71-45.23,9.99-80.33,11.92-92.48c4.89-31.92,22.39-47.04,34.25-46.27c3.41,0.13,7.27,1.55,11.12,3.62l-2.23,0.25
						C465.01,488.01,494.16,588.09,500.01,680.83z"/>
				</g>
				<g>
					<path fill="#DF1E2E" d="M500.01,680.83c-5.85-92.74-35-192.82-35-192.82l2.23-0.25c12.01,6.32,18.06,17.02,24.53,25.92
						c20.21,27.82,39.79,93.55,50.11,167.15H500.01z"/>
				</g>
				<g>
					<polygon fill="#713825" points="294.19,278.35 378,233.34 374.95,226.87 291.15,271.87 					"/>
				</g>
				<g>
					<path opacity="0.4" fill="#FFFFFF" d="M221.88,278.51l1.15,15.51c0.42,5.44,4.13,9.61,8.35,9.26l51.53-4.4
						c4.21-0.39,7.19-5.13,6.77-10.57l-1.15-15.51c-0.12-1.19-0.96-2.1-1.84-2.02l-63.24,5.43
						C222.49,276.29,221.76,277.33,221.88,278.51z"/>
					<path opacity="0.4" fill="#FFFFFF" d="M122.67,287.13l1.15,15.51c0.42,5.43,4.13,9.61,8.34,9.26l51.53-4.4
						c4.22-0.39,7.2-5.13,6.78-10.57l-1.15-15.5c-0.12-1.19-0.96-2.11-1.84-2.03l-63.24,5.44
						C123.28,284.91,122.55,285.94,122.67,287.13z"/>
					<g opacity="0.29">
						<g>
							<polygon fill="#FFFFFF" points="246.96,274.16 263.61,300.51 280.29,299.09 263.64,272.75 							"/>
						</g>
						<g>
							<polygon fill="#FFFFFF" points="222.11,276.27 238.76,302.61 252.11,301.48 235.46,275.14 							"/>
						</g>
					</g>
					<g opacity="0.29">
						<g>
							<polygon fill="#FFFFFF" points="148.39,282.77 165.04,309.12 181.72,307.7 165.06,281.36 							"/>
						</g>
						<g>
							<polygon fill="#FFFFFF" points="123.54,284.89 140.19,311.23 153.53,310.1 136.88,283.75 							"/>
						</g>
					</g>
					<path fill="#713825" d="M117.5,287.58l1.15,15.47c0.31,4.06,1.64,7.54,3.71,10.22c2.53,3.64,6.32,5.74,10.3,5.4l51.56-4.44
						c6.59-0.57,11.41-7.58,11.41-16.12c6.93-4.09,15.05-4.78,22.47-1.95c1.27,8.46,7.08,14.55,13.67,14.01l51.53-4.44
						c3.22-0.27,6.05-2.07,8.08-4.98c2.53-3.18,3.82-7.77,3.45-12.79l-1.15-15.5c-0.27-3.79-2.38-6.81-5.02-8
						c-0.8-0.27-1.68-0.42-2.56-0.35l-63.24,5.44c-3.83,0.31-6.55,4.63-6.17,9.53l0.65,8.62c-7.43-2.03-15.2-1.38-22.2,1.91
						l-0.65-8.61c-0.38-4.94-3.71-8.69-7.5-8.39l-63.24,5.44c-1.46,0.11-2.79,0.88-3.86,1.99
						C118.22,281.81,117.27,284.52,117.5,287.58z M221.85,278.63c-0.07-1.19,0.61-2.22,1.49-2.3l63.24-5.44
						c0.96-0.08,1.84,0.84,1.92,2.03l1.15,15.46c0.42,5.48-2.64,10.22-6.85,10.61l-51.53,4.41c-4.09,0.34-7.84-3.83-8.27-9.27
						L221.85,278.63z M122.67,287.13c-0.12-1.19,0.61-2.22,1.57-2.3l63.24-5.44c0.88-0.08,1.72,0.84,1.84,2.03l1.15,15.5
						c0.42,5.44-2.56,10.19-6.78,10.57l-51.53,4.4c-4.21,0.35-7.92-3.83-8.34-9.26L122.67,287.13z"/>
				</g>
				<g>
					<path fill="#F79150" d="M363.99,252.31c2.19-13.05,9.29-25.07,20.23-32.95c9.54-6.87,21.32-11.07,30.35-0.4
						c18.04,21.33,11.57,84.08-23.29,92.63C361.33,318.94,358.32,286.09,363.99,252.31z"/>
					<path fill="#F37021" d="M404.08,244.72c-21.17-2.77-30.9,22.26-23.7,38.95c7.21,16.71,20.92,1.68,20.92,1.68
						s-18.84,9-18.69-14.53c0.02-3.88,0.66-7.14,1.64-9.97c0.03,0.34,0.03,0.61,0.08,0.98c1.16,8.16,19.26,0.41,19.26,0.41
						c-12.63,1.37-15.66-4.61-16.39-7.22C393.52,246.03,404.08,244.72,404.08,244.72z"/>
				</g>
			</g>
			<g>
				<defs>
					<path id="SVGID_3_" d="M424.47,228.14l-12.96-2.21c-2.43-0.41-4.98-0.33-7.59,0.31l12.95,2.21
						C419.49,227.81,422.04,227.73,424.47,228.14z"/>
				</defs>
				<use xlink:href="#SVGID_3_"  overflow="visible" fill="#2B888E"/>
				<clipPath id="SVGID_4_">
					<use xlink:href="#SVGID_3_"  overflow="visible"/>
				</clipPath>
				<g clip-path="url(#SVGID_4_)" enable-background="new    ">
					<g>
						<path fill="#2B888E" d="M424.47,228.14l-12.96-2.21c-0.15-0.03-0.3-0.05-0.45-0.07l12.95,2.21
							C424.16,228.09,424.32,228.12,424.47,228.14z"/>
					</g>
					<g>
						<path fill="#2B888E" d="M424.01,228.07l-12.95-2.21c-0.63-0.09-1.28-0.15-1.93-0.17l12.95,2.21
							C422.74,227.92,423.38,227.98,424.01,228.07z"/>
					</g>
					<g>
						<path fill="#2B888E" d="M422.09,227.9l-12.95-2.21c-0.56-0.02-1.12-0.01-1.69,0.02l12.95,2.21
							C420.97,227.89,421.53,227.88,422.09,227.9z"/>
					</g>
					<g>
						<path fill="#2B888E" d="M420.4,227.92l-12.95-2.21c-0.52,0.03-1.04,0.08-1.58,0.16l12.96,2.21
							C419.35,228,419.88,227.95,420.4,227.92z"/>
					</g>
					<g>
						<path fill="#2B888E" d="M418.83,228.08l-12.96-2.21c-0.48,0.07-0.96,0.15-1.45,0.26l12.96,2.21
							C417.86,228.24,418.34,228.14,418.83,228.08z"/>
					</g>
					<g>
						<path fill="#2B888E" d="M417.38,228.34l-12.96-2.21c-0.16,0.03-0.33,0.07-0.5,0.11l12.95,2.21
							C417.04,228.42,417.21,228.38,417.38,228.34z"/>
					</g>
				</g>
			</g>
			<g>
				<g>
					<g enable-background="new    ">
						<g>
							<defs>
								<path id="SVGID_5_" d="M218.2,50.48c-7.38,2.98-13.66,8.15-18.6,14.38l-0.54,0.68c18.48-10.4,37.46-18.36,60.09-15.07
									l11.85-6.67C252.91,41.17,234.36,43.94,218.2,50.48z"/>
							</defs>
							<use xlink:href="#SVGID_5_"  overflow="visible" fill="#454545"/>
							<clipPath id="SVGID_6_">
								<use xlink:href="#SVGID_5_"  overflow="visible"/>
							</clipPath>
						</g>
						<g>
							<defs>
								<path id="SVGID_7_" d="M388.26,232.86l11.86-6.66c-0.16-90.26-58.09-172.07-129.11-182.39l-11.85,6.67
									C330.17,60.79,388.1,142.61,388.26,232.86z"/>
							</defs>
							<use xlink:href="#SVGID_7_"  overflow="visible" fill="#454545"/>
							<clipPath id="SVGID_8_">
								<use xlink:href="#SVGID_7_"  overflow="visible"/>
							</clipPath>
							<g clip-path="url(#SVGID_8_)" enable-background="new    ">
								<g>
									<path fill="#454545" d="M388.26,232.86l11.86-6.66c-0.05-24.9-4.48-49.15-12.38-71.44l-11.86,6.67
										C383.78,183.71,388.22,207.96,388.26,232.86z"/>
								</g>
								<g>
									<path fill="#454545" d="M375.88,161.42l11.86-6.67c-3.3-9.29-7.19-18.24-11.61-26.75l-11.86,6.67
										C368.7,143.19,372.59,152.14,375.88,161.42z"/>
								</g>
								<g>
									<path fill="#454545" d="M364.27,134.68l11.86-6.67c-3.6-6.91-7.54-13.54-11.81-19.83l-11.86,6.67
										C356.73,121.13,360.68,127.77,364.27,134.68z"/>
								</g>
								<g>
									<path fill="#454545" d="M352.46,114.85l11.86-6.67c-3.87-5.71-8-11.14-12.36-16.24L340.1,98.6
										C344.46,103.71,348.59,109.14,352.46,114.85z"/>
								</g>
								<g>
									<path fill="#454545" d="M340.1,98.6l11.86-6.66c-4.22-4.95-8.66-9.59-13.29-13.9l-11.86,6.66
										C331.44,89.01,335.88,93.66,340.1,98.6z"/>
								</g>
								<g>
									<path fill="#454545" d="M326.81,84.7l11.86-6.66c-4.84-4.5-9.87-8.63-15.1-12.35l-11.85,6.66
										C316.94,76.07,321.98,80.21,326.81,84.7z"/>
								</g>
								<g>
									<path fill="#454545" d="M311.72,72.34l11.85-6.66c-6.17-4.41-12.6-8.26-19.23-11.49l-11.86,6.67
										C299.11,64.08,305.54,67.93,311.72,72.34z"/>
								</g>
								<g>
									<path fill="#454545" d="M292.48,60.86l11.86-6.67c-10.64-5.16-21.81-8.72-33.33-10.39l-11.85,6.67
										C270.67,52.14,281.85,55.7,292.48,60.86z"/>
								</g>
							</g>
						</g>
						<g>
							<g>
								<path fill="#1D1D1B" d="M197.89,67.83c6.1-2.72,12.13-4.64,18.03-5.9c16.05-3.71,31.03-2.85,43.3-1.06
									c66.51,9.62,120.75,86.28,120.81,170.82l8.22,1.19c-0.2-90.32-58.09-172.07-129.04-182.42c-2.06-0.27-4.18-0.54-6.37-0.67
									c-17.57-1.4-38.92,1.53-49.73,11.21C200.87,62.93,199.08,65.25,197.89,67.83z"/>
							</g>
						</g>
					</g>
				</g>
				<path fill="#454545" d="M165.63,411.52h44.78c9.98,0,18.1,9.18,18.1,20.45c0,11.28-8.12,20.45-18.1,20.45h-44.78
					c-9.98,0-18.09-9.18-18.09-20.45C147.53,420.7,155.65,411.52,165.63,411.52z"/>
				<g>
					<path fill="#454545" d="M218.54,436.19c127.6-2.4,163.54-117.83,163.89-119.01l-7.6-2.27
						c-0.33,1.13-34.72,111.05-156.42,113.37c-2.16,0.04-3.92,1.77-3.92,3.93l0,0C214.49,434.42,216.32,436.23,218.54,436.19z"/>
				</g>
				<g>
					<g enable-background="new    ">
						<g enable-background="new    ">
							<defs>
								<path id="SVGID_9_" enable-background="new    " d="M407.07,214.84l-12.96-2.21c-3.26-0.55-6.67-0.44-10.18,0.42l12.96,2.21
									C400.39,214.4,403.8,214.28,407.07,214.84z"/>
							</defs>
							<use xlink:href="#SVGID_9_"  overflow="visible" fill="#1C5054"/>
							<clipPath id="SVGID_10_">
								<use xlink:href="#SVGID_9_"  overflow="visible"/>
							</clipPath>
							<g clip-path="url(#SVGID_10_)" enable-background="new    ">
								<g>
									<path fill="#1C5054" d="M407.07,214.84l-12.96-2.21c-0.2-0.04-0.4-0.07-0.6-0.1l12.95,2.21
										C406.66,214.77,406.86,214.8,407.07,214.84z"/>
								</g>
								<g>
									<path fill="#1C5054" d="M406.46,214.75l-12.95-2.21c-0.85-0.12-1.71-0.2-2.58-0.23l12.95,2.21
										C404.75,214.54,405.61,214.62,406.46,214.75z"/>
								</g>
								<g>
									<path fill="#1C5054" d="M403.88,214.52l-12.95-2.21c-0.75-0.03-1.51-0.02-2.27,0.03l12.95,2.21
										C402.37,214.5,403.13,214.48,403.88,214.52z"/>
								</g>
								<g>
									<path fill="#1C5054" d="M401.61,214.54l-12.95-2.21c-0.7,0.04-1.4,0.11-2.11,0.22l12.96,2.21
										C400.21,214.65,400.91,214.58,401.61,214.54z"/>
								</g>
								<g>
									<path fill="#1C5054" d="M399.5,214.75l-12.96-2.21c-0.65,0.09-1.29,0.21-1.94,0.35l12.96,2.21
										C398.21,214.96,398.85,214.84,399.5,214.75z"/>
								</g>
								<g>
									<path fill="#1C5054" d="M397.56,215.1l-12.96-2.21c-0.22,0.05-0.45,0.1-0.67,0.16l12.96,2.21
										C397.11,215.21,397.33,215.16,397.56,215.1z"/>
								</g>
							</g>
						</g>
						<g enable-background="new    ">
							<defs>
								<path id="SVGID_11_" enable-background="new    " d="M376.67,328.9l12.95,2.21c-16.25-2.77-28.62-22.25-29.28-48.77
									c-0.8-31.89,15.55-61.9,36.55-67.07l-12.96-2.21c-21,5.18-37.35,35.18-36.54,67.07
									C348.05,306.65,360.42,326.13,376.67,328.9z"/>
							</defs>
							<use xlink:href="#SVGID_11_"  overflow="visible" fill="#1D1D1B"/>
							<clipPath id="SVGID_12_">
								<use xlink:href="#SVGID_11_"  overflow="visible"/>
							</clipPath>
							<g clip-path="url(#SVGID_12_)" enable-background="new    ">
								<g>
									<path fill="#1D1D1B" d="M396.88,215.26l-12.96-2.21c-0.39,0.1-0.79,0.2-1.18,0.32l12.95,2.21
										C396.09,215.47,396.49,215.36,396.88,215.26z"/>
								</g>
								<g>
									<path fill="#1D1D1B" d="M395.7,215.58l-12.95-2.21c-0.6,0.18-1.19,0.37-1.78,0.59l12.95,2.21
										C394.51,215.95,395.1,215.76,395.7,215.58z"/>
								</g>
								<g>
									<path fill="#1D1D1B" d="M393.91,216.17l-12.95-2.21c-0.57,0.2-1.12,0.42-1.68,0.67l12.95,2.21
										C392.8,216.6,393.35,216.37,393.91,216.17z"/>
								</g>
								<g>
									<path fill="#1D1D1B" d="M392.24,216.84l-12.95-2.21c-0.55,0.24-1.1,0.5-1.65,0.77l12.96,2.21
										C391.14,217.34,391.69,217.08,392.24,216.84z"/>
								</g>
								<g>
									<path fill="#1D1D1B" d="M390.6,217.61l-12.96-2.21c-0.53,0.27-1.06,0.55-1.59,0.86l12.95,2.2
										C389.53,218.16,390.06,217.88,390.6,217.61z"/>
								</g>
								<g>
									<path fill="#1D1D1B" d="M389,218.46l-12.95-2.2c-0.53,0.3-1.05,0.61-1.57,0.95l12.96,2.21
										C387.96,219.09,388.48,218.77,389,218.46z"/>
								</g>
								<g>
									<path fill="#1D1D1B" d="M387.44,219.42l-12.96-2.21c-0.52,0.33-1.04,0.69-1.55,1.06l12.96,2.21
										C386.4,220.1,386.91,219.75,387.44,219.42z"/>
								</g>
								<g>
									<path fill="#1D1D1B" d="M385.89,220.47l-12.96-2.21c-0.52,0.37-1.03,0.75-1.54,1.16l12.96,2.21
										C384.85,221.23,385.36,220.84,385.89,220.47z"/>
								</g>
								<g>
									<path fill="#1D1D1B" d="M384.35,221.62l-12.96-2.21c-0.52,0.41-1.03,0.84-1.54,1.28l12.96,2.21
										C383.31,222.47,383.82,222.04,384.35,221.62z"/>
								</g>
								<g>
									<path fill="#1D1D1B" d="M382.81,222.9l-12.96-2.21c-0.52,0.46-1.04,0.93-1.56,1.42l12.96,2.21
										C381.75,223.84,382.28,223.37,382.81,222.9z"/>
								</g>
								<g>
									<path fill="#1D1D1B" d="M381.25,224.33l-12.96-2.21c-0.53,0.51-1.04,1.02-1.56,1.56l12.96,2.21
										C380.2,225.36,380.72,224.84,381.25,224.33z"/>
								</g>
								<g>
									<path fill="#1D1D1B" d="M379.69,225.89l-12.96-2.21c-0.55,0.59-1.1,1.19-1.64,1.81l12.95,2.21
										C378.58,227.07,379.13,226.47,379.69,225.89z"/>
								</g>
								<g>
									<path fill="#1D1D1B" d="M378.04,227.7l-12.95-2.21c-0.57,0.66-1.13,1.33-1.67,2.02l12.95,2.21
										C376.92,229.03,377.47,228.35,378.04,227.7z"/>
								</g>
								<g>
									<path fill="#1D1D1B" d="M376.37,229.72l-12.95-2.21c-0.59,0.74-1.17,1.51-1.73,2.3l12.96,2.21
										C375.21,231.23,375.78,230.46,376.37,229.72z"/>
								</g>
								<g>
									<path fill="#1D1D1B" d="M374.65,232.02l-12.96-2.21c-0.65,0.91-1.28,1.85-1.89,2.81l12.95,2.21
										C373.37,233.87,374,232.93,374.65,232.02z"/>
								</g>
								<g>
									<path fill="#1D1D1B" d="M372.75,234.83l-12.95-2.21c-0.72,1.14-1.42,2.3-2.08,3.5l12.95,2.21
										C371.34,237.13,372.04,235.96,372.75,234.83z"/>
								</g>
								<g>
									<path fill="#1D1D1B" d="M370.68,238.33l-12.95-2.21c-0.87,1.56-1.69,3.18-2.46,4.86l12.95,2.21
										C369,241.52,369.81,239.9,370.68,238.33z"/>
								</g>
								<g>
									<path fill="#1D1D1B" d="M368.22,243.19l-12.95-2.21c-2.59,5.61-4.63,11.79-5.99,18.3l12.96,2.21
										C363.59,254.98,365.63,248.79,368.22,243.19z"/>
								</g>
								<g>
									<path fill="#1D1D1B" d="M362.23,261.49l-12.96-2.21c-0.33,1.6-0.63,3.22-0.88,4.86l12.96,2.21
										C361.6,264.71,361.89,263.09,362.23,261.49z"/>
								</g>
								<g>
									<path fill="#1D1D1B" d="M361.35,266.35l-12.96-2.21c-0.19,1.26-0.36,2.53-0.5,3.81l12.96,2.21
										C360.99,268.88,361.16,267.62,361.35,266.35z"/>
								</g>
								<g>
									<path fill="#1D1D1B" d="M360.86,270.16l-12.96-2.21c-0.12,1.12-0.23,2.25-0.31,3.39l12.96,2.21
										C360.63,272.41,360.73,271.29,360.86,270.16z"/>
								</g>
								<g>
									<path fill="#1D1D1B" d="M360.54,273.54l-12.96-2.21c-0.07,1.02-0.13,2.05-0.17,3.08l12.96,2.21
										C360.41,275.6,360.47,274.57,360.54,273.54z"/>
								</g>
								<g>
									<path fill="#1D1D1B" d="M360.37,276.62l-12.96-2.21c-0.03,0.97-0.06,1.94-0.07,2.92l12.96,2.21
										C360.31,278.57,360.33,277.6,360.37,276.62z"/>
								</g>
								<g>
									<path fill="#1D1D1B" d="M360.31,279.55l-12.96-2.21c0,0.93,0.01,1.85,0.03,2.79c0,0,0,0.04,0,0.06l12.95,2.21
										c0-0.02,0-0.05,0-0.05C360.31,281.4,360.3,280.47,360.31,279.55z"/>
								</g>
								<g>
									<path fill="#1D1D1B" d="M360.33,282.4l-12.95-2.21c0.02,0.9,0.06,1.79,0.1,2.67l12.96,2.21
										C360.4,284.18,360.36,283.29,360.33,282.4z"/>
								</g>
								<g>
									<path fill="#1D1D1B" d="M360.45,285.06l-12.96-2.21c0.05,0.87,0.12,1.73,0.19,2.59l12.96,2.21
										C360.56,286.8,360.5,285.93,360.45,285.06z"/>
								</g>
								<g>
									<path fill="#1D1D1B" d="M360.63,287.65l-12.96-2.21c0.07,0.83,0.16,1.65,0.25,2.47l12.95,2.21
										C360.79,289.31,360.71,288.48,360.63,287.65z"/>
								</g>
								<g>
									<path fill="#1D1D1B" d="M360.88,290.12l-12.95-2.21c0.1,0.81,0.2,1.61,0.32,2.4l12.95,2.21
										C361.09,291.73,360.98,290.93,360.88,290.12z"/>
								</g>
								<g>
									<path fill="#1D1D1B" d="M361.2,292.53l-12.95-2.21c0.12,0.79,0.24,1.57,0.39,2.34l12.95,2.21
										C361.45,294.1,361.33,293.32,361.2,292.53z"/>
								</g>
								<g>
									<path fill="#1D1D1B" d="M361.59,294.87l-12.95-2.21c0.14,0.78,0.29,1.55,0.45,2.3l12.96,2.21
										C361.88,296.41,361.73,295.64,361.59,294.87z"/>
								</g>
								<g>
									<path fill="#1D1D1B" d="M362.04,297.16l-12.96-2.21c0.16,0.76,0.33,1.51,0.52,2.25l12.96,2.21
										C362.38,298.67,362.2,297.92,362.04,297.16z"/>
								</g>
								<g>
									<path fill="#1D1D1B" d="M362.56,299.42l-12.96-2.21c0.19,0.76,0.39,1.51,0.6,2.25l12.95,2.21
										C362.95,300.92,362.75,300.17,362.56,299.42z"/>
								</g>
								<g>
									<path fill="#1D1D1B" d="M363.15,301.66l-12.95-2.21c0.22,0.74,0.44,1.48,0.67,2.21l12.95,2.21
										C363.6,303.14,363.37,302.41,363.15,301.66z"/>
								</g>
								<g>
									<path fill="#1D1D1B" d="M363.83,303.87l-12.95-2.21c0.25,0.77,0.5,1.53,0.78,2.26l12.96,2.21
										C364.34,305.39,364.07,304.64,363.83,303.87z"/>
								</g>
								<g>
									<path fill="#1D1D1B" d="M364.61,306.13l-12.96-2.21c0.28,0.76,0.57,1.51,0.87,2.25l12.96,2.21
										C365.18,307.65,364.88,306.9,364.61,306.13z"/>
								</g>
								<g>
									<path fill="#1D1D1B" d="M365.48,308.38l-12.96-2.21c0.32,0.79,0.66,1.56,1.01,2.31l12.96,2.21
										C366.14,309.94,365.8,309.17,365.48,308.38z"/>
								</g>
								<g>
									<path fill="#1D1D1B" d="M366.5,310.69l-12.96-2.21c0.39,0.82,0.78,1.63,1.2,2.41l12.95,2.21
										C367.28,312.31,366.87,311.51,366.5,310.69z"/>
								</g>
								<g>
									<path fill="#1D1D1B" d="M367.69,313.09l-12.95-2.21c0.45,0.85,0.93,1.69,1.42,2.49l12.96,2.21
										C368.62,314.79,368.15,313.96,367.69,313.09z"/>
								</g>
								<g>
									<path fill="#1D1D1B" d="M369.11,315.59l-12.96-2.21c0.57,0.94,1.17,1.84,1.78,2.7l12.96,2.21
										C370.27,317.43,369.68,316.53,369.11,315.59z"/>
								</g>
								<g>
									<path fill="#1D1D1B" d="M370.89,318.29l-12.96-2.21c0.8,1.12,1.63,2.17,2.5,3.17l12.96,2.21
										C372.53,320.46,371.69,319.41,370.89,318.29z"/>
								</g>
								<g>
									<path fill="#1D1D1B" d="M373.39,321.46l-12.96-2.21c4.59,5.23,10.14,8.61,16.23,9.65l12.95,2.21
										C383.53,330.07,377.98,326.68,373.39,321.46z"/>
								</g>
							</g>
						</g>
						<g>
							<g>
								<path fill="#454545" d="M396.88,215.26c-21,5.18-37.35,35.18-36.55,67.07c0.8,31.83,18.46,53.52,39.45,48.35
									c21-5.18,37.35-35.24,36.54-67.07C435.53,231.72,417.87,210.09,396.88,215.26z"/>
							</g>
						</g>
					</g>
					<path fill="#BBBBBB" d="M377.14,274.16c-0.82,24.46,13.75,44.79,32.56,45.39c7.41,0.23,14.31-2.58,20.05-7.59
						c-2.21,0.55-4.5,0.78-6.8,0.69c-18.81-0.6-33.39-20.92-32.56-45.39c0.5-14.81,6.58-27.73,15.49-35.46
						C390.21,235.34,377.92,252.78,377.14,274.16z"/>
					<path fill="#8C8C8C" d="M390.39,267.26c-0.83,24.47,13.75,44.79,32.56,45.39c2.3,0.09,4.59-0.14,6.8-0.69
						c8.92-7.73,14.99-20.65,15.55-35.46c0.83-24.46-13.75-44.79-32.56-45.39c-2.34-0.09-4.64,0.14-6.85,0.69
						C396.97,239.53,390.89,252.45,390.39,267.26z"/>
				</g>
			</g>
		</g>
	</g>
</g>
</svg>
