<?xml version="1.0" encoding="utf-8"?>
<!-- Generator: Adobe Illustrator 25.2.3, SVG Export Plug-In . SVG Version: 6.00 Build 0)  -->
<svg version="1.1" id="Layer_1" xmlns="http://www.w3.org/2000/svg" xmlns:xlink="http://www.w3.org/1999/xlink" x="0px" y="0px"
	 viewBox="0 0 576 576" enable-background="new 0 0 576 576" xml:space="preserve">
<g>
	<g>
		<defs>
			<path id="SVGID_1_" d="M575.97,287.71c0,158.9-128.81,287.71-287.71,287.71S0.55,446.61,0.55,287.71S129.36,0,288.26,0
				S575.97,128.81,575.97,287.71z"/>
		</defs>
		<use xlink:href="#SVGID_1_"  overflow="visible" fill="#F9E3D9"/>
		<clipPath id="SVGID_2_">
			<use xlink:href="#SVGID_1_"  overflow="visible"/>
		</clipPath>
		<g clip-path="url(#SVGID_2_)">
			<g>
				<path fill="#75C5CD" d="M350.8,305.23c1.82,8.1,2.23,17.98,1.53,28.71c10.13,27.7,37.61,91.21,83.04,112.21
					c19.18-8,24.08-17.65,24.98-24.03c-15.9-1.88-41.68-17.3-43.56-18.43c22.5,8.95,43,8,54.83,6.12
					c26.58-14.2,29.68-30.15,29.05-38.75c-22.85,0.62-57.73-6.9-63.09-8.05c28.93,4.77,52.39,1.55,66.46-1.85
					c21.91-17.65,16.33-30.53,10.5-37.11c-24.66,6.15-62.51,3.35-67.76,2.93c25.03,0.32,72.41-13.75,76.96-15.88
					c0.05-0.03,0.12-0.07,0.18-0.1c0.07-0.05,0.07-0.05,0.07-0.05c49.36-31.01,25.01-59.63,25.01-59.63
					C514.13,278.73,341.3,263.3,350.8,305.23z"/>
				<g>
					<path fill="#24B4C9" d="M514.55,324.07c-2.81-3.04-5.65-4.71-5.65-4.71c5.65-2.77,10.58-5.53,15.04-8.35
						c-3.24,1.78-51.71,16.3-77.13,15.97C452.05,327.4,489.91,330.2,514.55,324.07z"/>
					<path fill="#24B4C9" d="M437.58,363.01c5.36,1.15,40.24,8.69,63.1,8.05c-0.32-3.9-1.38-6.26-1.38-6.26
						c1.7-1.25,3.34-2.47,4.75-3.63C489.98,364.56,466.53,367.79,437.58,363.01z"/>
					<path fill="#24B4C9" d="M416.78,403.69c1.88,1.13,27.66,16.55,43.56,18.44c0.53-4.08-0.55-6.78-0.55-6.78
						c4.39-1.8,8.3-3.64,11.84-5.52C459.8,411.69,439.29,412.64,416.78,403.69z"/>
				</g>
			</g>
			<path fill="#24B4C9" d="M315.28,451.28l18.3,37.43c0,0,36.83-24.33,86.17-37.36c6.05-1.6,11.2-3.35,15.62-5.2
				c-45.43-21-72.91-84.51-83.04-112.21C349.5,378.74,328.05,438.9,315.28,451.28z"/>
			<g>
				<path fill="#A0D1CE" d="M682.27,508.57c0,0,17.48-5.52,22.65,24.86c5.16,30.38-19.8,38.53-22.78,34.94
					c-2.98-3.59-0.84-33-7.93-44.38C667.1,512.59,682.27,508.57,682.27,508.57z"/>
				<polygon fill="#24B4C9" points="684.39,524.35 685.14,526.04 693.72,524.13 				"/>
				<polygon fill="#24B4C9" points="688.1,536.56 688.32,538.35 695.79,538.72 				"/>
				<path fill="#24B4C9" d="M661.15,513.64c0.31-0.12,28.44-3.06,25.59,40.4l0.82-0.14c0,0,8.91-39.84-25.16-43.49L661.15,513.64z"
					/>
			</g>
			<g>
				<path fill="#93CDCE" d="M648.06,458.99c-0.68-4.08-2.13-7.04-2.13-7.04c6.24,0.79,11.88,1.19,17.15,1.29
					c-3.69-0.29-52.16-14.81-73.22-29.06C594.03,427.41,624.11,450.57,648.06,458.99z"/>
				<path fill="#93CDCE" d="M562.37,449.21c3.84,3.91,28.85,29.38,48.28,41.41c1.88-3.43,2.3-5.99,2.3-5.99
					c2.11-0.11,4.15-0.23,5.95-0.42C605.29,479.3,583.93,469.12,562.37,449.21z"/>
				<path fill="#93CDCE" d="M522.63,471.77c0.94,1.97,14.01,29.03,26.25,39.35c2.69-3.12,3.27-5.97,3.27-5.97
					c4.65,0.92,8.94,1.52,12.93,1.9C554.17,502.09,536.51,491.6,522.63,471.77z"/>
			</g>
			<path fill="#C7E0D1" d="M457.04,502.48c3.8,0.68,7.7,1.47,11.73,2.38c9.58,2.12,19.76,4.85,30.13,8.35
				c31.75,10.6,44.76,3.85,50.01-2.1c-12.25-10.33-25.33-37.36-26.28-39.33c13.88,19.83,31.53,30.3,42.46,35.25
				c30,2.75,41.38-8.87,45.58-16.43c-19.46-12.03-44.46-37.48-48.28-41.38c21.55,19.9,42.91,30.08,56.53,34.98
				c27.98-2.7,30.43-16.53,29.16-25.23c-23.95-8.4-54.04-31.56-58.21-34.79c21.05,14.23,69.54,28.73,73.24,29.03
				c0.07,0,0.07,0,0.07,0c58.29,1.23,53.68-36.08,53.68-36.08c-25.55,2.17-81.71-32.97-127.5-55.2c0,0,0,0-0.03,0h-0.02
				c-33.44-16.28-61.29-25.66-67.66-8.71c-4.1,10.88-12.43,23.08-22.85,35.16c-13.18,15.3-29.68,30.41-45.13,42.43
				C447.73,446.15,443.21,471.38,457.04,502.48z"/>
			<path fill="#93CDCE" d="M457.04,502.48c-13.83-31.1-9.3-56.33-3.38-71.66c-17.48,13.63-33.6,23.31-42.01,24.9l-5.28,41.33
				C406.38,497.06,427.73,497,457.04,502.48z"/>
			<path fill="#EBAE76" d="M134.29,575.18c30.77-6.39,55.9-13.67,61.78-21.11c9.06-11.44-8.15-30.72-11.37-40.34
				c-0.07,8.24-3.38,17.74-9.9,26.05c-9.7,12.26-65.53,25.77-113.5,35.4H134.29z"/>
			<path fill="#EAC19B" d="M61.3,575.18c47.97-9.63,103.8-23.15,113.5-35.4c6.52-8.3,9.83-17.81,9.9-26.05
				c-2.88-9.03,12.19-27.29-1.23-24.06c-8.7,2.08-143.4,39.18-189.63,40.34c-16.84,0.42-21.92,9.47-21.46,20.73
				c1.91,8.59,5.77,17.46,9.29,24.44H61.3z"/>
			<path fill="#EBAE76" d="M-0.48,515.14c2.47,1.67,24.82,27.18,13.23,36.57c-11.6,9.4-33.84-11.58-33.6-25.09
				C-20.6,513.11-11.07,507.96-0.48,515.14z"/>
			<path fill="#EAC19B" d="M384.62,489.67l8.28,7.28c-1.25-3.58-2.26-7.28-3.07-11.1C387.82,487.35,386.06,488.67,384.62,489.67z"/>
			<path fill="#EAC19B" d="M212.51,478.13c-7.59,3.14-15.37,6.84-23.39,11.17L212.51,478.13z"/>
			<path fill="#EBAE76" d="M183.48,575.18c-2.95-8.71-5.38-17.35-7.23-25.84c-2.85-13.18-1.15-26.9,3.97-40.53
				c1.31-1.05,2.6-2.15,4.03-3.38c23.28-15.58,44.49-26.61,63.76-33.95c-17.7,3.5-37.25,9.28-58.89,17.83
				c-1.62,0.88-3.12,1.68-4.65,2.43c-7.9,12.22-12.48,25.27-12.48,38.75c0.03,14.31,1.45,29.38,4.26,44.69H183.48z"/>
			<path fill="#EAC19B" d="M471.75,575.18c-4.04-1.95-10.26-5.16-17.67-9.76l-16.96,9.76H471.75z"/>
			<path fill="#EAC19B" d="M183.48,575.18h223.76c-16.04-25.18-61.12-80.34-159.23-103.7c-19.28,7.35-40.48,18.38-63.76,33.95
				c-1.42,1.23-2.72,2.32-4.03,3.38c-5.12,13.63-6.82,27.35-3.97,40.53C178.1,557.82,180.52,566.47,183.48,575.18z"/>
			<path fill="#E69B79" d="M184.51,491.74c1.51-0.75,3.01-1.57,4.64-2.45c120.51-64.58,191.36,3.45,191.36,3.45s3.58-2.63,9.34-6.89
				c-2.44-11.6-1.1-23.74,1.85-37.53C407.69,374.14,233.04,416.69,184.51,491.74z"/>
			<path fill="#EAE8E8" d="M500.87,575.18c-19.11-14.93-43.56-16.87-45.11-16.11c-9.17,4.47-17.94,9.95-26.37,16.11H500.87z"/>
			<path fill="#EAC19B" d="M382.43,500.14c0,0-0.19-0.06-0.63-0.19C382.17,500.08,382.43,500.14,382.43,500.14z"/>
			<path fill="#E69B79" d="M406.73,575.18h30.39l16.97-9.76c-20.69-12.6-49.78-35.49-61.2-68.47l-8.28-7.28
				c-2.64,1.95-4.14,3.08-4.14,3.08s-61.76-59.26-167.98-14.61l-23.39,11.17C319.92,467.04,385.66,543.63,406.73,575.18z"/>
			<path fill="#E69B79" d="M212.51,478.13c106.21-44.64,167.98,14.61,167.98,14.61s1.5-1.13,4.14-3.08l-45.27-39.88h-67.4
				L212.51,478.13z"/>
			<path fill="#E16B66" d="M248.68,474.13c68.67-3,115.93,23.96,126.53,28.83c-6.14-3.36-22.65-15.56-23.12-49.83
				c-0.29-23.52,19.57-30.86,33.71-32.03c-14.21-5.15-31.18,1.39-39.02,22.07c-3.74,9.83-1.99,25.43,5.84,41.62
				c-18.71-6.84-35.44-8.1-35.44-8.1S276.38,471,248.68,474.13z"/>
			
				<rect x="-92.28" y="530.49" transform="matrix(-0.9909 0.1348 -0.1348 -0.9909 166.4279 1061.3119)" fill="#9C363C" width="279.11" height="11.61"/>
			<g>
				<polygon fill="#F7EDE9" points="168.09,519.25 188.19,551.12 195.09,550.45 199.23,550.07 210.66,549.03 216.27,548.45 
					235.62,546.7 244.63,545.82 265.27,543.89 237.83,513.63 264.71,475.36 179.46,486.96 				"/>
				<polygon fill="#CCCCCC" points="217.69,506.79 218.02,509.21 233.12,479.66 225.7,480.67 				"/>
				<polygon fill="#CCCCCC" points="194.61,508.53 196.72,509.65 206.93,483.22 198.32,484.4 				"/>
				<path fill="#CCCCCC" d="M223.11,529.51l12.5,17.19l9.02-0.88c-6.12-4.53-14.23-10.71-14.93-11.67L223.11,529.51z"/>
				<path fill="#CCCCCC" d="M197.42,527.12l13.24,21.91l5.61-0.58C209.59,541.18,199.26,529.68,197.42,527.12z"/>
				<path fill="#CCCCCC" d="M183.74,531.44l11.36,19.01l4.14-0.38c-3.41-5.16-12.34-18.7-13.02-20.28L183.74,531.44z"/>
			</g>
			<g>
				<path fill="#EBAE76" d="M0.19,545.33c3.4,7.7,3.44,17.69-7.22,18.4c0,0,13.67,3.1,10.84,11.45h5.76c2.21-8.01-11.04-11-11.04-11
					c10.73-0.71,10.68-10.71,7.22-18.4c-1.39-3.23-8.58-4.45-16.48-4.76C-5.25,541.65-0.9,542.96,0.19,545.33z"/>
				<path fill="#EAC19B" d="M3.81,575.18c2.83-8.34-10.84-11.45-10.84-11.45c10.66-0.71,10.61-10.7,7.22-18.4
					c-1.09-2.38-5.45-3.68-10.91-4.32c-0.12,0.01-0.18,0.02-0.25-0.03c-6.6-0.25-13.65,0.09-18.35,0.42
					c-4.73,0.32-9.36,1.79-13.19,4.59c-1.71,1.26-3.19,2.73-3.78,4.33c-1.37,3.9,1.35,16.28,4.95,24.86H3.81z"/>
			</g>
			<path fill="#E99723" d="M173.8,81.5c-10.04-7.99-19.41-41.18,7.59-46.12c17.27-3.16,24.92,14.13,24.92,14.13
				c7.02,13.64-12.72,14.28-12.72,14.28c12.27-15.03-8.17-17.04-8.17-17.04l0,0c-4.54,1.12-7.75,4.32-6.71,11.58
				c3.49,24.33,32.03,14.71,33.03,14.5L190.1,96.34C190.1,96.34,183.85,89.49,173.8,81.5z"/>
			<path fill="#E99723" d="M406.45,211.53c0,0,72.86,1.93,57.6,54.7C448.8,319,342.61,309.75,342.61,309.75l-235.46-22.4
				c0,0-95.54-75.48-1.08-101.11C200.54,160.61,406.45,211.53,406.45,211.53z"/>
			<path fill="#EEB41E" d="M393.01,215c0,0,65.99,1.75,52.18,49.55c-13.82,47.79-110.01,39.41-110.01,39.41L121.9,283.67
				c0,0-86.54-68.37-0.98-91.59C206.48,168.88,393.01,215,393.01,215z"/>
			<g>
				<path fill="#EAC19B" d="M150.79,276.34c0,0-40.54-70.77-65.53-38.78c-25,31.98-12.58,85.05,17.03,90.15
					c29.6,5.1,46.98-5.24,46.98-5.24L150.79,276.34z"/>
				<path fill="#E6895D" d="M89.95,254.83c0,0,23.57,5.39,17.07,15.37c-6.49,9.99-21.47,18.48-0.98,30.57s3.59-0.39,7.03-9.6
					c3.44-9.21,17.11-7.87,14.91-16.82C125.78,265.42,111.28,244.14,89.95,254.83z"/>
			</g>
			<g>
				<path fill="#EAC19B" d="M365.7,296.15c0,0,63.94-50.64,75.26-11.65c11.32,38.99-19.94,83.64-49.32,77.37
					c-29.38-6.27-41.67-22.33-41.67-22.33L365.7,296.15z"/>
				<path fill="#E6895D" d="M430.18,298.78c0,0-23.89-3.76-21.57,7.93c2.32,11.69,13.07,25.13-10.45,28.74
					c-23.52,3.61-3.19-1.69-2.96-11.52c0.23-9.83-12.97-13.67-7.59-21.15C392.98,295.3,414.35,280.93,430.18,298.78z"/>
			</g>
			<path fill="#EBAE76" d="M139.45,280.46c-6.57,36.63-38.73,54.8-9.61,112.96c29.15,58.16,130.75,75.75,203.77,48.71
				c56.26-20.79,59.16-63.33,51.35-97.45c3.73,31.63-4.53,67.21-53.22,86.25c-71.6,27.99-170.55,11.43-198.33-46.67
				c-27.79-58.13,3.81-76.75,10.61-113.62c5.31-28.7-4.34-63.73-8.83-77.8l-7.98,3.79C127.21,196.64,145.99,243.85,139.45,280.46z"
				/>
			<path fill="#EAC19B" d="M144.02,270.64c-6.8,36.87-38.4,55.48-10.61,113.62c27.79,58.11,126.74,74.66,198.33,46.67
				c48.69-19.04,56.95-54.62,53.22-86.25c-2.31-10.18-5.6-19.63-8.73-27.5c-1.95-5.01-2.74-10.35-2.64-15.85
				c0.62-32.25,31.86-69.79,33.4-74.33l-6.67-4.43l-136.73-90.74l-128.4,61.02C139.68,206.91,149.33,241.94,144.02,270.64z"/>
			<path fill="#EEB41E" d="M411.23,205.81l-9.05,4.67c4.05-1.55,6.23-2.47,6.23-2.47S409.51,207.25,411.23,205.81z"/>
			<path fill="#EEB41E" d="M94.66,173.69c41.69,60.48,183.09,71.43,248.97,73.16c35.03-3.73,63.01-9.36,75.14-12.02l0.03-0.02
				c0.95-0.56,48.04-28.48,8.23-70.36c0,0-14.83-12.43-46.09,1.38c0,0,32.97-84.42-46-75.52c7.61-20.57-1.06-36.23-17.63-46.17
				c-34.36-6.19-88.93-10.64-98.35,20.54c0,0-5.65,19.97,3.08,30.85c0,0-58.75-25.25-70.08-3.03c-10.9,21.41-9.6,44.51-9.47,46.17
				c0.01,0.08,0.01,0.1,0.01,0.1c-0.14-0.07-0.25-0.16-0.39-0.23c-3.98-1.25-38.43-11.56-46,12.01
				C93.33,159.18,93.39,167.07,94.66,173.69z"/>
			<path fill="#E99723" d="M334.93,90.29c78.97-8.89,46,75.52,46,75.52c31.25-13.81,46.09-1.38,46.09-1.38
				c39.81,41.89-7.28,69.8-8.23,70.36l9.66-3.23c8.18-4.92,29.27-20.44,24.14-47.1c-6.39-33.36-33.84-34.75-55.96-29.95
				c2.6-6.32,3.77-14.42,2.85-24.79C395.11,80.21,359.58,79.89,334.93,90.29z"/>
			<path fill="#E99723" d="M142.48,138.66c-0.12-1.66-1.43-24.77,9.47-46.17c11.33-22.22,70.08,3.03,70.08,3.03
				c-8.73-10.88-3.08-30.85-3.08-30.85c9.41-31.18,63.99-26.72,98.35-20.54c-20.41-12.28-52.81-15.92-81.56-9.44
				c-31.81,7.14-38.53,30.28-34.9,46.99C138.53,61.57,137.32,108.17,142.48,138.66z"/>
			<path fill="#E99723" d="M94.66,173.69c2.17,11.43,7.91,19.05,8.86,20.26c0.11,0.12,0.15,0.18,0.15,0.18
				c4.19,4.42,8.58,8.25,12.23,11.14l7.07,5.3l0.41,0.29c0.94,0.62,1.47,0.96,1.47,0.96c57.16,42.26,151.12,42.23,218.77,35.03
				C277.75,245.12,136.35,234.16,94.66,173.69z"/>
			<path fill="#E99723" d="M371.13,158.57c0,0,46.55,29.03,4.82,59.42C375.95,218,444.78,192.43,371.13,158.57z"/>
			<path fill="#E99723" d="M173.59,115.05c0,0-53.31,42.86-20.59,80.25C152.99,195.3,84.29,164.95,173.59,115.05z"/>
			<g>
				<path fill="#8B491F" d="M201.93,389.18c0.97,2.34,2.24,4.6,3.84,6.97c6.77,11.78,18.22,23.01,33.67,23.79
					c10.61,0.55,21.71-0.76,31.75-6.89c-0.02,0.19-0.02,0.19,0.18-0.03c7.75-4.64,15.15-12.13,20.63-23.29c0,0,6.41-8.64-3.33-10.71
					c-1.59-0.44-3.8-0.59-6.64-0.45c-18.31,0.79-44.15,0.17-61.75-7.63c-10.92-4.64-17.81-2.44-20.04,3.19
					C198.63,377.84,199.25,383.46,201.93,389.18z"/>
				<path fill="#FFFFFF" d="M200.25,374.11c17.48,17.69,44.36,24.83,65.25,18.85c12.21-3.28,19.22-9.1,23.17-13.95
					c-1.59-0.44-3.8-0.59-6.64-0.45c-18.31,0.79-44.15,0.17-61.75-7.63C209.36,366.29,202.47,368.48,200.25,374.11z"/>
				<path fill="#F16162" d="M205.77,396.15c6.77,11.78,18.22,23.01,33.67,23.79c10.61,0.55,21.71-0.76,31.75-6.89
					C259.35,405.7,230.56,391.26,205.77,396.15z"/>
			</g>
			<path fill="#F08F84" d="M293.06,362.19c0.49,7.71,15.58,13.35,33.7,12.6c18.12-0.76,32.41-7.62,31.92-15.33
				c-0.49-7.71-15.58-13.35-33.7-12.59C306.86,347.61,292.57,354.48,293.06,362.19z"/>
			<path fill="#F08F84" d="M205.1,353.45c-2.82,7.19-18.91,7.97-35.93,1.74c-17.03-6.23-28.55-17.12-25.74-24.31
				c2.81-7.2,18.9-7.97,35.93-1.74C196.4,335.37,207.92,346.25,205.1,353.45z"/>
			<path fill="#E6875A" d="M259.75,269.13c2.14,2.53,9.32,41.69-5.06,52.12c-14.38,10.42-27.52,2.58-29.1,12.86
				c-1.58,10.28,14.01,20.85,14.01,20.85s-26.85-11.78-19.7-24.69c7.52-13.61,24.84-5.63,33.79-13.5
				C260.2,311.04,259.75,269.13,259.75,269.13z"/>
			<g>
				<path fill="#7A433B" d="M-37.89,575.18h16.1l19.13-5.47c-19-24.98-15.48-132.72,33.1-188.18c48.58-55.46-2.05-76.2-24.77-63.86
					c-19.88,10.8,4.3,28.14,4.3,28.14s3.49-3.13-0.25-6.62c-2.88-2.69-8.84-9.63-5.52-12.21c10.43-8.12,65.17,3.65,6.38,66.75
					C-50.55,459.33-40.97,553.92-37.89,575.18z"/>
				<path fill="#7A433B" d="M3.14,338.46c0,0,18.95-10,19.28,1.71c0.44,15.48-13.5,5.08-13.5,5.08L3.14,338.46z"/>
			</g>
			<polygon fill="#9C363C" points="31.81,353.95 48.44,356.23 45.92,364.46 30.44,361.56 			"/>
			<path fill="#9C363C" d="M50.82,349.96c-0.59,0-18.42,0-18.42,0v1.96l16.37,3.06L50.82,349.96z"/>
			<path fill="#9C363C" d="M269.14,474.42C266.01,472.96,32.4,358.98,32.4,358.98v2.91l231.13,119.96L269.14,474.42z"/>
			<g>
				<path fill="#EBAE76" d="M222.03,488.65c3.81,7.62,20.79,10.97,25.88,11.74c0.92,0.2,1.42,0.24,1.42,0.24s-0.88,0.52-2.05,1.49
					c-3,2.3-7.85,7.22-6.43,13.43c2.14,9.12,7.3,9.6,9.67,9.27c-2.21,0.74-6.41,3.24-5.78,11.65c0.53,6.78,5.32,9.55,8.87,10.63
					l0.06,0.01c0.75-0.22,1.45-0.45,2.08-0.71c-10.22-8.81,0.79-21.76,0.79-21.76s-7.68,0.2-7.65-11.79
					c0.03-12.05,8.97-13.33,8.97-13.33s-25.11-3.11-24.46-16.25c0.24-5.27,6.14-8.55,13.33-10.65c-7.85,0.42-14.65,1.58-19.11,3.83
					c-1.86,0.88-3.32,2.04-4.26,3.38c-0.47,0.73-0.88,1.42-1.22,2.11C220.94,484.5,221.11,486.71,222.03,488.65z"/>
				<path fill="#EBAE76" d="M257.62,547.84c0,0-6.15,16.31,15.75,16.48c0.96,0.01,1.72,0.05,2.36,0.06
					c1.31-0.42,2.42-0.82,3.16-1.24c0.57-0.27,3.45-1.44,3.9-1.73c6.54-4.17,8.99-3.9,14.69-5.68c5.17-1.64,14.3-3.84,25.16-9.26
					c25.18-12.66,72.41,4.78,95.44,0.01c5.54-0.73,10.86-3.37,15.59-8.63c37.12-40.61-45.92-114.84-45.92-114.84
					c-1.56-1.17-1.35-1.4-3.16-1.66c21.44,24.32,54.19,70.19,27.97,98.98c-4.78,5.19-10.11,7.89-15.64,8.56
					c-14.91,3.13-39.88-3.03-62.48-4.44l-0.01,0.06C333.25,524.39,275.07,573.73,257.62,547.84z"/>
				<path fill="#EAC19B" d="M233.4,483.27c-0.66,13.14,24.46,16.25,24.46,16.25s-8.93,1.28-8.97,13.33
					c-0.03,11.99,7.65,11.79,7.65,11.79s-11,12.95-0.79,21.76c0.83-0.27,1.47-0.58,1.98-0.85c0.57-0.27,3.45-1.43,3.9-1.73
					c6.54-4.17,8.99-3.9,14.69-5.68c5.17-1.64,14.3-3.84,25.16-9.26c25.16-12.6,72.4,4.84,95.44,0.01
					c5.53-0.67,10.86-3.37,15.64-8.56c26.22-28.79-6.53-74.66-27.97-98.98c-0.49-0.1-0.98-0.21-1.49-0.25
					c-14.19,0.34-30.4,5.95-31.49,29.44c-1.55,34.24,14.21,47.39,20.15,51.11c-10.3-5.49-56.31-27.99-125.04-29.03
					C239.54,474.72,233.64,478,233.4,483.27z"/>
			</g>
			<g>
				<path fill="#C36149" d="M334.75,349.05c-0.25,1.66,0.88,3.21,2.53,3.47c1.66,0.26,3.21-0.88,3.47-2.53
					c0.26-1.66-0.87-3.21-2.53-3.47C336.56,346.26,335.01,347.39,334.75,349.05z"/>
				<path fill="#C36149" d="M324.01,358.13c-0.18,1.12,0.59,2.17,1.72,2.35c1.12,0.18,2.17-0.59,2.35-1.72
					c0.18-1.12-0.6-2.17-1.72-2.35C325.24,356.23,324.18,357,324.01,358.13z"/>
				<path fill="#C36149" d="M310.1,350.25c-0.25,1.6,0.84,3.1,2.44,3.34c1.6,0.25,3.09-0.84,3.34-2.44c0.25-1.6-0.84-3.1-2.44-3.34
					C311.84,347.56,310.34,348.66,310.1,350.25z"/>
				<path fill="#C36149" d="M312.29,363.98c-0.14,0.86,0.45,1.66,1.31,1.8c0.86,0.14,1.66-0.45,1.79-1.31
					c0.14-0.86-0.45-1.66-1.31-1.8C313.22,362.54,312.42,363.12,312.29,363.98z"/>
				<path fill="#C36149" d="M308.37,373.29c-0.21,1.33,0.7,2.58,2.04,2.79c1.33,0.21,2.58-0.71,2.79-2.03
					c0.2-1.33-0.71-2.58-2.04-2.79C309.82,371.05,308.58,371.96,308.37,373.29z"/>
				<path fill="#C36149" d="M324.78,376.39c-0.29,1.9,1,3.67,2.9,3.96c1.9,0.3,3.67-1,3.96-2.89c0.3-1.9-1-3.67-2.9-3.97
					C326.85,373.2,325.08,374.5,324.78,376.39z"/>
				<path fill="#C36149" d="M346.03,369.24c-0.14,0.86,0.45,1.66,1.31,1.8c0.86,0.14,1.66-0.45,1.8-1.31
					c0.13-0.86-0.45-1.66-1.31-1.8C346.97,367.79,346.17,368.38,346.03,369.24z"/>
				<path fill="#C36149" d="M293.77,364.17c-0.19,1.18,0.62,2.29,1.8,2.48c1.18,0.18,2.29-0.63,2.48-1.81
					c0.18-1.18-0.63-2.29-1.81-2.47C295.07,362.17,293.96,362.98,293.77,364.17z"/>
			</g>
			<g>
				<path fill="#C36149" d="M157.12,337.21c-0.26,1.66-1.81,2.79-3.47,2.53c-1.66-0.26-2.79-1.81-2.53-3.47
					c0.26-1.66,1.81-2.79,3.47-2.53C156.25,334,157.38,335.55,157.12,337.21z"/>
				<path fill="#C36149" d="M171.33,331.74c-0.18,1.12-1.23,1.89-2.35,1.71c-1.12-0.18-1.89-1.23-1.72-2.35
					c0.18-1.12,1.23-1.9,2.36-1.72S171.5,330.62,171.33,331.74z"/>
				<path fill="#C36149" d="M193.49,339.8c-0.25,1.6-1.75,2.69-3.34,2.45c-1.6-0.25-2.69-1.75-2.44-3.35
					c0.25-1.59,1.75-2.69,3.34-2.44C192.64,336.71,193.74,338.2,193.49,339.8z"/>
				<path fill="#C36149" d="M183.95,350.06c-0.13,0.86-0.93,1.44-1.79,1.31c-0.86-0.14-1.45-0.94-1.31-1.8
					c0.13-0.86,0.94-1.44,1.79-1.31C183.5,348.4,184.09,349.2,183.95,350.06z"/>
				<path fill="#C36149" d="M184.85,360.11c-0.21,1.33-1.45,2.24-2.79,2.03c-1.33-0.21-2.24-1.45-2.03-2.79
					c0.2-1.33,1.45-2.24,2.79-2.03C184.15,357.54,185.06,358.78,184.85,360.11z"/>
				<path fill="#C36149" d="M166.56,346.54c-0.29,1.89-2.06,3.19-3.96,2.9c-1.89-0.3-3.19-2.07-2.9-3.97
					c0.3-1.89,2.07-3.19,3.97-2.89C165.56,342.87,166.86,344.64,166.56,346.54z"/>
				<path fill="#C36149" d="M162.79,356.67c-0.13,0.86-0.93,1.45-1.79,1.31c-0.86-0.13-1.45-0.93-1.31-1.79
					c0.13-0.86,0.94-1.45,1.79-1.31C162.33,355.01,162.92,355.82,162.79,356.67z"/>
				<path fill="#C36149" d="M201.53,355.87c-0.18,1.18-1.29,1.99-2.47,1.81c-1.18-0.19-1.99-1.3-1.81-2.48
					c0.19-1.18,1.29-1.99,2.48-1.8C200.91,353.58,201.72,354.69,201.53,355.87z"/>
			</g>
			<g>
				<g>
					<polygon fill="#EBAE76" points="356.64,291.91 338.21,323.22 290.44,307.95 297.17,271.49 315.07,266.16 333.18,268.98 
						340.34,272.93 					"/>
					<path fill="#E99723" d="M356.64,291.91c0.81,3.69-21.51-30.77-59.62-17.7l0.69-12.98
						C297.71,261.22,347.59,250.88,356.64,291.91z"/>
					<g>
						<path fill="#FEEEE9" d="M291.75,305.01c-2.73,13.47,6.02,26.85,19.55,29.88c13.53,3.03,26.71-5.43,29.44-18.89
							c2.73-13.46-6.02-26.84-19.55-29.88C307.67,283.08,294.48,291.54,291.75,305.01z"/>
						<path fill="#2D7F9D" d="M292.89,309.29c-1.96,9.66,4.32,19.26,14.02,21.43c9.71,2.18,19.16-3.89,21.12-13.55
							c1.96-9.66-4.32-19.26-14.02-21.44C304.3,293.56,294.85,299.63,292.89,309.29z"/>
						<path fill="#1E5063" d="M304.75,313.53c-0.61,3.02,1.35,6.02,4.38,6.69c3.03,0.68,5.99-1.21,6.6-4.23
							c0.61-3.02-1.35-6.02-4.38-6.7C308.31,308.61,305.36,310.51,304.75,313.53z"/>
						<path opacity="0.65" fill="#FEEEE9" d="M315.09,305.44c-0.82,4.06,2.59,8.27,7.62,9.4c5.03,1.13,9.78-1.25,10.61-5.32
							s-2.59-8.28-7.62-9.4C320.66,299,315.91,301.37,315.09,305.44z"/>
					</g>
				</g>
				<path fill="#EC974B" d="M341.93,312.09c0,0-22.15-24.27-49.85-8.32c0,0,4.38-26.39,26.09-24.58
					C335.17,280.61,346.93,292.96,341.93,312.09z"/>
			</g>
			<g>
				<g>
					<polygon fill="#EBAE76" points="163.7,265.55 171.73,300.99 221.88,300.99 226.56,264.2 211.13,253.68 193.02,250.86 
						185,252.44 					"/>
					<path fill="#E99723" d="M163.7,265.55c-1.9,3.27,29.85-22.77,62.17,1.28l3.3-12.58C229.17,254.26,184.81,229.23,163.7,265.55z"
						/>
					<g>
						<path fill="#FEEEE9" d="M221.53,297.78c-1.49,13.66-13.9,23.74-27.71,22.52c-13.81-1.23-23.79-13.3-22.3-26.96
							c1.49-13.66,13.9-23.74,27.71-22.52C213.04,272.05,223.02,284.12,221.53,297.78z"/>
						<path fill="#2D7F9D" d="M209.85,300.25c-1.07,9.8-9.97,17.04-19.88,16.15c-9.91-0.88-17.07-9.54-16-19.34
							c1.07-9.8,9.97-17.03,19.88-16.15C203.76,281.79,210.93,290.45,209.85,300.25z"/>
						<path fill="#1E5063" d="M197.27,300.68c-0.34,3.06-3.12,5.32-6.21,5.05c-3.1-0.28-5.34-2.98-5-6.04
							c0.33-3.06,3.12-5.32,6.21-5.04C195.37,294.91,197.6,297.62,197.27,300.68z"/>
						<path opacity="0.65" fill="#FEEEE9" d="M218.01,293.5c-0.45,4.12-4.99,7.1-10.12,6.64c-5.14-0.46-8.94-4.17-8.49-8.3
							c0.45-4.12,4.99-7.1,10.12-6.64C214.66,285.66,218.46,289.37,218.01,293.5z"/>
					</g>
				</g>
				<path fill="#EC974B" d="M171.58,289.26c0,0,28.48-16.38,50.02,7.25c0,0,3.86-26.48-17.37-31.35
					C187.59,261.33,172.63,269.52,171.58,289.26z"/>
			</g>
			<g>
				<g>
					<path fill="#D72A4F" d="M-103.27,575.18c-12.47-7.28-22.76-16.82-22.76-16.82s20.87-36.23,40.37-39.04
						c-23.62-5.05-51.94,44.12-51.94,44.12s6.01,5.56,14.57,11.74H-103.27z"/>
					<path fill="#E74662" d="M-65.35,575.18c2.45-14.79-20.31-20.28-20.31-20.28s24.05-15.06,9.59-29.96
						c-3.04-3.13-6.26-4.91-9.59-5.62c-19.5,2.8-40.37,39.04-40.37,39.04s10.29,9.54,22.76,16.82H-65.35z"/>
					<path opacity="0.53" fill="#FFFFFF" d="M-81.97,529.49c-3.02-0.57-6.39,2.1-7.53,5.97c-1.14,3.87,0.39,7.47,3.41,8.04
						c3.02,0.57,6.39-2.1,7.53-5.97C-77.43,533.65-78.96,530.05-81.97,529.49z"/>
				</g>
			</g>
			<g>
				<path fill="#E99723" d="M374.85,121.03c-13.07,13.34-15.31,24.87-13.35,33.87c1.2-6.91,5.13-14.8,13.59-23.46
					c32.93-33.64,77.61-2.93,83.19,26.59C463.33,126.32,411.73,83.37,374.85,121.03z"/>
				<path fill="#EEB41E" d="M375.09,131.44c-8.47,8.65-12.39,16.54-13.59,23.46l-0.01,0.03c2.9,13.29,14.95,21.05,14.95,21.05
					c0.8-6.89,37.16-66.61,59.21-32.53c5.52,8.52,6.6,15.83,5.36,21.91c-3.06,14.76-19.87,22.29-20.39,22.55
					c0.46,0.23,6.48,2.9,14.46-0.23c6.27-2.42,13.74-8.45,20.72-22.02c1.25-2.43,2.06-5,2.49-7.63
					C452.7,128.51,408.02,97.81,375.09,131.44z"/>
			</g>
		</g>
	</g>
</g>
</svg>
