<?xml version="1.0" encoding="utf-8"?>
<!-- Generator: Adobe Illustrator 25.2.3, SVG Export Plug-In . SVG Version: 6.00 Build 0)  -->
<svg version="1.1" id="Layer_1" xmlns="http://www.w3.org/2000/svg" xmlns:xlink="http://www.w3.org/1999/xlink" x="0px" y="0px"
	 viewBox="0 0 576 576" enable-background="new 0 0 576 576" xml:space="preserve">
<g>
	<g>
		<defs>
			<path id="SVGID_1_" d="M576,287.35c0,158.7-128.65,287.35-287.35,287.35C129.95,574.71,1.3,446.05,1.3,287.35
				C1.3,128.65,129.95,0,288.65,0C447.35,0,576,128.65,576,287.35z"/>
		</defs>
		<use xlink:href="#SVGID_1_"  overflow="visible" fill="#F9E3D9"/>
		<clipPath id="SVGID_2_">
			<use xlink:href="#SVGID_1_"  overflow="visible"/>
		</clipPath>
		<g clip-path="url(#SVGID_2_)">
			<path fill="#EF3D23" d="M241.98,655.8h-37c-11.93-16.95-20.46-32.65-21.23-43.65c-0.05,2.75-0.27,19.94-2.52,43.65H57.83
				c10.79-31.93,22.65-61.07,32.45-77.87c1.12-1.93,2.87-3.06,4.27-4.2c38.99-31.78,170.3-97.53,182.59-62.76
				c3.16,9,38.13,34.15-25.76,129.81C248.08,645.73,245.04,650.77,241.98,655.8z"/>
			<path fill="#EF3D23" d="M536.01,655.8h-6.13c-3.22-14.79-4.88-25.06-5.2-27.1c0.52,7.01-1.87,16.44-6.02,27.1h-364.7
				c-0.37-0.74-0.58-1.14-0.58-1.14c-0.6,0.42-1.23,0.74-1.82,1.14h-9.78c-20.14-54.99-41.14-87.58-41.14-87.58
				s28.77-24.4,85.01-59.63c0.29-0.14,0.5-0.32,0.77-0.46c39.89-24.07,186.46-47.54,272.96-29.53
				c92.19,19.17,152.73,102.59,152.73,102.59C603.49,582.47,515.76,569.07,536.01,655.8z"/>
			<path fill="#EF3D23" d="M521.38,655.8c-1.89-21.49-2.1-36.85-2.14-39.43c-0.7,10.08-7.95,24.12-18.32,39.43h-42.54
				c-2.25-3.6-4.39-7.25-6.77-10.8c-63.89-95.66-28.92-120.82-25.76-129.81c12.29-34.78,143.6,30.98,182.59,62.76
				c1.4,1.14,3.14,2.27,4.27,4.2c9.37,16.05,20.6,43.4,30.99,73.66H521.38z"/>
			<path fill="#8D3628" d="M266.1,444.02c0.07,0.67,0.14,1.35,0.22,1.98c0.05,0.56,0.06,1.05,0.08,1.55
				c-0.03-0.45-0.05-0.94-0.14-1.51C266.24,445.37,266.17,444.7,266.1,444.02z"/>
			<path fill="#7B2F22" d="M459.39,478.57c0,0-4.04,5.05-11.05,13.07c-3.77,4.32-8.33,9.48-13.65,15.17
				c-3.08,3.33-6.39,6.85-9.89,10.48c-8.19,8.48-17.47,17.68-27.47,26.76c-1.82,1.69-3.68,3.31-5.54,4.98
				c-1.72,1.55-3.44,3.05-5.26,4.57c-2.16,1.91-4.4,3.73-6.6,5.58c-2.47,2.03-4.99,4.05-7.57,6.05c-1.21,0.94-2.42,1.89-3.69,2.81
				c-1.85,1.45-3.75,2.84-5.58,4.21c-11.88,8.62-23.97,16.08-35.84,21.44c-1.15,0.58-2.33,1.04-3.52,1.55
				c-7.51,3.18-14.91,5.47-22.05,6.53c-1.04,0.18-2.01,0.32-3.01,0.4c-2.04,0.25-4.04,0.35-6,0.36c-0.54,0-1.09,0-1.69-0.02
				c-0.21-0.01-0.43-0.02-0.64-0.03c-0.81-0.03-1.62-0.05-2.42-0.13c-1.93-0.09-3.86-0.41-5.75-0.81c-0.51-0.1-1.03-0.2-1.53-0.35
				c-1.18-0.25-2.4-0.56-3.53-0.96c-2.28-0.75-4.44-1.56-6.51-2.46c-0.77-0.34-1.54-0.68-2.29-1.07c-0.96-0.45-1.86-0.89-2.7-1.36
				c-7-3.7-12.76-8.28-17.43-13.4c-0.61-0.68-1.17-1.34-1.69-1.99c-0.58-0.62-1.07-1.31-1.62-2.02c-0.51-0.64-1.01-1.34-1.51-2.04
				c-1.96-2.72-3.64-5.63-5.14-8.6c-0.37-0.77-0.75-1.48-1.07-2.23c-0.09-0.08-0.16-0.21-0.12-0.31c-0.71-1.42-1.27-2.84-1.82-4.26
				c-0.09-0.25-0.19-0.45-0.25-0.62c-0.66-1.78-1.25-3.6-1.8-5.4c-0.78-2.63-1.45-5.29-1.97-7.9c-0.26-1.12-0.44-2.16-0.66-3.26
				c-0.08-0.46-0.14-0.97-0.22-1.43c-0.24-1.55-0.48-3.09-0.62-4.61c-0.28-2.33-0.46-4.61-0.6-6.84c-0.06-1.43-0.11-2.87-0.14-4.25
				c-0.03-0.07-0.02-0.11,0-0.16c-0.09-1.72-0.07-3.4-0.05-5.08c0.22-17.12,3.47-29.99,3.47-29.99s11.62-1.44,21.33-9.74
				c1.94-1.71,3.78-3.66,5.49-5.87c0.46-0.62,0.92-1.24,1.35-1.93c0.4-0.59,0.73-1.15,1.09-1.8l0.01-0.05
				c70.54-9.02,105.81-67.83,131.05-104.54c-0.03,0.81-0.02,1.68-0.01,2.56c-0.01,3.11,0.06,6.13,0.12,9.15
				c0.08,2.97,0.16,5.94,0.31,8.88c0.05,1.43,0.11,2.87,0.22,4.32c0.3,5.49,0.66,10.78,1.23,15.76c0.3,2.6,0.62,5.15,0.99,7.55
				l0.03,0.07c0.53,3.65,1.13,7.05,1.87,10.22c0.09,0.41,0.19,0.82,0.29,1.18c0.18,0.87,0.4,1.76,0.64,2.59
				c0.11,0.36,0.17,0.71,0.29,1.02c0.12,0.47,0.22,0.88,0.37,1.31c0.1,0.36,0.22,0.72,0.33,1.08c0.38,1.26,0.84,2.44,1.26,3.55
				c0.06,0.18,0.16,0.37,0.22,0.55c0.66,1.62,1.36,3.09,2.1,4.4c0.21,0.39,0.42,0.79,0.67,1.19c0.33,0.53,0.71,1.08,1.05,1.57
				c0.62,0.85,1.26,1.59,1.93,2.28c2.63,2.65,5.22,5.08,7.78,7.27c1.07,0.98,2.17,1.85,3.22,2.72c0.73,0.66,1.49,1.21,2.23,1.82
				c5.1,4.06,9.95,7.32,14.38,9.98c5.07,3.06,9.64,5.26,13.44,6.79C454.96,477.88,459.39,478.57,459.39,478.57z"/>
			<path fill="#7B2F22" d="M228.89,520.91c0,1.7-0.04,3.37,0.04,5.07v0.16c0.05,1.37,0.09,2.82,0.17,4.24
				c0.12,2.24,0.29,4.53,0.58,6.85c0.16,1.54,0.37,3.07,0.62,4.61c0.08,0.46,0.16,0.96,0.21,1.42c0.24,1.12,0.41,2.16,0.66,3.28
				c0.54,2.61,1.21,5.27,1.99,7.89c0.54,1.79,1.13,3.62,1.79,5.4c0.04,0.16,0.16,0.37,0.25,0.62c0.54,1.41,1.08,2.82,1.83,4.24
				c-0.04,0.12,0.04,0.25,0.12,0.33c0.29,0.75,0.71,1.45,1.04,2.24c1.54,2.95,3.2,5.86,5.16,8.6c0.5,0.67,1,1.38,1.54,2.04
				c0.54,0.71,1.04,1.42,1.62,2c0.5,0.66,1.08,1.33,1.66,1.99c4.7,5.11,10.43,9.72,17.45,13.42c0.83,0.46,1.74,0.92,2.7,1.37
				c0.75,0.38,1.49,0.71,2.29,1.08c2.08,0.88,4.24,1.7,6.52,2.45c1.12,0.37,2.33,0.71,3.53,0.96c0.5,0.17,1,0.25,1.5,0.33
				c1.91,0.41,3.82,0.75,5.77,0.83c0.79,0.08,1.62,0.12,2.41,0.12c0.2,0,0.41,0.04,0.66,0.04h1.66c1.95,0,3.94-0.09,6.02-0.33
				c1-0.08,1.95-0.25,2.99-0.41c7.15-1.04,14.54-3.32,22.06-6.52c1.21-0.5,2.37-0.96,3.53-1.54c11.88-5.36,23.93-12.83,35.81-21.44
				c1.91-1.42,3.74-2.82,5.61-4.2c1.25-0.96,2.45-1.87,3.7-2.82c2.57-1.99,5.06-4.03,7.56-6.07c2.2-1.83,4.44-3.66,6.6-5.56
				c1.79-1.54,3.53-3.03,5.23-4.57c1.87-1.66,3.74-3.28,5.57-4.99c9.97-9.1,19.27-18.28,27.46-26.76
				c3.07-17.45,3.58-33.98,0.79-48.98c-0.75-1.58-2.62-5.48-5.78-10.3c-0.7-0.58-1.49-1.17-2.2-1.83c-1.04-0.83-2.16-1.75-3.24-2.71
				c-2.54-2.2-5.16-4.61-7.77-7.27c-0.67-0.71-1.29-1.42-1.91-2.29c-0.37-0.46-0.75-1.04-1.08-1.58c-0.25-0.37-0.45-0.79-0.66-1.17
				c-0.79-1.32-1.45-2.78-2.12-4.4c-0.04-0.16-0.12-0.37-0.2-0.54c-0.42-1.12-0.88-2.33-1.25-3.58c-0.12-0.37-0.25-0.7-0.33-1.07
				c-0.17-0.42-0.25-0.83-0.38-1.33c-0.12-0.29-0.16-0.62-0.29-1c-0.25-0.83-0.46-1.7-0.62-2.57c-0.12-0.37-0.21-0.79-0.29-1.2
				c-0.75-3.12-1.38-6.53-1.87-10.14c-33.48,35.93-107.97,106.77-152.17,79.72C238.61,502.34,233.62,510.94,228.89,520.91z"/>
			<path fill="#7B2F22" d="M459.39,478.57c0,0-4.04,5.05-11.05,13.07c0.1-5.75-0.12-11.33-0.68-16.84
				C454.96,477.88,459.39,478.57,459.39,478.57z"/>
			<path fill="#642619" d="M392.7,366.99c-25.24,36.71-60.52,95.52-131.05,104.54c0.9-1.53,1.66-3.15,2.31-4.92
				c0.31-0.84,0.62-1.67,0.89-2.57c0.6-2,1.09-4.15,1.42-6.5c0.41-2.82,0.45-6.19,0.14-10c-0.02-0.49-0.03-0.99-0.08-1.55
				c-0.08-0.63-0.15-1.3-0.22-1.98c0-0.16-0.01-0.33-0.03-0.45c-0.07-0.84-0.2-1.7-0.32-2.55c-0.06-0.35-0.12-0.69-0.16-1.09
				c-0.97-7.44-1.68-16.27-2.33-25.64c0.6-0.53,1.09-1.09,1.58-1.6c0.18-0.22,0.4-0.42,0.52-0.66
				c31.19-10.57,63.31-27.63,87.44-51.47c7.57-7.53,12.97-23.73,17.32-39.71c2.5,0.92,5.19,1.41,7.86,1.4L391.11,358
				c0,0,0.62-1.12,1.65-3.1c-0.04,1.57-0.03,3.15-0.01,4.69C392.68,362.03,392.68,364.54,392.7,366.99z"/>
			<path fill="#642619" d="M237.9,489.9c44.2,27.04,138.82,10.91,157.7-74.55c0,0,0-0.04,0-0.09l-0.04-0.04
				c-0.37-2.41-0.71-4.99-1-7.56c-0.58-4.99-0.92-10.26-1.24-15.74c-0.09-1.45-0.12-2.91-0.21-4.32c-0.12-2.95-0.21-5.94-0.29-8.89
				c-0.08-3.03-0.12-6.07-0.12-9.14c0-0.87-0.04-1.74,0-2.57c-25.26,36.73-60.53,95.51-131.07,104.52v0.09
				c-0.33,0.58-0.71,1.21-1.08,1.79c-0.41,0.66-0.91,1.28-1.37,1.91c-1.7,2.24-3.53,4.19-5.48,5.9
				C250.45,485.19,244.65,487.13,237.9,489.9z"/>
			<g>
				<path fill="#78CCCD" d="M199.71,269.21c-24.99,10.11-75.87,43.94-109.49,41.63c-33.62-2.3-41.44-18.15-33.24-30.17
					c8.2-12.02,98.72-78.13,119.6-82.22C197.48,194.35,199.71,269.21,199.71,269.21z"/>
				<path fill="#00AEC4" d="M202.44,276.48c-24.99,10.11-74.15,37.21-107.77,34.91c-33.62-2.31-43.16-11.41-34.96-23.44
					c8.2-12.02,98.72-78.13,119.61-82.22S202.44,276.48,202.44,276.48z"/>
				<g>
					<path fill="#1E1A16" d="M411.57,270.03c0-2.93,6.77-116.63,6.77-116.63s-10.06-40.61-43.18-61.37
						c-22.54-14.12-74.21-24.59-112.27-18.18c-93.99,15.82-107.04,107.1-107.04,107.1l12.5,95.13L411.57,270.03z"/>
					<path fill="#8D3628" d="M404.25,188.56c2.66,6.03,18.19,164.1-14.54,203.17c-32.72,39.07-39.09,58.61-68.18,64.86
						c-29.09,6.26-79.09,9.38-88.18-1.56c-9.09-10.94-39.09-47.67-45.45-58.61c-6.36-10.94-30-147.69-18.18-187.54
						c11.82-39.86,57.27-71.9,112.72-65.65C337.89,149.5,394.25,165.9,404.25,188.56z"/>
					<path fill="#1E1A16" d="M411.07,259.67c0,0-6.58,15.77-11.14,2.14c-5.78-17.32-10.8-65.15-22.5-67.77
						c-20.91-4.69-150.91-26.57-182.73,1.57s-28.18,71.11-28.18,71.11l-1.81-82.05l50.9-40.63l73.64-21.88c0,0,67.27,17.19,70,17.97
						c2.73,0.78,49.99,33.6,49.99,33.6l1.82,61.73V259.67z"/>
				</g>
				<g>
					<path fill="#78CCCD" d="M161.98,232.95c0,0,40.57-35.39,109.53-49.06c11.44-2.28,22.62-4.68,33.43-6.99
						c8.58-15.99,17.16-43.96,7.04-84.24c-12.07-47.95-46.91-60.76-66.62-64.17c-8.16,2.54-15.28,5.83-20.61,10.06
						c0,0-60.7,32.1-81.32,57.59C122.77,121.59,148.41,209.57,161.98,232.95z"/>
					<path fill="#3F5962" d="M418.69,137.68c-1.54-0.03-60.86-18.97-97.9-1.51l-1.05,28.98c0,0,67.77-12.93,90.57,1.72
						L418.69,137.68z"/>
					<path fill="#00AEC4" d="M311.97,92.65c10.13,40.28,1.55,68.25-7.04,84.24c54.24-11.61,98.55-21,114.79-0.28l1.08-13.71
						c-0.64-5.35-0.92-60.31-5.45-64.24c-4.54-3.9-69.93-77.18-98.44-77.84c-20.79-0.48-49.76,0.88-71.57,7.66
						C265.06,31.89,299.9,44.7,311.97,92.65z M324.16,107.63c1.02-10.67,2.9-9.09,12.4-19.56c9.49-10.48,39.05-4.06,54.77-0.63
						c15.72,3.41,17.52,25.59,19.7,31.37c2.18,5.77-4.06,45.34-4.87,44.54c-13.57-13.29-79.02-1.07-79.02-1.07
						S323.13,118.29,324.16,107.63z"/>
				</g>
				<path fill="#FFFFFF" d="M301.78,265.55c0,0-0.09,20.22,21.48,22.56c21.56,2.35,36.71-10.17,41.66-25.05L301.78,265.55z"/>
				<g>
					<path fill="#66292E" d="M340.24,274.6c0.02,7.65-5.75,13.88-12.89,13.89c-7.14,0.01-12.95-6.18-12.96-13.83
						c-0.02-7.66,5.75-13.88,12.89-13.89C334.42,260.75,340.23,266.94,340.24,274.6z"/>
					<path fill="#29110C" d="M333.85,274.61c0.01,3.87-2.91,7.02-6.52,7.02c-3.62,0.01-6.54-3.13-6.56-6.99
						c-0.01-3.87,2.91-7.02,6.52-7.02C330.9,267.61,333.84,270.74,333.85,274.61z"/>
				</g>
				<path fill="#7E3022" d="M301.78,265.55c0,0-0.51-31.68,32.7-26.89c31.9,4.6,30.43,24.4,30.43,24.4S310.98,264.5,301.78,265.55z"
					/>
				<polygon fill="#1D1D1B" points="295.88,261.47 301.78,265.55 364.91,263.07 364.79,261.06 				"/>
				<path fill="#1E1A16" d="M300.65,211.38c0,0-2.02,4.58-2.09,5.18c-0.35,3.09-0.92,12.72,5.52,15.59
					c7.69,3.44,50.73-8.98,66.06,5.24c15.32,14.22,6.03-10.48,1.19-14.71C366.5,218.46,302.73,203.11,300.65,211.38z"/>
				<path fill="#FFFFFF" d="M252.68,266.45c0,0,0.09,20.22-21.48,22.57c-21.56,2.35-36.71-10.17-41.66-25.05L252.68,266.45z"/>
				<g>
					<path fill="#66292E" d="M207.63,275.5c-0.01,7.66,5.76,13.88,12.9,13.9c7.14,0.01,12.94-6.18,12.96-13.83
						c0.02-7.66-5.76-13.88-12.9-13.9C213.45,261.66,207.65,267.85,207.63,275.5z"/>
					<path fill="#29110C" d="M214.02,275.52c-0.01,3.87,2.91,7.02,6.52,7.02c3.61,0.01,6.54-3.13,6.55-6.99
						c0.01-3.87-2.91-7.02-6.52-7.03C216.96,268.52,214.03,271.65,214.02,275.52z"/>
				</g>
				<path fill="#7E3022" d="M252.68,266.45c0,0,0.51-31.68-32.7-26.88c-31.89,4.6-30.43,24.4-30.43,24.4
					S243.48,265.41,252.68,266.45z"/>
				<polygon fill="#1D1D1B" points="258.58,262.38 252.68,266.45 189.54,263.97 189.67,261.97 				"/>
				<path fill="#1E1A16" d="M253.81,212.29c0,0,2.02,4.58,2.1,5.18c0.35,3.09,0.92,12.72-5.52,15.59
					c-7.7,3.44-50.74-8.98-66.06,5.23c-15.33,14.22-6.03-10.48-1.2-14.7C187.96,219.36,251.73,204.02,253.81,212.29z"/>
				<g>
					<path fill="#5D2317" d="M252.22,301.47c-2.92,5.31-13.86,30.85-9.03,37.81c4.83,6.96,26.75,5.57,40.11,1.66
						c13.37-3.92,13.93,3.73,17.21-2.25s3.35-17.17-7.48-17.91c0,0,8.17,7.17,4.95,13.35c-3.22,6.18-4.06-3.84-15.48,0.76
						c-11.42,4.61-32.99,10.29-36.49,3.36C242.53,331.31,252.22,301.47,252.22,301.47z"/>
				</g>
				<g>
					<path fill="#863224" d="M390.53,303.31c-4.03-17.97,0.6-36.88,11.85-51.35c6.96-8.94,16.23-15.12,26.25-6.01
						c17.54,15.94,20.95,65.24-4,81.22c-9.58,6.14-22.38,2.42-27.95-7.57C394.29,315.29,392,309.88,390.53,303.31z"/>
					<path fill="#4A1F16" d="M418.04,262.92c-14.32,2.23-9.9,36.01-9.9,36.01c-0.09-8.3,0.66-14.52,1.72-19.16
						c1.32,7.17,5.39,22.56,16.4,24.08c0,0-10.95-4.13-13.91-28.85c-0.18-1.53,0.12-3.13,0.88-4.47c0.1-0.17,0.19-0.33,0.29-0.48
						c1.16-1.91,3.14-3.24,5.36-3.45c11.35-1.05,12.33,11.69,12.33,11.69S432.6,260.65,418.04,262.92z"/>
				</g>
				<g>
					<path fill="#5D2317" d="M314.32,371.55c-15.2,6.64-44.63,16.9-73.59,13.69c-1.32-0.21-2.83-0.28-4.15-0.65
						c-3.83-0.49-7.48-1.12-11.27-2.37c0,0-1.3-11.55,2-10.48l1.85,6.83c0,0,3.15,0.61,8.63,1.32c0.84,0.05,1.83,0.24,3,0.29
						C256.96,381.56,287.21,382.37,314.32,371.55z"/>
					<path fill="#5D2317" d="M321.3,357.98c-1.95,1.35,9.15,0.19,9.53,8.58c0.39,8.4-0.78,10.97-0.78,10.97s6.91-13.55,4.7-16.54
						C332.54,358.02,322.92,356.86,321.3,357.98z"/>
					<path fill="#5D2317" d="M318.4,391.5c-2.6,9.07-3.12,9.83-7.15,13.77c-9.29,9.06-68.17,14.97-68.1,7.13
						c0.02-2.33-0.96-11.78-1.39-17.01C254.51,397.99,282.29,401.45,318.4,391.5z"/>
					<path fill="#FFFFFF" d="M324.75,366.68c0,0-2.43,12.6-6.35,24.82c-36.1,9.95-63.88,6.49-76.65,3.9
						c-0.29-4.3-0.78-8.31-1.03-10.16c28.96,3.2,58.39-7.05,73.59-13.69c1.2-0.56,2.56-1.1,3.76-1.66c2.22-0.97,3.77-1.81,4.96-2.37
						C324.23,366.96,324.75,366.68,324.75,366.68z"/>
				</g>
			</g>
			<g>
				<path fill="#F9A033" d="M240.85,641.56c1.65,4.84,3.69,9.55,5.73,14.24h-7.47c-2.18-5.41-4.16-10.85-5.87-16.22
					c-15.6-49.03-10.63-105.94,4.09-154.65c1.23-4.07,7.53-2.22,6.3,1.88C228.85,535.7,224.2,592.62,240.85,641.56z"/>
				<path fill="#F9A033" d="M329.38,655.8h-11.14c46.89-37.26,76.15-93.04,88.67-152.26c3.51-16.61,6.32-33.83,6.53-50.87
					c0.05-4.26,6.68-4.27,6.63,0v2.57c-0.83,67.58-28.53,138.31-75.62,186.76C339.68,646.91,334.57,651.42,329.38,655.8z"/>
			</g>
			<path fill="#F9A033" d="M403.62,442.35c0,0,7.96,9,9.83,10.32l6.67-0.91C420.12,451.76,416.96,442.47,403.62,442.35z"/>
			<path fill="#F9A033" d="M253.23,481.76c0,0-7.46,5.92-11.54,7.01c-3.82,1.02-3.62-5.35-3.62-5.35S247.76,479.15,253.23,481.76z"
				/>
		</g>
	</g>
</g>
</svg>
