<?xml version="1.0" encoding="utf-8"?>
<!-- Generator: Adobe Illustrator 25.2.3, SVG Export Plug-In . SVG Version: 6.00 Build 0)  -->
<svg version="1.1" id="Layer_1" xmlns="http://www.w3.org/2000/svg" xmlns:xlink="http://www.w3.org/1999/xlink" x="0px" y="0px"
	 viewBox="0 0 576 576" enable-background="new 0 0 576 576" xml:space="preserve">
<g>
	<g>
		<defs>
			<path id="SVGID_1_" d="M575.3,288c0,159.05-128.95,288-288,288C128.24,576-0.71,447.05-0.71,288C-0.71,128.94,128.24,0,287.3,0
				C446.35,0,575.3,128.94,575.3,288z"/>
		</defs>
		<use xlink:href="#SVGID_1_"  overflow="visible" fill="#F9E3D9"/>
		<clipPath id="SVGID_2_">
			<use xlink:href="#SVGID_1_"  overflow="visible"/>
		</clipPath>
		<g clip-path="url(#SVGID_2_)">
			<path fill="#C3E7EA" d="M174.89,742.2c0.07,5.8-0.26,12.19-0.87,18.89h47.48c0.03-0.23,0.08-0.5,0.1-0.74
				c12.11-110.8-99.42-145.03-99.42-145.03s-3.28,6.45-8.3,17.62C143.53,651.7,174.18,684.96,174.89,742.2z"/>
			<path fill="#DCEAEB" d="M174.01,761.09c0.61-6.7,0.95-13.09,0.87-18.89c-0.71-57.24-23.07-108.11-52.71-126.88
				c-12.18,22.39-34.33,83.92-49.1,145.77H174.01z"/>
			<path fill="#E68E4A" d="M382.23,554.22c-31.48,14.33-95.27,44.09-95.27,44.09l-44.21-29.72c1.51-2.71,2.5-5.39,2.81-8.03
				c5.76-47.49,4.33-118.33,4.33-118.33l137.02,2.85C386.91,445.08,376.05,533.09,382.23,554.22z"/>
			<path fill="#612E1B" d="M193.63,199.96c0,0-84.04-43.46-66.16,21.81c17.88,65.27,104.26,59.85,104.26,59.85L193.63,199.96z"/>
			<path fill="#DCEAEB" d="M148.52,761.09h298.98c3.2-43.69,3.15-76.77,2.47-97.71c-0.49-16-1.34-24.95-1.34-26.26
				c0,0,41.09,8.89,93.47,20.06c0.09-1.44,0.18-2.87,0.27-4.26c-6.95-14.84-12.86-27.07-17.22-35.39c-2.43-4.7-5.54-9.39-8.94-14.05
				c-32.13-43.73-101.59-83.29-101.59-83.29s1.44-0.8,4.18-2.05c-1.85-0.98-3.79-1.87-5.56-2.77
				c-12.94-6.25-23.05-10.98-28.03-13.15c-6.94,6.69-19.27,16.52-40.6,30.88c-4.7,3.06-10.43,0.51-15.93,3.99
				c-0.17,0.12-5.15,1.5-5.28,1.59c-0.08-0.01-4.39,0.65-4.39,0.65s-18.23-3.06-21.51,16.13c-0.51,0-23.06,14.85-23.36,14.85
				c-2.72-7.27-3.32-13.82-5.67-17.62c-1.72-2.84-13.66-16.73-24.34-17.07c-3.81,3.88-17.41,6.27-23.08,10.14
				c-50.45,35.22-105.24,55.79-99.54,78.86C124.93,638.47,136.88,696.07,148.52,761.09z"/>
			<path fill="#F0A67E" d="M177.76,338.69c1.28,0.73,2.15,2.32,2.46,4.92c2.92,24.74,14.02,25.82,20.47,54.03
				c6.46,28.21,18.92,14.2,18.92,14.2c49.41-39.49,81.52-6.46,118.81-16.31c37.29-9.84,47.3-108.55,47.3-108.55l10.29,5.38
				c-9.61-69.87,0.24-133.6,0.24-133.6c-121.64-47.08-228.64,40.36-229.06,43.17c-0.35,2.86,12.04,108.8,10.83,129.38
				C177.89,333.91,177.81,336.37,177.76,338.69z"/>
			<path fill="#90A39A" d="M274.16,570.58l56.03-31.02l58.52-30.75c0,0-41.88,9.7-68.3,19.46c-5.9,2.98-12.05,6.15-18.93,9.5
				c-0.24,0.09-0.37,0.09-0.49,0.18c-0.12,0-13.24,8.57-13.24,8.57s-9.09,4-13.21,22.47C274.41,569.45,274.28,570.02,274.16,570.58z
				"/>
			<path fill="#97D7DE" d="M301.48,537.76c3.07-1.02,16.22-4.63,28.71,1.79c8.2,4.16,16.15,12.54,20.75,28.7
				c0,0,60.28-39.47,57.5-52.34c-0.36-1.5-0.97-3-1.7-4.6c-5.85-11.1-16.87-29.72-19.44-31.7c0.73,0.94-3.55,9.93-15.85,18.99
				c-8.73,6.44-24.23,15.86-51.04,29.65C314.51,531.24,308.37,534.41,301.48,537.76z"/>
			<path fill="#97D7DE" d="M237.05,579.78c-0.65-3.19-4.78-27.7,12.61-34.77c5.55-2.23,11.08-0.61,15.28,3.53
				c2.62,2.64,7.3,16.74,9.2,21.76c1.1-11.87-15.87-35.89-18.42-39.34c-4.24-5.72-4.09-10.81-6.03-17.48
				c-1.49-5.45-2.59-10.14-2.59-10.14s-6.6,7.76-11.15,21.36C231.47,538.09,229.06,557.04,237.05,579.78z"/>
			<polygon fill="#97D7DE" points="252.9,761.09 253.06,715.94 149.7,713.29 151.73,761.09 			"/>
			<path fill="#367C85" d="M253.06,715.95c-12.75,4.18-79.17,14.1-103.36-2.66L253.06,715.95z"/>
			<path fill="#EDEEEE" d="M282.42,283.85l64.19-8.67c0,0,8.48,34.82-26.67,40.88C284.78,322.11,282.42,283.85,282.42,283.85z"/>
			<path fill="#EDEEEE" d="M180.89,296.02l50.67-5.96c0,0,6.87,28.87-22.14,33.87C180.41,328.93,180.89,296.02,180.89,296.02z"/>
			<g>
				<path fill="#894634" d="M214.94,304.7c0.9,7.63-4.56,14.55-12.2,15.45c-7.63,0.9-14.55-4.56-15.45-12.19
					c-0.9-7.64,4.56-14.55,12.2-15.46C207.12,291.6,214.04,297.06,214.94,304.7z"/>
				<path fill="#704338" d="M206.48,306.87c0.38,3.21-1.92,6.12-5.12,6.49c-3.21,0.38-6.12-1.92-6.49-5.12
					c-0.38-3.21,1.92-6.12,5.12-6.49C203.2,301.37,206.1,303.66,206.48,306.87z"/>
			</g>
			<g>
				<path fill="#894634" d="M322.22,294.94c0.95,8.09-4.84,15.42-12.93,16.37c-8.09,0.96-15.42-4.83-16.37-12.92
					c-0.95-8.09,4.84-15.42,12.92-16.37C313.94,281.07,321.27,286.86,322.22,294.94z"/>
				<path fill="#704338" d="M313.25,297.25c0.4,3.4-2.04,6.48-5.44,6.88c-3.4,0.4-6.48-2.03-6.88-5.43c-0.4-3.4,2.03-6.48,5.43-6.88
					C309.77,291.42,312.85,293.85,313.25,297.25z"/>
			</g>
			<path opacity="0.7" fill="#EDEEEE" d="M218.43,313.53c0.38,3.2-1.91,6.11-5.12,6.49c-3.2,0.38-6.11-1.91-6.49-5.12
				c-0.38-3.2,1.91-6.1,5.12-6.48C215.16,308.03,218.06,310.32,218.43,313.53z"/>
			<path opacity="0.7" fill="#EDEEEE" d="M324.59,301.03c0.38,3.2-1.91,6.11-5.12,6.49c-3.2,0.38-6.11-1.91-6.49-5.12
				c-0.38-3.21,1.91-6.12,5.12-6.49C321.31,295.53,324.21,297.82,324.59,301.03z"/>
			<path fill="#E88B6A" d="M180.89,296.02l50.67-5.96c0,0-5.5-20.14-27.01-17.93C182.04,274.45,180.89,296.02,180.89,296.02z"/>
			<path fill="#E88B6A" d="M347.2,276.44l-64.87,7.64c0,0,1.17-23.61,28.63-27.16C339.69,253.21,347.2,276.44,347.2,276.44z"/>
			<path fill="#C3E7EA" d="M414.57,520.14c0,0,69.5,39.6,101.63,83.31c5.86-3.94,16.25,7.83,26.73,7.43
				c-0.25-1.25-3.28-12.43-4.93-18.49c-0.76-2.8-2.08-5.44-4.06-7.56c-17.77-19.07-75.53-47.17-115.14-66.71
				C416.07,519.39,414.57,520.14,414.57,520.14z"/>
			<path fill="#863E24" d="M109.68,143.92c14.56,79.79,98.58,51.11,98.58,51.11c20.6-10.73,98.98-20.36,142.11-16.9
				c11.27,0.89,20.08,2.7,24.93,5.58c23.34,13.97,10.17,104.69,10.17,104.69l0.08,0.04l10.24,3.8l11.38,4.22
				c0,0,49.97-120.29,22.28-121.2c0,0,6.76-101.67-23.3-68.35c-4.28,4.76-7.38,8.88-9.5,12.38c-1.42-3.22-2.97-6.72-4.65-10.32
				c-19.98-42.76-55.96-105.95-68.29-37.32c-0.13,0.63-0.22,1.31-0.34,1.94c-33.81-36.93-80.35-76.07-73.61-2.64
				c0.08,1.05,0.2,2.11,0.29,3.13C213.86,52,164.72,31.25,168.66,84.71c0.84,11.28,2.67,20.48,5.25,27.97
				C138.24,102.45,101.94,101.47,109.68,143.92z"/>
			<path fill="#964627" d="M261.58,224.45c-0.11,0.11,2.94,26,13.92,14.87c7-7.09,51.91-12.43,74.4,16.38
				c-4.33-5.55,5.4-14.66,7.12-21.88C358.12,229.2,315.73,184.36,261.58,224.45z"/>
			<path fill="#964627" d="M163.77,260.43c1.26-1.37,24.31-0.59,50.31-13.89c12.47-6.38,4.79,24.76,4.79,24.76
				s-40.8,13.83-45.33,11.4C169.01,280.25,157.21,267.58,163.77,260.43z"/>
			<path fill="#863E24" d="M177.75,338.7c-0.21,33.27,13.39,41.88,17.84,61.32c9.59,42.59,20.27,87.97,27.81,103.95
				c7.45,15.98,38.3,6.77,69.81,3.05c31.42-3.68,92.14-43.56,109.92-68.11c3.65-5.09,4.56-20.25,3.7-41.1
				c-1.12-28.33-5.57-67.14-10.79-105.45l-0.25-0.12L385.72,287c0,0-0.05,0.51-0.17,1.44c-1.23,10.68-10.01,78.78-35.84,100.93
				c-3.47,2.94-7.23,5.08-11.29,6.16c-37.27,9.87-69.4-23.18-118.8,16.32c0,0-12.47,14.01-18.9-14.21
				c-6.48-28.18-17.58-29.28-20.48-54.02C179.9,341.03,179.06,339.42,177.75,338.7z"/>
			<g>
				<path fill="#FFFFFF" d="M305.17,419.48l-67.55,7.96C237.62,427.43,265.73,466.76,305.17,419.48z"/>
			</g>
			<path fill="#C3E7EA" d="M435.99,761.09h94.89c5.02-38.14,9.14-74.61,11.22-103.91c-33.29-7.09-69.91,0.03-92.14,6.2
				c-12.76,3.54-20.79,6.72-20.79,6.72C429.17,672.84,435.75,703.91,435.99,761.09z"/>
			<g>
				<path fill="#C3E7EA" d="M392.92,761.09c3.38-14.82,7.01-28.97,10.71-41.7c4.01-13.58,5.87-54.22,9.61-64.05
					c21.71-57.11,58.09-65.27,89.7-64.14c-34.6-3.81-80.86-4.8-106.58,62.83c-3.75,9.82-5.61,50.46-9.62,64.05
					c-3.8,13.11-7.53,27.72-11,43.01H392.92z"/>
				<path fill="#DCEAEB" d="M503.69,761.09c6.4-37.4,11.45-73.58,14.95-102.47c1.39-11.91,2.6-22.59,3.48-31.54
					c0.26-2.67,0.52-5.19,0.74-7.61c0.22-2.37,0.44-4.59,0.57-6.62c0.53-6.13,0.5-12.76,0.19-19.53
					c-6.12-0.37-13.13-1.34-20.68-2.11c-31.61-1.13-67.99,7.02-89.7,64.14c-3.75,9.83-5.61,50.47-9.61,64.05
					c-3.7,12.73-7.33,26.88-10.71,41.7H503.69z"/>
				<path fill="#C3E7EA" d="M540.37,761.09c15.32-81.16,6.7-132.35-1.01-162.45c0,0-0.07-0.17-0.01-0.25
					c0.1-0.29,0.21-0.57,0.28-0.89c-9-6.29-8.95-4.29-16.02-4.16c0.32,6.77,0.36,13.39-0.18,19.51c-0.85,10.93-2.57,26.73-4.8,45.78
					c-3.5,28.89-8.56,65.08-14.95,102.47H540.37z"/>
			</g>
			<path fill="#EC8969" d="M241.7,287.58c-1.59-4.86-11.7-13.59-12-8.75c-3.31,53.43-22.61,99.17-12.58,105.88
				c22.56,15.1,15.48-14.3,43.92-5.48c15.3,4.74,21.6-7.88,14.01-21.41c-7.58-13.53-15.7,1.85-22.42-7.79
				C245.47,339.75,248.98,309.77,241.7,287.58z"/>
			<path fill="#EC8969" d="M349.7,389.36c25.84-22.15,34.62-90.25,35.84-100.93l-0.08-0.04c0,0,13.17-90.71-10.17-104.69
				c-4.84-2.88-13.65-4.69-24.93-5.58C368.19,211.93,388.48,283.42,349.7,389.36z"/>
			<g>
				<path fill="#EC8969" d="M390.15,312.77c-3.11-18.61,2.75-37.7,15.18-51.89c7.68-8.77,17.58-14.58,27.37-4.71
					c17.13,17.28,17.79,67.92-8.81,82.9c-10.22,5.76-23.18,1.25-28.34-9.29C393.34,325.25,391.29,319.58,390.15,312.77z"/>
				<path fill="#D25E54" d="M420.81,272.95c-14.87,1.49-12.27,36.3-12.27,36.3c0.39-8.5,1.52-14.82,2.88-19.51
					c0.94,7.41,4.24,23.38,15.49,25.55c0,0-11.04-4.83-12.65-30.28c-0.1-1.58,0.3-3.2,1.16-4.53c0.11-0.16,0.22-0.33,0.32-0.48
					c1.31-1.9,3.43-3.15,5.72-3.24c11.74-0.46,12.01,12.65,12.01,12.65S435.93,271.43,420.81,272.95z"/>
			</g>
		</g>
	</g>
</g>
</svg>
