<?xml version="1.0" encoding="utf-8"?>
<!-- Generator: Adobe Illustrator 25.2.3, SVG Export Plug-In . SVG Version: 6.00 Build 0)  -->
<svg version="1.1" id="Layer_1" xmlns="http://www.w3.org/2000/svg" xmlns:xlink="http://www.w3.org/1999/xlink" x="0px" y="0px"
	 viewBox="0 0 576 576" enable-background="new 0 0 576 576" xml:space="preserve">
<g>
	<g>
		<defs>
			<circle id="SVGID_1_" cx="287.82" cy="288" r="288"/>
		</defs>
		<use xlink:href="#SVGID_1_"  overflow="visible" fill="#F9E3D9"/>
		<clipPath id="SVGID_2_">
			<use xlink:href="#SVGID_1_"  overflow="visible"/>
		</clipPath>
		<g clip-path="url(#SVGID_2_)">
			<path fill="#495DAA" d="M367.23,592.87h48.12c-17.07-41.84-35.52-74-49.39-95.97c-3.49-0.52-38.86-4.01-38.86-4.01l-4.14,23.55
				c1.65,2.64,3.39,5.39,5.21,8.27C339.51,542.68,353.56,564.95,367.23,592.87z"/>
			<g>
				<path fill="#FCE583" d="M225.37,578.54c-4.92,0-9.91-1.23-14.5-3.82l-5.2-2.93c-96.06-54.14-227.62-128.28-354.59-162.23
					c-15.79-4.23-25.17-20.45-20.95-36.25c4.22-15.79,20.45-25.17,36.25-20.95C0.59,388.25,135.92,464.52,234.74,520.21l5.2,2.93
					c14.25,8.03,19.29,26.08,11.26,40.32C245.75,573.12,235.72,578.54,225.37,578.54z"/>
				<path fill="#FCE583" d="M362.93,567.08c4.92,0,9.91-1.23,14.51-3.82l5.2-2.93c96.06-54.14,227.62-128.28,354.58-162.23
					c15.79-4.23,25.18-20.45,20.95-36.25c-4.22-15.79-20.45-25.17-36.24-20.95c-134.21,35.9-269.55,112.16-368.36,167.85l-5.2,2.93
					c-14.25,8.03-19.29,26.08-11.26,40.32C342.54,561.65,352.59,567.08,362.93,567.08z"/>
				<path opacity="0.47" fill="#F79532" d="M349.56,549.89c4.92,0,9.91-1.23,14.5-3.82l5.2-2.93
					c96.07-54.14,227.62-128.28,354.59-162.24c15.79-4.22,25.17-20.45,20.95-36.24c-0.06-0.23-0.15-0.44-0.22-0.67
					c6.46,3.8,11.49,10.04,13.58,17.85c4.23,15.79-5.16,32.02-20.95,36.25c-126.97,33.95-258.53,108.09-354.58,162.23l-5.2,2.93
					c-4.59,2.59-9.59,3.82-14.51,3.82c-10.34,0-20.38-5.42-25.82-15.08c-1.13-2-1.97-4.09-2.6-6.21
					C339.06,548.46,344.27,549.89,349.56,549.89z"/>
				<path opacity="0.47" fill="#F79532" d="M238.74,561.35c-4.92,0-9.91-1.23-14.5-3.81l-5.21-2.94
					C122.97,500.46-8.58,426.32-135.55,392.37c-15.79-4.22-25.18-20.45-20.95-36.25c0.06-0.23,0.14-0.44,0.21-0.66
					c-6.45,3.8-11.49,10.04-13.58,17.85c-4.22,15.79,5.16,32.02,20.95,36.25c126.97,33.95,258.53,108.09,354.59,162.23l5.2,2.93
					c4.59,2.59,9.58,3.82,14.5,3.82c10.34,0,20.38-5.42,25.82-15.08c1.14-2,1.98-4.09,2.6-6.21
					C249.23,559.92,244.03,561.35,238.74,561.35z"/>
				<path fill="#FCE583" d="M366.05,592.87c0.25-5.76,0.56-10.39,0.88-15.08c0.14-2.03,0.28-4.09,0.42-6.22
					c2.85-44.21-30.68-82.36-74.89-85.21c-44.21-2.87-82.36,30.67-85.21,74.88c-0.12,1.94-0.25,3.8-0.38,5.65
					c-0.54,7.92-1.05,15.53-1.39,25.98H366.05z"/>
				<defs>
					<filter id="Adobe_OpacityMaskFilter" filterUnits="userSpaceOnUse" x="-107.22" y="347.13" width="784.58" height="245.74">
						<feColorMatrix  type="matrix" values="1 0 0 0 0  0 1 0 0 0  0 0 1 0 0  0 0 0 1 0"/>
					</filter>
				</defs>
				<mask maskUnits="userSpaceOnUse" x="-107.22" y="347.13" width="784.58" height="245.74" id="SVGID_3_">
					<g filter="url(#Adobe_OpacityMaskFilter)">
						<g>
							<path fill="#FFFFFF" d="M288.2,829.02c-43.06,0-78.67-34.16-80.12-77.52c-4.55-135.6-3-158.3-1.21-184.61
								c0.13-1.85,0.25-3.71,0.38-5.65c2.85-44.21,41-77.75,85.21-74.88c44.21,2.85,77.74,41,74.89,85.21
								c-0.14,2.13-0.28,4.19-0.42,6.22c-1.43,21.02-2.78,40.87,1.49,168.32c1.48,44.28-33.2,81.37-77.48,82.86
								C290.02,829,289.11,829.02,288.2,829.02z"/>
						</g>
						<g>
							<path fill="#FFFFFF" d="M225.37,578.54c-4.92,0-9.91-1.23-14.5-3.82l-5.2-2.93c-96.06-54.14-227.62-128.28-354.59-162.23
								c-15.79-4.23-25.17-20.45-20.95-36.25c4.22-15.79,20.45-25.17,36.25-20.95C0.59,388.25,135.92,464.52,234.74,520.21l5.2,2.93
								c14.25,8.03,19.29,26.08,11.26,40.32C245.75,573.12,235.72,578.54,225.37,578.54z"/>
						</g>
						<g>
							<path fill="#FFFFFF" d="M362.93,567.08c4.92,0,9.91-1.23,14.51-3.82l5.2-2.93c96.06-54.14,227.62-128.28,354.58-162.23
								c15.79-4.23,25.18-20.45,20.95-36.25c-4.22-15.79-20.45-25.17-36.24-20.95c-134.21,35.9-269.55,112.16-368.36,167.85
								l-5.2,2.93c-14.25,8.03-19.29,26.08-11.26,40.32C342.54,561.65,352.59,567.08,362.93,567.08z"/>
						</g>
					</g>
				</mask>
				<g opacity="0.47" mask="url(#SVGID_3_)">
					<path fill="#F79532" d="M395.92,592.87l0.2-0.9c-121.77-26.64-216.12-0.91-220.08,0.2l0.2,0.7H395.92z"/>
					<path fill="#F79532" d="M368.47,558.41c-104.71-17.77-154.8-0.8-155.65-0.56l-6.69-23.91c3.43-0.96,44.61-15.65,142.78-3.51
						C364.05,532.31,375.8,559.66,368.47,558.41z"/>
					<path fill="#F79532" d="M404.62,570.16c-7.1-40.22-32.18-77.58-32.43-77.95l20.56-13.93c1.15,1.7,28.31,42.19,36.32,87.57
						L404.62,570.16z"/>
					<path fill="#F79532" d="M453.01,542.15c-7.09-40.22-32.18-77.58-32.43-77.95l20.56-13.93c1.15,1.7,28.32,42.19,36.33,87.57
						L453.01,542.15z"/>
					<path fill="#F79532" d="M500.11,512.86c-7.09-40.22-32.18-77.58-32.43-77.95l20.56-13.93c1.16,1.7,28.31,42.19,36.32,87.57
						L500.11,512.86z"/>
					<path fill="#F79532" d="M548.5,484.85c-7.1-40.21-32.18-77.58-32.43-77.95l20.55-13.92c1.16,1.7,28.32,42.18,36.33,87.56
						L548.5,484.85z"/>
					<path fill="#F79532" d="M599.43,459.39c-7.1-40.22-32.18-77.59-32.43-77.96l20.56-13.92c1.15,1.7,28.31,42.19,36.32,87.57
						L599.43,459.39z"/>
					<path fill="#F79532" d="M652.9,439.01c-7.09-40.21-32.18-77.58-32.43-77.95l20.56-13.93c1.16,1.7,28.32,42.19,36.33,87.57
						L652.9,439.01z"/>
					<path fill="#F79532" d="M165.51,570.16l-24.45-4.31c8.01-45.38,35.17-85.86,36.33-87.57l20.55,13.93l-10.27-6.96l10.28,6.96
						C197.7,492.57,172.58,530.11,165.51,570.16z"/>
					<path fill="#F79532" d="M117.13,542.15l-24.45-4.31c8.01-45.38,35.17-85.86,36.33-87.57l20.55,13.93l-10.28-6.96l10.29,6.95
						C149.31,464.56,124.19,502.1,117.13,542.15z"/>
					<path fill="#F79532" d="M70.02,512.86l-24.45-4.31c8.01-45.38,35.17-85.86,36.33-87.57l20.55,13.93l-10.28-6.96l10.29,6.96
						C102.2,435.27,77.09,472.82,70.02,512.86z"/>
					<path fill="#F79532" d="M21.64,484.85l-24.45-4.31c8.01-45.38,35.17-85.86,36.32-87.56l20.56,13.92l-10.28-6.96l10.29,6.96
						C53.82,407.26,28.7,444.81,21.64,484.85z"/>
					<path fill="#F79532" d="M-29.3,459.39l-24.45-4.31c8.01-45.38,35.17-85.87,36.33-87.57l20.55,13.92l-10.27-6.96l10.28,6.95
						C2.89,381.8-22.23,419.34-29.3,459.39z"/>
					<path fill="#F79532" d="M-82.77,439.01l-24.45-4.31c8.01-45.38,35.17-85.86,36.32-87.57l20.56,13.93l-10.28-6.96l10.29,6.96
						C-50.59,361.42-75.7,398.97-82.77,439.01z"/>
				</g>
				<path opacity="0.47" fill="#F79532" d="M244.64,592.87c4.81-48.34,12.2-91.49,13.95-101.36c-8.8,3.38-16.9,8.26-23.93,14.38
					l-10.39,71.98l-2.28,15H244.64z"/>
				<path opacity="0.47" fill="#F79532" d="M366.05,592.87c0.25-5.76,0.56-10.39,0.88-15.08c0.14-2.03,0.28-4.09,0.42-6.22
					c2.21-34.22-17.39-64.8-46.85-78.2c-1.89,11.62-10.63,54.27-32.29,99.49H366.05z"/>
			</g>
			<g>
				<path fill="#F4F4F4" d="M761.8,385.76c0.74,0.08,1.49,0.1,2.25,0.05c0.36-0.02,36.08-1.94,72.45,1.72
					c7.86,0.8,14.89-4.94,15.68-12.82c0.8-7.86-4.94-14.89-12.81-15.68c-38.68-3.9-75.38-1.91-76.92-1.83
					c-7.9,0.44-13.94,7.21-13.5,15.1C749.35,379.44,754.91,385.07,761.8,385.76z"/>
				<path fill="#E6E6E5" d="M818.33,380.59c20.49,1.11,29.55-1.81,33.87-8.61c0.08,0.9,0.08,1.81-0.01,2.74
					c-0.79,7.88-7.82,13.61-15.68,12.82c-21.53-2.17-42.83-2.38-56.71-2.19C786.19,383.07,799.43,379.56,818.33,380.59z"/>
				<path fill="#F4F4F4" d="M684.6,361.57c0,24.76,21.03,44.82,46.96,44.82c25.94,0,46.96-20.07,46.96-44.82
					c0-18.9,2.05-58.29-14.37-49.65c-9.07,4.78-35.81,9.07-35.34-9.07C729.3,284.7,684.6,336.81,684.6,361.57z"/>
				<path fill="#F4F4F4" d="M711.64,351.55c6.88,0,12.95-4.96,14.12-11.97c6.92-41.56,4.05-69.55,3.93-70.73
					c-0.84-7.86-7.92-13.54-15.77-12.71c-7.86,0.84-13.55,7.89-12.72,15.75c0.05,0.54,2.49,25.81-3.7,62.98
					c-1.3,7.81,3.97,15.19,11.77,16.49C710.07,351.48,710.87,351.55,711.64,351.55z"/>
				<path fill="#F4F4F4" d="M762.65,346.56c0.17-0.16,17.33-15.77,61.1-19.91c7.88-0.74,13.66-7.73,12.92-15.61
					s-7.73-13.66-15.61-12.92c-54.18,5.11-76.17,25.68-78.5,28.01l20.26,20.26L762.65,346.56z"/>
				<path fill="#F4F4F4" d="M819.4,417.54c6.2,0,11.91-4.05,13.74-10.31c2.23-7.59-2.13-15.55-9.72-17.77
					c-28.75-8.41-74.62-13.81-76.56-14.04c-7.85-0.9-14.97,4.71-15.89,12.57c-0.91,7.86,4.71,14.97,12.57,15.89
					c0.45,0.05,45.41,5.35,71.83,13.08C816.71,417.35,818.07,417.54,819.4,417.54z"/>
				<path fill="#E6E6E5" d="M684.6,361.57c0-9.25,6.25-22.33,14.05-34.14c4.72-33.07,2.6-55.05,2.55-55.54
					c-0.83-7.86,4.86-14.91,12.72-15.75c0.83-0.08,1.65-0.08,2.45-0.03c-3.79,4.12-8.18,10.61-8.88,19.05
					c-1.28,15.28,1.91,38.83-0.64,52.84c-2.55,14.01,8.28,29.92,8.28,29.92s-3.82,14.01,3.18,22.92c7,8.92,15.91,12.09,28.65,12.73
					c12.73,0.63,30.56,6.36,60.48,10.82c13.58,2.02,21.51,1.68,26.13,0.71c-0.1,0.71-0.23,1.42-0.44,2.13
					c-1.83,6.25-7.54,10.31-13.74,10.31c-1.33,0-2.69-0.19-4.03-0.58c-22.79-6.67-59.37-11.53-69.27-12.77
					c-4.58,1.42-9.46,2.2-14.54,2.2C705.62,406.39,684.6,386.32,684.6,361.57z"/>
				<path fill="#F4F4F4" d="M703.97,421.26c0.76,0,1.52-0.06,2.28-0.18c7.81-1.25,13.13-8.6,11.88-16.41
					c-4.23-26.45-25.92-61.19-26.84-62.66c-4.21-6.7-13.05-8.71-19.75-4.5c-6.7,4.21-8.71,13.05-4.51,19.74l0,0
					c5.42,8.63,20.08,34.79,22.82,51.95C690.97,416.24,697.06,421.26,703.97,421.26z"/>
				<path fill="#E6E6E5" d="M779.43,330.54c4.46-4.46,28.65-10.19,38.2-12.09c7.51-1.5,14.99-5.77,17.86-11.85
					c0.61,1.38,1.02,2.87,1.17,4.46c0.74,7.88-5.04,14.86-12.92,15.61c-21.07,1.99-35.96,6.64-45.77,10.95
					C777.23,335.72,776.94,333.03,779.43,330.54z"/>
				<path fill="#F4F4F4" d="M767.8,362.53c0.74,0,1.49-0.06,2.25-0.18c0.35-0.06,35.7-5.55,72.25-5.55
					c7.91,0,14.33-6.42,14.33-14.33c0-7.91-6.42-14.33-14.33-14.33c-38.87,0-75.19,5.67-76.72,5.91
					c-7.81,1.23-13.14,8.57-11.91,16.38C754.78,357.5,760.87,362.53,767.8,362.53z"/>
				<path fill="#E6E6E5" d="M823.52,351.71c20.5-0.95,29.21-4.76,32.84-11.96c0.17,0.88,0.27,1.79,0.27,2.73
					c0,7.91-6.42,14.33-14.33,14.33c-21.64,0-42.85,1.93-56.64,3.51C791.79,357.41,804.61,352.59,823.52,351.71z"/>
				<path fill="#E6E6E5" d="M671.54,337.51c0.1-0.07,0.22-0.12,0.33-0.18c-1.93,4.24-1.76,9.33,0.89,13.56
					c5.42,8.63,20.07,34.79,22.82,51.95c1.13,7.04,7.21,12.06,14.12,12.06c0.76,0,1.51-0.06,2.28-0.18
					c1.83-0.29,3.52-0.93,5.03-1.83c-1.93,4.21-5.85,7.41-10.76,8.19c-0.76,0.12-1.53,0.18-2.28,0.18
					c-6.91,0-12.99-5.02-14.12-12.06c-2.74-17.15-17.4-43.31-22.82-51.95C662.82,350.56,664.84,341.72,671.54,337.51z"/>
			</g>
			<g>
				<g>
					<path fill="#5868B0" d="M348.91,592.87c3.16-28.83,8.5-60.94,17.05-95.97l-40.82-6.13c-9.16,37.56-14.83,71.65-18.15,102.1
						H348.91z"/>
				</g>
				<g>
					<path fill="#5868B0" d="M234.78,592.87c9.89-58.29,23.95-102.76,24.19-103.49c0,0-25.47,3.82-48.12,18.45
						c-5.5,20.09-12.87,50.16-18.62,85.04H234.78z"/>
				</g>
			</g>
			<g>
				<g>
					<path fill="#C42126" d="M160.93,274.04c0-19.95-16.17-36.12-36.13-36.12c-19.95,0-36.12,16.17-36.12,36.12
						c0,19.95,16.17,36.13,36.12,36.13C144.75,310.17,160.93,293.99,160.93,274.04z"/>
					<path fill="#C42126" d="M137.37,300.3c0,12.57-10.19,22.76-22.76,22.76c-12.57,0-22.76-10.19-22.76-22.76
						s10.19-22.76,22.76-22.76C127.18,277.54,137.37,287.73,137.37,300.3z"/>
					<circle fill="#C42126" cx="396.16" cy="310.48" r="30.56"/>
					<circle fill="#C42126" cx="453.93" cy="347.26" r="27.22"/>
					<path fill="#C42126" d="M395.21,304.28c0,18.19,14.75,32.94,32.94,32.94c18.2,0,32.95-14.75,32.95-32.94
						c0-18.2-14.75-32.95-32.95-32.95C409.96,271.34,395.21,286.09,395.21,304.28z"/>
					<path fill="#C42126" d="M365.6,372.08c0-22.94,18.59-41.54,41.54-41.54c22.95,0,41.54,18.6,41.54,41.54
						s-18.59,41.54-41.54,41.54C384.2,413.62,365.6,395.02,365.6,372.08z"/>
					<circle fill="#C42126" cx="375.15" cy="402.16" r="23.87"/>
					<path fill="#C42126" d="M179.39,341.04c0-20.04-16.25-36.28-36.29-36.28c-20.04,0-36.29,16.24-36.29,36.28
						c0,20.04,16.24,36.29,36.29,36.29C163.14,377.34,179.39,361.09,179.39,341.04z"/>
					<path fill="#C42126" d="M425.28,346.3c0,15.82-12.82,28.65-28.65,28.65s-28.65-12.83-28.65-28.65
						c0-15.82,12.82-28.65,28.65-28.65S425.28,330.48,425.28,346.3z"/>
				</g>
				<path fill="#F59C7E" d="M289.49,526.31c-11.79,0-22.05-8.73-23.64-20.74l-11.77-88.81c-1.74-13.07,7.46-25.07,20.53-26.8
					c13.08-1.72,25.07,7.46,26.8,20.53l11.77,88.81c1.74,13.07-7.45,25.07-20.53,26.8C291.6,526.23,290.54,526.31,289.49,526.31z"/>
				<path fill="#E07E60" d="M263.9,491.45c9.67-1.02,23.87-3.94,45.84-17.79l-8.32-63.18c-0.67-5.08-2.92-9.57-6.15-13.07
					l-40.41,25.18L263.9,491.45z"/>
				<path fill="#E07E60" d="M173.02,321.63c0,15.82-12.82,28.65-28.65,28.65s-28.65-12.82-28.65-28.65
					c0-15.83,12.83-28.65,28.65-28.65S173.02,305.8,173.02,321.63z"/>
				<path fill="#D36846" d="M400.98,327.91c-0.87-0.16-1.74-0.23-2.59-0.26c6.44,3.86,10.14,11.58,8.67,19.62
					c-1.71,9.37-9.84,15.87-18.81,15.56c1.79,1.07,3.78,1.87,5.95,2.26c9.94,1.81,19.52-5.03,21.39-15.3
					C417.46,339.51,410.92,329.72,400.98,327.91z"/>
				<path fill="#F8A17B" d="M386.61,335.32c-5.26,76.82-86.71,144.82-155.65,140.37c-41.87-2.7-65.44-21.88-80.22-63.98
					c-6.12-17.44-17.18-44.3-17.18-66.85c0-39.71,19.1-49.66,34.38-114.59c7-29.75,49-84.38,102.17-80.21
					C338.99,155.45,396.16,195.9,386.61,335.32z"/>
				<path fill="#F0906B" d="M230.96,475.69c68.94,4.44,150.39-63.56,155.65-140.37c0.34-5.01,0.59-9.87,0.76-14.62
					c-23.69-459.51,14.83,3.96-80.98,101.99c-59.44,60.83-113.26,29.46-126.05,15.28c-17.67-19.57-27.43-63.37-30.08-79.26
					c-2.55-15.28,1.47-61.38,5.21-87.01c-11.57,30.8-21.92,43.92-21.92,73.16c0,22.55,11.07,49.41,17.18,66.85
					C165.51,453.82,189.09,472.99,230.96,475.69z"/>
				<g>
					<circle fill="#F0906B" cx="312.6" cy="190.64" r="33.9"/>
					<path fill="#F0906B" d="M304.96,172.02c0,20.83-16.89,37.72-37.72,37.72c-20.83,0-37.72-16.88-37.72-37.72
						s16.89-37.72,37.72-37.72C288.07,134.3,304.96,151.19,304.96,172.02z"/>
					<path fill="#F0906B" d="M140.24,198.29c0-17.41,14.11-31.52,31.51-31.52c17.41,0,31.51,14.11,31.51,31.52
						c0,17.4-14.1,31.51-31.51,31.51C154.35,229.8,140.24,215.69,140.24,198.29z"/>
					<path fill="#F0906B" d="M170.79,172.02c0-19.51,15.82-35.34,35.33-35.34c19.51,0,35.34,15.82,35.34,35.34
						s-15.82,35.34-35.34,35.34C186.62,207.36,170.79,191.54,170.79,172.02z"/>
					<path fill="#C42126" d="M305.44,164.86c0,20.83-16.89,37.72-37.72,37.72c-20.83,0-37.72-16.88-37.72-37.72
						s16.89-37.72,37.72-37.72C288.55,127.14,305.44,144.03,305.44,164.86z"/>
					<path fill="#F0906B" d="M181.46,245.23c0,15.56-12.62,28.18-28.18,28.18s-28.17-12.62-28.17-28.18
						c0-15.55,12.61-28.17,28.17-28.17S181.46,229.68,181.46,245.23z"/>
					<path fill="#C42126" d="M167.93,164.38c0-19.51,15.82-35.33,35.33-35.33c19.51,0,35.34,15.82,35.34,35.33
						c0,19.51-15.82,35.34-35.34,35.34C183.75,199.71,167.93,183.89,167.93,164.38z"/>
					<path fill="#C42126" d="M174.93,246.67c0,15.56-12.62,28.17-28.17,28.17c-15.56,0-28.18-12.61-28.18-28.17
						s12.62-28.17,28.18-28.17C162.32,218.5,174.93,231.11,174.93,246.67z"/>
					<path fill="#F0906B" d="M321.36,225.81c0-18.99,15.39-34.38,34.38-34.38s34.38,15.39,34.38,34.38s-15.39,34.38-34.38,34.38
						S321.36,244.8,321.36,225.81z"/>
					<path fill="#C42126" d="M133.55,194.94c0-17.41,14.1-31.52,31.51-31.52s31.51,14.11,31.51,31.52c0,17.4-14.1,31.51-31.51,31.51
						S133.55,212.34,133.55,194.94z"/>
					<path fill="#E92825" d="M244.32,121.88c0,26.64-21.59,48.23-48.23,48.23s-48.23-21.59-48.23-48.23
						c0-26.63,21.59-48.22,48.23-48.22S244.32,95.26,244.32,121.88z"/>
					<path fill="#E92825" d="M303.53,93.08c0,24.26-19.66,43.92-43.92,43.92s-43.92-19.66-43.92-43.92s19.66-43.93,43.92-43.93
						S303.53,68.82,303.53,93.08z"/>
					<circle fill="#E92825" cx="316.74" cy="89.42" r="30.08"/>
					<path fill="#E92825" d="M321.67,117.75c0,24.52,19.88,44.4,44.41,44.4c24.52,0,44.41-19.88,44.41-44.4
						c0-24.53-19.89-44.41-44.41-44.41C341.55,73.35,321.67,93.23,321.67,117.75z"/>
					<path fill="#E92825" d="M364.64,163.9c0,28.74,23.31,52.04,52.05,52.04c28.74,0,52.04-23.3,52.04-52.04
						s-23.3-52.04-52.04-52.04C387.95,111.86,364.64,135.16,364.64,163.9z"/>
					<path fill="#E92825" d="M427.67,203.53c0,19.51,15.82,35.34,35.34,35.34s35.33-15.82,35.33-35.34S482.52,168.2,463,168.2
						S427.67,184.02,427.67,203.53z"/>
					<path fill="#E92825" d="M430.53,305.24c0-17.14,13.9-31.03,31.03-31.03c17.15,0,31.04,13.9,31.04,31.03
						c0,17.14-13.9,31.03-31.04,31.03C444.43,336.27,430.53,322.38,430.53,305.24z"/>
					<circle fill="#E92825" cx="110.63" cy="269.75" r="28.97"/>
					<path fill="#C42126" d="M357.96,281.84c0-21.09,17.11-38.19,38.2-38.19s38.19,17.1,38.19,38.19s-17.1,38.2-38.19,38.2
						S357.96,302.93,357.96,281.84z"/>
					<path fill="#C42126" d="M281.56,182.05c0-19.25,15.61-34.85,34.86-34.85c19.25,0,34.85,15.61,34.85,34.85
						c0,19.25-15.61,34.86-34.85,34.86C297.17,216.91,281.56,201.3,281.56,182.05z"/>
					<path fill="#C42126" d="M327.4,220.72c0-18.99,15.4-34.38,34.38-34.38c18.99,0,34.38,15.39,34.38,34.38
						s-15.39,34.38-34.38,34.38C342.8,255.1,327.4,239.71,327.4,220.72z"/>
					<path fill="#E92825" d="M404.75,246.99c0-24.53,19.88-44.41,44.4-44.41c24.53,0,44.41,19.88,44.41,44.41
						c0,24.52-19.88,44.4-44.41,44.4C424.63,291.39,404.75,271.51,404.75,246.99z"/>
					<circle fill="#E92825" cx="320.72" cy="133.82" r="39.15"/>
					<circle fill="#E92825" cx="253.87" cy="116.64" r="39.15"/>
					<path fill="#E92825" d="M401.89,175.36c0,16.09-13.04,29.13-29.13,29.13c-16.08,0-29.12-13.04-29.12-29.13
						s13.04-29.13,29.12-29.13C388.85,146.24,401.89,159.28,401.89,175.36z"/>
					<circle fill="#E92825" cx="407.62" cy="217.86" r="36.29"/>
					<path fill="#E92825" d="M151.69,221.36c0,19.51-15.81,35.33-35.33,35.33s-35.34-15.82-35.34-35.33
						c0-19.51,15.82-35.34,35.34-35.34S151.69,201.85,151.69,221.36z"/>
					<path fill="#E92825" d="M178.43,164.54c0,22.06-17.88,39.95-39.95,39.95c-22.06,0-39.94-17.89-39.94-39.95
						c0-22.07,17.88-39.95,39.94-39.95C160.55,124.59,178.43,142.48,178.43,164.54z"/>
				</g>
				<g>
					<path opacity="0.39" fill="#FFFFFF" d="M169.84,314.62c-8.81,1.48-22.91,8.28-12.09,51.57c10.82,43.28,25.47,80.21,57.94,86.58
						c32.46,6.37,78.3-12.73,101.85-57.93c23.56-45.2,32.47-61.12,19.1-69.39c-13.37-8.28-40.75,24.19-63.03,36.29
						c-22.28,12.09-56.02,10.82-74.49-9.55C180.66,331.81,177.48,313.36,169.84,314.62z"/>
					<path fill="#CE3427" d="M186.62,244.25l-1.3-13.31c8.36-0.82,31.86-4.71,40.07-12.77l9.37,9.54
						C221.72,240.51,190.17,243.91,186.62,244.25z"/>
					<path fill="#CE3427" d="M323.03,249.53c-25.2,0-44.19-16.56-44.99-17.28l8.85-10.02c0.16,0.14,16.12,13.92,36.15,13.92
						c0.18,0,0.35,0,0.52,0l0.16,13.37C323.48,249.53,323.26,249.53,323.03,249.53z"/>
					<g>
						<path fill="#F0906B" d="M266.46,305.56c13.13,12.25,13.84,32.83,1.59,45.96s-32.83,13.84-45.96,1.59
							c-13.13-12.25-13.84-32.83-1.59-45.96C232.75,294.02,253.32,293.31,266.46,305.56z"/>
						<path fill="#EC2227" d="M258.81,299.83c13.14,12.25,13.85,32.83,1.6,45.96s-32.83,13.84-45.96,1.59
							c-13.14-12.25-13.85-32.83-1.6-45.96C225.1,288.29,245.68,287.58,258.81,299.83z"/>
						<path fill="#D71F27" d="M251.76,331.23c-12.25,13.13-32.83,13.85-45.96,1.6c-0.17-0.16-0.33-0.33-0.49-0.48
							c1.55,5.57,4.6,10.8,9.14,15.04c13.13,12.25,33.71,11.54,45.96-1.59c12.09-12.96,11.54-33.18-1.11-45.48
							C262.23,310.86,259.77,322.64,251.76,331.23z"/>
						<path fill="#EF4754" d="M241.92,308.1c0.24,5.52-4.03,10.19-9.56,10.44c-5.52,0.24-10.19-4.04-10.44-9.56
							c-0.25-5.52,4.03-10.19,9.55-10.44C237,298.3,241.68,302.58,241.92,308.1z"/>
					</g>
					<g>
						<path fill="#010101" d="M183.95,279.84c-1.59,13.62,4.21,25.49,12.94,26.5c8.73,1.02,17.09-9.2,18.67-22.82
							c1.59-13.62-4.21-25.49-12.94-26.5C193.89,256,185.53,266.22,183.95,279.84z"/>
						<path fill="#F3F3F3" d="M199.07,275.46c-0.57,4.85,1.49,9.07,4.61,9.44c3.11,0.36,6.08-3.28,6.64-8.13
							c0.57-4.84-1.5-9.07-4.61-9.43C202.61,266.97,199.63,270.61,199.07,275.46z"/>
						<path fill="#010101" d="M285.17,291.3c-1.59,13.62,4.21,25.49,12.94,26.5c8.73,1.02,17.09-9.2,18.68-22.82
							c1.58-13.62-4.22-25.49-12.95-26.5C295.12,267.46,286.75,277.68,285.17,291.3z"/>
						<path fill="#F3F3F3" d="M299.81,287.87c-0.57,4.85,1.49,9.07,4.61,9.44c3.11,0.36,6.08-3.28,6.64-8.13
							c0.57-4.84-1.49-9.07-4.61-9.43C303.35,279.38,300.37,283.02,299.81,287.87z"/>
					</g>
					<g>
						<path fill="#6E1E24" d="M166.02,328c0,0,11.46,62.39,21.01,84.99c6.65,15.74,40.23,56.99,92.95,0.32
							c50.93-54.75,52.21-78.63,52.21-78.63S239.55,438.76,166.02,328z"/>
						<path fill="#FFFFFF" d="M224.59,396.11c52.21,8.28,73.22-12.09,92.4-28.82c14.63-22.4,15.19-32.62,15.19-32.62
							S239.55,438.76,166.02,328c0,0,2.33,12.68,5.76,28.66C181.62,373.56,198.54,391.98,224.59,396.11z"/>
						<path fill="#C1282D" d="M190.77,419.84c11.6,17.66,43.08,43.04,89.21-6.54c1.74-1.87,3.41-3.69,5.03-5.48
							C229.85,397.35,199.94,413.51,190.77,419.84z"/>
						<path fill="#E5E1E1" d="M332.18,334.68c0,0-92.63,104.09-166.16-6.68c0,0,0.87,4.74,2.33,12.05
							c9.5,16.88,29.87,42.7,66.43,45.25c44.54,3.11,81.91-28.33,94.3-40.16C331.98,338.05,332.18,334.68,332.18,334.68z"/>
					</g>
					<path fill="#EC2227" d="M373.56,335.32c0,7.21-7.41,13.05-16.55,13.05c-9.14,0-16.55-5.84-16.55-13.05
						c0-7.21,7.41-13.05,16.55-13.05C366.15,322.26,373.56,328.11,373.56,335.32z"/>
					<path fill="#EC2227" d="M172.39,311.76c0,7.21-6.13,13.05-13.69,13.05c-7.56,0-13.69-5.84-13.69-13.05
						c0-7.21,6.13-13.05,13.69-13.05C166.26,298.71,172.39,304.55,172.39,311.76z"/>
				</g>
			</g>
			<g>
				<path fill="#F4F4F4" d="M-173.5,397.22c-0.74,0.08-1.49,0.09-2.26,0.05c-0.35-0.02-36.08-1.94-72.45,1.72
					c-7.87,0.79-14.89-4.95-15.69-12.82c-0.79-7.87,4.95-14.89,12.82-15.69c38.68-3.9,75.38-1.91,76.92-1.82
					c7.9,0.44,13.94,7.21,13.5,15.1C-161.05,390.91-166.61,396.53-173.5,397.22z"/>
				<path fill="#E6E6E5" d="M-230.02,392.05c-20.49,1.1-29.55-1.81-33.87-8.61c-0.08,0.89-0.08,1.81,0.01,2.74
					c0.8,7.87,7.82,13.61,15.69,12.82c21.53-2.17,42.83-2.38,56.7-2.19C-197.89,394.53-211.13,391.02-230.02,392.05z"/>
				<path fill="#F4F4F4" d="M-96.3,373.03c0,24.76-21.02,44.82-46.96,44.82c-25.93,0-46.95-20.07-46.95-44.82
					c0-18.91-2.05-58.29,14.37-49.65c9.07,4.77,35.81,9.07,35.33-9.07C-140.99,296.16-96.3,348.27-96.3,373.03z"/>
				<path fill="#F4F4F4" d="M-123.34,363.01c-6.88,0-12.95-4.97-14.12-11.97c-6.92-41.56-4.06-69.55-3.93-70.73
					c0.84-7.86,7.92-13.54,15.77-12.71c7.86,0.84,13.55,7.89,12.71,15.75c-0.05,0.54-2.49,25.8,3.71,62.98
					c1.3,7.81-3.97,15.19-11.77,16.49C-121.77,362.95-122.56,363.01-123.34,363.01z"/>
				<path fill="#F4F4F4" d="M-174.35,358.02c-0.17-0.16-17.34-15.78-61.1-19.91c-7.88-0.74-13.66-7.73-12.92-15.61
					c0.74-7.88,7.72-13.66,15.61-12.92c54.18,5.11,76.17,25.68,78.49,28.01l-20.25,20.26L-174.35,358.02z"/>
				<path fill="#F4F4F4" d="M-231.09,429c-6.2,0-11.91-4.06-13.74-10.31c-2.23-7.59,2.13-15.55,9.72-17.77
					c28.76-8.41,74.63-13.82,76.56-14.04c7.85-0.9,14.97,4.71,15.89,12.57c0.91,7.86-4.71,14.97-12.57,15.89
					c-0.45,0.05-45.42,5.35-71.83,13.08C-228.41,428.81-229.76,429-231.09,429z"/>
				<path fill="#E6E6E5" d="M-96.3,373.03c0-9.26-6.25-22.34-14.05-34.14c-4.73-33.07-2.6-55.05-2.56-55.54
					c0.84-7.86-4.86-14.91-12.71-15.75c-0.84-0.09-1.65-0.08-2.46-0.03c3.79,4.12,8.18,10.61,8.89,19.05
					c1.27,15.28-1.91,38.83,0.64,52.84c2.55,14.01-8.28,29.92-8.28,29.92s3.82,14.01-3.18,22.92c-7,8.91-15.92,12.09-28.65,12.73
					c-12.73,0.63-30.56,6.36-60.48,10.82c-13.58,2.02-21.51,1.68-26.13,0.71c0.1,0.71,0.23,1.42,0.44,2.13
					c1.83,6.25,7.54,10.31,13.74,10.31c1.33,0,2.69-0.19,4.03-0.58c22.8-6.68,59.38-11.53,69.27-12.77c4.58,1.42,9.46,2.2,14.53,2.2
					C-117.32,417.85-96.3,397.78-96.3,373.03z"/>
				<path fill="#F4F4F4" d="M-115.67,432.72c-0.75,0-1.51-0.06-2.28-0.18c-7.81-1.25-13.13-8.6-11.88-16.41
					c4.24-26.45,25.93-61.19,26.85-62.66c4.2-6.7,13.05-8.72,19.75-4.5c6.7,4.21,8.71,13.05,4.5,19.74l0,0
					c-5.41,8.63-20.07,34.79-22.81,51.95C-102.67,427.7-108.76,432.72-115.67,432.72z"/>
				<path fill="#E6E6E5" d="M-191.13,342c-4.46-4.46-28.65-10.19-38.2-12.09c-7.51-1.51-15-5.77-17.86-11.85
					c-0.61,1.38-1.02,2.87-1.17,4.46c-0.74,7.87,5.04,14.86,12.92,15.61c21.07,1.99,35.96,6.64,45.76,10.95
					C-188.93,347.18-188.64,344.49-191.13,342z"/>
				<path fill="#F4F4F4" d="M-179.5,373.99c-0.74,0-1.49-0.06-2.25-0.18c-0.35-0.06-35.7-5.55-72.26-5.55
					c-7.91,0-14.32-6.42-14.32-14.33c0-7.91,6.41-14.33,14.32-14.33c38.88,0,75.19,5.67,76.72,5.91
					c7.81,1.23,13.14,8.56,11.92,16.38C-166.47,368.96-172.56,373.99-179.5,373.99z"/>
				<path fill="#E6E6E5" d="M-235.21,363.17c-20.5-0.95-29.21-4.76-32.84-11.96c-0.17,0.89-0.27,1.8-0.27,2.73
					c0,7.91,6.41,14.33,14.32,14.33c21.64,0,42.85,1.93,56.64,3.5C-203.49,368.87-216.31,364.05-235.21,363.17z"/>
				<path fill="#E6E6E5" d="M-83.23,348.97c-0.11-0.07-0.22-0.12-0.33-0.18c1.93,4.24,1.76,9.33-0.89,13.56
					c-5.42,8.63-20.08,34.79-22.82,51.94c-1.13,7.05-7.21,12.07-14.13,12.07c-0.75,0-1.51-0.06-2.28-0.18
					c-1.83-0.29-3.52-0.93-5.03-1.83c1.93,4.21,5.85,7.41,10.76,8.2c0.76,0.12,1.53,0.18,2.28,0.18c6.91,0,13-5.02,14.13-12.06
					c2.74-17.15,17.4-43.31,22.81-51.95C-74.52,362.02-76.54,353.18-83.23,348.97z"/>
			</g>
		</g>
	</g>
</g>
</svg>
