<?xml version="1.0" encoding="utf-8"?>
<!-- Generator: Adobe Illustrator 25.2.3, SVG Export Plug-In . SVG Version: 6.00 Build 0)  -->
<svg version="1.1" id="Layer_1" xmlns="http://www.w3.org/2000/svg" xmlns:xlink="http://www.w3.org/1999/xlink" x="0px" y="0px"
	 viewBox="0 0 576 576" enable-background="new 0 0 576 576" xml:space="preserve">
<g>
	<g>
		<defs>
			<path id="SVGID_1_" d="M576.82,287.6c0,159.28-129.13,288.4-288.4,288.4C129.13,576,0,446.88,0,287.6S129.13-0.81,288.41-0.81
				C447.69-0.81,576.82,128.31,576.82,287.6z"/>
		</defs>
		<use xlink:href="#SVGID_1_"  overflow="visible" fill="#F9E3D9"/>
		<clipPath id="SVGID_2_">
			<use xlink:href="#SVGID_1_"  overflow="visible"/>
		</clipPath>
		<g clip-path="url(#SVGID_2_)">
			<g>
				<path fill="#E9996E" d="M377.92,511.09c4.84,0,9.75-0.9,14.52-2.79c20.19-8.03,30.05-30.89,22.03-51.08l-1.93-4.87
					c-24.34-61.36-29.83-71.66-38.72-80.07c-24.1-22.76-183.21-149.79-201.27-164.19c-16.98-13.55-41.72-10.77-55.27,6.22
					c-13.55,16.98-10.76,41.72,6.22,55.27c66.25,52.84,168.46,135.17,192.98,156.87c5.58,11.11,18.01,42.45,22.95,54.91l1.95,4.91
					C347.49,501.69,362.29,511.09,377.92,511.09z"/>
			</g>
			<g>
				<path fill="#FDC72F" d="M461.67,335.84c-15.73,32.45-29.08,73.12-46.88,73.67c-138.29,4.33-24.89,65.3-60.29,120.04
					c-35.4,54.74-209.54,15.73-209.54,15.73s-26.44-27.69-23.49-87.1c2.95-59.4,11.4-109.73,8.84-142.49
					c-2.55-32.76,161.15-125.38,161.15-125.38l178.09,101.12L461.67,335.84z"/>
			</g>
			<g>
				<path fill="#F8B62E" d="M154.89,331.91c0,0-4.92,80.63,15.73,114.06c20.65,33.43,154.37,50.15,154.37,50.15l42.28-31.46
					c0,0-49.7-27.43-5.5-47.07c10.37-4.61,44.36-14.4,50.13-27.08c12.58-27.69,11.76-62.74,9.45-74.32
					C418.4,301.43,154.89,331.91,154.89,331.91z"/>
			</g>
			<g>
				<path fill="#EB5857" d="M198.81,669.73c-30.95-60.42-32.57-106.06-33.11-115.64c-2.83-50.97,84.65-100.25,135.7-100.25
					c66.86,0,103.36,28.69,106.19,79.65c0.05,0.91,0.71,67.4,56.16,136.25H198.81z"/>
			</g>
			<g>
				<path fill="#FAAF85" d="M132.95,669.73c-3.45-26.84-5.92-56.73-5.92-87.41c0-17.38,14.08-31.47,31.46-31.47
					s31.46,14.09,31.46,31.47c0,30.67,2.81,60.84,6.54,87.41H132.95z"/>
			</g>
			<g>
				<path fill="#FAAF85" d="M374.12,502.41c10.1-14.14,29.75-17.42,43.89-7.31c21.91,15.65,107.79,52.76,168.57,77.44v67.48
					c-1.05-0.29-2.1-0.5-3.12-0.91c-16.6-6.58-163.32-65.14-202.03-92.8C367.29,536.2,364.02,516.55,374.12,502.41z"/>
			</g>
			<g>
				<path fill="#E9996E" d="M529.69,548.71l11.24,4.9c0,0-1.7,32.73,8.74,41.83c7.56,6.59,21.79,11.23,36.91,13.04v31.54
					c-1.05-0.29-2.1-0.5-3.12-0.91c-9.46-3.75-31.77-11.56-81.68-33.74L529.69,548.71z"/>
			</g>
			<g>
				<path fill="#E9996E" d="M163.07,669.73h-30.12c-3.45-26.84-5.92-56.73-5.92-87.41c0-17.38,14.08-31.47,31.46-31.47
					c1.39,0,2.73,0.12,4.07,0.29C161.83,576.92,160.84,628.84,163.07,669.73z"/>
			</g>
			<g>
				<path fill="#EB5857" d="M491.16,627.12l39.89-81.18c0,0-102.49-45.21-178.7-85.46l-62.8,50.49l37.1,25.86
					c45.57,31.76,120.73,68.79,123.91,70.35L491.16,627.12z"/>
			</g>
			<g>
				<path fill="#EB5857" d="M199.07,647.7l3.22-45.12c1.46-20.41,16.65-65.6,26.98-91.16l25.28-50.94c0,0-53.65,10.35-81.97,31.71
					c-59.97,45.23-63.74,149.07-63.74,149.07L199.07,647.7z"/>
			</g>
			<g>
				<path fill="#F3A179" d="M252.59,464.44c17.27-6.72,34.48-10.61,48.81-10.61c1.74,0,3.38,0.1,5.08,0.14
					c1.77,4.65,2.78,9.67,2.78,14.93c0,23.17-18.78,41.95-41.95,41.95s-41.95-18.78-41.95-41.95c0-0.32,0.05-0.63,0.05-0.96
					c16.37-5.01,29.15-7.47,29.15-7.47L252.59,464.44z"/>
			</g>
			<g>
				<path fill="#DB4C4C" d="M450.58,607.18c-1.25-0.61-13.58-6.69-30.84-15.75c8.07,22.91,21.56,50.41,44.01,78.3H198.81
					c-4.03-7.86-7.61-15.5-10.71-22.81l-79.27-5.67c0,0,3.77-103.83,63.74-149.07c8.25-6.22,18.66-11.5,29.25-15.88
					c0.6,28.41,45.18,165.38,108.41,186.96c61.51,21.01,33.42-153.28,33.89-204.48c2.59,0.67,5.14,1.39,7.59,2.19l0.63-0.5
					c1.31,0.69,2.66,1.39,3.99,2.09c6.99,2.64,13.23,5.91,18.81,9.71c72.33,36.8,155.9,73.66,155.9,73.66l-39.89,81.18
					L450.58,607.18z"/>
			</g>
			<g>
				<g>
					<path fill="#F3A179" d="M370.89,309.01c0,15.39,12.47,27.86,27.86,27.86c15.39,0,27.86-12.48,27.86-27.86
						s-12.47-27.86-27.86-27.86C383.36,281.15,370.89,293.63,370.89,309.01z"/>
				</g>
				<g>
					<path fill="#F3A179" d="M267.32,495.13c11.67,0,21.29-9.3,21.61-21.05c1.13-41.99,8.54-59.76,8.61-59.93
						c5.05-10.83,0.29-23.54-10.54-28.59c-10.81-5.07-23.76-0.21-28.82,10.61c-1.13,2.43-11.11,25.22-12.5,76.74
						c-0.33,11.94,9.09,21.88,21.04,22.21C266.92,495.13,267.12,495.13,267.32,495.13z"/>
				</g>
				<g>
					<path fill="#E18B5D" d="M251.06,420.74l8.39-12.14l34.36,19.09c-1.54,7.27-3.18,17.61-4.16,31.46
						c-3.83,0.61-7.98,1.06-12.5,1.24c-14.08,0.56-23.9-2.27-30.55-5.67C247.63,440.73,249.3,429.49,251.06,420.74z"/>
				</g>
				<g>
					<circle fill="#F3A179" cx="153.62" cy="309.01" r="27.86"/>
				</g>
				<g>
					<path fill="#FAAF85" d="M394.81,194.83c-1.32,50.14,2.95,105.21,3.93,143.56c0.98,38.35-50.15,87.51-107.18,105.21
						c-57.02,17.7-110.13-52.12-119.96-69.81c-9.83-17.71-23.6-52.12-22.61-111.12c0.98-59-8.36-145.04,91.93-153.89
						C341.22,99.94,395.79,157.47,394.81,194.83z"/>
				</g>
				<g>
					<path fill="#F3A179" d="M149.23,282.1c-0.26-6.17-0.35-12.62-0.24-19.43c0.35-21.27-0.61-46.04,2.68-69.45l7.44-30
						c4.46-11.53,10.9-22.02,20.25-30.68L375.91,152c12.79,14.28,19.24,29.78,18.9,42.83c-0.65,24.55,0.05,50.27,1.04,74.63
						c-12.69,0.31-64.72,0-107.56-23.42c-49.17-26.88-74.73-69.49-74.73-69.49s8.52,38.02-9.18,69.49
						C193.61,265.19,167.79,276.31,149.23,282.1z"/>
				</g>
				<g>
					<path fill="#F3A179" d="M185.37,373.21c18.36,27.54,73.42,59,102.92,54.41c29.5-4.59,85.21-48.51,95.7-85.22
						c10.48-36.71-1.31-77.35-1.31-77.35l12.68-8.69c1.04,30.22,2.79,59.12,3.39,82.02c0.98,38.35-50.15,87.51-107.18,105.21
						c-57.02,17.7-110.13-52.12-119.96-69.81c-8.59-15.46-20.18-43.69-22.31-89.91C155.36,306.76,169.06,348.75,185.37,373.21z"/>
				</g>
				<g>
					<path fill="#010101" d="M321.68,274.12c0.15,12.06,7.99,21.74,17.51,21.62c9.52-0.12,17.12-9.99,16.97-22.05
						c-0.14-12.06-7.98-21.74-17.5-21.62S321.53,262.06,321.68,274.12z"/>
				</g>
				<g>
					<path fill="#DE7859" d="M262.86,307.16c-2.52,17.16,1.25,31.61,19.18,31.24c18.67-0.38,21.26-16.03,15.65-33.16
						c-6.05-18.46-9.56-31.77-19.18-31.25C268.89,274.53,265.46,289.42,262.86,307.16z"/>
				</g>
				<g>
					<path fill="#EA8C68" d="M268.39,304.29c-2.27,16.59,1.24,30.57,17.71,30.26c17.16-0.32,19.5-15.44,14.29-32.02
						c-5.61-17.86-8.88-30.74-17.71-30.25S270.74,287.14,268.39,304.29z"/>
				</g>
				<g>
					<path fill="#FFFFFF" d="M329.66,267.55c0.06,4.25,2.5,7.67,5.48,7.63c2.97-0.04,5.33-3.51,5.28-7.76
						c-0.05-4.25-2.5-7.66-5.47-7.63C331.98,259.83,329.61,263.31,329.66,267.55z"/>
				</g>
				<g>
					<path fill="#010101" d="M203.69,274.12c0.15,12.06,7.99,21.74,17.51,21.62c9.52-0.12,17.12-9.99,16.97-22.05
						c-0.14-12.06-7.99-21.74-17.5-21.62C211.14,252.19,203.54,262.06,203.69,274.12z"/>
				</g>
				<g>
					<path fill="#FFFFFF" d="M211.92,267.55c0.05,4.25,2.5,7.67,5.47,7.63c2.97-0.04,5.33-3.51,5.28-7.76
						c-0.05-4.25-2.5-7.66-5.47-7.63C214.23,259.83,211.86,263.31,211.92,267.55z"/>
				</g>
				<g>
					<path fill="#FFFFFF" d="M315.67,357.95c0,0-10.03,2.51-36.33,2.93c-26.31,0.41-38.42-2.51-38.42-2.51s8.77,38.42,38.84,38.42
						C309.83,396.78,315.67,357.95,315.67,357.95z"/>
				</g>
				<g>
					<path fill="#EA8C68" d="M315.67,357.95c0,0-14.61-4.73-37.37-4.73c-22.76,0-37.38,5.15-37.38,5.15s16.42,7.38,37.38,6.82
						C299.25,364.63,315.67,357.95,315.67,357.95z"/>
				</g>
				<g>
					<path fill="#EA8C68" d="M315.67,357.95c0,0-7.24,41.2-36.47,41.48c-29.23,0.27-38.28-41.06-38.28-41.06s15.18,26.86,38.5,26.86
						C299.8,385.23,315.67,357.95,315.67,357.95z"/>
				</g>
				<g>
					<path fill="#FDC72F" d="M189.94,134.27c0,0,5.26-87.51,104.57-89.48s195.68,95.38,195.68,172.07
						c0,76.69-28.52,118.97-28.52,118.97s-5.9-46.21-57.03-60.96S246.97,232.6,189.94,134.27z"/>
				</g>
				<g>
					<path fill="#FDC72F" d="M130.26,297.22c0,0,57.07-37.48,71.82-87.63c14.74-50.14-8.85-85.15-8.85-85.15
						s-46.19-18.43-77.17,45.36C85.08,233.58,130.26,297.22,130.26,297.22z"/>
				</g>
				<g>
					<path fill="#F9D232" d="M310.25,203.11c-39.4-13.53-93.04-56.14-118.58-79.8c2.01-9.1,6.29-22.65,15.23-35.95
						c50.67-29.52,110.45-34.96,168.24-3.22c69.81,38.35,81.61,141.59,81.61,141.59S376.13,225.72,310.25,203.11z"/>
				</g>
				<g>
					<path fill="#F9D232" d="M183.41,143.12c0,0,8.84,61.95-18.69,96.36c-27.54,34.42-35.4,36.38-35.4,36.38
						S89.01,159.84,183.41,143.12z"/>
				</g>
				<g>
					<path fill="#B98A2D" d="M206.97,236.54c8.86-7.75,23.22-4.42,23.37-4.38l1.84-7.65c-0.75-0.17-18.5-4.29-30.39,6.11
						L206.97,236.54z"/>
				</g>
				<g>
					<path fill="#F39D70" d="M349.25,320.44c0,6.34,7.34,11.48,16.39,11.48c9.05,0,16.39-5.14,16.39-11.48
						c0-6.33-7.34-11.47-16.39-11.47C356.59,308.97,349.25,314.1,349.25,320.44z"/>
				</g>
				<g>
					<path fill="#F39D70" d="M177.51,320.44c0,6.34,7.33,11.48,16.39,11.48s16.39-5.14,16.39-11.48c0-6.33-7.34-11.47-16.39-11.47
						S177.51,314.1,177.51,320.44z"/>
				</g>
				<g>
					<path fill="#E58A61" d="M406.6,293.56c0,0,9.5,4.59,9.5,14.42c0,9.83-8.19,13.44-8.19,13.44S414.47,307.33,406.6,293.56z"/>
				</g>
				<g>
					<path fill="#E58A61" d="M145.06,293.56c0,0-9.5,4.59-9.5,14.42c0,9.83,8.19,13.44,8.19,13.44S137.19,307.33,145.06,293.56z"/>
				</g>
				<g>
					<path fill="#F4A187" d="M282.13,316.48c1.26-3.78,12.29-2.39,11.65,2.99C293.13,324.87,279.47,324.48,282.13,316.48z"/>
				</g>
			</g>
			<g>
				<path fill="#E9996E" d="M132.96,669.73c-0.03-0.25-0.07-0.48-0.1-0.72l62.7-6.14c0.31,2.34,0.64,4.58,0.96,6.86H132.96z"/>
			</g>
		</g>
	</g>
</g>
</svg>
