<?xml version="1.0" encoding="utf-8"?>
<!-- Generator: Adobe Illustrator 25.2.3, SVG Export Plug-In . SVG Version: 6.00 Build 0)  -->
<svg version="1.1" id="Layer_1" xmlns="http://www.w3.org/2000/svg" xmlns:xlink="http://www.w3.org/1999/xlink" x="0px" y="0px"
	 viewBox="0 0 576 576" enable-background="new 0 0 576 576" xml:space="preserve">
<g>
	<g>
		<defs>
			<path id="SVGID_1_" d="M575.85,288.08C575.85,447.09,446.94,576,287.92,576C128.91,576,0,447.09,0,288.08
				C0,129.06,128.91,0.16,287.92,0.16C446.94,0.16,575.85,129.06,575.85,288.08z"/>
		</defs>
		<use xlink:href="#SVGID_1_"  overflow="visible" fill="#F9E3D9"/>
		<clipPath id="SVGID_2_">
			<use xlink:href="#SVGID_1_"  overflow="visible"/>
		</clipPath>
		<g clip-path="url(#SVGID_2_)">
			<path fill="#364D53" d="M22.26,586.03c29.84-32.08,62.44-64.99,91.58-89.68c70.96-60.13,128.35-26.17,128.35-26.17
				c-10.11,26.88-35.6,70.92-71.04,115.85H22.26z"/>
			<path fill="#364D53" d="M386.84,586.03c-13.64-15.7-28.15-32.35-43.66-50.07c0,0-43.3-156.09,102.51-64.45
				c27.74,17.44,67.75,64.17,106.05,114.52H386.84z"/>
			<path fill="#367D8A" d="M324.38,424.76c1.23-0.31,17.83-28.74,37.81-18.03l-2.04,23.85L324.38,424.76z"/>
			<path fill="#DF806B" d="M225.22,407.14c1.63,6.52,1.32,57.8,1.32,57.8l20.49,37.79c0,0,108.63-26.3,110.26-56.46
				c1.63-30.16-6.11-63.19,2.85-91.72C369.12,326.01,225.22,407.14,225.22,407.14z"/>
			<path fill="#B1C7BC" d="M389.86,586.03c-12.93-57.4-29.73-125.82-37.49-131.61c-0.2-0.2-0.48-0.29-0.78-0.39
				c13.7-4.89,25.58-8.36,27.69-4.5c5.83,10.65,23.94,79.99,37.66,136.5H389.86z"/>
			<path fill="#D9EAD8" d="M148.04,586.03c13.97-43.89,32.77-78.77,57.97-97.37l12.89-17.28l15.29,7.11l6.13,10.22l3.31,6.58
				l3.37,6.77c0,0,65.35-34.44,104.58-48.04c0.3,0.1,23.65-10.81,23.85-10.61c11.29,8.42,24.94,98.04,34.05,142.61H148.04z"/>
			<path fill="#F6B185" d="M326.75,365.69c-12.26,47.15-52.59,63.79-104.27,63.26c-13.26-3.77-25.06-11.86-30.07-27.55
				c-6.98-21.78-25.07-59.9-36.1-83.56c-10.06-21.6-12.69-166.91-12.69-166.91c58.65-99.41,131.33-86.26,180.54-56.47
				c-23.86,16.16-41.39,28.36-41.39,28.36s4.91,33.09,25.8,45.85C329.46,181.42,370.53,197.42,326.75,365.69z"/>
			<path fill="#E39874" d="M383.79,288.05c-11.87,53.49-44.31,150.78-145.51,143.59c-5.29-0.37-10.64-1.2-15.8-2.69
				c51.68,0.53,92.01-16.11,104.27-63.26c43.78-168.28,2.71-184.27-18.17-197.03c-20.89-12.76-25.8-45.85-25.8-45.85
				s17.53-12.2,41.39-28.36c28.96,17.53,49.79,40.81,54.85,50.27C392.62,170.24,396.04,232.9,383.79,288.05z"/>
			<path fill="#FFFFFF" d="M149.2,247.14c0.5,4.79,0.77,18.84,18.44,20.69c17.68,1.84,27.53-12.18,26.95-23.03L149.2,247.14z"/>
			<path fill="#FFFFFF" d="M238.89,242.61c0,0,1.24,17.84,20.41,18.5c19.18,0.67,31.72-11.36,35.12-24.81L238.89,242.61z"/>
			<g>
				<path fill="#66292E" d="M267.57,243.5c0.59,7.75-4.8,14.48-12.02,15.03c-7.23,0.55-13.56-5.29-14.16-13.04
					c-0.58-7.74,4.8-14.48,12.03-15.03C260.64,229.92,266.98,235.76,267.57,243.5z"/>
				<path fill="#29110C" d="M261.1,244c0.3,3.91-2.42,7.31-6.07,7.59c-3.65,0.28-6.86-2.68-7.16-6.59c-0.29-3.92,2.43-7.32,6.08-7.6
					C257.6,237.13,260.8,240.08,261.1,244z"/>
			</g>
			<g>
				<path fill="#66292E" d="M178.15,250.49c0.59,7.74-4.79,14.47-12.02,15.03c-7.22,0.55-13.57-5.29-14.15-13.04
					c-0.59-7.75,4.8-14.48,12.03-15.03C171.23,236.91,177.57,242.74,178.15,250.49z"/>
				<path fill="#29110C" d="M171.69,250.98c0.3,3.92-2.42,7.32-6.07,7.59c-3.66,0.28-6.86-2.67-7.16-6.59
					c-0.3-3.91,2.42-7.32,6.07-7.59C168.18,244.11,171.39,247.06,171.69,250.98z"/>
			</g>
			<path fill="#D57D56" d="M149.2,247.14c0,0,6.41-19.87,14.47-21.81c12.36-2.97,22.88-4.52,30.93,19.47L149.2,247.14z"/>
			<path fill="#D57D56" d="M238.89,242.61c0,0-2.51-27.91,27.1-25.85c28.44,1.98,28.44,19.55,28.44,19.55
				S246.94,241.09,238.89,242.61z"/>
			<polygon fill="#1D1D1B" points="233.42,239.4 238.89,242.61 294.42,236.31 294.18,234.56 			"/>
			<polygon fill="#1D1D1B" points="149.2,247.14 145.46,244.75 192.46,242.95 194.6,244.79 			"/>
			<path fill="#4D2721" d="M216.07,31.47c-31.88-1.68-105.34,73.14-110.73,115.7c0,0,34.18-41.88,84.41,1.25
				c0,0,123.93-33.38,160.33-20.81c21.39,7.38,42.44-33.22,4.4-57.26C327.78,53.47,275.54,34.59,216.07,31.47z"/>
			<path fill="#4D2721" d="M335.17,170.89c0,0,39.97-41.36,2.04-61.47c0,0,74.95-66.57,89.42,42.06
				c5.2,39.05-46.04,112.73-46.04,112.73S363.58,191.73,335.17,170.89z"/>
			<path fill="#4D2721" d="M133.15,182.38c-1.74-10.41,13.17-53.7,36.83-57.42c23.67-3.71-55.66-26.43-59.21,15.05
				C107.22,181.48,133.15,182.38,133.15,182.38z"/>
			<path fill="#D65D54" d="M202.54,278.16c-2.67,4.87-12.69,28.25-8.27,34.63c4.42,6.37,24.49,5.1,36.73,1.51
				c12.25-3.58,12.76,3.43,15.76-2.06c3-5.48,3.07-15.72-6.84-16.4c0,0,7.48,6.56,4.53,12.22c-2.94,5.66-3.71-3.51-14.17,0.7
				c-10.46,4.22-30.22,9.42-33.41,3.07C193.66,305.49,202.54,278.16,202.54,278.16z"/>
			<path fill="#D65D54" d="M194.33,224.1c0,0,16.8,28.74,7.39,55.21c0,0,13.62-30.52-6.14-56.37L194.33,224.1z"/>
			<path fill="#884634" d="M196.97,210.49c0,0,0.01,0.31,0.01,0.85c-0.01,2.71-0.48,11.18-5.72,13.4
				c-6.28,2.66-34.31-7.37-48.94,2.53c-8.84,5.98-4.44-8.82-0.31-12.31C146.14,211.49,193.57,199.2,196.97,210.49z"/>
			<path fill="#884634" d="M234.37,194.9c0,0-1.49,4.17-1.51,4.7c-0.12,2.75,0.01,11.28,5.87,13.4c7.01,2.53,44.18-11.23,58.63,0.32
				c14.45,11.54,4.64-9.64,0.1-13.05C292.92,196.86,235.66,187.47,234.37,194.9z"/>
			<g>
				<path fill="#E39874" d="M367.05,248.17c-0.95-19.78,7.5-38.98,22.2-52.25c9.08-8.2,20.12-13.04,29.12-1.55
					c15.74,20.12,10.21,73.01-19.37,85.36c-11.37,4.75-24.32-1.55-28.4-13.17C368.84,261.58,367.41,255.42,367.05,248.17z"/>
				<path fill="#D65D54" d="M403.92,210.41c-15.69-0.27-17.26,36.35-17.26,36.35c1.45-8.82,3.41-15.27,5.4-20
					c0.07,7.85,1.55,24.91,13.01,28.55c0,0-10.92-6.39-9.47-33.13c0.09-1.66,0.71-3.3,1.77-4.58c0.14-0.16,0.27-0.31,0.4-0.46
					c1.59-1.81,3.95-2.86,6.36-2.67c12.3,0.97,10.97,14.66,10.97,14.66S419.87,210.69,403.92,210.41z"/>
			</g>
			<path fill="#4D2721" d="M346.34,277.61c0,0,21.56-76.26-11.17-106.72l34.03,9.1c0,0,7.69,70,1.4,86.58L346.34,277.61z"/>
			<g>
				<path fill="#D65D54" d="M274.92,336.77c-13.14,8.01-38.82,20.94-65.37,20.51c-1.23-0.09-2.59-0.01-3.82-0.25
					c-3.51-0.12-6.88-0.4-10.43-1.28c0,0-2.27-11.31,0.82-10.56l2.33,6.58c0,0,2.91,0.31,7.95,0.5c0.76-0.05,1.68,0.06,2.75,0.01
					C223.91,352.11,251.39,350.05,274.92,336.77z"/>
				<path fill="#D65D54" d="M279.95,322.68c-1.64,1.52,8.3-0.68,9.45,7.59c1.15,8.27,0.34,10.94,0.34,10.94s4.98-14.07,2.69-16.81
					C290.15,321.66,281.32,321.41,279.95,322.68z"/>
				<path fill="#894634" d="M280.51,356.14c-1.49,9.22-1.89,10.02-5.17,14.31c-7.56,9.85-60.34,21.26-61.02,13.51
					c-0.2-2.31-1.99-11.58-2.87-16.71C223.25,368.61,248.75,369.39,280.51,356.14z"/>
				<path fill="#FFFFFF" d="M283.91,330.97c0,0-1,12.7-3.4,25.17c-31.76,13.25-57.26,12.47-69.06,11.11
					c-0.68-4.23-1.49-8.15-1.9-9.96c26.54,0.43,52.22-12.51,65.37-20.51c1.03-0.67,2.22-1.34,3.25-2c1.92-1.17,3.24-2.15,4.27-2.81
					C283.47,331.29,283.91,330.97,283.91,330.97z"/>
			</g>
			<path fill="#DF3128" d="M199.57,586.03c16.44-32.3,35.02-61.38,35.02-61.38l6.43-1.61c0,0,3.74,28.95,5.15,62.99H199.57z"/>
			<path fill="#DF3128" d="M232.18,473.94c1.85,1.13-2.41,15.43,12.06,30.3c14.47,14.88-13.87,12.67-13.87,12.67
				s-19.6-35.63-10.86-39.85S227.06,470.83,232.18,473.94z"/>
			<path fill="#DF3128" d="M292.79,482.83c-0.9,0.91-27.14,18.4-49.45,19.61c-22.31,1.2,2.11,25.63,17.79,18.99
				s44.33-21.71,46.44-30.46C309.68,482.23,292.79,482.83,292.79,482.83z"/>
			<path fill="#364D53" d="M363.65,586.03l15.65-140.15c0,0,14.12,49.37,28.2,140.15H363.65z"/>
			<path fill="#656666" d="M404.83,226.1l-1.12,15.96c1.85,5.43-0.53,11.4-5.61,14.05l-41.55,25.58c-6.9,3.6-22,3.32-24.17-8.12
				l-1.05-5.47c-0.83-4.29,0.82-8.68,4.27-11.36l44.9-34.97C386.8,216.87,402.25,218.54,404.83,226.1z"/>
			<path fill="#898989" d="M406.19,227.52l5.08,14.88c1.85,5.42-0.53,11.39-5.61,14.05l-48.94,25.56c-6.9,3.6-15.31-0.46-16.79-8.1
				l-1.05-5.47c-0.82-4.29,0.83-8.67,4.27-11.35l44.91-34.97C394.35,217.21,403.61,219.97,406.19,227.52z"/>
			<path fill="#353635" d="M385.64,242.05c0,5.19,4.2,9.4,9.39,9.4c5.19,0,9.4-4.2,9.4-9.4c0-5.19-4.21-9.39-9.4-9.39
				C389.84,232.66,385.64,236.86,385.64,242.05z"/>
			<path fill="#656666" d="M375.33,229.45c0,0-0.46-21.3,9.16-29.09c0,0-0.46-4.35-4.35-0.92c-3.9,3.44-11.91,10.32-13.51,34.37
				L375.33,229.45z"/>
			<g>
				
					<rect x="374.87" y="243.58" transform="matrix(0.8987 -0.4387 0.4387 0.8987 -72.7692 190.6655)" fill="#656666" width="2.75" height="18.47"/>
			</g>
			<g>
				
					<rect x="369.61" y="246.9" transform="matrix(0.8982 -0.4396 0.4396 0.8982 -74.8273 189.137)" fill="#656666" width="2.74" height="18.47"/>
			</g>
			<g>
				
					<rect x="364.33" y="250.23" transform="matrix(0.8987 -0.4387 0.4387 0.8987 -76.7515 186.7165)" fill="#656666" width="2.75" height="18.47"/>
			</g>
			<polygon fill="#364D53" points="368.53,586.03 379.72,443.74 465,586.03 			"/>
			<polygon fill="#364D53" points="268.05,586.03 379.72,443.74 390.01,586.03 			"/>
			<path fill="#364D53" d="M140.58,586.03c12.65-49.54,29.23-86.46,50.96-100.66l0.67,15.74l3.79,84.91H140.58z"/>
			<path fill="#2A3E44" d="M351.26,511.78c2.4,6.02,11.05,59.91,13.33,74.25H261.47l100.89-142.29l48.6,63.87
				C410.97,507.61,348.48,504.84,351.26,511.78z"/>
			<polygon fill="#2A3E44" points="161.17,586.03 154.07,570.1 183.92,521.5 165.18,524.28 213.78,465.96 205.72,586.03 			"/>
			<path fill="#96A89F" d="M344.89,459.28l-57.18,26.49l-41.88,19.4c7.33-22,16.5-25.48,16.5-25.48s0.05,0,0.14-0.05
				c6.75-2.75,13.02-5.5,18.86-8.16C306.39,464.26,344.89,459.28,344.89,459.28z"/>
			<path fill="#B1C7BC" d="M379.29,445.88c0,15.05-79.08,75.8-79.08,75.8c-0.87-19.2-6.18-29.96-12.5-35.9
				c-10.42-9.79-23.78-6.51-25.23-6.13c6.75-2.75,13.02-5.5,18.86-8.16c78.55-35.95,80.87-64.75,80.87-64.75
				S379.29,430.77,379.29,445.88z"/>
			<path fill="#B1C7BC" d="M200.25,517.8c0,0-1.57-32.77,21.13-37.73c6.75-1.47,13.78,1.55,17.83,7.15
				c2.69,3.73,3.22,9.19,8.1,15.45c0,0-15.43-31.8-16.34-37.52c-0.91-5.73-5.73-29.06-5.73-29.06S190.64,462,200.25,517.8z"/>
			<path fill="#DF3128" d="M264.87,508.32c3.07,2.3-6.77,34.71-29.21,35.56c-22.44,0.85-11.86-40.22-11.86-40.22
				S249.63,496.89,264.87,508.32z"/>
		</g>
	</g>
</g>
</svg>
