<?xml version="1.0" encoding="utf-8"?>
<!-- Generator: Adobe Illustrator 25.2.3, SVG Export Plug-In . SVG Version: 6.00 Build 0)  -->
<svg version="1.1" id="Layer_1" xmlns="http://www.w3.org/2000/svg" xmlns:xlink="http://www.w3.org/1999/xlink" x="0px" y="0px"
	 viewBox="0 0 576 576" enable-background="new 0 0 576 576" xml:space="preserve">
<g>
	<g>
		<defs>
			<circle id="SVGID_1_" cx="287.2" cy="288" r="288"/>
		</defs>
		<use xlink:href="#SVGID_1_"  overflow="visible" fill="#F9E3D9"/>
		<clipPath id="SVGID_2_">
			<use xlink:href="#SVGID_1_"  overflow="visible"/>
		</clipPath>
		<g clip-path="url(#SVGID_2_)">
			<path fill="#3282C4" d="M404.99,682.23h42.16c-20.42-89.69-55.69-153.59-78.38-189.55c-3.4-0.51-37.9-3.92-37.9-3.92l-4.05,22.96
				c1.61,2.58,3.31,5.27,5.08,8.07C353.69,554.33,385.7,605.08,404.99,682.23z"/>
			<path fill="#F1AB1E" d="M256.04,508.18c-7.79-11.5-23.43-14.5-34.92-6.71L93.87,587.72v60.76l155.47-105.37
				C260.83,535.32,263.83,519.68,256.04,508.18z"/>
			<path fill="#F1AB1E" d="M641.89,357.55l-304.02,147.7c-12.49,6.07-17.7,21.12-11.63,33.61c4.35,8.95,13.31,14.16,22.63,14.16
				c3.69,0,7.43-0.82,10.97-2.53l282.04-137.03V357.55z"/>
			<path opacity="0.4" fill="#DB7027" d="M256.7,509.27c-1.82,3-4.28,5.67-7.36,7.77L93.87,622.4v26.07l155.47-105.37
				C260.48,535.55,263.61,520.64,256.7,509.27z"/>
			<path opacity="0.4" fill="#DB7027" d="M641.89,393.09L352.39,533.73c-3.54,1.72-7.28,2.53-10.97,2.53
				c-6.57,0-12.96-2.6-17.69-7.26c0.15,3.33,0.95,6.68,2.51,9.87c4.35,8.95,13.31,14.16,22.63,14.16c3.69,0,7.43-0.82,10.97-2.53
				l282.04-137.03V393.09z"/>
			<path fill="#F1AB1E" d="M369.53,682.23c-2.08-77.15-0.98-93.54,0.19-110.65c0.13-1.99,0.27-3.99,0.4-6.07
				c2.78-43.12-29.92-80.33-73.04-83.12c-43.12-2.79-80.33,29.92-83.12,73.04c-0.12,1.89-0.25,3.71-0.37,5.51
				c-1.45,21.26-2.73,40.17-0.6,121.28H369.53z"/>
			<path opacity="0.4" fill="#DB7027" d="M246.28,682.23c0.18-3.88,0.24-8.1,0.12-12.78c-1.71-69.33,14.93-166.71,17.64-182.03
				c-8.6,3.3-16.49,8.06-23.34,14.03l-10.14,70.21l-16.84,110.57H246.28z"/>
			<path opacity="0.4" fill="#DB7027" d="M369.53,682.23c-2.08-77.15-0.98-93.54,0.19-110.65c0.13-1.99,0.27-3.99,0.4-6.07
				c2.15-33.38-16.96-63.2-45.7-76.27c-3.3,20.35-28.18,138.07-108.68,192.99H369.53z"/>
			<g>
				<path fill="#5795CF" d="M452.8,682.23c-30.57-8.18-88.43-13.71-154.82-13.71c-66.4,0-121.88,5.53-151.02,13.71H452.8z"/>
				<path opacity="0.2" fill="#1F5A2D" d="M237.29,682.23c0.1-4.03,0.23-8.06,0.44-12.08c-14.89,0.84-28.7,1.98-41.22,3.39
					c-0.12,2.89-0.14,5.8-0.21,8.69H237.29z"/>
				<path opacity="0.2" fill="#1F5A2D" d="M354.34,682.23c-0.16-3.98-0.29-8.05-0.37-12.34c-13.06-0.66-26.79-1.09-41-1.27
					c0.05,4.73,0.18,9.22,0.34,13.61H354.34z"/>
				<g>
					<path fill="#5795CF" d="M348.99,682.23c-2.22-44.37,0.16-109.04,19.78-189.55l-39.82-5.98
						c-20.32,83.39-23.13,149.26-21.01,195.53H348.99z"/>
				</g>
				<g>
					<path fill="#5795CF" d="M231.56,682.23c0.91-95.89,32.49-195.79,32.85-196.89c0,0-24.83,3.73-46.93,17.99
						c-10.03,36.61-26.39,107.11-26.94,178.89H231.56z"/>
				</g>
				<path opacity="0.2" fill="#1F5A2D" d="M452.47,682.23c-15.76-4.22-38.76-7.73-66.45-10.14c-0.08,3.01-0.14,6.42-0.21,10.14
					H452.47z"/>
			</g>
			<g>
				<g>
					<circle fill="#50BBC6" cx="77.95" cy="226.98" r="17.21"/>
					<circle fill="#50BBC6" cx="107.08" cy="219.04" r="19.86"/>
					<path fill="#50BBC6" d="M133.56,247.5c0-13.53-10.96-24.49-24.49-24.49c-13.52,0-24.49,10.96-24.49,24.49
						c0,13.53,10.96,24.49,24.49,24.49C122.59,272,133.56,261.03,133.56,247.5z"/>
					<path fill="#50BBC6" d="M107.74,204.47c0,12.62,10.22,22.84,22.84,22.84s22.84-10.23,22.84-22.84
						c0-12.61-10.22-22.84-22.84-22.84S107.74,191.86,107.74,204.47z"/>
					<path fill="#50BBC6" d="M155.41,271c0,10.42-8.45,18.87-18.87,18.87c-10.42,0-18.87-8.45-18.87-18.87
						c0-10.42,8.45-18.87,18.87-18.87C146.95,252.14,155.41,260.58,155.41,271z"/>
					<path fill="#50BBC6" d="M112.7,234.76c0,16.72,13.56,30.28,30.29,30.28s30.28-13.56,30.28-30.28
						c0-16.73-13.56-30.29-30.28-30.29S112.7,218.03,112.7,234.76z"/>
					<circle fill="#50BBC6" cx="159.37" cy="200.5" r="27.8"/>
					<path fill="#50BBC6" d="M168.31,200.01c0,12.34,10.01,22.34,22.35,22.34c12.34,0,22.34-10.01,22.34-22.34
						c0-12.34-10.01-22.35-22.34-22.35C178.32,177.66,168.31,187.67,168.31,200.01z"/>
					<path fill="#50BBC6" d="M192.15,274.97c0,13.16-10.67,23.84-23.84,23.84c-13.16,0-23.83-10.67-23.83-23.84
						c0-13.16,10.67-23.83,23.83-23.83C181.47,251.14,192.15,261.82,192.15,274.97z"/>
					<path fill="#50BBC6" d="M215.97,239.23c0,17-13.78,30.79-30.78,30.79s-30.78-13.78-30.78-30.79c0-17,13.78-30.78,30.78-30.78
						S215.97,222.23,215.97,239.23z"/>
					<path fill="#33ACB2" d="M149.53,240.07c0,12.86,10.43,23.29,23.29,23.29c12.86,0,23.29-10.42,23.29-23.29
						c0-12.86-10.43-23.28-23.29-23.28C159.96,216.79,149.53,227.21,149.53,240.07z"/>
					<circle fill="#33ACB2" cx="194.71" cy="213.52" r="23.29"/>
					<circle fill="#33ACB2" cx="174.22" cy="278.73" r="23.29"/>
				</g>
				<path fill="#F59C7E" d="M294.18,521.37c-11.49,0-21.5-8.52-23.05-20.23l-11.49-86.62c-1.69-12.75,7.28-24.46,20.02-26.15
					c12.76-1.68,24.46,7.28,26.15,20.02l11.49,86.62c1.69,12.75-7.28,24.46-20.02,26.15C296.24,521.29,295.21,521.37,294.18,521.37z
					"/>
				<path fill="#E07E60" d="M269.22,487.36c9.42-0.99,23.28-3.84,44.71-17.35l-8.12-61.62c-0.66-4.96-2.85-9.33-6-12.74
					l-39.41,24.56L269.22,487.36z"/>
				<path fill="#F0906B" d="M430.2,345.01c0,15.44-12.51,27.94-27.94,27.94c-15.44,0-27.95-12.51-27.95-27.94
					c0-15.43,12.51-27.94,27.95-27.94C417.69,317.07,430.2,329.58,430.2,345.01z"/>
				<path fill="#F0906B" d="M175.61,299.68c0,15.43-12.51,27.94-27.94,27.94c-15.44,0-27.95-12.51-27.95-27.94
					c0-15.44,12.51-27.94,27.95-27.94C163.1,271.74,175.61,284.25,175.61,299.68z"/>
				<path fill="#D36846" d="M402.93,327.85c-0.85-0.16-1.69-0.22-2.53-0.25c6.27,3.77,9.88,11.3,8.45,19.14
					c-1.67,9.14-9.6,15.48-18.35,15.17c1.75,1.05,3.69,1.82,5.8,2.21c9.7,1.77,19.04-4.91,20.87-14.93
					C419,339.18,412.63,329.62,402.93,327.85z"/>
				<path fill="#F8A17B" d="M388.91,335.08C383.78,410,304.34,476.33,237.09,472c-40.84-2.64-63.82-21.34-78.24-62.41
					c-5.97-17.01-16.76-43.21-16.76-65.2c0-38.73,18.63-48.43,33.53-111.77c6.83-29.02,47.79-82.3,99.66-78.24
					C342.46,159.63,398.22,199.09,388.91,335.08z"/>
				<path fill="#F0906B" d="M237.09,472c67.25,4.33,146.69-62,151.82-136.92c0.33-4.88,0.57-9.62,0.74-14.25
					c-24.9-119.59,14.47,3.85-78.99,99.48c-57.98,59.33-110.46,28.73-122.95,14.9c-17.23-19.09-33.53-56.35-45.63-90.81
					c0,21.99,10.8,48.19,16.76,65.2C173.26,450.66,196.25,469.36,237.09,472z"/>
				<path fill="#F0906B" d="M192.6,199.04c16.13,16.58,52.36,33.68,96.36,43.72c37.55,8.56,72.22,10.06,95.09,5.37
					c-7.92-34.67-23.38-57.51-43.37-72.01c-10.68-3.67-22.18-6.98-34.29-9.74c-22.07-5.03-43.13-7.62-61.4-7.95
					C223.33,165.89,205.09,182.18,192.6,199.04z"/>
				<g>
					<path opacity="0.39" fill="#FFFFFF" d="M177.48,314.9c-8.6,1.44-22.35,8.07-11.8,50.29c10.55,42.23,24.83,78.24,56.51,84.45
						c31.67,6.21,76.37-12.41,99.35-56.5c22.97-44.09,31.67-59.61,18.63-67.69c-13.04-8.07-39.74,23.59-61.47,35.39
						c-21.73,11.8-54.65,10.56-72.65-9.31C188.03,331.66,184.93,313.66,177.48,314.9z"/>
					<path fill="#248C96" d="M193.84,246.26l-1.26-12.98c8.15-0.8,31.07-4.59,39.08-12.45l9.13,9.31
						C228.08,242.61,197.31,245.92,193.84,246.26z"/>
					<path fill="#248C96" d="M326.89,251.4c-24.58,0-43.1-16.15-43.88-16.85l8.63-9.77c0.16,0.14,15.72,13.58,35.26,13.58
						c0.17,0,0.34-0.01,0.51-0.01l0.16,13.04C327.34,251.4,327.12,251.4,326.89,251.4z"/>
					<g>
						<path fill="#F0906B" d="M271.71,306.05c12.81,11.95,13.51,32.02,1.56,44.83c-11.95,12.81-32.02,13.5-44.83,1.55
							c-12.81-11.95-13.5-32.02-1.55-44.82C238.84,294.8,258.91,294.1,271.71,306.05z"/>
						<path fill="#EC2227" d="M264.26,300.47c12.81,11.95,13.5,32.02,1.55,44.83c-11.95,12.81-32.02,13.5-44.83,1.55
							c-12.81-11.95-13.5-32.02-1.55-44.83C231.38,289.21,251.45,288.52,264.26,300.47z"/>
						<path fill="#D71F27" d="M257.38,331.1c-11.95,12.81-32.02,13.5-44.83,1.55c-0.16-0.15-0.31-0.31-0.48-0.46
							c1.51,5.43,4.49,10.53,8.92,14.67c12.81,11.95,32.88,11.25,44.83-1.55c11.8-12.65,11.26-32.37-1.08-44.36
							C267.6,311.22,265.2,322.72,257.38,331.1z"/>
						<path fill="#EF4754" d="M247.78,308.53c0.24,5.38-3.94,9.95-9.32,10.18c-5.39,0.24-9.95-3.94-10.19-9.32
							c-0.23-5.38,3.94-9.95,9.33-10.19C242.99,298.97,247.55,303.15,247.78,308.53z"/>
					</g>
					<g>
						<path fill="#010101" d="M191.24,280.97c-1.55,13.28,4.11,24.85,12.62,25.85c8.52,0.99,16.67-8.98,18.22-22.26
							c1.54-13.29-4.11-24.86-12.63-25.85C200.94,257.72,192.78,267.68,191.24,280.97z"/>
						<path fill="#F3F3F3" d="M205.98,276.69c-0.55,4.73,1.47,8.85,4.5,9.2c3.03,0.35,5.93-3.2,6.49-7.92
							c0.55-4.73-1.46-8.85-4.5-9.2C209.44,268.41,206.54,271.96,205.98,276.69z"/>
						<path fill="#010101" d="M289.97,292.14c-1.54,13.29,4.11,24.86,12.62,25.85c8.52,0.99,16.68-8.98,18.22-22.27
							c1.55-13.28-4.11-24.85-12.62-25.85C299.67,268.9,291.52,278.86,289.97,292.14z"/>
						<path fill="#F3F3F3" d="M304.25,288.8c-0.55,4.73,1.46,8.85,4.5,9.2s5.93-3.2,6.49-7.92c0.55-4.73-1.46-8.85-4.5-9.2
							C307.71,280.52,304.8,284.07,304.25,288.8z"/>
					</g>
					<g>
						<path fill="#6E1E24" d="M173.75,327.94c0,0,11.17,60.85,20.49,82.89c6.49,15.35,39.24,55.59,90.66,0.31
							c49.67-53.4,50.91-76.69,50.91-76.69S245.47,435.98,173.75,327.94z"/>
						<path fill="#FFFFFF" d="M230.88,394.38c50.91,8.07,71.41-11.8,90.13-28.11c14.27-21.84,14.81-31.81,14.81-31.81
							s-90.34,101.52-162.06-6.52c0,0,2.27,12.37,5.62,27.96C188.97,372.38,205.47,390.35,230.88,394.38z"/>
						<path fill="#C1282D" d="M197.9,417.52c11.32,17.23,42.01,41.99,87.01-6.38c1.69-1.82,3.32-3.6,4.9-5.35
							C236.02,395.58,206.84,411.34,197.9,417.52z"/>
						<path fill="#E5E1E1" d="M335.82,334.46c0,0-90.34,101.52-162.06-6.52c0,0,0.85,4.62,2.27,11.75
							c9.27,16.46,29.13,41.64,64.79,44.13c43.44,3.03,79.89-27.63,91.98-39.17C335.63,337.75,335.82,334.46,335.82,334.46z"/>
					</g>
				</g>
				<g>
					<path fill="#50BBC6" d="M515.86,275.41c-0.83,9.91-10.25,17.22-21.03,16.32c-10.79-0.89-18.86-9.67-18.04-19.57
						c0.83-9.91,10.24-17.22,21.03-16.32C508.61,256.73,516.68,265.5,515.86,275.41z"/>
					<path fill="#50BBC6" d="M491.02,258.77c-0.89,10.74-11.1,18.66-22.78,17.69c-11.69-0.98-20.43-10.48-19.54-21.21
						c0.89-10.74,11.1-18.66,22.78-17.68C483.17,238.54,491.91,248.04,491.02,258.77z"/>
					<path fill="#50BBC6" d="M461.77,255.84c-0.83,9.91-10.24,17.22-21.03,16.32c-10.79-0.89-18.86-9.67-18.03-19.58
						c0.82-9.91,10.24-17.22,21.03-16.32C454.52,237.15,462.6,245.92,461.77,255.84z"/>
					<path fill="#50BBC6" d="M436.27,286.34c1.04-12.39,12.81-21.52,26.29-20.4c13.48,1.13,23.57,12.09,22.54,24.47
						c-1.04,12.39-12.81,21.53-26.29,20.4C445.33,309.69,435.24,298.74,436.27,286.34z"/>
					<path fill="#50BBC6" d="M459.48,296.31c0.94-11.29-8.26-21.28-20.54-22.3c-12.28-1.02-23.01,7.3-23.95,18.59
						c-0.94,11.29,8.26,21.28,20.55,22.3C447.82,315.93,458.54,307.61,459.48,296.31z"/>
					<path fill="#50BBC6" d="M433.38,242.42c-0.87,10.46-10.81,18.18-22.2,17.22c-11.39-0.95-19.91-10.2-19.04-20.66
						c0.87-10.47,10.81-18.18,22.2-17.23C425.73,222.7,434.26,231.96,433.38,242.42z"/>
					<path fill="#50BBC6" d="M431.9,312.59c1.06-12.67-9.26-23.87-23.05-25.02c-13.78-1.16-25.81,8.18-26.86,20.85
						c-1.06,12.67,9.25,23.87,23.04,25.02S430.84,325.26,431.9,312.59z"/>
					<path fill="#50BBC6" d="M420.36,241.33c-0.92,11.02-11.38,19.14-23.37,18.14c-11.98-1-20.96-10.74-20.04-21.75
						c0.92-11.02,11.38-19.14,23.37-18.14C412.31,220.58,421.28,230.32,420.36,241.33z"/>
					<path fill="#50BBC6" d="M420.75,276.01c1.17-14.05-10.27-26.46-25.55-27.74c-15.29-1.27-28.62,9.08-29.79,23.12
						c-1.17,14.05,10.27,26.47,25.55,27.74C406.24,300.41,419.58,290.06,420.75,276.01z"/>
					<path fill="#50BBC6" d="M401.13,262.32c1.04-12.39,12.81-21.52,26.29-20.4c13.48,1.12,23.57,12.08,22.54,24.47
						c-1.04,12.39-12.81,21.52-26.29,20.4C410.19,285.68,400.1,274.72,401.13,262.32z"/>
					<path fill="#50BBC6" d="M364.43,230.64c-1.01,12.12,8.86,22.84,22.05,23.93c13.18,1.1,24.69-7.83,25.7-19.95
						c1.01-12.12-8.86-22.84-22.04-23.93C376.95,209.6,365.45,218.53,364.43,230.64z"/>
					<path fill="#33ACB2" d="M399.16,232.62c0,10.55-8.55,19.09-19.1,19.09c-10.54,0-19.09-8.54-19.09-19.09s8.55-19.1,19.09-19.1
						C390.61,213.52,399.16,222.07,399.16,232.62z"/>
					<path fill="#33ACB2" d="M422.91,223.31c0,10.54-8.55,19.09-19.1,19.09c-10.54,0-19.09-8.55-19.09-19.09
						c0-10.55,8.55-19.1,19.09-19.1C414.36,204.21,422.91,212.76,422.91,223.31z"/>
				</g>
				<g>
					<path fill="#8F50A0" d="M190.41,162.77c-4.81,21.09,42.23,49.82,105.07,64.16c62.84,14.34,117.69,8.86,122.5-12.22
						c4.81-21.09-42.23-49.82-105.07-64.16C250.07,136.2,195.23,141.68,190.41,162.77z"/>
					<path fill="#B17EB7" d="M195.45,154.19c-4.82,21.09,42.23,49.82,105.07,64.16c62.84,14.34,117.69,8.86,122.5-12.22
						c4.82-21.09-42.23-49.82-105.07-64.16S200.26,133.1,195.45,154.19z"/>
					<path fill="#9A5BA4" d="M260.81,44.78c0,0-8.94,85.45-18.05,117.82l132.33,30.19l54.61-109.47L260.81,44.78z"/>
					<path fill="#9A5BA4" d="M242.77,162.6c-2.8,12.26,24.55,28.97,61.1,37.3c36.54,8.34,68.43,5.16,71.23-7.11
						c2.8-12.26-24.56-28.97-61.1-37.31C277.45,147.15,245.57,150.33,242.77,162.6z"/>
					<path fill="#8F50A0" d="M359.68,84.3c-0.08,0.1-0.39,0.74-0.9,1.84c-2.71,1.26-4.29,2-4.29,2L359.68,84.3z"/>
					<path fill="#8F50A0" d="M358.78,86.14c5.5-2.55,15.74-7.28,27.67-12.7l43.26,9.87l-54.61,109.47
						c-2.69,11.77-32.21,15.17-66.9,8.04C322.67,167.77,353.12,98.35,358.78,86.14z"/>
					<path fill="#B17EB7" d="M260.81,44.78c-3.57,15.65,31.34,36.97,77.98,47.61c46.64,10.64,87.35,6.58,90.92-9.07
						c3.58-15.65-31.34-36.97-77.98-47.61C305.09,25.06,264.39,29.13,260.81,44.78z"/>
				</g>
			</g>
			<g>
				<path fill="#C1282D" d="M282.26,494.82c-8.39-6.52-26.55-33.53-41.91-21.42c-15.37,12.11-9.31,39.11-6.52,52.62
					c2.79,13.5,23.75,16.3,32.13,8.38c8.39-7.92,19.1-18.16,19.56-22.82C285.99,506.92,282.26,494.82,282.26,494.82z"/>
				<path fill="#C1282D" d="M291.11,496.21c11.18-6.52,53.09-40.05,62.41-26.08c9.31,13.97,15.46,57.35-1.12,63.6
					c-16.58,6.25-56.62-14.23-60.35-19.83C288.31,508.32,291.11,496.21,291.11,496.21z"/>
				<path fill="#AE222B" d="M296.23,497.61c5.59-2.33,27.95-11.64,35.86-10.71c7.92,0.93-1.87,5.59-7.92,7.92
					c-6.06,2.33-15.37,7.45-8.39,9.78c6.99,2.33,20.49,6.06,19.1,8.85c-1.4,2.79,1.4,3.26-9.31,2.33
					c-10.71-0.93-30.27-2.79-30.74-7.45C294.37,503.67,296.23,497.61,296.23,497.61z"/>
				<path fill="#AE222B" d="M280.4,498.54c-13.97-6.06-27.01-12.58-31.67-10.25c-4.65,2.33,1.86,6.52,7.92,9.31
					c6.06,2.79,7.92,12.11,0.46,12.11c-7.45,0-17.69,7.92-10.24,7.92c7.45,0,21.42-4.65,20.02-1.4c-1.4,3.26-12.11,11.64-7.92,10.71
					c4.19-0.93,26.54-15.36,26.54-15.36L280.4,498.54z"/>
				<path fill="#C1282D" d="M285.23,489.69c-12.8,0-20.21,32.13,3.37,32.13C312.18,521.82,309.93,489.69,285.23,489.69z"/>
			</g>
		</g>
	</g>
</g>
</svg>
