<?xml version="1.0" encoding="utf-8"?>
<!-- Generator: Adobe Illustrator 25.2.3, SVG Export Plug-In . SVG Version: 6.00 Build 0)  -->
<svg version="1.1" id="Layer_1" xmlns="http://www.w3.org/2000/svg" xmlns:xlink="http://www.w3.org/1999/xlink" x="0px" y="0px"
	 viewBox="0 0 576 576" enable-background="new 0 0 576 576" xml:space="preserve">
<g>
	<g>
		<defs>
			<path id="SVGID_1_" d="M576,288c0,159.05-128.94,288-288,288S0,447.06,0,288C0,128.94,128.94,0,288,0S576,128.94,576,288z"/>
		</defs>
		<use xlink:href="#SVGID_1_"  overflow="visible" fill="#F9E3D9"/>
		<clipPath id="SVGID_2_">
			<use xlink:href="#SVGID_1_"  overflow="visible"/>
		</clipPath>
		<g clip-path="url(#SVGID_2_)">
			
				<rect x="238.5" y="400.41" transform="matrix(-1 -1.224647e-16 1.224647e-16 -1 566.031 923.7797)" fill="#F8A083" width="89.03" height="122.95"/>
			<path fill="#F47A4E" d="M164.66,249.3c-1.8-0.45-21.09-17.94-38.14,2.69c-17.04,20.63,1.35,72.67,14.8,78.05
				c13.46,5.38,24.67,1.35,26.02-2.24C168.7,324.21,164.66,249.3,164.66,249.3z"/>
			<path fill="#F8A083" d="M198.42,98.28c49.5-45.44,123.21-45.44,172.7,0c47.64,43.72,57.22,111.51,55.7,165.71
				c1.53,49.59-13.24,109.86-60.87,149.87c-49.5,41.58-118.02,43.33-167.52,1.76c-47.63-40.01-57.22-102.04-55.69-151.63
				C141.2,209.79,150.79,142,198.42,98.28z"/>
			<path fill="#F47A4E" d="M231.78,299.61h-30.09C201.69,299.61,213.78,326.64,231.78,299.61z"/>
			<path fill="#562E1F" d="M185.09,211.32l-1.17,14.63c0,0-14.73-3.91-35.7,2.82l-0.73-9.28
				C147.5,219.49,169.85,207.85,185.09,211.32z"/>
			<path fill="#562E1F" d="M289.07,211.32l1.17,14.63c0,0,14.73-3.91,35.69,2.82l0.73-9.28
				C326.66,219.49,304.3,207.85,289.07,211.32z"/>
			<g>
				<path fill="#68423E" d="M232.9,391.59c29.7,0.23,50.54-28.1,48.41-34.76c-0.97-3.68-6.71-2.14-15.42,0.28
					c-8.66,2.37-20.28,5.59-32.99,5.36c-14.59,0.28-27.68-4.01-36.59-6.34c-6.67-1.77-10.99-2.47-11.81,0.7
					C182.37,363.49,203.21,391.82,232.9,391.59z"/>
				<path fill="#FFFBFB" d="M196.31,356.12l3,18.08c29.81,15.56,65.21-0.66,65.21-0.66l1.37-16.44c-8.66,2.37-20.28,5.59-32.99,5.36
					C218.31,362.74,205.22,358.45,196.31,356.12z"/>
			</g>
			<path fill="#68423E" d="M308.47,246.09c7.82,0,14.16,6.34,14.16,14.15v18.75c0,7.82-6.34,14.15-14.16,14.15
				c-7.82,0-14.15-6.34-14.15-14.15v-18.75C294.31,252.42,300.65,246.09,308.47,246.09z"/>
			<path fill="#68423E" d="M162.18,246.09c7.82,0,14.16,6.34,14.16,14.16v18.74c0,7.82-6.34,14.15-14.16,14.15
				c-7.82,0-14.15-6.34-14.15-14.15v-18.74C148.02,252.42,154.36,246.09,162.18,246.09z"/>
			<path fill="#562E1F" d="M176.34,424.4c8.63,9.66,20.67,17.11,31.33,22.4c15.32,7.59,33.26,7.76,48.93,0.92
				c12.2-5.32,26.21-13.08,35.36-23.32c0,0,6.83-104.89-60.87-104.89C163.51,322.3,176.34,424.4,176.34,424.4z M231.09,333.6
				c0,0,45.85-7.57,40.91,76.93L239.5,424.4l4.08-28.61h-11.74H220.1l4.07,28.61l-31.38-13.77
				C187.86,326.13,231.09,333.6,231.09,333.6z"/>
			<path fill="#F47A4E" d="M400.52,267.27c-0.1-9.57,5.63-18.26,14.53-21.79c8.46-3.35,19.12-4.2,27.96,6.51
				c17.05,20.63-1.35,72.67-14.8,78.05c-13.45,5.38-20.27-0.1-23.14-2.64C400.32,323.2,400.73,287.78,400.52,267.27z"/>
			<path fill="#562E1F" d="M418.27,124.99c0,0,24.9,68.68-0.64,138.82l-17.11,3.46c0,0-30.38-73.18-30.38-113.46l-28.19-46
				C341.96,107.82,407.46,63.3,418.27,124.99z"/>
			<path fill="#562E1F" d="M135.87,263.81l5.78-0.44c0,0,2.58-73.52,34.02-146.01c31.49-72.5,123.69,22.89,176.84,5.08
				c52-17.45,31.56-98.18,30.69-101.65c-0.05-0.05-0.05-0.1-0.05-0.1c-3.24,27.22-52.04,58.5-112.86,27.22
				c-60.82-31.24-95.23,42.38-95.23,42.38s-10.57-22.69-34.64-1.53C114.37,111.6,135.87,263.81,135.87,263.81z"/>
			<path fill="#7E432D" d="M141.65,263.37c0,0,18.19-115.59,50.2-135.74c32.01-20.2,100.85,66.55,168.85,31.24
				c66.82-34.7,24.03-134.52,22.49-138.08c0.88,3.46,21.31,84.2-30.69,101.65c-53.15,17.81-145.35-77.58-176.84-5.08
				C144.23,189.85,141.65,263.37,141.65,263.37z"/>
			<path fill="#4B494A" d="M136,748.78c46.04-137.7,26.97-235.59,25.56-243.22c-0.11-0.34-0.12-0.51-0.12-0.51l-22.01,18.99
				c-15.25,11.8-28.35,26.14-38.44,42.57c-0.09,0.15-0.18,0.29-0.28,0.45c-39.26,64.22-51.67,131.57-54.58,181.73H136z"/>
			<path fill="#4B494A" d="M501.84,748.78c0.66-151.41-74.11-219.34-78.32-225.88c-0.22-0.27-0.31-0.42-0.31-0.42L408.27,546
				c-9.63,16.7-16.33,34.94-19.44,53.96c-0.03,0.18-0.05,0.34-0.08,0.53c-8.88,55.07-3.42,106.15,6.62,148.29H501.84z"/>
			<path fill="#F8A184" d="M421.48,748.78c8.51-77.99,13.81-152.43,10.72-198.89c-2.6-39.01-48.64-61.54-85.64-74.2
				c-80.94-27.65-187.39,17.81-212.83,53.42c-51.56,72.19-43.61,153.3-25.66,219.67H421.48z"/>
			<path fill="#565656" d="M421.85,748.78c8.66-78.15,14.06-152.77,10.91-199.29c-2.63-39.03-49.29-61.56-86.78-74.23
				c-6.34-2.14-12.78-3.81-19.33-5.09c0,0-6.6,49.96-57.18,48.69c0,0-28.72-1.53-33.05-45.74c-48.88,11.15-91.2,35-106.11,55.56
				c-52.37,72.35-44.17,153.66-25.9,220.1H421.85z"/>
			<path fill="#C0282D" d="M228.14,475.94L228.14,475.94c3.1-0.86,6.25-1.67,9.41-2.39c-0.16,11.76,1.97,19.26,5.67,24.97
				c7.06,10.92,12.85,16.42,24.66,17.89c45.84,5.7,59.78-46.06,59.78-46.06c2.59,0.56,5.13,1.12,7.68,1.78l0,0
				c1.98,0.51,3.92,1.01,5.85,1.62c-15.67,67.87-90.3,108.26-90.3,108.26s-26.46-37.45-33.78-102.77
				C220.71,478.02,224.42,476.96,228.14,475.94z"/>
			<path fill="#FFFFFF" d="M207.12,482.66c5.86,81.35,42.59,117.78,42.59,117.78s83.54-41.57,107.75-121.09
				c-3.66-1.37-7.22-2.65-10.73-3.87c-1.83-0.61-3.72-1.22-5.55-1.73c-15.67,67.87-90.3,108.26-90.3,108.26
				s-26.46-37.45-33.78-102.77C213.73,480.27,210.37,481.44,207.12,482.66z"/>
			<g>
				<path fill="#FFFFFF" d="M238.14,748.78c6.28-77.23,12.58-140.53,16.51-157.1l-9.89-2.35c-4,16.81-10.4,81.16-16.77,159.46
					H238.14z"/>
			</g>
			<path fill="#383738" d="M293.96,493.86c-2.17,0.18-4.33,0.31-6.45,0.4v-31.92c1.71-0.11,3.59-0.27,5.67-0.44
				c12.27-1.03,30.8-2.68,54.84,0.62c32.05,4.39,79.23,69.23,64.99,73.62c-14.25,4.39-71.82,38.46-158.34,55.53
				C333.69,498.92,329.37,490.99,293.96,493.86z"/>
			<path fill="#383738" d="M218.03,462.52c24.36-3.34,43.02-1.61,55.28-0.58v31.95c-0.44-0.04-0.86-0.06-1.3-0.1
				c-38.92-3.45-75.7-6.82-33.51,91.95c-68.61-32.73-71.22-45.21-85.47-49.6C138.79,531.75,185.98,466.92,218.03,462.52z"/>
			<path fill="#F8A083" d="M241.33,495.11h73.92c0,0,12.28-21.04,12.28-42.42s-89.03,0-89.03,0L241.33,495.11z"/>
		</g>
	</g>
</g>
</svg>
