<?xml version="1.0" encoding="utf-8"?>
<!-- Generator: Adobe Illustrator 25.2.3, SVG Export Plug-In . SVG Version: 6.00 Build 0)  -->
<svg version="1.1" id="Layer_1" xmlns="http://www.w3.org/2000/svg" xmlns:xlink="http://www.w3.org/1999/xlink" x="0px" y="0px"
	 viewBox="0 0 576 576" enable-background="new 0 0 576 576" xml:space="preserve">
<g>
	<g>
		<defs>
			<circle id="SVGID_1_" cx="287.64" cy="288.36" r="287.64"/>
		</defs>
		<use xlink:href="#SVGID_1_"  overflow="visible" fill="#F9E3D9"/>
		<clipPath id="SVGID_2_">
			<use xlink:href="#SVGID_1_"  overflow="visible"/>
		</clipPath>
		<g clip-path="url(#SVGID_2_)">
			<path fill="#5D290D" d="M213.05,138.21c0,0-27.57-10.28-43.97,31.16c-16.4,41.44,2.22,132.44,2.22,132.44l13.15-9.24
				C184.46,292.57,205.41,151.85,213.05,138.21z"/>
			<path fill="#F8A184" d="M136.87,547.27C70.63,655.62,91.59,774.66,91.59,774.66l40.04,16.48
				c84.62-163.45,59.92-289.45,58.41-297.61c-0.09-0.3-0.1-0.45-0.1-0.45l-19.23,16.59c-13.32,10.31-24.79,22.85-33.6,37.2
				C137.03,547,136.95,547.13,136.87,547.27z"/>
			<path fill="#F8A184" d="M106.38,901.08c13.08-33.41,25.29-75.43,33.43-127.52l-49-5.7c0,0-31.05,75.59-46.07,133.22H106.38z"/>
			
				<rect x="257.25" y="401.65" transform="matrix(-1 -1.224647e-16 1.224647e-16 -1 592.2993 910.737)" fill="#F8A184" width="77.81" height="107.44"/>
			<path fill="#F8A184" d="M388.59,576.49c-20.21,125.37,44.32,227.58,44.32,227.58l43.3,0.07
				c43.73-201.84-52.74-288.48-57.23-295.45c-0.19-0.23-0.27-0.37-0.27-0.37l-13.06,20.56c-8.42,14.59-14.27,30.53-16.98,47.16
				C388.64,576.18,388.62,576.33,388.59,576.49z"/>
			<path fill="#F8A184" d="M494.09,901.08c-1.47-32.95-6.35-71.68-16.98-116.31l-47.51,13.3c0,0-0.05,52.01,3.97,103.01H494.09z"/>
			<path fill="#F47A4E" d="M192.71,269.58c-1.57-0.39-18.43-15.68-33.32,2.35c-14.9,18.03,1.17,63.5,12.93,68.21
				c11.77,4.71,21.56,1.18,22.74-1.96C196.24,335.05,192.71,269.58,192.71,269.58z"/>
			<path fill="#F8A184" d="M222.22,137.6c43.26-39.71,107.67-39.71,150.93,0c41.62,38.21,50.01,97.45,48.67,144.83
				c1.34,43.34-11.57,96.01-53.2,130.97c-43.26,36.34-103.14,37.87-146.4,1.54c-41.62-34.96-50.01-89.17-48.67-132.51
				C172.21,235.05,180.59,175.81,222.22,137.6z"/>
			<path fill="#F47A4E" d="M251.36,313.55h-26.29C225.07,313.55,235.64,337.17,251.36,313.55z"/>
			<path fill="#5D290D" d="M210.57,236.39l-1.02,12.78c0,0-12.87-3.42-31.19,2.46l-0.64-8.11
				C177.71,243.52,197.25,233.36,210.57,236.39z"/>
			<path fill="#5D290D" d="M301.43,236.39l1.03,12.78c0,0,12.87-3.42,31.19,2.46l0.64-8.11
				C334.29,243.52,314.75,233.36,301.43,236.39z"/>
			<g>
				<path fill="#68423E" d="M252.35,393.93c25.95,0.2,44.16-24.56,42.3-30.38c-0.84-3.22-5.85-1.87-13.47,0.25
					c-7.57,2.08-17.72,4.88-28.83,4.68c-12.75,0.25-24.19-3.5-31.98-5.54c-5.83-1.55-9.6-2.16-10.32,0.61
					C208.19,369.37,226.4,394.13,252.35,393.93z"/>
				<path fill="#FFFCFD" d="M220.37,362.93l2.63,15.8c26.04,13.6,56.98-0.58,56.98-0.58l1.19-14.36
					c-7.57,2.08-17.72,4.88-28.83,4.68C239.6,368.72,228.16,364.97,220.37,362.93z"/>
			</g>
			<path fill="#F8A184" d="M162.59,901.08h230.46c1.25-17.2,3.39-37.39,6.85-60.92c15.39-104.77,31.18-240.23,26.67-307.89
				c-2.27-34.09-42.51-53.79-74.84-64.84c-70.73-24.17-163.77,15.56-186,46.68c-62.38,87.32-25.19,189.71-2.96,251.95
				C174.07,797.72,169.65,853.69,162.59,901.08z"/>
			<path fill="#68423E" d="M318.4,266.77c6.83,0,12.37,5.54,12.37,12.38v16.38c0,6.83-5.54,12.37-12.37,12.37
				c-6.84,0-12.38-5.54-12.38-12.38v-16.37C306.02,272.31,311.56,266.77,318.4,266.77z"/>
			<path fill="#68423E" d="M190.54,266.77c6.83,0,12.37,5.54,12.37,12.38v16.37c0,6.84-5.54,12.38-12.37,12.38
				c-6.83,0-12.37-5.54-12.37-12.38v-16.37C178.17,272.31,183.71,266.77,190.54,266.77z"/>
			<path fill="#5D290D" d="M343.66,161.38c0,0,63.15-3.79,47.85,137.54l28.17-11.8c0,0,22.9-142.85-30.66-148.9L343.66,161.38z"/>
			<path fill="#5D290D" d="M397.92,142.14c0,0-49.06,65.63-153.99,60.03c-104.92-5.6-58.2-46.22-58.2-46.22s5.29-68.32,108.66-68.32
				C294.39,87.62,385.75,84.9,397.92,142.14z"/>
			<path fill="#C6413C" d="M163.03,901.08h230.48c1.24-17.27,3.39-37.58,6.87-61.27c15.39-104.8,31.21-240.27,26.68-307.89
				c-2.27-34.11-42.51-53.8-74.83-64.87c-5.47-1.87-11.03-3.33-16.68-4.44c0,0-5.69,43.66-49.3,42.55c0,0-24.77-1.33-28.5-39.97
				c-42.15,9.74-78.65,30.59-91.5,48.55c-62.38,87.32-25.21,189.72-2.98,251.97C174.6,797.43,170.13,853.61,163.03,901.08z"/>
			<path fill="#C6413C" d="M492.72,738.59c0,0-17.35,17.29-81.77,24.2c0,0-68.59-181.27,8.53-254.48
				C419.48,508.31,498.86,580.78,492.72,738.59z"/>
			<path fill="#C6413C" d="M155.91,754.14c0,0-45.11-4.83-73.69-21.32c0,0,12.37-163.94,84.01-219.07
				C166.23,513.75,188.14,685.22,155.91,754.14z"/>
			<g>
				<path fill="#5D290D" d="M232.27,435.27c0.18,0.08,0.4,0.13,0.58,0.22c7.42,0.8,13.69,0.98,17.87,0.93h1.15
					c0.4-0.05,0.71-0.05,1.11-0.05c11.21-0.22,37.3-2.22,60.16-14.58c11.02-5.96,42.64-16.4,50.15-28.09
					c24.1-37.34,28.2-94.79,28.2-94.79s-16.51,71.83-68.44,61.75c-2.8-0.54-5.69-0.4-8.63-1.47c0,0-8.05-25.21-45.48-24.72
					c-5.69,0.09-12.05,0.75-19.12,2.22c-6.31-0.98-11.96-1.38-17.03-1.29c-37.26,0.53-44.37,25.56-44.37,25.56
					c-1.29,0.53-4.12-1.88-8.29-14.84C179.65,344.57,182.36,409.64,232.27,435.27z M259.8,412.19c-2.35,0.05-4.22-0.49-5.33-1.64
					c-8.36-8.76,1.47-12.23,1.47-12.23l-3.92-0.46c-3.15-0.38-6.34-0.34-9.48,0.1l-4.07,0.58c0,0,9.92,3.2,1.65,12.18
					c-1.12,1.2-2.98,1.78-5.34,1.82c-15.16,0.23-46.86-22.45-38.9-46.15c4.53-13.51,18.18-17.07,30.81-17.25
					c7.11-0.14,13.96,0.89,18.63,1.78c2,0.4,4.04,0.58,6.09,0.53c2.04-0.05,4.09-0.27,6.14-0.71c4.66-1.02,11.42-2.22,18.58-2.32
					c12.62-0.18,26.28,3.02,30.99,16.41C315.33,388.32,274.96,411.97,259.8,412.19z"/>
			</g>
			<path fill="#5D290D" d="M419.67,287.11c0,0,12.45,146.67-133.34,153.86c0,0-46.04,1.18-58.65-8.26c0,0,117.74-19.76,137.02-52.91
				c19.26-33.15,26.81-83.41,26.81-83.41L419.67,287.11z"/>
			<path fill="#F47A4E" d="M398.84,285.29c-0.08-8.37,4.93-15.97,12.7-19.05c7.39-2.93,16.71-3.66,24.44,5.7
				c14.89,18.03-1.18,63.5-12.94,68.21c-11.75,4.71-17.71-0.08-20.22-2.3C398.66,334.17,399.01,303.21,398.84,285.29z"/>
			<path fill="#547DA0" d="M402.08,901.08l8.87-138.29c-70.3-181.9,50.21-203.57,50.21-203.57
				c-30.63-84.05-125.61-96.62-125.61-96.62c-39.39,133.27-47.63,331.63-49.03,438.48H402.08z"/>
			<path fill="#3B566E" d="M381.09,901.08c-5.79-16.99-10.82-38.18-8.7-56.65l-23.61,2.4c0,0,1.12,25.04,9.98,54.25H381.09z"/>
			<g>
				<polygon fill="#3B566E" points="381.35,649.36 387.35,731.26 318.56,737.72 313.42,650.25 				"/>
				<polygon fill="#486A88" points="386.96,627.32 389.86,652.17 346.59,671.76 307.1,659.24 306.8,636.18 				"/>
				<path fill="#F3FAFE" d="M342.19,661.58c0.05,3.35,2.52,6.04,5.53,5.99c3.01-0.03,5.42-2.78,5.37-6.14
					c-0.05-3.35-2.52-6.03-5.53-5.99C344.55,655.49,342.15,658.24,342.19,661.58z"/>
			</g>
			<path fill="#547DA0" d="M155.91,754.14l-3.48,146.95h78.42c7.5-103.07,19.58-292.31,18.79-434.03c0,0-64.55-3.62-109.83,73.53
				C139.81,540.59,173.12,606.79,155.91,754.14z"/>
			<path fill="#3B566E" d="M175.33,901.08c12.2-25.1,17.18-46.68,17.18-46.68l-22.81-6.63c-1.15,17.47-9.02,36.15-17.25,51.35
				l-0.05,1.95H175.33z"/>
			<g>
				<polygon fill="#3B566E" points="159.82,644.62 153.82,726.53 222.57,732.98 227.7,645.5 				"/>
				<polygon fill="#486A88" points="154.2,622.59 151.29,647.44 194.56,667.03 234.02,654.49 234.32,631.44 				"/>
				<path fill="#F3FAFE" d="M198.95,656.85c-0.05,3.35-2.52,6.04-5.53,5.99c-3.01-0.04-5.41-2.78-5.37-6.14
					c0.05-3.35,2.52-6.03,5.53-5.99C196.59,650.75,198.99,653.5,198.95,656.85z"/>
			</g>
			<path fill="#3C947C" d="M432.65,193.61l-6.56-78.97l-37.16-46.27c0,0-38.73-14.9-91.14-13.62
				c-52.43-1.28-91.13,13.62-91.13,13.62l-37.18,46.27l-6.56,78.97l-0.58,6.99c15.16,1.95,31.71,3.31,48.98,4.24
				c16.87-8.35,29.3-15.95,72.58-19.12c0.88-0.07,5.95,0.38,6.83,0.33c0.86,0.05,1.54,2.67,2.41,2.74
				c42.85,3.14,43.55,11.17,59.94,19.43l-2.58,0.24c0,0,51.27,14.28,82.73-7.86L432.65,193.61z"/>
			<path fill="#C6413C" d="M163.18,186.55c0,0-47.01,34.72-44.41,49.47c0,0,28.29-17.46,76.53-12c44.97,5.08,47.87,12.07,73.67,21.4
				c25.8,9.32,60.79,24.97,115.13-36.31c0,0-80.3-37.8-157.86-37.8C185.41,171.31,163.18,186.55,163.18,186.55z"/>
		</g>
	</g>
</g>
</svg>
