<?xml version="1.0" encoding="utf-8"?>
<!-- Generator: Adobe Illustrator 25.2.3, SVG Export Plug-In . SVG Version: 6.00 Build 0)  -->
<svg version="1.1" id="Layer_1" xmlns="http://www.w3.org/2000/svg" xmlns:xlink="http://www.w3.org/1999/xlink" x="0px" y="0px"
	 viewBox="0 0 576 576" enable-background="new 0 0 576 576" xml:space="preserve">
<g>
	<g>
		<defs>
			<circle id="SVGID_1_" cx="287.92" cy="288.2" r="288.08"/>
		</defs>
		<use xlink:href="#SVGID_1_"  overflow="visible" fill="#F9E3D9"/>
		<clipPath id="SVGID_2_">
			<use xlink:href="#SVGID_1_"  overflow="visible"/>
		</clipPath>
		<g clip-path="url(#SVGID_2_)">
			<g>
				<path fill="#8AC440" d="M130.12,385.06c-53.94-29.08-193.89-2.82-236.9,8.46c-9.09,2.39-44.31,13.6-71.25,22.94v223.36
					c2.12,1.81,4.21,3.63,6.35,5.45h385.16c10.84-12.12,20.91-24.05,28.74-34.59c19.29-25.98,25.38-105.76,25.38-105.76
					S166.07,461.21,130.12,385.06z"/>
				<path opacity="0.72" fill="#6B8A3A" d="M179.64,645.27L52.56,490.82c0,0-8.81-36.66-26.09,22.21
					c-7.59,25.84-1.08,79.82,9.67,132.24H179.64z"/>
				<path fill="#B9D658" d="M83.92,373.15c18.27,1.78,34.32,5.5,46.2,11.91c35.96,76.15,137.49,119.86,137.49,119.86
					s-1.14,14.8-3.96,33.72C228.58,524.98,138.29,480.84,83.92,373.15z"/>
				<path fill="#79A440" d="M130.12,385.06c-53.94-29.08-193.89-2.82-236.9,8.46c-9.09,2.39-44.31,13.6-71.25,22.94v223.33
					c2.13,1.83,4.24,3.65,6.38,5.48h75.52C-139.42,465.89,130.12,385.06,130.12,385.06z"/>
				<path fill="#1A95B6" d="M71.55,645.27h207.8c-25.77-34.1-65.09-108.08-87.23-154.99c-20.93-44.37-73.88-63.37-118.25-42.44
					c-44.37,20.93-63.37,73.88-42.44,118.25C36.69,577.23,51.84,608.77,71.55,645.27z"/>
				<path fill="#8AC440" d="M71.55,645.27h207.8c-25.77-34.1-65.09-108.08-87.23-154.99c-20.93-44.37-73.88-63.37-118.25-42.44
					c-44.37,20.93-63.37,73.88-42.44,118.25C36.69,577.23,51.84,608.77,71.55,645.27z"/>
				<path fill="#B9D658" d="M158.59,645.27h14.08c-30.56-63.79-61.64-156.21-76.51-200.53c-0.44-1.31-0.86-2.57-1.27-3.79
					c-4.12,0.8-8.22,1.91-12.27,3.32c0.5,1.5,1.01,2.99,1.51,4.5C107.94,519.72,133.73,592.34,158.59,645.27z"/>
				<path opacity="0.27" fill="#566F32" d="M71.55,645.27h66.94c-7.06-14.01-13.75-28.82-20.01-44.47
					c-32.28-80.71-28.38-133.42-7.51-161.45c-12.46,0.1-25.09,2.82-37.1,8.49c-44.37,20.93-63.37,73.88-42.44,118.25
					C36.69,577.23,51.84,608.77,71.55,645.27z"/>
				<path fill="#8AC440" d="M159.38,371.32c0,0-35.08-2.19-72.35-18.63C49.76,336.25-17.1,325.28-35.74,337.34
					c-18.64,12.06-38.37,51.52-19.74,64.67c18.64,13.15,60.29-1.1,116.19-6.57c55.91-5.48,76.74,14.25,89.89,25.21
					c13.15,10.96-1.1-14.25-5.48-25.21C140.75,384.48,159.38,371.32,159.38,371.32z"/>
				<path opacity="0.55" fill="#79A440" d="M-26.97,376.8c-13.15-12.06,8.77-32.88,27.41-33.98c0,0,16.5-2.32,27.05-7.12
					c-27.09-4.64-52.76-5.12-63.22,1.65c-18.64,12.06-38.37,51.52-19.74,64.67c18.64,13.15,60.29-1.1,116.19-6.57
					c15.66-1.53,28.55-1.1,39.31,0.58c-9.47-4.49-25.85-9.77-52.46-11.54C-1.75,381.19-13.81,388.86-26.97,376.8z"/>
				<path fill="#79A440" d="M127.59,377.9c-19.74-6.57-90.98-27.4-106.33-23.02c-15.35,4.39,25.21,10.96,60.29,21.92
					c35.08,10.97,57,29.6,57,23.02C138.56,393.25,127.59,377.9,127.59,377.9z"/>
			</g>
			<g>
				<path fill="#EE2C28" d="M-178.03,574.93v70.34h87.81C-124.78,620.28-153.82,596.51-178.03,574.93z"/>
			</g>
			<g>
				<path fill="#F49763" d="M336.34,478.75c-26.3,2.19-56.27,15.34-62.85,15.34c-6.57,0-5.11,13.15-7.31,23.39
					c-2.19,10.24-58.46-26.31-89.15-53.34c-30.7-27.04-44.15-69.72-46.92-79.07c-2.77-9.36,28.65-7.16,40.34-22.5
					c8.09-10.61,31.43-11.69,31.43-11.69L336.34,478.75z"/>
				<path fill="#E5895A" d="M276.41,493.66c-16.33-7.14-53.47-25.19-73.06-49.26c-25.58-31.42-37.27-46.76-48.96-47.49
					c-5.56-0.35-13.25,0.46-19.79,1.4c-2.29-6.1-3.75-10.8-4.47-13.25c-2.77-9.36,28.65-7.16,40.34-22.5
					c8.09-10.61,31.43-11.69,31.43-11.69l114.6,131.18C299.44,486,283.68,492.02,276.41,493.66z"/>
				<path fill="#69311D" d="M152.31,198.53c15.13-33.75,86.62-79.37,172.74-76.15c75.44,2.82,132.54,39.47,146.58,79.33
					c11.87,33.69,1.25,70.75-14.54,79.48c-28.41,15.34-69.33-34.01-154.6-34.01C217.21,247.18,133.97,239.42,152.31,198.53z"/>
				<path fill="#69311D" d="M211.53,102.99c0,37.96,33.62,68.74,75.09,68.74c41.47,0,75.09-30.78,75.09-68.74
					c0-37.97-33.62-68.75-75.09-68.75C245.15,34.25,211.53,65.02,211.53,102.99z"/>
				<path fill="#442017" d="M211.53,102.99c0-35.29,29.05-64.35,66.45-68.28c-14.97,25.1-37.91,79.56,3.36,131.73
					c1.48,1.87,2.66,3.61,3.6,5.25C244.24,170.87,211.53,140.44,211.53,102.99z"/>
				<path fill="#442017" d="M325.04,122.38c-86.12-3.22-157.61,42.4-172.74,76.15c-10.11,22.54,10.66,35.01,45.61,41.67
					c14.97-35.77,46.68-68.46,46.68-68.46s17.46,3.73,56.83-4.3c30.63-6.25,58.8-28.99,69.8-38.77
					C356.85,125.19,341.38,122.99,325.04,122.38z"/>
				<path fill="#FCB971" d="M308.3,214.95c224.78,20.81,125.32,81.59,135.19,149.27c9.66,66.23-42.58,129.59-119.97,123.83
					c-3.96,1.06-8.17,1.67-12.57,1.67c-11.54,0-21.89-4-29.1-10.34c-65.38-20.85-92.67-65.99-96.39-130.67
					C181.27,276.31,209.27,205.77,308.3,214.95z"/>
				<path fill="#F49763" d="M182.1,350.11c-2.27-39.19,7.06-77.81,29.82-103.56c16.74,2.77,40.69,5.91,40.69,5.91
					s-52.91,133.4,2.64,187.19c52.71,51.05,112.99,42.3,152.35,22.07c-21.26,19.08-50.77,30.3-85.31,27.73
					c-3.96,1.07-8.17,1.67-12.57,1.67c-11.54,0-21.89-4-29.1-10.34C215.21,459.93,185.82,414.8,182.1,350.11z"/>
				<path fill="#F49763" d="M308.3,214.95c-37.15-3.44-64.31,4.33-83.51,19.21c-0.97,21.22,0.93,84.82,0.93,84.82
					s29.03-14.89,50.95-34.83c21.92-19.94,30.04-52.4,30.04-52.4s18.93-0.73,31.56,0c12.63,0.73,72.14,8.04,93.53,17.71
					c21.34,9.64,24.1,41.61,24.11,41.78C462.2,255.79,446.85,227.77,308.3,214.95z"/>
				<path fill="#69311D" d="M242.43,223.66l64.29-29.92c0,0-27.93,104.02-101.96,111.42c-1.91-24.95,6.41-46.29,8.1-59.69
					C220.72,236.47,230.5,229.03,242.43,223.66z"/>
				<path fill="#69311D" d="M162.67,182.87c0,0-116.83,118.95,24.89,202.5c-21.11-74.95,73.67-168.16,83.19-178.73
					C236.91,209.81,162.67,182.87,162.67,182.87z"/>
				<g>
					<path fill="#ED955A" d="M353.25,357.17c-16.95,25.46,8.21,38.07,18.33,38.07s33.14-5.64,18.33-38.07
						c-8.74-19.13,4.75-32.35-18.33-38.07C364.67,317.38,367.94,335.1,353.25,357.17z"/>
					<path fill="#F49F61" d="M357.48,354.35c-13.4,27.49,8.21,38.07,18.33,38.07c10.12,0,33.14-5.64,18.33-38.07
						c-8.74-19.14,5.45-38.07-18.33-38.07C365.94,316.27,366.69,335.44,357.48,354.35z"/>
				</g>
				<path fill="#442017" d="M190.47,268.28c1.94-23.49,16.86-49.03,30.55-67.94c-29.78-7.11-58.35-17.48-58.35-17.48
					s-116.83,118.95,24.89,202.5c-5.55-19.7-3.09-40.66,3.73-61.05C189.8,306.35,189,286.07,190.47,268.28z"/>
				<g>
					<path fill="#F8A973" d="M274.56,357.03c1.21-6.51,9.49-10.43,18.48-8.75c9,1.68,15.3,8.31,14.1,14.82
						c-1.21,6.5-9.49,10.43-18.48,8.75C279.66,370.17,273.34,363.54,274.56,357.03z"/>
					<path fill="#F8A973" d="M405.7,387.62c1.21-6.51,9.49-10.43,18.48-8.75c9,1.68,15.31,8.31,14.1,14.81
						c-1.21,6.52-9.49,10.43-18.48,8.75C410.8,400.77,404.49,394.13,405.7,387.62z"/>
				</g>
				<path fill="#F49763" d="M155.3,308.69c0,17.81,14.44,32.26,32.26,32.26c17.82,0,32.25-14.45,32.25-32.26
					c0-17.82-14.43-32.26-32.25-32.26C169.74,276.44,155.3,290.88,155.3,308.69z"/>
				<path fill="#69311D" d="M432.6,309.37c-4.28,0-12.66-1.29-21.92-9.71l5.69-6.26c9.65,8.77,17.14,7.5,17.46,7.45l1.76,8.27
					C435.46,309.15,434.38,309.37,432.6,309.37z"/>
				<path fill="#69311D" d="M339.97,297.82c-4.49,0-10.11-0.59-16.5-2.53l2.45-8.1c13.49,4.09,22.71,1.13,22.8,1.1l2.73,8
					C351.17,296.4,346.91,297.82,339.97,297.82z"/>
				<path fill="#FCB971" d="M364.7,375.01c0.68-3.62,6.11-5.65,12.13-4.52c6.02,1.14,10.35,4.99,9.66,8.62
					c-0.68,3.63-6.11,5.65-12.13,4.52C368.35,382.5,364.02,378.64,364.7,375.01z"/>
				<path fill="#F49763" d="M306.71,343.98c0,0,8.73,8.43,20.5,8.24c11.76-0.19,11.05-2.34,11.05-2.34s-4.15,8.67-16.44,6.61
					C309.54,354.45,306.71,343.98,306.71,343.98z"/>
				<path fill="#F49763" d="M329.41,432.1c0,0,7.71,9.38,19.41,10.54c11.71,1.16,11.25-1.05,11.25-1.05s-5.12,8.13-17.09,4.68
					C331.01,442.83,329.41,432.1,329.41,432.1z"/>
				<path fill="#F49763" d="M401.19,359.14c0,0,8.74,8.43,20.49,8.24c11.76-0.19,11.05-2.34,11.05-2.34s-4.15,8.66-16.43,6.61
					C404.01,369.61,401.19,359.14,401.19,359.14z"/>
				<g>
					<path fill="#E8B645" d="M271.8,154.54c55.57,0,88.89-14.62,90.6-15.38c6.93-3.11,10.02-11.26,6.91-18.18
						c-3.11-6.91-11.22-10.01-18.14-6.92c-0.75,0.33-46.85,20.04-120.19,10.21c-7.51-1.01-14.44,4.28-15.45,11.8
						c-1.01,7.53,4.28,14.44,11.8,15.45C243.39,153.67,258.26,154.54,271.8,154.54z"/>
				</g>
				<path fill="#E69B49" d="M215.53,136.07c1.01-7.53,7.94-12.82,15.45-11.8c10.9,1.46,21.17,2.26,30.8,2.57
					c1.88,5.8,5.88,16.88,12,27.69c-0.66,0-1.31,0.01-1.98,0.01c-13.55,0-28.42-0.87-44.47-3.02
					C219.8,150.51,214.52,143.6,215.53,136.07z"/>
				<path fill="#E88756" d="M181.64,288.56c5.5-1.58,11.12-0.69,15.69,2c-3.14-0.77-6.51-0.77-9.84,0.18
					c-10.2,2.92-16.11,13.57-13.19,23.77c1.99,6.96,7.57,11.91,14.15,13.44c-9.23,0.59-17.95-5.27-20.6-14.53
					C164.79,302.75,170.96,291.62,181.64,288.56z"/>
				<path fill="#69311D" d="M293.48,203.24c0,0,13.15,16.81,46.77,32.88c33.62,16.08,79.65,22.65,79.65,22.65
					s-47.5-16.8-73.81-32.88c-26.31-16.08-35.08-32.88-35.08-32.88L293.48,203.24z"/>
				<path fill="#69311D" d="M308.1,208.36c0,0,7.31,38-18.27,64.31c-25.58,26.31-71.62,29.97-71.62,29.97s46.04-8.77,61.39-32.16
					c15.35-23.39,18.27-64.31,18.27-64.31L308.1,208.36z"/>
				<path fill="#FFFFFF" d="M338.06,395.99c0,0,4.93,12.06,22.47,14.25c17.54,2.19,29.05-1.64,29.05-1.64s-7.68,25.76-33.44,24.11
					C330.39,431.07,338.06,395.99,338.06,395.99z"/>
				<path fill="#010101" d="M343.54,333.5c0,0,5.48-24.12-4.93-27.96c-10.41-3.83-18.63,4.39-21.92,10.96
					c-3.29,6.58-5.48,10.42-5.48,10.42l-13.15,1.09l18.09,6.58c0,0,9.86-23.02,16.45-21.92c6.57,1.1,2.74,23.02,2.74,23.02
					L343.54,333.5z"/>
				<path fill="#010101" d="M409.86,348.85l-6.03-1.1c0,0,2.19-18.09,7.68-22.47c5.48-4.39,14.79-1.65,15.34,6.03
					c0.55,7.68,0,14.8,0,14.8h7.68l-13.15,5.48c0,0,0.55-13.7-0.55-18.63C419.73,328.02,411.51,333.5,409.86,348.85z"/>
			</g>
		</g>
	</g>
</g>
</svg>
