<?xml version="1.0" encoding="utf-8"?>
<!-- Generator: Adobe Illustrator 25.2.3, SVG Export Plug-In . SVG Version: 6.00 Build 0)  -->
<svg version="1.1" id="Layer_1" xmlns="http://www.w3.org/2000/svg" xmlns:xlink="http://www.w3.org/1999/xlink" x="0px" y="0px"
	 viewBox="0 0 576 576" enable-background="new 0 0 576 576" xml:space="preserve">
<g>
	<g>
		<defs>
			<path id="SVGID_1_" d="M575.92,288c0,159.06-128.94,288-288,288s-288-128.94-288-288c0-159.05,128.94-288,288-288
				S575.92,128.94,575.92,288z"/>
		</defs>
		<use xlink:href="#SVGID_1_"  overflow="visible" fill="#F9E3D9"/>
		<clipPath id="SVGID_2_">
			<use xlink:href="#SVGID_1_"  overflow="visible"/>
		</clipPath>
		<g clip-path="url(#SVGID_2_)">
			<path fill="#AC1F28" d="M19.53,537.18c0,0,8.88,97.18,81.85,120.4C101.38,657.58,125.33,573.14,19.53,537.18z"/>
			<g>
				<path fill="#F8A075" d="M13.75,682.28c0.82-0.73,1.64-1.44,2.46-2.2c1.49-1.37,3.05-2.78,4.51-4.19
					c3.83-3.57,7.58-7.26,11.24-10.95c1.7-1.7,3.37-3.42,5.04-5.15c7.44-7.73,14.44-15.46,20.73-22.75
					c1.26-1.44,2.46-2.84,3.67-4.24c2.81-3.31,5.5-6.53,7.99-9.58c0.61-0.73,1.17-1.44,1.75-2.14c3.42-4.19,6.47-8.02,9.05-11.36
					c0.44-0.55,0.88-1.11,1.29-1.64c0.42-0.53,0.79-1.03,1.18-1.53c0.61-0.76,1.14-1.49,1.67-2.16c2.14-2.81,3.74-4.98,4.77-6.38
					c0.21-0.29,0.41-0.56,0.56-0.76c0.35-0.44,0.55-0.77,0.67-0.94c0.06-0.06,0.09-0.09,0.12-0.12c0.03-0.03,0.03-0.05,0.03-0.05
					h43.83l-6.71,24.62c8.99-6.97,14.49-11.28,14.49-11.28s5.51-16.34,12.21-37.86c0,0,0.03-0.03,0.03-0.06
					c12.88-41.25,30.28-101.52,21.99-101.93c-12.59-0.64-58.57-18.71-98.01,17.36c0,0-20.73,23.52-48.2,54.12
					c-0.65,0.73-1.32,1.47-2,2.23c-2.11,2.37-4.3,4.8-6.53,7.26C-22.3,599.47-78.66,661.17-97.05,676.63
					c-1.43,1.2-2.89,3.23-4.37,5.65H13.75z"/>
				<path fill="#F28B6F" d="M48.04,682.28c29.35-22.56,61.48-47.47,79.57-61.53l6.71-24.62H90.49c0,0-35.26,49.03-76.8,86.16H48.04z
					"/>
			</g>
			<path fill="#D62029" d="M101.38,657.58c0,0,25.01-21.93,42.14-39.73c1.6,8.03,4.13,15.17,7.82,20.99
				c4.93,7.82,9.29,23.24,13.15,43.44h54.92c-24.7-62.9-44.83-90.09-37.48-113.86c7.62-24.57-22.23-4.74-27.58,3.13
				c-5.36,7.88-63.86,24.57-63.86,24.57C99.42,612.02,104.48,632.14,101.38,657.58z"/>
			<path fill="#F0545C" d="M90.49,596.12c0,0,58.5-16.7,63.86-24.57c5.36-7.88,35.2-27.7,27.58-3.13
				c-7.35,23.77,12.78,50.96,37.48,113.86h265.11c-1-36.36-5.64-61.18-5.64-61.18h43.63c2-26.41,2.9-47.85,2.2-61.12
				c-4.19-78.03-68.78-113.29-74.67-115.81c-2.35-0.99-13.5-2.78-27.09-5.56c-20.44,24.95-55.02,54.82-98.95,46.67
				c-72.71-13.41-82.05-49.48-82.05-49.48c-20.41,8.81-52.97,16.69-66.85,19.82c-38.39-0.47-103.63,14.91-155.58,81.55
				C16.34,541.28,66.88,553.95,90.49,596.12z"/>
			<g>
				<path fill="#AC1F28" d="M610.56,562.07c0,0-16.9,96.12-91.54,113.21C519.01,675.28,502.14,589.14,610.56,562.07z"/>
				<g>
					<path fill="#F8A075" d="M473.39,585.22c4.9,22.01,9.03,38.75,9.03,38.75s5.13,4.74,13.51,12.43l-4.64-25.09l43.69,3.63
						c0,0-0.01,0.03,0.03,0.06l0.1,0.13c0.1,0.18,0.28,0.52,0.59,0.99c0.13,0.21,0.31,0.49,0.49,0.81c0.9,1.48,2.33,3.78,4.22,6.75
						c0.47,0.71,0.94,1.49,1.49,2.3c4.5,6.99,11.03,16.81,19.01,27.94h0.03c1.05,1.47,2.13,2.97,3.27,4.5
						c1.27,1.75,2.56,3.51,3.88,5.26c4.5,6.02,9.36,12.32,14.48,18.6h108.01c-23.29-28.56-55.92-71.05-83.2-107.01
						c-2.01-2.64-4-5.24-5.9-7.78c-0.61-0.81-1.22-1.6-1.8-2.39c-24.84-32.77-43.55-57.92-43.55-57.92
						c-36.32-39.22-83.63-25.03-96.23-25.43c-8.29-0.28,4.05,61.22,13.47,103.4C473.37,585.18,473.39,585.19,473.39,585.22z"/>
					<path fill="#F28B6F" d="M518.26,656.88c0.44,0.42,0.88,0.81,1.31,1.22c4.4,4.04,9.04,8.27,13.85,12.67
						c4.09,3.75,8.32,7.61,12.56,11.5h36.59c-5.11-6.28-9.98-12.58-14.48-18.6c-1.32-1.75-2.61-3.51-3.88-5.26
						c-1.14-1.53-2.22-3.03-3.27-4.5h-0.03c-7.98-11.13-14.51-20.95-19.01-27.94c-0.55-0.81-1.01-1.59-1.49-2.3
						c-1.9-2.98-3.32-5.27-4.22-6.75c-0.21-0.31-0.36-0.59-0.49-0.81c-0.31-0.47-0.49-0.81-0.59-0.99l-0.1-0.13
						c-0.03-0.03-0.03-0.06-0.03-0.06l-43.69-3.63l4.64,25.09C501.93,641.92,509.63,649,518.26,656.88z"/>
				</g>
				<path fill="#D62029" d="M455.65,569.8l24.66,62.38c15.6,19.17,38.7,43.09,38.7,43.09c-0.98-25.62,5.73-45.25,15.95-60.35
					c0,0-56.92-21.49-61.6-29.78C471,580.95,462.63,573.17,455.65,569.8z"/>
				<path fill="#F0545C" d="M455.65,569.8c6.98,3.37,15.35,11.15,17.71,15.34c4.69,8.29,61.6,29.78,61.6,29.78
					c27.02-40.07,78.43-48.51,75.59-52.86c-46.24-70.73-109.98-91.45-148.28-94.17C462.28,467.89,443.7,512.06,455.65,569.8z"/>
			</g>
			<path fill="#D62029" d="M517.02,682.28c2.23-22.35,4.13-43.15,5.49-61.18h-43.63c0,0,4.64,24.82,5.64,61.18H517.02z"/>
			<path fill="#F8A075" d="M387.81,470.97c-17.83,11.63-39.36,18.86-63.81,14.32c-72.71-13.41-82.05-49.49-82.05-49.49
				c18.98-8.2,88.14-27.91,115.48-21.76c2.96,7.82,6.3,15.87,9.99,23.72C373.35,450.18,380.15,461.95,387.81,470.97z"/>
			<path fill="#F8A075" d="M367.43,437.76l-125.47-1.96l3.83-52.77L341.93,364c0,0,5.5,23.48,15.51,50.04
				C360.4,421.86,363.74,429.91,367.43,437.76z"/>
			<path fill="#F28B6F" d="M369.69,358.5l-27.76,5.5c0,0,5.5,23.48,15.51,50.04c2.96,7.82,6.3,15.87,9.99,23.72
				c5.91,12.41,12.71,24.18,20.38,33.2c14.23-9.25,26.06-21.29,35.14-32.36C380.7,424.35,369.69,358.5,369.69,358.5z"/>
			<g>
				<path fill="#F28B6F" d="M356.98,416.19c-15.68,5.96-27.58,9.42-27.58,9.42s-106.41,2.5-130.91-24.96
					c-15.78-17.68-88.32-217.86-74.94-232.61c3.94-4.35,7.92-8.44,11.96-12.32c-5.36,30.64,62.46,220.47,77.62,238.01
					c24.67,28.59,131.17,26.61,131.17,26.61S349.25,418.87,356.98,416.19z"/>
				<path fill="#F8A075" d="M450.96,132.67c0,0-4.72,212.34-23.45,241.08c-11.42,17.51-45.35,32.94-70.14,42.3
					c-0.14,0.05-0.28,0.09-0.39,0.13c-7.73,2.68-12.69,4.15-12.69,4.15s-106.5,1.98-131.17-26.61
					c-15.16-17.54-82.98-207.37-77.62-238.01C266.46,29.65,450.96,132.67,450.96,132.67z"/>
				<g>
					<g>
						<g>
							<path fill="#95261F" d="M251.36,338.46c0,0,7.78,31.81,39.44,39.06c6.28-7.81,21.41-18.9,51.31-11.55
								c0.08,0.01,0.08,0.01,0.08,0.01c16.86-14.08,21.9-35.57,19.13-44.21l-5.92,0.99l-97.43,14.6L251.36,338.46z"/>
							<path fill="#FFFFFF" d="M355.39,322.74c1.18,7.03-0.23,13.99-5.72,17.9c-14.5,9.9-72.88,14.47-81.78,11.48
								c-5.48-1.82-8.35-9.31-9.92-14.78L355.39,322.74z"/>
						</g>
						<path fill="#F26745" d="M290.8,377.52c4.7,1.19,9.98,1.66,15.84,1.5c15.24-0.6,26.88-5.87,35.48-13.05
							C312.21,358.63,297.08,369.72,290.8,377.52z"/>
					</g>
					<path fill="#E76B48" d="M286.01,383.58c0,0,49.62-2.65,68.11-13.17C354.12,370.4,325.41,424.05,286.01,383.58z"/>
				</g>
				<path fill="#964627" d="M180.91,218.54c0.34,0.08,0.66,0.09,1,0.15c0.57,0.09,1.15,0.25,1.66,0.26
					c1.76,0.05,6.59-2.14,13.05-4.63c16.59-7.8,47.34-11.31,47.97-10.57c0.05-0.03,1.42-1.72,2.64-4.27
					c2.92-5.55,8.26-15.93,1.11-24.01c0,0-0.23-0.01-0.58-0.03c-5.58-1.94-51.58,2.88-68.96,22.02c-3.37,2.72-5.67,4.97-6.01,5.41
					c-0.96,1.26-1.5,2.42-1.85,3.5c-0.02,0.06-0.02,0.12-0.04,0.18c-0.31,1.05-0.39,2-0.31,2.85c0.01,0.13,0.03,0.25,0.05,0.38
					c0.17,1.14,0.53,2.16,1.01,2.92c0.25,0.4,0.65,0.68,0.96,1.04c0.31,0.36,0.59,0.72,0.95,1.04c0.48,0.44,0.99,0.81,1.53,1.18
					c0.35,0.24,0.7,0.46,1.07,0.67c0.6,0.34,1.17,0.64,1.79,0.91c0.36,0.16,0.71,0.27,1.08,0.4
					C179.68,218.17,180.29,218.39,180.91,218.54z M176.92,217c0.17,0.09,0.34,0.18,0.52,0.27C177.26,217.19,177.1,217.09,176.92,217
					z M173.97,215.09c0.16,0.14,0.34,0.26,0.51,0.39C174.31,215.35,174.14,215.23,173.97,215.09z M171.75,212.66
					c-0.01-0.02-0.02-0.05-0.03-0.06c0.05,0.08,0.12,0.15,0.18,0.23C171.86,212.76,171.79,212.72,171.75,212.66z M170.84,210.34
					c0.1,0.43,0.23,0.84,0.41,1.25C171.07,211.19,170.95,210.78,170.84,210.34z M170.79,207.66c-0.07,0.46-0.16,0.93-0.15,1.36
					C170.62,208.6,170.72,208.13,170.79,207.66z M171.77,204.84c-0.21,0.42-0.53,0.86-0.67,1.25
					C171.24,205.7,171.55,205.25,171.77,204.84z M178.83,197.49L178.83,197.49L178.83,197.49L178.83,197.49z M180.39,218.37
					c0.05,0.01,0.08,0.03,0.08,0.03S180.44,218.38,180.39,218.37z"/>
				<path fill="#964627" d="M396.6,194.54c0.32-0.2,0.65-0.39,0.97-0.61c0.55-0.39,1.05-0.81,1.56-1.27
					c0.32-0.28,0.61-0.57,0.9-0.87c0.45-0.47,0.88-0.94,1.25-1.48c0.29-0.39,0.48-0.8,0.71-1.22c0.22-0.42,0.56-0.78,0.71-1.22
					c0.31-0.85,0.45-1.92,0.37-3.07c-0.01-0.13-0.01-0.25-0.03-0.38c-0.1-0.86-0.38-1.76-0.9-2.72c-0.03-0.06-0.04-0.11-0.04-0.11
					c-0.6-1.05-1.37-2.07-2.57-3.09c-0.42-0.36-3.14-2.07-7.01-4.03c-21-15.08-66.99-10.16-72.05-7.09
					c-0.34,0.08-0.53,0.14-0.53,0.14c-5.33,9.41,2.07,18.44,6.09,23.25c1.72,2.24,3.42,3.61,3.47,3.63
					c0.46-0.85,31.28-3.87,49.13,0.29c6.84,1.09,12.02,2.21,13.73,1.79c0.5-0.12,1.04-0.4,1.57-0.6c0.32-0.12,0.63-0.2,0.95-0.35
					C395.48,195.25,396.02,194.89,396.6,194.54z M399.22,189.53c0.14-0.14,0.27-0.28,0.41-0.42
					C399.49,189.26,399.36,189.4,399.22,189.53z M401.48,186.91c0.12-0.18,0.25-0.34,0.36-0.53
					C401.72,186.56,401.6,186.73,401.48,186.91z M403.09,183.58c0.03-0.09,0.08-0.18,0.1-0.27l-0.01,0.08
					C403.17,183.46,403.12,183.51,403.09,183.58z M403.33,182.2c0.05-0.44,0.03-0.87,0-1.31
					C403.37,181.35,403.38,181.78,403.33,182.2z M403.11,179.58c-0.12-0.42-0.35-0.83-0.56-1.25
					C402.76,178.76,403,179.17,403.11,179.58z M401.77,176.94c-0.27-0.34-0.7-0.66-1.03-0.99
					C401.07,176.28,401.51,176.61,401.77,176.94z M391.74,171.17L391.74,171.17L391.74,171.17L391.74,171.17z M396.65,191.57
					c0.04-0.02,0.07-0.05,0.11-0.08C396.72,191.52,396.69,191.55,396.65,191.57z"/>
				<g>
					<path fill="#F2F3F3" d="M193.65,257.52c1.7,6.57,5.57,15.17,14.62,18.9c5.06,2.18,11.8,2.77,20.59,0.75
						c7.11-1.64,12.52-4.17,16.58-7.18c11.15-8.34,12.04-20.36,11.41-27.22c0,0-0.99-2.14-3-5.08l-33.39-1.66l-26.41,12.45
						c-0.63,4.28-0.51,7.73-0.41,8.7C193.62,257.39,193.65,257.52,193.65,257.52z"/>
					<g>
						<g>
							<path fill="#8E4634" d="M246.71,253.9c0.97,10.68-6.9,20.13-17.59,21.11c-10.68,0.97-20.13-6.91-21.11-17.59
								c-0.97-10.68,6.91-20.13,17.59-21.1C236.29,235.34,245.74,243.22,246.71,253.9z"/>
							<path fill="#704338" d="M237.85,254.71c0.53,5.79-3.74,10.91-9.53,11.44c-5.79,0.53-10.91-3.74-11.44-9.53
								c-0.53-5.79,3.74-10.91,9.53-11.44C232.21,244.65,237.33,248.92,237.85,254.71z"/>
							<path opacity="0.7" fill="#F2F3F3" d="M252.17,251.21c0.74,4.38-2.22,8.53-6.6,9.27c-4.39,0.74-8.53-2.22-9.27-6.6
								c-0.73-4.38,2.22-8.53,6.6-9.27C247.28,243.88,251.44,246.83,252.17,251.21z"/>
						</g>
						<path fill="#E76B48" d="M257.25,244.31c-42.73-22.23-63.31,14.39-63.31,14.39s-0.01-0.14-0.04-0.4
							c-0.1-1.06-0.38-4.98,0.11-9.85c1.14-10.35,5.74-25.3,23.21-28.96c19.52-4.06,31.6,10.31,36.8,18.88
							C256.15,241.8,257.25,244.31,257.25,244.31z"/>
					</g>
				</g>
				<g>
					<path fill="#F2F3F3" d="M392.68,233.43c-0.03,6.78-1.66,16.08-9.51,21.92c-4.37,3.36-10.76,5.59-19.78,5.79
						c-7.3,0.17-13.17-0.95-17.84-2.87c-12.86-5.34-16.69-16.77-17.76-23.57c0,0,0.43-2.32,1.66-5.66l31.95-9.84l28.67,5.56
						c1.66,4,2.4,7.36,2.54,8.33C392.69,233.3,392.68,233.43,392.68,233.43z"/>
					<g>
						<path fill="#8E4634" d="M340.37,243c1.7,10.59,11.65,17.81,22.25,16.12c10.59-1.69,17.81-11.65,16.12-22.25
							c-1.69-10.59-11.65-17.81-22.25-16.12C345.9,222.44,338.68,232.41,340.37,243z"/>
						<path fill="#704338" d="M349.15,241.59c0.92,5.74,6.32,9.66,12.06,8.74c5.74-0.92,9.66-6.32,8.74-12.06
							c-0.92-5.74-6.32-9.66-12.06-8.74C352.15,230.46,348.24,235.86,349.15,241.59z"/>
						<path opacity="0.7" fill="#F2F3F3" d="M334.41,241.74c0.37,4.43,4.26,7.72,8.68,7.36c4.43-0.36,7.73-4.25,7.36-8.68
							c-0.37-4.43-4.26-7.72-8.69-7.36C337.34,233.42,334.05,237.31,334.41,241.74z"/>
					</g>
					<path fill="#E76B48" d="M327.79,236.29c35.94-32.07,64.9-1.64,64.9-1.64s0.14-0.33,0.1-0.6c-0.16-1.05-0.53-4.82-2.2-9.41
						c-3.65-9.75-12.28-23.01-30.12-22.26c-19.92,0.88-28.72,17.38-31.66,26.96C327.6,233.19,327.79,236.29,327.79,236.29z"/>
				</g>
				<path fill="#833D23" d="M446.47,236.47c0,0,5.15-41.42,5.69-49.03s-41.41-26.06-41.41-26.06L446.47,236.47z"/>
				<path fill="#F28B6F" d="M154.25,293.29c0,0-26.24-32.79-31.76-19.83c-5.52,12.95-15.25,36.09-6.99,47.61
					c8.26,11.52,39.95,45.56,49.19,37.67c9.25-7.9,12.48-24.17,12.48-24.17L154.25,293.29z"/>
				<path fill="#C04532" d="M124.11,303.16c0,0,19.56-10.32,42.28,19.9l-1.03,3.28C165.35,326.33,152.78,304.8,124.11,303.16z"/>
				<path fill="#C04532" d="M156.07,313.86c0,0-16.05,2.7-16.03,12.91c0.03,10.21,18.26,10.22,18.26,10.22s-16.49-6.41-15.08-10.43
					c1.4-4.02,15.46-8.32,15.46-8.32L156.07,313.86z"/>
				<path fill="#F8A075" d="M442.81,247.24c0,0,14.73-39.32,24.01-28.74c9.27,10.59,25.72,29.56,21.46,43.07
					c-4.26,13.52-23.78,55.73-35.02,51.11c-11.24-4.63-19.39-19.08-19.39-19.08L442.81,247.24z"/>
				<path fill="#C04532" d="M474.52,247.24c0,0-21.8-3.72-33.98,32.07l2,2.79C442.54,282.1,447.79,257.73,474.52,247.24z"/>
				<path fill="#C04532" d="M447.47,267.36c0,0,16.1-2.42,19.26,7.29s-14.17,15.39-14.17,15.39s13.67-11.23,11.09-14.61
					c-2.58-3.38-17.28-3.09-17.28-3.09L447.47,267.36z"/>
				<polygon fill="#66301B" points="145.95,247.91 163.51,305.08 158.69,301.29 143.31,265.03 				"/>
				<polygon fill="#833D23" points="447.11,231.26 438.69,280.5 433.33,281.35 439.29,215.35 				"/>
				<path fill="#833D23" d="M303.71,308.34c0,0-75.1,1.4-68.6,37.41c6.51,36,2.4,40.28,2.4,40.28l9.41-1.5
					c0,0-10.53-50.51,24.38-53.82C311.47,326.91,304.82,314.4,303.71,308.34z"/>
				<path fill="#833D23" d="M303.18,308.42c0,0,71.4-21.97,76.43,14.27c5.03,36.24,10.24,39.03,10.24,39.03l-9.36,1.49
					c0,0-5.72-51.28-39.73-43.59C301.61,328.48,304.01,314.53,303.18,308.42z"/>
				<path fill="#66301B" d="M434.96,261.76l-11.7,75.95l-42.75,25.5c0,0-49.62,57.18-59.59,16.34l-6.17,1.16l-6.22,0.81
					c3.24,41.91-61.71,3.02-61.71,3.02l-48.56-10.92l-34.76-68.54l-4.82-3.79l35.39,102.08c32.57,29.1,128.84,26.01,128.84,26.01
					s91.68-26.91,113.58-64.7l5.73-104.89L434.96,261.76z"/>
				<path fill="#E76B48" d="M284.8,302.7l4.98-6.61c0,0,9.33,7.45,34.07-3.87C323.85,292.22,307.66,325.01,284.8,302.7z"/>
				<path fill="#F28B6F" d="M146.72,236.88c0,0,33.35-100.42,85.94-107.94c52.58-7.53,152.6,15.3,152.6,15.3l-15.14-52.44
					l-178.64-5.78C191.48,86.03,126.75,216.66,146.72,236.88z"/>
				<path fill="#66301B" d="M143.31,265.03c0,0,8.95-86.55,53.21-122.31c0,0-60.98-28.28-86.9,6.78
					C109.62,149.49,118.32,218.14,143.31,265.03z"/>
				<path fill="#66301B" d="M110.79,97.18c0,0,32.35,36.65,81.31,50.16c0,0,34.46-44.43,121.75-27.65s84.12,22.54,84.12,22.54
					s-48.48-99.05-127.12-98.17C192.21,44.93,139.38,71.6,110.79,97.18z"/>
				<path fill="#833D23" d="M435.11,206.67c-20.9,0.9-40.03-5.17-56.24-15.33c2.1-6.45,4.77-13.2,8.05-20.04
					C407.16,192.97,435.11,206.67,435.11,206.67z"/>
				<path fill="#833D23" d="M388.74,62.62c-3.28,17.29-10.24,41.18-25.06,57.96c-2.9-5.13-5.39-9.84-7.38-13.79
					c1.63,3.91,3.58,8.94,5.87,15.42c-7.45,7.96-16.79,14.07-28.47,16.8c-3.18-7.13-5.45-14.34-6.78-21.42
					c-7.99-42.86-69.87-72.2-69.87-72.2C288.33,32.69,350.15,45.34,388.74,62.62z"/>
				<path fill="#833D23" d="M452.15,187.45c0,0-0.44,4.86-30.41-6.05c-10.54-3.83-20.41-11.5-29.18-20.72
					c11.02-19.05,27.46-37.69,51.93-50.87C460.91,144.21,452.15,187.45,452.15,187.45z"/>
				<g>
					<path fill="#A14B2A" d="M386.92,171.3c-3.28,6.84-5.95,13.59-8.05,20.04c-20.45-12.82-36.25-32.18-45.16-52.32
						c11.68-2.73,21.02-8.84,28.47-16.8c1.96,5.56,4.17,12.19,6.62,19.98C372.18,152.92,378.96,162.74,386.92,171.3z"/>
					<path fill="#A14B2A" d="M444.48,109.81c-24.46,13.17-40.9,31.81-51.93,50.87c-11.76-12.3-21.64-27.46-28.87-40.09
						c14.82-16.78,21.78-40.67,25.06-57.96c16.87,7.55,31.71,16.99,42.06,27.46C436.64,95.96,441.09,102.71,444.48,109.81z"/>
				</g>
			</g>
			<g>
				<g>
					<g>
						<path fill="#010101" d="M379.43,209.32l33.71,41.71c1.06-7.8,0.29-15.54-2.01-22.22c-2.8-8.09-11.17-15.6-20.78-17.79
							C386.98,210.24,383.3,209.67,379.43,209.32z"/>
						<path fill="#010101" d="M343.1,212.06l55.18,68.3c1.95-1.64,3.67-3.47,5.24-5.52l-52.15-64.56
							C348.58,210.73,345.81,211.33,343.1,212.06z"/>
						<path fill="#010101" d="M355.29,287.52l-43.77-54.21C301.56,254.78,328.46,282.56,355.29,287.52z"/>
						<path fill="#3E3E3E" d="M311.52,233.31l43.77,54.21l0.03-0.01c0.27,0.06,0.56,0.12,0.83,0.16
							c20.13,3.37,33.28,0.21,42.13-7.32l-55.18-68.3c-9.5,2.49-18.25,6.51-24.85,12.39C315.14,227.22,312.93,230.2,311.52,233.31z"
							/>
					</g>
					<path fill="#3E3E3E" d="M351.36,210.28l52.15,64.56c2.28-2.99,4.19-6.35,5.81-10.05c1.96-4.46,3.2-9.09,3.82-13.72l-33.78-41.8
						C370.61,208.44,360.84,208.67,351.36,210.28z"/>
				</g>
				<g opacity="0.5">
					<path fill="#E3E3E3" d="M221.15,224.4l0.97,1.2c8.99-1.79,18.53-2.49,27.5-1.63l-0.47-0.58
						C240.4,222.55,230.63,222.78,221.15,224.4z"/>
				</g>
				<path fill="#2A2436" d="M355.7,289.32c-20.42-3.41-40.92-19.62-46.68-36.92c-3.71-11.17-0.99-21.23,7.86-29.1
					c17.91-15.93,51.48-19.07,73.98-13.95c9.96,2.27,19.06,10.05,22.12,18.92l0,0c3.97,11.52,3.28,25.37-1.85,37.06
					c-6.65,15.14-17.57,23.34-33.74,25.02C371,291.02,363.79,290.66,355.7,289.32z M409.27,229.34
					c-2.71-7.85-10.74-14.74-19.53-16.74c-21.43-4.88-53.28-1.99-70.14,12.99c-9.84,8.75-9.16,18.85-6.86,25.77
					c5.4,16.24,24.65,31.47,43.82,34.66c26.67,4.45,42.39-2.27,50.95-21.78C412.35,253.23,413.01,240.18,409.27,229.34
					L409.27,229.34z"/>
				<path fill="#2A2436" d="M307.96,248.34c0,0-1.95-7.14-10.77-6.59l-1.22-12.74c0,0,13.65-3.06,20.92-5.71
					C316.89,223.3,305.32,240.38,307.96,248.34z"/>
				<path fill="#010101" d="M185.43,275.49l0.08-0.18c1.47,4.23,3.5,8.32,6.15,12.12c2.29,3.29,4.8,6.19,7.61,8.66
					c1.92,1.68,3.96,3.12,6.18,4.32c7.7,4.22,17.35,5.45,29.92,2.53c3.96-0.92,8.22-2.24,12.78-4.04c0.25-0.1,0.52-0.21,0.77-0.33
					h0.03c5.3-2.16,10.39-5.32,15.04-9.11c1.95-1.59,3.81-3.28,5.59-5.08c5.7-5.81,10.32-12.54,13.17-19.39
					c4.26-10.18,4.61-20.58-1.22-28.58c-1.98-2.75-4.71-5.22-8.29-7.29c-7.59-4.41-16.94-6.54-26.72-7.03
					c-2.79-0.16-5.63-0.18-8.44-0.04c-9.29,0.36-18.57,2.07-26.8,4.54l0.05-0.07c-1.31,0.4-2.63,0.83-3.87,1.29
					c-0.16,0.06-0.28,0.1-0.4,0.16c-2.26,0.79-4.41,1.64-6.43,2.57c-8.41,3.83-14.93,11.81-17,19.74c-0.23,0.83-0.42,1.66-0.54,2.5
					C182.09,259.96,182.81,267.9,185.43,275.49z M268.5,283.01l-46.37-57.41c8.99-1.79,18.53-2.49,27.5-1.63l31.8,39.34
					C278.77,270.25,274.21,277.1,268.5,283.01z M229.54,302.33c-1.18-0.15-2.37-0.34-3.61-0.54c-0.27-0.05-0.56-0.1-0.83-0.16h-0.03
					l-40-49.55c1.38-8.07,7.79-16.15,15.82-19.85c3.96-1.8,8.4-3.41,13.08-4.7l48.96,60.6c-4.77,3.9-10.04,7.11-15.53,9.25
					c-6.48,2.53-12.42,4.18-17.85,4.95H229.54z"/>
				<path fill="#2A2436" d="M180.9,263.51c0.84,8.78,4,17.54,9.09,24.83c9.4,13.47,21.69,19.26,37.84,17.58
					c4.17-0.44,8.57-1.36,13.26-2.79h0.02c2.53-0.75,5.11-1.65,7.79-2.69c5.73-2.23,11.23-5.56,16.21-9.61
					c1.95-1.57,3.84-3.27,5.59-5.06c4.38-4.39,8.17-9.31,11.02-14.45c3.08-5.47,5.15-11.17,5.87-16.68
					c0.31-2.43,0.37-4.74,0.16-6.93c0-0.03,0-0.03,0-0.03c-0.79-8.47-5.34-15.27-13.4-19.94c-20.59-11.94-54.08-8.1-75.15,1.57
					c-5.3,2.41-9.97,6.5-13.27,11.3c-1.69,2.46-3.02,5.1-3.85,7.79c-0.47,1.33-0.79,2.66-0.97,4
					C180.63,256.02,180.55,259.77,180.9,263.51z M193.32,286.53c-6.84-9.81-9.95-22.47-8.37-33.85c0.03-0.21,0.06-0.39,0.12-0.6
					c1.38-8.07,7.79-16.15,15.82-19.85c3.96-1.8,8.4-3.41,13.08-4.7c2.63-0.77,5.37-1.43,8.15-1.94c8.99-1.79,18.53-2.49,27.5-1.63
					c8.31,0.77,16.08,2.85,22.52,6.56c11.3,6.55,12.56,16.59,11.62,23.84c-0.4,2.95-1.17,5.95-2.34,8.93
					c-2.65,6.95-7.21,13.8-12.93,19.7c-1.75,1.79-3.61,3.51-5.56,5.13c-4.77,3.9-10.04,7.11-15.53,9.25
					c-6.48,2.53-12.42,4.18-17.85,4.95h-0.03C213.86,304.59,202.33,299.43,193.32,286.53z"/>
				<path fill="#3E3E3E" d="M185.08,252.08l40,49.55h0.03c0.27,0.06,0.56,0.12,0.83,0.16c1.23,0.2,2.42,0.39,3.61,0.54h0.03
					c5.43-0.77,11.37-2.42,17.85-4.95c5.49-2.14,10.76-5.35,15.53-9.25l-48.96-60.6c-4.68,1.29-9.12,2.9-13.08,4.7
					C192.87,235.93,186.45,244.02,185.08,252.08z"/>
				<path fill="#3E3E3E" d="M222.13,225.59l46.37,57.41c5.71-5.9,10.27-12.75,12.93-19.7l-31.8-39.34
					C240.66,223.11,231.12,223.81,222.13,225.59z"/>
				<path fill="#2A2436" d="M287.89,250.42c0,0,0.55-7.4,9.3-8.68l-1.23-12.74c0,0-13.96-0.18-21.59-1.27
					C274.37,227.72,288.95,242.08,287.89,250.42z"/>
			</g>
			<polygon fill="#3E3E3E" points="142.89,280.84 180.9,263.51 185.08,279.53 149.36,289.02 			"/>
			<polygon fill="#3E3E3E" points="414.38,233.31 449.12,233.03 444.48,243.08 414.38,243.08 			"/>
		</g>
	</g>
</g>
</svg>
