<?xml version="1.0" encoding="utf-8"?>
<!-- Generator: Adobe Illustrator 25.2.3, SVG Export Plug-In . SVG Version: 6.00 Build 0)  -->
<svg version="1.1" id="Layer_1" xmlns="http://www.w3.org/2000/svg" xmlns:xlink="http://www.w3.org/1999/xlink" x="0px" y="0px"
	 viewBox="0 0 576 576" enable-background="new 0 0 576 576" xml:space="preserve">
<g>
	<g>
		<defs>
			<path id="SVGID_1_" d="M575.93,288c0,159.05-128.94,288-288,288s-288-128.94-288-288c0-159.06,128.94-288,288-288
				S575.93,128.94,575.93,288z"/>
		</defs>
		<clipPath id="SVGID_2_">
			<use xlink:href="#SVGID_1_"  overflow="visible"/>
		</clipPath>
		<g clip-path="url(#SVGID_2_)">
			<path fill="#F9E3D9" d="M575.93,288c0,159.05-128.94,288-288,288s-288-128.94-288-288c0-159.06,128.94-288,288-288
				S575.93,128.94,575.93,288z"/>
			<g>
				<g>
					<path fill="#28110C" d="M164.3,336.53c0,0,0.32,0.44,0.82,1.21c0.48,0.76,1.18,1.84,2.07,3.23c0.87,1.35,1.95,2.93,3.37,4.75
						c0.74,0.93,1.48,1.83,2.55,2.92c0.58,0.58,1.31,1.25,2.02,2.16c0.79,0.97,1.48,2.29,1.5,3.57c0.07,1.54-0.76,2.99-1.77,3.79
						c-1,0.81-2.16,1.29-3.4,1.71c0,0,0.19-0.68,0.51-1.81c0.12-0.51,0.26-1.2,0.19-1.63c-0.12-0.33-0.37-0.56-0.6-0.64
						c-0.17-0.05-0.33-0.04-0.41,0.02c-0.52-0.28-1.06-0.58-1.62-0.89c-1.68-0.94-3.68-2.57-4.97-4.54
						C161.8,346.53,161.19,340.66,164.3,336.53z"/>
				</g>
				<path fill="#28110C" d="M139.63,141.87c0,0-56.58,61.02-22.19,137.57c34.39,76.55,112.39,123.68,121.65,120.64
					C248.35,397.04,249.46,188.47,139.63,141.87z"/>
				<path fill="#DF1E2E" d="M286.07,453.93c14.05-17.74,17.2-11.1,34-9.78c17.96,1.41,16.05,40.08,10.75,78
					c-11.71,83.78-38.7,114.9-38.7,114.9l-62.11-57.45C230.02,579.6,251.35,497.77,286.07,453.93z"/>
				<path fill="#782C16" d="M267.59,669.96c1.33-10.08,1.23-20.39-1.01-30.53c-3.59-16.13-8.6-25.39-14.01-30.26
					c7.98,2.29,15.98,11.31,21.06,34.3c1.94,8.79,2.32,17.72,1.54,26.49H267.59z"/>
				<path fill="#8E4920" d="M210.55,669.96c9.54-34.74,23.74-73.46,26.05-81.21c0,0,2.7,16.59,15.97,20.42
					c5.41,4.87,10.42,14.12,14.01,30.26c2.25,10.14,2.34,20.45,1.01,30.53H210.55z"/>
				<polygon fill="#7E797D" points="44.47,395.6 36.84,401.19 41.85,403.04 				"/>
				<polygon fill="#7E797D" points="175.1,584.55 181.58,579.74 173.39,580.17 				"/>
				<path fill="#7E797D" d="M52.9,393.67l59.02,3.15c11.09,0.59,23.16,10.62,26.96,22.42l46.15,143.02
					c3.81,11.79-2.1,20.86-13.19,20.27l-59.02-3.15c-11.09-0.59-23.16-10.62-26.96-22.42L39.71,413.94
					C35.9,402.15,41.81,393.08,52.9,393.67z"/>
				<g>
					<path fill="#A39DA2" d="M172.72,548.66l-98.79-4.16L33.32,418.66c-3.8-11.78,2.09-20.87,13.2-20.28l59.02,3.16
						c11.06,0.59,23.17,10.62,26.97,22.4L172.72,548.66z"/>
				</g>
				<path fill="#90888D" d="M165.48,587.23l-59.03-3.11c-11.1-0.6-23.16-10.62-26.97-22.4l-5.55-17.22l98.79,4.16l5.9,18.29
					C182.42,578.78,176.54,587.82,165.48,587.23z"/>
				<path fill="#C8C7C6" d="M96.06,461.12c8.83,0.17,17.36,7.38,19.04,16.05c1.67,8.7-4.14,15.6-12.97,15.43s-17.33-7.35-19-16.05
					C81.45,467.89,87.23,460.95,96.06,461.12z"/>
				<g>
					<path fill="#C8C7C6" d="M51.61,430c-3.78-0.04-7.42-3.15-8.14-6.84c-0.71-3.74,1.76-6.7,5.53-6.6
						c3.78,0.09,7.42,3.15,8.14,6.88C57.85,427.13,55.38,430.08,51.61,430z"/>
				</g>
				<g>
					<path fill="#7E797D" d="M58.39,423.46c-0.81-4.44-5.15-8.08-9.66-8.18c-4.47-0.05-7.39,3.44-6.57,7.87
						c0.87,4.38,5.21,8.08,9.67,8.13C56.34,431.38,59.27,427.84,58.39,423.46z M51.61,430c-3.78-0.04-7.42-3.15-8.14-6.84
						c-0.71-3.74,1.76-6.7,5.53-6.6c3.78,0.09,7.42,3.15,8.14,6.88C57.85,427.13,55.38,430.08,51.61,430z"/>
				</g>
				<path fill="#7E797D" d="M49.47,419.04c2.38,0.05,4.69,2,5.14,4.33c0.45,2.35-1.12,4.21-3.5,4.16c-2.38-0.05-4.68-1.98-5.13-4.33
					C45.53,420.87,47.09,418.99,49.47,419.04z"/>
				<g>
					<g>
						<path fill="#F39D61" d="M154.27,539.89c-2.59-0.15-8.72-0.19-13.34,1.85c-2.67-0.47-5.78-1.43-8.06-3.28L154.27,539.89z"/>
						<path fill="#782C16" d="M242.22,583.68c-1.8,3.87-4.33,6.36-7.83,5.36c-11.08-3.16-15.21,5.42-27.04,9.68
							c-11.83,4.26-18.29,1.52-32.18-1.96c-13.89-3.47-10.71-10.04-11.61-14.39c-0.9-4.35-7.77-2.47-9.72-7.52
							c-1.96-5.04,1.48-12.56,1.48-12.56s-18.88,5.27-21.24-8.31c-0.54-3.12,0.22-5.4,1.7-7.07c-0.39,1.24-0.49,2.71-0.19,4.42
							c2.35,13.57,21.24,8.31,21.24,8.31s-3.43,7.51-1.48,12.55c1.94,5.05,8.81,3.17,9.71,7.52c0.91,4.35-2.27,10.91,11.62,14.39
							c13.89,3.49,20.35,6.23,32.17,1.97c11.83-4.26,15.96-12.84,27.04-9.68C238.53,587.13,240.58,585.93,242.22,583.68z"/>
						<path fill="#8E4920" d="M133.33,534.36c0.58,0.62,1.23,1.2,1.95,1.74c0.11,0.11,0.22,0.22,0.33,0.29
							c0.25,0.18,0.51,0.36,0.83,0.54c0.14,0.11,0.32,0.2,0.47,0.31c0.07,0.04,0.14,0.09,0.2,0.12c0.17,0.11,0.33,0.22,0.52,0.33
							c0.43,0.22,0.83,0.47,1.19,0.69c0.04-0.04,0.04-0.04,0.04,0c0.29,0.18,0.62,0.36,0.91,0.54h0.03l0.04,0.03
							c0.54,0.22,1.05,0.43,1.52,0.65c0.43,0.18,0.87,0.37,1.27,0.54c0.4,0.18,0.79,0.36,1.16,0.51c0.07,0.04,0.11,0.04,0.11,0.07
							l0.07,0.04c2.25,0.83,4.02,1.34,4.45,1.44c0.04,0.04,0.07,0.04,0.07,0.04s-0.25,0-0.65,0c-0.43,0.03-1.05,0.07-1.77,0.07
							c1.12,0.07,2.06,0.14,2.97,0.18c-4.31,0.14-10.28,1.05-13.28,4.38l-0.04,0.11l-0.11,0.58c0,0.07-0.04,0.14-0.04,0.22
							c-0.03,0.18-0.07,0.36-0.07,0.54c-0.03,0.03-0.03,0.07-0.03,0.14c-0.11,0.83-0.07,1.81,0.11,2.86
							c0.14,0.98,0.43,1.85,0.76,2.61c0.14,0.36,0.29,0.69,0.47,1.01c0,0.04,0.03,0.04,0.03,0.04c0.18,0.39,0.4,0.72,0.65,1.01
							c0.15,0.26,0.33,0.47,0.51,0.65c0.18,0.22,0.39,0.47,0.61,0.66c0.07,0,0.04,0.07,0.11,0.07c0,0.03,0.03,0.07,0.07,0.07
							c0,0,0.07,0,0.07,0.03c0.22,0.14,0.36,0.29,0.54,0.47c0.07,0.03,0.11,0.07,0.14,0.14c0.03,0,0.07,0,0.11,0.03
							c0,0,0.04,0.04,0.07,0.04c0.14,0.14,0.29,0.22,0.43,0.33c0.14,0.11,0.3,0.18,0.44,0.22c0.11,0.07,0.29,0.18,0.36,0.25
							l0.18,0.04c0.36,0.22,0.79,0.39,1.23,0.58c0.18,0.04,0.33,0.11,0.54,0.18c0.14,0.07,0.36,0.11,0.51,0.14
							c0.11,0.07,0.14,0.11,0.26,0.11h0.03l1.27,0.29l0.66,0.14c0.18,0.04,0.39,0.04,0.61,0.04h0.14c0.04,0,0.04,0,0.11,0l0.07,0.03
							c0.07,0.04,0.18,0.04,0.26,0.04c0.25,0.03,0.51,0.03,0.76,0.07h1.23c0.61,0,1.16-0.04,1.66-0.04h0.33l0.11-0.03
							c0.73-0.04,1.34-0.07,1.92-0.18l0.47-0.07l0.33-0.07h0.29c0.03,0,0.03,0,0.03,0c0.44-0.03,0.83-0.11,1.16-0.22
							c0.03,0.04,0.07,0,0.14-0.03c0.03,0,0.07,0,0.11-0.04h0.14c0.26,0,0.47-0.03,0.65-0.11c0.04,0,0.07-0.04,0.07-0.04
							c0.22-0.03,0.4-0.03,0.54-0.07c-0.03,0.11-0.07,0.22-0.14,0.33c0,0.07-0.03,0.14-0.07,0.22c-0.03,0.07-0.03,0.14-0.07,0.22
							c-0.03,0.07-0.03,0.18-0.11,0.29c-0.04,0.11-0.07,0.22-0.15,0.32c-0.07,0.04-0.07,0.11-0.11,0.22
							c-0.07,0.14-0.11,0.29-0.14,0.51l-0.04,0.03l-0.07,0.33c-0.07,0.14-0.07,0.29-0.11,0.43c-0.04,0.14-0.07,0.25-0.11,0.39
							c-0.11,0.22-0.14,0.47-0.22,0.69c0,0,0,0.04-0.03,0.07c-0.07,0.36-0.18,0.79-0.29,1.23c0,0.07,0,0.18-0.04,0.29
							c-0.07,0.39-0.14,0.87-0.18,1.3c-0.07,0.36-0.11,0.72-0.11,1.09c0,0.03,0,0.03,0,0.03c-0.03,0.26-0.03,0.4-0.03,0.58
							c0,0.07,0,0.14,0.03,0.22c0,0.07-0.03,0.14-0.03,0.22c0,0.11,0,0.22,0.03,0.33c0,0.04-0.03,0.07,0,0.11
							c-0.03,0.11-0.07,0.22-0.03,0.29c0.03,0.36,0.07,0.58,0.14,0.94v0.11c0.03,0.37,0.14,0.73,0.29,1.12
							c0.03,0.18,0.11,0.36,0.18,0.54c0.11,0.33,0.26,0.62,0.4,0.87c0.14,0.26,0.32,0.47,0.51,0.73c0.54,0.54,1.16,1.01,1.81,1.41
							c0.29,0.14,0.61,0.32,0.94,0.43c0.26,0.11,0.51,0.22,0.76,0.32c0.29,0.07,0.54,0.18,0.79,0.26c0.62,0.22,1.23,0.43,1.77,0.68
							c0.29,0.11,0.54,0.22,0.79,0.37c0.11,0.03,0.18,0.11,0.29,0.14c0.11,0.07,0.22,0.14,0.33,0.25c0.07,0.04,0.14,0.11,0.22,0.18
							c0.07,0.11,0.18,0.18,0.29,0.29c0.08,0.09,0.13,0.19,0.2,0.28c0.28,0.35,0.46,0.78,0.6,1.31v0.04
							c0.04,0.26,0.11,0.58,0.11,0.87c0.11,0.83,0.11,1.74,0.14,2.68l-0.03,0.07c0.03,0.29,0.07,0.58,0.07,0.91
							c0.03,0.32,0.07,0.69,0.11,1.01c0.04,0.33,0.11,0.66,0.22,0.98c0.07,0.33,0.18,0.65,0.33,0.98c0.03,0.18,0.11,0.33,0.22,0.51
							c0.07,0.14,0.14,0.33,0.22,0.47c0.07,0.11,0.14,0.18,0.22,0.29c0.14,0.22,0.33,0.43,0.47,0.69c0.25,0.32,0.54,0.61,0.87,0.9
							c0.18,0.18,0.36,0.33,0.54,0.47c0.18,0.14,0.36,0.29,0.58,0.43c0.29,0.22,0.58,0.43,0.94,0.58c0.14,0.11,0.29,0.18,0.47,0.26
							c0.25,0.14,0.51,0.29,0.79,0.43c0.54,0.26,1.2,0.54,1.88,0.79c0.36,0.11,0.68,0.22,1.05,0.33c0.72,0.22,1.52,0.47,2.38,0.69
							c0.51,0.14,0.98,0.25,1.41,0.39c0.76,0.18,1.48,0.36,2.17,0.55l0.36,0.07c0.51,0.14,0.98,0.29,1.48,0.4
							c0.47,0.14,0.95,0.25,1.41,0.36c1.08,0.29,2.03,0.55,3.04,0.76c1.92,0.47,3.69,0.87,5.39,1.12c0.14,0.04,0.29,0.07,0.43,0.11
							c0.87,0.11,1.71,0.22,2.57,0.29c0.83,0.07,1.7,0.11,2.57,0.11c3.47,0,7.06-0.61,11.37-2.17c0.62-0.22,1.23-0.47,1.81-0.72
							c0.44-0.14,0.83-0.33,1.2-0.51c0.98-0.47,1.85-0.9,2.72-1.37c0.43-0.26,0.87-0.47,1.27-0.72c0.39-0.22,0.79-0.47,1.2-0.73
							c0.22-0.14,0.39-0.25,0.58-0.36c0.43-0.29,0.83-0.54,1.27-0.79c0.14-0.11,0.29-0.18,0.43-0.29c0.11-0.07,0.18-0.14,0.29-0.22
							c0.36-0.26,0.76-0.51,1.16-0.72c0.47-0.29,0.91-0.58,1.38-0.87c0.47-0.26,0.91-0.54,1.37-0.8c0.07-0.03,0.07-0.03,0.07-0.03
							c0.36-0.22,0.69-0.4,1.05-0.54c0.4-0.26,0.79-0.43,1.23-0.54c0.14-0.11,0.32-0.14,0.47-0.22c0.07,0,0.07,0,0.07,0v-0.03
							c0.26-0.07,0.51-0.22,0.76-0.22c0.36-0.11,0.72-0.22,1.08-0.29c0.43-0.11,0.9-0.14,1.35-0.2c0.58-0.09,1.18-0.11,1.78-0.1
							c0.58,0.01,1.14-0.01,1.75,0.08c0.83,0.15,1.74,0.33,2.72,0.58c0.54,0.14,1.04,0.22,1.52,0.18c0.18,0,0.36,0,0.51-0.03
							c0.07,0,0.18-0.04,0.26-0.07c0.11,0,0.26-0.04,0.33-0.04c0.14-0.03,0.22-0.07,0.36-0.11c0.03,0,0.11-0.04,0.18-0.04
							c0.07-0.03,0.18-0.07,0.26-0.07c0.07,0,0.11-0.03,0.14-0.07c0.07-0.03,0.11-0.07,0.18-0.14c0.11-0.03,0.22-0.11,0.32-0.18
							c0.07-0.03,0.14-0.07,0.18-0.11c0.07,0,0.11-0.04,0.18-0.07c0.07-0.07,0.18-0.14,0.26-0.22c0.14-0.11,0.29-0.26,0.47-0.4
							c0.22-0.22,0.43-0.4,0.62-0.65c0.22-0.26,0.43-0.51,0.62-0.76c3.83-8.32,7.81-15.63,7.81-15.63s-9.19-8.69-19.83-21.24
							c-8.65-10.17-8.51-18.93-14.29-23.02c-6.15-1.59-44.01-11.8-48.75-19.15l4.96,15.78c0.18,0.07,0.4,0.14,0.62,0.22
							c0.65,0.25,1.3,0.47,1.99,0.68c0.58,0.18,1.12,0.36,1.7,0.54c0.4,0.14,0.79,0.25,1.16,0.36c1.23,0.36,2.38,0.69,3.43,0.94
							l0.04,0.04c0.43,0,0.76,0.03,1.16,0.11c0.76,0.04,1.45,0.15,2.1,0.26c1.7,0.26,3.04,0.65,3.58,1.12c0,0-0.72-0.14-1.99-0.29
							c-0.18-0.04-0.39-0.07-0.65-0.07c-0.69-0.11-1.48-0.22-2.42-0.29c-1.34-0.11-2.9-0.18-4.56-0.26
							c-0.58-0.07-1.08-0.07-1.7-0.07c0,0-0.11,0-0.18,0.04c-1.05,0-2.17,0-3.26,0.07c-0.04,0-0.04,0-0.11-0.04c0,0-0.03,0-0.11,0
							l-0.07-0.03c-1.02,0.07-2.03,0.18-3.08,0.29c0,0-22.19-3.33-33.51-0.47c-1.05,0.29-2.03,0.62-2.86,1.02l0.11,0.07l0.07,0.03
							c0,0-0.07,0.11-0.22,0.29c0,0.04-0.03,0.07-0.07,0.11c-0.25,0.22-0.51,0.61-0.79,1.08c-0.07,0.14-0.14,0.29-0.26,0.43
							c-0.07,0.14-0.14,0.29-0.22,0.47C131.15,528.9,130.72,531.61,133.33,534.36z"/>
						<path fill="#782C16" d="M181.02,523.16c-1.5-0.14-3.02-0.23-4.54-0.32c-0.88-0.01-1.77-0.02-2.59-0.02l-1.06-0.05l-0.7-2.4
							c0.72,0.27,1.9,0.64,2.62,0.91C176.99,522.07,179.17,522.71,181.02,523.16z"/>
						<path fill="#782C16" d="M148.49,542.23c0,0-0.97,0.05-2.44,0.09c-1.59-0.09-3.36-0.31-5.12-0.58
							c-2.67-0.47-5.78-1.43-8.06-3.28c-2.66-2.17-4.23-5.48-2.8-10.57c0.41-1.42,1.6-2.53,3.33-3.32l0.23,0.11
							c0,0-4.94,4.79-0.3,9.7C137.94,539.29,148.49,542.23,148.49,542.23z"/>
					</g>
					<path fill="#782C16" d="M187.91,524.68c0,0-0.74-0.16-2-0.31c-0.17-0.03-0.39-0.08-0.64-0.07c-0.69-0.09-1.49-0.2-2.42-0.28
						c-1.33-0.11-2.91-0.21-4.55-0.26c-0.58-0.06-1.11-0.05-1.7-0.06c0,0-0.11-0.03-0.18,0.02c-1.06,0.01-2.19,0.01-3.26,0.07
						c-0.06-0.01-0.06-0.01-0.11-0.03c-0.06-0.01-0.06-0.01-0.12-0.02l-0.05-0.01l-0.04-0.95l1.06,0.05c0.83,0,1.71,0.01,2.59,0.02
						c1.52,0.09,3.04,0.17,4.54,0.32l0.06,0.01c0.41,0.03,0.76,0.05,1.16,0.13c0.76,0.04,1.45,0.13,2.07,0.26
						C186.02,523.8,187.35,524.21,187.91,524.68z"/>
				</g>
				<path fill="#F05041" d="M429.77,669.96H252.22c7.98-13.47,13.05-29.4,12.66-48.91c-0.37-16.76-18.9-42.14-24.46-66.04
					c-4.23-18.21,22.88-33.13,32.59-64.25c4.52-14.49,17.5-52.77,39.2-74.51c25.16-25.16,55.26-45.1,75.18-34.18
					c6.34,1.41,11.71,10.1,11.71,10.1c27.29,26.84,95.91,111.02,45.83,240.66C439.89,645.87,434.84,658.09,429.77,669.96z"/>
				<path fill="#DF1E2E" d="M385.11,523.83c-0.49-3.84-9.8,98.07-94.39,91.94v17.16C290.72,632.94,401.05,650.09,385.11,523.83z"/>
				<path fill="#8E4920" d="M345.46,669.96c11.15-31.58,23.87-60.69,27.98-69.73c0,0,49.11-41.34,55.43,37.53
					c0.87,10.92-0.21,21.71-2.53,32.19H345.46z"/>
				<path fill="#8E4920" d="M267.81,669.96c-35.67-61.06-69.35-128.83-52.79-131.75c20.8-3.66,80.42,79.68,115.38,131.75H267.81z"/>
				<path fill="#9AD5C2" d="M354.58,588.51c0.18,13.83,0.77,22.58,0.77,22.58c44.09,43.43,82.71,43.72,82.71,43.72
					s5-7.28,9.82-23.02C440.48,631.39,400.14,627.38,354.58,588.51z"/>
				<path fill="#DF1E2E" d="M354.58,588.51c45.56,38.87,85.91,42.88,93.3,43.28c6.32-20.78,12.32-56.31,5.88-109.19
					c-5.11-42.03-11.54-65.68-25.74-79.69c-17.4-17.14-48.73-6.69-57.3,16.18C355.68,499.33,354.1,557.03,354.58,588.51z"/>
				<g>
					<path fill="#9AD5C2" d="M332,427.73c50.57-5.71,60.85-29.19,62.62-41.28c-4.47-5.04-7.75-6.99-8.97-8.16
						c-15.5,2.75-48.91,15.63-59.6,26.88c-4.12,4.33-5.35,8.25-5.92,11.21C319.04,422.05,326.26,428.38,332,427.73z"/>
					<path fill="#8E4920" d="M383.57,299.99c0,0-0.54,61.45,4.06,78.6c6.95,25.88-30.45,34.56-49.06,37.25
						c-5.47,0.79-10.48-3.14-11.06-8.63l-5.37-50.3L383.57,299.99z"/>
					<path fill="#782C16" d="M355.4,324.53c-27.37,59.31-56.17,88.76-76.16,103.17c5.11-0.68,9.88-1.93,13.03-3.66
						c19.15-10.56,54.47-38.54,87.67-110.51c48.79-105.68,26.22-186.99-37.02-215.92c-49.77-22.74-97.86-20.3-135.45,1.56
						c32.99-10.79,71.43-8.6,110.92,9.44C381.63,137.54,404.2,218.85,355.4,324.53z"/>
					<path fill="#8E4920" d="M151.4,283.72c0,0,10.22,16.44,17.29,49.71c5.58,26.23-13.4,57.52,89.09,93.22
						c5.15,1.79,13.7,2.06,21.46,1.05c19.99-14.41,48.79-43.86,76.16-103.17c48.79-105.68,26.23-186.99-37.01-215.92
						c-39.49-18.04-77.93-20.24-110.92-9.44c-10.19,5.96-19.59,13.3-28.05,21.96C179.42,121.13,109.85,185.25,151.4,283.72z"/>
					<path fill="#28110C" d="M139.6,267.86c0,0,22.7-48.26,51.96-48.26c0,0,4.69-0.15,3.72,5.12c-0.97,5.27-24.63,0.22-53.2,46.52
						L139.6,267.86z"/>
					<path fill="#28110C" d="M334.29,223.88c0,0-50.78-34.18-82.31-16.78c0,0-5.13,2.65-1.22,7.28s26.67-14.43,82.71,14.32
						L334.29,223.88z"/>
					<path fill="#46160E" d="M239.48,320.32c0,0,7.5,12.59-0.79,18.41c-6.43,4.52-20.1-0.68-23.49,3.16c0,0-5.31,4.85,0.79,13.43
						s21.91,19.2,21.91,19.2s-22.13-17.84-20.55-24.85c1.58-7,16.83-3.5,21.79-6.21C244.11,340.76,249.87,328.67,239.48,320.32z"/>
					<path fill="#FFFFFF" d="M263.08,250.71c-10.1,1.86-17.56,10.42-18.35,20.67c-1.1,14.17-0.05,37.51,16.37,48.46
						c24.47,16.32,44.72-15.66,47.28-24.83c2.55-9.18-0.38-39.4-17.72-42.96C281.03,250.06,271.4,249.18,263.08,250.71z"/>
					<path fill="#FFFFFF" d="M167.13,301.09c0,0-16.2-43.74,18.36-36.72c34.56,7.02,42.12,51.3,32.4,62.64
						C208.17,338.35,188.19,338.89,167.13,301.09z"/>
					<path fill="#46160E" d="M215.73,287.32c-31.52-22.42-51.03,9.18-51.03,9.18s-7.4-33.25,11.22-42.86
						C200.7,240.75,215.73,287.32,215.73,287.32z"/>
					<path fill="#46160E" d="M306.93,267.4c-36.77-19.93-62.73,10.43-62.73,10.43s-4.42-30.44,18.31-40.43
						C292.8,224.03,306.93,267.4,306.93,267.4z"/>
					<g>
						<g>
							<path fill="#611B13" d="M284.38,299.49c4.22,6.22,3.05,14.38-2.61,18.23c-5.67,3.85-13.68,1.92-17.91-4.29
								s-3.05-14.37,2.62-18.22C272.14,291.36,280.16,293.28,284.38,299.49z"/>
							<path fill="#1D1D1B" d="M272.81,314.2c-1.66-0.58-3.73-2.32-4.56-5.45c-0.55-2.06-0.35-4.19,0.51-5.86
								c0.46-0.89,1.31-2.02,2.74-2.4c0.77-0.2,1.54-0.16,2.36,0.13c1.66,0.58,3.73,2.32,4.55,5.44c0.55,2.06,0.36,4.2-0.51,5.86
								c-0.45,0.89-1.31,2.02-2.74,2.4C274.4,314.53,273.63,314.49,272.81,314.2z"/>
						</g>
						<circle fill="#FFFFFF" cx="264.95" cy="297.4" r="4.72"/>
					</g>
					<g>
						<g>
							<path fill="#611B13" d="M207.14,310.67c4,5.9,2.89,13.63-2.48,17.28c-5.37,3.65-12.97,1.83-16.97-4.06
								c-4-5.9-2.89-13.63,2.48-17.28C195.54,302.95,203.13,304.77,207.14,310.67z"/>
							<path fill="#1D1D1B" d="M196.17,324.6c-1.58-0.55-3.53-2.2-4.32-5.16c-0.51-1.96-0.33-3.97,0.49-5.56
								c0.44-0.84,1.25-1.92,2.59-2.27c0.73-0.19,1.46-0.15,2.24,0.12c1.57,0.55,3.53,2.19,4.31,5.15c0.52,1.96,0.34,3.98-0.49,5.56
								c-0.43,0.84-1.23,1.92-2.59,2.27C197.68,324.92,196.95,324.88,196.17,324.6z"/>
						</g>
						<path fill="#FFFFFF" d="M193.2,308.68c0,2.48-2,4.48-4.47,4.48c-2.48,0-4.48-2-4.48-4.48c0-2.47,2-4.47,4.48-4.47
							C191.2,304.21,193.2,306.21,193.2,308.68z"/>
					</g>
					<g>
						<path fill="#FCD1AC" d="M365.06,240.5c0,0,17.65-37.66,36.39-22.39c18.75,15.27,24.26,70.23-3.3,83.46
							C370.58,314.8,363.96,275.11,365.06,240.5z"/>
						<path fill="#F49A54" d="M397.19,242.01c-18.12,1.19-21.89,24.31-12.97,37.44c8.91,13.12,17.72-2.09,17.72-2.09
							s-14.14,10.91-18.1-9.32c-0.66-3.34-0.69-6.24-0.36-8.83c0.09,0.28,0.13,0.51,0.24,0.82c2.39,6.81,16.13-2.9,16.13-2.9
							c-10.28,3.31-13.85-1.31-14.92-3.43C388.62,244.91,397.19,242.01,397.19,242.01z"/>
					</g>
					<path fill="#FFFCFD" d="M228.52,381.12c2.22,5.98,5.33,14.04,8.4,20.24c0.64-0.51,1.45-0.92,2.17-1.29
						c1.28-0.6,2.39-1.01,2.39-1.01c47.15-11.41,43.92-36.99,43.92-36.99c-1.32,5.66-33.17,22.31-52.87,19.69
						C231.03,381.59,229.71,381.36,228.52,381.12z"/>
					<path fill="#701211" d="M218.16,375.65c0,0.92,0.85,3.64,10.36,5.47c1.2,0.24,2.51,0.47,4.01,0.65
						c19.7,2.62,51.55-14.03,52.87-19.69c0,0,3.24,25.58-43.92,36.99c0,0-1.11,0.41-2.39,1.01c-0.72,0.37-1.54,0.78-2.17,1.29
						c-1.11,0.79-1.71,1.75-0.85,2.63c0.22,0.23,1.02,0.23,2.26,0.05c1.07-0.23,2.48-0.55,4.14-1.06c1.07-0.32,2.22-0.74,3.5-1.2
						c17.52-6.21,39.61-15.46,41.35-42.05c0,0-0.89,1.15-2.81,2.9c-6.4,5.71-24.09,17.71-57.01,13.94c-0.17,0-0.38,0-0.6-0.05
						c-0.09,0-0.21-0.05-0.34-0.05c-0.81-0.09-1.66-0.18-2.51-0.32c-3.37-0.46-4.22-0.41-4.22-0.28c-0.38-0.14-0.89-0.32-1.62-0.55
						C218.2,375.33,218.16,375.42,218.16,375.65z"/>
				</g>
				<path fill="#28110C" d="M303.82,175.16c6.71,2.34,69.9,59.91,47.71,122.03c-22.19,62.13,19.97,113.16,64.34,84.32
					c44.37-28.85,120.22-259.54-55.47-328.39c-164.19-64.35-224.1,51.03-224.1,104.29S189.55,135.21,303.82,175.16z"/>
				<path fill="#28110C" d="M216.18,148.53c0,0-35.5,24.41-16.65,38.83c18.86,14.43-1.84,34.79-4.25,37.37
					c-2.4,2.57,13.13-19.61,2.04-28.49c-11.1-8.88-21.08-38.83-7.77-43.27C202.86,148.53,216.18,148.53,216.18,148.53z"/>
				<path fill="#28110C" d="M191.77,128.84c0,0-12.48,18.31-20.8,42.44c-8.33,24.12,3.33,21.63,2.5,32.45
					c-0.83,10.81-4.71,20.24-1.67,30.78c0,0-8.32-16.64-5.82-26.63c2.5-9.98-20.8-24.96-6.65-47.43
					C173.47,137.99,191.77,128.84,191.77,128.84z"/>
				<g>
					<path fill="#28110C" d="M236.36,146.57c0,0-0.71,0.74-2.02,2.11c-1.26,1.38-3.04,3.39-4.79,6.22
						c-0.89,1.41-1.63,2.91-1.83,4.11c-0.28,1.03,0.12,2.83,1.27,5.46c1.1,2.65,2.15,5.51,3.16,8.73c0.5,1.64,0.94,3.6,0.45,5.41
						c-0.43,1.76-2.07,3.18-3.26,2.84c0,0,0.76-0.71,0.49-2.3c-0.14-0.72-0.56-1.42-1.41-2.6c-0.84-1.1-2.23-2.86-3.44-4.68
						c-1.25-1.91-2.46-3.63-3.75-6.38c-0.61-1.38-1.19-3.07-1.25-5.02c-0.08-1.98,0.45-3.87,1.25-5.38
						c1.65-3.03,3.99-4.99,6.62-6.51C230.48,147.11,233.48,146.38,236.36,146.57z"/>
				</g>
				<g>
					<path fill="#28110C" d="M227.2,156.3c0,0-0.94,0.94-2.68,2.5c-1.69,1.57-4.34,3.75-6.23,6.63c-0.93,1.47-1.58,2.97-1.99,5.33
						c-0.39,2.23-0.69,5.5-0.89,8.34c-0.05,1.49-0.06,2.71,0.3,4.33c0.33,1.61,1.06,4.16,0.03,6.53c-0.98,2.23-2.91,3.57-4.87,4.2
						c-1.98,0.62-3.99,0.6-6.13,0.56c0,0,0.39-0.23,1.12-0.65c0.7-0.41,1.75-0.98,2.76-1.78c1.02-0.77,1.88-1.83,2.16-2.91
						c0.13-0.55,0.06-0.85-0.08-1.23c-0.14-0.43-0.51-1.2-1.07-2.44c-0.59-1.23-1.18-3.1-1.39-4.68c-0.25-1.64-0.29-3.25-0.24-4.78
						c0.12-2.92,0.32-6.35,1.81-9.86c1.49-3.58,4.43-6.26,7.52-7.7C220.45,157.19,223.75,156.6,227.2,156.3z"/>
				</g>
				<g>
					<path fill="#28110C" d="M357.35,290.94c0,0-0.39-0.38-1.14-1.12c-0.7-0.79-1.75-2-2.75-3.83c-1.96-3.55-4.16-10.01-1.57-18.02
						c0.64-2,1.78-3.99,2.47-5.33c0.74-1.51,0.91-2.17,0.78-2.99c-0.12-0.87-0.95-2.3-2.3-4.04c-1.29-1.76-3.11-3.82-4.19-6.97
						c-1.89-6.57,1.27-11.46,0.43-16.11c-0.37-2.34-2.04-4.76-3.63-7.24c-1.6-2.42-3.15-5.42-2.36-7.9
						c0.05-0.01,0.05,0.55,0.47,1.42c0.38,0.87,1.24,1.98,2.78,3.37c1.5,1.46,3.78,2.96,6.09,6.11c1.15,1.58,2.06,3.89,2.34,6.03
						c0.31,2.14,0.24,4.21,0.2,6.03c-0.05,1.85-0.03,3.49,0.27,4.72c0.24,1.16,0.87,2.19,2.07,3.76c1.16,1.54,2.8,3.22,4.18,5.9
						c0.67,1.32,1.22,2.99,1.26,4.74c0.09,1.77-0.42,3.49-1.04,4.78c-1.33,2.65-2.78,4.12-3.71,5.93c-1,1.82-1.77,3.89-2.21,6.12
						C354.89,280.77,355.17,285.88,357.35,290.94z"/>
				</g>
				<g>
					<path fill="#28110C" d="M344.69,222.12c0,0-0.47-0.08-1.39-0.31c-0.89-0.26-2.25-0.72-3.84-1.67c-1.58-0.96-3.43-2.4-5.08-4.63
						c-1.65-2.19-3.11-5.26-3.48-8.96c-0.34-3.53,0.2-6.86-0.22-9.12c-0.22-1.11-0.46-1.78-1.33-2.69c-0.87-0.91-2.44-1.84-4.3-3.01
						c-1.88-1.14-4.04-2.92-5.51-4.92c-1.52-2.01-2.61-4.22-3.52-6.47c-1.88-4.5-2.88-9.32-6.15-14.08c0,0,0.51,0.35,1.46,0.98
						c0.89,0.7,2.2,1.79,3.55,3.35c2.82,2.99,5.68,8.18,9.41,11.8c0.97,0.89,1.88,1.61,3.1,2.27c1.25,0.7,2.9,1.42,4.78,2.59
						c1.83,1.12,4.12,3.11,5.18,5.78c1.1,2.63,1.04,5.17,0.83,7.27c-0.52,4.31-1.49,7.29-0.49,11.16
						C338.6,215.18,340.78,219.11,344.69,222.12z"/>
				</g>
				<g>
					<path fill="#28110C" d="M333.29,203.65c0,0-1.56,0.04-4.41-0.79c-2.78-0.86-6.97-2.76-10.76-7.11
						c-1.86-2.13-3.61-5.03-4.66-8.25c-1.06-3.11-1.58-6.28-2.57-9.01c-0.95-2.78-2.5-4.81-6.24-6.44
						c-3.63-1.56-7.57-3.22-11.75-5.26c0,0,1.94-0.15,5.29-0.1c1.68,0.03,3.71,0.11,6.02,0.28c2.2,0.25,5.25,0.48,8.56,2.71
						c3.24,2.22,5.12,5.83,6.15,8.96c1.08,3.2,1.58,6.22,2.48,8.86C323.26,192.94,326.91,198.77,333.29,203.65z"/>
				</g>
				<g>
					<path fill="#28110C" d="M313.86,181.52c0,0-2.46-1.09-6.98-3.43c-2.21-1.16-4.95-2.59-8.18-4.29c-3.09-1.5-6.61-2.9-9.86-2.4
						c-1.67,0.21-3.83,1.12-6.87,1.94c-1.51,0.39-3.34,0.71-5.37,0.56c-2.04-0.14-3.84-0.77-5.36-1.39
						c-1.54-0.64-2.78-1.26-4.03-1.74c-1.27-0.5-2.62-0.94-4.04-1.33c-2.84-0.78-5.96-1.33-9.28-1.81
						c-13.55-1.77-29.17-4.2-46.28-7.73c0,0,14.93-1.08,36.33-0.2c5.33,0.28,11.08,0.37,17.47,1.48c3.17,0.56,6.47,1.44,9.69,2.85
						c1.58,0.7,2.92,1.41,4.1,1.87c1.21,0.47,2.06,0.68,3.29,0.64c2.46-0.02,5.71-1.39,9.62-1.58c3.97-0.12,7.52,1.37,10.41,3.23
						c2.94,1.88,5.41,4.15,7.95,6.4C308.97,176.84,311.45,179.16,313.86,181.52z"/>
				</g>
				<g>
					<path fill="#28110C" d="M226.8,163.28c0,0-2.43,0.15-7.05,0.44c-2.26,0.16-5.02,0.39-8.05,1.02c-1.52,0.32-3.09,0.73-4.68,1.33
						c-1.65,0.57-2.84,1.4-5.63,2.58c-1.35,0.55-3.21,0.91-4.85,0.87c-1.71,0.02-3.26-0.36-4.72-0.77
						c-2.85-0.91-5.29-2.23-7.51-3.18c-2.29-1.02-4.1-1.46-5.46-1.05c-0.69,0.13-1.61,0.74-2.84,1.67
						c-1.16,0.89-2.95,2.18-4.87,2.84c-3.8,1.35-7.24,1.16-10.2,1.67c-2.95,0.53-5.98,1.77-8.81,3.72
						c-5.72,3.93-10.51,10.25-15.26,16.82c0,0,0.3-0.82,0.86-2.34c0.58-1.52,1.46-3.73,2.81-6.47c1.38-2.72,3.15-6.05,6.07-9.46
						c2.82-3.38,7.1-6.91,12.81-8.59c2.82-0.79,5.42-1.06,7.45-1.64c1-0.29,1.83-0.62,2.52-1.07c0.74-0.46,1.7-1.32,3.02-2.32
						c1.26-1.01,3.31-2.13,5.45-2.53c2.17-0.39,4.25-0.09,6,0.41c3.51,1.04,6.05,2.75,8.51,3.92c2.5,1.23,4.49,1.92,6.8,1.41
						c1.23-0.28,2.71-0.93,4.35-1.35c1.6-0.43,3.21-0.72,4.82-0.84C214.81,159.87,220.86,161.44,226.8,163.28z"/>
				</g>
				<g>
					<path fill="#28110C" d="M151.35,176.41c0.01,0.05-0.84,0.25-1.85,1.33c-1,1.11-2.43,3.39-2.94,7.25
						c-0.35,2.06-0.53,4.68-1.37,7.93c-0.42,1.6-1.09,3.41-2.13,5.07c-1.01,1.65-2.23,3.03-3.47,4.3c-2.46,2.55-5.23,4.54-6.82,7.45
						c-0.81,1.45-1.16,3.28-0.88,5.32c0.25,2.03,1.02,4.14,1.75,6.23c0,0-0.36-0.32-1.02-0.9c-0.64-0.62-1.61-1.52-2.67-3.01
						c-1.02-1.44-2.25-3.74-2.25-6.8c-0.03-3.04,1.32-6.15,2.94-8.56c1.62-2.46,3.47-4.56,4.89-6.55c0.7-1.01,1.23-1.86,1.72-3.01
						c0.49-1.13,0.92-2.48,1.37-3.95c0.91-2.88,1.85-6.62,4.31-9.45c1.2-1.37,2.67-2.49,4.25-3.03
						C148.76,175.46,150.37,175.65,151.35,176.41z"/>
				</g>
				<g>
					<path fill="#28110C" d="M150.08,156.92c0,0,0.2,0.77,0.36,2.23c0.18,1.46,0.25,3.63,0.18,6.17c-0.04,2.52-0.19,5.49,0.41,7.98
						c0.32,1.25,0.74,2.18,1.73,3.79c0.93,1.58,2.4,3.54,3.64,6.58c1.2,3.11,1.57,6.82,1.02,10.15c-0.51,3.36-1.64,6.36-2.83,9.15
						c-2.4,5.61-5.21,10.57-4.88,15.58c0.15,5.31,4.59,12.2,5.5,20.56c0.97,8.13-1.05,16.84-5.85,23.63c0,0,0.18-0.86,0.53-2.46
						c0.31-1.58,0.67-3.92,0.72-6.83c0.06-2.9-0.18-6.4-1.12-10.14c-0.92-3.89-2.5-7.32-5.11-12.03c-1.24-2.36-2.65-5.09-3.62-8.44
						c-1.04-3.3-1.23-7.58-0.39-11.11c1.57-7.16,5.32-12.54,7.12-17.64c0.94-2.55,1.37-4.91,0.89-7.44c-0.47-2.6-2.29-5.72-3-9.37
						c-0.68-3.72,0.23-7.11,1.36-10.24C147.88,163.87,149.36,160.81,150.08,156.92z"/>
				</g>
				<g>
					<path fill="#28110C" d="M179.78,152.58c0,0,0.42,0.89,1.08,2.5c0.67,1.62,1.58,3.95,2.86,6.86c0.63,1.46,1.37,3.05,2.22,4.79
						c0.82,1.75,2.36,4.27,2.64,7.72c0.26,3.35-0.97,6.59-2.82,9.08c-1.86,2.54-4.3,4.56-7.05,6.46c0,0,0.37-1.41,1.06-3.61
						c0.65-2.17,1.67-5.25,1.77-8.02c0.06-1.42-0.11-2.55-0.59-3.97c-0.48-1.44-1.71-3.66-2.47-6.22
						C176.96,163.19,177.18,157.39,179.78,152.58z"/>
				</g>
				<g>
					<path fill="#28110C" d="M445.14,130.12c0,0,0.24,0.29,0.71,0.87c0.45,0.57,1.16,1.4,2.16,2.44c1.94,2.15,5.35,4.83,9.93,9.21
						c2.25,2.22,4.83,5.01,6.83,8.89c1.97,3.93,2.91,8.72,2.63,13.35c-0.18,4.68-1.21,9.28-2.23,14.08
						c-0.97,4.8-2.01,9.89-1.16,15.77c0,0-0.3-0.55-0.86-1.58c-0.55-1.04-1.23-2.66-1.77-4.77c-1.22-4.22-1.42-10.4-1.27-16.95
						c0.03-3.27,0.05-6.64-0.39-9.88c-0.43-3.27-1.37-6.28-3.24-9.49c-1.86-3.2-4.45-6.51-6.8-10.16
						C447.34,138.29,445.34,134.1,445.14,130.12z"/>
				</g>
				<g>
					<path fill="#28110C" d="M461.23,184.39c0,0,0.12,0.33,0.35,0.97c0.26,0.63,0.63,1.55,1.29,2.71c1.27,2.38,3.85,5.48,7.72,10.2
						c1.93,2.48,4.07,5.48,5.57,9.53c0.73,2.02,1.27,4.35,1.22,6.89c0,2.52-0.78,5.23-1.98,7.39c-1.18,2.19-2.65,3.99-3.99,5.75
						c-1.34,1.72-2.63,3.57-3.82,5.61c-2.39,4.07-4.47,8.83-5.8,14.34c0,0-0.56-2.37-0.47-6.59c0.1-4.18,1.08-10.36,4.53-16.73
						c1.66-3.07,3.34-5.73,3.68-8.12c0.47-2.45-0.2-5.58-1.64-8.96c-1.37-3.38-3.57-6.91-5.27-10.91
						C460.93,192.57,459.97,187.95,461.23,184.39z"/>
				</g>
				<g>
					<path fill="#28110C" d="M456.91,205.97c0,0,0.59,1.63,1.83,4.57c1.27,2.93,3.28,7.16,6.73,11.98c1.77,2.43,3.78,4.85,6.49,7.51
						c1.39,1.44,3.45,3.36,4.46,6.64c0.97,3.34,0.03,6.52-1.1,8.86c-2.4,4.58-5.37,8.52-9.07,12.54c-3.68,3.94-8.08,7.57-13.08,10.6
						c0,0,1.5-2.01,3.87-5.48c2.37-3.47,5.52-8.42,8.65-14.5c1.5-2.99,3.48-6.66,3.49-8.65c0.05-0.94-0.12-1.58-1.2-2.99
						c-1-1.27-2.78-3.03-4.16-4.91C458.1,224.74,455.34,214.76,456.91,205.97z"/>
				</g>
				<g>
					<path fill="#28110C" d="M456.5,226.49c0,0,0.58,1.63,1.83,4.58c1.27,2.92,3.28,7.16,6.73,11.98c1.77,2.44,3.77,4.86,6.49,7.52
						c1.39,1.44,3.45,3.35,4.46,6.64c0.97,3.34,0.03,6.51-1.1,8.86c-2.4,4.58-5.37,8.52-9.07,12.54
						c-3.68,3.93-8.09,7.57-13.09,10.59c0,0,1.5-2.01,3.87-5.48c2.36-3.46,5.52-8.42,8.65-14.5c1.5-2.98,3.47-6.66,3.49-8.64
						c0.04-0.94-0.12-1.58-1.2-2.99c-1-1.27-2.79-3.03-4.16-4.91C457.69,245.26,454.92,235.28,456.5,226.49z"/>
				</g>
				<g>
					<path fill="#28110C" d="M457.46,274.55c0,0,3.89,5.98,8.88,17.89c0.58,1.46,1.35,2.97,1.67,5.82c0.14,1.37-0.11,3.15-0.69,4.49
						c-0.56,1.37-1.32,2.44-2.04,3.35c-2.73,3.2-5.38,6.05-8.56,9.36c-3.13,3.34-6.7,6.26-8.36,10.55
						c-0.82,2.17-1.23,5.21-2.97,7.47c-1.52,2.27-3.97,3.97-4.48,7.66c0,0-0.25-0.75-0.16-2.18c0.07-1.42,0.72-3.36,1.48-5.27
						c0.85-2.08,0.98-3.31,1.01-6.34c0.03-1.42,0.2-3.47,0.86-5.38c0.62-1.9,1.54-3.7,2.59-5.34c2.15-3.3,4.49-6.03,7.09-9.13
						c1.29-1.52,2.65-3.05,4.06-4.57c1.48-1.54,2.53-2.67,2.82-3.43c0.42-0.68,0.11-2.8-0.45-4.93c-0.47-2.1-0.9-4.25-1.27-6.43
						C458.21,283.75,457.69,279.22,457.46,274.55z"/>
				</g>
				<g>
					<path fill="#28110C" d="M446.94,316.4c0,0,0.2,0.96,0.74,2.53c0.54,1.6,1.63,3.83,3.39,7.62c0.86,1.98,1.84,4.1,2.67,7.48
						c0.55,2.11,0.61,5.34-0.58,7.65c-1.29,2.61-2.8,3.6-4.1,4.48c-2.77,1.73-5.49,2.17-8.09,3.12c-1.27,0.45-2.6,1.14-3.86,2.27
						c-1.23,1.12-2.48,2.82-2.91,5.4c0.09,0.09-0.98-2.24,0.05-6.09c0.5-1.86,1.48-3.87,2.92-5.67c1.51-1.87,3.26-3.22,4.92-4.45
						c1.6-1.16,3.24-2.43,3.98-3.24c0.09-0.03,0.18,0.03,0.32-0.12c0.24,0.24-0.07-1.54-0.3-2.76c-0.48-2.68-1.2-5.83-1.37-9.22
						C444.52,322.05,445.13,318.33,446.94,316.4z"/>
				</g>
				<g>
					<path fill="#28110C" d="M431.71,359.73c0,0,0.11,0.26,0.3,0.75c0.21,0.5,0.43,1.27,0.58,2.32c0.29,2.07,0.03,5.38-2.07,8.81
						c-2.04,3.28-6.27,6.95-12.17,6.99c-3.05,0.03-5.07-1.12-7.2-1.37c-2.22-0.26-5.11,0.24-7.81,2.34c0,0,0.06-0.36,0.28-1
						c0.22-0.65,0.63-1.59,1.42-2.64c0.79-1.04,1.99-2.19,3.71-3.07c1.67-0.93,4.14-1.3,5.86-1.34c1.86-0.08,2.76-0.15,4.06-0.47
						c1.26-0.31,2.65-0.83,4.15-1.63c1.49-0.79,3.08-1.86,4.64-3.38C429.02,364.54,430.61,362.55,431.71,359.73z"/>
				</g>
				<g>
					<path fill="#28110C" d="M401.39,383.23c0,0-0.39,0.63-1.11,1.66c-0.72,1.05-1.71,2.5-2.81,4.39c-0.55,0.95-1.14,2-1.71,3.2
						c-0.28,0.62-0.58,1.21-0.85,1.97c-0.42,1.74-1.08,3.29-2.47,4.26c-1.37,1-3.21,1.07-4.9,0.69c-1.55-0.32-2.41-0.77-3.6-1.35
						c-2.2-1.15-4.24-2.84-5.75-4.96c0,0,1.08,0.03,2.86,0.06c0.85-0.01,1.85-0.02,2.99-0.03c0.55-0.03,1.13-0.05,1.73-0.08
						c0.3-0.02,0.6-0.04,0.91-0.06c0.32-0.01,0.69-0.04,0.58-0.08c0.05-0.15-0.07-0.15,0.05-0.11h0.05l0.03,0.02l0.12-0.39
						c0.15-0.51,0.37-1.01,0.57-1.51c0.46-0.98,1-1.95,1.68-2.82C392.36,384.57,396.98,382.31,401.39,383.23z"/>
				</g>
				<g>
					<path fill="#28110C" d="M386.06,384.56c0,0-0.92,1.07-3.17,2.88c-1.14,0.89-2.65,1.97-4.78,2.94
						c-2.08,0.95-5.09,1.81-8.49,1.38c-1.69-0.2-3.52-0.72-5.31-1.77c-1.77-1.02-3.54-2.78-4.5-4.86c-2-4.3-1.25-8.21-1.33-11.31
						c0.01-1.62-0.12-2.87-0.7-4.41c-0.58-1.52-1.58-3.15-2.72-4.87c-1.12-1.72-2.4-3.55-3.36-5.59c-0.98-2.01-1.36-4.36-0.77-6.26
						c0,0,0.15,0.39,0.43,1.11c0.35,0.68,0.88,1.58,1.86,2.58c0.98,1.02,2.4,2.14,4.18,3.58c1.75,1.46,4,3.18,6.01,6.19
						c0.99,1.45,1.83,3.51,2.15,5.34c0.36,1.85,0.43,3.59,0.49,5.11c0.1,3.2,0.19,5.13,1.42,6.65c1.34,1.65,4.33,2.94,7.65,2.93
						C378.5,386.23,382.33,385.22,386.06,384.56z"/>
				</g>
				<g>
					<path fill="#28110C" d="M360.07,361.2c0.02-0.1-1.28,0.85-4.08,0.56c-2.74-0.27-6.57-2.26-8.77-6.58
						c-2.4-4.68-1.54-10.37,0.57-15.15c1.04-2.45,2.35-4.71,3.53-7.25c1.15-2.53,2.36-5.38,2.17-9.14c0,0,0.26,0.3,0.68,0.92
						c0.41,0.62,0.94,1.6,1.37,2.92c0.91,2.64,1.06,6.65,0.23,10.67c-0.76,4.02-2.14,7.77-2.61,11.45
						c-0.27,1.77-0.16,3.75,0.69,5.98C354.67,357.68,356.36,360.28,360.07,361.2z"/>
				</g>
				<g>
					<path fill="#28110C" d="M388.56,387.4c0,0-0.3,0.19-0.48,0.59c-0.12,0.22-0.01,0.37-0.1,0.6c-0.06,0.22-0.22,0.55-0.31,0.77
						c-0.23,0.43-0.6,1.21-1.33,2.37c-0.69,1.08-1.99,2.84-4.05,3.72c-2.02,0.91-4.18,0.72-5.86,0c-1.73-0.72-3.16-1.91-4.55-3.38
						c0,0,0.82-0.35,2.02-0.77c1.18-0.41,2.82-0.97,3.66-1.51c0.43-0.28,0.56-0.42,0.87-0.57c0.32-0.16,0.99-0.82,1.98-1.83
						c0.51-0.5,1.09-1.04,1.83-1.56c0.8-0.58,1.68-0.93,2.59-1.04C386.67,384.47,388.53,385.64,388.56,387.4z"/>
				</g>
				<g>
					<path fill="#28110C" d="M443.14,132.78c0,0-0.03-1.21-0.09-3.49c-0.05-1.09-0.15-2.42-0.43-3.72c-0.3-1.31-0.81-2.42-1.46-2.86
						c-0.37-0.27-0.64-0.49-1.44-0.7c-0.77-0.22-1.94-0.36-3.45-0.59c-1.5-0.26-3.48-0.56-5.56-1.84c-2.1-1.26-3.49-3.3-4.25-5.1
						c-1.54-3.76-1.67-6.65-3.48-9.82c-1.67-3.14-4.24-6.36-8.06-8.91c0,0,0.49,0.03,1.4,0.17c0.91,0.14,2.23,0.45,3.83,1.09
						c3.16,1.24,7.69,4.16,10.57,9.61c1.31,2.55,2.29,4.89,3.2,5.77c0.43,0.42,0.81,0.75,1.96,1.1c1.08,0.35,2.64,0.59,4.43,1.12
						c1.76,0.5,3.99,1.59,5.31,3.37c1.39,1.75,1.81,3.85,1.69,5.65C447.05,127.29,445.25,130.22,443.14,132.78z"/>
				</g>
				<g>
					<path fill="#28110C" d="M421,103.87c0,0-0.03-0.29-0.08-0.85c-0.05-0.55-0.16-1.37-0.39-2.39c-0.44-2.02-1.53-5.01-4.03-7.74
						c-1.31-1.44-2.59-2.28-5.42-3.83c-1.35-0.78-3.07-1.82-4.6-3.45c-1.48-1.59-2.43-3.33-3.23-4.91c-0.81-1.6-1.46-3.04-2.36-4.29
						c-0.93-1.29-2.14-2.54-3.64-3.63c-3-2.13-7.16-3.72-12.13-3.24c0,0,0.43-0.29,1.33-0.76c0.89-0.43,2.27-1,4.13-1.34
						c3.62-0.65,9.7-0.28,14.94,4.4c2.67,2.44,4.13,5.42,5.54,7.26c0.72,0.96,1.25,1.54,2.35,2.34c1.06,0.79,2.5,1.63,4.04,2.8
						c3.22,2.42,5.37,6.08,5.95,9.76C424.01,97.67,423.1,101.46,421,103.87z"/>
				</g>
				<g>
					<path fill="#28110C" d="M436.93,115.89c0,0-0.26-0.9-0.63-2.43c-0.39-1.51-0.9-3.67-1.93-5.61c-0.52-0.98-1.19-1.97-2.01-2.73
						c-0.68-0.74-2.15-1.4-4.6-2.5c-2.55-1.12-5-3.27-6.47-5.74c-1.56-2.48-2.47-5.29-3.24-8.33c0,0,1.16,0.74,2.9,2.01
						c1.73,1.25,4.08,3.03,6.5,4.12c1.2,0.57,2.3,0.83,4.56,1.56c1.07,0.37,2.34,0.87,3.62,1.73c1.28,0.87,2.34,2,3.11,3.23
						c1.54,2.47,2,5.36,1.54,7.91C439.82,111.68,438.59,113.91,436.93,115.89z"/>
				</g>
				<g>
					<path fill="#28110C" d="M448.97,138.88c0,0-0.77-0.73-1.14-2.43c-0.18-0.78-0.26-1.63-0.36-2.24
						c-0.12-0.46-0.25-0.97-0.39-1.55c-0.32-1.12-0.68-2.63-1.57-4.73c-0.91-2.12-2.63-4.92-5.36-8.36c0,0,0.91-0.26,2.44-0.24
						c1.52,0.02,3.77,0.33,6.09,1.78c2.29,1.38,4.66,4.25,4.95,7.79c0.16,1.75-0.2,3.64-1.22,5.13
						C451.49,135.54,449.68,136.14,448.97,138.88z"/>
				</g>
				<g>
					<path fill="#28110C" d="M392.06,72.68c0,0-1.64-0.82-4.58-2.61c-1.47-0.9-3.26-2.04-5.34-3.43c-2-1.39-4.29-2.99-6.88-4.79
						c-1.16-0.74-2.21-1.27-3.3-1.52c-1.14-0.28-2.63-0.35-4.52-0.3c-1.87,0.03-4.12,0.19-6.76-0.17c-2.69-0.35-5.37-1.48-7.52-2.9
						c-4.42-2.9-7.39-6.48-11.77-9.08c-4.33-2.69-9.59-4.84-15.71-5.75c0,0,0.64-0.16,1.86-0.37c1.22-0.21,3.02-0.41,5.34-0.39
						c4.53,0.02,11.53,1.28,18.11,5.61c3.15,1.98,6.06,4.07,8.84,4.87c1.33,0.39,2.95,0.52,4.99,0.53c2.03,0.03,4.42-0.05,7.05,0.48
						c2.69,0.48,5.3,1.99,7.04,3.63c1.82,1.66,3.22,3.36,4.75,5.09C386.64,65.07,389.48,68.77,392.06,72.68z"/>
				</g>
				<g>
					<path fill="#28110C" d="M346,53.23c0,0-1.88-0.41-5.35-1.48c-1.73-0.53-3.87-1.23-6.36-2.11c-1.24-0.46-2.58-0.95-4.01-1.47
						c-1.44-0.55-2.86-1.13-4.14-1.48c-1.33-0.35-2.26-0.46-3.41-0.26c-1.23,0.21-2.88,0.88-5.04,1.65
						c-1.08,0.37-2.32,0.76-3.76,0.98c-1.42,0.24-3.11,0.24-4.61-0.07c-3.06-0.62-5.4-2.09-7.48-3.38c-2.07-1.34-3.87-2.4-6.16-3.3
						c-2.23-0.89-4.72-1.54-7.39-1.98c-5.34-0.92-11.37-0.95-17.65-1.04c0,0,2.48-1.01,6.99-2.24c4.47-1.1,11.27-2.85,19.83-0.98
						c2.08,0.49,4.35,1.27,6.34,2.29c1.96,0.97,3.66,1.96,5.17,2.53c1.59,0.58,2.51,0.78,4.16,0.49c1.66-0.27,3.78-1.14,6.43-1.74
						c1.33-0.28,2.85-0.45,4.39-0.3c1.52,0.16,2.89,0.6,4.1,1.15c2.44,1.13,4.31,2.5,6.34,3.83C338.38,47.03,342.29,50,346,53.23z"
						/>
				</g>
				<g>
					<path fill="#28110C" d="M318.36,45.83c0,0-1.31-0.47-3.59-1.5c-2.28-1-5.5-2.65-9.47-4.06c-1.97-0.69-4.18-1.29-6.57-1.56
						c-1.2-0.14-2.42-0.16-3.68-0.07c-1.26,0.09-2.48,0.35-4.08,0.85c-1.58,0.46-3.42,1.12-5.57,1.42
						c-2.16,0.32-4.37,0.09-6.42-0.47c-4.13-1.18-7.58-3.62-11.05-6.39c0,0,1.85,0.3,4.97,0.81c3.02,0.47,7.29,1.07,10.83-0.24
						c1.85-0.59,4.22-2.15,7.92-3.17c3.66-0.96,7.57-0.7,11.05,0.45C309.87,34.26,314.71,39.75,318.36,45.83z"/>
				</g>
				<g>
					<path fill="#28110C" d="M289.53,39.24c0,0-0.32-0.09-0.92-0.28c-0.59-0.22-1.49-0.47-2.63-0.81c-2.3-0.62-5.71-1.36-10.11-1.45
						c-4.41-0.05-9.79,0.44-15.72,3.18c-0.83,0.39-1.86,0.91-3.18,1.24c-1.36,0.35-2.81,0.29-3.96,0.03
						c-2.36-0.57-3.89-1.41-5.85-2.04c-3.81-1.33-8.06-2.48-12.8-3.22c0,0,1.92-0.77,5.42-1.34c1.75-0.28,3.89-0.5,6.36-0.48
						c1.23,0.01,2.54,0.07,3.91,0.22c1.41,0.15,2.77,0.41,3.6,0.39c0.95-0.05,0.79-0.04,1.83-0.57c0.9-0.55,2.71-1.65,4.29-2.32
						c3.31-1.45,7.05-2.27,10.81-2.25c3.77,0.04,7.56,0.9,10.91,2.55C284.83,33.8,287.69,36.29,289.53,39.24z"/>
				</g>
				<g>
					<path fill="#28110C" d="M245.93,42.01c0,0-1.22-0.29-3.51-0.83c-2.27-0.49-5.59-1.16-9.84-1.35c-2.15-0.11-4.42-0.05-5.71,0.51
						c-0.64,0.27-1.03,0.49-1.76,1.48c-0.71,0.96-1.42,2.49-2.63,4.24c-1.18,1.81-3.39,3.54-5.52,4.2
						c-2.17,0.73-4.25,0.81-6.27,0.77c-2.02-0.03-4-0.22-6.08-0.14c-2.04,0.09-4.37,0.52-6.42,2.27c0,0,0.23-0.49,0.79-1.42
						c0.64-0.83,1.77-2.07,3.47-2.99c1.67-0.94,3.77-1.65,5.9-2.25c2.08-0.62,4.41-1.19,5.8-2.09c0.74-0.44,1.18-0.85,1.6-1.44
						c0.45-0.63,0.96-1.73,1.69-3.2c0.73-1.42,1.77-3.39,3.77-4.96c2-1.54,4.33-2.09,6.32-2.17c4.01-0.05,7.3,1.06,10.53,2.65
						C241.2,36.91,243.96,39.24,245.93,42.01z"/>
				</g>
				<g>
					<path fill="#28110C" d="M219.19,50.26c0,0-1.48,0.72-4.48,1.55c-2.94,0.83-7.68,1.71-13.4,1.67c-2.7,0.03-5.08,0.24-6.36,1.19
						c-1.55,0.89-2.97,4.1-5.36,7.91c-2.4,3.64-5.44,6.71-8.33,10.11c-2.81,3.41-5.82,7.31-6.65,12.94c0,0-0.2-0.57-0.38-1.69
						c-0.18-1.1-0.33-2.79-0.08-4.87c0.35-4.2,2.83-9.79,6.07-15c0.75-1.27,1.53-2.6,2.33-3.97c0.76-1.35,1.37-2.59,2.17-4.25
						c0.81-1.61,1.77-3.52,3.43-5.37c1.62-1.88,4.29-3.36,6.68-3.7c2.42-0.41,4.58-0.14,6.55,0.2c1.88,0.38,3.8,0.77,5.73,1.16
						C210.97,48.91,214.99,49.6,219.19,50.26z"/>
				</g>
				<g>
					<path fill="#28110C" d="M188.65,68.22c0,0-0.74,1.18-2.48,2.86c-1.65,1.69-4.54,3.72-6.93,6.04c-1.21,1.23-2.03,2.24-2.76,4.08
						c-0.83,1.86-1.29,4.89-3.39,8.25c-2.25,3.43-5.6,4.98-8.5,6.55c-1.48,0.78-2.92,1.65-4.26,2.92c-1.29,1.25-2.54,3-2.71,5.44
						c0.09,0.08-1.25-2.02-0.27-5.59c0.47-1.73,1.44-3.6,2.88-5.38c1.44-1.75,3.09-3.26,4.43-4.71c1.4-1.57,2-2.44,2.72-4.55
						c0.76-2.03,1.33-5.23,3.58-8.29c2.24-2.97,5.35-4.48,8.28-5.36C182.23,69.54,185.24,69.22,188.65,68.22z"/>
				</g>
				<g>
					<path fill="#28110C" d="M183.49,70.67c0,0-1.02,0.17-2.64,0.91c-1.6,0.76-3.91,2.27-6.01,5.08c-2.16,2.82-3.99,7.27-6.01,13.39
						c-0.55,1.56-1.2,3.32-2.23,5.07c-0.98,1.75-2.64,3.46-4.36,4.43c-1.71,1.05-3.48,1.72-5.23,2.62
						c-1.69,0.89-3.64,2.11-4.54,4.63c0,0-0.11-0.55,0.02-1.6c0.11-1.05,0.65-2.61,1.71-4.09c1.02-1.5,2.48-2.92,3.78-4.32
						c0.64-0.7,1.24-1.41,1.65-2.06c0.41-0.63,0.7-1.3,0.99-2.19c0.6-1.72,0.96-4.23,1.77-7.18c0.8-2.86,1.96-5.96,3.9-8.83
						c1.89-2.84,4.73-5.44,8-6.62C177.52,68.66,181.25,68.89,183.49,70.67z"/>
				</g>
				<g>
					<path fill="#28110C" d="M169.29,94.71c0,0-4.49,5.14-13.64,12.41c-0.96,0.77-1.5,1.69-1.34,1.44c0,0-0.07-0.08-0.01,0.11
						c0.09,0.29,0.41,0.85,0.9,1.59c2.16,3.32,4.33,7.64,4.46,12.88c0.08,2.59-0.59,5.4-1.8,7.7c-1.2,2.32-2.76,4.27-4.37,6.14
						c-3.3,3.69-6.9,7.49-10.8,11.33c0,0,0.82-2.23,2.48-5.86c0.83-1.81,1.87-3.98,3.12-6.4c1.27-2.42,2.74-5.12,3.53-7.6
						c0.79-2.44,0.76-4.76-0.12-7.73c-0.43-1.44-1.08-2.95-1.88-4.48c-0.39-0.79-0.8-1.45-1.41-2.52c-0.55-1.02-1.29-2.38-1.44-4.31
						c-0.14-1.77,0.6-3.66,1.58-4.83c0.95-1.16,1.99-1.86,2.95-2.47c1.9-1.07,3.79-1.96,5.74-2.86
						C161.14,97.48,165.17,95.92,169.29,94.71z"/>
				</g>
				<g>
					<path fill="#28110C" d="M150.48,121.06c0,0-0.49,0.97-1.53,2.67c-1.03,1.69-2.6,4.11-4.67,7.13c-0.95,1.44-2.48,3.49-2.84,4.31
						c-0.18,0.42-0.31,0.41-0.22,1.31c0.09,0.77,0.58,2.15,0.84,3.62c0.3,1.44,0.57,2.94,0.81,4.47c0.24,1.46,0.45,3.22,0.06,5.21
						c-0.42,2.02-1.87,3.55-3.41,4.31c-1.56,0.81-3.24,1.17-5,1.45c0,0,0.26-0.28,0.74-0.78c0.47-0.5,1.16-1.22,1.79-2.09
						c0.64-0.87,1.09-1.92,0.97-2.59c-0.1-0.51-0.45-1.64-1.36-3.65c-0.85-1.88-1.42-3.72-2.3-6.1c-0.45-1.29-1.06-3.15-0.76-5.43
						c0.34-2.25,1.45-3.83,2.42-4.95C139.78,125.82,144.71,122.58,150.48,121.06z"/>
				</g>
				<g>
					<path fill="#28110C" d="M167.8,89.08c0,0-0.8,0.87-2.38,2.34c-1.58,1.48-3.93,3.57-6.96,6.19c-2.23,1.96-1.47,1.21-1.74,1.42
						c0,0-0.03,0.01-0.03,0.07c0.12,0.28,0.24,0.66,0.36,0.98c0.23,0.69,0.47,1.39,0.7,2.1c0.46,1.42,0.92,2.9,1.32,4.45
						c0.32,1.58,0.58,3.35,0.52,5.25c-0.05,1.9-0.57,3.97-1.56,5.65c-2.01,3.41-5.23,5.36-8.64,7.22c0,0,0.76-1.44,2.05-3.86
						c0.59-1.18,1.24-2.56,1.61-3.99c0.37-1.48,0.42-2.71,0.09-4.33c-0.3-1.62-1.08-3.8-2-6.05c-0.42-1.14-0.81-2.31-1.18-3.55
						c-0.05-0.17-0.07-0.26-0.19-0.53l-0.35-0.91c-0.22-0.61-0.37-1.23-0.43-1.86c-0.13-1.24,0.14-2.51,0.8-3.57
						c0.61-1.03,1.7-1.92,2.59-2.48c0.65-0.37,1.31-0.73,2-1.06c1.36-0.67,2.77-1.26,4.24-1.76
						C161.54,89.82,164.63,89.21,167.8,89.08z"/>
				</g>
				<g>
					<path fill="#28110C" d="M144.7,144.08c0,0-0.73,0.9-2.18,2.36c-1.44,1.47-3.63,3.46-5.92,5.97c-2.3,2.43-4.41,5.75-6.99,10.7
						c-0.66,1.22-1.35,2.49-2.07,3.81c-0.68,1.23-1.27,2.29-1.38,3.49c-0.14,1.27,0.53,3.09,0.4,4.93c-0.08,0.93-0.52,1.75-1.1,2.29
						c-0.6,0.57-1.32,0.55-1.48,0.18c0.09-0.06,0.24-0.32-0.09-1.64c-0.03-0.05-0.06-0.18-0.11-0.14c-0.02,0.09-0.07-0.06-0.14-0.26
						c-0.07,0.06-0.22-0.31-0.38-0.49c-0.32-0.47-0.78-1.1-1.32-2.08c-0.54-0.91-1.12-2.58-1.14-4.15
						c-0.05-1.56,0.24-2.95,0.54-4.16c0.6-2.25,1.29-4.47,2.39-6.93c1.09-2.42,2.57-4.96,4.68-7.18
						C132.78,146.24,138.63,144.52,144.7,144.08z"/>
				</g>
				<g>
					<path fill="#28110C" d="M127.84,171.3c0,0-0.79,1.52-2.47,4.22c-1.65,2.71-4.24,6.56-7.18,11.47c-1.47,2.46-2.97,5.21-4.37,8.3
						c-0.68,1.56-1.38,3.18-1.77,4.68c-0.42,1.5-0.5,2.84-0.29,4.89c0.22,1.96,0.58,4.47,0.6,6.88c0.05,2.44-0.12,4.94-0.51,7.46
						c-0.77,5.04-2.53,10.15-5.31,14.81c0,0,0.3-2.31,0.46-6.17c0.15-3.85,0.04-9.24-1.09-15.31c-0.3-1.55-0.61-3-1.04-4.77
						c-0.41-1.77-0.9-3.96-0.77-6.53c0.42-5.14,2.51-8.77,4.72-12.51C113.51,181.35,120.33,175.75,127.84,171.3z"/>
				</g>
				<g>
					<path fill="#28110C" d="M115.11,220.01c0,0-0.42,8.18-3.43,22.49c-0.39,1.79-0.81,3.67-1.25,5.65
						c-0.49,2.06-0.98,3.9-0.89,4.98c-0.01,1.04,0.73,2.68,1.92,4.9c1.22,2.32,2.28,4.97,2.94,7.74c0.34,1.39,0.6,2.82,0.76,4.27
						c0.18,1.46,0.18,3.02,0.23,4.18c0.08,1.23,0.2,2.06,0.72,2.83c0.54,0.83,1.71,1.68,2.9,2.73c4.69,4.1,8.21,9.83,9.51,16.11
						c0,0-0.38-0.56-1.09-1.6c-0.73-1.02-1.82-2.48-3.37-4.12c-1.55-1.64-3.57-3.44-6.06-5.09c-1.33-0.91-2.4-1.38-4.45-2.65
						c-0.98-0.64-2.23-1.67-3.11-3.16c-0.85-1.43-1.23-2.88-1.46-4.08c-0.17-1-0.34-2.02-0.52-3.05c-0.17-0.91-0.38-1.82-0.64-2.74
						c-0.5-1.83-1.17-3.68-2.02-5.5c-0.75-1.77-2.1-3.63-3.18-6.63c-0.52-1.44-0.82-3.36-0.65-4.99c0.14-1.63,0.54-3.01,0.93-4.22
						C105.97,238.69,109.94,229.06,115.11,220.01z"/>
				</g>
				<g>
					<path fill="#28110C" d="M145.44,121.75c0,0-4.31,6.95-13.87,18.03c-1.21,1.37-2.49,2.82-3.83,4.35
						c-1.42,1.57-2.74,2.94-3.19,3.93c-0.51,0.91-0.66,2.7-0.69,5.22c-0.05,2.63-0.41,5.46-1.16,8.2c-0.37,1.38-0.84,2.75-1.41,4.11
						c-0.55,1.36-1.3,2.73-1.81,3.78c-0.53,1.11-0.83,1.9-0.75,2.82c0.07,0.99,0.68,2.3,1.22,3.79c2.13,5.85,2.45,12.57,0.54,18.69
						c0,0-0.07-0.68-0.18-1.93c-0.15-1.25-0.39-3.05-0.97-5.23c-0.56-2.17-1.45-4.73-2.84-7.38c-0.72-1.44-1.44-2.37-2.61-4.47
						c-0.55-1.03-1.15-2.54-1.2-4.27c-0.06-1.67,0.32-3.11,0.69-4.27c0.33-0.96,0.68-1.94,1.02-2.93c0.29-0.87,0.54-1.77,0.77-2.7
						c0.44-1.85,0.75-3.79,0.89-5.79c0.2-1.9-0.09-4.2,0.41-7.34c0.24-1.52,0.91-3.33,1.84-4.68c0.91-1.37,1.94-2.37,2.86-3.24
						C128.41,133.68,136.55,127.18,145.44,121.75z"/>
				</g>
				<g>
					<path fill="#28110C" d="M128.29,287.49c0,0,1.37,3.45,1.56,9.7c0.01,1.1,0.01,2.32,0.02,3.66c-0.14,0.31,0.7,1.5,2.46,3.13
						c1.87,1.74,3.4,4.12,4.47,6.49c1.16,2.4,2,4.95,3.85,7.68c0,0-1.42-0.26-3.47-1.42c-2.06-1.11-4.54-3.22-6.82-5.06
						c-1.14-0.95-2.15-1.5-4.08-3.05c-0.9-0.76-1.97-1.77-2.8-3.28c-0.89-1.48-1.16-3.55-0.95-4.83
						C123.41,295.94,125.24,291.82,128.29,287.49z"/>
				</g>
				<g>
					<path fill="#28110C" d="M125.17,282.4c0,0-0.12,0.94-0.68,2.17c-0.25,0.6-0.58,1.25-0.77,1.79c-0.03,0.32,0.14,0.35,0.24,0.42
						c0.07,0.03,0.14,0.02,0.14,0.02c0.39,0.48,0.77,1,1.18,1.56c0.92,1.28,1.94,2.71,3.08,4.29c1.23,1.68,2.58,3.52,4.07,5.55
						c0.79,1.17,1.58,2.64,1.62,4.21c0.09,1.5-0.72,3.06-1.78,3.23c0,0,0-0.59-0.49-1.21c-0.23-0.32-0.58-0.68-1-0.96
						c-0.54-0.29-1.14-0.62-1.79-0.97c-0.79-0.42-1.96-1.04-3.2-1.96c-1.21-0.89-2.39-1.96-3.45-3.22c-1.06-1.26-2.01-2.7-2.74-4.29
						c-0.37-0.82-0.66-1.57-0.97-2.55c-0.41-1.13-0.61-2.47-0.26-3.56c0.43-1.49,1.75-2.44,2.88-2.8
						C122.41,283.63,123.69,283.45,125.17,282.4z"/>
				</g>
				<g>
					<path fill="#28110C" d="M138.88,311.04c0.01,0.03,0.11,0.41,0.49,0.98c0.43,0.66,0.89,1.2,2.88,2.83
						c2.19,1.83,4.87,4.04,8.04,6.68c0.92,0.83,2.01,1.88,2.8,3.4c0.83,1.53,0.94,3.45,0.49,4.88c-0.86,2.95-2.99,4.37-4,7.72
						c0,0-0.16-0.33-0.35-0.99c-0.2-0.66-0.35-1.65-0.41-2.79c-0.07-1.12-0.01-2.43-0.15-3.44c-0.14-1.12-0.49-1.34-0.8-1.52
						c-0.49-0.56-5.33-2.99-7.95-6.36c-1.36-1.67-2.81-3.61-3.48-6.14c-0.3-1.23-0.27-2.56,0.21-3.6
						C137.1,311.65,138.02,310.95,138.88,311.04z"/>
				</g>
				<g>
					<path fill="#28110C" d="M359.59,234.39c0,0,0.79,0.86,1.64,2.9c0.82,2,1.63,5.33,0.77,9.51c-0.41,2.07-1.27,4.33-2.75,6.47
						c-1.44,2.17-3.72,4.14-5.94,5.42c-2.22,1.35-4.52,2.31-6.57,3.8c-1.02,0.79-2.04,1.75-2.84,3.03c-0.79,1.26-1.4,2.95-1.12,4.96
						c0.11,0.02-1.48-1.24-1.73-4.41c-0.11-1.54,0.16-3.38,0.96-5.24c0.77-1.9,2.23-3.77,3.7-5.21c1.51-1.5,3.11-2.76,4.48-3.92
						c1.32-1.14,2.52-2.28,3.73-3.85C356.28,244.74,358.73,240.58,359.59,234.39z"/>
				</g>
				<g>
					<path fill="#28110C" d="M284.11,153.92c0,0,0.95,0.44,2.58,1.54c1.62,1.11,3.97,2.85,6.52,5.83c2.47,2.97,5.38,7.33,5.94,13.46
						c0.24,2.96-0.2,6.19-1.58,9.15c-1.35,2.95-3.84,5.58-6.84,6.52c0,0,0.7-1.18,1.27-3.12c0.54-1.96,0.84-4.68,0.46-7.88
						c-0.33-3.24-1.3-6.62-3.01-10.84C287.84,164.41,285.52,159.56,284.11,153.92z"/>
				</g>
				<path fill="#28110C" d="M210.63,159.07c0.2,3.14-3.33-0.56-38.83,14.43c-35.5,14.98-33.28,27.18-41.6,36.61
					c-8.33,9.43,6.65-51.59,10.54-52.69C144.62,156.3,209.52,141.87,210.63,159.07z"/>
				<path fill="#28110C" d="M196.88,75.76c0,0-61.4,14.16-72.47,65.48c-11.06,51.32-11.1,63.83-11.1,63.83L196.88,75.76z"/>
			</g>
		</g>
	</g>
</g>
</svg>
