<?xml version="1.0" encoding="utf-8"?>
<!-- Generator: Adobe Illustrator 25.2.3, SVG Export Plug-In . SVG Version: 6.00 Build 0)  -->
<svg version="1.1" id="Layer_1" xmlns="http://www.w3.org/2000/svg" xmlns:xlink="http://www.w3.org/1999/xlink" x="0px" y="0px"
	 viewBox="0 0 576 576" enable-background="new 0 0 576 576" xml:space="preserve">
<g>
	<g>
		<defs>
			<path id="SVGID_1_" d="M575.94,288c0,159.06-128.94,288-288,288c-159.05,0-288-128.94-288-288S128.88,0,287.94,0
				C447,0,575.94,128.94,575.94,288z"/>
		</defs>
		<use xlink:href="#SVGID_1_"  overflow="visible" fill="#F9E3D9"/>
		<clipPath id="SVGID_2_">
			<use xlink:href="#SVGID_1_"  overflow="visible"/>
		</clipPath>
		<g clip-path="url(#SVGID_2_)">
			<g>
				<path fill="#FEE685" d="M178.44,153.87c0,0-33.16,201.13,112.46,319.35l-7.93,20.19c0,0-74.25-58.39-96.59-132.64
					c0,0,1.44,90.11,104.52,159.31l-5.04,25.24c0,0-116.06-83.62-131.2-185.27c0,0,39.65,127.6,73.53,166.88l-19.46,13.34
					c0,0-147.06-157.15-114.62-308.53s74.61-145.98,74.61-145.98L178.44,153.87z"/>
				<path fill="#F47A4C" d="M153.93,231.06c-1.85-0.46-21.72-18.48-39.27,2.78s1.38,74.84,15.25,80.38
					c13.86,5.55,25.41,1.39,26.79-2.31C158.08,308.21,153.93,231.06,153.93,231.06z"/>
				<path fill="#F8A083" d="M188.7,75.52c50.98-46.8,126.89-46.8,177.87,0c49.06,45.03,58.94,114.85,57.36,170.67
					c1.58,51.08-13.64,113.16-62.69,154.36c-50.98,42.82-121.55,44.63-172.53,1.81c-49.06-41.2-58.94-105.09-57.36-156.17
					C129.77,190.37,139.64,120.55,188.7,75.52z"/>
				<path fill="#FFFFFF" d="M279.82,315.52c-4.57,33.05-25.78,58.07-51.3,58.07c-25.52,0-46.74-25.02-51.31-58.07H279.82z"/>
				<path fill="#F47A4C" d="M223.05,282.88h-30.99C192.06,282.88,204.52,310.72,223.05,282.88z"/>
				<path fill="#92484B" d="M174.97,191.94l-1.2,15.06c0,0-15.17-4.03-36.76,2.9l-0.75-9.55
					C136.25,200.36,159.28,188.38,174.97,191.94z"/>
				<path fill="#FFCE86" d="M282.06,191.94l1.2,15.06c0,0,15.17-4.03,36.76,2.9l0.75-9.55
					C320.78,200.36,297.76,188.38,282.06,191.94z"/>
				<path fill="#74403B" d="M302.04,227.75c8.05,0,14.58,6.52,14.58,14.58v19.31c0,8.06-6.53,14.58-14.58,14.58
					c-8.06,0-14.58-6.52-14.58-14.58v-19.31C287.47,234.28,293.99,227.75,302.04,227.75z"/>
				<path fill="#74403B" d="M151.38,227.75c8.05,0,14.58,6.52,14.58,14.58v19.31c0,8.06-6.53,14.58-14.58,14.58
					s-14.58-6.52-14.58-14.58v-19.31C136.79,234.28,143.32,227.75,151.38,227.75z"/>
				<path fill="#FFCE86" d="M175.27,191.92l-1.2,15.06c0,0-15.17-4.03-36.76,2.9l-0.75-9.55
					C136.54,200.33,159.57,188.35,175.27,191.92z"/>
				<path fill="#FEE685" d="M278.11,96.7c0,0,32.7,83.15,152.22,120.09c0,0,14.95-161.93-152.22-179.79V96.7z"/>
				<path fill="#FEE685" d="M309.58,93.86c-2.83,5.67-4.47,73.9-184.95,121.24c0,0-14.21-175.37,153.48-178.1L309.58,93.86z"/>
				<path fill="#FEE685" d="M396.64,190.72c5.43,1.75,26.55,88.96,26.55,88.96s13.97-74.11,2.46-97.68
					C414.14,158.4,396.64,190.72,396.64,190.72z"/>
				<path fill="#FEE685" d="M156.28,190.72c-27.99,24.38-23.99,90.78-23.99,90.78s-14.07-75.93-2.56-99.5
					C141.24,158.4,156.28,190.72,156.28,190.72z"/>
				<path fill="#F47A4C" d="M396.85,249.57c-0.1-9.85,5.8-18.81,14.97-22.44c8.71-3.46,19.69-4.33,28.8,6.71
					c17.56,21.25-1.38,74.84-15.25,80.38c-13.86,5.55-20.87-0.1-23.84-2.71C396.64,307.17,397.06,270.69,396.85,249.57z"/>
				<path fill="#FEE685" d="M366.91,160.97c0,0-45.31,204.49,6.6,301.09l18.74,5.76c0,0-24.81-70.29-18.89-94.07
					c0,0,22.14,97.31,58.9,115.7l16.22-8.65c0,0-56.23-47.58-56.23-117.86c0,0,34.61,117.86,140.57,160.03l40.01-50.83
					c0,0-126.51-35.68-142.73-128.67c0,0,46.49,77.85,134.08,89.75l36.33-86.18c0,0-177.98-56.55-148.79-196.04
					c0,0,8.66-70.29-56.23-62.72c-64.88,7.57-3.24,35.69-3.24,35.69s49.74-90.83-73.53-94.07S247.05,99.4,247.05,99.4L366.91,160.97
					z"/>
			</g>
			<g>
				<path fill="#F8A083" d="M91.41,608.01c-0.06,0.8,0.38,2.2,1.26,4c0.71,1.49,1.7,3.29,2.97,5.29
					c9.39,15.23,31.53,42.5,37.13,45.64c2.26,1.25,5.44,14.13,7.86,32.96c1.79,13.97,3.15,44.41,3.37,74.68h202.26
					c0.94-17.74,3.48-35.78,8.24-54.51c0.83-3.24,2.8-6.09,4.23-9.14c0.66-1.6,1.37-3.15,2.03-4.69c0.44-0.9,0.83-1.85,1.26-2.9
					c0.33-0.84,0.71-1.79,1.05-2.79c0,0,0-0.05,0.05-0.1c2.8-8.29,5.17-20.92,4.18-39.25v-0.15c-0.83-14.28-3.68-31.86-10-53.58
					c1.1-0.4,2.26-0.8,3.41-1.3l0.06-0.05c0.16-0.05,0.27-0.1,0.44-0.15c0.17-0.05,0.27-0.1,0.44-0.15
					c1.15-0.45,2.36-0.95,3.57-1.49c1.65-0.75,3.35-1.55,5.06-2.4l2.14-1.05c1.1-0.55,2.2-1.14,3.35-1.74
					c8.57-4.55,17.8-10.14,26.98-16.13c3.29-13.49,4.89-22.27,4.89-24.52c0,0,9.51-31.95-8.68-60.52c-0.17-0.3-0.33-0.6-0.55-0.9
					c-0.11-0.1-0.22-0.25-0.27-0.4c-1.76-2.65-3.79-5.24-6.04-7.84c-0.11-0.1-0.22-0.25-0.33-0.35c-1.37-1.5-2.85-3-4.45-4.39
					c-0.17-0.1-0.28-0.2-0.39-0.3c-2.58-1.7-5.6-2.9-8.79-3.2c-10.33-1-24.83,6.19-25.16,54.53c-0.11,15.83,2.86,40.55,7.58,69.81
					c-0.99-4.39-2.03-8.94-3.24-13.68c-0.77-2.7-1.54-5.39-2.47-8.2c-18.46-58.32-0.66-93.38,13.35-110.31
					c-2.2-1.25-4.12-2.29-5.44-3c-8.24-4.49-17.31-8.03-26.98-10.63c-3.46-0.95-6.97-1.8-10.55-2.5
					c-21.15,25.96-67.41,73.95-127.4,84.59c-4.56,0.8-8.73,1.25-12.47,1.29c-0.83,0.05-1.59,0.05-2.36,0.05c-0.6,0-1.21,0-1.81-0.05
					c-38.02-1.44-27.41-41.79-16.16-68.91c0.06-0.15,0.11-0.3,0.22-0.45c0.33-0.8,0.66-1.6,0.99-2.4c1.21-2.94,2.53-5.64,3.69-8.14
					c-5,1.7-9.89,3.59-14.45,5.84c-0.93,0.45-1.87,0.9-2.74,1.35l-0.11,0.05c-0.88,0.45-1.7,0.9-2.53,1.35
					c-6.65,3.65-28.64,37.04-31.94,45.08c-13.79,33.35-26.79,77.71-30.09,93.09v0.05C87.62,607.66,91.57,606.36,91.41,608.01z"/>
				<path fill="#F8A083" d="M158.04,770.58c4.54-22.93,9-47.19,13.03-66.94c-51.09-4.99-76.97-18.57-87.57-26.01
					c-3.63,31.03-6.71,63.88-9.16,92.96H158.04z"/>
				<path fill="#019D75" d="M83.5,677.62c10.6,7.44,36.48,21.02,87.57,26.01c1.1-5.64,2.26-10.94,3.29-15.73
					c4.07-18.13,7.47-37.21,9.78-56.88c0,0,0,0,0-0.05c3.57-30.06,4.5-61.41,1.21-92.48c-2.25-21.02-6.43-41.89-13.08-62.17
					c-1.37-4.19-3.35-8.14-6.04-9.59c-0.27-0.15-0.55-0.3-0.82-0.4c-3.19-1.1-7.58-1.75-12.69-0.55l-0.11,0.05
					c-0.71,0.15-1.43,0.4-2.2,0.65c-5.5,1.85-11.65,5.94-17.86,13.73c-0.32,0.3-0.66,0.65-0.88,0.99
					c-4.89,6.34-9.83,14.99-14.56,26.66c-0.22,0.5-0.44,1.05-0.66,1.6c-8.79,22.23-16.87,60.47-23.79,102.52
					c-0.21,1.4-0.44,2.79-0.71,4.24c-0.49,3.24-1.04,6.54-1.53,9.88C87.95,641.92,85.64,659.45,83.5,677.62z"/>
				<path fill="#F8A083" d="M478.47,770.58c-2.06-34.92-6.32-74.94-14.69-115.53c-13.46,10.44-42.03,27.36-87.79,29.61
					c5.91,29.2,12.3,58.79,18.35,85.92H478.47z"/>
				<path fill="#36B87F" d="M296.49,448.97v-0.15c-8.79-0.6-34.17-2.6-63.18-1v1.15c0,15.88,14.12,28.71,31.59,28.71
					C282.31,477.69,296.49,464.85,296.49,448.97z"/>
				<path fill="#36B87F" d="M77.4,611.86c4.01,1.29,8.02,2.54,11.98,3.65l6.26,1.79c0.33,0.05,0.6,0.15,0.94,0.25
					c4.78,1.35,9.5,2.5,14.17,3.59c2.31,0.55,4.62,1.05,6.98,1.55c9.23,2,18.24,3.59,27.03,4.84c2.14,0.3,4.23,0.6,6.32,0.85
					c0.88,0.15,1.7,0.25,2.53,0.3c2.26,0.3,4.45,0.55,6.65,0.7c0.11,0.05,0.16,0.05,0.22,0.05c2.31,0.25,4.56,0.45,6.76,0.6
					c0.44,0.05,0.82,0.1,1.2,0.1c2.31,0.2,4.62,0.35,6.87,0.45c2.37,0.15,4.72,0.3,7.03,0.35c0.6,0.05,1.21,0.05,1.81,0.05
					c0.49,0,1.05,0.05,1.54,0.05c3.13,0.1,6.27,0.15,9.39,0.15c3.91,0,7.81-0.05,11.54-0.2c1.1-0.05,2.25-0.1,3.29-0.15
					c1.37-0.05,2.74-0.1,4.06-0.19c2.09-0.1,4.12-0.25,6.15-0.4c1.98-0.15,4.01-0.3,5.99-0.5c2.37-0.2,4.67-0.45,6.98-0.75
					c2.75-0.3,5.38-0.65,8.02-1c2.64-0.34,5.28-0.75,7.86-1.2c1.48-0.2,2.91-0.45,4.34-0.75c2.2-0.4,4.39-0.8,6.54-1.25
					c2.58-0.5,5.16-1.05,7.75-1.65c1.64-0.35,3.29-0.75,4.89-1.15c2.03-0.45,4.07-0.99,6.04-1.49c2.26-0.6,4.45-1.2,6.65-1.85
					c1.59-0.45,3.18-0.9,4.72-1.4c20.65-6.29,38.07-13.98,51.86-21.22c1.43-0.75,2.85-1.5,4.23-2.25c1.04-0.55,2.03-1.1,3.02-1.7
					c2.96-1.65,5.76-3.29,8.29-4.84c1.21,4.74,2.26,9.29,3.24,13.68c-4.72-29.26-7.69-53.98-7.58-69.81
					c0.33-48.33,14.84-55.53,25.16-54.53c3.02,0.3,5.93,1.4,8.4,2.94c-2.14-1.49-9.72-6.09-15.49-9.23
					c-0.99-0.55-1.92-1.1-2.85-1.55c-2.2-1.25-4.12-2.3-5.44-3c-8.24-4.5-17.31-8.04-26.98-10.64c-3.46-0.95-6.97-1.8-10.55-2.5
					c-4.78-1-9.72-1.85-14.72-2.45c0.05,0.8,0.05,1.65,0.05,2.45c0,22.92-20.43,41.54-45.65,41.54c-25.22,0-45.71-18.62-45.71-41.54
					c0-1.25,0.06-2.5,0.17-3.74c-16.7,1.59-33.95,4.54-49.44,9.74c-5,1.7-9.89,3.59-14.45,5.84c-0.93,0.45-1.87,0.9-2.74,1.35
					l-0.11,0.05c-0.71,0.15-1.43,0.4-2.2,0.65c-0.11,0.25-0.22,0.45-0.33,0.7c-4.56,8.89-13.9,19.87-24.77,31.81
					c-2.64,2.89-5.39,5.89-8.19,8.88c-0.88,0.95-1.75,1.9-2.64,2.85c-11.98,12.74-24.44,26.07-34,38.55
					C63.17,571.91,65.64,594.53,77.4,611.86z"/>
				<path fill="#008C66" d="M140.32,695.28v0.15c0.99,7.51,1.81,19.82,2.42,34.27c112.04,11.66,181.41,0.1,210.21-6.8
					c0.49-2.4,1.1-4.85,1.7-7.25c0.83-3.26,2.81-6.11,4.24-9.16c0.66-1.6,1.38-3.15,2.03-4.7c0.44-0.9,0.83-1.85,1.27-2.9
					c0.33-0.85,0.71-1.8,1.05-2.8L201.76,663L140.32,695.28z"/>
				<path fill="#00AC7A" d="M77.4,611.86c4.5,6.79,10.44,12.68,17.2,17.48c2.48,1.79,5,3.39,7.64,4.84
					c14.17,7.79,23.4,23.37,29.06,37.05c5.71,13.58,7.8,25.32,7.8,25.32c0.49-0.2,0.99-0.45,1.54-0.65
					c18.74-7.99,39.72-10.18,59.99-6.69c77.02,13.39,162.45,7.34,162.45,7.34s0-0.05,0.05-0.1c0.77-1.45,8.51-17.48,3.57-59.72
					c-1.16-9.99-3.02-21.47-5.93-34.61c-0.06-0.34-0.11-0.7-0.22-1.05v-0.15c-0.99-4.39-2.03-8.94-3.24-13.68
					c-2.53,1.55-5.33,3.19-8.29,4.84c-0.99,0.6-1.98,1.15-3.02,1.7c-1.38,0.75-2.75,1.5-4.23,2.25
					c-13.79,7.24-31.21,14.93-51.86,21.22c-1.59,0.5-3.13,0.95-4.72,1.4c-2.2,0.64-4.39,1.25-6.65,1.85
					c-1.98,0.5-4.01,1.05-6.04,1.49c-1.59,0.4-3.24,0.8-4.89,1.15c-2.59,0.6-5.17,1.15-7.75,1.65c-2.14,0.45-4.34,0.9-6.54,1.25
					c-1.43,0.3-2.86,0.55-4.34,0.75c-2.58,0.45-5.17,0.85-7.86,1.2c-2.64,0.4-5.27,0.75-8.02,1c-2.31,0.3-4.61,0.55-6.98,0.75
					c-1.98,0.2-3.95,0.35-5.99,0.5c-2.03,0.15-4.06,0.3-6.15,0.4c-1.32,0.1-2.69,0.15-4.06,0.19c-1.05,0.05-2.14,0.1-3.29,0.15
					c-3.74,0.15-7.64,0.2-11.54,0.2c-3.07,0-6.21-0.05-9.39-0.15c-1.1,0-2.2-0.05-3.35-0.1c-2.31-0.05-4.67-0.2-7.03-0.35
					c-2.25-0.1-4.56-0.25-6.87-0.45c-0.38,0-0.77-0.05-1.2-0.1c-2.2-0.15-4.45-0.34-6.76-0.6c-0.06,0-0.11,0-0.22-0.05
					c-2.2-0.16-4.39-0.4-6.65-0.7c-0.83-0.05-1.65-0.15-2.53-0.3c-2.09-0.25-4.17-0.55-6.32-0.85c-8.79-1.25-17.8-2.85-27.03-4.84
					c-2.36-0.5-4.67-1-6.98-1.55c-4.67-1.1-9.39-2.3-14.17-3.59c-0.33-0.1-0.6-0.2-0.94-0.25l-6.26-1.79
					C85.42,614.4,81.41,613.15,77.4,611.86z"/>
				<path fill="#36B87F" d="M352.96,531.11c-0.11,15.83,2.86,40.55,7.58,69.81v0.15c0.05,0.35,0.11,0.7,0.16,1.1
					c1.76,10.94,3.79,22.57,5.99,34.55c2.85,15.48,5.99,31.66,9.28,47.94c45.77-2.25,74.33-19.17,87.79-29.61V655
					c-11.81-57.17-31.7-115.24-64.83-161.04c-2.31-3.25-4.72-6.39-7.2-9.49c-0.16-0.25-0.32-0.45-0.49-0.65
					c-1.15-1.4-2.47-2.7-3.95-3.74c-0.17-0.1-0.28-0.2-0.39-0.3c-2.58-1.7-5.6-2.9-8.79-3.2
					C367.8,475.59,353.29,482.78,352.96,531.11z"/>
				<path fill="#F8A083" d="M233.31,391.39v57.59c0,15.88,14.12,28.71,31.59,28.71c17.41,0,31.58-12.84,31.58-28.71v-57.59H233.31z"
					/>
				<path fill="#FFFFFF" d="M219.19,452.62c0,22.92,20.49,41.54,45.71,41.54c25.22,0,45.65-18.62,45.65-41.54
					c0-0.8,0-1.65-0.05-2.45c-4.61-0.65-9.29-1.05-14.01-1.35v0.15c0,15.88-14.17,28.71-31.58,28.71
					c-17.48,0-31.59-12.84-31.59-28.71v-1.15c-4.56,0.25-9.23,0.6-13.95,1.05C219.25,450.12,219.19,451.37,219.19,452.62z"/>
			</g>
		</g>
	</g>
</g>
</svg>
