<?xml version="1.0" encoding="utf-8"?>
<!-- Generator: Adobe Illustrator 25.2.3, SVG Export Plug-In . SVG Version: 6.00 Build 0)  -->
<svg version="1.1" id="Layer_1" xmlns="http://www.w3.org/2000/svg" xmlns:xlink="http://www.w3.org/1999/xlink" x="0px" y="0px"
	 viewBox="0 0 576 576" enable-background="new 0 0 576 576" xml:space="preserve">
<g>
	<g>
		<defs>
			<path id="SVGID_1_" d="M576,288.55c0,158.85-128.78,287.63-287.63,287.63C129.51,576.18,0.74,447.4,0.74,288.55
				C0.74,129.69,129.51,0.92,288.37,0.92C447.22,0.92,576,129.69,576,288.55z"/>
		</defs>
		<use xlink:href="#SVGID_1_"  overflow="visible" fill="#F9E3D9"/>
		<clipPath id="SVGID_2_">
			<use xlink:href="#SVGID_1_"  overflow="visible"/>
		</clipPath>
		<g clip-path="url(#SVGID_2_)">
			<path fill="#DCEAEB" d="M168.44,703.7c-4.84,1.21-77.09-81.43-77.09-81.43l17.88-22.51l25.38-18.13l36.25,25.38L168.44,703.7z"/>
			<path fill="#DCEAEB" d="M217.82,781.05l-9.63-73.71l17.05-158.33l29.01-32.63l18.13-3.63l14.51,7.25l101.52-18.13l20.45,2.31
				l70.19,73.82c0,0,33.27,175.42,39.03,203.03H217.82z"/>
			<path fill="#E6AA7B" d="M0.85,781.05c13.38-17.25,22.13-28.21,23.07-28.66l33.69,28.66H0.85z"/>
			<path fill="#367C85" d="M383.99,469.5c0,0-75.11-12.89-106.54,19.18l5.03,24.2l108.74-7.54
				C391.21,505.33,394.36,480.82,383.99,469.5z"/>
			<path fill="#E6AA7B" d="M280.27,499.51c2.11,7.14,4.73,15.79,6.54,18.71c2.41,3.92,16.29,26.24,19.71,31.77
				c0,0.2,0.2,0.41,0.41,0.6c3.32-19.81,10.76-24.13,10.76-24.13s0,0,0.1,0c0.1-0.1,0.2-0.1,0.4-0.2
				c5.63-3.62,10.66-7.04,15.49-10.26c21.92-14.88,34.59-25.04,41.73-31.98c-1-0.41-1.81-0.81-2.41-1.01
				c-12.57-5.03-7.54-75.42-7.54-75.42l-69.19,1.3c0,0-1.21,31.38-6.24,74.12C289.41,488.34,285.9,493.87,280.27,499.51z"/>
			<path fill="#DCEAEB" d="M156.51,781.05H-22.11C22.34,701.75,109,601.18,109,601.18s98.05,69.68,50.29,174.2
				C158.43,777.25,157.49,779.15,156.51,781.05z"/>
			<path fill="#F0A67E" d="M400.64,155.34c0,0,18.44,216.21,0,236.33c-18.43,20.12-73.75,80.46-102.24,80.46
				c-28.5,0-56.99,5.02-62.02-10.06c-5.03-15.08-8.59-91.55-21.16-106.01c-12.57-14.45-16.34-40.86-7.54-57.19
				c8.8-16.35,5.66-111.25,6.28-113.77C214.6,182.57,296.94,100.44,400.64,155.34z"/>
			<path fill="#623C1E" d="M256.73,69.48c-4.94-6.79-6.34-14.33-1.53-22.48c18.03-30.51,87.91,23.82,106.22,38.84
				C355.57,80.42,345.9,69.4,344.79,55c-1.59-20.8,92.79,68.79,95.99,81.59c3.21,12.8-35.2,137.58-35.2,137.58
				s-43.19-12.8-35.19-59.19c8-46.4,13.44-50.36-47.69-57.55c-53.42-6.28-119.38,51.05-109.78,14.25c0.93-3.58,0.85-6.68-0.04-9.42
				c-24.33,5.52-49.94,8.45-58.63-1.47c-6.66-7.61,4.43-14.49,20.78-20.11c-25.51-7.97-55.78-17.18-64.36-44
				C97.15,54.36,201.88,62.49,256.73,69.48z"/>
			<g>
				<path fill="#F0A67E" d="M392.86,287.26c-0.96-20.07,7.61-39.55,22.53-53.02c9.21-8.32,20.41-13.23,29.54-1.57
					c15.98,20.41,10.36,74.08-19.65,86.62c-11.53,4.81-24.68-1.57-28.82-13.36C394.68,300.86,393.22,294.61,392.86,287.26z"/>
				<path fill="#D25E54" d="M430.27,248.95c-15.92-0.28-17.51,36.88-17.51,36.88c1.47-8.94,3.46-15.49,5.48-20.29
					c0.07,7.96,1.57,25.27,13.2,28.97c0,0-11.08-6.49-9.61-33.62c0.09-1.68,0.72-3.34,1.8-4.64c0.14-0.16,0.27-0.32,0.4-0.47
					c1.62-1.84,4.01-2.9,6.46-2.71c12.48,0.98,11.13,14.88,11.13,14.88S446.46,249.22,430.27,248.95z"/>
			</g>
			<path fill="#D22F31" d="M356.23,533.3c0,0-18.01,36.46-48.19,38.97c-30.17,2.51-35.62-45.68-35.62-45.68h15.08
				c0,0-0.16,26.97,19.11,25.71c19.27-1.26,36.62-29.48,36.62-29.48L356.23,533.3z"/>
			<path fill="#90A39A" d="M306.62,552.3l35.1-24.24l47.87-33.18c0,0-34.29,10.56-55.91,21.12c-4.83,3.22-9.86,6.64-15.49,10.26
				c-0.2,0.1-0.3,0.1-0.4,0.2c-0.1,0-0.1,0-0.1,0s-7.44,4.32-10.76,24.13C306.81,551.1,306.71,551.7,306.62,552.3z"/>
			<path fill="#97D7DE" d="M318.18,526.26c2.51-1.11,13.28-5.02,23.54,1.81c6.73,4.43,13.27,13.38,17.1,30.67
				c0,0,49.28-42.53,46.96-56.31c-0.3-1.61-0.8-3.22-1.4-4.92c-4.83-11.87-18-25.55-20.11-27.66c0.6,1,1.21,4.43-8.85,14.18
				c-7.14,6.94-19.81,17.1-41.73,31.98C328.84,519.22,323.81,522.64,318.18,526.26z"/>
			<path fill="#97D7DE" d="M266.99,570.61c-0.71-3.42-5.23-29.67,13.37-37.31c5.93-2.41,11.87-0.71,16.39,3.72
				c2.82,2.81,5.63,7.34,9.75,12.97c-3.42-5.53-17.29-27.86-19.71-31.77c-1.81-2.92-4.43-11.57-6.54-18.71
				c-1.61-5.83-2.82-10.86-2.82-10.86s-7.04,8.35-11.86,22.93C260.85,525.95,258.34,546.27,266.99,570.61z"/>
			<polygon fill="#97D7DE" points="144.39,781.05 141.02,702.58 239.98,704.92 239.98,781.05 			"/>
			<path fill="#D22F31" d="M256.72,781.05c13.52-96.05,28.21-188.87,35.82-199.98h18.85c0,0-4.86,95.78-5.61,199.98H256.72z"/>
			<path fill="#D22F31" d="M304.94,550.89c0,0,23.63,9.88,15.25,23.77c-8.38,13.88-19.69,14.36-19.69,14.36s-15.5-7.66-13.83-22.51
				C288.35,551.68,304.94,550.89,304.94,550.89z"/>
			<path fill="#367C85" d="M239.98,704.92c-12.18,4.37-75.74,14.85-98.96-2.33L239.98,704.92z"/>
			<path fill="#EDEEEE" d="M305.03,261.43l58.26-1c0,0,3.91,32-28.13,33.72C303.12,295.87,305.03,261.43,305.03,261.43z"/>
			<path fill="#EDEEEE" d="M213.05,261.63h45.89c0,0,3.1,26.51-23.35,27.93C209.16,290.98,213.05,261.63,213.05,261.63z"/>
			<g>
				<path fill="#894634" d="M251.32,273.61c0,8.13-6.59,14.72-14.72,14.72c-8.13,0-14.72-6.6-14.72-14.72
					c0-8.13,6.59-14.73,14.72-14.73C244.73,258.88,251.32,265.48,251.32,273.61z"/>
				<path fill="#704338" d="M242.16,274.85c0,3.42-2.77,6.19-6.19,6.19s-6.19-2.77-6.19-6.19c0-3.42,2.77-6.18,6.19-6.18
					S242.16,271.43,242.16,274.85z"/>
			</g>
			<g>
				<circle fill="#894634" cx="334.76" cy="275.61" r="15.6"/>
				<circle fill="#704338" cx="334.1" cy="276.92" r="6.56"/>
			</g>
			<path opacity="0.7" fill="#EDEEEE" d="M253.73,279.9c0,3-2.43,5.44-5.43,5.44c-3,0-5.43-2.43-5.43-5.44c0-3,2.43-5.43,5.43-5.43
				C251.3,274.47,253.73,276.9,253.73,279.9z"/>
			<path opacity="0.7" fill="#EDEEEE" d="M353.06,279.9c0,3-2.43,5.44-5.43,5.44c-3,0-5.43-2.43-5.43-5.44c0-3,2.43-5.43,5.43-5.43
				C350.64,274.47,353.06,276.9,353.06,279.9z"/>
			<path fill="#E88B6A" d="M213.05,261.63h45.89c0,0-2.8-18.57-22.25-18.86C216.35,242.48,213.05,261.63,213.05,261.63z"/>
			<path fill="#E88B6A" d="M363.7,261.63h-58.77c0,0,3.53-20.97,28.43-21.25C359.43,240.08,363.7,261.63,363.7,261.63z"/>
			<path fill="#623C1E" d="M356.73,236.97c0,0,13.44,10.81,16.29,5.27c2.85-5.54,1.11-19.26-19.18-22.12
				c-20.28-2.85-50.85,0.09-51.7,6.83c-0.85,6.74-0.55,11.55,6.59,11.06C315.88,237.52,334.15,226.66,356.73,236.97z"/>
			<path fill="#623C1E" d="M214.55,236.88c0,0-13,10.81-15.75,5.27c-2.75-5.54-1.08-19.26,18.54-22.12
				c19.61-2.85,49.16,0.08,49.98,6.82c0.81,6.74,0.53,11.55-6.37,11.06C254.05,237.42,236.39,226.56,214.55,236.88z"/>
			<g>
				<path fill="#813823" d="M321.48,375.55c1.4,9.94-13.59,39.02-46.63,34.87c-32.8-4.34-35.15-36.13-35.15-36.13h4.92l72.41,1.27
					H321.48z"/>
				<path fill="#FFFFFF" d="M317.03,375.55c0,5.24-1.88,10.11-6.33,12.28c-11.72,5.42-54.59,1.63-60.69-1.63
					c-3.75-1.99-4.92-7.77-5.39-11.92L317.03,375.55z"/>
			</g>
			<path fill="#D25E54" d="M258,259.72c0,0,10.83,29.29-2.18,52.21c0,0,17.56-25.98,3.52-53.08L258,259.72z"/>
			<path fill="#D25E54" d="M255.82,311.93c0,0-8.33,12.06-6.65,20.02c1.67,7.96,15.08,15.3,34.99,7.75c0,0,6.49-2.72,11.94,2.31
				c5.45,5.03,17.6-11.94,7.96-14.67c0,0,5.03-3.35,5.45,5.45c0.42,8.8-8.17,12.57-11.1,11.73c-2.94-0.83-7.97-5.02-10.06-3.77
				c-2.1,1.26-21.16,6.92-30.8,2.52c-9.63-4.4-12.77-11.74-8.79-19.07C252.72,316.87,255.82,311.93,255.82,311.93z"/>
			<path fill="#C3E7EA" d="M405.75,502.4c0,0,71.82,40.55,105.11,85.51c6.03-4.08,15.15-5.99,25.95-6.44
				c-0.37-1.76-1-3.17-1.59-4.22c-0.14-0.09-0.23-0.32-0.32-0.41c-0.09-0.09-0.09-0.23-0.09-0.23
				c-13.47-19.5-81.06-54.98-124.7-76.3C407.29,501.64,405.75,502.4,405.75,502.4z"/>
			<path fill="#C3E7EA" d="M453.15,781.05c-0.3-8.27-0.37-16.3-0.22-23.99c1.96,7.62,4.22,15.68,6.75,23.99H453.15z"/>
			<g>
				<path fill="#DCEAEB" d="M434.07,781.05c-2.33-16.35-3.92-32.17-4.79-46.41c-0.74-12.64-1.02-23.96-0.73-33.43
					c2.37-79.32,56.35-110.2,89.59-121.73c2.54,5.41,4.79,10.76,6.35,15.97c2.83,9.25,6.48,22.76,10.7,39.13
					c9.93,39.16,22.22,94.51,29.75,146.46H434.07z"/>
				<path fill="#C3E7EA" d="M564.94,781.05c-7.52-51.94-19.82-107.27-29.74-146.43c-4.24-16.38-7.87-29.92-10.71-39.16
					c-1.54-5.19-3.79-10.57-6.35-15.96c6.7-2.87,5.99-4.47,16.68-2.88c0.04,0.28,0.03,0.56,0.03,0.83c-0.02,0.09,0.1,0.2,0.1,0.2
					c4.56,24.46,25.82,117.89,41.07,203.39H564.94z"/>
			</g>
			<path fill="#844D1F" d="M453.28,781.05H135.53c-10.01-101.17-0.4-199.92-0.4-199.92l117.94-63.51
				c-40.82,99.8,27.22,222.28,27.22,222.28c84.68-60.48,129.28-241.33,129.28-241.33c115.68,48.99,126.7,81.15,126.7,81.15
				C427.16,628.12,441.73,736.21,453.28,781.05z"/>
		</g>
	</g>
</g>
</svg>
