<?xml version="1.0" encoding="utf-8"?>
<!-- Generator: Adobe Illustrator 25.2.3, SVG Export Plug-In . SVG Version: 6.00 Build 0)  -->
<svg version="1.1" id="Layer_1" xmlns="http://www.w3.org/2000/svg" xmlns:xlink="http://www.w3.org/1999/xlink" x="0px" y="0px"
	 viewBox="0 0 576 576" enable-background="new 0 0 576 576" xml:space="preserve">
<g>
	<g>
		<defs>
			<path id="SVGID_1_" d="M576,288c0,159.06-128.94,288-288,288C128.94,576,0,447.06,0,288S128.94,0,288,0
				C447.06,0,576,128.94,576,288z"/>
		</defs>
		<use xlink:href="#SVGID_1_"  overflow="visible" fill="#F9E3D9"/>
		<clipPath id="SVGID_2_">
			<use xlink:href="#SVGID_1_"  overflow="visible"/>
		</clipPath>
		<g clip-path="url(#SVGID_2_)">
			<g>
				<path fill="#F8A083" d="M109.42,636.17c-0.05,0.8,0.38,2.2,1.27,4c0.71,1.5,1.7,3.29,2.96,5.29
					c9.39,15.23,31.53,42.5,37.13,45.64c2.26,1.25,5.44,14.14,7.86,32.96c1.79,13.97,3.15,44.42,3.37,74.68h202.26
					c0.94-17.73,3.48-35.78,8.24-54.51c0.83-3.24,2.8-6.09,4.23-9.14c0.66-1.6,1.37-3.15,2.03-4.69c0.44-0.9,0.83-1.85,1.26-2.9
					c0.33-0.84,0.71-1.79,1.05-2.79c0,0,0-0.05,0.05-0.1c2.8-8.29,5.17-20.92,4.18-39.25v-0.16c-0.83-14.28-3.68-31.85-10-53.58
					c1.1-0.4,2.26-0.8,3.41-1.3l0.06-0.05c0.16-0.05,0.27-0.1,0.44-0.15c0.17-0.05,0.28-0.1,0.44-0.16
					c1.16-0.45,2.36-0.95,3.57-1.49c1.64-0.75,3.35-1.55,5.05-2.4l2.14-1.05c1.1-0.55,2.2-1.15,3.35-1.75
					c8.57-4.54,17.79-10.14,26.97-16.13c3.29-13.48,4.89-22.27,4.89-24.51c0,0,9.51-31.96-8.68-60.52c-0.16-0.3-0.33-0.6-0.55-0.9
					c-0.11-0.1-0.21-0.25-0.27-0.4c-1.75-2.65-3.79-5.24-6.04-7.84c-0.11-0.1-0.22-0.25-0.33-0.35c-1.37-1.49-2.85-3-4.45-4.39
					c-0.17-0.1-0.28-0.2-0.38-0.3c-2.59-1.7-5.61-2.9-8.79-3.2c-10.33-0.99-24.83,6.19-25.16,54.53c-0.1,15.82,2.86,40.55,7.58,69.8
					c-0.99-4.39-2.03-8.94-3.24-13.68c-0.77-2.7-1.53-5.39-2.47-8.19c-18.46-58.32-0.66-93.38,13.35-110.31
					c-2.2-1.25-4.12-2.3-5.44-3c-8.24-4.5-17.31-8.04-26.98-10.64c-3.46-0.95-6.97-1.79-10.55-2.5
					c-21.15,25.97-67.41,73.95-127.4,84.59c-4.56,0.8-8.73,1.25-12.47,1.3c-0.83,0.05-1.59,0.05-2.36,0.05c-0.6,0-1.21,0-1.81-0.05
					c-38.02-1.45-27.41-41.79-16.15-68.91c0.05-0.16,0.1-0.31,0.21-0.45c0.33-0.8,0.66-1.59,0.99-2.39
					c1.22-2.95,2.53-5.65,3.68-8.14c-5,1.7-9.89,3.59-14.45,5.84c-0.94,0.45-1.87,0.9-2.75,1.35c-0.05,0-0.11,0.05-0.11,0.05
					c-0.88,0.45-1.7,0.9-2.53,1.35c-6.65,3.65-28.64,37.04-31.94,45.08c-13.79,33.35-26.79,77.71-30.09,93.09v0.05
					C105.63,635.82,109.58,634.52,109.42,636.17z"/>
				<path fill="#F8A083" d="M176.05,798.74c4.54-22.92,9-47.19,13.03-66.94c-51.09-4.99-76.97-18.57-87.57-26.01
					c-3.63,31.03-6.71,63.88-9.16,92.96H176.05z"/>
				<path fill="#019D75" d="M101.51,705.78c10.6,7.44,36.48,21.02,87.57,26.01c1.1-5.64,2.26-10.93,3.3-15.73
					c4.06-18.13,7.47-37.2,9.77-56.88c0,0,0,0,0-0.05c3.57-30.06,4.5-61.42,1.21-92.48c-2.25-21.02-6.43-41.9-13.08-62.17
					c-1.37-4.2-3.35-8.14-6.04-9.59c-0.27-0.15-0.55-0.3-0.82-0.4c-3.19-1.1-7.58-1.75-12.69-0.55c-0.06,0-0.11,0.05-0.11,0.05
					c-0.71,0.15-1.43,0.4-2.2,0.65c-5.49,1.85-11.65,5.95-17.85,13.73c-0.33,0.3-0.66,0.65-0.88,1
					c-4.89,6.34-9.83,14.98-14.56,26.66c-0.22,0.5-0.44,1.05-0.66,1.6c-8.79,22.22-16.86,60.47-23.79,102.51
					c-0.21,1.4-0.44,2.79-0.71,4.24c-0.5,3.25-1.05,6.54-1.54,9.88C105.96,670.07,103.65,687.6,101.51,705.78z"/>
				<path fill="#F8A083" d="M496.48,798.74c-2.06-34.92-6.32-74.94-14.69-115.53c-13.46,10.44-42.03,27.37-87.79,29.62
					c5.91,29.19,12.3,58.78,18.35,85.91H496.48z"/>
				<path fill="#36B87F" d="M314.5,477.13v-0.15c-8.79-0.6-34.17-2.59-63.18-0.99v1.14c0,15.88,14.12,28.71,31.59,28.71
					C300.33,505.84,314.5,493.01,314.5,477.13z"/>
				<path fill="#36B87F" d="M95.41,640.01c4.01,1.3,8.03,2.55,11.98,3.65l6.26,1.79c0.33,0.05,0.6,0.16,0.94,0.25
					c4.78,1.35,9.5,2.5,14.17,3.59c2.31,0.55,4.61,1.05,6.97,1.55c9.23,2,18.24,3.6,27.03,4.85c2.14,0.3,4.23,0.6,6.32,0.84
					c0.88,0.15,1.7,0.25,2.53,0.3c2.26,0.3,4.45,0.55,6.65,0.7c0.11,0.05,0.16,0.05,0.22,0.05c2.31,0.25,4.56,0.45,6.76,0.6
					c0.44,0.05,0.82,0.1,1.21,0.1c2.31,0.2,4.61,0.35,6.86,0.45c2.37,0.15,4.72,0.3,7.03,0.35c0.6,0.05,1.21,0.05,1.81,0.05
					c0.49,0,1.05,0.05,1.54,0.05c3.13,0.1,6.26,0.16,9.39,0.16c3.91,0,7.81-0.05,11.54-0.2c1.1-0.05,2.25-0.1,3.29-0.15
					c1.37-0.05,2.75-0.1,4.06-0.2c2.09-0.1,4.12-0.25,6.15-0.4c1.98-0.16,4.01-0.31,5.99-0.5c2.36-0.2,4.67-0.45,6.97-0.75
					c2.75-0.3,5.39-0.64,8.02-0.99c2.64-0.35,5.28-0.75,7.86-1.2c1.48-0.19,2.91-0.45,4.34-0.75c2.2-0.4,4.39-0.8,6.54-1.25
					c2.58-0.5,5.17-1.05,7.75-1.65c1.64-0.34,3.29-0.75,4.89-1.14c2.03-0.45,4.07-1,6.04-1.5c2.26-0.6,4.45-1.2,6.65-1.85
					c1.59-0.45,3.18-0.9,4.72-1.4c20.65-6.29,38.07-13.99,51.86-21.23c1.43-0.75,2.85-1.49,4.23-2.24c1.04-0.55,2.03-1.1,3.02-1.7
					c2.96-1.64,5.76-3.29,8.29-4.84c1.21,4.74,2.26,9.29,3.24,13.68c-4.72-29.26-7.69-53.98-7.58-69.8
					c0.33-48.34,14.84-55.53,25.16-54.53c3.02,0.3,5.93,1.4,8.4,2.95c-2.14-1.5-9.72-6.1-15.49-9.24c-0.99-0.55-1.92-1.1-2.85-1.55
					c-2.2-1.25-4.12-2.29-5.44-3c-8.24-4.5-17.31-8.04-26.98-10.64c-3.46-0.95-6.97-1.79-10.55-2.5c-4.78-1-9.72-1.85-14.72-2.44
					c0.05,0.8,0.05,1.64,0.05,2.44c0,22.92-20.43,41.55-45.65,41.55s-45.71-18.63-45.71-41.55c0-1.25,0.06-2.5,0.17-3.74
					c-16.7,1.6-33.95,4.54-49.44,9.74c-5,1.7-9.89,3.59-14.45,5.84c-0.94,0.45-1.87,0.9-2.75,1.35c-0.06,0-0.11,0.05-0.11,0.05
					c-0.71,0.15-1.43,0.4-2.2,0.65c-0.11,0.25-0.22,0.45-0.33,0.7c-4.56,8.88-13.9,19.87-24.77,31.81c-2.64,2.9-5.39,5.89-8.19,8.89
					c-0.88,0.95-1.75,1.9-2.64,2.85c-11.97,12.73-24.44,26.07-34,38.55C81.18,600.07,83.65,622.69,95.41,640.01z"/>
				<path fill="#008C66" d="M158.33,723.43v0.15c0.99,7.51,1.81,19.82,2.42,34.28c112.03,11.66,181.4,0.1,210.2-6.81
					c0.49-2.4,1.1-4.85,1.71-7.25c0.83-3.25,2.81-6.1,4.24-9.16c0.66-1.61,1.38-3.15,2.03-4.71c0.44-0.9,0.83-1.85,1.27-2.9
					c0.33-0.85,0.71-1.8,1.05-2.8l-161.48-33.08L158.33,723.43z"/>
				<path fill="#00AC7A" d="M95.41,640.01c4.51,6.79,10.44,12.69,17.2,17.48c2.48,1.8,5,3.4,7.64,4.85
					c14.17,7.79,23.4,23.36,29.06,37.05c5.71,13.58,7.8,25.31,7.8,25.31c0.5-0.2,0.99-0.45,1.54-0.65
					c18.74-7.99,39.72-10.18,59.99-6.69c77.02,13.38,162.45,7.34,162.45,7.34s0-0.05,0.05-0.1c0.77-1.45,8.51-17.48,3.57-59.72
					c-1.16-9.98-3.02-21.47-5.93-34.6c-0.06-0.35-0.11-0.7-0.22-1.05v-0.15c-0.99-4.39-2.03-8.94-3.24-13.68
					c-2.53,1.55-5.33,3.2-8.29,4.84c-0.99,0.6-1.98,1.15-3.02,1.7c-1.38,0.75-2.75,1.49-4.23,2.24
					c-13.79,7.24-31.21,14.93-51.86,21.23c-1.59,0.5-3.13,0.95-4.72,1.4c-2.2,0.65-4.39,1.25-6.65,1.85
					c-1.98,0.5-4.01,1.05-6.04,1.5c-1.59,0.4-3.24,0.8-4.89,1.14c-2.58,0.6-5.17,1.15-7.75,1.65c-2.14,0.45-4.34,0.9-6.54,1.25
					c-1.43,0.3-2.86,0.55-4.34,0.75c-2.58,0.45-5.16,0.85-7.86,1.2c-2.63,0.4-5.27,0.75-8.02,0.99c-2.31,0.31-4.61,0.55-6.97,0.75
					c-1.98,0.19-3.96,0.34-5.99,0.5c-2.03,0.15-4.06,0.3-6.15,0.4c-1.31,0.1-2.69,0.15-4.06,0.2c-1.05,0.05-2.14,0.1-3.29,0.15
					c-3.74,0.15-7.64,0.2-11.54,0.2c-3.07,0-6.21-0.05-9.39-0.16c-1.1,0-2.2-0.05-3.35-0.1c-2.31-0.05-4.67-0.2-7.03-0.35
					c-2.25-0.1-4.56-0.25-6.86-0.45c-0.39,0-0.77-0.05-1.21-0.1c-2.2-0.15-4.45-0.35-6.76-0.6c-0.06,0-0.11,0-0.22-0.05
					c-2.2-0.15-4.39-0.4-6.65-0.7c-0.83-0.05-1.64-0.15-2.53-0.3c-2.09-0.25-4.17-0.55-6.32-0.84c-8.79-1.25-17.8-2.85-27.03-4.85
					c-2.36-0.5-4.67-0.99-6.97-1.55c-4.67-1.1-9.4-2.29-14.17-3.59c-0.33-0.1-0.6-0.2-0.94-0.25l-6.26-1.79
					C103.44,642.56,99.42,641.31,95.41,640.01z"/>
				<path fill="#36B87F" d="M370.97,559.27c-0.11,15.82,2.86,40.55,7.58,69.8v0.15c0.05,0.35,0.11,0.7,0.16,1.1
					c1.76,10.94,3.8,22.57,5.99,34.55c2.85,15.48,5.99,31.66,9.28,47.94c45.76-2.25,74.33-19.18,87.79-29.62v-0.05
					c-11.81-57.18-31.7-115.25-64.83-161.04c-2.31-3.24-4.72-6.39-7.2-9.49c-0.16-0.25-0.32-0.45-0.49-0.65
					c-1.15-1.4-2.47-2.7-3.95-3.74c-0.17-0.1-0.28-0.2-0.38-0.3c-2.59-1.7-5.61-2.9-8.79-3.2
					C385.81,503.75,371.31,510.93,370.97,559.27z"/>
				<path fill="#F8A083" d="M251.32,419.55v57.58c0,15.88,14.12,28.71,31.59,28.71c17.41,0,31.58-12.83,31.58-28.71v-57.58H251.32z"
					/>
				<path fill="#FFFFFF" d="M237.2,480.77c0,22.92,20.5,41.55,45.71,41.55s45.65-18.63,45.65-41.55c0-0.8,0-1.64-0.05-2.44
					c-4.61-0.65-9.29-1.05-14.01-1.35v0.15c0,15.88-14.17,28.71-31.58,28.71c-17.48,0-31.59-12.83-31.59-28.71v-1.14
					c-4.56,0.25-9.23,0.6-13.95,1.05C237.26,478.28,237.2,479.52,237.2,480.77z"/>
			</g>
			<g>
				<g>
					<path fill="#734339" d="M384.91,76.21c0,0,22.55-100.19-54.36-82c-85.38,20.2-76.77,178.21-76.77,178.21
						s57.88-129.24,86.53-138.87C368.97,23.92,384.91,76.21,384.91,76.21z"/>
					<path fill="#734339" d="M370.16,68.98c0,0,25.07-99.49-17.47-71.75c-47.21,30.8-63.71,181.82-63.71,181.82
						s47.36-132.17,63.58-145.24c5.61-4.52,3.68,12.19,6.3,17.79C363.81,62.22,370.16,68.98,370.16,68.98z"/>
					<path fill="#734339" d="M371.34,84.88c0,0,12.54-101.93,78.81-58.89c73.59,47.79,12.24,193.65,12.24,193.65
						s-10.94-141.19-34.68-159.9C403.98,41.03,371.34,84.88,371.34,84.88z"/>
					<path fill="#734339" d="M366.42,69.48c0,0,14.04-101.67,55.16-59.02c45.65,47.34-2.98,193-2.98,193s0.84-140.71-13.69-159.26
						c-6.47-8.26-14.63,10.55-21.88,17.64C373.96,70.68,366.42,69.48,366.42,69.48z"/>
					<path fill="#734339" d="M370.92,55.83c0,0,48.56-55.51,14.15-65.22C351.39-18.89,357.27,42.08,370.92,55.83z"/>
				</g>
				<path fill="#F47A4E" d="M160.93,258.65c-1.81-0.45-21.32-18.15-38.57,2.72c-17.25,20.88,1.36,73.53,14.97,78.97
					c13.62,5.45,24.96,1.36,26.33-2.27C165.02,334.44,160.93,258.65,160.93,258.65z"/>
				<path fill="#F8A184" d="M195.1,105.84c50.08-45.98,124.65-45.98,174.73,0c48.2,44.24,57.9,112.83,56.36,167.68
					c1.55,50.17-13.41,111.16-61.6,151.64c-50.08,42.06-119.42,43.83-169.5,1.77c-48.2-40.47-57.9-103.24-56.35-153.41
					C137.2,218.67,146.91,150.08,195.1,105.84z"/>
				<path fill="#F47A4E" d="M228.84,309.55H198.4C198.4,309.55,210.63,336.9,228.84,309.55z"/>
				<path fill="#834A4C" d="M181.61,220.21l-1.18,14.8c0,0-14.9-3.96-36.11,2.85l-0.74-9.38
					C143.57,228.49,166.19,216.72,181.61,220.21z"/>
				<path fill="#834A4C" d="M286.81,220.21l1.18,14.8c0,0,14.9-3.96,36.11,2.85l0.74-9.38
					C324.85,228.49,302.24,216.72,286.81,220.21z"/>
				<g>
					<path fill="#68423E" d="M229.98,402.62c30.05,0.23,51.13-28.43,48.98-35.17c-0.97-3.72-6.77-2.17-15.59,0.28
						c-8.76,2.4-20.52,5.66-33.38,5.43c-14.77,0.28-28-4.06-37.02-6.42c-6.75-1.79-11.11-2.5-11.95,0.71
						C178.85,374.18,199.94,402.85,229.98,402.62z"/>
					<path fill="#FFFCFD" d="M192.96,366.73l3.04,18.3c30.17,15.75,65.98-0.68,65.98-0.68l1.38-16.63
						c-8.76,2.4-20.52,5.66-33.38,5.43C215.22,373.43,201.98,369.09,192.96,366.73z"/>
				</g>
				<path fill="#68423E" d="M306.45,255.4c7.92,0,14.33,6.41,14.33,14.32v18.97c0,7.91-6.41,14.32-14.33,14.32l0,0
					c-7.91,0-14.32-6.41-14.32-14.32v-18.97C292.12,261.81,298.54,255.4,306.45,255.4z"/>
				<path fill="#68423E" d="M158.43,255.4c7.91,0,14.32,6.41,14.32,14.32v18.97c0,7.91-6.41,14.32-14.32,14.32
					c-7.92,0-14.33-6.41-14.33-14.32v-18.97C144.1,261.81,150.51,255.4,158.43,255.4z"/>
				<path fill="#734339" d="M302.41,56.27c-10.11,18.46,9.12,48.44,42.95,66.96c33.83,18.52,69.44,18.57,79.54,0.1
					c10.11-18.46-9.11-48.44-42.94-66.96C348.14,37.86,312.52,37.82,302.41,56.27z"/>
				<path fill="#884E44" d="M425.52,284.12c0,0,47.04-134.47-81.41-200.63S107.63,189.55,138.76,273.52c0,0-8.31-88.35,45.77-113.05
					C239.72,135.26,404.39,235.32,425.52,284.12z"/>
				<path fill="#884E44" d="M263.37,139.86c0,0,88.69,58.35,162.18,65.49c0,0-24.47-140.33-147.22-136.14
					C147.9,73.66,137.8,217.34,137.8,217.34S206.46,209.72,263.37,139.86z"/>
				<path fill="#F47A4E" d="M399.59,276.83c-0.1-9.68,5.71-18.48,14.7-22.04c8.56-3.39,19.35-4.25,28.3,6.58
					c17.25,20.88-1.36,73.53-14.98,78.97c-13.62,5.45-20.52-0.09-23.42-2.66C399.38,333.42,399.79,297.58,399.59,276.83z"/>
			</g>
		</g>
	</g>
</g>
</svg>
