<?xml version="1.0" encoding="utf-8"?>
<!-- Generator: Adobe Illustrator 25.2.3, SVG Export Plug-In . SVG Version: 6.00 Build 0)  -->
<svg version="1.1" id="Layer_1" xmlns="http://www.w3.org/2000/svg" xmlns:xlink="http://www.w3.org/1999/xlink" x="0px" y="0px"
	 viewBox="0 0 576 576" enable-background="new 0 0 576 576" xml:space="preserve">
<g>
	<g>
		<defs>
			<circle id="SVGID_1_" cx="288" cy="288" r="288"/>
		</defs>
		<use xlink:href="#SVGID_1_"  overflow="visible" fill="#F9E3D9"/>
		<clipPath id="SVGID_2_">
			<use xlink:href="#SVGID_1_"  overflow="visible"/>
		</clipPath>
		<g clip-path="url(#SVGID_2_)">
			<path fill="#993B21" d="M427.92,271.31c0,0-17.72,125.08,45.07,290.16c42.54,111.85-40.51,39.49-40.51,39.49l-245.09-34.44
				c0,0-5.07-245.09-20.26-302.81C151.94,205.99,427.92,271.31,427.92,271.31z"/>
			<path fill="#C82127" d="M419.44,768.3h-28.06c0-7.53,0.02-15.84,7.71-37.69c15.39-43.85,5.9-110.17,5.9-110.17
				s20.26,5.58,45.35,12.68c-6.18,56.47-18.76,111.99-25.19,123.54C423.59,759.43,421.61,763.43,419.44,768.3z"/>
			<path fill="#EE313C" d="M127.57,768.3c-8.75-31.75-15.66-62.22-16.42-87.08c3.2,29.14,12.24,55.43,37.25,64.33
				c31.14,11.09,119.67-10.15,179.74,22.75H127.57z"/>
			<path fill="#F68E5A" d="M259.58,544.16c51.98,18.63,105.95-47.7,124.97-74.22c-17.65-12.82-26.25-23.39-26.43-23.63v-0.03
				c-3.07-4.99-5.02-13.37-6.08-23.85c-18.02,7.75-50.1,16.68-102.7,17.28c-1.07,2.22-1.92,3.92-2.49,5.05
				c-1.55,2.7-3.22,3.59-4.44,5.16c-5.92,7.6-18.69,10.54-32.11,20.41C209.57,493.02,215.22,528.27,259.58,544.16z"/>
			<path fill="#F4783A" d="M352.04,422.42c-4.86-47.22,7.35-136.51,7.35-142.89c0,0-95.74,19.54-87.26,60.58
				c6.84,33.18-14.43,82.09-22.78,99.59C301.94,439.1,334.02,430.17,352.04,422.42z"/>
			<path fill="#F8A479" d="M126.3,594.31L60.56,768.3H24.55c0.97-3.51,2.01-6.79,3.23-9.51l82.4-177.17l81.03,22.73l-1.08,2.14
				L126.3,594.31z"/>
			<polygon fill="#F38F73" points="60.56,768.3 126.3,594.31 205.11,604.34 114.33,768.3 			"/>
			<path fill="#C82127" d="M75.98,623.26c0,0,37.07,30.55,56.75,34.79c24.79-51.74,84.51-134.84,71.9-166.31
				c-1.19-2.96-8.72-5.46-6.51-7.98c-5.49,1.55-11.79,2.34-17.83,4.8C118.77,513.62,91.54,592.69,75.98,623.26z"/>
			<path fill="#0CB3C1" d="M423.96,554.09l-2.73,70.83c7.85,2.24,18.02,5.09,29.1,8.21c4.05-37.27,5.33-74.98,0.14-100.68
				L423.96,554.09z"/>
			<path fill="#C82127" d="M450.53,528l-25.71,20.23l-2.64,66.14c-9.65-2.56-15.73-4.2-15.73-4.2s9.19,61.93-5.72,102.88
				c-13.13,35.9-3.23,32.66-10.72,55.24h-67.1c-57.81-22.33-139.7-5.93-177.6-9.69c-1.09-0.79-10.16-0.05-11.55-0.89
				c-53.16-32.03-39.54-87.93-39.54-87.93c33.12,6.51,177.75,30.99,243.89-3.76c62.1-32.61,28.27-127.54,14.01-160.85
				c14.26-13.41,25.65-27.65,32.47-36.77c11.37,7.96,47.08,24.56,64.94,35C456.96,507.77,447.72,514.42,450.53,528z"/>
			<path fill="#F8A479" d="M149.86,222.73c14.49,70.09,24.39,82.76,20.93,107.83c-3.56,25.67,85.74,104.33,118.25,93.79
				c9.66-3.13,58.94-30.42,91.64-72.1c0.12-5.65,0.03-12.13-0.27-19.48c-2.04-46.61-54.73-69.06-73.44-100.78
				c-18.72-31.72-17.62-81.12-17.62-81.12l53.65-4.53c-36.16-34.67-84.37-50.41-144.65-12.95
				C195.34,135.29,136.03,156.01,149.86,222.73z"/>
			<path fill="#F2885A" d="M238.93,255.83c-1.85-0.43,4.24,42.43-14.83,60.7c-23.74,22.75,29.88,22.6,40.07,5.14
				c10.2-17.46-5.8-16.24-9.09-12.56C251.78,312.79,246.04,257.49,238.93,255.83z"/>
			<g>
				<path fill="#EF435C" d="M296.98,351.93c0,0-38.07,0.68-53.86,8.04c-12.79,5.97,1.36,17.97,1.36,17.97s24.61-2.26,31.28-9.76
					C282.45,360.7,296.98,351.93,296.98,351.93z"/>
				<path fill="#C42126" d="M244.5,377.93c0,0,0.25,0.12,0.68,0.26c3.88,1.27,24.39,5.19,64.21-34.56c0.95-0.92,1.92-1.86,2.84-2.82
					c0,0-1.76,1.39-4.77,3.6c-11.78,8.63-42.57,30.07-62.13,33.34l-0.01,0.03C245.05,377.87,244.78,377.9,244.5,377.93z"/>
				<path fill="#EF435C" d="M254.65,391.61c27.08,1.66,52.24-43.34,54.74-47.97c-39.82,39.75-60.32,35.83-64.21,34.56
					C239.8,390.99,254.65,391.61,254.65,391.61z"/>
			</g>
			<path fill="#3A160F" d="M159.45,259.46c-0.64,1.07,2.53-17.81,11.21-22.99c8.67-5.18,28.28-15.18,31.15-13.64
				s9.72,8.55,10.52,13.03c0,0-11.29-2.87-15.78-0.58C192.05,237.57,167.79,245.44,159.45,259.46z"/>
			<g>
				<path fill="#F68E5A" d="M229.57,290.33c0,0-6.64-31.95-28.62-32c-28.95-0.06-36.19,25.32-36.17,40.46L229.57,290.33z"/>
				<path fill="#4B2524" d="M164.78,298.79c0,0,6.18-27.31,32.97-28.75c26.78-1.44,31.82,20.28,31.82,20.28l-58.2,10.62
					L164.78,298.79z"/>
				<path fill="#FFFFFF" d="M171.37,300.94c0,0,3.36,2.08,8.94,3.7c2.73,0.8,6.03,1.48,9.7,1.75c5.26,0.38,11.35-0.08,17.86-2.27
					c2.83-0.92,5.72-2.21,8.69-3.87c4.25-2.4,8.63-5.64,13-9.91c0,0-17.96-22.49-39.51-12.77c-14.36,6.48-17.73,15.66-18.49,20.35
					C171.26,299.78,171.37,300.94,171.37,300.94z"/>
				<g>
					<path fill="#6B2613" d="M178.92,296.94c-0.05,0.86-0.01,1.73,0.11,2.58c0.18,1.75,0.6,3.46,1.28,5.1
						c2.73,0.8,6.03,1.48,9.7,1.75c5.26,0.38,11.35-0.08,17.86-2.27c2.83-0.92,5.72-2.21,8.69-3.87c0.17-2.51-0.23-5.01-1.07-7.35
						c-0.07-0.23-0.17-0.45-0.27-0.69c-2.11-5.28-6.57-9.68-12.47-11.55c-10.03-3.2-20.42,2.14-23.17,11.96
						C179.18,294.05,178.95,295.51,178.92,296.94z"/>
					<path fill="#3D2015" d="M186.34,297.09c-0.03,0.38-0.05,0.74-0.03,1.12c0.06,2.15,0.74,4.23,1.94,6.03
						c0.49,0.77,1.08,1.49,1.77,2.13c5.26,0.38,11.35-0.08,17.86-2.27c0.39-0.68,0.69-1.42,0.92-2.21c0.74-2.62,0.47-5.3-0.6-7.68
						c-0.16-0.36-0.31-0.69-0.52-1.03c-1.45-2.57-3.84-4.62-6.88-5.59c-6.1-1.95-12.41,1.31-14.07,7.27
						c-0.09,0.36-0.18,0.71-0.25,1.07C186.39,296.33,186.36,296.71,186.34,297.09z"/>
					<path fill="#FEF7F7" d="M182.46,299.73c-0.57,2.01,0.64,4.18,2.7,4.84c2.06,0.66,4.2-0.45,4.76-2.46
						c0.57-2.02-0.64-4.18-2.7-4.84C185.15,296.62,183.02,297.72,182.46,299.73z"/>
				</g>
			</g>
			<path fill="#5C140B" d="M518.42,637.16c0,0-25.31,28.62-102.17,40.42C416.25,677.59,477.6,629.97,518.42,637.16z"/>
			<path fill="#F68E5A" d="M306.97,232c18.71,31.72,71.4,54.17,73.44,100.78c0.3,7.35,0.4,13.83,0.27,19.48
				c24.91-31.69,40.2-71.77,21.15-115.89c-13.52-31.35-33.12-65.44-58.82-90.02l-53.65,4.53C289.35,150.87,288.25,200.27,306.97,232
				z"/>
			<g>
				<path fill="#F68E5A" d="M355.03,253.75c0,0-21.99-33.92-59.63-25.19c-37.63,8.74-21.28,52.67-21.28,52.67L355.03,253.75z"/>
				<path fill="#4B2524" d="M355.03,253.75l-6.31,6.31l-74.6,21.18c0,0-1.94-35.36,27.64-41.74
					C331.33,233.11,355.03,253.75,355.03,253.75z"/>
				<path fill="#FFFFFF" d="M274.13,281.24c0,0,5.27,2.49,13.38,4.16c3.72,0.75,8.01,1.32,12.66,1.4
					c5.11,0.08,10.66-0.44,16.31-2.01c4.03-1.1,8.09-2.76,12.1-5.07c7.14-4.13,14.04-10.38,20.13-19.65c0,0-1.39-1.19-3.79-2.88
					c-7.85-5.51-26.53-16.41-43.38-9.3C279.58,257.15,274.13,281.24,274.13,281.24z"/>
				<g>
					<path fill="#6B2613" d="M285.15,277.48v0.03c0.02,0.19,0.04,0.36,0.08,0.59c0.31,2.54,1.08,5.03,2.27,7.3
						c3.72,0.75,8.01,1.32,12.66,1.4c5.11,0.08,10.66-0.44,16.31-2.01c4.03-1.1,8.09-2.76,12.1-5.07c0.98-4.65,0.36-9.36-1.53-13.5
						c-0.41-0.85-0.84-1.68-1.37-2.5c-2.34-3.83-5.91-6.96-10.39-8.78c-11.25-4.57-24.08,0.88-28.66,12.13
						C285.27,270.47,284.8,274.04,285.15,277.48z"/>
					<path fill="#3D2015" d="M293.92,272.89c-0.13,0.56-0.19,1.12-0.22,1.7c-0.03,0.35-0.03,0.71-0.01,1.08v0.03
						c0.05,2,0.56,3.95,1.49,5.72c1.08,2.17,2.81,4.06,5,5.38c5.11,0.08,10.66-0.44,16.31-2.01c1.23-1.21,2.24-2.71,2.94-4.44
						c1.6-3.98,1.16-8.3-0.84-11.74c-0.4-0.71-0.88-1.38-1.42-1.99c-1.33-1.58-3.05-2.86-5.1-3.69c-6.85-2.76-14.63,0.53-17.41,7.37
						C294.31,271.15,294.06,272.02,293.92,272.89z"/>
					<path fill="#FEF7F7" d="M289.03,275.66c-0.94,2.31,0.18,4.94,2.49,5.88c2.31,0.94,4.95-0.18,5.88-2.49
						c0.94-2.32-0.18-4.95-2.49-5.88C292.6,272.23,289.96,273.35,289.03,275.66z"/>
				</g>
			</g>
			<path fill="#C82127" d="M215.6,465.41c0,0-5.2,12.63-6.18,17.7c-2.47,12.72-29.12,5.44-29.12,5.44S215.56,468.11,215.6,465.41z"
				/>
			<path fill="#F38F73" d="M517.72,768.3c-18.41-63.85-54.04-171.23-70.83-221.19c0-0.06,0-0.06,0-0.06
				c16.07-3.8,27.62-4.5,27.62-4.5s46.6,137.24,73.29,225.75H517.72z"/>
			<path fill="#F8A479" d="M452.61,768.3l-64.28-194.94c18.87-14.43,41.32-22.18,58.55-26.25c16.79,49.96,52.42,157.34,70.83,221.19
				H452.61z"/>
			<path fill="#C82127" d="M518.42,637.16c0,0-65.45,9.03-102.17,40.42c0,0-62.19-115.8-20.73-159.04S489.4,512.77,518.42,637.16z"
				/>
			<path fill="#993B21" d="M154.99,246.49c-1.58-28.5,9.12-61.77,9.12-61.77c1.03-22.79,21.27-42.02,28.35-46.09
				c7.07-4.04-1.01-24.3-1.01-24.3c74.44-73.4,129.62-32.39,129.62-32.39c-53.57,46.27-43.94,85.5-34.33,103.82
				c7.77-2.25,15.22-5.13,22.06-8.87c1.7-0.94,3.4-1.7,5.13-2.31c5.77-8.38,46.15-64.93,81.34-53.65c0,0,33.18,63.56,22.54,109.9
				c-2.8,12.12-8.36,13.09-15.83,8.17c13.57,21.39,22.18,39.68,22.18,39.68C490.54,9.99,232.96,35.84,190.93,90.54
				c-12.15,15.81-13.16,23.29-14.18,37.98c-5.62,2.53-15.23,5.85-23.8,14.68C110.26,187.16,154.99,246.49,154.99,246.49z"/>
			<path fill="#3A160F" d="M339.72,215.4c1.61,0.55-16.26-13.49-31.06-13.02c-14.8,0.48-47,2.97-49.52,5.85
				c-2.51,2.88-6.05,12.54-3.77,16.72c0,0,12.21-8.66,19.58-9.23C282.32,215.16,318.88,208.3,339.72,215.4z"/>
			<path fill="#782E17" d="M313.92,174.57c32.24-11.57,66.45,30.36,88.06,64.42c7.47,4.92,13.03,3.95,15.83-8.17
				c10.63-46.34-22.54-109.9-22.54-109.9C360.07,109.65,319.69,166.19,313.92,174.57z"/>
			<g>
				<path fill="#F57F42" d="M390.55,275.85c-5.53-20.06,0.05-41.67,15.47-58.17c10.2-9.91,23.71-16.74,35.7-7.47
					c19.25,15.5,13.37,66.38-14.17,87.61c-9.89,8.44-23.05,6.36-29.37-4.18C395.37,289.07,392.54,283.17,390.55,275.85z"/>
				<path fill="#E96B42" d="M440.12,236.41c0,0,2.2,10.03-2.8,6.74c-4.99-3.29-20.48-12.5-18.17-0.62
					c2.31,11.88,14.65,19.63,6.11,28.4c-8.55,8.77-9.24,7.22-12.09,4.06c0,0,9.51-4.06,8.5-9.85c-1.01-5.79,1.18-10.42,0.66-10.38
					c-0.53,0.05-8.2-4.84-8.2-4.84l-3.22-11.18l3.35-7.94l16.45-4.88C430.69,225.92,438.79,229.72,440.12,236.41z"/>
				<path fill="#C84830" d="M422.96,225.29c0,0,17.85-0.28,14.58,12.07c-3.27,12.35,3.34-8.79-10.53-6.69
					c-13.88,2.1-13.19,0.19-14.37,7.25c-1.18,7.07,2.25,10.14,10.53,15.02c8.29,4.86-7.22,26.58-10.68,22.58
					c-3.74-4.33,14.35-14.54,8.09-19.11c-6.27-4.57-15.2-12.76-12.8-19.46C410.19,230.25,419.23,225.45,422.96,225.29z"/>
			</g>
			<path fill="#A73F24" d="M164.1,184.73c0,0,69.27,16.37,122.63,1.03c-9.61-18.32-19.24-57.55,34.33-103.82
				c0,0-55.18-41.01-129.62,32.39c0,0,8.08,20.26,1.01,24.3C185.38,142.7,165.14,161.94,164.1,184.73z"/>
			<path fill="#782E17" d="M343,146.35c-3.2,0.4-57.12,25.47-123.21,26.99s28.74,15.4,94.12,1.24
				C379.31,160.42,343,146.35,343,146.35z"/>
			<path fill="#EE313C" d="M95.6,670.42c33.09,6.54,176.36,30.37,242.5-4.4c62.1-32.62,28.27-127.53,14.01-160.85
				c-24.34,22.91-56.86,43.48-88.65,32.54c-23.09-8-35.38-22.12-41.71-36.79c-3.44-7.92-5.1-15.99-5.78-23.32
				c-0.41-4.4-0.49-8.5-0.36-12.19c0,0,0,0-0.03,0c-0.08,0.03-28.8,65.18-40.59,100.97c-9.54,28.96-65.49,75.52-71.62,85.32
				c-3.9,6.22-6.42,8.88-9.14,18.11L95.6,670.42z"/>
			<path fill="#C82127" d="M326.96,536.32c0,0-58.64,50.2-106.62,1.33C220.34,537.65,256.32,611.39,326.96,536.32z"/>
			<path fill="#C82127" d="M403.84,768.3h-66.92c2.72-9.79,34.36-14.16,34.36-14.16l30.9-76.11l11.13,2.05c0,0,4.09,44.3,3.4,45.43
				C416.45,725.96,410.69,745.21,403.84,768.3z"/>
		</g>
	</g>
</g>
</svg>
