<?xml version="1.0" encoding="utf-8"?>
<!-- Generator: Adobe Illustrator 25.2.3, SVG Export Plug-In . SVG Version: 6.00 Build 0)  -->
<svg version="1.1" id="Layer_1" xmlns="http://www.w3.org/2000/svg" xmlns:xlink="http://www.w3.org/1999/xlink" x="0px" y="0px"
	 viewBox="0 0 576 576" enable-background="new 0 0 576 576" xml:space="preserve">
<g>
	<g>
		<defs>
			<path id="SVGID_1_" d="M576.16,288c0,159.05-128.94,288-288,288c-159.06,0-288-128.94-288-288c0-159.06,128.94-288,288-288
				C447.21,0,576.16,128.94,576.16,288z"/>
		</defs>
		<use xlink:href="#SVGID_1_"  overflow="visible" fill="#F9E3D9"/>
		<clipPath id="SVGID_2_">
			<use xlink:href="#SVGID_1_"  overflow="visible"/>
		</clipPath>
		<g clip-path="url(#SVGID_2_)">
			<g>
				<path fill="#CCCCCE" d="M206.62,395.15h213.41l0,0c0-6.13-4.98-11.11-11.11-11.11h-191.2
					C211.59,384.04,206.62,389.02,206.62,395.15L206.62,395.15z"/>
				<rect x="420.03" y="395.15" fill="#B0B0AF" width="21.69" height="56.86"/>
				<rect x="372.89" y="395.15" fill="#CECECD" width="47.14" height="56.86"/>
				
					<rect x="365.61" y="392.39" transform="matrix(-1 -1.224647e-16 1.224647e-16 -1 814.6121 803.3669)" fill="#616067" width="83.39" height="18.59"/>
				<g>
					<path fill="#C04629" d="M463.11,523.72v256.93h33.24V523.72c0-43.96-32.48-79.7-72.42-79.7c-5.74,0-11.3,0.73-16.62,2.14
						C439.26,454.42,463.11,486.04,463.11,523.72z"/>
					<path fill="#E55F36" d="M463.11,780.65V523.72c0-37.68-23.84-69.3-55.8-77.56c-31.96,8.26-55.8,39.87-55.8,77.56v256.93H463.11
						z"/>
					<path fill="#D64D2E" d="M425.11,523.72v256.93h38V523.72c0-37.68-23.84-69.3-55.8-77.56c-5.31-1.42-10.87-2.14-16.62-2.14
						c-6.61,0-12.96,0.99-18.99,2.82C402.46,455.99,425.11,486.98,425.11,523.72z"/>
					<path fill="#E55F36" d="M425.11,780.65V523.72c0-36.74-22.65-67.74-53.42-76.88c-30.78,9.14-53.43,40.14-53.43,76.88v256.93
						H425.11z"/>
				</g>
				<path fill="#616067" d="M355.38,439.18h103.85c2.51,0,4.55,1.97,4.55,4.39v9.52c0,2.42-2.05,4.38-4.55,4.38H355.38
					c-2.51,0-4.56-1.97-4.56-4.38v-9.52C350.82,441.16,352.87,439.18,355.38,439.18z"/>
				<rect x="230.19" y="395.15" fill="#B0B0AF" width="21.69" height="56.86"/>
				<rect x="183.05" y="395.15" fill="#CECECD" width="47.13" height="56.86"/>
				
					<rect x="175.77" y="392.39" transform="matrix(-1 -1.224647e-16 1.224647e-16 -1 434.9269 803.3669)" fill="#616067" width="83.39" height="18.59"/>
				<g>
					<path fill="#C04629" d="M273.27,523.72v256.93h33.24V523.72c0-43.96-32.48-79.7-72.42-79.7c-5.75,0-11.31,0.73-16.62,2.14
						C249.42,454.42,273.27,486.04,273.27,523.72z"/>
					<path fill="#E55F36" d="M273.27,780.65V523.72c0-37.68-23.84-69.3-55.8-77.56c-31.96,8.26-55.8,39.87-55.8,77.56v256.93H273.27
						z"/>
					<path fill="#D64D2E" d="M235.27,523.72v256.93h38V523.72c0-37.68-23.84-69.3-55.8-77.56c-5.33-1.42-10.88-2.14-16.63-2.14
						c-6.6,0-12.96,0.99-19,2.82C212.62,455.99,235.27,486.98,235.27,523.72z"/>
					<path fill="#E55F36" d="M235.27,780.65V523.72c0-36.74-22.65-67.74-53.43-76.88c-30.77,9.14-53.42,40.14-53.42,76.88v256.93
						H235.27z"/>
				</g>
				<path fill="#616067" d="M165.54,439.18h103.85c2.51,0,4.55,1.97,4.55,4.39v9.52c0,2.42-2.05,4.38-4.55,4.38H165.54
					c-2.51,0-4.55-1.97-4.55-4.38v-9.52C160.99,441.16,163.03,439.18,165.54,439.18z"/>
				<path fill="#9E9FA1" d="M155.26,662.05h311.81c21.74,0,39.36-17.62,39.36-39.36l0,0c0-21.74-17.62-39.37-39.36-39.37H155.26
					c-21.74,0-39.36,17.63-39.36,39.37l0,0C115.9,644.43,133.52,662.05,155.26,662.05z"/>
			</g>
			
				<rect x="255.48" y="385.99" transform="matrix(-1 -1.224647e-16 1.224647e-16 -1 592.4869 884.5466)" fill="#F8A184" width="81.52" height="112.58"/>
			<path fill="#2C64B0" d="M89.57,780.65h39.25c0.99-2.03,1.99-4.07,2.94-6.11c3.82-7.92,7.36-15.79,10.67-23.52
				c64.1-149.9,42.34-260.95,40.9-268.78c-0.09-0.28-0.14-0.47-0.14-0.47l-20.13,17.42c-13.97,10.76-25.99,23.9-35.22,38.95
				c-0.09,0.14-0.19,0.27-0.23,0.42c-9.08,14.86-16.63,29.91-22.78,44.86c-10.94,26.27-17.84,52.22-22.03,76.11
				c-11.61,66.38-2.66,117.25-2.66,117.25L89.57,780.65z"/>
			<path fill="#FFCE04" d="M84.57,659.53c22.45,27.21,44.44,65.68,48.96,115.01c0.09,0.56,0.14,1.12,0.19,1.68
				c3.4-7.4,6.98-15.83,10.48-25.2c4.42-11.55,8.71-24.41,12.48-38.48c-2.09-36.1-12.67-86.51-50.07-129.13
				C95.66,609.69,88.76,635.64,84.57,659.53z"/>
			<path fill="#2C64B0" d="M255.48,439.57v45H337v-44.54c-11.51,1.12-24.6,1.77-38.52,1.77
				C282.73,441.81,267.97,440.96,255.48,439.57z"/>
			<path fill="#2C64B0" d="M131.6,780.65c0.28-1.68,0.58-3.3,0.84-5l-51.34-5.98c0,0-1.66,4.05-4.41,10.98H131.6z"/>
			<path fill="#2C64B0" d="M160.03,780.65h253.91c12.59-95.95,22.77-200.28,18.94-257.81c-2.38-35.72-44.54-56.36-78.41-67.93
				c-74.1-25.32-171.58,16.3-194.87,48.91c-65.35,91.49-26.4,198.76-3.1,263.97C157.9,771.74,159.07,776.06,160.03,780.65z"/>
			<path fill="#2C64B0" d="M490,780.65c31.94-192.15-60.57-275.53-65.07-282.52c-0.2-0.25-0.28-0.4-0.28-0.4l-13.68,21.55
				c-8.82,15.28-14.95,31.99-17.8,49.41c-0.03,0.16-0.05,0.32-0.08,0.47c-14.8,91.78,13.74,171.65,32.28,211.48H490z"/>
			<path fill="#FFCE04" d="M428.7,780.65c6.56-51.77,42.3-91.84,66.09-118.6c-2.47-36.03-13.85-66.4-21.68-87.5
				c-42.71,44.02-67.08,111.94-69.27,150.05c6.14,22.8,14.12,39.9,21.6,56.06H428.7z"/>
			<path fill="#FFCE04" d="M414.94,780.65c2.38-10.53,5.06-20.46,8.1-29.51c-16.25,2.08-43.51,8.5-67.48,29.51H414.94z"/>
			<path fill="#CCCCCE" d="M181.98,617.94c-8.22,19.06-17.2,90.3-24.57,162.71h29.31c8.29-68.54,18-119.88,20.15-130.88
				c0.25-1.29,1.37-2.19,2.68-2.18l61.2,0.29c1.42,0,2.59,1.07,2.69,2.49c2.65,37.85,8.84,84.73,15.89,130.29h33.05
				c-9.62-80.61-15.13-155.3-15.65-162.37c-0.02-0.38,0.03-0.74,0.16-1.1c28.42-81.04,71.63-132.9,82.53-145.17
				c1.24-1.4,0.72-3.59-1-4.3l-41.07-17.08c-0.97-0.4-2.08-0.25-2.86,0.44c-30.86,27.55-65.09,129.55-69.95,144.41
				c-0.36,1.11-1.38,1.83-2.53,1.84l-48.75,0.72c-1.03,0.01-1.99-0.51-2.47-1.42c-13.14-25.47-12-91.85-10.86-119.93
				c0.22-5.35-5.7-8.68-10.16-5.74l-29.55,19.41c-1.62,1.07-2.72,2.77-2.93,4.7c-4.16,39.22,12.8,112.6,14.85,121.25
				C182.27,616.89,182.22,617.4,181.98,617.94z"/>
			<g>
				<path fill="#858494" d="M222.95,399.36c-2.19,9.89,1.81,18.6-2.42,28.64c-4.49,10.65-14.11,18.87-22.29,25.58
					c-19.28,15.82-54.69,19.97-62.59,47.41c-4.44,15.4-6.55,29.82,10.21,34.68c16.54,4.78,30.6-5.53,44.53-13.74
					c21.74-12.81,44.63-19.95,68.96-22.76c15.04-1.74,14.93,24.87,0,26.6c-20.09,2.32-39.16,8.59-57.1,19.13
					c-12.41,7.29-23.76,15.27-37.9,17.54c-19.84,3.2-51.06-3.43-55.35-29.9c-3.81-23.49,5.46-56.4,22.56-70.94
					c11.19-9.52,25.51-12.16,37.86-19.14c7.94-4.49,19.76-10.93,24.81-19.34c5.58-9.31,3.81-20.62,6.06-30.82
					C203.97,375.7,226.64,382.73,222.95,399.36L222.95,399.36z"/>
			</g>
			<polygon fill="#444D74" points="241.03,477.59 261.99,477.65 296.24,513.06 299.21,548.97 287.37,568.55 261.99,582.66 
				241.03,582.7 			"/>
			<g>
				<path fill="#858494" d="M404.04,401.08c-21.66,44.38,39.96,49.89,59.49,74.78c16.33,20.8,18,49.84,1.97,71.37
					c-16.94,22.74-46.67,25.4-72.26,18.08c-14.57-4.16-28.24-11.39-41.15-19.17c-21.08-12.72-37.22-14.65-61.38-12.09
					c-17.87,1.88-17.74-26.08,0-27.95c31.52-3.33,51.62,1.61,78.43,17.7c14.45,8.67,31.52,17.39,48.85,17.52
					c20.68,0.15,36.63-18.05,29.22-38.55c-9.71-26.84-47.69-26.71-63.64-49.54c-14.06-20.13-14.19-44.68-3.66-66.24
					C387.79,370.81,411.9,384.96,404.04,401.08L404.04,401.08z"/>
			</g>
			<path fill="#444D74" d="M259.67,477.59c29.84,0,54.03,30.73,54.03,59.05c0,28.31-24.19,46.07-54.03,46.07
				c-29.84,0-54.03-17.76-54.03-46.07C205.64,508.32,229.82,477.59,259.67,477.59z"/>
			<g>
				<path fill="#2E344D" d="M187,536.63c0,28.31,24.19,46.07,54.03,46.07c29.84,0,54.03-17.76,54.03-46.07
					c0-28.31-24.19-59.05-54.03-59.05C211.19,477.59,187,508.32,187,536.63z"/>
				<path fill="#444D74" d="M201.56,534.89c0,20.69,17.67,33.66,39.48,33.66s39.48-12.98,39.48-33.66
					c0-20.69-17.67-43.14-39.48-43.14S201.56,514.2,201.56,534.89z"/>
			</g>
			<polygon fill="#2E344D" points="164.12,220.22 143.16,226.58 131.9,240.9 138.99,295.67 146.66,322.78 159.07,332.17 
				177.9,330.23 			"/>
			<path fill="#4D2721" d="M202.34,151.86c0,0-32.51,71.92-31.51,117.47l-8,2.48c0,0-31.25-102.48,29.49-137.42s2.95,0,2.95,0
				L202.34,151.86z"/>
			<path fill="#F8A184" d="M218.79,109.35c45.32-41.61,112.8-41.61,158.12,0c43.61,40.03,52.39,102.1,50.99,151.73
				c1.4,45.41-12.13,100.6-55.74,137.22c-45.31,38.07-108.06,39.68-153.38,1.61c-43.61-36.63-52.39-93.42-51-138.83
				C166.39,211.45,175.18,149.38,218.79,109.35z"/>
			<path fill="#F47A4E" d="M249.32,293.69h-27.54C221.78,293.69,232.84,318.44,249.32,293.69z"/>
			<path fill="#68423E" d="M319.55,287.77L319.55,287.77c7.16,0,12.96-5.8,12.96-12.96v-17.17c0-7.16-5.8-12.96-12.96-12.96l0,0
				c-7.16,0-12.96,5.81-12.96,12.96v17.17C306.59,281.97,312.39,287.77,319.55,287.77z"/>
			<path fill="#68423E" d="M185.6,287.77L185.6,287.77c7.16,0,12.96-5.8,12.96-12.96v-17.17c0-7.16-5.8-12.96-12.96-12.96l0,0
				c-7.16,0-12.96,5.81-12.96,12.96v17.17C172.64,281.97,178.44,287.77,185.6,287.77z"/>
			<path fill="#834A4C" d="M206.58,212.85l-1.07,13.39c0,0-13.48-3.59-32.68,2.58l-0.67-8.49
				C172.16,220.33,192.63,209.68,206.58,212.85z"/>
			<path fill="#834A4C" d="M301.78,212.85l1.07,13.39c0,0,13.48-3.59,32.68,2.58l0.67-8.49
				C336.2,220.33,315.73,209.68,301.78,212.85z"/>
			<g>
				<path fill="#68423E" d="M250.35,377.91c27.19,0.21,46.27-25.73,44.32-31.83c-0.88-3.37-6.14-1.96-14.11,0.26
					c-7.93,2.18-18.56,5.12-30.21,4.9c-13.36,0.26-25.34-3.67-33.51-5.8c-6.11-1.62-10.05-2.26-10.81,0.64
					C204.08,352.18,223.17,378.12,250.35,377.91z"/>
				<path fill="#FFFCFD" d="M216.85,345.44l2.75,16.56c27.3,14.25,59.71-0.61,59.71-0.61l1.25-15.05
					c-7.93,2.18-18.56,5.12-30.21,4.9C236.99,351.5,225.01,347.57,216.85,345.44z"/>
			</g>
			<path fill="#4D2721" d="M262.98,66.53c-30.82-1.65-108.89,70.2-114.04,111.38c0,0,32.99-40.49,81.58,1.3
				c0,0,119.75-32.18,154.95-19.98c20.68,7.16,40.99-32.1,4.2-55.4C363.83,87.46,320.46,69.61,262.98,66.53z"/>
			<path fill="#4D2721" d="M183.22,199.51c0.88-10.17,23.28-47.59,44.08-45.89c20.8,1.7-40.94-37.07-53.34,1.14
				C161.55,192.97,183.22,199.51,183.22,199.51z"/>
			<path fill="#4D2721" d="M392.75,151.86c0,0,32.51,71.92,31.51,117.47l8,2.48c0,0,31.25-102.48-29.49-137.42
				c-60.73-34.94-2.94,0-2.94,0L392.75,151.86z"/>
			<path fill="#4D2721" d="M388.77,151.86c0,0-22.8,89.05,3.97,135.91l22.91,5.92c0,0,27.87-22.39,12.38-81.43
				C412.56,153.21,388.77,151.86,388.77,151.86z"/>
			<g>
				<g>
					<path fill="#2E344D" d="M332.11,335.79l30.97-0.05c0.56,0,1.12,0.05,1.63,0.05c15.09-0.1,28.09-13.51,29.95-31.4l5.36-50.87
						c2.05-19.37-9.22-37.17-25.58-40.43c-14.58-2.98-36.89-5.96-66.7-5.82c-4.57,0.05-9.37,0.14-14.3,0.32
						c20.82,0.84,36.99,3.17,48.4,5.49c6.66,1.31,12.53,5.08,16.91,10.39c1.26,0.18,2.47,0.37,3.68,0.56
						c3.77,0.6,7.22,1.21,10.29,1.82c10.48,2.09,17.71,13.5,16.4,25.94l-5.31,50.87c-1.21,11.51-9.55,20.08-19.24,20.13
						c-0.32,0-0.65,0-1.03-0.05l-7.92-0.46C351.77,328.05,338.21,333.69,332.11,335.79z"/>
				</g>
			</g>
			<g>
				<g>
					<g enable-background="new    ">
						<g>
							<path opacity="0.3216" fill="#5690CC" d="M329.83,224.02l-44.91,94.5c2.1,1.1,4.37,1.77,6.73,1.91l39.3,2.32
								c0.34,0.02,0.69,0.03,1.03,0.03c9.7-0.05,18-8.63,19.21-20.13l5.33-50.84c1.31-12.46-5.9-23.87-16.41-25.95
								C337.03,225.24,333.61,224.61,329.83,224.02L329.83,224.02z M216.79,220.57c-27.54,0.34-48.13,3.36-61.71,6.24
								c-10.46,2.19-17.45,13.67-15.85,26.12l6.53,50.77c1.47,11.5,10,19.98,19.67,19.93c0.34-0.01,0.68-0.02,1.03-0.04l1.44-0.1
								L216.79,220.57L216.79,220.57z M275.3,220.24c-5.92,0.03-12.15,0.18-18.67,0.5l-47.25,99.42c5.56-1.75,10.23-6.47,12.61-13
								c3.19-8.65,6.54-15.83,9.99-21.26c3.82-6.14,9.73-9.64,16.18-9.68c1.2,0,2.39,0.12,3.55,0.34l26.74-56.32
								C277.4,220.24,276.36,220.24,275.3,220.24L275.3,220.24z"/>
							<path opacity="0.4902" fill="#A2CAEC" d="M278.44,220.24c21.27,0.05,38.41,1.74,51.39,3.79l-44.91,94.5
								c-4.27-2.25-7.81-6.33-9.89-11.63c-3.39-8.61-6.91-15.76-10.44-21.15c-3.25-4.97-7.81-8.18-12.89-9.18L278.44,220.24
								L278.44,220.24z"/>
							<path opacity="0.4902" fill="#A2CAEC" d="M219.73,220.55c8.53-0.05,17.69,0.17,27.51,0.71h0.28h0.29
								c3-0.21,5.94-0.38,8.83-0.52l-47.25,99.42c-1.2,0.38-2.44,0.62-3.71,0.71l-37.76,2.61l48.89-102.92
								C217.76,220.56,218.74,220.55,219.73,220.55L219.73,220.55z"/>
							<path fill="#CCCCCE" d="M248.14,289.22l5.51,37.37c-1.64,0.43-3.33,0.64-5,0.66c-5.51,0.03-11.05-2.2-15.57-6.67l-3.22-3.2
								c0.83-1.56,1.57-3.2,2.21-4.93c2.85-7.77,5.79-14.07,8.71-18.74C242.55,290.89,245.22,289.29,248.14,289.22L248.14,289.22z"
								/>
							<path fill="#B8B7BA" d="M248.29,289.21c3.01-0.01,5.79,1.57,7.63,4.41c3.07,4.63,6.14,10.9,9.18,18.65
								c0.66,1.7,1.43,3.33,2.28,4.86l-3.14,3.24c-3.12,3.2-6.74,5.31-10.59,6.22l-5.51-37.37c0.05,0,0.1-0.01,0.1-0.01H248.29z"/>
							<path fill="#2E344D" d="M128.41,254.73l6.52,50.82c2.29,17.84,15.61,31.16,30.66,31.07c0.55,0,1.07,0,1.62-0.05l22.04-1.54
								l17.19-1.21c8.14-0.56,15.6-5.03,20.73-12.2c1.03-1.3,1.91-2.75,2.7-4.23c0.84-1.58,1.58-3.21,2.19-4.94
								c2.85-7.77,5.77-14.07,8.71-18.77c1.77-2.79,4.47-4.38,7.36-4.47h0.19c2.98,0,5.78,1.58,7.64,4.43
								c0.84,1.25,1.63,2.61,2.47,4.1c2.14,3.86,4.33,8.57,6.51,14.02c0.05,0.18,0.14,0.32,0.19,0.51c0.66,1.72,1.4,3.35,2.24,4.85
								c1.91,3.49,4.33,6.47,7.03,8.94c4.8,4.33,10.63,6.99,16.82,7.36l39.27,2.33c0.56,0,1.12,0.05,1.63,0.05
								c2.84,0,5.59-0.51,8.2-1.4c6.11-2.09,11.46-6.33,15.33-12.11c3.4-4.99,5.73-11.13,6.42-17.89l5.36-50.87
								c1.21-11.46-2.23-22.36-8.66-30.04c-4.38-5.31-10.24-9.09-16.91-10.39c-11.41-2.33-27.58-4.66-48.4-5.49
								c-5.73-0.23-11.83-0.37-18.31-0.32c-4.66,0.05-9.5,0.14-14.54,0.32h-0.18c-4.19,0.19-8.57,0.42-13.04,0.7
								c-3.27-0.19-6.48-0.33-9.6-0.42c-6.38-0.28-12.44-0.38-18.21-0.32c-29.81,0.14-52.03,3.4-66.52,6.48
								C136.74,217.46,125.94,235.4,128.41,254.73z M155.1,226.83c4.05-0.88,8.76-1.77,14.11-2.56c12.44-1.92,28.27-3.45,47.56-3.68
								c0.97-0.05,1.95-0.05,2.93-0.05c5.87-0.05,11.98,0.05,18.4,0.32c2.98,0.09,6.01,0.23,9.13,0.42h0.28l0.28-0.05
								c3.03-0.18,5.96-0.37,8.85-0.51c1.25-0.05,2.47-0.09,3.68-0.14h0.18c5.12-0.19,10.07-0.32,14.81-0.32
								c1.03-0.05,2.1-0.05,3.12,0c5.17,0,10.11,0.09,14.76,0.32c14.58,0.56,26.78,1.91,36.61,3.45c3.77,0.6,7.22,1.21,10.3,1.82
								c10.48,2.09,17.7,13.5,16.39,25.94l-5.31,50.87c-0.94,8.66-5.87,15.65-12.35,18.63c-2.14,0.94-4.47,1.49-6.9,1.49
								c-0.32,0-0.65,0-1.02-0.05l-28.47-1.68l-5.96-0.37l-4.89-0.28c-2.28-0.14-4.47-0.75-6.52-1.77
								c-0.05-0.05-0.14-0.05-0.18-0.09c-4.29-2.29-7.83-6.33-9.88-11.65c-1.31-3.31-2.61-6.38-3.96-9.27
								c-2.14-4.57-4.28-8.53-6.48-11.79c0,0-0.05-0.05-0.05-0.09c-3.26-4.99-7.77-8.2-12.85-9.18c-1.17-0.23-2.38-0.37-3.54-0.37
								c-6.48,0.05-12.39,3.54-16.21,9.68c-3.45,5.45-6.81,12.63-9.97,21.29c-2.38,6.52-7.03,11.22-12.63,13
								c-1.16,0.37-2.42,0.6-3.68,0.7l-15.09,1.03l-16.45,1.16l-6.24,0.42l-1.44,0.09c-0.33,0.05-0.7,0.05-1.03,0.05
								c-9.69,0.05-18.22-8.44-19.66-19.94l-6.57-50.77C137.63,240.47,144.62,229.02,155.1,226.83z"/>
						</g>
					</g>
				</g>
				<polygon fill="#2E344D" points="355.11,216.1 384.61,224.02 393.15,244.68 392.75,287.77 382.28,323.48 359.38,330.62 
					346.85,327.24 360.93,271.52 				"/>
			</g>
			<polygon fill="#2E344D" points="390.05,226.19 443.23,244.68 443.23,276.2 385.88,282.86 			"/>
			<path fill="#F47A4E" d="M403.83,264.08c-0.09-8.76,5.16-16.72,13.3-19.95c7.75-3.07,17.5-3.84,25.61,5.96
				c15.61,18.89-1.23,66.53-13.55,71.46c-12.32,4.93-18.56-0.09-21.19-2.42C403.64,315.29,404.02,282.86,403.83,264.08z"/>
		</g>
	</g>
</g>
</svg>
