<?xml version="1.0" encoding="utf-8"?>
<!-- Generator: Adobe Illustrator 25.2.3, SVG Export Plug-In . SVG Version: 6.00 Build 0)  -->
<svg version="1.1" id="Layer_1" xmlns="http://www.w3.org/2000/svg" xmlns:xlink="http://www.w3.org/1999/xlink" x="0px" y="0px"
	 viewBox="0 0 576 576" enable-background="new 0 0 576 576" xml:space="preserve">
<g>
	<g>
		<defs>
			<circle id="SVGID_1_" cx="288" cy="288" r="288"/>
		</defs>
		<use xlink:href="#SVGID_1_"  overflow="visible" fill="#F9E3D9"/>
		<clipPath id="SVGID_2_">
			<use xlink:href="#SVGID_1_"  overflow="visible"/>
		</clipPath>
		<g clip-path="url(#SVGID_2_)">
			<g>
				<path fill="#F8A17B" d="M476.29,620.88l15.07,8.84h77.26c-3.83-6.45-8.13-12.66-12.89-18.12c-25.04-28.68-63-79.28-63-79.28
					s-65.53,2.06-50.84,24.08C456.58,578.43,476.29,620.88,476.29,620.88z"/>
				<path fill="#F0906B" d="M491.36,629.72h77.26c-3.83-6.45-8.13-12.66-12.89-18.12c-11.63-13.32-26.05-31.37-38.15-46.89
					c1.49,10.06-8.18,12.98-15.76,19.48c-9.73,8.33-30.06,5.65-44.58-1.48c10.23,19.16,19.06,38.16,19.06,38.16L491.36,629.72z"/>
			</g>
			<g>
				<path fill="#F8A17B" d="M138.57,503.5c0,0-53.78,22.9-71.19,27.88c-4.01,1.15-7.75,2.02-11.19,2.72v63.67
					c32.31-9.26,79.74-23.5,94.45-29.14C173.32,559.94,138.57,503.5,138.57,503.5z"/>
			</g>
			<defs>
				<filter id="Adobe_OpacityMaskFilter" filterUnits="userSpaceOnUse" x="118.73" y="383.16" width="373.99" height="246.56">
					<feColorMatrix  type="matrix" values="1 0 0 0 0  0 1 0 0 0  0 0 1 0 0  0 0 0 1 0"/>
				</filter>
			</defs>
			<mask maskUnits="userSpaceOnUse" x="118.73" y="383.16" width="373.99" height="246.56" id="SVGID_3_">
				<g filter="url(#Adobe_OpacityMaskFilter)">
					<path fill="#FFFFFF" d="M89.88,412.83c-32.44,1.42,62.43,368.19,59.4,396.17c-3.04,27.99,80.05,29.46,146.73,35.96
						c66.69,6.49,141.86-7.62,152.27-33.15C673.63,258.85,256.69,405.49,89.88,412.83z"/>
				</g>
			</mask>
			<g mask="url(#SVGID_3_)">
				<polygon fill="#F8A17B" points="261.48,396.56 278.28,468.01 329.89,463.09 322.66,383.16 				"/>
				<path fill="#E07E60" d="M325.08,409.89l-2.2-24.32c-3.73,0.03-8.17,0.18-13.03,0.4l-48.38,10.59l7.07,30.06
					C295.66,425.93,315.12,416.27,325.08,409.89z"/>
				<path fill="#EE2724" d="M141.97,575.46l48.34-17.19c0,0,9.26,24.53,13.38,71.45h208.73c0.84-43.85,1.78-80.02,1.78-80.02
					l27.86,21.81l50.67-39.19c0,0-9.36-11.64-28.31-30.9c-18.96-19.26-44.94-38.94-72.82-43.65c-19.67-3.32-37.29-7.53-54.14-8.79
					c-7.04-0.53-20.36,16.39-27.23,17.16c-18.72,2.1-31.69-12.13-50.61-10.83c-4.64,0.32-9.24,0.55-13.8,0.67
					c-23.18,0.61-30.74,9.2-60.67,21.48c-29.92,12.27-66.4,33.2-66.4,33.2s4.4,10.33,10.33,28.8
					C134.98,557.93,141.97,575.46,141.97,575.46z"/>
				<path fill="#E11F26" d="M395,629.72h17.41c0.84-43.85,1.78-80.02,1.78-80.02l27.86,21.81l50.67-39.19c0,0-9.36-11.64-28.31-30.9
					c-18.96-19.26-44.94-38.94-72.82-43.65c-4.08-0.69-8.05-1.42-11.96-2.15C387.99,488.78,404.13,565.29,395,629.72z"/>
				<path fill="#F8A17B" d="M347.17,450.01c-10.45-1.36-20.53-1.93-30.52-0.8c-21.07,2.36-43,5.48-64.14,6.5
					c4.42,12.81,14.35,28.03,36.71,31.08C319.13,490.86,339.06,463.82,347.17,450.01z"/>
				<path fill="#FAC2C3" d="M293.53,479.33c-18.33-0.27-28.48-14.53-33.23-24.08c-2.6,0.18-5.21,0.34-7.79,0.46
					c4.42,12.81,14.35,28.03,36.71,31.08c29.91,4.07,49.84-22.97,57.96-36.78c-3.64-0.48-7.22-0.84-10.78-1.08
					C329.59,459.47,313.93,479.63,293.53,479.33z"/>
			</g>
			<g>
				<path fill="#F0906B" d="M169.91,247.13c0,0-27.07-1.64-28.4,20.42c-1.34,22.05,23.36,29.59,23.36,29.59L169.91,247.13z"/>
				<path fill="#30313D" d="M171.37,156.66c0,0-27.09,81.87-1.55,108.57c25.55,26.71,47.36-100.76,47.36-100.76L171.37,156.66z"/>
				<path fill="#F8A17B" d="M183.04,163.41c0,0-2.58,59.21-15.79,94.63c-13.22,35.42-15.49,56.41,7.68,89.01
					c23.18,32.59,64.95,57.26,112.19,58.11c47.23,0.85,90.71-35.76,105.59-48.94c14.89-13.18,21.14-83.23,22.24-101.28
					c1.09-18.05-23.3-130.2-47.12-135.67C344.01,113.8,183.04,163.41,183.04,163.41z"/>
				<path fill="#F0906B" d="M372.51,121.67c-18.53,16.54-35.48,34.89-29.12,40.4c12.36,10.71,35.43,103,32.96,124.43
					c-2.47,21.43-18.12,74.16-96.41,86.52c-68.1,10.76-110.63-42.71-120.54-56.81c2.52,9.6,7.49,19.52,15.53,30.83
					c23.18,32.59,64.95,57.26,112.19,58.11c47.23,0.85,90.71-35.76,105.59-48.94c14.89-13.18,21.14-83.23,22.24-101.28
					C415.97,238.07,394.73,139.03,372.51,121.67z"/>
				<path fill="#46465A" d="M394.96,119.91c3.68-31.18-27.19-66.04-90.22-71.88C241.7,42.2,198.48,66.3,171.55,87.25
					c-26.39,20.54-44.17,64.74-44.17,64.74s48.57,45.2,123.37,39.68C325.54,186.13,390.83,154.87,394.96,119.91z"/>
				<path fill="#46465A" d="M384.81,121.3c0,0,43.19-0.76,55.59,45.63c21.33,79.77-26.43,104.05-26.43,104.05
					S344.01,180.21,384.81,121.3z"/>
				<path fill="#F0906B" d="M388.61,274.47c3.01,0.18,35.82-9.9,45.78-8.3c9.96,1.61,15.19,15.01,12.03,33.93
					c-3.16,18.93-19.05,32.05-53.41,17.9C358.66,303.85,388.61,274.47,388.61,274.47z"/>
				<path fill="#FFFFFF" d="M227.49,315.35c0,0,10.96,7.38,38.48,7.03c27.52-0.34,36.78-9.17,36.78-9.17s-5.87,30.5-38.12,31.23
					C232.39,345.16,227.49,315.35,227.49,315.35z"/>
				<path fill="#E88660" d="M261.9,223.52c-6.66,1.78-4.72,22.52-13.67,37.41c-8.95,14.88-12.47,40.83,2.67,45.1
					c15.14,4.27,35.96-7.21,30.75-43.08C276.44,227.09,270.08,221.34,261.9,223.52z"/>
				<path fill="#403535" d="M212.23,252.65l6.38-0.12c0,0,1.73-28.53-9.67-31.17s-16.94,10.93-17.78,17
					c-0.84,6.06-0.76,12.47-0.76,12.47l3.98,0.52c0,0,3.88-22.22,9.1-22.74c5.22-0.52,7.72,4.01,8.28,12.18
					C212.28,248.26,212.23,252.65,212.23,252.65z"/>
				<path fill="#403535" d="M313.04,256.63l-7.47-0.91c0,0,0.96-15.89,4.89-24.77c3.93-8.88,16.15-9.76,19.57-5.65
					c3.43,4.12,6.41,10.81,5.88,19.57c-0.53,8.75-0.76,12.65-0.76,12.65l-7.03-0.75c0,0,1.12-23.61-5.29-24.74
					C313.13,230.32,313.04,256.63,313.04,256.63z"/>
				<path fill="#13141F" d="M317.63,189.55l-2.61,9.91c0,0,13.39,3.32,21.63,8.35c8.25,5.03,12.41,2.76,11.65-1.31
					C347.54,202.43,334.65,191.08,317.63,189.55z"/>
				<path fill="#13141F" d="M218.77,207.21l-0.98,7.49c0,0-13.39-2.15-22.06,0.22c-8.66,2.38-8.09-8.26-2.87-8.76
					C198.08,205.66,208.91,205.26,218.77,207.21z"/>
				<path fill="#30313D" d="M394.96,119.91c2.67-22.59-12.81-47.1-45.5-61.12c0.49,21.9-7.31,55.93-43.15,81.85
					c-46.89,33.91-151.24,17.92-176.52,13.41c10.62,8.78,55.85,42.42,120.97,37.61C325.54,186.13,390.83,154.87,394.96,119.91z"/>
				<path fill="#30313D" d="M440.4,166.93c-12.4-46.38-55.59-45.63-55.59-45.63c-0.54,0.78-1.05,1.57-1.55,2.36l0.51,7.09
					c0,0,45.32,36.26,32.96,74.98c-6.79,21.28-16.06,29.62-23.05,32.82c10.25,19.39,20.3,32.42,20.3,32.42
					S461.73,246.71,440.4,166.93z"/>
				<path fill="#C9705B" d="M417.14,288.15c0.42-6.18,11.95-8.65,15.25-6.18c3.3,2.47,2.47,21.01-3.71,24.31
					c-6.18,3.3-17.72,0-17.72,0s2.47-3.71,7.42-3.71c4.94,0,9.07-2.51,9.89-8.24c0.82-5.77-2.06-8.65-3.71-8.65
					C422.91,285.68,417.14,288.15,417.14,288.15z"/>
				<path fill="#F59D82" d="M254.11,280.32c-2.42,0.14-9.71,4.36-7.83,8.52c1.87,4.16,19.91,3.94,17.46-3.24
					C261.29,278.43,256.79,280.16,254.11,280.32z"/>
				<path fill="#E2DFD7" d="M241.92,329.87c0,0,7.73,3.71,21.02,3.39c13.29-0.31,21.02-2.78,21.02-2.78s-11.75,6.49-22.87,6.49
					C249.96,336.98,241.92,329.87,241.92,329.87z"/>
				<path fill="#E2DFD7" d="M302.75,313.21c0,0-9.25,8.83-36.78,9.17c-27.52,0.35-38.48-7.03-38.48-7.03s0.36,2.16,1.5,5.29
					c5.1,2.84,15.1,6.52,32.4,6.14c21.42-0.48,34.77-5.9,39.77-8.37C302.34,315.31,302.75,313.21,302.75,313.21z"/>
				<path fill="#E07E60" d="M244.7,349.34c0,0,5.57,4.01,18.24,4.32c12.67,0.31,21.02-5.87,21.02-5.87s-4.02,9.89-19.47,10.51
					C249.03,358.91,244.7,349.34,244.7,349.34z"/>
				<path fill="#D97657" d="M281.65,262.96c-2.05-14.1-4.27-23.53-6.72-29.66c3.23,13.73,6.82,39.95,0.05,51.14
					c-8.96,14.83-23.67,16.94-32.63,13.79c1.62,3.79,4.37,6.63,8.54,7.81C266.03,310.31,286.85,298.83,281.65,262.96z"/>
				<path opacity="0.49" fill="#FAB79C" d="M208.07,273.94c-0.74-5.5-33.01-1.24-35.07,7.41C170.93,290,211.16,296.8,208.07,273.94z
					"/>
				<path opacity="0.49" fill="#FAB79C" d="M362.39,280.12c0.32-5.53-30.67-7.01-34.19,1.13
					C324.67,289.39,361.07,303.14,362.39,280.12z"/>
			</g>
		</g>
	</g>
</g>
</svg>
