<?xml version="1.0" encoding="utf-8"?>
<!-- Generator: Adobe Illustrator 25.2.3, SVG Export Plug-In . SVG Version: 6.00 Build 0)  -->
<svg version="1.1" id="Layer_1" xmlns="http://www.w3.org/2000/svg" xmlns:xlink="http://www.w3.org/1999/xlink" x="0px" y="0px"
	 viewBox="0 0 576 576" enable-background="new 0 0 576 576" xml:space="preserve">
<g>
	<g>
		<defs>
			<path id="SVGID_1_" d="M575.65,288.24c0,158.95-128.86,287.82-287.82,287.82S0,447.19,0,288.24C0,129.28,128.86,0.41,287.82,0.41
				S575.65,129.28,575.65,288.24z"/>
		</defs>
		<use xlink:href="#SVGID_1_"  overflow="visible" fill="#F9E3D9"/>
		<clipPath id="SVGID_2_">
			<use xlink:href="#SVGID_1_"  overflow="visible"/>
		</clipPath>
		<g clip-path="url(#SVGID_2_)">
			<g>
				<path fill="#F68F68" d="M550.29,751.19L466.04,620.6c0,0,20.8-28.59,39.48-39.03c-2.51-2.58-4.41-3.84-5.66-3.68
					c-20.27,2.73-53.87,44.72-53.87,44.72l87.14,128.58H550.29z"/>
			</g>
			<path fill="#F5B29A" d="M614.77,751.19c-41.38-78.16-80.97-156.29-97.59-173.31c-18.68,10.44-51.15,42.72-51.15,42.72
				l84.26,130.59H614.77z"/>
			<g>
				<path fill="#F79877" d="M193.45,223.54c-3.13-4.31-28.32-32.84-39.93-4.6c-11.6,28.24,3.04,72.3,19.79,66.86
					C190.06,280.37,206.97,242.11,193.45,223.54z"/>
				<path fill="#F58159" d="M183.04,229.32c0,0-17.04-20.32-19.42,7.81c-2.38,28.12,5.74,40.34,5.94,38.74
					C169.76,274.27,183.04,229.32,183.04,229.32z"/>
			</g>
			<g>
				<path fill="#F79877" d="M395.97,261.35c4.61-2.67,39.19-18.54,38.36,11.98c-0.83,30.52-32.06,64.86-45.18,53.11
					C376.05,314.68,376.09,272.86,395.97,261.35z"/>
				<path fill="#F58159" d="M399.17,275.87c0,0,13.72-19.63,13.83,5.67c0.1,25.31-23.95,32.29-23.95,32.29L399.17,275.87z"/>
			</g>
			<path fill="#F5B29A" d="M38.8,532.94c-4.32-0.23-55.89,47.01-102.59,86v63.13c49.93-32.96,102.59-71.45,102.59-71.45l7.55,33.41
				c0.04-0.04,0.04-0.04,0.04-0.04l35.12-57.97C81.51,586.02,46.35,533.39,38.8,532.94z"/>
			<path fill="#F68F68" d="M-63.79,722.61c52.13-34.48,108.24-77.12,110.14-78.58l-7.55-33.41c0,0-52.65,38.49-102.59,71.45V722.61z
				"/>
			<path fill="#F3BA1E" d="M102.24,751.19h334.74c6.74-97.79,8.63-193.15-3.34-243.51l-361.7-6.02c0,0,24.7,113.01,29.82,238.67
				C101.89,743.41,102.05,747.1,102.24,751.19z"/>
			<path fill="#A1B6C4" d="M165.35,462.52c0,0-90.8-11.97-196.48,123.48l66.13,83.13C35.01,669.13,180.4,626.28,165.35,462.52z"/>
			<path fill="#A1B6C4" d="M372.17,450.55c0,0,123.8,19.26,184.55,176.41l-78.07,71.28C478.65,698.25,374.69,585.97,372.17,450.55z"
				/>
			<path fill="#F3BA1E" d="M185.42,448.8c0,0,106.42-18.5,194.63,3.58c88.22,22.09-33.03,138.66-33.03,138.66H117.63
				C117.63,591.04,119.44,457.18,185.42,448.8z"/>
			<path fill="#F68F68" d="M226.45,381.82l-3.33,74.38c0,0,43.59,55.5,110.36,10.25l-6.01-82.9L226.45,381.82z"/>
			<path fill="#F68F68" d="M342.74,415.43c-53.3,31.24-102.51,24.32-157.86-32.98c-54.11-56.07,30.86-290.13,30.86-290.13l5.4,0.46
				c-11.01,38.05-65.33,236.97-13.96,284.99C256.45,423.77,299.44,433.98,342.74,415.43z"/>
			<path fill="#F5B29A" d="M353.29,408.81c-3.52,2.38-7.06,4.6-10.55,6.62c-43.3,18.56-86.29,8.34-135.57-37.67
				c-51.37-48.02,2.95-246.94,13.96-284.99l191.86,46.14C412.99,138.92,410.71,370.28,353.29,408.81z"/>
			<path fill="#6B2C28" d="M233.5,54.21c-20.77-11.83-46.71,0.45-50.46,24.06c-3.67,23.18-2.33,48.97,15.33,64.76
				c38.22,34.17,139.47-21.51,166.05,8.86c26.57,30.37,46.42,61.37,48.52,54.73c1.12-3.52-14.92-51.6-9.56-78.03
				c4.73-23.35-11.44-45.75-35.1-48.62C325.42,74.76,281.88,81.77,233.5,54.21z"/>
			<path fill="#6B2C28" d="M183.04,78.27c7.36-4.85-2.43-50.41,71.76-45.66c0,0-39.71,9.5-23.57,37.02l-15.19-9.02
				c0,0,25.15-23.73,55.52-13.29c0,0-36.85,11.39-16.76,27.53c20.08,16.13-36.39,41.76-36.39,41.76L183.04,78.27z"/>
			<path fill="#6B2C28" d="M387.2,146.83c0,0,38.35-44.15,47.16-4.12c11.05,50.31-27.15,134.47-27.15,134.47h-20.97l-6.18-70.56
				C380.06,206.62,387.5,166.76,387.2,146.83z"/>
			<polygon fill="#6B2C28" points="195.56,124.58 175.4,233.76 180.22,243.9 211.76,139.86 			"/>
			<path fill="#F79877" d="M210.82,248.35l-12.55-15.34l13.07-18.71l54.42-14.21l-7.41,51.86
				C258.36,251.95,234.29,213.98,210.82,248.35z"/>
			<path fill="#92232F" d="M210.82,248.35c0,0,20.01-27.14,47.53,3.6c0,0-3.34-14.56-21.95-17.79
				C217.81,230.92,210.82,248.35,210.82,248.35z"/>
			<path fill="#F79877" d="M349.97,259.16l13.33-12.46l-9.32-21.35l-55.22-10.24l3.62,41.33
				C302.37,256.43,331.27,221.98,349.97,259.16z"/>
			<path fill="#92232F" d="M349.97,259.16c0,0-16.23-29.56-47.6-2.73c0,0,5.24-13.99,24.11-14.73
				C345.35,240.96,349.97,259.16,349.97,259.16z"/>
			<path fill="#501C2A" d="M261.03,187.08c0,0,14.04,13.66-5.06,23c-19.1,9.34-40.66-3.97-48.78,13.33
				c-8.12,17.32-14.44-7.92-3.75-18.64S259,194.98,261.03,187.08z"/>
			<path fill="#501C2A" d="M304.07,202.86c0,0-14.57,13.1,4.14,23.19c18.71,10.09,40.78-2.36,48.21,15.25
				c7.43,17.62,14.74-7.35,4.49-18.48C350.65,211.69,305.78,210.83,304.07,202.86z"/>
			<path fill="#F79877" d="M275.31,237.91c-2.45,3.52-7.08,45.88-24.9,54.22c-17.82,8.33,3.77,27.42,18.14,20.04
				c14.37-7.39,11.27,0.36,16.1,0.24c10.55-0.27,10.98-18.54,3.88-20.95C281.41,289.05,275.31,237.91,275.31,237.91z"/>
			<path fill="#EF8184" d="M364.03,300.95c0.7,9.46-8.28,17.83-20.04,18.69s-21.86-6.1-22.56-15.57
				c-0.69-9.46,8.28-17.83,20.04-18.69C353.24,284.52,363.33,291.49,364.03,300.95z"/>
			<path fill="#EF8184" d="M226.47,303.64c-6.2,7.19-18.46,6.76-27.38-0.95c-8.93-7.7-11.14-19.78-4.94-26.96
				c6.19-7.19,18.46-6.76,27.38,0.95C230.45,284.39,232.66,296.46,226.47,303.64z"/>
			<g>
				<path fill="#8B491F" d="M313.28,361.2c-0.9,2.08-2.1,4.04-3.65,6.04c-7.13,10.11-20.19,18.71-36.49,16.55
					c-11.03-1.44-21.75-4.69-29.23-12.22c-0.05,0.18-0.05,0.18-0.16-0.06c-5.42-5.68-9.1-13.95-9.54-25.31c0,0-2.06-9.15,6.36-9.5
					c1.4-0.16,3.21,0.06,5.43,0.66c14.59,3.77,36.16,7.52,51.62,3.02c9.18-2.64,14.92,0.67,16.92,6.5
					C316.05,350.78,315.65,356.13,313.28,361.2z"/>
				<path fill="#FFFFFF" d="M314.55,346.88c-15.97,14.04-41.71,16.11-58.92,6.83c-9.48-5.15-13.43-11.79-15.05-17.01
					c1.4-0.16,3.21,0.06,5.43,0.66c14.59,3.77,36.16,7.52,51.62,3.02C306.81,337.74,312.54,341.04,314.55,346.88z"/>
				<path fill="#F16162" d="M309.63,367.24c-7.13,10.11-20.19,18.71-36.49,16.55c-11.03-1.44-21.75-4.69-29.23-12.22
					C257.5,366.77,286.91,358.13,309.63,367.24z"/>
			</g>
			<path fill="#6B2C28" d="M328.77,332.17c-12.19-18.34-66.94-10.85-99.32-10.85c-10.35,0-18.82,8.13-19.43,18.47
				c-1.94,33.3,1.73,66.91,1.73,66.91c41.09,52.8,121.72,13.77,121.72,13.77S334.73,341.15,328.77,332.17z M293.3,403.74
				c-20.76,1.34-14.84-24.59-32.88-5.61c-18.04,18.99-33.98-16.31-33.98-16.31v-45.18c41.85-3.48,88.99,3.12,88.99,3.12
				C319.23,358.53,314.06,402.41,293.3,403.74z"/>
			<path fill="#8DA191" d="M-16.82,698.14c0.69,0.11,1.45,0.11,2.17,0.11c31.62-0.72,94.27-54.75,94.27-54.75s7.2,45.73,11.93,107.7
				h109.71l21.87-308.61C11.27,460.61-54.22,618.36-54.22,618.36S-46.7,695.25-16.82,698.14z"/>
			<path fill="#8DA191" d="M443.64,751.19c1.27-56.66,1.53-96.3,1.53-96.3s20.5-24.38,58.01,20.95l53.54-48.86
				c-67.73-185.51-223.14-182.35-223.14-182.35v306.56H443.64z"/>
			<path fill="#809283" d="M79.62,643.5c0,0,7.2,45.73,11.93,107.7h42.79c-4.57-70.06-11.31-123.59-16.72-135.6
				C102.51,581.96-6.19,659.22-6.19,659.22s-3.99,14.77-10.63,38.92c0.69,0.11,1.45,0.11,2.17,0.11
				C16.97,697.53,79.62,643.5,79.62,643.5z"/>
			<path fill="#C1DBC6" d="M-63.79,665.38c16.36-1.4,35.37-7,50.65-22.95c-10.82-24.83-23.96-47.77-36.34-51.41
				c-5.28-1.54-9.96-1.43-14.31-0.73V665.38z"/>
			<path fill="#8BC8C3" d="M-13.14,642.44c-15.28,15.94-34.29,21.55-50.65,22.95v23.81c12.4,29.22,25.57,55.97,32.65,56.81
				c15.83,1.9,42.41-36.08,42.41-36.08S0.98,674.63-13.14,642.44z"/>
			<path fill="#809283" d="M503.17,675.85l-24.52,22.4l-33.49-43.35C445.16,654.89,465.66,630.51,503.17,675.85z"/>
			<g>
				<path fill="#C1DBC6" d="M579.79,667.84c-10.7,1.82-32.01,21.56-50.73,40.02c-34.39-11.58-41.23-27.53-40.39-40.05
					c28.81-30.26,73.66-57.63,78.82-57.18C575.08,611.26,600.4,664.38,579.79,667.84z"/>
				<path fill="#8BC8C3" d="M529.06,707.85c-17.39,17.12-32.53,33.07-34.97,32.46c-5.09-1.25-29.65-30.37-29.65-30.37
					c0.64-12.99,10.63-27.87,24.22-42.15C487.83,680.32,494.67,696.27,529.06,707.85z"/>
			</g>
		</g>
	</g>
</g>
</svg>
