<?xml version="1.0" encoding="utf-8"?>
<!-- Generator: Adobe Illustrator 25.2.3, SVG Export Plug-In . SVG Version: 6.00 Build 0)  -->
<svg version="1.1" id="Layer_1" xmlns="http://www.w3.org/2000/svg" xmlns:xlink="http://www.w3.org/1999/xlink" x="0px" y="0px"
	 viewBox="0 0 576 576" enable-background="new 0 0 576 576" xml:space="preserve">
<g>
	<g>
		<defs>
			<path id="SVGID_1_" d="M574.52,288c0,159.06-128.94,288-288,288c-159.06,0-288-128.94-288-288S127.46,0,286.52,0
				C445.58,0,574.52,128.94,574.52,288z"/>
		</defs>
		<use xlink:href="#SVGID_1_"  overflow="visible" fill="#F9E3D9"/>
		<clipPath id="SVGID_2_">
			<use xlink:href="#SVGID_1_"  overflow="visible"/>
		</clipPath>
		<g clip-path="url(#SVGID_2_)">
			<g>
				<path fill="#010101" d="M80.22,562.09c10.94,27.58,28.67,93.36,41.42,169.26h-6.41c-12.72-74.78-30.28-139.61-41.08-166.86
					c-28.31-71.4,38.95-159.4,42.04-163.24l9.86-1.29C125.32,400.88,53.32,494.24,80.22,562.09z"/>
			</g>
			<path fill="#299CD0" d="M190.1,731.36h-50.03c-2.74-10.98-5.68-19.72-8.9-24.82c-3.55-5.62-10.85-19.55-12.42-27.3
				c18.31-18.89,34.37-32.18,40.9-51.85c2.38,1.09,3.19,4.36,1.11,11.07C154.35,659.2,169.54,682.36,190.1,731.36z"/>
			<path fill="#2BAAE2" d="M447.8,689.4c0,0,3.04,16.44,4.64,41.96H190.1c-20.56-48.99-35.75-72.16-29.34-92.9
				c2.08-6.71,1.27-9.98-1.11-11.07c14.47-43.42,6.26-83.87,1.87-99.65c15.49-3.7,40.57-10.26,57.25-17.47
				c0,0,9.05,34.88,79.33,47.84c42.46,7.88,75.87-20.98,95.63-45.11c13.14,2.68,23.94,4.43,26.19,5.39
				c5.69,2.44,68.11,36.5,72.18,111.92c0.69,12.84-0.21,33.56-2.14,59.09H447.8z"/>
			<path fill="#F8A075" d="M359.76,544.27c-17.23,11.24-38.04,18.23-61.67,13.84c-70.29-12.97-79.31-47.84-79.31-47.84
				c18.34-7.92,85.2-26.97,111.64-21.03c2.85,7.56,6.08,15.34,9.65,22.93C345.78,524.17,352.35,535.55,359.76,544.27z"/>
			<path fill="#F8A075" d="M340.07,512.17l-121.29-1.9l3.7-51l92.93-18.4c0,0,5.32,22.7,15.01,48.37
				C333.27,496.8,336.5,504.58,340.07,512.17z"/>
			<path fill="#F28B6F" d="M342.24,435.55l-26.83,5.32c0,0,5.32,22.7,15.01,48.37c2.85,7.56,6.08,15.34,9.65,22.93
				c5.71,12,12.28,23.38,19.7,32.1c13.76-8.94,25.19-20.58,33.97-31.27C352.89,499.2,342.24,435.55,342.24,435.55z"/>
			<path fill="#66301B" d="M336.76,439.63c2.76,9.14-9.13,30.55,31.34,40.07c0,0-14.51-44.05,8.79-56.94c0,0,8.26,15.95,26.37,17.82
				c0,0-29.59-36.34-10.29-70.9c19.3-34.56,56-118.19,21.75-166.7c0,0,42.61,14.82,49.82,27.2c0,0-23.48-76.48-51.96-94.78
				c-28.48-18.29-35.9,6.34-35.9,6.34S420.4,66.38,312.3,33.04c0,0,15.04,23.76,12.11,38.31c0,0-17.37-26.52-38.51-26.48
				C264.76,44.91,117.82,163.66,92.25,153.8l30.57,48.42c0,0-19.88,9.4-19.74,15.37c0.14,5.96,27.06,98.85,49.11,107.91
				C174.23,334.57,336.76,439.63,336.76,439.63z"/>
			<polygon fill="#307E85" points="122.19,300.4 121.36,273.06 134.08,278.38 134.08,295.38 			"/>
			<g>
				<path fill="#F0545C" d="M183.79,354.71c0-16.03-4.31-30.6-11.31-41.57c-0.47-9.1,4.63-14.3,1.96-15.77
					c-8.77-4.81-24.96-4.85-31.48-3.98c-0.05,0-0.09-0.01-0.14-0.01c-23.86,0-45.44,27.21-45.44,61.33
					c0,31.56,15.28,56.66,37.54,61.63c7.97,2.6,28.84,2.6,28.84,2.6s0.79-5.43,1.9-13.99C176.63,393.75,183.79,375.45,183.79,354.71
					z"/>
				<path fill="#D62029" d="M206.98,357.16c0,34.12-19.35,61.78-43.21,61.78c-23.86,0-43.2-27.67-43.2-61.78s19.35-61.78,43.2-61.78
					C187.64,295.38,206.98,323.04,206.98,357.16z"/>
			</g>
			<path fill="#E76B48" d="M152.55,334.07c0,0-15.57-12.54-17.86,7.43c-2.29,19.97,1.94,37.06,12.26,42.87
				c10.33,5.82,21.26-22.27,21.26-22.27L152.55,334.07z"/>
			<path fill="#F28B6F" d="M359.02,438.62c-23.11,32.55-111.53,66.88-125.46,60.45c-14.09-6.52-67.06-50.19-79.16-67.95
				c-12.11-17.74-14.41-189.52-14.41-189.52c5.8-7.53,11.99-14.37,18.51-20.57c-2.15,2.48-4.26,5.06-6.3,7.72
				c0,0,2.32,171.76,14.43,189.51c12.11,17.75,65.06,61.41,79.17,67.93C257.88,491.81,326.13,466.66,359.02,438.62z"/>
			<path fill="#F8A075" d="M359.77,437.54c-0.24,0.36-0.48,0.73-0.75,1.09c-32.89,28.04-101.14,53.19-113.24,47.58
				c-14.11-6.52-67.06-50.18-79.17-67.93c-12.11-17.75-14.43-189.51-14.43-189.51c2.05-2.66,4.15-5.24,6.3-7.72
				c81.62-77.89,211.49-53.86,222.96-29.36C398.89,228.9,381.67,404.68,359.77,437.54z"/>
			<g>
				<g>
					<path fill="#95261F" d="M191.46,396.46c0,0,3.78,35.72,38.41,45.14c8.46-8.85,27.54-21.5,59.85-10.73
						c0.08,0.01,0.08,0.01,0.08,0.01c21.76-16.82,31.92-44.71,30.6-56.2l-6.95,1.22l-114.2,19.05L191.46,396.46z"/>
					<path fill="#FFFFFF" d="M313.45,375.87c-0.12,9.23-3.17,18.28-10.18,23.15c-18.37,12.03-85.45,16.09-95.11,12.63
						c-5.95-2.04-8.01-10.53-8.9-16.73L313.45,375.87z"/>
				</g>
				<path fill="#F26745" d="M229.88,441.6c5.09,1.66,10.95,2.54,17.57,2.73c17.22,0.4,31.25-5.15,42.28-13.46
					C257.41,420.1,238.33,432.75,229.88,441.6z"/>
			</g>
			<path fill="#E76B48" d="M222.49,450.77c0,0,54.46,4.52,76.18-4.2C298.67,446.58,259.39,500.75,222.49,450.77z"/>
			<g>
				<path fill="#F8A075" d="M394.49,315.08c0,0,24.57-30.45,30.41-19.91s16.15,29.41,10.13,39.95
					c-6.02,10.54-30.04,42.31-38.61,36.4c-3.96-2.74-6.75-6.45-8.58-9.64c-2.12-3.68-2.7-8.04-1.7-12.16L394.49,315.08z"/>
				<path fill="#C04532" d="M426.12,320.63c0,0-17.57-7.08-34.27,20.66l1.17,2.7C393.01,343.98,401.84,324.55,426.12,320.63z"/>
				<path fill="#C04532" d="M399.83,332.55c0,0,13.91,0.9,14.79,9.6c0.87,8.7-14.67,10.3-14.67,10.3s13.49-6.91,11.94-10.21
					c-1.55-3.29-13.9-5.73-13.9-5.73L399.83,332.55z"/>
			</g>
			<g>
				<path fill="#F2F3F3" d="M356.48,289.65c0.51,7.23-0.49,17.25-8.39,24.1c-4.38,3.93-11,6.8-20.59,7.75
					c-7.76,0.75-14.09,0.03-19.22-1.64c-14.12-4.66-19.11-16.53-20.79-23.69c0,0,0.27-2.5,1.31-6.16l33.24-13.02l30.97,3.63
					c2.09,4.13,3.14,7.66,3.37,8.67C356.47,289.5,356.48,289.65,356.48,289.65z"/>
				<g>
					<path fill="#8E4634" d="M301.31,306.53c2.65,11.15,13.82,18.05,24.98,15.4c11.15-2.65,18.04-13.83,15.4-24.98
						c-2.65-11.15-13.83-18.04-24.98-15.4C305.56,284.21,298.67,295.39,301.31,306.53z"/>
					<path fill="#704338" d="M310.55,304.34c1.44,6.04,7.49,9.78,13.54,8.34c6.04-1.43,9.78-7.49,8.34-13.54
						c-1.43-6.04-7.49-9.78-13.54-8.34S309.12,298.3,310.55,304.34z"/>
					<path opacity="0.7" fill="#F2F3F3" d="M294.87,305.66c0.75,4.69,5.15,7.89,9.83,7.15c4.69-0.74,7.89-5.14,7.15-9.83
						c-0.74-4.69-5.15-7.88-9.83-7.14C297.33,296.58,294.13,300.97,294.87,305.66z"/>
				</g>
				<path fill="#E76B48" d="M287.61,297.86c35.71-37.02,68.98-6.92,68.98-6.92s0.12-0.37,0.06-0.64c-0.27-1.11-0.95-5.1-3.1-9.85
					c-4.67-10.09-14.91-23.53-33.85-21.3c-21.13,2.53-29.21,20.8-31.56,31.23C287.15,294.56,287.61,297.86,287.61,297.86z"/>
			</g>
			<g>
				<path fill="#F2F3F3" d="M220.13,303.81c0.51,7.23-0.49,17.25-8.38,24.1c-4.38,3.93-11.01,6.81-20.6,7.75
					c-7.75,0.75-14.09,0.03-19.22-1.64c-14.12-4.65-19.1-16.53-20.78-23.68c0,0,0.27-2.51,1.31-6.16l33.24-13.02l30.97,3.64
					c2.09,4.13,3.14,7.66,3.37,8.67C220.12,303.67,220.13,303.81,220.13,303.81z"/>
				<g>
					<path fill="#8E4634" d="M167.31,320.54c2.64,11.15,13.82,18.04,24.97,15.4c11.15-2.65,18.04-13.83,15.4-24.98
						c-2.65-11.15-13.83-18.04-24.98-15.4C171.56,298.21,164.67,309.39,167.31,320.54z"/>
					<path fill="#704338" d="M176.56,318.35c1.44,6.04,7.49,9.78,13.54,8.34c6.04-1.43,9.78-7.49,8.34-13.54
						c-1.43-6.04-7.49-9.78-13.54-8.34C178.86,306.24,175.12,312.3,176.56,318.35z"/>
					<path opacity="0.7" fill="#F2F3F3" d="M160.87,319.67c0.75,4.69,5.15,7.89,9.83,7.15c4.69-0.74,7.88-5.14,7.14-9.83
						c-0.74-4.69-5.14-7.88-9.83-7.14C163.33,310.58,160.13,314.98,160.87,319.67z"/>
				</g>
				<path fill="#E76B48" d="M151.25,312.02c35.72-37.01,68.98-6.92,68.98-6.92s0.12-0.36,0.06-0.64c-0.27-1.11-0.95-5.1-3.1-9.85
					c-4.66-10.09-14.91-23.53-33.85-21.3c-21.13,2.53-29.21,20.8-31.56,31.23C150.8,308.73,151.25,312.02,151.25,312.02z"/>
			</g>
			<path fill="#E76B48" d="M234.73,328.78c0,0-19.09,8.23-18.88,14.82c0.21,6.58,3.85,18.69,25.24,23.98
				c0,0-19.13-17.23-14.58-26.55C231.22,331.35,234.73,328.78,234.73,328.78z"/>
			<path fill="#66301B" d="M149.33,253.7c2.09-0.27,41.2-10.2,51.5,5.91c10.3,16.1,13.16-8.97,10.96-12.22
				c-2.19-3.24-34.04-17.2-61.42-2.83L149.33,253.7z"/>
			<path fill="#66301B" d="M346.99,234.32c-2.11-0.1-41.9-6.75-50.83,10.16c-8.93,16.9-13.86-7.85-11.94-11.27
				c1.92-3.41,32.5-19.96,60.98-7.92L346.99,234.32z"/>
			<path fill="#4B2413" d="M351.2,170.27c0,0,47.51,50.86,45.59,85.38C396.79,255.65,429.74,169.37,351.2,170.27z"/>
			<path fill="#4B2413" d="M360.78,168.79c0,0,27.49-55.58-29.75-78.35c0,0,24.99,41.58,12.87,76.41c0,0-18.57-50.05-56.19-52.05
				c0,0,37.26,34.38,35.22,54.21C322.94,169.02,355.13,175.53,360.78,168.79z"/>
			<g>
				<path fill="#307E85" d="M421.09,241.48l-3.87,0.29l-0.37,0.03l-3.26,0.26l-2.55,0.11l-1.59,0.08c0.03-0.85,0.03-1.84,0-2.97
					c-0.14-19.82-4.7-80.05-27.54-112.46c0.34-1.25,0.66-2.49,0.91-3.71c0.42-1.84,0.77-3.65,1.02-5.41
					c2.57,2.78,4.95,5.86,7.13,9.2C403.07,145.55,421.95,184.02,421.09,241.48z"/>
				<g>
					<path fill="#EE8D72" d="M383.53,341.99c-5.81-15.42-3.92-33.92,3.8-47.86c9.35-16.88,25.3-38.08,36.42-12.21
						c16.63,38.67,3.23,93.41-22.7,80.61C391.97,358.04,386.64,350.24,383.53,341.99z"/>
					<g>
						<g>
							<path fill="#7FC7C3" d="M409.46,239.27v1.22c0,0.62,0,1.22-0.03,1.75c0,2.92-0.06,4.78-0.11,5.18l-6.37-0.73
								c0-0.14,0.14-1.87,0.23-4.9c0.03-0.57,0.05-1.18,0.05-1.87v-0.57c0.45-19.02-3.62-69.72-24.03-103.97
								c1.08-2.94,1.98-5.8,2.72-8.57c0.34-1.25,0.66-2.49,0.91-3.71C407.03,161.92,409.66,218.13,409.46,239.27z"/>
						</g>
					</g>
					<g>
						<path fill="#D62029" d="M439.69,315.45c0,21.26-5.08,40.39-13.13,53.35c-0.37,0.62-0.79,1.31-1.22,1.92
							c-0.58,0.82-1.16,1.64-1.75,2.4c-0.95,9.81-1.64,16.05-1.64,16.05c-0.74,0-1.43-0.07-2.12-0.07c-2.9,0-8.36-0.21-13.54-0.75
							c-3.86-0.48-7.51-1.1-9.89-2.13c-19.74-5.69-33.28-34.49-33.28-70.77c0-14.54,2.59-27.91,6.99-39.02
							c3.96-10.15,9.36-18.38,15.6-23.86c2.65-2.4,5.45-4.26,8.36-5.49c1.69-0.76,3.44-1.31,5.24-1.65c1.32-0.27,2.7-0.41,4.07-0.41
							c0.05,0,0.05,0,0.1,0c1.85-0.34,4.6-0.55,7.73-0.48c0.95,0,1.9,0.06,2.9,0.14c3.65,0.21,7.62,0.83,11.17,2.06h0.05
							c1.96,0.62,3.76,1.37,5.34,2.47c0.21,0.07,0.48,0.27,0.69,0.41c1.7,1.16-0.16,4.59-1.16,10.35c-0.37,2.2-0.64,4.8-0.53,7.75
							c0.26,0.55,0.53,1.03,0.74,1.57c3.07,6.58,5.45,14.13,7.03,22.49c0.21,0.96,0.37,1.92,0.53,2.89
							C439.11,301.25,439.69,308.18,439.69,315.45z"/>
						<path fill="#F0545C" d="M460.22,318.26c0,39.18-17.14,70.94-38.28,70.94s-38.28-31.76-38.28-70.94s17.14-70.95,38.28-70.95
							S460.22,279.07,460.22,318.26z"/>
						<path fill="#C59C6D" d="M463.57,316.08c0,29.47-14.8,53.82-33.83,57.03c-14.09-5.59-24.67-28.78-24.67-56.57
							c0-29.01,11.55-53.05,26.61-57.03C449.78,263.96,463.57,287.61,463.57,316.08z"/>
						<path fill="#FEE396" d="M434.09,266.98c0,0-22.1,8.43-17.43,58.54c0,0,10.89-30.91,22.41-30.91S449.64,272.13,434.09,266.98z"
							/>
					</g>
					<polygon fill="#FEE396" points="414.45,248.25 399.27,247.29 399.32,245.44 399.53,238.65 399.64,235.15 404.4,235.43 
						411.38,235.91 413.34,236.04 413.87,242.01 414.13,244.68 					"/>
					<polygon fill="#CBA25D" points="426.09,246.61 425.3,246.74 421.01,247.29 417.05,247.91 414.45,248.25 414.13,244.68 
						413.87,242.01 413.34,236.04 422.65,235.36 426.01,234.85 					"/>
				</g>
			</g>
			<g>
				<g>
					<path fill="#1D769D" d="M423.97,715.1c0,0,71.38,41.37,129.75-8.29C553.72,706.81,492.32,658.89,423.97,715.1z"/>
					<path fill="#F8A075" d="M519.59,731.36h-84.54c0.57-26.83,1.69-51.94,2.96-73.31l103.68-6.21c0.07,8.4,0.33,16.23,0.69,23.44
						l-25.87,15.21C516.51,690.5,518.33,707.86,519.59,731.36z"/>
					<path fill="#F28B6F" d="M544.07,731.36h-24.48c-1.26-23.49-3.08-40.86-3.08-40.86l25.87-15.21c1.1,23.86,3.04,41.35,1.94,52.76
						C544.21,729.04,544.16,730.29,544.07,731.36z"/>
					<path fill="#2BAAE2" d="M516.51,690.5c-25.95-5.35-49.73,1.33-66.65,9.05c-1.16-0.83-38.47-28.42-43.39-67.17
						c-0.3-2.36-0.79-4.01-1.46-5.06c-0.36-47.68,11.81-89.5,16.01-102.47c13.15,8.87,31.48,22.14,54.35,40.93
						C510.71,594.82,516.3,656.51,516.51,690.5z"/>
					<path fill="#299CD0" d="M449.86,699.55c-15.97,7.3-25.9,15.55-25.9,15.55c-13.91-28-18.73-58.95-18.94-87.77
						c0.66,1.05,1.16,2.7,1.46,5.06C411.4,671.13,448.7,698.72,449.86,699.55z"/>
					<path fill="#299CD0" d="M553.72,706.81c-12.57-8.76-25.11-13.84-37.21-16.31c-0.21-33.98-5.8-95.68-41.12-124.71
						c-22.87-18.79-41.2-32.06-54.35-40.93c0.86-2.72,1.4-4.17,1.4-4.17C586.84,563.52,553.72,706.81,553.72,706.81z"/>
				</g>
			</g>
			<g>
				<path fill="#1D769D" d="M24.23,613.34c0,0,8.53,87.48,80.42,105.16C104.65,718.49,128.6,641.18,24.23,613.34z"/>
				<g>
					<path fill="#F8A075" d="M133.94,648.34c-4.06,19.7-7.5,34.7-7.5,34.7s-4.51,4.31-11.88,11.29l3.78-22.46l-38.93,3.87
						l-0.02,0.05c-0.03,0.03-0.05,0.06-0.09,0.12c-0.09,0.16-0.25,0.47-0.52,0.89c-0.11,0.19-0.27,0.45-0.42,0.73
						c-0.79,1.34-2.03,3.41-3.68,6.09c-0.41,0.64-0.81,1.34-1.29,2.07c-0.3,0.48-0.59,0.96-0.91,1.46c-0.32,0.5-0.66,1.03-1,1.57
						c-2,3.19-4.36,6.87-7.03,10.89c-0.45,0.68-0.89,1.35-1.37,2.05c-1.94,2.92-4.05,6.02-6.25,9.21c-0.94,1.35-1.88,2.71-2.88,4.09
						c-3.68,5.23-7.96,10.84-12.21,16.4h-94.96c19.83-25.47,45.62-60.19,67.46-89.98c1.76-2.39,3.5-4.73,5.16-7.03
						c0.53-0.73,1.07-1.44,1.57-2.15c21.69-29.6,38.02-52.31,38.02-52.31c31.84-35.52,74.27-23.53,85.51-24.07
						c7.4-0.37-2.74,54.68-10.54,92.46L133.94,648.34z"/>
					<path fill="#F28B6F" d="M75.47,731.36H41.88c22.06-28.87,37.54-55.63,37.54-55.63l38.93-3.87l-3.78,22.46
						C105.06,703.35,90.8,716.87,75.47,731.36z"/>
				</g>
				<g>
					<path fill="#299CD0" d="M104.26,718.52c0,0,16.03-16.55,29.52-32.28c0,0,0.03-0.06,0.05-0.06c0.87-1.03,1.75-2.09,2.65-3.15
						c0.9-1.09,1.83-2.2,2.78-3.35c15.62-18.98,24.61-38.86,29.36-57.86c-5.67-2.22-19.53,9.53-22.58,14.91
						c-4.27,7.51-55.19,26.26-55.19,26.26C99.73,676.99,105.46,695.08,104.26,718.52z"/>
					<path fill="#2BAAE2" d="M90.83,662.99c0,0,50.93-18.75,55.19-26.26c3.05-5.37,16.92-17.13,22.58-14.91
						c10.53-41.95,0.43-79.68-4.61-94.34c-2.52,0.83-4.78,1.52-6.65,2.07c-34.11,1.87-91.09,19.79-133.11,83.78
						C21.64,617.28,67.3,625.84,90.83,662.99z"/>
				</g>
			</g>
			<polygon fill="#2A2436" points="365.69,291.14 363.3,309.2 347.14,309.73 341.11,295 			"/>
			<polygon fill="#2A2436" points="142.15,318.33 107.63,335.42 110.86,350.89 142.15,334.61 			"/>
			<g>
				<g opacity="0.5">
					<g>
						<path fill="#818181" d="M312.24,281.13l36.35,50.34c0.84-9.33-0.21-18.62-2.82-26.66c-3.17-9.72-12.1-18.81-22.15-21.53
							C320.11,282.33,316.27,281.6,312.24,281.13z"/>
						<path fill="#818181" d="M274.63,284.06l59.51,82.42c1.97-1.94,3.69-4.12,5.25-6.56l-56.24-77.91
							C280.27,282.52,277.42,283.21,274.63,284.06z"/>
						<path fill="#818181" d="M289.77,374.62l-47.21-65.42C232.93,334.83,261.76,368.41,289.77,374.62z"/>
						<path fill="#E3E3E3" d="M242.56,309.2l47.21,65.42h0.03c0.28,0.07,0.58,0.15,0.86,0.2c21,4.24,34.54,0.58,43.48-8.34
							l-59.51-82.42c-9.77,2.89-18.72,7.62-25.38,14.6C246.11,301.94,243.92,305.49,242.56,309.2z"/>
					</g>
					<path fill="#E3E3E3" d="M283.15,282.01l56.24,77.91c2.27-3.56,4.14-7.56,5.7-11.99c1.88-5.32,3.02-10.85,3.51-16.4
						l-36.43-50.44C303.06,280,292.94,280.17,283.15,282.01z"/>
				</g>
				<g opacity="0.5">
					<path fill="#E3E3E3" d="M148.49,297.59l1.05,1.44c9.27-2.05,19.15-2.79,28.48-1.67l-0.51-0.7
						C168.41,295.57,158.27,295.75,148.49,297.59z"/>
				</g>
				<path fill="#2A2436" d="M290.26,376.78c-21.3-4.29-43.11-23.94-49.65-44.73c-4.22-13.42-1.74-25.45,7.19-34.78
					c18.07-18.91,52.8-22.34,76.31-15.96c10.42,2.83,20.11,12.24,23.58,22.9l0,0c4.5,13.84,4.24,30.44-0.7,44.39
					c-6.39,18.08-17.47,27.8-34.19,29.65C306.19,378.97,298.69,378.47,290.26,376.78z M343.87,305.44
					c-3.07-9.44-11.63-17.77-20.82-20.26c-22.4-6.07-55.36-2.93-72.35,14.86c-9.92,10.38-8.88,22.49-6.26,30.81
					c6.14,19.53,26.62,37.97,46.61,42c27.83,5.6,43.91-2.29,52.16-25.59C347.86,334.11,348.11,318.47,343.87,305.44L343.87,305.44z"
					/>
				<path fill="#2A2436" d="M239.36,327.18c0,0-2.26-8.57-11.39-8.01l-1.69-15.29c0,0,14.06-3.52,21.52-6.62
					C247.8,297.26,236.36,317.61,239.36,327.18z"/>
				<path opacity="0.5" fill="#818181" d="M113.11,358.46l0.08-0.23c1.66,5.09,3.91,10.01,6.78,14.59
					c2.48,3.98,5.19,7.47,8.18,10.46c2.05,2.03,4.21,3.78,6.56,5.24c8.13,5.13,18.18,6.71,31.13,3.34
					c4.08-1.07,8.46-2.61,13.13-4.71c0.26-0.11,0.54-0.25,0.79-0.38l0.03-0.01c5.43-2.53,10.61-6.26,15.3-10.76
					c1.98-1.88,3.85-3.9,5.63-6.03c5.72-6.91,10.29-14.92,13.02-23.11c4.09-12.17,4.11-24.62-2.2-34.26
					c-2.14-3.32-5.06-6.3-8.84-8.82c-8.02-5.36-17.79-8.02-27.96-8.7c-2.9-0.21-5.84-0.27-8.76-0.14
					c-9.63,0.34-19.21,2.29-27.67,5.17l0.05-0.09c-1.35,0.47-2.69,0.97-3.98,1.52c-0.16,0.07-0.29,0.11-0.41,0.18
					c-2.32,0.93-4.52,1.92-6.58,3.02c-8.6,4.5-15.12,14-16.99,23.49c-0.21,0.99-0.38,1.98-0.47,2.99
					C109.13,339.82,110.14,349.34,113.11,358.46z M199.55,368.32l-50.01-69.29c9.27-2.05,19.15-2.79,28.48-1.67l34.29,47.48
					C209.79,353.14,205.29,361.31,199.55,368.32z M159.76,391.09c-1.23-0.19-2.47-0.43-3.76-0.69c-0.28-0.05-0.58-0.12-0.86-0.2
					h-0.03l-43.14-59.79c1.16-9.66,7.55-19.28,15.77-23.63c4.04-2.12,8.6-3.99,13.41-5.5l52.8,73.13
					c-4.82,4.63-10.18,8.42-15.8,10.93c-6.64,2.97-12.76,4.89-18.37,5.74L159.76,391.09z"/>
				<path fill="#2A2436" d="M108.01,344.06c1.17,10.53,4.73,21.06,10.25,29.84c10.2,16.23,23.15,23.3,39.84,21.45
					c4.31-0.47,8.84-1.54,13.67-3.2l0.03-0.01c2.6-0.88,5.25-1.92,8-3.15c5.87-2.61,11.46-6.54,16.51-11.35
					c1.98-1.87,3.87-3.87,5.63-6.01c4.4-5.22,8.16-11.07,10.96-17.2c3.02-6.52,4.98-13.34,5.54-19.93c0.25-2.91,0.23-5.68-0.06-8.31
					c0-0.03,0-0.03,0-0.03c-1.1-10.16-6.04-18.37-14.56-24.04c-21.77-14.52-56.4-10.26-77.93,1.12c-5.42,2.83-10.13,7.69-13.4,13.41
					c-1.67,2.93-2.96,6.08-3.74,9.29c-0.44,1.59-0.72,3.18-0.87,4.78C107.48,335.07,107.52,339.57,108.01,344.06z M121.66,371.78
					c-7.42-11.83-11.07-27.04-9.8-40.66c0.03-0.24,0.05-0.46,0.11-0.71c1.16-9.66,7.55-19.28,15.77-23.63
					c4.04-2.12,8.6-3.99,13.41-5.5c2.7-0.89,5.52-1.66,8.39-2.25c9.27-2.05,19.15-2.79,28.48-1.67c8.64,1.01,16.79,3.58,23.58,8.1
					c11.94,7.96,13.57,20,12.84,28.69c-0.31,3.54-1.02,7.12-2.13,10.68c-2.53,8.3-7.03,16.47-12.77,23.48
					c-1.75,2.13-3.63,4.17-5.6,6.08c-4.82,4.63-10.18,8.42-15.8,10.93c-6.64,2.97-12.76,4.89-18.37,5.74l-0.03,0.01
					C143.57,393.64,131.43,387.33,121.66,371.78z"/>
				<path opacity="0.5" fill="#E3E3E3" d="M111.97,330.41l43.14,59.79h0.03c0.27,0.08,0.58,0.16,0.86,0.2
					c1.29,0.26,2.53,0.5,3.76,0.69l0.03-0.01c5.61-0.86,11.72-2.77,18.37-5.74c5.62-2.51,10.98-6.3,15.8-10.93l-52.8-73.13
					c-4.82,1.51-9.37,3.38-13.41,5.5C119.52,311.13,113.13,320.75,111.97,330.41z"/>
				<path opacity="0.5" fill="#E3E3E3" d="M149.54,299.03l50.01,69.29c5.74-7.01,10.24-15.18,12.77-23.48l-34.29-47.48
					C168.69,296.24,158.81,296.98,149.54,299.03z"/>
				<path fill="#2A2436" d="M218.6,329.46c0,0,0.33-8.85,9.36-10.3l-1.69-15.29c0,0-14.5-0.36-22.45-1.75
					C203.82,302.12,219.43,319.47,218.6,329.46z"/>
			</g>
		</g>
	</g>
</g>
</svg>
