<?xml version="1.0" encoding="utf-8"?>
<!-- Generator: Adobe Illustrator 25.2.3, SVG Export Plug-In . SVG Version: 6.00 Build 0)  -->
<svg version="1.1" id="Layer_1" xmlns="http://www.w3.org/2000/svg" xmlns:xlink="http://www.w3.org/1999/xlink" x="0px" y="0px"
	 viewBox="0 0 576 576" enable-background="new 0 0 576 576" xml:space="preserve">
<g>
	<g>
		<defs>
			<path id="SVGID_1_" d="M576,288c0,159.06-128.94,288-288,288C128.94,576,0,447.06,0,288C0,128.94,128.94,0,288,0
				C447.06,0,576,128.94,576,288z"/>
		</defs>
		<clipPath id="SVGID_2_">
			<use xlink:href="#SVGID_1_"  overflow="visible"/>
		</clipPath>
		<g clip-path="url(#SVGID_2_)">
			<path fill="#F9E3D9" d="M576,288c0,159.06-128.94,288-288,288C128.94,576,0,447.06,0,288C0,128.94,128.94,0,288,0
				C447.06,0,576,128.94,576,288z"/>
			<g>
				<path fill="#D65D3D" d="M553.41,614.58h58.77c1.85-50.24,41.82-184.79,8.5-218.16c-10.44-10.43-31.43-19.8-56.67-28.31
					C595.11,412.22,548.74,572.54,553.41,614.58z"/>
				<path fill="#F26640" d="M-61.19,614.58h614.6c-4.66-42.04,41.71-202.37,10.6-246.47c-16.74-5.63-35.32-10.87-53.9-15.79
					c-22.8-6.02-45.6-11.58-64.93-16.69c-24.85-6.62-44.07-12.52-50.28-17.96c-14.14-12.36-103.52-2.09-160.22,5.95
					c-27.37,3.86-47.13,7.2-47.13,7.2c-3.27,0-50.36,25.04-105.69,57.06c-26.77,15.51-55.44,32.64-82.02,49.3
					c-51.51,32.37-94.97,63.12-101.08,77.37c-7.44,17.37,5.63,39.42,21.18,65.84C-73.79,591.07-67.11,602.49-61.19,614.58z"/>
				<path fill="#D65D3D" d="M687.46,499.98c7.81,33.21,21.78,72.78,35.36,114.6h52.69c-12.79-35.35-25.58-68.73-32.92-97
					c-17.01-65.45-91.16-116.91-137.46-132.26C641.15,412.53,676.39,453.01,687.46,499.98z"/>
				<path fill="#F26640" d="M599.43,614.58h123.38c-13.58-41.82-27.55-81.39-35.36-114.6c-11.06-46.98-46.31-87.46-82.33-114.66
					c-1.42-0.47-2.88-0.95-4.25-1.34C600.87,383.98,607.13,530.96,599.43,614.58z"/>
				<path fill="#D65D3D" d="M-97.71,614.58c22.36-43.4,43.36-82.46,62.29-126.3c16.54-38.15,51.98-70.96,88.87-94.42
					C2.54,408.71-68.89,448.05-93.38,500.15c-18.63,39.73-39.62,74.8-61.97,114.44H-97.71z"/>
				<path fill="#F26640" d="M41.2,614.58c-0.87-49.66,23.19-154.18,34.9-201.97c3.78-15.28,6.26-24.77,6.26-24.77
					c-0.16,0-0.32,0.05-0.51,0.05c-8.19,0.87-17.83,2.91-28.39,5.98c-19.06,12.13-37.76,26.74-53.63,43.32
					c-14.81,15.47-27.21,32.6-35.2,50.99c0,0.05-0.04,0.08-0.04,0.12c-5.71,13.2-11.62,25.95-17.64,38.51
					c-8.66,18-17.68,35.6-27.01,53.59c-5.76,11.16-11.67,22.57-17.65,34.19H41.2z"/>
				<path fill="#D65D3D" d="M553.41,614.58h58.77c1.85-50.24,41.82-184.79,8.5-218.16c-10.44-10.43-31.43-19.8-56.67-28.31
					C595.11,412.22,548.74,572.54,553.41,614.58z"/>
				<path fill="#F26640" d="M-61.19,614.58h614.6c-4.66-42.04,41.71-202.37,10.6-246.47c-16.74-5.63-35.32-10.87-53.9-15.79
					c-22.8-6.02-45.6-11.58-64.93-16.69c-24.85-6.62-44.07-12.52-50.28-17.96c-14.14-12.36-103.52-2.09-160.22,5.95
					c-27.37,3.86-47.13,7.2-47.13,7.2c-3.27,0-50.36,25.04-105.69,57.06c-26.77,15.51-55.44,32.64-82.02,49.3
					c-51.51,32.37-94.97,63.12-101.08,77.37c-7.44,17.37,5.63,39.42,21.18,65.84C-73.79,591.07-67.11,602.49-61.19,614.58z"/>
				<path fill="#D65D3D" d="M687.46,499.98c7.81,33.21,21.78,72.78,35.36,114.6h52.69c-12.79-35.35-25.58-68.73-32.92-97
					c-17.01-65.45-91.16-116.91-137.46-132.26C641.15,412.53,676.39,453.01,687.46,499.98z"/>
				<path fill="#F26640" d="M599.43,614.58h123.38c-13.58-41.82-27.55-81.39-35.36-114.6c-11.06-46.98-46.31-87.46-82.33-114.66
					c-1.42-0.47-2.88-0.95-4.25-1.34C600.87,383.98,607.13,530.96,599.43,614.58z"/>
				<path fill="#F26640" d="M580.58,614.58h54.58l13.64-74.82c0,0-23.13-132.9-31.99-145.21c-8.86-12.3-52.81-26.45-52.81-26.45
					c-0.24,17.88-0.1,152.04,9.98,213C576.01,593.32,578.24,604.43,580.58,614.58z"/>
				<path fill="#D65D3D" d="M-97.71,614.58c22.36-43.4,43.36-82.46,62.29-126.3c16.54-38.15,51.98-70.96,88.87-94.42
					C2.54,408.71-68.89,448.05-93.38,500.15c-18.63,39.73-39.62,74.8-61.97,114.44H-97.71z"/>
				<path fill="#F26640" d="M41.2,614.58c-0.87-49.66,23.19-154.18,34.9-201.97c3.78-15.28,6.26-24.77,6.26-24.77
					c-0.16,0-0.32,0.05-0.51,0.05c-8.19,0.87-17.83,2.91-28.39,5.98c-19.06,12.13-37.76,26.74-53.63,43.32
					c-14.81,15.47-27.21,32.6-35.2,50.99c0,0.05-0.04,0.08-0.04,0.12c-5.71,13.2-11.62,25.95-17.64,38.51
					c-8.66,18-17.68,35.6-27.01,53.59c-5.76,11.16-11.67,22.57-17.65,34.19H41.2z"/>
				<g>
					<path fill="#352413" d="M301.8,479.94c-16.01,1.49-32.35,0.97-48.6-1.92c-100.52-17.94-115.9-103.85-116.26-113.04
						c8.59-10.3,32.9-17.22,62.73-21.91C197.43,358.04,187.03,455.95,301.8,479.94z"/>
					<path fill="#422C15" d="M301.84,479.94c-114.81-23.95-104.41-121.9-102.16-136.87c42.63-6.68,96.6-8.71,132.31-9.29
						c23.02-0.34,38.5-0.12,38.5-0.12s58.33-9.56,74.7,14.92C457.09,411.08,384.76,472.33,301.84,479.94z"/>
					<path fill="#F1ECC9" d="M314.13,482.17c-4.24-0.66-8.35-1.39-12.29-2.23c82.93-7.61,155.25-68.85,143.35-131.36
						c1.46,2.22,2.6,4.7,3.33,7.49C456.78,388.25,452.86,462.9,314.13,482.17z"/>
					<path fill="#F1ECC9" d="M314.13,482.17c-6.89,0.95-14.16,1.76-21.75,2.44c-160.06,14.16-155.43-119.64-155.43-119.64
						c0.35,9.19,15.74,95.11,116.26,113.04c16.25,2.88,32.59,3.41,48.6,1.92h0.04c1.8,0.41,3.68,0.76,5.56,1.1
						c0.24,0.05,0.43,0.09,0.62,0.14C310.01,481.52,312.06,481.87,314.13,482.17z"/>
					<path fill="#64411D" d="M422.02,385.3c-6.3,19.36-97.88,64.02-123.18,66.46c0,0-81.45-17.95-94.82-33.42
						c-1.6-1.83-2.99-4.56-4.22-7.98c-9.17-25.22-10.34-87.4-28.76-102.61c-20.91-17.35-7.6-67.16-8.14-74.31
						c-6.66-88.76,41.66-139.42,79.87-165.24c32.31-8.3,73.38-7.35,109.11,7.6c45.43,19.07,52.45,29.28,62.3,65.67
						c7.75,28.6,12.08,150.69,10.5,211.15l-0.05,1.42C424.21,369.85,423.34,381.25,422.02,385.3z"/>
					<path fill="#C96E3E" d="M346.21,357.58c-42.29-12.63-97.72,0.43-101.3,1.22C244.92,358.8,361.8,362.23,346.21,357.58z"/>
					<path fill="#C96E3E" d="M155.56,207.34c0,0-21.18-50.11-35.18-7.93c-14.01,42.18-0.62,66.82,5.42,75.15
						c6.05,8.33,19.05,38.42,28.16,29.33C163.07,294.8,155.56,207.34,155.56,207.34z"/>
					<path fill="#AD5E35" d="M150.91,228.52l-17.86-17.89c0,0-10.02,14.19-6.65,26.69c3.37,12.5,15.71,33.51,15.71,33.51
						S147.72,236.18,150.91,228.52z"/>
					<path fill="#F9A97E" d="M417.69,201.11c0,0,17.32-51.57,34.48-10.57c17.16,41,5.69,66.59,0.29,75.35
						c-5.4,8.76-16.08,39.75-25.86,31.38C416.83,288.9,417.69,201.11,417.69,201.11z"/>
					<path fill="#AD5E35" d="M423.93,221.89l16.46-19.2c0,0,11.06,13.4,8.65,26.11c-2.42,12.73-13.12,34.61-13.12,34.61
						S427.69,229.28,423.93,221.89z"/>
					<path fill="#FFFFFF" d="M325.69,204.68c4.42,4.77,7.79,20.37,35.56,19.84c27.78-0.53,29.56-26.71,29.56-26.71L325.69,204.68z"
						/>
					<path fill="#7D885B" d="M373.9,205.54c0.33,8.94-6.63,16.46-15.58,16.8c-8.94,0.33-16.46-6.63-16.8-15.58
						c-0.33-8.94,6.64-16.46,15.58-16.8C366.03,189.63,373.56,196.59,373.9,205.54z"/>
					<path fill="#313D23" d="M367.09,205.79c0.2,5.19-3.84,9.55-9.03,9.74c-5.19,0.2-9.55-3.84-9.74-9.03
						c-0.2-5.19,3.85-9.55,9.04-9.74C362.54,196.57,366.9,200.61,367.09,205.79z"/>
					<g>
						<path fill="#534030" d="M421.29,193.39c-3.73,3.03-90.92,18.81-101.27,17.92c-10.36-0.87-11.08-20.57-6.8-22.85
							c1.08-0.59,2.15-1.11,3.23-1.63c-0.45,6.59,2.15,15.91,9.19,16.51c8.41,0.74,67.76-9.61,91.56-15.1
							C420.58,190.74,422.05,192.75,421.29,193.39z"/>
						<path fill="#785D48" d="M417.19,188.23c-23.8,5.5-83.15,15.84-91.56,15.1c-7.05-0.6-9.65-9.92-9.19-16.51
							C365.26,162.61,404.57,178.83,417.19,188.23z"/>
					</g>
					<path fill="#FFFFFF" d="M251.72,209.62c-4.04,5.09-6.22,20.9-33.95,22.48c-27.73,1.58-31.5-24.39-31.5-24.39L251.72,209.62z"/>
					<path fill="#7D885B" d="M203.48,214.67c0.33,8.94,7.86,15.91,16.8,15.57c8.94-0.33,15.9-7.86,15.57-16.8
						c-0.34-8.94-7.86-15.92-16.8-15.58C210.11,198.2,203.14,205.73,203.48,214.67z"/>
					<path fill="#313D23" d="M210.28,214.41c0.2,5.19,4.56,9.23,9.74,9.04c5.19-0.2,9.23-4.56,9.04-9.74
						c-0.2-5.19-4.56-9.23-9.74-9.04C214.13,204.86,210.08,209.23,210.28,214.41z"/>
					<g>
						<path fill="#534030" d="M162.04,205.1c3.98,2.7,92.2,10.97,102.44,9.19c10.24-1.75,9.28-21.45,4.82-23.35
							c-1.12-0.49-2.24-0.93-3.36-1.35c1.01,6.53-0.77,16.04-7.74,17.24c-8.32,1.45-68.34-3.78-92.52-7.22
							C162.52,202.4,161.22,204.53,162.04,205.1z"/>
						<path fill="#785D48" d="M165.67,199.61c24.18,3.44,84.2,8.67,92.52,7.22c6.97-1.2,8.75-10.7,7.74-17.24
							C215.22,169.65,177.45,189.17,165.67,199.61z"/>
					</g>
					<path fill="#C96E3E" d="M285.21,227.67c-6.53-0.91-16.39-6.91-17.74,52.03c-0.04,1.6-0.07,3.27-0.11,4.98
						c-0.01,0.79-0.01,1.6-0.03,2.4c0,0-4.62,0.85-9.02,1.29c-3.98,0.4-7.8,0.49-7.85-0.64c-0.09-2.42,4.16-62.54,27.29-65.52
						C300.88,219.23,292.19,228.61,285.21,227.67z"/>
					<path fill="#C96E3E" d="M251.03,282.42c0,0-35.44,15.52-37.99,83.34c0,0,8.06-55.05,38.19-78.06L251.03,282.42z"/>
					<path fill="#C96E3E" d="M336.12,292.4c0,0,22.68,8.19,27.21,71.41c0,0,0.34-61.27-22.04-75.33L336.12,292.4z"/>
					<path fill="#C96E3E" d="M298.84,451.76c-25.35,2.44-105.68-28.36-130.64-53.89c-22.15-22.63-19.36-120.17-18.45-142
						c0.1-2.8,0.19-4.37,0.19-4.37s3.81-30.28,6.83-81.12c3.09-52.85,32.02-80.41,65.63-95.24c6.28-2.78,13.1-5.11,20.38-6.94
						c-38.21,25.83-86.53,76.48-79.87,165.24c0.54,7.15-12.76,56.96,8.14,74.31c18.42,15.21,19.59,77.39,28.76,102.61
						c1.22,3.43,2.62,6.16,4.22,7.98C217.39,433.81,298.84,451.76,298.84,451.76z"/>
					<path fill="#C96E3E" d="M315.21,294.42c0.64,4.19-12.72,9.32-21.26,8.65c-1.16-0.09-2.21-0.28-3.14-0.59
						c-0.58-0.19-1.11-0.44-1.58-0.73c-5.89-3.7-14-12.69-21.9-14.66c-1.23-0.32-2.49-0.44-3.72-0.35c-0.65,0.04-1.2,0.05-1.73,0.01
						c-6.59-0.41-2.16-6.8-2.16-6.8c1.12-0.54,4.14-0.85,7.74-0.24c2.69,0.5,5.71,1.5,8.46,3.34c2.41,1.6,4.6,3.84,6.21,6.91
						c1.83,3.53,5.66,4.76,10.11,4.98c0.1,0.01,0.19,0.01,0.31,0.03C302.27,295.33,314.66,290.94,315.21,294.42z"/>
					<path fill="#F1ECC9" d="M314.13,482.17c-4.24-0.66-8.35-1.39-12.29-2.23c82.93-7.61,155.25-68.85,143.35-131.36
						c1.46,2.22,2.6,4.7,3.33,7.49C456.78,388.25,452.86,462.9,314.13,482.17z"/>
					<path fill="#F1ECC9" d="M314.13,482.17c-6.89,0.95-14.16,1.76-21.75,2.44c-160.06,14.16-155.43-119.64-155.43-119.64
						c0.35,9.19,15.74,95.11,116.26,113.04c16.25,2.88,32.59,3.41,48.6,1.92h0.04c1.8,0.41,3.68,0.76,5.56,1.1
						c0.24,0.05,0.43,0.09,0.62,0.14C310.01,481.52,312.06,481.87,314.13,482.17z"/>
					<path fill="#F8FCFF" d="M346.21,357.58c-42.29-12.63-97.72,0.43-101.3,1.22C244.92,358.8,361.8,362.23,346.21,357.58z"/>
					<path fill="#543717" d="M155.56,207.34c0,0-21.18-50.11-35.18-7.93c-14.01,42.18-0.62,66.82,5.42,75.15
						c6.05,8.33,19.05,38.42,28.16,29.33C163.07,294.8,155.56,207.34,155.56,207.34z"/>
					<path fill="#030303" d="M150.91,228.52l-17.86-17.89c0,0-10.02,14.19-6.65,26.69c3.37,12.5,15.71,33.51,15.71,33.51
						S147.72,236.18,150.91,228.52z"/>
					<path fill="#543717" d="M417.69,201.11c0,0,17.32-51.57,34.48-10.57c17.16,41,5.69,66.59,0.29,75.35
						c-5.4,8.76-16.08,39.75-25.86,31.38C416.83,288.9,417.69,201.11,417.69,201.11z"/>
					<path fill="#030303" d="M423.93,221.89l16.46-19.2c0,0,11.06,13.4,8.65,26.11c-2.42,12.73-13.12,34.61-13.12,34.61
						S427.69,229.28,423.93,221.89z"/>
					<path fill="#FFFFFF" d="M325.69,204.68c4.42,4.77,7.79,20.37,35.56,19.84c27.78-0.53,29.56-26.71,29.56-26.71L325.69,204.68z"
						/>
					<path fill="#7D885B" d="M373.9,205.54c0.33,8.94-6.63,16.46-15.58,16.8c-8.94,0.33-16.46-6.63-16.8-15.58
						c-0.33-8.94,6.64-16.46,15.58-16.8C366.03,189.63,373.56,196.59,373.9,205.54z"/>
					<path fill="#313D23" d="M367.09,205.79c0.2,5.19-3.84,9.55-9.03,9.74c-5.19,0.2-9.55-3.84-9.74-9.03
						c-0.2-5.19,3.85-9.55,9.04-9.74C362.54,196.57,366.9,200.61,367.09,205.79z"/>
					<g>
						<path fill="#030303" d="M421.29,193.39c-3.73,3.03-90.92,18.81-101.27,17.92c-10.36-0.87-11.08-20.57-6.8-22.85
							c1.08-0.59,2.15-1.11,3.23-1.63c-0.45,6.59,2.15,15.91,9.19,16.51c8.41,0.74,67.76-9.61,91.56-15.1
							C420.58,190.74,422.05,192.75,421.29,193.39z"/>
						<path fill="#030303" d="M417.19,188.23c-23.8,5.5-83.15,15.84-91.56,15.1c-7.05-0.6-9.65-9.92-9.19-16.51
							C365.26,162.61,404.57,178.83,417.19,188.23z"/>
					</g>
					<path fill="#FFFFFF" d="M251.72,209.62c-4.04,5.09-6.22,20.9-33.95,22.48c-27.73,1.58-31.5-24.39-31.5-24.39L251.72,209.62z"/>
					<path fill="#7D885B" d="M203.48,214.67c0.33,8.94,7.86,15.91,16.8,15.57c8.94-0.33,15.9-7.86,15.57-16.8
						c-0.34-8.94-7.86-15.92-16.8-15.58C210.11,198.2,203.14,205.73,203.48,214.67z"/>
					<path fill="#313D23" d="M210.28,214.41c0.2,5.19,4.56,9.23,9.74,9.04c5.19-0.2,9.23-4.56,9.04-9.74
						c-0.2-5.19-4.56-9.23-9.74-9.04C214.13,204.86,210.08,209.23,210.28,214.41z"/>
					<g>
						<path fill="#030303" d="M162.04,205.1c3.98,2.7,92.2,10.97,102.44,9.19c10.24-1.75,9.28-21.45,4.82-23.35
							c-1.12-0.49-2.24-0.93-3.36-1.35c1.01,6.53-0.77,16.04-7.74,17.24c-8.32,1.45-68.34-3.78-92.52-7.22
							C162.52,202.4,161.22,204.53,162.04,205.1z"/>
						<path fill="#030303" d="M165.67,199.61c24.18,3.44,84.2,8.67,92.52,7.22c6.97-1.2,8.75-10.7,7.74-17.24
							C215.22,169.65,177.45,189.17,165.67,199.61z"/>
					</g>
					<path fill="#2E1A0E" d="M285.21,227.67c-6.53-0.91-16.39-6.91-17.74,52.03c-0.04,1.6-0.07,3.27-0.11,4.98
						c-0.01,0.79-0.01,1.6-0.03,2.4c0,0-4.62,0.85-9.02,1.29c-3.98,0.4-7.8,0.49-7.85-0.64c-0.09-2.42,4.16-62.54,27.29-65.52
						C300.88,219.23,292.19,228.61,285.21,227.67z"/>
					<path fill="#2E1A0E" d="M251.03,282.42c0,0-35.44,15.52-37.99,83.34c0,0,8.06-55.05,38.19-78.06L251.03,282.42z"/>
					<path fill="#2E1A0E" d="M336.12,292.4c0,0,22.68,8.19,27.21,71.41c0,0,0.34-61.27-22.04-75.33L336.12,292.4z"/>
					<path fill="#352413" d="M298.84,451.76c-25.35,2.44-105.68-28.36-130.64-53.89c-22.15-22.63-19.36-120.17-18.45-142
						c0.1-2.8,0.19-4.37,0.19-4.37s3.81-30.28,6.83-81.12c3.09-52.85,32.02-80.41,65.63-95.24c6.28-2.78,13.1-5.11,20.38-6.94
						c-38.21,25.83-86.53,76.48-79.87,165.24c0.54,7.15-12.76,56.96,8.14,74.31c18.42,15.21,19.59,77.39,28.76,102.61
						c1.22,3.43,2.62,6.16,4.22,7.98C217.39,433.81,298.84,451.76,298.84,451.76z"/>
					<path fill="#050303" d="M424.69,352.61c1.58-60.46-2.74-182.56-10.5-211.15c-9.85-36.39-16.87-46.6-62.3-65.67
						c-35.73-14.94-76.8-15.9-109.11-7.6c-7.28,1.83-14.1,4.16-20.38,6.94c-33.61,14.83-62.54,42.39-65.63,95.24
						c-3.02,50.84-6.83,81.12-6.83,81.12s-0.09,1.58-0.19,4.37c0.22-8.39,0.51-13.54,0.51-13.54s3.81-30.32,6.82-81.17
						c3.09-52.81,32.02-80.41,65.63-95.2c6.28-2.78,13.1-5.1,20.38-6.98c32.32-8.25,73.38-7.35,109.11,7.64
						c45.44,19.06,52.45,29.27,62.31,65.63C422.64,162.4,427.03,296.27,424.69,352.61z"/>
					<path fill="#2E1A0E" d="M315.21,294.42c0.64,4.19-12.72,9.32-21.26,8.65c-1.16-0.09-2.21-0.28-3.14-0.59
						c-0.58-0.19-1.11-0.44-1.58-0.73c-5.89-3.7-14-12.69-21.9-14.66c-1.23-0.32-2.49-0.44-3.72-0.35c-0.65,0.04-1.2,0.05-1.73,0.01
						c-6.59-0.41-2.16-6.8-2.16-6.8c1.12-0.54,4.14-0.85,7.74-0.24c2.69,0.5,5.71,1.5,8.46,3.34c2.41,1.6,4.6,3.84,6.21,6.91
						c1.83,3.53,5.66,4.76,10.11,4.98c0.1,0.01,0.19,0.01,0.31,0.03C302.27,295.33,314.66,290.94,315.21,294.42z"/>
					<path fill="#050303" d="M164.15,192.9L164.15,192.9c-4.56-0.16-8.15-4.02-8-8.57l1.83-52.64c0.16-4.55,4.01-8.15,8.57-7.99l0,0
						c4.55,0.16,8.15,4.01,7.99,8.57l-1.82,52.63C172.56,189.46,168.71,193.06,164.15,192.9z"/>
					<path fill="#050303" d="M186.08,158.37L186.08,158.37c-4.56-0.16-8.16-4.01-8-8.57l1.83-52.63c0.16-4.56,4.01-8.16,8.57-8l0,0
						c4.55,0.16,8.15,4.01,7.99,8.57l-1.82,52.63C194.49,154.92,190.63,158.52,186.08,158.37z"/>
					<path fill="#050303" d="M210.34,134.58L210.34,134.58c-4.56-0.16-8.16-4.01-7.99-8.57l1.82-52.64c0.16-4.56,4.01-8.16,8.57-8
						l0,0c4.55,0.16,8.15,4.02,7.99,8.57l-1.82,52.64C218.75,131.14,214.89,134.74,210.34,134.58z"/>
					<path fill="#050303" d="M238.58,120.29L238.58,120.29c-4.56-0.16-8.16-4.01-8-8.57l1.82-52.63c0.16-4.56,4.02-8.16,8.57-8l0,0
						c4.56,0.16,8.16,4.02,8,8.57l-1.82,52.64C246.98,116.85,243.13,120.45,238.58,120.29z"/>
					<path fill="#050303" d="M263.66,114.27L263.66,114.27c-4.56-0.16-8.16-4.02-8-8.57l1.82-52.64c0.16-4.56,4.02-8.16,8.57-8l0,0
						c4.56,0.16,8.16,4.01,8,8.57l-1.82,52.64C272.07,110.83,268.21,114.42,263.66,114.27z"/>
					<path fill="#050303" d="M289.51,113.68L289.51,113.68c-4.56-0.16-8.16-4.02-8-8.57l1.82-52.64c0.16-4.56,4.02-8.16,8.57-7.99
						l0,0c4.56,0.16,8.16,4.01,8,8.57l-1.82,52.63C297.92,110.24,294.06,113.84,289.51,113.68z"/>
					<path fill="#050303" d="M314.55,118.16L314.55,118.16c-4.56-0.16-8.15-4.01-8-8.57l1.83-52.64c0.16-4.55,4.01-8.15,8.57-8l0,0
						c4.55,0.16,8.15,4.02,7.99,8.57l-1.82,52.64C322.96,114.72,319.11,118.32,314.55,118.16z"/>
					<path fill="#050303" d="M341.31,128.28L341.31,128.28c-4.56-0.16-8.16-4.01-8-8.57l1.83-52.64c0.16-4.55,4.01-8.15,8.57-7.99
						l0,0c4.55,0.16,8.15,4.01,7.99,8.57l-1.82,52.63C349.72,124.84,345.87,128.44,341.31,128.28z"/>
					<path fill="#050303" d="M366.52,137.03L366.52,137.03c-4.56-0.16-8.15-4.01-7.99-8.57l1.82-52.64
						c0.16-4.56,4.01-8.15,8.57-7.99l0,0c4.56,0.16,8.15,4.01,8,8.57l-1.83,52.63C374.93,133.59,371.07,137.19,366.52,137.03z"/>
					<path fill="#050303" d="M390.69,157.24L390.69,157.24c-4.56-0.16-8.16-4.01-7.99-8.57l1.82-52.63c0.16-4.56,4.01-8.16,8.57-8
						l0,0c4.55,0.16,8.15,4.02,7.99,8.57l-1.82,52.64C399.1,153.8,395.25,157.4,390.69,157.24z"/>
					<path fill="#050303" d="M408.88,184.79L408.88,184.79c-4.56-0.16-8.16-4.02-8-8.58l1.83-52.63c0.16-4.56,4.01-8.16,8.57-8l0,0
						c4.55,0.16,8.15,4.01,7.99,8.57l-1.82,52.64C417.29,181.35,413.43,184.95,408.88,184.79z"/>
					<path fill="#050303" d="M359.71,332.38c-3.16-6.55-11.35-11.24-22.24-14.33l0.23,0.39c0,0-25.14-4.64-43.76,1.95
						c0,0-24.73-6.21-42.88-3.07c-1.35,0.22-2.17,0.3-2.61,0.21c-12.31,3.91-24.07,11.45-26.55,26.09
						c-6.49,38.32-7.82,83.57,9.11,91.69c16.98,8.12,58.65,27.95,70.55,25.5c11.9-2.37,64.89-29.52,67.17-33.92
						C376.12,412.53,364.26,341.96,359.71,332.38z M343.23,395.12c-25.04,2.33-34.22-16.95-34.22-16.95l-21.72,1.54
						c-14.63,26.34-57.65,23.49-47.7-16.42s60.64-35,60.64-35C373.45,319,356.08,393.92,343.23,395.12z"/>
				</g>
			</g>
		</g>
	</g>
</g>
</svg>
