<?xml version="1.0" encoding="utf-8"?>
<!-- Generator: Adobe Illustrator 25.2.3, SVG Export Plug-In . SVG Version: 6.00 Build 0)  -->
<svg version="1.1" id="Layer_1" xmlns="http://www.w3.org/2000/svg" xmlns:xlink="http://www.w3.org/1999/xlink" x="0px" y="0px"
	 viewBox="0 0 576 576" enable-background="new 0 0 576 576" xml:space="preserve">
<g>
	<g>
		<defs>
			<path id="SVGID_1_" d="M576,287.98c0,158.67-128.63,287.3-287.3,287.3S1.4,446.64,1.4,287.98C1.4,129.3,130.02,0.67,288.7,0.67
				S576,129.3,576,287.98z"/>
		</defs>
		<use xlink:href="#SVGID_1_"  overflow="visible" fill="#F9E3D9"/>
		<clipPath id="SVGID_2_">
			<use xlink:href="#SVGID_1_"  overflow="visible"/>
		</clipPath>
		<g clip-path="url(#SVGID_2_)">
			<path fill="#23243A" d="M242.68,491.22c0,0,57.08-32.9,138.46-1.87c81.09,30.92-152.08,45.44-152.08,45.44
				S220.88,505.3,242.68,491.22z"/>
			<path fill="#171725" d="M222.51,553.59c-6.34,56.63-21.93,114.01-32.98,149.81h25.59c12.03-35.52,29.04-92.07,36.93-148.2
				c3.47-24.32-33.02-52.01-56.21-43.75c-1.61,0.58-3.03,1.12-4.35,1.8C208.84,520.48,224.32,537.52,222.51,553.59z"/>
			<path fill="#23243A" d="M189.53,703.4c11.05-35.8,26.64-93.18,32.98-149.81c1.81-16.07-13.68-33.11-31.02-40.35
				c-0.05,0-0.05,0-0.05,0c-10.5,4.89-13.63,12.16-22.27,34.58c-18.45,47.93-29.32,118.74-34.07,155.58H189.53z"/>
			<path fill="#7D451D" d="M137.1,143.11c0,0-13.46,28.6-13.43,70.41c0.01,19.9,4,54.22,13.35,80.76
				c9.69,27.5,8.6,130.83-9.5,153.89c0,0,100.59,28.86,127.87-28.79C322.62,277.27,156.21,155.66,137.1,143.11z"/>
			<path fill="#FFF3E0" d="M436.08,590.26c-4.15,5.67-13.43,24.96-23.25,51.18l-27.06-47.08c0,0-33.16,69.99-50.25,83.02
				c-17.09,12.99-59.63,1.61-110.13,0c-28.22-0.93-39.41-17.23-43.75-31.69v-0.05c0.24-5.71,1.41-12.06,3.66-19.15
				c19.44-60.9,2.64-104.7,2.64-104.7s244.72-33.07,253.86,11.38C450.92,577.57,436.08,590.26,436.08,590.26z"/>
			<path fill="#F58138" d="M347.97,480.28c-7.72,9.62-21.19,22.86-42.39,32.48c-26.71,12.06-35.21-14.7-37.84-30.81
				c29.3-31.75,1.22-98.4,1.22-98.4l67.15-43.12C336.1,340.42,308.61,447.71,347.97,480.28z"/>
			<path fill="#F9AB79" d="M347.97,251.04c-0.25,23.83-12.94,128.34-53.28,157.25c-24.81,9.47-49.03,12.31-62.51,10.65
				c-29.99-3.66-61.1-91.57-72.18-115.98c-11.14-24.43,8.88-135.53,8.88-135.53c4.88-36.53,48.79-45.66,95.87-42.83l-13.04,11.09
				c0,0,17.2,75.11,48.06,90.05C330.64,240.69,348.22,227.21,347.97,251.04z"/>
			<path fill="#FFF3E0" d="M437.49,525.76c0,0-256.24,7.72-251.36-5.27c4.89-13.04,9.17-5.09,64.51-27.06
				c7.18-2.83,12.75-6.78,17.1-11.47c2.63,16.11,11.13,42.88,37.84,30.81c21.2-9.62,34.68-22.86,42.39-32.48
				c4,3.32,8.64,6.08,14.16,7.43C430.17,504.23,437.49,525.76,437.49,525.76z"/>
			<path fill="#3A160F" d="M157.39,254.72c-1.06,0.48,8.33-14.86,17.26-16.41c8.93-1.54,25.12-4.34,30.33-1.17
				c2.55,1.55,4.96,10.96,4.04,15.19c0,0-9.25-4.79-13.73-4.33C190.81,248.47,170.6,248.7,157.39,254.72z"/>
			<g>
				<path fill="#F68E5A" d="M209.53,287.53l-46.48-2.79c1.25-4.29,5.2-12.31,17.38-15.99C198.7,263.35,209.53,287.53,209.53,287.53z
					"/>
				<path fill="#4B2524" d="M209.53,287.53h-47.04l-4.88-3.12l5.44,0.34c1.25-4.29,5.2-12.31,17.38-15.99
					C198.7,263.35,209.53,287.53,209.53,287.53z"/>
				<path fill="#FFFFFF" d="M209.53,287.53c-3.99,3.23-7.9,5.51-11.57,7.08c-2.56,1.06-5.02,1.72-7.35,2.12
					c-5.44,0.95-10.28,0.33-14.32-0.89c-2.84-0.89-5.35-2.06-7.34-3.28c-4.14-2.51-6.47-5.01-6.47-5.01s0.05-1.11,0.56-2.79
					c1.25-4.29,5.2-12.31,17.38-15.99C198.7,263.35,209.53,287.53,209.53,287.53z"/>
				<g>
					<path fill="#2BAAE2" d="M197.66,280.53c0,9.32-6.3,16.87-14.08,16.87s-14.07-7.55-14.07-16.87s6.3-16.87,14.07-16.87
						S197.66,271.21,197.66,280.53z"/>
					<ellipse fill="#3A160F" cx="183.58" cy="280.53" rx="8.9" ry="10.67"/>
					<ellipse fill="#FFFFFF" cx="175.08" cy="279.63" rx="3.26" ry="3.91"/>
				</g>
				<path fill="#F68E5A" d="M209.49,287.03c-0.29-3.34-2.79-21.06-21.94-23.96c-21.2-3.23-29.94,21.34-29.94,21.34
					c2.14-14.2,11.44-36.83,34.07-31.81C207.62,256.1,209.35,282.9,209.49,287.03z"/>
				<path fill="#4B2524" d="M209.53,287.53c0,0-10.83-24.18-29.1-18.78c-12.18,3.68-16.13,11.7-17.38,15.99l-5.44-0.34
					c0,0,8.74-24.57,29.94-21.34c19.15,2.9,21.66,20.62,21.94,23.96C209.53,287.36,209.53,287.53,209.53,287.53z"/>
			</g>
			<g>
				<path fill="#4B2524" d="M322.62,272.7l-6.49,4.85l-68.6,7.13c0,0,8.57-21.67,29.24-26.58c15.89-3.79,30.48,9.63,36.5,16.1
					L322.62,272.7z"/>
				<g>
					<path fill="#F68E5A" d="M317.65,273.41c-1.3-1.68-18.43-23.24-44.25-22.35c-26.89,0.95-30.85,34.43-30.85,34.43
						s-7.26-44.01,27-45.79C302.85,238.03,316.82,271.4,317.65,273.41z"/>
					<path fill="#FFFFFF" d="M311.21,278.37c-6.8,7.68-13.87,12.37-20.77,15.04c-3.84,1.45-7.68,2.35-11.37,2.68
						c-5.19,0.5-10.13,0.06-14.59-0.89c-4.05-0.89-7.74-2.17-10.85-3.51c-6.8-2.95-11.01-6.19-11.01-6.19s8.57-21.67,29.23-26.57
						c15.89-3.79,30.48,9.63,36.5,16.1C310.17,277.03,311.21,278.37,311.21,278.37z"/>
					<g>
						<path fill="#2BAAE2" d="M287.86,274.64c0,10.48-7.92,18.98-17.69,18.98c-9.77,0-17.69-8.49-17.69-18.98
							c0-10.48,7.92-18.98,17.69-18.98C279.94,255.66,287.86,264.16,287.86,274.64z"/>
						<path fill="#3A160F" d="M281.36,274.64c0,6.63-5.02,12.01-11.2,12.01c-6.17,0-11.19-5.38-11.19-12.01
							c0-6.63,5.01-12.01,11.19-12.01C276.35,262.64,281.36,268.01,281.36,274.64z"/>
						<path fill="#FFFFFF" d="M263.58,273.62c0,2.43-1.83,4.39-4.1,4.39c-2.25,0-4.09-1.96-4.09-4.39c0-2.42,1.83-4.39,4.09-4.39
							C261.74,269.23,263.58,271.2,263.58,273.62z"/>
					</g>
					<path fill="#4B2524" d="M317.7,273.52l-9.35,1.5c-6.03-6.47-20.62-19.89-36.5-16.1c-20.67,4.9-29.23,26.57-29.23,26.57h-0.06
						c0,0,3.95-33.48,30.85-34.43c25.81-0.89,42.94,20.67,44.25,22.35C317.7,273.46,317.7,273.52,317.7,273.52z"/>
				</g>
			</g>
			<path fill="#AB2623" d="M235.78,330.44c-1.61,5.22-15.06-0.19-22.54,0.58c-7.47,0.84-8.63,5.86-17.13-2.57
				c-3.28-3.35-4.24-6.38-3.73-9.21c0.9-4.39,5.41-8.25,10.56-12.17c8.5-6.44,2.45-36.59,2.45-36.59
				c6.25,4.39,4.83,29.95,3.41,35.04c-0.97,3.35-6.57,7.86-10.44,11.72c-1.93,1.87-3.41,3.61-3.67,4.96
				c-0.78,3.99,7.41,10.63,12.69,7.41c5.35-3.22,11.08,0,18.1,0.84c7.09,0.84,7.86-2.19,8.89-6.44c0.58-2.51-2.13-4.64-4.51-5.99
				l-1.41-0.71c-0.07-0.07-0.13-0.07-0.13-0.07c-0.97-0.45-1.61-0.71-1.61-0.71c3.61-0.52,6.12,1.09,7.6,3.54
				C236.29,323.16,236.68,327.54,235.78,330.44z"/>
			<path fill="#F68E5A" d="M234.36,324c-1.03,4.25-1.8,7.28-8.89,6.44c-7.02-0.84-12.75-4.06-18.1-0.84
				c-5.28,3.22-13.46-3.41-12.69-7.41c0.26-1.35,1.74-3.09,3.67-4.96c4.9,1.94,17.84,6.57,24.28,3.8c6.51-2.77,6.18-3.54,5.8-3.73
				l1.41,0.71C232.24,319.36,234.94,321.49,234.36,324z"/>
			<path opacity="0.33" fill="#FFFFFF" d="M211.76,324.23c-0.17,1.27-3.68,1.84-7.83,1.26c-4.15-0.58-7.36-2.08-7.18-3.35
				c0.17-1.28,3.68-1.85,7.82-1.26C208.72,321.45,211.93,322.95,211.76,324.23z"/>
			<g>
				<path fill="#EF435C" d="M220.09,373.71c0,0-5.7-20.84,3.17-15.96c8.87,4.89,10.08-6.34,18.5-3.02
					c8.42,3.32,34.01,1.46,38.07-2.49C279.83,352.25,241.47,381.31,220.09,373.71z"/>
				<g>
					<path fill="#C42126" d="M219.56,373.34c0,0,0.19,0.16,0.53,0.37c3.1,1.85,19.86,9.03,59.74-21.47
						c0.95-0.69,1.91-1.43,2.84-2.16c0,0-1.7,1-4.6,2.57c-11.3,6.08-40.7,20.95-57.78,20.67l-0.01,0.03
						C220.02,373.38,219.79,373.36,219.56,373.34z"/>
					<path fill="#EF435C" d="M233.81,387.67c25.24,0.7,43.19-31.5,46.02-35.42c-39.87,30.5-56.64,23.31-59.74,21.47
						C220.39,387.68,233.81,387.67,233.81,387.67z"/>
				</g>
			</g>
			<path fill="#3A160F" d="M311.96,237.59c1.5,0.24-13.98-12.16-26.14-11.82c-12.17,0.34-34.22,0.95-40.53,4.94
				c-3.08,1.95-4.46,11.18-2.4,14.94c0,0,11.35-6.3,17.4-6.76C266.33,238.41,293.23,234.61,311.96,237.59z"/>
			<path fill="#F89B60" d="M369.26,339.58c-13.18,35.61-44.29,57.15-74.57,68.72c40.35-28.91,53.04-133.42,53.28-157.25
				s-17.34-10.35-48.2-25.3c-30.86-14.94-48.06-90.05-48.06-90.05l13.04-11.09c56.75,3.37,118.13,24.17,121.8,35.51
				C393.2,180.86,393.2,274.87,369.26,339.58z"/>
			<path fill="#A05725" d="M339.34,116.65c-20.37,12.47-44.44,24.93-67.93,31.68c-4.06,1.21-8.13,2.2-12.12,3.01
				c-2.91-5.84-5.49-11.22-7.59-15.63c-3.51-7.42-18.94-9.27-18.94-9.27C234.13,97.79,310.56,109.01,339.34,116.65z"/>
			<path fill="#A05725" d="M363.09,230.58c-3.7-4.69-8.69-7.54-14.33-9.28c-15.72-4.85-36.49-1.11-47.78-4.77
				c-4.63-1.5-11.45-10.5-18.71-22.37c-0.1-8.08,1.41-20.71,10.16-30.63c10.06-11.42,29.71-19.23,67.6-12.21
				C366.12,187.94,372.54,242.67,363.09,230.58z"/>
			<path fill="#A05725" d="M344.31,107.88c-20.99,12.84-39.56,29.8-63.75,36.76c-11.34-7.81-16.34-7.48-16.34-7.48
				c-0.36-0.05-0.3,15.95-0.63,16.09c-103.89,44.6-125.87,98.42-125.87,98.42s-20.51-79.6,8.34-129.42
				c27.32-47.15,104.51-97.17,197.06-62.21c10.88,4.11,22.27,10.65,33.76,23.84C367.86,90.45,357.14,100.04,344.31,107.88z"/>
			<path fill="#A05725" d="M462.53,364.75c-19.11,90.42-162.77,90.92-162.77,90.92s18.81-36,35.76-81.77
				C390.15,335.52,437.83,349.32,462.53,364.75z"/>
			<g>
				<path fill="#F57F42" d="M349.1,320.96c-6.58-16.1-4.08-34.6,7.09-49.82c7.49-9.23,18.03-16.23,28.9-9.73
					c17.51,10.97,17.65,53.78-3.11,74.13c-7.39,7.98-18.51,7.55-24.8-0.57C354.4,331.46,351.47,326.84,349.1,320.96z"/>
				<path fill="#E96B42" d="M386.34,283.33c0,0,2.81,8.11-1.66,5.87c-4.47-2.24-18.23-8.36-15.15,1.28
					c3.08,9.63,14.11,14.84,7.87,22.97c-6.23,8.13-6.96,6.91-9.63,4.57c0,0,7.49-4.31,6.08-9.02c-1.41-4.71-0.05-8.77-0.48-8.68
					c-0.44,0.09-7.28-3.21-7.28-3.21l-3.78-8.97l2-6.93l13.18-5.68C377.49,275.54,384.58,277.9,386.34,283.33z"/>
				<path fill="#C84830" d="M371.01,275.79c0,0,14.79-1.99,13.3,8.58c-1.5,10.57,1.91-7.63-9.4-4.52
					c-11.31,3.12-10.94,1.46-11.22,7.44c-0.29,5.98,2.86,8.2,10.23,11.42c7.36,3.23-3.38,22.79-6.63,19.81
					c-3.53-3.23,10.48-13.49,4.82-16.66c-5.66-3.18-13.88-9.1-12.55-14.9C360.89,281.17,367.93,276.29,371.01,275.79z"/>
			</g>
			<path fill="#A05725" d="M451.69,245.4c-26.17,51.95-71.02,50.5-94.29,45.5c4.61-28.84,4.6-56.16-4.04-76.98
				c-1.88-4.57-4.19-8.79-6.95-12.69c-10.38-14.54-31.59-32.26-51.07-46.8c10.35-11.76,30.6-19.81,69.62-12.57
				c15.66,2.9,34.29,8.26,56.52,16.85C433.53,185.62,444.04,215.63,451.69,245.4z"/>
			<path fill="#BC6428" d="M464.15,354.72c-0.3,3.36-0.79,6.61-1.39,9.77c-25.79-14.85-72.51-29.29-128.18,10.36
				c9.48-26.23,18.34-55.81,22.81-83.96c23.27,5,68.12,6.45,94.29-45.5C461.83,284.75,466.98,323.69,464.15,354.72z"/>
			<path fill="#AFCEB8" d="M229.25,695.51c0,0-0.11,3.03-0.3,7.89h70.35l-0.65-20.2c-20.03-1.07-45.47-4.93-73.26-5.81
				c-28.22-0.93-39.41-17.24-43.75-31.69C179.83,689.16,229.25,695.51,229.25,695.51z"/>
			<path fill="#BC6428" d="M376.87,83.9c-9.59,7.34-17.24,13.99-30.9,22.77c-22.35,14.38-48.74,28.72-74.54,36.44
				c-4.46,1.39-10.32,2.57-14.69,3.49c7.42,15.87,18.17,34.74,26.89,49.71c-0.15-9.17,1.45-23.37,10.48-34.71
				c0.05,0.04,0.09,0.07,0.14,0.11c14.29-12.22,33-23.05,74.68-14.74c16.73,3.33,31.94,8.82,55.7,18.58
				C410.04,131.27,393.53,104.12,376.87,83.9z"/>
			<path fill="#23243A" d="M263.58,580.64l-10.41,98.51c-45.02,3.47-62.51-29.16-70.32-50.3c6.01-44.19,2.83-112.08,2.83-112.08
				s4.44-3.61,11.68-5.86c13.43-4.2,33.06-14.36,45.32-19.68C241.9,493.32,217.04,556.72,263.58,580.64z"/>
			<path fill="#171725" d="M393.16,703.4c2.01-7.76,4.14-15.44,6.38-22.84c0.05-0.05,0.05-0.09,0.05-0.14
				c0.05-0.25,0.1-0.4,0.15-0.49c4.2-13.83,8.69-26.86,13.09-38.49l-27.06-47.08c0,0-33.16,69.99-50.25,83.02
				c-7.67,5.81-20.51,6.74-36.87,5.81l0.65,20.2H393.16z"/>
			<path fill="#AFCEB8" d="M462.21,703.4h27.7c-4.9-34.97-16.23-101.85-37.83-162.71c-4.35-12.25-16.9-23.14-30.23-27.98
				c1.61,2.78,2.84,5.66,3.71,8.64C445.54,587.69,456.75,660.18,462.21,703.4z"/>
			<path fill="#23243A" d="M408.77,703.4h53.44c-5.46-43.22-16.68-115.71-36.64-182.04c-0.87-2.98-2.1-5.86-3.71-8.64
				c-11.86-4.4-24.37-3.96-32.23,4.54c-10.26,11.09-17.54,28.32-14.45,55.18C379.86,613.9,395.99,666.41,408.77,703.4z"/>
			<path fill="#23243A" d="M335.52,677.39c17.09-13.04,50.25-83.02,50.25-83.02l27.06,47.08c-4.4,11.62-8.89,24.66-13.09,38.49
				c1.66,6.87,4.09,14.83,7.06,23.47h85.01c-11.66-66.16-27.62-146.04-40.11-168.62c-22.42-40.44-70.56-45.43-70.56-45.43
				c-9.38,73.4-85.82,93.05-85.82,93.05l3.32,100.8C315.01,684.13,327.85,683.2,335.52,677.39z"/>
			<path fill="#171725" d="M214.55,697.12l-0.54,6.28h36.63l2.55-24.11v-0.14c-45.02,3.47-62.51-29.16-70.32-50.3
				c-0.69,5.42-1.56,10.5-2.59,15.04C170.84,685.5,214.55,697.12,214.55,697.12z"/>
			<path fill="#A05725" d="M376.87,83.9c0,0-207.36,117-239.16,167.78c0,0-30.78-122.08,82.38-140.14
				C333.25,93.49,376.87,83.9,376.87,83.9z"/>
		</g>
	</g>
</g>
</svg>
