<?xml version="1.0" standalone="yes"?>
<svg width="534" height="535">
<path style="fill:#ffffff; stroke:none;" d="M0 0L0 535L534 535L534 0L0 0z"/>
<path style="fill:#f4f4f4; stroke:none;" d="M383 275L384 276L383 275z"/>
<path style="fill:#f8f8f8; stroke:none;" d="M384 275L385 276L384 275z"/>
<path style="fill:#fafafa; stroke:none;" d="M385 275L386 276L385 275z"/>
<path style="fill:#fefefe; stroke:none;" d="M386 275L387 276L386 275z"/>
<path style="fill:#fbfbfb; stroke:none;" d="M421 275L422 276L421 275z"/>
<path style="fill:#fafafa; stroke:none;" d="M422 275L423 276L422 275z"/>
<path style="fill:#f8f8f8; stroke:none;" d="M423 275L424 276L423 275z"/>
<path style="fill:#f4f4f4; stroke:none;" d="M424 275L425 276L424 275z"/>
<path style="fill:#fefefe; stroke:none;" d="M439 278L440 279L439 278z"/>
<path style="fill:#fbfbfb; stroke:none;" d="M440 278L441 279L440 278z"/>
<path style="fill:#f5f5f5; stroke:none;" d="M441 278L442 279L441 278z"/>
<path style="fill:#fbfbfb; stroke:none;" d="M360 280L361 281L360 280M357 281L358 282L357 281z"/>
<path style="fill:#fefefe; stroke:none;" d="M358 281L359 282L358 281z"/>
<path style="fill:#f9f9f9; stroke:none;" d="M354 282L355 283L354 282z"/>
<path style="fill:#fefefe; stroke:none;" d="M355 282L356 283L355 282M453 282L454 283L453 282z"/>
<path style="fill:#fcfcfc; stroke:none;" d="M455 283L456 284L455 283z"/>
<path style="fill:#f3f3f3; stroke:none;" d="M456 283L457 284L456 283z"/>
<path style="fill:#fefefe; stroke:none;" d="M467 289L468 290L467 289z"/>
<path style="fill:#f6f6f6; stroke:none;" d="M468 289L469 290L468 289z"/>
<path style="fill:#fcfcfc; stroke:none;" d="M469 290L470 291L469 290z"/>
<path style="fill:#e7f4ed; stroke:none;" d="M389 295L390 296L389 295z"/>
<path style="fill:#cbe8d7; stroke:none;" d="M390 295L391 296L390 295z"/>
<path style="fill:#b0dcc3; stroke:none;" d="M391 295L392 296L391 295z"/>
<path style="fill:#97d1b0; stroke:none;" d="M392 295L393 296L392 295z"/>
<path style="fill:#80c79e; stroke:none;" d="M393 295L394 296L393 295z"/>
<path style="fill:#6bbd8e; stroke:none;" d="M394 295L395 296L394 295z"/>
<path style="fill:#57b57f; stroke:none;" d="M395 295L396 296L395 295z"/>
<path style="fill:#45ad71; stroke:none;" d="M396 295L397 296L396 295z"/>
<path style="fill:#35a565; stroke:none;" d="M397 295L398 296L397 295z"/>
<path style="fill:#279f5b; stroke:none;" d="M398 295L399 296L398 295z"/>
<path style="fill:#1b9a52; stroke:none;" d="M399 295L400 296L399 295z"/>
<path style="fill:#12964b; stroke:none;" d="M400 295L401 296L400 295z"/>
<path style="fill:#0a9245; stroke:none;" d="M401 295L402 296L401 295z"/>
<path style="fill:#049040; stroke:none;" d="M402 295L403 296L402 295z"/>
<path style="fill:#018e3e; stroke:none;" d="M403.667 295.333L404.333 295.667L403.667 295.333z"/>
<path style="fill:#049040; stroke:none;" d="M405 295L406 296L405 295z"/>
<path style="fill:#0a9245; stroke:none;" d="M406 295L407 296L406 295z"/>
<path style="fill:#12964b; stroke:none;" d="M407 295L408 296L407 295z"/>
<path style="fill:#1b9a52; stroke:none;" d="M408 295L409 296L408 295z"/>
<path style="fill:#279f5b; stroke:none;" d="M409 295L410 296L409 295z"/>
<path style="fill:#35a565; stroke:none;" d="M410 295L411 296L410 295z"/>
<path style="fill:#45ad71; stroke:none;" d="M411 295L412 296L411 295z"/>
<path style="fill:#57b57f; stroke:none;" d="M412 295L413 296L412 295z"/>
<path style="fill:#6bbd8e; stroke:none;" d="M413 295L414 296L413 295z"/>
<path style="fill:#80c79e; stroke:none;" d="M414 295L415 296L414 295z"/>
<path style="fill:#97d1b0; stroke:none;" d="M415 295L416 296L415 295z"/>
<path style="fill:#b0dcc3; stroke:none;" d="M416 295L417 296L416 295z"/>
<path style="fill:#cbe8d7; stroke:none;" d="M417 295L418 296L417 295z"/>
<path style="fill:#e7f4ed; stroke:none;" d="M418 295L419 296L418 295z"/>
<path style="fill:#dbefe4; stroke:none;" d="M383 296L384 297L383 296z"/>
<path style="fill:#b4dec6; stroke:none;" d="M384 296L385 297L384 296z"/>
<path style="fill:#8ecda9; stroke:none;" d="M385 296L386 297L385 296z"/>
<path style="fill:#6abd8e; stroke:none;" d="M386 296L387 297L386 296z"/>
<path style="fill:#47ad73; stroke:none;" d="M387 296L388 297L387 296z"/>
<path style="fill:#259e59; stroke:none;" d="M388 296L389 297L388 296z"/>
<path style="fill:#069142; stroke:none;" d="M389 296L390 297L389 296z"/>
<path style="fill:#008e3d; stroke:none;" d="M390 296.428C373.666 298.767 357.873 304.317 344 313.345C265.561 364.392 286.715 490.919 379 511.575C391.367 514.343 405.395 515.377 418 513.572C434.334 511.233 450.127 505.683 464 496.655C542.439 445.608 521.285 319.081 429 298.425C416.633 295.657 402.605 294.623 390 296.428z"/>
<path style="fill:#069142; stroke:none;" d="M418 296L419 297L418 296z"/>
<path style="fill:#259e59; stroke:none;" d="M419 296L420 297L419 296z"/>
<path style="fill:#47ad73; stroke:none;" d="M420 296L421 297L420 296z"/>
<path style="fill:#6abd8e; stroke:none;" d="M421 296L422 297L421 296z"/>
<path style="fill:#8ecda9; stroke:none;" d="M422 296L423 297L422 296z"/>
<path style="fill:#b4dec6; stroke:none;" d="M423 296L424 297L423 296z"/>
<path style="fill:#dbefe4; stroke:none;" d="M424 296L425 297L424 296z"/>
<path style="fill:#e5f3eb; stroke:none;" d="M378 297L379 298L378 297z"/>
<path style="fill:#b6dfc7; stroke:none;" d="M379 297L380 298L379 297z"/>
<path style="fill:#88caa4; stroke:none;" d="M380 297L381 298L380 297z"/>
<path style="fill:#5ab681; stroke:none;" d="M381 297L382 298L381 297z"/>
<path style="fill:#2fa361; stroke:none;" d="M382 297L383 298L382 297z"/>
<path style="fill:#049040; stroke:none;" d="M383 297L384 298L383 297M424 297L425 298L424 297z"/>
<path style="fill:#2fa361; stroke:none;" d="M425 297L426 298L425 297z"/>
<path style="fill:#5ab681; stroke:none;" d="M426 297L427 298L426 297z"/>
<path style="fill:#88caa4; stroke:none;" d="M427 297L428 298L427 297z"/>
<path style="fill:#b6dfc7; stroke:none;" d="M428 297L429 298L428 297z"/>
<path style="fill:#e5f3eb; stroke:none;" d="M429 297L430 298L429 297z"/>
<path style="fill:#f8f8f8; stroke:none;" d="M480 297L481 298L480 297z"/>
<path style="fill:#e9f5ee; stroke:none;" d="M374 298L375 299L374 298z"/>
<path style="fill:#b3ddc5; stroke:none;" d="M375 298L376 299L375 298z"/>
<path style="fill:#7ec69d; stroke:none;" d="M376 298L377 299L376 298z"/>
<path style="fill:#4aaf75; stroke:none;" d="M377 298L378 299L377 298z"/>
<path style="fill:#17984e; stroke:none;" d="M378 298L379 299L378 298M429 298L430 299L429 298z"/>
<path style="fill:#4aaf75; stroke:none;" d="M430 298L431 299L430 298z"/>
<path style="fill:#7ec69d; stroke:none;" d="M431 298L432 299L431 298z"/>
<path style="fill:#b3ddc5; stroke:none;" d="M432 298L433 299L432 298z"/>
<path style="fill:#e9f5ee; stroke:none;" d="M433 298L434 299L433 298z"/>
<path style="fill:#fbfbfb; stroke:none;" d="M481 298L482 299L481 298z"/>
<path style="fill:#cfeada; stroke:none;" d="M371 299L372 300L371 299z"/>
<path style="fill:#94d0ae; stroke:none;" d="M372 299L373 300L372 299z"/>
<path style="fill:#5ab681; stroke:none;" d="M373 299L374 300L373 299z"/>
<path style="fill:#219d56; stroke:none;" d="M374 299L375 300L374 299M433 299L434 300L433 299z"/>
<path style="fill:#5ab681; stroke:none;" d="M434 299L435 300L434 299z"/>
<path style="fill:#94d0ae; stroke:none;" d="M435 299L436 300L435 299z"/>
<path style="fill:#cfeada; stroke:none;" d="M436 299L437 300L436 299z"/>
<path style="fill:#c8e7d5; stroke:none;" d="M368 300L369 301L368 300z"/>
<path style="fill:#89cba5; stroke:none;" d="M369 300L370 301L369 300z"/>
<path style="fill:#4aaf75; stroke:none;" d="M370 300L371 301L370 300z"/>
<path style="fill:#0c9346; stroke:none;" d="M371 300L372 301L371 300M436 300L437 301L436 300z"/>
<path style="fill:#4aaf75; stroke:none;" d="M437 300L438 301L437 300z"/>
<path style="fill:#89cba5; stroke:none;" d="M438 300L439 301L438 300z"/>
<path style="fill:#c8e7d5; stroke:none;" d="M439 300L440 301L439 300z"/>
<path style="fill:#d4ecde; stroke:none;" d="M365 301L366 302L365 301z"/>
<path style="fill:#90ceab; stroke:none;" d="M366 301L367 302L366 301z"/>
<path style="fill:#4cb077; stroke:none;" d="M367 301L368 302L367 301z"/>
<path style="fill:#0a9245; stroke:none;" d="M368 301L369 302L368 301M439 301L440 302L439 301z"/>
<path style="fill:#4cb077; stroke:none;" d="M440 301L441 302L440 301z"/>
<path style="fill:#90ceab; stroke:none;" d="M441 301L442 302L441 301z"/>
<path style="fill:#d4ecde; stroke:none;" d="M442 301L443 302L442 301z"/>
<path style="fill:#f1f9f4; stroke:none;" d="M362 302L363 303L362 302z"/>
<path style="fill:#a8d8bd; stroke:none;" d="M363 302L364 303L363 302z"/>
<path style="fill:#61b987; stroke:none;" d="M364 302L365 303L364 302z"/>
<path style="fill:#1a9a51; stroke:none;" d="M365 302L366 303L365 302M442 302L443 303L442 302z"/>
<path style="fill:#61b987; stroke:none;" d="M443 302L444 303L443 302z"/>
<path style="fill:#a8d8bd; stroke:none;" d="M444 302L445 303L444 302z"/>
<path style="fill:#f1f9f4; stroke:none;" d="M445 302L446 303L445 302z"/>
<path style="fill:#d2ebdd; stroke:none;" d="M360 303L361 304L360 303z"/>
<path style="fill:#86c9a3; stroke:none;" d="M361 303L362 304L361 303z"/>
<path style="fill:#3ba86a; stroke:none;" d="M362 303L363 304L362 303M445 303L446 304L445 303z"/>
<path style="fill:#86c9a3; stroke:none;" d="M446 303L447 304L446 303z"/>
<path style="fill:#d2ebdd; stroke:none;" d="M447 303L448 304L447 303z"/>
<path style="fill:#bde2cd; stroke:none;" d="M358 304L359 305L358 304z"/>
<path style="fill:#6ebf91; stroke:none;" d="M359 304L360 305L359 304z"/>
<path style="fill:#209c55; stroke:none;" d="M360 304L361 305L360 304M447 304L448 305L447 304z"/>
<path style="fill:#6ebf91; stroke:none;" d="M448 304L449 305L448 304z"/>
<path style="fill:#bde2cd; stroke:none;" d="M449 304L450 305L449 304z"/>
<path style="fill:#b0dcc3; stroke:none;" d="M356 305L357 306L356 305z"/>
<path style="fill:#5eb885; stroke:none;" d="M357 305L358 306L357 305z"/>
<path style="fill:#0d9447; stroke:none;" d="M358 305L359 306L358 305M449 305L450 306L449 305z"/>
<path style="fill:#5eb885; stroke:none;" d="M450 305L451 306L450 305z"/>
<path style="fill:#b0dcc3; stroke:none;" d="M451 305L452 306L451 305z"/>
<path style="fill:#acdac0; stroke:none;" d="M354 306L355 307L354 306z"/>
<path style="fill:#58b580; stroke:none;" d="M355 306L356 307L355 306z"/>
<path style="fill:#049040; stroke:none;" d="M356 306L357 307L356 306M451 306L452 307L451 306z"/>
<path style="fill:#58b580; stroke:none;" d="M452 306L453 307L452 306z"/>
<path style="fill:#acdac0; stroke:none;" d="M453 306L454 307L453 306z"/>
<path style="fill:#fcfcfc; stroke:none;" d="M490 306L493 309L490 306z"/>
<path style="fill:#b1dcc4; stroke:none;" d="M352 307L353 308L352 307z"/>
<path style="fill:#5ab681; stroke:none;" d="M353 307L354 308L353 307z"/>
<path style="fill:#038f3f; stroke:none;" d="M354 307L355 308L354 307M453 307L454 308L453 307z"/>
<path style="fill:#5ab681; stroke:none;" d="M454 307L455 308L454 307z"/>
<path style="fill:#b1dcc4; stroke:none;" d="M455 307L456 308L455 307z"/>
<path style="fill:#bee2ce; stroke:none;" d="M350 308L351 309L350 308z"/>
<path style="fill:#64ba89; stroke:none;" d="M351 308L352 309L351 308z"/>
<path style="fill:#0a9245; stroke:none;" d="M352 308L353 309L352 308M455 308L456 309L455 308z"/>
<path style="fill:#64ba89; stroke:none;" d="M456 308L457 309L456 308z"/>
<path style="fill:#bee2ce; stroke:none;" d="M457 308L458 309L457 308z"/>
<path style="fill:#d4ecde; stroke:none;" d="M348 309L349 310L348 309z"/>
<path style="fill:#77c398; stroke:none;" d="M349 309L350 310L349 309z"/>
<path style="fill:#1b9a52; stroke:none;" d="M350 309L351 310L350 309M457 309L458 310L457 309z"/>
<path style="fill:#77c398; stroke:none;" d="M458 309L459 310L458 309z"/>
<path style="fill:#d4ecde; stroke:none;" d="M459 309L460 310L459 309z"/>
<path style="fill:#f1f9f4; stroke:none;" d="M346 310L347 311L346 310z"/>
<path style="fill:#92cfac; stroke:none;" d="M347 310L348 311L347 310z"/>
<path style="fill:#33a564; stroke:none;" d="M348 310L349 311L348 310M459 310L460 311L459 310z"/>
<path style="fill:#92cfac; stroke:none;" d="M460 310L461 311L460 310z"/>
<path style="fill:#f1f9f4; stroke:none;" d="M461 310L462 311L461 310z"/>
<path style="fill:#b5dec7; stroke:none;" d="M345 311L346 312L345 311z"/>
<path style="fill:#53b37c; stroke:none;" d="M346 311L347 312L346 311M461 311L462 312L461 311z"/>
<path style="fill:#b5dec7; stroke:none;" d="M462 311L463 312L462 311z"/>
<path style="fill:#e0f1e7; stroke:none;" d="M343 312L344 313L343 312z"/>
<path style="fill:#7cc59b; stroke:none;" d="M344 312L345 313L344 312z"/>
<path style="fill:#18994f; stroke:none;" d="M345 312L346 313L345 312M462 312L463 313L462 312z"/>
<path style="fill:#7cc59b; stroke:none;" d="M463 312L464 313L463 312z"/>
<path style="fill:#e0f1e7; stroke:none;" d="M464 312L465 313L464 312z"/>
<path style="fill:#addbc1; stroke:none;" d="M342 313L343 314L342 313z"/>
<path style="fill:#46ad72; stroke:none;" d="M343 313L344 314L343 313M464 313L465 314L464 313z"/>
<path style="fill:#addbc1; stroke:none;" d="M465 313L466 314L465 313z"/>
<path style="fill:#e5f3eb; stroke:none;" d="M340 314L341 315L340 314z"/>
<path style="fill:#7cc59b; stroke:none;" d="M341 314L342 315L341 314z"/>
<path style="fill:#14974c; stroke:none;" d="M342 314L343 315L342 314M465 314L466 315L465 314z"/>
<path style="fill:#7cc59b; stroke:none;" d="M466 314L467 315L466 314z"/>
<path style="fill:#e5f3eb; stroke:none;" d="M467 314L468 315L467 314z"/>
<path style="fill:#bae0cb; stroke:none;" d="M339 315L340 316L339 315z"/>
<path style="fill:#4fb179; stroke:none;" d="M340 315L341 316L340 315M467 315L468 316L467 315z"/>
<path style="fill:#bae0cb; stroke:none;" d="M468 315L469 316L468 315z"/>
<path style="fill:#fefffe; stroke:none;" d="M337 316L338 317L337 316z"/>
<path style="fill:#92cfac; stroke:none;" d="M338 316L339 317L338 316z"/>
<path style="fill:#259e59; stroke:none;" d="M339 316L340 317L339 316M468 316L469 317L468 316z"/>
<path style="fill:#92cfac; stroke:none;" d="M469 316L470 317L469 316z"/>
<path style="fill:#fefffe; stroke:none;" d="M470 316L471 317L470 316z"/>
<path style="fill:#fcfcfc; stroke:none;" d="M500 316L503 319L500 316z"/>
<path style="fill:#dbefe4; stroke:none;" d="M336 317L337 318L336 317z"/>
<path style="fill:#6dbe90; stroke:none;" d="M337 317L338 318L337 317M470 317L471 318L470 317z"/>
<path style="fill:#dbefe4; stroke:none;" d="M471 317L472 318L471 317z"/>
<path style="fill:#bce1cc; stroke:none;" d="M335 318L336 319L335 318z"/>
<path style="fill:#4cb077; stroke:none;" d="M336 318L337 319L336 318M471 318L472 319L471 318z"/>
<path style="fill:#bce1cc; stroke:none;" d="M472 318L473 319L472 318z"/>
<path style="fill:#a0d5b7; stroke:none;" d="M334 319L335 320L334 319z"/>
<path style="fill:#2ea260; stroke:none;" d="M335 319L336 320L335 319M472 319L473 320L472 319z"/>
<path style="fill:#a0d5b7; stroke:none;" d="M473 319L474 320L473 319z"/>
<path style="fill:#fcfefd; stroke:none;" d="M332 320L333 321L332 320z"/>
<path style="fill:#88caa4; stroke:none;" d="M333 320L334 321L333 320z"/>
<path style="fill:#14974c; stroke:none;" d="M334 320L335 321L334 320M473 320L474 321L473 320z"/>
<path style="fill:#88caa4; stroke:none;" d="M474 320L475 321L474 320z"/>
<path style="fill:#fcfefd; stroke:none;" d="M475 320L476 321L475 320z"/>
<path style="fill:#e8f5ee; stroke:none;" d="M331 321L332 322L331 321z"/>
<path style="fill:#72c194; stroke:none;" d="M332 321L333 322L332 321M475 321L476 322L475 321z"/>
<path style="fill:#e8f5ee; stroke:none;" d="M476 321L477 322L476 321z"/>
<path style="fill:#d8eee1; stroke:none;" d="M330 322L331 323L330 322z"/>
<path style="fill:#60b986; stroke:none;" d="M331 322L332 323L331 322M476 322L477 323L476 322z"/>
<path style="fill:#d8eee1; stroke:none;" d="M477 322L478 323L477 322z"/>
<path style="fill:#cbe8d7; stroke:none;" d="M329 323L330 324L329 323z"/>
<path style="fill:#51b27b; stroke:none;" d="M330 323L331 324L330 323M477 323L478 324L477 323z"/>
<path style="fill:#cbe8d7; stroke:none;" d="M478 323L479 324L478 323z"/>
<path style="fill:#c1e4d0; stroke:none;" d="M328 324L329 325L328 324z"/>
<path style="fill:#46ad72; stroke:none;" d="M329 324L330 325L329 324M478 324L479 325L478 324z"/>
<path style="fill:#c1e4d0; stroke:none;" d="M479 324L480 325L479 324z"/>
<path style="fill:#bae0cb; stroke:none;" d="M327 325L328 326L327 325z"/>
<path style="fill:#3ea96c; stroke:none;" d="M328 325L329 326L328 325z"/>
<path style="fill:#ffffff; stroke:none;" d="M387 325L387 389L323 389L323 422L387 422L387 486L420 486L420 422L484 422L484 389L420 389L420 325L387 325z"/>
<path style="fill:#3ea96c; stroke:none;" d="M479 325L480 326L479 325z"/>
<path style="fill:#bae0cb; stroke:none;" d="M480 325L481 326L480 325z"/>
<path style="fill:#b7dfc8; stroke:none;" d="M326 326L325 328L326 326z"/>
<path style="fill:#39a768; stroke:none;" d="M327 326L328 327L327 326M480 326L481 327L480 326z"/>
<path style="fill:#b7dfc8; stroke:none;" d="M481 326L483 328L481 326z"/>
<path style="fill:#37a667; stroke:none;" d="M326 327L327 328L326 327M481 327L482 328L481 327z"/>
<path style="fill:#fefefe; stroke:none;" d="M510 327L511 328L510 327z"/>
<path style="fill:#bae0cb; stroke:none;" d="M324 328L325 329L324 328z"/>
<path style="fill:#39a768; stroke:none;" d="M325 328L326 329L325 328M482 328L483 329L482 328z"/>
<path style="fill:#bae0cb; stroke:none;" d="M483 328L484 329L483 328z"/>
<path style="fill:#c1e4d0; stroke:none;" d="M323 329L324 330L323 329z"/>
<path style="fill:#3ea96c; stroke:none;" d="M324 329L325 330L324 329M483 329L484 330L483 329z"/>
<path style="fill:#c1e4d0; stroke:none;" d="M484 329L485 330L484 329z"/>
<path style="fill:#cbe8d7; stroke:none;" d="M322 330L323 331L322 330z"/>
<path style="fill:#46ad72; stroke:none;" d="M323 330L324 331L323 330M484 330L485 331L484 330z"/>
<path style="fill:#cbe8d7; stroke:none;" d="M485 330L486 331L485 330z"/>
<path style="fill:#d8eee1; stroke:none;" d="M321 331L322 332L321 331z"/>
<path style="fill:#51b27b; stroke:none;" d="M322 331L323 332L322 331M485 331L486 332L485 331z"/>
<path style="fill:#d8eee1; stroke:none;" d="M486 331L487 332L486 331z"/>
<path style="fill:#e8f5ee; stroke:none;" d="M320 332L321 333L320 332z"/>
<path style="fill:#60b986; stroke:none;" d="M321 332L322 333L321 332M486 332L487 333L486 332z"/>
<path style="fill:#e8f5ee; stroke:none;" d="M487 332L488 333L487 332z"/>
<path style="fill:#fcfefd; stroke:none;" d="M319 333L320 334L319 333z"/>
<path style="fill:#72c194; stroke:none;" d="M320 333L321 334L320 333M487 333L488 334L487 333z"/>
<path style="fill:#fcfefd; stroke:none;" d="M488 333L489 334L488 333z"/>
<path style="fill:#88caa4; stroke:none;" d="M319 334L320 335L319 334M488 334L489 335L488 334z"/>
<path style="fill:#a0d5b7; stroke:none;" d="M318 335L319 336L318 335z"/>
<path style="fill:#14974c; stroke:none;" d="M319 335L320 336L319 335M488 335L489 336L488 335z"/>
<path style="fill:#a0d5b7; stroke:none;" d="M489 335L490 336L489 335z"/>
<path style="fill:#bce1cc; stroke:none;" d="M317 336L318 337L317 336z"/>
<path style="fill:#2ea260; stroke:none;" d="M318 336L319 337L318 336M489 336L490 337L489 336z"/>
<path style="fill:#bce1cc; stroke:none;" d="M490 336L491 337L490 336z"/>
<path style="fill:#dbefe4; stroke:none;" d="M316 337L317 338L316 337z"/>
<path style="fill:#4cb077; stroke:none;" d="M317 337L318 338L317 337M490 337L491 338L490 337z"/>
<path style="fill:#dbefe4; stroke:none;" d="M491 337L492 338L491 337z"/>
<path style="fill:#fefffe; stroke:none;" d="M315 338L316 339L315 338z"/>
<path style="fill:#6dbe90; stroke:none;" d="M316 338L317 339L316 338M491 338L492 339L491 338z"/>
<path style="fill:#fefffe; stroke:none;" d="M492 338L493 339L492 338z"/>
<path style="fill:#92cfac; stroke:none;" d="M315 339L316 340L315 339M492 339L493 340L492 339z"/>
<path style="fill:#bae0cb; stroke:none;" d="M314 340L315 341L314 340z"/>
<path style="fill:#259e59; stroke:none;" d="M315 340L316 341L315 340M492 340L493 341L492 340z"/>
<path style="fill:#bae0cb; stroke:none;" d="M493 340L494 341L493 340z"/>
<path style="fill:#e5f3eb; stroke:none;" d="M313 341L314 342L313 341z"/>
<path style="fill:#4fb179; stroke:none;" d="M314 341L315 342L314 341M493 341L494 342L493 341z"/>
<path style="fill:#e5f3eb; stroke:none;" d="M494 341L495 342L494 341z"/>
<path style="fill:#7cc59b; stroke:none;" d="M313 342L314 343L313 342M494 342L495 343L494 342z"/>
<path style="fill:#addbc1; stroke:none;" d="M312 343L313 344L312 343z"/>
<path style="fill:#14974c; stroke:none;" d="M313 343L314 344L313 343M494 343L495 344L494 343z"/>
<path style="fill:#addbc1; stroke:none;" d="M495 343L496 344L495 343z"/>
<path style="fill:#e0f1e7; stroke:none;" d="M311 344L312 345L311 344z"/>
<path style="fill:#46ad72; stroke:none;" d="M312 344L313 345L312 344M495 344L496 345L495 344z"/>
<path style="fill:#e0f1e7; stroke:none;" d="M496 344L497 345L496 344z"/>
<path style="fill:#7cc59b; stroke:none;" d="M311 345L312 346L311 345M496 345L497 346L496 345z"/>
<path style="fill:#b5dec7; stroke:none;" d="M310 346L311 347L310 346z"/>
<path style="fill:#18994f; stroke:none;" d="M311 346L312 347L311 346M496 346L497 347L496 346z"/>
<path style="fill:#b5dec7; stroke:none;" d="M497 346L498 347L497 346z"/>
<path style="fill:#f1f9f4; stroke:none;" d="M309 347L310 348L309 347z"/>
<path style="fill:#53b37c; stroke:none;" d="M310 347L311 348L310 347M497 347L498 348L497 347z"/>
<path style="fill:#f1f9f4; stroke:none;" d="M498 347L499 348L498 347z"/>
<path style="fill:#92cfac; stroke:none;" d="M309 348L310 349L309 348M498 348L499 349L498 348z"/>
<path style="fill:#d4ecde; stroke:none;" d="M308 349L309 350L308 349z"/>
<path style="fill:#33a564; stroke:none;" d="M309 349L310 350L309 349M498 349L499 350L498 349z"/>
<path style="fill:#d4ecde; stroke:none;" d="M499 349L500 350L499 349z"/>
<path style="fill:#77c398; stroke:none;" d="M308 350L309 351L308 350M499 350L500 351L499 350z"/>
<path style="fill:#bee2ce; stroke:none;" d="M307 351L308 352L307 351z"/>
<path style="fill:#1b9a52; stroke:none;" d="M308 351L309 352L308 351M499 351L500 352L499 351z"/>
<path style="fill:#bee2ce; stroke:none;" d="M500 351L501 352L500 351z"/>
<path style="fill:#64ba89; stroke:none;" d="M307 352L308 353L307 352M500 352L501 353L500 352z"/>
<path style="fill:#b1dcc4; stroke:none;" d="M306 353L307 354L306 353z"/>
<path style="fill:#0a9245; stroke:none;" d="M307 353L308 354L307 353M500 353L501 354L500 353z"/>
<path style="fill:#b1dcc4; stroke:none;" d="M501 353L502 354L501 353z"/>
<path style="fill:#5ab681; stroke:none;" d="M306 354L307 355L306 354M501 354L502 355L501 354z"/>
<path style="fill:#fefefe; stroke:none;" d="M281 355L282 356L281 355z"/>
<path style="fill:#acdac0; stroke:none;" d="M305 355L306 356L305 355z"/>
<path style="fill:#038f3f; stroke:none;" d="M306 355L307 356L306 355M501 355L502 356L501 355z"/>
<path style="fill:#acdac0; stroke:none;" d="M502 355L503 356L502 355z"/>
<path style="fill:#58b580; stroke:none;" d="M305 356L306 357L305 356M502 356L503 357L502 356z"/>
<path style="fill:#b0dcc3; stroke:none;" d="M304 357L305 358L304 357z"/>
<path style="fill:#049040; stroke:none;" d="M305 357L306 358L305 357M502 357L503 358L502 357z"/>
<path style="fill:#b0dcc3; stroke:none;" d="M503 357L504 358L503 357z"/>
<path style="fill:#fefefe; stroke:none;" d="M280 358L281 359L280 358z"/>
<path style="fill:#5eb885; stroke:none;" d="M304 358L305 359L304 358M503 358L504 359L503 358z"/>
<path style="fill:#bde2cd; stroke:none;" d="M303 359L304 360L303 359z"/>
<path style="fill:#0d9447; stroke:none;" d="M304 359L305 360L304 359M503 359L504 360L503 359z"/>
<path style="fill:#bde2cd; stroke:none;" d="M504 359L505 360L504 359z"/>
<path style="fill:#6ebf91; stroke:none;" d="M303 360L304 361L303 360M504 360L505 361L504 360z"/>
<path style="fill:#fefefe; stroke:none;" d="M279 361L280 362L279 361z"/>
<path style="fill:#d2ebdd; stroke:none;" d="M302 361L303 362L302 361z"/>
<path style="fill:#209c55; stroke:none;" d="M303 361L304 362L303 361M504 361L505 362L504 361z"/>
<path style="fill:#d2ebdd; stroke:none;" d="M505 361L506 362L505 361z"/>
<path style="fill:#86c9a3; stroke:none;" d="M302 362L303 363L302 362M505 362L506 363L505 362z"/>
<path style="fill:#f1f9f4; stroke:none;" d="M301 363L302 364L301 363z"/>
<path style="fill:#3ba86a; stroke:none;" d="M302 363L303 364L302 363M505 363L506 364L505 363z"/>
<path style="fill:#f1f9f4; stroke:none;" d="M506 363L507 364L506 363z"/>
<path style="fill:#a8d8bd; stroke:none;" d="M301 364L302 365L301 364M506 364L507 365L506 364z"/>
<path style="fill:#61b987; stroke:none;" d="M301 365L302 366L301 365M506 365L507 366L506 365z"/>
<path style="fill:#d4ecde; stroke:none;" d="M300 366L301 367L300 366z"/>
<path style="fill:#1a9a51; stroke:none;" d="M301 366L302 367L301 366M506 366L507 367L506 366z"/>
<path style="fill:#d4ecde; stroke:none;" d="M507 366L508 367L507 366z"/>
<path style="fill:#90ceab; stroke:none;" d="M300 367L301 368L300 367M507 367L508 368L507 367z"/>
<path style="fill:#4cb077; stroke:none;" d="M300 368L301 369L300 368M507 368L508 369L507 368z"/>
<path style="fill:#c8e7d5; stroke:none;" d="M299 369L300 370L299 369z"/>
<path style="fill:#0a9245; stroke:none;" d="M300 369L301 370L300 369M507 369L508 370L507 369z"/>
<path style="fill:#c8e7d5; stroke:none;" d="M508 369L509 370L508 369z"/>
<path style="fill:#89cba5; stroke:none;" d="M299 370L300 371L299 370M508 370L509 371L508 370z"/>
<path style="fill:#4aaf75; stroke:none;" d="M299 371L300 372L299 371M508 371L509 372L508 371z"/>
<path style="fill:#cfeada; stroke:none;" d="M298 372L299 373L298 372z"/>
<path style="fill:#0c9346; stroke:none;" d="M299 372L300 373L299 372M508 372L509 373L508 372z"/>
<path style="fill:#cfeada; stroke:none;" d="M509 372L510 373L509 372z"/>
<path style="fill:#94d0ae; stroke:none;" d="M298 373L299 374L298 373M509 373L510 374L509 373z"/>
<path style="fill:#5ab681; stroke:none;" d="M298 374L299 375L298 374M509 374L510 375L509 374z"/>
<path style="fill:#e9f5ee; stroke:none;" d="M297 375L298 376L297 375z"/>
<path style="fill:#219d56; stroke:none;" d="M298 375L299 376L298 375M509 375L510 376L509 375z"/>
<path style="fill:#e9f5ee; stroke:none;" d="M510 375L511 376L510 375z"/>
<path style="fill:#b3ddc5; stroke:none;" d="M297 376L298 377L297 376M510 376L511 377L510 376z"/>
<path style="fill:#7ec69d; stroke:none;" d="M297 377L298 378L297 377M510 377L511 378L510 377z"/>
<path style="fill:#4aaf75; stroke:none;" d="M297 378L298 379L297 378M510 378L511 379L510 378z"/>
<path style="fill:#e5f3eb; stroke:none;" d="M296 379L297 380L296 379z"/>
<path style="fill:#17984e; stroke:none;" d="M297 379L298 380L297 379M510 379L511 380L510 379z"/>
<path style="fill:#e5f3eb; stroke:none;" d="M511 379L512 380L511 379z"/>
<path style="fill:#b6dfc7; stroke:none;" d="M296 380L297 381L296 380M511 380L512 381L511 380z"/>
<path style="fill:#88caa4; stroke:none;" d="M296 381L297 382L296 381M511 381L512 382L511 381z"/>
<path style="fill:#5ab681; stroke:none;" d="M296 382L297 383L296 382M511 382L512 383L511 382z"/>
<path style="fill:#2fa361; stroke:none;" d="M296 383L297 384L296 383M511 383L512 384L511 383z"/>
<path style="fill:#f4f4f4; stroke:none;" d="M274 384L275 385L274 384z"/>
<path style="fill:#dbefe4; stroke:none;" d="M295 384L296 385L295 384z"/>
<path style="fill:#049040; stroke:none;" d="M296 384L297 385L296 384M511 384L512 385L511 384z"/>
<path style="fill:#dbefe4; stroke:none;" d="M512 384L513 385L512 384z"/>
<path style="fill:#f8f8f8; stroke:none;" d="M274 385L275 386L274 385z"/>
<path style="fill:#b4dec6; stroke:none;" d="M295 385L296 386L295 385M512 385L513 386L512 385z"/>
<path style="fill:#fafafa; stroke:none;" d="M274 386L275 387L274 386z"/>
<path style="fill:#8ecda9; stroke:none;" d="M295 386L296 387L295 386M512 386L513 387L512 386z"/>
<path style="fill:#fefefe; stroke:none;" d="M274 387L275 388L274 387z"/>
<path style="fill:#6abd8e; stroke:none;" d="M295 387L296 388L295 387M512 387L513 388L512 387z"/>
<path style="fill:#47ad73; stroke:none;" d="M295 388L296 389L295 388M512 388L513 389L512 388z"/>
<path style="fill:#259e59; stroke:none;" d="M295 389L296 390L295 389M512 389L513 390L512 389z"/>
<path style="fill:#e7f4ed; stroke:none;" d="M294 390L295 391L294 390z"/>
<path style="fill:#069142; stroke:none;" d="M295 390L296 391L295 390M512 390L513 391L512 390z"/>
<path style="fill:#e7f4ed; stroke:none;" d="M513 390L514 391L513 390z"/>
<path style="fill:#cbe8d7; stroke:none;" d="M294 391L295 392L294 391M513 391L514 392L513 391z"/>
<path style="fill:#b0dcc3; stroke:none;" d="M294 392L295 393L294 392M513 392L514 393L513 392z"/>
<path style="fill:#97d1b0; stroke:none;" d="M294 393L295 394L294 393M513 393L514 394L513 393z"/>
<path style="fill:#80c79e; stroke:none;" d="M294 394L295 395L294 394M513 394L514 395L513 394z"/>
<path style="fill:#6bbd8e; stroke:none;" d="M294 395L295 396L294 395M513 395L514 396L513 395z"/>
<path style="fill:#57b57f; stroke:none;" d="M294 396L295 397L294 396M513 396L514 397L513 396z"/>
<path style="fill:#45ad71; stroke:none;" d="M294 397L295 398L294 397M513 397L514 398L513 397z"/>
<path style="fill:#35a565; stroke:none;" d="M294 398L295 399L294 398M513 398L514 399L513 398z"/>
<path style="fill:#279f5b; stroke:none;" d="M294 399L295 400L294 399M513 399L514 400L513 399z"/>
<path style="fill:#1b9a52; stroke:none;" d="M294 400L295 401L294 400M513 400L514 401L513 400z"/>
<path style="fill:#12964b; stroke:none;" d="M294 401L295 402L294 401M513 401L514 402L513 401z"/>
<path style="fill:#0a9245; stroke:none;" d="M294 402L295 403L294 402M513 402L514 403L513 402z"/>
<path style="fill:#049040; stroke:none;" d="M294 403L295 404L294 403M513 403L514 404L513 403z"/>
<path style="fill:#018e3e; stroke:none;" d="M294.333 404.667L294.667 405.333L294.333 404.667M513.333 404.667L513.667 405.333L513.333 404.667z"/>
<path style="fill:#049040; stroke:none;" d="M294 406L295 407L294 406M513 406L514 407L513 406z"/>
<path style="fill:#0a9245; stroke:none;" d="M294 407L295 408L294 407M513 407L514 408L513 407z"/>
<path style="fill:#12964b; stroke:none;" d="M294 408L295 409L294 408M513 408L514 409L513 408z"/>
<path style="fill:#1b9a52; stroke:none;" d="M294 409L295 410L294 409M513 409L514 410L513 409z"/>
<path style="fill:#279f5b; stroke:none;" d="M294 410L295 411L294 410M513 410L514 411L513 410z"/>
<path style="fill:#35a565; stroke:none;" d="M294 411L295 412L294 411M513 411L514 412L513 411z"/>
<path style="fill:#45ad71; stroke:none;" d="M294 412L295 413L294 412M513 412L514 413L513 412z"/>
<path style="fill:#57b57f; stroke:none;" d="M294 413L295 414L294 413M513 413L514 414L513 413z"/>
<path style="fill:#6bbd8e; stroke:none;" d="M294 414L295 415L294 414M513 414L514 415L513 414z"/>
<path style="fill:#80c79e; stroke:none;" d="M294 415L295 416L294 415M513 415L514 416L513 415z"/>
<path style="fill:#97d1b0; stroke:none;" d="M294 416L295 417L294 416M513 416L514 417L513 416z"/>
<path style="fill:#b0dcc3; stroke:none;" d="M294 417L295 418L294 417M513 417L514 418L513 417z"/>
<path style="fill:#cbe8d7; stroke:none;" d="M294 418L295 419L294 418M513 418L514 419L513 418z"/>
<path style="fill:#e7f4ed; stroke:none;" d="M294 419L295 420L294 419z"/>
<path style="fill:#069142; stroke:none;" d="M295 419L296 420L295 419M512 419L513 420L512 419z"/>
<path style="fill:#e7f4ed; stroke:none;" d="M513 419L514 420L513 419z"/>
<path style="fill:#259e59; stroke:none;" d="M295 420L296 421L295 420M512 420L513 421L512 420z"/>
<path style="fill:#47ad73; stroke:none;" d="M295 421L296 422L295 421M512 421L513 422L512 421z"/>
<path style="fill:#fbfbfb; stroke:none;" d="M274 422L275 423L274 422z"/>
<path style="fill:#6abd8e; stroke:none;" d="M295 422L296 423L295 422M512 422L513 423L512 422z"/>
<path style="fill:#fafafa; stroke:none;" d="M274 423L275 424L274 423z"/>
<path style="fill:#8ecda9; stroke:none;" d="M295 423L296 424L295 423M512 423L513 424L512 423z"/>
<path style="fill:#f8f8f8; stroke:none;" d="M274 424L275 425L274 424z"/>
<path style="fill:#b4dec6; stroke:none;" d="M295 424L296 425L295 424M512 424L513 425L512 424z"/>
<path style="fill:#f4f4f4; stroke:none;" d="M274 425L275 426L274 425z"/>
<path style="fill:#dbefe4; stroke:none;" d="M295 425L296 426L295 425z"/>
<path style="fill:#049040; stroke:none;" d="M296 425L297 426L296 425M511 425L512 426L511 425z"/>
<path style="fill:#dbefe4; stroke:none;" d="M512 425L513 426L512 425z"/>
<path style="fill:#2fa361; stroke:none;" d="M296 426L297 427L296 426M511 426L512 427L511 426z"/>
<path style="fill:#5ab681; stroke:none;" d="M296 427L297 428L296 427M511 427L512 428L511 427z"/>
<path style="fill:#88caa4; stroke:none;" d="M296 428L297 429L296 428M511 428L512 429L511 428z"/>
<path style="fill:#b6dfc7; stroke:none;" d="M296 429L297 430L296 429M511 429L512 430L511 429z"/>
<path style="fill:#e5f3eb; stroke:none;" d="M296 430L297 431L296 430z"/>
<path style="fill:#17984e; stroke:none;" d="M297 430L298 431L297 430M510 430L511 431L510 430z"/>
<path style="fill:#e5f3eb; stroke:none;" d="M511 430L512 431L511 430z"/>
<path style="fill:#4aaf75; stroke:none;" d="M297 431L298 432L297 431M510 431L511 432L510 431z"/>
<path style="fill:#7ec69d; stroke:none;" d="M297 432L298 433L297 432M510 432L511 433L510 432z"/>
<path style="fill:#b3ddc5; stroke:none;" d="M297 433L298 434L297 433M510 433L511 434L510 433z"/>
<path style="fill:#e9f5ee; stroke:none;" d="M297 434L298 435L297 434z"/>
<path style="fill:#219d56; stroke:none;" d="M298 434L299 435L298 434M509 434L510 435L509 434z"/>
<path style="fill:#e9f5ee; stroke:none;" d="M510 434L511 435L510 434z"/>
<path style="fill:#5ab681; stroke:none;" d="M298 435L299 436L298 435M509 435L510 436L509 435z"/>
<path style="fill:#94d0ae; stroke:none;" d="M298 436L299 437L298 436M509 436L510 437L509 436z"/>
<path style="fill:#cfeada; stroke:none;" d="M298 437L299 438L298 437z"/>
<path style="fill:#0c9346; stroke:none;" d="M299 437L300 438L299 437M508 437L509 438L508 437z"/>
<path style="fill:#cfeada; stroke:none;" d="M509 437L510 438L509 437z"/>
<path style="fill:#4aaf75; stroke:none;" d="M299 438L300 439L299 438M508 438L509 439L508 438z"/>
<path style="fill:#89cba5; stroke:none;" d="M299 439L300 440L299 439M508 439L509 440L508 439z"/>
<path style="fill:#fefefe; stroke:none;" d="M277 440L278 441L277 440z"/>
<path style="fill:#c8e7d5; stroke:none;" d="M299 440L300 441L299 440z"/>
<path style="fill:#0a9245; stroke:none;" d="M300 440L301 441L300 440M507 440L508 441L507 440z"/>
<path style="fill:#c8e7d5; stroke:none;" d="M508 440L509 441L508 440z"/>
<path style="fill:#fbfbfb; stroke:none;" d="M277 441L278 442L277 441z"/>
<path style="fill:#4cb077; stroke:none;" d="M300 441L301 442L300 441M507 441L508 442L507 441z"/>
<path style="fill:#f5f5f5; stroke:none;" d="M277 442L278 443L277 442z"/>
<path style="fill:#90ceab; stroke:none;" d="M300 442L301 443L300 442M507 442L508 443L507 442z"/>
<path style="fill:#d4ecde; stroke:none;" d="M300 443L301 444L300 443z"/>
<path style="fill:#1a9a51; stroke:none;" d="M301 443L302 444L301 443M506 443L507 444L506 443z"/>
<path style="fill:#d4ecde; stroke:none;" d="M507 443L508 444L507 443z"/>
<path style="fill:#61b987; stroke:none;" d="M301 444L302 445L301 444M506 444L507 445L506 444z"/>
<path style="fill:#a8d8bd; stroke:none;" d="M301 445L302 446L301 445M506 445L507 446L506 445z"/>
<path style="fill:#f1f9f4; stroke:none;" d="M301 446L302 447L301 446z"/>
<path style="fill:#3ba86a; stroke:none;" d="M302 446L303 447L302 446M505 446L506 447L505 446z"/>
<path style="fill:#f1f9f4; stroke:none;" d="M506 446L507 447L506 446z"/>
<path style="fill:#86c9a3; stroke:none;" d="M302 447L303 448L302 447M505 447L506 448L505 447z"/>
<path style="fill:#d2ebdd; stroke:none;" d="M302 448L303 449L302 448z"/>
<path style="fill:#209c55; stroke:none;" d="M303 448L304 449L303 448M504 448L505 449L504 448z"/>
<path style="fill:#d2ebdd; stroke:none;" d="M505 448L506 449L505 448z"/>
<path style="fill:#6ebf91; stroke:none;" d="M303 449L304 450L303 449M504 449L505 450L504 449z"/>
<path style="fill:#bde2cd; stroke:none;" d="M303 450L304 451L303 450z"/>
<path style="fill:#0d9447; stroke:none;" d="M304 450L305 451L304 450M503 450L504 451L503 450z"/>
<path style="fill:#bde2cd; stroke:none;" d="M504 450L505 451L504 450z"/>
<path style="fill:#5eb885; stroke:none;" d="M304 451L305 452L304 451M503 451L504 452L503 451z"/>
<path style="fill:#b0dcc3; stroke:none;" d="M304 452L305 453L304 452z"/>
<path style="fill:#049040; stroke:none;" d="M305 452L306 453L305 452M502 452L503 453L502 452z"/>
<path style="fill:#b0dcc3; stroke:none;" d="M503 452L504 453L503 452z"/>
<path style="fill:#58b580; stroke:none;" d="M305 453L306 454L305 453M502 453L503 454L502 453z"/>
<path style="fill:#fefefe; stroke:none;" d="M281 454L282 455L281 454z"/>
<path style="fill:#acdac0; stroke:none;" d="M305 454L306 455L305 454z"/>
<path style="fill:#038f3f; stroke:none;" d="M306 454L307 455L306 454M501 454L502 455L501 454z"/>
<path style="fill:#acdac0; stroke:none;" d="M502 454L503 455L502 454z"/>
<path style="fill:#5ab681; stroke:none;" d="M306 455L307 456L306 455M501 455L502 456L501 455z"/>
<path style="fill:#fcfcfc; stroke:none;" d="M282 456L283 457L282 456z"/>
<path style="fill:#b1dcc4; stroke:none;" d="M306 456L307 457L306 456z"/>
<path style="fill:#0a9245; stroke:none;" d="M307 456L308 457L307 456M500 456L501 457L500 456z"/>
<path style="fill:#b1dcc4; stroke:none;" d="M501 456L502 457L501 456z"/>
<path style="fill:#f3f3f3; stroke:none;" d="M282 457L283 458L282 457z"/>
<path style="fill:#64ba89; stroke:none;" d="M307 457L308 458L307 457M500 457L501 458L500 457z"/>
<path style="fill:#bee2ce; stroke:none;" d="M307 458L308 459L307 458z"/>
<path style="fill:#1b9a52; stroke:none;" d="M308 458L309 459L308 458M499 458L500 459L499 458z"/>
<path style="fill:#bee2ce; stroke:none;" d="M500 458L501 459L500 458z"/>
<path style="fill:#77c398; stroke:none;" d="M308 459L309 460L308 459M499 459L500 460L499 459z"/>
<path style="fill:#d4ecde; stroke:none;" d="M308 460L309 461L308 460z"/>
<path style="fill:#33a564; stroke:none;" d="M309 460L310 461L309 460M498 460L499 461L498 460z"/>
<path style="fill:#d4ecde; stroke:none;" d="M499 460L500 461L499 460z"/>
<path style="fill:#92cfac; stroke:none;" d="M309 461L310 462L309 461M498 461L499 462L498 461z"/>
<path style="fill:#f1f9f4; stroke:none;" d="M309 462L310 463L309 462z"/>
<path style="fill:#53b37c; stroke:none;" d="M310 462L311 463L310 462M497 462L498 463L497 462z"/>
<path style="fill:#f1f9f4; stroke:none;" d="M498 462L499 463L498 462z"/>
<path style="fill:#b5dec7; stroke:none;" d="M310 463L311 464L310 463z"/>
<path style="fill:#18994f; stroke:none;" d="M311 463L312 464L311 463M496 463L497 464L496 463z"/>
<path style="fill:#b5dec7; stroke:none;" d="M497 463L498 464L497 463z"/>
<path style="fill:#7cc59b; stroke:none;" d="M311 464L312 465L311 464M496 464L497 465L496 464z"/>
<path style="fill:#e0f1e7; stroke:none;" d="M311 465L312 466L311 465z"/>
<path style="fill:#46ad72; stroke:none;" d="M312 465L313 466L312 465M495 465L496 466L495 465z"/>
<path style="fill:#e0f1e7; stroke:none;" d="M496 465L497 466L496 465z"/>
<path style="fill:#addbc1; stroke:none;" d="M312 466L313 467L312 466z"/>
<path style="fill:#14974c; stroke:none;" d="M313 466L314 467L313 466M494 466L495 467L494 466z"/>
<path style="fill:#addbc1; stroke:none;" d="M495 466L496 467L495 466z"/>
<path style="fill:#7cc59b; stroke:none;" d="M313 467L314 468L313 467M494 467L495 468L494 467z"/>
<path style="fill:#fefefe; stroke:none;" d="M288 468L289 469L288 468z"/>
<path style="fill:#e5f3eb; stroke:none;" d="M313 468L314 469L313 468z"/>
<path style="fill:#4fb179; stroke:none;" d="M314 468L315 469L314 468M493 468L494 469L493 468z"/>
<path style="fill:#e5f3eb; stroke:none;" d="M494 468L495 469L494 468z"/>
<path style="fill:#f6f6f6; stroke:none;" d="M288 469L289 470L288 469z"/>
<path style="fill:#bae0cb; stroke:none;" d="M314 469L315 470L314 469z"/>
<path style="fill:#259e59; stroke:none;" d="M315 469L316 470L315 469M492 469L493 470L492 469z"/>
<path style="fill:#bae0cb; stroke:none;" d="M493 469L494 470L493 469z"/>
<path style="fill:#fcfcfc; stroke:none;" d="M289 470L290 471L289 470z"/>
<path style="fill:#92cfac; stroke:none;" d="M315 470L316 471L315 470M492 470L493 471L492 470z"/>
<path style="fill:#fefffe; stroke:none;" d="M315 471L316 472L315 471z"/>
<path style="fill:#6dbe90; stroke:none;" d="M316 471L317 472L316 471M491 471L492 472L491 471z"/>
<path style="fill:#fefffe; stroke:none;" d="M492 471L493 472L492 471z"/>
<path style="fill:#dbefe4; stroke:none;" d="M316 472L317 473L316 472z"/>
<path style="fill:#4cb077; stroke:none;" d="M317 472L318 473L317 472M490 472L491 473L490 472z"/>
<path style="fill:#dbefe4; stroke:none;" d="M491 472L492 473L491 472z"/>
<path style="fill:#bce1cc; stroke:none;" d="M317 473L318 474L317 473z"/>
<path style="fill:#2ea260; stroke:none;" d="M318 473L319 474L318 473M489 473L490 474L489 473z"/>
<path style="fill:#bce1cc; stroke:none;" d="M490 473L491 474L490 473z"/>
<path style="fill:#a0d5b7; stroke:none;" d="M318 474L319 475L318 474z"/>
<path style="fill:#14974c; stroke:none;" d="M319 474L320 475L319 474M488 474L489 475L488 474z"/>
<path style="fill:#a0d5b7; stroke:none;" d="M489 474L490 475L489 474z"/>
<path style="fill:#88caa4; stroke:none;" d="M319 475L320 476L319 475M488 475L489 476L488 475z"/>
<path style="fill:#fcfefd; stroke:none;" d="M319 476L320 477L319 476z"/>
<path style="fill:#72c194; stroke:none;" d="M320 476L321 477L320 476M487 476L488 477L487 476z"/>
<path style="fill:#fcfefd; stroke:none;" d="M488 476L489 477L488 476z"/>
<path style="fill:#e8f5ee; stroke:none;" d="M320 477L321 478L320 477z"/>
<path style="fill:#60b986; stroke:none;" d="M321 477L322 478L321 477M486 477L487 478L486 477z"/>
<path style="fill:#e8f5ee; stroke:none;" d="M487 477L488 478L487 477z"/>
<path style="fill:#d8eee1; stroke:none;" d="M321 478L322 479L321 478z"/>
<path style="fill:#51b27b; stroke:none;" d="M322 478L323 479L322 478M485 478L486 479L485 478z"/>
<path style="fill:#d8eee1; stroke:none;" d="M486 478L487 479L486 478z"/>
<path style="fill:#cbe8d7; stroke:none;" d="M322 479L323 480L322 479z"/>
<path style="fill:#46ad72; stroke:none;" d="M323 479L324 480L323 479M484 479L485 480L484 479z"/>
<path style="fill:#cbe8d7; stroke:none;" d="M485 479L486 480L485 479z"/>
<path style="fill:#c1e4d0; stroke:none;" d="M323 480L324 481L323 480z"/>
<path style="fill:#3ea96c; stroke:none;" d="M324 480L325 481L324 480M483 480L484 481L483 480z"/>
<path style="fill:#c1e4d0; stroke:none;" d="M484 480L485 481L484 480z"/>
<path style="fill:#f8f8f8; stroke:none;" d="M296 481L297 482L296 481z"/>
<path style="fill:#bae0cb; stroke:none;" d="M324 481L325 482L324 481z"/>
<path style="fill:#39a768; stroke:none;" d="M325 481L326 482L325 481M482 481L483 482L482 481z"/>
<path style="fill:#bae0cb; stroke:none;" d="M483 481L484 482L483 481z"/>
<path style="fill:#fbfbfb; stroke:none;" d="M297 482L298 483L297 482z"/>
<path style="fill:#b7dfc8; stroke:none;" d="M325 482L327 484L325 482z"/>
<path style="fill:#37a667; stroke:none;" d="M326 482L327 483L326 482M481 482L482 483L481 482z"/>
<path style="fill:#b7dfc8; stroke:none;" d="M482 482L483 483L482 482z"/>
<path style="fill:#39a768; stroke:none;" d="M327 483L328 484L327 483M480 483L481 484L480 483z"/>
<path style="fill:#b7dfc8; stroke:none;" d="M481 483L482 484L481 483z"/>
<path style="fill:#bae0cb; stroke:none;" d="M327 484L328 485L327 484z"/>
<path style="fill:#3ea96c; stroke:none;" d="M328 484L329 485L328 484M479 484L480 485L479 484z"/>
<path style="fill:#bae0cb; stroke:none;" d="M480 484L481 485L480 484z"/>
<path style="fill:#c1e4d0; stroke:none;" d="M328 485L329 486L328 485z"/>
<path style="fill:#46ad72; stroke:none;" d="M329 485L330 486L329 485M478 485L479 486L478 485z"/>
<path style="fill:#c1e4d0; stroke:none;" d="M479 485L480 486L479 485z"/>
<path style="fill:#cbe8d7; stroke:none;" d="M329 486L330 487L329 486z"/>
<path style="fill:#51b27b; stroke:none;" d="M330 486L331 487L330 486M477 486L478 487L477 486z"/>
<path style="fill:#cbe8d7; stroke:none;" d="M478 486L479 487L478 486z"/>
<path style="fill:#d8eee1; stroke:none;" d="M330 487L331 488L330 487z"/>
<path style="fill:#60b986; stroke:none;" d="M331 487L332 488L331 487M476 487L477 488L476 487z"/>
<path style="fill:#d8eee1; stroke:none;" d="M477 487L478 488L477 487z"/>
<path style="fill:#e8f5ee; stroke:none;" d="M331 488L332 489L331 488z"/>
<path style="fill:#72c194; stroke:none;" d="M332 488L333 489L332 488M475 488L476 489L475 488z"/>
<path style="fill:#e8f5ee; stroke:none;" d="M476 488L477 489L476 488z"/>
<path style="fill:#fcfefd; stroke:none;" d="M332 489L333 490L332 489z"/>
<path style="fill:#88caa4; stroke:none;" d="M333 489L334 490L333 489z"/>
<path style="fill:#14974c; stroke:none;" d="M334 489L335 490L334 489M473 489L474 490L473 489z"/>
<path style="fill:#88caa4; stroke:none;" d="M474 489L475 490L474 489z"/>
<path style="fill:#fcfefd; stroke:none;" d="M475 489L476 490L475 489z"/>
<path style="fill:#a0d5b7; stroke:none;" d="M334 490L335 491L334 490z"/>
<path style="fill:#2ea260; stroke:none;" d="M335 490L336 491L335 490M472 490L473 491L472 490z"/>
<path style="fill:#a0d5b7; stroke:none;" d="M473 490L474 491L473 490z"/>
<path style="fill:#bce1cc; stroke:none;" d="M335 491L336 492L335 491z"/>
<path style="fill:#4cb077; stroke:none;" d="M336 491L337 492L336 491M471 491L472 492L471 491z"/>
<path style="fill:#bce1cc; stroke:none;" d="M472 491L473 492L472 491z"/>
<path style="fill:#dbefe4; stroke:none;" d="M336 492L337 493L336 492z"/>
<path style="fill:#6dbe90; stroke:none;" d="M337 492L338 493L337 492M470 492L471 493L470 492z"/>
<path style="fill:#dbefe4; stroke:none;" d="M471 492L472 493L471 492z"/>
<path style="fill:#fefffe; stroke:none;" d="M337 493L338 494L337 493z"/>
<path style="fill:#92cfac; stroke:none;" d="M338 493L339 494L338 493z"/>
<path style="fill:#259e59; stroke:none;" d="M339 493L340 494L339 493M468 493L469 494L468 493z"/>
<path style="fill:#92cfac; stroke:none;" d="M469 493L470 494L469 493z"/>
<path style="fill:#fefffe; stroke:none;" d="M470 493L471 494L470 493z"/>
<path style="fill:#bae0cb; stroke:none;" d="M339 494L340 495L339 494z"/>
<path style="fill:#4fb179; stroke:none;" d="M340 494L341 495L340 494M467 494L468 495L467 494z"/>
<path style="fill:#bae0cb; stroke:none;" d="M468 494L469 495L468 494z"/>
<path style="fill:#e5f3eb; stroke:none;" d="M340 495L341 496L340 495z"/>
<path style="fill:#7cc59b; stroke:none;" d="M341 495L342 496L341 495z"/>
<path style="fill:#14974c; stroke:none;" d="M342 495L343 496L342 495M465 495L466 496L465 495z"/>
<path style="fill:#7cc59b; stroke:none;" d="M466 495L467 496L466 495z"/>
<path style="fill:#e5f3eb; stroke:none;" d="M467 495L468 496L467 495z"/>
<path style="fill:#addbc1; stroke:none;" d="M342 496L343 497L342 496z"/>
<path style="fill:#46ad72; stroke:none;" d="M343 496L344 497L343 496M464 496L465 497L464 496z"/>
<path style="fill:#addbc1; stroke:none;" d="M465 496L466 497L465 496z"/>
<path style="fill:#e0f1e7; stroke:none;" d="M343 497L344 498L343 497z"/>
<path style="fill:#7cc59b; stroke:none;" d="M344 497L345 498L344 497z"/>
<path style="fill:#18994f; stroke:none;" d="M345 497L346 498L345 497M462 497L463 498L462 497z"/>
<path style="fill:#7cc59b; stroke:none;" d="M463 497L464 498L463 497z"/>
<path style="fill:#e0f1e7; stroke:none;" d="M464 497L465 498L464 497z"/>
<path style="fill:#b5dec7; stroke:none;" d="M345 498L346 499L345 498z"/>
<path style="fill:#53b37c; stroke:none;" d="M346 498L347 499L346 498M461 498L462 499L461 498z"/>
<path style="fill:#b5dec7; stroke:none;" d="M462 498L463 499L462 498z"/>
<path style="fill:#f1f9f4; stroke:none;" d="M346 499L347 500L346 499z"/>
<path style="fill:#92cfac; stroke:none;" d="M347 499L348 500L347 499z"/>
<path style="fill:#33a564; stroke:none;" d="M348 499L349 500L348 499M459 499L460 500L459 499z"/>
<path style="fill:#92cfac; stroke:none;" d="M460 499L461 500L460 499z"/>
<path style="fill:#f1f9f4; stroke:none;" d="M461 499L462 500L461 499z"/>
<path style="fill:#d4ecde; stroke:none;" d="M348 500L349 501L348 500z"/>
<path style="fill:#77c398; stroke:none;" d="M349 500L350 501L349 500z"/>
<path style="fill:#1b9a52; stroke:none;" d="M350 500L351 501L350 500M457 500L458 501L457 500z"/>
<path style="fill:#77c398; stroke:none;" d="M458 500L459 501L458 500z"/>
<path style="fill:#d4ecde; stroke:none;" d="M459 500L460 501L459 500z"/>
<path style="fill:#bee2ce; stroke:none;" d="M350 501L351 502L350 501z"/>
<path style="fill:#64ba89; stroke:none;" d="M351 501L352 502L351 501z"/>
<path style="fill:#0a9245; stroke:none;" d="M352 501L353 502L352 501M455 501L456 502L455 501z"/>
<path style="fill:#64ba89; stroke:none;" d="M456 501L457 502L456 501z"/>
<path style="fill:#bee2ce; stroke:none;" d="M457 501L458 502L457 501z"/>
<path style="fill:#b1dcc4; stroke:none;" d="M352 502L353 503L352 502z"/>
<path style="fill:#5ab681; stroke:none;" d="M353 502L354 503L353 502z"/>
<path style="fill:#038f3f; stroke:none;" d="M354 502L355 503L354 502M453 502L454 503L453 502z"/>
<path style="fill:#5ab681; stroke:none;" d="M454 502L455 503L454 502z"/>
<path style="fill:#b1dcc4; stroke:none;" d="M455 502L456 503L455 502z"/>
<path style="fill:#acdac0; stroke:none;" d="M354 503L355 504L354 503z"/>
<path style="fill:#58b580; stroke:none;" d="M355 503L356 504L355 503z"/>
<path style="fill:#049040; stroke:none;" d="M356 503L357 504L356 503M451 503L452 504L451 503z"/>
<path style="fill:#58b580; stroke:none;" d="M452 503L453 504L452 503z"/>
<path style="fill:#acdac0; stroke:none;" d="M453 503L454 504L453 503z"/>
<path style="fill:#b0dcc3; stroke:none;" d="M356 504L357 505L356 504z"/>
<path style="fill:#5eb885; stroke:none;" d="M357 504L358 505L357 504z"/>
<path style="fill:#0d9447; stroke:none;" d="M358 504L359 505L358 504M449 504L450 505L449 504z"/>
<path style="fill:#5eb885; stroke:none;" d="M450 504L451 505L450 504z"/>
<path style="fill:#b0dcc3; stroke:none;" d="M451 504L452 505L451 504z"/>
<path style="fill:#bde2cd; stroke:none;" d="M358 505L359 506L358 505z"/>
<path style="fill:#6ebf91; stroke:none;" d="M359 505L360 506L359 505z"/>
<path style="fill:#209c55; stroke:none;" d="M360 505L361 506L360 505M447 505L448 506L447 505z"/>
<path style="fill:#6ebf91; stroke:none;" d="M448 505L449 506L448 505z"/>
<path style="fill:#bde2cd; stroke:none;" d="M449 505L450 506L449 505z"/>
<path style="fill:#d2ebdd; stroke:none;" d="M360 506L361 507L360 506z"/>
<path style="fill:#86c9a3; stroke:none;" d="M361 506L362 507L361 506z"/>
<path style="fill:#3ba86a; stroke:none;" d="M362 506L363 507L362 506M445 506L446 507L445 506z"/>
<path style="fill:#86c9a3; stroke:none;" d="M446 506L447 507L446 506z"/>
<path style="fill:#d2ebdd; stroke:none;" d="M447 506L448 507L447 506z"/>
<path style="fill:#f1f9f4; stroke:none;" d="M362 507L363 508L362 507z"/>
<path style="fill:#a8d8bd; stroke:none;" d="M363 507L364 508L363 507z"/>
<path style="fill:#61b987; stroke:none;" d="M364 507L365 508L364 507z"/>
<path style="fill:#1a9a51; stroke:none;" d="M365 507L366 508L365 507M442 507L443 508L442 507z"/>
<path style="fill:#61b987; stroke:none;" d="M443 507L444 508L443 507z"/>
<path style="fill:#a8d8bd; stroke:none;" d="M444 507L445 508L444 507z"/>
<path style="fill:#f1f9f4; stroke:none;" d="M445 507L446 508L445 507z"/>
<path style="fill:#d4ecde; stroke:none;" d="M365 508L366 509L365 508z"/>
<path style="fill:#90ceab; stroke:none;" d="M366 508L367 509L366 508z"/>
<path style="fill:#4cb077; stroke:none;" d="M367 508L368 509L367 508z"/>
<path style="fill:#0a9245; stroke:none;" d="M368 508L369 509L368 508M439 508L440 509L439 508z"/>
<path style="fill:#4cb077; stroke:none;" d="M440 508L441 509L440 508z"/>
<path style="fill:#90ceab; stroke:none;" d="M441 508L442 509L441 508z"/>
<path style="fill:#d4ecde; stroke:none;" d="M442 508L443 509L442 508z"/>
<path style="fill:#c8e7d5; stroke:none;" d="M368 509L369 510L368 509z"/>
<path style="fill:#89cba5; stroke:none;" d="M369 509L370 510L369 509z"/>
<path style="fill:#4aaf75; stroke:none;" d="M370 509L371 510L370 509z"/>
<path style="fill:#0c9346; stroke:none;" d="M371 509L372 510L371 509M436 509L437 510L436 509z"/>
<path style="fill:#4aaf75; stroke:none;" d="M437 509L438 510L437 509z"/>
<path style="fill:#89cba5; stroke:none;" d="M438 509L439 510L438 509z"/>
<path style="fill:#c8e7d5; stroke:none;" d="M439 509L440 510L439 509z"/>
<path style="fill:#cfeada; stroke:none;" d="M371 510L372 511L371 510z"/>
<path style="fill:#94d0ae; stroke:none;" d="M372 510L373 511L372 510z"/>
<path style="fill:#5ab681; stroke:none;" d="M373 510L374 511L373 510z"/>
<path style="fill:#219d56; stroke:none;" d="M374 510L375 511L374 510M433 510L434 511L433 510z"/>
<path style="fill:#5ab681; stroke:none;" d="M434 510L435 511L434 510z"/>
<path style="fill:#94d0ae; stroke:none;" d="M435 510L436 511L435 510z"/>
<path style="fill:#cfeada; stroke:none;" d="M436 510L437 511L436 510z"/>
<path style="fill:#fefefe; stroke:none;" d="M326 511L327 512L326 511z"/>
<path style="fill:#e9f5ee; stroke:none;" d="M374 511L375 512L374 511z"/>
<path style="fill:#b3ddc5; stroke:none;" d="M375 511L376 512L375 511z"/>
<path style="fill:#7ec69d; stroke:none;" d="M376 511L377 512L376 511z"/>
<path style="fill:#4aaf75; stroke:none;" d="M377 511L378 512L377 511z"/>
<path style="fill:#17984e; stroke:none;" d="M378 511L379 512L378 511M429 511L430 512L429 511z"/>
<path style="fill:#4aaf75; stroke:none;" d="M430 511L431 512L430 511z"/>
<path style="fill:#7ec69d; stroke:none;" d="M431 511L432 512L431 511z"/>
<path style="fill:#b3ddc5; stroke:none;" d="M432 511L433 512L432 511z"/>
<path style="fill:#e9f5ee; stroke:none;" d="M433 511L434 512L433 511z"/>
<path style="fill:#e5f3eb; stroke:none;" d="M378 512L379 513L378 512z"/>
<path style="fill:#b6dfc7; stroke:none;" d="M379 512L380 513L379 512z"/>
<path style="fill:#88caa4; stroke:none;" d="M380 512L381 513L380 512z"/>
<path style="fill:#5ab681; stroke:none;" d="M381 512L382 513L381 512z"/>
<path style="fill:#2fa361; stroke:none;" d="M382 512L383 513L382 512z"/>
<path style="fill:#049040; stroke:none;" d="M383 512L384 513L383 512M424 512L425 513L424 512z"/>
<path style="fill:#2fa361; stroke:none;" d="M425 512L426 513L425 512z"/>
<path style="fill:#5ab681; stroke:none;" d="M426 512L427 513L426 512z"/>
<path style="fill:#88caa4; stroke:none;" d="M427 512L428 513L427 512z"/>
<path style="fill:#b6dfc7; stroke:none;" d="M428 512L429 513L428 512z"/>
<path style="fill:#e5f3eb; stroke:none;" d="M429 512L430 513L429 512z"/>
<path style="fill:#dbefe4; stroke:none;" d="M383 513L384 514L383 513z"/>
<path style="fill:#b4dec6; stroke:none;" d="M384 513L385 514L384 513z"/>
<path style="fill:#8ecda9; stroke:none;" d="M385 513L386 514L385 513z"/>
<path style="fill:#6abd8e; stroke:none;" d="M386 513L387 514L386 513z"/>
<path style="fill:#47ad73; stroke:none;" d="M387 513L388 514L387 513z"/>
<path style="fill:#259e59; stroke:none;" d="M388 513L389 514L388 513z"/>
<path style="fill:#069142; stroke:none;" d="M389 513L390 514L389 513M418 513L419 514L418 513z"/>
<path style="fill:#259e59; stroke:none;" d="M419 513L420 514L419 513z"/>
<path style="fill:#47ad73; stroke:none;" d="M420 513L421 514L420 513z"/>
<path style="fill:#6abd8e; stroke:none;" d="M421 513L422 514L421 513z"/>
<path style="fill:#8ecda9; stroke:none;" d="M422 513L423 514L422 513z"/>
<path style="fill:#b4dec6; stroke:none;" d="M423 513L424 514L423 513z"/>
<path style="fill:#dbefe4; stroke:none;" d="M424 513L425 514L424 513z"/>
<path style="fill:#e7f4ed; stroke:none;" d="M389 514L390 515L389 514z"/>
<path style="fill:#cbe8d7; stroke:none;" d="M390 514L391 515L390 514z"/>
<path style="fill:#b0dcc3; stroke:none;" d="M391 514L392 515L391 514z"/>
<path style="fill:#97d1b0; stroke:none;" d="M392 514L393 515L392 514z"/>
<path style="fill:#80c79e; stroke:none;" d="M393 514L394 515L393 514z"/>
<path style="fill:#6bbd8e; stroke:none;" d="M394 514L395 515L394 514z"/>
<path style="fill:#57b57f; stroke:none;" d="M395 514L396 515L395 514z"/>
<path style="fill:#45ad71; stroke:none;" d="M396 514L397 515L396 514z"/>
<path style="fill:#35a565; stroke:none;" d="M397 514L398 515L397 514z"/>
<path style="fill:#279f5b; stroke:none;" d="M398 514L399 515L398 514z"/>
<path style="fill:#1b9a52; stroke:none;" d="M399 514L400 515L399 514z"/>
<path style="fill:#12964b; stroke:none;" d="M400 514L401 515L400 514z"/>
<path style="fill:#0a9245; stroke:none;" d="M401 514L402 515L401 514z"/>
<path style="fill:#049040; stroke:none;" d="M402 514L403 515L402 514z"/>
<path style="fill:#018e3e; stroke:none;" d="M403.667 514.333L404.333 514.667L403.667 514.333z"/>
<path style="fill:#049040; stroke:none;" d="M405 514L406 515L405 514z"/>
<path style="fill:#0a9245; stroke:none;" d="M406 514L407 515L406 514z"/>
<path style="fill:#12964b; stroke:none;" d="M407 514L408 515L407 514z"/>
<path style="fill:#1b9a52; stroke:none;" d="M408 514L409 515L408 514z"/>
<path style="fill:#279f5b; stroke:none;" d="M409 514L410 515L409 514z"/>
<path style="fill:#35a565; stroke:none;" d="M410 514L411 515L410 514z"/>
<path style="fill:#45ad71; stroke:none;" d="M411 514L412 515L411 514z"/>
<path style="fill:#57b57f; stroke:none;" d="M412 514L413 515L412 514z"/>
<path style="fill:#6bbd8e; stroke:none;" d="M413 514L414 515L413 514z"/>
<path style="fill:#80c79e; stroke:none;" d="M414 514L415 515L414 514z"/>
<path style="fill:#97d1b0; stroke:none;" d="M415 514L416 515L415 514z"/>
<path style="fill:#b0dcc3; stroke:none;" d="M416 514L417 515L416 514z"/>
<path style="fill:#cbe8d7; stroke:none;" d="M417 514L418 515L417 514z"/>
<path style="fill:#e7f4ed; stroke:none;" d="M418 514L419 515L418 514z"/>
</svg>
