<?xml version="1.0" encoding="UTF-8" standalone="no"?>
<!DOCTYPE svg PUBLIC "-//W3C//DTD SVG 20010904//EN"
              "http://www.w3.org/TR/2001/REC-SVG-20010904/DTD/svg10.dtd">

<svg xmlns="http://www.w3.org/2000/svg"
     width="7.41667in" height="7.43056in"
     viewBox="0 0 534 535">
  <path id="Selection"
        fill="none" stroke="black" stroke-width="1"
        d="M 0.00,0.00
           C 0.00,0.00 79.00,0.00 79.00,0.00
             79.00,0.00 79.00,480.00 79.00,480.00
             79.00,480.00 47.00,480.00 47.00,480.00
             47.00,480.00 47.00,512.00 47.00,512.00
             47.00,512.00 207.00,512.00 207.00,512.00
             207.00,512.00 207.00,416.00 207.00,416.00
             207.00,416.00 257.00,416.00 257.00,416.00
             254.10,404.10 255.04,395.81 256.00,384.00
             256.00,384.00 207.00,384.00 207.00,384.00
             207.00,384.00 207.00,320.00 207.00,320.00
             207.00,320.00 270.00,320.00 270.00,320.00
             272.56,319.99 275.64,320.19 277.96,318.98
             280.96,317.41 284.06,312.73 286.21,310.00
             291.21,303.67 293.36,301.61 299.00,296.00
             307.04,288.00 313.61,283.18 323.00,277.00
             333.48,270.10 334.94,272.20 335.00,263.00
             335.00,263.00 335.00,224.00 335.00,224.00
             335.00,224.00 399.00,224.00 399.00,224.00
             399.00,224.00 399.00,256.00 399.00,256.00
             399.00,256.00 431.00,259.00 431.00,259.00
             431.00,259.00 431.00,0.00 431.00,0.00
             431.00,0.00 534.00,0.00 534.00,0.00
             534.00,0.00 534.00,271.00 534.00,271.00
             534.00,271.00 534.00,350.00 534.00,350.00
             534.00,350.00 534.00,372.00 534.00,372.00
             534.00,372.00 533.00,385.00 533.00,385.00
             532.76,358.84 516.92,332.93 499.00,315.00
             490.94,306.94 486.41,301.99 477.00,295.16
             460.51,283.18 436.44,275.03 416.00,275.00
             398.51,274.97 382.05,273.98 365.00,279.04
             340.84,286.21 328.65,295.35 311.00,313.00
             303.93,320.07 299.28,324.70 293.44,333.00
             282.66,348.30 274.22,372.19 274.00,391.00
             274.00,391.00 274.00,417.00 274.00,417.00
             274.04,445.46 287.16,473.07 307.00,493.00
             323.00,509.07 333.27,519.37 355.00,527.58
             367.95,532.47 381.31,533.92 384.00,535.00
             384.00,535.00 0.00,535.00 0.00,535.00
             0.00,535.00 0.00,0.00 0.00,0.00 Z
           M 111.00,32.00
           C 111.00,32.00 175.00,32.00 175.00,32.00
             175.00,32.00 175.00,96.00 175.00,96.00
             175.00,96.00 111.00,96.00 111.00,96.00
             111.00,96.00 111.00,32.00 111.00,32.00 Z
           M 207.00,32.00
           C 207.00,32.00 303.00,32.00 303.00,32.00
             303.00,32.00 303.00,96.00 303.00,96.00
             303.00,96.00 207.00,96.00 207.00,96.00
             207.00,96.00 207.00,32.00 207.00,32.00 Z
           M 335.00,32.00
           C 335.00,32.00 399.00,32.00 399.00,32.00
             399.00,32.00 399.00,96.00 399.00,96.00
             399.00,96.00 335.00,96.00 335.00,96.00
             335.00,96.00 335.00,32.00 335.00,32.00 Z
           M 111.00,128.00
           C 111.00,128.00 175.00,128.00 175.00,128.00
             175.00,128.00 175.00,192.00 175.00,192.00
             175.00,192.00 111.00,192.00 111.00,192.00
             111.00,192.00 111.00,128.00 111.00,128.00 Z
           M 207.00,128.00
           C 207.00,128.00 303.00,128.00 303.00,128.00
             303.00,128.00 303.00,192.00 303.00,192.00
             303.00,192.00 207.00,192.00 207.00,192.00
             207.00,192.00 207.00,128.00 207.00,128.00 Z
           M 335.00,128.00
           C 335.00,128.00 399.00,128.00 399.00,128.00
             399.00,128.00 399.00,192.00 399.00,192.00
             399.00,192.00 335.00,192.00 335.00,192.00
             335.00,192.00 335.00,128.00 335.00,128.00 Z
           M 111.00,224.00
           C 111.00,224.00 175.00,224.00 175.00,224.00
             175.00,224.00 175.00,288.00 175.00,288.00
             175.00,288.00 111.00,288.00 111.00,288.00
             111.00,288.00 111.00,224.00 111.00,224.00 Z
           M 207.00,224.00
           C 207.00,224.00 303.00,224.00 303.00,224.00
             303.00,224.00 303.00,288.00 303.00,288.00
             303.00,288.00 207.00,288.00 207.00,288.00
             207.00,288.00 207.00,224.00 207.00,224.00 Z
           M 338.00,317.00
           C 346.25,307.29 370.37,298.71 383.00,296.21
             388.44,295.44 394.69,293.89 400.00,296.21
             385.16,296.00 370.40,299.97 357.00,306.32
             357.00,306.32 338.00,317.00 338.00,317.00 Z
           M 408.00,295.00
           C 450.87,295.00 489.68,322.69 505.99,362.00
             509.57,370.63 516.46,392.29 513.00,401.00
             513.00,361.82 486.03,322.92 451.00,306.32
             442.44,302.26 433.28,299.32 424.00,297.45
             424.00,297.45 408.00,295.00 408.00,295.00 Z
           M 336.00,317.00
           C 335.94,320.89 331.62,323.46 329.00,326.01
             323.06,331.82 319.07,336.12 314.35,343.00
             305.18,356.35 300.89,366.33 297.13,382.00
             297.13,382.00 294.00,401.00 294.00,401.00
             294.00,374.93 304.78,349.32 322.17,330.00
             322.17,330.00 336.00,317.00 336.00,317.00 Z
           M 111.00,320.00
           C 111.00,320.00 175.00,320.00 175.00,320.00
             175.00,320.00 175.00,384.00 175.00,384.00
             175.00,384.00 111.00,384.00 111.00,384.00
             111.00,384.00 111.00,320.00 111.00,320.00 Z
           M 294.00,409.00
           C 294.00,409.00 296.45,425.00 296.45,425.00
             298.32,434.28 301.26,443.44 305.32,452.00
             317.81,478.34 342.57,499.52 370.00,508.92
             375.14,510.68 384.56,512.79 390.00,513.57
             393.63,514.09 396.57,513.64 400.00,515.00
             343.04,515.00 294.00,465.96 294.00,409.00 Z
           M 513.00,409.00
           C 515.91,416.34 511.25,433.51 508.66,441.00
             497.69,472.71 475.31,496.06 444.00,508.19
             435.84,511.35 416.15,517.23 408.00,514.00
             462.81,513.99 512.99,463.81 513.00,409.00 Z
           M 111.00,416.00
           C 111.00,416.00 175.00,416.00 175.00,416.00
             175.00,416.00 175.00,480.00 175.00,480.00
             175.00,480.00 111.00,480.00 111.00,480.00
             111.00,480.00 111.00,416.00 111.00,416.00 Z
           M 533.00,425.00
           C 533.00,425.00 534.00,437.00 534.00,437.00
             534.00,437.00 534.00,459.00 534.00,459.00
             534.00,459.00 534.00,535.00 534.00,535.00
             534.00,535.00 458.00,535.00 458.00,535.00
             458.00,535.00 436.00,535.00 436.00,535.00
             436.00,535.00 424.00,534.00 424.00,534.00
             440.81,533.85 462.38,525.15 476.00,515.56
             484.80,509.36 489.52,504.48 497.00,497.00
             504.07,489.93 508.72,485.30 514.56,477.00
             524.15,463.38 532.85,441.81 533.00,425.00 Z" />
</svg>
