<?xml version="1.0" standalone="no"?>
<!DOCTYPE svg PUBLIC "-//W3C//DTD SVG 20010904//EN"
 "http://www.w3.org/TR/2001/REC-SVG-20010904/DTD/svg10.dtd">
<svg version="1.0" xmlns="http://www.w3.org/2000/svg"
 width="487.000000pt" height="535.000000pt" viewBox="0 0 487.000000 535.000000"
 preserveAspectRatio="xMidYMid meet">

<g transform="translate(0.000000,535.000000) scale(0.100000,-0.100000)"
fill="#000000" stroke="none">
<path d="M0 2950 l0 -2400 160 0 160 0 0 2400 0 2400 -160 0 -160 0 0 -2400z"/>
<path d="M3840 4054 l0 -1296 -27 5 c-16 4 -88 12 -160 19 l-133 12 0 158 0
158 -320 0 -320 0 0 -234 c0 -229 0 -235 -21 -241 -11 -4 -68 -38 -125 -77
-123 -82 -261 -210 -351 -325 l-65 -83 -359 0 -359 0 0 -320 0 -320 243 0 242
0 0 -132 c0 -73 4 -145 8 -160 l7 -28 -250 0 -250 0 0 -480 0 -480 -800 0
-800 0 0 -115 0 -115 1688 1 c928 1 1680 3 1672 4 -8 2 -49 9 -90 15 -155 25
-332 104 -466 206 -97 74 -289 273 -345 359 -141 213 -189 395 -189 715 0 276
34 436 132 620 107 202 372 462 573 563 170 85 333 117 595 117 320 0 502 -48
715 -189 86 -56 285 -248 359 -345 102 -134 181 -311 206 -466 6 -41 13 -82
15 -90 1 -8 3 852 4 1913 l1 1927 -515 0 -515 0 0 -1296z"/>
<path d="M640 4710 l0 -320 320 0 320 0 0 320 0 320 -320 0 -320 0 0 -320z"/>
<path d="M1600 4710 l0 -320 480 0 480 0 0 320 0 320 -480 0 -480 0 0 -320z"/>
<path d="M2880 4710 l0 -320 320 0 320 0 0 320 0 320 -320 0 -320 0 0 -320z"/>
<path d="M640 3750 l0 -320 320 0 320 0 0 320 0 320 -320 0 -320 0 0 -320z"/>
<path d="M1600 3750 l0 -320 480 0 480 0 0 320 0 320 -480 0 -480 0 0 -320z"/>
<path d="M2880 3750 l0 -320 320 0 320 0 0 320 0 320 -320 0 -320 0 0 -320z"/>
<path d="M640 2790 l0 -320 320 0 320 0 0 320 0 320 -320 0 -320 0 0 -320z"/>
<path d="M1600 2790 l0 -320 480 0 480 0 0 320 0 320 -480 0 -480 0 0 -320z"/>
<path d="M3450 2390 c-257 -30 -466 -134 -655 -324 -217 -219 -317 -461 -317
-766 0 -212 46 -381 155 -566 73 -124 247 -298 371 -371 185 -109 354 -155
566 -155 212 0 381 46 566 155 124 73 298 247 371 371 109 185 155 354 155
566 0 212 -46 381 -155 566 -73 124 -247 298 -371 371 -209 123 -460 179 -686
153z m280 -610 l0 -320 320 0 320 0 0 -165 0 -165 -320 0 -320 0 0 -320 0
-320 -165 0 -165 0 0 320 0 320 -320 0 -320 0 0 165 0 165 320 0 320 0 0 320
0 320 165 0 165 0 0 -320z"/>
<path d="M640 1830 l0 -320 320 0 320 0 0 320 0 320 -320 0 -320 0 0 -320z"/>
<path d="M640 870 l0 -320 320 0 320 0 0 320 0 320 -320 0 -320 0 0 -320z"/>
<path d="M4860 1071 c0 -86 -62 -283 -126 -400 -107 -197 -372 -455 -569 -554
-79 -39 -213 -83 -295 -97 -41 -6 -82 -13 -90 -15 -8 -1 234 -3 538 -4 l552
-1 0 550 c0 303 -2 550 -5 550 -3 0 -5 -13 -5 -29z"/>
</g>
</svg>
